<svg width="174" height="174" viewBox="0 0 174 174" fill="none" xmlns="http://www.w3.org/2000/svg">
<path d="M167.477 133.729C168.159 133.724 168.813 133.452 169.295 132.97C169.777 132.488 170.051 131.834 170.054 131.152V21.326C170.051 20.6443 169.777 19.9915 169.295 19.5095C168.813 19.0272 168.159 18.7541 167.477 18.7495H6.60314C5.92113 18.7541 5.2686 19.0272 4.78632 19.5095C4.3043 19.9915 4.03123 20.6443 4.02661 21.326V131.152C4.03123 131.834 4.3043 132.488 4.78632 132.97C5.2686 133.452 5.92113 133.724 6.60314 133.729H167.477Z" fill="white"/>
<path d="M167.477 14.804H6.60294C4.85432 14.812 3.17928 15.5101 1.94294 16.7465C0.706344 17.9831 0.00818016 19.6578 0.000488281 21.4065V131.234C0.00818016 132.983 0.706344 134.657 1.94294 135.893C3.17928 137.128 4.85432 137.828 6.60294 137.836H67.8772V133.811H6.60294C5.92093 133.806 5.26839 133.531 4.78611 133.049C4.30383 132.567 4.03103 131.916 4.02616 131.234V21.326C4.03103 20.6442 4.30383 19.9914 4.78611 19.5091C5.26839 19.0271 5.92093 18.7541 6.60294 18.7494H167.398C168.08 18.7541 168.731 19.0271 169.213 19.5091C169.698 19.9914 169.969 20.6442 169.975 21.326V131.152C169.969 131.834 169.698 132.488 169.213 132.97C168.731 133.452 168.08 133.724 167.398 133.729H106.123V137.754H167.398C169.146 137.746 170.821 137.049 172.057 135.813C173.295 134.577 173.992 132.901 174 131.152V21.326C174.003 20.4686 173.838 19.6189 173.51 18.8258C173.185 18.0331 172.705 17.3126 172.098 16.7062C171.492 16.0998 170.772 15.6196 169.977 15.2932C169.185 14.9668 168.336 14.8004 167.477 14.804Z" fill="#024D81"/>
<path d="M43.4025 150.638V154.825C43.4061 154.889 43.4327 154.948 43.4773 154.992C43.5219 155.038 43.5812 155.064 43.644 155.066H130.361C130.395 155.071 130.428 155.069 130.459 155.059C130.492 155.048 130.52 155.03 130.544 155.007C130.567 154.984 130.585 154.956 130.595 154.923C130.605 154.892 130.608 154.859 130.602 154.825V150.638C130.608 150.605 130.605 150.572 130.595 150.541C130.585 150.51 130.567 150.482 130.544 150.456C130.52 150.433 130.492 150.415 130.459 150.405C130.428 150.395 130.395 150.392 130.361 150.397H43.644C43.5812 150.4 43.5219 150.428 43.4773 150.472C43.4327 150.515 43.4061 150.577 43.4025 150.638Z" fill="white"/>
<path d="M106.206 150.397H130.441C130.505 150.4 130.564 150.428 130.61 150.471C130.654 150.518 130.679 150.576 130.685 150.638V154.825C130.69 154.858 130.685 154.892 130.674 154.922C130.664 154.956 130.646 154.984 130.623 155.007C130.6 155.03 130.572 155.048 130.541 155.058C130.508 155.069 130.474 155.071 130.441 155.066H43.6438C43.611 155.071 43.5774 155.069 43.5461 155.058C43.5146 155.048 43.4861 155.03 43.4625 155.007C43.4392 154.984 43.4215 154.956 43.411 154.922C43.4005 154.892 43.3974 154.858 43.4023 154.825V150.638C43.4059 150.576 43.4325 150.518 43.4771 150.471C43.5215 150.428 43.581 150.4 43.6438 150.397H67.8796V146.372H43.6438C42.5141 146.379 41.4332 146.831 40.6345 147.628C39.8358 148.428 39.3838 149.51 39.3763 150.638V154.825C39.3838 155.956 39.8358 157.035 40.6345 157.835C41.4332 158.632 42.5141 159.086 43.6438 159.094H130.362C131.492 159.086 132.572 158.632 133.372 157.835C134.169 157.035 134.623 155.956 134.628 154.825V150.638C134.623 149.51 134.169 148.428 133.372 147.628C132.572 146.831 131.492 146.379 130.362 146.372H106.126V150.397H106.206Z" fill="#024D81"/>
<path d="M102.096 137.754H71.9015V146.371H102.096V137.754Z" fill="white"/>
<path d="M106.207 133.729H67.9604V150.397H106.207V133.729ZM102.181 146.369H71.9864V137.754H102.181V146.369Z" fill="#024D81"/>
<path d="M115.558 47.8474H56.3075V103.49H115.558V47.8474Z" fill="#024D81"/>
<path d="M46.1878 76.6347C43.9928 76.6347 41.7975 76.6347 39.6025 76.6347C39.5074 76.639 39.4117 76.6388 39.3164 76.6334C39.2728 76.6247 39.2279 76.6252 39.1843 76.6344C39.1407 76.6436 39.0997 76.6618 39.0633 76.6877C39.0272 76.7134 38.9964 76.7464 38.9733 76.7844C38.9502 76.8226 38.9351 76.8649 38.9292 76.909C38.731 77.5518 38.3585 78.1271 37.8531 78.571C37.1565 79.1989 36.2573 79.5558 35.3194 79.5766C34.3818 79.5973 33.4677 79.2804 32.7439 78.6838C32.0096 78.0931 31.5284 77.2449 31.3976 76.3119C31.2781 75.6437 31.3417 74.9555 31.5817 74.3207C31.8214 73.6856 32.2288 73.1274 32.7601 72.7051C33.4967 72.0918 34.4349 71.7742 35.3925 71.8144C36.3501 71.8547 37.2585 72.2495 37.9408 72.9226C38.3756 73.3505 38.7105 73.8694 38.921 74.442C39.0338 74.7432 39.0356 74.7471 39.3584 74.7499C39.8712 74.7538 40.3843 74.7512 40.8973 74.7512C44.8937 74.7512 48.8899 74.7512 52.8864 74.7512C53.4199 74.7509 53.4207 74.7502 53.4207 74.2243C53.421 71.3252 53.421 68.4264 53.4207 65.5276C53.4207 65.0404 53.4197 65.0394 52.9271 65.0394C50.4814 65.0392 48.0359 65.0389 45.5904 65.0392C45.5547 65.0412 45.5188 65.0412 45.4832 65.0389C45.3842 65.0189 45.2814 65.0376 45.196 65.0909C45.1104 65.1443 45.0484 65.2284 45.0227 65.3258C44.8953 65.6304 44.6927 65.8978 44.4338 66.1029C44.1751 66.3081 43.8687 66.4445 43.5428 66.4991C43.2497 66.5534 42.9485 66.5439 42.6595 66.4711C42.3706 66.3983 42.1006 66.264 41.8683 66.0773C41.6357 65.8909 41.4465 65.6563 41.3129 65.3896C41.1796 65.1233 41.1052 64.8312 41.095 64.5333C41.0932 64.0728 41.2411 63.6244 41.5162 63.2549C41.7914 62.8857 42.1788 62.616 42.6205 62.4857C43.0798 62.3614 43.5682 62.4011 44.0012 62.598C44.4343 62.7952 44.785 63.1372 44.993 63.5651C45.0317 63.6636 45.1012 63.7467 45.1909 63.8026C45.2807 63.8582 45.386 63.8836 45.4914 63.8749C48.0084 63.869 50.5255 63.8723 53.0425 63.87C53.3999 63.8697 53.4197 63.8467 53.4199 63.4746C53.4217 61.5658 53.4215 59.6571 53.4197 57.7485C53.4194 57.3868 53.3979 57.3704 53.0305 57.3629C51.9821 57.3421 50.9337 57.314 49.8855 57.2783C49.0517 57.2506 48.2177 57.2314 47.3839 57.2201C47.1949 57.2247 47.0072 57.1891 46.8331 57.1155C46.659 57.0422 46.5026 56.9324 46.3742 56.7937C45.4542 55.8417 44.5197 54.9023 43.5551 53.9962C42.7723 53.2608 42.0457 52.4693 41.2475 51.7512C41.156 51.6753 41.084 51.5784 41.0378 51.4689C40.9917 51.3592 40.9727 51.2399 40.9827 51.1215C41.0758 49.3344 41.0229 47.5453 41.0494 45.7572C41.066 44.6239 41.0545 43.4906 41.0563 42.3573C41.0522 42.1784 41.0616 41.9997 41.084 41.8223C41.1332 41.4948 41.1194 41.4743 40.8068 41.3412C39.874 40.9705 39.1251 40.2467 38.7231 39.327C38.4677 38.7578 38.3531 38.1353 38.3887 37.5125C38.4246 36.8897 38.6097 36.2846 38.9287 35.7485C39.2477 35.2124 39.691 34.7606 40.2212 34.4319C40.7514 34.1032 41.3529 33.907 41.9749 33.8596C42.597 33.8124 43.2213 33.9158 43.7951 34.1606C44.3689 34.4055 44.8753 34.785 45.2717 35.2667C45.6678 35.7487 45.9424 36.319 46.0716 36.9292C46.2011 37.5394 46.1816 38.1719 46.0152 38.7732C45.855 39.3955 45.5376 39.9659 45.0935 40.4305C44.6497 40.8949 44.0938 41.2377 43.4795 41.4259C42.941 41.6084 42.941 41.6035 42.939 42.1825C42.9341 43.6496 42.9659 45.1182 42.9098 46.5835C42.861 47.8478 42.8936 49.1108 42.8644 50.3741C42.8572 50.4859 42.8754 50.5977 42.9177 50.7015C42.9598 50.8053 43.0246 50.8984 43.1074 50.9738C44.533 52.3645 45.9534 53.7603 47.369 55.1613C47.431 55.2248 47.5054 55.2748 47.5875 55.3084C47.6698 55.3417 47.7577 55.3582 47.8464 55.3561C48.8594 55.3751 49.8722 55.4069 50.8842 55.4381C51.4434 55.4556 52.0039 55.462 52.5631 55.4887C52.7536 55.4976 52.9451 55.5012 53.1353 55.493C53.374 55.483 53.4033 55.4502 53.4184 55.2218C53.4248 55.1269 53.4207 55.031 53.4207 54.9356C53.421 52.9552 53.442 50.9748 53.4141 48.9949C53.4192 48.2355 53.723 47.5086 54.2594 46.9712C54.7958 46.4335 55.5221 46.1287 56.2816 46.1217C58.393 46.1169 60.5047 46.1205 62.6161 46.1205C62.7235 46.1205 62.831 46.1225 62.9381 46.1194C63.2743 46.1102 63.2966 46.0915 63.2973 45.7413C63.2999 44.477 63.3002 43.2124 63.2984 41.9479C63.2984 40.7549 63.2943 39.5619 63.302 38.3691C63.314 38.2701 63.2922 38.1701 63.2399 38.0853C63.1876 38.0007 63.1081 37.9361 63.0143 37.9027C62.6958 37.7622 62.4184 37.5425 62.2089 37.2646C61.9992 36.9866 61.8643 36.6597 61.8169 36.3149C61.7695 35.97 61.811 35.6187 61.9377 35.2944C62.0643 34.9701 62.272 34.6837 62.5407 34.4624C62.763 34.2762 63.0222 34.1393 63.3012 34.0604C63.5802 33.9817 63.8727 33.9627 64.1593 34.005C64.4462 34.0473 64.7208 34.1499 64.9652 34.3057C65.2095 34.4619 65.418 34.6678 65.577 34.9101C65.7359 35.1526 65.8421 35.4257 65.8877 35.7121C65.9336 35.9982 65.9185 36.291 65.8431 36.571C65.7677 36.8507 65.6339 37.1117 65.4506 37.3361C65.2672 37.5607 65.0383 37.7438 64.779 37.8735C64.676 37.9145 64.5891 37.9881 64.5319 38.083C64.4745 38.1778 64.4498 38.2891 64.4616 38.3994C64.4696 40.821 64.4663 43.2427 64.4665 45.6643C64.4665 45.7241 64.4639 45.7841 64.4696 45.8433C64.4896 46.0651 64.5263 46.101 64.7578 46.1174C64.8529 46.1241 64.9488 46.1205 65.0442 46.1205C68.4558 46.1205 71.8676 46.1205 75.2795 46.1205C75.8415 46.1202 75.8418 46.1194 75.8423 45.542C75.8425 45.0528 75.8261 44.5629 75.8479 44.0749C75.8589 43.928 75.8356 43.7803 75.7802 43.6439C75.7249 43.5073 75.6385 43.3855 75.5282 43.2878C74.4967 42.2781 73.4863 41.2469 72.4581 40.2339C72.3625 40.1469 72.2868 40.04 72.2369 39.9208C72.1869 39.8013 72.1638 39.6726 72.1689 39.5434C72.1797 37.9568 72.1686 36.3702 72.1789 34.7837C72.1968 34.6629 72.1725 34.5396 72.1097 34.4347C72.0468 34.3301 71.9499 34.2504 71.8348 34.2091C71.4156 34.0112 71.0777 33.674 70.8787 33.255C70.6798 32.8361 70.6318 32.3612 70.7431 31.911C70.8505 31.4541 71.1092 31.0467 71.4769 30.7549C71.8448 30.4634 72.3004 30.3044 72.7699 30.3042C73.3065 30.3101 73.8196 30.5267 74.198 30.9072C74.5765 31.2877 74.79 31.8018 74.7928 32.3387C74.8144 32.7351 74.7149 33.1286 74.5075 33.4673C74.3003 33.806 73.995 34.0737 73.6322 34.235C73.5386 34.2691 73.4591 34.3332 73.4057 34.4173C73.3527 34.5014 73.3286 34.6009 73.3378 34.6998C73.346 36.191 73.346 37.6822 73.3378 39.1734C73.3381 39.2798 73.3614 39.3847 73.4063 39.4814C73.4509 39.5778 73.5163 39.6634 73.5973 39.7321C74.6385 40.7662 75.6695 41.8102 76.7161 42.8389C76.8171 42.9289 76.8966 43.0409 76.9484 43.166C77.0004 43.2911 77.0235 43.4263 77.0158 43.5616C76.9976 44.2888 77.0079 45.0167 77.0112 45.7446C77.0127 46.0923 77.0345 46.1182 77.3735 46.1187C79.5564 46.1212 81.7396 46.1212 83.9226 46.1184C84.2398 46.1179 84.2618 46.0864 84.2698 45.7646C84.2723 45.6574 84.2705 45.55 84.2705 45.4426C84.2705 41.0884 84.2705 36.7341 84.2705 32.38C84.2705 32.2843 84.2713 32.1889 84.2703 32.0936C84.2657 31.752 84.2667 31.7487 83.9498 31.6369C83.4724 31.4782 83.0311 31.2262 82.6519 30.8954C82.2724 30.5647 81.9627 30.1619 81.7404 29.7106C81.4686 29.176 81.3245 28.5858 81.3192 27.9861C81.3138 27.3864 81.4474 26.7939 81.7094 26.2544C81.9714 25.7149 82.3547 25.2437 82.8296 24.8773C83.3042 24.5106 83.8572 24.2591 84.4454 24.1422C85.0336 24.0253 85.6407 24.0461 86.2194 24.203C86.7983 24.3601 87.3327 24.6488 87.7811 25.047C88.2295 25.4452 88.5798 25.9416 88.8041 26.4977C89.0287 27.0538 89.1213 27.6543 89.0749 28.2522C89.0328 28.9981 88.77 29.7147 88.32 30.3108C87.8698 30.9072 87.2527 31.3562 86.5468 31.6008C86.2327 31.7279 86.1532 31.6608 86.1532 32.1618C86.1545 36.6592 86.1548 41.1566 86.154 45.6541C86.154 45.7018 86.153 45.7495 86.1556 45.7972C86.1707 46.0674 86.205 46.103 86.4709 46.1184C86.5422 46.1228 86.614 46.1205 86.6855 46.1205C89.0477 46.1205 91.4096 46.1205 93.7715 46.1205C94.3077 46.1202 94.3087 46.1192 94.3089 45.5882C94.3095 43.5842 94.3038 41.5799 94.3146 39.5757C94.3341 39.4378 94.3069 39.297 94.2372 39.176C94.1677 39.055 94.0597 38.9609 93.9305 38.908C93.5193 38.7037 93.1926 38.3619 93.007 37.9419C92.8213 37.522 92.7888 37.0502 92.9149 36.6084C93.0123 36.159 93.2626 35.7569 93.6228 35.4708C93.9828 35.1847 94.431 35.0321 94.891 35.0388C95.355 35.0359 95.8063 35.1901 96.1719 35.4757C96.5375 35.7613 96.796 36.1621 96.9055 36.6131C97.0224 37.0684 96.9775 37.5502 96.7788 37.9763C96.5804 38.4022 96.2401 38.7463 95.8163 38.9496C95.7055 38.986 95.6107 39.0596 95.5479 39.1578C95.485 39.256 95.4581 39.3729 95.4714 39.4885C95.4814 41.5523 95.4768 43.6163 95.4771 45.68C95.4771 45.7515 95.4794 45.823 95.4804 45.8946C95.4776 45.9246 95.4814 45.9548 95.4917 45.9833C95.5019 46.0115 95.5184 46.0371 95.5399 46.0582C95.5612 46.0795 95.5871 46.0956 95.6155 46.1053C95.644 46.1151 95.6742 46.1187 95.7042 46.1151C95.7878 46.1179 95.8712 46.1202 95.9547 46.1202C98.5554 46.1205 101.156 46.1205 103.757 46.1202C104.238 46.12 104.24 46.1182 104.24 45.6502C104.241 42.6322 104.241 39.6139 104.24 36.5959C104.24 36.1713 104.261 36.1782 103.825 36.0187C103.092 35.7377 102.459 35.2444 102.008 34.6021C101.557 33.9599 101.308 33.1976 101.292 32.4128C101.287 31.861 101.399 31.3144 101.621 30.8093C101.843 30.3042 102.171 29.8524 102.581 29.4837C102.992 29.115 103.476 28.8378 104.002 28.6709C104.528 28.504 105.083 28.4509 105.631 28.5153C106.179 28.5797 106.707 28.7602 107.18 29.0445C107.653 29.3288 108.06 29.7106 108.374 30.1644C108.688 30.6182 108.901 31.1336 109.001 31.6767C109.1 32.2195 109.082 32.7771 108.949 33.3125C108.8 33.9437 108.493 34.5265 108.057 35.0057C107.62 35.4852 107.068 35.8451 106.453 36.0515C106.072 36.1944 106.071 36.1938 106.071 36.6079C106.07 39.6259 106.07 42.6442 106.071 45.6623C106.071 45.7459 106.072 45.8292 106.075 45.9128C106.074 45.9397 106.079 45.9669 106.089 45.992C106.099 46.0171 106.113 46.04 106.133 46.0589C106.152 46.0779 106.175 46.0925 106.201 46.102C106.226 46.1115 106.253 46.1153 106.28 46.1136C106.363 46.1182 106.447 46.1202 106.53 46.1202C108.189 46.1205 109.847 46.1205 111.505 46.1202C111.968 46.1197 111.97 46.1174 111.971 45.6679C111.972 44.5823 111.98 43.4968 111.965 42.4114C111.958 42.2761 111.983 42.1412 112.035 42.0163C112.087 41.8917 112.167 41.7802 112.268 41.6902C113.096 40.8818 113.905 40.0541 114.73 39.2424C114.814 39.168 114.88 39.076 114.923 38.9727C114.967 38.8696 114.987 38.7578 114.982 38.6457C114.967 38.0735 114.966 37.5004 114.982 36.9282C114.997 36.8176 114.974 36.7051 114.915 36.6102C114.857 36.5151 114.767 36.4433 114.661 36.4072C114.36 36.2715 114.098 36.0621 113.9 35.7985C113.701 35.5346 113.572 35.2249 113.526 34.8983C113.48 34.6283 113.489 34.3519 113.552 34.0852C113.614 33.8186 113.729 33.5673 113.89 33.3458C114.051 33.1243 114.255 32.9371 114.489 32.7951C114.723 32.6533 114.983 32.5594 115.254 32.5194C115.525 32.4792 115.801 32.4935 116.067 32.5615C116.332 32.6294 116.581 32.7494 116.799 32.9148C117.018 33.0802 117.201 33.2873 117.338 33.5242C117.475 33.7612 117.564 34.0232 117.599 34.2947C117.657 34.717 117.58 35.147 117.381 35.5236C117.181 35.9003 116.868 36.2046 116.486 36.3938C116.37 36.4364 116.271 36.5179 116.208 36.6249C116.145 36.7315 116.121 36.8569 116.14 36.9794C116.154 37.683 116.138 38.3871 116.148 39.0909C116.154 39.2091 116.133 39.327 116.088 39.4365C116.043 39.5457 115.974 39.6439 115.887 39.7236C115.053 40.5431 114.235 41.3779 113.401 42.1973C113.313 42.2761 113.243 42.3732 113.197 42.4817C113.151 42.5904 113.129 42.7078 113.134 42.8258C113.146 43.768 113.139 44.7105 113.139 45.6531C113.139 45.7128 113.137 45.7725 113.141 45.832C113.16 46.061 113.195 46.1043 113.419 46.1159C113.633 46.1269 113.848 46.1194 114.063 46.1207C114.452 46.1136 114.839 46.1848 115.2 46.331C115.561 46.4769 115.888 46.6945 116.163 46.9704C116.437 47.2463 116.654 47.575 116.798 47.9368C116.942 48.2983 117.012 48.6852 117.003 49.0744C117.007 51.6989 117.007 54.3236 117.004 56.9481C117.004 57.5006 117.004 57.4885 117.56 57.4444C117.916 57.416 118.276 57.428 118.633 57.4247C119.79 57.4142 120.944 57.3234 122.1 57.3401C122.159 57.3409 122.221 57.3409 122.28 57.3386C122.434 57.3491 122.59 57.3257 122.734 57.2701C122.88 57.2147 123.011 57.1281 123.118 57.0168C123.195 56.9276 123.3 56.8622 123.385 56.7783C124.444 55.7292 125.503 54.6795 126.559 53.6293C126.798 53.3947 127.044 53.168 127.292 52.946C127.369 52.8809 127.431 52.7988 127.469 52.7063C127.51 52.6137 127.528 52.5132 127.523 52.4124C127.513 49.9908 127.518 47.5691 127.492 45.148C127.487 44.6972 127.451 44.2439 127.449 43.7911C127.454 43.7532 127.451 43.7147 127.441 43.6778C127.431 43.6406 127.413 43.6063 127.39 43.576C127.367 43.546 127.336 43.5206 127.303 43.5019C127.269 43.4834 127.234 43.4714 127.195 43.467C126.639 43.3278 126.118 43.066 125.675 42.7012C124.941 42.112 124.452 41.2707 124.303 40.3413C124.182 39.6218 124.264 38.8827 124.544 38.2084C124.823 37.534 125.287 36.9517 125.88 36.5282C126.475 36.1046 127.177 35.8569 127.905 35.8131C128.633 35.7692 129.359 35.9316 130 36.2808C130.641 36.6302 131.169 37.153 131.528 37.7889C131.885 38.425 132.056 39.1488 132.023 39.8777C131.987 40.6067 131.749 41.3113 131.333 41.9107C130.918 42.5104 130.341 42.9806 129.669 43.2683C129.313 43.4201 129.323 43.424 129.326 43.7914C129.331 45.0439 129.29 46.2982 129.344 47.5486C129.418 49.3611 129.346 51.1735 129.41 52.985C129.418 53.1316 129.395 53.2788 129.341 53.4149C129.285 53.5513 129.198 53.6731 129.09 53.7711C127.426 55.3953 125.767 57.0263 124.116 58.6639L124.09 58.6893C123.954 58.8454 123.788 58.9695 123.598 59.0523C123.408 59.1351 123.203 59.1746 122.995 59.1677C121.829 59.1474 120.66 59.2285 119.493 59.2526C118.779 59.2674 118.064 59.292 117.349 59.3138C117.035 59.3233 117.009 59.3449 117.005 59.6712C117 60.1722 117.004 60.6735 117.004 61.1745C117.004 62.4629 117.004 63.7513 117.005 65.0397C117.006 65.4068 117.027 65.4271 117.39 65.4273C119.823 65.4291 122.257 65.4302 124.69 65.4309C124.78 65.4345 124.867 65.4191 124.949 65.3855C125.031 65.352 125.105 65.3012 125.167 65.2366C125.895 64.4984 126.634 63.7677 127.364 63.0326C127.585 62.8124 127.582 62.8095 127.395 62.569C127.098 62.2088 126.928 61.7575 126.921 61.2896C126.91 60.8217 127.062 60.3646 127.346 59.993C127.631 59.6215 128.033 59.3579 128.487 59.2449C128.941 59.1321 129.421 59.1769 129.846 59.3718C130.272 59.5669 130.618 59.9007 130.831 60.3184C131.041 60.7363 131.105 61.2132 131.008 61.6714C130.913 62.1298 130.664 62.5419 130.305 62.8406C129.944 63.1393 129.492 63.3069 129.026 63.3157C128.918 63.3157 128.813 63.3382 128.718 63.3818C128.621 63.4254 128.536 63.489 128.464 63.5685C127.6 64.4418 126.716 65.2953 125.867 66.184C125.739 66.3275 125.577 66.4396 125.398 66.5124C125.218 66.585 125.023 66.6163 124.831 66.6039C122.421 66.588 120.011 66.5968 117.602 66.5957C116.97 66.5955 117.003 66.5819 117.004 67.2111C117.004 68.1298 117.002 69.0482 117.005 69.9668C117.006 70.3512 117.022 70.3663 117.414 70.3666C119.729 70.3678 122.044 70.3635 124.357 70.3725C124.462 70.3853 124.57 70.3609 124.659 70.304C124.746 70.2471 124.816 70.1607 124.846 70.0599C124.982 69.7717 125.18 69.5189 125.428 69.3215C125.677 69.1241 125.969 68.9879 126.28 68.9233C126.593 68.859 126.913 68.8682 127.221 68.9505C127.526 69.0328 127.81 69.1856 128.046 69.3969C128.341 69.652 128.557 69.9856 128.669 70.3586C128.78 70.7314 128.785 71.1286 128.68 71.5034C128.574 71.8783 128.364 72.2157 128.074 72.4759C127.785 72.7364 127.428 72.9092 127.044 72.9744C126.6 73.0577 126.141 72.9892 125.741 72.78C125.339 72.5708 125.021 72.2329 124.836 71.8206C124.798 71.7275 124.734 71.6491 124.646 71.597C124.562 71.545 124.462 71.5221 124.362 71.5319C122.036 71.5378 119.71 71.5342 117.383 71.5367C117.043 71.5373 117.008 71.5724 117.006 71.9029C117.001 72.738 117.001 73.573 117.006 74.4081C117.008 74.7043 117.048 74.7361 117.337 74.7499C117.42 74.7538 117.504 74.7514 117.587 74.7514C122 74.7514 126.416 74.7514 130.828 74.7514C130.864 74.7514 130.9 74.7509 130.936 74.7514C131.461 74.7566 131.397 74.6912 131.526 74.3492C131.715 73.8353 132.013 73.3674 132.395 72.9762C132.779 72.5849 133.241 72.2793 133.751 72.0793C134.261 71.8793 134.807 71.7896 135.354 71.8157C135.902 71.8419 136.436 71.9834 136.925 72.2311C137.543 72.5439 138.064 73.0154 138.438 73.5974C138.812 74.1794 139.025 74.8507 139.053 75.5419C139.079 76.2332 138.923 76.9193 138.597 77.5295C138.271 78.1397 137.789 78.652 137.2 79.0132C136.715 79.3119 136.171 79.5004 135.605 79.565C135.041 79.6299 134.466 79.5694 133.928 79.3881C133.39 79.2066 132.897 78.9089 132.485 78.5158C132.074 78.1225 131.754 77.6438 131.549 77.1134C131.356 76.6372 131.361 76.6349 130.841 76.6349C126.416 76.6349 121.99 76.6349 117.565 76.6349C117 76.6349 117.003 76.5875 117.003 77.2069C117.004 79.8314 117.005 82.4559 117.004 85.0804C117.004 85.6124 117.005 85.6129 117.532 85.6131C118.332 85.6134 119.131 85.6044 119.93 85.618C120.053 85.6249 120.177 85.6044 120.291 85.5578C120.406 85.5108 120.508 85.4393 120.59 85.348C121.629 84.2935 122.685 83.2566 123.721 82.2021C123.813 82.1023 123.926 82.0239 124.052 81.9726C124.177 81.921 124.313 81.8977 124.447 81.9041C125.987 81.9146 127.526 81.9003 129.064 81.9159C129.208 81.9351 129.354 81.9059 129.48 81.8333C129.605 81.7605 129.705 81.6482 129.759 81.5139C130.015 81.0421 130.444 80.6885 130.956 80.5291C131.469 80.3698 132.023 80.417 132.5 80.6611C132.977 80.9049 133.341 81.3262 133.513 81.8344C133.682 82.3428 133.649 82.8976 133.415 83.381C133.259 83.734 133.002 84.0338 132.679 84.2422C132.354 84.4507 131.974 84.5591 131.587 84.5537C131.197 84.5727 130.808 84.4729 130.474 84.2676C130.141 84.0619 129.877 83.7604 129.718 83.4022C129.677 83.293 129.6 83.2007 129.5 83.1405C129.403 83.0805 129.285 83.0561 129.169 83.0717C127.726 83.0825 126.282 83.0828 124.839 83.0725C124.726 83.0679 124.616 83.0882 124.513 83.1312C124.411 83.1743 124.316 83.2394 124.241 83.322C123.236 84.3404 122.208 85.3378 121.216 86.3687C121.085 86.5136 120.926 86.6269 120.747 86.6995C120.565 86.7723 120.372 86.8028 120.178 86.7887C119.308 86.7628 118.437 86.7808 117.566 86.781C117.482 86.781 117.399 86.7782 117.315 86.7831C117.052 86.799 117.009 86.8343 117.007 87.1095C117.001 87.9086 117.001 88.7081 117.006 89.5073C117.008 89.8127 117.049 89.8426 117.369 89.8532C117.44 89.8555 117.512 89.8542 117.584 89.8542C119.969 89.8542 122.354 89.8542 124.741 89.8542C124.8 89.8506 124.859 89.8509 124.921 89.855C125.026 89.8719 125.134 89.8498 125.226 89.7929C125.316 89.7357 125.382 89.6478 125.416 89.5452C125.539 89.2655 125.728 89.0196 125.969 88.8286C126.208 88.6376 126.49 88.5068 126.79 88.4473C127.298 88.3212 127.831 88.3948 128.285 88.653C128.736 88.9109 129.072 89.3334 129.221 89.8327C129.369 90.3101 129.341 90.8254 129.139 91.2828C128.936 91.7402 128.574 92.1084 128.121 92.3189C127.651 92.5433 127.116 92.5784 126.623 92.4169C126.128 92.2556 125.716 91.91 125.47 91.4523C125.413 91.3074 125.311 91.1854 125.177 91.1059C125.044 91.0264 124.888 90.9941 124.734 91.0139C122.324 91.0293 119.913 91.0216 117.503 91.0221C117.006 91.0221 117.004 91.0231 117.004 91.512C117.003 92.4425 117.003 93.3732 117.005 94.3037C117.006 94.6875 117.022 94.7016 117.415 94.7029C118.774 94.7072 120.131 94.7924 121.49 94.8039C121.942 94.8078 122.393 94.8478 122.847 94.8465C122.941 94.8454 123.036 94.8644 123.123 94.9024C123.211 94.9401 123.29 94.9957 123.354 95.0657C123.929 95.6375 124.508 96.2049 125.093 96.7679C126.208 97.843 127.298 98.948 128.398 100.04C128.487 100.137 128.585 100.226 128.69 100.304C128.79 100.37 128.869 100.464 128.915 100.574C128.962 100.685 128.977 100.806 128.956 100.924C128.851 102.115 128.918 103.308 128.887 104.499C128.836 106.371 128.81 108.242 128.81 110.114C128.81 110.554 128.8 110.554 129.213 110.74C129.956 111.061 130.582 111.607 131 112.301C131.418 112.995 131.61 113.802 131.549 114.61C131.487 115.417 131.174 116.186 130.654 116.807C130.136 117.429 129.433 117.873 128.649 118.077C127.867 118.282 127.039 118.236 126.28 117.947C125.523 117.659 124.877 117.141 124.429 116.466C123.98 115.791 123.752 114.993 123.78 114.183C123.806 113.374 124.085 112.592 124.577 111.949C125.075 111.284 125.777 110.801 126.575 110.572C126.926 110.474 126.926 110.467 126.931 110.112C126.936 109.42 126.921 108.727 126.951 108.037C127.026 106.392 126.995 104.747 127.031 103.102C127.041 102.615 127.067 102.126 127.077 101.638C127.082 101.543 127.067 101.448 127.034 101.36C126.998 101.272 126.944 101.193 126.875 101.129C125.88 100.184 124.939 99.1865 123.931 98.2537C123.495 97.8486 123.075 97.4227 122.667 96.9887C122.572 96.8823 122.457 96.7984 122.329 96.743C122.198 96.6877 122.057 96.6623 121.916 96.6692C120.557 96.6794 119.2 96.5707 117.841 96.5843C117.638 96.5864 117.441 96.52 117.236 96.5346C117.092 96.5446 117.014 96.6077 117.009 96.753C117.006 96.8602 117.004 96.9676 117.004 97.0748C117.004 98.8524 117.008 100.63 117.002 102.407C116.998 103.07 116.767 103.711 116.347 104.223C115.928 104.736 115.345 105.088 114.696 105.223C114.508 105.257 114.318 105.271 114.127 105.266C112.039 105.266 109.951 105.265 107.864 105.266C107.768 105.266 107.673 105.264 107.577 105.266C107.233 105.273 107.218 105.284 107.217 105.635C107.214 106.518 107.222 107.401 107.211 108.284C107.206 108.395 107.225 108.507 107.268 108.611C107.31 108.714 107.375 108.807 107.458 108.882C108.518 109.931 109.565 110.993 110.628 112.038C110.733 112.133 110.815 112.249 110.87 112.379C110.925 112.509 110.95 112.65 110.944 112.79C110.93 114.353 110.943 115.916 110.932 117.479C110.918 117.6 110.944 117.723 111.006 117.828C111.069 117.933 111.165 118.014 111.279 118.059C111.648 118.235 111.954 118.521 112.156 118.878C112.357 119.235 112.443 119.645 112.404 120.052C112.376 120.486 112.209 120.899 111.928 121.229C111.647 121.56 111.267 121.791 110.844 121.888C110.544 121.965 110.232 121.973 109.929 121.911C109.626 121.85 109.341 121.722 109.095 121.534C108.849 121.347 108.648 121.106 108.508 120.832C108.368 120.558 108.291 120.254 108.284 119.945C108.26 119.553 108.356 119.163 108.559 118.827C108.762 118.491 109.062 118.225 109.42 118.063C109.535 118.021 109.632 117.942 109.697 117.838C109.761 117.733 109.788 117.611 109.774 117.489C109.764 116.058 109.764 114.626 109.774 113.195C109.779 113.077 109.759 112.959 109.714 112.85C109.669 112.741 109.6 112.643 109.514 112.563C108.453 111.516 107.406 110.453 106.343 109.408C106.243 109.316 106.164 109.204 106.112 109.079C106.06 108.953 106.036 108.818 106.043 108.682C106.056 107.728 106.048 106.774 106.048 105.819C106.048 105.724 106.045 105.629 106.046 105.533C106.047 105.361 105.975 105.261 105.791 105.267C105.731 105.269 105.671 105.266 105.612 105.266C103.882 105.266 102.152 105.266 100.422 105.266C100.339 105.266 100.255 105.267 100.172 105.272C100.148 105.271 100.124 105.275 100.102 105.284C100.079 105.293 100.059 105.306 100.042 105.323C100.025 105.341 100.012 105.361 100.004 105.384C99.9948 105.406 99.9912 105.43 99.9925 105.454C99.9873 105.549 99.9863 105.645 99.9863 105.74C99.9861 108.317 99.9899 110.894 99.9812 113.47C99.9617 113.597 99.9866 113.726 100.052 113.836C100.117 113.946 100.219 114.031 100.339 114.074C100.729 114.263 101.046 114.574 101.244 114.959C101.443 115.344 101.511 115.782 101.439 116.209C101.388 116.555 101.249 116.882 101.037 117.159C100.825 117.436 100.546 117.655 100.225 117.795C99.9051 117.935 99.5548 117.991 99.2069 117.958C98.8592 117.925 98.5254 117.805 98.2372 117.608C97.9487 117.411 97.7152 117.143 97.5585 116.831C97.4016 116.519 97.3267 116.172 97.3408 115.823C97.3549 115.474 97.4575 115.135 97.639 114.836C97.8203 114.537 98.0746 114.29 98.3779 114.117C98.45 114.074 98.5246 114.037 98.6013 114.004C98.6695 113.98 98.7274 113.933 98.7664 113.873C98.8054 113.812 98.8228 113.74 98.8161 113.667C98.8143 113.584 98.8184 113.501 98.8184 113.417C98.8184 110.876 98.8184 108.335 98.8184 105.794C98.8182 105.266 98.8172 105.266 98.2854 105.266C96.4483 105.265 94.6112 105.265 92.7739 105.266C92.7144 105.266 92.6547 105.265 92.5952 105.266C92.2783 105.275 92.2637 105.291 92.2562 105.622C92.256 105.634 92.256 105.646 92.256 105.658C92.256 106.839 92.2606 108.02 92.2521 109.201C92.2403 109.3 92.2626 109.4 92.3152 109.484C92.368 109.568 92.4478 109.632 92.5414 109.664C92.8739 109.814 93.1611 110.049 93.3731 110.346C93.5849 110.643 93.7144 110.991 93.7479 111.354C93.7815 111.717 93.718 112.083 93.5641 112.413C93.41 112.744 93.1711 113.028 92.8713 113.236C92.5719 113.444 92.2224 113.569 91.8586 113.597C91.495 113.626 91.1304 113.558 90.8017 113.4C90.473 113.241 90.1925 112.999 89.9884 112.696C89.7843 112.394 89.6641 112.043 89.6402 111.679C89.6002 111.259 89.6951 110.837 89.9107 110.475C90.1264 110.113 90.4515 109.828 90.8396 109.663C90.9176 109.635 90.9843 109.583 91.0294 109.513C91.0748 109.444 91.096 109.362 91.0899 109.279C91.0848 108.051 91.0899 106.822 91.0855 105.593C91.0842 105.299 91.0504 105.268 90.7479 105.267C89.3282 105.264 87.9085 105.264 86.4891 105.268C86.1904 105.268 86.1671 105.3 86.1553 105.598C86.1515 105.694 86.154 105.789 86.154 105.885C86.154 110.287 86.154 114.689 86.154 119.091C86.154 119.115 86.154 119.138 86.154 119.162C86.1548 119.637 86.1548 119.636 86.6089 119.822C87.1014 120.009 87.5503 120.296 87.9278 120.665C88.3054 121.032 88.6036 121.473 88.8039 121.96C89.0044 122.45 89.1028 122.973 89.0931 123.498C89.0833 124.027 88.9659 124.545 88.7477 125.027C88.3947 125.829 87.7791 126.488 87.0019 126.898C86.225 127.306 85.3323 127.437 84.4703 127.273C83.6083 127.106 82.8283 126.652 82.2576 125.986C81.6871 125.319 81.3599 124.478 81.3297 123.601C81.2938 122.786 81.5186 121.978 81.9714 121.299C82.4317 120.594 83.1129 120.059 83.9085 119.782C84.2677 119.654 84.27 119.654 84.27 119.282C84.2708 114.749 84.2708 110.216 84.2703 105.683C84.2703 105.611 84.269 105.54 84.2662 105.468C84.2682 105.441 84.2644 105.414 84.2549 105.389C84.2454 105.363 84.2305 105.34 84.2113 105.322C84.1918 105.303 84.1685 105.288 84.1431 105.279C84.1175 105.27 84.0903 105.267 84.0634 105.27C83.9918 105.268 83.9203 105.266 83.8485 105.266C82.7629 105.266 81.6773 105.266 80.5918 105.266C80.5202 105.266 80.4487 105.268 80.3772 105.269C80.3474 105.265 80.3169 105.267 80.2882 105.276C80.2595 105.285 80.2333 105.301 80.2113 105.321C80.1892 105.342 80.172 105.367 80.1613 105.395C80.1503 105.423 80.1456 105.453 80.1479 105.483C80.1438 105.59 80.1418 105.698 80.1418 105.805C80.1415 107.511 80.1331 109.217 80.1484 110.923C80.1582 111.087 80.1313 111.252 80.0695 111.404C80.0074 111.557 79.9123 111.693 79.7905 111.804C78.9411 112.624 78.1199 113.474 77.2763 114.301C77.185 114.384 77.1135 114.486 77.0663 114.601C77.0194 114.715 76.9984 114.838 77.005 114.962C77.0176 116.023 77.015 117.085 77.0063 118.147C76.9945 118.245 77.0166 118.345 77.0689 118.429C77.1212 118.514 77.2007 118.578 77.2943 118.611C77.5494 118.723 77.7788 118.886 77.9686 119.09C78.1583 119.294 78.3042 119.535 78.3978 119.798C78.4911 120.06 78.5298 120.339 78.5114 120.617C78.4932 120.896 78.418 121.165 78.2911 121.414C78.1188 121.773 77.8445 122.073 77.5027 122.275C77.1609 122.478 76.7666 122.575 76.3694 122.557C75.943 122.537 75.5333 122.386 75.1957 122.124C74.858 121.863 74.6088 121.504 74.4818 121.096C74.3588 120.701 74.359 120.277 74.4826 119.881C74.6059 119.486 74.8469 119.137 75.1731 118.882C75.3015 118.775 75.4433 118.685 75.5954 118.616C75.6805 118.587 75.7523 118.529 75.7979 118.452C75.8433 118.374 75.8595 118.283 75.843 118.195C75.8364 118.064 75.8423 117.932 75.8423 117.801C75.8423 116.716 75.8513 115.63 75.8369 114.544C75.8282 114.397 75.8523 114.251 75.9077 114.114C75.963 113.977 76.0482 113.855 76.1566 113.756C77.0204 112.916 77.8622 112.053 78.7198 111.207C78.8037 111.133 78.8701 111.041 78.9147 110.939C78.9596 110.836 78.9811 110.725 78.9783 110.613C78.9695 108.967 78.9739 107.32 78.9736 105.674C78.9736 105.615 78.9711 105.555 78.9711 105.495C78.9713 105.352 78.9083 105.27 78.758 105.269C78.6744 105.268 78.5911 105.266 78.5075 105.266C75.8712 105.266 73.2347 105.266 70.5982 105.266C70.5864 105.266 70.5744 105.266 70.5626 105.266C70.1303 105.269 70.1216 105.274 70.1213 105.707C70.1203 107.842 70.1254 109.977 70.1154 112.113C70.1039 112.235 70.1331 112.357 70.1987 112.461C70.2644 112.564 70.3626 112.643 70.4777 112.684C70.8836 112.894 71.2079 113.233 71.3992 113.648C71.5907 114.063 71.6387 114.529 71.5351 114.974C71.4318 115.419 71.1831 115.817 70.8282 116.105C70.4734 116.392 70.0329 116.553 69.5762 116.563C69.1196 116.572 68.6729 116.429 68.3065 116.156C67.9404 115.883 67.6758 115.496 67.5543 115.055C67.433 114.615 67.4617 114.147 67.6361 113.725C67.8107 113.302 68.1209 112.951 68.5178 112.724C68.5678 112.692 68.6214 112.665 68.6775 112.644C68.7696 112.619 68.8491 112.561 68.9006 112.48C68.9522 112.4 68.9719 112.303 68.9563 112.209C68.9504 110.014 68.9537 107.819 68.9519 105.624C68.9514 105.283 68.9337 105.267 68.5799 105.267C66.9336 105.265 65.2872 105.265 63.6412 105.267C63.2758 105.267 63.2615 105.289 63.2491 105.651C63.2012 107.056 63.1225 108.46 63.1002 109.866C63.0961 110.115 63.0415 110.363 63.0494 110.614C63.0463 110.68 63.0297 110.744 63.0002 110.803C62.9707 110.862 62.9289 110.914 62.8781 110.955C62.1772 111.687 61.4767 112.419 60.7767 113.152C59.797 114.178 58.823 115.209 57.8361 116.228C57.2149 116.87 57.4123 116.769 56.61 116.77C53.6635 116.774 50.717 116.775 47.7703 116.772C47.6749 116.777 47.5795 116.776 47.4841 116.77C47.3669 116.75 47.2462 116.77 47.1421 116.827C47.0377 116.885 46.9562 116.976 46.9106 117.085C46.598 117.654 46.1347 118.125 45.5717 118.447C44.983 118.822 44.3012 119.024 43.6033 119.032C42.9054 119.038 42.2195 118.85 41.6234 118.487C41.0153 118.135 40.5137 117.625 40.1727 117.011C39.8315 116.396 39.6635 115.701 39.6866 114.999C39.7099 114.297 39.9233 113.614 40.304 113.023C40.6847 112.433 41.2186 111.957 41.8488 111.646C42.4923 111.303 43.2228 111.158 43.9487 111.229C44.6743 111.3 45.363 111.584 45.9278 112.045C46.6103 112.543 47.0972 113.264 47.3041 114.083C47.3549 114.279 47.3969 114.478 47.431 114.677C47.4318 114.707 47.4387 114.737 47.4513 114.764C47.4641 114.791 47.4823 114.815 47.5049 114.834C47.5275 114.854 47.5536 114.869 47.5823 114.878C47.6108 114.886 47.6408 114.889 47.6705 114.886C47.7064 114.885 47.7421 114.887 47.7779 114.888C47.8136 114.888 47.8495 114.888 47.8854 114.888C50.617 114.894 53.3487 114.897 56.0803 114.911C56.2213 114.92 56.3626 114.898 56.4934 114.844C56.6244 114.791 56.7413 114.709 56.8359 114.604C57.992 113.368 59.1614 112.144 60.3278 110.917C60.5498 110.684 60.7729 110.451 61.0054 110.229C61.0823 110.154 61.1428 110.065 61.1834 109.966C61.2236 109.867 61.2431 109.761 61.2403 109.654C61.2575 109.011 61.2862 108.368 61.3103 107.725C61.3331 107.118 61.3559 106.511 61.3785 105.904C61.3828 105.785 61.3874 105.665 61.3803 105.546C61.3664 105.313 61.3341 105.283 61.1034 105.268C61.0085 105.262 60.9126 105.266 60.8172 105.266C59.3022 105.266 57.7869 105.246 56.2721 105.271C55.5144 105.262 54.7906 104.955 54.2563 104.418C53.722 103.881 53.4194 103.156 53.4138 102.398C53.4417 100.156 53.421 97.913 53.421 95.6703C53.421 95.5746 53.4225 95.4793 53.4204 95.3839C53.4133 95.0557 53.3974 95.0395 53.0787 95.0308C53.031 95.0295 52.9831 95.0303 52.9354 95.0303C51.4203 95.0303 49.9053 95.0377 48.3905 95.0239C48.2554 95.0183 48.121 95.0429 47.9967 95.0954C47.8723 95.148 47.761 95.2275 47.671 95.328C46.3547 96.6605 45.0217 97.9763 43.7066 99.3098C43.611 99.4131 43.4936 99.4944 43.3631 99.5475C43.2323 99.6006 43.0918 99.6242 42.951 99.6167C41.4121 99.6047 39.8733 99.6157 38.3344 99.607C38.2136 99.5906 38.0908 99.6149 37.9857 99.6767C37.8803 99.7383 37.799 99.8334 37.7544 99.947C37.5803 100.298 37.309 100.593 36.9726 100.795C36.6365 100.997 36.2491 101.098 35.8571 101.087C35.4648 101.076 35.084 100.952 34.7602 100.73C34.4361 100.509 34.1826 100.2 34.0292 99.8382C33.8172 99.3506 33.8023 98.7996 33.9877 98.3012C34.1733 97.8025 34.5446 97.3953 35.0241 97.1648C35.5015 96.9322 36.0509 96.8956 36.555 97.0625C37.0593 97.2297 37.478 97.5871 37.7221 98.0589C37.7685 98.185 37.8557 98.2922 37.9698 98.3632C38.0841 98.4342 38.2187 98.465 38.3526 98.4506C39.7481 98.434 41.144 98.4383 42.5395 98.4478C42.6631 98.4535 42.7864 98.4319 42.9008 98.3847C43.0151 98.3376 43.1177 98.266 43.2015 98.175C44.5271 96.8351 45.8678 95.51 47.1916 94.1686C47.2875 94.0645 47.4049 93.9827 47.5357 93.9291C47.6664 93.8755 47.8072 93.8509 47.9484 93.8576C49.5468 93.8683 51.1455 93.8627 52.7441 93.8624C52.8395 93.8624 52.9351 93.864 53.0305 93.8619C53.3989 93.855 53.4151 93.8399 53.4202 93.4778C53.4228 93.2989 53.421 93.1199 53.421 92.9409C53.421 91.08 53.421 89.2191 53.4207 87.3579C53.4207 87.2505 53.4174 87.1433 53.4189 87.0359C53.4212 86.8772 53.351 86.7885 53.1866 86.7856C53.1151 86.7844 53.0436 86.7813 52.972 86.7813C50.5147 86.781 48.0572 86.7841 45.5996 86.7767C45.4788 86.7613 45.356 86.7869 45.2514 86.8492C45.1468 86.9118 45.066 87.0077 45.0225 87.1215C44.7904 87.5848 44.392 87.9433 43.9071 88.1251C43.422 88.3071 42.8862 88.2992 42.407 88.1028C41.9278 87.9064 41.5403 87.5361 41.3224 87.0661C41.1045 86.5962 41.0722 86.0613 41.2319 85.5685C41.3511 85.1844 41.5811 84.8442 41.8929 84.5901C42.2044 84.3363 42.5841 84.1796 42.9844 84.1404C43.3846 84.1012 43.7874 84.1807 44.1425 84.3691C44.4979 84.5576 44.7894 84.8465 44.9812 85.1998C45.0345 85.3406 45.134 85.459 45.2637 85.5357C45.3932 85.6121 45.545 85.6421 45.694 85.6208C48.0918 85.6065 50.4896 85.6134 52.8874 85.6131C52.971 85.6131 53.0546 85.6162 53.1379 85.6116C53.3797 85.5985 53.4038 85.5755 53.4189 85.3434C53.4238 85.2721 53.4207 85.2003 53.4207 85.1288C53.421 82.4566 53.421 79.7845 53.4207 77.1123C53.4207 76.6367 53.4194 76.6354 52.9518 76.6352C50.697 76.6344 48.4423 76.6344 46.1878 76.6347ZM85.2292 49.0059C75.7815 49.0059 66.3336 49.0059 56.8859 49.0062C56.3 49.0062 56.3059 48.9493 56.3059 49.5957C56.3065 66.9883 56.3067 84.3809 56.3064 101.774C56.3064 102.379 56.307 102.38 56.9128 102.38C75.7846 102.38 94.6564 102.38 113.528 102.38C114.175 102.38 114.118 102.387 114.118 101.801C114.118 84.3963 114.118 66.9919 114.118 49.5872C114.118 48.9631 114.161 49.0062 113.537 49.0062C104.101 49.0059 94.6651 49.0059 85.2292 49.0059ZM45.5671 115.125C45.5776 114.858 45.5332 114.592 45.4368 114.343C45.3404 114.094 45.1937 113.867 45.0063 113.677C44.8186 113.487 44.594 113.337 44.3463 113.237C44.0987 113.137 43.833 113.089 43.5659 113.096C43.2987 113.095 43.0339 113.147 42.7864 113.249C42.5393 113.35 42.3147 113.5 42.1252 113.689C41.936 113.877 41.7857 114.102 41.6834 114.348C41.5809 114.595 41.5283 114.86 41.5283 115.127C41.5283 115.395 41.5814 115.659 41.6839 115.906C41.7867 116.153 41.937 116.377 42.1265 116.566C42.3159 116.754 42.5408 116.903 42.7882 117.005C43.0354 117.107 43.3003 117.158 43.5677 117.157C43.8346 117.163 44.1 117.114 44.3474 117.014C44.5951 116.913 44.8191 116.763 45.0066 116.573C45.1937 116.383 45.3401 116.156 45.4365 115.907C45.5329 115.658 45.5773 115.392 45.5671 115.125ZM35.2379 73.6828C34.972 73.6789 34.7082 73.7282 34.4615 73.8274C34.2151 73.9264 33.9908 74.0738 33.8016 74.2604C33.6123 74.4471 33.4623 74.6697 33.3598 74.9148C33.2575 75.1601 33.2049 75.4232 33.2052 75.6891C33.2026 75.9565 33.2529 76.2221 33.3531 76.4701C33.4536 76.7183 33.6021 76.9439 33.79 77.1344C33.978 77.3249 34.202 77.4762 34.4487 77.5795C34.6953 77.6831 34.9602 77.7367 35.2279 77.7374C35.4956 77.7379 35.7607 77.6856 36.0078 77.5836C36.2553 77.4813 36.4799 77.331 36.6688 77.1416C36.8578 76.9521 37.0073 76.7272 37.109 76.4795C37.2106 76.2321 37.2621 75.9668 37.2608 75.6993C37.2619 75.4337 37.2101 75.1704 37.1088 74.9248C37.0073 74.6794 36.8583 74.4563 36.6701 74.2689C36.4819 74.0812 36.2586 73.933 36.0127 73.8323C35.7668 73.7318 35.5035 73.6807 35.2379 73.6828ZM87.2227 123.445C87.2242 123.181 87.1729 122.916 87.0722 122.67C86.9714 122.427 86.823 122.201 86.6353 122.014C86.4476 121.827 86.2248 121.678 85.9791 121.576C85.7338 121.476 85.4705 121.424 85.2051 121.424C84.6674 121.422 84.1508 121.632 83.7688 122.011C83.3865 122.388 83.1701 122.904 83.1667 123.442C83.1637 123.978 83.3742 124.496 83.7518 124.878C84.1295 125.26 84.6436 125.478 85.181 125.48C85.4497 125.486 85.7164 125.434 85.9656 125.334C86.2145 125.234 86.4409 125.083 86.6312 124.893C86.8214 124.704 86.9717 124.478 87.0732 124.229C87.175 123.98 87.2257 123.714 87.2227 123.445ZM85.223 25.9406C84.9572 25.9329 84.6923 25.9783 84.4444 26.0744C84.1962 26.1706 83.9698 26.3154 83.7788 26.5005C83.5875 26.6854 83.4352 26.9069 83.3308 27.1515C83.2265 27.3964 83.1724 27.6594 83.1714 27.9256C83.1665 28.1933 83.2147 28.4592 83.3132 28.7081C83.4116 28.9571 83.5583 29.184 83.7449 29.3758C83.9316 29.5678 84.1541 29.7209 84.4003 29.8262C84.6464 29.9316 84.9107 29.9873 85.1784 29.9898C85.4461 29.9924 85.7117 29.9421 85.9599 29.8416C86.2079 29.7411 86.4337 29.5924 86.624 29.4042C86.8142 29.216 86.9655 28.9919 87.0688 28.745C87.1722 28.4981 87.2258 28.2333 87.226 27.9656C87.2304 27.7002 87.1817 27.4369 87.0827 27.1905C86.984 26.9444 86.8368 26.7205 86.6504 26.5318C86.4637 26.3434 86.2414 26.1939 85.9963 26.0924C85.7512 25.9908 85.4884 25.9393 85.223 25.9406ZM127.649 116.336C127.916 116.343 128.18 116.296 128.428 116.199C128.677 116.101 128.903 115.954 129.092 115.768C129.285 115.581 129.436 115.358 129.539 115.112C129.641 114.866 129.692 114.602 129.69 114.335C129.695 114.067 129.646 113.802 129.546 113.553C129.446 113.304 129.3 113.078 129.113 112.886C128.926 112.695 128.703 112.542 128.457 112.437C128.21 112.333 127.946 112.278 127.677 112.275C127.41 112.273 127.144 112.324 126.898 112.425C126.649 112.526 126.423 112.675 126.234 112.863C126.044 113.052 125.893 113.276 125.79 113.523C125.685 113.77 125.634 114.035 125.631 114.302C125.626 114.57 125.675 114.835 125.775 115.083C125.872 115.331 126.021 115.557 126.208 115.747C126.398 115.937 126.621 116.087 126.869 116.188C127.116 116.289 127.382 116.34 127.649 116.336ZM105.177 34.3816C105.444 34.3827 105.708 34.3309 105.955 34.2293C106.201 34.1275 106.425 33.9781 106.614 33.7896C106.802 33.6009 106.952 33.3768 107.053 33.1302C107.154 32.8835 107.206 32.6192 107.205 32.3525C107.203 32.0859 107.15 31.822 107.046 31.5764C106.942 31.3308 106.791 31.108 106.601 30.9211C106.41 30.7342 106.185 30.587 105.938 30.4875C105.69 30.3883 105.425 30.3388 105.159 30.3424C104.891 30.3383 104.625 30.3888 104.377 30.4903C104.13 30.5919 103.905 30.7426 103.717 30.9334C103.529 31.1241 103.382 31.351 103.285 31.6003C103.187 31.8497 103.141 32.1161 103.149 32.3838C103.143 32.6502 103.193 32.9151 103.293 33.1617C103.393 33.4086 103.543 33.6325 103.733 33.8194C103.923 34.0065 104.149 34.1527 104.397 34.2493C104.646 34.346 104.911 34.3911 105.177 34.3816ZM44.2766 37.7722C44.2835 37.5053 44.2376 37.2397 44.1412 36.9907C44.0448 36.7418 43.9 36.5143 43.7151 36.3215C43.5302 36.129 43.3092 35.9749 43.0644 35.8682C42.8195 35.7616 42.5559 35.7044 42.289 35.7003C42.0221 35.6962 41.757 35.7451 41.5091 35.8441C41.2611 35.9431 41.0352 36.0903 40.8445 36.2772C40.6537 36.4641 40.502 36.6869 40.3981 36.933C40.294 37.1789 40.2397 37.443 40.2384 37.7099C40.2343 37.976 40.2827 38.2404 40.3809 38.4876C40.4794 38.735 40.6258 38.9604 40.8117 39.1506C40.9976 39.3411 41.2193 39.4929 41.4642 39.5972C41.7088 39.7016 41.9719 39.7565 42.238 39.7585C42.5029 39.7642 42.7664 39.7172 43.0128 39.6201C43.2595 39.5229 43.4841 39.3775 43.6738 39.1926C43.8635 39.0078 44.0146 38.787 44.1182 38.5432C44.2217 38.2991 44.2756 38.0371 44.2766 37.7722ZM137.184 75.6939C137.179 75.2937 137.059 74.9037 136.833 74.5735C136.607 74.243 136.287 73.9869 135.918 73.8376C135.546 73.6884 135.138 73.6525 134.746 73.7348C134.356 73.8171 133.997 74.0138 133.718 74.2999C133.438 74.5858 133.249 74.9486 133.174 75.3419C133.102 75.735 133.146 76.1414 133.305 76.509C133.461 76.8767 133.725 77.1895 134.061 77.4077C134.397 77.6256 134.79 77.7392 135.189 77.7341C135.454 77.7325 135.718 77.6785 135.961 77.5749C136.205 77.4713 136.425 77.3203 136.612 77.1303C136.797 76.9405 136.943 76.716 137.041 76.4693C137.141 76.2226 137.187 75.9591 137.184 75.6937V75.6939ZM126.113 39.6847C126.108 40.2221 126.318 40.7385 126.698 41.1207C127.075 41.5033 127.587 41.7202 128.126 41.7241C128.662 41.7276 129.18 41.5182 129.562 41.1413C129.944 40.7641 130.162 40.2508 130.167 39.7134C130.169 39.4465 130.121 39.1816 130.021 38.9342C129.921 38.6865 129.772 38.4609 129.585 38.2704C129.4 38.0799 129.177 37.9284 128.931 37.8243C128.685 37.7199 128.421 37.6653 128.154 37.6635C127.887 37.6617 127.623 37.7125 127.375 37.8132C127.128 37.9137 126.903 38.0622 126.713 38.2501C126.523 38.4378 126.372 38.6614 126.269 38.9075C126.167 39.1537 126.113 39.4178 126.113 39.6847ZM64.7449 36.0233C64.7465 35.788 64.6547 35.5616 64.4896 35.3936C64.3247 35.2257 64.0999 35.1298 63.8645 35.1272C63.6294 35.1347 63.4063 35.2318 63.2407 35.3985C63.075 35.5652 62.9791 35.789 62.9732 36.0238C62.9727 36.2592 63.0633 36.4854 63.2258 36.6553C63.3884 36.8253 63.6104 36.9259 63.8455 36.9359C63.965 36.9374 64.0837 36.9148 64.1945 36.8694C64.3052 36.8238 64.4057 36.7566 64.4896 36.6713C64.5737 36.5861 64.6396 36.4848 64.6834 36.3733C64.7273 36.262 64.7483 36.1431 64.7449 36.0233ZM94.0297 37.1348C94.0333 37.3694 94.1297 37.593 94.2974 37.7568C94.4651 37.9207 94.691 38.0117 94.9256 38.0099C95.1602 37.9996 95.3814 37.8991 95.5437 37.7294C95.706 37.5599 95.7966 37.334 95.7966 37.0992C95.7966 36.8638 95.7035 36.6377 95.5371 36.4707C95.3709 36.3038 95.1453 36.2097 94.9099 36.209C94.7897 36.2067 94.6705 36.2292 94.5594 36.2756C94.4487 36.3218 94.3484 36.3908 94.2659 36.4779C94.1831 36.5651 94.1192 36.6684 94.0787 36.7815C94.0379 36.8946 94.0213 37.0148 94.0297 37.1348ZM90.8084 111.505C90.7991 111.625 90.8148 111.746 90.8545 111.859C90.8945 111.972 90.9573 112.076 91.0396 112.164C91.1217 112.252 91.2214 112.321 91.3319 112.369C91.4424 112.416 91.5617 112.439 91.6819 112.438C91.9178 112.438 92.1442 112.345 92.3121 112.179C92.4798 112.013 92.5754 111.788 92.578 111.552C92.5803 111.317 92.4913 111.091 92.3298 110.92C92.1683 110.75 91.9468 110.649 91.7122 110.638C91.4776 110.635 91.2512 110.724 91.0817 110.886C90.9125 111.048 90.8143 111.271 90.8084 111.505ZM69.5575 113.626C69.3819 113.626 69.2103 113.678 69.0642 113.775C68.9181 113.872 68.804 114.011 68.7365 114.173C68.6688 114.335 68.6509 114.513 68.6847 114.686C68.7186 114.858 68.8024 115.016 68.9263 115.141C69.0501 115.266 69.2078 115.351 69.3798 115.386C69.5521 115.421 69.7306 115.404 69.8931 115.337C70.0557 115.271 70.1949 115.158 70.2931 115.013C70.3916 114.867 70.4446 114.696 70.4457 114.52C70.4426 114.285 70.3482 114.06 70.1826 113.893C70.0167 113.726 69.7926 113.631 69.5575 113.626ZM77.3396 120.481C77.3353 120.305 77.2789 120.135 77.1778 119.991C77.0768 119.848 76.9356 119.738 76.772 119.675C76.6084 119.612 76.4297 119.598 76.2587 119.636C76.0874 119.675 75.9315 119.763 75.8102 119.889C75.6892 120.016 75.6082 120.176 75.5779 120.349C75.5474 120.522 75.5687 120.699 75.6392 120.86C75.7097 121.019 75.8261 121.158 75.9741 121.25C76.1218 121.345 76.294 121.393 76.4694 121.391C76.7043 121.381 76.9263 121.281 77.0886 121.111C77.2509 120.942 77.3409 120.714 77.3396 120.481ZM132.449 82.5115C132.451 82.2708 132.356 82.039 132.187 81.8662C132.02 81.6936 131.792 81.5934 131.551 81.5872C131.315 81.5944 131.092 81.6934 130.931 81.8626C130.767 82.0318 130.677 82.2579 130.677 82.4931C130.674 82.7274 130.764 82.9535 130.928 83.1215C131.092 83.2897 131.315 83.3861 131.551 83.3899C131.785 83.3899 132.01 83.2979 132.179 83.1338C132.346 82.9697 132.443 82.7464 132.449 82.5115ZM110.358 118.997C110.123 118.998 109.897 119.088 109.728 119.251C109.558 119.413 109.457 119.634 109.445 119.868C109.444 120.107 109.537 120.337 109.704 120.506C109.872 120.678 110.1 120.773 110.339 120.776C110.578 120.778 110.808 120.686 110.979 120.519C111.149 120.353 111.247 120.125 111.25 119.886C111.244 119.652 111.147 119.429 110.981 119.264C110.815 119.098 110.592 119.003 110.358 118.997ZM73.6222 32.3661C73.6234 32.25 73.6016 32.1346 73.5583 32.0269C73.5147 31.9189 73.4504 31.821 73.3691 31.7382C73.2876 31.6554 73.1904 31.5895 73.0835 31.5443C72.9763 31.4992 72.8614 31.4756 72.7453 31.4751C72.6258 31.4772 72.5081 31.5031 72.3989 31.5508C72.2897 31.5987 72.1909 31.6679 72.1086 31.7541C72.0261 31.8405 71.9617 31.9423 71.9189 32.0536C71.8758 32.1648 71.8556 32.2835 71.8589 32.4028C71.8638 32.6325 71.9571 32.8515 72.1197 33.0138C72.2822 33.1761 72.5012 33.2694 72.7309 33.274C72.8507 33.2789 72.9701 33.2586 73.0814 33.2143C73.1929 33.1702 73.2937 33.1032 73.3778 33.0176C73.4617 32.9322 73.5268 32.8299 73.5688 32.7176C73.6111 32.6056 73.6291 32.4856 73.6222 32.3661ZM44.0607 86.2123C44.0676 85.9788 43.9823 85.7518 43.823 85.5808C43.6638 85.4098 43.4436 85.3083 43.2102 85.2983C43.0926 85.2965 42.9754 85.318 42.8659 85.3614C42.7564 85.4047 42.6567 85.4693 42.5721 85.5514C42.4875 85.6334 42.4198 85.7311 42.3731 85.8393C42.3265 85.9475 42.3013 86.0636 42.2995 86.1813C42.2977 86.2993 42.3193 86.4162 42.3626 86.5257C42.4059 86.6351 42.4705 86.7351 42.5526 86.8195C42.6344 86.9041 42.7323 86.9718 42.8405 87.0184C42.9485 87.0651 43.0649 87.0902 43.1826 87.092C43.2992 87.0966 43.4156 87.0772 43.5246 87.0346C43.6333 86.992 43.732 86.9274 43.8146 86.8446C43.8971 86.7621 43.9617 86.6631 44.0041 86.5544C44.0464 86.4454 44.0656 86.329 44.0607 86.2123ZM35.0492 99.0088C35.0417 99.2424 35.1264 99.4693 35.2848 99.6408C35.4433 99.8124 35.663 99.9147 35.8963 99.9254C36.0145 99.9285 36.1322 99.908 36.2424 99.8654C36.3527 99.8226 36.4535 99.7585 36.5388 99.677C36.6242 99.5952 36.6927 99.4972 36.7401 99.389C36.7875 99.2806 36.8132 99.1639 36.8155 99.0457C36.8178 98.9275 36.7965 98.8101 36.7532 98.7001C36.7099 98.5901 36.6452 98.4896 36.5629 98.4047C36.4806 98.3199 36.3824 98.2519 36.2737 98.2053C36.1653 98.1584 36.0486 98.1335 35.9302 98.1319C35.8135 98.1268 35.6971 98.146 35.5881 98.1883C35.4792 98.2304 35.3802 98.2947 35.2974 98.3773C35.2145 98.4596 35.1497 98.5583 35.1071 98.667C35.0643 98.7758 35.0446 98.8921 35.0492 99.0088ZM129.88 61.2676C129.882 61.0912 129.828 60.9184 129.731 60.7714C129.633 60.6245 129.495 60.5099 129.331 60.4425C129.169 60.3753 128.99 60.3581 128.815 60.393C128.644 60.4281 128.485 60.514 128.359 60.6397C128.236 60.7653 128.151 60.925 128.121 61.0986C128.087 61.2719 128.108 61.4511 128.177 61.6134C128.246 61.7757 128.362 61.9134 128.51 62.0093C128.659 62.105 128.831 62.1544 129.008 62.1514C129.126 62.1547 129.241 62.1342 129.349 62.0906C129.456 62.0473 129.554 61.9822 129.636 61.8993C129.718 61.8163 129.782 61.7175 129.823 61.6088C129.867 61.5001 129.885 61.384 129.88 61.2676ZM99.4253 115.003C99.1912 115.007 98.9674 115.099 98.7971 115.259C98.6266 115.42 98.5226 115.638 98.5044 115.872C98.5038 116.107 98.5923 116.333 98.7515 116.506C98.911 116.678 99.1297 116.784 99.3641 116.802C99.5981 116.801 99.8233 116.712 99.9963 116.554C100.169 116.397 100.278 116.18 100.3 115.947C100.307 115.707 100.219 115.473 100.055 115.297C99.8917 115.12 99.6658 115.015 99.4253 115.003ZM42.279 64.4969C42.2762 64.613 42.2975 64.7284 42.3411 64.8361C42.3847 64.9438 42.4498 65.0415 42.5323 65.123C42.6152 65.2045 42.7136 65.2684 42.8218 65.3107C42.93 65.3527 43.0456 65.3722 43.1618 65.3681C43.2795 65.3673 43.3956 65.343 43.5036 65.2971C43.6118 65.251 43.7097 65.1838 43.7918 65.0994C43.8736 65.0153 43.9379 64.9156 43.9812 64.8063C44.0243 64.6969 44.0453 64.5802 44.043 64.4625C44.0405 64.3451 44.0148 64.2292 43.9674 64.1218C43.92 64.0143 43.8515 63.9172 43.7661 63.8364C43.681 63.7554 43.5805 63.6923 43.4705 63.6505C43.3608 63.609 43.2436 63.5895 43.1262 63.5933C43.0097 63.5928 42.8946 63.6162 42.788 63.6621C42.6811 63.708 42.5849 63.7754 42.5054 63.8603C42.4259 63.9451 42.3647 64.0454 42.3257 64.1549C42.2867 64.2643 42.2708 64.3807 42.279 64.4969ZM127.587 70.9316C127.582 70.6973 127.485 70.4745 127.318 70.3107C127.149 70.1468 126.926 70.0545 126.69 70.0535C126.513 70.0545 126.341 70.1081 126.195 70.2073C126.049 70.3068 125.934 70.4473 125.867 70.6114C125.803 70.7755 125.785 70.9555 125.821 71.1288C125.859 71.3019 125.944 71.4606 126.072 71.5842C126.198 71.708 126.359 71.7913 126.531 71.8236C126.705 71.8562 126.885 71.836 127.049 71.7662C127.21 71.6962 127.349 71.5796 127.446 71.4309C127.541 71.2824 127.59 71.1086 127.587 70.9316ZM115.561 35.4508C115.795 35.4503 116.02 35.3572 116.185 35.1918C116.352 35.0267 116.445 34.8024 116.447 34.5683C116.448 34.334 116.357 34.1086 116.193 33.9411C116.029 33.7737 115.806 33.6781 115.572 33.6745C115.454 33.6717 115.336 33.6925 115.227 33.7355C115.117 33.7786 115.017 33.843 114.932 33.925C114.847 34.0073 114.78 34.1055 114.734 34.214C114.687 34.3224 114.663 34.4391 114.662 34.557C114.662 34.675 114.684 34.7919 114.729 34.9008C114.774 35.0101 114.84 35.109 114.924 35.1921C115.008 35.2754 115.107 35.3411 115.216 35.3854C115.326 35.43 115.443 35.4521 115.561 35.4508ZM126.382 90.4685C126.38 90.5852 126.4 90.7008 126.444 90.809C126.487 90.9169 126.554 91.0146 126.636 91.0962C126.721 91.1777 126.821 91.2413 126.928 91.2828C127.039 91.3244 127.154 91.3431 127.269 91.3379C127.387 91.3369 127.503 91.3128 127.608 91.2672C127.716 91.2213 127.813 91.1549 127.895 91.0713C127.977 90.9877 128.041 90.889 128.082 90.7805C128.126 90.6721 128.146 90.5565 128.144 90.4398C128.144 90.3234 128.121 90.2083 128.074 90.1013C128.028 89.9944 127.962 89.8978 127.877 89.817C127.792 89.7365 127.695 89.6734 127.585 89.6316C127.477 89.5898 127.362 89.5704 127.244 89.5742C127.128 89.5716 127.01 89.5932 126.903 89.6375C126.795 89.6821 126.698 89.7483 126.618 89.8324C126.536 89.9165 126.472 90.0162 126.434 90.126C126.393 90.2355 126.375 90.3521 126.382 90.4685Z" fill="#024D81"/>
<path d="M82.0251 84.0355H73.2241L71.6867 89.0124H64.8256L74.596 62.3716H80.6349L90.4788 89.0124H83.5804L82.0251 84.0355ZM74.7612 79.0771H80.488L77.6156 69.8368L74.7612 79.0771Z" fill="white"/>
<path d="M101.507 89.0124H95.1024V62.3716H101.507V89.0124Z" fill="white"/>
<path d="M43.5486 117.866C45.0621 117.866 46.2889 116.64 46.2889 115.126C46.2889 113.613 45.0621 112.386 43.5486 112.386C42.0353 112.386 40.8085 113.613 40.8085 115.126C40.8085 116.64 42.0353 117.866 43.5486 117.866Z" fill="#024D81"/>
<path d="M135.167 78.4092C136.679 78.4092 137.905 77.1823 137.905 75.6688C137.905 74.1556 136.679 72.9287 135.167 72.9287C133.651 72.9287 132.426 74.1556 132.426 75.6688C132.426 77.1823 133.651 78.4092 135.167 78.4092Z" fill="#024D81"/>
<path d="M85.213 30.7048C86.7265 30.7048 87.9534 29.478 87.9534 27.9645C87.9534 26.4512 86.7265 25.2244 85.213 25.2244C83.6998 25.2244 82.4729 26.4512 82.4729 27.9645C82.4729 29.478 83.6998 30.7048 85.213 30.7048Z" fill="#024D81"/>
</svg>
