<svg width="174" height="174" viewBox="0 0 174 174" fill="none" xmlns="http://www.w3.org/2000/svg">
<g clip-path="url(#clip0_1878_1454)">
<path d="M165.623 45.6422C165.088 45.2342 164.448 45.9887 164.934 46.4553C168.932 50.2874 171.594 55.8319 168.357 61.3919C165.574 66.173 154.905 72.9069 146.985 76.1352C146.871 76.1816 146.745 76.1871 146.628 76.1504C146.511 76.1137 146.41 76.0372 146.343 75.9343C143.406 71.3993 138.812 68.3359 132.656 66.8881C128.679 65.9512 119.011 65.4797 103.56 64.8159C96.9804 64.5324 90.2532 64.2424 84.5841 63.8904C84.0071 63.8545 83.89 63.0538 84.4335 62.8566C100.351 57.0761 124.207 53.3949 143.054 56.5706C148.265 57.4489 155.168 59.7215 160.238 61.7768C162.287 62.6071 164.659 61.8334 165.78 59.9289L165.795 59.9019C167.012 57.8054 167.164 55.6712 166.258 53.3726C165.219 50.7458 162.885 48.2968 160.432 46.6126C159.085 45.6906 150.498 41.5862 142.404 40.2971C118.729 36.5268 82.7039 41.601 51.8353 57.3316C51.7674 57.3663 51.6929 57.3859 51.6168 57.3894C51.5406 57.3931 51.4645 57.3802 51.3938 57.352C50.1193 56.8415 48.9567 56.3255 47.9276 55.8133C46.795 55.2532 44.2481 55.3867 43.3643 56.6145C43.3643 56.617 43.3616 56.617 43.3616 56.6202L43.3673 56.6172C48.6244 60.1779 61.2822 64.7149 76.6407 66.2506C83.1814 66.9057 93.4817 67.3475 103.445 67.7781C116.612 68.3441 127.985 68.8367 131.974 69.7731C142.084 72.1516 147.208 79.2408 147.208 90.8458V110.021C147.208 112.256 146.76 114.228 145.983 115.971C145.73 116.542 146.499 117.003 146.891 116.517C148.727 114.245 150.173 111.438 150.173 108.152V99.5828C150.173 99.391 150.277 99.2137 150.443 99.1189C158.264 94.6749 164.877 90.4185 169.637 85.871C172.425 83.2073 174 79.5178 174 75.662V62.4758C174 59.4688 172.72 51.032 165.623 45.6422Z" fill="#024D81"/>
<path d="M143.56 110.7V91.5252C143.56 79.1698 137.331 74.921 130.612 73.3405C123.892 71.7572 90.4852 71.3631 75.66 69.88C62.2687 68.5413 49.8865 64.7975 43.0278 60.9761C41.6271 60.1958 39.9924 59.9485 38.4201 60.2625C34.0252 61.1408 25.234 62.9412 21.4299 64.0303C21.5812 64.0537 21.7206 64.0899 21.8452 64.1343C25.9578 65.5901 31.9173 67.8701 51.1248 72.4004C70.3292 76.931 102.838 78.7752 112.029 83.2229C121.221 87.6703 121.323 100.42 121.323 109.81C121.323 122.755 121.814 128.093 117.363 134.776C115.741 137.212 113.111 139.099 110.128 140.54C116.429 137.539 124.47 132.223 131.329 127.845C134.799 125.63 137.847 123.232 140.033 120.451C140.102 120.364 140.169 120.277 140.236 120.188L140.164 120.28C142.285 117.522 143.56 114.391 143.56 110.7Z" fill="#024D81"/>
<path d="M88.8443 85.4909L15.6266 68.2205C6.8609 66.1525 -0.245117 71.7777 -0.245117 80.7845V106.943C-0.245117 115.949 6.8609 124.928 15.6268 126.994L88.8446 144.266C97.6103 146.332 104.716 140.709 104.716 131.702V105.542C104.716 96.5357 97.6103 87.5582 88.8443 85.4909Z" fill="#024D81"/>
</g>
<defs>
<clipPath id="clip0_1878_1454">
<rect width="174" height="174" fill="white"/>
</clipPath>
</defs>
</svg>
