<svg width="174" height="174" viewBox="0 0 174 174" fill="none" xmlns="http://www.w3.org/2000/svg">
<path d="M155.174 101.573H17.6371C16.381 101.573 15.125 100.63 15.125 99.0604V4.22913C15.125 2.65907 16.067 1.71704 17.6371 1.71704H155.488C156.744 1.71704 158 2.65907 158 4.22913V99.0604C157.686 100.63 156.744 101.573 155.174 101.573ZM19.8352 96.8624H152.976V6.42721H19.8352V96.8624Z" fill="#024D81"/>
<path d="M38.0478 82.1039C36.4777 82.1039 35.2217 80.8478 35.2217 79.2778V57.611C35.2217 56.041 36.4777 54.7849 38.0478 54.7849C39.6178 54.7849 40.8739 56.041 40.8739 57.611V79.2778C40.5599 80.8478 39.3038 82.1039 38.0478 82.1039Z" fill="#024D81" stroke="#024D81" stroke-width="0.75" stroke-miterlimit="10"/>
<path d="M54.0624 82.1038C52.4924 82.1038 51.2363 80.8477 51.2363 79.2777V36.5722C51.2363 35.0021 52.4924 33.7461 54.0624 33.7461C55.6325 33.7461 56.8885 35.0021 56.8885 36.5722V79.2777C56.8885 80.8477 55.6325 82.1038 54.0624 82.1038Z" fill="#024D81" stroke="#024D81" stroke-width="0.75" stroke-miterlimit="10"/>
<path d="M70.391 82.1039C68.821 82.1039 67.5649 80.8479 67.5649 79.2778V47.2487C67.5649 45.6787 68.821 44.4226 70.391 44.4226C71.9611 44.4226 73.2171 45.6787 73.2171 47.2487V79.5918C72.9031 80.8479 71.6471 82.1039 70.391 82.1039Z" fill="#024D81" stroke="#024D81" stroke-width="0.75" stroke-miterlimit="10"/>
<path d="M86.4054 82.1039C84.8354 82.1039 83.5793 80.8479 83.5793 79.2778V20.8718C83.5793 19.3017 84.8354 18.0457 86.4054 18.0457C87.9755 18.0457 89.2315 19.3017 89.2315 20.8718V79.2778C89.2315 80.8479 87.9755 82.1039 86.4054 82.1039Z" fill="#024D81" stroke="#024D81" stroke-width="0.75" stroke-miterlimit="10"/>
<path d="M102.42 82.1038C100.85 82.1038 99.594 80.8477 99.594 79.2777V53.2148C99.594 51.6447 100.85 50.3887 102.42 50.3887C103.99 50.3887 105.246 51.9587 105.246 53.2148V79.2777C105.246 80.8477 103.99 82.1038 102.42 82.1038Z" fill="#024D81" stroke="#024D81" stroke-width="0.75" stroke-miterlimit="10"/>
<path d="M118.749 82.1039C117.179 82.1039 115.923 80.8479 115.923 79.2778V47.2487C115.923 45.6787 117.179 44.4226 118.749 44.4226C120.319 44.4226 121.575 45.6787 121.575 47.2487V79.5918C121.575 80.8479 120.319 82.1039 118.749 82.1039Z" fill="#024D81" stroke="#024D81" stroke-width="0.75" stroke-miterlimit="10"/>
<path d="M134.763 82.1039C133.193 82.1039 131.937 80.8478 131.937 79.2778V57.611C131.937 56.041 133.193 54.7849 134.763 54.7849C136.333 54.7849 137.589 56.041 137.589 57.611V79.2778C137.589 80.8478 136.333 82.1039 134.763 82.1039Z" fill="#024D81" stroke="#024D81" stroke-width="0.75" stroke-miterlimit="10"/>
<path d="M38.3619 171.283C29.5696 171.283 22.6614 164.061 22.6614 155.582C22.6614 146.79 29.8836 139.882 38.3619 139.882C47.1542 139.882 54.0625 147.104 54.0625 155.582C54.0625 164.061 47.1542 171.283 38.3619 171.283ZM38.3619 144.278C32.0817 144.278 27.0575 149.302 27.0575 155.582C27.0575 161.863 32.0817 166.887 38.3619 166.887C44.6421 166.887 49.6663 161.863 49.6663 155.582C49.6663 149.302 44.6421 144.278 38.3619 144.278Z" fill="#024D81" stroke="#024D81" stroke-width="0.25" stroke-miterlimit="10"/>
<path d="M134.449 171.283C125.657 171.283 118.749 164.061 118.749 155.582C118.749 146.79 125.971 139.882 134.449 139.882C142.927 139.882 150.15 147.104 150.15 155.582C150.15 164.061 143.241 171.283 134.449 171.283ZM134.449 144.278C128.169 144.278 123.145 149.302 123.145 155.582C123.145 161.863 128.169 166.887 134.449 166.887C140.729 166.887 145.753 161.863 145.753 155.582C145.753 149.302 140.729 144.278 134.449 144.278Z" fill="#024D81" stroke="#024D81" stroke-width="0.25" stroke-miterlimit="10"/>
<path d="M50.2942 154.012H122.517" stroke="#024D81" stroke-width="2" stroke-miterlimit="10"/>
<path d="M88.2895 100.002V141.766C88.2895 143.022 87.3474 143.964 86.0914 143.964C84.8353 143.964 83.8933 143.022 83.8933 141.766V100.002" fill="#024D81"/>
<path d="M88.2895 100.002V141.766C88.2895 143.022 87.3474 143.964 86.0914 143.964C84.8353 143.964 83.8933 143.022 83.8933 141.766V100.002" stroke="#024D81" stroke-width="0.25" stroke-miterlimit="10"/>
<path d="M86.0914 171.283C77.2991 171.283 70.3909 164.061 70.3909 155.582C70.3909 146.79 77.6131 139.882 86.0914 139.882C94.5697 139.882 101.792 147.104 101.792 155.582C101.792 164.061 94.5697 171.283 86.0914 171.283Z" fill="#024D81"/>
</svg>
