<svg width="174" height="174" viewBox="0 0 174 174" fill="none" xmlns="http://www.w3.org/2000/svg">
<path d="M131.193 10.7504C133.464 10.2659 135.54 9.83241 137.619 9.36928C137.784 9.33091 138.027 9.07591 138.032 8.92291C138.054 6.63227 138.049 4.34139 138.049 1.99976C135.873 2.49689 133.823 2.94739 131.788 3.45739C131.555 3.51689 131.222 3.86127 131.222 4.0779C131.181 6.24127 131.193 8.41291 131.193 10.7504Z" fill="#024D81"/>
<path d="M138.054 172C138.054 169.661 138.067 167.398 138.025 165.132C138.02 164.935 137.637 164.639 137.387 164.578C136.078 164.26 134.761 163.998 133.438 163.726C132.721 163.575 131.998 163.439 131.194 163.284C131.194 165.579 131.182 167.716 131.211 169.848C131.216 170.074 131.437 170.458 131.619 170.499C133.719 171.021 135.832 171.49 138.054 172Z" fill="#024D81"/>
<path d="M129.484 11.0991C129.484 8.62969 129.484 6.33056 129.484 3.97168C127.944 4.28618 126.47 4.58368 124.996 4.89405C122.65 5.39118 122.65 5.39555 122.65 7.85619C122.65 9.3437 122.65 10.8227 122.65 12.3952C125.03 11.9447 127.247 11.5241 129.484 11.0991Z" fill="#024D81"/>
<path d="M122.652 161.608C122.652 163.93 122.64 166.038 122.669 168.141C122.674 168.333 122.895 168.661 123.065 168.695C125.18 169.156 127.305 169.581 129.486 170.023C129.486 167.619 129.486 165.29 129.486 162.898C127.232 162.473 125.01 162.055 122.652 161.608Z" fill="#024D81"/>
<path d="M114.149 13.8322C116.33 13.4752 118.34 13.1607 120.343 12.7952C120.583 12.7527 120.967 12.4425 120.972 12.2427C121.013 10.1092 121.001 7.97565 121.001 5.72314C118.747 6.12265 116.619 6.49665 114.494 6.90053C114.353 6.92603 114.166 7.22765 114.166 7.40615C114.145 9.51003 114.149 11.6137 114.149 13.8322Z" fill="#024D81"/>
<path d="M112.468 159.901C110.169 159.569 107.937 159.246 105.668 158.92C105.668 161.227 105.668 163.449 105.668 165.676C107.963 166.038 110.19 166.39 112.468 166.747C112.468 164.435 112.468 162.235 112.468 159.901Z" fill="#024D81"/>
<path d="M88.3311 17.0368C90.5369 16.8243 92.679 16.6247 94.8251 16.3908C94.9866 16.3738 95.246 16.1188 95.246 15.9658C95.2756 13.9132 95.263 11.8561 95.263 9.71826C92.8531 9.98176 90.5879 10.2283 88.3311 10.4748C88.3311 12.6976 88.3311 14.8227 88.3311 17.0368Z" fill="#024D81"/>
<path d="M86.5781 163.352C86.5781 161.864 86.5781 160.465 86.5781 159.064C86.5781 156.866 86.5781 156.854 84.4232 156.645C82.8636 156.492 81.3037 156.385 79.6887 156.259C79.6887 158.481 79.6887 160.577 79.6887 162.77C81.9711 162.964 84.2151 163.156 86.5781 163.352Z" fill="#024D81"/>
<path d="M86.5281 10.6404C84.1777 10.8444 81.9381 11.0399 79.6982 11.2354C79.6982 13.4369 79.6982 15.5279 79.6982 17.7294C82.0018 17.5509 84.2457 17.3809 86.5281 17.2065C86.5281 14.9924 86.5281 12.8674 86.5281 10.6404Z" fill="#024D81"/>
<path d="M96.9829 164.491C99.2738 164.792 101.509 165.093 103.8 165.394C103.8 163.104 103.8 160.916 103.8 158.662C101.513 158.388 99.2779 158.118 96.9829 157.844C96.9829 160.107 96.9829 162.237 96.9829 164.491Z" fill="#024D81"/>
<path d="M103.802 8.59595C101.486 8.90608 99.2292 9.20795 97.0066 9.50958C97.0066 11.7706 97.0066 13.9255 97.0066 16.1566C99.3227 15.8761 101.558 15.6041 103.802 15.3321C103.802 13.0415 103.802 10.8526 103.802 8.59595Z" fill="#024D81"/>
<path d="M71.0369 11.758C71.0369 13.9724 71.0369 16.0804 71.0369 18.2479C73.3787 18.1119 75.6313 17.98 77.8753 17.844C77.8753 15.6384 77.8753 13.543 77.8753 11.3713C75.5803 11.503 73.3532 11.6263 71.0369 11.758Z" fill="#024D81"/>
<path d="M77.8911 156.144C75.5322 156.02 73.2926 155.901 70.9466 155.782C70.9466 157.844 70.9252 159.773 70.9762 161.699C70.9847 161.903 71.3927 162.243 71.6436 162.272C72.6507 162.391 73.6666 162.417 74.6866 162.468C75.7532 162.524 76.8157 162.575 77.8911 162.626C77.8911 160.423 77.8911 158.332 77.8911 156.144Z" fill="#024D81"/>
<path d="M53.7002 161.776C55.9993 161.776 58.2477 161.776 60.5383 161.776C60.5383 159.702 60.5383 157.614 60.5383 155.426C58.2518 155.426 56.0037 155.426 53.7002 155.426C53.7002 157.478 53.7002 159.535 53.7002 161.776Z" fill="#024D81"/>
<path d="M62.3708 161.992C64.7169 161.992 66.9609 161.992 69.2005 161.992C69.2005 159.903 69.2005 157.839 69.2005 155.634C66.9055 155.634 64.6574 155.634 62.3708 155.634C62.3708 157.674 62.3708 159.733 62.3708 161.992Z" fill="#024D81"/>
<path d="M60.5368 18.5667C60.5368 16.3567 60.5368 14.2911 60.5368 12.2341C58.2333 12.2341 55.9849 12.2341 53.7239 12.2341C53.7239 14.423 53.7239 16.5012 53.7239 18.5667C56.0359 18.5667 58.2588 18.5667 60.5368 18.5667Z" fill="#024D81"/>
<path d="M44.9961 18.5622C47.2911 18.5622 49.5436 18.5622 51.8258 18.5622C51.8258 16.4585 51.8258 14.3802 51.8258 12.2126C49.5096 12.2126 47.2571 12.2126 44.9961 12.2126C44.9961 14.3462 44.9961 16.4117 44.9961 18.5622Z" fill="#024D81"/>
<path d="M138.025 19.0259C135.689 19.4638 133.452 19.8888 131.276 20.3009C131.276 22.4684 131.276 24.4829 131.276 26.6208C133.585 26.2298 135.798 25.8558 138.025 25.4774C138.025 23.3099 138.025 21.2529 138.025 19.0259Z" fill="#024D81"/>
<path d="M131.196 147.372C131.196 148.62 131.184 149.684 131.201 150.75C131.213 151.709 130.929 152.926 131.395 153.55C131.815 154.111 133.073 154.043 133.972 154.218C135.3 154.478 136.636 154.711 137.986 154.954C137.986 152.712 137.986 150.631 137.986 148.513C135.735 148.132 133.547 147.763 131.196 147.372Z" fill="#024D81"/>
<path d="M146.486 150.093C144.24 149.672 142.054 149.264 139.81 148.842C139.81 151.052 139.81 153.153 139.81 155.316C142.032 155.778 144.235 156.234 146.486 156.696C146.486 154.474 146.486 152.337 146.486 150.093Z" fill="#024D81"/>
<path d="M139.824 25.162C142.098 24.7285 144.303 24.3077 146.476 23.8955C146.476 21.6132 146.476 19.4797 146.476 17.291C144.223 17.7585 142.017 18.2216 139.824 18.6807C139.824 20.8737 139.824 22.969 139.824 25.162Z" fill="#024D81"/>
<path d="M146.474 9.00806C144.357 9.49256 142.275 9.96006 140.209 10.4616C140.039 10.4999 139.798 10.7421 139.798 10.8866C139.767 12.9139 139.781 14.9411 139.781 17.0406C142.088 16.5476 144.264 16.0845 146.479 15.6085C146.474 13.4324 146.474 11.2989 146.474 9.00806Z" fill="#024D81"/>
<path d="M122.686 27.9296C125.025 27.5767 127.247 27.2411 129.462 26.9052C129.462 24.7761 129.462 22.7276 129.462 20.6067C127.157 20.9892 124.94 21.3591 122.686 21.7287C122.686 23.8027 122.686 25.7961 122.686 27.9296Z" fill="#024D81"/>
<path d="M129.455 153.38C129.455 151.204 129.455 149.152 129.455 147.085C127.177 146.743 124.977 146.415 122.706 146.075C122.706 148.183 122.706 150.201 122.706 152.268C124.96 152.637 127.16 153.002 129.455 153.38Z" fill="#024D81"/>
<path d="M129.476 161.3C129.476 159.16 129.476 157.103 129.476 154.995C127.206 154.614 124.991 154.235 122.701 153.849C122.701 155.962 122.701 157.98 122.701 160.042C124.962 160.457 127.181 160.875 129.476 161.3Z" fill="#024D81"/>
<path d="M129.484 12.7053C127.369 13.0963 125.299 13.4662 123.238 13.8783C123.021 13.9208 122.677 14.1972 122.672 14.3713C122.633 16.2627 122.647 18.1538 122.647 20.1642C125.013 19.7603 127.237 19.3822 129.484 18.9997C129.484 16.8618 129.484 14.8007 129.484 12.7053Z" fill="#024D81"/>
<path d="M95.2076 156.149C95.2076 154.104 95.2076 152.222 95.2076 150.279C92.8745 150.075 90.6091 149.876 88.3311 149.674C88.3311 151.697 88.3311 153.555 88.3311 155.471C90.6219 155.697 92.8701 155.923 95.2076 156.149Z" fill="#024D81"/>
<path d="M88.302 148.195C90.6524 148.394 92.9175 148.586 95.1489 148.778C95.2125 148.596 95.2509 148.53 95.2509 148.467C95.2594 147.333 95.2635 146.199 95.2679 145.062C95.272 142.981 95.2679 142.981 93.2789 142.794C93.0834 142.777 92.892 142.731 92.6924 142.716C91.2389 142.614 89.7854 142.512 88.2979 142.41C88.302 144.404 88.302 146.233 88.302 148.195Z" fill="#024D81"/>
<path d="M19.0548 33.2334C19.0548 35.2098 19.0548 37.0628 19.0548 39.0093C21.3542 39.1368 23.6023 39.2514 25.8762 39.3789C25.8762 37.3984 25.8762 35.5413 25.8762 33.6159C23.5768 33.4884 21.3372 33.3609 19.0548 33.2334Z" fill="#024D81"/>
<path d="M19.0502 148.06C21.3707 147.899 23.6103 147.737 25.8798 147.581C25.8798 145.629 25.8798 143.776 25.8798 141.835C23.5807 141.983 21.3367 142.124 19.0502 142.272C19.0502 144.21 19.0502 146.068 19.0502 148.06Z" fill="#024D81"/>
<path d="M19.005 47.9382C19.005 49.6084 18.9924 51.3679 19.0264 53.1274C19.0305 53.2847 19.3579 53.5609 19.5364 53.5653C21.6274 53.5949 23.7099 53.5822 25.8604 53.5822C25.8604 51.8439 25.8604 49.9697 25.8604 47.9382C23.561 47.9382 21.3384 47.9382 19.005 47.9382Z" fill="#024D81"/>
<path d="M19.0548 60.8926C21.3668 60.8926 23.5897 60.8926 25.8677 60.8926C25.8677 59.0566 25.8677 57.1737 25.8677 55.1636C23.5683 55.1636 21.3413 55.1636 19.0548 55.1636C19.0548 56.9656 19.0548 58.8227 19.0548 60.8926Z" fill="#024D81"/>
<path d="M25.8892 134.612C23.5476 134.743 21.3036 134.877 19.0596 134.998C19.0596 136.987 19.0596 138.845 19.0596 140.783C21.3672 140.64 23.6071 140.504 25.8892 140.363C25.8892 138.432 25.8892 136.606 25.8892 134.612Z" fill="#024D81"/>
<path d="M25.8857 69.6348C23.5482 69.6348 21.3338 69.6348 19.0643 69.6348C19.0643 71.5218 19.0643 73.4003 19.0643 75.3597C21.3807 75.3597 23.6247 75.3597 25.8857 75.3597C25.8857 73.4428 25.8857 71.6196 25.8857 69.6348Z" fill="#024D81"/>
<path d="M25.8946 98.6882C23.5527 98.6882 21.3087 98.6882 19.0691 98.6882C19.0691 100.656 19.0691 102.535 19.0691 104.294C21.3852 104.294 23.6292 104.294 25.8946 104.294C25.8946 102.343 25.8946 100.546 25.8946 98.6882Z" fill="#024D81"/>
<path d="M19.0502 111.552C21.3537 111.552 23.5977 111.552 25.8757 111.552C25.8757 109.554 25.8757 107.706 25.8757 105.912C23.5722 105.912 21.3282 105.912 19.0502 105.912C19.0502 107.901 19.0502 109.758 19.0502 111.552Z" fill="#024D81"/>
<path d="M60.5623 27.2324C58.2204 27.2324 55.9679 27.2324 53.7239 27.2324C53.7239 29.1661 53.7239 31.0106 53.7239 32.8041C56.0529 32.8041 58.2969 32.8041 60.5623 32.8041C60.5623 30.8959 60.5623 29.0981 60.5623 27.2324Z" fill="#024D81"/>
<path d="M51.8427 27.2153C49.5266 27.2153 47.2782 27.2153 44.9961 27.2153C44.9961 29.0982 44.9961 30.9213 44.9961 32.8297C47.2867 32.8297 49.5392 32.8297 51.8427 32.8297C51.8427 30.9937 51.8427 29.1662 51.8427 27.2153Z" fill="#024D81"/>
<path d="M45.015 68.4156C47.3185 68.4156 49.5625 68.4156 51.832 68.4156C51.832 66.5157 51.832 64.6756 51.832 62.8352C49.5157 62.8352 47.2675 62.8352 45.015 62.8352C45.015 64.7307 45.015 66.5541 45.015 68.4156Z" fill="#024D81"/>
<path d="M44.9961 111.161C47.3462 111.161 49.5946 111.161 51.8427 111.161C51.8427 109.24 51.8427 107.413 51.8427 105.577C49.5436 105.577 47.2952 105.577 44.9961 105.577C44.9961 107.485 44.9961 109.308 44.9961 111.161Z" fill="#024D81"/>
<path d="M43.1621 77.0344C40.8374 77.0344 38.589 77.0344 36.311 77.0344C36.311 78.9256 36.311 80.7531 36.311 82.6571C38.6145 82.6571 40.867 82.6571 43.1621 82.6571C43.1621 80.7871 43.1621 78.9554 43.1621 77.0344Z" fill="#024D81"/>
<path d="M45.0341 77.0806C45.0341 78.9846 45.0341 80.8291 45.0341 82.6566C47.3589 82.6566 49.6071 82.6566 51.8469 82.6566C51.8469 80.7611 51.8469 78.9336 51.8469 77.0806C49.5391 77.0806 47.2909 77.0806 45.0341 77.0806Z" fill="#024D81"/>
<path d="M27.683 75.4276C29.9736 75.4276 32.222 75.4276 34.4745 75.4276C34.4745 73.5619 34.4745 71.7301 34.4745 69.8049C32.188 69.8049 29.944 69.8049 27.683 69.8049C27.683 71.6749 27.683 73.5024 27.683 75.4276Z" fill="#024D81"/>
<path d="M43.1527 91.365C40.8237 91.365 38.5753 91.365 36.3016 91.365C36.3016 93.269 36.3016 95.0965 36.3016 96.9665C38.5923 96.9665 40.8492 96.9665 43.1527 96.9665C43.1527 95.0795 43.1527 93.252 43.1527 91.365Z" fill="#024D81"/>
<path d="M51.877 91.3484C49.5353 91.3484 47.287 91.3484 45.0388 91.3484C45.0388 93.2568 45.0388 95.1013 45.0388 96.9203C47.3678 96.9203 49.6118 96.9203 51.877 96.9203C51.877 95.0459 51.877 93.2483 51.877 91.3484Z" fill="#024D81"/>
<path d="M34.4921 98.5898C32.1503 98.5898 29.9191 98.5898 27.6877 98.5898C27.6877 100.536 27.6877 102.36 27.6877 104.179C29.9786 104.179 32.2226 104.179 34.4921 104.179C34.4921 102.262 34.4921 100.434 34.4921 98.5898Z" fill="#024D81"/>
<path d="M34.4686 89.8525C34.4686 87.94 34.4686 86.0911 34.4686 84.2085C32.1821 84.2085 29.9465 84.2085 27.7067 84.2085C27.7067 86.1251 27.7067 87.974 27.7067 89.8525C30.006 89.8525 32.2202 89.8525 34.4686 89.8525Z" fill="#024D81"/>
<path d="M27.683 111.353C29.9736 111.353 32.2135 111.353 34.466 111.353C34.466 109.394 34.466 107.57 34.466 105.79C32.171 105.79 29.9311 105.79 27.683 105.79C27.683 107.745 27.683 109.568 27.683 111.353Z" fill="#024D81"/>
<path d="M27.683 147.477C29.978 147.372 32.222 147.265 34.4616 147.154C34.4616 145.203 34.4616 143.377 34.4616 141.434C32.1666 141.536 29.9226 141.643 27.683 141.745C27.683 143.717 27.683 145.548 27.683 147.477Z" fill="#024D81"/>
<path d="M43.1735 127.079C40.8234 127.079 38.575 127.079 36.3395 127.079C36.3395 129.046 36.3395 130.894 36.3395 132.628C38.6644 132.628 40.9125 132.628 43.1735 132.628C43.1735 130.678 43.1735 128.881 43.1735 127.079Z" fill="#024D81"/>
<path d="M27.6782 39.5487C29.9861 39.5487 32.2257 39.5487 34.4401 39.5487C34.4401 37.7382 34.4401 35.8852 34.4401 33.8921C32.1536 33.8921 29.9436 33.8921 27.6782 33.8921C27.6782 35.6601 27.6782 37.4876 27.6782 39.5487Z" fill="#024D81"/>
<path d="M36.311 118.361C38.6614 118.361 40.9054 118.361 43.1536 118.361C43.1536 116.411 43.1536 114.592 43.1536 112.794C40.8501 112.794 38.6019 112.794 36.311 112.794C36.311 114.719 36.311 116.538 36.311 118.361Z" fill="#024D81"/>
<path d="M34.4623 120.111C32.1716 120.111 29.9361 120.111 27.6877 120.111C27.6877 122.115 27.6877 123.968 27.6877 125.709C29.9871 125.709 32.2268 125.709 34.4623 125.709C34.4623 123.713 34.4623 121.889 34.4623 120.111Z" fill="#024D81"/>
<path d="M53.6907 146.782C56.0578 146.782 58.3018 146.782 60.5247 146.782C60.5247 144.89 60.5247 143.071 60.5247 141.184C58.2127 141.184 55.9643 141.184 53.6907 141.184C53.6907 143.059 53.6907 144.885 53.6907 146.782Z" fill="#024D81"/>
<path d="M45.0198 141.191C45.0198 143.159 45.0198 144.975 45.0198 146.772C47.3362 146.772 49.5843 146.772 51.8538 146.772C51.8538 144.868 51.8538 143.044 51.8538 141.191C49.5673 141.191 47.3192 141.191 45.0198 141.191Z" fill="#024D81"/>
<path d="M34.466 132.934C34.466 130.887 34.466 129.068 34.466 127.336C32.1751 127.336 29.9355 127.336 27.683 127.336C27.683 129.335 27.683 131.154 27.683 132.934C29.9566 132.934 32.171 132.934 34.466 132.934Z" fill="#024D81"/>
<path d="M36.3253 48.4915C36.3253 50.3571 36.3253 52.1761 36.3253 54.1015C38.6373 54.1015 40.8813 54.1015 43.1635 54.1015C43.1635 52.257 43.1635 50.4336 43.1635 48.4915C40.877 48.4915 38.6245 48.4915 36.3253 48.4915Z" fill="#024D81"/>
<path d="M27.6735 46.7017C29.9855 46.7017 32.1996 46.7017 34.4565 46.7017C34.4565 44.9039 34.4565 43.0594 34.4565 41.0789C32.1571 41.0789 29.9216 41.0789 27.6735 41.0789C27.6735 42.9149 27.6735 44.7084 27.6735 46.7017Z" fill="#024D81"/>
<path d="M34.4391 68.2659C34.4391 66.366 34.4391 64.5215 34.4391 62.5879C32.1441 62.5879 29.9256 62.5879 27.7114 62.5879C27.7114 64.5004 27.7114 66.349 27.7114 68.2659C29.9809 68.2659 32.1739 68.2659 34.4391 68.2659Z" fill="#024D81"/>
<path d="M43.1828 98.5139C40.8409 98.5139 38.5884 98.5139 36.3063 98.5139C36.3063 100.418 36.3063 102.241 36.3063 104.06C38.6224 104.06 40.8878 104.06 43.1828 104.06C43.1828 102.152 43.1828 100.358 43.1828 98.5139Z" fill="#024D81"/>
<path d="M36.3301 34.2021C36.3301 36.0168 36.3301 37.8656 36.3301 39.8248C38.6421 39.8248 40.882 39.8248 43.1685 39.8248C43.1685 37.9973 43.1685 36.1742 43.1685 34.2021C40.8946 34.2021 38.6465 34.2021 36.3301 34.2021Z" fill="#024D81"/>
<path d="M27.7162 112.912C27.7162 114.952 27.7162 116.801 27.7162 118.56C30.0156 118.56 32.2297 118.56 34.4611 118.56C34.4611 116.567 34.4611 114.723 34.4611 112.912C32.1831 112.912 29.9687 112.912 27.7162 112.912Z" fill="#024D81"/>
<path d="M36.311 146.913C38.6529 146.913 40.9011 146.913 43.1536 146.913C43.1536 144.941 43.1536 143.117 43.1536 141.362C40.8501 141.362 38.606 141.362 36.311 141.362C36.311 143.314 36.311 145.136 36.311 146.913Z" fill="#024D81"/>
<path d="M43.182 148.499C40.8445 148.499 38.5964 148.499 36.3395 148.499C36.3395 150.495 36.3395 152.348 36.3395 154.082C38.6685 154.082 40.9125 154.082 43.182 154.082C43.182 152.105 43.182 150.303 43.182 148.499Z" fill="#024D81"/>
<path d="M36.311 139.78C38.6315 139.78 40.9011 139.78 43.1451 139.78C43.1451 137.806 43.1451 135.982 43.1451 134.214C40.8331 134.214 38.589 134.214 36.311 134.214C36.311 136.176 36.311 138 36.311 139.78Z" fill="#024D81"/>
<path d="M51.8528 55.699C49.5238 55.699 47.2798 55.699 45.0103 55.699C45.0103 57.5734 45.0103 59.3924 45.0103 61.2964C47.3096 61.2964 49.5578 61.2964 51.8528 61.2964C51.8528 59.4604 51.8528 57.6329 51.8528 55.699Z" fill="#024D81"/>
<path d="M43.1395 61.241C43.1395 59.3285 43.1395 57.5139 43.1395 55.614C40.8275 55.614 38.5794 55.614 36.3395 55.614C36.3395 57.4925 36.3395 59.3414 36.3395 61.241C38.6474 61.241 40.8659 61.241 43.1395 61.241Z" fill="#024D81"/>
<path d="M45.015 84.2039C45.015 86.1164 45.015 87.9312 45.015 89.7714C47.3227 89.7714 49.5667 89.7714 51.8532 89.7714C51.8532 87.9014 51.8532 86.0824 51.8532 84.2039C49.5667 84.2039 47.3227 84.2039 45.015 84.2039Z" fill="#024D81"/>
<path d="M53.7144 148.315C53.7144 150.199 53.7144 152.013 53.7144 153.9C56.0307 153.9 58.2747 153.9 60.5272 153.9C60.5272 152.009 60.5272 150.185 60.5272 148.315C58.2407 148.315 56.0179 148.315 53.7144 148.315Z" fill="#024D81"/>
<path d="M53.6907 25.6474C56.0578 25.6474 58.3103 25.6474 60.5203 25.6474C60.5203 23.7308 60.5203 21.9074 60.5203 20.1394C58.1913 20.1394 55.9388 20.1394 53.6907 20.1394C53.6907 22.0308 53.6907 23.8284 53.6907 25.6474Z" fill="#024D81"/>
<path d="M43.1409 75.4995C43.1409 73.6251 43.1409 71.7765 43.1409 69.9021C40.8289 69.9021 38.5849 69.9021 36.311 69.9021C36.311 71.7935 36.311 73.6166 36.311 75.4995C38.6019 75.4995 40.8544 75.4995 43.1409 75.4995Z" fill="#024D81"/>
<path d="M45.015 112.713C45.015 114.642 45.015 116.466 45.015 118.28C47.3312 118.28 49.5837 118.28 51.8362 118.28C51.8362 116.381 51.8362 114.557 51.8362 112.713C49.5497 112.713 47.3185 112.713 45.015 112.713Z" fill="#024D81"/>
<path d="M131.196 10.7504C131.196 8.41291 131.179 6.2454 131.22 4.0779C131.225 3.86127 131.555 3.51689 131.786 3.45739C133.821 2.94739 135.873 2.49689 138.049 1.99976C138.049 4.34139 138.059 6.63227 138.032 8.91878C138.032 9.07591 137.792 9.33091 137.622 9.36491C135.548 9.83241 133.469 10.2659 131.196 10.7504Z" fill="#024D81"/>
<path d="M138.057 172.001C135.837 171.491 133.724 171.022 131.626 170.505C131.444 170.461 131.223 170.08 131.218 169.854C131.184 167.717 131.201 165.582 131.201 163.287C132.007 163.445 132.726 163.586 133.445 163.729C134.761 164.001 136.085 164.266 137.394 164.584C137.644 164.647 138.025 164.941 138.03 165.137C138.074 167.398 138.057 169.662 138.057 172.001Z" fill="#024D81"/>
<path d="M129.484 11.0996C127.247 11.5246 125.032 11.9452 122.65 12.4001C122.65 10.8276 122.65 9.34859 122.65 7.86108C122.65 5.4002 122.65 5.39607 124.996 4.89869C126.47 4.58419 127.949 4.29106 129.484 3.97656C129.484 6.3352 129.484 8.63021 129.484 11.0996Z" fill="#024D81"/>
<path d="M122.65 161.608C125.013 162.055 127.233 162.473 129.484 162.898C129.484 165.29 129.484 167.614 129.484 170.023C127.303 169.581 125.178 169.161 123.063 168.695C122.893 168.656 122.672 168.333 122.667 168.141C122.643 166.038 122.65 163.93 122.65 161.608Z" fill="#024D81"/>
<path d="M114.151 13.8322C114.151 11.6093 114.142 9.50981 114.163 7.4103C114.168 7.2318 114.35 6.9343 114.491 6.90467C116.616 6.49667 118.745 6.1268 120.998 5.72729C120.998 7.9798 121.015 10.1133 120.967 12.2468C120.964 12.4423 120.581 12.7527 120.338 12.7993C118.345 13.1607 116.331 13.4752 114.151 13.8322Z" fill="#024D81"/>
<path d="M112.468 159.901C112.468 162.235 112.468 164.435 112.468 166.747C110.19 166.39 107.967 166.038 105.668 165.676C105.668 163.454 105.668 161.232 105.668 158.92C107.937 159.246 110.169 159.569 112.468 159.901Z" fill="#024D81"/>
<path d="M88.3311 17.0368C88.3311 14.8183 88.3311 12.6976 88.3311 10.4748C90.5921 10.2283 92.8531 9.97763 95.263 9.71826C95.263 11.8561 95.2756 13.9132 95.246 15.9658C95.2416 16.1147 94.9825 16.3738 94.8251 16.3908C92.6831 16.6288 90.5369 16.8287 88.3311 17.0368Z" fill="#024D81"/>
<path d="M86.5822 163.352C84.2236 163.151 81.9796 162.964 79.6887 162.77C79.6887 160.572 79.6887 158.481 79.6887 156.259C81.3037 156.385 82.8636 156.497 84.4232 156.645C86.5822 156.854 86.5781 156.866 86.5781 159.064C86.5823 160.465 86.5822 161.864 86.5822 163.352Z" fill="#024D81"/>
<path d="M86.5281 10.6404C86.5281 12.8674 86.5281 14.9924 86.5281 17.2024C84.2416 17.3765 82.0018 17.5509 79.6982 17.725C79.6982 15.5279 79.6982 13.4325 79.6982 11.231C81.9381 11.0399 84.1777 10.8444 86.5281 10.6404Z" fill="#024D81"/>
<path d="M96.9829 164.491C96.9829 162.237 96.9829 160.107 96.9829 157.844C99.2738 158.118 101.513 158.39 103.8 158.662C103.8 160.916 103.8 163.104 103.8 165.394C101.509 165.093 99.2694 164.792 96.9829 164.491Z" fill="#024D81"/>
<path d="M103.802 8.59595C103.802 10.8485 103.802 13.0415 103.802 15.3321C101.558 15.6041 99.3186 15.8761 97.0066 16.1566C97.0066 13.9255 97.0066 11.7706 97.0066 9.50958C99.2292 9.21208 101.482 8.90608 103.802 8.59595Z" fill="#024D81"/>
<path d="M71.0369 11.7587C73.3532 11.6312 75.5803 11.5037 77.8753 11.3762C77.8753 13.5437 77.8753 15.6391 77.8753 17.8491C75.6313 17.9807 73.3787 18.1167 71.0369 18.2527C71.0369 16.0811 71.0369 13.9731 71.0369 11.7587Z" fill="#024D81"/>
<path d="M77.8911 156.144C77.8911 158.337 77.8911 160.423 77.8911 162.626C76.8157 162.575 75.7491 162.524 74.6866 162.468C73.6707 162.412 72.6551 162.391 71.6436 162.272C71.3927 162.243 70.9806 161.907 70.9762 161.699C70.9252 159.773 70.9466 157.844 70.9466 155.782C73.2926 155.901 75.5366 156.016 77.8911 156.144Z" fill="#024D81"/>
<path d="M53.7002 161.776C53.7002 159.535 53.7002 157.483 53.7002 155.426C56.0078 155.426 58.2518 155.426 60.5383 155.426C60.5383 157.614 60.5383 159.702 60.5383 161.776C58.2433 161.776 55.9993 161.776 53.7002 161.776Z" fill="#024D81"/>
<path d="M62.3708 161.992C62.3708 159.733 62.3708 157.669 62.3708 155.634C64.653 155.634 66.897 155.634 69.2005 155.634C69.2005 157.839 69.2005 159.896 69.2005 161.992C66.9609 161.992 64.7169 161.992 62.3708 161.992Z" fill="#024D81"/>
<path d="M60.5368 18.5667C58.2588 18.5667 56.0318 18.5667 53.7239 18.5667C53.7239 16.5055 53.7239 14.423 53.7239 12.2341C55.9849 12.2341 58.2333 12.2341 60.5368 12.2341C60.5368 14.2955 60.5368 16.3567 60.5368 18.5667Z" fill="#024D81"/>
<path d="M44.9961 18.5622C44.9961 16.416 44.9961 14.3505 44.9961 12.2126C47.2656 12.2126 49.5137 12.2126 51.8258 12.2126C51.8258 14.376 51.8258 16.4585 51.8258 18.5622C49.5477 18.5622 47.2952 18.5622 44.9961 18.5622Z" fill="#024D81"/>
<path d="M138.025 19.0259C138.025 21.2488 138.025 23.3143 138.025 25.4774C135.798 25.8558 133.585 26.2298 131.276 26.6208C131.276 24.4829 131.276 22.4684 131.276 20.3009C133.449 19.8888 135.689 19.4679 138.025 19.0259Z" fill="#024D81"/>
<path d="M131.198 147.372C133.549 147.765 135.737 148.132 137.991 148.513C137.991 150.626 137.991 152.712 137.991 154.954C136.638 154.706 135.305 154.478 133.974 154.218C133.078 154.043 131.82 154.116 131.397 153.55C130.931 152.931 131.22 151.709 131.203 150.75C131.186 149.684 131.198 148.615 131.198 147.372Z" fill="#024D81"/>
<path d="M146.486 150.092C146.486 152.336 146.486 154.468 146.486 156.705C144.24 156.236 142.037 155.782 139.81 155.323C139.81 153.157 139.81 151.061 139.81 148.851C142.054 149.264 144.24 149.672 146.486 150.092Z" fill="#024D81"/>
<path d="M139.824 25.162C139.824 22.9647 139.824 20.8695 139.824 18.6807C142.017 18.2216 144.223 17.7585 146.476 17.291C146.476 19.484 146.476 21.6132 146.476 23.8955C144.303 24.312 142.098 24.7327 139.824 25.162Z" fill="#024D81"/>
<path d="M146.476 9.00806C146.476 11.2989 146.476 13.4324 146.476 15.6085C144.261 16.0801 142.085 16.5476 139.778 17.0406C139.778 14.9411 139.769 12.9181 139.795 10.8866C139.8 10.7336 140.038 10.4999 140.208 10.4574C142.277 9.96006 144.356 9.49256 146.476 9.00806Z" fill="#024D81"/>
<path d="M122.686 27.9296C122.686 25.792 122.686 23.803 122.686 21.7375C124.935 21.3635 127.157 20.998 129.462 20.6155C129.462 22.732 129.462 24.7805 129.462 26.914C127.247 27.2411 125.025 27.577 122.686 27.9296Z" fill="#024D81"/>
<path d="M129.455 153.38C127.165 152.999 124.96 152.637 122.706 152.263C122.706 150.196 122.706 148.173 122.706 146.07C124.977 146.41 127.177 146.743 129.455 147.083C129.455 149.152 129.455 151.209 129.455 153.38Z" fill="#024D81"/>
<path d="M129.476 161.3C127.181 160.87 124.957 160.462 122.701 160.037C122.701 157.98 122.701 155.957 122.701 153.844C124.988 154.23 127.206 154.609 129.476 154.993C129.476 157.103 129.476 159.158 129.476 161.3Z" fill="#024D81"/>
<path d="M129.486 12.7053C129.486 14.8007 129.486 16.8577 129.486 18.9997C127.237 19.3822 125.015 19.7603 122.652 20.1642C122.652 18.1538 122.638 16.2583 122.677 14.3713C122.681 14.1972 123.021 13.9208 123.242 13.8783C125.304 13.4618 127.373 13.0922 129.486 12.7053Z" fill="#024D81"/>
<path d="M95.2076 156.149C92.8701 155.918 90.6261 155.702 88.3311 155.481C88.3311 153.565 88.3311 151.702 88.3311 149.684C90.6091 149.883 92.8786 150.083 95.2076 150.287C95.2076 152.217 95.2076 154.104 95.2076 156.149Z" fill="#024D81"/>
<path d="M88.3025 148.195C88.3025 146.233 88.3025 144.404 88.3025 142.408C89.79 142.51 91.2435 142.612 92.697 142.714C92.8925 142.726 93.0839 142.772 93.2835 142.789C95.2725 142.976 95.2769 142.976 95.2725 145.06C95.2725 146.194 95.264 147.328 95.2555 148.462C95.2555 148.528 95.2174 148.586 95.1535 148.773C92.918 148.586 90.6529 148.394 88.3025 148.195Z" fill="#024D81"/>
<path d="M19.0548 33.2334C21.3372 33.3609 23.5768 33.4884 25.8762 33.6159C25.8762 35.5369 25.8762 37.3984 25.8762 39.3789C23.5982 39.2558 21.3542 39.1368 19.0548 39.0093C19.0548 37.0628 19.0548 35.2098 19.0548 33.2334Z" fill="#024D81"/>
<path d="M19.0502 148.059C19.0502 146.068 19.0502 144.21 19.0502 142.267C21.3408 142.124 23.5807 141.978 25.8798 141.83C25.8798 143.773 25.8798 145.626 25.8798 147.576C23.6103 147.736 21.3707 147.899 19.0502 148.059Z" fill="#024D81"/>
<path d="M19.005 47.9382C21.3425 47.9382 23.561 47.9382 25.8604 47.9382C25.8604 49.9697 25.8604 51.8482 25.8604 53.5822C23.7184 53.5822 21.6274 53.5949 19.5364 53.5653C19.3579 53.5609 19.0305 53.2847 19.0264 53.1274C18.9924 51.3679 19.005 49.6084 19.005 47.9382Z" fill="#024D81"/>
<path d="M19.0548 60.8926C19.0548 58.8227 19.0548 56.9656 19.0548 55.1636C21.3413 55.1636 23.5683 55.1636 25.8677 55.1636C25.8677 57.1696 25.8677 59.0566 25.8677 60.8926C23.5897 60.8926 21.3627 60.8926 19.0548 60.8926Z" fill="#024D81"/>
<path d="M25.8892 134.612C25.8892 136.606 25.8892 138.43 25.8892 140.363C23.6071 140.504 21.3672 140.64 19.0596 140.783C19.0596 138.845 19.0596 136.987 19.0596 134.998C21.3036 134.877 23.5432 134.748 25.8892 134.612Z" fill="#024D81"/>
<path d="M25.8857 69.6348C25.8857 71.6196 25.8857 73.4472 25.8857 75.3597C23.6247 75.3597 21.3807 75.3597 19.0643 75.3597C19.0643 73.4003 19.0643 71.5218 19.0643 69.6348C21.3338 69.6348 23.5482 69.6348 25.8857 69.6348Z" fill="#024D81"/>
<path d="M25.8946 98.6882C25.8946 100.546 25.8946 102.339 25.8946 104.294C23.6292 104.294 21.3896 104.294 19.0691 104.294C19.0691 102.53 19.0691 100.652 19.0691 98.6882C21.3087 98.6882 23.5527 98.6882 25.8946 98.6882Z" fill="#024D81"/>
<path d="M19.0502 111.552C19.0502 109.754 19.0502 107.901 19.0502 105.912C21.3282 105.912 23.5722 105.912 25.8757 105.912C25.8757 107.706 25.8757 109.554 25.8757 111.552C23.5977 111.552 21.3537 111.552 19.0502 111.552Z" fill="#024D81"/>
<path d="M60.5623 27.2324C60.5623 29.0981 60.5623 30.9001 60.5623 32.8041C58.2969 32.8041 56.0529 32.8041 53.7239 32.8041C53.7239 31.0106 53.7239 29.1661 53.7239 27.2324C55.9723 27.2324 58.2204 27.2324 60.5623 27.2324Z" fill="#024D81"/>
<path d="M51.8427 27.2153C51.8427 29.1703 51.8427 30.9937 51.8427 32.8297C49.5392 32.8297 47.2952 32.8297 44.9961 32.8297C44.9961 30.9213 44.9961 29.1023 44.9961 27.2153C47.2782 27.2153 49.5266 27.2153 51.8427 27.2153Z" fill="#024D81"/>
<path d="M45.015 68.4156C45.015 66.5541 45.015 64.7307 45.015 62.8352C47.2675 62.8352 49.5115 62.8352 51.832 62.8352C51.832 64.6756 51.832 66.5157 51.832 68.4156C49.5625 68.4156 47.3185 68.4156 45.015 68.4156Z" fill="#024D81"/>
<path d="M44.9961 111.161C44.9961 109.304 44.9961 107.481 44.9961 105.577C47.2911 105.577 49.5392 105.577 51.8427 105.577C51.8427 107.413 51.8427 109.24 51.8427 111.161C49.5946 111.161 47.3506 111.161 44.9961 111.161Z" fill="#024D81"/>
<path d="M43.1621 77.0344C43.1621 78.9554 43.1621 80.7871 43.1621 82.6571C40.8714 82.6571 38.6145 82.6571 36.311 82.6571C36.311 80.7531 36.311 78.9299 36.311 77.0344C38.5849 77.0344 40.8374 77.0344 43.1621 77.0344Z" fill="#024D81"/>
<path d="M45.0341 77.0806C47.2909 77.0806 49.5391 77.0806 51.8469 77.0806C51.8469 78.9379 51.8469 80.7611 51.8469 82.6566C49.6071 82.6566 47.3631 82.6566 45.0341 82.6566C45.0341 80.8291 45.0341 78.9846 45.0341 77.0806Z" fill="#024D81"/>
<path d="M27.683 75.4276C27.683 73.5024 27.683 71.6749 27.683 69.8049C29.944 69.8049 32.188 69.8049 34.4745 69.8049C34.4745 71.7344 34.4745 73.5619 34.4745 75.4276C32.222 75.4276 29.978 75.4276 27.683 75.4276Z" fill="#024D81"/>
<path d="M43.1527 91.365C43.1527 93.252 43.1527 95.0795 43.1527 96.9665C40.8492 96.9665 38.5966 96.9665 36.3016 96.9665C36.3016 95.0965 36.3016 93.269 36.3016 91.365C38.5753 91.365 40.8278 91.365 43.1527 91.365Z" fill="#024D81"/>
<path d="M51.877 91.3484C51.877 93.2483 51.877 95.0459 51.877 96.9203C49.6118 96.9203 47.3678 96.9203 45.0388 96.9203C45.0388 95.0969 45.0388 93.2524 45.0388 91.3484C47.2828 91.3484 49.5353 91.3484 51.877 91.3484Z" fill="#024D81"/>
<path d="M34.4921 98.5898C34.4921 100.434 34.4921 102.262 34.4921 104.179C32.2226 104.179 29.9871 104.179 27.6877 104.179C27.6877 102.36 27.6877 100.536 27.6877 98.5898C29.9148 98.5898 32.1503 98.5898 34.4921 98.5898Z" fill="#024D81"/>
<path d="M34.4686 89.8525C32.2161 89.8525 29.9975 89.8525 27.7067 89.8525C27.7067 87.974 27.7067 86.1295 27.7067 84.2085C29.9465 84.2085 32.1821 84.2085 34.4686 84.2085C34.4686 86.0911 34.4686 87.9485 34.4686 89.8525Z" fill="#024D81"/>
<path d="M27.683 111.353C27.683 109.568 27.683 107.74 27.683 105.79C29.927 105.79 32.171 105.79 34.466 105.79C34.466 107.566 34.466 109.389 34.466 111.353C32.2135 111.353 29.9736 111.353 27.683 111.353Z" fill="#024D81"/>
<path d="M27.683 147.477C27.683 145.539 27.683 143.717 27.683 141.745C29.927 141.643 32.1666 141.541 34.4616 141.434C34.4616 143.377 34.4616 145.203 34.4616 147.154C32.222 147.265 29.9821 147.372 27.683 147.477Z" fill="#024D81"/>
<path d="M43.1735 127.079C43.1735 128.876 43.1735 130.673 43.1735 132.628C40.9084 132.628 38.6644 132.628 36.3395 132.628C36.3395 130.899 36.3395 129.046 36.3395 127.079C38.575 127.079 40.8234 127.079 43.1735 127.079Z" fill="#024D81"/>
<path d="M27.6782 39.5487C27.6782 37.4876 27.6782 35.6601 27.6782 33.8921C29.9436 33.8921 32.1536 33.8921 34.4401 33.8921C34.4401 35.8896 34.4401 37.7382 34.4401 39.5487C32.2257 39.5487 29.9902 39.5487 27.6782 39.5487Z" fill="#024D81"/>
<path d="M36.311 118.361C36.311 116.538 36.311 114.719 36.311 112.794C38.6019 112.794 40.8501 112.794 43.1536 112.794C43.1536 114.592 43.1536 116.406 43.1536 118.361C40.9011 118.361 38.6614 118.361 36.311 118.361Z" fill="#024D81"/>
<path d="M34.4623 120.111C34.4623 121.884 34.4623 123.708 34.4623 125.709C32.2268 125.709 29.9913 125.709 27.6877 125.709C27.6877 123.968 27.6877 122.117 27.6877 120.111C29.9318 120.111 32.1716 120.111 34.4623 120.111Z" fill="#024D81"/>
<path d="M53.6907 146.782C53.6907 144.88 53.6907 143.059 53.6907 141.184C55.9643 141.184 58.2127 141.184 60.5247 141.184C60.5247 143.071 60.5247 144.89 60.5247 146.782C58.3018 146.782 56.0622 146.782 53.6907 146.782Z" fill="#024D81"/>
<path d="M45.0198 141.191C47.3192 141.191 49.5673 141.191 51.8538 141.191C51.8538 143.044 51.8538 144.863 51.8538 146.772C49.5843 146.772 47.3362 146.772 45.0198 146.772C45.0198 144.982 45.0198 143.163 45.0198 141.191Z" fill="#024D81"/>
<path d="M34.466 132.934C32.1751 132.934 29.9525 132.934 27.683 132.934C27.683 131.159 27.683 129.33 27.683 127.336C29.9311 127.336 32.1751 127.336 34.466 127.336C34.466 129.063 34.466 130.887 34.466 132.934Z" fill="#024D81"/>
<path d="M36.3253 48.4915C38.6245 48.4915 40.8728 48.4915 43.1635 48.4915C43.1635 50.4295 43.1635 52.2526 43.1635 54.1015C40.8813 54.1015 38.6373 54.1015 36.3253 54.1015C36.3253 52.1805 36.3253 50.3571 36.3253 48.4915Z" fill="#024D81"/>
<path d="M27.6735 46.7017C27.6735 44.7084 27.6735 42.9149 27.6735 41.0789C29.9216 41.0789 32.1571 41.0789 34.4565 41.0789C34.4565 43.0552 34.4565 44.8997 34.4565 46.7017C32.1996 46.7017 29.9855 46.7017 27.6735 46.7017Z" fill="#024D81"/>
<path d="M34.4391 68.2659C32.1781 68.2659 29.9809 68.2659 27.7114 68.2659C27.7114 66.3534 27.7114 64.5004 27.7114 62.5879C29.9299 62.5879 32.1441 62.5879 34.4391 62.5879C34.4391 64.5174 34.4391 66.366 34.4391 68.2659Z" fill="#024D81"/>
<path d="M43.1828 98.5139C43.1828 100.358 43.1828 102.152 43.1828 104.06C40.8919 104.06 38.6224 104.06 36.3063 104.06C36.3063 102.237 36.3063 100.418 36.3063 98.5139C38.5884 98.5139 40.8324 98.5139 43.1828 98.5139Z" fill="#024D81"/>
<path d="M36.3301 34.2021C38.6465 34.2021 40.8946 34.2021 43.1685 34.2021C43.1685 36.1698 43.1685 37.9931 43.1685 39.8248C40.8861 39.8248 38.6421 39.8248 36.3301 39.8248C36.3301 37.8656 36.3301 36.0168 36.3301 34.2021Z" fill="#024D81"/>
<path d="M27.7162 112.912C29.9687 112.912 32.1872 112.912 34.4611 112.912C34.4611 114.718 34.4611 116.567 34.4611 118.56C32.2341 118.56 30.0156 118.56 27.7162 118.56C27.7162 116.797 27.7162 114.948 27.7162 112.912Z" fill="#024D81"/>
<path d="M36.311 146.913C36.311 145.14 36.311 143.317 36.311 141.362C38.6019 141.362 40.8501 141.362 43.1536 141.362C43.1536 143.117 43.1536 144.941 43.1536 146.913C40.9011 146.913 38.657 146.913 36.311 146.913Z" fill="#024D81"/>
<path d="M43.182 148.499C43.182 150.303 43.182 152.11 43.182 154.082C40.9125 154.082 38.6685 154.082 36.3395 154.082C36.3395 152.348 36.3395 150.5 36.3395 148.499C38.5964 148.499 40.8445 148.499 43.182 148.499Z" fill="#024D81"/>
<path d="M36.311 139.78C36.311 138 36.311 136.176 36.311 134.214C38.5849 134.214 40.8331 134.214 43.1451 134.214C43.1451 135.982 43.1451 137.801 43.1451 139.78C40.9011 139.78 38.6315 139.78 36.311 139.78Z" fill="#024D81"/>
<path d="M51.8528 55.699C51.8528 57.637 51.8528 59.456 51.8528 61.2964C49.5578 61.2964 47.3096 61.2964 45.0103 61.2964C45.0103 59.3924 45.0103 57.5734 45.0103 55.699C47.2756 55.699 49.5238 55.699 51.8528 55.699Z" fill="#024D81"/>
<path d="M43.1395 61.241C40.87 61.241 38.6474 61.241 36.3395 61.241C36.3395 59.337 36.3395 57.4925 36.3395 55.614C38.575 55.614 40.8234 55.614 43.1395 55.614C43.1395 57.5139 43.1395 59.3329 43.1395 61.241Z" fill="#024D81"/>
<path d="M45.015 84.2039C47.3185 84.2039 49.5625 84.2039 51.8532 84.2039C51.8532 86.0867 51.8532 87.9014 51.8532 89.7714C49.5667 89.7714 47.3227 89.7714 45.015 89.7714C45.015 87.9312 45.015 86.1122 45.015 84.2039Z" fill="#024D81"/>
<path d="M53.7144 148.315C56.0137 148.315 58.2364 148.315 60.5272 148.315C60.5272 150.19 60.5272 152.009 60.5272 153.9C58.2747 153.9 56.0307 153.9 53.7144 153.9C53.7144 152.013 53.7144 150.199 53.7144 148.315Z" fill="#024D81"/>
<path d="M53.6907 25.6474C53.6907 23.8284 53.6907 22.0308 53.6907 20.1394C55.9347 20.1394 58.1872 20.1394 60.5203 20.1394C60.5203 21.9074 60.5203 23.7264 60.5203 25.6474C58.3103 25.6474 56.0622 25.6474 53.6907 25.6474Z" fill="#024D81"/>
<path d="M43.1409 75.4995C40.8501 75.4995 38.6019 75.4995 36.311 75.4995C36.311 73.6166 36.311 71.7891 36.311 69.9021C38.5849 69.9021 40.8331 69.9021 43.1409 69.9021C43.1409 71.7765 43.1409 73.6251 43.1409 75.4995Z" fill="#024D81"/>
<path d="M45.015 112.713C47.3227 112.713 49.5497 112.713 51.8362 112.713C51.8362 114.562 51.8362 116.381 51.8362 118.28C49.5837 118.28 47.3312 118.28 45.015 118.28C45.015 116.461 45.015 114.638 45.015 112.713Z" fill="#024D81"/>
<path d="M154.736 112.862C154.311 108.561 153.189 104.477 151.045 100.694C150.377 99.5169 149.68 98.8242 148.225 98.9643C147.028 99.0792 145.799 98.8837 144.585 98.8283C143.021 98.7562 141.457 98.6839 139.837 98.6074C139.837 96.2232 139.798 93.9493 139.859 91.6798C139.876 90.9743 139.638 90.6387 139.021 90.4517C136.318 89.6398 133.627 88.7558 130.902 88.0163C129.336 87.5913 127.704 87.4002 126.057 87.0942C126.057 86.2867 126.057 85.5513 126.057 84.8162C126.057 82.1853 126.062 82.1982 128.537 81.3227C132.833 79.8053 137.083 78.2031 140.726 75.3088C144.796 72.0702 147.725 67.9861 149.449 63.0432C151.013 58.5807 151.149 53.9356 150.819 49.2647C150.564 45.682 149.76 42.2181 148.099 39.018C146.797 36.5105 144.927 34.4875 142.547 33.017C137.498 29.9016 131.939 29.0645 126.147 29.3916C124.457 29.4895 122.759 29.6041 121.042 29.7105C121.008 29.1281 120.979 28.648 120.955 28.1421C118.689 28.4311 116.53 28.7031 114.332 28.9795C114.332 26.9055 114.332 25.0056 114.332 23.0506C116.564 22.7149 118.762 22.3835 120.962 22.0476C120.962 19.4084 120.962 16.8754 120.962 14.3679C112.942 15.5026 104.961 16.6331 96.9114 17.7721C96.9114 22.6299 96.9114 27.475 96.9114 32.49C91.8753 32.7195 86.8984 32.949 81.8623 33.1785C81.8623 31.1511 81.8623 29.2556 81.8623 27.305C84.0254 27.1775 86.1419 27.0585 88.2329 26.9395C88.2329 24.0366 88.2329 21.2869 88.2329 18.6519C79.5587 19.1364 70.9779 19.6209 62.2993 20.1054C62.2993 24.8101 62.2993 29.4766 62.2993 34.2451C56.4897 34.2451 50.7776 34.2451 45.0103 34.2451C45.0103 36.6676 45.0103 38.9881 45.0103 41.4871C47.2841 41.4871 49.5026 41.4871 51.7338 41.4871C51.7338 43.4846 51.7338 45.2995 51.7338 47.0845C49.4346 47.0845 47.2118 47.0845 45.0273 47.0845C45.0273 49.4645 45.0273 51.7892 45.0273 54.2161C47.9173 54.2161 50.7308 54.2161 53.6803 54.2161C53.6803 61.8872 53.6803 69.4607 53.6803 77.1236C55.9668 77.1236 58.1258 77.1236 60.2892 77.1236C60.2892 79.0021 60.2892 80.7828 60.2892 82.6657C58.0622 82.6657 55.9032 82.6657 53.7017 82.6657C53.7017 85.5982 53.7017 88.4202 53.7017 91.3782C55.9372 91.3782 58.1173 91.3782 60.3188 91.3782C60.3188 93.2652 60.3188 95.0288 60.3188 96.9243C58.0962 96.9243 55.9117 96.9243 53.6167 96.9243C53.6167 104.6 53.6167 112.148 53.6167 119.788C50.6798 119.788 47.8663 119.788 45.0316 119.788C45.0316 124.66 45.0316 129.427 45.0316 134.197C47.2586 134.197 49.4176 134.197 51.7083 134.197C51.7083 136.028 51.7083 137.808 51.7083 139.734C55.3123 139.734 58.7888 139.734 62.3843 139.734C62.3843 144.579 62.3843 149.276 62.3843 153.941C68.2452 154.206 73.9784 154.466 79.8604 154.723C79.8604 152.887 79.8604 151.107 79.8604 149.254C82.1554 149.458 84.3059 149.645 86.5669 149.844C86.5669 146.784 86.5669 143.824 86.5669 140.747C90.0859 141.019 93.4818 141.281 96.9709 141.553C96.9709 146.527 96.9709 151.396 96.9709 156.195C105.029 157.334 112.989 158.461 121.035 159.6C121.035 154.49 121.035 149.417 121.035 144.244C122.475 144.346 123.755 144.438 125.03 144.533C129.445 144.846 133.824 144.788 138.144 143.61C146.117 141.444 151.538 136.628 153.716 128.361C155.064 123.283 155.251 118.094 154.736 112.862ZM139.91 41.9971C142.035 41.6785 144.194 41.3596 146.474 41.0196C146.474 43.2595 146.474 45.4227 146.474 47.7007C144.32 47.9685 142.154 48.2405 139.91 48.521C139.91 46.3407 139.91 44.2285 139.91 41.9971ZM139.883 58.6871C142.071 58.4787 144.218 58.2747 146.445 58.0622C146.445 60.2766 146.445 62.4567 146.445 64.7561C144.296 64.9006 142.122 65.0492 139.883 65.1981C139.883 62.9371 139.883 60.8417 139.883 58.6871ZM71.1267 40.8795C73.4132 40.7646 75.6232 40.6585 77.8927 40.548C77.8927 42.486 77.8927 44.305 77.8927 46.226C75.6274 46.328 73.4132 46.4342 71.1267 46.5362C71.1267 44.6322 71.1267 42.8131 71.1267 40.8795ZM75.2364 62.8817C75.2364 64.6796 75.2364 66.4602 75.2364 68.3261C73.0392 68.3261 70.8249 68.3261 68.5342 68.3261C68.5342 66.5537 68.5342 64.7731 68.5342 62.8817C70.7739 62.8817 72.9669 62.8817 75.2364 62.8817ZM62.5203 41.1386C64.7558 41.1386 66.9403 41.1386 69.1887 41.1386C69.1887 42.8685 69.1887 44.6875 69.1887 46.651C66.9658 46.651 64.7772 46.651 62.5203 46.651C62.5203 44.934 62.5203 43.115 62.5203 41.1386ZM58.8398 61.2412C58.8398 59.3926 58.8398 57.5991 58.8398 55.7502C61.0668 55.7502 63.2853 55.7502 65.5718 55.7502C65.5718 57.6076 65.5718 59.3926 65.5718 61.2412C63.2812 61.2412 61.0838 61.2412 58.8398 61.2412ZM60.5527 132.616C58.3128 132.616 56.1028 132.616 53.8292 132.616C53.8292 130.86 53.8292 129.041 53.8292 127.108C56.0603 127.108 58.2492 127.108 60.5527 127.108C60.5527 128.898 60.5527 130.685 60.5527 132.616ZM67.4887 118.251C65.2233 118.251 63.0092 118.251 60.7353 118.251C60.7353 116.462 60.7353 114.672 60.7353 112.794C62.9667 112.794 65.1767 112.794 67.4887 112.794C67.4887 114.604 67.4887 116.394 67.4887 118.251ZM67.4928 111.102C65.2403 111.102 63.0262 111.102 60.7438 111.102C60.7438 109.326 60.7438 107.541 60.7438 105.649C62.9837 105.649 65.1937 105.649 67.4928 105.649C67.4928 107.477 67.4928 109.241 67.4928 111.102ZM67.7097 84.2253C69.9238 84.2253 72.1339 84.2253 74.3949 84.2253C74.3949 86.0572 74.3949 87.8803 74.3949 89.7632C72.1849 89.7632 70.0003 89.7632 67.7097 89.7632C67.7097 87.9058 67.7097 86.1082 67.7097 84.2253ZM77.9182 146.738C75.6742 146.738 73.4344 146.738 71.1394 146.738C71.1394 144.895 71.1394 143.134 71.1394 141.286C73.3834 141.286 75.6189 141.286 77.9182 141.286C77.9182 143.093 77.9182 144.885 77.9182 146.738ZM83.7789 50.8797C84.3528 50.8415 102.547 49.9235 104.74 49.864C118.932 49.4985 118.548 55.6992 118.65 60.2127C118.837 68.4961 115.442 75.9463 98.3778 77.2851C97.7998 77.3276 83.9788 77.9183 83.7789 77.9183C83.7789 68.8786 83.7789 59.9196 83.7789 50.8797ZM95.4154 133.444C94.2978 133.393 89.8564 133.182 88.7218 133.131C88.7218 131.273 88.7218 129.425 88.7218 127.669C90.9359 127.669 93.1503 127.669 95.4154 127.669C95.4154 129.665 95.4154 131.494 95.4154 133.444ZM112.679 134.695C111.021 134.566 106.559 134.209 105.989 134.168C105.989 132.259 105.989 130.384 105.989 128.388C107.689 128.509 109.343 128.626 111.009 128.74C111.566 128.781 112.122 128.815 112.679 128.859C112.679 130.809 112.679 132.689 112.679 134.695ZM122.016 116.683C121.603 118.259 120.445 124.172 106.746 124.155C103.393 124.15 84.2593 123.351 83.7704 123.351C83.7704 114.226 83.7704 105.335 83.7704 96.3082C84.1954 96.3082 96.3548 96.5717 98.3734 96.6822C119.721 97.8338 120.236 102.02 122.402 109.81C123.029 112.046 122.611 114.422 122.016 116.683ZM146.472 124.444C144.274 124.184 142.127 123.929 139.912 123.664C139.912 121.522 139.912 119.402 139.912 117.133C142.069 117.346 144.235 117.554 146.472 117.771C146.472 120.053 146.472 122.207 146.472 124.444Z" fill="#024D81"/>
</svg>
