<svg width="174" height="174" viewBox="0 0 174 174" fill="none" xmlns="http://www.w3.org/2000/svg">
<path d="M81.5952 43.951V35.9411C80.6213 35.5759 79.6767 35.1366 78.7698 34.6272C75.2188 32.5195 72.5443 29.2047 71.2347 25.2885C69.9248 21.3722 70.0673 17.1156 71.6357 13.2957C72.5072 11.2126 73.7738 9.31767 75.3653 7.71551C76.9518 6.12874 78.833 4.86674 80.9031 4.00011C82.9889 3.13264 85.2271 2.6909 87.486 2.7006C90.88 2.69996 94.1977 3.70653 97.0193 5.59258C99.8406 7.47862 102.039 10.1594 103.336 13.2957C105.069 17.4891 105.069 22.198 103.336 26.3914C102.473 28.4749 101.206 30.3666 99.6069 31.9572L99.5222 32.0421C98.5161 33.0314 97.397 33.8991 96.1883 34.6272C95.2917 35.1567 94.3454 35.5967 93.3629 35.9411V43.951H133.596C139.371 43.9696 144.903 46.2725 148.983 50.3567C153.066 54.4409 155.365 59.9745 155.38 65.7486V68.9837H162.838C165.797 68.9949 168.632 70.1763 170.723 72.2698C172.813 74.3634 173.991 77.1991 174 80.1581V106.109C173.991 109.068 172.813 111.904 170.723 113.997C168.632 116.091 165.797 117.273 162.838 117.284H155.422V120.207C155.403 125.988 153.097 131.526 149.006 135.611C144.918 139.695 139.377 141.995 133.596 142.005H78.4024L45.3175 170.415C44.9527 170.727 44.5295 170.965 44.0726 171.115C43.6154 171.264 43.1332 171.321 42.654 171.283C42.1747 171.245 41.7077 171.113 41.2798 170.893C40.852 170.674 40.4718 170.371 40.1612 170.004C39.5399 169.281 39.221 168.345 39.2711 167.391L41.0371 141.963H40.7403C34.9736 141.948 29.4474 139.651 25.3685 135.575C21.2895 131.499 18.9895 125.975 18.9708 120.207V117.284H11.5543C8.5928 117.275 5.75498 116.097 3.66092 114.002C1.56707 111.908 0.387259 109.07 0.379883 106.109V80.1581C0.387259 77.1991 1.56517 74.3634 3.65607 72.2698C5.74697 70.1763 8.5812 68.9949 11.5402 68.9837H18.9708V65.7345C18.982 59.9632 21.2788 54.431 25.3586 50.3485C29.4382 46.2662 34.9688 43.9658 40.7403 43.951H81.5952ZM117.265 69.5487C119.88 69.5487 122.437 70.3243 124.612 71.7772C126.787 73.2302 128.481 75.2954 129.482 77.7115C130.483 80.1276 130.745 82.7862 130.234 85.3511C129.724 87.9162 128.464 90.2723 126.616 92.1214C124.765 93.9706 122.409 95.2301 119.844 95.7403C117.279 96.2503 114.622 95.9886 112.205 94.9877C109.789 93.987 107.724 92.2921 106.271 90.1178C104.818 87.9432 104.043 85.3867 104.043 82.7715C104.043 79.2647 105.436 75.9015 107.916 73.4218C110.395 70.942 113.758 69.5487 117.265 69.5487ZM57.1132 69.5487C59.7285 69.5487 62.285 70.3243 64.4595 71.7772C66.6339 73.2302 68.3288 75.2954 69.3296 77.7115C70.3303 80.1276 70.5923 82.7862 70.082 85.3511C69.5718 87.9162 68.3125 90.2723 66.4632 92.1214C64.614 93.9706 62.258 95.2301 59.6929 95.7403C57.128 96.2503 54.4693 95.9886 52.0532 94.9877C49.6371 93.987 47.5719 92.2921 46.119 90.1178C44.666 87.9432 43.8907 85.3867 43.8907 82.7715C43.8907 79.2647 45.2838 75.9015 47.7635 73.4218C50.2433 70.942 53.6065 69.5487 57.1132 69.5487ZM66.1262 113.851C65.9268 113.693 65.7466 113.513 65.5894 113.314C65.1316 112.776 64.8724 112.098 64.8549 111.393C64.842 110.683 65.0714 109.991 65.5047 109.429C65.6665 109.225 65.8514 109.04 66.0556 108.878C66.8326 108.266 67.7882 107.923 68.7773 107.903C69.7663 107.883 70.7352 108.185 71.5369 108.765C73.9511 110.67 76.6304 112.212 79.4904 113.342C81.9543 114.295 84.5759 114.774 87.2177 114.755C89.8926 114.698 92.5367 114.172 95.0297 113.201C97.9236 112.044 100.654 110.515 103.153 108.652C103.973 108.093 104.952 107.816 105.943 107.861C106.934 107.907 107.883 108.274 108.648 108.906C108.84 109.083 109.015 109.277 109.171 109.486C109.586 110.059 109.795 110.756 109.764 111.463C109.704 112.171 109.417 112.84 108.945 113.37C108.765 113.574 108.561 113.754 108.337 113.907C105.16 116.255 101.676 118.156 97.9824 119.558C94.5798 120.841 90.9807 121.524 87.3448 121.579C83.7046 121.629 80.0855 121.016 76.665 119.771C72.8948 118.359 69.3642 116.377 66.197 113.893L66.1262 113.851ZM133.581 51.2969H40.7403C36.9134 51.3119 33.2476 52.8396 30.5429 55.547C27.8381 58.2546 26.3139 61.9217 26.3027 65.7486V120.207C26.3139 124.034 27.8381 127.701 30.5429 130.409C33.2476 133.118 36.9134 134.644 40.7403 134.66H45.2184C46.1871 134.732 47.0878 135.183 47.7252 135.917C48.3627 136.648 48.6854 137.603 48.6232 138.572L47.2105 159.169L74.4752 135.706C74.8143 135.366 75.2175 135.097 75.6614 134.915C76.1052 134.734 76.5809 134.641 77.0603 134.646H133.569C137.394 134.631 141.061 133.103 143.765 130.395C146.471 127.689 147.995 124.022 148.005 120.194V65.7345C147.999 61.9101 146.477 58.2444 143.773 55.5388C141.072 52.8333 137.406 51.3081 133.581 51.2969Z" fill="#024D81"/>
</svg>
