<svg width="174" height="174" viewBox="0 0 174 174" fill="none" xmlns="http://www.w3.org/2000/svg">
<path d="M154.665 10H19.3354C8.64676 10 0 18.6273 0 29.2523V115.878C0 126.503 8.64676 135.13 19.3354 135.13H77.3414V154.383H38.6707V164H135.329V154.383H96.659V135.13H154.665C165.335 135.13 174 126.521 174 115.878V29.2523C174 18.6273 165.353 10 154.665 10ZM39.0968 95.4241H29.296V47.3023H39.0968V95.4241ZM93.4809 89.0067C89.3972 93.285 83.8221 95.4241 76.72 95.4241C69.6002 95.4241 64.0251 93.2496 59.9592 88.9183C55.911 84.587 53.8869 78.7353 53.8869 71.3632C53.8869 63.9381 55.911 58.0687 59.9592 53.7551C64.0073 49.4415 69.6002 47.2847 76.72 47.2847C83.8221 47.2847 89.3972 49.4238 93.4809 53.7197C97.5646 58.0157 99.5886 63.8851 99.5886 71.3632C99.6064 78.859 97.5646 84.7284 93.4809 89.0067ZM149.835 56.8312H134.548V95.4241H124.144V56.8312H105.217L105.27 47.3023H149.835V56.8312ZM77.1994 58.2809C80.9635 58.2809 66.1557 55.5583 66.1557 71.7875C66.1557 70.3732 64.8418 85.2588 77.1994 85.2588C73.7371 85.2588 88.2076 87.6808 88.2076 71.7521C88.2076 73.2548 89.4682 58.2809 77.1994 58.2809Z" fill="#024D81"/>
</svg>
