<svg width="174" height="174" viewBox="0 0 174 174" fill="none" xmlns="http://www.w3.org/2000/svg">
<path fill-rule="evenodd" clip-rule="evenodd" d="M83.9996 17.484V25.266L62.1177 37.902L54.8399 25.3019C57.2519 22.482 57.7498 18.3419 55.7938 14.9521C53.3099 10.6502 47.802 9.17399 43.4999 11.6582C39.198 14.1421 37.7221 19.65 40.206 23.9522C42.1619 27.342 46.0019 28.974 49.6438 28.302L56.922 40.9018L35.0401 53.5378L28.302 49.6438C28.974 46.0019 27.342 42.1619 23.9522 40.206C19.65 37.7221 14.1421 39.198 11.6582 43.4999C9.17399 47.802 10.6502 53.3099 14.9521 55.7938C18.3419 57.7498 22.482 57.2519 25.3019 54.8399L32.04 58.7339V83.9996H17.484C16.2481 80.5077 12.918 77.9999 9.00009 77.9999C4.03198 77.9999 0 82.0316 0 86.9997C0 91.9678 4.03198 95.9995 9.00009 95.9995C12.918 95.9995 16.2481 93.4918 17.484 89.9999H32.04V115.266L25.3019 119.16C22.482 116.748 18.3419 116.25 14.9521 118.206C10.6502 120.69 9.17399 126.198 11.6582 130.498C14.1421 134.802 19.65 136.278 23.9522 133.793C27.342 131.837 28.974 127.997 28.302 124.355L35.0401 120.462L56.922 133.099L49.6438 145.697C46.0019 145.025 42.1619 146.657 40.206 150.047C37.7221 154.35 39.198 159.858 43.4999 162.34C47.802 164.825 53.3099 163.35 55.7938 159.046C57.7498 155.659 57.2519 151.517 54.8399 148.697L62.1177 136.097L83.9996 148.733V156.514C80.5077 157.751 77.9999 161.081 77.9999 165.001C77.9999 169.968 82.0316 174 86.9997 174C91.9678 174 95.9995 169.968 95.9995 165.001C95.9995 161.081 93.4918 157.751 89.9999 156.514V148.733L111.882 136.097L119.16 148.697C116.748 151.517 116.25 155.659 118.206 159.046C120.69 163.35 126.198 164.825 130.498 162.34C134.802 159.858 136.278 154.35 133.793 150.047C131.837 146.657 127.997 145.025 124.355 145.697L117.077 133.099L138.96 120.462L145.697 124.355C145.025 127.997 146.657 131.837 150.047 133.793C154.35 136.278 159.858 134.802 162.34 130.498C164.825 126.198 163.35 120.69 159.046 118.206C155.659 116.25 151.517 116.748 148.697 119.16L141.958 115.266V89.9999H156.514C157.751 93.4918 161.081 95.9995 165.001 95.9995C169.968 95.9995 174 91.9678 174 86.9997C174 82.0316 169.968 77.9999 165.001 77.9999C161.081 77.9999 157.751 80.5077 156.514 83.9996H141.958V58.7339L148.697 54.8399C151.517 57.2519 155.659 57.7498 159.046 55.7938C163.35 53.3099 164.825 47.802 162.34 43.4999C159.858 39.198 154.35 37.7221 150.047 40.206C146.657 42.1619 145.025 46.0019 145.697 49.6438L138.96 53.5378L117.077 40.9018L124.355 28.302C127.997 28.974 131.837 27.342 133.793 23.9522C136.278 19.65 134.802 14.1421 130.498 11.6582C126.198 9.17399 120.69 10.6502 118.206 14.9521C116.25 18.3419 116.748 22.482 119.16 25.3019L111.882 37.902L89.9999 25.266V17.484C93.4918 16.2481 95.9995 12.918 95.9995 9.00009C95.9995 4.03198 91.9678 0 86.9997 0C82.0316 0 77.9999 4.03198 77.9999 9.00009C77.9999 12.918 80.5077 16.2481 83.9996 17.484ZM86.9997 167.999C85.3439 167.999 83.9996 166.655 83.9996 165.001C83.9996 163.344 85.3439 162 86.9997 162C88.6556 162 89.9999 163.344 89.9999 165.001C89.9999 166.655 88.6556 167.999 86.9997 167.999ZM128.598 153.047C129.426 154.482 128.932 156.317 127.501 157.145C126.066 157.974 124.228 157.483 123.403 156.048C122.574 154.614 123.065 152.779 124.5 151.95C125.934 151.122 127.769 151.613 128.598 153.047ZM45.402 153.047C46.2298 151.613 48.0659 151.122 49.4998 151.95C50.9338 152.779 51.4259 154.614 50.5978 156.048C49.77 157.483 47.9339 157.974 46.5 157.145C45.066 156.317 44.574 154.482 45.402 153.047ZM86.9997 30.462L135.959 58.7339V115.266L86.9997 143.538L38.04 115.266V58.7339L86.9997 30.462ZM88.4998 36.4019C87.5697 35.8679 86.4298 35.8679 85.4997 36.4019L43.9319 60.4018C43.002 60.9359 42.4318 61.9257 42.4318 62.9998V111C42.4318 112.074 43.002 113.064 43.9319 113.598L85.4997 137.597C86.4298 138.132 87.5697 138.132 88.4998 137.597L130.068 113.598C130.998 113.064 131.568 112.074 131.568 111V62.9998C131.568 61.9257 130.998 60.9359 130.068 60.4018L88.4998 36.4019ZM157.145 127.501C156.317 128.932 154.482 129.426 153.047 128.598C151.613 127.769 151.122 125.934 151.95 124.5C152.779 123.065 154.614 122.574 156.048 123.403C157.483 124.228 157.974 126.066 157.145 127.501ZM16.854 127.501C16.0262 126.066 16.518 124.228 17.9522 123.403C19.3862 122.574 21.2219 123.065 22.05 124.5C22.8781 125.934 22.386 127.769 20.952 128.598C19.5181 129.426 17.682 128.932 16.854 127.501ZM59.9997 98.9997V87.7077L66.3179 100.344C66.9358 101.586 68.3339 102.24 69.6899 101.922C71.0457 101.598 71.9996 100.392 71.9996 98.9997V74.9998C71.9996 73.3439 70.6557 71.9996 68.9998 71.9996C67.344 71.9996 66 73.3439 66 74.9998V86.2918L59.6818 73.6558C59.0639 72.4138 57.6658 71.7597 56.3098 72.0778C54.954 72.4018 54 73.6078 54 74.9998V98.9997C54 100.656 55.344 102 56.9999 102C58.6557 102 59.9997 100.656 59.9997 98.9997ZM107.999 77.9999V98.9997C107.999 100.656 109.344 102 111 102C112.655 102 114 100.656 114 98.9997V77.9999H117C118.655 77.9999 119.999 76.6556 119.999 74.9998C119.999 73.3439 118.655 71.9996 117 71.9996H105C103.344 71.9996 102 73.3439 102 74.9998C102 76.6556 103.344 77.9999 105 77.9999H107.999ZM83.9996 89.9999H86.9997C88.6556 89.9999 89.9999 88.6556 89.9999 86.9997C89.9999 85.3439 88.6556 83.9996 86.9997 83.9996H83.9996V77.9999H92.9997C94.6555 77.9999 95.9995 76.6556 95.9995 74.9998C95.9995 73.3439 94.6555 71.9996 92.9997 71.9996H80.9998C79.3439 71.9996 77.9999 73.3439 77.9999 74.9998V98.9997C77.9999 100.656 79.3439 102 80.9998 102C82.6556 102 83.9996 100.656 83.9996 98.9997V89.9999ZM9.00009 83.9996C10.6559 83.9996 11.9999 85.3439 11.9999 86.9997C11.9999 88.6556 10.6559 89.9999 9.00009 89.9999C7.34424 89.9999 6.00024 88.6556 6.00024 86.9997C6.00024 85.3439 7.34424 83.9996 9.00009 83.9996ZM165.001 83.9996C166.655 83.9996 167.999 85.3439 167.999 86.9997C167.999 88.6556 166.655 89.9999 165.001 89.9999C163.344 89.9999 162 88.6556 162 86.9997C162 85.3439 163.344 83.9996 165.001 83.9996ZM16.854 46.5C17.682 45.066 19.5181 44.574 20.952 45.402C22.386 46.2298 22.8781 48.0659 22.05 49.4998C21.2219 50.9338 19.3862 51.4259 17.9522 50.5978C16.518 49.77 16.0262 47.9339 16.854 46.5ZM157.145 46.5C157.974 47.9339 157.483 49.77 156.048 50.5978C154.614 51.4259 152.779 50.9338 151.95 49.4998C151.122 48.0659 151.613 46.2298 153.047 45.402C154.482 44.574 156.317 45.066 157.145 46.5ZM50.5978 17.9522C51.4259 19.3862 50.9338 21.2219 49.4998 22.05C48.0659 22.8781 46.2298 22.386 45.402 20.952C44.574 19.5181 45.066 17.682 46.5 16.854C47.9339 16.0262 49.77 16.518 50.5978 17.9522ZM123.403 17.9522C124.228 16.518 126.066 16.0262 127.501 16.854C128.932 17.682 129.426 19.5181 128.598 20.952C127.769 22.386 125.934 22.8781 124.5 22.05C123.065 21.2219 122.574 19.3862 123.403 17.9522ZM86.9997 6.00024C88.6556 6.00024 89.9999 7.34424 89.9999 9.00009C89.9999 10.6559 88.6556 11.9999 86.9997 11.9999C85.3439 11.9999 83.9996 10.6559 83.9996 9.00009C83.9996 7.34424 85.3439 6.00024 86.9997 6.00024Z" fill="#024D81"/>
</svg>
