<svg width="174" height="174" viewBox="0 0 174 174" fill="none" xmlns="http://www.w3.org/2000/svg">
<path d="M131.218 2.43701L120.015 21.855L131.218 2.43701ZM42.7815 2.43701L53.9915 21.855L42.7815 2.43701Z" stroke="#A4C639" stroke-width="3" stroke-linecap="round" stroke-linejoin="round"/>
<path d="M135.245 49.923C135.28 50.3237 135.295 50.7348 135.295 51.1459V120.21C135.295 127.637 129.422 133.623 122.116 133.623H121.595V160.932C121.595 162.326 121.319 163.708 120.786 164.998C120.25 166.286 119.468 167.458 118.482 168.445C117.495 169.432 116.323 170.215 115.034 170.748C113.745 171.283 112.363 171.557 110.968 171.557C109.572 171.557 108.19 171.283 106.901 170.748C105.612 170.215 104.441 169.432 103.454 168.445C102.467 167.458 101.684 166.286 101.15 164.998C100.616 163.708 100.342 162.326 100.342 160.932V133.641H73.6551V160.932C73.6048 163.715 72.4635 166.37 70.4764 168.322C68.4893 170.274 65.8158 171.367 63.0307 171.367C60.2456 171.367 57.5717 170.274 55.5849 168.322C53.5978 166.37 52.4563 163.715 52.4062 160.932V133.641H51.8846C44.5851 133.641 38.7055 127.657 38.7055 120.227V51.1459C38.7055 50.7348 38.7366 50.3272 38.7746 49.923H135.245ZM21.6296 56.0721C20.2345 56.0711 18.8532 56.345 17.5639 56.878C16.2748 57.411 15.1033 58.1927 14.1162 59.1785C13.1292 60.1643 12.3458 61.3349 11.8113 62.6234C11.2766 63.9117 11.001 65.293 11 66.6879V112.288C11 115.106 12.1195 117.809 14.1123 119.803C16.1051 121.794 18.808 122.914 21.6262 122.914C24.4444 122.914 27.1473 121.794 29.1401 119.803C31.1328 117.809 32.2524 115.106 32.2524 112.288V66.6879C32.2504 63.8717 31.1306 61.1718 29.1386 59.1809C27.1466 57.1904 24.4458 56.0721 21.6296 56.0721ZM152.37 56.0721C149.552 56.0731 146.85 57.1929 144.859 59.1856C142.867 61.1784 141.747 63.8806 141.747 66.6983V112.298C141.747 115.117 142.867 117.819 144.859 119.813C146.853 121.804 149.554 122.924 152.375 122.924C155.193 122.924 157.895 121.804 159.889 119.813C161.88 117.819 163 115.117 163 112.298V66.6983C163 64.5974 162.376 62.5435 161.209 60.7967C160.042 59.0497 158.383 57.6881 156.441 56.8842C154.502 56.0803 152.365 55.8698 150.305 56.2796C148.244 56.6895 146.352 57.7012 144.866 59.1869C143.381 60.6726 142.369 62.5654 141.959 64.6258C141.55 66.6865 141.76 68.8223 142.564 70.7636C143.368 72.7045 144.728 74.3634 146.475 75.5308C148.222 76.698 150.277 77.321 152.377 77.321L152.37 56.0721ZM134.917 45.3872H39.0786C39.3757 24.1728 57.892 6.77572 81.6593 4.48535H92.3373C116.108 6.77917 134.623 24.1728 134.917 45.3872ZM72.7362 26.3457C72.7325 24.8872 72.1497 23.4898 71.1155 22.4608C70.0816 21.4321 68.6813 20.8562 67.2228 20.8599C65.7642 20.8636 64.3668 21.4464 63.3379 22.4806C62.3092 23.5145 61.7332 24.9148 61.7369 26.3734V26.4045C61.7411 27.863 62.3245 29.2604 63.3586 30.2888C64.393 31.3173 65.7936 31.8927 67.2521 31.8885C68.7107 31.8843 70.1078 31.301 71.1363 30.2669C72.1647 29.2325 72.7404 27.8319 72.7362 26.3734V26.3457ZM113.773 26.3457C113.769 24.8872 113.186 23.4898 112.152 22.4608C111.118 21.4321 109.718 20.8562 108.259 20.8599C106.801 20.8636 105.403 21.4464 104.374 22.4806C103.346 23.5145 102.77 24.9148 102.774 26.3734V26.4045C102.778 27.863 103.361 29.2604 104.395 30.2888C105.43 31.3173 106.83 31.8927 108.289 31.8885C109.747 31.8843 111.144 31.301 112.173 30.2669C113.201 29.2325 113.777 27.8319 113.773 26.3734V26.3457Z" fill="url(#paint0_linear_1878_1704)"/>
<defs>
<linearGradient id="paint0_linear_1878_1704" x1="43.6248" y1="161.682" x2="128.608" y2="20.2415" gradientUnits="userSpaceOnUse">
<stop stop-color="#A4C639"/>
<stop offset="1" stop-color="#D0DB3A"/>
</linearGradient>
</defs>
</svg>
