<svg width="174" height="174" viewBox="0 0 174 174" fill="none" xmlns="http://www.w3.org/2000/svg">
<path d="M49.2221 72.2421C49.2221 74.367 49.4519 76.09 49.8539 77.3534C50.3132 78.6169 50.8876 79.9952 51.6916 81.4883C51.9788 81.9479 52.0937 82.4074 52.0937 82.8093C52.0937 83.3836 51.7491 83.9578 51.0024 84.5323L47.3844 86.9442C46.8675 87.2888 46.3506 87.4611 45.8911 87.4611C45.3168 87.4611 44.7426 87.1741 44.1683 86.6572C43.3642 85.7957 42.675 84.8769 42.1008 83.9578C41.5265 82.9816 40.9521 81.8905 40.3204 80.5695C35.8407 85.8531 30.2126 88.4949 23.4358 88.4949C18.6116 88.4949 14.7639 87.1165 11.9498 84.36C9.13569 81.6033 7.69995 77.9277 7.69995 73.3333C7.69995 68.4516 9.42272 64.489 12.926 61.5026C16.4293 58.5162 21.0813 57.0231 26.9965 57.0231C28.9491 57.0231 30.9593 57.1954 33.0842 57.4824C35.2091 57.7697 37.3914 58.229 39.6886 58.7459V54.5536C39.6886 50.1888 38.7698 47.1449 36.9894 45.3646C35.1516 43.5842 32.0504 42.7228 27.6283 42.7228C25.6181 42.7228 23.5508 42.9526 21.4257 43.4695C19.3007 43.9864 17.2334 44.618 15.2232 45.4221C14.3044 45.8241 13.6152 46.0537 13.2132 46.1687C12.8113 46.2836 12.524 46.341 12.2944 46.341C11.4903 46.341 11.0883 45.7667 11.0883 44.5607V41.7466C11.0883 40.8277 11.203 40.1385 11.4903 39.7364C11.7775 39.3344 12.2944 38.9325 13.0983 38.5305C15.1085 37.4967 17.5204 36.6352 20.3345 35.9461C23.1486 35.1995 26.135 34.8549 29.2937 34.8549C36.128 34.8549 41.1244 36.4054 44.3406 39.5067C47.4993 42.608 49.1073 47.3172 49.1073 53.6346V72.2421H49.2221ZM25.9054 80.9716C27.8006 80.9716 29.7532 80.6271 31.8206 79.9379C33.8881 79.2487 35.726 77.9852 37.2765 76.2623C38.1955 75.1711 38.8847 73.9651 39.2293 72.5867C39.5739 71.2084 39.8036 69.5429 39.8036 67.5903V65.1782C38.138 64.7762 36.3576 64.4316 34.5199 64.2018C32.6821 63.9721 30.9017 63.8572 29.1214 63.8572C25.2735 63.8572 22.4594 64.6039 20.5644 66.1544C18.6691 67.7051 17.7503 69.8875 17.7503 72.759C17.7503 75.4582 18.4395 77.4684 19.8752 78.8465C21.2534 80.2825 23.2635 80.9716 25.9054 80.9716ZM72.0221 87.1741C70.9883 87.1741 70.2991 87.0018 69.8396 86.5996C69.3803 86.2552 68.9781 85.4511 68.6337 84.36L55.1375 39.9662C54.7929 38.8175 54.6206 38.071 54.6206 37.669C54.6206 36.75 55.0801 36.2331 55.999 36.2331H61.6272C62.7183 36.2331 63.4649 36.4054 63.8668 36.8075C64.3263 37.1521 64.6709 37.9561 65.0155 39.0472L74.6639 77.0662L83.6231 39.0472C83.9101 37.8987 84.2547 37.1521 84.7142 36.8075C85.1735 36.4629 85.9776 36.2331 87.0114 36.2331H91.6058C92.697 36.2331 93.4435 36.4054 93.9031 36.8075C94.3626 37.1521 94.7645 37.9561 94.9942 39.0472L104.068 77.5257L114.003 39.0472C114.348 37.8987 114.751 37.1521 115.152 36.8075C115.612 36.4629 116.358 36.2331 117.392 36.2331H122.733C123.651 36.2331 124.168 36.6926 124.168 37.669C124.168 37.956 124.112 38.2433 124.055 38.5879C123.996 38.9325 123.883 39.3918 123.651 40.0236L109.811 84.4174C109.467 85.5661 109.065 86.3126 108.605 86.6572C108.146 87.0018 107.399 87.2315 106.423 87.2315H101.484C100.393 87.2315 99.6462 87.0592 99.1867 86.6572C98.7271 86.2553 98.3252 85.5085 98.0955 84.36L89.1937 47.3172L80.3494 84.3024C80.0622 85.4511 79.7176 86.1977 79.2583 86.5996C78.7988 87.0018 77.9949 87.1741 76.9611 87.1741H72.0221ZM145.821 88.7248C142.833 88.7248 139.847 88.3802 136.975 87.691C134.105 87.0018 131.865 86.2553 130.371 85.3938C129.453 84.8769 128.82 84.3024 128.591 83.7858C128.362 83.2689 128.247 82.6944 128.247 82.1775V79.2487C128.247 78.0426 128.707 77.4684 129.568 77.4684C129.913 77.4684 130.257 77.5257 130.602 77.6407C130.947 77.7554 131.464 77.9853 132.037 78.2149C133.989 79.0764 136.114 79.7656 138.353 80.2249C140.652 80.6844 142.892 80.9141 145.188 80.9141C148.807 80.9141 151.62 80.2825 153.574 79.0188C155.526 77.7554 156.56 75.9177 156.56 73.5629C156.56 71.9549 156.043 70.6341 155.009 69.5429C153.976 68.4516 152.024 67.4754 149.208 66.5566L140.881 63.9721C136.689 62.6511 133.588 60.6985 131.693 58.1143C129.797 55.5872 128.82 52.7731 128.82 49.7867C128.82 47.3747 129.337 45.2498 130.371 43.4119C131.405 41.5743 132.783 39.9662 134.506 38.7028C136.229 37.3818 138.181 36.4054 140.48 35.7164C142.776 35.0272 145.188 34.74 147.716 34.74C148.979 34.74 150.301 34.7974 151.563 34.9696C152.885 35.1419 154.091 35.3718 155.297 35.6015C156.444 35.8887 157.537 36.1757 158.571 36.5203C159.603 36.8649 160.407 37.2095 160.981 37.5541C161.786 38.0136 162.359 38.4729 162.704 38.9898C163.048 39.4493 163.221 40.081 163.221 40.8851V43.5842C163.221 44.7903 162.763 45.4221 161.901 45.4221C161.441 45.4221 160.695 45.1923 159.718 44.7329C156.444 43.2396 152.769 42.4931 148.691 42.4931C145.418 42.4931 142.833 43.01 141.053 44.1011C139.274 45.1923 138.353 46.8579 138.353 49.2124C138.353 50.8205 138.929 52.1988 140.076 53.29C141.226 54.3813 143.35 55.4725 146.395 56.4487L154.549 59.0331C158.684 60.3539 161.67 62.1918 163.452 64.5464C165.232 66.9012 166.093 69.6003 166.093 72.5867C166.093 75.0562 165.576 77.2961 164.599 79.2487C163.565 81.2013 162.187 82.9243 160.407 84.3024C158.628 85.7384 156.503 86.772 154.032 87.5187C151.448 88.3226 148.75 88.7248 145.821 88.7248Z" fill="#252F3E"/>
<path fill-rule="evenodd" clip-rule="evenodd" d="M156.674 116.635C137.78 130.591 110.328 138 86.7242 138C53.6442 138 23.8378 125.767 1.32504 105.437C-0.45529 103.829 1.15274 101.646 3.27765 102.91C27.6283 117.039 57.6644 125.595 88.7342 125.595C109.696 125.595 132.727 121.23 153.917 112.271C157.077 110.835 159.775 114.339 156.674 116.635Z" fill="#FF9900"/>
<path fill-rule="evenodd" clip-rule="evenodd" d="M164.543 107.676C162.13 104.575 148.578 106.183 142.432 106.93C140.593 107.159 140.308 105.551 141.972 104.345C152.77 96.7645 170.514 98.947 172.582 101.474C174.649 104.058 172.008 121.804 161.901 130.303C160.351 131.625 158.857 130.936 159.546 129.213C161.843 123.527 166.955 110.72 164.543 107.676Z" fill="#FF9900"/>
</svg>
