<svg width="174" height="174" viewBox="0 0 174 174" fill="none" xmlns="http://www.w3.org/2000/svg">
<path d="M120.202 17.8169C118.568 22.7566 116.033 27.3508 112.725 31.3661C109.357 35.4142 105.162 38.6938 100.42 40.9841C96.0303 43.0774 91.2162 44.205 86.4262 43.8326L84.9606 43.7188L84.7674 42.2566C84.1432 37.5494 84.864 32.7869 86.3779 28.3763C88.0817 23.4833 90.6839 18.9512 94.0509 15.0132C97.4112 11.1858 101.473 8.03683 106.017 5.73666C110.58 3.3951 115.484 1.92603 119.945 1.7467L121.633 1.67773L121.832 3.36062C122.327 8.23931 121.776 13.1673 120.219 17.8169H120.202Z" fill="#424242"/>
<path d="M151.211 62.0889C149.593 63.089 133.969 72.7586 134.161 92.2532C134.365 115.751 154.29 123.901 155.389 124.349L155.438 124.369L157 125.014L156.465 126.615C156.436 126.711 156.465 126.615 156.424 126.758C153.675 135.288 149.724 143.385 144.689 150.799C141.154 155.972 137.558 161.113 133.309 165.086C128.909 169.205 123.884 171.983 117.677 172.097C111.814 172.207 107.993 170.55 104.01 168.825C100.217 167.182 96.2649 165.473 90.0852 165.473C83.5916 165.473 79.443 167.242 75.4461 168.946C71.6838 170.545 68.0456 172.097 62.8004 172.308C56.7482 172.533 51.4995 169.579 46.8337 165.209C42.3713 161.027 38.4606 155.553 34.8983 150.398C26.8425 138.791 19.8454 121.891 17.6867 104.706C15.9072 90.5669 17.3935 76.2141 24.2389 64.358C27.9463 57.8681 33.2378 52.4236 39.6193 48.5327C45.858 44.7213 53.0009 42.6451 60.3105 42.5185C66.78 42.4012 72.8804 44.8221 78.2187 46.9395C82.0121 48.4396 85.3607 49.7776 87.8746 49.7776C90.1024 49.7776 93.3923 48.481 97.2202 46.9705C103.69 44.4186 111.604 41.3011 119.98 42.1426C126.384 42.4495 132.641 44.1738 138.299 47.1912C143.745 50.1346 148.403 54.3469 151.876 59.4715L152.911 61.0061L151.344 62.0165C151.258 62.0716 151.344 62.0165 151.199 62.1027L151.211 62.0889Z" fill="#424242"/>
</svg>
