<svg width="174" height="174" viewBox="0 0 174 174" fill="none" xmlns="http://www.w3.org/2000/svg">
<path d="M146 36.2803L135.213 157.123L86.7235 170.565L38.3686 157.142L27.593 36.2803H146Z" fill="#264DE4"/>
<path d="M125.976 149.428L135.194 46.1616H86.7957V160.289L125.976 149.428Z" fill="#2965F1"/>
<path d="M52.2959 90.9883L53.6246 105.811H86.7959V90.9883H52.2959Z" fill="#EBEBEB"/>
<path d="M86.7957 60.9849H86.7444H49.6262L50.9735 75.8081H86.7957V60.9849Z" fill="#EBEBEB"/>
<path d="M86.7963 144.908V129.484L86.7314 129.501L70.2227 125.044L69.1672 113.222H61.1454H54.2871L56.3638 136.497L86.728 144.927L86.7963 144.908Z" fill="#EBEBEB"/>
<path d="M55.4592 3.43481H73.4126V10.9425H62.967V18.4505H73.4126V25.9582H55.4592V3.43481Z" fill="black"/>
<path d="M77.0034 3.43481H94.957V9.9634H84.5114V11.2689H94.957V26.2846H77.0034V19.4297H87.4491V18.1239H77.0034V3.43481Z" fill="black"/>
<path d="M98.5476 3.43481H116.501V9.9634H106.055V11.2689H116.501V26.2846H98.5476V19.4297H108.993V18.1239H98.5476V3.43481Z" fill="black"/>
<path d="M104.998 105.81L103.277 125.034L86.7449 129.496V144.918L117.133 136.497L117.356 133.992L120.84 94.9677L121.2 90.9874L123.877 60.9849H86.7449V75.8081H107.632L106.283 90.9874H86.7449V105.81H104.998Z" fill="white"/>
</svg>
