<svg width="174" height="174" viewBox="0 0 174 174" fill="none" xmlns="http://www.w3.org/2000/svg">
<path d="M145.991 90.7997C145.991 90.5061 145.909 90.2964 145.745 90.1598C145.56 90.0123 145.245 89.9336 144.804 89.9336H144.168V91.6765H144.935C145.64 91.6765 145.988 91.3829 145.988 90.7997H145.991ZM146.978 94.4327H146.106L145.55 93.207C145.268 92.5922 144.968 92.2851 144.637 92.2851H144.168V94.4327H143.45V89.3219H144.889C145.53 89.3219 146.009 89.4604 146.34 89.7493C146.619 89.998 146.758 90.3161 146.758 90.7122C146.758 91.0648 146.645 91.3611 146.414 91.607C146.191 91.8546 145.871 92.0228 145.46 92.1095V92.1313C145.745 92.1982 146.029 92.511 146.306 93.0752L146.978 94.4356V94.4327ZM148.57 91.9277C148.57 90.922 148.227 90.0731 147.542 89.3996C146.855 88.7271 146.017 88.389 145.03 88.389C144.009 88.389 143.161 88.7271 142.489 89.4058C141.815 90.0874 141.479 90.9307 141.479 91.9277C141.479 92.9473 141.828 93.799 142.522 94.4778C143.204 95.156 144.043 95.4913 145.03 95.4913C146.009 95.4913 146.847 95.1531 147.537 94.4663C148.227 93.79 148.57 92.9411 148.57 91.9277ZM149.052 91.9054C149.052 93.0342 148.665 93.9813 147.886 94.7427C147.106 95.511 146.153 95.8935 145.009 95.8935C143.858 95.8935 142.904 95.5164 142.145 94.7763C141.384 94.0251 141.007 93.0811 141.007 91.9359C141.007 90.8161 141.394 89.8749 142.163 89.102C142.935 88.3303 143.896 87.9457 145.042 87.9457C146.168 87.9457 147.111 88.3146 147.878 89.0486C148.662 89.8026 149.052 90.752 149.052 91.9054ZM39.8184 106.157H37.3408V91.9805C37.3408 90.8604 37.4146 89.498 37.5456 87.8898H37.491C37.259 88.8302 37.0465 89.5116 36.8593 89.9336L29.6596 106.157H28.4528L21.2385 90.0513C21.0357 89.6011 20.8227 88.8779 20.6076 87.8891H20.5542C20.6294 88.7359 20.6724 90.1072 20.6724 92.0085V106.157H18.2843V85.0456H21.552L28.0288 99.7663C28.5177 100.875 28.833 101.719 28.9869 102.294H29.0892C29.5114 101.14 29.846 100.275 30.1 99.7048L36.7168 85.0456H39.8171V106.157H39.8179L39.8184 106.157ZM47.4375 106.157H45.0305V91.0809H47.4375V106.157ZM47.8541 85.6766C47.8541 86.1203 47.6972 86.4918 47.3878 86.7964C47.0832 87.101 46.7064 87.254 46.2651 87.254C45.8349 87.254 45.4606 87.1071 45.1532 86.8136C44.8461 86.5172 44.6959 86.1401 44.6959 85.6766C44.6959 85.2407 44.8474 84.8692 45.1532 84.5683C45.2989 84.4226 45.4724 84.308 45.6637 84.2311C45.8547 84.1542 46.0593 84.1168 46.2651 84.1209C46.7064 84.1209 47.0832 84.2663 47.3878 84.5683C47.6977 84.8692 47.8541 85.2407 47.8541 85.6766ZM62.4828 105.459C61.3266 106.168 59.9465 106.52 58.3519 106.52C56.1906 106.52 54.4504 105.803 53.1208 104.37C51.8302 102.979 51.1801 101.183 51.1801 98.9823C51.1801 96.5135 51.8869 94.514 53.3108 92.9945C54.727 91.4724 56.6316 90.713 59.0279 90.713C60.3377 90.713 61.5001 90.9696 62.5164 91.4778V93.9554C61.3909 93.1652 60.2013 92.774 58.9241 92.774C57.3884 92.774 56.1399 93.3101 55.171 94.3802C54.163 95.4749 53.6515 96.9383 53.6515 98.7644C53.6515 100.519 54.1178 101.907 55.0452 102.932C55.9753 103.951 57.2128 104.462 58.7738 104.462C60.0919 104.462 61.3266 104.029 62.482 103.166V105.459H62.4828ZM73.9981 93.5272C73.5732 93.2001 72.9613 93.0409 72.1542 93.0409C71.1741 93.0409 70.3499 93.4793 69.6828 94.3645C68.926 95.3534 68.5491 96.7219 68.5491 98.4701V106.156H66.1356V91.0804H68.5491V94.1889H68.607C68.9624 93.088 69.5092 92.242 70.2407 91.6416C70.9249 91.094 71.6987 90.8174 72.5503 90.8174C73.1928 90.8174 73.6702 90.8871 73.9973 91.023V93.5272H73.9981ZM87.4466 98.6462C87.4466 96.7162 87.0108 95.2421 86.1394 94.2307C85.2934 93.2588 84.1112 92.7727 82.5897 92.7727C81.0901 92.7727 79.8862 93.2642 78.9868 94.2476C78.0347 95.2972 77.5593 96.7806 77.5593 98.7049C77.5593 100.509 78.0121 101.925 78.9253 102.936C79.8336 103.952 81.056 104.461 82.5897 104.461C84.1761 104.461 85.391 103.944 86.2227 102.916C87.039 101.911 87.4466 100.49 87.4466 98.6462ZM89.9206 98.5608C89.9206 100.963 89.2425 102.893 87.8904 104.34C86.5334 105.792 84.7068 106.518 82.4107 106.518C80.149 106.518 78.3474 105.792 77.0269 104.34C75.7335 102.94 75.0825 101.092 75.0825 98.7931C75.0825 96.1707 75.8173 94.1487 77.2917 92.7132C78.6548 91.3816 80.4781 90.711 82.7632 90.711C85.0113 90.711 86.7678 91.4116 88.0332 92.7999C89.2871 94.1958 89.9206 96.1173 89.9206 98.5608ZM101.888 102.124C101.888 103.358 101.427 104.38 100.502 105.195C99.4944 106.078 98.1095 106.519 96.3666 106.519C94.9394 106.519 93.6883 106.22 92.6272 105.611V103.017C93.8085 103.978 95.113 104.461 96.5456 104.461C98.4558 104.461 99.4139 103.758 99.4139 102.355C99.4139 101.766 99.2037 101.277 98.7794 100.901C98.3553 100.515 97.5311 100.054 96.3054 99.5143C95.0425 98.9618 94.1431 98.395 93.6132 97.8056C92.9761 97.107 92.6551 96.2002 92.6551 95.0829C92.6551 93.831 93.155 92.7896 94.1439 91.96C95.1348 91.1281 96.4084 90.7115 97.9723 90.7115C99.1708 90.7115 100.243 90.9466 101.196 91.4183V93.8482C100.201 93.1304 99.065 92.7727 97.7741 92.7727C96.9753 92.7727 96.3333 92.9719 95.8552 93.3598C95.3724 93.7559 95.1294 94.2612 95.1294 94.8786C95.1294 95.5467 95.3329 96.0656 95.7357 96.437C96.0928 96.7806 96.8522 97.1998 97.9974 97.6882C99.2849 98.2276 100.215 98.7862 100.782 99.3584C101.517 100.082 101.888 101.004 101.888 102.124ZM116.636 98.6462C116.636 96.7162 116.2 95.2421 115.326 94.2307C114.482 93.2588 113.298 92.7727 111.779 92.7727C110.279 92.7727 109.075 93.2642 108.17 94.2476C107.221 95.2972 106.748 96.7806 106.748 98.7049C106.748 100.509 107.201 101.925 108.106 102.936C109.025 103.952 110.248 104.461 111.779 104.461C113.368 104.461 114.58 103.944 115.412 102.916C116.227 101.911 116.636 100.49 116.636 98.6462ZM119.115 98.5608C119.115 100.963 118.431 102.893 117.077 104.34C115.725 105.792 113.898 106.518 111.602 106.518C109.337 106.518 107.536 105.792 106.215 104.34C104.922 102.94 104.271 101.092 104.271 98.7931C104.271 96.1707 105.011 94.1487 106.477 92.7132C107.84 91.3816 109.667 90.711 111.954 90.711C114.203 90.711 115.956 91.4116 117.219 92.7999C118.476 94.1958 119.115 96.1173 119.115 98.5608ZM129.747 85.9586C129.273 85.6955 128.747 85.5617 128.145 85.5617C126.455 85.5617 125.617 86.6256 125.617 88.7571V91.0804H129.15V93.125H125.617V106.156H123.202V93.1242H120.638V91.0796H123.202V88.6361C123.202 86.9769 123.71 85.675 124.743 84.7369C125.63 83.9214 126.712 83.5164 127.999 83.5164C128.747 83.5164 129.327 83.6058 129.747 83.7794V85.9578V85.9586ZM139.271 106.005C138.702 106.332 137.943 106.494 137.005 106.494C134.375 106.494 133.06 105.01 133.06 102.044V93.127H130.473V91.0796H133.06V87.4014C133.829 87.1584 134.631 86.8936 135.477 86.6195V91.0796H139.271V93.127H135.477V101.634C135.477 102.645 135.641 103.369 135.987 103.787C136.339 104.22 136.908 104.433 137.713 104.433C138.313 104.433 138.831 104.271 139.271 103.946V106.005Z" fill="black"/>
<path d="M8.82427 164.996C8.82427 166.175 8.40279 167.198 7.55137 168.062C6.70175 168.921 5.67114 169.354 4.46183 169.354C3.28046 169.354 2.27521 168.921 1.45149 168.062C0.627245 167.198 0.216797 166.175 0.216797 164.996C0.216797 163.778 0.627245 162.755 1.45149 161.907C2.27521 161.053 3.28046 160.633 4.46183 160.633C5.67114 160.633 6.70175 161.061 7.55137 161.922C8.40279 162.786 8.82427 163.812 8.82427 164.996ZM62.8539 168.467H54.984L26.4158 124.348C25.7288 123.248 25.1488 122.084 24.684 120.874H24.4492C24.6528 122.056 24.7563 124.592 24.7563 128.476V168.467H18.2688V113.115H26.6891L54.4028 156.538C55.5065 158.261 56.2602 159.497 56.6428 160.24H56.7971C56.5397 158.646 56.4059 155.933 56.4059 152.101V113.115H62.8544V168.467H62.8539ZM104.446 168.467H75.1101V113.115H103.173V118.981H81.5928V137.392H101.59V143.261H81.5923V162.599H104.446V168.467H104.446ZM148.945 118.981H133.001V168.467H126.514V118.981H110.541V113.113H148.945V118.981Z" fill="black"/>
<path d="M60.6543 17.512C66.9127 36.6513 69.2836 70.7938 87.5856 70.7938C88.9787 70.7938 90.387 70.6572 91.7998 70.3882C75.1628 66.5093 73.1905 32.7383 63.0391 15.2495C62.2292 15.9881 61.434 16.7424 60.6538 17.512" fill="url(#paint0_linear_1878_1714)"/>
<path d="M63.0389 15.25C73.1911 32.7385 75.1626 66.5098 91.7997 70.3887C93.1067 70.149 94.4165 69.7857 95.7291 69.3273C80.7959 62.0114 76.6683 29.2169 65.1389 13.4294C64.4272 14.0229 63.727 14.63 63.0389 15.2507" fill="url(#paint1_linear_1878_1714)"/>
<path d="M77.6661 4.84822C76.2758 4.84822 74.865 4.98487 73.4493 5.25381C69.7457 5.95191 65.9837 7.54655 62.1914 9.95928C63.2274 10.9814 64.2129 12.1513 65.1402 13.4283C68.9973 10.2274 72.8291 7.86266 76.6473 6.44082C78.0407 5.91935 79.4769 5.52018 80.9395 5.24765C79.8694 4.97846 78.7695 4.84438 77.6661 4.84822Z" fill="#14559A"/>
<path d="M107.386 62.5827C108.977 61.3116 110.509 59.9688 111.978 58.5584C105.619 39.5079 103.343 4.87695 84.9124 4.87695C83.5944 4.87695 82.2648 5.00001 80.9381 5.24587C97.7259 9.42116 99.8764 45.9457 107.387 62.5827" fill="url(#paint2_linear_1878_1714)"/>
<path d="M80.9385 5.24714C79.8682 4.9782 78.7686 4.84438 77.6652 4.84823L84.9131 4.87489C83.5951 4.87489 82.2653 4.99795 80.9385 5.24637" fill="#3092C4"/>
<path d="M107.065 66.6303C106.344 65.9433 105.66 65.1893 104.987 64.3848C101.886 66.5798 98.7982 68.2447 95.7284 69.3276C96.8241 69.8658 97.9842 70.2611 99.1805 70.5036C100.149 70.6998 101.134 70.7972 102.121 70.7946C105.565 70.7946 108.288 70.387 110.607 69.2751C109.329 68.5854 108.159 67.6907 107.065 66.6303Z" fill="#1969BC"/>
<path d="M76.6456 6.44412C91.6822 14.3084 92.9892 49.9235 104.987 64.3847C105.804 63.8079 106.603 63.2072 107.384 62.5835C99.8736 45.9464 97.7259 9.41881 80.9412 5.24634C79.4778 5.52168 78.0406 5.9224 76.6456 6.44412Z" fill="url(#paint3_linear_1878_1714)"/>
<path d="M65.1388 13.43C76.6676 29.2175 80.7958 62.0112 95.7287 69.3281C98.7986 68.2449 101.887 66.58 104.987 64.3852C92.9891 49.924 91.6819 14.3088 76.6456 6.44434C72.8282 7.86362 68.9957 10.2284 65.1388 13.4292" fill="url(#paint4_linear_1878_1714)"/>
<path d="M53.2775 17.0514C51.4706 21.1373 49.6247 26.5078 47.3929 33.5178C51.831 27.2651 56.255 21.8769 60.6544 17.5132C60.0486 15.6501 59.3976 13.9327 58.6964 12.4016C56.8077 13.8529 54.999 15.4055 53.2783 17.0522" fill="url(#paint5_linear_1878_1714)"/>
<path d="M60.2984 11.2224C59.7585 11.6067 59.225 11.9997 58.6976 12.4012C59.3991 13.9315 60.0464 15.649 60.653 17.512C61.4344 16.7439 62.2294 15.9897 63.0375 15.2495C62.1861 13.7861 61.2811 12.4345 60.2984 11.2224Z" fill="#2B74B1"/>
<path d="M62.1904 9.96025C61.5503 10.3671 60.9191 10.7878 60.2974 11.2224C61.2808 12.4345 62.185 13.7858 63.04 15.252C63.7266 14.6291 64.4268 14.0212 65.1397 13.4287C64.2132 12.1525 63.2277 10.9819 62.1912 9.95947" fill="#125A9E"/>
<path d="M164.755 3.39098C156.251 36.1878 138.487 62.5296 123.594 69.1707H123.569C123.297 69.2938 123.028 69.4058 122.764 69.5143C122.728 69.5368 122.694 69.5397 122.666 69.5525C122.587 69.584 122.515 69.6086 122.436 69.6399C122.4 69.6617 122.366 69.6694 122.333 69.6822C122.207 69.7273 122.084 69.765 121.961 69.814C121.91 69.8365 121.859 69.8504 121.807 69.8681C121.748 69.8911 121.687 69.9114 121.623 69.9281C121.569 69.9501 121.51 69.9665 121.446 69.9909C121.392 70.0129 121.336 70.0224 121.287 70.0442C121.177 70.0757 121.077 70.1024 120.967 70.1398C120.923 70.1398 120.882 70.1644 120.833 70.1767C120.767 70.1985 120.69 70.2142 120.618 70.2347C120.569 70.2567 120.526 70.2642 120.474 70.2749C120.397 70.297 120.315 70.3175 120.238 70.3352L119.954 70.398C120.636 70.6495 121.356 70.7761 122.084 70.7723C136.205 70.7723 150.442 45.4665 174 3.38354H164.75L164.755 3.39098Z" fill="url(#paint6_linear_1878_1714)"/>
<path d="M44.3267 6.17916C44.3354 6.17916 44.3469 6.15737 44.3518 6.15737C44.3634 6.15737 44.3805 6.15736 44.3859 6.13557H44.4039C44.4815 6.10813 44.5541 6.07737 44.6325 6.04814C44.653 6.04814 44.6633 6.04815 44.6777 6.0261C44.6974 6.0261 44.7166 6.00354 44.7364 6.00098C44.8197 5.97431 44.9035 5.94277 44.9822 5.91432H44.9951C45.1822 5.85817 45.3558 5.78844 45.5368 5.72358C45.5627 5.72358 45.5873 5.70179 45.618 5.70179C45.6932 5.67718 45.7716 5.65051 45.8501 5.63282C45.8862 5.61026 45.9226 5.61026 45.9559 5.59872C46.0367 5.57488 46.1152 5.54745 46.1903 5.52976C46.2244 5.52976 46.2544 5.5072 46.2797 5.50515C46.5392 5.43336 46.7966 5.36645 47.056 5.3044C47.0925 5.3044 47.123 5.28185 47.1619 5.2798C47.237 5.25801 47.3075 5.2457 47.3888 5.23467C47.4221 5.21288 47.4611 5.21288 47.5001 5.20134C47.5752 5.1793 47.6483 5.17674 47.7295 5.15879H47.7821C47.9392 5.12675 48.0982 5.10084 48.2546 5.07136H48.3497C48.4248 5.04957 48.4917 5.047 48.5674 5.03316C48.6084 5.03316 48.6507 5.01137 48.6904 5.01137C48.7599 5.01137 48.8296 4.98881 48.8994 4.98009C48.9363 4.98009 48.9717 4.98009 49.014 4.95753C49.1785 4.93548 49.3488 4.92677 49.5221 4.91318C49.0229 4.86293 48.5215 4.83678 48.0198 4.83447C32.1174 4.83447 10.2072 34.341 0.337646 72.5524H2.23967C5.39819 66.9196 8.23548 61.5909 10.8307 56.5888C17.7423 29.523 31.8211 11.0654 44.3272 6.17505" fill="url(#paint7_linear_1878_1714)"/>
<path d="M53.2778 17.0514C54.9986 15.4047 56.8071 13.8523 58.6953 12.4007C58.3112 11.5465 57.8805 10.7138 57.4052 9.90674C55.9508 11.6721 54.621 14.0015 53.2778 17.0514Z" fill="#0D82CA"/>
<path d="M54.5847 6.40335C55.6227 7.27477 56.5536 8.47255 57.405 9.90875C57.6735 9.5788 57.9447 9.27422 58.2259 8.98965C57.0446 7.88673 55.7689 6.98173 54.3834 6.30029C54.4393 6.33106 54.4952 6.35619 54.5534 6.3808C54.5534 6.3808 54.5752 6.40284 54.5847 6.40284" fill="#0D82CA"/>
<path d="M10.8291 56.5923C25.3301 28.6496 32.2001 10.965 44.3266 6.17773C31.8232 11.0716 17.7417 29.5292 10.8299 56.5923" fill="url(#paint8_linear_1878_1714)"/>
<path d="M58.2245 8.98926C57.9424 9.27691 57.6748 9.57866 57.4038 9.90861C57.8794 10.7157 58.3108 11.5479 58.6964 12.4018C59.2235 12.0006 59.7573 11.6079 60.2972 11.2238C59.6594 10.4314 58.9669 9.6848 58.2245 8.98926Z" fill="#127BCA"/>
<path d="M17.4125 72.43C17.323 72.4525 17.2336 72.4525 17.1495 72.4615H17.0997C17.0239 72.4615 16.9454 72.4838 16.8757 72.4838H16.8395C16.658 72.5059 16.4791 72.5059 16.3063 72.5195H16.2501C30.9265 72.109 37.6347 64.7608 40.9645 54.1034C43.4949 46.0238 45.5723 39.2173 47.3936 33.5061C41.246 42.1587 35.0712 52.4726 28.8629 64.0268C25.869 69.5953 21.3166 71.9213 17.4117 72.4197" fill="url(#paint9_linear_1878_1714)"/>
<path d="M17.4126 72.4244C21.3169 71.9273 25.8691 69.604 28.863 64.0315C35.0713 52.4808 41.2494 42.1641 47.3903 33.5115C49.6246 26.4982 51.4685 21.1305 53.2782 17.0447C41.0372 28.6966 28.7482 48.0704 17.4121 72.419" fill="url(#paint10_linear_1878_1714)"/>
<path d="M10.829 56.5935C8.23396 61.5951 5.39642 66.9238 2.23816 72.5571H7.77018C8.4688 67.1802 9.49044 61.8504 10.829 56.5961" fill="#05A1E6"/>
<path d="M49.0129 4.97176C48.9681 4.97176 48.9345 4.99355 48.8955 4.99355C48.8286 5.01611 48.7591 5.01612 48.6886 5.02278C48.6476 5.02278 48.6081 5.02279 48.5658 5.04535C48.4907 5.06714 48.421 5.06919 48.3479 5.08355C48.3143 5.08355 48.281 5.08354 48.253 5.10559C48.0938 5.132 47.9374 5.16148 47.7818 5.18814H47.7285C47.6472 5.2107 47.5742 5.22224 47.499 5.23327C47.4601 5.25506 47.4211 5.25506 47.3842 5.26403C47.3091 5.28634 47.234 5.29531 47.1609 5.30889C47.1222 5.33094 47.0914 5.33094 47.0553 5.33299C46.7955 5.3958 46.5382 5.46272 46.2787 5.53425C46.2513 5.53425 46.2226 5.5563 46.1892 5.56091C46.1113 5.58296 46.0357 5.60527 45.9544 5.62988C45.9208 5.65244 45.8818 5.65244 45.8485 5.66141C45.7706 5.68295 45.6932 5.70602 45.6162 5.73038C45.5862 5.73038 45.5609 5.75217 45.5329 5.75217C45.354 5.81908 45.1778 5.88676 44.9935 5.94214C44.9156 5.96675 44.8315 5.99803 44.7477 6.02751C44.7141 6.0493 44.6841 6.05468 44.6451 6.06981C44.5667 6.09442 44.4882 6.1257 44.4156 6.15441C44.3885 6.17697 44.3597 6.17902 44.3405 6.19056C32.2141 10.9778 25.3435 28.6617 10.8433 56.6043C9.5035 61.8584 8.4821 67.1887 7.78528 72.5659H8.56157C10.7484 72.5659 11.3658 72.5433 13.8816 72.5433H16.3202C16.493 72.5215 16.6719 72.5215 16.8529 72.5072H16.887C16.9622 72.5072 17.0373 72.4854 17.1104 72.4854H17.1637C17.2442 72.4854 17.3365 72.4633 17.4257 72.4538C28.762 48.1055 41.0502 28.7314 53.292 17.0795C54.6375 14.0305 55.9645 11.7011 57.4168 9.93849C56.5675 8.50305 55.6374 7.30246 54.5985 6.43105C54.5985 6.43105 54.5706 6.43105 54.5685 6.40848C54.5091 6.38464 54.4537 6.35515 54.395 6.32644C54.3363 6.29439 54.2858 6.26978 54.2242 6.23902C54.1673 6.21518 54.1114 6.18826 54.0571 6.15852C53.9845 6.13596 53.9258 6.10468 53.8617 6.07597C53.8084 6.05341 53.7612 6.03085 53.7081 6.00905C53.6 5.96701 53.4928 5.92214 53.3872 5.87445C53.3392 5.85266 53.2949 5.84036 53.2505 5.82318C53.1693 5.7937 53.0887 5.76165 53.0095 5.72755C52.9706 5.70499 52.9262 5.70038 52.8811 5.68448C52.767 5.64628 52.655 5.60603 52.5491 5.57065H52.5211C52.3927 5.52809 52.2671 5.49681 52.1361 5.46118C52.1053 5.43887 52.0799 5.43888 52.0492 5.43401C51.9346 5.40324 51.8341 5.37248 51.7256 5.34325C51.6982 5.34325 51.6723 5.32069 51.6505 5.32069C51.3834 5.25224 51.1139 5.19352 50.8427 5.1443C50.8152 5.1443 50.7873 5.122 50.7593 5.122C50.6437 5.09893 50.5273 5.08021 50.4102 5.06586C50.3817 5.04406 50.3653 5.04407 50.3407 5.04407C50.203 5.02304 50.0651 5.00509 49.9269 4.98996H49.8543C49.7423 4.96817 49.6393 4.96613 49.5362 4.95459C49.3601 4.97638 49.1926 4.98586 49.0273 5.00176" fill="url(#paint11_linear_1878_1714)"/>
<path d="M131.537 21.5473C128.745 30.4844 126.486 37.8572 124.52 43.9235C132.175 33.3889 139.715 20.1364 146.896 4.84326C138.521 7.47391 134.052 13.4959 131.537 21.5473Z" fill="url(#paint12_linear_1878_1714)"/>
<path d="M124.764 68.6125C124.374 68.8119 123.982 69.0011 123.597 69.1711C138.487 62.5298 156.251 36.1879 164.755 3.39111H163.03C143.494 38.2933 137.208 61.6584 124.764 68.6125Z" fill="url(#paint13_linear_1878_1714)"/>
<path d="M115.039 65.6804C118.279 61.7259 120.918 55.0033 124.522 43.9238C120.367 49.633 116.182 54.5395 111.995 58.5422C111.995 58.564 111.995 58.564 111.973 58.5776C112.886 61.3146 113.889 63.7302 115.031 65.6799" fill="#079AE1"/>
<path d="M115.039 65.6804C113.936 67.0259 112.768 68.0516 111.47 68.811C111.185 68.9761 110.897 69.132 110.604 69.2753C112.013 70.0382 113.556 70.5243 115.148 70.7074C115.394 70.732 115.637 70.7546 115.891 70.7722H115.936C116.05 70.7722 116.17 70.7722 116.293 70.794H117.505C117.55 70.794 117.596 70.794 117.641 70.7722C117.728 70.7722 117.819 70.7723 117.909 70.7497H118.042C118.133 70.7497 118.233 70.7279 118.332 70.7181H118.354C118.383 70.7181 118.414 70.6964 118.443 70.6964C118.545 70.6738 118.653 70.6651 118.753 70.6492H118.845C118.959 70.6274 119.077 70.613 119.193 70.5912H119.25C119.484 70.5461 119.713 70.5025 119.945 70.4438C118.024 69.7404 116.415 68.0808 115.03 65.7181" fill="#1969BC"/>
<path d="M87.5852 70.7946C88.9791 70.7946 90.3866 70.6579 91.8002 70.3867C93.1072 70.1498 94.417 69.7857 95.7297 69.3284C96.8244 69.866 97.9834 70.2611 99.1784 70.5044C100.147 70.7 101.134 70.7974 102.122 70.7946H87.5852Z" fill="#1E5CB3"/>
<path d="M102.122 70.7939C105.563 70.7939 108.289 70.3863 110.604 69.2744C112.013 70.0379 113.556 70.5245 115.148 70.7078C115.394 70.7316 115.637 70.7542 115.891 70.7721H115.936C116.05 70.7721 116.17 70.7721 116.293 70.7947H116.711H102.113H102.122V70.7939Z" fill="#1E5CB3"/>
<path d="M116.72 70.7942H117.516C117.563 70.7942 117.607 70.7942 117.653 70.7724C117.739 70.7724 117.831 70.7724 117.924 70.7499H118.056C118.147 70.7499 118.247 70.7281 118.343 70.7191H118.368C118.397 70.7191 118.426 70.6973 118.455 70.6973C118.557 70.6748 118.665 70.6658 118.764 70.6494C118.799 70.6494 118.825 70.6494 118.861 70.6276C118.975 70.6058 119.093 70.5943 119.21 70.5722H119.266C119.5 70.5273 119.729 70.4827 119.961 70.4248C120.644 70.6763 121.364 70.8029 122.092 70.7991L116.724 70.8209L116.72 70.7942Z" fill="#1D60B5"/>
<path d="M111.982 58.5777V58.5552C110.514 59.9657 108.981 61.3086 107.391 62.5795C106.609 63.2027 105.808 63.8034 104.992 64.381C105.665 65.1855 106.349 65.9395 107.07 66.6271C108.165 67.6877 109.334 68.5817 110.611 69.2713C110.902 69.128 111.191 68.9721 111.474 68.8075C112.775 68.0482 113.943 67.0232 115.046 65.6772C113.904 63.7275 112.901 61.3122 111.987 58.5749" fill="#175FAB"/>
<path d="M157.574 3.39111H148.901C148.432 3.41367 147.975 3.42931 147.527 3.45803C147.314 3.9136 147.096 4.36918 146.886 4.82732C139.707 20.1205 132.165 33.373 124.51 43.9073C120.91 54.9863 118.269 61.7089 115.029 65.6634C116.414 68.0264 118.026 69.688 119.941 70.392C119.997 70.3694 120.042 70.3694 120.092 70.3579H120.124C120.157 70.3579 120.192 70.3361 120.228 70.3361C120.308 70.3135 120.392 70.2997 120.469 70.2758C120.52 70.2533 120.561 70.2512 120.613 70.2348C120.685 70.213 120.759 70.1974 120.828 70.1797C120.872 70.1571 120.915 70.1502 120.961 70.1412C121.072 70.1051 121.174 70.0784 121.279 70.0451C121.331 70.0233 121.382 70.0041 121.438 69.991C121.5 69.9692 121.561 69.9536 121.618 69.9269C121.682 69.9043 121.746 69.8928 121.802 69.869C121.851 69.8464 121.905 69.8326 121.954 69.8128C122.079 69.7677 122.2 69.7303 122.325 69.6811C122.361 69.6811 122.395 69.6498 122.43 69.6429C122.505 69.6113 122.584 69.5867 122.659 69.5534C122.687 69.5308 122.72 69.5288 122.756 69.5172C123.02 69.408 123.289 69.296 123.561 69.1737H123.589C123.984 68.9986 124.371 68.8122 124.753 68.6151C137.203 61.6609 143.486 38.2961 163.025 3.39394H157.566L157.574 3.39111Z" fill="url(#paint14_linear_1878_1714)"/>
<path d="M49.5217 4.92544C49.5525 4.92544 49.5804 4.92544 49.6104 4.94749C49.6863 4.94749 49.7622 4.94749 49.8373 4.97184H49.9124C50.0496 4.99389 50.1862 5.00619 50.3262 5.02593C50.3513 5.02593 50.3739 5.02594 50.396 5.04773C50.5105 5.06953 50.628 5.08875 50.7449 5.10592C50.77 5.10592 50.8036 5.12823 50.8315 5.12823C51.0999 5.18156 51.3738 5.2377 51.636 5.30667C51.6606 5.30667 51.6865 5.32923 51.7083 5.32923C51.8204 5.35563 51.9209 5.38922 52.0329 5.42049C52.067 5.42049 52.0908 5.44254 52.1216 5.44793C52.2534 5.48151 52.3762 5.51485 52.5041 5.55715C52.5103 5.55715 52.5177 5.55715 52.5326 5.57894C52.642 5.61252 52.7533 5.65482 52.8674 5.69302C52.913 5.71507 52.9548 5.72456 52.9964 5.73533C53.0748 5.76968 53.1617 5.80249 53.2368 5.83377C53.2812 5.83377 53.3255 5.8653 53.3732 5.88171C53.4765 5.92812 53.585 5.97041 53.6916 6.01477C53.7475 6.03733 53.7947 6.06246 53.8485 6.08245C53.9101 6.11373 53.9736 6.14244 54.0406 6.16423C54.0964 6.19166 54.158 6.22038 54.2113 6.245C54.27 6.27704 54.3254 6.30088 54.382 6.33242C55.767 7.01386 57.0432 7.92142 58.2246 9.02229C58.6478 8.57671 59.1032 8.16318 59.5872 7.78478C57.0037 5.95196 54.0775 4.90698 50.7005 4.90698C50.3091 4.90698 49.9186 4.92954 49.5217 4.95902" fill="#7DCBEC"/>
<path d="M58.225 8.98924C58.9672 9.68478 59.6596 10.4316 60.2975 11.2238C60.9187 10.788 61.5499 10.3667 62.1906 9.96038C61.3868 9.15101 60.5152 8.41189 59.5853 7.75122C59.1013 8.12886 58.6467 8.54264 58.225 8.98873" fill="#5EC5ED"/>
<path d="M49.5214 4.924C49.9175 4.89067 50.3087 4.87631 50.7 4.87631C54.0764 4.87631 57.0032 5.92104 59.5866 7.75129C62.3129 5.60006 65.6078 4.84888 70.1854 4.84888H48.0183C48.5305 4.84888 49.0297 4.87964 49.5214 4.924Z" fill="url(#paint15_linear_1878_1714)"/>
<path d="M70.1858 4.84814C65.6082 4.84814 62.3133 5.59932 59.587 7.75054C60.5159 8.41173 61.3868 9.1506 62.1903 9.95895C65.9854 7.54622 69.7446 5.94824 73.4515 5.25039C74.8405 4.98633 76.251 4.85148 77.6649 4.84814H70.1858Z" fill="url(#paint16_linear_1878_1714)"/>
<path d="M124.52 43.929C126.489 37.8581 128.742 30.4874 131.539 21.5474C134.06 13.4926 138.518 7.47146 146.894 4.84363C147.114 4.39344 147.324 3.92966 147.54 3.47485C133.885 4.2932 127.504 11.2389 124.292 21.5248C118.675 39.4827 115.273 51.1234 111.997 58.5413C116.181 54.5421 120.364 49.6321 124.52 43.929Z" fill="url(#paint17_linear_1878_1714)"/>
<path d="M144.553 66.0107H143.004V70.8206H142.374V66.0107H140.82V65.4385H144.553V66.0107ZM150.888 70.819H150.26V67.2052C150.26 66.9204 150.283 66.5714 150.311 66.1602C150.247 66.4061 150.193 66.5768 150.144 66.686L148.311 70.819H148.004L146.168 66.7168C146.111 66.6027 146.06 66.4176 146.001 66.161H145.981C146.001 66.3774 146.009 66.7278 146.009 67.2139V70.8198H145.404V65.4377H146.237L147.888 69.1939C148.014 69.4759 148.091 69.6938 148.132 69.8392H148.155C148.265 69.5428 148.355 69.3221 148.414 69.1767L150.101 65.4377H150.893V70.819H150.888Z" fill="black"/>
<defs>
<linearGradient id="paint0_linear_1878_1714" x1="76.2259" y1="4.40953" x2="76.2259" y2="87.2489" gradientUnits="userSpaceOnUse">
<stop stop-color="#0994DC"/>
<stop offset="0.35001" stop-color="#66CEF5"/>
<stop offset="0.84616" stop-color="#127BCA"/>
<stop offset="1" stop-color="#127BCA"/>
</linearGradient>
<linearGradient id="paint1_linear_1878_1714" x1="79.3843" y1="2.31309" x2="79.3843" y2="87.2622" gradientUnits="userSpaceOnUse">
<stop stop-color="#0E76BC"/>
<stop offset="0.36" stop-color="#36AEE8"/>
<stop offset="0.84616" stop-color="#00ADEF"/>
<stop offset="1" stop-color="#00ADEF"/>
</linearGradient>
<linearGradient id="paint2_linear_1878_1714" x1="96.4577" y1="68.8854" x2="96.4577" y2="1.29106" gradientUnits="userSpaceOnUse">
<stop stop-color="#1C63B7"/>
<stop offset="0.5" stop-color="#33BDF2"/>
<stop offset="1" stop-color="#33BDF2" stop-opacity="0.42"/>
</linearGradient>
<linearGradient id="paint3_linear_1878_1714" x1="92.0152" y1="-6.29456" x2="92.0152" y2="81.9058" gradientUnits="userSpaceOnUse">
<stop stop-color="#166AB8"/>
<stop offset="0.39999" stop-color="#36AEE8"/>
<stop offset="0.84616" stop-color="#0798DD"/>
<stop offset="1" stop-color="#0798DD"/>
</linearGradient>
<linearGradient id="paint4_linear_1878_1714" x1="85.0626" y1="-5.83107" x2="85.0626" y2="87.9585" gradientUnits="userSpaceOnUse">
<stop stop-color="#124379"/>
<stop offset="0.39" stop-color="#1487CB"/>
<stop offset="0.78023" stop-color="#165197"/>
<stop offset="1" stop-color="#165197"/>
</linearGradient>
<linearGradient id="paint5_linear_1878_1714" x1="47.3929" y1="22.9598" x2="60.6544" y2="22.9598" gradientUnits="userSpaceOnUse">
<stop stop-color="#33BDF2" stop-opacity="0.698"/>
<stop offset="1" stop-color="#1DACD8"/>
</linearGradient>
<linearGradient id="paint6_linear_1878_1714" x1="146.983" y1="67.1913" x2="146.983" y2="1.34512" gradientUnits="userSpaceOnUse">
<stop stop-color="#136AB4"/>
<stop offset="0.6" stop-color="#59CAF5" stop-opacity="0.549"/>
<stop offset="1" stop-color="#59CAF5" stop-opacity="0.235"/>
</linearGradient>
<linearGradient id="paint7_linear_1878_1714" x1="0.337134" y1="38.6934" x2="49.5216" y2="38.6934" gradientUnits="userSpaceOnUse">
<stop stop-color="#05A1E6" stop-opacity="0.247"/>
<stop offset="1" stop-color="#05A1E6"/>
</linearGradient>
<linearGradient id="paint8_linear_1878_1714" x1="27.5772" y1="68.85" x2="27.5772" y2="1.42842" gradientUnits="userSpaceOnUse">
<stop stop-color="#318ED5"/>
<stop offset="1" stop-color="#38A7E4"/>
</linearGradient>
<linearGradient id="paint9_linear_1878_1714" x1="31.8215" y1="69.0864" x2="31.8215" y2="3.54964" gradientUnits="userSpaceOnUse">
<stop stop-color="#05A1E6"/>
<stop offset="1" stop-color="#05A1E6" stop-opacity="0.549"/>
</linearGradient>
<linearGradient id="paint10_linear_1878_1714" x1="35.3452" y1="72.43" x2="35.3452" y2="17.0503" gradientUnits="userSpaceOnUse">
<stop stop-color="#1959A6"/>
<stop offset="0.5" stop-color="#05A1E6"/>
<stop offset="0.91759" stop-color="#7EC5EA"/>
<stop offset="1" stop-color="#7EC5EA"/>
</linearGradient>
<linearGradient id="paint11_linear_1878_1714" x1="37.4669" y1="68.8933" x2="18.6947" y2="11.5236" gradientUnits="userSpaceOnUse">
<stop stop-color="#165096"/>
<stop offset="1" stop-color="#0D82CA"/>
</linearGradient>
<linearGradient id="paint12_linear_1878_1714" x1="135.708" y1="34.9343" x2="135.708" y2="3.55422" gradientUnits="userSpaceOnUse">
<stop stop-color="#05A1E6"/>
<stop offset="0.87363" stop-color="#0495D6"/>
<stop offset="1" stop-color="#0495D6"/>
</linearGradient>
<linearGradient id="paint13_linear_1878_1714" x1="150.457" y1="0.654072" x2="121.21" y2="65.5898" gradientUnits="userSpaceOnUse">
<stop stop-color="#38A7E4" stop-opacity="0.329"/>
<stop offset="0.96153" stop-color="#0E88D3"/>
<stop offset="1" stop-color="#0E88D3"/>
</linearGradient>
<linearGradient id="paint14_linear_1878_1714" x1="139.036" y1="3.19294" x2="139.036" y2="71.6528" gradientUnits="userSpaceOnUse">
<stop stop-color="#168CD4"/>
<stop offset="0.5" stop-color="#1C87CC"/>
<stop offset="1" stop-color="#154B8D"/>
</linearGradient>
<linearGradient id="paint15_linear_1878_1714" x1="51.7144" y1="1.78521" x2="52.0111" y2="8.9665" gradientUnits="userSpaceOnUse">
<stop stop-color="#97D6EE"/>
<stop offset="0.70329" stop-color="#55C1EA"/>
<stop offset="1" stop-color="#55C1EA"/>
</linearGradient>
<linearGradient id="paint16_linear_1878_1714" x1="60.8328" y1="9.63694" x2="62.1736" y2="2.03163" gradientUnits="userSpaceOnUse">
<stop stop-color="#7ACCEC"/>
<stop offset="1" stop-color="#3FB7ED"/>
</linearGradient>
<linearGradient id="paint17_linear_1878_1714" x1="129.768" y1="6.97871" x2="129.768" y2="73.9383" gradientUnits="userSpaceOnUse">
<stop stop-color="#1DA7E7"/>
<stop offset="1" stop-color="#37ABE7" stop-opacity="0"/>
</linearGradient>
</defs>
</svg>
