<svg width="174" height="174" viewBox="0 0 174 174" fill="none" xmlns="http://www.w3.org/2000/svg">
<path d="M38.1799 2.32593H45.7873V9.86725H52.7995V2.32593H60.4069V25.1483H52.7995V17.5409H45.8536V25.1483H38.1799V2.32593ZM70.4621 9.9333H63.7477V2.32593H84.817V9.9333H78.0695V25.1483H70.4621V9.9333ZM88.1575 2.32593H96.1288L101.024 10.3634L105.919 2.32593H113.89V25.1483H106.283V13.8363L100.958 22.039L95.6328 13.8363V25.1483H88.1575V2.32593ZM117.661 2.32593H125.268V17.607H136.05V25.1483H117.661" fill="black"/>
<path d="M37.9152 158.114L27.0002 35.6003H147L136.084 158.047L86.9007 171.674" fill="#E44D26"/>
<path d="M86.9998 161.254V45.6553H136.05L126.69 150.174" fill="#F16529"/>
<path d="M49.2935 60.6387H86.9998V75.655H65.7652L67.1544 91.0355H86.9998V106.019H53.3948L49.2935 60.6387ZM54.0563 113.56H69.1389L70.1973 125.566L86.9998 130.065V145.742L56.1731 137.144" fill="#EBEBEB"/>
<path d="M124.573 60.6387H86.9336V75.655H123.185L124.573 60.6387ZM121.827 91.0355H86.9336V106.052H105.456L103.703 125.566L86.9336 130.065V145.677L117.694 137.144" fill="white"/>
</svg>
