<svg width="174" height="174" viewBox="0 0 174 174" fill="none" xmlns="http://www.w3.org/2000/svg">
<g clip-path="url(#clip0_1878_1493)">
<path d="M175 -1H0V174H175V-1Z" fill="#F7DF1E"/>
<path d="M117.555 135.721C121.08 141.474 125.666 145.706 133.778 145.706C140.592 145.706 144.943 142.301 144.943 137.595C144.943 131.954 140.471 129.959 132.973 126.677L128.862 124.914C116.994 119.858 109.111 113.525 109.111 100.136C109.111 87.8027 118.508 78.4138 133.194 78.4138C143.651 78.4138 151.168 82.0527 156.582 91.5806L143.777 99.8026C140.959 94.747 137.916 92.7555 133.194 92.7555C128.377 92.7555 125.324 95.811 125.324 99.8026C125.324 104.736 128.38 106.733 135.437 109.789L139.548 111.55C153.518 117.542 161.409 123.651 161.409 137.385C161.409 152.19 149.779 160.299 134.158 160.299C118.886 160.299 109.019 153.021 104.192 143.483L117.555 135.721ZM59.4638 137.145C62.0471 141.727 64.3972 145.601 70.047 145.601C75.4499 145.601 78.8581 143.488 78.8581 135.268V79.3526H95.3027V135.492C95.3027 152.518 85.3194 160.269 70.747 160.269C57.5805 160.269 49.9554 153.455 46.0776 145.249L59.4638 137.145Z" fill="black"/>
</g>
<defs>
<clipPath id="clip0_1878_1493">
<rect width="174" height="174" fill="white"/>
</clipPath>
</defs>
</svg>
