<svg width="174" height="174" viewBox="0 0 174 174" fill="none" xmlns="http://www.w3.org/2000/svg">
<path d="M129.109 136.577H128.461V136.213H130.204V136.577H129.561V138.383H129.109V136.577ZM132.583 136.67H132.573L131.932 138.383H131.638L131.002 136.67H130.994V138.383H130.567V136.216H131.196L131.785 137.75L132.374 136.216H133V138.383H132.583V136.67Z" fill="#E76F00"/>
<path d="M71.1707 92.2322C71.1707 92.2322 66.6677 94.8509 74.3753 95.737C83.7127 96.8022 88.485 96.6496 98.7751 94.7019C98.7751 94.7019 101.48 96.3982 105.259 97.8675C82.1912 107.754 53.0525 97.2948 71.1707 92.2322ZM68.352 79.3313C68.352 79.3313 63.3016 83.0698 71.0149 83.8675C80.9895 84.8966 88.8665 84.9808 102.497 82.356C102.497 82.356 104.383 84.2673 107.347 85.3127C79.4569 93.468 48.3927 85.9558 68.352 79.3313Z" fill="#5382A1"/>
<path d="M92.1148 57.4467C97.7987 63.9906 90.6217 69.8795 90.6217 69.8795C90.6217 69.8795 105.053 62.4293 98.4255 53.0997C92.235 44.399 87.4878 40.0764 113.187 25.1716C113.188 25.1711 72.8476 35.2461 92.1148 57.4467Z" fill="#E76F00"/>
<path d="M122.622 101.775C122.622 101.775 125.955 104.521 118.953 106.645C105.639 110.678 63.5354 111.896 51.8394 106.806C47.6351 104.976 55.5195 102.438 57.9997 101.905C60.5863 101.345 62.0644 101.449 62.0644 101.449C57.3886 98.1551 31.8423 107.916 49.0882 110.712C96.12 118.339 134.824 107.278 122.622 101.775ZM73.336 65.9643C73.336 65.9643 51.9199 71.051 65.7521 72.8983C71.5923 73.6803 83.235 73.5033 94.0795 72.5946C102.943 71.847 111.843 70.2577 111.843 70.2577C111.843 70.2577 108.717 71.5961 106.456 73.1395C84.7085 78.8598 42.6957 76.1986 54.7907 70.348C65.0194 65.4034 73.336 65.9643 73.336 65.9643ZM111.754 87.4387C133.861 75.9507 123.641 64.9106 116.506 66.3982C114.757 66.7622 113.977 67.0776 113.977 67.0776C113.977 67.0776 114.627 66.0605 115.866 65.6204C129.981 60.6581 140.835 80.2559 111.31 88.018C111.31 88.018 111.652 87.7124 111.754 87.4387Z" fill="#5382A1"/>
<path d="M98.4256 1.10352C98.4256 1.10352 110.669 13.3508 86.8133 32.1847C67.6832 47.2919 82.4509 55.906 86.8052 65.7481C75.6392 55.6728 67.4443 46.8042 72.9419 38.5497C81.0109 26.4328 103.366 20.5582 98.4256 1.10352Z" fill="#E76F00"/>
<path d="M75.5085 118.568C96.7289 119.928 129.316 117.815 130.086 107.774C130.086 107.774 128.604 111.58 112.549 114.603C94.4374 118.011 72.0984 117.614 58.849 115.429C58.8495 115.429 61.5615 117.674 75.5085 118.568Z" fill="#5382A1"/>
<path d="M72.0307 156.934C70.0288 158.672 67.9148 159.646 66.0172 159.646C63.3091 159.646 61.846 158.022 61.846 155.417C61.846 152.6 63.414 150.54 69.7031 150.54H72.0305L72.0307 156.934ZM77.5546 163.169V143.876C77.5546 138.948 74.7437 135.695 67.9668 135.695C64.0104 135.695 60.5446 136.672 57.7278 137.919L58.541 141.333C60.7587 140.518 63.6295 139.762 66.4472 139.762C70.3514 139.762 72.0307 141.333 72.0307 144.583V147.02H70.0823C60.5972 147.02 56.3185 150.705 56.3185 156.23C56.3185 160.999 59.138 163.711 64.4471 163.711C67.8598 163.711 70.4071 162.302 72.7887 160.24L73.2209 163.169H77.5546ZM95.9892 163.169H89.1001L80.8088 136.184H86.8253L91.9699 152.762L93.1135 157.749C95.7162 150.54 97.5574 143.226 98.4783 136.184H104.331C102.762 145.069 99.9407 154.823 95.9892 163.169ZM122.419 156.934C120.413 158.672 118.295 159.646 116.397 159.646C113.694 159.646 112.226 158.022 112.226 155.417C112.226 152.6 113.798 150.54 120.087 150.54H122.419V156.934ZM127.941 163.169V143.876C127.941 138.948 125.123 135.695 118.354 135.695C114.395 135.695 110.928 136.672 108.113 137.919L108.925 141.333C111.143 140.518 114.02 139.762 116.835 139.762C120.737 139.762 122.419 141.333 122.419 144.583V147.02H120.467C110.978 147.02 106.701 150.705 106.701 156.23C106.701 160.999 109.519 163.711 114.827 163.711C118.242 163.711 120.789 162.302 123.175 160.24L123.607 163.169H127.941ZM50.2617 167.749C48.6869 170.049 46.1436 171.867 43.3592 172.896L40.632 169.688C42.7514 168.6 44.569 166.843 45.4136 165.208C46.144 163.753 46.4462 161.878 46.4462 157.393V126.587H52.3149V156.971C52.3147 162.967 51.8353 165.388 50.2617 167.749Z" fill="#E76F00"/>
</svg>
