<svg width="174" height="174" viewBox="0 0 174 174" fill="none" xmlns="http://www.w3.org/2000/svg">
<g clip-path="url(#clip0_1878_1827)">
<path d="M173.899 37.8618C173.966 38.1013 173.997 38.348 174 38.596V77.1364C174 77.6311 173.868 78.1171 173.621 78.545C173.373 78.9731 173.017 79.328 172.586 79.5742L140.239 98.198V135.112C140.239 136.116 139.705 137.045 138.835 137.55L71.3115 176.421C71.1569 176.509 70.9881 176.563 70.8196 176.625C70.7564 176.646 70.6968 176.685 70.6299 176.7C70.1579 176.827 69.6619 176.827 69.1899 176.7C69.1124 176.679 69.0422 176.638 68.9684 176.61C68.8138 176.553 68.6523 176.504 68.5047 176.421L0.996157 137.55C0.56724 137.303 0.210846 136.949 -0.037162 136.521C-0.284912 136.092 -0.415758 135.607 -0.416016 135.112V19.4909C-0.416016 19.238 -0.380915 18.9923 -0.317687 18.7533C-0.296525 18.6726 -0.247498 18.5987 -0.219368 18.518C-0.166721 18.3703 -0.117427 18.2194 -0.0402631 18.0823C0.0126419 17.991 0.0898098 17.9174 0.153038 17.833C0.233814 17.7205 0.307622 17.6046 0.402335 17.5063C0.483112 17.4255 0.588667 17.3659 0.680024 17.2955C0.781705 17.2113 0.873057 17.12 0.988931 17.0531H0.992544L34.7487 -2.38207C35.1761 -2.62802 35.6605 -2.75757 36.1537 -2.75757C36.6469 -2.75757 37.1313 -2.62802 37.5586 -2.38207L71.3148 17.0531H71.3218C71.4343 17.1236 71.529 17.2113 71.631 17.2921C71.7223 17.3623 71.8243 17.4255 71.905 17.5027C72.0034 17.6046 72.0736 17.7205 72.158 17.833C72.2176 17.9174 72.2984 17.991 72.3476 18.0823C72.4284 18.223 72.4741 18.3703 72.5304 18.518C72.5582 18.5987 72.6075 18.6726 72.6287 18.7569C72.6932 18.9962 72.7262 19.2429 72.727 19.4909V91.7067L100.856 75.51V38.5924C100.856 38.3467 100.891 38.0972 100.954 37.8618C100.979 37.7777 101.024 37.7039 101.053 37.6231C101.109 37.4755 101.158 37.3245 101.235 37.1875C101.288 37.0961 101.365 37.0223 101.425 36.9382C101.509 36.8257 101.58 36.7098 101.678 36.6114C101.759 36.5307 101.861 36.4708 101.952 36.4006C102.057 36.3165 102.149 36.2251 102.261 36.1583H102.264L136.025 16.7231C136.45 16.4769 136.936 16.3471 137.428 16.3471C137.921 16.3471 138.407 16.4769 138.835 16.7231L172.591 36.1583C172.71 36.2285 172.8 36.3165 172.906 36.3972C172.994 36.4674 173.097 36.5307 173.177 36.6078C173.275 36.7098 173.344 36.8257 173.43 36.9382C173.494 37.0223 173.572 37.0961 173.621 37.1875C173.701 37.3245 173.747 37.4755 173.801 37.6231C173.835 37.7039 173.879 37.7777 173.899 37.8618ZM168.371 75.51V43.461L156.559 50.2614L140.239 59.6576V91.7067L168.374 75.51H168.371ZM134.615 133.486V101.416L118.563 110.583L72.7234 136.745V169.118L134.615 133.486ZM5.21126 24.3558V133.486L67.0964 169.113V136.748L34.7663 118.452L34.7557 118.445L34.7418 118.438C34.6329 118.374 34.5415 118.283 34.4396 118.206C34.3518 118.136 34.2499 118.079 34.1727 118.002L34.1655 117.992C34.0741 117.904 34.0109 117.795 33.9337 117.696C33.8635 117.602 33.7792 117.521 33.7229 117.423L33.7195 117.412C33.6563 117.307 33.6176 117.18 33.5719 117.061C33.5262 116.955 33.4666 116.857 33.4385 116.745V116.741C33.4034 116.608 33.3964 116.467 33.3822 116.33C33.3683 116.225 33.3402 116.119 33.3402 116.014V40.5525L17.024 31.153L5.21126 24.3594V24.3558ZM36.1573 3.30147L8.03174 19.4909L36.1501 35.6806L64.272 19.4875L36.1501 3.30147H36.1573ZM50.7836 104.338L67.0997 94.9452V24.3558L55.287 31.1563L38.9672 40.5525V111.142L50.7836 104.338ZM137.428 22.4064L109.307 38.596L137.428 54.7857L165.548 38.5924L137.428 22.4064ZM134.615 59.6576L118.296 50.2614L106.483 43.461V75.51L122.798 84.9028L134.615 91.7067V59.6576ZM69.9063 131.881L111.155 108.332L131.774 96.5646L103.673 80.3855L71.3185 99.013L41.83 115.989L69.9063 131.881Z" fill="#FF2D20"/>
</g>
<defs>
<clipPath id="clip0_1878_1827">
<rect width="174" height="174" fill="white"/>
</clipPath>
</defs>
</svg>
