<svg width="174" height="174" viewBox="0 0 174 174" fill="none" xmlns="http://www.w3.org/2000/svg">
<g clip-path="url(#clip0_1878_1768)">
<path d="M117.045 106.412C116.881 106.412 116.72 106.454 116.578 106.536C116.436 106.618 116.319 106.736 116.237 106.879C116.155 107.02 116.112 107.181 116.111 107.345V131.155C116.111 131.387 116.003 131.597 115.8 131.714C115.701 131.771 115.588 131.801 115.473 131.801C115.359 131.801 115.246 131.771 115.147 131.714L111.256 129.474C110.972 129.308 110.65 129.223 110.322 129.223C109.995 129.223 109.673 129.308 109.389 129.474L93.859 138.436C93.2785 138.772 92.9255 139.416 92.9255 140.087V158.013C92.9255 158.682 93.279 159.296 93.859 159.631L109.389 168.593C109.673 168.759 109.995 168.844 110.322 168.844C110.65 168.844 110.973 168.759 111.256 168.593L126.787 159.631C127.071 159.467 127.305 159.23 127.472 158.946C127.635 158.663 127.72 158.341 127.72 158.013V113.321C127.72 112.985 127.63 112.655 127.461 112.365C127.292 112.076 127.049 111.836 126.754 111.671L117.512 106.505C117.367 106.424 117.206 106.409 117.045 106.412ZM17.1427 128.79C16.847 128.801 16.5684 128.852 16.3027 129.005L0.772564 137.97C0.48802 138.133 0.251766 138.368 0.0878052 138.652C-0.0761553 138.938 -0.161823 139.26 -0.161005 139.588L-0.129909 163.647C-0.129909 163.98 0.0427834 164.291 0.336876 164.454C0.47792 164.539 0.639424 164.583 0.803931 164.583C0.968437 164.583 1.12967 164.539 1.27072 164.454L10.4828 159.165C11.0663 158.818 11.4475 158.215 11.4475 157.544V146.31C11.4475 145.639 11.7999 145.025 12.3813 144.692L16.3024 142.419C16.5859 142.256 16.9083 142.168 17.2363 142.171C17.5563 142.171 17.885 142.25 18.1696 142.419L22.0912 144.692C22.3761 144.856 22.6123 145.09 22.7763 145.374C22.9405 145.66 23.0262 145.982 23.0251 146.31V157.544C23.0251 158.212 23.41 158.821 23.9898 159.165L33.2018 164.454C33.3429 164.539 33.5041 164.583 33.6686 164.583C33.8331 164.583 33.9946 164.539 34.1357 164.454C34.2775 164.373 34.3954 164.255 34.4775 164.113C34.5593 163.972 34.6027 163.808 34.6027 163.644L34.633 139.588C34.6349 139.26 34.5495 138.935 34.3853 138.652C34.2213 138.368 33.9848 138.131 33.6997 137.97L18.1696 129.005C17.9071 128.852 17.6278 128.801 17.3296 128.79H17.1427ZM156.695 129.005C156.371 129.005 156.052 129.087 155.76 129.256L140.231 138.218C139.947 138.382 139.71 138.619 139.546 138.903C139.383 139.186 139.295 139.508 139.298 139.836V157.762C139.298 158.436 139.677 159.047 140.261 159.383L155.667 168.159C156.237 168.481 156.93 168.508 157.503 168.189L166.841 162.992C167.136 162.826 167.338 162.52 167.338 162.182C167.341 162.018 167.297 161.857 167.215 161.713C167.133 161.571 167.013 161.453 166.871 161.372L151.247 152.41C150.955 152.243 150.751 151.905 150.751 151.569V145.969C150.751 145.633 150.958 145.325 151.247 145.158L156.103 142.357C156.245 142.275 156.406 142.231 156.57 142.231C156.734 142.231 156.895 142.275 157.036 142.357L161.893 145.158C162.034 145.24 162.152 145.358 162.234 145.499C162.315 145.641 162.359 145.802 162.359 145.966V150.385C162.359 150.552 162.4 150.713 162.485 150.855C162.566 150.997 162.684 151.114 162.826 151.196C163.117 151.365 163.469 151.365 163.759 151.196L173.064 145.78C173.348 145.617 173.585 145.382 173.749 145.096C173.913 144.812 173.997 144.49 174 144.163V139.836C174 139.17 173.645 138.554 173.064 138.218L157.628 129.256C157.345 129.09 157.023 129.005 156.695 129.005ZM110.26 142.389C110.341 142.389 110.437 142.408 110.509 142.449L115.831 145.532C115.976 145.614 116.08 145.769 116.08 145.936V152.099C116.08 152.265 115.977 152.421 115.831 152.502L110.509 155.585C110.438 155.623 110.358 155.645 110.276 155.645C110.194 155.645 110.114 155.623 110.043 155.585L104.721 152.502C104.576 152.418 104.472 152.265 104.472 152.099V145.936C104.472 145.769 104.576 145.617 104.721 145.532L110.043 142.452C110.108 142.411 110.183 142.389 110.261 142.389H110.26Z" fill="#404137"/>
<path d="M63.795 128.912C63.4714 128.912 63.1511 128.994 62.8614 129.163L47.3315 138.095C46.7505 138.428 46.3977 139.075 46.3977 139.743V157.67C46.3977 158.341 46.751 158.952 47.3315 159.287L62.8614 168.252C63.1449 168.416 63.4671 168.503 63.795 168.503C64.1229 168.503 64.4451 168.416 64.7288 168.252L80.2587 159.287C80.543 159.124 80.7789 158.889 80.9429 158.605C81.1069 158.322 81.1928 157.997 81.192 157.67V139.743C81.192 139.075 80.8392 138.428 80.2587 138.095L64.7288 129.163C64.4448 129 64.1226 128.912 63.795 128.912ZM156.663 144.91C156.603 144.91 156.532 144.91 156.477 144.94L153.49 146.683C153.433 146.716 153.386 146.76 153.353 146.814C153.321 146.869 153.304 146.932 153.302 146.994V150.418C153.302 150.546 153.378 150.666 153.49 150.729L156.477 152.442C156.589 152.508 156.709 152.508 156.818 152.442L159.805 150.729C159.863 150.699 159.909 150.653 159.942 150.598C159.975 150.544 159.991 150.484 159.994 150.418V146.994C159.991 146.932 159.975 146.869 159.942 146.814C159.909 146.76 159.863 146.716 159.805 146.683L156.818 144.94C156.764 144.907 156.725 144.91 156.663 144.91Z" fill="#83CD29"/>
<path d="M78.5758 5.15625C77.3684 5.15625 76.1939 5.4056 75.1545 5.99378L42.2625 24.9887C40.134 26.2155 38.8401 28.5314 38.8401 30.9957V68.9167C38.8401 71.3791 40.134 73.692 42.2625 74.9219L50.8523 79.8805C55.0261 81.9372 56.5645 81.9053 58.4638 81.9053C64.6427 81.9053 68.171 78.1558 68.171 71.6402V34.2076C68.171 33.6786 67.7127 33.3002 67.1935 33.3002H63.0732C62.5453 33.3002 62.096 33.6786 62.096 34.2076V71.6402C62.096 74.5276 59.0869 77.4328 54.2049 74.9917L45.2657 69.7542C44.9492 69.5824 44.7064 69.2787 44.7064 68.9167V30.9949C44.7064 30.6359 44.9462 30.2698 45.2657 30.0872L78.0878 11.1633C78.2359 11.0768 78.4048 11.031 78.5764 11.031C78.7482 11.031 78.9168 11.0768 79.065 11.1633L111.888 30.0883C112.201 30.2766 112.447 30.625 112.447 30.9968V68.9175C112.447 69.2796 112.265 69.6503 111.958 69.8252L79.065 88.7499C78.7837 88.918 78.3952 88.918 78.0878 88.7499L69.6377 83.7223C69.5089 83.6527 69.3651 83.6161 69.2186 83.6161C69.0724 83.6161 68.9286 83.6527 68.7999 83.7223C66.4676 85.0443 66.0289 85.1976 63.8409 85.9566C63.3024 86.1448 62.4842 86.437 64.1206 87.3542L75.1545 93.8477C76.1947 94.4479 77.3757 94.7614 78.5769 94.7562C79.7779 94.7638 80.9589 94.4503 81.9983 93.8488L114.891 74.9227C117.02 73.6852 118.313 71.3799 118.313 68.9175V30.9957C118.313 28.5325 117.02 26.2204 114.891 24.9906L81.9983 5.9957C80.9676 5.4067 79.7852 5.15734 78.5769 5.15734L78.5758 5.15625Z" fill="#83CD29"/>
<path d="M87.3754 32.2524C78.0092 32.2524 72.431 36.2388 72.431 42.8681C72.431 50.0584 77.9675 52.0347 86.9572 52.9238C97.7115 53.9768 98.549 55.5558 98.549 57.6729C98.549 61.3447 95.6217 62.9103 88.7032 62.9103C80.0095 62.9103 78.0995 60.7401 77.4598 56.416C77.3839 55.952 77.026 55.5774 76.5513 55.5774H72.2913C71.7673 55.5774 71.3138 56.0297 71.3138 56.5557C71.3138 62.0911 74.3246 68.6369 88.7032 68.6369C99.111 68.6369 105.114 64.5516 105.114 57.3932C105.114 50.2982 100.265 48.3929 90.1687 47.0583C79.9677 45.7081 78.9952 45.0471 78.9952 42.6583C78.9952 40.6862 79.8201 38.0481 87.3754 38.0481C94.1251 38.0481 96.6194 39.5041 97.6416 44.0551C97.7308 44.4824 98.1073 44.8229 98.549 44.8229H102.81C103.072 44.8229 103.326 44.6619 103.508 44.4736C103.686 44.2726 103.813 44.0464 103.787 43.7755C103.127 35.939 97.9016 32.2524 87.3754 32.2524Z" fill="#83CD29"/>
</g>
<defs>
<clipPath id="clip0_1878_1768">
<rect width="174" height="174" fill="white"/>
</clipPath>
</defs>
</svg>
