<svg width="174" height="174" viewBox="0 0 174 174" fill="none" xmlns="http://www.w3.org/2000/svg">
<g clip-path="url(#clip0_1878_1762)">
<path d="M85.9558 -0.562012C41.573 -0.562012 44.3444 18.6848 44.3444 18.6848L44.3935 38.6254H86.7473V44.612H27.5713C27.5713 44.612 -0.829102 41.3911 -0.829102 86.173C-0.829102 130.956 23.9596 129.369 23.9596 129.369H38.7533V108.587C38.7533 108.587 37.9557 83.798 63.1465 83.798H105.154C105.154 83.798 128.755 84.1794 128.755 60.9886V22.6438C128.755 22.6438 132.34 -0.562012 85.9558 -0.562012ZM62.6021 12.8475C63.603 12.8464 64.594 13.043 65.519 13.4255C66.4439 13.8082 67.2843 14.3695 67.9919 15.0772C68.6996 15.7848 69.2606 16.6252 69.6433 17.5499C70.0261 18.4748 70.2224 19.4661 70.2216 20.4668C70.2224 21.4677 70.0261 22.459 69.6433 23.3837C69.2606 24.3086 68.6996 25.1489 67.9919 25.8566C67.2843 26.5643 66.4439 27.1253 65.519 27.508C64.594 27.8907 63.603 28.0871 62.6021 28.0863C61.6014 28.0871 60.6101 27.8907 59.6852 27.508C58.7605 27.1253 57.9201 26.5643 57.2125 25.8566C56.5048 25.1489 55.9435 24.3086 55.5608 23.3837C55.1783 22.459 54.9817 21.4677 54.9828 20.4668C54.9817 19.4661 55.1783 18.4748 55.5608 17.5499C55.9435 16.6252 56.5048 15.7848 57.2125 15.0772C57.9201 14.3695 58.7605 13.8082 59.6852 13.4255C60.6101 13.043 61.6014 12.8464 62.6021 12.8475Z" fill="url(#paint0_linear_1878_1762)"/>
<path d="M87.2167 173.358C131.599 173.358 128.827 154.112 128.827 154.112L128.779 134.171H86.4247V128.185H145.602C145.602 128.185 174 131.405 174 86.6225C174 41.8398 149.211 43.4281 149.211 43.4281H134.419V64.2087C134.419 64.2087 135.216 88.9974 110.026 88.9974H68.0182C68.0182 88.9974 44.4174 88.6161 44.4174 111.808V150.154C44.4174 150.154 40.8333 173.358 87.2159 173.358H87.2167ZM110.57 159.951C109.569 159.951 108.578 159.755 107.654 159.371C106.729 158.989 105.889 158.428 105.181 157.722C104.473 157.013 103.912 156.172 103.529 155.248C103.147 154.322 102.95 153.331 102.951 152.332C102.95 151.33 103.146 150.339 103.529 149.415C103.912 148.488 104.473 147.648 105.181 146.942C105.888 146.232 106.729 145.671 107.653 145.29C108.578 144.906 109.569 144.71 110.57 144.71C111.571 144.71 112.562 144.906 113.487 145.29C114.412 145.671 115.252 146.232 115.96 146.942C116.668 147.648 117.229 148.488 117.612 149.412C117.994 150.339 118.191 151.33 118.19 152.329C118.191 153.331 117.994 154.322 117.612 155.248C117.229 156.172 116.668 157.013 115.96 157.719C115.252 158.428 114.412 158.989 113.487 159.371C112.562 159.755 111.571 159.951 110.57 159.951Z" fill="url(#paint1_linear_1878_1762)"/>
</g>
<defs>
<linearGradient id="paint0_linear_1878_1762" x1="15.9719" y1="15.0809" x2="102.612" y2="100.857" gradientUnits="userSpaceOnUse">
<stop stop-color="#387EB8"/>
<stop offset="1" stop-color="#366994"/>
</linearGradient>
<linearGradient id="paint1_linear_1878_1762" x1="69.1521" y1="70.161" x2="162.194" y2="158.117" gradientUnits="userSpaceOnUse">
<stop stop-color="#FFE052"/>
<stop offset="1" stop-color="#FFC331"/>
</linearGradient>
<clipPath id="clip0_1878_1762">
<rect width="174" height="174" fill="white"/>
</clipPath>
</defs>
</svg>
