<svg width="174" height="174" viewBox="0 0 174 174" fill="none" xmlns="http://www.w3.org/2000/svg">
<path d="M86.7464 131C133.584 131 171.555 111.236 171.555 86.8544C171.555 62.473 133.584 42.708 86.7464 42.708C39.9083 42.708 1.9386 62.473 1.9386 86.8544C1.9386 111.236 39.9083 131 86.7464 131Z" fill="#8993BE"/>
<path fill-rule="evenodd" clip-rule="evenodd" d="M25.7544 112.994L35.0488 65.9427H56.5403C65.8339 66.5239 70.4812 71.1703 70.4812 79.3032C70.4812 93.2442 59.4449 101.376 49.5695 100.795H39.1149L36.7912 112.994H25.7544ZM41.4378 92.0827L44.3425 74.6561H51.8937C55.9598 74.6561 58.8639 76.3986 58.8639 79.8837C58.2834 89.7591 53.6363 91.5017 48.4087 92.0827H41.4385H41.4378ZM68.3219 100.795L77.6157 53.7451H88.6526L86.3289 65.9427H96.7843C106.079 66.5239 109.564 71.1703 108.402 76.9798L104.336 100.795H92.7187L96.7848 79.3032C97.3653 76.3986 97.3653 74.6561 93.2999 74.6561H84.5865L79.3589 100.795H68.3219ZM103.592 112.994L112.886 65.9427H134.378C143.672 66.5239 148.32 71.1703 148.32 79.3032C148.32 93.2442 137.282 101.376 127.408 100.795H116.952L114.629 112.994H103.592ZM119.275 92.0827L122.179 74.6561H129.732C133.798 74.6561 136.702 76.3986 136.702 79.8837C136.121 89.7591 131.474 91.5017 126.247 92.0827H119.275Z" fill="#232531"/>
</svg>
