<svg width="174" height="174" viewBox="0 0 174 174" fill="none" xmlns="http://www.w3.org/2000/svg">
<path d="M87.5 103C96.0604 103 103 95.8366 103 87C103 78.1634 96.0604 71 87.5 71C78.9396 71 72 78.1634 72 87C72 95.8366 78.9396 103 87.5 103Z" fill="#00D8FF"/>
<path d="M87.5012 55C108.417 55 127.851 58.0182 142.497 63.0893C160.148 69.2072 171 78.4588 171 86.8438C171 95.5856 159.506 105.422 140.543 111.737C126.212 116.495 107.356 119 87.4945 119C67.1465 119 47.8635 116.662 33.3742 111.683C15.0411 105.388 4 95.4191 4 86.854C4 78.5336 14.3616 69.3465 31.765 63.2456C46.4741 58.0828 66.3859 55 87.5046 55H87.5012Z" stroke="#00D8FF" stroke-width="5" stroke-miterlimit="10"/>
<path d="M59.3456 71.0951C69.8485 52.9377 82.2244 37.5723 93.9714 27.3874C108.135 15.1052 121.6 10.3041 128.869 14.4716C136.439 18.8288 139.185 33.7064 135.133 53.3104C132.073 68.127 124.756 85.732 114.784 102.981C104.563 120.643 92.8565 136.217 81.2624 146.316C66.5991 159.097 52.4116 163.722 44.9915 159.453C37.7856 155.309 35.0222 141.74 38.4858 123.589C41.4055 108.253 48.7372 89.4353 59.3456 71.1052V71.0951Z" stroke="#00D8FF" stroke-width="5" stroke-miterlimit="10"/>
<path d="M59.2634 102.901C48.7549 84.7558 41.5989 66.3833 38.6159 51.1361C35.0226 32.7669 37.5684 18.7231 44.7989 14.5266C52.3414 10.1707 66.6126 15.2283 81.5754 28.5229C92.8975 38.5736 104.521 53.692 114.501 70.9222C124.731 88.593 132.397 106.484 135.38 121.568C139.152 140.629 136.099 155.193 128.697 159.473C121.518 163.628 108.382 159.229 94.3721 147.176C82.5382 136.968 69.8737 121.229 59.2634 102.901Z" stroke="#00D8FF" stroke-width="5" stroke-miterlimit="10"/>
</svg>
