<svg width="174" height="174" viewBox="0 0 174 174" fill="none" xmlns="http://www.w3.org/2000/svg">
<g clip-path="url(#clip0_1878_1488)">
<path d="M173.988 47.7542C173.976 45.9982 173.959 44.243 173.909 42.4849C173.806 38.6605 173.58 34.8015 172.9 31.018C172.212 27.1758 171.083 23.6031 169.308 20.1127C167.561 16.685 165.283 13.5483 162.563 10.8283C159.844 8.10818 156.707 5.82822 153.276 4.08305C149.789 2.30817 146.217 1.18098 142.377 0.491254C138.591 -0.19053 134.733 -0.415139 130.906 -0.518627C129.147 -0.566255 127.392 -0.586244 125.636 -0.597122C123.551 -0.608882 121.465 -0.608887 119.38 -0.608887H73.1589H54.0105C51.924 -0.608887 49.8398 -0.608884 47.7554 -0.59683C45.9982 -0.585952 44.2406 -0.565963 42.4861 -0.518335C41.5294 -0.492464 40.5706 -0.458947 39.6113 -0.41279C36.7337 -0.274022 33.8516 -0.0197186 31.0139 0.491545C28.1348 1.00898 25.4047 1.77221 22.7487 2.87029C21.8635 3.23603 20.9862 3.6394 20.1142 4.08305C17.5423 5.39193 15.1344 7.00157 12.9445 8.87199C12.2145 9.49556 11.5086 10.1479 10.8288 10.828C8.10817 13.548 5.82791 16.6847 4.08362 20.1125C2.30669 23.6028 1.18068 27.1755 0.490369 31.0177C-0.188768 34.8012 -0.414559 38.6602 -0.517459 42.4846C-0.565675 44.2427 -0.585968 45.9979 -0.597434 47.7539C-0.610664 49.8395 -0.608896 51.9255 -0.608896 54.0105V82.4752V119.379C-0.608896 121.466 -0.610958 123.55 -0.597434 125.637C-0.585968 127.392 -0.565675 129.148 -0.517459 130.903C-0.414559 134.731 -0.189062 138.591 0.490369 142.372C1.18068 146.214 2.30669 149.789 4.08362 153.279C5.82791 156.707 8.10817 159.844 10.8288 162.56C13.5474 165.283 16.685 167.561 20.1145 169.308C23.6022 171.084 27.1752 172.21 31.0148 172.9C34.798 173.58 38.6599 173.806 42.4863 173.909C44.2409 173.956 45.9984 173.976 47.7557 173.988C49.8401 174.003 51.9243 174 54.0108 174H119.38C121.465 174 123.551 174.003 125.636 173.988C127.392 173.976 129.147 173.956 130.906 173.909C134.733 173.806 138.591 173.58 142.377 172.9C146.217 172.21 149.789 171.084 153.276 169.308C156.707 167.561 159.844 165.283 162.563 162.56C165.283 159.844 167.561 156.707 169.308 153.279C171.083 149.789 172.212 146.214 172.9 142.372C173.58 138.591 173.806 134.731 173.909 130.903C173.956 129.148 173.976 127.395 173.988 125.637C174 123.55 174 121.466 174 119.379V54.0105C174 51.9255 174 49.8396 173.988 47.7542Z" fill="#F05138"/>
<path d="M137.75 107.173C137.744 107.168 137.741 107.164 137.735 107.159C137.929 106.502 138.129 105.848 138.297 105.175C145.544 76.3012 127.857 42.165 97.9268 24.1914C111.043 41.9722 116.842 63.5087 111.69 82.3429C111.23 84.0228 110.678 85.6351 110.067 87.2021C109.405 86.7667 108.57 86.2725 107.448 85.6542C107.448 85.6542 77.6753 67.2713 45.4063 34.7565C44.5595 33.9031 62.6134 60.5608 83.1025 82.2077C73.4493 76.7901 46.5473 57.2166 29.5165 41.6291C31.6089 45.1185 34.0976 48.4786 36.8332 51.7135C51.0554 69.75 69.603 92.0043 91.8237 109.093C76.2112 118.647 54.1504 119.39 32.1854 109.103C26.7526 106.557 21.6453 103.485 16.9175 99.9946C26.2152 114.867 40.535 127.698 57.9635 135.189C78.7478 144.121 99.4162 143.515 114.81 135.336L114.798 135.354C114.868 135.31 114.958 135.26 115.03 135.216C115.663 134.875 116.29 134.528 116.904 134.163C124.3 130.324 138.908 126.431 146.749 141.687C148.669 145.42 152.75 125.633 137.75 107.173Z" fill="white"/>
</g>
<defs>
<clipPath id="clip0_1878_1488">
<rect width="174" height="174" fill="white"/>
</clipPath>
</defs>
</svg>
