<svg width="174" height="174" viewBox="0 0 174 174" fill="none" xmlns="http://www.w3.org/2000/svg">
<path d="M109.583 3.36773C94.5723 1.895 78.6036 1.895 61.8366 3.36773C57.3654 3.36773 53.6926 6.47636 53.3731 10.4033C52.7344 24.9655 52.2553 40.5093 48.2632 41.0001H123.316C118.684 38.8729 118.525 24.311 118.046 10.4033C117.886 6.64003 114.054 3.36773 109.583 3.36773Z" fill="#024D81"/>
<path d="M61.8366 170.633C76.8471 172.105 92.8156 172.105 109.583 170.633C114.054 170.633 117.727 167.524 118.046 163.597C118.844 149.035 119.324 133.491 123.316 133H48.2632C52.8942 135.128 53.0537 149.688 53.5328 163.597C53.5328 167.36 57.3654 170.633 61.8366 170.633Z" fill="#024D81"/>
<path d="M130.579 122.72C130.579 129.705 124.819 135.421 117.782 135.421H53.797C46.7587 135.421 41 129.705 41 122.72V51.2795C41 44.2942 46.7587 38.5789 53.797 38.5789H117.782C124.819 38.5789 130.579 44.2942 130.579 51.2795V122.72Z" fill="#D2D2D6"/>
<path d="M52.9191 133C47.6952 133 43.421 128.642 43.421 123.316V50.6842C43.421 45.3579 47.6952 41 52.9191 41H116.239C121.464 41 125.737 45.3579 125.737 50.6842V123.316C125.737 128.642 121.464 133 116.239 133H52.9191Z" fill="#323235"/>
<path d="M116.053 50.6843H53.1052V123.316H116.053V50.6843Z" fill="#D1D1F1"/>
<path d="M130.579 89.4211H128.158V118.474H130.579V89.4211Z" fill="#CDCDD5"/>
<path d="M129.55 77.3159H129.368C131.366 77.3159 133 75.8633 133 74.0879V61.1755C133 59.4001 131.366 57.9475 129.368 57.9475H129.55C127.371 57.9475 125.737 59.4001 125.737 61.337V73.9265C125.737 75.8633 127.371 77.3159 129.55 77.3159Z" fill="#CDCDD5"/>
<path opacity="0.1" d="M128.042 73.9265V61.337C128.042 59.5616 127.812 57.9475 130.579 57.9475C130.579 57.9475 130.579 57.9475 130.349 57.9475H130.579C127.812 57.9475 125.737 59.4001 125.737 61.337V73.9265C125.737 75.8633 127.812 77.3159 130.579 77.3159H130.349C130.349 77.3159 130.349 77.3159 130.579 77.3159C127.812 77.3159 128.042 75.8633 128.042 73.9265Z" fill="black"/>
<path d="M133 66.0623H129.826V67.6485H133V66.0623Z" fill="#D1D1F1"/>
<path d="M133 62.8894H129.826V64.4754H133V62.8894Z" fill="#D1D1F1"/>
<path d="M133 59.717H129.826V61.3031H133V59.717Z" fill="#D1D1F1"/>
<path d="M133 69.2346H129.826V70.8209H133V69.2346Z" fill="#D1D1F1"/>
<path d="M133 72.407H129.826V73.9933H133V72.407Z" fill="#D1D1F1"/>
</svg>
