<svg width="90" height="90" viewBox="0 0 90 90" fill="none" xmlns="http://www.w3.org/2000/svg">
<path d="M46.9633 21.5392V22.2406L47.6229 22.4794C51.2623 23.7972 53.88 27.2414 53.88 31.2917C53.88 36.4802 49.6935 40.6667 44.505 40.6667C39.3165 40.6667 35.13 36.4802 35.13 31.2917C35.13 27.2414 37.7477 23.7972 41.3871 22.4794L42.0467 22.2406V21.5392V15H46.9633V21.5392ZM35.3693 42.9583C36.6694 43.9747 38.1376 44.7706 39.7412 45.3024L30.6079 70.3611L26.6332 74.1396L26.02 68.6936L35.3693 42.9583ZM58.4021 70.3611L49.2676 45.2992C50.856 44.7674 52.335 43.9723 53.6413 42.9553L63.0238 68.692L62.3848 74.1473L58.4021 70.3611ZM40.0467 31.2917C40.0467 33.746 42.0506 35.75 44.505 35.75C46.9594 35.75 48.9633 33.746 48.9633 31.2917C48.9633 28.8373 46.9594 26.8333 44.505 26.8333C42.0506 26.8333 40.0467 28.8373 40.0467 31.2917Z" stroke="#024D81" stroke-width="2"/>
</svg>
