<svg width="90" height="90" viewBox="0 0 90 90" fill="none" xmlns="http://www.w3.org/2000/svg">
<path d="M69.0022 28.2104L69.0023 28.2106C69.642 28.844 69.9997 29.7012 70 30.5931C70 30.5932 70 30.5933 70 30.5933V71.25C70 73.3023 69.177 75.2726 67.709 76.7267C66.2407 78.1812 64.2472 79 62.1667 79H26.8333C24.7528 79 22.7593 78.1812 21.291 76.7267C19.823 75.2726 19 73.3024 19 71.25V18.75C19 16.6976 19.823 14.7274 21.291 13.2733C22.7593 11.8188 24.7528 11 26.8333 11H50.2105C50.2106 11 50.2107 11 50.2108 11C51.1198 11.0002 51.9896 11.3582 52.6295 11.9922L52.6296 11.9923L69.0022 28.2104ZM51.8287 15.852L50.125 14.1644V16.5625V25.3125C50.125 26.7411 50.698 28.1093 51.7149 29.1165C52.7314 30.1235 54.1081 30.6875 55.5417 30.6875H64.375H66.8055L65.0787 28.9771L51.8287 15.852ZM32.4583 35.1123L31.5301 34.5813L31.5301 34.5813L31.5243 34.5781C30.7888 34.1638 29.919 34.055 29.1038 34.2742C28.2884 34.4935 27.5909 35.0241 27.1657 35.7537C26.7403 36.4835 26.6231 37.3517 26.8409 38.168C27.0588 38.9841 27.5928 39.6788 28.3231 40.1029L28.3231 40.1029L28.3288 40.1062L29.2359 40.625L28.3345 41.1406C28.3335 41.1412 28.3324 41.1417 28.3314 41.1423C27.9652 41.3491 27.6431 41.6258 27.3839 41.9569C27.124 42.289 26.9326 42.6693 26.8211 43.076C26.7096 43.4827 26.6805 43.9074 26.7353 44.3256C26.7902 44.7437 26.9279 45.1465 27.1403 45.5108C27.3527 45.8752 27.6353 46.1937 27.9715 46.4483C28.3077 46.703 28.6909 46.8889 29.0989 46.9957C29.5069 47.1026 29.9321 47.1284 30.3501 47.0718C30.7668 47.0154 31.1686 46.878 31.5324 46.6673C31.5336 46.6667 31.5347 46.666 31.5358 46.6654L32.4583 46.1377V47.1875C32.4583 48.036 32.7987 48.8477 33.4014 49.4447C34.0038 50.0415 34.8188 50.375 35.6667 50.375C36.5145 50.375 37.3295 50.0415 37.9319 49.4447C38.5347 48.8477 38.875 48.036 38.875 47.1875V46.1377L39.7976 46.6654C39.7987 46.666 39.7998 46.6667 39.8009 46.6673C40.1647 46.878 40.5665 47.0154 40.9832 47.0718C41.4012 47.1284 41.8264 47.1026 42.2344 46.9957C42.6424 46.8889 43.0256 46.703 43.3618 46.4483C43.698 46.1937 43.9807 45.8752 44.193 45.5108C44.4054 45.1465 44.5432 44.7437 44.598 44.3256C44.6529 43.9074 44.6237 43.4827 44.5122 43.076C44.4008 42.6693 44.2093 42.289 43.9494 41.9569C43.6902 41.6258 43.3682 41.3491 43.002 41.1423C43.0009 41.1417 42.9999 41.1412 42.9988 41.1406L42.0975 40.625L42.9988 40.1094C42.9999 40.1088 43.0009 40.1083 43.002 40.1077C43.3682 39.9009 43.6902 39.6242 43.9494 39.2931C44.2093 38.961 44.4008 38.5807 44.5122 38.174C44.6237 37.7673 44.6529 37.3426 44.598 36.9244C44.5432 36.5063 44.4054 36.1035 44.193 35.7392C43.9807 35.3748 43.698 35.0563 43.3618 34.8017C43.0256 34.547 42.6424 34.3611 42.2344 34.2543C41.8264 34.1474 41.4012 34.1216 40.9832 34.1782C40.5664 34.2347 40.1645 34.372 39.8006 34.5828C39.7996 34.5834 39.7986 34.584 39.7976 34.5846L38.875 35.1123V34.0625C38.875 33.214 38.5347 32.4023 37.9319 31.8053C37.3295 31.2085 36.5145 30.875 35.6667 30.875C34.8188 30.875 34.0038 31.2085 33.4014 31.8053C32.7987 32.4023 32.4583 33.214 32.4583 34.0625V35.1123ZM51.125 52.75H29.0417C28.1938 52.75 27.3788 53.0835 26.7764 53.6803C26.1737 54.2773 25.8333 55.089 25.8333 55.9375C25.8333 56.786 26.1737 57.5977 26.7764 58.1947C27.3788 58.7915 28.1938 59.125 29.0417 59.125H51.125C51.9729 59.125 52.7879 58.7915 53.3903 58.1947C53.993 57.5977 54.3333 56.786 54.3333 55.9375C54.3333 55.089 53.993 54.2773 53.3903 53.6803C52.7879 53.0835 51.9729 52.75 51.125 52.75ZM51.125 61.5H29.0417C28.1938 61.5 27.3788 61.8335 26.7764 62.4303C26.1737 63.0273 25.8333 63.839 25.8333 64.6875C25.8333 65.536 26.1737 66.3477 26.7764 66.9447C27.3788 67.5415 28.1938 67.875 29.0417 67.875H51.125C51.9729 67.875 52.7879 67.5415 53.3903 66.9447C53.993 66.3477 54.3333 65.536 54.3333 64.6875C54.3333 63.839 53.993 63.0273 53.3903 62.4303C52.7879 61.8335 51.9729 61.5 51.125 61.5Z" stroke="white" stroke-width="2"/>
</svg>
