<svg width="90" height="90" viewBox="0 0 90 90" fill="none" xmlns="http://www.w3.org/2000/svg">
<path d="M75.4886 60.1285C72.0452 58.1418 67.8484 58.6748 65.0209 61.1622L60.7268 58.6829V46.4321C60.7268 45.1642 60.0463 43.9851 58.9444 43.3552L47.9257 37.0319V31.6131C51.5068 30.4018 54.0832 27.0261 54.0832 23.0448C54.0832 18.0459 50.0241 14 45.009 14C39.9939 14 35.9349 18.0459 35.9349 23.0448C35.9349 27.0261 38.5113 30.4018 42.0923 31.6131V37.0319L31.0737 43.3552C29.9718 43.9851 29.2913 45.1642 29.2913 46.4321V58.6748L24.9972 61.1541C22.1696 58.6668 17.9647 58.1338 14.5295 60.1204C10.195 62.6239 8.7204 68.1477 11.2077 72.4682C13.7031 76.7887 19.2205 78.2746 23.5389 75.7792C26.9822 73.7926 28.6188 69.8839 27.8815 66.1853L31.8272 63.8998L43.2185 70.4412C43.7694 70.7561 44.3852 70.9176 45.0009 70.9176C45.6167 70.9176 46.2324 70.7561 46.7834 70.4412L58.1666 63.9079L62.1123 66.1933C61.375 69.8839 63.0197 73.8006 66.4549 75.7873C70.7732 78.2827 76.2988 76.8048 78.7861 72.4762C81.2815 68.1477 79.8069 62.6239 75.4886 60.1285ZM20.9624 71.3053C20.5224 71.5593 20.0363 71.7241 19.5321 71.7901C19.0278 71.8562 18.5155 71.8222 18.0245 71.6901C17.5336 71.558 17.0737 71.3304 16.6713 71.0204C16.2689 70.7104 15.932 70.3242 15.68 69.8839C14.6105 68.0346 15.2425 65.6603 17.0978 64.5943C17.5379 64.3403 18.024 64.1755 18.5282 64.1095C19.0324 64.0434 19.5448 64.0774 20.0357 64.2095C20.5267 64.3416 20.9866 64.5692 21.389 64.8792C21.7914 65.1892 22.1283 65.5754 22.3803 66.0157C23.4497 67.865 22.8178 70.2393 20.9624 71.3053ZM41.112 23.0448C41.1328 22.0304 41.5516 21.0646 42.2787 20.3545C43.0057 19.6445 43.9831 19.2468 45.0009 19.2468C46.0188 19.2468 46.9961 19.6445 47.7232 20.3545C48.4502 21.0646 48.8691 22.0304 48.8899 23.0448C48.8691 24.0592 48.4502 25.025 47.7232 25.7351C46.9961 26.4451 46.0188 26.8428 45.0009 26.8428C43.9831 26.8428 43.0057 26.4451 42.2787 25.7351C41.5516 25.025 41.1328 24.0592 41.112 23.0448ZM54.8853 59.0786L45.0009 64.7559L35.1166 59.0786V47.7403L45.0009 42.0631L54.8853 47.7403V59.0786ZM74.3219 69.892C73.2524 71.7413 70.8867 72.3793 69.0394 71.3133C67.1922 70.2473 66.5521 67.8731 67.6216 66.0237C68.691 64.1744 71.0568 63.5364 72.9041 64.6024C74.7594 65.6684 75.3914 68.0346 74.3219 69.892Z" stroke="#024D81" stroke-width="2"/>
</svg>
