<svg width="90" height="90" viewBox="0 0 90 90" fill="none" xmlns="http://www.w3.org/2000/svg">
<path d="M65.1424 62.3871L64.5208 62.0282L60.2268 59.5489L59.7268 59.2603V58.6829V46.4321C59.7268 45.5213 59.237 44.6744 58.4481 44.2234L58.4467 44.2225L47.428 37.8993L46.9257 37.611V37.0319V31.6131V30.8957L47.6053 30.6659C50.7944 29.5871 53.0832 26.5825 53.0832 23.0448C53.0832 18.6013 49.4749 15 45.009 15C40.5431 15 36.9349 18.6013 36.9349 23.0448C36.9349 26.5825 39.2237 29.5871 42.4128 30.6659L43.0923 30.8957V31.6131V37.0319V37.611L42.5901 37.8993L31.5714 44.2225L31.57 44.2234C30.7811 44.6744 30.2913 45.5213 30.2913 46.4321V58.6748V59.2522L29.7913 59.5409L25.4972 62.0201L24.8756 62.379L24.3367 61.9049C21.8218 59.6926 18.0828 59.2207 15.0301 60.9861L15.0296 60.9863C11.1735 63.2135 9.86247 68.1256 12.0736 71.968L65.1424 62.3871ZM65.1424 62.3871L65.6813 61.913M65.1424 62.3871L65.6813 61.913M65.6813 61.913C68.196 59.7009 71.9274 59.2283 74.9888 60.9946C78.8272 63.2131 80.1403 68.1249 77.9197 71.9768L77.919 71.978C75.7079 75.8259 70.7956 77.1406 66.9552 74.9214C63.9017 73.1554 62.4371 69.6717 63.0929 66.3892L63.2332 65.687L62.6135 65.328L58.6678 63.0426L58.1689 62.7536L57.6688 63.0406L46.2871 69.573C46.2867 69.5732 46.2864 69.5734 46.286 69.5736C45.8861 69.802 45.4417 69.9176 45.0009 69.9176C44.5601 69.9176 44.1157 69.802 43.7157 69.5735C43.7154 69.5733 43.7151 69.5732 43.7148 69.573L32.3251 63.0326L31.825 62.7454L31.3259 63.0345L27.3803 65.3199L26.7609 65.6787L26.9008 66.3807C27.557 69.6728 26.0991 73.1476 23.0391 74.913L23.0385 74.9134M65.6813 61.913L23.0385 74.9134M23.0385 74.9134C19.2002 77.1314 14.2938 75.8119 12.0737 71.9681L23.0385 74.9134ZM40.1122 23.0243L40.1118 23.0448L40.1122 23.0653C40.1384 24.3423 40.6657 25.5576 41.58 26.4505C42.4942 27.3433 43.7224 27.8428 45.0009 27.8428C46.2795 27.8428 47.5077 27.3433 48.4219 26.4505C49.3362 25.5576 49.8635 24.3423 49.8897 23.0653L49.8901 23.0448L49.8897 23.0243C49.8635 21.7473 49.3362 20.532 48.4219 19.6391C47.5077 18.7463 46.2795 18.2468 45.0009 18.2468C43.7224 18.2468 42.4942 18.7463 41.58 19.6391C40.6657 20.532 40.1384 21.7473 40.1122 23.0243ZM55.3834 59.9458L55.8853 59.6575V59.0786V47.7403V47.1615L55.3834 46.8732L45.499 41.196L45.0009 40.9099L44.5029 41.196L34.6185 46.8732L34.1166 47.1615V47.7403V59.0786V59.6575L34.6185 59.9458L44.5029 65.623L45.0009 65.9091L45.499 65.623L55.3834 59.9458ZM75.1876 70.3926L75.1885 70.391C76.5317 68.0582 75.7401 65.0798 73.4039 63.7363C71.0762 62.393 68.1003 63.1984 66.7559 65.5231C65.4091 67.8522 66.215 70.838 68.5396 72.1795C70.8673 73.5227 73.8432 72.7174 75.1876 70.3926ZM19.6619 72.7817C20.2961 72.6986 20.9077 72.4914 21.4615 72.1718C23.7971 70.8293 24.5907 67.8433 23.2473 65.5174C22.9297 64.9631 22.5056 64.477 21.9993 64.087C21.4925 63.6966 20.9135 63.4101 20.2955 63.2439C19.6776 63.0776 19.0329 63.0348 18.3983 63.1179C17.7642 63.201 17.1526 63.4082 16.5987 63.7278C14.2631 65.0704 13.4696 68.0564 14.813 70.3823C15.1306 70.9366 15.5547 71.4226 16.061 71.8126C16.5678 72.203 17.1468 72.4895 17.7647 72.6557C18.3826 72.822 19.0274 72.8648 19.6619 72.7817Z" stroke="#024D81" stroke-width="2"/>
</svg>
