<svg width="90" height="90" viewBox="0 0 90 90" fill="none" xmlns="http://www.w3.org/2000/svg">
<path d="M24.0179 25.7413C24.0179 26.2978 23.7968 26.8315 23.4033 27.2249C23.0098 27.6184 22.4761 27.8395 21.9196 27.8395C21.3632 27.8395 20.8295 27.6184 20.436 27.2249C20.0425 26.8315 19.8214 26.2978 19.8214 25.7413C19.8214 25.1848 20.0425 24.6511 20.436 24.2576C20.8295 23.8641 21.3632 23.6431 21.9196 23.6431C22.4761 23.6431 23.0098 23.8641 23.4033 24.2576C23.7968 24.6511 24.0179 25.1848 24.0179 25.7413ZM30.3125 25.7413C30.3125 26.2978 30.0914 26.8315 29.6979 27.2249C29.3045 27.6184 28.7708 27.8395 28.2143 27.8395C27.6578 27.8395 27.1241 27.6184 26.7306 27.2249C26.3371 26.8315 26.1161 26.2978 26.1161 25.7413C26.1161 25.1848 26.3371 24.6511 26.7306 24.2576C27.1241 23.8641 27.6578 23.6431 28.2143 23.6431C28.7708 23.6431 29.3045 23.8641 29.6979 24.2576C30.0914 24.6511 30.3125 25.1848 30.3125 25.7413ZM34.5089 27.8395C35.0654 27.8395 35.5991 27.6184 35.9926 27.2249C36.3861 26.8315 36.6071 26.2978 36.6071 25.7413C36.6071 25.1848 36.3861 24.6511 35.9926 24.2576C35.5991 23.8641 35.0654 23.6431 34.5089 23.6431C33.9524 23.6431 33.4188 23.8641 33.0253 24.2576C32.6318 24.6511 32.4107 25.1848 32.4107 25.7413C32.4107 26.2978 32.6318 26.8315 33.0253 27.2249C33.4188 27.6184 33.9524 27.8395 34.5089 27.8395Z" fill="#024D81"/>
<path d="M13.5268 15.25C12.9703 15.25 12.4366 15.4711 12.0431 15.8646C11.6496 16.258 11.4286 16.7917 11.4286 17.3482V71.9018C11.4286 72.4583 11.6496 72.992 12.0431 73.3855C12.4366 73.7789 12.9703 74 13.5268 74H76.4732C77.0297 74 77.5634 73.7789 77.9569 73.3855C78.3504 72.992 78.5714 72.4583 78.5714 71.9018V17.3482C78.5714 16.7917 78.3504 16.258 77.9569 15.8646C77.5634 15.4711 77.0297 15.25 76.4732 15.25H13.5268ZM15.625 32.0357V19.4464H74.375V32.0357H15.625ZM15.625 36.2321H74.375V69.8036H15.625V36.2321Z" stroke="#024D81" stroke-width="2"/>
<path d="M52.8 60.0542L60.3077 53.0828L52.8 46.1113" stroke="#024D81" stroke-width="2" stroke-linecap="square" stroke-linejoin="round"/>
<path d="M37.5077 46.1113L30 53.0827L37.5077 60.0542" stroke="#024D81" stroke-width="2" stroke-linecap="square" stroke-linejoin="round"/>
<path d="M47.9504 43.0001L41.7345 63.6155" stroke="#024D81" stroke-width="2" stroke-linecap="square"/>
</svg>
