<svg width="90" height="90" viewBox="0 0 90 90" fill="none" xmlns="http://www.w3.org/2000/svg">
<g clip-path="url(#clip0_143_282)">
<mask id="path-1-inside-1_143_282" fill="white">
<path d="M29.7546 35C29.9604 35 30.1445 35.1281 30.2138 35.3199L30.708 36.6898C30.885 36.7339 31.0369 36.778 31.1657 36.8242C31.3064 36.8746 31.4877 36.9509 31.7117 37.0552L32.8625 36.4462C32.9564 36.3964 33.0639 36.3785 33.169 36.395C33.274 36.4115 33.3708 36.4617 33.4449 36.5379L34.457 37.5844C34.5914 37.7237 34.6292 37.9274 34.5536 38.1052L34.0139 39.37C34.1035 39.5345 34.1749 39.6752 34.2295 39.7928C34.2883 39.9209 34.3611 40.0973 34.4479 40.3248L35.7058 40.8638C35.8948 40.9443 36.0117 41.1333 35.9991 41.3356L35.9067 42.7881C35.9004 42.8825 35.8665 42.9729 35.8092 43.0482C35.752 43.1235 35.6739 43.1803 35.5847 43.2116L34.3933 43.6351C34.359 43.7996 34.3233 43.9403 34.2855 44.0593C34.2246 44.2431 34.155 44.4239 34.0769 44.6011L34.6754 45.9241C34.7177 46.017 34.729 46.1211 34.7079 46.2209C34.6867 46.3208 34.6341 46.4113 34.5578 46.4792L33.4197 47.4956C33.3447 47.5622 33.2512 47.6044 33.1516 47.6164C33.052 47.6284 32.9511 47.6097 32.8625 47.5627L31.6893 46.9412C31.5058 47.0383 31.3164 47.1241 31.1223 47.1981L30.61 47.3899L30.155 48.6498C30.1213 48.7421 30.0604 48.822 29.9805 48.8791C29.9005 48.9362 29.8052 48.9678 29.707 48.9697L28.377 48.9998C28.2762 49.0025 28.177 48.9738 28.0932 48.9178C28.0093 48.8617 27.9449 48.7811 27.9088 48.6869L27.3726 47.2681C27.1896 47.2055 27.0085 47.1378 26.8294 47.0651C26.6829 47.0016 26.5386 46.9332 26.3968 46.86L25.0669 47.4284C24.9792 47.4657 24.8826 47.4768 24.7888 47.4603C24.695 47.4438 24.608 47.4003 24.5384 47.3353L23.5542 46.412C23.4809 46.3435 23.431 46.2538 23.4116 46.1554C23.3921 46.0571 23.404 45.9551 23.4457 45.8639L24.0176 44.6179C23.9415 44.4703 23.871 44.3199 23.8062 44.1671C23.7305 43.98 23.6605 43.7907 23.5962 43.5994L22.3432 43.2179C22.2414 43.1871 22.1526 43.1236 22.0905 43.0371C22.0285 42.9507 21.9968 42.8461 22.0003 42.7398L22.0493 41.3951C22.0527 41.3074 22.0802 41.2223 22.1285 41.149C22.1769 41.0757 22.2444 41.017 22.3236 40.9793L23.6382 40.3479C23.6991 40.1246 23.7523 39.951 23.7992 39.8243C23.8652 39.6551 23.9386 39.4888 24.019 39.3259L23.4492 38.122C23.406 38.0305 23.3928 37.9277 23.4117 37.8284C23.4306 37.729 23.4805 37.6382 23.5542 37.569L24.537 36.6408C24.6059 36.5758 24.6921 36.5321 24.7852 36.515C24.8783 36.4978 24.9744 36.508 25.062 36.5442L26.3905 37.093C26.5375 36.995 26.6705 36.9159 26.7909 36.8522C26.9344 36.7759 27.1262 36.6961 27.3677 36.61L27.8297 35.3213C27.8638 35.227 27.9262 35.1455 28.0084 35.088C28.0906 35.0305 28.1885 34.9998 28.2888 35H29.7546ZM29.0168 39.9132C27.85 39.9132 26.9043 40.8477 26.9043 42.0013C26.9043 43.1549 27.85 44.0901 29.0168 44.0901C30.183 44.0901 31.1286 43.1549 31.1286 42.0013C31.1286 40.8477 30.1837 39.9132 29.0168 39.9132Z"/>
</mask>
<path d="M30.2138 35.3199L31.1544 34.9806L31.1543 34.9801L30.2138 35.3199ZM30.708 36.6898L29.7673 37.0291L29.9484 37.5312L30.4663 37.6601L30.708 36.6898ZM31.1657 36.8242L30.8281 37.7655L30.8285 37.7656L31.1657 36.8242ZM31.7117 37.0552L31.2896 37.9617L31.7402 38.1715L32.1795 37.939L31.7117 37.0552ZM32.8625 36.4462L33.3302 37.33L33.3306 37.3298L32.8625 36.4462ZM33.4449 36.5379L34.1637 35.8427L34.1619 35.8409L33.4449 36.5379ZM34.457 37.5844L35.1767 36.89L35.1758 36.8891L34.457 37.5844ZM34.5536 38.1052L35.4734 38.4976L35.4739 38.4965L34.5536 38.1052ZM34.0139 39.37L33.0942 38.9776L32.9041 39.4231L33.1358 39.8484L34.0139 39.37ZM34.2295 39.7928L35.1384 39.3757L35.1365 39.3717L34.2295 39.7928ZM34.4479 40.3248L33.5136 40.6813L33.6646 41.0771L34.0541 41.244L34.4479 40.3248ZM35.7058 40.8638L35.3119 41.783L35.3139 41.7839L35.7058 40.8638ZM35.9991 41.3356L36.9971 41.3991L36.9971 41.3978L35.9991 41.3356ZM35.9067 42.7881L36.9045 42.8549L36.9047 42.8516L35.9067 42.7881ZM35.8092 43.0482L36.6053 43.6534L35.8092 43.0482ZM35.5847 43.2116L35.2536 42.268L35.2497 42.2694L35.5847 43.2116ZM34.3933 43.6351L34.0584 42.6929L33.5291 42.881L33.4144 43.431L34.3933 43.6351ZM34.2855 44.0593L35.2347 44.3742L35.2386 44.362L34.2855 44.0593ZM34.0769 44.6011L33.1617 44.1982L32.9819 44.6066L33.1658 45.0132L34.0769 44.6011ZM34.6754 45.9241L33.7643 46.3362L33.765 46.3378L34.6754 45.9241ZM34.5578 46.4792L33.8934 45.7318L33.8917 45.7333L34.5578 46.4792ZM33.4197 47.4956L34.0842 48.2428L34.0857 48.2414L33.4197 47.4956ZM32.8625 47.5627L32.3943 48.4464L32.3947 48.4466L32.8625 47.5627ZM31.6893 46.9412L32.1575 46.0575L31.6895 45.8095L31.2214 46.0574L31.6893 46.9412ZM31.1223 47.1981L31.4729 48.1346L31.4783 48.1326L31.1223 47.1981ZM30.61 47.3899L30.2594 46.4533L29.8264 46.6154L29.6694 47.0502L30.61 47.3899ZM30.155 48.6498L31.0942 48.993L31.0955 48.9895L30.155 48.6498ZM29.707 48.9697L29.6873 47.9699L29.6844 47.97L29.707 48.9697ZM28.377 48.9998L28.3544 48.0001L28.3508 48.0002L28.377 48.9998ZM27.9088 48.6869L26.9733 49.0404L26.9752 49.0453L27.9088 48.6869ZM27.3726 47.2681L28.308 46.9146L28.1416 46.4741L27.696 46.3218L27.3726 47.2681ZM26.8294 47.0651L26.4322 47.9828L26.4425 47.9873L26.4529 47.9915L26.8294 47.0651ZM26.3968 46.86L26.8559 45.9716L26.4372 45.7552L26.0038 45.9404L26.3968 46.86ZM25.0669 47.4284L25.4593 48.3481L25.4598 48.3479L25.0669 47.4284ZM24.5384 47.3353L23.8542 48.0646L23.8553 48.0656L24.5384 47.3353ZM23.5542 46.412L24.2384 45.6827L24.2368 45.6812L23.5542 46.412ZM23.4457 45.8639L22.5369 45.4467L22.5362 45.4483L23.4457 45.8639ZM24.0176 44.6179L24.9264 45.035L25.1295 44.5925L24.9065 44.1598L24.0176 44.6179ZM23.8062 44.1671L22.8791 44.542L22.8823 44.5498L22.8856 44.5575L23.8062 44.1671ZM23.5962 43.5994L24.5441 43.2808L24.38 42.7927L23.8875 42.6428L23.5962 43.5994ZM22.3432 43.2179L22.6345 42.2613L22.6326 42.2607L22.3432 43.2179ZM22.0003 42.7398L21.0009 42.7034L21.0008 42.7072L22.0003 42.7398ZM22.0493 41.3951L21.05 41.3554L21.0499 41.3587L22.0493 41.3951ZM22.3236 40.9793L22.7531 41.8824L22.7566 41.8807L22.3236 40.9793ZM23.6382 40.3479L24.0712 41.2494L24.4828 41.0516L24.603 40.611L23.6382 40.3479ZM23.7992 39.8243L22.8676 39.4608L22.8644 39.469L22.8614 39.4772L23.7992 39.8243ZM24.019 39.3259L24.9156 39.7687L25.1297 39.3352L24.9229 38.8982L24.019 39.3259ZM23.4492 38.122L22.5452 38.5495L22.5453 38.5497L23.4492 38.122ZM23.5542 37.569L24.2386 38.2981L24.2408 38.296L23.5542 37.569ZM24.537 36.6408L23.8508 35.9133L23.8503 35.9138L24.537 36.6408ZM25.062 36.5442L24.6797 37.4682L24.6802 37.4684L25.062 36.5442ZM26.3905 37.093L26.0087 38.0172L26.5016 38.2208L26.9452 37.925L26.3905 37.093ZM26.7909 36.8522L27.2586 37.7361L27.2604 37.7351L26.7909 36.8522ZM27.3677 36.61L27.7035 37.5519L28.1493 37.393L28.309 36.9474L27.3677 36.61ZM27.8297 35.3213L26.8894 34.9808L26.8883 34.9838L27.8297 35.3213ZM28.2888 35L28.2866 36H28.2888V35ZM29.7546 36C29.5452 36 29.3492 35.8698 29.2733 35.6597L31.1543 34.9801C30.9398 34.3864 30.3756 34 29.7546 34V36ZM29.2731 35.6592L29.7673 37.0291L31.6486 36.3504L31.1544 34.9806L29.2731 35.6592ZM30.4663 37.6601C30.6243 37.6995 30.7415 37.7344 30.8281 37.7655L31.5034 35.8829C31.3324 35.8216 31.1458 35.7683 30.9496 35.7194L30.4663 37.6601ZM30.8285 37.7656C30.9293 37.8017 31.0801 37.8642 31.2896 37.9617L32.1338 36.1486C31.8954 36.0376 31.6836 35.9475 31.503 35.8828L30.8285 37.7656ZM32.1795 37.939L33.3302 37.33L32.3947 35.5623L31.244 36.1713L32.1795 37.939ZM33.3306 37.3298C33.2334 37.3813 33.1221 37.3999 33.0134 37.3828L33.3245 35.4072C33.0058 35.357 32.6794 35.4115 32.3943 35.5625L33.3306 37.3298ZM33.0134 37.3828C32.9047 37.3657 32.8045 37.3138 32.7278 37.2349L34.1619 35.8409C33.937 35.6095 33.6432 35.4573 33.3245 35.4072L33.0134 37.3828ZM32.7261 37.2331L33.7382 38.2796L35.1758 36.8891L34.1637 35.8427L32.7261 37.2331ZM33.7374 38.2787C33.5939 38.13 33.5515 37.9064 33.6334 37.7139L35.4739 38.4965C35.707 37.9483 35.589 37.3174 35.1767 36.89L33.7374 38.2787ZM33.6338 37.7127L33.0942 38.9776L34.9337 39.7625L35.4734 38.4976L33.6338 37.7127ZM33.1358 39.8484C33.2181 39.9996 33.2792 40.1206 33.3225 40.2139L35.1365 39.3717C35.0707 39.2298 34.989 39.0695 34.8921 38.8917L33.1358 39.8484ZM33.3207 40.21C33.3667 40.3102 33.4307 40.4641 33.5136 40.6813L35.3822 39.9684C35.2915 39.7306 35.21 39.5317 35.1384 39.3757L33.3207 40.21ZM34.0541 41.244L35.3119 41.783L36.0997 39.9447L34.8418 39.4057L34.0541 41.244ZM35.3139 41.7839C35.1171 41.7 34.987 41.4981 35.001 41.2735L36.9971 41.3978C37.0363 40.7686 36.6725 40.1886 36.0977 39.9438L35.3139 41.7839ZM35.0011 41.2721L34.9087 42.7246L36.9047 42.8516L36.9971 41.3991L35.0011 41.2721ZM34.9089 42.7213C34.9157 42.6203 34.9519 42.5235 35.0132 42.4429L36.6053 43.6534C36.781 43.4223 36.8851 43.1446 36.9044 42.8549L34.9089 42.7213ZM35.0132 42.4429C35.0745 42.3624 35.1581 42.3015 35.2536 42.268L35.9158 44.1552C36.1898 44.059 36.4295 43.8846 36.6053 43.6534L35.0132 42.4429ZM35.2497 42.2694L34.0584 42.6929L34.7283 44.5773L35.9196 44.1538L35.2497 42.2694ZM33.4144 43.431C33.3847 43.5732 33.3571 43.6791 33.3325 43.7566L35.2386 44.362C35.2896 44.2014 35.3333 44.026 35.3723 43.8392L33.4144 43.431ZM33.3364 43.7444C33.2853 43.8983 33.227 44.0497 33.1617 44.1982L34.9922 45.004C35.0829 44.798 35.1638 44.5878 35.2347 44.3742L33.3364 43.7444ZM33.1658 45.0132L33.7643 46.3362L35.5865 45.5119L34.9881 44.1889L33.1658 45.0132ZM33.765 46.3378C33.7189 46.2363 33.7065 46.1227 33.7296 46.0137L35.6862 46.4282C35.7516 46.1194 35.7164 45.7978 35.5858 45.5104L33.765 46.3378ZM33.7296 46.0137C33.7527 45.9047 33.8101 45.8059 33.8934 45.7318L35.2223 47.2265C35.4582 47.0168 35.6207 46.737 35.6862 46.4282L33.7296 46.0137ZM33.8917 45.7333L32.7536 46.7497L34.0857 48.2414L35.2239 47.225L33.8917 45.7333ZM32.7551 46.7483C32.8325 46.6795 32.9291 46.636 33.0319 46.6236L33.2713 48.6092C33.5733 48.5728 33.8569 48.4449 34.0842 48.2428L32.7551 46.7483ZM33.0319 46.6236C33.1346 46.6112 33.2388 46.6305 33.3303 46.6789L32.3947 48.4466C32.6635 48.5889 32.9694 48.6456 33.2713 48.6092L33.0319 46.6236ZM33.3307 46.6791L32.1575 46.0575L31.2211 47.8248L32.3943 48.4464L33.3307 46.6791ZM31.2214 46.0574C31.0741 46.1354 30.9222 46.2042 30.7664 46.2635L31.4783 48.1326C31.7107 48.0441 31.9375 47.9413 32.1573 47.8249L31.2214 46.0574ZM30.7718 46.2615L30.2594 46.4533L30.9605 48.3264L31.4729 48.1346L30.7718 46.2615ZM29.6694 47.0502L29.2144 48.3102L31.0955 48.9895L31.5505 47.7295L29.6694 47.0502ZM29.2157 48.3066C29.2512 48.2095 29.3152 48.1254 29.3994 48.0653L30.5616 49.6929C30.8057 49.5187 30.9913 49.2747 31.0942 48.993L29.2157 48.3066ZM29.3994 48.0653C29.4835 48.0052 29.5839 47.972 29.6873 47.9699L29.7267 49.9695C30.0265 49.9636 30.3176 49.8672 30.5616 49.6929L29.3994 48.0653ZM29.6844 47.97L28.3544 48.0001L28.3997 49.9996L29.7296 49.9695L29.6844 47.97ZM28.3508 48.0002C28.4566 47.9974 28.5607 48.0275 28.6488 48.0863L27.5376 49.7492C27.7934 49.9201 28.0958 50.0076 28.4033 49.9995L28.3508 48.0002ZM28.6488 48.0863C28.7368 48.1451 28.8044 48.2298 28.8423 48.3286L26.9752 49.0453C27.0854 49.3324 27.2819 49.5784 27.5376 49.7492L28.6488 48.0863ZM28.8442 48.3334L28.308 46.9146L26.4371 47.6215L26.9733 49.0404L28.8442 48.3334ZM27.696 46.3218C27.5309 46.2654 27.3675 46.2043 27.2059 46.1386L26.4529 47.9915C26.6495 48.0714 26.8484 48.1457 27.0492 48.2143L27.696 46.3218ZM27.2266 46.1473C27.1011 46.093 26.9774 46.0344 26.8559 45.9716L25.9377 47.7483C26.0998 47.8321 26.2647 47.9103 26.4322 47.9828L27.2266 46.1473ZM26.0038 45.9404L24.6739 46.5088L25.4598 48.3479L26.7898 47.7795L26.0038 45.9404ZM24.6744 46.5086C24.7651 46.4699 24.8651 46.4584 24.9623 46.4755L24.6153 48.4451C24.9001 48.4953 25.1933 48.4616 25.4593 48.3481L24.6744 46.5086ZM24.9623 46.4755C25.0594 46.4926 25.1494 46.5376 25.2215 46.6049L23.8553 48.0656C24.0665 48.2631 24.3305 48.395 24.6153 48.4451L24.9623 46.4755ZM25.2226 46.6059L24.2384 45.6827L22.87 47.1413L23.8542 48.0646L25.2226 46.6059ZM24.2368 45.6812C24.3168 45.7559 24.3713 45.8539 24.3925 45.9612L22.4306 46.3496C22.4908 46.6537 22.6451 46.9311 22.8716 47.1427L24.2368 45.6812ZM24.3925 45.9612C24.4138 46.0686 24.4007 46.1799 24.3552 46.2795L22.5362 45.4483C22.4073 45.7302 22.3704 46.0455 22.4306 46.3496L24.3925 45.9612ZM24.3546 46.281L24.9264 45.035L23.1087 44.2007L22.5369 45.4467L24.3546 46.281ZM24.9065 44.1598C24.8418 44.0344 24.7819 43.9066 24.7268 43.7767L22.8856 44.5575C22.9601 44.7333 23.0412 44.9063 23.1287 45.076L24.9065 44.1598ZM24.7332 43.7921C24.6651 43.6236 24.602 43.4531 24.5441 43.2808L22.6483 43.918C22.719 44.1283 22.796 44.3364 22.8791 44.542L24.7332 43.7921ZM23.8875 42.6428L22.6345 42.2613L22.052 44.1745L23.3049 44.556L23.8875 42.6428ZM22.6326 42.2607C22.7416 42.2936 22.8367 42.3617 22.9031 42.4542L21.278 43.62C21.4684 43.8855 21.7412 44.0806 22.0539 44.1751L22.6326 42.2607ZM22.9031 42.4542C22.9695 42.5467 23.0034 42.6586 22.9997 42.7724L21.0008 42.7072C20.9901 43.0337 21.0876 43.3546 21.278 43.62L22.9031 42.4542ZM22.9996 42.7762L23.0486 41.4315L21.0499 41.3587L21.0009 42.7034L22.9996 42.7762ZM23.0485 41.4348C23.0447 41.5293 23.0152 41.6209 22.9632 41.6998L21.2939 40.5982C21.1451 40.8237 21.0608 41.0855 21.05 41.3554L23.0485 41.4348ZM22.9632 41.6998C22.9111 41.7787 22.8385 41.8418 22.7531 41.8824L21.8942 40.0762C21.6502 40.1922 21.4427 40.3727 21.2939 40.5982L22.9632 41.6998ZM22.7566 41.8807L24.0712 41.2494L23.2052 39.4465L21.8907 40.0779L22.7566 41.8807ZM24.603 40.611C24.661 40.3981 24.7052 40.2573 24.737 40.1715L22.8614 39.4772C22.7994 39.6448 22.7371 39.8512 22.6734 40.0848L24.603 40.611ZM24.7308 40.1879C24.7863 40.0455 24.848 39.9057 24.9156 39.7687L23.1223 38.8832C23.0291 39.072 22.9441 39.2647 22.8676 39.4608L24.7308 40.1879ZM24.9229 38.8982L24.3531 37.6942L22.5453 38.5497L23.1151 39.7537L24.9229 38.8982ZM24.3532 37.6944C24.4004 37.7942 24.4147 37.9064 24.3942 38.0149L22.4293 37.6418C22.3709 37.949 22.4115 38.2668 22.5452 38.5495L24.3532 37.6944ZM24.3942 38.0149C24.3736 38.1234 24.3191 38.2225 24.2386 38.2981L22.8698 36.8399C22.6418 37.0539 22.4876 37.3346 22.4293 37.6418L24.3942 38.0149ZM24.2408 38.296L25.2236 37.3678L23.8503 35.9138L22.8676 36.842L24.2408 38.296ZM25.2231 37.3683C25.1518 37.4355 25.0626 37.4807 24.9662 37.4985L24.6042 35.5315C24.3216 35.5835 24.0599 35.7161 23.8508 35.9133L25.2231 37.3683ZM24.9662 37.4985C24.8698 37.5162 24.7703 37.5057 24.6797 37.4682L25.4442 35.6201C25.1786 35.5103 24.8869 35.4795 24.6042 35.5315L24.9662 37.4985ZM24.6802 37.4684L26.0087 38.0172L26.7723 36.1687L25.4437 35.6199L24.6802 37.4684ZM26.9452 37.925C27.0674 37.8436 27.1714 37.7822 27.2586 37.7361L26.3232 35.9683C26.1696 36.0495 26.0076 36.1464 25.8358 36.2609L26.9452 37.925ZM27.2604 37.7351C27.3414 37.692 27.4811 37.6312 27.7035 37.5519L27.0318 35.6681C26.7712 35.761 26.5274 35.8597 26.3214 35.9692L27.2604 37.7351ZM28.309 36.9474L28.771 35.6588L26.8883 34.9838L26.4263 36.2725L28.309 36.9474ZM28.7699 35.6618C28.7339 35.7611 28.6682 35.8468 28.5817 35.9074L27.4351 34.2687C27.1842 34.4442 26.9937 34.6929 26.8894 34.9808L28.7699 35.6618ZM28.5817 35.9074C28.4952 35.9679 28.3921 36.0002 28.2866 36L28.2911 34C27.9849 33.9993 27.686 34.0931 27.4351 34.2687L28.5817 35.9074ZM28.2888 36H29.7546V34H28.2888V36ZM29.0168 38.9132C27.3088 38.9132 25.9043 40.2844 25.9043 42.0013H27.9043C27.9043 41.411 28.3912 40.9132 29.0168 40.9132V38.9132ZM25.9043 42.0013C25.9043 43.7178 27.3083 45.0901 29.0168 45.0901V43.0901C28.3916 43.0901 27.9043 42.592 27.9043 42.0013H25.9043ZM29.0168 45.0901C30.7248 45.0901 32.1286 43.7176 32.1286 42.0013H30.1286C30.1286 42.5922 29.6411 43.0901 29.0168 43.0901V45.0901ZM32.1286 42.0013C32.1286 40.2849 30.7253 38.9132 29.0168 38.9132V40.9132C29.642 40.9132 30.1286 41.4106 30.1286 42.0013H32.1286Z" fill="#024D81" mask="url(#path-1-inside-1_143_282)"/>
<mask id="path-3-inside-2_143_282" fill="white">
<path d="M60.7546 40C60.9604 40 61.1445 40.1281 61.2138 40.3199L61.708 41.6898C61.885 41.7339 62.0369 41.778 62.1657 41.8242C62.3064 41.8746 62.4877 41.9509 62.7117 42.0552L63.8625 41.4462C63.9564 41.3964 64.0639 41.3785 64.169 41.395C64.274 41.4115 64.3708 41.4617 64.4449 41.5379L65.457 42.5844C65.5914 42.7237 65.6292 42.9274 65.5536 43.1052L65.0139 44.37C65.1035 44.5345 65.1749 44.6752 65.2295 44.7928C65.2883 44.9209 65.3611 45.0973 65.4479 45.3248L66.7058 45.8638C66.8948 45.9443 67.0117 46.1333 66.9991 46.3356L66.9067 47.7881C66.9004 47.8825 66.8665 47.9729 66.8092 48.0482C66.752 48.1235 66.6739 48.1803 66.5847 48.2116L65.3933 48.6351C65.359 48.7996 65.3233 48.9403 65.2855 49.0593C65.2246 49.2431 65.155 49.4239 65.0769 49.6011L65.6754 50.9241C65.7177 51.017 65.729 51.1211 65.7079 51.2209C65.6867 51.3208 65.6341 51.4113 65.5578 51.4792L64.4197 52.4956C64.3447 52.5622 64.2512 52.6044 64.1516 52.6164C64.052 52.6284 63.9511 52.6097 63.8625 52.5627L62.6893 51.9412C62.5058 52.0383 62.3164 52.1241 62.1223 52.1981L61.61 52.3899L61.155 53.6498C61.1213 53.7421 61.0604 53.822 60.9805 53.8791C60.9005 53.9362 60.8052 53.9678 60.707 53.9697L59.377 53.9998C59.2762 54.0025 59.177 53.9738 59.0932 53.9178C59.0093 53.8617 58.9449 53.7811 58.9088 53.6869L58.3726 52.2681C58.1896 52.2055 58.0085 52.1378 57.8294 52.0651C57.6829 52.0016 57.5386 51.9332 57.3968 51.86L56.0669 52.4284C55.9792 52.4657 55.8826 52.4768 55.7888 52.4603C55.695 52.4438 55.608 52.4003 55.5384 52.3353L54.5542 51.412C54.4809 51.3435 54.431 51.2538 54.4116 51.1554C54.3921 51.0571 54.404 50.9551 54.4457 50.8639L55.0176 49.6179C54.9415 49.4703 54.871 49.3199 54.8062 49.1671C54.7305 48.98 54.6605 48.7907 54.5962 48.5994L53.3432 48.2179C53.2414 48.1871 53.1526 48.1236 53.0905 48.0371C53.0285 47.9507 52.9968 47.8461 53.0003 47.7398L53.0493 46.3951C53.0527 46.3074 53.0802 46.2223 53.1285 46.149C53.1769 46.0757 53.2444 46.017 53.3236 45.9793L54.6382 45.3479C54.6991 45.1246 54.7523 44.951 54.7992 44.8243C54.8652 44.6551 54.9386 44.4888 55.019 44.3259L54.4492 43.122C54.406 43.0305 54.3928 42.9277 54.4117 42.8284C54.4306 42.729 54.4805 42.6382 54.5542 42.569L55.537 41.6408C55.6059 41.5758 55.6921 41.5321 55.7852 41.515C55.8783 41.4978 55.9744 41.508 56.062 41.5442L57.3905 42.093C57.5375 41.995 57.6705 41.9159 57.7909 41.8522C57.9344 41.7759 58.1262 41.6961 58.3677 41.61L58.8297 40.3213C58.8638 40.227 58.9262 40.1455 59.0084 40.088C59.0906 40.0305 59.1885 39.9998 59.2888 40H60.7546ZM60.0168 44.9132C58.85 44.9132 57.9043 45.8477 57.9043 47.0013C57.9043 48.1549 58.85 49.0901 60.0168 49.0901C61.183 49.0901 62.1286 48.1549 62.1286 47.0013C62.1286 45.8477 61.1837 44.9132 60.0168 44.9132Z"/>
</mask>
<path d="M61.2138 40.3199L62.1544 39.9806L62.1543 39.9801L61.2138 40.3199ZM61.708 41.6898L60.7673 42.0291L60.9484 42.5312L61.4663 42.6601L61.708 41.6898ZM62.1657 41.8242L61.8281 42.7655L61.8285 42.7656L62.1657 41.8242ZM62.7117 42.0552L62.2896 42.9617L62.7402 43.1715L63.1795 42.939L62.7117 42.0552ZM63.8625 41.4462L64.3302 42.33L64.3306 42.3298L63.8625 41.4462ZM64.4449 41.5379L65.1637 40.8427L65.1619 40.8409L64.4449 41.5379ZM65.457 42.5844L66.1767 41.89L66.1758 41.8891L65.457 42.5844ZM65.5536 43.1052L66.4734 43.4976L66.4739 43.4965L65.5536 43.1052ZM65.0139 44.37L64.0942 43.9776L63.9041 44.4231L64.1358 44.8484L65.0139 44.37ZM65.2295 44.7928L66.1384 44.3757L66.1365 44.3717L65.2295 44.7928ZM65.4479 45.3248L64.5136 45.6813L64.6646 46.0771L65.0541 46.244L65.4479 45.3248ZM66.7058 45.8638L66.3119 46.783L66.3139 46.7839L66.7058 45.8638ZM66.9991 46.3356L67.9971 46.3991L67.9971 46.3978L66.9991 46.3356ZM66.9067 47.7881L67.9045 47.8549L67.9047 47.8516L66.9067 47.7881ZM66.8092 48.0482L67.6053 48.6534L66.8092 48.0482ZM66.5847 48.2116L66.2536 47.268L66.2497 47.2694L66.5847 48.2116ZM65.3933 48.6351L65.0584 47.6929L64.5291 47.881L64.4144 48.431L65.3933 48.6351ZM65.2855 49.0593L66.2347 49.3742L66.2386 49.362L65.2855 49.0593ZM65.0769 49.6011L64.1617 49.1982L63.9819 49.6066L64.1658 50.0132L65.0769 49.6011ZM65.6754 50.9241L64.7643 51.3362L64.765 51.3378L65.6754 50.9241ZM65.5578 51.4792L64.8934 50.7318L64.8917 50.7333L65.5578 51.4792ZM64.4197 52.4956L65.0842 53.2428L65.0857 53.2414L64.4197 52.4956ZM63.8625 52.5627L63.3943 53.4464L63.3947 53.4466L63.8625 52.5627ZM62.6893 51.9412L63.1575 51.0575L62.6895 50.8095L62.2214 51.0574L62.6893 51.9412ZM62.1223 52.1981L62.4729 53.1346L62.4783 53.1326L62.1223 52.1981ZM61.61 52.3899L61.2594 51.4533L60.8264 51.6154L60.6694 52.0502L61.61 52.3899ZM61.155 53.6498L62.0942 53.993L62.0955 53.9895L61.155 53.6498ZM60.707 53.9697L60.6873 52.9699L60.6844 52.97L60.707 53.9697ZM59.377 53.9998L59.3544 53.0001L59.3508 53.0002L59.377 53.9998ZM58.9088 53.6869L57.9733 54.0404L57.9752 54.0453L58.9088 53.6869ZM58.3726 52.2681L59.308 51.9146L59.1416 51.4741L58.696 51.3218L58.3726 52.2681ZM57.8294 52.0651L57.4322 52.9828L57.4425 52.9873L57.4529 52.9915L57.8294 52.0651ZM57.3968 51.86L57.8559 50.9716L57.4372 50.7552L57.0038 50.9404L57.3968 51.86ZM56.0669 52.4284L56.4593 53.3481L56.4598 53.3479L56.0669 52.4284ZM55.5384 52.3353L54.8542 53.0646L54.8553 53.0656L55.5384 52.3353ZM54.5542 51.412L55.2384 50.6827L55.2368 50.6812L54.5542 51.412ZM54.4457 50.8639L53.5369 50.4467L53.5362 50.4483L54.4457 50.8639ZM55.0176 49.6179L55.9264 50.035L56.1295 49.5925L55.9065 49.1598L55.0176 49.6179ZM54.8062 49.1671L53.8791 49.542L53.8823 49.5498L53.8856 49.5575L54.8062 49.1671ZM54.5962 48.5994L55.5441 48.2808L55.38 47.7927L54.8875 47.6428L54.5962 48.5994ZM53.3432 48.2179L53.6345 47.2613L53.6326 47.2607L53.3432 48.2179ZM53.0003 47.7398L52.0009 47.7034L52.0008 47.7072L53.0003 47.7398ZM53.0493 46.3951L52.05 46.3554L52.0499 46.3587L53.0493 46.3951ZM53.3236 45.9793L53.7531 46.8824L53.7566 46.8807L53.3236 45.9793ZM54.6382 45.3479L55.0712 46.2494L55.4828 46.0516L55.603 45.611L54.6382 45.3479ZM54.7992 44.8243L53.8676 44.4608L53.8644 44.469L53.8614 44.4772L54.7992 44.8243ZM55.019 44.3259L55.9156 44.7687L56.1297 44.3352L55.9229 43.8982L55.019 44.3259ZM54.4492 43.122L53.5452 43.5495L53.5453 43.5497L54.4492 43.122ZM54.5542 42.569L55.2386 43.2981L55.2408 43.296L54.5542 42.569ZM55.537 41.6408L54.8508 40.9133L54.8503 40.9138L55.537 41.6408ZM56.062 41.5442L55.6797 42.4682L55.6802 42.4684L56.062 41.5442ZM57.3905 42.093L57.0087 43.0172L57.5016 43.2208L57.9452 42.925L57.3905 42.093ZM57.7909 41.8522L58.2586 42.7361L58.2604 42.7351L57.7909 41.8522ZM58.3677 41.61L58.7035 42.5519L59.1493 42.393L59.309 41.9474L58.3677 41.61ZM58.8297 40.3213L57.8894 39.9808L57.8883 39.9838L58.8297 40.3213ZM59.2888 40L59.2866 41H59.2888V40ZM60.7546 41C60.5452 41 60.3492 40.8698 60.2733 40.6597L62.1543 39.9801C61.9398 39.3864 61.3756 39 60.7546 39V41ZM60.2731 40.6592L60.7673 42.0291L62.6486 41.3504L62.1544 39.9806L60.2731 40.6592ZM61.4663 42.6601C61.6243 42.6995 61.7415 42.7344 61.8281 42.7655L62.5034 40.8829C62.3324 40.8216 62.1458 40.7683 61.9496 40.7194L61.4663 42.6601ZM61.8285 42.7656C61.9293 42.8017 62.0801 42.8642 62.2896 42.9617L63.1338 41.1486C62.8954 41.0376 62.6836 40.9475 62.503 40.8828L61.8285 42.7656ZM63.1795 42.939L64.3302 42.33L63.3947 40.5623L62.244 41.1713L63.1795 42.939ZM64.3306 42.3298C64.2334 42.3813 64.1221 42.3999 64.0134 42.3828L64.3245 40.4072C64.0058 40.357 63.6794 40.4115 63.3943 40.5625L64.3306 42.3298ZM64.0134 42.3828C63.9047 42.3657 63.8045 42.3138 63.7278 42.2349L65.1619 40.8409C64.937 40.6095 64.6432 40.4573 64.3245 40.4072L64.0134 42.3828ZM63.7261 42.2331L64.7382 43.2796L66.1758 41.8891L65.1637 40.8427L63.7261 42.2331ZM64.7374 43.2787C64.5939 43.13 64.5515 42.9064 64.6334 42.7139L66.4739 43.4965C66.707 42.9483 66.589 42.3174 66.1767 41.89L64.7374 43.2787ZM64.6338 42.7127L64.0942 43.9776L65.9337 44.7625L66.4734 43.4976L64.6338 42.7127ZM64.1358 44.8484C64.2181 44.9996 64.2792 45.1206 64.3225 45.2139L66.1365 44.3717C66.0707 44.2298 65.989 44.0695 65.8921 43.8917L64.1358 44.8484ZM64.3207 45.21C64.3667 45.3102 64.4307 45.4641 64.5136 45.6813L66.3822 44.9684C66.2915 44.7306 66.21 44.5317 66.1384 44.3757L64.3207 45.21ZM65.0541 46.244L66.3119 46.783L67.0997 44.9447L65.8418 44.4057L65.0541 46.244ZM66.3139 46.7839C66.1171 46.7 65.987 46.4981 66.001 46.2735L67.9971 46.3978C68.0363 45.7686 67.6725 45.1886 67.0977 44.9438L66.3139 46.7839ZM66.0011 46.2721L65.9087 47.7246L67.9047 47.8516L67.9971 46.3991L66.0011 46.2721ZM65.9089 47.7213C65.9157 47.6203 65.9519 47.5235 66.0132 47.4429L67.6053 48.6534C67.781 48.4223 67.8851 48.1446 67.9044 47.8549L65.9089 47.7213ZM66.0132 47.4429C66.0745 47.3624 66.1581 47.3015 66.2536 47.268L66.9158 49.1552C67.1898 49.059 67.4295 48.8846 67.6053 48.6534L66.0132 47.4429ZM66.2497 47.2694L65.0584 47.6929L65.7283 49.5773L66.9196 49.1538L66.2497 47.2694ZM64.4144 48.431C64.3847 48.5732 64.3571 48.6791 64.3325 48.7566L66.2386 49.362C66.2896 49.2014 66.3333 49.026 66.3723 48.8392L64.4144 48.431ZM64.3364 48.7444C64.2853 48.8983 64.227 49.0497 64.1617 49.1982L65.9922 50.004C66.0829 49.798 66.1638 49.5878 66.2347 49.3742L64.3364 48.7444ZM64.1658 50.0132L64.7643 51.3362L66.5865 50.5119L65.9881 49.1889L64.1658 50.0132ZM64.765 51.3378C64.7189 51.2363 64.7065 51.1227 64.7296 51.0137L66.6862 51.4282C66.7516 51.1194 66.7164 50.7978 66.5858 50.5104L64.765 51.3378ZM64.7296 51.0137C64.7527 50.9047 64.8101 50.8059 64.8934 50.7318L66.2223 52.2265C66.4582 52.0168 66.6207 51.737 66.6862 51.4282L64.7296 51.0137ZM64.8917 50.7333L63.7536 51.7497L65.0857 53.2414L66.2239 52.225L64.8917 50.7333ZM63.7551 51.7483C63.8325 51.6795 63.9291 51.636 64.0319 51.6236L64.2713 53.6092C64.5733 53.5728 64.8569 53.4449 65.0842 53.2428L63.7551 51.7483ZM64.0319 51.6236C64.1346 51.6112 64.2388 51.6305 64.3303 51.6789L63.3947 53.4466C63.6635 53.5889 63.9694 53.6456 64.2713 53.6092L64.0319 51.6236ZM64.3307 51.6791L63.1575 51.0575L62.2211 52.8248L63.3943 53.4464L64.3307 51.6791ZM62.2214 51.0574C62.0741 51.1354 61.9222 51.2042 61.7664 51.2635L62.4783 53.1326C62.7107 53.0441 62.9375 52.9413 63.1573 52.8249L62.2214 51.0574ZM61.7718 51.2615L61.2594 51.4533L61.9605 53.3264L62.4729 53.1346L61.7718 51.2615ZM60.6694 52.0502L60.2144 53.3102L62.0955 53.9895L62.5505 52.7295L60.6694 52.0502ZM60.2157 53.3066C60.2512 53.2095 60.3152 53.1254 60.3994 53.0653L61.5616 54.6929C61.8057 54.5187 61.9913 54.2747 62.0942 53.993L60.2157 53.3066ZM60.3994 53.0653C60.4835 53.0052 60.5839 52.972 60.6873 52.9699L60.7267 54.9695C61.0265 54.9636 61.3176 54.8672 61.5616 54.6929L60.3994 53.0653ZM60.6844 52.97L59.3544 53.0001L59.3997 54.9996L60.7296 54.9695L60.6844 52.97ZM59.3508 53.0002C59.4566 52.9974 59.5607 53.0275 59.6488 53.0863L58.5376 54.7492C58.7934 54.9201 59.0958 55.0076 59.4033 54.9995L59.3508 53.0002ZM59.6488 53.0863C59.7368 53.1451 59.8044 53.2298 59.8423 53.3286L57.9752 54.0453C58.0854 54.3324 58.2819 54.5784 58.5376 54.7492L59.6488 53.0863ZM59.8442 53.3334L59.308 51.9146L57.4371 52.6215L57.9733 54.0404L59.8442 53.3334ZM58.696 51.3218C58.5309 51.2654 58.3675 51.2043 58.2059 51.1386L57.4529 52.9915C57.6495 53.0714 57.8484 53.1457 58.0492 53.2143L58.696 51.3218ZM58.2266 51.1473C58.1011 51.093 57.9774 51.0344 57.8559 50.9716L56.9377 52.7483C57.0998 52.8321 57.2647 52.9103 57.4322 52.9828L58.2266 51.1473ZM57.0038 50.9404L55.6739 51.5088L56.4598 53.3479L57.7898 52.7795L57.0038 50.9404ZM55.6744 51.5086C55.7651 51.4699 55.8651 51.4584 55.9623 51.4755L55.6153 53.4451C55.9001 53.4953 56.1933 53.4616 56.4593 53.3481L55.6744 51.5086ZM55.9623 51.4755C56.0594 51.4926 56.1494 51.5376 56.2215 51.6049L54.8553 53.0656C55.0665 53.2631 55.3305 53.395 55.6153 53.4451L55.9623 51.4755ZM56.2226 51.6059L55.2384 50.6827L53.87 52.1413L54.8542 53.0646L56.2226 51.6059ZM55.2368 50.6812C55.3168 50.7559 55.3713 50.8539 55.3925 50.9612L53.4306 51.3496C53.4908 51.6537 53.6451 51.9311 53.8716 52.1427L55.2368 50.6812ZM55.3925 50.9612C55.4138 51.0686 55.4007 51.1799 55.3552 51.2795L53.5362 50.4483C53.4073 50.7302 53.3704 51.0455 53.4306 51.3496L55.3925 50.9612ZM55.3546 51.281L55.9264 50.035L54.1087 49.2007L53.5369 50.4467L55.3546 51.281ZM55.9065 49.1598C55.8418 49.0344 55.7819 48.9066 55.7268 48.7767L53.8856 49.5575C53.9601 49.7333 54.0412 49.9063 54.1287 50.076L55.9065 49.1598ZM55.7332 48.7921C55.6651 48.6236 55.602 48.4531 55.5441 48.2808L53.6483 48.918C53.719 49.1283 53.796 49.3364 53.8791 49.542L55.7332 48.7921ZM54.8875 47.6428L53.6345 47.2613L53.052 49.1745L54.3049 49.556L54.8875 47.6428ZM53.6326 47.2607C53.7416 47.2936 53.8367 47.3617 53.9031 47.4542L52.278 48.62C52.4684 48.8855 52.7412 49.0806 53.0539 49.1751L53.6326 47.2607ZM53.9031 47.4542C53.9695 47.5467 54.0034 47.6586 53.9997 47.7724L52.0008 47.7072C51.9901 48.0337 52.0876 48.3546 52.278 48.62L53.9031 47.4542ZM53.9996 47.7762L54.0486 46.4315L52.0499 46.3587L52.0009 47.7034L53.9996 47.7762ZM54.0485 46.4348C54.0447 46.5293 54.0152 46.6209 53.9632 46.6998L52.2939 45.5982C52.1451 45.8237 52.0608 46.0855 52.05 46.3554L54.0485 46.4348ZM53.9632 46.6998C53.9111 46.7787 53.8385 46.8418 53.7531 46.8824L52.8942 45.0762C52.6502 45.1922 52.4427 45.3727 52.2939 45.5982L53.9632 46.6998ZM53.7566 46.8807L55.0712 46.2494L54.2052 44.4465L52.8907 45.0779L53.7566 46.8807ZM55.603 45.611C55.661 45.3981 55.7052 45.2573 55.737 45.1715L53.8614 44.4772C53.7994 44.6448 53.7371 44.8512 53.6734 45.0848L55.603 45.611ZM55.7308 45.1879C55.7863 45.0455 55.848 44.9057 55.9156 44.7687L54.1223 43.8832C54.0291 44.072 53.9441 44.2647 53.8676 44.4608L55.7308 45.1879ZM55.9229 43.8982L55.3531 42.6942L53.5453 43.5497L54.1151 44.7537L55.9229 43.8982ZM55.3532 42.6944C55.4004 42.7942 55.4147 42.9064 55.3942 43.0149L53.4293 42.6418C53.3709 42.949 53.4115 43.2668 53.5452 43.5495L55.3532 42.6944ZM55.3942 43.0149C55.3736 43.1234 55.3191 43.2225 55.2386 43.2981L53.8698 41.8399C53.6418 42.0539 53.4876 42.3346 53.4293 42.6418L55.3942 43.0149ZM55.2408 43.296L56.2236 42.3678L54.8503 40.9138L53.8676 41.842L55.2408 43.296ZM56.2231 42.3683C56.1518 42.4355 56.0626 42.4807 55.9662 42.4985L55.6042 40.5315C55.3216 40.5835 55.0599 40.7161 54.8508 40.9133L56.2231 42.3683ZM55.9662 42.4985C55.8698 42.5162 55.7703 42.5057 55.6797 42.4682L56.4442 40.6201C56.1786 40.5103 55.8869 40.4795 55.6042 40.5315L55.9662 42.4985ZM55.6802 42.4684L57.0087 43.0172L57.7723 41.1687L56.4437 40.6199L55.6802 42.4684ZM57.9452 42.925C58.0674 42.8436 58.1714 42.7822 58.2586 42.7361L57.3232 40.9683C57.1696 41.0495 57.0076 41.1464 56.8358 41.2609L57.9452 42.925ZM58.2604 42.7351C58.3414 42.692 58.4811 42.6312 58.7035 42.5519L58.0318 40.6681C57.7712 40.761 57.5274 40.8597 57.3214 40.9692L58.2604 42.7351ZM59.309 41.9474L59.771 40.6588L57.8883 39.9838L57.4263 41.2725L59.309 41.9474ZM59.7699 40.6618C59.7339 40.7611 59.6682 40.8468 59.5817 40.9074L58.4351 39.2687C58.1842 39.4442 57.9937 39.6929 57.8894 39.9808L59.7699 40.6618ZM59.5817 40.9074C59.4952 40.9679 59.3921 41.0002 59.2866 41L59.2911 39C58.9849 38.9993 58.686 39.0931 58.4351 39.2687L59.5817 40.9074ZM59.2888 41H60.7546V39H59.2888V41ZM60.0168 43.9132C58.3088 43.9132 56.9043 45.2844 56.9043 47.0013H58.9043C58.9043 46.411 59.3912 45.9132 60.0168 45.9132V43.9132ZM56.9043 47.0013C56.9043 48.7178 58.3083 50.0901 60.0168 50.0901V48.0901C59.3916 48.0901 58.9043 47.592 58.9043 47.0013H56.9043ZM60.0168 50.0901C61.7248 50.0901 63.1286 48.7176 63.1286 47.0013H61.1286C61.1286 47.5922 60.6411 48.0901 60.0168 48.0901V50.0901ZM63.1286 47.0013C63.1286 45.2849 61.7253 43.9132 60.0168 43.9132V45.9132C60.642 45.9132 61.1286 46.4106 61.1286 47.0013H63.1286Z" fill="#024D81" mask="url(#path-3-inside-2_143_282)"/>
<path d="M31.2478 51.4032L31.2478 51.4032L31.244 51.4058C31.0213 51.5553 30.901 51.7115 30.8411 51.8667C30.781 52.0225 30.7641 52.2233 30.828 52.4917L30.828 52.4917L30.8298 52.4997L31.8641 57.1904L31.976 57.6979L31.4646 57.7901C28.0846 58.3998 24.9387 57.781 22.0526 55.9378C20.5581 54.9833 19.3151 53.7793 18.3275 52.328C17.3445 50.8836 16.671 49.346 16.3118 47.717C15.9526 46.0881 15.917 44.4098 16.2014 42.6859C16.4871 40.9539 17.1084 39.3388 18.0629 37.8443C19.0174 36.3497 20.2214 35.1068 21.6727 34.1191C23.1171 33.1362 24.6547 32.4626 26.2836 32.1034C27.9126 31.7442 29.5909 31.7087 31.3147 31.993C33.0468 32.2787 34.6619 32.9 36.1564 33.8545C36.3058 33.95 36.4562 34.0449 36.6068 34.14C38.0765 35.0682 39.5754 36.0147 40.5554 37.6264C41.0663 38.4665 41.3343 39.0117 41.4845 39.6177C41.6023 40.0934 41.644 40.6014 41.7005 41.2898C41.713 41.4418 41.7262 41.6026 41.7411 41.7738L41.742 41.7849L41.7425 41.796C41.7432 41.8122 41.7481 41.8687 41.8562 41.9652C41.9599 42.0253 42.0416 42.0345 42.117 42.022L42.1577 42.0153L42.1989 42.0153L47.3148 42.0153C47.3556 42.0037 47.3879 41.9806 47.4231 41.9301C47.4698 41.863 47.4886 41.7952 47.4787 41.7029L47.4759 41.6765L47.4759 41.6498C47.4759 39.1007 46.5076 37.3343 45.0099 34.9714C43.5634 32.6892 41.3613 30.8892 39.0095 29.3872C36.9089 28.0456 34.6431 27.1762 32.2083 26.7767C29.7647 26.3758 27.4107 26.4275 25.1424 26.9277C22.8741 27.4279 20.7166 28.371 18.6682 29.7624C16.6272 31.1488 14.9371 32.8905 13.5955 34.9911C12.254 37.0917 11.3846 39.3576 10.9851 41.7924C10.5841 44.236 10.6359 46.59 11.1361 48.8583C11.6362 51.1266 12.5793 53.2841 13.9707 55.3325C15.3572 57.3734 17.0989 59.0635 19.1995 60.4051C21.1777 61.6685 23.3296 62.5175 25.6587 62.9527C27.9895 63.3883 30.3082 63.3858 32.6182 62.9459L33.0935 62.8553L33.1995 63.3275L34.1871 67.7255L34.1892 67.7345L34.1909 67.7437C34.2391 68.0034 34.3355 68.1749 34.4579 68.2926C34.5812 68.4112 34.7663 68.509 35.0486 68.5596C35.3153 68.6012 35.518 68.572 35.6774 68.5011C35.8372 68.43 35.9922 68.3 36.135 68.0765L42.0699 58.7838C42.2255 58.5401 42.2725 58.2813 42.2051 57.9754C42.1376 57.6695 41.9862 57.4545 41.7425 57.2989L32.4498 51.364C32.2283 51.2225 32.0341 51.1714 31.8586 51.1762C31.6817 51.1811 31.4801 51.244 31.2478 51.4032Z" stroke="#024D81"/>
<path d="M59.6853 37.361L59.6853 37.3609L59.6896 37.3594C59.9413 37.2669 60.0953 37.1436 60.1902 37.0071C60.2855 36.87 60.3496 36.6789 60.3512 36.403L60.3512 36.403L60.3513 36.3948L60.4589 31.5927L60.4705 31.0732L60.9892 31.1048C64.4174 31.3141 67.3268 32.6612 69.6935 35.1363C70.919 36.418 71.841 37.8824 72.4563 39.5265C73.0687 41.1628 73.3584 42.8162 73.3211 44.4839C73.2837 46.1516 72.9203 47.7904 72.2353 49.3977C71.547 51.0126 70.5604 52.4342 69.2787 53.6598C67.997 54.8854 66.5326 55.8073 64.8885 56.4226C63.2522 57.035 61.5987 57.3248 59.9311 57.2874C58.2634 57.2501 56.6245 56.8866 55.0173 56.2016C53.4024 55.5133 51.9807 54.5267 50.7552 53.245C49.3534 51.7791 48.3464 50.0837 47.7378 48.1636C47.1289 46.2425 46.9801 44.2699 47.2905 42.252L47.2922 42.241L47.2943 42.2301C47.2974 42.2146 47.3058 42.1609 47.2298 42.0473C47.2074 42.031 47.1628 42.0047 47.0902 41.9782C47.006 41.9475 46.9192 41.9295 46.8568 41.9231L42.2902 41.9231L42.2699 41.9231L42.2497 41.9215C42.2326 41.9201 42.2172 41.9188 42.2029 41.9176C42.1686 41.9147 42.1405 41.9123 42.1098 41.9105C42.0695 41.9082 42.0415 41.9083 42.0211 41.9098C42.02 41.9099 42.019 41.91 42.018 41.9101C41.9716 41.9584 41.9445 42.0143 41.9335 42.0924C41.6137 44.8067 41.8903 47.4554 42.764 50.044C43.6383 52.6345 45.0239 54.9212 46.924 56.9084C48.6466 58.7098 50.6416 60.0917 52.9122 61.0572C55.1911 62.0262 57.4902 62.5341 59.8124 62.5861C62.1346 62.6381 64.4542 62.2336 66.7741 61.3676C69.0856 60.5047 71.1406 59.2135 72.942 57.4909C74.7435 55.7684 76.1254 53.7733 77.0909 51.5027C78.0598 49.2239 78.5678 46.9248 78.6198 44.6026C78.6718 42.2803 78.2672 39.9608 77.4012 37.6408C76.5384 35.3293 75.2471 33.2744 73.5246 31.473C71.9024 29.7764 70.0132 28.4414 67.8537 27.4663C65.6927 26.4904 63.4395 25.943 61.0912 25.8226L60.6079 25.7978L60.6169 25.314L60.7004 20.8072L60.7005 20.7979L60.7011 20.7887C60.7158 20.5249 60.6629 20.3354 60.5718 20.192C60.4802 20.0476 60.3235 19.9088 60.0613 19.7926C59.8121 19.6889 59.6082 19.6693 59.4365 19.7003C59.2644 19.7315 59.083 19.821 58.8913 20.0043L50.922 27.6246C50.7131 27.8244 50.6061 28.0646 50.599 28.3778C50.592 28.691 50.6882 28.9358 50.888 29.1447L58.5082 37.114C58.6898 37.3039 58.8664 37.3997 59.038 37.4366C59.211 37.4738 59.4218 37.4605 59.6853 37.361Z" stroke="#024D81"/>
</g>
<defs>
<clipPath id="clip0_143_282">
<rect width="90" height="90" fill="white"/>
</clipPath>
</defs>
</svg>
