<svg width="90" height="90" viewBox="0 0 90 90" fill="none" xmlns="http://www.w3.org/2000/svg">
<path d="M30.5166 51.5498H40.654M71.0664 44.7915V23.6684C71.0666 23.4017 71.0142 23.1375 70.9121 22.8911C70.8101 22.6447 70.6604 22.4208 70.4716 22.2323L59.8341 11.5947C59.4542 11.2144 58.9389 11.0005 58.4013 11H19.0275C18.4898 11 17.9741 11.2136 17.5938 11.5938C17.2136 11.9741 17 12.4898 17 13.0275V76.5555C17 77.0932 17.2136 77.6089 17.5938 77.9891C17.9741 78.3694 18.4898 78.583 19.0275 78.583H40.654L71.0664 44.7915ZM30.5166 38.0332H57.5498H30.5166ZM30.5166 24.5166H44.0332H30.5166Z" stroke="#024D81" stroke-width="2" stroke-linecap="round" stroke-linejoin="round"/>
<path d="M57.5488 22.4889V12.196C57.5492 11.9598 57.6196 11.7289 57.7511 11.5326C57.8826 11.3362 58.0692 11.1833 58.2876 11.0929C58.5059 11.0025 58.7461 10.9788 58.9778 11.0248C59.2096 11.0708 59.4225 11.1844 59.5898 11.3513L70.714 22.4754C70.8825 22.6421 70.9976 22.8551 71.0445 23.0874C71.0914 23.3198 71.0681 23.5608 70.9774 23.7798C70.8868 23.9988 70.733 24.1858 70.5356 24.317C70.3382 24.4482 70.1062 24.5176 69.8692 24.5164H59.5763C59.0386 24.5164 58.5229 24.3028 58.1427 23.9226C57.7624 23.5423 57.5488 23.0267 57.5488 22.4889Z" fill="#024D81" stroke="#024D81" stroke-width="2" stroke-linecap="round" stroke-linejoin="round"/>
<path d="M64.1531 61.4815L69.5124 66.8408M64.1531 61.4849L67.5322 58.1057C67.884 57.7536 68.3018 57.4743 68.7616 57.2838C69.2214 57.0932 69.7142 56.9951 70.2119 56.9951C70.7096 56.9951 71.2025 57.0932 71.6623 57.2838C72.1221 57.4743 72.5398 57.7536 72.8916 58.1057C73.6016 58.8161 74.0005 59.7793 74.0005 60.7837C74.0005 61.7881 73.6016 62.7513 72.8916 63.4617L69.5124 66.8408L64.1531 61.4849ZM64.1531 61.4815L54.0461 71.5885C53.5407 72.0955 53.2094 72.7498 53.0999 73.4572L52.2754 78.7185L57.5367 77.8974C58.2441 77.7879 58.8984 77.4566 59.4054 76.9512L69.509 66.8408L64.1531 61.4815Z" stroke="#024D81" stroke-width="2" stroke-linecap="round" stroke-linejoin="round"/>
</svg>
