<svg width="90" height="90" viewBox="0 0 90 90" fill="none" xmlns="http://www.w3.org/2000/svg">
<path d="M79 31.7V65.7858L65.7858 79H31.7C28.4429 79 25.8 76.3571 25.8 73.1V31.7C25.8 28.4429 28.4429 25.8 31.7 25.8H73.1C76.3571 25.8 79 28.4429 79 31.7ZM67.2 48.95C67.2 47.7652 66.2348 46.8 65.05 46.8H58V39.75C58 38.5652 57.0348 37.6 55.85 37.6H48.95C47.7652 37.6 46.8 38.5652 46.8 39.75V46.8H39.75C38.5652 46.8 37.6 47.7652 37.6 48.95V55.85C37.6 57.0348 38.5652 58 39.75 58H46.8V65.05C46.8 66.2312 47.7688 67.2 48.95 67.2H55.85C57.0312 67.2 58 66.2312 58 65.05V58H65.05C66.2348 58 67.2 57.0348 67.2 55.85V48.95ZM12 62.75V28.25C12 19.2903 19.2903 12 28.25 12H62.75C64.1082 12 65.2 13.0962 65.2 14.45C65.2 15.8038 64.1082 16.9 62.75 16.9H28.25C21.9908 16.9 16.9 21.9908 16.9 28.25V62.75C16.9 64.1082 15.8038 65.2 14.45 65.2C13.0962 65.2 12 64.1082 12 62.75Z" stroke="white" stroke-width="2"/>
</svg>
