<svg width="90" height="90" viewBox="0 0 90 90" fill="none" xmlns="http://www.w3.org/2000/svg">
<path d="M78.2977 40.23L78.3288 40.2576L78.3621 40.2826C78.7503 40.5742 79 41.1117 79 41.734C79 42.3563 78.7503 42.8938 78.3621 43.1854L78.3052 43.2281L78.255 43.2784C77.123 44.412 75.6955 44.4922 74.8293 43.6247L73.7919 42.5858L72.0843 40.8756V43.2923V76.537C72.0843 77.3491 71.8183 77.9479 71.4258 78.3411C71.0333 78.7341 70.4361 79 69.6265 79H21.2167C20.407 79 19.8098 78.7341 19.4174 78.3411C19.0248 77.9479 18.7588 77.3491 18.7588 76.537V43.2923V40.2888L16.9584 42.6929L15.9678 44.0157C15.0977 44.8354 13.7003 44.7385 12.5881 43.6247C11.7255 42.7608 11.8008 41.3401 12.9144 40.2094L43.9786 12.5556C44.9894 11.8148 46.1995 11.8148 47.2103 12.5556L78.2977 40.23ZM49.8794 59.2221V56.7591H52.3373C53.6023 56.7591 54.734 56.3324 55.5518 55.5134C56.3695 54.6945 56.7951 53.5618 56.7951 52.2961C56.7951 51.0304 56.3695 49.8978 55.5518 49.0789C54.734 48.2598 53.6023 47.8331 52.3373 47.8331H49.8794V45.3701C49.8794 44.1044 49.4538 42.9718 48.6361 42.1529C47.8183 41.3339 46.6866 40.9072 45.4216 40.9072C44.1565 40.9072 43.0248 41.3339 42.207 42.1529C41.3893 42.9718 40.9637 44.1044 40.9637 45.3701V47.8331H38.5059C37.2408 47.8331 36.1091 48.2598 35.2913 49.0789C34.4736 49.8978 34.048 51.0304 34.048 52.2961C34.048 53.5618 34.4736 54.6945 35.2913 55.5134C36.1091 56.3324 37.2408 56.7591 38.5059 56.7591H40.9637V59.2221C40.9637 60.4878 41.3893 61.6204 42.207 62.4393C43.0248 63.2584 44.1565 63.6851 45.4216 63.6851C46.6866 63.6851 47.8183 63.2584 48.6361 62.4393C49.4538 61.6204 49.8794 60.4878 49.8794 59.2221Z" stroke="white" stroke-width="2"/>
</svg>
