<svg width="90" height="90" viewBox="0 0 90 90" fill="none" xmlns="http://www.w3.org/2000/svg">
<path d="M31.5332 24.7253L34.5519 25.3153C28.748 32.3296 24.5856 41.22 23.2799 44.178L12.7522 39.6713L26.0307 26.3958C27.458 24.9688 29.5257 24.33 31.5318 24.725L31.5332 24.7253ZM43.6593 61.1342L29.87 47.348C30.0315 46.9799 30.2652 46.4574 30.5654 45.813C31.1912 44.4693 32.1045 42.5981 33.2529 40.4922C35.5585 36.264 38.7756 31.1564 42.4763 27.4566C51.9094 18.0256 60.2513 14.1448 66.5816 12.7241C72.3217 11.4359 76.4647 12.1579 78.3416 12.6677C78.8412 14.5512 79.5622 18.6947 78.278 24.4315C76.8613 30.7602 72.9885 39.0999 63.5557 48.5305C59.855 52.2303 54.7463 55.4468 50.5171 57.7519C48.4107 58.9 46.5391 59.8131 45.1951 60.4388C44.5502 60.739 44.0275 60.9727 43.6593 61.1342ZM51.3377 78.2484L46.83 67.7231C49.789 66.4176 58.6815 62.2561 65.6973 56.4534L66.2875 59.4715L66.2877 59.4729C66.6828 61.4784 66.044 63.5454 64.6167 64.9724L51.3377 78.2484ZM34.7569 65.8541V65.8564C34.7569 68.5127 33.6694 70.9139 31.9376 72.6453C31.0596 73.5231 29.3661 74.3998 27.1566 75.2129C24.9861 76.0117 22.4552 76.7015 20.0302 77.267C17.6091 77.8317 15.3142 78.2678 13.6232 78.563C13.0794 78.6579 12.5987 78.7381 12.1969 78.8032C12.262 78.4016 12.3422 77.921 12.4371 77.3775C12.7323 75.6869 13.1686 73.3926 13.7334 70.972C14.299 68.5476 14.9889 66.0173 15.7879 63.8472C16.6012 61.6383 17.478 59.9453 18.356 59.0675L18.3579 59.0657C19.6992 57.7176 21.411 56.7984 23.276 56.4249C25.1409 56.0514 27.0748 56.2403 28.8321 56.9678C30.5894 57.6953 32.0908 58.9284 33.1457 60.5106C34.2006 62.0928 34.7614 63.9526 34.7569 65.8541ZM56.9771 25.9616C52.5347 25.9616 48.9037 29.5914 48.9037 34.0333C48.9037 38.4753 52.5347 42.1051 56.9771 42.1051C61.4195 42.1051 65.0505 38.4753 65.0505 34.0333C65.0505 29.5914 61.4195 25.9616 56.9771 25.9616Z" stroke="#024D81" stroke-width="2"/>
</svg>
