<svg width="90" height="90" viewBox="0 0 90 90" fill="none" xmlns="http://www.w3.org/2000/svg">
<path d="M28.1291 53.4793L37.0458 44.5712L40.2036 47.725C38.6113 50.1776 38.7939 53.4839 41.0198 55.7521L41.2744 56.0832L36.2552 61.099L35.8333 61.5206L36.0038 62.0922C36.3451 63.2367 36.5434 64.448 36.5434 65.7029C36.5434 72.577 31.1522 77.9655 24.2717 77.9655C17.3912 77.9655 12 72.577 12 65.7029C12 58.8288 17.3912 53.4403 24.2717 53.4404L24.2804 53.4403C25.264 53.4316 26.2454 53.5349 27.2056 53.7481L27.7411 53.867L28.1291 53.4793ZM14.6482 11.2507L24.0127 16.662L23.5316 19.9701L23.4594 20.4667L23.8143 20.8214L48.1174 45.1079L48.8243 45.8143L49.5311 45.1079L51.2724 43.3678L51.2798 43.3604L51.287 43.3529C51.435 43.1987 51.6126 43.076 51.8093 42.9922C52.006 42.9083 52.2176 42.8651 52.4315 42.8651C52.6454 42.8651 52.857 42.9083 53.0537 42.9922C53.2504 43.076 53.4281 43.1987 53.576 43.3529L53.5837 43.3609L53.5916 43.3688L54.5849 44.3587C54.5851 44.359 54.5854 44.3593 54.5857 44.3596C54.7472 44.5222 54.8901 44.8436 54.8901 45.2954C54.8901 45.7385 54.7491 46.1939 54.4931 46.535L53.945 47.2653L54.6225 47.8773L58.1077 51.0259L58.5406 51.4169L59.0941 51.2326C60.2718 50.8403 61.7792 51.2147 62.8823 52.3163C62.8827 52.3167 62.8831 52.317 62.8835 52.3174L77.1484 66.6575L77.1505 66.6596C79.6549 69.1623 79.7274 73.2659 76.6803 76.0766L76.6656 76.0902L76.6515 76.1043C74.1222 78.6319 69.9772 78.6319 67.4479 76.1043L67.4459 76.1023L53.0986 61.847C53.0985 61.8469 53.0984 61.8468 53.0983 61.8467C52.0753 60.8242 51.8183 59.3046 52.0509 57.9099L52.1357 57.4017L51.7711 57.0377L48.6177 53.8892L47.8027 53.0754L47.1114 53.9966C46.7642 54.4592 45.8726 54.6255 45.1361 53.89C45.1359 53.8898 45.1357 53.8897 45.1356 53.8895L44.0588 52.8108L44.0579 52.8099C43.3892 52.1416 43.387 51.1718 44.0515 50.5016L46.1165 48.5199L46.8532 47.8129L46.131 47.0911L21.8279 22.802L21.4727 22.447L20.976 22.5199L17.6654 23.0051L12.2504 13.647L14.6482 11.2507ZM51.3548 31.0998L51.9196 30.5351L51.4939 29.8595C49.9646 27.4324 49.0954 25.0417 49.0406 22.8448C48.9868 20.6878 49.714 18.6529 51.5089 16.853C53.0333 15.4421 55.471 13.8844 58.1758 12.7335C60.8973 11.5755 63.7696 10.8804 66.1608 11.0787C66.2113 11.083 66.2613 11.0876 66.3106 11.0924L59.9016 17.4926C59.5564 17.8255 59.2815 18.2243 59.0932 18.6654C58.9035 19.11 58.8056 19.5883 58.8056 20.0716C58.8056 20.555 58.9035 21.0333 59.0932 21.4778C59.2815 21.9189 59.5564 22.3177 59.9015 22.6505L67.6108 30.3519C67.6109 30.352 67.6109 30.352 67.611 30.352C69.0632 31.8031 71.3044 31.8031 72.7566 30.3519L72.7624 30.3461L72.7681 30.3402L78.9419 23.9644C79.1268 25.9189 78.6535 28.2881 77.7283 30.6667C76.5292 33.7497 74.6675 36.5981 72.9462 38.1954L72.9326 38.2079L72.9195 38.221C71.1998 39.9395 69.249 40.6842 67.1865 40.7036C65.0959 40.7233 62.8258 39.9962 60.5295 38.6471L59.8629 38.2554L59.3161 38.8019L57.6998 40.4171L57.0765 39.7958L57.0534 39.7727L57.0288 39.7512C54.782 37.7866 51.5708 37.5873 49.1284 39.1534L46.3842 36.0693L51.3548 31.0998ZM74.9145 70.5499L74.9145 70.5499L59.2389 54.8877C59.2382 54.887 59.2375 54.8863 59.2368 54.8856C58.7085 54.3537 58.0851 54.2599 57.6181 54.2599C57.2087 54.2599 56.4692 54.3312 55.9158 54.8842C54.9941 55.8052 54.9941 57.2823 55.9158 58.2034L71.5896 73.8691L71.5897 73.8692C72.511 74.7899 73.9932 74.7899 74.9145 73.8692C75.8363 72.9481 75.8363 71.471 74.9145 70.5499ZM26.8049 58.1125L26.3979 57.7056L25.8417 57.853L18.9563 59.6779L18.395 59.8267L18.246 60.3879L16.4198 67.2659L16.272 67.8227L16.6795 68.2299L21.7413 73.2883L22.1483 73.695L22.7044 73.5475L29.5871 71.7226L30.1484 71.5738L30.2973 71.0126L32.1235 64.1346L32.2713 63.578L31.8641 63.1708L26.8049 58.1125Z" stroke="#024D81" stroke-width="2"/>
</svg>
