<svg width="90" height="90" viewBox="0 0 90 90" fill="none" xmlns="http://www.w3.org/2000/svg">
<path d="M70.2262 29.9025L70.2266 29.9026C70.9873 30.077 71.7862 29.9424 72.4477 29.5283C73.1092 29.1141 73.5793 28.4543 73.7547 27.6938L72.7815 27.4694L73.7547 27.6936C73.8416 27.3167 73.8533 26.9264 73.7893 26.545C73.7253 26.1636 73.5868 25.7985 73.3817 25.4706C73.1766 25.1427 72.9089 24.8584 72.5939 24.634C72.2789 24.4096 71.9229 24.2494 71.546 24.1626L71.5455 24.1625L58.6773 21.2041L58.6772 21.2041C57.9158 21.0291 57.116 21.1638 56.4539 21.5786C55.7918 21.9933 55.3215 22.654 55.1466 23.4155C54.9717 24.1769 55.1064 24.9766 55.5211 25.6388C55.9358 26.3009 56.5966 26.7711 57.358 26.9461L70.2262 29.9025ZM79.0118 25.5533C79.0118 29.4148 77.4778 33.1183 74.7473 35.8488C72.0167 38.5794 68.3133 40.1134 64.4517 40.1134C60.5901 40.1134 56.8867 38.5794 54.1562 35.8488C51.4256 33.1183 49.8916 29.4148 49.8916 25.5533C49.8916 21.6917 51.4256 17.9883 54.1562 15.2577C56.8867 12.5272 60.5901 10.9932 64.4517 10.9932C68.3133 10.9932 72.0167 12.5272 74.7473 15.2577C77.4778 17.9883 79.0118 21.6917 79.0118 25.5533Z" stroke="white" stroke-width="2"/>
<path d="M30.0334 16.6937L30.0335 16.6939L39.8811 39.9932C39.8811 39.9932 39.8811 39.9932 39.8811 39.9932C40.7084 41.951 39.1444 44.1579 36.8672 43.9942L36.8666 43.9941L13.7871 42.3487L13.787 42.3487C11.5163 42.187 10.2975 39.7921 11.4124 37.9685L11.4125 37.9684L24.6463 16.3146L24.6465 16.3143C25.9169 14.2339 29.0955 14.4728 30.0334 16.6937Z" stroke="white" stroke-width="2"/>
<path d="M66.899 68.0535L66.7227 68.1357L45.5688 78.0008C44.2989 78.5929 42.9247 78.9291 41.5248 78.9902C40.1249 79.0512 38.7267 78.8359 37.41 78.3566C36.0933 77.8773 34.8839 77.1434 33.8508 76.1967C32.8178 75.25 31.9813 74.1091 31.3892 72.8391C30.797 71.5691 30.4608 70.195 30.3998 68.7951C30.3387 67.3952 30.554 65.997 31.0333 64.6803C31.5126 63.3636 32.2466 62.1542 33.1933 61.1211C34.14 60.0881 35.2809 59.2516 36.5508 58.6595L36.5509 58.6594L57.7048 48.7944C60.2698 47.5985 63.2049 47.4706 65.8643 48.4388C67.1811 48.9181 68.3906 49.6522 69.4237 50.599C70.4568 51.5458 71.2933 52.6869 71.8854 53.9569C73.0813 56.522 73.2092 59.4571 72.241 62.1165C71.2951 64.7147 69.3787 66.8418 66.899 68.0535Z" stroke="white" stroke-width="2"/>
<path d="M64.3803 64.3501L56.7385 67.701L51.3615 56.8554L58.9172 53.5422C60.465 52.8821 62.2316 52.822 63.828 53.377C65.4249 53.9321 66.7056 55.0509 67.4094 56.4704C68.1118 57.8872 68.1902 59.5017 67.631 60.9698C67.0714 62.439 65.9107 63.66 64.3803 64.3501Z" stroke="white" stroke-width="2"/>
</svg>
