<svg width="90" height="90" viewBox="0 0 90 90" fill="none" xmlns="http://www.w3.org/2000/svg">
<path d="M12.0919 61C12.0877 60.9998 12.0785 60.9994 12.0651 60.9985C12.0347 60.9963 11.9848 60.9915 11.9222 60.9811C11.7924 60.9594 11.6346 60.918 11.4889 60.8452C11.3471 60.7743 11.2357 60.6836 11.1576 60.5664C11.0836 60.4554 11 60.2625 11 59.9167C11 59.1318 11.4214 57.3053 13.0509 55.6759C14.651 54.0757 17.5026 52.5833 22.5 52.5833C27.4974 52.5833 30.349 54.0757 31.9491 55.6759C33.5786 57.3053 34 59.1318 34 59.9167C34 60.2625 33.9164 60.4554 33.8424 60.5664C33.7643 60.6836 33.6529 60.7743 33.5111 60.8452C33.3654 60.918 33.2076 60.9594 33.0778 60.9811C33.0152 60.9915 32.9653 60.9963 32.9349 60.9985C32.9215 60.9994 32.9123 60.9998 32.9081 61H12.0919ZM26.2123 46.9623C25.2277 47.9469 23.8924 48.5 22.5 48.5C21.1076 48.5 19.7723 47.9469 18.7877 46.9623C17.8031 45.9777 17.25 44.6424 17.25 43.25C17.25 41.8576 17.8031 40.5223 18.7877 39.5377C19.7723 38.5531 21.1076 38 22.5 38C23.8924 38 25.2277 38.5531 26.2123 39.5377C27.1969 40.5223 27.75 41.8576 27.75 43.25C27.75 44.6424 27.1969 45.9777 26.2123 46.9623Z" stroke="#024D81" stroke-width="2"/>
<path d="M57.0919 61C57.0877 60.9998 57.0785 60.9994 57.0651 60.9985C57.0347 60.9963 56.9848 60.9915 56.9222 60.9811C56.7924 60.9594 56.6346 60.918 56.4889 60.8452C56.3471 60.7743 56.2357 60.6836 56.1576 60.5664C56.0836 60.4554 56 60.2625 56 59.9167C56 59.1318 56.4214 57.3053 58.0509 55.6759C59.651 54.0757 62.5026 52.5833 67.5 52.5833C72.4974 52.5833 75.349 54.0757 76.9491 55.6759C78.5786 57.3053 79 59.1318 79 59.9167C79 60.2625 78.9164 60.4554 78.8424 60.5664C78.7643 60.6836 78.6529 60.7743 78.5111 60.8452C78.3654 60.918 78.2076 60.9594 78.0778 60.9811C78.0152 60.9915 77.9653 60.9963 77.9349 60.9985C77.9215 60.9994 77.9123 60.9998 77.9081 61H57.0919ZM71.2123 46.9623C70.2277 47.9469 68.8924 48.5 67.5 48.5C66.1076 48.5 64.7723 47.9469 63.7877 46.9623C62.8031 45.9777 62.25 44.6424 62.25 43.25C62.25 41.8576 62.8031 40.5223 63.7877 39.5377C64.7723 38.5531 66.1076 38 67.5 38C68.8924 38 70.2277 38.5531 71.2123 39.5377C72.1969 40.5223 72.75 41.8576 72.75 43.25C72.75 44.6424 72.1969 45.9777 71.2123 46.9623Z" stroke="#024D81" stroke-width="2"/>
<path d="M29.9409 61.25L29.9433 61.25L29.9378 61.2498C29.9281 61.2495 29.9092 61.2487 29.8825 61.2468C29.8288 61.243 29.7455 61.2348 29.6429 61.2177C29.433 61.1827 29.1684 61.1146 28.916 60.9884C28.6674 60.8641 28.4493 60.6934 28.291 60.456C28.137 60.225 28 59.8719 28 59.3125C28 58.1005 28.6349 55.4199 31.0118 53.043C33.3594 50.6955 37.4921 48.5625 44.625 48.5625C51.7579 48.5625 55.8906 50.6955 58.2382 53.043C60.6151 55.4199 61.25 58.1005 61.25 59.3125C61.25 59.8719 61.113 60.225 60.959 60.456C60.8007 60.6934 60.5826 60.8641 60.334 60.9884C60.0816 61.1146 59.817 61.1827 59.6071 61.2177C59.5045 61.2348 59.4212 61.243 59.3675 61.2468C59.3408 61.2487 59.3219 61.2495 59.3122 61.2498L59.3067 61.25L59.3091 61.25L59.3107 61.25H59.3063H29.9437H29.9393L29.9409 61.25ZM50.1493 41.3368C48.6841 42.8019 46.697 43.625 44.625 43.625C42.553 43.625 40.5659 42.8019 39.1007 41.3368C37.6356 39.8716 36.8125 37.8845 36.8125 35.8125C36.8125 33.7405 37.6356 31.7534 39.1007 30.2882C40.5659 28.8231 42.553 28 44.625 28C46.697 28 48.6841 28.8231 50.1493 30.2882C51.6144 31.7534 52.4375 33.7405 52.4375 35.8125C52.4375 37.8845 51.6144 39.8716 50.1493 41.3368Z" fill="white" stroke="#024D81" stroke-width="2"/>
</svg>
