<svg width="90" height="90" viewBox="0 0 90 90" fill="none" xmlns="http://www.w3.org/2000/svg">
<path d="M59.2072 23.9843C59.284 23.838 59.3689 23.6752 59.4607 23.4981C59.8773 22.6936 60.4324 21.5966 60.987 20.425C61.5423 19.252 62.0937 18.0113 62.5052 16.9177C62.926 15.7995 63.1706 14.9099 63.1706 14.4045C63.1706 14.4045 63.1706 14.4044 63.1706 14.4044C63.1703 13.3715 62.7547 12.3796 62.0129 11.647C61.2703 10.9136 60.2616 10.5003 59.2084 10.5C58.687 10.4999 58.1709 10.6011 57.6895 10.7977C57.2081 10.9944 56.7711 11.2826 56.4032 11.6454C55.6605 12.3782 55.2442 13.3707 55.2439 14.4044L59.2072 23.9843ZM59.2072 23.9843C59.1305 23.838 59.0455 23.6752 58.9538 23.4981C58.5372 22.6936 57.9821 21.5966 57.4275 20.425C56.8722 19.252 56.3208 18.0113 55.9093 16.9177C55.4885 15.7995 55.2439 14.9099 55.2439 14.4045L59.2072 23.9843ZM64.8909 52.049L64.7709 52.0053L32.9486 40.425L32.1607 40.1382L32.7876 39.5813C33.2285 39.1896 33.4061 38.8179 33.4082 38.489C33.4027 38.2996 33.3498 38.1141 33.2537 37.949L32.9228 37.3808L33.5587 37.2138L54.814 31.6307L54.9486 31.5953L55.0821 31.6346C56.1936 31.9613 57.5685 32.1631 59.1011 32.1631C60.9762 32.1631 62.6496 31.8675 63.8358 31.4068C64.4306 31.1758 64.8775 30.9131 65.1673 30.6468C65.4566 30.3809 65.5514 30.1496 65.5514 29.9638C65.5514 29.7763 65.4561 29.5441 65.167 29.2781C64.8774 29.0115 64.4305 28.7487 63.8358 28.5177C62.6497 28.057 60.9763 27.7621 59.1011 27.7621C57.2261 27.7621 55.5528 28.0582 54.3666 28.5195C53.7719 28.7508 53.3248 29.0138 53.035 29.2803C52.7456 29.5465 52.6508 29.778 52.6508 29.9638C52.6508 30.0386 52.6718 30.1255 52.7291 30.2336L53.0347 30.8104L52.3983 30.9553L30.1877 36.012L30.0644 36.0401L29.9425 36.0062C28.1255 35.5002 26.2446 35.2518 24.3566 35.2686L24.3521 35.2686C21.7607 35.2686 19.4366 35.6783 17.7787 36.3232C16.9481 36.6463 16.31 37.0187 15.8881 37.4068C15.4666 37.7944 15.2987 38.1596 15.2987 38.4857C15.2987 38.8119 15.4666 39.177 15.8881 39.5647C16.31 39.9527 16.9481 40.3251 17.7787 40.6482C19.4366 41.2932 21.7607 41.7028 24.3521 41.7028C25.7714 41.7028 27.0961 41.5686 28.3014 41.3492L28.4431 41.3234L28.5768 41.3769L58.8801 53.5161L59.5846 53.7984L59.0473 54.3343C58.6152 54.7652 58.4208 55.1642 58.4208 55.5345C58.4208 55.8324 58.5731 56.1529 58.9003 56.5427L59.357 57.087L58.6905 57.3332L27.2145 68.961L27.1231 68.9948L27.0257 68.9917C26.6251 68.9792 26.2336 68.967 25.8357 68.967C21.7873 68.967 18.1426 69.6068 15.5282 70.6226C14.2194 71.1311 13.1941 71.7242 12.5046 72.3569C11.8154 72.9894 11.5 73.6229 11.5 74.2298C11.5 74.8389 11.8158 75.4739 12.5049 76.1072C13.1944 76.7409 14.2196 77.3346 15.5283 77.8435C18.1426 78.8602 21.7873 79.5 25.8357 79.5C29.8842 79.5 33.529 78.8615 36.1433 77.8457C37.452 77.3371 38.4772 76.7438 39.1666 76.1103C39.8556 75.4772 40.1714 74.8421 40.1714 74.2323C40.1714 73.8171 40.0139 73.3901 39.6884 72.9508L39.3342 72.4728L39.8661 72.2061L65.8121 59.1988L65.9433 59.133L66.0893 59.1486C67.0099 59.2468 67.96 59.3079 68.9553 59.3079C71.9588 59.3079 74.6557 58.834 76.5834 58.0843C77.5488 57.7088 78.296 57.2739 78.7933 56.8162C79.2901 56.3591 79.5 55.917 79.5 55.5095C79.5 55.1092 79.2916 54.6712 78.7943 54.2159C78.2968 53.7605 77.5493 53.3269 76.5837 52.9521C74.6557 52.2037 71.9586 51.7286 68.9553 51.7286V51.2286C67.5418 51.2289 66.1864 51.3461 64.9419 51.5355L64.8909 52.049ZM64.8909 52.049L65.0171 52.0298C66.2404 51.8437 67.5724 51.7286 68.9604 51.7286V51.2286L64.8909 52.049ZM56.7483 13.398L57.2143 13.5791L56.7483 13.398C56.6212 13.725 56.562 14.0742 56.5744 14.4246C56.5985 15.1017 56.888 15.7418 57.3798 16.2103L57.7247 15.8483L57.3798 16.2103C57.8715 16.6786 58.5269 16.9391 59.2075 16.9387C59.8881 16.9383 60.5432 16.6771 61.0343 16.2082C61.5256 15.7391 61.8143 15.0987 61.8375 14.4215C61.8495 14.0711 61.79 13.722 61.6625 13.3951C61.535 13.0682 61.3423 12.7704 61.0962 12.5193C60.8502 12.2683 60.5558 12.069 60.2309 11.9332C59.906 11.7973 59.5569 11.7275 59.2044 11.7277C58.8519 11.7279 58.5029 11.7981 58.1781 11.9344C57.8533 12.0706 57.5592 12.2702 57.3135 12.5216C57.0677 12.7729 56.8754 13.0709 56.7483 13.398Z" fill="#024D81" stroke="#024D81"/>
</svg>
