<svg width="90" height="90" viewBox="0 0 90 90" fill="none" xmlns="http://www.w3.org/2000/svg">
<path d="M44.0208 36.8088C44.0208 43.6109 38.9205 48.7112 32.1184 48.7112C25.3163 48.7112 20.216 43.6109 20.216 36.8088C20.216 30.0067 25.3163 24.9064 32.1184 24.9064C38.9205 24.9064 44.0208 30.0067 44.0208 36.8088ZM11 71.6379C11 62.0268 18.8209 54.2059 28.432 54.2059H35.8048C45.416 54.2059 53.2368 62.0268 53.2368 71.6379V74.3243H11V71.6379ZM73.6689 38.4603C73.6689 31.6388 71.1305 25.1998 66.5126 20.2259L70.3134 16.4251C75.9516 22.4187 79.0417 30.2011 79.0417 38.4603C79.0417 46.7194 75.9516 54.5019 70.3134 60.4954L66.5126 56.6946C71.1305 51.7208 73.6689 45.2817 73.6689 38.4603Z" stroke="#024D81" stroke-width="2"/>
<path d="M58.923 38.4599C58.923 35.5748 57.916 32.8425 56.0686 30.672L59.8759 26.8593C62.7326 30.0555 64.2958 34.1324 64.2958 38.4599C64.2958 42.7874 62.7326 46.8644 59.8759 50.0605L56.0686 46.2479C57.916 44.0774 58.923 41.345 58.923 38.4599Z" stroke="#024D81" stroke-width="2"/>
</svg>
