<svg width="90" height="90" viewBox="0 0 90 90" fill="none" xmlns="http://www.w3.org/2000/svg">
<path d="M78.5584 16.0029H12.0319C11.8394 16.0138 11.6532 16.0749 11.4914 16.1798C11.3482 16.3069 11.2413 16.4697 11.1816 16.6516V59.1308C11.2935 59.6798 11.5311 60.1952 11.8756 60.6371C12.2548 61.0116 12.725 61.2809 13.24 61.4184H77.0157C77.4921 61.3553 77.9422 61.1633 78.3175 60.8633C78.6089 60.4284 78.7817 59.9247 78.8185 59.4024V16.9043C78.8059 16.6487 78.6951 16.408 78.5088 16.2324C78.2476 16.0816 77.9514 16.0016 77.6498 16H69.6939" stroke="#024D81" stroke-width="2" stroke-linecap="square" stroke-linejoin="round"/>
<path d="M34.0371 73.1392H56.8928" stroke="#024D81" stroke-width="2" stroke-linecap="square"/>
<path d="M39.751 71.9969V61.7119" stroke="#024D81" stroke-width="2" stroke-linecap="square"/>
<path d="M51 73.1396L51.1792 61.7119" stroke="#024D81" stroke-width="2" stroke-linecap="square"/>
<path d="M50.6911 40.8522L44 37.5067L50.6911 34.1611" stroke="#024D81" stroke-width="2" stroke-linecap="square" stroke-linejoin="round"/>
<path d="M61.938 40.8522L68.6291 37.5067L61.938 34.1611" stroke="#024D81" stroke-width="2" stroke-linecap="square" stroke-linejoin="round"/>
<path d="M54.3076 44.1976L58.3223 30.8154" stroke="#024D81" stroke-width="2" stroke-linecap="square"/>
<line x1="11" y1="25.1396" x2="34" y2="25.1396" stroke="#024D81" stroke-width="2"/>
<line x1="11" y1="30.1396" x2="27.2917" y2="30.1396" stroke="#024D81" stroke-width="2"/>
<line x1="11" y1="45.1396" x2="27.2917" y2="45.1396" stroke="#024D81" stroke-width="2"/>
<line x1="11" y1="40.1396" x2="21.5417" y2="40.1396" stroke="#024D81" stroke-width="2"/>
<line x1="11" y1="50.1396" x2="17.7083" y2="50.1396" stroke="#024D81" stroke-width="2"/>
<line x1="11" y1="35.1396" x2="32.0833" y2="35.1396" stroke="#024D81" stroke-width="2"/>
<rect x="38" y="25.1396" width="36" height="25" stroke="#024D81" stroke-width="2"/>
</svg>
