<svg width="90" height="90" viewBox="0 0 90 90" fill="none" xmlns="http://www.w3.org/2000/svg">
<path d="M23.9325 31.8367H16.647C16.4833 31.8457 16.3246 31.8974 16.1869 31.9864C16.0654 32.0943 15.9746 32.2323 15.9238 32.3866V68.479C16.0189 68.9452 16.2209 69.3831 16.5136 69.7583C16.836 70.0767 17.2356 70.3057 17.6732 70.4228H71.859C72.2639 70.3688 72.6462 70.2055 72.965 69.9502C73.2122 69.5811 73.3587 69.1539 73.3903 68.7108V32.6037C73.3796 32.3865 73.2853 32.1818 73.1272 32.0326C72.9053 31.9047 72.6539 31.8367 72.3977 31.8354H65.6371" stroke="#024D81" stroke-width="2" stroke-linecap="round" stroke-linejoin="round"/>
<path d="M40 78V71" stroke="#024D81" stroke-width="2" stroke-linecap="round"/>
<path d="M50 78V71" stroke="#024D81" stroke-width="2" stroke-linecap="round"/>
<path d="M36.5726 59.0536L31.321 62.7446L23.939 52.2414L34.4421 44.8594L35.0262 46.0265" stroke="#024D81" stroke-width="2" stroke-linecap="round" stroke-linejoin="round"/>
<path d="M64.5068 11.6382H36.5716V59.0066H64.5068V11.6382Z" stroke="#024D81" stroke-width="2" stroke-linejoin="round"/>
<path d="M54.7159 28.6421L43.8591 32.1787L47.3957 43.0356L58.2525 39.4989L54.7159 28.6421Z" stroke="#024D81" stroke-width="2" stroke-linejoin="round"/>
</svg>
