<svg width="90" height="90" viewBox="0 0 90 90" fill="none" xmlns="http://www.w3.org/2000/svg">
<path d="M49.3333 29.25H41.6667C40.0935 29.25 38.8333 27.9889 38.8333 26.4375V18.8125C38.8333 17.2641 40.0941 16 41.6667 16H49.3333C50.9029 16 52.1667 17.2647 52.1667 18.8125V26.4375C52.1667 27.9853 50.9029 29.25 49.3333 29.25ZM58 28.3438V23.625H74.25C76.8775 23.625 79 25.7429 79 28.3438V70.2812C79 72.8823 76.8785 75 74.25 75H16.75C14.1216 75 12 72.8812 12 70.2812V28.3438C12 25.7427 14.1215 23.625 16.75 23.625H33V28.3438C33 32.0584 36.0284 35.0625 39.75 35.0625H51.25C54.9716 35.0625 58 32.0584 58 28.3438ZM54.1667 49.3125C54.1667 44.5448 50.2819 40.6875 45.5 40.6875C40.7246 40.6875 36.8333 44.5442 36.8333 49.3125C36.8333 54.0802 40.7181 57.9375 45.5 57.9375C50.2819 57.9375 54.1667 54.0802 54.1667 49.3125ZM34 69.375H57C58.6013 69.375 59.9167 68.0746 59.9167 66.4688C59.9167 62.7529 56.8895 59.75 53.1667 59.75H37.8333C34.1117 59.75 31.0833 62.7541 31.0833 66.4688C31.0833 68.0789 32.3944 69.375 34 69.375Z" stroke="#024D81" stroke-width="2"/>
</svg>
