<svg width="90" height="90" viewBox="0 0 90 90" fill="none" xmlns="http://www.w3.org/2000/svg">
<path d="M12.4857 19.4861L12.4859 19.4859C13.1316 18.838 14.1781 18.838 14.8239 19.4859L14.824 19.486L21.7965 26.4787L23.5046 28.1918V25.7726V21.5502C23.5046 20.5801 24.2915 19.7877 25.1595 19.7877C26.0275 19.7877 26.8144 20.5801 26.8144 21.5502V32.2007C26.8144 33.1267 26.0757 33.8633 25.1595 33.8633H14.5399C13.5796 33.8633 12.7854 33.0783 12.7854 32.2007C12.7854 31.3231 13.5796 30.5381 14.5399 30.5381H18.7501H21.1594L19.4582 28.832L12.4858 21.8392L12.4857 21.8391C11.8381 21.1899 11.8381 20.1353 12.4857 19.4861ZM78.412 19.4506L78.4426 19.4844L78.4762 19.5154C79.1746 20.1588 79.1746 21.1664 78.4762 21.8099L78.4581 21.8265L78.4409 21.8439L71.5603 28.8367L69.8862 30.5381H72.2731H76.4878C77.404 30.5381 78.1427 31.2747 78.1427 32.2007C78.1427 33.1267 77.404 33.8633 76.4878 33.8633H65.8681C64.9519 33.8633 64.2132 33.1267 64.2132 32.2007V21.5502C64.2132 20.5801 65.0001 19.7877 65.8681 19.7877C66.7361 19.7877 67.523 20.5801 67.523 21.5502V25.7726V28.1926L69.2313 26.4786L76.1993 19.487C76.8694 18.8168 77.8876 18.8706 78.412 19.4506ZM19.4581 62.1959L21.1602 60.4897H18.7501H14.5399C13.5796 60.4897 12.7854 59.7046 12.7854 58.827C12.7854 57.9494 13.5796 57.1644 14.5399 57.1644H25.1595C26.0757 57.1644 26.8144 57.901 26.8144 58.827V69.4776C26.8144 70.4036 26.0757 71.1402 25.1595 71.1402C24.2433 71.1402 23.5046 70.4036 23.5046 69.4776V65.2506V62.854L21.8011 64.5399L14.8287 71.4405L14.8113 71.4578L14.7947 71.4758C14.1546 72.1747 13.1552 72.1747 12.5151 71.4758L12.4842 71.4422L12.4505 71.4115C11.8708 70.8843 11.8171 69.8587 12.4858 69.1851C12.4861 69.1848 12.4865 69.1845 12.4868 69.1841L19.4581 62.1959ZM69.2267 64.54L67.523 62.8532V65.2506V69.4776C67.523 70.4036 66.7844 71.1402 65.8681 71.1402C64.9519 71.1402 64.2132 70.4036 64.2132 69.4776V58.827C64.2132 57.901 64.9519 57.1644 65.8681 57.1644H76.4878C77.404 57.1644 78.1427 57.901 78.1427 58.827C78.1427 59.753 77.404 60.4897 76.4878 60.4897H72.2731H69.8854L71.5605 62.1912L78.4411 69.1806L78.4577 69.1974L78.475 69.2134C79.1978 69.8815 79.1397 70.8597 78.5125 71.384L78.4427 71.4423L78.3846 71.5122C77.8632 72.1397 76.8932 72.198 76.2285 71.4747L76.2126 71.4573L76.1958 71.4407L69.2267 64.54ZM25.7792 44.615C27.1204 41.92 29.5103 38.3784 32.8529 35.5224C36.1888 32.6721 40.4305 30.5381 45.5138 30.5381C50.5971 30.5381 54.8388 32.6721 58.1747 35.5224C61.517 38.3782 63.9068 41.9194 65.2481 44.6143C65.5305 45.1892 65.5306 45.8379 65.2484 46.4129C63.9071 49.1078 61.5173 52.6493 58.1747 55.5054C54.8388 58.3557 50.5971 60.4897 45.5138 60.4897C40.4305 60.4897 36.1888 58.3557 32.8529 55.5054C29.5104 52.6494 27.1206 49.108 25.7793 46.413C25.4972 45.8383 25.4971 45.1898 25.7792 44.615ZM45.5138 53.6142C49.9738 53.6142 53.5936 49.9797 53.5936 45.5139C53.5936 41.048 49.9738 37.4135 45.5138 37.4135C41.0539 37.4135 37.4341 41.048 37.4341 45.5139C37.4341 49.9797 41.0539 53.6142 45.5138 53.6142Z" stroke="#024D81" stroke-width="2"/>
</svg>
