<svg width="90" height="90" viewBox="0 0 90 90" fill="none" xmlns="http://www.w3.org/2000/svg">
<path d="M20.6884 27.6118H12.7359C12.5572 27.6222 12.3844 27.6795 12.2348 27.7776C12.1023 27.8974 12.0038 28.05 11.9492 28.2202V68.0036C12.0529 68.5164 12.2732 68.9987 12.5931 69.4128C12.9441 69.7633 13.3808 70.0157 13.8595 70.1451H73.0158C73.4584 70.0857 73.8762 69.9059 74.2236 69.6254C74.4942 69.2178 74.6545 68.7472 74.6891 68.2592V28.4585C74.6781 28.2198 74.5759 27.9946 74.4035 27.829C74.1616 27.6881 73.8869 27.6131 73.6069 27.6118H66.227" stroke="#024D81" stroke-width="2" stroke-linecap="round" stroke-linejoin="round"/>
<path d="M31.9741 78.5342H54.3194" stroke="#024D81" stroke-width="2" stroke-linecap="round"/>
<path d="M37.9585 78.5358V72.1299" stroke="#024D81" stroke-width="2" stroke-linecap="round"/>
<path d="M48.9556 78.5358V72.1299" stroke="#024D81" stroke-width="2" stroke-linecap="round"/>
<path d="M39.4789 30.7442V21.7109H30.4458V30.7442H39.4789Z" stroke="#024D81" stroke-width="2" stroke-linecap="round" stroke-linejoin="round"/>
<path d="M66.825 15.7959H34.4443V19.8164" stroke="#024D81" stroke-width="2" stroke-linecap="round" stroke-linejoin="round"/>
<path d="M51.5117 15.7959V32.3575" stroke="#024D81" stroke-width="2" stroke-linecap="round"/>
<path d="M56.4888 43.8407V34.8076H47.4556V43.8407H56.4888Z" stroke="#024D81" stroke-width="2" stroke-linecap="round" stroke-linejoin="round"/>
<path d="M77.9999 20.3116V11.2783H68.9668V20.3116H77.9999Z" stroke="#024D81" stroke-width="2" stroke-linecap="round" stroke-linejoin="round"/>
<path d="M56.2054 53.0449H21.9399V63.039H56.2054V53.0449Z" stroke="#024D81" stroke-width="2" stroke-linecap="round" stroke-linejoin="round"/>
<path d="M34.7896 30.811V51.1132" stroke="#024D81" stroke-width="2" stroke-linecap="round"/>
<path d="M51.9224 44.9722V51.2627" stroke="#024D81" stroke-width="2" stroke-linecap="round"/>
</svg>
