<svg width="90" height="90" viewBox="0 0 90 90" fill="none" xmlns="http://www.w3.org/2000/svg">
<path d="M59.3085 29.6743V25.8761C59.3085 25.528 59.0261 25.2431 58.6809 25.2431H28.5532C28.208 25.2431 27.9255 25.528 27.9255 25.8761V29.6743C27.9255 30.0225 28.208 30.3073 28.5532 30.3073H58.6809C59.0261 30.3073 59.3085 30.0225 59.3085 29.6743ZM28.5532 36.6376C28.208 36.6376 27.9255 36.9225 27.9255 37.2706V41.0688C27.9255 41.417 28.208 41.7018 28.5532 41.7018H42.9894C43.3346 41.7018 43.617 41.417 43.617 41.0688V37.2706C43.617 36.9225 43.3346 36.6376 42.9894 36.6376H28.5532ZM58.0532 45.8165C48.6932 45.8165 41.1064 53.4682 41.1064 62.9083C41.1064 72.3483 48.6932 80 58.0532 80C67.4132 80 75 72.3483 75 62.9083C75 53.4682 67.4132 45.8165 58.0532 45.8165ZM66.4874 71.4146C64.2356 73.6855 61.2386 74.9358 58.0532 74.9358C54.8678 74.9358 51.8707 73.6855 49.619 71.4146C47.3673 69.1436 46.1277 66.1209 46.1277 62.9083C46.1277 59.6956 47.3673 56.6729 49.619 54.4019C51.8707 52.131 54.8678 50.8807 58.0532 50.8807C61.2386 50.8807 64.2356 52.131 66.4874 54.4019C68.7391 56.6729 69.9787 59.6956 69.9787 62.9083C69.9787 66.1209 68.7391 69.1436 66.4874 71.4146ZM65.0359 56.8945H61.5602C61.3562 56.8945 61.168 56.9894 61.0503 57.1556L56.0682 64.1031L54.2558 61.5789C54.1978 61.4974 54.1212 61.4311 54.0324 61.3856C53.9437 61.3402 53.8454 61.3169 53.7459 61.3178H50.2859C49.7759 61.3178 49.4778 61.9033 49.7759 62.3227L55.5661 70.4017C55.8172 70.7499 56.3271 70.7499 56.5782 70.4017L65.538 57.8994C65.844 57.48 65.5459 56.8945 65.0359 56.8945ZM39.8511 72.4037H21.6489V16.6972H65.5851V43.9174C65.5851 44.2656 65.8676 44.5505 66.2128 44.5505H70.6064C70.9516 44.5505 71.234 44.2656 71.234 43.9174V13.5321C71.234 12.1315 70.1121 11 68.7234 11H18.5106C17.1219 11 16 12.1315 16 13.5321V75.5688C16 76.9694 17.1219 78.1009 18.5106 78.1009H39.8511C40.1963 78.1009 40.4787 77.8161 40.4787 77.4679V73.0367C40.4787 72.6885 40.1963 72.4037 39.8511 72.4037Z" stroke="#024D81" stroke-width="2"/>
</svg>
