<svg width="90" height="90" viewBox="0 0 90 90" fill="none" xmlns="http://www.w3.org/2000/svg">
<path d="M74.1429 45.5H49.8571C48.5693 45.5013 47.3347 46.0123 46.424 46.9208C45.5134 47.8294 45.0013 49.0613 45 50.3462V64.8846C45.0013 66.1695 45.5134 67.4014 46.424 68.3099C47.3347 69.2185 48.5693 69.7295 49.8571 69.7308H59.5714V64.8846H49.8571V50.3462H74.1429V64.8846H67.9864L61.6867 74.3104L65.7279 77L70.585 69.7308H74.1429C75.4307 69.7295 76.6653 69.2185 77.576 68.3099C78.4866 67.4014 78.9987 66.1695 79 64.8846V50.3462C78.9987 49.0613 78.4866 47.8294 77.576 46.9208C76.6653 46.0123 75.4307 45.5013 74.1429 45.5ZM27.1913 62.7257L29.2823 60.637C29.5625 60.3575 29.9187 60.1663 30.3069 60.087C30.695 60.0078 31.0979 60.044 31.4656 60.1911L34.0156 61.2088C34.3905 61.3588 34.7119 61.6174 34.9382 61.9512C35.1646 62.285 35.2856 62.6788 35.2857 63.0818V67.7051C35.2865 67.98 35.2309 68.2522 35.1225 68.5049C35.0141 68.7576 34.855 68.9856 34.6551 69.1748C34.4553 69.364 34.2187 69.5105 33.9601 69.6053C33.7014 69.7001 33.4261 69.7411 33.151 69.7259C15.2913 68.6186 11.6824 53.5252 11.0146 47.7438C10.9824 47.4614 11.0104 47.1753 11.0968 46.9045C11.1832 46.6336 11.3261 46.3841 11.516 46.1722C11.7059 45.9603 11.9385 45.7909 12.1986 45.6751C12.4588 45.5592 12.7405 45.4995 13.0254 45.5H17.5766C17.9812 45.5001 18.3764 45.6211 18.7115 45.8474C19.0465 46.0737 19.3059 46.3949 19.4563 46.7697L20.4763 49.3139C20.6232 49.6805 20.6592 50.082 20.5798 50.4687C20.5004 50.8555 20.309 51.2105 20.0294 51.4898L17.936 53.5761C18.2996 55.886 19.3934 58.0196 21.0579 59.6655C22.7224 61.3114 24.8706 62.3836 27.1889 62.7257H27.1913ZM57.1429 26.1154H74.1429V30.9615H57.1429V26.1154ZM57.1429 16.4231H79V21.2692H57.1429V16.4231ZM47.4286 18.8462L40.1429 24.1769V18.8462C40.1416 17.5613 39.6294 16.3294 38.7188 15.4208C37.8082 14.5123 36.5735 14.0013 35.2857 14H15.8571C14.5693 14.0013 13.3347 14.5123 12.424 15.4208C11.5134 16.3294 11.0013 17.5613 11 18.8462V33.3846C11.0013 34.6695 11.5134 35.9014 12.424 36.8099C13.3347 37.7185 14.5693 38.2295 15.8571 38.2308H35.2857C36.5735 38.2295 37.8082 37.7185 38.7188 36.8099C39.6294 35.9014 40.1416 34.6695 40.1429 33.3846V28.0538L47.4286 33.3846V18.8462ZM15.8571 33.3846V18.8462H35.2857V33.3846H15.8571Z" stroke="#024D81" stroke-width="2"/>
</svg>
