<svg width="90" height="90" viewBox="0 0 90 90" fill="none" xmlns="http://www.w3.org/2000/svg">
<path d="M58.2 11H31.8C20.328 11 11 20.328 11 31.8V74.7C11 75.8404 11.453 76.9342 12.2594 77.7406C13.0658 78.547 14.1596 79 15.3 79H58.2C69.672 79 79 69.672 79 58.2V31.8C79 20.328 69.672 11 58.2 11ZM70.4 58.2C70.4 64.9275 64.9275 70.4 58.2 70.4H19.6V31.8C19.6 25.0725 25.0725 19.6 31.8 19.6H58.2C64.9275 19.6 70.4 25.0725 70.4 31.8V58.2Z" stroke="white" stroke-width="2"/>
<path d="M49.3 28.5V27.5H48.3H41.7H40.7V28.5V40.7H28.5H27.5V41.7V48.3V49.3H28.5H40.7V61.5V62.5H41.7H48.3H49.3V61.5V49.3H61.5H62.5V48.3V41.7V40.7H61.5H49.3V28.5Z" stroke="white" stroke-width="2"/>
</svg>
