<svg width="90" height="90" viewBox="0 0 90 90" fill="none" xmlns="http://www.w3.org/2000/svg">
<path d="M26.85 63.1504H16.95V73.0504" stroke="#024D81" stroke-width="2" stroke-linecap="round" stroke-linejoin="round"/>
<path d="M73.05 73.0504H63.15V63.1504" stroke="#024D81" stroke-width="2" stroke-linecap="round" stroke-linejoin="round"/>
<path d="M63.15 26.8502H73.05V16.9502" stroke="#024D81" stroke-width="2" stroke-linecap="round" stroke-linejoin="round"/>
<path d="M16.95 16.9502H26.85V26.8502" stroke="#024D81" stroke-width="2" stroke-linecap="round" stroke-linejoin="round"/>
<path d="M26.85 17.4355C17.9033 23.3383 12 33.4799 12 45.0004C12 46.6827 12.1259 48.3357 12.3688 49.9504" stroke="#024D81" stroke-width="2" stroke-linecap="round" stroke-linejoin="round"/>
<path d="M49.9498 77.6316C48.3351 77.8745 46.6822 78.0004 44.9998 78.0004C33.4794 78.0004 23.3378 72.097 17.435 63.1504" stroke="#024D81" stroke-width="2" stroke-linecap="round" stroke-linejoin="round"/>
<path d="M77.6312 40.0498C77.8741 41.6645 78 43.3175 78 44.9998C78 56.5203 72.0966 66.6618 63.15 72.5647" stroke="#024D81" stroke-width="2" stroke-linecap="round" stroke-linejoin="round"/>
<path d="M40.05 12.3688C41.6647 12.1259 43.3177 12 45 12C56.5205 12 66.662 17.9033 72.5649 26.85" stroke="#024D81" stroke-width="2" stroke-linecap="round" stroke-linejoin="round"/>
<path d="M35.0881 38.4736L30.2717 44.3844L35.3197 50.5734" stroke="#024D81" stroke-width="2" stroke-linecap="round" stroke-linejoin="round"/>
<path d="M55.1834 38.4736L60 44.3844L54.9518 50.5732" stroke="#024D81" stroke-width="2" stroke-linecap="round" stroke-linejoin="round"/>
<path d="M48.2942 38.4736L42.1265 50.6457" stroke="#024D81" stroke-width="2" stroke-linecap="round"/>
</svg>
