<svg width="278" height="55" viewBox="0 0 278 55" fill="none" xmlns="http://www.w3.org/2000/svg">
<g clip-path="url(#clip0_1170_10)">
<path d="M2 52.6909V41.2359C2 30.0499 17.184 20.9989 35.948 20.9989L246.357 20.9989C262.466 20.9989 275.5 28.7669 275.5 38.3709V52.6909" stroke="#024D81" stroke-width="4" stroke-miterlimit="10" stroke-linecap="round" stroke-dasharray="8 8"/>
<path d="M139 42C150.598 42 160 32.598 160 21C160 9.40202 150.598 0 139 0C127.402 0 118 9.40202 118 21C118 32.598 127.402 42 139 42Z" fill="#024D81"/>
<path d="M142.667 20.812L135.454 28.797C135.196 29.0921 135.054 29.4706 135.054 29.8625C135.054 30.2544 135.196 30.633 135.454 30.928C135.574 31.0663 135.722 31.1773 135.889 31.2533C136.055 31.3293 136.236 31.3687 136.419 31.3687C136.602 31.3687 136.783 31.3293 136.949 31.2533C137.116 31.1773 137.264 31.0663 137.384 30.928L145.554 21.881C145.803 21.5937 145.944 21.228 145.951 20.8478C145.958 20.4675 145.832 20.0967 145.594 19.8L137.385 10.69C137.265 10.5518 137.117 10.4411 136.95 10.3651C136.784 10.2892 136.603 10.2499 136.42 10.2499C136.237 10.2499 136.056 10.2892 135.89 10.3651C135.723 10.4411 135.575 10.5518 135.455 10.69C135.197 10.9851 135.055 11.3636 135.055 11.7555C135.055 12.1474 135.197 12.526 135.455 12.821L142.667 20.812Z" fill="#FCFFF9"/>
</g>
<defs>
<clipPath id="clip0_1170_10">
<rect width="277.5" height="54.691" fill="white"/>
</clipPath>
</defs>
</svg>
