<svg width="278" height="72" viewBox="0 0 278 72" fill="none" xmlns="http://www.w3.org/2000/svg">
<g clip-path="url(#clip0_1170_4)">
<path d="M275.5 2V19.689C275.5 36.963 260.316 50.939 241.552 50.939H31.143C15.034 50.938 2 38.938 2 24.113V2" stroke="#024D81" stroke-width="4" stroke-miterlimit="10" stroke-linecap="round" stroke-dasharray="8 8"/>
<path d="M139 72C150.598 72 160 62.598 160 51C160 39.402 150.598 30 139 30C127.402 30 118 39.402 118 51C118 62.598 127.402 72 139 72Z" fill="#024D81"/>
<path d="M142.667 50.812L135.454 58.797C135.196 59.0921 135.054 59.4706 135.054 59.8625C135.054 60.2544 135.196 60.633 135.454 60.928C135.574 61.0663 135.722 61.1773 135.889 61.2533C136.055 61.3293 136.236 61.3687 136.419 61.3687C136.602 61.3687 136.783 61.3293 136.949 61.2533C137.116 61.1773 137.264 61.0663 137.384 60.928L145.554 51.881C145.803 51.5937 145.944 51.228 145.951 50.8478C145.958 50.4675 145.832 50.0967 145.594 49.8L137.385 40.69C137.265 40.5518 137.117 40.4411 136.95 40.3651C136.784 40.2892 136.603 40.2499 136.42 40.2499C136.237 40.2499 136.056 40.2892 135.89 40.3651C135.723 40.4411 135.575 40.5518 135.455 40.69C135.197 40.9851 135.055 41.3636 135.055 41.7555C135.055 42.1474 135.197 42.526 135.455 42.821L142.667 50.812Z" fill="#FCFFF9"/>
</g>
<defs>
<clipPath id="clip0_1170_4">
<rect width="277.5" height="72" fill="white"/>
</clipPath>
</defs>
</svg>
