<svg width="48" height="48" viewBox="0 0 48 48" fill="none" xmlns="http://www.w3.org/2000/svg">
<path d="M37.8461 0C40.1367 0 42 1.86316 42 4.15381V6.97412L44.5338 10.8716C44.5404 10.8818 44.547 10.8926 44.5536 10.9028L47.7708 15.8525C47.7715 15.8536 47.7722 15.8549 47.7729 15.856C47.9385 16.1086 48.0146 16.4044 47.9971 16.6978C47.9982 16.7472 48 16.7964 48 16.8462C48 19.7466 46.2924 22.2471 43.8461 23.3691V39.2368C46.1569 39.3573 48 41.2751 48 43.6152C48 46.033 46.0331 48 43.6154 48H4.38464C1.96692 48 0 46.033 0 43.6152C0 41.2751 1.84314 39.3573 4.15393 39.2368V23.3691C1.70764 22.2471 0 19.7466 0 16.8462C0 16.7883 0.0018309 16.7308 0.0032959 16.6733C-0.0091551 16.3892 0.0655518 16.1029 0.227051 15.8564L0.229248 15.8525L6 6.97412V4.15381C6 1.86316 7.86328 0 10.1539 0H37.8461ZM43.6154 42H4.38464C3.49402 42 2.76929 42.7246 2.76929 43.6152C2.76929 44.5059 3.49402 45.2305 4.38464 45.2305H43.6154C44.506 45.2305 45.2307 44.5059 45.2307 43.6152C45.2307 42.7246 44.506 42 43.6154 42ZM35.3086 21.1025C35.3053 21.1069 35.302 21.1113 35.2987 21.1157C35.2917 21.1249 35.2848 21.1339 35.2778 21.1431C35.2211 21.22 35.1625 21.2953 35.1028 21.3696L35.0746 21.4053C35.012 21.4818 34.9479 21.5568 34.8823 21.6304L34.8409 21.6768C34.7747 21.7504 34.7069 21.8224 34.6377 21.8931L34.608 21.9224C34.5421 21.9894 34.4744 22.0546 34.4059 22.1187C34.3956 22.1282 34.3857 22.1379 34.3751 22.1475C34.3026 22.2145 34.2286 22.279 34.1536 22.3428C34.1371 22.3563 34.1213 22.3698 34.1049 22.3833C34.0294 22.4463 33.9529 22.5077 33.8749 22.5674L33.8368 22.5957C33.7621 22.6521 33.6863 22.7073 33.609 22.7607C33.5988 22.7677 33.5885 22.7749 33.5782 22.7822C33.4966 22.8379 33.4135 22.892 33.3296 22.9443C33.3116 22.9557 33.2937 22.967 33.2758 22.978C33.1919 23.0293 33.1073 23.0789 33.0212 23.1265C33.0066 23.1345 32.9916 23.1428 32.9769 23.1509C32.8934 23.1966 32.8092 23.2406 32.7239 23.2827L32.6957 23.2969C32.606 23.3408 32.5148 23.3821 32.4229 23.4224C32.4034 23.4308 32.3844 23.4392 32.3654 23.4473C32.2745 23.4861 32.1826 23.5233 32.0896 23.5581C32.0731 23.5647 32.0563 23.57 32.0394 23.5762C31.9479 23.6099 31.8552 23.6423 31.7618 23.6724C31.7545 23.6746 31.7472 23.6771 31.7399 23.6797C31.6425 23.7104 31.5439 23.7379 31.4451 23.7646L31.3857 23.7808C31.2887 23.8057 31.1906 23.8287 31.0917 23.8496C31.0734 23.8536 31.0554 23.8567 31.0371 23.8604C30.9368 23.8809 30.8361 23.8994 30.7346 23.9155L30.7222 23.9175C30.6185 23.934 30.5134 23.9468 30.4083 23.9585L30.3486 23.9648C30.2461 23.9751 30.1432 23.9829 30.0396 23.9888C30.0198 23.9899 30.0004 23.991 29.9806 23.9917C29.8726 23.9968 29.7638 24 29.6547 24C29.5452 24 29.4368 23.9968 29.3284 23.9917C29.309 23.991 29.2892 23.9899 29.2698 23.9888C29.1661 23.9829 29.0632 23.9751 28.9607 23.9648C28.9406 23.963 28.9208 23.9603 28.901 23.9585C28.7955 23.9468 28.6908 23.934 28.5868 23.9175L28.5743 23.9155C28.4729 23.8994 28.3722 23.8809 28.2722 23.8604C28.2539 23.8567 28.2356 23.8536 28.2177 23.8496C28.1188 23.8287 28.0206 23.8057 27.9236 23.7808C27.9034 23.7756 27.884 23.7698 27.8643 23.7646C27.765 23.7379 27.6665 23.7104 27.5691 23.6797C27.5621 23.6771 27.5548 23.6746 27.5475 23.6724C27.4537 23.6423 27.3615 23.6099 27.2695 23.5762C27.2531 23.5703 27.2362 23.5647 27.2194 23.5581C27.1267 23.5233 27.0348 23.4861 26.944 23.4473C26.9246 23.4392 26.9055 23.4308 26.8865 23.4224C26.7946 23.3821 26.7034 23.3408 26.6133 23.2969L26.5854 23.2827C26.5001 23.2406 26.4159 23.1966 26.3324 23.1509C26.3174 23.1428 26.3024 23.1345 26.2877 23.1265C26.2017 23.0789 26.1171 23.0293 26.0336 22.978C26.0156 22.967 25.9977 22.9557 25.9794 22.9443C25.8955 22.892 25.8124 22.8379 25.7307 22.7822C25.7205 22.7749 25.7106 22.7677 25.7 22.7607C25.623 22.7073 25.5472 22.6521 25.4722 22.5957L25.4344 22.5674C25.3564 22.5077 25.2795 22.4463 25.2041 22.3833L25.1558 22.3428C25.0807 22.279 25.0063 22.2145 24.9338 22.1475C24.9236 22.1379 24.9137 22.1282 24.9034 22.1187C24.8346 22.0546 24.7672 21.9894 24.7009 21.9224C24.691 21.9125 24.6812 21.903 24.6713 21.8931C24.6021 21.8224 24.5347 21.7504 24.4684 21.6768C24.4545 21.6614 24.4406 21.6461 24.427 21.6304C24.3614 21.5568 24.297 21.4818 24.2344 21.4053L24.2065 21.3696C24.1465 21.2956 24.0883 21.22 24.0315 21.1431C24.0245 21.1339 24.0172 21.1249 24.0106 21.1157L24.0056 21.1089C23.9975 21.1068 23.9938 21.1113 23.9905 21.1157C23.9839 21.1249 23.9766 21.1339 23.9696 21.1431C23.9128 21.22 23.8542 21.2953 23.7946 21.3696L23.7667 21.4053C23.7041 21.4818 23.6396 21.5568 23.5741 21.6304L23.5327 21.6768C23.4664 21.7504 23.399 21.8224 23.3298 21.8931L23.3002 21.9224C23.2339 21.9894 23.1665 22.0546 23.0977 22.1187C23.0874 22.1282 23.0775 22.1379 23.0673 22.1475C22.9948 22.2145 22.9204 22.279 22.8453 22.3428C22.8292 22.3563 22.8131 22.3698 22.797 22.3833C22.7212 22.4463 22.6447 22.5077 22.5667 22.5674L22.5289 22.5957C22.4539 22.6521 22.3781 22.7073 22.3011 22.7607C22.2909 22.7677 22.2806 22.7749 22.2704 22.7822C22.1887 22.8379 22.1056 22.892 22.0217 22.9443C22.0034 22.9557 21.9858 22.967 21.9675 22.978C21.8837 23.0293 21.7991 23.0789 21.7134 23.1265C21.6987 23.1345 21.6837 23.1428 21.6687 23.1509C21.5852 23.1966 21.501 23.2406 21.4156 23.2827L21.3878 23.2969C21.2977 23.3408 21.2065 23.3821 21.1146 23.4224C21.0956 23.4308 21.0765 23.4392 21.0571 23.4473C20.9663 23.4861 20.8744 23.5233 20.7817 23.5581C20.7649 23.5647 20.748 23.57 20.7316 23.5762C20.6396 23.6099 20.5474 23.6423 20.4536 23.6724C20.4463 23.6746 20.4393 23.6771 20.432 23.6797C20.3346 23.7104 20.2361 23.7379 20.1368 23.7646C20.1171 23.7698 20.0973 23.7756 20.0775 23.7808C19.9805 23.8057 19.8823 23.8287 19.7834 23.8496C19.7655 23.8536 19.7472 23.8567 19.7289 23.8604C19.6289 23.8809 19.5282 23.8994 19.4268 23.9155L19.4143 23.9175C19.3103 23.934 19.2056 23.9468 19.1001 23.9585L19.0404 23.9648C18.9379 23.9751 18.835 23.9829 18.7313 23.9888C18.7119 23.9899 18.6921 23.991 18.6727 23.9917C18.5643 23.9968 18.4559 24 18.3464 24C18.2373 24 18.1285 23.9968 18.0205 23.9917C18.0007 23.991 17.9813 23.9899 17.9615 23.9888C17.8579 23.9829 17.755 23.9751 17.6525 23.9648L17.5928 23.9585C17.4877 23.9468 17.3829 23.934 17.2789 23.9175L17.2665 23.9155C17.1647 23.8994 17.0643 23.8809 16.964 23.8604C16.9457 23.8567 16.9277 23.8536 16.9094 23.8496C16.8105 23.8287 16.7128 23.8057 16.6154 23.7808C16.5956 23.7756 16.5758 23.7698 16.5564 23.7646C16.4572 23.7379 16.3586 23.7104 16.2612 23.6797C16.2539 23.6771 16.2466 23.6746 16.2393 23.6724C16.1459 23.6423 16.0532 23.6099 15.9617 23.5762C15.9448 23.5703 15.928 23.5647 15.9115 23.5581C15.8185 23.5233 15.7266 23.4861 15.6357 23.4473C15.6167 23.4392 15.5977 23.4308 15.5782 23.4224C15.4863 23.3821 15.3951 23.3408 15.3054 23.2969L15.2772 23.2827C15.1919 23.2406 15.1077 23.1966 15.0242 23.1509C15.0095 23.1428 14.9945 23.1345 14.9799 23.1265C14.8938 23.0789 14.8092 23.0293 14.7253 22.978C14.7074 22.967 14.6895 22.9557 14.6715 22.9443C14.5876 22.892 14.5045 22.8379 14.4229 22.7822L14.3921 22.7607C14.3148 22.7073 14.239 22.6521 14.1643 22.5957L14.1262 22.5674C14.0482 22.5077 13.9717 22.4463 13.8962 22.3833C13.8798 22.3698 13.8636 22.3563 13.8479 22.3428C13.7725 22.279 13.6985 22.2145 13.626 22.1475C13.6157 22.1379 13.6055 22.1282 13.5952 22.1187C13.5264 22.0546 13.459 21.9894 13.3931 21.9224C13.3832 21.9125 13.3729 21.903 13.3634 21.8931C13.2942 21.8224 13.2264 21.7504 13.1602 21.6768L13.1188 21.6304C13.0532 21.5568 12.9891 21.4818 12.9265 21.4053L12.8983 21.3696C12.8386 21.2956 12.78 21.22 12.7233 21.1431C12.7163 21.1339 12.7094 21.1249 12.7024 21.1157L12.6974 21.1089C12.6892 21.1068 12.6859 21.1113 12.6826 21.1157C12.6757 21.1249 12.6687 21.1339 12.6617 21.1431C12.605 21.22 12.5464 21.2953 12.4867 21.3696L12.4585 21.4053C12.3959 21.4818 12.3318 21.5568 12.2662 21.6304L12.2249 21.6768C12.1586 21.7504 12.0908 21.8224 12.0216 21.8931C12.0121 21.903 12.0018 21.9125 11.9919 21.9224C11.926 21.9894 11.8583 22.0546 11.7898 22.1187C11.7795 22.1282 11.7697 22.1379 11.759 22.1475C11.6865 22.2145 11.6125 22.279 11.5371 22.3428C11.521 22.3563 11.5049 22.3698 11.4888 22.3833C11.4133 22.4463 11.3368 22.5077 11.2588 22.5674L11.2207 22.5957C11.146 22.6521 11.0698 22.7073 10.9929 22.7607L10.9622 22.7822C10.8805 22.8379 10.7974 22.892 10.7135 22.9443C10.6956 22.9557 10.6776 22.967 10.6597 22.978C10.5758 23.0293 10.4912 23.0789 10.4052 23.1265C10.3905 23.1345 10.3755 23.1428 10.3608 23.1509C10.2773 23.1966 10.1931 23.2406 10.1074 23.2827L10.0796 23.2969C9.98987 23.3408 9.89868 23.3821 9.80676 23.4224C9.78735 23.4308 9.76831 23.4392 9.74927 23.4473C9.65808 23.4861 9.56653 23.5233 9.47351 23.5581C9.45703 23.5647 9.44018 23.57 9.42334 23.5762C9.33179 23.6099 9.23914 23.6423 9.14575 23.6724C9.13843 23.6746 9.1311 23.6771 9.12378 23.6797C9.02637 23.7104 8.92786 23.7379 8.82861 23.7646C8.80884 23.7698 8.78943 23.7756 8.76965 23.7808C8.67224 23.8057 8.57446 23.8287 8.47559 23.8496C8.45727 23.8536 8.43896 23.8567 8.42102 23.8604C8.32068 23.8809 8.21997 23.8994 8.11853 23.9155L8.10608 23.9175C8.00208 23.934 7.89734 23.9468 7.79224 23.9585L7.73254 23.9648C7.63 23.9751 7.5271 23.9829 7.42346 23.9888C7.40369 23.9899 7.38428 23.991 7.3645 23.9917C7.25647 23.9968 7.14771 24 7.03857 24C7.00012 24 6.96167 23.9998 6.92322 23.999V39.2305H10.6154V30.4614C10.6154 28.1711 12.4786 26.3076 14.7693 26.3076H18.4614C20.7521 26.3076 22.6154 28.1711 22.6154 30.4614V39.2305H41.0779V23.999C41.0394 23.9998 41.001 24 40.9625 24C40.8534 24 40.7446 23.9968 40.6366 23.9917C40.6168 23.991 40.5974 23.9899 40.5776 23.9888C40.474 23.9829 40.3711 23.9751 40.2686 23.9648C40.2488 23.963 40.229 23.9603 40.2092 23.9585C40.1038 23.9468 39.999 23.934 39.895 23.9175C39.891 23.9171 39.8866 23.9159 39.8826 23.9155C39.7808 23.8994 39.6804 23.8809 39.5801 23.8604C39.5621 23.8567 39.5438 23.8536 39.5255 23.8496C39.427 23.8287 39.3289 23.8057 39.2314 23.7808C39.2117 23.7756 39.1923 23.7698 39.1725 23.7646C39.0732 23.7379 38.9747 23.7104 38.8773 23.6797C38.87 23.6771 38.8627 23.6746 38.8553 23.6724C38.762 23.6423 38.6693 23.6099 38.5778 23.5762C38.5609 23.5703 38.5441 23.5647 38.5276 23.5581C38.4346 23.5233 38.343 23.4861 38.2518 23.4473C38.2328 23.4392 38.2137 23.4308 38.1947 23.4224C38.1024 23.3821 38.0112 23.3408 37.9215 23.2969L37.8937 23.2827C37.808 23.2406 37.7238 23.1966 37.6403 23.1509C37.6256 23.1428 37.6106 23.1345 37.5959 23.1265C37.5099 23.0789 37.4253 23.0293 37.3414 22.978C37.3235 22.967 37.3055 22.9557 37.2876 22.9443C37.2037 22.892 37.1206 22.8379 37.0389 22.7822L37.0082 22.7607C36.9313 22.7073 36.8551 22.6521 36.7804 22.5957L36.7423 22.5674C36.6643 22.5077 36.5878 22.4463 36.5123 22.3833C36.4962 22.3698 36.4797 22.3563 36.464 22.3428C36.3886 22.279 36.3146 22.2145 36.2421 22.1475C36.2318 22.1379 36.2216 22.1282 36.2113 22.1187C36.1425 22.0546 36.0751 21.9894 36.0092 21.9224C35.9993 21.9125 35.9894 21.903 35.9795 21.8931C35.9103 21.8224 35.8425 21.7504 35.7766 21.6768L35.7349 21.6304C35.6693 21.5568 35.6052 21.4818 35.5426 21.4053L35.5144 21.3696C35.4547 21.2956 35.3965 21.22 35.3394 21.1431C35.3324 21.1339 35.3254 21.1249 35.3185 21.1157L35.3135 21.1089L35.3086 21.1025ZM18.4614 29.0767H14.7693C14.0057 29.0767 13.3846 29.6982 13.3846 30.4614V39.2305H19.8461V30.4614C19.8461 29.6982 19.225 29.0767 18.4614 29.0767ZM33.2307 26.3076C35.5214 26.3076 37.3846 28.1711 37.3846 30.4614C37.3846 32.7521 35.5214 34.6152 33.2307 34.6152H29.5386C27.2479 34.6152 25.3846 32.7521 25.3846 30.4614C25.3846 28.1711 27.2479 26.3076 29.5386 26.3076H33.2307ZM33.2307 29.0767H29.5386C28.775 29.0767 28.1539 29.6982 28.1539 30.4614C28.1539 31.225 28.775 31.8462 29.5386 31.8462H33.2307C33.9943 31.8462 34.6154 31.225 34.6154 30.4614C34.6154 29.6982 33.9943 29.0767 33.2307 29.0767ZM45.0809 18.0005H36.8434L36.8719 18.104C36.8774 18.1227 36.8826 18.1415 36.8881 18.1602C36.9075 18.2231 36.9283 18.2858 36.9503 18.3477L36.9628 18.3813C36.9814 18.4319 37.0009 18.4825 37.021 18.5327C37.0294 18.5536 37.0386 18.5743 37.0474 18.5952C37.0646 18.6355 37.0822 18.6753 37.1005 18.7148C37.1107 18.7368 37.121 18.7593 37.1316 18.7812C37.1499 18.8197 37.1689 18.8573 37.1887 18.895C37.1993 18.9159 37.21 18.937 37.2213 18.9575L37.255 19.019L37.2898 19.0801C37.2989 19.0962 37.3077 19.1122 37.3173 19.1279C37.3506 19.184 37.385 19.2393 37.4205 19.2935C37.4257 19.3008 37.4308 19.3076 37.4355 19.3149C37.4667 19.3615 37.4985 19.4077 37.5311 19.4531C37.5436 19.4703 37.5564 19.4871 37.5692 19.5039C37.5952 19.5391 37.6219 19.5743 37.649 19.6084C37.6637 19.6271 37.6783 19.6448 37.6934 19.6631C37.7205 19.6957 37.7479 19.7284 37.7754 19.7603C37.7904 19.7775 37.8054 19.7952 37.8208 19.812C37.8516 19.8464 37.8831 19.8804 37.9149 19.9141C37.9277 19.9272 37.9402 19.9404 37.953 19.9536L38.0212 20.022L38.0911 20.0889L38.105 20.1016L38.2346 20.2168C38.2504 20.23 38.2665 20.2432 38.2822 20.2563C38.3159 20.2842 38.3503 20.3123 38.3848 20.3394L38.4401 20.3813C38.4741 20.407 38.5082 20.4319 38.5426 20.4561C38.5613 20.4696 38.58 20.4828 38.599 20.4956C38.6364 20.5216 38.6744 20.5463 38.7125 20.5708C38.7286 20.5811 38.7448 20.5918 38.7609 20.6021C38.8154 20.6357 38.8707 20.6687 38.9271 20.7002L38.9392 20.7065C38.9912 20.7355 39.0443 20.7629 39.0978 20.79L39.1534 20.8169C39.193 20.8359 39.2329 20.855 39.2736 20.8726C39.2952 20.8824 39.3168 20.8917 39.3387 20.9009C39.3776 20.9174 39.4167 20.9329 39.4559 20.9482C39.4779 20.9567 39.4999 20.9652 39.5219 20.9736C39.5643 20.9894 39.6068 21.0042 39.65 21.0181C39.6691 21.0247 39.6877 21.0309 39.7072 21.0371C39.769 21.0569 39.8317 21.0754 39.895 21.0923C39.8976 21.093 39.9001 21.0935 39.9027 21.0942L39.994 21.1172L40.0862 21.1377C40.1067 21.1421 40.1279 21.1464 40.1488 21.1504C40.1927 21.1592 40.2371 21.167 40.2814 21.1743C40.3055 21.1783 40.3297 21.1819 40.3542 21.1855C40.3967 21.1918 40.4396 21.1975 40.4824 21.2026L40.556 21.2104C40.6018 21.2152 40.6476 21.2183 40.6937 21.2212C40.7153 21.2227 40.7366 21.2245 40.7582 21.2256C40.8256 21.2285 40.8933 21.2305 40.9614 21.2305C41.0479 21.2305 41.1339 21.2268 41.22 21.2217C41.2354 21.2206 41.2515 21.2198 41.2668 21.2188C41.4478 21.2056 41.6279 21.181 41.8063 21.144C41.8081 21.1433 41.8103 21.1429 41.8121 21.1426C41.9022 21.1239 41.9919 21.1016 42.0813 21.0767C43.5355 20.6702 44.684 19.4932 45.0809 18.0005ZM33.772 18H25.5359C25.545 18.0348 25.5542 18.0695 25.5645 18.1035L25.5806 18.1597C25.6 18.223 25.6205 18.2854 25.6425 18.3477C25.6465 18.359 25.6512 18.3704 25.6553 18.3813C25.6736 18.4322 25.693 18.4824 25.7135 18.5322C25.7219 18.5535 25.7311 18.5743 25.7399 18.5952C25.7567 18.6351 25.7743 18.6752 25.7926 18.7144C25.8029 18.7367 25.8131 18.7588 25.8237 18.7808C25.8424 18.8192 25.8615 18.8573 25.8809 18.895C25.8915 18.9159 25.9025 18.9366 25.9135 18.9575C25.9358 18.9985 25.9585 19.0394 25.9823 19.0801C25.9915 19.0958 26.0002 19.1122 26.0098 19.1279C26.0431 19.1836 26.0775 19.2388 26.113 19.293C26.1178 19.3003 26.1229 19.3076 26.1281 19.3149C26.1588 19.3615 26.1907 19.4076 26.2236 19.4526L26.2614 19.5039L26.3416 19.6084L26.3859 19.6631L26.4679 19.7603C26.4829 19.7775 26.4979 19.7948 26.5129 19.812C26.5437 19.8464 26.5756 19.8803 26.6074 19.9136L26.6451 19.9536C26.6902 19.9998 26.7363 20.0446 26.7832 20.0889C26.788 20.0929 26.7927 20.0975 26.7975 20.1016C26.84 20.1411 26.8832 20.1794 26.9271 20.2168C26.9425 20.2303 26.9586 20.2432 26.9747 20.2563C27.0084 20.2845 27.0425 20.3118 27.0773 20.3389C27.0956 20.3531 27.1139 20.3674 27.1326 20.3813C27.1663 20.4066 27.2003 20.4315 27.2347 20.4561C27.2534 20.4692 27.2721 20.4824 27.2911 20.4956C27.3289 20.5212 27.3666 20.5463 27.405 20.5708C27.4211 20.5811 27.4369 20.5917 27.453 20.6016C27.5079 20.6356 27.5632 20.6687 27.6193 20.7002L27.6313 20.7065C27.6837 20.7355 27.7364 20.7628 27.7899 20.7896C27.8082 20.7987 27.8269 20.8076 27.8456 20.8164C27.8855 20.8358 27.9254 20.8546 27.9657 20.8726C27.9873 20.8821 28.0093 20.8914 28.0309 20.9009C28.0697 20.917 28.1089 20.9329 28.1481 20.9482L28.2144 20.9731C28.2565 20.9889 28.2993 21.0038 28.3422 21.0181C28.3612 21.0243 28.3802 21.0312 28.3993 21.0371C28.4615 21.0569 28.5242 21.0749 28.5872 21.0918C28.5901 21.0925 28.5927 21.0935 28.5952 21.0942C28.6556 21.11 28.7168 21.1245 28.7783 21.1377L28.8409 21.1499C28.8853 21.1587 28.9292 21.167 28.9739 21.1743C28.998 21.1783 29.0222 21.1814 29.0464 21.1851C29.0889 21.1913 29.1317 21.197 29.1749 21.2021L29.2482 21.2104C29.2939 21.2148 29.3401 21.2178 29.3862 21.2207C29.4075 21.2222 29.4287 21.224 29.4503 21.2251C29.5177 21.2284 29.5854 21.2305 29.6539 21.2305C29.722 21.2305 29.7898 21.2284 29.8572 21.2251C29.8788 21.224 29.9 21.2222 29.9216 21.2207C29.9678 21.2178 30.0139 21.2148 30.0593 21.2104C30.0842 21.2079 30.1084 21.2051 30.1329 21.2021C30.1758 21.197 30.2186 21.1913 30.2611 21.1851C30.2856 21.1818 30.3098 21.1783 30.334 21.1743C30.3783 21.167 30.4226 21.1587 30.4666 21.1499C30.4874 21.1459 30.5087 21.1421 30.5295 21.1377C30.5907 21.1241 30.6519 21.11 30.7126 21.0942C30.7152 21.0935 30.7178 21.0925 30.7203 21.0918C30.7837 21.0749 30.8463 21.0569 30.9082 21.0371C30.9276 21.0312 30.9463 21.0243 30.9657 21.0181C31.0085 21.0038 31.051 20.9889 31.0935 20.9731L31.1594 20.9482C31.199 20.9329 31.2378 20.917 31.2766 20.9009C31.2986 20.8914 31.3202 20.8821 31.3418 20.8726C31.3824 20.8546 31.4224 20.8358 31.4619 20.8164C31.4806 20.8076 31.4993 20.7987 31.5176 20.7896C31.571 20.7628 31.6241 20.7355 31.6761 20.7065L31.6882 20.7002C31.7446 20.6687 31.7999 20.6356 31.8545 20.6016C31.871 20.5917 31.8867 20.5811 31.9028 20.5708C31.9409 20.5463 31.979 20.5212 32.0164 20.4956C32.0354 20.4824 32.0541 20.4692 32.0731 20.4561C32.1075 20.4315 32.1416 20.4066 32.1753 20.3813C32.1936 20.3674 32.2123 20.3531 32.2306 20.3389C32.265 20.3118 32.2994 20.2845 32.3331 20.2563C32.3489 20.2432 32.365 20.2303 32.3807 20.2168C32.4247 20.1791 32.4679 20.1411 32.5104 20.1016C32.5148 20.0975 32.5199 20.0929 32.5243 20.0889C32.5715 20.0449 32.6173 19.9998 32.6624 19.9536L32.7004 19.9136C32.7323 19.8803 32.7638 19.8464 32.7946 19.812C32.8099 19.7948 32.825 19.7775 32.84 19.7603C32.8678 19.728 32.8949 19.696 32.922 19.6631C32.937 19.6451 32.9517 19.6267 32.9663 19.6084L33.0461 19.5039L33.0842 19.4526C33.1168 19.4076 33.1487 19.3615 33.1798 19.3149C33.1846 19.3076 33.1897 19.3003 33.1948 19.293C33.2303 19.2388 33.2648 19.1836 33.2981 19.1279C33.3076 19.1122 33.3164 19.0958 33.3256 19.0801L33.3604 19.019L33.394 18.9575C33.4054 18.9366 33.416 18.9159 33.427 18.895C33.4464 18.8573 33.4655 18.8192 33.4838 18.7808L33.5153 18.7144C33.5332 18.6748 33.5508 18.6351 33.568 18.5952C33.5768 18.5743 33.5859 18.5535 33.5944 18.5322C33.6145 18.4824 33.6339 18.4322 33.6526 18.3813C33.6566 18.37 33.661 18.359 33.665 18.3477C33.687 18.2854 33.7079 18.223 33.7273 18.1597L33.7434 18.1035C33.7533 18.0691 33.7628 18.0348 33.772 18ZM22.4641 18H14.228C14.2372 18.0348 14.2467 18.0695 14.2566 18.1035L14.2727 18.1597C14.2921 18.223 14.313 18.2854 14.335 18.3477C14.339 18.359 14.3434 18.3704 14.3474 18.3813C14.3661 18.4322 14.3855 18.4824 14.4056 18.5322C14.4141 18.5535 14.4232 18.5743 14.432 18.5952C14.4492 18.6351 14.4668 18.6752 14.4847 18.7144L14.5162 18.7808C14.5345 18.8192 14.5536 18.8573 14.573 18.895C14.584 18.9159 14.5946 18.9366 14.606 18.9575C14.6279 18.9985 14.651 19.0394 14.6744 19.0801C14.6836 19.0958 14.6924 19.1122 14.7019 19.1279C14.7352 19.1836 14.7697 19.2388 14.8052 19.293C14.8103 19.3003 14.8154 19.3076 14.8202 19.3149C14.8513 19.3615 14.8832 19.4076 14.9158 19.4526L14.9539 19.5039L15.0337 19.6084C15.0483 19.6267 15.063 19.6451 15.078 19.6631C15.1051 19.696 15.1322 19.728 15.16 19.7603C15.175 19.7775 15.1901 19.7948 15.2054 19.812C15.2362 19.8464 15.2677 19.8803 15.2996 19.9136L15.3376 19.9536C15.3827 19.9998 15.4285 20.0446 15.4757 20.0889C15.4801 20.0929 15.4852 20.0975 15.4896 20.1016C15.5321 20.1411 15.5753 20.1794 15.6193 20.2168C15.635 20.2303 15.6511 20.2432 15.6669 20.2563C15.7006 20.2845 15.735 20.3118 15.7694 20.3389C15.7877 20.3531 15.8064 20.3674 15.8247 20.3813C15.8584 20.4066 15.8925 20.4315 15.9269 20.4561C15.9459 20.4692 15.9646 20.4824 15.9836 20.4956C16.021 20.5212 16.0591 20.5463 16.0972 20.5708C16.1133 20.5811 16.129 20.5917 16.1455 20.6016C16.2001 20.6356 16.2554 20.6687 16.3118 20.7002L16.3239 20.7065C16.3759 20.7355 16.429 20.7628 16.4824 20.7896C16.5007 20.7987 16.5194 20.8076 16.5381 20.8164C16.5776 20.8358 16.6176 20.8546 16.6582 20.8726C16.6798 20.8821 16.7014 20.8914 16.7234 20.9009C16.7622 20.917 16.801 20.9329 16.8406 20.9482L16.9065 20.9731C16.949 20.9889 16.9915 21.0038 17.0343 21.0181C17.0537 21.0243 17.0724 21.0312 17.0918 21.0371C17.1537 21.0569 17.2163 21.0749 17.2797 21.0918C17.2822 21.0925 17.2848 21.0935 17.2874 21.0942C17.3478 21.11 17.4089 21.1245 17.4705 21.1377C17.4913 21.1421 17.5126 21.1459 17.5334 21.1499C17.5774 21.1587 17.6217 21.167 17.666 21.1743C17.6902 21.1783 17.7144 21.1814 17.7389 21.1851C17.7814 21.1913 17.8242 21.197 17.8671 21.2021C17.8916 21.2051 17.9161 21.2079 17.9407 21.2104C17.9864 21.2148 18.0322 21.2178 18.0784 21.2207C18.1 21.2222 18.1212 21.224 18.1428 21.2251C18.2102 21.2284 18.278 21.2305 18.3461 21.2305C18.4146 21.2305 18.4823 21.2284 18.5497 21.2251C18.5713 21.224 18.5925 21.2222 18.6138 21.2207C18.6599 21.2178 18.7061 21.2148 18.7518 21.2104L18.8251 21.2021C18.8683 21.197 18.9111 21.1913 18.9536 21.1851C18.9778 21.1818 19.002 21.1783 19.0261 21.1743C19.0708 21.167 19.1147 21.1587 19.1591 21.1499L19.2217 21.1377C19.2832 21.1241 19.3444 21.11 19.4048 21.0942C19.4073 21.0935 19.4099 21.0925 19.4128 21.0918C19.4758 21.0749 19.5385 21.0569 19.6007 21.0371C19.6198 21.0312 19.6388 21.0243 19.6578 21.0181C19.7007 21.0038 19.7435 20.9889 19.7856 20.9731L19.8519 20.9482C19.8911 20.9329 19.9303 20.917 19.9691 20.9009C19.9907 20.8914 20.0127 20.8821 20.0343 20.8726C20.0746 20.8546 20.1145 20.8358 20.1544 20.8164C20.1731 20.8076 20.1918 20.7987 20.2101 20.7896C20.2636 20.7628 20.3163 20.7355 20.3687 20.7065L20.3807 20.7002C20.4368 20.6687 20.4921 20.6356 20.547 20.6016C20.5631 20.5917 20.5789 20.5811 20.595 20.5708C20.6334 20.5463 20.6711 20.5212 20.7089 20.4956C20.7279 20.4824 20.7466 20.4692 20.7653 20.4561C20.7997 20.4315 20.8337 20.4066 20.8674 20.3813C20.8861 20.3674 20.9044 20.3531 20.9227 20.3389C20.9575 20.3118 20.9916 20.2845 21.0253 20.2563C21.0414 20.2432 21.0575 20.2303 21.0729 20.2168C21.1168 20.1791 21.16 20.1411 21.2025 20.1016C21.2073 20.0975 21.212 20.0929 21.2168 20.0889C21.2637 20.0449 21.3098 19.9998 21.3549 19.9536L21.3926 19.9136C21.4244 19.8803 21.4563 19.8464 21.4871 19.812C21.5021 19.7948 21.5171 19.7775 21.5321 19.7603L21.6141 19.6631L21.6584 19.6084L21.7386 19.5039L21.7764 19.4526C21.8093 19.4076 21.8412 19.3615 21.8719 19.3149C21.8771 19.3076 21.8822 19.3003 21.887 19.293C21.9229 19.2388 21.9569 19.1836 21.9902 19.1279C21.9998 19.1122 22.0085 19.0958 22.0177 19.0801C22.0415 19.0394 22.0642 18.9989 22.0865 18.9575C22.0975 18.9366 22.1085 18.9159 22.1191 18.895C22.1385 18.8573 22.1576 18.8192 22.1763 18.7808C22.1869 18.7588 22.1971 18.7367 22.2074 18.7144C22.2257 18.6748 22.2433 18.6351 22.2601 18.5952C22.2689 18.5743 22.2781 18.5535 22.2865 18.5322C22.307 18.4824 22.3264 18.4322 22.3447 18.3813C22.3488 18.37 22.3535 18.359 22.3575 18.3477C22.3795 18.2854 22.4 18.223 22.4194 18.1597L22.4355 18.1035C22.4454 18.0691 22.455 18.0348 22.4641 18ZM11.1566 18H2.91907C3.31604 19.493 4.46448 20.6702 5.9187 21.0767C6.00806 21.1016 6.09778 21.1235 6.18787 21.1426C6.1897 21.1429 6.19189 21.1437 6.19373 21.144C6.37207 21.181 6.55225 21.2052 6.73315 21.2188C6.74854 21.2198 6.76428 21.2206 6.78003 21.2217C6.86609 21.2272 6.95252 21.2305 7.03857 21.2305C7.10669 21.2305 7.17444 21.2288 7.24182 21.2251C7.26343 21.224 7.28467 21.2222 7.30627 21.2207C7.35242 21.2178 7.39819 21.2148 7.44397 21.2104L7.51758 21.2021C7.56043 21.197 7.60327 21.1913 7.64575 21.1851C7.67029 21.1818 7.69446 21.1783 7.71863 21.1743C7.76294 21.167 7.80725 21.1587 7.8512 21.1499L7.91382 21.1377C7.97534 21.1241 8.0365 21.11 8.09729 21.0942C8.09985 21.0935 8.10242 21.0925 8.10498 21.0918C8.16834 21.0749 8.23096 21.0569 8.29285 21.0371C8.31226 21.0312 8.33093 21.0243 8.34998 21.0181C8.39282 21.0038 8.43567 20.9889 8.47815 20.9731L8.54407 20.9482C8.58362 20.9329 8.62244 20.917 8.66125 20.9009C8.68323 20.8914 8.70483 20.8821 8.72644 20.8726C8.76709 20.8546 8.80701 20.8358 8.84656 20.8164C8.86523 20.8076 8.88391 20.7987 8.90222 20.7896C8.95569 20.7628 9.00879 20.7355 9.06079 20.7065L9.07288 20.7002C9.12927 20.6687 9.18457 20.6356 9.23914 20.6016C9.25561 20.5917 9.27136 20.5811 9.28748 20.5708C9.32556 20.5463 9.36365 20.5212 9.401 20.4956C9.42004 20.4824 9.43872 20.4692 9.4574 20.4561C9.49182 20.4315 9.52588 20.4066 9.55994 20.3813C9.57825 20.3674 9.59692 20.3531 9.61523 20.3389C9.64966 20.3118 9.68408 20.2845 9.71777 20.2563L9.76538 20.2168C9.80933 20.1791 9.85254 20.1411 9.89502 20.1016L9.90894 20.0889C9.95618 20.0449 10.002 19.9998 10.047 19.9536L10.066 19.9336L10.0851 19.9136C10.1169 19.8803 10.1484 19.8464 10.1792 19.812C10.1946 19.7948 10.2096 19.7775 10.2246 19.7603L10.3066 19.6631L10.351 19.6084C10.3781 19.574 10.4048 19.5391 10.4308 19.5039L10.4689 19.4526C10.5015 19.4076 10.5333 19.3615 10.5645 19.3149C10.5692 19.3076 10.5743 19.3003 10.5795 19.293C10.615 19.2388 10.6494 19.1836 10.6827 19.1279L10.7102 19.0801C10.7336 19.0394 10.7567 18.9989 10.7787 18.9575L10.7951 18.9263L10.8113 18.895C10.8311 18.8573 10.8501 18.8192 10.8684 18.7808C10.879 18.7588 10.8893 18.7367 10.8995 18.7144C10.9178 18.6748 10.9354 18.6351 10.9526 18.5952C10.9614 18.5743 10.9706 18.5535 10.979 18.5322C10.9991 18.4824 11.0186 18.4322 11.0372 18.3813L11.0497 18.3477C11.0717 18.2854 11.0925 18.223 11.1119 18.1597C11.1174 18.141 11.1226 18.1222 11.1281 18.1035C11.1379 18.0691 11.1475 18.0348 11.1566 18ZM37.8461 2.76953H10.1539C9.39038 2.76953 8.76929 3.39026 8.76929 4.15381V7.38477C8.76929 7.65247 8.69165 7.91431 8.54553 8.13916L3.93604 15.2305H44.0636L39.4545 8.13916C39.3083 7.91431 39.2307 7.65247 39.2307 7.38477V4.15381C39.2307 3.39026 38.6096 2.76953 37.8461 2.76953ZM36 6C36.7646 6 37.3846 6.62013 37.3846 7.38477C37.3846 8.14942 36.7646 8.76953 36 8.76953H12C11.2354 8.76953 10.6154 8.14942 10.6154 7.38477C10.6154 6.62013 11.2354 6 12 6H36Z" fill="white"/>
</svg>
