<svg width="48" height="48" viewBox="0 0 48 48" fill="none" xmlns="http://www.w3.org/2000/svg">
<g clip-path="url(#clip0_1180_171)">
<path d="M46.8528 9.10791C45.9542 8.0913 44.6733 7.53125 43.2463 7.53125H8.74731L8.40009 4.95312C8.02586 2.17579 6.07341 0 3.9549 0H1.41998C0.635664 0 0 0.62952 0 1.40625C0 2.18298 0.635664 2.8125 1.41998 2.8125H3.9549C4.41047 2.8125 5.37523 3.76648 5.5849 5.32471L9.6496 35.5161C9.82858 36.8469 10.519 38.0928 11.5936 39.0244C12.3905 39.7155 13.3323 40.1749 14.3189 40.3672C13.9169 41.0992 13.6884 41.9379 13.6884 42.8281C13.6884 45.6802 16.0314 48 18.9109 48C21.7905 48 24.1334 45.6802 24.1334 42.8281C24.1334 41.9785 23.9242 41.1766 23.5558 40.4688H30.9967C30.6284 41.1766 30.4191 41.9785 30.4191 42.8281C30.4191 45.6802 32.7621 48 35.6416 48C38.5211 48 40.8641 45.6802 40.8641 42.8281C40.8641 41.9785 40.6548 41.1766 40.2865 40.4688H44.0069C44.7908 40.4688 45.4269 39.8389 45.4269 39.0625C45.4269 38.2858 44.7908 37.6562 44.0069 37.6562H15.3621C13.9746 37.6562 12.6478 36.506 12.4644 35.144L12.1675 32.9375H23.2193C23.2197 32.9375 23.22 32.9375 23.2204 32.9375C23.2208 32.9375 23.2212 32.9375 23.2219 32.9375H32.3445C32.3449 32.9375 32.3453 32.9375 32.346 32.9375C32.3464 32.9375 32.3464 32.9375 32.3468 32.9375H40.2044C41.56 32.9375 42.8983 32.4244 43.9729 31.4932C45.0475 30.5615 45.7379 29.3152 45.9169 27.9844L47.9537 12.856C48.1423 11.4552 47.7514 10.1245 46.8528 9.10791ZM21.2935 42.8281C21.2935 44.1293 20.2248 45.1875 18.9109 45.1875C17.5975 45.1875 16.5284 44.1293 16.5284 42.8281C16.5284 41.5273 17.5975 40.4688 18.9109 40.4688C20.2248 40.4688 21.2935 41.5273 21.2935 42.8281ZM38.0241 42.8281C38.0241 44.1293 36.9555 45.1875 35.6416 45.1875C34.3277 45.1875 33.259 44.1293 33.259 42.8281C33.259 41.5273 34.3277 40.4688 35.6416 40.4688C36.9555 40.4688 38.0241 41.5273 38.0241 42.8281ZM44.7158 10.9604C45.0675 11.3581 45.2176 11.8987 45.1385 12.4839L44.2846 18.8281H34.6228L35.1938 10.3438H43.2463C43.8427 10.3438 44.3645 10.5627 44.7158 10.9604ZM24.5502 30.125L23.9789 21.6406H31.5872L31.0159 30.125H24.5502ZM23.7896 18.8281L23.2186 10.3438H32.3475L31.7766 18.8281H23.7896ZM20.3723 10.3438L20.9433 18.8281H10.2679L9.12561 10.3438H20.3723ZM10.6465 21.6406H21.1326L21.7039 30.125H11.7888L10.6465 21.6406ZM40.2044 30.125H33.8622L34.4335 21.6406H43.9059L43.1021 27.6128C42.9186 28.9747 41.5915 30.125 40.2044 30.125Z" fill="white"/>
</g>
<defs>
<clipPath id="clip0_1180_171">
<rect width="48" height="48" fill="white"/>
</clipPath>
</defs>
</svg>
