<svg width="42" height="48" viewBox="0 0 42 48" fill="none" xmlns="http://www.w3.org/2000/svg">
<g clip-path="url(#clip0_1180_159)">
<path d="M17.054 3.02393C18.6901 1.37946 21.3521 1.37955 22.988 3.02393L38.8124 18.9292C40.4482 20.5737 40.4483 23.2493 38.8125 24.8936L38.6493 25.0493C37.2087 26.3514 35.0754 26.4771 33.4989 25.4072L33.3873 25.4297C29.3773 26.2358 25.6224 27.8558 22.316 30.1826L22.9881 30.8584C24.6282 32.5069 24.628 35.1745 22.9881 36.8228L21.9991 37.8169L24.966 40.7993C26.6021 42.4437 26.6021 45.1193 24.966 46.7637C23.3261 48.4122 20.672 48.4121 19.0321 46.7637L12.109 39.8052L11.12 40.7993C9.48005 42.4477 6.82573 42.4476 5.18595 40.7993L1.23002 36.8228C-0.410141 35.1743 -0.409871 32.5068 1.23002 30.8584L8.4882 23.5625C12.6023 19.4274 15.3798 14.2108 16.5207 8.47656L16.5426 8.36621C15.4566 6.75643 15.5833 4.50208 17.054 3.02393ZM16.065 35.8286L14.087 37.8169L21.01 44.7754C21.5553 45.3235 22.4428 45.3235 22.988 44.7754C23.5333 44.2272 23.5333 43.3352 22.988 42.7871L16.065 35.8286ZM10.131 25.8877L3.20798 32.8462C2.66132 33.3957 2.66132 34.2849 3.20798 34.8345L7.16392 38.811C7.71049 39.3605 8.59545 39.3603 9.14201 38.811C9.83604 38.1134 15.3877 32.5329 16.065 31.8521L10.131 25.8877ZM20.0862 31.9175C19.0928 32.7702 18.4635 33.4177 18.043 33.8403L20.021 35.8286L21.01 34.8345C21.5567 34.2849 21.5567 33.3957 21.01 32.8462L20.0862 31.9175ZM9.14194 30.8579C9.68813 30.3089 10.5738 30.3089 11.1199 30.8579C11.6661 31.4069 11.6661 32.2972 11.1199 32.8462L9.14194 34.8345C8.59584 35.3835 7.71002 35.3835 7.16392 34.8345C6.61773 34.2855 6.61773 33.3952 7.16392 32.8462L9.14194 30.8579ZM18.859 10.8027C17.6162 15.6309 15.2932 20.0749 12.0494 23.8398L18.1024 29.9238C21.8481 26.6632 26.2695 24.3282 31.073 23.0791L18.859 10.8027ZM21.01 5.01172C20.4634 4.46225 19.5786 4.46225 19.032 5.01172C18.4853 5.56119 18.4853 6.45044 19.032 7L34.8561 22.9058C35.4027 23.4551 36.2874 23.4551 36.8341 22.9058C37.3793 22.3575 37.3793 21.4656 36.8341 20.9175L21.01 5.01172ZM40.6013 11.2466C41.3737 11.2466 42 11.8764 42 12.6528C42 13.4293 41.3738 14.0586 40.6013 14.0586H37.8039C37.0315 14.0586 36.4053 13.4293 36.4053 12.6528C36.4053 11.8764 37.0315 11.2466 37.8039 11.2466H40.6013ZM36.815 3.22363C37.3612 2.67463 38.2468 2.67463 38.7929 3.22363C39.3391 3.77273 39.3391 4.66243 38.7929 5.21143L35.9956 8.02344C35.4494 8.57254 34.5638 8.57244 34.0177 8.02344C33.4715 7.47444 33.4715 6.58416 34.0177 6.03516L36.815 3.22363ZM29.412 0C30.1844 0 30.8106 0.629332 30.8106 1.40576V4.21777C30.8106 4.99421 30.1844 5.62354 29.412 5.62354C28.6395 5.62354 28.0133 4.99421 28.0133 4.21777V1.40576C28.0133 0.629332 28.6395 0 29.412 0Z" fill="white"/>
</g>
<defs>
<clipPath id="clip0_1180_159">
<rect width="42" height="48" fill="white"/>
</clipPath>
</defs>
</svg>
