<svg width="39" height="48" viewBox="0 0 39 48" fill="none" xmlns="http://www.w3.org/2000/svg">
<path d="M17.714 0C18.4983 0 19.1339 0.62952 19.1339 1.40625V3.97705H21.1233C23.3485 3.97705 25.1589 5.77063 25.1589 7.97559V15.4888C25.1589 18.2328 24.2763 20.8364 22.6068 23.0176C21.2102 24.842 19.3051 26.2639 17.166 27.0981V29.3901C17.166 30.7978 16.0098 31.9429 14.5888 31.9429H13.9994V37.0562C13.9994 41.5397 17.6793 45.1875 22.2022 45.1875C26.5592 45.1875 30.133 41.8031 30.39 37.5474C27.1194 36.8864 24.6505 34.0137 24.6505 30.5801C24.6505 26.6594 27.8689 23.4702 31.825 23.4702C35.7815 23.4702 39 26.6598 39 30.5801C39 34.0232 36.5174 36.9014 33.2331 37.5518C32.9706 43.3569 28.1237 48 22.2022 48C16.1133 48 11.1595 43.0906 11.1595 37.0562V31.9429H10.5701C9.14875 31.9429 7.99249 30.7978 7.99249 29.3901V27.0981C5.85376 26.2639 3.94873 24.842 2.55176 23.0176C0.882263 20.8364 0 18.2328 0 15.4888V7.97559C0 5.771 1.81039 3.97705 4.03564 3.97705H6.01572V1.40625C6.01572 0.62952 6.65173 0 7.43564 0C8.21991 0 8.85553 0.62952 8.85553 1.40625V9.36084C8.85553 10.1376 8.21991 10.7671 7.43564 10.7671C6.65173 10.7671 6.01572 10.1376 6.01572 9.36084V6.78955H4.03564C3.37635 6.78955 2.83981 7.32154 2.83981 7.97559V15.4888C2.83981 17.6143 3.52276 19.6301 4.81473 21.3184C5.66593 22.4298 6.75932 23.3486 7.99249 24.0049V23.5396C7.99249 22.1318 9.14875 20.9863 10.5698 20.9863H14.5888C16.0102 20.9863 17.166 22.1318 17.166 23.5396V24.0044C18.3992 23.3485 19.493 22.4302 20.3438 21.3184C21.6361 19.6305 22.3191 17.6143 22.3191 15.4888V7.97559C22.3191 7.32154 21.7826 6.78955 21.1233 6.78955H19.1339V9.36084C19.1339 10.1376 18.4983 10.7671 17.714 10.7671C16.9297 10.7671 16.2941 10.1376 16.2941 9.36084V1.40625C16.2941 0.62952 16.9297 0 17.714 0ZM31.825 26.2827C29.4349 26.2827 27.4903 28.2103 27.4903 30.5801C27.4903 32.9498 29.4349 34.8779 31.825 34.8779C34.2156 34.8779 36.1602 32.9498 36.1602 30.5801C36.1602 28.2103 34.2156 26.2827 31.825 26.2827ZM31.825 28.5498C32.6093 28.5498 33.245 29.1797 33.245 29.9561V31.2041C33.245 31.9808 32.6093 32.6104 31.825 32.6104C31.0411 32.6104 30.4052 31.9808 30.4052 31.2041V29.9561C30.4052 29.1797 31.0411 28.5498 31.825 28.5498ZM14.3262 23.7988H10.8323V29.1304H14.3262V23.7988Z" fill="white"/>
</svg>
