<svg width="48" height="48" viewBox="0 0 48 48" fill="none" xmlns="http://www.w3.org/2000/svg">
<g clip-path="url(#clip0_1180_163)">
<path d="M37.0534 6.84551C36.9152 5.86936 37.8218 4.99897 38.8355 5.28448L44.5382 6.38116C45.3033 6.52824 45.8044 7.26785 45.6574 8.0335C45.5104 8.79904 44.7705 9.30043 44.0058 9.15362L42.6427 8.89141C44.2987 10.9388 45.6168 13.2591 46.5304 15.7586C51.0801 28.2057 44.7139 41.9693 32.2964 46.5306C28.0575 48.0876 23.4936 48.4143 19.0981 47.4759C18.3361 47.3132 17.8503 46.5635 18.0129 45.8011C18.1755 45.0386 18.9252 44.5525 19.6869 44.7151C23.5611 45.5422 27.5852 45.2537 31.3241 43.8802C42.2528 39.8656 47.8857 27.6853 43.8807 16.7283C43.0729 14.5181 41.9067 12.4671 40.4421 10.6585L40.6139 11.8729C40.7337 12.7199 40.0776 13.4827 39.2153 13.4827C38.5237 13.4827 37.9201 12.9737 37.8204 12.2689L37.0534 6.84551ZM1.49985 32.2562C-5.02098 14.4168 10.7498 -3.3428 28.9321 0.538872C29.6941 0.701572 30.18 1.45124 30.0174 2.21368C29.8547 2.97613 29.1051 3.46185 28.3434 3.29961C12.2415 -0.137305 -1.56911 15.6415 4.14951 31.2864C4.95737 33.4968 6.12351 35.5476 7.58811 37.3563L7.41635 36.1419C7.30716 35.37 7.84399 34.6554 8.61545 34.5462C9.38607 34.4354 10.1007 34.9745 10.2099 35.7464L10.9768 41.1692C11.113 42.1304 10.2204 43.0197 9.19358 42.7298L3.49204 41.6341C2.72697 41.487 2.2259 40.7469 2.3729 39.9813C2.51989 39.2157 3.25903 38.7147 4.02439 38.8616L5.38755 39.1233C3.73157 37.076 2.41342 34.7557 1.49985 32.2562ZM24.015 9.42413C32.0785 9.42413 38.6386 15.9993 38.6386 24.0814C38.6386 32.1634 32.0785 38.7391 24.015 38.7391C15.9515 38.7391 9.39145 32.1634 9.39145 24.0814C9.39145 15.9993 15.9515 9.42413 24.015 9.42413ZM24.015 12.2474C17.5072 12.2474 12.2129 17.556 12.2129 24.0814C12.2129 30.6067 17.5072 35.9158 24.015 35.9158C30.5227 35.9158 35.8172 30.6067 35.8172 24.0814C35.8172 17.556 30.5227 12.2474 24.015 12.2474ZM24.015 14.7415C24.7941 14.7415 25.4258 15.3731 25.4258 16.1526V17.3318C26.6892 17.3464 27.9199 17.8961 28.8047 18.8426C29.3369 19.4119 29.3071 20.3052 28.7381 20.8377C28.1691 21.3702 27.2763 21.3406 26.7442 20.7713C26.3822 20.3841 25.8893 20.1591 25.3911 20.1541H22.5521C21.8069 20.1541 21.2804 20.7425 21.2804 21.4119C21.2804 22.1056 21.842 22.6697 22.5324 22.6697H25.4977C27.7438 22.6697 29.5713 24.5004 29.5713 26.7508C29.5713 28.912 27.8703 30.8318 25.4258 30.8318V32.0106C25.4258 32.7901 24.7942 33.422 24.015 33.4222C23.2359 33.4222 22.6042 32.7901 22.6042 32.0106V30.8323C21.5817 30.8323 20.6826 30.6398 19.7168 29.9681C19.077 29.523 18.9188 28.6439 19.3635 28.0037C19.8081 27.3636 20.6871 27.2048 21.327 27.6497C21.6548 27.8776 22.0287 28.0055 22.3801 28.0091H25.4978C26.1865 28.0091 26.7497 27.4496 26.7497 26.7513C26.7497 26.0576 26.188 25.493 25.4975 25.493H22.5324C20.2863 25.493 18.4588 23.6623 18.4588 21.4119C18.4588 19.2507 20.1598 17.3314 22.6043 17.3314V16.1526C22.6043 15.3731 23.2359 14.7415 24.015 14.7415Z" fill="white"/>
</g>
<defs>
<clipPath id="clip0_1180_163">
<rect width="48" height="48" fill="white"/>
</clipPath>
</defs>
</svg>
