<svg width="42" height="48" viewBox="0 0 42 48" fill="none" xmlns="http://www.w3.org/2000/svg">
<g clip-path="url(#clip0_1180_155)">
<path d="M24.8696 0C26.4708 0 27.9102 0.893531 28.6261 2.33203L30.2653 5.625H32.2C36.0598 5.625 39.2 8.77923 39.2 12.6562V32.5312C39.2 35.6886 37.1172 38.3663 34.2592 39.2515L41.5137 45.5283C42.0995 46.0352 42.1653 46.9228 41.6608 47.5112C41.1561 48.0997 40.2722 48.1661 39.6864 47.6592L36.8295 45.1875H5.17055L2.31361 47.6592C1.72804 48.1659 0.844088 48.0999 0.339249 47.5112C-0.165311 46.9228 -0.0995097 46.0352 0.486343 45.5283L7.74086 39.2515C4.88281 38.3661 2.8 35.6886 2.8 32.5312V12.6562C2.8 8.77923 5.94021 5.625 9.8 5.625H11.7348L13.374 2.33203C14.0898 0.893621 15.5293 0 17.1306 0H24.8696ZM30.3283 39.5625H11.6719L8.42116 42.375H33.5789L30.3283 39.5625ZM36.4 20.0791L34.9111 23.8848C33.8388 26.5776 31.2877 28.3125 28.4086 28.3125H13.5914C10.7124 28.3125 8.16131 26.5777 7.092 23.8926L5.60011 20.0791V32.5312C5.60011 34.8575 7.48419 36.75 9.80006 36.75H16.8001V35.3438C16.8001 33.0175 18.6842 31.125 21 31.125C23.3158 31.125 25.2 33.0175 25.2 35.3438V36.75H32.2C34.5159 36.75 36.4 34.8575 36.4 32.5312V20.0791ZM21 33.9375C20.2281 33.9375 19.6001 34.5683 19.6001 35.3438V36.75H22.4V35.3438C22.4 34.5683 21.7719 33.9375 21 33.9375ZM32.2 31.125C32.9732 31.125 33.6001 31.7546 33.6001 32.5312C33.6001 33.3079 32.9732 33.9375 32.2 33.9375H29.4C28.6269 33.9375 28.0001 33.3079 28.0001 32.5312C28.0001 31.7546 28.6269 31.125 29.4 31.125H32.2ZM12.6001 31.125C13.3732 31.125 14.0001 31.7546 14.0001 32.5312C14.0001 33.3079 13.3732 33.9375 12.6001 33.9375H9.80006C9.02689 33.9375 8.4001 33.3079 8.4001 32.5312C8.4001 31.7546 9.02689 31.125 9.80006 31.125H12.6001ZM35.7457 14.0576H6.25453L9.69496 22.856C10.3334 24.459 11.864 25.5 13.5914 25.5H28.4086C30.1361 25.5 31.6667 24.459 32.3082 22.8481L35.7457 14.0576ZM32.2 8.42822H9.80006C7.97493 8.42822 6.41882 9.61331 5.8409 11.25H36.1593C35.5813 9.61331 34.0252 8.42822 32.2 8.42822ZM24.8696 2.8125H17.1306C16.5968 2.8125 16.117 3.11041 15.8784 3.58984L14.8654 5.625H27.1348L26.1217 3.58984C25.883 3.11031 25.4033 2.8125 24.8696 2.8125Z" fill="white"/>
</g>
<defs>
<clipPath id="clip0_1180_155">
<rect width="42" height="48" fill="white"/>
</clipPath>
</defs>
</svg>
