<svg width="48" height="39" viewBox="0 0 48 39" fill="none" xmlns="http://www.w3.org/2000/svg">
<g clip-path="url(#clip0_1180_179)">
<path d="M40.4426 0.0048556C41.2695 -0.0629444 41.9719 0.588054 41.9719 1.40866V6.97507C44.6932 6.91507 46.5471 6.97783 46.6373 6.98093C47.3974 7.00741 48 7.62934 48 8.38816V34.0395C48 34.7808 47.4242 35.3951 46.683 35.4448C41.0653 35.8221 31.6601 35.8647 24.5538 38.8886C24.648 38.8486 24.0795 39.1585 23.4462 38.8886C16.3397 35.8646 6.93281 35.8219 1.31702 35.4448C0.575757 35.3951 0 34.7808 0 34.0395V8.38816C0 7.59 0.663973 6.95556 1.45361 6.98044C3.01925 7.02636 4.48179 7.06725 6.02795 7.12546V1.40866C6.02795 0.585894 6.73172 -0.0621944 7.55713 0.0048556C12.9832 0.456806 19.8866 2.84875 23.9999 7.21189C28.1132 2.84875 35.0166 0.456806 40.4426 0.0048556ZM2.82349 9.83884V32.7143C7.09321 32.9539 12.9277 33.154 18.5018 34.4013C14.5948 31.58 10.4029 30.2697 7.17932 29.666C6.51174 29.541 6.02795 28.9594 6.02795 28.2817V9.9448C4.91567 9.90245 3.8344 9.8687 2.82349 9.83884ZM45.1763 9.77097C44.3779 9.76374 43.2712 9.76393 41.9718 9.79294V28.2817C41.9718 28.9594 41.488 29.541 40.8204 29.666C37.5969 30.2697 33.4048 31.58 29.4978 34.4013C35.0742 33.1535 40.9135 32.9535 45.1763 32.7143V9.77097ZM39.1483 2.99265C34.3505 3.71795 28.5005 6.03555 25.4116 9.88083V34.0923C29.9178 29.9811 35.0772 28.0424 39.1483 27.1338V2.99265ZM8.85144 2.99265V27.1338C12.9226 28.0424 18.082 29.9811 22.5881 34.0923V9.88083C19.4992 6.03555 13.6493 3.71795 8.85144 2.99265ZM12.3101 20.207C12.44 19.4399 13.1689 18.9227 13.9374 19.0527C15.8126 19.3689 17.7802 20.4447 18.7863 21.0576C19.4517 21.4632 19.6616 22.3297 19.2552 22.9936C18.8493 23.6568 17.9808 23.8671 17.3146 23.4614C16.6444 23.0529 14.9277 22.0768 13.4669 21.8305C12.6981 21.701 12.1802 20.9741 12.3101 20.207ZM34.0625 19.0527C34.8311 18.9223 35.5597 19.4399 35.6897 20.207C35.8195 20.9741 35.3016 21.7009 34.5328 21.8305C33.072 22.0768 31.3554 23.0534 30.6852 23.4619C30.0197 23.8673 29.1509 23.6574 28.7445 22.9936C28.3381 22.3297 28.5481 21.4631 29.2135 21.0576C30.2195 20.4446 32.1873 19.3688 34.0625 19.0527ZM12.3101 12.2475C12.44 11.4805 13.1689 10.9631 13.9374 11.0932C15.9491 11.4324 17.8342 12.3654 18.9276 13.1255C19.5673 13.5701 19.7246 14.4481 19.2789 15.0864C18.8331 15.7248 17.9531 15.8815 17.3136 15.437C16.5098 14.8783 15.0201 14.133 13.4669 13.8711C12.6981 13.7415 12.1802 13.0145 12.3101 12.2475ZM34.0625 11.0932C34.8311 10.9628 35.5598 11.4805 35.6897 12.2475C35.8195 13.0145 35.3016 13.7415 34.5328 13.8711C32.9796 14.133 31.4899 14.8783 30.6862 15.437C30.047 15.8813 29.1668 15.725 28.7208 15.0864C28.2752 14.4481 28.4324 13.5701 29.0721 13.1255C30.1656 12.3654 32.0508 11.4323 34.0625 11.0932Z" fill="white"/>
</g>
<defs>
<clipPath id="clip0_1180_179">
<rect width="48" height="39" fill="white"/>
</clipPath>
</defs>
</svg>
