<svg width="48" height="48" viewBox="0 0 48 48" fill="none" xmlns="http://www.w3.org/2000/svg">
<path d="M13.4998 11.8125C14.2318 11.8125 14.8415 12.3746 14.9012 13.1045L15.4608 19.9688H20.8233C21.5279 19.9688 22.1241 20.4906 22.2171 21.189C22.2171 21.189 23.5077 30.8543 23.901 33.8008L23.9188 33.937H28.3127V25.6875C28.3127 25.1126 28.6628 24.5953 29.1968 24.3818L43.2594 18.7568C43.6926 18.5832 44.1837 18.6365 44.5701 18.8979C44.9564 19.1594 45.1879 19.5956 45.1879 20.0625V45.1875H46.5938C47.3705 45.1875 48 45.817 48 46.5938C48 47.3705 47.3705 48 46.5938 48H1.40625C0.62951 48 0 47.3705 0 46.5938C0 45.817 0.62951 45.1875 1.40625 45.1875H2.8125V35.3433C2.8125 34.5665 3.44201 33.937 4.21875 33.937H4.77618C4.77618 33.937 6.15057 17.0681 6.47284 13.105C6.53216 12.3748 7.1419 11.8125 7.87433 11.8125H13.4998ZM42.3754 22.1396L31.1252 26.6396V35.3433C31.1252 36.12 30.4957 36.7495 29.719 36.7495H5.62506V45.1875H42.3754V22.1396ZM12.6564 39.5625C13.4331 39.5625 14.0626 40.192 14.0626 40.9688C14.0626 41.7455 13.4327 42.375 12.6564 42.375H9.84381C9.06707 42.375 8.43756 41.7455 8.43756 40.9688C8.43756 40.192 9.06707 39.5625 9.84381 39.5625H12.6564ZM21.0983 39.5625C21.8751 39.5625 22.5046 40.192 22.5046 40.9688C22.5046 41.7455 21.8751 42.375 21.0983 42.375H18.2858C17.509 42.375 16.8795 41.7455 16.8795 40.9688C16.8795 40.192 17.509 39.5625 18.2858 39.5625H21.0983ZM29.5403 39.5625C30.317 39.5625 30.9465 40.192 30.9465 40.9688C30.9465 41.7455 30.317 42.375 29.5403 42.375H26.7278C25.951 42.375 25.3215 41.7455 25.3215 40.9688C25.3215 40.192 25.951 39.5625 26.7278 39.5625H29.5403ZM37.969 39.5625C38.7457 39.5625 39.3752 40.192 39.3752 40.9688C39.3752 41.7455 38.7457 42.375 37.969 42.375H35.1565C34.3798 42.375 33.7502 41.7455 33.7502 40.9688C33.7502 40.192 34.3798 39.5625 35.1565 39.5625H37.969ZM37.969 33.9375C38.7457 33.9375 39.3752 34.567 39.3752 35.3438C39.3752 36.1205 38.7457 36.75 37.969 36.75H35.1565C34.3798 36.75 33.7502 36.1205 33.7502 35.3438C33.7502 34.567 34.3798 33.9375 35.1565 33.9375H37.969ZM19.592 22.7812H15.6901C15.6901 22.7812 16.5979 33.3412 16.6514 33.937H21.0815C20.6988 31.0692 19.592 22.7812 19.592 22.7812ZM12.2034 14.625H9.17072C8.88325 18.1578 7.59784 33.937 7.59784 33.937H13.8275C13.7825 33.45 12.2034 14.625 12.2034 14.625ZM37.969 28.3125C38.7457 28.3125 39.3752 28.942 39.3752 29.7188C39.3752 30.4955 38.7457 31.125 37.969 31.125H35.1565C34.3798 31.125 33.7502 30.4955 33.7502 29.7188C33.7502 28.942 34.3798 28.3125 35.1565 28.3125H37.969ZM21.9164 3.375C24.0676 3.375 25.2051 4.43213 26.0356 5.2041C26.7582 5.87573 27.194 6.28125 28.2399 6.28125H35.5315C36.3079 6.28125 36.9377 6.91077 36.9377 7.6875C36.9377 8.46387 36.3079 9.09375 35.5315 9.09375H28.2399C26.0887 9.09375 24.9513 8.03613 24.1207 7.26416C23.3985 6.59253 22.9623 6.1875 21.9164 6.1875H13.4064C12.5447 6.1875 12.0938 6.89453 12.0938 7.59326C12.0938 8.37 11.4643 8.99951 10.6876 8.99951C9.91082 8.99951 9.28131 8.37 9.28131 7.59326C9.28131 5.22791 11.0934 3.375 13.4064 3.375H21.9164ZM46.5934 6.28125C47.3701 6.28125 47.9996 6.91077 47.9996 7.6875C47.9996 8.46387 47.3701 9.09375 46.5934 9.09375H41.8055C41.0292 9.09375 40.3992 8.46387 40.3992 7.6875C40.3992 6.91077 41.0292 6.28125 41.8055 6.28125H46.5934ZM43.7816 0C44.558 0 45.1879 0.62952 45.1879 1.40625C45.1879 2.18298 44.558 2.8125 43.7816 2.8125H28.5002C27.7235 2.8125 27.094 2.18298 27.094 1.40625C27.094 0.62952 27.7235 0 28.5002 0H43.7816Z" fill="white"/>
</svg>
