<svg width="174" height="174" viewBox="0 0 174 174" fill="none" xmlns="http://www.w3.org/2000/svg">
<g filter="url(#filter0_d_1837_1422)">
<rect x="86.7109" y="16" width="100" height="100" rx="10" transform="rotate(45 86.7109 16)" fill="white"/>
</g>
<path d="M118.388 105.194C118.654 105.192 118.909 105.086 119.097 104.898C119.285 104.71 119.392 104.455 119.393 104.189V61.3545C119.392 61.0886 119.285 60.834 119.097 60.646C118.909 60.4579 118.654 60.3514 118.388 60.3496H55.6436C55.3776 60.3514 55.1231 60.4579 54.935 60.646C54.747 60.834 54.6405 61.0886 54.6387 61.3545V104.189C54.6405 104.455 54.747 104.71 54.935 104.898C55.1231 105.086 55.3776 105.192 55.6436 105.194H118.388V105.194Z" fill="white"/>
<path d="M118.388 58.8108H55.6435C54.9615 58.8139 54.3082 59.0862 53.826 59.5684C53.3437 60.0507 53.0714 60.7039 53.0684 61.3859V104.221C53.0714 104.903 53.3437 105.556 53.826 106.038C54.3082 106.52 54.9615 106.793 55.6435 106.796H79.5418V105.226H55.6435C55.3775 105.224 55.123 105.117 54.9349 104.929C54.7468 104.741 54.6404 104.487 54.6385 104.221V61.3545C54.6404 61.0886 54.7468 60.834 54.9349 60.6459C55.123 60.4579 55.3775 60.3514 55.6435 60.3496H118.357C118.623 60.3514 118.877 60.4579 119.065 60.6459C119.254 60.834 119.36 61.0886 119.362 61.3545V104.189C119.36 104.455 119.254 104.71 119.065 104.898C118.877 105.086 118.623 105.192 118.357 105.194H94.4586V106.764H118.357C119.039 106.761 119.692 106.489 120.174 106.007C120.657 105.525 120.929 104.871 120.932 104.189V61.3545C120.933 61.0201 120.869 60.6887 120.741 60.3794C120.614 60.0702 120.427 59.7892 120.19 59.5527C119.954 59.3162 119.673 59.1289 119.363 59.0016C119.054 58.8743 118.723 58.8094 118.388 58.8108Z" fill="#024D81"/>
<path d="M69.9961 111.789V113.422C69.9975 113.447 70.0079 113.47 70.0253 113.487C70.0427 113.505 70.0658 113.515 70.0903 113.516H103.912C103.925 113.518 103.938 113.517 103.95 113.513C103.963 113.509 103.974 113.502 103.983 113.493C103.992 113.484 103.999 113.473 104.003 113.46C104.007 113.448 104.008 113.435 104.006 113.422V111.789C104.008 111.776 104.007 111.763 104.003 111.751C103.999 111.739 103.992 111.728 103.983 111.718C103.974 111.709 103.963 111.702 103.95 111.698C103.938 111.694 103.925 111.693 103.912 111.695H70.0903C70.0658 111.696 70.0427 111.707 70.0253 111.724C70.0079 111.741 69.9975 111.765 69.9961 111.789V111.789Z" fill="white"/>
<path d="M94.491 111.695H103.943C103.968 111.696 103.991 111.707 104.009 111.724C104.026 111.742 104.036 111.765 104.038 111.789V113.422C104.04 113.435 104.038 113.448 104.034 113.46C104.03 113.473 104.023 113.484 104.014 113.493C104.005 113.502 103.994 113.509 103.982 113.513C103.969 113.517 103.956 113.518 103.943 113.516H70.0902C70.0774 113.518 70.0643 113.517 70.0521 113.513C70.0398 113.509 70.0287 113.502 70.0195 113.493C70.0104 113.484 70.0035 113.473 69.9994 113.46C69.9953 113.448 69.9941 113.435 69.996 113.422V111.789C69.9974 111.765 70.0078 111.742 70.0252 111.724C70.0425 111.707 70.0657 111.696 70.0902 111.695H79.5427V110.125H70.0902C69.6496 110.128 69.228 110.304 68.9165 110.615C68.605 110.927 68.4287 111.349 68.4258 111.789V113.422C68.4287 113.863 68.605 114.284 68.9165 114.596C69.228 114.907 69.6496 115.084 70.0902 115.087H103.912C104.353 115.084 104.774 114.907 105.086 114.596C105.397 114.284 105.574 113.863 105.576 113.422V111.789C105.574 111.349 105.397 110.927 105.086 110.615C104.774 110.304 104.353 110.128 103.912 110.125H94.4595V111.695H94.491Z" fill="#024D81"/>
<path d="M92.8878 106.764H81.1113V110.125H92.8878V106.764Z" fill="white"/>
<path d="M94.491 105.194H79.5742V111.695H94.491V105.194ZM92.9208 110.124H81.1444V106.764H92.9208V110.124Z" fill="#024D81"/>
<path d="M98.1384 71.6985H75.0293V93.4005H98.1384V71.6985Z" fill="#024D81"/>
<path d="M71.0824 82.9261C70.2263 82.9261 69.3701 82.9261 68.514 82.9261C68.4769 82.9278 68.4396 82.9277 68.4024 82.9256C68.3854 82.9222 68.3679 82.9224 68.3509 82.926C68.3339 82.9296 68.3179 82.9367 68.3037 82.9468C68.2896 82.9568 68.2776 82.9697 68.2686 82.9845C68.2596 82.9994 68.2537 83.0159 68.2514 83.0331C68.1741 83.2838 68.0288 83.5082 67.8317 83.6813C67.56 83.9262 67.2093 84.0654 66.8435 84.0735C66.4778 84.0816 66.1213 83.958 65.839 83.7253C65.5526 83.4949 65.3649 83.1641 65.3139 82.8002C65.2673 82.5396 65.2921 82.2712 65.3857 82.0236C65.4792 81.7759 65.6381 81.5582 65.8453 81.3935C66.1326 81.1543 66.4985 81.0304 66.872 81.0461C67.2455 81.0618 67.5998 81.2158 67.8659 81.4783C68.0355 81.6452 68.1661 81.8476 68.2482 82.0709C68.2922 82.1884 68.2929 82.1899 68.4188 82.191C68.6188 82.1925 68.8189 82.1915 69.019 82.1915C70.5777 82.1915 72.1363 82.1915 73.695 82.1915C73.9031 82.1914 73.9034 82.1911 73.9034 81.986C73.9035 80.8553 73.9035 79.7247 73.9034 78.5941C73.9034 78.4041 73.903 78.4037 73.7109 78.4037C72.757 78.4036 71.8032 78.4035 70.8494 78.4036C70.8355 78.4044 70.8215 78.4044 70.8076 78.4035C70.769 78.3957 70.7289 78.403 70.6956 78.4238C70.6622 78.4446 70.638 78.4774 70.628 78.5154C70.5783 78.6342 70.4993 78.7385 70.3983 78.8185C70.2974 78.8985 70.1779 78.9517 70.0508 78.973C69.9365 78.9942 69.819 78.9905 69.7063 78.9621C69.5936 78.9337 69.4883 78.8813 69.3977 78.8085C69.307 78.7358 69.2332 78.6443 69.1811 78.5403C69.1291 78.4364 69.1001 78.3225 69.0961 78.2063C69.0954 78.0267 69.1531 77.8518 69.2604 77.7077C69.3677 77.5637 69.5188 77.4585 69.6911 77.4077C69.8702 77.3592 70.0607 77.3747 70.2296 77.4515C70.3985 77.5284 70.5353 77.6618 70.6164 77.8287C70.6315 77.8671 70.6586 77.8995 70.6936 77.9213C70.7286 77.943 70.7697 77.9529 70.8108 77.9495C71.7925 77.9472 72.7742 77.9485 73.7559 77.9476C73.8953 77.9475 73.903 77.9385 73.9031 77.7934C73.9038 77.0489 73.9037 76.3045 73.903 75.5601C73.9029 75.419 73.8945 75.4126 73.7512 75.4097C73.3423 75.4016 72.9334 75.3906 72.5246 75.3767C72.1994 75.3659 71.8741 75.3584 71.5489 75.354C71.4752 75.3558 71.402 75.3419 71.3341 75.3132C71.2662 75.2846 71.2052 75.2418 71.1551 75.1877C70.7963 74.8164 70.4318 74.45 70.0556 74.0966C69.7503 73.8098 69.4669 73.5011 69.1556 73.221C69.1199 73.1914 69.0918 73.1536 69.0738 73.1109C69.0558 73.0681 69.0484 73.0216 69.0523 72.9754C69.0886 72.2784 69.068 71.5806 69.0783 70.8832C69.0848 70.4412 69.0803 69.9992 69.081 69.5572C69.0794 69.4874 69.0831 69.4177 69.0918 69.3485C69.111 69.2208 69.1056 69.2128 68.9837 69.1609C68.6199 69.0163 68.3278 68.734 68.171 68.3753C68.0714 68.1533 68.0267 67.9105 68.0406 67.6676C68.0546 67.4247 68.1268 67.1887 68.2512 66.9796C68.3756 66.7705 68.5485 66.5943 68.7553 66.4661C68.9621 66.3379 69.1967 66.2614 69.4393 66.2429C69.6819 66.2245 69.9254 66.2648 70.1492 66.3603C70.373 66.4558 70.5705 66.6038 70.7251 66.7917C70.8796 66.9797 70.9867 67.2021 71.0371 67.4401C71.0876 67.6781 71.08 67.9248 71.0151 68.1593C70.9526 68.402 70.8288 68.6245 70.6556 68.8057C70.4825 68.9868 70.2657 69.1205 70.0261 69.1939C69.8161 69.2651 69.8161 69.2632 69.8153 69.489C69.8134 70.0612 69.8258 70.634 69.8039 71.2055C69.7849 71.6986 69.7976 72.1912 69.7862 72.6839C69.7834 72.7275 69.7905 72.7711 69.807 72.8116C69.8234 72.8521 69.8487 72.8884 69.881 72.9178C70.437 73.4602 70.991 74.0046 71.5431 74.551C71.5673 74.5758 71.5963 74.5953 71.6283 74.6084C71.6604 74.6214 71.6947 74.6278 71.7293 74.627C72.1244 74.6344 72.5194 74.6468 72.9141 74.659C73.1322 74.6658 73.3508 74.6683 73.5689 74.6787C73.6432 74.6822 73.7179 74.6836 73.7921 74.6804C73.8852 74.6765 73.8966 74.6637 73.9025 74.5746C73.905 74.5376 73.9034 74.5002 73.9034 74.463C73.9035 73.6906 73.9117 72.9182 73.9008 72.146C73.9028 71.8498 74.0213 71.5663 74.2305 71.3567C74.4397 71.147 74.723 71.0281 75.0192 71.0254C75.8427 71.0235 76.6663 71.0249 77.4898 71.0249C77.5317 71.0249 77.5736 71.0257 77.6154 71.0245C77.7465 71.0209 77.7552 71.0136 77.7555 70.877C77.7565 70.3839 77.7566 69.8907 77.7559 69.3975C77.7559 68.9322 77.7543 68.4669 77.7573 68.0017C77.762 67.9631 77.7535 67.9241 77.7331 67.891C77.7127 67.858 77.6817 67.8328 77.6451 67.8198C77.5209 67.765 77.4127 67.6793 77.331 67.5709C77.2492 67.4625 77.1966 67.335 77.1781 67.2005C77.1596 67.066 77.1758 66.929 77.2252 66.8025C77.2746 66.676 77.3556 66.5643 77.4604 66.478C77.5471 66.4054 77.6482 66.352 77.757 66.3212C77.8658 66.2905 77.9799 66.2831 78.0917 66.2996C78.2036 66.3161 78.3107 66.3561 78.406 66.4169C78.5013 66.4778 78.5826 66.5581 78.6446 66.6526C78.7066 66.7472 78.748 66.8537 78.7658 66.9654C78.7837 67.077 78.7778 67.1912 78.7484 67.3004C78.719 67.4095 78.6668 67.5113 78.5953 67.5988C78.5238 67.6864 78.4345 67.7578 78.3334 67.8084C78.2932 67.8244 78.2593 67.8531 78.237 67.8901C78.2146 67.9271 78.205 67.9705 78.2096 68.0135C78.2127 68.958 78.2114 69.9025 78.2115 70.847C78.2115 70.8703 78.2105 70.8937 78.2127 70.9168C78.2205 71.0033 78.2348 71.0173 78.3251 71.0237C78.3622 71.0263 78.3996 71.0249 78.4368 71.0249C79.7674 71.0249 81.0981 71.0249 82.4288 71.0249C82.648 71.0248 82.6481 71.0245 82.6483 70.7993C82.6484 70.6085 82.642 70.4174 82.6505 70.2271C82.6548 70.1698 82.6457 70.1122 82.6241 70.059C82.6025 70.0057 82.5688 69.9582 82.5258 69.9201C82.1235 69.5263 81.7294 69.1241 81.3284 68.729C81.2911 68.6951 81.2616 68.6534 81.2421 68.6069C81.2226 68.5603 81.2136 68.5101 81.2156 68.4597C81.2198 67.8409 81.2155 67.2221 81.2195 66.6033C81.2265 66.5562 81.217 66.5081 81.1925 66.4672C81.168 66.4264 81.1302 66.3953 81.0853 66.3792C80.9218 66.302 80.79 66.1705 80.7124 66.0071C80.6348 65.8437 80.6161 65.6585 80.6595 65.4829C80.7014 65.3047 80.8023 65.1458 80.9457 65.032C81.0892 64.9183 81.2669 64.8563 81.45 64.8562C81.6593 64.8585 81.8594 64.943 82.007 65.0914C82.1546 65.2398 82.2379 65.4403 82.239 65.6497C82.2474 65.8043 82.2086 65.9578 82.1277 66.0899C82.0469 66.222 81.9278 66.3264 81.7863 66.3893C81.7498 66.4026 81.7188 66.4276 81.698 66.4604C81.6773 66.4932 81.6679 66.532 81.6715 66.5706C81.6747 67.1522 81.6747 67.7338 81.6715 68.3154C81.6716 68.3569 81.6807 68.3978 81.6982 68.4355C81.7156 68.4731 81.7411 68.5065 81.7727 68.5333C82.1788 68.9366 82.5809 69.3438 82.9891 69.745C83.0285 69.7801 83.0595 69.8238 83.0797 69.8726C83.1 69.9214 83.109 69.9741 83.106 70.0269C83.0989 70.3105 83.1029 70.5944 83.1042 70.8783C83.1048 71.0139 83.1133 71.024 83.2455 71.0242C84.0969 71.0252 84.9484 71.0252 85.7998 71.0241C85.9235 71.0239 85.9321 71.0116 85.9352 70.8861C85.9362 70.8443 85.9355 70.8024 85.9355 70.7605C85.9355 69.0623 85.9355 67.364 85.9355 65.6658C85.9355 65.6285 85.9358 65.5913 85.9354 65.5541C85.9336 65.4209 85.934 65.4196 85.8104 65.376C85.6242 65.3141 85.4521 65.2158 85.3042 65.0868C85.1562 64.9578 85.0354 64.8007 84.9487 64.6247C84.8427 64.4162 84.7865 64.186 84.7844 63.9521C84.7823 63.7182 84.8344 63.4871 84.9366 63.2767C85.0388 63.0663 85.1883 62.8825 85.3735 62.7396C85.5586 62.5966 85.7743 62.4985 86.0037 62.4529C86.2331 62.4073 86.4699 62.4154 86.6956 62.4766C86.9214 62.5379 87.1298 62.6505 87.3047 62.8058C87.4796 62.9611 87.6162 63.1547 87.7037 63.3716C87.7913 63.5885 87.8274 63.8227 87.8093 64.0559C87.7929 64.3468 87.6904 64.6263 87.5149 64.8588C87.3393 65.0914 87.0986 65.2665 86.8233 65.3619C86.7008 65.4115 86.6698 65.3853 86.6698 65.5807C86.6703 67.3348 86.6704 69.0889 86.6701 70.843C86.6701 70.8616 86.6697 70.8802 86.6707 70.8988C86.6766 71.0042 86.69 71.0181 86.7937 71.0241C86.8215 71.0258 86.8495 71.0249 86.8774 71.0249C87.7987 71.0249 88.7199 71.0249 89.6411 71.0249C89.8502 71.0248 89.8506 71.0244 89.8507 70.8173C89.8509 70.0357 89.8487 69.254 89.8529 68.4723C89.8605 68.4185 89.8499 68.3636 89.8227 68.3164C89.7956 68.2692 89.7535 68.2325 89.7031 68.2119C89.5427 68.1322 89.4153 67.9989 89.3429 67.8351C89.2705 67.6713 89.2578 67.4873 89.307 67.315C89.345 67.1397 89.4426 66.9829 89.5831 66.8713C89.7235 66.7597 89.8983 66.7002 90.0777 66.7028C90.2587 66.7017 90.4347 66.7618 90.5773 66.8732C90.7199 66.9846 90.8207 67.1409 90.8634 67.3168C90.909 67.4944 90.8915 67.6823 90.814 67.8485C90.7366 68.0146 90.6039 68.1488 90.4386 68.2281C90.3954 68.2423 90.3584 68.271 90.3339 68.3093C90.3094 68.3476 90.2989 68.3932 90.3041 68.4383C90.308 69.2432 90.3062 70.0482 90.3063 70.8531C90.3063 70.881 90.3072 70.9089 90.3076 70.9368C90.3065 70.9485 90.308 70.9603 90.312 70.9714C90.316 70.9824 90.3224 70.9924 90.3308 71.0006C90.3391 71.0089 90.3492 71.0152 90.3603 71.019C90.3714 71.0228 90.3832 71.0242 90.3949 71.0228C90.4275 71.0239 90.46 71.0248 90.4926 71.0248C91.5069 71.0249 92.5212 71.0249 93.5355 71.0248C93.7234 71.0247 93.7241 71.024 93.7241 70.8415C93.7243 69.6644 93.7243 68.4872 93.7241 67.3101C93.7241 67.1445 93.7322 67.1472 93.562 67.085C93.2762 66.9754 93.0295 66.783 92.8536 66.5325C92.6776 66.282 92.5804 65.9847 92.5742 65.6786C92.5721 65.4634 92.6158 65.2502 92.7025 65.0532C92.7892 64.8562 92.9169 64.68 93.077 64.5362C93.2371 64.3924 93.426 64.2843 93.6312 64.2192C93.8363 64.1541 94.0529 64.1334 94.2667 64.1585C94.4804 64.1836 94.6864 64.254 94.8708 64.3649C95.0552 64.4758 95.214 64.6247 95.3364 64.8017C95.4588 64.9787 95.5421 65.1797 95.5808 65.3915C95.6194 65.6032 95.6126 65.8207 95.5606 66.0295C95.5027 66.2757 95.3829 66.503 95.2126 66.6899C95.0423 66.8769 94.8271 67.0173 94.5873 67.0978C94.4386 67.1535 94.438 67.1533 94.438 67.3148C94.4378 68.4919 94.4378 69.6691 94.438 70.8462C94.438 70.8788 94.4384 70.9113 94.4399 70.9439C94.4394 70.9544 94.4412 70.965 94.445 70.9748C94.4489 70.9846 94.4547 70.9935 94.4623 71.0009C94.4698 71.0083 94.4788 71.014 94.4887 71.0177C94.4986 71.0214 94.5092 71.0229 94.5197 71.0222C94.5522 71.024 94.5848 71.0248 94.6173 71.0248C95.2641 71.0249 95.9108 71.0249 96.5575 71.0248C96.7381 71.0246 96.7389 71.0237 96.7391 70.8484C96.7395 70.425 96.7429 70.0016 96.7369 69.5783C96.7344 69.5255 96.7438 69.4729 96.7642 69.4242C96.7847 69.3756 96.8158 69.3321 96.8553 69.297C97.1782 68.9817 97.4937 68.6589 97.8154 68.3423C97.8481 68.3133 97.8739 68.2774 97.8908 68.2371C97.9078 68.1969 97.9156 68.1533 97.9135 68.1096C97.9079 67.8864 97.9075 67.6629 97.9136 67.4397C97.9196 67.3966 97.9104 67.3527 97.8875 67.3157C97.8647 67.2786 97.8297 67.2506 97.7885 67.2365C97.6711 67.1836 97.5689 67.1019 97.4915 66.9991C97.4141 66.8962 97.3639 66.7754 97.3456 66.648C97.3279 66.5427 97.3313 66.4349 97.3558 66.3309C97.3802 66.2269 97.4251 66.1289 97.4879 66.0425C97.5507 65.9561 97.6301 65.8831 97.7214 65.8277C97.8128 65.7724 97.9142 65.7358 98.0199 65.7202C98.1255 65.7045 98.2332 65.7101 98.3367 65.7366C98.4401 65.7631 98.5373 65.8099 98.6224 65.8744C98.7076 65.9389 98.779 66.0197 98.8325 66.1121C98.886 66.2045 98.9206 66.3067 98.9342 66.4126C98.9568 66.5773 98.927 66.745 98.8492 66.8919C98.7713 67.0388 98.6492 67.1575 98.5002 67.2313C98.4548 67.2479 98.4165 67.2797 98.3919 67.3214C98.3673 67.363 98.3579 67.4119 98.3654 67.4597C98.3709 67.7341 98.3644 68.0087 98.3685 68.2832C98.3707 68.3293 98.3627 68.3753 98.3451 68.418C98.3275 68.4606 98.3007 68.4989 98.2667 68.53C97.9415 68.8496 97.6222 69.1752 97.297 69.4948C97.2627 69.5255 97.2355 69.5634 97.2175 69.6057C97.1995 69.6481 97.1911 69.6939 97.1929 69.7399C97.1975 70.1074 97.1947 70.475 97.1947 70.8426C97.1947 70.8659 97.1939 70.8892 97.1958 70.9124C97.203 71.0017 97.2167 71.0186 97.304 71.0231C97.3875 71.0274 97.4714 71.0245 97.5552 71.025C97.707 71.0222 97.8578 71.05 97.9986 71.107C98.1393 71.1639 98.2671 71.2488 98.3742 71.3564C98.4813 71.464 98.5656 71.5922 98.6218 71.7333C98.6781 71.8743 98.7053 72.0252 98.7017 72.177C98.7033 73.2006 98.7034 74.2243 98.7022 75.2479C98.7022 75.4634 98.7022 75.4587 98.9193 75.4415C99.0581 75.4304 99.1982 75.4351 99.3377 75.4338C99.7887 75.4297 100.239 75.3943 100.69 75.4008C100.713 75.4011 100.737 75.4011 100.76 75.4002C100.82 75.4043 100.881 75.3952 100.937 75.3735C100.994 75.3519 101.045 75.3181 101.087 75.2747C101.117 75.2399 101.158 75.2144 101.191 75.1817C101.604 74.7725 102.017 74.3631 102.429 73.9535C102.522 73.862 102.618 73.7736 102.715 73.687C102.745 73.6616 102.769 73.6296 102.784 73.5935C102.8 73.5574 102.807 73.5182 102.805 73.4789C102.801 72.5344 102.803 71.5899 102.793 70.6456C102.791 70.4698 102.777 70.293 102.776 70.1164C102.778 70.1016 102.777 70.0866 102.773 70.0722C102.769 70.0577 102.762 70.0443 102.753 70.0325C102.744 70.0208 102.732 70.0109 102.719 70.0036C102.706 69.9964 102.692 69.9917 102.677 69.99C102.46 69.9357 102.257 69.8336 102.084 69.6913C101.798 69.4615 101.607 69.1334 101.549 68.7709C101.502 68.4903 101.534 68.202 101.643 67.939C101.752 67.676 101.933 67.4489 102.164 67.2837C102.396 67.1185 102.67 67.0219 102.954 67.0048C103.238 66.9877 103.521 67.051 103.771 67.1872C104.021 67.3235 104.227 67.5274 104.367 67.7754C104.506 68.0235 104.573 68.3058 104.56 68.5901C104.546 68.8744 104.453 69.1492 104.291 69.383C104.129 69.6169 103.904 69.8003 103.642 69.9125C103.503 69.9717 103.507 69.9732 103.508 70.1165C103.51 70.605 103.494 71.0942 103.515 71.5819C103.544 72.2888 103.516 72.9957 103.541 73.7022C103.544 73.7594 103.535 73.8168 103.514 73.8699C103.492 73.9231 103.458 73.9706 103.416 74.0088C102.767 74.6423 102.12 75.2784 101.476 75.9171L101.466 75.927C101.413 75.9879 101.348 76.0363 101.274 76.0686C101.2 76.1009 101.12 76.1163 101.039 76.1136C100.584 76.1057 100.128 76.1373 99.6729 76.1467C99.3945 76.1525 99.1156 76.1621 98.8369 76.1706C98.7143 76.1743 98.7042 76.1827 98.7028 76.31C98.7008 76.5054 98.7021 76.7009 98.7021 76.8963C98.7021 77.3988 98.7023 77.9013 98.7026 78.4038C98.703 78.547 98.7111 78.5549 98.8528 78.555C99.8019 78.5557 100.751 78.5561 101.7 78.5564C101.735 78.5578 101.769 78.5518 101.801 78.5387C101.833 78.5256 101.862 78.5058 101.886 78.4806C102.17 78.1927 102.458 77.9077 102.743 77.621C102.829 77.5351 102.828 77.534 102.755 77.4402C102.639 77.2997 102.573 77.1237 102.57 76.9412C102.566 76.7587 102.625 76.5804 102.736 76.4355C102.847 76.2906 103.004 76.1878 103.181 76.1437C103.358 76.0997 103.545 76.1172 103.711 76.1932C103.877 76.2693 104.012 76.3995 104.095 76.5624C104.177 76.7254 104.202 76.9114 104.164 77.0901C104.127 77.2689 104.03 77.4296 103.89 77.5461C103.749 77.6626 103.573 77.728 103.391 77.7314C103.349 77.7314 103.308 77.7402 103.271 77.7572C103.233 77.7742 103.2 77.799 103.172 77.83C102.835 78.1706 102.49 78.5035 102.159 78.8501C102.109 78.9061 102.046 78.9498 101.976 78.9782C101.906 79.0065 101.83 79.0187 101.755 79.0139C100.815 79.0077 99.8752 79.0111 98.9354 79.0107C98.6891 79.0106 98.702 79.0053 98.7021 79.2507C98.7022 79.609 98.7014 79.9672 98.7026 80.3255C98.7031 80.4754 98.7094 80.4813 98.8622 80.4814C99.7649 80.4819 100.668 80.4802 101.57 80.4837C101.611 80.4887 101.653 80.4792 101.688 80.457C101.722 80.4348 101.749 80.4011 101.761 80.3618C101.814 80.2494 101.891 80.1508 101.988 80.0738C102.085 79.9968 102.199 79.9437 102.32 79.9185C102.442 79.8934 102.567 79.897 102.687 79.9291C102.806 79.9612 102.917 80.0208 103.009 80.1032C103.124 80.2027 103.208 80.3328 103.252 80.4783C103.295 80.6237 103.297 80.7786 103.256 80.9248C103.215 81.071 103.133 81.2026 103.02 81.3041C102.907 81.4057 102.768 81.4731 102.618 81.4985C102.445 81.531 102.266 81.5043 102.11 81.4227C101.953 81.3411 101.829 81.2093 101.757 81.0485C101.742 81.0122 101.717 80.9816 101.683 80.9613C101.65 80.941 101.611 80.9321 101.572 80.9359C100.665 80.9382 99.7575 80.9368 98.8502 80.9378C98.7176 80.938 98.7037 80.9517 98.703 81.0806C98.7012 81.4063 98.7012 81.732 98.7032 82.0577C98.7039 82.1732 98.7195 82.1856 98.832 82.191C98.8645 82.1925 98.8971 82.1916 98.9297 82.1916C100.651 82.1916 102.373 82.1916 104.094 82.1916C104.108 82.1916 104.122 82.1914 104.136 82.1916C104.341 82.1936 104.316 82.1681 104.366 82.0347C104.44 81.8343 104.556 81.6518 104.705 81.4992C104.855 81.3466 105.035 81.2274 105.234 81.1494C105.433 81.0714 105.646 81.0364 105.859 81.0466C106.073 81.0568 106.281 81.112 106.472 81.2086C106.713 81.3306 106.916 81.5145 107.062 81.7415C107.208 81.9685 107.291 82.2303 107.302 82.4999C107.312 82.7695 107.251 83.0371 107.124 83.2751C106.997 83.5131 106.809 83.7129 106.579 83.8538C106.39 83.9703 106.178 84.0438 105.957 84.069C105.737 84.0943 105.513 84.0707 105.303 84C105.093 83.9292 104.901 83.8131 104.74 83.6598C104.58 83.5064 104.455 83.3197 104.375 83.1128C104.3 82.9271 104.302 82.9262 104.099 82.9262C102.373 82.9262 100.647 82.9262 98.9209 82.9262C98.7007 82.9262 98.7018 82.9077 98.7019 83.1493C98.7024 84.1729 98.7025 85.1965 98.7022 86.2201C98.7022 86.4276 98.7026 86.4278 98.9083 86.4279C99.2201 86.428 99.5319 86.4245 99.8435 86.4298C99.8916 86.4325 99.9397 86.4245 99.9844 86.4063C100.029 86.388 100.069 86.3601 100.101 86.3245C100.506 85.9132 100.918 85.5088 101.322 85.0975C101.358 85.0586 101.402 85.028 101.451 85.008C101.5 84.9879 101.553 84.9788 101.605 84.9813C102.206 84.9854 102.806 84.9798 103.406 84.9859C103.462 84.9934 103.519 84.982 103.568 84.9537C103.617 84.9253 103.656 84.8815 103.677 84.8291C103.777 84.6451 103.944 84.5072 104.144 84.445C104.344 84.3829 104.56 84.4013 104.746 84.4965C104.932 84.5916 105.074 84.7559 105.141 84.9541C105.207 85.1524 105.194 85.3688 105.103 85.5573C105.042 85.695 104.942 85.8119 104.816 85.8932C104.689 85.9745 104.541 86.0168 104.39 86.0147C104.238 86.0221 104.086 85.9832 103.956 85.9031C103.826 85.8229 103.723 85.7053 103.661 85.5656C103.645 85.523 103.615 85.487 103.576 85.4635C103.538 85.4401 103.492 85.4306 103.447 85.4367C102.884 85.4409 102.321 85.441 101.758 85.437C101.714 85.4352 101.671 85.4431 101.631 85.4599C101.591 85.4767 101.554 85.5021 101.525 85.5343C101.133 85.9315 100.732 86.3205 100.345 86.7226C100.294 86.7791 100.232 86.8233 100.162 86.8516C100.091 86.88 100.016 86.8919 99.9403 86.8864C99.6009 86.8763 99.2611 86.8833 98.9214 86.8834C98.8888 86.8834 98.8562 86.8823 98.8237 86.8842C98.7211 86.8904 98.7042 86.9042 98.7034 87.0115C98.701 87.3232 98.701 87.635 98.7032 87.9467C98.704 88.0658 98.7199 88.0775 98.8445 88.0816C98.8724 88.0825 98.9003 88.082 98.9283 88.082C99.8588 88.082 100.789 88.082 101.72 88.082C101.743 88.0806 101.766 88.0807 101.79 88.0823C101.831 88.0889 101.873 88.0803 101.909 88.0581C101.944 88.0358 101.97 88.0015 101.983 87.9615C102.031 87.8524 102.105 87.7565 102.199 87.682C102.292 87.6075 102.402 87.5565 102.519 87.5333C102.717 87.4841 102.925 87.5128 103.102 87.6135C103.278 87.7141 103.409 87.8789 103.467 88.0736C103.525 88.2598 103.514 88.4608 103.435 88.6392C103.356 88.8176 103.215 88.9612 103.038 89.0433C102.855 89.1308 102.646 89.1445 102.454 89.0815C102.261 89.0186 102.1 88.8838 102.004 88.7053C101.982 88.6488 101.942 88.6012 101.89 88.5702C101.838 88.5392 101.777 88.5266 101.717 88.5343C100.777 88.5403 99.8368 88.5373 98.897 88.5375C98.703 88.5375 98.7024 88.5379 98.7022 88.7286C98.7019 89.0915 98.702 89.4545 98.7026 89.8174C98.703 89.9671 98.7093 89.9726 98.8625 89.9731C99.3926 89.9748 99.9218 90.008 100.452 90.0125C100.628 90.014 100.804 90.0296 100.981 90.0291C101.018 90.0287 101.055 90.0361 101.089 90.0509C101.123 90.0656 101.154 90.0873 101.179 90.1146C101.403 90.3376 101.629 90.5589 101.857 90.7785C102.292 91.1978 102.717 91.6288 103.146 92.0547C103.181 92.0926 103.219 92.1271 103.26 92.1578C103.299 92.1835 103.33 92.2201 103.348 92.2631C103.366 92.3061 103.372 92.3536 103.364 92.3996C103.323 92.8638 103.349 93.3292 103.337 93.7939C103.317 94.5238 103.307 95.2537 103.307 95.9838C103.307 96.1554 103.303 96.1554 103.464 96.2278C103.754 96.3533 103.998 96.5662 104.161 96.8368C104.324 97.1073 104.399 97.4221 104.375 97.7372C104.351 98.0522 104.229 98.3519 104.026 98.5943C103.824 98.8368 103.55 99.0099 103.244 99.0896C102.939 99.1693 102.616 99.1516 102.32 99.0389C102.025 98.9263 101.773 98.7243 101.598 98.4611C101.423 98.1979 101.334 97.8868 101.345 97.5709C101.355 97.2551 101.464 96.9504 101.656 96.6993C101.85 96.4401 102.124 96.2516 102.435 96.1625C102.572 96.1243 102.572 96.1214 102.574 95.983C102.576 95.7132 102.57 95.443 102.582 95.1736C102.611 94.5322 102.599 93.8904 102.613 93.2489C102.617 93.0588 102.627 92.8684 102.631 92.6779C102.633 92.641 102.627 92.604 102.614 92.5697C102.6 92.5353 102.579 92.5045 102.552 92.4795C102.164 92.1109 101.797 91.7218 101.404 91.358C101.234 91.2 101.07 91.0339 100.911 90.8646C100.874 90.8231 100.829 90.7904 100.779 90.7688C100.728 90.7472 100.673 90.7373 100.618 90.74C100.088 90.744 99.5589 90.7016 99.0286 90.7069C98.9496 90.7077 98.8727 90.6818 98.7926 90.6875C98.7364 90.6914 98.7062 90.716 98.7044 90.7727C98.7031 90.8145 98.7022 90.8564 98.7022 90.8982C98.7021 91.5915 98.704 92.2848 98.7015 92.978C98.7 93.2363 98.6099 93.4863 98.4462 93.6862C98.2825 93.8861 98.0552 94.0237 97.8022 94.0761C97.7289 94.0894 97.6545 94.095 97.5801 94.0928C96.7658 94.0928 95.9516 94.0927 95.1374 94.0928C95.1002 94.0928 95.0629 94.0923 95.0257 94.093C94.8915 94.0956 94.8854 94.1001 94.885 94.237C94.8839 94.5813 94.8872 94.9256 94.8829 95.2699C94.8808 95.3135 94.8883 95.357 94.9049 95.3974C94.9215 95.4377 94.9468 95.4739 94.979 95.5034C95.3927 95.9122 95.8009 96.3265 96.2155 96.7343C96.2564 96.7711 96.2886 96.8165 96.3099 96.8672C96.3312 96.9179 96.341 96.9727 96.3387 97.0276C96.3332 97.6371 96.3384 98.2467 96.3342 98.8561C96.3285 98.9035 96.3387 98.9514 96.3631 98.9923C96.3876 99.0333 96.4249 99.065 96.4692 99.0824C96.6134 99.1513 96.7328 99.2628 96.8113 99.4019C96.8898 99.541 96.9235 99.7009 96.908 99.8598C96.8971 100.029 96.832 100.19 96.7224 100.319C96.6128 100.448 96.4646 100.538 96.2996 100.576C96.1828 100.606 96.0609 100.609 95.9428 100.585C95.8247 100.561 95.7136 100.511 95.6177 100.438C95.5217 100.365 95.4434 100.271 95.3886 100.164C95.3339 100.057 95.304 99.9385 95.3013 99.8181C95.292 99.6652 95.3295 99.5132 95.4086 99.3821C95.4877 99.2511 95.6048 99.1471 95.7443 99.0841C95.7891 99.0677 95.8272 99.0367 95.8522 98.9961C95.8773 98.9555 95.888 98.9076 95.8825 98.8602C95.8786 98.3019 95.8786 97.7436 95.8824 97.1853C95.8844 97.1393 95.8764 97.0935 95.8589 97.051C95.8413 97.0085 95.8147 96.9703 95.7809 96.9391C95.367 96.5305 94.9589 96.1161 94.5443 95.7083C94.5051 95.6727 94.4743 95.6289 94.454 95.58C94.4338 95.5311 94.4246 95.4783 94.4271 95.4254C94.4324 95.0533 94.4291 94.681 94.429 94.3088C94.429 94.2716 94.428 94.2344 94.4283 94.1972C94.4288 94.13 94.4008 94.0911 94.3288 94.0935C94.3055 94.0943 94.2823 94.0929 94.259 94.0929C93.5843 94.0928 92.9097 94.0928 92.235 94.0929C92.2025 94.0929 92.1699 94.0935 92.1374 94.0953C92.128 94.095 92.1187 94.0965 92.11 94.1C92.1012 94.1034 92.0933 94.1087 92.0867 94.1153C92.0801 94.122 92.075 94.13 92.0717 94.1388C92.0683 94.1475 92.0669 94.1569 92.0674 94.1663C92.0654 94.2034 92.065 94.2407 92.065 94.2779C92.0649 95.2829 92.0664 96.2879 92.063 97.2928C92.0554 97.3422 92.0651 97.3926 92.0906 97.4356C92.1161 97.4785 92.1556 97.5113 92.2026 97.5283C92.3545 97.6021 92.4784 97.7231 92.5557 97.8733C92.633 98.0234 92.6597 98.1945 92.6316 98.3611C92.6116 98.4958 92.5576 98.6233 92.4748 98.7315C92.392 98.8397 92.2831 98.925 92.1582 98.9796C92.0333 99.0341 91.8967 99.056 91.761 99.0432C91.6254 99.0304 91.4952 98.9834 91.3828 98.9065C91.2703 98.8296 91.1792 98.7254 91.1181 98.6037C91.0569 98.4819 91.0277 98.3466 91.0332 98.2105C91.0387 98.0744 91.0787 97.9419 91.1495 97.8254C91.2202 97.709 91.3194 97.6125 91.4377 97.5449C91.4658 97.5284 91.4949 97.5137 91.5248 97.5009C91.5514 97.4914 91.574 97.4734 91.5892 97.4497C91.6044 97.4259 91.6112 97.3978 91.6086 97.3697C91.6079 97.3372 91.6095 97.3046 91.6095 97.272C91.6095 96.281 91.6095 95.29 91.6095 94.2989C91.6094 94.0931 91.609 94.0929 91.4016 94.0929C90.6851 94.0927 89.9686 94.0927 89.252 94.0928C89.2288 94.0928 89.2055 94.0924 89.1823 94.093C89.0587 94.0965 89.053 94.1026 89.0501 94.2319C89.05 94.2366 89.05 94.2412 89.05 94.2459C89.05 94.7065 89.0518 95.1671 89.0485 95.6277C89.0439 95.6662 89.0526 95.7051 89.0731 95.7379C89.0937 95.7708 89.1248 95.7956 89.1613 95.8084C89.291 95.8668 89.403 95.9585 89.4857 96.0743C89.5683 96.1901 89.6188 96.3257 89.6319 96.4674C89.645 96.609 89.6202 96.7516 89.5602 96.8806C89.5001 97.0096 89.4069 97.1203 89.29 97.2014C89.1732 97.2826 89.0369 97.3312 88.895 97.3424C88.7532 97.3537 88.611 97.327 88.4828 97.2653C88.3546 97.2035 88.2452 97.1089 88.1656 96.9909C88.086 96.873 88.0391 96.7361 88.0298 96.5941C88.0142 96.4304 88.0512 96.2659 88.1353 96.1246C88.2194 95.9832 88.3462 95.8722 88.4976 95.8077C88.528 95.797 88.554 95.7765 88.5716 95.7495C88.5893 95.7225 88.5976 95.6904 88.5952 95.6582C88.5932 95.179 88.5952 94.6998 88.5935 94.2205C88.593 94.1057 88.5798 94.0938 88.4618 94.0935C87.9081 94.0923 87.3544 94.0923 86.8008 94.0936C86.6843 94.0939 86.6752 94.1061 86.6706 94.2226C86.6691 94.2598 86.6701 94.297 86.6701 94.3343C86.6701 96.0511 86.6701 97.768 86.6701 99.4849C86.6701 99.4942 86.6701 99.5035 86.6701 99.5128C86.6704 99.6978 86.6704 99.6977 86.8475 99.77C87.0396 99.8432 87.2147 99.9551 87.3619 100.099C87.5092 100.242 87.6255 100.414 87.7036 100.604C87.7818 100.795 87.8202 100.999 87.8164 101.204C87.8126 101.41 87.7668 101.612 87.6817 101.8C87.544 102.113 87.3039 102.37 87.0008 102.53C86.6978 102.689 86.3496 102.74 86.0134 102.676C85.6772 102.611 85.373 102.434 85.1504 102.174C84.9279 101.914 84.8003 101.586 84.7885 101.244C84.7745 100.926 84.8622 100.611 85.0388 100.346C85.2183 100.071 85.484 99.8626 85.7943 99.7545C85.9344 99.7047 85.9353 99.7044 85.9353 99.5596C85.9356 97.7916 85.9356 96.0235 85.9354 94.2555C85.9354 94.2276 85.9349 94.1997 85.9338 94.1718C85.9346 94.1613 85.9331 94.1507 85.9294 94.1408C85.9257 94.1309 85.9199 94.1219 85.9124 94.1146C85.9048 94.1072 85.8957 94.1015 85.8858 94.098C85.8758 94.0945 85.8652 94.0933 85.8547 94.0944C85.8268 94.0936 85.7989 94.0929 85.7709 94.0929C85.3475 94.0928 84.9241 94.0928 84.5007 94.0929C84.4728 94.0929 84.4449 94.0939 84.417 94.094C84.4054 94.0924 84.3935 94.0934 84.3823 94.0969C84.3711 94.1005 84.3609 94.1065 84.3523 94.1145C84.3437 94.1225 84.337 94.1324 84.3328 94.1433C84.3285 94.1542 84.3267 94.166 84.3276 94.1777C84.326 94.2195 84.3252 94.2614 84.3252 94.3033C84.3251 94.9686 84.3218 95.634 84.3278 96.2993C84.3316 96.3634 84.3211 96.4275 84.297 96.487C84.2728 96.5464 84.2357 96.5998 84.1882 96.643C83.8569 96.9629 83.5366 97.2942 83.2076 97.6166C83.172 97.6491 83.1441 97.6891 83.1257 97.7337C83.1074 97.7783 83.0992 97.8264 83.1018 97.8745C83.1067 98.2886 83.1057 98.7027 83.1023 99.1168C83.0977 99.1552 83.1063 99.194 83.1267 99.2269C83.1471 99.2598 83.1781 99.2848 83.2146 99.2978C83.3141 99.3415 83.4036 99.4051 83.4776 99.4847C83.5516 99.5643 83.6085 99.6582 83.645 99.7606C83.6814 99.8629 83.6965 99.9717 83.6893 100.08C83.6822 100.189 83.6529 100.294 83.6034 100.391C83.5362 100.531 83.4292 100.648 83.2959 100.727C83.1626 100.806 83.0088 100.844 82.8539 100.837C82.6876 100.829 82.5278 100.77 82.3961 100.668C82.2644 100.566 82.1672 100.426 82.1177 100.267C82.0697 100.113 82.0698 99.9476 82.118 99.7933C82.1661 99.6391 82.2601 99.5031 82.3873 99.4034C82.4374 99.3617 82.4927 99.3268 82.552 99.2997C82.5852 99.2886 82.6132 99.2658 82.631 99.2356C82.6487 99.2054 82.655 99.1699 82.6486 99.1354C82.646 99.0844 82.6483 99.0331 82.6483 98.9819C82.6483 98.5585 82.6518 98.1351 82.6462 97.7117C82.6428 97.6544 82.6522 97.5971 82.6738 97.5438C82.6954 97.4906 82.7286 97.4429 82.7709 97.4041C83.1078 97.0766 83.4361 96.7402 83.7706 96.4102C83.8033 96.3812 83.8292 96.3455 83.8466 96.3054C83.8641 96.2654 83.8725 96.222 83.8714 96.1784C83.868 95.5363 83.8697 94.8942 83.8696 94.2522C83.8696 94.2289 83.8686 94.2056 83.8686 94.1824C83.8687 94.1266 83.8441 94.0946 83.7855 94.0941C83.7529 94.0939 83.7204 94.0929 83.6878 94.0929C82.6596 94.0928 81.6313 94.0928 80.603 94.0928C80.5984 94.0928 80.5937 94.0928 80.5891 94.0929C80.4205 94.0941 80.4171 94.0961 80.417 94.2648C80.4166 95.0976 80.4186 95.9305 80.4147 96.7633C80.4102 96.8109 80.4216 96.8586 80.4472 96.899C80.4728 96.9394 80.5111 96.9701 80.556 96.9863C80.7143 97.0682 80.8408 97.2004 80.9154 97.3621C80.9901 97.5238 81.0088 97.7059 80.9684 97.8794C80.9281 98.0529 80.8311 98.208 80.6927 98.3202C80.5543 98.4324 80.3825 98.4953 80.2044 98.499C80.0263 98.5026 79.8521 98.4467 79.7092 98.3402C79.5664 98.2338 79.4632 98.0827 79.4158 97.911C79.3685 97.7392 79.3797 97.5566 79.4477 97.392C79.5158 97.2273 79.6368 97.0901 79.7916 97.0019C79.8111 96.9893 79.832 96.9788 79.8539 96.9707C79.8898 96.9609 79.9208 96.9381 79.9409 96.9067C79.961 96.8754 79.9687 96.8377 79.9626 96.801C79.9603 95.9449 79.9616 95.0888 79.9609 94.2326C79.9607 94.0996 79.9538 94.0934 79.8158 94.0932C79.1737 94.0925 78.5316 94.0925 77.8896 94.0932C77.7471 94.0934 77.7415 94.1019 77.7367 94.2431C77.718 94.7911 77.6873 95.3387 77.6786 95.8871C77.677 95.9842 77.6557 96.0809 77.6588 96.1789C77.6576 96.2045 77.6511 96.2296 77.6396 96.2525C77.6281 96.2754 77.6118 96.2956 77.592 96.3118C77.3186 96.5971 77.0454 96.8827 76.7724 97.1686C76.3903 97.5687 76.0104 97.971 75.6255 98.3684C75.3832 98.6187 75.4602 98.5794 75.1473 98.5798C73.9981 98.5814 72.8489 98.5816 71.6996 98.5804C71.6624 98.5823 71.6252 98.5821 71.588 98.5798C71.5423 98.5719 71.4952 98.5797 71.4546 98.6021C71.4139 98.6245 71.3821 98.66 71.3643 98.7028C71.2424 98.9245 71.0617 99.1083 70.8421 99.2338C70.6125 99.38 70.3466 99.459 70.0744 99.4618C69.8022 99.4645 69.5347 99.3909 69.3022 99.2493C69.065 99.1122 68.8694 98.9132 68.7364 98.6736C68.6033 98.434 68.5378 98.1628 68.5468 97.889C68.5559 97.6151 68.6391 97.3488 68.7876 97.1185C68.9361 96.8882 69.1443 96.7025 69.3901 96.5812C69.6411 96.4475 69.926 96.391 70.2091 96.4187C70.4921 96.4464 70.7607 96.5571 70.981 96.737C71.2472 96.9312 71.4371 97.2123 71.5178 97.5318C71.5376 97.6082 71.554 97.6858 71.5673 97.7636C71.5676 97.7752 71.5703 97.7867 71.5752 97.7972C71.5802 97.8078 71.5873 97.8172 71.5961 97.8248C71.6049 97.8325 71.6151 97.8382 71.6263 97.8417C71.6374 97.8451 71.6491 97.8462 71.6607 97.8448C71.6747 97.8446 71.6886 97.8455 71.7026 97.8457C71.7165 97.8459 71.7305 97.8458 71.7445 97.8458C72.8099 97.8481 73.8753 97.8491 74.9407 97.8548C74.9957 97.8584 75.0508 97.8495 75.1018 97.8287C75.1529 97.8079 75.1985 97.7758 75.2354 97.7348C75.6863 97.2527 76.1424 96.7754 76.5973 96.297C76.6839 96.206 76.7709 96.1153 76.8616 96.0285C76.8916 95.9995 76.9152 95.9646 76.931 95.926C76.9467 95.8875 76.9543 95.846 76.9532 95.8043C76.9599 95.5535 76.9711 95.3028 76.9805 95.0521C76.9894 94.8153 76.9983 94.5785 77.0071 94.3417C77.0088 94.2952 77.0106 94.2485 77.0078 94.2022C77.0024 94.1113 76.9898 94.0994 76.8998 94.0937C76.8628 94.0914 76.8254 94.0929 76.7882 94.0929C76.1973 94.0928 75.6063 94.0853 75.0155 94.0949C74.72 94.0913 74.4377 93.9718 74.2293 93.7624C74.0209 93.5529 73.9029 93.27 73.9007 92.9745C73.9116 92.0999 73.9035 91.2251 73.9035 90.3504C73.9035 90.3131 73.9041 90.2759 73.9033 90.2387C73.9005 90.1107 73.8943 90.1044 73.77 90.101C73.7514 90.1005 73.7327 90.1008 73.7141 90.1008C73.1232 90.1008 72.5323 90.1037 71.9415 90.0983C71.8888 90.0961 71.8364 90.1057 71.7879 90.1262C71.7394 90.1467 71.696 90.1777 71.6609 90.2169C71.1475 90.7366 70.6276 91.2498 70.1147 91.7699C70.0774 91.8102 70.0316 91.8419 69.9807 91.8626C69.9297 91.8833 69.8749 91.8925 69.82 91.8896C69.2198 91.8849 68.6196 91.8892 68.0194 91.8858C67.9723 91.8794 67.9244 91.8889 67.8834 91.913C67.8423 91.937 67.8106 91.9741 67.7932 92.0184C67.7253 92.1555 67.6195 92.2703 67.4883 92.3492C67.3572 92.428 67.2061 92.4675 67.0532 92.4631C66.9002 92.4586 66.7517 92.4103 66.6254 92.324C66.499 92.2377 66.4001 92.1169 66.3403 91.976C66.2576 91.7858 66.2518 91.5709 66.3241 91.3765C66.3965 91.182 66.5413 91.0232 66.7283 90.9333C66.9145 90.8426 67.1288 90.8283 67.3254 90.8934C67.5221 90.9586 67.6854 91.098 67.7806 91.282C67.7987 91.3312 67.8327 91.373 67.8772 91.4007C67.9218 91.4284 67.9743 91.4404 68.0265 91.4348C68.5708 91.4283 69.1152 91.43 69.6595 91.4337C69.7077 91.4359 69.7558 91.4275 69.8004 91.4091C69.845 91.3907 69.885 91.3628 69.9177 91.3273C70.4347 90.8047 70.9576 90.2879 71.4739 89.7647C71.5113 89.7241 71.5571 89.6922 71.6081 89.6713C71.6591 89.6504 71.714 89.6408 71.7691 89.6434C72.3925 89.6476 73.016 89.6454 73.6395 89.6453C73.6767 89.6453 73.714 89.6459 73.7512 89.6451C73.8949 89.6424 73.9012 89.6365 73.9032 89.4953C73.9042 89.4255 73.9035 89.3557 73.9035 89.2859C73.9035 88.5601 73.9035 87.8343 73.9034 87.1084C73.9034 87.0665 73.9021 87.0247 73.9027 86.9828C73.9036 86.9209 73.8762 86.8863 73.8121 86.8852C73.7842 86.8847 73.7563 86.8835 73.7284 86.8835C72.77 86.8834 71.8115 86.8846 70.853 86.8817C70.8059 86.8757 70.758 86.8857 70.7172 86.91C70.6764 86.9344 70.6449 86.9718 70.6279 87.0162C70.5374 87.1969 70.382 87.3367 70.1929 87.4076C70.0037 87.4786 69.7947 87.4755 69.6078 87.3989C69.4209 87.3223 69.2698 87.1779 69.1848 86.9946C69.0998 86.8113 69.0872 86.6027 69.1495 86.4105C69.196 86.2607 69.2857 86.128 69.4073 86.0289C69.5288 85.9299 69.6769 85.8688 69.833 85.8535C69.9891 85.8382 70.1462 85.8692 70.2847 85.9427C70.4233 86.0162 70.537 86.1289 70.6118 86.2667C70.6326 86.3216 70.6714 86.3678 70.722 86.3977C70.7725 86.4275 70.8317 86.4392 70.8898 86.4309C71.825 86.4253 72.7602 86.428 73.6954 86.4279C73.728 86.4279 73.7606 86.4291 73.7931 86.4273C73.8874 86.4222 73.8968 86.4132 73.9027 86.3227C73.9046 86.2949 73.9034 86.2669 73.9034 86.239C73.9035 85.1968 73.9035 84.1546 73.9034 83.1124C73.9034 82.9269 73.9029 82.9264 73.7205 82.9263C72.8411 82.926 71.9617 82.926 71.0824 82.9261ZM86.3094 72.1503C82.6246 72.1503 78.9397 72.1503 75.2549 72.1504C75.0264 72.1504 75.0287 72.1282 75.0287 72.3803C75.0289 79.1638 75.029 85.9473 75.0289 92.7308C75.0289 92.9671 75.0291 92.9673 75.2654 92.9673C82.6258 92.9673 89.9862 92.9674 97.3466 92.9675C97.5987 92.9675 97.5766 92.97 97.5766 92.7414C97.5767 85.9533 97.5768 79.1652 97.5767 72.377C97.5767 72.1336 97.5934 72.1504 97.35 72.1504C93.6698 72.1503 89.9896 72.1503 86.3094 72.1503V72.1503ZM70.8403 97.9382C70.8444 97.8341 70.8271 97.7302 70.7895 97.6331C70.7519 97.5359 70.6947 97.4475 70.6216 97.3733C70.5484 97.2992 70.4608 97.2408 70.3642 97.2018C70.2676 97.1629 70.164 97.1441 70.0598 97.1468C69.9556 97.1464 69.8523 97.1667 69.7558 97.2063C69.6594 97.246 69.5718 97.3043 69.4979 97.3779C69.4241 97.4515 69.3655 97.539 69.3256 97.6353C69.2856 97.7316 69.2651 97.8348 69.2651 97.9391C69.2651 98.0433 69.2858 98.1466 69.3258 98.2428C69.3659 98.3391 69.4245 98.4265 69.4984 98.5001C69.5723 98.5736 69.66 98.6318 69.7565 98.6714C69.8529 98.711 69.9562 98.7311 70.0605 98.7306C70.1646 98.733 70.2681 98.714 70.3646 98.6748C70.4612 98.6357 70.5486 98.5772 70.6217 98.5029C70.6947 98.4287 70.7518 98.3403 70.7894 98.2432C70.827 98.146 70.8443 98.0422 70.8403 97.9382V97.9382ZM66.8117 81.7748C66.708 81.7733 66.6051 81.7925 66.5089 81.8312C66.4128 81.8698 66.3253 81.9273 66.2515 82.0001C66.1777 82.0729 66.1192 82.1597 66.0792 82.2553C66.0393 82.351 66.0188 82.4536 66.0189 82.5573C66.0179 82.6616 66.0375 82.7652 66.0766 82.8619C66.1158 82.9587 66.1737 83.0467 66.247 83.121C66.3203 83.1953 66.4077 83.2543 66.5039 83.2946C66.6001 83.335 66.7034 83.3559 66.8078 83.3562C66.9122 83.3564 67.0156 83.336 67.112 83.2962C67.2085 83.2563 67.2961 83.1977 67.3698 83.1238C67.4435 83.0499 67.5018 82.9622 67.5415 82.8656C67.5811 82.7691 67.6012 82.6656 67.6007 82.5613C67.6011 82.4577 67.5809 82.355 67.5414 82.2592C67.5018 82.1635 67.4437 82.0765 67.3703 82.0034C67.2969 81.9302 67.2098 81.8724 67.1139 81.8331C67.018 81.7939 66.9153 81.774 66.8117 81.7748V81.7748ZM87.0869 101.183C87.0875 101.08 87.0675 100.977 87.0282 100.881C86.9889 100.786 86.931 100.698 86.8578 100.625C86.7846 100.552 86.6977 100.494 86.6019 100.454C86.5062 100.415 86.4035 100.395 86.3 100.395C86.0903 100.394 85.8888 100.476 85.7398 100.624C85.5907 100.771 85.5063 100.972 85.505 101.182C85.5038 101.391 85.5859 101.593 85.7332 101.742C85.8805 101.891 86.081 101.976 86.2906 101.977C86.3954 101.979 86.4994 101.959 86.5966 101.92C86.6937 101.881 86.782 101.822 86.8562 101.748C86.9304 101.674 86.989 101.586 87.0286 101.489C87.0683 101.392 87.0881 101.288 87.0869 101.183V101.183ZM86.307 63.1543C86.2033 63.1513 86.1 63.169 86.0033 63.2065C85.9065 63.244 85.8182 63.3005 85.7437 63.3727C85.6691 63.4448 85.6097 63.5312 85.569 63.6266C85.5283 63.7221 85.5072 63.8247 85.5068 63.9285C85.5049 64.0329 85.5237 64.1366 85.5621 64.2337C85.6005 64.3308 85.6577 64.4193 85.7305 64.4941C85.8033 64.569 85.8901 64.6287 85.9861 64.6698C86.0821 64.7109 86.1852 64.7326 86.2896 64.7336C86.394 64.7346 86.4976 64.715 86.5944 64.6758C86.6911 64.6366 86.7792 64.5786 86.8534 64.5052C86.9276 64.4318 86.9866 64.3444 87.0269 64.2481C87.0672 64.1518 87.0881 64.0485 87.0882 63.9441C87.0899 63.8406 87.0709 63.7379 87.0323 63.6418C86.9938 63.5458 86.9364 63.4585 86.8637 63.3849C86.7909 63.3114 86.7042 63.2531 86.6086 63.2135C86.513 63.1739 86.4105 63.1538 86.307 63.1543V63.1543ZM102.854 98.4106C102.958 98.4133 103.061 98.395 103.158 98.3569C103.255 98.3188 103.343 98.2616 103.417 98.1888C103.492 98.116 103.551 98.0291 103.591 97.9331C103.631 97.8371 103.651 97.734 103.65 97.63C103.652 97.5256 103.633 97.422 103.594 97.325C103.555 97.228 103.498 97.1397 103.425 97.065C103.352 96.9903 103.265 96.9308 103.169 96.8899C103.073 96.8491 102.97 96.8276 102.865 96.8267C102.761 96.8259 102.657 96.8457 102.561 96.8851C102.464 96.9244 102.376 96.9825 102.302 97.056C102.228 97.1295 102.169 97.2169 102.129 97.3133C102.088 97.4096 102.068 97.5129 102.067 97.6173C102.065 97.7216 102.084 97.8251 102.123 97.9219C102.161 98.0187 102.219 98.1068 102.292 98.1808C102.366 98.2548 102.453 98.3133 102.55 98.3528C102.646 98.3923 102.75 98.4119 102.854 98.4106V98.4106ZM94.0896 66.4465C94.1936 66.4469 94.2966 66.4267 94.3928 66.3871C94.489 66.3474 94.5763 66.2891 94.6498 66.2156C94.7233 66.142 94.7816 66.0546 94.8211 65.9584C94.8607 65.8622 94.8808 65.7591 94.8803 65.6551C94.8798 65.5511 94.8588 65.4482 94.8183 65.3524C94.7779 65.2566 94.7188 65.1697 94.6447 65.0968C94.5705 65.0239 94.4826 64.9665 94.3861 64.9277C94.2895 64.889 94.1863 64.8697 94.0823 64.8711C93.9779 64.8695 93.8743 64.8892 93.7776 64.9288C93.681 64.9684 93.5934 65.0272 93.5202 65.1016C93.4469 65.176 93.3895 65.2645 93.3514 65.3617C93.3133 65.459 93.2953 65.5629 93.2984 65.6673C93.2963 65.7712 93.3155 65.8745 93.3546 65.9707C93.3938 66.067 93.4522 66.1543 93.5262 66.2272C93.6003 66.3002 93.6884 66.3572 93.7853 66.3949C93.8822 66.4326 93.9857 66.4502 94.0896 66.4465V66.4465ZM70.337 67.7689C70.3397 67.6648 70.3218 67.5612 70.2842 67.4641C70.2466 67.367 70.1901 67.2783 70.118 67.2031C70.0459 67.128 69.9597 67.0679 69.8642 67.0263C69.7687 66.9847 69.6659 66.9624 69.5618 66.9608C69.4577 66.9592 69.3543 66.9783 69.2576 67.0169C69.1609 67.0555 69.0728 67.1129 68.9984 67.1858C68.924 67.2587 68.8648 67.3456 68.8243 67.4416C68.7837 67.5375 68.7625 67.6405 68.762 67.7446C68.7604 67.8484 68.7793 67.9515 68.8176 68.0479C68.856 68.1444 68.9131 68.2323 68.9856 68.3065C69.0581 68.3808 69.1446 68.44 69.2401 68.4807C69.3355 68.5214 69.4381 68.5428 69.5419 68.5436C69.6452 68.5458 69.748 68.5275 69.8441 68.4896C69.9403 68.4517 70.0279 68.395 70.1019 68.3229C70.1759 68.2508 70.2348 68.1647 70.2752 68.0696C70.3156 67.9744 70.3366 67.8722 70.337 67.7689V67.7689ZM106.573 82.5592C106.571 82.4031 106.524 82.251 106.436 82.1222C106.348 81.9933 106.223 81.8934 106.079 81.8352C105.934 81.777 105.775 81.763 105.622 81.7951C105.47 81.8272 105.33 81.9039 105.221 82.0155C105.112 82.127 105.038 82.2685 105.009 82.4219C104.981 82.5752 104.998 82.7337 105.06 82.8771C105.121 83.0205 105.224 83.1425 105.355 83.2276C105.486 83.3126 105.639 83.3569 105.795 83.3549C105.898 83.3543 106.001 83.3332 106.096 83.2928C106.191 83.2524 106.277 83.1935 106.35 83.1194C106.422 83.0454 106.479 82.9578 106.517 82.8616C106.556 82.7654 106.574 82.6626 106.573 82.5591V82.5592ZM102.255 68.5148C102.253 68.7244 102.335 68.9258 102.483 69.0749C102.63 69.2241 102.83 69.3087 103.04 69.3102C103.249 69.3116 103.451 69.2299 103.6 69.0829C103.749 68.9358 103.834 68.7356 103.836 68.526C103.837 68.4219 103.818 68.3186 103.779 68.2221C103.74 68.1255 103.682 68.0375 103.609 67.9632C103.537 67.8889 103.45 67.8298 103.354 67.7892C103.258 67.7485 103.155 67.7272 103.051 67.7265C102.947 67.7258 102.844 67.7456 102.747 67.7849C102.651 67.8241 102.563 67.882 102.489 67.9553C102.415 68.0285 102.356 68.1157 102.316 68.2117C102.276 68.3077 102.255 68.4107 102.255 68.5148ZM78.3201 67.0868C78.3207 66.995 78.2849 66.9067 78.2205 66.8412C78.1562 66.7757 78.0685 66.7383 77.9767 66.7373C77.885 66.7402 77.798 66.7781 77.7334 66.8431C77.6688 66.9081 77.6314 66.9954 77.6291 67.087C77.6289 67.1788 77.6642 67.267 77.7276 67.3333C77.791 67.3996 77.8776 67.4388 77.9693 67.4427C78.0159 67.4433 78.0622 67.4345 78.1054 67.4168C78.1486 67.399 78.1878 67.3728 78.2205 67.3395C78.2533 67.3063 78.279 67.2668 78.2961 67.2233C78.3132 67.1799 78.3214 67.1335 78.3201 67.0868V67.0868ZM89.7418 67.5203C89.7432 67.6118 89.7808 67.699 89.8462 67.7629C89.9116 67.8268 89.9997 67.8623 90.0912 67.8616C90.1827 67.8576 90.269 67.8184 90.3323 67.7522C90.3956 67.6861 90.4309 67.598 90.4309 67.5064C90.4309 67.4146 90.3946 67.3264 90.3297 67.2613C90.2649 67.1962 90.1769 67.1595 90.0851 67.1592C90.0382 67.1583 89.9917 67.1671 89.9484 67.1852C89.9052 67.2032 89.8661 67.2301 89.8339 67.2641C89.8016 67.2981 89.7767 67.3384 89.7609 67.3825C89.745 67.4266 89.7385 67.4735 89.7418 67.5203H89.7418ZM88.4854 96.5264C88.4818 96.5731 88.4879 96.6201 88.5034 96.6644C88.519 96.7086 88.5435 96.7491 88.5756 96.7833C88.6076 96.8176 88.6465 96.8447 88.6896 96.8631C88.7327 96.8815 88.7792 96.8907 88.8261 96.8901C88.9181 96.8902 89.0064 96.854 89.0719 96.7893C89.1373 96.7246 89.1746 96.6367 89.1756 96.5447C89.1765 96.4531 89.1418 96.3647 89.0788 96.2982C89.0158 96.2317 88.9294 96.1923 88.8379 96.1883C88.7464 96.1868 88.6581 96.2215 88.592 96.2848C88.526 96.3481 88.4877 96.435 88.4854 96.5264V96.5264ZM80.1971 97.3535C80.1286 97.3534 80.0617 97.3737 80.0047 97.4116C79.9477 97.4496 79.9032 97.5036 79.8769 97.5668C79.8505 97.63 79.8435 97.6996 79.8567 97.7668C79.8699 97.834 79.9026 97.8958 79.9509 97.9444C79.9992 97.993 80.0607 98.0262 80.1278 98.0398C80.195 98.0535 80.2646 98.0469 80.328 98.021C80.3914 97.9951 80.4457 97.951 80.484 97.8943C80.5224 97.8375 80.5431 97.7707 80.5435 97.7022C80.5423 97.6105 80.5055 97.5229 80.4409 97.4578C80.3762 97.3927 80.2888 97.3553 80.1971 97.3535V97.3535ZM83.2323 100.027C83.2306 99.9583 83.2086 99.892 83.1692 99.8361C83.1298 99.7802 83.0747 99.7372 83.0109 99.7126C82.9471 99.688 82.8774 99.6828 82.8107 99.6977C82.7439 99.7126 82.6831 99.7469 82.6358 99.7964C82.5886 99.8458 82.557 99.9082 82.5452 99.9755C82.5333 100.043 82.5416 100.112 82.5691 100.175C82.5966 100.237 82.642 100.291 82.6997 100.327C82.7573 100.364 82.8245 100.383 82.8929 100.382C82.9845 100.378 83.0711 100.339 83.1344 100.273C83.1977 100.207 83.2328 100.118 83.2323 100.027V100.027ZM104.726 85.2182C104.727 85.1243 104.69 85.0339 104.624 84.9665C104.559 84.8992 104.47 84.8601 104.376 84.8577C104.284 84.8605 104.197 84.8991 104.134 84.9651C104.07 85.0311 104.035 85.1193 104.035 85.211C104.034 85.3024 104.069 85.3906 104.133 85.4561C104.197 85.5217 104.284 85.5593 104.376 85.5608C104.467 85.5608 104.555 85.5249 104.621 85.4609C104.686 85.3969 104.724 85.3098 104.726 85.2182V85.2182ZM96.11 99.4484C96.0185 99.4487 95.9305 99.484 95.8643 99.5473C95.7981 99.6105 95.7587 99.6967 95.7542 99.7882C95.7537 99.8813 95.79 99.9708 95.8553 100.037C95.9207 100.104 96.0096 100.141 96.1027 100.142C96.1958 100.143 96.2855 100.107 96.3522 100.042C96.4188 99.9771 96.4569 99.8883 96.4582 99.7952C96.4557 99.7038 96.4181 99.6169 96.3533 99.5523C96.2885 99.4878 96.2015 99.4506 96.11 99.4484V99.4484ZM81.7824 65.6604C81.7829 65.6151 81.7744 65.5701 81.7575 65.5281C81.7405 65.486 81.7154 65.4478 81.6837 65.4155C81.6519 65.3832 81.614 65.3575 81.5723 65.3399C81.5305 65.3223 81.4857 65.3131 81.4404 65.3129C81.3938 65.3137 81.3479 65.3238 81.3053 65.3424C81.2627 65.3611 81.2242 65.3881 81.1921 65.4217C81.1599 65.4554 81.1348 65.4951 81.1181 65.5385C81.1013 65.5819 81.0934 65.6282 81.0947 65.6747C81.0966 65.7643 81.133 65.8497 81.1964 65.913C81.2598 65.9763 81.3452 66.0127 81.4348 66.0145C81.4815 66.0164 81.5281 66.0085 81.5715 65.9912C81.615 65.974 81.6543 65.9479 81.6871 65.9145C81.7198 65.8812 81.7452 65.8413 81.7616 65.7975C81.7781 65.7538 81.7851 65.707 81.7824 65.6604V65.6604ZM70.2528 86.6616C70.2555 86.5705 70.2222 86.482 70.1601 86.4153C70.098 86.3486 70.0121 86.309 69.9211 86.3051C69.8752 86.3044 69.8295 86.3128 69.7868 86.3297C69.7441 86.3466 69.7052 86.3718 69.6722 86.4038C69.6392 86.4358 69.6128 86.4739 69.5946 86.5161C69.5764 86.5583 69.5666 86.6036 69.5659 86.6495C69.5652 86.6955 69.5736 86.7411 69.5905 86.7838C69.6074 86.8265 69.6326 86.8655 69.6646 86.8984C69.6965 86.9314 69.7347 86.9578 69.7769 86.976C69.819 86.9942 69.8644 87.004 69.9103 87.0047C69.9558 87.0065 70.0012 86.9989 70.0437 86.9823C70.0861 86.9657 70.1246 86.9405 70.1568 86.9082C70.189 86.876 70.2142 86.8374 70.2307 86.795C70.2472 86.7525 70.2547 86.7071 70.2528 86.6616V86.6616ZM66.7381 91.6525C66.7352 91.7436 66.7682 91.8321 66.83 91.899C66.8918 91.9659 66.9775 92.0058 67.0685 92.01C67.1146 92.0112 67.1605 92.0032 67.2035 91.9866C67.2465 91.9699 67.2858 91.9449 67.3191 91.9131C67.3524 91.8812 67.3791 91.843 67.3976 91.8008C67.4161 91.7585 67.4261 91.713 67.427 91.6669C67.4279 91.6208 67.4196 91.575 67.4027 91.5321C67.3858 91.4892 67.3606 91.45 67.3285 91.4169C67.2964 91.3838 67.2581 91.3573 67.2157 91.3391C67.1734 91.3208 67.1279 91.3111 67.0817 91.3105C67.0362 91.3085 66.9908 91.316 66.9483 91.3325C66.9058 91.3489 66.8672 91.374 66.8349 91.4062C66.8026 91.4383 66.7773 91.4768 66.7607 91.5192C66.744 91.5616 66.7363 91.607 66.7381 91.6525H66.7381ZM103.724 76.9326C103.725 76.8638 103.704 76.7964 103.666 76.7391C103.628 76.6818 103.574 76.6371 103.51 76.6108C103.447 76.5846 103.377 76.5779 103.309 76.5915C103.242 76.6052 103.18 76.6387 103.131 76.6877C103.083 76.7367 103.05 76.799 103.038 76.8667C103.025 76.9343 103.033 77.0042 103.06 77.0675C103.087 77.1308 103.132 77.1845 103.19 77.2219C103.248 77.2592 103.315 77.2785 103.384 77.2773C103.43 77.2786 103.475 77.2706 103.517 77.2536C103.559 77.2367 103.597 77.2113 103.629 77.179C103.661 77.1466 103.686 77.1081 103.702 77.0657C103.719 77.0233 103.726 76.978 103.724 76.9326V76.9326ZM91.8462 97.8906C91.7549 97.8923 91.6676 97.928 91.6012 97.9906C91.5347 98.0533 91.4941 98.1384 91.487 98.2295C91.4868 98.3211 91.5213 98.4094 91.5834 98.4767C91.6456 98.544 91.7309 98.5854 91.8223 98.5924C91.9136 98.5917 92.0014 98.5573 92.0689 98.4957C92.1363 98.4341 92.1786 98.3497 92.1875 98.2588C92.19 98.165 92.1557 98.074 92.0919 98.0052C92.0281 97.9363 91.94 97.8952 91.8462 97.8906H91.8462ZM69.5579 78.1921C69.5568 78.2374 69.5651 78.2824 69.5821 78.3244C69.5991 78.3664 69.6245 78.4045 69.6567 78.4363C69.689 78.4681 69.7274 78.493 69.7696 78.5095C69.8118 78.5259 69.8569 78.5335 69.9022 78.5319C69.9481 78.5316 69.9934 78.5221 70.0355 78.5042C70.0777 78.4862 70.1159 78.46 70.1479 78.4271C70.1798 78.3943 70.2049 78.3554 70.2218 78.3128C70.2386 78.2701 70.2468 78.2246 70.2459 78.1787C70.2449 78.1329 70.2349 78.0877 70.2164 78.0458C70.1979 78.0039 70.1712 77.966 70.1379 77.9345C70.1047 77.9029 70.0655 77.8783 70.0226 77.862C69.9798 77.8458 69.9341 77.8382 69.8883 77.8397C69.8429 77.8395 69.798 77.8486 69.7564 77.8665C69.7147 77.8844 69.6772 77.9107 69.6462 77.9438C69.6152 77.9769 69.5913 78.016 69.5761 78.0587C69.5609 78.1014 69.5547 78.1468 69.5579 78.1921V78.1921ZM102.83 80.7018C102.828 80.6104 102.79 80.5235 102.725 80.4596C102.659 80.3957 102.572 80.3597 102.48 80.3593C102.411 80.3597 102.344 80.3806 102.287 80.4193C102.23 80.4581 102.185 80.5129 102.159 80.5769C102.134 80.6409 102.127 80.7111 102.141 80.7787C102.156 80.8462 102.189 80.9081 102.239 80.9563C102.288 81.0046 102.351 81.0371 102.418 81.0497C102.486 81.0624 102.556 81.0545 102.62 81.0273C102.683 81 102.737 80.9545 102.775 80.8965C102.812 80.8386 102.831 80.7708 102.83 80.7018ZM98.1393 66.8635C98.2307 66.8633 98.3183 66.827 98.383 66.7625C98.4478 66.6981 98.4844 66.6106 98.485 66.5193C98.4855 66.4279 98.45 66.34 98.3861 66.2747C98.3221 66.2094 98.235 66.1721 98.1436 66.1707C98.0976 66.1696 98.0519 66.1777 98.0091 66.1945C97.9662 66.2113 97.9272 66.2364 97.8941 66.2684C97.8611 66.3005 97.8348 66.3388 97.8168 66.3811C97.7987 66.4234 97.7893 66.4689 97.789 66.5149C97.7887 66.5609 97.7976 66.6065 97.8151 66.649C97.8326 66.6916 97.8584 66.7302 97.8911 66.7626C97.9237 66.7951 97.9624 66.8207 98.005 66.838C98.0477 66.8554 98.0933 66.864 98.1393 66.8635V66.8635ZM102.36 88.3216C102.359 88.3671 102.367 88.4122 102.384 88.4544C102.401 88.4965 102.427 88.5346 102.459 88.5664C102.492 88.5982 102.531 88.623 102.573 88.6392C102.616 88.6554 102.661 88.6627 102.706 88.6607C102.752 88.6603 102.797 88.6509 102.838 88.6331C102.88 88.6152 102.918 88.5893 102.95 88.5567C102.982 88.5241 103.007 88.4856 103.023 88.4433C103.04 88.401 103.048 88.3559 103.047 88.3104C103.047 88.265 103.038 88.2201 103.02 88.1784C103.002 88.1367 102.976 88.099 102.943 88.0675C102.91 88.0361 102.872 88.0115 102.829 87.9952C102.787 87.9789 102.742 87.9713 102.696 87.9728C102.651 87.9718 102.605 87.9802 102.563 87.9975C102.521 88.0149 102.483 88.0407 102.452 88.0735C102.42 88.1063 102.395 88.1452 102.38 88.188C102.364 88.2307 102.357 88.2762 102.36 88.3216V88.3216Z" fill="#024D81"/>
<path d="M85.0598 85.8127H81.6272L81.0276 87.7538H78.3516L82.1623 77.3633H84.5176L88.3569 87.7538H85.6664L85.0598 85.8127ZM82.2267 83.8788H84.4603L83.34 80.2749L82.2267 83.8788Z" fill="white"/>
<path d="M92.658 87.7538H90.1602V77.3633H92.658V87.7538Z" fill="white"/>
<path d="M70.0531 99.0073C70.6434 99.0073 71.1219 98.5289 71.1219 97.9386C71.1219 97.3484 70.6434 96.8699 70.0531 96.8699C69.4629 96.8699 68.9844 97.3484 68.9844 97.9386C68.9844 98.5289 69.4629 99.0073 70.0531 99.0073Z" fill="#024D81"/>
<path d="M105.786 83.6182C106.376 83.6182 106.854 83.1397 106.854 82.5494C106.854 81.9592 106.376 81.4807 105.786 81.4807C105.195 81.4807 104.717 81.9592 104.717 82.5494C104.717 83.1397 105.195 83.6182 105.786 83.6182Z" fill="#024D81"/>
<path d="M86.3031 65.0125C86.8934 65.0125 87.3719 64.534 87.3719 63.9437C87.3719 63.3535 86.8934 62.875 86.3031 62.875C85.7129 62.875 85.2344 63.3535 85.2344 63.9437C85.2344 64.534 85.7129 65.0125 86.3031 65.0125Z" fill="#024D81"/>
<defs>
<filter id="filter0_d_1837_1422" x="0.142578" y="0.14209" width="173.137" height="173.137" filterUnits="userSpaceOnUse" color-interpolation-filters="sRGB">
<feFlood flood-opacity="0" result="BackgroundImageFix"/>
<feColorMatrix in="SourceAlpha" type="matrix" values="0 0 0 0 0 0 0 0 0 0 0 0 0 0 0 0 0 0 127 0" result="hardAlpha"/>
<feOffset/>
<feGaussianBlur stdDeviation="10"/>
<feComposite in2="hardAlpha" operator="out"/>
<feColorMatrix type="matrix" values="0 0 0 0 0 0 0 0 0 0 0 0 0 0 0 0 0 0 0.1 0"/>
<feBlend mode="normal" in2="BackgroundImageFix" result="effect1_dropShadow_1837_1422"/>
<feBlend mode="normal" in="SourceGraphic" in2="effect1_dropShadow_1837_1422" result="shape"/>
</filter>
</defs>
</svg>
