<svg width="101" height="105" viewBox="0 0 101 105" fill="none" xmlns="http://www.w3.org/2000/svg">
<g clip-path="url(#clip0_1158_259)">
<path d="M93.4017 48.3448V48.5298C93.7377 49.3784 94.359 50.0833 95.1588 50.523C95.9586 50.9628 96.8867 51.1098 97.7832 50.9388C98.6797 50.7678 99.4886 50.2895 100.07 49.5863C100.652 48.8831 100.97 47.999 100.97 47.0863C100.97 46.1736 100.652 45.2895 100.07 44.5862C99.4886 43.883 98.6797 43.4047 97.7832 43.2337C96.8867 43.0627 95.9586 43.2098 95.1588 43.6495C94.359 44.0892 93.7377 44.7941 93.4017 45.6428V45.8278H75.3828V37.5368H86.9827C87.147 37.5368 87.3097 37.5044 87.4615 37.4415C87.6133 37.3787 87.7512 37.2865 87.8673 37.1704C87.9835 37.0542 88.0757 36.9163 88.1385 36.7645C88.2014 36.6127 88.2337 36.4501 88.2337 36.2858V25.6938H93.4068V25.8788C93.6942 26.6023 94.1896 27.2243 94.8304 27.6663C95.4713 28.1083 96.2288 28.3503 97.0072 28.3619C97.7856 28.3734 98.5499 28.154 99.2036 27.7312C99.8573 27.3085 100.371 26.7014 100.68 25.9868C100.879 25.5118 100.982 25.0019 100.982 24.4868C100.982 23.9717 100.879 23.4617 100.68 22.9868C100.389 22.2536 99.8845 21.6248 99.232 21.1817C98.5795 20.7386 97.809 20.5017 97.0202 20.5017C96.2315 20.5017 95.461 20.7386 94.8085 21.1817C94.156 21.6248 93.6516 22.2536 93.3607 22.9868V23.1718H86.9788C86.647 23.1718 86.3288 23.3036 86.0942 23.5382C85.8596 23.7728 85.7278 24.091 85.7278 24.4228V35.0348H75.3828V26.8048C75.3828 26.473 75.251 26.1548 75.0163 25.9202C74.7817 25.6856 74.4635 25.5538 74.1317 25.5538H65.9017V15.2198H76.5098C76.6781 15.2264 76.8461 15.1989 77.0035 15.139C77.161 15.0791 77.3048 14.988 77.4262 14.8711C77.5476 14.7543 77.6441 14.6142 77.7101 14.4591C77.776 14.304 77.8099 14.1373 77.8097 13.9688V7.59677H78.0098C78.8614 7.25937 79.5688 6.63553 80.01 5.83269C80.4513 5.02985 80.5987 4.09827 80.4269 3.19843C80.2552 2.29858 79.775 1.48679 79.0691 0.902882C78.3633 0.318977 77.4758 -0.000488281 76.5597 -0.000488281C75.6437 -0.000488281 74.7562 0.318977 74.0504 0.902882C73.3445 1.48679 72.8643 2.29858 72.6926 3.19843C72.5208 4.09827 72.6682 5.02985 73.1095 5.83269C73.5507 6.63553 74.2581 7.25937 75.1097 7.59677H75.3097V12.7078H64.6507C64.3189 12.7158 64.0031 12.8522 63.7698 13.0883C63.5364 13.3244 63.4038 13.6418 63.3997 13.9738V25.5548H48.4688V28.0548H72.8807V76.8948H48.4688V79.3948H63.3997V90.9768C63.4036 91.3073 63.5367 91.6233 63.7705 91.8571C64.0042 92.0908 64.3202 92.2239 64.6507 92.2278H75.2588V97.4008H75.0588C74.3348 97.6877 73.7122 98.1829 73.2697 98.8236C72.8272 99.4644 72.5846 100.222 72.5728 101.001C72.5609 101.779 72.7802 102.544 73.2029 103.198C73.6256 103.852 74.2328 104.366 74.9477 104.675C75.6625 104.984 76.4529 105.074 77.2189 104.933C77.9849 104.793 78.6921 104.429 79.2509 103.886C79.8098 103.344 80.1953 102.648 80.3587 101.887C80.5221 101.125 80.456 100.333 80.1688 99.6088C79.9684 99.111 79.6695 98.6589 79.2901 98.2794C78.9107 97.9 78.4585 97.6012 77.9608 97.4008H77.7607V90.9768C77.7608 90.6436 77.6295 90.3238 77.3953 90.0868C77.1611 89.8498 76.8429 89.7147 76.5098 89.7108H65.9017V79.3968H74.1317C74.4635 79.3968 74.7817 79.265 75.0163 79.0304C75.251 78.7957 75.3828 78.4776 75.3828 78.1458V69.9198H85.7278V80.5198C85.7278 80.8516 85.8596 81.1697 86.0942 81.4044C86.3288 81.639 86.647 81.7708 86.9788 81.7708H93.4017V81.9708C93.7391 82.8225 94.363 83.5298 95.1658 83.9711C95.9687 84.4123 96.9002 84.5597 97.8001 84.388C98.6999 84.2162 99.5117 83.7361 100.096 83.0302C100.68 82.3243 100.999 81.4369 100.999 80.5208C100.999 79.6047 100.68 78.7173 100.096 78.0114C99.5117 77.3055 98.6999 76.8253 97.8001 76.6536C96.9002 76.4818 95.9687 76.6293 95.1658 77.0705C94.363 77.5117 93.7391 78.2191 93.4017 79.0708V79.2708H88.2298V68.6658C88.2298 68.334 88.098 68.0158 87.8633 67.7812C87.6287 67.5466 87.3105 67.4148 86.9788 67.4148H75.3787V59.1198H93.3988V59.3198C93.6861 60.0423 94.1812 60.6633 94.8215 61.1046C95.4617 61.5458 96.2183 61.7873 96.9958 61.7987C97.7733 61.81 98.5367 61.5907 99.1895 61.1684C99.8424 60.746 100.355 60.1397 100.664 59.4259C100.972 58.7121 101.062 57.9229 100.922 57.1581C100.782 56.3932 100.418 55.687 99.8773 55.1287C99.3361 54.5704 98.6416 54.185 97.8815 54.0213C97.1214 53.8576 96.3298 53.9228 95.6068 54.2088C95.1093 54.4098 94.6575 54.7093 94.2786 55.0892C93.8997 55.4692 93.6015 55.9217 93.4017 56.4198V56.6198H75.3828V48.3448H93.4017ZM97.1227 45.6578C97.408 45.6548 97.6877 45.7369 97.9261 45.8935C98.1646 46.0502 98.3509 46.2743 98.4615 46.5373C98.572 46.8003 98.6017 47.0902 98.5468 47.3702C98.4919 47.6501 98.3548 47.9074 98.1531 48.1091C97.9513 48.3108 97.6941 48.4479 97.4142 48.5028C97.1342 48.5577 96.8443 48.528 96.5813 48.4175C96.3183 48.307 96.0941 48.1206 95.9375 47.8822C95.7809 47.6437 95.6988 47.364 95.7018 47.0788C95.7057 46.7031 95.8566 46.3439 96.1223 46.0783C96.3879 45.8126 96.7471 45.6617 97.1227 45.6578ZM97.1227 23.0058C97.1187 22.6345 96.9678 22.28 96.7031 22.0196C96.4384 21.7592 96.0814 21.6142 95.7101 21.6163C95.3388 21.6183 94.9834 21.7673 94.7216 22.0305C94.4598 22.2938 94.3128 22.65 94.3128 23.0213C94.3128 23.3926 94.4598 23.7487 94.7216 24.012C94.9834 24.2753 95.3388 24.4242 95.7101 24.4262C96.0814 24.4283 96.4384 24.2833 96.7031 24.0229C96.9678 23.7626 97.1187 23.408 97.1227 23.0368V23.0058ZM75.0887 3.81377C75.0887 3.53272 75.1721 3.25798 75.3282 3.0243C75.4844 2.79062 75.7063 2.60849 75.966 2.50093C76.2256 2.39338 76.5113 2.36524 76.787 2.42007C77.0626 2.4749 77.3158 2.61024 77.5145 2.80897C77.7133 3.0077 77.8486 3.2609 77.9034 3.53654C77.9583 3.81219 77.9301 4.09791 77.8226 4.35756C77.715 4.61721 77.5329 4.83914 77.2992 4.99529C77.0655 5.15143 76.7908 5.23477 76.5098 5.23477C76.1329 5.23477 75.7714 5.08506 75.505 4.81857C75.2385 4.55208 75.0887 4.19064 75.0887 3.81377ZM76.5098 99.7138C76.7908 99.7138 77.0655 99.7971 77.2992 99.9533C77.5329 100.109 77.715 100.331 77.8226 100.591C77.9301 100.851 77.9583 101.136 77.9034 101.412C77.8486 101.688 77.7133 101.941 77.5145 102.14C77.3158 102.338 77.0626 102.474 76.787 102.528C76.5113 102.583 76.2256 102.555 75.966 102.448C75.7063 102.34 75.4844 102.158 75.3282 101.924C75.1721 101.691 75.0887 101.416 75.0887 101.135C75.0903 100.759 75.2407 100.399 75.5071 100.134C75.7734 99.8687 76.1339 99.7198 76.5098 99.7198V99.7138ZM97.1237 79.1038C97.405 79.1038 97.6799 79.1872 97.9137 79.3436C98.1475 79.5 98.3297 79.7222 98.4371 79.9821C98.5445 80.2421 98.5723 80.5281 98.5171 80.8038C98.4618 81.0796 98.326 81.3328 98.1268 81.5313C97.9275 81.7299 97.6739 81.8648 97.3979 81.9191C97.1219 81.9733 96.836 81.9445 96.5765 81.8362C96.3169 81.7278 96.0953 81.5449 95.9398 81.3106C95.7843 81.0763 95.7018 80.801 95.7028 80.5198C95.7067 80.1441 95.8576 79.7849 96.1233 79.5193C96.3889 79.2536 96.7481 79.1027 97.1237 79.0988V79.1038ZM97.1237 56.4518C97.4048 56.4518 97.6795 56.5351 97.9132 56.6912C98.1469 56.8474 98.329 57.0693 98.4366 57.329C98.5441 57.5886 98.5723 57.8743 98.5174 58.15C98.4626 58.4256 98.3273 58.6788 98.1285 58.8776C97.9298 59.0763 97.6766 59.2116 97.401 59.2665C97.1253 59.3213 96.8396 59.2931 96.58 59.1856C96.3203 59.078 96.0984 58.8959 95.9422 58.6622C95.7861 58.4285 95.7028 58.1538 95.7028 57.8728C95.7067 57.4971 95.8576 57.1379 96.1233 56.8723C96.3889 56.6066 96.7481 56.4557 97.1237 56.4518Z" fill="black"/>
<path d="M66.4856 33.584H48.8516V36.101H65.2346V68.867H48.8516V71.367H66.4856C66.8173 71.367 67.1355 71.2352 67.3702 71.0006C67.6048 70.766 67.7366 70.4478 67.7366 70.116V34.854C67.7366 34.5208 67.6053 34.201 67.3711 33.964C67.1369 33.7271 66.8187 33.5919 66.4856 33.588V33.584Z" fill="black"/>
<path d="M61.1905 54.476C60.8592 54.476 60.5414 54.3446 60.3069 54.1106C60.0724 53.8767 59.9402 53.5593 59.9395 53.228V44.409C59.9524 44.0861 60.0897 43.7808 60.3227 43.5569C60.5557 43.333 60.8663 43.208 61.1895 43.208C61.5126 43.208 61.8232 43.333 62.0562 43.5569C62.2892 43.7808 62.4265 44.0861 62.4395 44.409V53.228C62.4395 53.5598 62.3077 53.878 62.073 54.1126C61.8384 54.3472 61.5202 54.479 61.1885 54.479L61.1905 54.476Z" fill="black"/>
<path d="M50.3078 94.1742V18.5132H47.7288C45.6811 18.5132 43.7172 19.3266 42.2693 20.7746C40.8213 22.2226 40.0078 24.1864 40.0078 26.2342V30.8662H35.3758C33.3281 30.8662 31.3642 31.6796 29.9163 33.1276C28.4683 34.5756 27.6548 36.5394 27.6548 38.5872V49.7812H27.1448C25.0971 49.7812 23.1332 50.5946 21.6853 52.0426C20.2373 53.4906 19.4238 55.4544 19.4238 57.5022V76.9112C19.4238 77.9251 19.6235 78.9291 20.0116 79.8659C20.3996 80.8026 20.9683 81.6538 21.6853 82.3708C22.4022 83.0877 23.2534 83.6564 24.1901 84.0445C25.1269 84.4325 26.1309 84.6322 27.1448 84.6322H32.2868V94.1752C32.2868 96.2229 33.1003 98.1868 34.5483 99.6348C35.9962 101.083 37.9601 101.896 40.0078 101.896H42.5868C43.6008 101.896 44.6049 101.696 45.5418 101.308C46.4786 100.92 47.3298 100.351 48.0468 99.6344C48.7637 98.9173 49.3324 98.0661 49.7204 97.1292C50.1083 96.1923 50.308 95.1882 50.3078 94.1742V94.1742Z" fill="#69AAA6"/>
<path d="M42.849 103.052H32.55C30.1965 103.048 27.9406 102.111 26.2763 100.447C24.6121 98.7834 23.6752 96.5275 23.671 94.174V90.695H20.2C17.8465 90.6911 15.5906 89.7545 13.9263 88.0904C12.2621 86.4264 11.3252 84.1705 11.321 81.817V69.082H8.879C6.52553 69.0781 4.26958 68.1415 2.60533 66.4774C0.941084 64.8134 0.00423047 62.5575 0 60.204L0 40.641C0.00423047 38.2876 0.941084 36.0317 2.60533 34.3677C4.26958 32.7036 6.52553 31.767 8.879 31.763H11.319V23.146C11.3232 20.7922 12.2604 18.5361 13.925 16.872C15.5897 15.2078 17.8462 14.2715 20.2 14.268H23.674V10.795C23.6777 8.44175 24.6139 6.18584 26.2776 4.52143C27.9412 2.85702 30.1967 1.9198 32.55 1.91504H42.85C45.2036 1.91927 47.4596 2.85626 49.1237 4.52073C50.7878 6.18519 51.7243 8.4414 51.728 10.795V94.175C51.7238 96.5285 50.7869 98.7844 49.1227 100.448C47.4584 102.112 45.2025 103.049 42.849 103.053V103.052ZM8.879 34.078C7.13995 34.0823 5.47333 34.775 4.24363 36.0047C3.01393 37.2344 2.32122 38.901 2.317 40.64V60.204C2.32122 61.9431 3.01393 63.6097 4.24363 64.8394C5.47333 66.0691 7.13995 66.7618 8.879 66.766H12.479C12.6316 66.764 12.7831 66.7926 12.9245 66.8501C13.0659 66.9076 13.1944 66.9928 13.3023 67.1007C13.4103 67.2087 13.4955 67.3371 13.553 67.4785C13.6104 67.6199 13.639 67.7714 13.637 67.924V81.824C13.642 83.5627 14.3352 85.2287 15.565 86.4578C16.7949 87.6869 18.4613 88.3791 20.2 88.383H24.832C25.1391 88.383 25.4337 88.505 25.6508 88.7222C25.868 88.9394 25.99 89.2339 25.99 89.541V94.173C25.9942 95.9121 26.6869 97.5787 27.9166 98.8084C29.1463 100.038 30.8129 100.731 32.552 100.735H42.852C44.5911 100.731 46.2577 100.038 47.4874 98.8084C48.7171 97.5787 49.4098 95.9121 49.414 94.173V10.795C49.4098 9.05599 48.7171 7.38937 47.4874 6.15967C46.2577 4.92997 44.5911 4.23726 42.852 4.23304H32.55C30.8108 4.237 29.1439 4.92959 27.914 6.15932C26.6841 7.38905 25.9912 9.05581 25.987 10.795V15.427C25.987 15.5791 25.957 15.7297 25.8989 15.8702C25.8407 16.0107 25.7554 16.1383 25.6478 16.2459C25.5403 16.3534 25.4126 16.4387 25.2721 16.4969C25.1317 16.5551 24.9811 16.585 24.829 16.585H20.2C18.4609 16.5893 16.7943 17.282 15.5646 18.5117C14.3349 19.7414 13.6422 21.408 13.638 23.147V32.921C13.64 33.0737 13.6114 33.2252 13.554 33.3666C13.4965 33.508 13.4113 33.6364 13.3033 33.7444C13.1954 33.8523 13.0669 33.9375 12.9255 33.995C12.7841 34.0525 12.6326 34.0811 12.48 34.079L8.879 34.078Z" fill="black"/>
<path d="M24.574 90.699C24.2682 90.6949 23.976 90.5715 23.7598 90.3553C23.5435 90.139 23.4202 89.8468 23.416 89.541V78.47C23.416 78.1629 23.538 77.8683 23.7552 77.6512C23.9724 77.434 24.2669 77.312 24.574 77.312H36.927C37.2341 77.312 37.5287 77.434 37.7458 77.6512C37.963 77.8683 38.085 78.1629 38.085 78.47C38.085 78.7771 37.963 79.0717 37.7458 79.2888C37.5287 79.506 37.2341 79.628 36.927 79.628H25.732V89.541C25.732 89.8481 25.61 90.1427 25.3928 90.3598C25.1757 90.577 24.8811 90.699 24.574 90.699V90.699Z" fill="black"/>
<path d="M24.8294 69.0819H12.4764C12.1705 69.0777 11.8784 68.9544 11.6621 68.7381C11.4458 68.5219 11.3225 68.2297 11.3184 67.9239V59.9409C11.3184 59.6338 11.4404 59.3392 11.6575 59.122C11.8747 58.9049 12.1692 58.7829 12.4764 58.7829H16.5224C16.8295 58.7829 17.124 58.9049 17.3412 59.122C17.5584 59.3392 17.6804 59.6338 17.6804 59.9409C17.6804 60.248 17.5584 60.5425 17.3412 60.7597C17.124 60.9769 16.8295 61.0989 16.5224 61.0989H13.6344V66.7659H23.6714V55.3089C23.6714 55.0018 23.7934 54.7072 24.0105 54.49C24.2277 54.2729 24.5222 54.1509 24.8294 54.1509H33.2884C33.5955 54.1509 33.89 54.2729 34.1072 54.49C34.3244 54.7072 34.4464 55.0018 34.4464 55.3089C34.4464 55.616 34.3244 55.9105 34.1072 56.1277C33.89 56.3449 33.5955 56.4669 33.2884 56.4669H25.9884V67.9239C25.9884 68.076 25.9584 68.2267 25.9001 68.3673C25.8419 68.5078 25.7565 68.6355 25.6488 68.7431C25.5412 68.8506 25.4134 68.9359 25.2728 68.994C25.1322 69.0522 24.9815 69.082 24.8294 69.0819V69.0819Z" fill="black"/>
<path d="M20.6754 50.8322H12.4754C12.1697 50.8278 11.8778 50.7044 11.6618 50.4881C11.4457 50.2719 11.3225 49.9799 11.3184 49.6742V32.9202C11.3225 32.6144 11.4458 32.3222 11.6621 32.106C11.8784 31.8897 12.1705 31.7663 12.4764 31.7622H22.4824C22.7882 31.7663 23.0803 31.8897 23.2966 32.106C23.5129 32.3222 23.6362 32.6144 23.6404 32.9202V41.7992H28.6584C28.9655 41.7992 29.26 41.9212 29.4772 42.1384C29.6944 42.3555 29.8164 42.6501 29.8164 42.9572C29.8164 43.2643 29.6944 43.5589 29.4772 43.776C29.26 43.9932 28.9655 44.1152 28.6584 44.1152H22.4824C22.1752 44.1152 21.8807 43.9932 21.6635 43.776C21.4464 43.5589 21.3244 43.2643 21.3244 42.9572V34.0782H13.6034V48.4852H20.6444C20.9515 48.4852 21.246 48.6072 21.4632 48.8244C21.6804 49.0415 21.8024 49.3361 21.8024 49.6432C21.8024 49.9503 21.6804 50.2449 21.4632 50.462C21.246 50.6792 20.9515 50.8012 20.6444 50.8012L20.6754 50.8322Z" fill="black"/>
<path d="M33.5548 34.0791C33.4026 34.0792 33.2519 34.0493 33.1113 33.9912C32.9707 33.9331 32.8429 33.8478 32.7353 33.7402C32.6277 33.6327 32.5423 33.505 32.484 33.3644C32.4258 33.2239 32.3958 33.0732 32.3958 32.9211V26.8681H24.5838C24.2767 26.8681 23.9821 26.7461 23.765 26.5289C23.5478 26.3117 23.4258 26.0172 23.4258 25.7101V15.4261C23.4258 15.1189 23.5478 14.8244 23.765 14.6072C23.9821 14.3901 24.2767 14.2681 24.5838 14.2681C24.8909 14.2681 25.1854 14.3901 25.4026 14.6072C25.6198 14.8244 25.7418 15.1189 25.7418 15.4261V24.5831H33.5548C33.8606 24.5872 34.1528 24.7105 34.369 24.9268C34.5853 25.1431 34.7086 25.4352 34.7128 25.7411V32.9211C34.7128 33.0731 34.6828 33.2237 34.6246 33.3642C34.5664 33.5047 34.4811 33.6324 34.3736 33.7399C34.2661 33.8474 34.1384 33.9327 33.9979 33.9909C33.8574 34.0491 33.7069 34.0791 33.5548 34.0791Z" fill="black"/>
<path d="M38.3221 93.7882C38.0162 93.784 37.7241 93.6607 37.5078 93.4444C37.2915 93.2281 37.1682 92.936 37.1641 92.6302V86.9632C37.1682 86.6573 37.2915 86.3652 37.5078 86.1489C37.7241 85.9326 38.0162 85.8093 38.3221 85.8052H50.1651C50.4722 85.8052 50.7667 85.9272 50.9839 86.1443C51.2011 86.3615 51.3231 86.6561 51.3231 86.9632C51.3231 87.2703 51.2011 87.5648 50.9839 87.782C50.7667 87.9992 50.4722 88.1212 50.1651 88.1212H39.4801V92.6302C39.4801 92.9373 39.3581 93.2318 39.1409 93.449C38.9237 93.6662 38.6292 93.7882 38.3221 93.7882V93.7882Z" fill="black"/>
<path d="M50.1651 69.5918H38.3221C38.17 69.5918 38.0194 69.5619 37.8789 69.5037C37.7384 69.4455 37.6108 69.3602 37.5032 69.2527C37.3957 69.1451 37.3104 69.0175 37.2522 68.877C37.194 68.7365 37.1641 68.5859 37.1641 68.4338V61.7478C37.1641 61.4407 37.2861 61.1462 37.5032 60.929C37.7204 60.7118 38.0149 60.5898 38.3221 60.5898C38.6292 60.5898 38.9237 60.7118 39.1409 60.929C39.3581 61.1462 39.4801 61.4407 39.4801 61.7478V67.2758H50.1651C50.4722 67.2758 50.7667 67.3978 50.9839 67.615C51.2011 67.8322 51.3231 68.1267 51.3231 68.4338C51.3231 68.741 51.2011 69.0355 50.9839 69.2527C50.7667 69.4698 50.4722 69.5918 50.1651 69.5918V69.5918Z" fill="black"/>
<path d="M42.6385 47.7441C42.3326 47.74 42.0405 47.6167 41.8242 47.4004C41.6079 47.1841 41.4846 46.892 41.4805 46.5861V40.1311C41.4805 39.824 41.6025 39.5295 41.8196 39.3123C42.0368 39.0951 42.3313 38.9731 42.6385 38.9731H50.1385C50.4456 38.9731 50.7401 39.0951 50.9573 39.3123C51.1745 39.5295 51.2965 39.824 51.2965 40.1311C51.2965 40.4383 51.1745 40.7328 50.9573 40.95C50.7401 41.1671 50.4456 41.2891 50.1385 41.2891H43.7945V46.5531C43.799 46.8643 43.6798 47.1646 43.463 47.388C43.2463 47.6113 42.9497 47.7394 42.6385 47.7441Z" fill="black"/>
<path d="M36.4999 19.9502C36.1928 19.9502 35.8982 19.8282 35.6811 19.6111C35.4639 19.3939 35.3419 19.0993 35.3419 18.7922V13.8822C35.3399 13.7296 35.3685 13.5781 35.4259 13.4367C35.4834 13.2953 35.5686 13.1668 35.6766 13.0589C35.7845 12.951 35.913 12.8657 36.0544 12.8083C36.1958 12.7508 36.3473 12.7222 36.4999 12.7242H50.1789C50.486 12.7242 50.7806 12.8462 50.9977 13.0634C51.2149 13.2806 51.3369 13.5751 51.3369 13.8822C51.3369 14.1893 51.2149 14.4839 50.9977 14.7011C50.7806 14.9182 50.486 15.0402 50.1789 15.0402H37.6559V18.7612C37.6599 19.0721 37.5405 19.3718 37.3237 19.5947C37.107 19.8176 36.8107 19.9455 36.4999 19.9502V19.9502Z" fill="black"/>
<path d="M24.6446 79.629H19.4256C19.1185 79.629 18.8239 79.507 18.6067 79.2898C18.3896 79.0727 18.2676 78.7781 18.2676 78.471C18.2676 78.1639 18.3896 77.8693 18.6067 77.6522C18.8239 77.435 19.1185 77.313 19.4256 77.313H24.6446C24.9517 77.313 25.2462 77.435 25.4634 77.6522C25.6806 77.8693 25.8026 78.1639 25.8026 78.471C25.8026 78.7781 25.6806 79.0727 25.4634 79.2898C25.2462 79.507 24.9517 79.629 24.6446 79.629V79.629Z" fill="black"/>
<path d="M42.6717 41.2891C42.3658 41.285 42.0737 41.1617 41.8574 40.9454C41.6411 40.7291 41.5178 40.437 41.5137 40.1311V30.0481C41.5137 29.741 41.6357 29.4465 41.8528 29.2293C42.07 29.0121 42.3646 28.8901 42.6717 28.8901C42.9788 28.8901 43.2733 29.0121 43.4905 29.2293C43.7077 29.4465 43.8297 29.741 43.8297 30.0481V40.1311C43.8255 40.437 43.7022 40.7291 43.4859 40.9454C43.2696 41.1617 42.9775 41.285 42.6717 41.2891Z" fill="black"/>
</g>
<defs>
<clipPath id="clip0_1158_259">
<rect width="101" height="105" fill="white"/>
</clipPath>
</defs>
</svg>
