<svg width="95" height="105" viewBox="0 0 95 105" fill="none" xmlns="http://www.w3.org/2000/svg">
<g clip-path="url(#clip0_1158_91)">
<path d="M74.7297 103.804H45.7227C45.7218 103.794 45.7218 103.783 45.7227 103.773C45.7327 103.046 45.8017 99.1891 46.1977 94.6611C46.5977 90.0851 47.4267 83.8611 49.0907 80.2101C50.9393 76.5474 52.9949 72.993 55.2477 69.5641V69.5581L55.2837 69.5001L55.4967 69.1591C56.6591 69.1153 57.8186 69.0132 58.9707 68.8531V68.6531C62.2778 68.1955 65.5022 67.2664 68.5457 65.8941V65.8851C72.0674 64.293 75.3022 62.1306 78.1197 59.4851V20.6671H68.4487V27.0801H61.8597C61.0523 25.0644 60.0863 23.116 58.9707 21.2531V12.7531H52.2067C48.1303 8.81022 43.2839 5.75137 37.9707 3.7681C44.2249 1.43592 50.9493 0.646309 57.5736 1.46623C64.1979 2.28616 70.5269 4.69143 76.0237 8.4781C84.534 14.3213 90.5332 23.1536 92.8282 33.2185C95.1231 43.2833 93.5458 53.8433 88.4097 62.7981C87.1437 64.9771 85.7347 67.2271 84.3717 69.3981L84.3347 69.4571L84.3287 69.4671C82.051 72.9124 79.9862 76.4937 78.1457 80.1911C75.0297 87.0331 74.7397 103.112 74.7297 103.791V103.796V103.804Z" fill="#E87E70"/>
<path d="M74.9059 104.996H32.0799C31.7616 104.996 31.4564 104.87 31.2314 104.645C31.0063 104.42 30.8799 104.114 30.8799 103.796V94.5632C30.9207 94.0136 30.8387 93.4618 30.64 92.9478C30.4413 92.4338 30.1307 91.9704 29.7309 91.5912C29.3326 91.2135 28.8548 90.9297 28.3326 90.7607C27.8104 90.5916 27.257 90.5416 26.7129 90.6142C21.1859 90.6142 11.7769 89.7952 10.7389 84.3862C10.1124 79.4085 10.1124 74.3719 10.7389 69.3942C7.99698 68.2715 5.32926 66.9756 2.75188 65.5142C2.05924 65.1735 1.45326 64.6796 0.979907 64.0699C0.506551 63.4602 0.178244 62.7507 0.0198819 61.9952C-0.0536423 61.0137 0.077253 60.0277 0.404293 59.0994C0.731333 58.1711 1.2474 57.3208 1.91988 56.6022C8.71988 48.5772 10.3379 42.9592 10.5619 42.1562C10.5745 33.5045 13.2468 25.0658 18.2165 17.9838C23.1862 10.9018 30.213 5.51889 38.3447 2.56461C46.4765 -0.389659 55.3199 -0.77247 63.6765 1.46806C72.0331 3.70859 79.4988 8.46413 85.0619 15.0902C90.6275 21.738 94.0314 29.9262 94.8187 38.5604C95.6061 47.1946 93.7393 55.8634 89.4679 63.4082C88.1899 65.6232 86.7519 67.9182 85.3789 70.1492C83.1624 73.5155 81.1565 77.0159 79.3729 80.6302C76.3219 87.3872 76.1779 103.583 76.1779 103.743C76.1877 103.913 76.1611 104.083 76.0999 104.241C76.0386 104.4 75.9442 104.543 75.8229 104.662C75.7027 104.78 75.5587 104.871 75.4006 104.929C75.2424 104.986 75.0737 105.009 74.9059 104.996V104.996ZM33.2779 102.588H73.7399C73.8399 98.6072 74.3789 85.8792 77.1579 79.6992C78.993 75.9742 81.0483 72.3618 83.3129 68.8812C84.7029 66.6502 86.1399 64.3552 87.4019 62.1562C91.463 55.032 93.2463 46.8354 92.5123 38.6679C91.7783 30.5004 88.5621 22.7532 83.2959 16.4672C78.0315 10.2007 70.9632 5.7096 63.0539 3.60561C55.1447 1.50162 46.7792 1.88709 39.0969 4.70951C31.4147 7.53192 24.7894 12.654 20.1235 19.3781C15.4577 26.1021 12.9782 34.101 13.0229 42.2852C13.0307 42.3653 13.0307 42.446 13.0229 42.5262C13.0229 42.7832 11.6329 48.9462 3.85388 58.1602C2.98186 59.0863 2.49121 60.3072 2.47988 61.5792C2.58998 61.9838 2.79148 62.3578 3.06888 62.6723C3.34627 62.9868 3.69216 63.2334 4.07988 63.3932C6.83301 64.944 9.68824 66.3061 12.6259 67.4702C12.875 67.5716 13.0837 67.7524 13.2195 67.9846C13.3553 68.2168 13.4106 68.4873 13.3769 68.7542C13.3769 68.8542 12.1469 78.2722 13.2169 83.9062C13.6959 87.0522 20.7889 88.1432 26.7169 88.1432C27.5845 88.0661 28.4585 88.1782 29.2785 88.4717C30.0986 88.7652 30.8452 89.2331 31.4669 89.8432C32.0909 90.4543 32.576 91.1926 32.8892 92.0079C33.2024 92.8233 33.3363 93.6965 33.2819 94.5682L33.2779 102.588Z" fill="black"/>
<path d="M54.131 70.3949C52.4547 70.3926 50.7804 70.2796 49.119 70.0569C48.8301 70.0139 48.5665 69.8678 48.377 69.6456C48.1874 69.4233 48.0848 69.14 48.088 68.8479V12.7539C48.088 12.4333 48.2153 12.1258 48.4421 11.899C48.6688 11.6723 48.9763 11.5449 49.297 11.5449H58.966C59.2853 11.5491 59.5904 11.6778 59.8163 11.9036C60.0421 12.1295 60.1708 12.4346 60.175 12.7539V68.8539C60.1742 69.1475 60.0681 69.431 59.876 69.6529C59.6838 69.8748 59.4184 70.0203 59.128 70.0629C57.4705 70.2853 55.8002 70.3982 54.128 70.4009L54.131 70.3949ZM50.505 67.7849C52.9154 68.0428 55.3465 68.0428 57.757 67.7849V13.9949H50.505V67.7849Z" fill="black"/>
<path d="M58.8696 69.8801C58.7096 69.8846 58.5504 69.8565 58.4016 69.7973C58.2529 69.7382 58.1178 69.6493 58.0046 69.5361C57.8914 69.4229 57.8025 69.2878 57.7434 69.1391C57.6842 68.9904 57.6561 68.8311 57.6606 68.6711V27.0801C57.6606 26.7594 57.788 26.4519 58.0147 26.2252C58.2415 25.9985 58.549 25.8711 58.8696 25.8711H68.5386C68.858 25.8752 69.1631 26.0039 69.3889 26.2298C69.6148 26.4556 69.7435 26.7607 69.7476 27.0801V65.9001C69.7464 66.1355 69.6774 66.3656 69.5488 66.5628C69.4202 66.76 69.2376 66.916 69.0226 67.0121C65.8559 68.4359 62.5026 69.4016 59.0636 69.8801H58.8696ZM60.0776 28.3211V67.2691C62.5667 66.8158 64.9988 66.0918 67.3306 65.1101V28.3211H60.0776Z" fill="black"/>
<path d="M68.4415 67.1439C68.2068 67.147 67.9766 67.0798 67.7805 66.9509C67.6107 66.842 67.4714 66.6917 67.3755 66.5141C67.2797 66.3366 67.2305 66.1377 67.2325 65.9359V20.6699C67.2325 20.3493 67.3599 20.0418 67.5866 19.815C67.8133 19.5883 68.1208 19.4609 68.4415 19.4609H78.1105C78.4298 19.4651 78.735 19.5938 78.9608 19.8196C79.1866 20.0455 79.3153 20.3506 79.3195 20.6699V59.5219C79.3172 59.6856 79.2818 59.8471 79.2152 59.9966C79.1487 60.1462 79.0525 60.2807 78.9325 60.3919C75.9901 63.1512 72.608 65.4004 68.9255 67.0469C68.7728 67.1123 68.6085 67.1463 68.4425 67.1469L68.4415 67.1439ZM69.6495 21.9109V64.0179C72.27 62.6553 74.7071 60.9658 76.9025 58.9899V21.9269L69.6495 21.9109Z" fill="black"/>
<path d="M49.3809 69.863H49.2199C45.77 69.3874 42.4057 68.4217 39.2289 66.995C39.014 66.8989 38.8313 66.7429 38.7027 66.5457C38.5741 66.3485 38.5051 66.1184 38.5039 65.883V31.897C38.5081 31.5776 38.6368 31.2725 38.8626 31.0467C39.0884 30.8208 39.3935 30.6921 39.7129 30.688H49.3809C49.5397 30.688 49.6969 30.7193 49.8436 30.78C49.9903 30.8408 50.1235 30.9298 50.2358 31.0421C50.3481 31.1544 50.4371 31.2876 50.4979 31.4343C50.5586 31.581 50.5899 31.7382 50.5899 31.897V68.654C50.5945 68.814 50.5663 68.9732 50.5072 69.122C50.448 69.2707 50.3591 69.4058 50.2459 69.519C50.1328 69.6322 49.9977 69.7211 49.8489 69.7802C49.7002 69.8394 49.5409 69.8675 49.3809 69.863V69.863ZM40.9209 65.029C43.2524 66.0106 45.6842 66.7346 48.1729 67.188V33.138H40.9179L40.9209 65.029Z" fill="black"/>
<path d="M39.8086 67.0791C39.6426 67.0784 39.4783 67.0444 39.3256 66.9791C35.6493 65.3283 32.2687 63.0855 29.3186 60.3401C29.0781 60.1071 28.9391 59.7888 28.9316 59.4541V38.3311C28.9358 38.0117 29.0645 37.7066 29.2903 37.4808C29.5162 37.2549 29.8213 37.1262 30.1406 37.1221H39.8086C40.1293 37.1221 40.4368 37.2494 40.6635 37.4762C40.8903 37.7029 41.0176 38.0104 41.0176 38.3311V65.8721C41.0197 66.0738 40.9704 66.2727 40.8746 66.4503C40.7787 66.6278 40.6394 66.7781 40.4696 66.8871C40.2735 67.0159 40.0433 67.0831 39.8086 67.0801V67.0791ZM31.3486 58.9251C33.5437 60.9009 35.9805 62.5903 38.6006 63.9531V39.5721H31.3456L31.3486 58.9251Z" fill="black"/>
</g>
<defs>
<clipPath id="clip0_1158_91">
<rect width="95" height="105" fill="white"/>
</clipPath>
</defs>
</svg>
