<svg width="163" height="105" viewBox="0 0 163 105" fill="none" xmlns="http://www.w3.org/2000/svg">
<g clip-path="url(#clip0_1158_117)">
<path d="M156.017 74.8611C154.63 74.8656 153.272 74.458 152.116 73.6899C150.961 72.9219 150.059 71.8279 149.526 70.5468C148.993 69.2657 148.852 67.8551 149.122 66.494C149.391 65.1328 150.059 63.8823 151.04 62.9011C152.021 61.9199 153.272 61.2522 154.633 60.9826C155.994 60.713 157.405 60.8537 158.686 61.3868C159.967 61.9199 161.061 62.8215 161.829 63.9771C162.597 65.1328 163.005 66.4905 163 67.8781C162.994 69.7282 162.257 71.5009 160.948 72.8091C159.64 74.1174 157.867 74.855 156.017 74.8611ZM156.017 64.5981C155.369 64.5935 154.733 64.7817 154.191 65.1387C153.65 65.4957 153.226 66.0055 152.975 66.6035C152.723 67.2014 152.655 67.8606 152.778 68.4975C152.902 69.1344 153.211 69.7203 153.668 70.1809C154.125 70.6415 154.708 70.9561 155.344 71.0849C155.98 71.2136 156.64 71.1506 157.24 70.904C157.84 70.6573 158.353 70.2381 158.715 69.6994C159.076 69.1607 159.269 68.5268 159.27 67.8781C159.271 67.0125 158.93 66.1817 158.32 65.5671C157.711 64.9525 156.883 64.6042 156.017 64.5981Z" fill="black"/>
<path d="M144.035 44.742C142.648 44.7457 141.292 44.338 140.137 43.5705C138.983 42.8029 138.082 41.7101 137.549 40.4302C137.015 39.1504 136.874 37.7411 137.142 36.3808C137.41 35.0206 138.076 33.7704 139.055 32.7887C140.034 31.807 141.282 31.1379 142.642 30.866C144.002 30.5941 145.411 30.7318 146.692 31.2615C147.974 31.7912 149.069 32.6891 149.84 33.8417C150.61 34.9942 151.022 36.3495 151.022 37.736C151.022 39.5908 150.286 41.3699 148.976 42.6832C147.667 43.9966 145.89 44.7369 144.035 44.742V44.742ZM144.035 34.46C143.386 34.456 142.751 34.6448 142.209 35.0023C141.668 35.3599 141.245 35.8701 140.994 36.4684C140.743 37.0666 140.675 37.7259 140.799 38.3627C140.923 38.9995 141.234 39.5851 141.691 40.0453C142.149 40.5054 142.732 40.8194 143.368 40.9475C144.004 41.0755 144.664 41.0118 145.264 40.7645C145.864 40.5171 146.376 40.0972 146.737 39.5581C147.098 39.0189 147.291 38.3847 147.291 37.736C147.291 36.8706 146.948 36.0403 146.338 35.4265C145.728 34.8127 144.9 34.4652 144.035 34.46Z" fill="black"/>
<path d="M144.035 105C142.648 105.004 141.292 104.596 140.137 103.828C138.983 103.061 138.082 101.968 137.549 100.688C137.015 99.4082 136.874 97.9989 137.142 96.6386C137.41 95.2784 138.076 94.0282 139.055 93.0465C140.034 92.0648 141.282 91.3957 142.642 91.1238C144.002 90.8519 145.411 90.9896 146.692 91.5193C147.974 92.049 149.069 92.9469 149.84 94.0995C150.61 95.252 151.022 96.6073 151.022 97.9938C151.022 99.8486 150.286 101.628 148.976 102.941C147.667 104.254 145.89 104.995 144.035 105V105ZM144.035 94.7178C143.386 94.7138 142.751 94.9026 142.209 95.2601C141.668 95.6177 141.245 96.1279 140.994 96.7262C140.743 97.3244 140.675 97.9837 140.799 98.6205C140.923 99.2573 141.234 99.8429 141.691 100.303C142.149 100.763 142.732 101.077 143.368 101.205C144.004 101.333 144.664 101.27 145.264 101.022C145.864 100.775 146.376 100.355 146.737 99.8159C147.098 99.2767 147.291 98.6426 147.291 97.9938C147.291 97.1284 146.948 96.2981 146.338 95.6843C145.728 95.0705 144.9 94.7231 144.035 94.7178V94.7178Z" fill="black"/>
<path d="M151.039 69.7471C150.981 69.7468 150.922 69.7435 150.863 69.7371H133.512C133.67 69.0821 133.749 68.4108 133.749 67.7371C133.746 67.1529 133.671 66.5713 133.527 66.0051H150.862C150.92 65.9988 150.979 65.9955 151.037 65.9951C151.437 65.9951 151.537 66.1781 151.704 66.5101C151.76 66.6181 151.824 66.7411 151.904 66.8781C152.089 67.1764 152.186 67.52 152.186 67.8706C152.186 68.2212 152.089 68.5649 151.904 68.8631C151.819 68.9991 151.755 69.1221 151.704 69.2301C151.533 69.5641 151.438 69.7461 151.039 69.7471ZM11.9573 69.7471C11.5503 69.7471 11.4503 69.5591 11.2683 69.2181C11.2133 69.1181 11.1503 68.9961 11.0683 68.8651C10.8845 68.5667 10.7871 68.2231 10.7871 67.8726C10.7871 67.5221 10.8845 67.1785 11.0683 66.8801C11.1503 66.7481 11.2133 66.6311 11.2683 66.5271C11.4503 66.1851 11.5503 65.9971 11.9573 65.9971C12.0165 65.9974 12.0755 66.0007 12.1343 66.0071H29.4543C29.3321 66.5764 29.2697 67.1569 29.2683 67.7391C29.2716 68.414 29.359 69.0858 29.5283 69.7391H12.1333C12.0748 69.7448 12.0161 69.7475 11.9573 69.7471Z" fill="black"/>
<path d="M144.036 57.7338H127.905C126.736 56.5838 125.373 55.3638 123.737 54.0028H142.164V43.0308C142.212 42.57 142.429 42.1432 142.773 41.833C143.117 41.5228 143.564 41.3511 144.027 41.3511C144.491 41.3511 144.937 41.5228 145.282 41.833C145.626 42.1432 145.843 42.57 145.89 43.0308V55.8788C145.89 56.3704 145.694 56.8418 145.347 57.1895C144.999 57.5373 144.528 57.733 144.036 57.7338V57.7338ZM34.7973 57.7338H18.9843C18.4981 57.7106 18.0377 57.5083 17.6918 57.1657C17.346 56.8232 17.1392 56.3648 17.1113 55.8788V43.0308C17.2407 42.6361 17.4914 42.2923 17.8278 42.0485C18.1642 41.8048 18.5689 41.6736 18.9843 41.6736C19.3997 41.6736 19.8045 41.8048 20.1409 42.0485C20.4772 42.2923 20.728 42.6361 20.8573 43.0308V54.0038H39.0513C37.3753 55.3498 35.9833 56.5698 34.7973 57.7338V57.7338Z" fill="black"/>
<path d="M143.919 94.5049C143.675 94.5049 143.434 94.4568 143.208 94.3632C142.983 94.2697 142.778 94.1326 142.606 93.9598C142.434 93.787 142.298 93.5819 142.205 93.3563C142.112 93.1306 142.065 92.8889 142.065 92.6449V81.6729H123.278C123.722 81.2929 124.178 80.9099 124.61 80.5399C125.61 79.6889 126.652 78.8089 127.61 77.9399H144.034C144.28 77.9402 144.522 77.9891 144.748 78.0837C144.975 78.1784 145.18 78.3169 145.352 78.4914C145.525 78.6658 145.661 78.8727 145.752 79.1001C145.844 79.3274 145.89 79.5707 145.887 79.8159V92.6419C145.887 93.1336 145.692 93.6051 145.344 93.953C144.997 94.3009 144.526 94.4969 144.034 94.4979C143.997 94.5039 143.958 94.5049 143.919 94.5049ZM18.9843 94.0049C18.5681 94.0049 18.1627 93.8729 17.8262 93.628C17.4897 93.3831 17.2394 93.0379 17.1113 92.6419V79.8179C17.1333 79.328 17.3375 78.8639 17.6841 78.5168C18.0306 78.1697 18.4944 77.9647 18.9843 77.9419H34.9343C36.1183 79.1319 37.4733 80.3519 39.0753 81.6719H20.8573V92.6419C20.7289 93.0375 20.4785 93.3823 20.142 93.6268C19.8055 93.8713 19.4003 94.003 18.9843 94.0029V94.0049Z" fill="black"/>
<path d="M88.514 7.006C88.514 8.39191 88.1029 9.74669 87.3328 10.899C86.5627 12.0512 85.4682 12.9492 84.1877 13.4793C82.9071 14.0094 81.4981 14.1478 80.1389 13.8769C78.7798 13.6061 77.5314 12.9383 76.5518 11.9579C75.5723 10.9775 74.9055 9.72855 74.6358 8.36912C74.3662 7.0097 74.5058 5.60084 75.037 4.32076C75.5682 3.04069 76.4671 1.94692 77.62 1.17781C78.7729 0.408701 80.128 -0.00118434 81.514 2.57041e-06C83.371 0.00159298 85.1515 0.740425 86.4641 2.05413C87.7766 3.36784 88.514 5.14893 88.514 7.006V7.006ZM78.232 7.006C78.2364 7.75843 78.5013 8.48609 78.9817 9.06527C79.462 9.64445 80.1281 10.0394 80.8667 10.1829C81.6053 10.3265 82.3709 10.2098 83.0332 9.85268C83.6955 9.49557 84.2137 8.9201 84.4996 8.22411C84.7856 7.52812 84.8216 6.75458 84.6017 6.035C84.3818 5.31542 83.9194 4.69422 83.2932 4.27703C82.667 3.85984 81.9156 3.67241 81.1668 3.74661C80.4181 3.8208 79.7181 4.15204 79.186 4.684C78.8821 4.98932 78.6414 5.35156 78.4777 5.75C78.314 6.14844 78.2305 6.57525 78.232 7.006V7.006Z" fill="black"/>
<path d="M120.012 19.006C120.012 20.3919 119.601 21.7467 118.831 22.899C118.061 24.0512 116.966 24.9492 115.686 25.4793C114.405 26.0094 112.996 26.1478 111.637 25.8769C110.278 25.6061 109.029 24.9383 108.05 23.9579C107.07 22.9775 106.404 21.7286 106.134 20.3691C105.864 19.0097 106.004 17.6008 106.535 16.3208C107.066 15.0407 107.965 13.9469 109.118 13.1778C110.271 12.4087 111.626 11.9988 113.012 12C114.869 12.0016 116.65 12.7404 117.962 14.0541C119.275 15.3678 120.012 17.1489 120.012 19.006V19.006ZM109.73 19.006C109.734 19.7584 109.999 20.4861 110.48 21.0653C110.96 21.6444 111.626 22.0394 112.365 22.1829C113.103 22.3265 113.869 22.2098 114.531 21.8527C115.194 21.4956 115.712 20.9201 115.998 20.2241C116.284 19.5281 116.32 18.7546 116.1 18.035C115.88 17.3154 115.417 16.6942 114.791 16.277C114.165 15.8598 113.414 15.6724 112.665 15.7466C111.916 15.8208 111.216 16.152 110.684 16.684C110.38 16.9893 110.139 17.3516 109.976 17.75C109.812 18.1484 109.729 18.5752 109.73 19.006V19.006Z" fill="black"/>
<path d="M58.2737 18.986C58.2737 20.3716 57.8629 21.7261 57.0931 22.8782C56.3233 24.0303 55.2292 24.9283 53.949 25.4586C52.6689 25.9889 51.2603 26.1277 49.9013 25.8574C48.5423 25.5872 47.2939 24.92 46.3141 23.9403C45.3342 22.9606 44.6669 21.7124 44.3965 20.3534C44.126 18.9944 44.2646 17.5858 44.7947 16.3056C45.3248 15.0254 46.2227 13.9311 47.3747 13.1612C48.5267 12.3912 49.8811 11.9802 51.2667 11.98C53.1248 11.98 54.9068 12.7181 56.2207 14.032C57.5346 15.3459 58.2727 17.1279 58.2727 18.986H58.2737ZM48.0107 18.986C47.9956 19.6378 48.1753 20.2793 48.5269 20.8284C48.8784 21.3774 49.3858 21.8091 49.9841 22.0682C50.5824 22.3273 51.2444 22.4019 51.8854 22.2826C52.5264 22.1633 53.1171 21.8554 53.5821 21.3984C54.0471 20.9414 54.3652 20.356 54.4956 19.7172C54.626 19.0784 54.5629 18.4153 54.3142 17.8125C54.0656 17.2098 53.6428 16.695 53.0999 16.334C52.557 15.973 51.9187 15.7822 51.2667 15.786C50.4143 15.791 49.5975 16.128 48.9895 16.7254C48.3816 17.3229 48.0305 18.1338 48.0107 18.986V18.986Z" fill="black"/>
<path d="M81.2157 37.3872C80.9739 37.3666 80.7358 37.3142 80.5077 37.2312C79.9077 37.0072 79.5627 36.5912 79.6347 36.1712V12.2652C79.5617 11.8442 79.9047 11.4292 80.5077 11.2052C80.8259 11.0911 81.1617 11.0339 81.4997 11.0362C81.8381 11.0338 82.1742 11.091 82.4927 11.2052C83.0927 11.4292 83.4377 11.8442 83.3647 12.2642V36.1712C83.4377 36.5912 83.0957 37.0072 82.4927 37.2312C82.2652 37.314 82.0279 37.3664 81.7867 37.3872H81.5337H81.4967H81.2157Z" fill="black"/>
<path d="M67.8611 40.5802L67.5761 38.2872V20.7682H56.6251C55.8111 21.0352 55.9701 20.6302 55.4661 19.9382C55.2203 19.6006 55.0879 19.1938 55.0879 18.7762C55.0879 18.3586 55.2203 17.9518 55.4661 17.6142C55.9661 16.9222 55.8111 16.7512 56.6251 17.0142H69.4511C69.9371 17.043 70.3953 17.2503 70.7377 17.5964C71.0801 17.9425 71.2826 18.4029 71.3061 18.8892V36.7892L70.9251 38.7242C70.9251 39.2162 70.7297 39.688 70.3818 40.0359C70.0339 40.3838 69.5621 40.5792 69.0701 40.5792" fill="black"/>
<path d="M94.0117 41.426C93.758 41.4429 93.5035 41.4074 93.264 41.3217C93.0246 41.2361 92.8053 41.1021 92.6198 40.9282C92.4343 40.7542 92.2866 40.5439 92.1857 40.3105C92.0849 40.077 92.0332 39.8253 92.0338 39.571L91.5938 36.859V18.893C91.6192 18.3868 91.8383 17.9098 92.2058 17.5607C92.5733 17.2117 93.0609 17.0174 93.5677 17.018H106.475C107.289 16.751 107.434 16.952 107.938 17.645C108.184 17.9826 108.316 18.3894 108.316 18.807C108.316 19.2246 108.184 19.6314 107.938 19.969C107.438 20.661 107.289 21.036 106.475 20.769H95.4228V37.747L95.3768 40.552" fill="black"/>
<path d="M18.9865 44.742C17.6008 44.742 16.2463 44.3311 15.0941 43.5613C13.942 42.7914 13.044 41.6972 12.5138 40.4171C11.9835 39.1369 11.8448 37.7282 12.1151 36.3692C12.3854 35.0101 13.0527 33.7618 14.0325 32.782C15.0123 31.8022 16.2606 31.1349 17.6197 30.8646C18.9787 30.5943 20.3874 30.733 21.6676 31.2633C22.9477 31.7936 24.0419 32.6915 24.8117 33.8437C25.5816 34.9958 25.9925 36.3503 25.9925 37.736C25.9925 39.5941 25.2543 41.3761 23.9405 42.69C22.6266 44.0039 20.8446 44.742 18.9865 44.742V44.742ZM18.9865 34.46C18.3385 34.46 17.7052 34.6521 17.1664 35.0121C16.6277 35.3721 16.2078 35.8837 15.9598 36.4823C15.7119 37.0809 15.647 37.7396 15.7734 38.3751C15.8998 39.0106 16.2118 39.5943 16.67 40.0525C17.1281 40.5106 17.7119 40.8226 18.3474 40.949C18.9828 41.0754 19.6415 41.0106 20.2401 40.7626C20.8388 40.5147 21.3504 40.0948 21.7104 39.556C22.0703 39.0173 22.2625 38.3839 22.2625 37.736C22.2625 37.3058 22.1777 36.8798 22.0131 36.4823C21.8485 36.0849 21.6072 35.7237 21.303 35.4195C20.9987 35.1153 20.6376 34.874 20.2401 34.7094C19.8427 34.5447 19.4167 34.46 18.9865 34.46V34.46Z" fill="black"/>
<path d="M18.9865 105C17.6008 105 16.2463 104.589 15.0941 103.819C13.942 103.049 13.044 101.955 12.5138 100.675C11.9835 99.3947 11.8448 97.986 12.1151 96.627C12.3854 95.268 13.0527 94.0196 14.0325 93.0398C15.0123 92.06 16.2606 91.3927 17.6197 91.1224C18.9787 90.8521 20.3874 90.9908 21.6676 91.5211C22.9477 92.0514 24.0419 92.9493 24.8117 94.1015C25.5816 95.2536 25.9925 96.6081 25.9925 97.9938C25.9925 99.8519 25.2543 101.634 23.9405 102.948C22.6266 104.262 20.8446 105 18.9865 105V105ZM18.9865 94.7178C18.3385 94.7178 17.7052 94.9099 17.1664 95.2699C16.6277 95.6299 16.2078 96.1415 15.9598 96.7401C15.7119 97.3387 15.647 97.9974 15.7734 98.6329C15.8998 99.2684 16.2118 99.8521 16.67 100.31C17.1281 100.768 17.7119 101.08 18.3474 101.207C18.9828 101.333 19.6415 101.268 20.2401 101.02C20.8388 100.772 21.3504 100.353 21.7104 99.8138C22.0703 99.2751 22.2625 98.6417 22.2625 97.9938C22.2626 97.5635 22.178 97.1374 22.0134 96.7398C21.8488 96.3422 21.6075 95.981 21.3033 95.6767C20.9991 95.3724 20.6379 95.131 20.2404 94.9663C19.8428 94.8016 19.4168 94.7168 18.9865 94.7168V94.7178Z" fill="black"/>
<path d="M7.00692 74.8611C5.62033 74.8609 4.26498 74.4493 3.11249 73.6783C1.95999 72.9073 1.06219 71.8117 0.532761 70.5302C0.00332922 69.2486 -0.133921 67.8388 0.13839 66.4792C0.4107 65.1196 1.08032 63.8714 2.06247 62.8926C3.04462 61.9139 4.29512 61.2485 5.65564 60.9809C7.01615 60.7132 8.42549 60.8553 9.7052 61.3891C10.9849 61.923 12.0774 62.8245 12.8445 63.9797C13.6115 65.1348 14.0185 66.4915 14.0139 67.8781C14.0078 69.7324 13.2669 71.5087 11.9534 72.8176C10.64 74.1265 8.86122 74.8614 7.00692 74.8611V74.8611ZM7.00692 64.5981C6.35836 64.5944 5.72328 64.7832 5.18214 65.1407C4.641 65.4982 4.21815 66.0083 3.96716 66.6063C3.71618 67.2043 3.64835 67.8634 3.77228 68.5C3.89621 69.1367 4.20631 69.7222 4.6633 70.1824C5.12029 70.6426 5.7036 70.9568 6.33933 71.0852C6.97506 71.2136 7.6346 71.1504 8.23439 70.9037C8.83418 70.6569 9.34722 70.2377 9.70852 69.699C10.0698 69.1604 10.2631 68.5267 10.2639 67.8781C10.265 67.0119 9.92292 66.1804 9.31254 65.5658C8.70216 64.9511 7.87316 64.6031 7.00692 64.5981V64.5981Z" fill="black"/>
<path d="M81.4737 37.5228C79.9853 37.4962 78.4965 37.549 77.0137 37.6808C85.2862 38.2882 93.3447 40.5944 100.686 44.4553C108.028 48.3162 114.494 53.649 119.683 60.1208C121.417 62.2771 122.363 64.9614 122.363 67.7288C122.363 70.4962 121.417 73.1805 119.683 75.3368C114.494 81.8086 108.028 87.1413 100.686 91.0023C93.3447 94.8632 85.2862 97.1693 77.0137 97.7768C78.4937 97.7768 79.9737 97.9348 81.4737 97.9348C92.0783 97.9377 102.497 95.1482 111.681 89.8468C120.866 84.5454 128.492 76.9191 133.794 67.7348C128.495 58.5469 120.87 50.917 111.685 45.6133C102.5 40.3095 92.0799 37.519 81.4737 37.5228V37.5228Z" fill="#41A0DA"/>
<path d="M81.5094 99.8088C70.4188 99.8135 59.5299 96.8437 49.9774 91.2088C40.7154 85.7387 33.0188 77.9749 27.6294 68.6658C27.4563 68.3656 27.3652 68.0252 27.3652 67.6788C27.3652 67.3323 27.4563 66.9919 27.6294 66.6918C33.0822 57.2273 40.9323 49.3664 50.3893 43.9006C59.8464 38.4349 70.5765 35.5571 81.4994 35.5571C92.4223 35.5571 103.152 38.4349 112.609 43.9006C122.066 49.3664 129.917 57.2273 135.369 66.6918C135.542 66.9919 135.634 67.3323 135.634 67.6788C135.634 68.0252 135.542 68.3656 135.369 68.6658C129.916 78.1284 122.068 85.9883 112.613 91.4552C103.158 96.9221 92.4308 99.8032 81.5094 99.8088V99.8088ZM31.4094 67.7378C36.6059 76.3779 43.9492 83.5268 52.7256 88.4898C61.502 93.4527 71.4129 96.0609 81.4954 96.0609C91.5778 96.0609 101.489 93.4527 110.265 88.4898C119.042 83.5268 126.385 76.3779 131.581 67.7378C126.388 59.093 119.046 51.9396 110.27 46.9732C101.493 42.0068 91.5799 39.3967 81.4954 39.3967C71.4109 39.3967 61.498 42.0068 52.7212 46.9732C43.9443 51.9396 36.6023 59.093 31.4094 67.7378V67.7378Z" fill="black"/>
<path d="M98.1041 43.2261C101.966 48.9226 103.722 55.7867 103.07 62.6379C102.418 69.489 99.3997 75.899 94.5334 80.7653C89.667 85.6317 83.2571 88.6502 76.4059 89.3019C69.5548 89.9536 62.6907 88.1977 56.9941 84.3361C59.4406 87.9451 62.6542 90.9691 66.4052 93.1919C70.1561 95.4147 74.3518 96.7813 78.6923 97.1942C83.0328 97.6071 87.411 97.0559 91.5137 95.5802C95.6165 94.1045 99.3426 91.7406 102.426 88.6576C105.509 85.5745 107.873 81.8484 109.348 77.7457C110.824 73.6429 111.375 69.2648 110.962 64.9243C110.549 60.5838 109.183 56.3881 106.96 52.6371C104.737 48.8862 101.713 45.6726 98.1041 43.2261V43.2261Z" fill="#41A0DA"/>
<path d="M81.5098 98.8218C75.362 98.8218 69.3522 96.9988 64.2404 93.5832C59.1287 90.1677 55.1446 85.313 52.7919 79.6332C50.4392 73.9533 49.8237 67.7033 51.0231 61.6736C52.2224 55.6439 55.1829 50.1053 59.5301 45.7581C63.8773 41.4109 69.4159 38.4505 75.4456 37.2511C81.4753 36.0517 87.7253 36.6673 93.4051 39.02C99.085 41.3726 103.94 45.3567 107.355 50.4685C110.771 55.5802 112.594 61.59 112.594 67.7378C112.594 71.8198 111.79 75.8619 110.228 79.6332C108.666 83.4044 106.376 86.8311 103.49 89.7175C100.603 92.6039 97.1764 94.8936 93.4051 96.4557C89.6338 98.0178 85.5918 98.8218 81.5098 98.8218ZM81.5098 39.6138C75.9475 39.6142 70.5102 41.264 65.8855 44.3545C61.2608 47.4451 57.6564 51.8376 55.528 56.9766C53.3997 62.1156 52.843 67.7704 53.9284 73.2258C55.0138 78.6812 57.6925 83.6922 61.6258 87.6252C65.5591 91.5582 70.5703 94.2366 76.0258 95.3216C81.4813 96.4066 87.136 95.8495 92.2748 93.7208C97.4137 91.5921 101.806 87.9874 104.896 83.3625C107.986 78.7375 109.636 73.3001 109.636 67.7378C109.636 64.0444 108.908 60.3871 107.495 56.9748C106.081 53.5625 104.01 50.462 101.398 47.8504C98.786 45.2389 95.6854 43.1673 92.273 41.7541C88.8606 40.3408 85.2033 39.6136 81.5098 39.6138V39.6138Z" fill="black"/>
<path d="M92.0816 59.511C91.4661 58.7317 90.7669 58.0225 89.9966 57.396L101.452 46.014C101.589 45.8766 101.752 45.7676 101.931 45.6932C102.111 45.6189 102.303 45.5806 102.498 45.5806C102.692 45.5806 102.884 45.6189 103.064 45.6932C103.243 45.7676 103.406 45.8766 103.544 46.014C103.819 46.2965 103.973 46.6752 103.973 47.0695C103.973 47.4637 103.819 47.8425 103.544 48.125L92.0826 59.51L92.0816 59.511ZM80.0176 54.465V38.336C80.0176 37.9434 80.1735 37.567 80.4511 37.2894C80.7286 37.0119 81.1051 36.856 81.4976 36.856C81.8901 36.856 82.2665 37.0119 82.5441 37.2894C82.8217 37.567 82.9776 37.9434 82.9776 38.336V54.463C82.49 54.4103 82 54.3839 81.5096 54.384H81.4966C81.0025 54.3842 80.5088 54.4112 80.0176 54.465V54.465Z" fill="black"/>
<path d="M62.1852 91.6389C61.9046 91.6327 61.6315 91.5467 61.3979 91.3911C61.1642 91.2355 60.9797 91.0167 60.8657 90.7601C60.7518 90.5036 60.7131 90.22 60.7543 89.9423C60.7954 89.6646 60.9147 89.4044 61.0982 89.1919L71.5982 76.9449C72.2711 77.6793 73.023 78.3373 73.8402 78.9069L63.3092 91.1259C63.169 91.2864 62.9963 91.4151 62.8025 91.5035C62.6087 91.592 62.3982 91.6381 62.1852 91.6389V91.6389ZM107.191 83.9789C106.947 83.9785 106.707 83.9181 106.491 83.8029L92.4232 75.7229C93.012 74.9088 93.5077 74.0314 93.9012 73.1069L107.893 81.1789C108.185 81.3353 108.417 81.5849 108.552 81.8879C108.686 82.191 108.715 82.5302 108.635 82.8518C108.554 83.1734 108.369 83.459 108.108 83.6632C107.847 83.8674 107.525 83.9785 107.193 83.9789H107.191Z" fill="black"/>
<path d="M94.7507 65.4508C94.4223 63.6474 93.7274 61.9305 92.709 60.4064C91.6905 58.8823 90.3702 57.5833 88.8297 56.5898C90.4958 59.1791 91.2238 62.2613 90.8924 65.3224C90.5609 68.3835 89.19 71.2384 87.0083 73.411C84.8266 75.5836 81.9659 76.9425 78.9035 77.2611C75.841 77.5797 72.7619 76.8388 70.1797 75.1618C71.868 77.7783 74.4112 79.7285 77.3761 80.6801C80.341 81.6317 83.5441 81.526 86.4398 80.3808C89.3354 79.2356 91.7445 77.1218 93.2564 74.3997C94.7684 71.6775 95.2897 68.5153 94.7317 65.4518L94.7507 65.4508Z" fill="#41A0DA"/>
<path d="M81.5108 82.7799C78.5542 82.7839 75.663 81.9105 73.203 80.2704C70.7431 78.6303 68.8251 76.2972 67.6919 73.5664C66.5586 70.8357 66.2611 67.8301 66.8369 64.9302C67.4127 62.0302 68.836 59.3663 70.9266 57.2757C73.0172 55.1851 75.6811 53.7618 78.581 53.186C81.481 52.6102 84.4866 52.9077 87.2173 54.041C89.9481 55.1742 92.2812 57.0922 93.9213 59.5522C95.5614 62.0121 96.4347 64.9033 96.4308 67.8599C96.4255 71.8153 94.8519 75.6072 92.055 78.4041C89.2581 81.201 85.4662 82.7746 81.5108 82.7799V82.7799ZM81.5108 55.8799C79.1405 55.8759 76.8223 56.5752 74.8496 57.8892C72.8769 59.2031 71.3383 61.0728 70.4284 63.2615C69.5186 65.4502 69.2785 67.8596 69.7385 70.1848C70.1985 72.51 71.3379 74.6465 73.0126 76.3239C74.6872 78.0014 76.8218 79.1443 79.1462 79.6082C81.4707 80.0721 83.8805 79.836 86.0707 78.9299C88.2609 78.0237 90.1331 76.4882 91.4504 74.5177C92.7676 72.5472 93.4708 70.2302 93.4708 67.8599C93.4708 64.6861 92.2114 61.6419 89.969 59.3958C87.7266 57.1497 84.6846 55.8852 81.5108 55.8799V55.8799Z" fill="black"/>
</g>
<defs>
<clipPath id="clip0_1158_117">
<rect width="163" height="105" fill="white"/>
</clipPath>
</defs>
</svg>
