<svg width="133" height="105" viewBox="0 0 133 105" fill="none" xmlns="http://www.w3.org/2000/svg">
<g clip-path="url(#clip0_1158_36)">
<path d="M26.3791 33.6548H20.7051V43.7498H26.3791V33.6548Z" fill="#E87E70"/>
<path d="M63.3088 33.6548H57.6348V43.7498H63.3088V33.6548Z" fill="#E87E70"/>
<path d="M26.3968 45.279H20.7048C19.8608 45.279 19.1758 44.795 19.1758 44.199V28.453C19.1758 27.853 19.8608 27.373 20.7048 27.373H26.3968C27.2338 27.38 27.9078 27.862 27.9078 28.453V44.199C27.9078 44.791 27.2348 45.272 26.3968 45.279V45.279ZM22.2338 43.119H24.8678V29.533H22.2338V43.119Z" fill="black"/>
<path d="M63.3085 45.2789H57.6345C56.7905 45.2789 56.1055 44.7999 56.1055 44.2089V28.6169C56.1055 28.0259 56.7905 27.5469 57.6345 27.5469H63.3085C64.1525 27.5469 64.8375 28.0259 64.8375 28.6169V44.2089C64.8375 44.7999 64.1555 45.2789 63.3085 45.2789ZM59.1635 43.1399H61.7245V29.6859H59.1635V43.1399Z" fill="black"/>
<path d="M64.4315 15.916C65.1273 17.2782 65.3426 18.8355 65.0424 20.3353C64.7422 21.8352 63.9442 23.1897 62.7777 24.1792C61.6112 25.1686 60.1447 25.735 58.616 25.7866C57.0872 25.8381 55.5859 25.3717 54.3555 24.463C54.8167 25.384 55.4812 26.1883 56.2987 26.8149C57.1162 27.4416 58.0654 27.8744 59.0746 28.0805C60.0838 28.2867 61.1267 28.2609 62.1245 28.0051C63.1223 27.7493 64.0489 27.2701 64.8344 26.6038C65.6199 25.9375 66.2438 25.1014 66.659 24.1587C67.0741 23.216 67.2697 22.1913 67.2308 21.162C67.192 20.1326 66.9199 19.1256 66.4349 18.2168C65.95 17.308 65.2649 16.5213 64.4315 15.916Z" fill="#E87E70"/>
<path d="M60.4739 29.8052C58.8234 29.8052 57.21 29.3158 55.8377 28.3989C54.4653 27.4819 53.3957 26.1786 52.7641 24.6537C52.1325 23.1289 51.9673 21.451 52.2893 19.8322C52.6113 18.2134 53.406 16.7265 54.5731 15.5594C55.7402 14.3924 57.2271 13.5976 58.8459 13.2756C60.4647 12.9536 62.1426 13.1188 63.6674 13.7505C65.1923 14.3821 66.4956 15.4517 67.4125 16.824C68.3295 18.1963 68.8189 19.8098 68.8189 21.4602C68.8189 23.6735 67.9397 25.7961 66.3747 27.361C64.8097 28.926 62.6871 29.8052 60.4739 29.8052ZM60.4739 16.1732C59.4282 16.1732 58.4061 16.4833 57.5366 17.0643C56.6672 17.6452 55.9895 18.4709 55.5894 19.437C55.1892 20.4031 55.0845 21.4661 55.2885 22.4917C55.4925 23.5173 55.996 24.4593 56.7354 25.1987C57.4748 25.9381 58.4169 26.4416 59.4425 26.6456C60.468 26.8496 61.5311 26.7449 62.4972 26.3448C63.4632 25.9446 64.2889 25.267 64.8699 24.3975C65.4508 23.5281 65.7609 22.5059 65.7609 21.4602C65.7606 20.0582 65.2035 18.7137 64.212 17.7224C63.2206 16.7311 61.8759 16.1742 60.4739 16.1742V16.1732Z" fill="black"/>
<path d="M27.5018 15.916C28.1677 17.2777 28.3607 18.8225 28.0503 20.3062C27.7399 21.7898 26.9438 23.1277 25.7878 24.1082C24.6319 25.0887 23.1821 25.656 21.6677 25.7202C20.1533 25.7845 18.6606 25.3421 17.4258 24.463C17.8818 25.3954 18.5446 26.2114 19.3639 26.8486C20.1831 27.4859 21.1371 27.9277 22.153 28.1402C23.169 28.3528 24.22 28.3305 25.226 28.0751C26.232 27.8197 27.1664 27.3379 27.9579 26.6665C28.7495 25.9951 29.3772 25.1518 29.7932 24.2009C30.2093 23.2501 30.4027 22.2167 30.3587 21.1797C30.3147 20.1427 30.0345 19.1295 29.5393 18.2173C29.0442 17.3051 28.3473 16.518 27.5018 15.916V15.916Z" fill="#E87E70"/>
<path d="M23.5423 29.8052C21.8918 29.8052 20.2784 29.3158 18.906 28.3989C17.5337 27.4819 16.4641 26.1786 15.8325 24.6537C15.2009 23.1289 15.0356 21.451 15.3576 19.8322C15.6796 18.2134 16.4744 16.7265 17.6415 15.5594C18.8085 14.3924 20.2955 13.5976 21.9142 13.2756C23.533 12.9536 25.2109 13.1188 26.7358 13.7505C28.2606 14.3821 29.5639 15.4517 30.4809 16.824C31.3978 18.1963 31.8873 19.8098 31.8873 21.4602C31.8873 23.6735 31.0081 25.7961 29.4431 27.361C27.8781 28.926 25.7555 29.8052 23.5423 29.8052V29.8052ZM23.5423 16.1732C22.4943 16.1623 21.4668 16.4631 20.5901 17.0374C19.7135 17.6117 19.0273 18.4335 18.6187 19.3986C18.2101 20.3637 18.0975 21.4284 18.2952 22.4576C18.493 23.4867 18.9921 24.4339 19.7293 25.1788C20.4665 25.9237 21.4084 26.4328 22.4354 26.6413C23.4625 26.8498 24.5283 26.7483 25.4976 26.3498C26.4669 25.9513 27.2959 25.2738 27.8793 24.4032C28.4627 23.5326 28.7742 22.5082 28.7743 21.4602C28.7743 20.0675 28.2249 18.731 27.2452 17.7411C26.2656 16.7511 24.9349 16.1877 23.5423 16.1732V16.1732Z" fill="black"/>
<path d="M55.6348 82.1211H50.3848V95.4391H55.6348V82.1211Z" fill="#E87E70"/>
<path opacity="0.1" d="M74.5923 95.6048C74.5868 97.6983 73.7527 99.7045 72.2723 101.185C70.792 102.665 68.7858 103.499 66.6923 103.505H60.4453V87.3528L74.5923 82.5078V95.6048Z" fill="black"/>
<path d="M66.6113 103.507H63.2773V69.7982C64.8075 69.0026 66.0896 67.8018 66.9835 66.3269C67.8775 64.852 68.3489 63.1598 68.3463 61.4352C68.3492 59.7102 67.8779 58.0177 66.9839 56.5425C66.09 55.0672 64.8077 53.8661 63.2773 53.0702V38.2422H66.6113C68.3875 38.2386 70.1127 38.8353 71.507 39.9355C72.9013 41.0357 73.8829 42.5749 74.2923 44.3032V97.4422C73.8836 99.1712 72.9024 100.711 71.508 101.812C70.1137 102.913 68.388 103.511 66.6113 103.507V103.507Z" fill="#E87E70"/>
<path d="M30.1744 53.4209C31.3291 55.2316 31.8313 57.3822 31.598 59.517C31.3647 61.6519 30.4098 63.6432 28.8913 65.1618C27.3727 66.6803 25.3814 67.6352 23.2465 67.8685C21.1117 68.1018 18.9611 67.5996 17.1504 66.4449C17.9094 67.6351 18.9259 68.6398 20.125 69.3848C21.324 70.1299 22.675 70.5963 24.0783 70.7496C25.4815 70.903 26.9014 70.7394 28.233 70.2709C29.5647 69.8025 30.7742 69.0411 31.7724 68.0429C32.7706 67.0447 33.532 65.8352 34.0004 64.5035C34.4689 63.1719 34.6325 61.7521 34.4791 60.3488C34.3257 58.9455 33.8594 57.5945 33.1143 56.3955C32.3693 55.1964 31.3646 54.1799 30.1744 53.4209Z" fill="#E87E70"/>
<path d="M66.849 105H17.389C14.8939 105 12.5004 104.011 10.7326 102.25C8.96486 100.49 7.96682 98.1 7.95703 95.6049V46.1449C7.95703 43.6434 8.95076 41.2443 10.7196 39.4755C12.4884 37.7066 14.8875 36.7129 17.389 36.7129H66.849C69.3473 36.7179 71.7414 37.7139 73.5062 39.4822C75.2709 41.2505 76.262 43.6467 76.262 46.1449V95.6049C76.2523 98.0967 75.2568 100.483 73.4931 102.244C71.7295 104.004 69.3409 104.995 66.849 105V105ZM17.389 39.7709C15.6985 39.7709 14.0773 40.4424 12.8819 41.6378C11.6866 42.8331 11.015 44.4544 11.015 46.1449V95.6049C11.0145 96.4423 11.179 97.2716 11.4991 98.0453C11.8192 98.8191 12.2886 99.5223 12.8805 100.115C13.4725 100.707 14.1753 101.177 14.9489 101.497C15.7225 101.818 16.5516 101.983 17.389 101.983H66.849C68.5381 101.978 70.1566 101.305 71.3509 100.111C72.5452 98.9164 73.2183 97.2979 73.223 95.6089V46.1449C73.2183 44.4559 72.5452 42.8374 71.3509 41.643C70.1566 40.4487 68.5381 39.7756 66.849 39.7709H17.389Z" fill="black"/>
<path d="M9.487 76.4102H6.668C4.90265 76.4102 3.20934 75.7101 1.95936 74.4635C0.709388 73.2169 0.00476549 71.5255 0 69.7602V56.2022C0 54.4337 0.702519 52.7377 1.95301 51.4872C3.2035 50.2367 4.89954 49.5342 6.668 49.5342H9.413C9.81852 49.5342 10.2074 49.6953 10.4942 49.982C10.7809 50.2688 10.942 50.6577 10.942 51.0632V74.8812C10.9425 75.2742 10.7916 75.6523 10.5206 75.937C10.2497 76.2217 9.87955 76.3912 9.487 76.4102V76.4102ZM6.668 52.5922C6.18421 52.5922 5.70516 52.6875 5.25819 52.8726C4.81123 53.0577 4.40511 53.3291 4.06302 53.6712C3.72093 54.0133 3.44957 54.4194 3.26443 54.8664C3.07929 55.3133 2.984 55.7924 2.984 56.2762V69.8342C2.984 70.318 3.07929 70.797 3.26443 71.244C3.44957 71.6909 3.72093 72.0971 4.06302 72.4392C4.40511 72.7813 4.81123 73.0526 5.25819 73.2378C5.70516 73.4229 6.18421 73.5182 6.668 73.5182H7.884V52.5922H6.668Z" fill="black"/>
<path d="M77.4424 76.4102H74.8864C74.6891 76.4068 74.4945 76.3645 74.3136 76.2858C74.1327 76.2071 73.9691 76.0935 73.8322 75.9515C73.6953 75.8094 73.5877 75.6418 73.5157 75.4581C73.4437 75.2745 73.4086 75.0784 73.4124 74.8812V51.0632C73.4086 50.8659 73.4437 50.6699 73.5157 50.4862C73.5877 50.3026 73.6953 50.1349 73.8322 49.9929C73.9691 49.8509 74.1327 49.7372 74.3136 49.6585C74.4945 49.5798 74.6891 49.5376 74.8864 49.5342H77.5154C79.2516 49.567 80.9038 50.2878 82.1089 51.5381C83.314 52.7884 83.9734 54.4659 83.9424 56.2022V69.7602C83.9432 71.5256 83.2567 73.2221 82.0284 74.4902C81.4338 75.104 80.7207 75.5908 79.9324 75.9208C79.1441 76.2508 78.297 76.4173 77.4424 76.4102V76.4102ZM76.2704 73.3712H77.4424C78.4018 73.3533 79.3149 72.9552 79.981 72.2644C80.647 71.5736 81.0115 70.6466 80.9944 69.6872V56.2022C81.0115 55.2427 80.647 54.3157 79.981 53.6249C79.3149 52.9341 78.4018 52.5361 77.4424 52.5182H76.2714L76.2704 73.3712Z" fill="black"/>
<path d="M23.5415 105C23.136 105 22.7471 104.839 22.4603 104.552C22.1736 104.265 22.0125 103.876 22.0125 103.471V88.4178L8.9895 83.9998C8.6049 83.8659 8.28862 83.5858 8.10927 83.2201C7.92992 82.8545 7.90198 82.4329 8.0315 82.0468C8.09213 81.8538 8.19046 81.6748 8.32078 81.5201C8.45111 81.3653 8.61084 81.238 8.79072 81.1455C8.97061 81.0529 9.16707 80.997 9.36873 80.9809C9.57039 80.9648 9.77323 80.9889 9.9655 81.0518L24.0395 85.8408C24.3421 85.9448 24.6045 86.1412 24.7897 86.4022C24.9748 86.6633 25.0734 86.9758 25.0715 87.2958V103.453C25.0739 103.655 25.0361 103.856 24.9603 104.043C24.8845 104.231 24.7723 104.402 24.6301 104.546C24.4879 104.69 24.3185 104.804 24.1318 104.882C23.9451 104.96 23.7448 105 23.5425 105H23.5415Z" fill="black"/>
<path d="M60.2253 105.001C60.0244 105.001 59.8253 104.961 59.6397 104.885C59.454 104.808 59.2852 104.695 59.1431 104.553C59.001 104.411 58.8884 104.242 58.8115 104.057C58.7347 103.871 58.6952 103.672 58.6953 103.471V87.3518C58.6968 87.0334 58.7965 86.7231 58.9808 86.4634C59.1652 86.2037 59.4252 86.0073 59.7253 85.9008L73.7993 81.0558C73.9926 80.9771 74.1999 80.9388 74.4086 80.9432C74.6172 80.9476 74.8227 80.9947 75.0125 81.0816C75.2022 81.1684 75.3722 81.2932 75.5119 81.4482C75.6516 81.6033 75.7581 81.7852 75.8248 81.983C75.8916 82.1807 75.9171 82.39 75.8999 82.5979C75.8827 82.8059 75.8231 83.0082 75.7248 83.1922C75.6265 83.3763 75.4915 83.5383 75.3282 83.6683C75.1649 83.7982 74.9768 83.8933 74.7753 83.9478L61.6983 88.4208V103.489C61.6942 103.882 61.5389 104.258 61.2646 104.54C60.9903 104.821 60.6181 104.986 60.2253 105.001V105.001Z" fill="black"/>
<path d="M55.6945 96.9498H28.2845C27.8886 96.9355 27.5137 96.7682 27.2388 96.483C26.9638 96.1978 26.8103 95.817 26.8105 95.4208V82.1028C26.8153 81.7004 26.9785 81.3161 27.2647 81.0332C27.5509 80.7504 27.9371 80.5918 28.3395 80.5918H55.6945C56.097 80.5918 56.4832 80.7504 56.7694 81.0332C57.0556 81.3161 57.2188 81.7004 57.2235 82.1028V95.4208C57.2235 95.8263 57.0625 96.2152 56.7757 96.502C56.489 96.7887 56.1001 96.9498 55.6945 96.9498ZM29.8105 93.9468H54.1655V83.6308H29.8105V93.9468Z" fill="black"/>
<path d="M55.6958 90.265H28.2868C27.8813 90.265 27.4924 90.1039 27.2056 89.8172C26.9189 89.5305 26.7578 89.1415 26.7578 88.736C26.7578 88.3305 26.9189 87.9416 27.2056 87.6549C27.4924 87.3681 27.8813 87.207 28.2868 87.207H55.6958C56.1013 87.207 56.4902 87.3681 56.777 87.6549C57.0637 87.9416 57.2248 88.3305 57.2248 88.736C57.2248 89.1415 57.0637 89.5305 56.777 89.8172C56.4902 90.1039 56.1013 90.265 55.6958 90.265V90.265Z" fill="black"/>
<path d="M37.2868 96.9502C37.086 96.9502 36.8872 96.9107 36.7017 96.8338C36.5162 96.757 36.3476 96.6444 36.2056 96.5024C36.0637 96.3604 35.951 96.1918 35.8742 96.0063C35.7974 95.8208 35.7578 95.622 35.7578 95.4212V82.1032C35.7578 81.6977 35.9189 81.3088 36.2056 81.022C36.4924 80.7353 36.8813 80.5742 37.2868 80.5742C37.6923 80.5742 38.0812 80.7353 38.368 81.022C38.6547 81.3088 38.8158 81.6977 38.8158 82.1032V95.4212C38.8158 95.8267 38.6547 96.2156 38.368 96.5024C38.0812 96.7891 37.6923 96.9502 37.2868 96.9502V96.9502Z" fill="black"/>
<path d="M46.6464 96.9502C46.2539 96.9312 45.8837 96.7617 45.6128 96.477C45.3418 96.1923 45.1909 95.8142 45.1914 95.4212V82.1032C45.1914 81.6977 45.3525 81.3088 45.6392 81.022C45.926 80.7353 46.3149 80.5742 46.7204 80.5742C47.1259 80.5742 47.5148 80.7353 47.8016 81.022C48.0883 81.3088 48.2494 81.6977 48.2494 82.1032V95.4212C48.2496 95.6281 48.2079 95.8329 48.1266 96.0232C48.0454 96.2135 47.9264 96.3853 47.7768 96.5283C47.6272 96.6712 47.4501 96.7823 47.2564 96.8549C47.0626 96.9274 46.8561 96.9598 46.6494 96.9502H46.6464Z" fill="black"/>
<path d="M27.7305 103.508C27.7305 103.102 27.8916 102.714 28.1783 102.427C28.465 102.14 28.854 101.979 29.2595 101.979H54.7175C55.123 101.979 55.5119 102.14 55.7986 102.427C56.0854 102.714 56.2465 103.102 56.2465 103.508H27.7305ZM53.1885 105H30.7885Z" fill="black"/>
<path d="M63.9576 53.4209C65.1123 55.2316 65.6145 57.3822 65.3812 59.517C65.1479 61.6519 64.193 63.6432 62.6745 65.1618C61.1559 66.6803 59.1646 67.6352 57.0297 67.8685C54.8949 68.1018 52.7443 67.5996 50.9336 66.4449C51.6926 67.6351 52.7091 68.6398 53.9082 69.3848C55.1072 70.1299 56.4582 70.5963 57.8615 70.7496C59.2647 70.903 60.6846 70.7394 62.0162 70.2709C63.3479 69.8025 64.5574 69.0411 65.5556 68.0429C66.5538 67.0447 67.3152 65.8352 67.7836 64.5035C68.2521 63.1719 68.4157 61.7521 68.2623 60.3488C68.109 58.9455 67.6426 57.5945 66.8975 56.3955C66.1525 55.1964 65.1478 54.1799 63.9576 53.4209Z" fill="#E87E70"/>
<path d="M25.0907 72.3941C22.9007 72.3942 20.7599 71.7437 18.9402 70.5252C17.1204 69.3066 15.7037 67.5749 14.8698 65.5498C14.0358 63.5247 13.8223 61.2976 14.2563 59.1509C14.6902 57.0043 15.7521 55.035 17.3072 53.4928C18.8623 51.9507 20.8404 50.9053 22.9906 50.4893C25.1408 50.0733 27.3661 50.3055 29.3841 51.1563C31.4022 52.0071 33.122 53.4383 34.3253 55.2681C35.5286 57.098 36.1612 59.2441 36.1427 61.4341C36.1185 64.3493 34.9433 67.1368 32.8733 69.1896C30.8033 71.2424 28.006 72.3942 25.0907 72.3941V72.3941ZM25.0907 53.5121C23.5232 53.5079 21.9897 53.969 20.6843 54.8368C19.379 55.7046 18.3605 56.9403 17.7577 58.3873C17.155 59.8343 16.9951 61.4276 17.2984 62.9655C17.6016 64.5034 18.3544 65.9167 19.4613 67.0266C20.5682 68.1365 21.9796 68.893 23.5167 69.2003C25.0538 69.5077 26.6475 69.352 28.0961 68.7531C29.5447 68.1542 30.783 67.139 31.6543 65.8359C32.5256 64.5329 32.9907 63.0006 32.9907 61.4331C32.9907 59.3359 32.1591 57.3244 30.6781 55.8395C29.1972 54.3546 27.1879 53.5177 25.0907 53.5121Z" fill="black"/>
<path d="M58.9149 72.3941C56.7249 72.3942 54.5841 71.7437 52.7644 70.5252C50.9446 69.3066 49.5279 67.5749 48.694 65.5498C47.8601 63.5247 47.6465 61.2976 48.0805 59.1509C48.5145 57.0043 49.5763 55.035 51.1314 53.4928C52.6865 51.9507 54.6646 50.9053 56.8148 50.4893C58.965 50.0733 61.1903 50.3055 63.2083 51.1563C65.2264 52.0071 66.9462 53.4383 68.1495 55.2681C69.3528 57.098 69.9854 59.2441 69.9669 61.4341C69.9427 64.3493 68.7676 67.1368 66.6975 69.1896C64.6275 71.2424 61.8302 72.3942 58.9149 72.3941V72.3941ZM58.9149 53.5121C57.3474 53.5079 55.8139 53.969 54.5086 54.8368C53.2032 55.7046 52.1847 56.9403 51.5819 58.3873C50.9792 59.8343 50.8193 61.4276 51.1226 62.9655C51.4258 64.5034 52.1786 65.9167 53.2855 67.0266C54.3925 68.1365 55.8038 68.893 57.3409 69.2003C58.878 69.5077 60.4717 69.352 61.9203 68.7531C63.3689 68.1542 64.6072 67.139 65.4785 65.8359C66.3498 64.5329 66.8149 63.0006 66.8149 61.4331C66.8149 59.3359 65.9833 57.3244 64.5024 55.8395C63.0214 54.3546 61.0121 53.5177 58.9149 53.5121V53.5121Z" fill="black"/>
<path d="M124.857 1.52881H121.32V37.0078H124.857C126.61 37.0078 128.292 36.3116 129.532 35.0723C130.772 33.833 131.469 32.152 131.47 30.3988V8.14181C131.47 6.38793 130.774 4.70589 129.533 3.46571C128.293 2.22553 126.611 1.52881 124.857 1.52881V1.52881Z" fill="#E87E70"/>
<path d="M89.9507 47.674C89.8046 47.7006 89.6549 47.7006 89.5087 47.674C89.1958 47.5795 88.9214 47.3872 88.7258 47.1254C88.5302 46.8635 88.4236 46.5459 88.4217 46.219V38.537H86.4858C84.3279 38.532 82.2599 37.6726 80.734 36.1467C79.2082 34.6209 78.3488 32.5529 78.3438 30.395V8.142C78.3488 5.98415 79.2082 3.91611 80.734 2.39028C82.2599 0.864445 84.3279 0.00501797 86.4858 0L124.857 0C127.016 0 129.087 0.857815 130.614 2.38474C132.141 3.91166 132.999 5.98261 132.999 8.142V30.395C132.994 32.5529 132.134 34.6209 130.608 36.1467C129.083 37.6726 127.015 38.532 124.857 38.537H96.8407L91.3147 46.992C91.1658 47.2137 90.9619 47.393 90.7231 47.5125C90.4842 47.632 90.2185 47.6877 89.9517 47.674H89.9507ZM86.4858 3.058C85.1387 3.06222 83.848 3.59921 82.8955 4.55173C81.943 5.50425 81.406 6.79494 81.4017 8.142V30.395C81.406 31.7421 81.943 33.0327 82.8955 33.9853C83.848 34.9378 85.1387 35.4748 86.4858 35.479H89.9487C90.3543 35.479 90.7432 35.6401 91.0299 35.9268C91.3167 36.2136 91.4777 36.6025 91.4777 37.008V41.079L94.7567 36.161C94.895 35.9504 95.0836 35.7777 95.3056 35.6585C95.5276 35.5394 95.7758 35.4777 96.0278 35.479H124.857C126.204 35.4748 127.494 34.9378 128.447 33.9853C129.4 33.0327 129.937 31.7421 129.941 30.395V8.142C129.937 6.79494 129.4 5.50425 128.447 4.55173C127.494 3.59921 126.204 3.06222 124.857 3.058H86.4858Z" fill="black"/>
<path d="M94.9918 19.8804C95.3915 18.1873 94.3428 16.4907 92.6497 16.0911C90.9565 15.6915 89.2599 16.7401 88.8603 18.4333C88.4607 20.1264 89.5093 21.823 91.2025 22.2226C92.8957 22.6222 94.5922 21.5736 94.9918 19.8804Z" fill="black"/>
<path d="M105.769 22.3078C107.509 22.3078 108.919 20.8975 108.919 19.1578C108.919 17.4181 107.509 16.0078 105.769 16.0078C104.029 16.0078 102.619 17.4181 102.619 19.1578C102.619 20.8975 104.029 22.3078 105.769 22.3078Z" fill="black"/>
<path d="M122.661 19.675C122.94 17.9578 121.773 16.3398 120.056 16.061C118.339 15.7823 116.721 16.9484 116.442 18.6656C116.163 20.3828 117.33 22.0009 119.047 22.2796C120.764 22.5584 122.382 21.3922 122.661 19.675Z" fill="black"/>
</g>
<defs>
<clipPath id="clip0_1158_36">
<rect width="133" height="105" fill="white"/>
</clipPath>
</defs>
</svg>
