<svg width="106" height="105" viewBox="0 0 106 105" fill="none" xmlns="http://www.w3.org/2000/svg">
<g clip-path="url(#clip0_1158_3)">
<path d="M42.97 80.1169H37.224C36.3796 80.0958 35.5769 79.7454 34.9873 79.1407C34.3976 78.5359 34.0677 77.7246 34.068 76.8799V72.8329C32.3587 72.5067 30.6762 72.0524 29.035 71.4739L26.866 75.0509C26.4344 75.7642 25.7442 76.2834 24.9393 76.5004C24.1343 76.7175 23.2767 76.6155 22.545 76.2159L17.511 73.3029C16.7964 72.8723 16.2759 72.182 16.0586 71.3765C15.8413 70.5709 15.9439 69.7125 16.345 68.9809L18.445 65.3399C17.1331 64.2057 15.9052 62.9779 14.771 61.6659L11.13 63.7659C10.7715 63.9732 10.3756 64.1076 9.96506 64.1613C9.55448 64.2151 9.13733 64.1871 8.7376 64.079C8.33788 63.9709 7.96347 63.7849 7.63592 63.5315C7.30836 63.2782 7.03413 62.9626 6.829 62.6029L3.916 57.5719C3.51367 56.8423 3.40859 55.9855 3.62266 55.1802C3.83674 54.375 4.35344 53.6835 5.065 53.2499L8.706 51.1619C8.12735 49.5207 7.67307 47.8383 7.347 46.1289H3.236C2.39152 46.1289 1.58047 45.7989 0.975906 45.2093C0.371341 44.6197 0.0211316 43.8171 0 42.9729L0 37.2269C0.0010585 36.369 0.342333 35.5465 0.948972 34.9399C1.55561 34.3333 2.37808 33.992 3.236 33.9909H7.348C7.67123 32.2858 8.12558 30.6081 8.707 28.9729L5.066 26.8729C4.7054 26.6661 4.38936 26.3898 4.13614 26.0601C3.88292 25.7303 3.69754 25.3537 3.59071 24.952C3.48387 24.5502 3.4577 24.1312 3.51371 23.7193C3.56971 23.3074 3.70678 22.9106 3.917 22.5519L6.83 17.5179C7.26125 16.8084 7.94864 16.2917 8.75007 16.0747C9.5515 15.8577 10.4057 15.957 11.136 16.3519L14.777 18.4519C15.9107 17.1396 17.1386 15.9116 18.451 14.7779L16.351 11.1369C15.9557 10.4068 15.8562 9.5526 16.073 8.75112C16.2898 7.94964 16.8065 7.26217 17.516 6.83093L22.55 3.91893C23.2794 3.51682 24.1359 3.41175 24.9409 3.62562C25.7459 3.8395 26.4373 4.35581 26.871 5.06693L28.959 8.70793C30.6001 8.12913 32.2826 7.67484 33.992 7.34893V3.23893C33.9933 2.38179 34.3341 1.56007 34.9398 0.953602C35.5456 0.347135 36.3669 0.00530889 37.224 0.00292969L43.051 0.00292969C43.8812 0.0437947 44.6638 0.402749 45.2364 1.0053C45.8089 1.60785 46.1275 2.40772 46.126 3.23893V7.35093C47.4017 7.5937 48.6624 7.90921 49.902 8.29593C49.14 8.88693 48.39 9.51993 47.674 10.1819C46.727 9.93993 45.755 9.73893 44.783 9.58193C44.4865 9.54979 44.2123 9.40974 44.0124 9.18846C43.8125 8.96718 43.7009 8.68012 43.699 8.38193V3.23893C43.6987 3.04593 43.622 2.86092 43.4855 2.72445C43.349 2.58798 43.164 2.51119 42.971 2.51093H37.224C37.1967 2.50911 37.1693 2.50911 37.142 2.51093C37.0461 2.51119 36.9512 2.53037 36.8627 2.56738C36.7742 2.60438 36.6939 2.65848 36.6264 2.72657C36.5589 2.79466 36.5054 2.87541 36.4692 2.96419C36.4329 3.05296 36.4145 3.14803 36.415 3.24393V8.38693C36.416 8.67825 36.3118 8.96014 36.1214 9.18065C35.931 9.40116 35.6674 9.54545 35.379 9.58693C33.1643 9.93446 30.9937 10.5205 28.905 11.3349C28.6354 11.4367 28.3387 11.4405 28.0666 11.3458C27.7945 11.2512 27.5642 11.064 27.416 10.8169L24.762 6.28193C24.7079 6.19579 24.6371 6.12134 24.5538 6.06295C24.4705 6.00456 24.3764 5.96341 24.277 5.94193C24.0846 5.89554 23.8817 5.92452 23.71 6.02293L18.677 8.93593C18.5105 9.0312 18.3883 9.18822 18.3369 9.37297C18.2854 9.55772 18.3088 9.75532 18.402 9.92293L21.04 14.4539C21.2015 14.7117 21.2612 15.0203 21.2074 15.3197C21.1535 15.619 20.9901 15.8876 20.749 16.0729C18.9845 17.4811 17.3832 19.0824 15.975 20.8469C15.8634 20.9977 15.7179 21.1203 15.5503 21.2047C15.3827 21.2891 15.1976 21.333 15.01 21.3329C14.7771 21.3316 14.5498 21.262 14.356 21.1329L9.921 18.4529C9.75131 18.3596 9.55192 18.3361 9.36519 18.3875C9.17846 18.4388 9.01911 18.561 8.921 18.7279L6 23.7609C5.90744 23.9308 5.88438 24.1299 5.93568 24.3164C5.98697 24.5029 6.10861 24.6623 6.275 24.7609L10.806 27.3669C11.0563 27.5148 11.2458 27.7469 11.3407 28.0217C11.4356 28.2965 11.4297 28.5961 11.324 28.8669C10.5012 30.9529 9.91455 33.1244 9.575 35.3409C9.53078 35.6281 9.38571 35.8901 9.1658 36.0799C8.94588 36.2698 8.66552 36.3751 8.375 36.3769H3.236C3.20581 36.3731 3.17543 36.3711 3.145 36.3709C3.0393 36.3711 2.9349 36.3943 2.83905 36.4388C2.74319 36.4833 2.65816 36.5482 2.58986 36.6289C2.52156 36.7095 2.47162 36.8041 2.4435 36.906C2.41537 37.0079 2.40975 37.1146 2.427 37.2189V43.0459C2.44557 43.2249 2.52988 43.3907 2.66362 43.5112C2.79736 43.6316 2.97102 43.6981 3.151 43.6979C3.176 43.6979 3.204 43.6979 3.237 43.6979H8.384C8.67452 43.6998 8.95489 43.8051 9.1748 43.9949C9.39471 44.1848 9.53978 44.4468 9.584 44.7339C9.9244 46.9503 10.511 49.1217 11.333 51.2079C11.4347 51.4775 11.4386 51.7742 11.3439 52.0463C11.2493 52.3184 11.0621 52.5487 10.815 52.6969L6.279 55.3539C6.1128 55.4528 5.99132 55.6121 5.94005 55.7985C5.88878 55.985 5.9117 56.184 6.004 56.3539L8.917 61.3869C9.01511 61.5539 9.17446 61.676 9.36119 61.7274C9.54792 61.7787 9.74731 61.7553 9.917 61.6619L14.449 59.0399C14.7083 58.8836 15.0156 58.827 15.3135 58.8808C15.6115 58.9345 15.8797 59.0949 16.068 59.3319C17.4718 61.1246 19.0732 62.7532 20.842 64.1869C21.0839 64.3717 21.2479 64.6403 21.3019 64.9398C21.356 65.2394 21.2961 65.5483 21.134 65.8059L18.512 70.3379C18.4391 70.514 18.4391 70.7118 18.512 70.8879C18.5339 70.9831 18.5754 71.0727 18.634 71.1509C18.6925 71.2291 18.7668 71.2942 18.852 71.3419L23.885 74.2549C24.0671 74.3269 24.2699 74.3269 24.452 74.2549C24.5438 74.2305 24.6298 74.1878 24.7047 74.1294C24.7796 74.071 24.8419 73.998 24.888 73.9149L27.5 69.4029C27.5842 69.2194 27.7124 69.0595 27.8733 68.9374C28.0341 68.8153 28.2226 68.7347 28.422 68.7029L28.406 68.7839C28.4783 68.7711 28.5516 68.7648 28.625 68.7649C28.6984 68.7649 28.7717 68.7713 28.844 68.7839C30.9305 69.6048 33.1019 70.191 35.318 70.5319C35.6073 70.5767 35.8709 70.7237 36.061 70.9463C36.2511 71.1688 36.355 71.4522 36.354 71.7449V76.9569C36.3515 77.0662 36.3738 77.1746 36.4192 77.274C36.4646 77.3734 36.5318 77.4612 36.616 77.5309C36.7471 77.6393 36.9119 77.6987 37.082 77.6989C37.131 77.6993 37.1799 77.6946 37.228 77.6849H43.055C43.248 77.6847 43.433 77.6079 43.5695 77.4714C43.706 77.3349 43.7827 77.1499 43.783 76.9569V71.7479C43.782 71.4552 43.8859 71.1718 44.076 70.9493C44.2661 70.7267 44.5297 70.5797 44.819 70.5349C47.3706 70.1106 49.8748 69.4384 52.296 68.5279L52.328 68.5149C52.7178 70.0217 52.9217 71.5706 52.935 73.1269V73.3469C52.935 73.3799 52.935 73.4139 52.935 73.4469V74.0579L51.9 71.2149C50.0112 71.8782 48.0815 72.4186 46.123 72.8329V77.0249C46.0838 77.8428 45.7372 78.6157 45.1526 79.189C44.568 79.7622 43.7885 80.0937 42.97 80.1169ZM40.1 60.6949H40.04C34.7094 60.6695 29.5974 58.5725 25.7846 54.847C21.9718 51.1216 19.7569 46.0596 19.608 40.731C19.459 35.4023 21.3878 30.2246 24.9865 26.292C28.5853 22.3594 33.5721 19.9801 38.893 19.6569C39.319 19.6309 39.742 19.6179 40.153 19.6179C40.284 19.6179 40.398 19.6179 40.502 19.6179C40.129 20.3439 39.775 21.0969 39.451 21.8569C38.851 21.8759 38.251 21.9219 37.676 21.9939C35.2566 22.2492 32.9129 22.9863 30.7829 24.1618C28.653 25.3372 26.7799 26.9273 25.2742 28.8381C23.7685 30.7489 22.6607 32.9419 22.0159 35.2877C21.3712 37.6335 21.2027 40.0846 21.5203 42.4966C21.8379 44.9086 22.6353 47.2325 23.8653 49.3314C25.0953 51.4304 26.7331 53.2618 28.6822 54.7177C30.6312 56.1736 32.8521 57.2245 35.2137 57.8085C37.5754 58.3925 40.03 58.4977 42.433 58.1179C43.3575 57.997 44.2715 57.8058 45.167 57.5459C45.756 58.2179 46.381 58.8769 47.027 59.5039C45.629 60.0006 44.1817 60.3456 42.71 60.5329C41.8441 60.6404 40.9725 60.6945 40.1 60.6949V60.6949ZM52.393 6.53693L53 5.47293C53.3434 4.93983 53.8143 4.50073 54.37 4.19536C54.9258 3.88998 55.5489 3.72795 56.183 3.72393C56.577 3.72355 56.9685 3.78739 57.342 3.91293C55.6222 4.65048 53.966 5.5281 52.39 6.53693H52.393Z" fill="black"/>
<path d="M64.2932 78.3524V70.7294C64.3058 68.4116 63.8541 66.1147 62.9646 63.9744C62.0751 61.834 60.7659 59.8935 59.1142 58.2674C56.0299 55.3422 53.5902 51.8055 51.9512 47.8834C54.5767 51.7736 58.3454 54.7526 62.7368 56.409C67.1282 58.0653 71.9255 58.3172 76.4662 57.1299C81.0069 55.9425 85.0668 53.3746 88.0854 49.7807C91.1039 46.1869 92.932 41.7444 93.3172 37.0669C93.7025 32.3893 92.6258 27.7076 90.2359 23.6683C87.846 19.629 84.2609 16.4315 79.9756 14.5173C75.6904 12.6031 70.9165 12.0667 66.3133 12.9823C61.7101 13.8978 57.5048 16.2201 54.2782 19.6284C57.8364 13.9612 63.1471 9.61022 69.4035 7.23644C75.66 4.86266 82.5202 4.59579 88.9422 6.47639C93.2681 9.22272 96.917 12.9116 99.616 17.2672C102.315 21.6228 103.994 26.5322 104.528 31.6284C105.062 36.7245 104.437 41.8754 102.699 46.6958C100.961 51.5161 98.156 55.8812 94.4932 59.4644C92.648 61.2252 91.1712 63.3353 90.1487 65.6719C89.1262 68.0086 88.5784 70.5252 88.5372 73.0754L88.5692 77.4134L64.2932 78.3524V78.3524Z" fill="#409FD8"/>
<path d="M52.9328 79.9872C52.7769 79.9888 52.6223 79.9597 52.4778 79.9013C52.3333 79.843 52.2018 79.7566 52.0908 79.6471C51.9739 79.5334 51.8809 79.3976 51.817 79.2475C51.7531 79.0975 51.7198 78.9362 51.7188 78.7732V73.4482C51.7501 71.0412 51.293 68.653 50.3749 66.4278C49.4569 64.2026 48.0971 62.1868 46.3778 60.5022C41.3399 55.6392 37.8676 49.3838 36.405 42.5363C34.9425 35.6887 35.5563 28.5605 38.1678 22.0638C40.7794 15.5671 45.27 9.9973 51.0649 6.06716C56.8599 2.13702 63.6957 0.0252761 70.6977 0.0021452C77.6996 -0.0209857 84.5492 2.04555 90.3701 5.93732C96.1909 9.82908 100.718 15.3691 103.373 21.8484C106.027 28.3277 106.688 35.4517 105.271 42.3088C103.853 49.1658 100.422 55.4441 95.4168 60.3402C93.6759 61.9784 92.2828 63.9505 91.3207 66.1388C90.3586 68.3271 89.8471 70.6868 89.8168 73.0771V77.4142C89.817 77.7278 89.6959 78.0294 89.4787 78.2557C89.2615 78.482 88.9652 78.6155 88.6518 78.6282L53.0458 79.9872H52.9328ZM70.7328 2.43115H68.9068C62.5312 2.77617 56.3956 4.97782 51.2552 8.76512C46.1148 12.5524 42.194 17.7601 39.9753 23.7471C37.7566 29.7341 37.3368 36.2393 38.7677 42.4618C40.1986 48.6843 43.4177 54.3527 48.0288 58.7691C49.9644 60.6677 51.5 62.9347 52.5451 65.4364C53.5902 67.9382 54.1236 70.6239 54.1138 73.3352V77.5272L87.3248 76.2482V73.0112C87.3524 70.2955 87.927 67.6132 89.0142 65.1245C90.1014 62.6358 91.679 60.3917 93.6528 58.5261C98.3132 53.9852 101.512 48.1566 102.84 41.7867C104.168 35.4167 103.565 28.7954 101.107 22.7705C98.6492 16.7456 94.4491 11.5914 89.0445 7.96791C83.6398 4.34441 77.2767 2.41654 70.7698 2.43115H70.7328Z" fill="black"/>
<path d="M78.8433 103.786H71.3173C70.3936 103.788 69.4785 103.608 68.6245 103.256C67.7704 102.904 66.9942 102.387 66.3403 101.735C65.6863 101.082 65.1675 100.307 64.8135 99.4538C64.4596 98.6006 64.2773 97.6859 64.2773 96.7621V96.7621L85.3173 95.9531V97.3131C85.3171 99.03 84.6349 100.676 83.4208 101.89C82.2067 103.104 80.5602 103.786 78.8433 103.786V103.786Z" fill="#409FD8"/>
<path d="M79.1527 105H62.3527C60.3954 105 58.5182 104.223 57.1342 102.839C55.7502 101.455 54.9727 99.5775 54.9727 97.6202V97.0702C54.9725 96.7539 55.0959 96.45 55.3165 96.2232C55.5371 95.9965 55.8374 95.8648 56.1537 95.8562L85.2857 94.7392C85.4477 94.7244 85.611 94.7474 85.7626 94.8064C85.9143 94.8654 86.0502 94.9588 86.1597 95.0792C86.2788 95.1912 86.3734 95.3267 86.4374 95.4772C86.5014 95.6276 86.5335 95.7897 86.5317 95.9532V97.5712C86.5381 98.5445 86.352 99.5094 85.984 100.41C85.616 101.312 85.0734 102.131 84.3875 102.821C83.7016 103.512 82.8858 104.06 81.9872 104.434C81.0886 104.808 80.1249 105 79.1517 105H79.1527ZM57.4527 98.2352C57.598 99.4241 58.1706 100.52 59.0638 101.318C59.9571 102.115 61.11 102.561 62.3077 102.572H79.1527C80.466 102.572 81.7256 102.05 82.6542 101.122C83.5829 100.193 84.1047 98.9336 84.1047 97.6202V97.2202L57.4527 98.2352Z" fill="black"/>
<path d="M49.695 79.3623C49.373 79.3665 49.0625 79.2427 48.8318 79.018C48.6012 78.7933 48.4692 78.4862 48.4649 78.1643C48.4607 77.8423 48.5845 77.5318 48.8092 77.3012C49.0339 77.0705 49.341 76.9385 49.6629 76.9343L91.742 75.3153C91.9011 75.3065 92.0603 75.33 92.2102 75.3844C92.36 75.4388 92.4972 75.523 92.6136 75.6318C92.73 75.7407 92.8232 75.8719 92.8876 76.0178C92.9519 76.1636 92.986 76.3209 92.988 76.4803C92.9963 76.6401 92.9726 76.8 92.9182 76.9505C92.8638 77.101 92.7799 77.2391 92.6713 77.3567C92.5628 77.4743 92.4318 77.569 92.2861 77.6352C92.1404 77.7014 91.9829 77.7378 91.823 77.7423L49.7429 79.3603L49.695 79.3623Z" fill="#006D33"/>
<path d="M49.695 85.771C49.373 85.7752 49.0625 85.6514 48.8318 85.4267C48.6012 85.202 48.4692 84.8949 48.4649 84.573C48.4607 84.251 48.5845 83.9405 48.8092 83.7098C49.0339 83.4792 49.341 83.3472 49.6629 83.343L91.742 81.724C91.9011 81.7152 92.0603 81.7387 92.2102 81.7931C92.36 81.8475 92.4972 81.9317 92.6136 82.0405C92.73 82.1494 92.8232 82.2806 92.8876 82.4265C92.9519 82.5723 92.986 82.7296 92.988 82.889C92.9963 83.0488 92.9726 83.2087 92.9182 83.3592C92.8638 83.5097 92.7799 83.6478 92.6713 83.7654C92.5628 83.883 92.4318 83.9777 92.2861 84.0439C92.1404 84.1101 91.9829 84.1465 91.823 84.151L49.7429 85.769L49.695 85.771Z" fill="#006D33"/>
<path d="M49.695 92.0523C49.373 92.0566 49.0625 91.9327 48.8318 91.7081C48.6012 91.4834 48.4692 91.1763 48.4649 90.8543C48.4607 90.5324 48.5845 90.2219 48.8092 89.9912C49.0339 89.7605 49.341 89.6286 49.6629 89.6243L91.742 88.0063C91.9036 87.9972 92.0655 88.0205 92.218 88.0748C92.3706 88.1291 92.5107 88.2133 92.6302 88.3226C92.7497 88.4318 92.8462 88.5638 92.914 88.7109C92.9818 88.8579 93.0194 89.0171 93.0248 89.1789C93.0302 89.3407 93.0032 89.502 92.9454 89.6532C92.8876 89.8045 92.8001 89.9426 92.6882 90.0596C92.5762 90.1766 92.442 90.27 92.2934 90.3343C92.1448 90.3987 91.9849 90.4327 91.823 90.4343L49.7429 92.0523H49.695Z" fill="black"/>
<path d="M49.6949 98.5264C49.3813 98.5266 49.0797 98.4055 48.8534 98.1883C48.627 97.9711 48.4936 97.6748 48.4809 97.3614C48.4722 97.038 48.5913 96.7242 48.8124 96.488C49.0334 96.2518 49.3387 96.1122 49.6619 96.0994L91.7419 94.4794C91.9016 94.4683 92.0618 94.4901 92.2126 94.5437C92.3635 94.5972 92.5017 94.6813 92.6186 94.7906C92.7355 94.8999 92.8286 95.0321 92.8922 95.179C92.9557 95.3259 92.9883 95.4843 92.9879 95.6444C92.9962 95.8042 92.9725 95.9641 92.9181 96.1146C92.8638 96.2651 92.7798 96.4032 92.6713 96.5208C92.5627 96.6384 92.4317 96.7331 92.286 96.7993C92.1404 96.8655 91.9829 96.9019 91.8229 96.9064L49.7429 98.5244L49.6949 98.5264Z" fill="black"/>
<path d="M52.1222 98.4302C51.9664 98.4319 51.8117 98.4028 51.6672 98.3444C51.5227 98.286 51.3912 98.1997 51.2802 98.0902C51.1634 97.9765 51.0703 97.8406 51.0064 97.6906C50.9426 97.5406 50.9092 97.3793 50.9082 97.2162V90.7432C50.9082 90.4281 51.0321 90.1255 51.2533 89.901C51.4745 89.6765 51.7751 89.548 52.0902 89.5432L89.3142 88.1032C89.4758 88.0932 89.6377 88.1184 89.7886 88.1771C89.9395 88.2358 90.0759 88.3266 90.1882 88.4432C90.3064 88.5559 90.4004 88.6916 90.4644 88.8419C90.5283 88.9921 90.5609 89.1539 90.5602 89.3172V95.7912C90.5605 96.1049 90.4393 96.4065 90.2221 96.6328C90.005 96.8591 89.7086 96.9926 89.3952 97.0052L52.1702 98.4302H52.1222ZM53.3362 91.9562V96.0022L88.1362 94.6592V90.6122L53.3362 91.9562Z" fill="black"/>
<path d="M52.1222 91.955C51.9664 91.9567 51.8117 91.9275 51.6672 91.8692C51.5227 91.8108 51.3912 91.7244 51.2802 91.615C51.1634 91.5013 51.0703 91.3654 51.0064 91.2154C50.9426 91.0653 50.9092 90.9041 50.9082 90.741V84.269C50.9082 83.9539 51.0321 83.6513 51.2533 83.4268C51.4745 83.2023 51.7751 83.0737 52.0902 83.069L89.3142 81.629C89.4755 81.622 89.6365 81.6487 89.7869 81.7072C89.9374 81.7657 90.074 81.8549 90.1882 81.969C90.3064 82.0817 90.4004 82.2174 90.4644 82.3676C90.5283 82.5179 90.5609 82.6797 90.5602 82.843V89.317C90.5605 89.6307 90.4393 89.9323 90.2221 90.1586C90.005 90.3849 89.7086 90.5184 89.3952 90.531L52.1702 91.955H52.1222ZM53.3362 85.481V89.527L88.1362 88.184V84.138L53.3362 85.481Z" fill="black"/>
<path d="M52.1222 85.688C51.9664 85.6897 51.8117 85.6605 51.6672 85.6022C51.5227 85.5438 51.3912 85.4574 51.2802 85.348C51.1634 85.2343 51.0703 85.0984 51.0064 84.9484C50.9426 84.7983 50.9092 84.6371 50.9082 84.474V78.001C50.9121 77.6859 51.0367 77.3842 51.2565 77.1583C51.4762 76.9325 51.7743 76.7995 52.0892 76.787L89.3132 75.363C89.4748 75.3529 89.6367 75.3781 89.7876 75.4368C89.9385 75.4955 90.0749 75.5864 90.1872 75.703C90.3063 75.815 90.4009 75.9505 90.4649 76.101C90.529 76.2514 90.5611 76.4135 90.5592 76.577V83.051C90.5595 83.3647 90.4383 83.6662 90.2211 83.8926C90.0039 84.1189 89.7076 84.2523 89.3942 84.265L52.1702 85.688H52.1222ZM53.3362 79.214V83.26L88.1362 81.917V77.87L53.3362 79.214Z" fill="black"/>
<path d="M70.7827 57.5592C69.1504 57.5554 67.523 57.3818 65.9267 57.0412C62.681 52.9312 60.9607 47.8232 61.0587 42.5872L68.1107 49.6302L86.2257 31.5692L80.0107 25.3492L68.1147 37.2182L63.5587 32.6622C63.8497 32.0952 64.1677 31.5362 64.5037 30.9992C66.9768 27.0393 70.6133 23.9405 74.9155 22.1271C79.2176 20.3138 83.9751 19.8744 88.5367 20.8692C91.6984 24.8612 93.4106 29.8087 93.3927 34.9012C93.3924 40.9021 91.0117 46.6578 86.773 50.9056C82.5342 55.1533 76.7835 57.5462 70.7827 57.5592V57.5592Z" fill="#409FD8"/>
<path d="M70.7333 59.076C66.0119 59.076 61.3965 57.676 57.4708 55.0529C53.545 52.4298 50.4853 48.7015 48.6785 44.3395C46.8717 39.9774 46.3989 35.1776 47.32 30.5468C48.2411 25.9161 50.5147 21.6625 53.8533 18.324C57.1918 14.9854 61.4454 12.7118 66.0761 11.7907C70.7069 10.8696 75.5067 11.3424 79.8688 13.1492C84.2308 14.956 87.9591 18.0157 90.5822 21.9415C93.2053 25.8672 94.6053 30.4826 94.6053 35.204C94.6053 41.5353 92.0903 47.6072 87.6134 52.0841C83.1365 56.561 77.0646 59.076 70.7333 59.076V59.076ZM70.7333 13.759C66.4922 13.7592 62.3464 15.0171 58.8201 17.3734C55.2938 19.7298 52.5454 23.0789 50.9225 26.9972C49.2996 30.9156 48.875 35.2272 49.7024 39.3868C50.5299 43.5464 52.5722 47.3673 55.5711 50.3662C58.5701 53.3652 62.3909 55.4075 66.5506 56.235C70.7102 57.0624 75.0218 56.6378 78.9401 55.0149C82.8585 53.392 86.2076 50.6436 88.564 47.1173C90.9203 43.591 92.1781 39.4452 92.1783 35.204C92.1783 32.3879 91.6236 29.5993 90.5459 26.9975C89.4682 24.3958 87.8885 22.0318 85.8972 20.0405C83.9058 18.0492 81.5417 16.4697 78.9399 15.3921C76.3381 14.3145 73.5495 13.7599 70.7333 13.76V13.759Z" fill="black"/>
<path d="M68.1151 50.8501C67.9552 50.8538 67.7963 50.824 67.6485 50.7627C67.5008 50.7014 67.3675 50.6099 67.2571 50.4941L54.4391 37.6941C54.2117 37.4665 54.084 37.1579 54.084 36.8361C54.084 36.5144 54.2117 36.2058 54.4391 35.9781L60.6541 29.7631C60.8816 29.5354 61.1902 29.4073 61.5121 29.4071V29.4071C61.834 29.4073 62.1426 29.5354 62.3701 29.7631L68.1161 35.5081L79.1521 24.5021C79.3798 24.2747 79.6884 24.147 80.0101 24.147C80.3319 24.147 80.6405 24.2747 80.8681 24.5021L87.0831 30.7171C87.3105 30.9448 87.4383 31.2534 87.4383 31.5751C87.4383 31.8969 87.3105 32.2055 87.0831 32.4331L68.9721 50.5101C68.7404 50.7289 68.4338 50.8505 68.1151 50.8501V50.8501ZM57.0151 36.9151L68.1151 48.0011L84.4931 31.5741L80.0101 27.0741L68.9721 38.0801C68.7445 38.3075 68.4359 38.4353 68.1141 38.4353C67.7924 38.4353 67.4838 38.3075 67.2561 38.0801L61.4471 32.3361L57.0151 36.9151Z" fill="black"/>
</g>
<defs>
<clipPath id="clip0_1158_3">
<rect width="105.999" height="105" fill="white"/>
</clipPath>
</defs>
</svg>
