<svg width="138" height="105" viewBox="0 0 138 105" fill="none" xmlns="http://www.w3.org/2000/svg">
<g clip-path="url(#clip0_1158_141)">
<path d="M42.8941 90.5522C42.5228 90.5522 42.1667 90.4047 41.9042 90.1421C41.6416 89.8796 41.4941 89.5235 41.4941 89.1522V61.0602C41.4941 60.6889 41.6416 60.3328 41.9042 60.0702C42.1667 59.8077 42.5228 59.6602 42.8941 59.6602C43.2654 59.6602 43.6215 59.8077 43.8841 60.0702C44.1466 60.3328 44.2941 60.6889 44.2941 61.0602V89.1502C44.2941 89.5215 44.1466 89.8776 43.8841 90.1401C43.6215 90.4027 43.2654 90.5502 42.8941 90.5502V90.5522Z" fill="black"/>
<path d="M29.2731 74.2048H16.1461C15.7748 74.2048 15.4187 74.0573 15.1561 73.7947C14.8936 73.5322 14.7461 73.1761 14.7461 72.8048C14.7461 72.4335 14.8936 72.0774 15.1561 71.8148C15.4187 71.5523 15.7748 71.4048 16.1461 71.4048H27.8561L27.8721 62.5968C27.8721 62.2255 28.0196 61.8694 28.2821 61.6068C28.5447 61.3443 28.9008 61.1968 29.2721 61.1968C29.6434 61.1968 29.9995 61.3443 30.262 61.6068C30.5246 61.8694 30.6721 62.2255 30.6721 62.5968L30.6561 72.8058C30.6561 73.1745 30.5107 73.5283 30.2514 73.7905C29.992 74.0526 29.6398 74.2018 29.2711 74.2058L29.2731 74.2048Z" fill="black"/>
<path d="M120.805 30.7949H107.613C107.429 30.7949 107.247 30.8311 107.077 30.9015C106.907 30.9718 106.753 31.075 106.623 31.205C106.493 31.335 106.39 31.4893 106.319 31.6592C106.249 31.829 106.213 32.0111 106.213 32.1949V41.0649C106.213 41.4362 106.36 41.7923 106.623 42.0549C106.885 42.3174 107.242 42.4649 107.613 42.4649C107.984 42.4649 108.34 42.3174 108.603 42.0549C108.865 41.7923 109.013 41.4362 109.013 41.0649V33.6299H120.803C121.174 33.6299 121.53 33.4824 121.793 33.2199C122.055 32.9573 122.203 32.6012 122.203 32.2299C122.203 31.8586 122.055 31.5025 121.793 31.24C121.53 30.9774 121.174 30.8299 120.803 30.8299L120.805 30.7949Z" fill="black"/>
<path d="M137.266 32.2562C137.269 33.9643 136.766 35.635 135.819 37.0567C134.872 38.4785 133.525 39.5875 131.948 40.2434C130.371 40.8993 128.634 41.0725 126.959 40.7412C125.283 40.4099 123.743 39.589 122.534 38.3823C121.325 37.1756 120.501 35.6373 120.167 33.9623C119.833 32.2872 120.003 30.5506 120.656 28.9722C121.309 27.3938 122.415 26.0445 123.835 25.0952C125.255 24.1459 126.925 23.6392 128.633 23.6392C130.92 23.6392 133.113 24.5465 134.732 26.162C136.35 27.7776 137.262 29.9693 137.266 32.2562V32.2562ZM134.466 32.2562C134.469 31.1022 134.13 29.9733 133.491 29.0123C132.852 28.0513 131.943 27.3014 130.878 26.8576C129.812 26.4138 128.639 26.2961 127.507 26.5193C126.375 26.7424 125.335 27.2965 124.518 28.1114C123.7 28.9262 123.144 29.9652 122.917 31.0967C122.691 32.2282 122.805 33.4015 123.246 34.4679C123.687 35.5343 124.435 36.4459 125.394 37.0873C126.353 37.7288 127.481 38.0712 128.635 38.0712C130.179 38.0712 131.659 37.459 132.752 36.369C133.846 35.2789 134.462 33.7999 134.466 32.2562V32.2562Z" fill="black"/>
<path d="M51.266 96.2562C51.2692 97.9643 50.7655 99.635 49.8189 101.057C48.8722 102.479 47.525 103.588 45.9478 104.243C44.3706 104.899 42.6343 105.073 40.9586 104.741C39.2829 104.41 37.7432 103.589 36.5342 102.382C35.3253 101.176 34.5015 99.6373 34.1671 97.9623C33.8327 96.2872 34.0027 94.5506 34.6556 92.9722C35.3086 91.3938 36.4151 90.0445 37.8351 89.0952C39.2551 88.1459 40.9249 87.6392 42.633 87.6392C44.9198 87.6392 47.1133 88.5465 48.7318 90.162C50.3503 91.7776 51.2617 93.9693 51.266 96.2562V96.2562ZM48.466 96.2562C48.4692 95.1022 48.1299 93.9733 47.4911 93.0123C46.8523 92.0513 45.9427 91.3014 44.8775 90.8576C43.8123 90.4138 42.6394 90.2961 41.5073 90.5193C40.3751 90.7424 39.3346 91.2965 38.5175 92.1114C37.7005 92.9262 37.1435 93.9652 36.9172 95.0967C36.6909 96.2282 36.8055 97.4015 37.2463 98.4679C37.6872 99.5343 38.4346 100.446 39.3938 101.087C40.353 101.729 41.481 102.071 42.635 102.071C44.1787 102.071 45.6594 101.459 46.7525 100.369C47.8456 99.2789 48.4618 97.7999 48.466 96.2562V96.2562Z" fill="black"/>
<path d="M17.266 72.2562C17.2692 73.9643 16.7655 75.635 15.8189 77.0567C14.8722 78.4785 13.525 79.5875 11.9478 80.2434C10.3706 80.8993 8.6343 81.0725 6.95861 80.7412C5.28292 80.4099 3.74316 79.589 2.53421 78.3823C1.32527 77.1756 0.501463 75.6373 0.167058 73.9623C-0.167347 72.2872 0.00268269 70.5506 0.655621 68.9722C1.30856 67.3938 2.41506 66.0445 3.8351 65.0952C5.25513 64.1459 6.92487 63.6392 8.63299 63.6392C10.9198 63.6392 13.1133 64.5465 14.7318 66.162C16.3503 67.7776 17.2617 69.9693 17.266 72.2562V72.2562ZM14.466 72.2562C14.4692 71.1022 14.1299 69.9733 13.4911 69.0123C12.8523 68.0513 11.9427 67.3014 10.8775 66.8576C9.81233 66.4138 8.63942 66.2961 7.50726 66.5193C6.3751 66.7424 5.33462 67.2965 4.51754 68.1114C3.70046 68.9262 3.14352 69.9652 2.91723 71.0967C2.69094 72.2282 2.80547 73.4015 3.24633 74.4679C3.6872 75.5343 4.43456 76.4459 5.3938 77.0873C6.35305 77.7288 7.48105 78.0712 8.63499 78.0712C10.1787 78.0712 11.6594 77.459 12.7525 76.369C13.8456 75.2789 14.4618 73.7999 14.466 72.2562V72.2562Z" fill="black"/>
<path d="M94.652 14.4959C94.3153 14.4656 93.9802 14.5684 93.7185 14.7823C93.4568 14.9961 93.2893 15.304 93.252 15.6399V38.5329C93.3189 38.8547 93.4947 39.1436 93.7497 39.351C94.0047 39.5583 94.3233 39.6716 94.652 39.6716C94.9806 39.6716 95.2993 39.5583 95.5542 39.351C95.8092 39.1436 95.985 38.8547 96.052 38.5329V15.5959C96.0024 15.2689 95.8299 14.973 95.5698 14.7687C95.3097 14.5643 94.9815 14.4668 94.652 14.4959V14.4959Z" fill="black"/>
<path d="M103.28 8.617C103.283 10.3251 102.779 11.9957 101.833 13.4175C100.886 14.8393 99.5388 15.9483 97.9617 16.6042C96.3846 17.26 94.6483 17.4334 92.9726 17.1021C91.297 16.7709 89.7572 15.9501 88.5482 14.7435C87.3393 13.5369 86.5154 11.9987 86.1809 10.3237C85.8463 8.64871 86.0162 6.91212 86.669 5.33369C87.3218 3.75527 88.4281 2.40596 89.848 1.45653C91.2679 0.507092 92.9376 0.000200849 94.6457 5.97336e-08C96.9327 -0.000268784 99.1264 0.906963 100.745 2.52253C102.364 4.13811 103.275 6.32999 103.28 8.617V8.617ZM100.461 8.617C100.446 7.27311 99.966 5.97585 99.1027 4.94582C98.2394 3.9158 97.0459 3.21661 95.7253 2.96716C94.4047 2.71771 93.0384 2.93341 91.8589 3.57757C90.6794 4.22173 89.7594 5.25458 89.2554 6.50046C88.7514 7.74635 88.6945 9.12836 89.0944 10.4114C89.4943 11.6945 90.3263 12.7995 91.449 13.5384C92.5716 14.2773 93.9155 14.6045 95.2521 14.4644C96.5888 14.3244 97.8356 13.7256 98.7807 12.77C99.3217 12.2234 99.749 11.5749 100.038 10.862C100.326 10.1491 100.471 9.38607 100.463 8.617H100.461Z" fill="black"/>
<path d="M55.8321 65.636H36.8321C34.7131 65.636 32.1621 64.636 29.4561 62.747C26.7766 60.8221 24.3902 58.5192 22.3711 55.91C24.8927 58.0263 28.0791 59.1869 31.3711 59.188H55.8311V65.63L55.8321 65.636ZM81.7991 39.364H75.3571V15.21C75.341 11.5435 73.8939 8.02832 71.324 5.41324C68.7541 2.79816 65.2647 1.28995 61.5991 1.20996H61.6321C63.8325 1.27606 66.0038 1.73178 68.0451 2.55596C70.3771 3.45086 72.5851 4.64052 74.6151 6.09596C79.1801 9.37496 81.7991 13.269 81.7991 16.782V39.363V39.364Z" fill="#E87E70"/>
<path d="M55.8301 66.843H39.9191C33.6197 66.8385 27.5797 64.3341 23.1253 59.8798C18.671 55.4254 16.1666 49.3854 16.1621 43.086V23.757C16.1666 17.4576 18.671 11.4176 23.1253 6.96324C27.5797 2.50891 33.6197 0.00450286 39.9191 0L59.2481 0C65.5464 0.00820181 71.5845 2.51377 76.0381 6.96726C80.4918 11.4208 82.9976 17.4587 83.0061 23.757V39.364H80.5891V23.757C80.5704 18.1028 78.316 12.6855 74.3178 8.68731C70.3196 4.68915 64.9023 2.43472 59.2481 2.416H39.9191C34.263 2.42868 28.8422 4.68117 24.8427 8.68064C20.8433 12.6801 18.5908 18.1009 18.5781 23.757V43.086C18.5908 48.7421 20.8433 54.1629 24.8427 58.1624C28.8422 62.1618 34.263 64.4143 39.9191 64.427H55.8301V66.842V66.843Z" fill="black"/>
<path d="M37.4213 32.9071C36.0732 32.9201 34.7459 32.5743 33.5755 31.9051C32.4051 31.2358 31.4339 30.2673 30.7613 29.0989C30.0887 27.9305 29.7391 26.6041 29.7482 25.256C29.7574 23.9078 30.125 22.5864 30.8133 21.4271C30.9211 21.2452 31.0742 21.0943 31.2577 20.9892C31.4412 20.884 31.6488 20.8282 31.8603 20.8271H42.9603C43.1718 20.8282 43.3794 20.884 43.5629 20.9892C43.7464 21.0943 43.8995 21.2452 44.0073 21.4271C44.6848 22.5877 45.0439 23.9066 45.0484 25.2504C45.053 26.5942 44.7028 27.9154 44.0331 29.0805C43.3635 30.2457 42.3983 31.2134 41.2349 31.886C40.0715 32.5586 38.7511 32.9122 37.4073 32.9111L37.4213 32.9071ZM32.5893 23.2431C32.3013 23.8751 32.153 24.5617 32.1543 25.2561C32.1543 26.6446 32.7058 27.9761 33.6876 28.9579C34.6694 29.9396 36.0009 30.4911 37.3893 30.4911C38.7777 30.4911 40.1093 29.9396 41.091 28.9579C42.0728 27.9761 42.6243 26.6446 42.6243 25.2561C42.6307 24.5629 42.4878 23.8763 42.2053 23.2431H32.5893Z" fill="black"/>
<path d="M61.5425 32.9072C60.198 32.9105 58.8765 32.5587 57.7115 31.8874C56.5466 31.2161 55.5796 30.2491 54.9083 29.0841C54.2371 27.9192 53.8853 26.5976 53.8887 25.2531C53.8921 23.9086 54.2504 22.5888 54.9275 21.4272C55.0354 21.2453 55.1885 21.0944 55.372 20.9892C55.5554 20.8841 55.7631 20.8283 55.9745 20.8272H67.0745C67.2867 20.825 67.4955 20.8795 67.6796 20.9849C67.8636 21.0904 68.0162 21.2431 68.1215 21.4272C68.8092 22.5854 69.1768 23.9056 69.1865 25.2525C69.1963 26.5995 68.8478 27.9248 68.1769 29.0928C67.506 30.2608 66.5368 31.2295 65.3684 31.8998C64.2 32.57 62.8745 32.9177 61.5275 32.9072H61.5425ZM56.7105 23.2432C56.4281 23.8764 56.2852 24.5629 56.2915 25.2562C56.2915 25.9437 56.4269 26.6244 56.69 27.2596C56.9531 27.8947 57.3387 28.4718 57.8248 28.9579C58.3109 29.444 58.888 29.8296 59.5232 30.0927C60.1583 30.3558 60.8391 30.4912 61.5265 30.4912C62.214 30.4912 62.8947 30.3558 63.5299 30.0927C64.165 29.8296 64.7421 29.444 65.2282 28.9579C65.7144 28.4718 66.1 27.8947 66.363 27.2596C66.6261 26.6244 66.7615 25.9437 66.7615 25.2562C66.7626 24.5617 66.6139 23.8751 66.3255 23.2432H56.7105Z" fill="black"/>
<path d="M62.3855 40.8852H33.3935C33.0732 40.8852 32.7659 40.758 32.5394 40.5314C32.3128 40.3049 32.1855 39.9976 32.1855 39.6772C32.1855 39.3569 32.3128 39.0496 32.5394 38.8231C32.7659 38.5965 33.0732 38.4692 33.3935 38.4692H62.3855C62.7059 38.4692 63.0132 38.5965 63.2397 38.8231C63.4663 39.0496 63.5935 39.3569 63.5935 39.6772C63.5935 39.9976 63.4663 40.3049 63.2397 40.5314C63.0132 40.758 62.7059 40.8852 62.3855 40.8852V40.8852Z" fill="black"/>
<path d="M41.4407 52.1368C38.9859 52.1323 36.6329 51.1552 34.8971 49.4194C33.1613 47.6836 32.1842 45.3306 32.1797 42.8758V39.6538C32.1838 39.3347 32.3124 39.0299 32.5381 38.8042C32.7637 38.5785 33.0686 38.4499 33.3877 38.4458H49.4947C49.8151 38.4458 50.1223 38.5731 50.3489 38.7996C50.5754 39.0262 50.7027 39.3334 50.7027 39.6538V42.8748C50.7027 45.331 49.727 47.6865 47.9902 49.4233C46.2534 51.1601 43.8979 52.1358 41.4417 52.1358L41.4407 52.1368ZM34.5957 40.8618V42.8748C34.5957 44.6903 35.3169 46.4315 36.6007 47.7153C37.8845 48.9991 39.6256 49.7203 41.4412 49.7203C43.2567 49.7203 44.9979 48.9991 46.2817 47.7153C47.5655 46.4315 48.2867 44.6903 48.2867 42.8748V40.8618H34.5957Z" fill="black"/>
<path d="M43.8655 16.9121H30.9795C30.6591 16.9121 30.3518 16.7848 30.1253 16.5583C29.8988 16.3317 29.7715 16.0245 29.7715 15.7041C29.7715 15.3837 29.8988 15.0765 30.1253 14.8499C30.3518 14.6234 30.6591 14.4961 30.9795 14.4961H43.8655C44.1859 14.4961 44.4931 14.6234 44.7197 14.8499C44.9462 15.0765 45.0735 15.3837 45.0735 15.7041C45.0735 16.0245 44.9462 16.3317 44.7197 16.5583C44.4931 16.7848 44.1859 16.9121 43.8655 16.9121V16.9121Z" fill="black"/>
<path d="M67.9866 16.9121H55.1006C54.7802 16.9121 54.4729 16.7848 54.2464 16.5583C54.0198 16.3317 53.8926 16.0245 53.8926 15.7041C53.8926 15.3837 54.0198 15.0765 54.2464 14.8499C54.4729 14.6234 54.7802 14.4961 55.1006 14.4961H67.9866C68.307 14.4961 68.6142 14.6234 68.8408 14.8499C69.0673 15.0765 69.1946 15.3837 69.1946 15.7041C69.1946 16.0245 69.0673 16.3317 68.8408 16.5583C68.6142 16.7848 68.307 16.9121 67.9866 16.9121V16.9121Z" fill="black"/>
<path d="M101.24 103.793H76.14C73.5823 103.595 71.1297 102.691 69.056 101.181C66.4085 99.416 64.0083 97.3057 61.919 94.9059C64.247 96.5055 67.0065 97.3593 69.831 97.3539H99.816C103.528 97.3499 107.087 95.8736 109.711 93.249C112.336 90.6243 113.812 87.0657 113.816 83.3539V53.3649C113.826 50.3818 112.878 47.4743 111.113 45.0697C109.347 42.6651 106.857 40.8902 104.008 40.0059C107.5 40.7059 111.564 43.4129 114.878 47.2509C118.192 51.0889 120.178 55.3899 120.178 58.7439V82.6649C120.053 84.965 119.414 87.2078 118.307 89.2279C117.034 91.7149 115.455 94.0329 113.607 96.1279C111.818 98.2184 109.75 100.052 107.46 101.578C105.634 102.883 103.48 103.65 101.24 103.793V103.793ZM55.837 83.8409C55.7792 83.4515 55.7495 83.0585 55.748 82.6649V58.2519C55.7491 57.8863 55.7768 57.5213 55.831 57.1599V83.3499C55.831 83.5119 55.831 83.6769 55.84 83.8409H55.837Z" fill="#E87E70"/>
<path d="M97.627 105H78.299C71.9993 104.996 65.9588 102.491 61.5043 98.0365C57.0497 93.582 54.5453 87.5415 54.541 81.2418V61.9138C54.5453 55.614 57.0497 49.5736 61.5043 45.119C65.9588 40.6644 71.9993 38.16 78.299 38.1558H97.627C103.925 38.1653 109.962 40.6715 114.415 45.1251C118.867 49.5786 121.373 55.616 121.381 61.9138V81.2418C121.377 87.5408 118.873 93.5807 114.419 98.0351C109.965 102.49 103.926 104.994 97.627 105V105ZM78.299 40.5718C72.6414 40.5802 67.2179 42.8315 63.2173 46.832C59.2167 50.8326 56.9655 56.2561 56.957 61.9138V81.2418C56.9615 86.9005 59.2115 92.3262 63.213 96.3275C67.2144 100.329 72.6402 102.579 78.299 102.583H97.627C103.284 102.574 108.707 100.323 112.708 96.3225C116.708 92.3222 118.959 86.8991 118.968 81.2418V61.9138C118.96 56.2563 116.708 50.8329 112.708 46.8324C108.708 42.8319 103.284 40.5805 97.627 40.5718H78.299Z" fill="black"/>
<path d="M108.082 57.0019C107.923 57.0037 107.765 56.9732 107.619 56.9124C107.472 56.8515 107.339 56.7616 107.228 56.6479C106.293 55.713 105.183 54.9713 103.962 54.4653C102.74 53.9593 101.431 53.6988 100.109 53.6988C98.7867 53.6988 97.4775 53.9593 96.256 54.4653C95.0345 54.9713 93.9246 55.713 92.9898 56.6479C92.8788 56.7618 92.746 56.8524 92.5995 56.9142C92.4529 56.976 92.2954 57.0078 92.1363 57.0078C91.9772 57.0078 91.8198 56.976 91.6732 56.9142C91.5266 56.8524 91.3939 56.7618 91.2828 56.6479C91.0567 56.4214 90.9297 56.1145 90.9297 55.7944C90.9297 55.4744 91.0567 55.1674 91.2828 54.9409C92.4431 53.7721 93.8233 52.8444 95.3437 52.2114C96.8642 51.5784 98.4949 51.2524 100.142 51.2524C101.789 51.2524 103.419 51.5784 104.94 52.2114C106.46 52.8444 107.841 53.7721 109.001 54.9409C109.227 55.1674 109.354 55.4744 109.354 55.7944C109.354 56.1145 109.227 56.4214 109.001 56.6479C108.882 56.7689 108.738 56.863 108.58 56.9241C108.422 56.9851 108.252 57.0117 108.083 57.0019H108.082Z" fill="black"/>
<path d="M83.9767 57.0019C83.8176 57.0056 83.6594 56.976 83.5124 56.915C83.3653 56.8541 83.2326 56.7631 83.1227 56.6479C82.1879 55.713 81.078 54.9713 79.8566 54.4653C78.6351 53.9593 77.3259 53.6988 76.0037 53.6988C74.6816 53.6988 73.3724 53.9593 72.1509 54.4653C70.9294 54.9713 69.8195 55.713 68.8847 56.6479C68.6554 56.8595 68.3532 56.9742 68.0412 56.968C67.7293 56.9617 67.4319 56.835 67.2112 56.6144C66.9906 56.3938 66.8639 56.0964 66.8577 55.7844C66.8514 55.4725 66.9661 55.1702 67.1777 54.9409C68.338 53.7721 69.7182 52.8444 71.2386 52.2114C72.7591 51.5784 74.3898 51.2524 76.0367 51.2524C77.6837 51.2524 79.3144 51.5784 80.8348 52.2114C82.3553 52.8444 83.7354 53.7721 84.8957 54.9409C85.1218 55.1674 85.2488 55.4744 85.2488 55.7944C85.2488 56.1145 85.1218 56.4214 84.8957 56.6479C84.7767 56.7689 84.6333 56.863 84.4749 56.9241C84.3166 56.9851 84.1471 57.0117 83.9777 57.0019H83.9767Z" fill="black"/>
<path d="M76.0052 70.5591C74.6513 70.5591 73.3279 70.1577 72.2023 69.4056C71.0766 68.6534 70.1993 67.5844 69.6812 66.3336C69.1631 65.0829 69.0276 63.7065 69.2917 62.3787C69.5558 61.0509 70.2077 59.8313 71.165 58.874C72.1223 57.9167 73.342 57.2648 74.6698 57.0007C75.9976 56.7366 77.3739 56.8721 78.6246 57.3902C79.8754 57.9083 80.9444 58.7856 81.6966 59.9113C82.4487 61.0369 82.8502 62.3603 82.8502 63.7141C82.8502 64.613 82.6731 65.5031 82.3291 66.3336C81.9851 67.1641 81.4809 67.9187 80.8453 68.5543C80.2097 69.1899 79.4551 69.6941 78.6246 70.0381C77.7942 70.3821 76.9041 70.5591 76.0052 70.5591ZM76.0052 59.2841C75.1292 59.2841 74.2729 59.5439 73.5445 60.0306C72.8162 60.5172 72.2485 61.2089 71.9133 62.0182C71.5781 62.8275 71.4904 63.7181 71.6613 64.5772C71.8322 65.4363 72.254 66.2255 72.8734 66.8449C73.4928 67.4643 74.282 67.8861 75.1411 68.057C76.0002 68.2279 76.8908 68.1402 77.7001 67.805C78.5094 67.4698 79.2011 66.9021 79.6877 66.1738C80.1744 65.4454 80.4342 64.5891 80.4342 63.7131C80.4342 62.5385 79.9675 61.412 79.1369 60.5814C78.3063 59.7508 77.1798 59.2841 76.0052 59.2841V59.2841Z" fill="black"/>
<path d="M100.111 70.5591C98.7568 70.5591 97.4334 70.1577 96.3078 69.4056C95.1821 68.6534 94.3048 67.5844 93.7867 66.3336C93.2686 65.0829 93.133 63.7065 93.3972 62.3787C93.6613 61.0509 94.3132 59.8313 95.2705 58.874C96.2278 57.9167 97.4474 57.2648 98.7752 57.0007C100.103 56.7366 101.479 56.8721 102.73 57.3902C103.981 57.9083 105.05 58.7856 105.802 59.9113C106.554 61.0369 106.956 62.3603 106.956 63.7141C106.956 65.5295 106.234 67.2706 104.951 68.5543C103.667 69.838 101.926 70.5591 100.111 70.5591ZM100.111 59.2841C99.2347 59.2841 98.3784 59.5439 97.65 60.0306C96.9217 60.5172 96.354 61.2089 96.0188 62.0182C95.6835 62.8275 95.5958 63.7181 95.7667 64.5772C95.9376 65.4363 96.3594 66.2255 96.9789 66.8449C97.5983 67.4643 98.3874 67.8861 99.2466 68.057C100.106 68.2279 100.996 68.1402 101.806 67.805C102.615 67.4698 103.307 66.9021 103.793 66.1738C104.28 65.4454 104.54 64.5891 104.54 63.7131C104.54 63.1315 104.425 62.5556 104.202 62.0182C103.98 61.4809 103.654 60.9926 103.242 60.5814C102.831 60.1701 102.343 59.8439 101.806 59.6213C101.268 59.3987 100.692 59.2841 100.111 59.2841V59.2841Z" fill="black"/>
<path d="M88.0494 93.7252C83.4585 93.7209 79.0568 91.8953 75.8105 88.649C72.5642 85.4028 70.7386 81.0011 70.7344 76.4101C70.7344 76.0898 70.8616 75.7825 71.0882 75.556C71.3147 75.3294 71.622 75.2021 71.9424 75.2021H104.156C104.475 75.2063 104.78 75.3349 105.006 75.5605C105.232 75.7862 105.36 76.0911 105.364 76.4101C105.36 81.0011 103.535 85.4028 100.288 88.649C97.042 91.8953 92.6403 93.7209 88.0494 93.7252V93.7252ZM73.1984 77.6181C73.5046 81.3462 75.2018 84.8227 77.9529 87.3571C80.704 89.8916 84.3078 91.2985 88.0484 91.2985C91.789 91.2985 95.3927 89.8916 98.1439 87.3571C100.895 84.8227 102.592 81.3462 102.898 77.6181H73.1984Z" fill="black"/>
<path d="M88.0493 93.7262C83.7039 93.7257 79.5185 92.0866 76.3283 89.1362C76.1907 89.0104 76.0841 88.8544 76.0168 88.6805C75.9496 88.5065 75.9235 88.3194 75.9407 88.1337C75.9578 87.9481 76.0177 87.7689 76.1157 87.6102C76.2136 87.4516 76.347 87.3177 76.5053 87.2192C79.9695 85.0564 83.9713 83.9097 88.0553 83.9097C92.1392 83.9097 96.1411 85.0564 99.6053 87.2192C99.7585 87.3225 99.8871 87.4583 99.9818 87.617C100.077 87.7757 100.135 87.9533 100.153 88.1372C100.175 88.3213 100.152 88.5078 100.088 88.6815C100.024 88.8553 99.9194 89.0115 99.7833 89.1372C96.5896 92.0902 92.399 93.7291 88.0493 93.7262V93.7262ZM79.2553 88.4262C81.8022 90.2986 84.8806 91.3084 88.0418 91.3084C91.2029 91.3084 94.2813 90.2986 96.8283 88.4262C94.1061 87.0446 91.0965 86.3245 88.0438 86.3245C84.9911 86.3245 81.9814 87.0446 79.2593 88.4262H79.2553Z" fill="black"/>
</g>
<defs>
<clipPath id="clip0_1158_141">
<rect width="137.266" height="105" fill="white"/>
</clipPath>
</defs>
</svg>
