<svg width="102" height="105" viewBox="0 0 102 105" fill="none" xmlns="http://www.w3.org/2000/svg">
<g clip-path="url(#clip0_1158_167)">
<path d="M37.1362 26.1802H34.7922V10.4412H8.5802C8.26937 10.4412 7.97126 10.3177 7.75146 10.0979C7.53167 9.87811 7.4082 9.58012 7.4082 9.26929C7.4082 8.95846 7.53167 8.66022 7.75146 8.44043C7.97126 8.22064 8.26937 8.09717 8.5802 8.09717H35.9652C36.2732 8.09657 36.5688 8.21826 36.7872 8.4353C36.8972 8.54464 36.9845 8.67453 37.0442 8.81763C37.1039 8.96073 37.1349 9.11423 37.1353 9.26929V26.1802H37.1362Z" fill="black"/>
<path d="M9.378 9.689C9.378 10.6164 9.103 11.523 8.58776 12.2941C8.07253 13.0652 7.34021 13.6662 6.48341 14.0211C5.6266 14.376 4.6838 14.4688 3.77422 14.2879C2.86465 14.107 2.02915 13.6604 1.37338 13.0046C0.717611 12.3489 0.271026 11.5134 0.0901001 10.6038C-0.090826 9.6942 0.00203121 8.7514 0.356931 7.8946C0.71183 7.03779 1.31283 6.30547 2.08393 5.79024C2.85504 5.275 3.76161 5 4.689 5C5.9326 5 7.12527 5.49402 8.00463 6.37338C8.88398 7.25273 9.378 8.4454 9.378 9.689ZM2.345 9.689C2.345 10.1526 2.48247 10.6058 2.74004 10.9913C2.9976 11.3767 3.36368 11.6772 3.79199 11.8546C4.2203 12.032 4.6916 12.0784 5.14629 11.988C5.60099 11.8975 6.01865 11.6743 6.34646 11.3465C6.67428 11.0186 6.89752 10.601 6.98796 10.1463C7.07841 9.6916 7.03199 9.2203 6.85458 8.79199C6.67716 8.36368 6.37673 7.9976 5.99126 7.74004C5.60579 7.48247 5.1526 7.345 4.689 7.345C4.06733 7.345 3.47113 7.59196 3.03154 8.03154C2.59196 8.47113 2.345 9.06733 2.345 9.689Z" fill="black"/>
<path d="M53.3567 26.1802H51.0117L51.0217 8.60327C51.0217 8.29231 51.1452 7.99406 51.3651 7.77417C51.585 7.55428 51.8832 7.43066 52.1942 7.43066C52.5052 7.43066 52.8034 7.55428 53.0233 7.77417C53.2432 7.99406 53.3667 8.29231 53.3667 8.60327L53.3567 26.1792V26.1802Z" fill="black"/>
<path d="M52.1675 9.378C51.2401 9.378 50.3335 9.103 49.5624 8.58776C48.7913 8.07253 48.1903 7.34021 47.8354 6.4834C47.4805 5.6266 47.3877 4.6838 47.5686 3.77422C47.7495 2.86465 48.1961 2.02915 48.8519 1.37338C49.5077 0.71761 50.3432 0.271026 51.2527 0.0900999C52.1623 -0.0908262 53.1051 0.00203168 53.9619 0.356931C54.8187 0.71183 55.551 1.31283 56.0663 2.08393C56.5815 2.85504 56.8565 3.76161 56.8565 4.689C56.8565 5.9326 56.3625 7.12527 55.4831 8.00463C54.6038 8.88398 53.4111 9.378 52.1675 9.378ZM52.1675 2.345C51.7039 2.345 51.2507 2.48248 50.8653 2.74004C50.4798 2.9976 50.1794 3.36368 50.0019 3.79199C49.8245 4.2203 49.7781 4.6916 49.8686 5.14629C49.959 5.60099 50.1822 6.01865 50.5101 6.34646C50.8379 6.67427 51.2555 6.89752 51.7102 6.98796C52.1649 7.07841 52.6362 7.03199 53.0645 6.85458C53.4928 6.67716 53.8589 6.37673 54.1165 5.99126C54.374 5.60579 54.5115 5.1526 54.5115 4.689C54.5115 4.06733 54.2646 3.47113 53.825 3.03154C53.3854 2.59196 52.7892 2.345 52.1675 2.345Z" fill="black"/>
<path d="M91.689 14.378C90.7616 14.378 89.855 14.103 89.0839 13.5878C88.3128 13.0725 87.7118 12.3402 87.3569 11.4834C87.002 10.6266 86.9092 9.6838 87.0901 8.77422C87.271 7.86465 87.7176 7.02915 88.3734 6.37338C89.0291 5.71761 89.8646 5.27103 90.7742 5.0901C91.6838 4.90917 92.6266 5.00203 93.4834 5.35693C94.3402 5.71183 95.0725 6.31283 95.5878 7.08393C96.103 7.85504 96.378 8.76161 96.378 9.689C96.378 10.9326 95.884 12.1253 95.0046 13.0046C94.1253 13.884 92.9326 14.378 91.689 14.378ZM91.689 7.345C91.2254 7.345 90.7722 7.48248 90.3867 7.74004C90.0013 7.9976 89.7008 8.36368 89.5234 8.79199C89.346 9.2203 89.2996 9.6916 89.39 10.1463C89.4805 10.601 89.7037 11.0186 90.0315 11.3465C90.3594 11.6743 90.777 11.8975 91.2317 11.988C91.6864 12.0784 92.1577 12.032 92.586 11.8546C93.0143 11.6772 93.3804 11.3767 93.638 10.9913C93.8955 10.6058 94.033 10.1526 94.033 9.689C94.033 9.06733 93.786 8.47113 93.3465 8.03154C92.9069 7.59196 92.3107 7.345 91.689 7.345Z" fill="black"/>
<path d="M70.1625 26.1802H67.8185V9.26831C67.8162 9.11529 67.8444 8.96332 67.9014 8.82129C67.9583 8.67926 68.043 8.54996 68.1504 8.44092C68.2578 8.33187 68.3857 8.2452 68.5269 8.18604C68.668 8.12687 68.8194 8.09631 68.9724 8.09619H86.9895C87.3003 8.09619 87.5984 8.21966 87.8182 8.43945C88.038 8.65925 88.1615 8.95748 88.1615 9.26831C88.1615 9.57914 88.038 9.87713 87.8182 10.0969C87.5984 10.3167 87.3003 10.4402 86.9895 10.4402H70.1625V26.1782V26.1802Z" fill="black"/>
<path d="M69.3157 104.146H31.8047V94.7695H31.8217V101.021H55.8756C57.533 101.02 59.122 100.361 60.2941 99.1887C61.4661 98.0169 62.1256 96.4279 62.1277 94.7705H69.3137V104.146H69.3157Z" fill="#69AAA6"/>
<path d="M69.7553 105H32.2443C31.9334 105 31.6353 104.876 31.4155 104.657C31.1957 104.437 31.0723 104.139 31.0723 103.828V94.4498C31.0764 94.1403 31.2012 93.8446 31.4201 93.6257C31.639 93.4068 31.9347 93.282 32.2443 93.2778H69.7553C70.0661 93.2778 70.3642 93.4013 70.584 93.6211C70.8038 93.8409 70.9273 94.139 70.9273 94.4498V103.828C70.9293 103.982 70.9003 104.136 70.8422 104.279C70.784 104.422 70.6977 104.552 70.5885 104.661C70.4793 104.77 70.3493 104.857 70.2061 104.915C70.063 104.973 69.9097 105.002 69.7553 105ZM33.4163 102.656H68.5833V95.6218H33.4163V102.656Z" fill="black"/>
<path d="M100.832 86.4592H1.168C1.01435 86.4589 0.862264 86.4284 0.720413 86.3693C0.578562 86.3103 0.449731 86.2239 0.341272 86.1151C0.232813 86.0062 0.146852 85.8771 0.0882967 85.7351C0.0297414 85.593 -0.000261156 85.4408 1.71248e-06 85.2872V30.5872C0.000250897 29.0361 0.61482 27.5482 1.70926 26.4491C2.80371 25.35 4.28892 24.729 5.84 24.7222H96.16C96.9283 24.7235 97.6889 24.8761 98.3982 25.1714C99.1075 25.4667 99.7517 25.8988 100.294 26.443C100.836 26.9873 101.266 27.633 101.559 28.3434C101.852 29.0538 102.001 29.8149 102 30.5832V85.2832C102.002 85.4374 101.974 85.5905 101.916 85.7334C101.858 85.8764 101.772 86.0063 101.663 86.1156C101.554 86.2248 101.425 86.3111 101.282 86.3694C101.139 86.4278 100.986 86.4569 100.832 86.4552V86.4592ZM2.332 84.1152H99.66V30.5832C99.6619 29.6528 99.2943 28.7597 98.638 28.1002C97.9817 27.4407 97.0904 27.0688 96.16 27.0662H5.84C4.90961 27.0688 4.01834 27.4407 3.36204 28.1002C2.70575 28.7597 2.33814 29.6528 2.34 30.5832L2.332 84.1152Z" fill="black"/>
<path d="M95.718 94.7681H5.40503C4.43776 94.7661 3.49488 94.4646 2.70605 93.9048C1.91723 93.345 1.32118 92.5545 1 91.6421H84.785C86.439 91.6368 88.0233 90.9758 89.1904 89.804C90.3576 88.6321 91.0123 87.0451 91.011 85.3911H100.389V90.0801C100.39 91.3207 99.8985 92.511 99.0228 93.3899C98.1472 94.2687 96.9586 94.7644 95.718 94.7681V94.7681Z" fill="#69AAA6"/>
<path d="M96.16 95.6219H5.84C4.28962 95.615 2.805 94.9947 1.71067 93.8964C0.616343 92.7981 0.00130629 91.3113 0 89.7609V85.0719C0.00361279 84.7629 0.127705 84.4675 0.345858 84.2486C0.56401 84.0297 0.858991 83.9046 1.168 83.8999H100.832C100.986 83.9002 101.138 83.9307 101.28 83.9897C101.421 84.0488 101.55 84.1352 101.659 84.244C101.767 84.3528 101.853 84.482 101.912 84.624C101.97 84.7661 102 84.9183 102 85.0719V89.7609C102.001 90.5292 101.852 91.2903 101.559 92.0007C101.266 92.711 100.836 93.3568 100.294 93.9011C99.7517 94.4453 99.1075 94.8774 98.3982 95.1727C97.6889 95.4679 96.9283 95.6206 96.16 95.6219ZM2.336 86.2439V89.7609C2.33414 90.6913 2.70175 91.5844 3.35804 92.2438C4.01433 92.9033 4.90561 93.2753 5.836 93.2779H96.16C97.0904 93.2753 97.9817 92.9033 98.638 92.2438C99.2943 91.5844 99.6619 90.6913 99.66 89.7609V86.2439H2.336Z" fill="black"/>
<path d="M80.5195 104.999H21.4845C21.1737 104.999 20.8756 104.875 20.6558 104.656C20.436 104.436 20.3125 104.138 20.3125 103.827C20.3125 103.516 20.436 103.218 20.6558 102.998C20.8756 102.778 21.1737 102.655 21.4845 102.655H80.5195C80.8303 102.655 81.1284 102.778 81.3482 102.998C81.568 103.218 81.6915 103.516 81.6915 103.827C81.6915 104.138 81.568 104.436 81.3482 104.656C81.1284 104.875 80.8303 104.999 80.5195 104.999V104.999Z" fill="black"/>
<path d="M51.0001 90.9329C51.6474 90.9329 52.1721 90.4081 52.1721 89.7609C52.1721 89.1136 51.6474 88.5889 51.0001 88.5889C50.3528 88.5889 49.8281 89.1136 49.8281 89.7609C49.8281 90.4081 50.3528 90.9329 51.0001 90.9329Z" fill="black"/>
<path d="M54.4443 61.9229C52.9921 61.9208 51.5927 61.3782 50.5187 60.4007C49.4446 59.4233 48.7729 58.0811 48.6344 56.6355C48.4958 55.1899 48.9004 53.7445 49.7692 52.5809C50.6381 51.4173 51.909 50.6187 53.3343 50.3409C52.926 49.5991 52.7159 48.7646 52.7243 47.9179C52.7235 47.292 52.8402 46.6716 53.0683 46.0889H52.9903C51.6762 46.0889 50.4159 46.6109 49.4866 47.5402C48.5574 48.4694 48.0353 49.7297 48.0353 51.0439C48.038 51.8978 48.2586 52.737 48.6763 53.4819C47.238 53.7427 45.9501 54.5344 45.068 55.7C44.1858 56.8656 43.7737 58.3201 43.9134 59.7752C44.053 61.2303 44.7342 62.5799 45.822 63.5565C46.9097 64.533 48.3246 65.0653 49.7863 65.0479H75.4533C76.6834 65.0578 77.8971 64.765 78.9874 64.1953C80.0777 63.6256 81.0111 62.7964 81.7053 61.7809C81.1902 61.8787 80.6667 61.9259 80.1423 61.9219L54.4443 61.9229Z" fill="black"/>
<path d="M87.0885 54.0744C86.9413 52.7073 86.428 51.4053 85.6028 50.3055C84.7775 49.2057 83.6709 48.3489 82.3995 47.8254C81.0257 47.2324 79.5005 47.0848 78.0385 47.4034C78.4597 45.2827 78.0286 43.0815 76.8385 41.2764C76.0306 39.9241 74.886 38.8043 73.5164 38.0263C72.1467 37.2483 70.5987 36.8387 69.0235 36.8374C67.6902 36.8622 66.3796 37.187 65.1891 37.7877C63.9985 38.3885 62.9586 39.2497 62.1465 40.3074C64.6465 39.6194 67.4295 39.6194 71.0395 43.2774C71.8556 44.0759 72.4992 45.0333 72.9305 46.0904C73.238 46.901 73.4122 47.7561 73.4465 48.6224C73.4591 49.0767 73.6432 49.5094 73.9617 49.8336C74.2801 50.1579 74.7095 50.3496 75.1635 50.3704C76.0268 50.4092 76.875 50.6107 77.6635 50.9644C78.9353 51.4882 80.0422 52.3454 80.8675 53.4458C81.6927 54.5461 82.2058 55.8488 82.3525 57.2164C82.5076 58.9589 82.0477 60.7007 81.0525 62.1394C82.8745 61.7734 84.4974 60.7482 85.6106 59.2601C86.7238 57.772 87.2489 55.9256 87.0855 54.0744H87.0885Z" fill="#69AAA6"/>
<path d="M80.0256 63.1339H54.5806C52.8347 63.1668 51.137 62.5604 49.807 61.4288C48.4771 60.2972 47.6067 58.7185 47.3596 56.9899C47.1792 55.4664 47.4995 53.9257 48.2722 52.6004C49.0449 51.2751 50.2279 50.2373 51.6426 49.6439C51.3656 48.6723 51.3282 47.6481 51.5336 46.6589C51.7846 45.5106 52.3598 44.4584 53.1909 43.6272C54.0221 42.7961 55.0743 42.2209 56.2226 41.9699C57.5067 41.7073 58.8409 41.8549 60.0366 42.3919C60.6909 40.3609 61.9691 38.5879 63.6892 37.3253C65.4093 36.0626 67.4838 35.3745 69.6176 35.3589V35.3589C71.339 35.4057 73.0214 35.882 74.5119 36.7446C76.0023 37.6071 77.2535 38.8286 78.1516 40.2979C79.2332 41.9123 79.7799 43.8258 79.7146 45.7679C81.1617 45.7357 82.5928 46.0748 83.8716 46.7529C85.6063 47.6382 86.9925 49.0815 87.8072 50.8504C88.6219 52.6193 88.8176 54.611 88.3627 56.5046C87.9079 58.3983 86.8291 60.0838 85.2999 61.2898C83.7707 62.4957 81.8801 63.152 79.9326 63.1529L80.0256 63.1339ZM57.5186 44.1589C57.2555 44.1594 56.9933 44.1909 56.7376 44.2529C56.0267 44.3996 55.3737 44.7494 54.8577 45.2599C54.3417 45.7704 53.9849 46.4196 53.8306 47.1289C53.6245 48.0272 53.7465 48.9697 54.1746 49.7859C54.2596 49.9528 54.3039 50.1375 54.3039 50.3249C54.3039 50.5122 54.2596 50.6969 54.1746 50.8639C54.0982 51.0338 53.9813 51.1825 53.8342 51.2968C53.687 51.4112 53.5142 51.4878 53.3306 51.5199C52.1676 51.748 51.1341 52.408 50.438 53.3671C49.7419 54.3263 49.4349 55.5135 49.5786 56.6899C49.7821 57.8536 50.4012 58.9039 51.3209 59.6455C52.2405 60.3871 53.3982 60.7696 54.5786 60.7219H80.0256C81.4517 60.7164 82.8345 60.2313 83.9513 59.3445C85.0681 58.4577 85.8541 57.2208 86.1826 55.8331C86.511 54.4453 86.363 52.9874 85.7622 51.694C85.1615 50.4007 84.1429 49.3471 82.8706 48.7029C81.5895 48.0605 80.1234 47.8889 78.7286 48.2179C78.5404 48.2605 78.3446 48.2553 78.159 48.2029C77.9733 48.1505 77.8037 48.0525 77.6656 47.9179C77.5277 47.781 77.4245 47.613 77.3646 47.4281C77.3048 47.2432 77.29 47.0467 77.3216 46.8549C77.5095 45.9405 77.5122 44.9977 77.3297 44.0823C77.1471 43.1668 76.7829 42.2972 76.2586 41.5249C75.5684 40.3914 74.6071 39.4474 73.4612 38.7779C72.3154 38.1084 71.0209 37.7345 69.6946 37.6899C67.8125 37.6989 65.9969 38.3868 64.5814 39.6272C63.1659 40.8677 62.2456 42.5773 61.9896 44.4419C61.961 44.6537 61.8743 44.8535 61.7391 45.0191C61.6039 45.1847 61.4255 45.3096 61.2236 45.3799C61.0244 45.4547 60.8085 45.4738 60.5992 45.4352C60.3899 45.3967 60.1951 45.3018 60.0356 45.1609C59.3524 44.5224 58.4537 44.1647 57.5186 44.1589V44.1589Z" fill="black"/>
<path d="M62.5809 69.558C64.6886 69.5595 66.7207 68.7738 68.2793 67.3549C69.8378 65.9361 70.8102 63.9864 71.0061 61.8879C71.202 59.7894 70.6071 57.6934 69.3381 56.0106C68.0691 54.3279 66.2174 53.1797 64.1459 52.791C64.7469 51.7103 65.0635 50.4946 65.0659 49.258C65.065 47.87 64.6614 46.512 63.904 45.3488C63.1467 44.1855 62.0682 43.267 60.7992 42.7045C59.5302 42.142 58.1253 41.9597 56.7548 42.1797C55.3843 42.3997 54.1071 43.0126 53.0779 43.944C52.6271 40.7063 50.9677 37.7591 48.433 35.6946C45.8984 33.6302 42.6763 32.6015 39.4143 32.8153C36.1523 33.0291 33.0921 34.4695 30.8485 36.847C28.605 39.2246 27.3443 42.3631 27.3199 45.632C27.3266 46.4294 27.4049 47.2246 27.5539 48.008C26.82 47.8452 26.0707 47.7614 25.3189 47.758C23.8081 47.6269 22.2864 47.8112 20.8506 48.2994C19.4148 48.7876 18.0961 49.569 16.9783 50.5939C15.8605 51.6189 14.968 52.865 14.3575 54.2532C13.7469 55.6415 13.4316 57.1415 13.4316 58.658C13.4316 60.1746 13.7469 61.6746 14.3575 63.0628C14.968 64.451 15.8605 65.6972 16.9783 66.7221C18.0961 67.7471 19.4148 68.5284 20.8506 69.0166C22.2864 69.5048 23.8081 69.6892 25.3189 69.558H62.5809Z" fill="white"/>
<path d="M70.4376 61.4136C70.4366 59.4484 69.7512 57.5449 68.4991 56.0302C67.2471 54.5155 65.5065 53.4843 63.5766 53.1136C64.4057 51.6261 64.6887 49.8956 64.3766 48.2216C64.1399 46.9689 63.5729 45.8023 62.7343 44.8421C61.8957 43.882 60.8159 43.1632 59.6065 42.7601C58.3971 42.357 57.102 42.2842 55.855 42.5492C54.6081 42.8142 53.4545 43.4075 52.5136 44.2676C52.1178 41.2079 50.6407 38.3908 48.3492 36.3251C46.0577 34.2594 43.1029 33.0815 40.0188 33.0041C36.9346 32.9267 33.9245 33.9549 31.5322 35.903C29.14 37.8512 27.5234 40.5907 26.9746 43.6266C28.6241 42.335 30.5628 41.4636 32.6237 41.0876C34.6847 40.7116 36.8062 40.8422 38.8055 41.4681C40.8048 42.094 42.6221 43.1964 44.1007 44.6806C45.5794 46.1647 46.6751 47.986 47.2936 49.9876C47.3626 50.2075 47.4794 50.4095 47.6356 50.579C47.7918 50.7485 47.9836 50.8814 48.1972 50.9681C48.4108 51.0548 48.641 51.0931 48.8712 51.0804C49.1013 51.0677 49.3258 51.0043 49.5286 50.8946C50.5177 50.4365 51.5979 50.2093 52.6877 50.2301C53.7775 50.2509 54.8482 50.5192 55.8191 51.0148C56.7899 51.5103 57.6353 52.2201 58.2915 53.0904C58.9477 53.9607 59.3974 54.9689 59.6066 56.0386C59.9187 57.7126 59.6357 59.4431 58.8066 60.9306C60.6931 61.2965 62.3983 62.2952 63.6402 63.7617C64.8821 65.2282 65.5864 67.0746 65.6366 68.9956C67.0672 68.3096 68.276 67.2351 69.1248 65.8947C69.9736 64.5543 70.4282 63.0021 70.4366 61.4156L70.4376 61.4136Z" fill="#69AAA6"/>
<path d="M62.5802 70.735H25.3662C23.7071 70.7947 22.0535 70.5118 20.5086 69.9041C18.9637 69.2963 17.5606 68.3767 16.3869 67.2026C15.2132 66.0285 14.2941 64.6251 13.6868 63.08C13.0796 61.5349 12.7973 59.8812 12.8576 58.2221C12.9178 56.5631 13.3194 54.9342 14.0371 53.4373C14.7549 51.9403 15.7734 50.6073 17.0293 49.5214C18.2851 48.4356 19.7512 47.6202 21.3361 47.1262C22.9211 46.6321 24.5908 46.47 26.2412 46.65C26.2412 46.3166 26.2412 45.9883 26.2412 45.665C26.2025 42.2299 27.4221 38.8994 29.6699 36.3017C31.9178 33.704 35.0385 32.0186 38.4435 31.5635C41.8485 31.1084 45.3023 31.9149 48.1536 33.831C51.0048 35.7471 53.0563 38.6404 53.9212 41.965C55.4017 41.1517 57.0943 40.8068 58.775 40.9759C60.4558 41.145 62.0456 41.8202 63.3345 42.9121C64.6234 44.0041 65.5505 45.4615 65.9934 47.0916C66.4364 48.7217 66.3742 50.4479 65.8152 52.042C67.9956 52.773 69.8424 54.2604 71.0213 56.2349C72.2002 58.2095 72.6333 60.5408 72.2424 62.8071C71.8515 65.0733 70.6624 67.1248 68.8901 68.5903C67.1178 70.0559 64.8795 70.8386 62.5802 70.797V70.735ZM25.3662 48.935C24.0563 48.8835 22.7496 49.0971 21.5243 49.5629C20.299 50.0286 19.1803 50.737 18.2354 51.6456C17.2905 52.5541 16.5388 53.6441 16.0253 54.8502C15.5118 56.0563 15.2471 57.3536 15.2471 58.6645C15.2471 59.9753 15.5118 61.2727 16.0253 62.4787C16.5388 63.6848 17.2905 64.7748 18.2354 65.6834C19.1803 66.5919 20.299 67.3003 21.5243 67.7661C22.7496 68.2318 24.0563 68.4454 25.3662 68.394H62.5802C64.3835 68.3715 66.1146 67.6823 67.4399 66.4593C68.7652 65.2362 69.5909 63.5659 69.7578 61.7703C69.9248 59.9746 69.4211 58.1807 68.344 56.7343C67.2668 55.2879 65.6924 54.2915 63.9242 53.937C63.742 53.9012 63.5708 53.8232 63.4242 53.7093C63.2777 53.5953 63.1598 53.4486 63.0802 53.281C62.9952 53.1167 62.9509 52.9344 62.9509 52.7495C62.9509 52.5645 62.9952 52.3822 63.0802 52.218C63.7792 50.9772 64.0141 49.5283 63.743 48.1303C63.4718 46.7323 62.7122 45.4763 61.6 44.5869C60.4878 43.6975 59.0955 43.2326 57.6721 43.2755C56.2486 43.3184 54.8868 43.8662 53.8302 44.821C53.6713 44.9629 53.4772 45.0595 53.2682 45.1007C53.0592 45.1418 52.843 45.1261 52.6422 45.055C52.4408 44.9793 52.2635 44.851 52.1287 44.6833C51.9939 44.5157 51.9067 44.3149 51.8762 44.102C51.5934 41.0502 50.1298 38.2297 47.7973 36.2416C45.4648 34.2535 42.448 33.2551 39.39 33.4594C36.3321 33.6636 33.4748 35.0543 31.4275 37.335C29.3801 39.6156 28.3046 42.6057 28.4302 45.668C28.4358 46.3922 28.5091 47.1144 28.6492 47.825C28.6821 48.0143 28.6679 48.2088 28.6079 48.3914C28.5479 48.574 28.444 48.739 28.3052 48.872C28.1683 49.0089 27.9993 49.1093 27.8136 49.164C27.6279 49.2187 27.4314 49.2259 27.2422 49.185C26.6264 49.0411 25.9981 48.9574 25.3662 48.935V48.935Z" fill="black"/>
<path d="M46.6041 78.5128C44.8866 78.4947 43.2366 77.8416 41.9718 76.6795C40.7071 75.5173 39.9171 73.9283 39.7541 72.2184C39.591 70.5086 40.0665 68.7989 41.0888 67.4186C42.1111 66.0384 43.608 65.0853 45.2911 64.7428C44.6231 63.5253 44.4067 62.111 44.6799 60.7494C44.9532 59.3878 45.6986 58.1665 46.7846 57.301C47.8707 56.4355 49.2275 55.9814 50.6158 56.0189C52.004 56.0564 53.3344 56.583 54.3721 57.5058C54.7309 54.8416 56.0873 52.4127 58.1675 50.7098C60.2478 49.0069 62.8967 48.1569 65.5793 48.3315C68.262 48.5061 70.7784 49.6922 72.6204 51.6503C74.4624 53.6084 75.4927 56.1925 75.5031 58.8808C75.4963 59.5363 75.4334 60.1901 75.3151 60.8349C75.9162 60.7049 76.5292 60.6379 77.1441 60.6348C78.347 60.5908 79.5465 60.7897 80.6708 61.2196C81.7951 61.6496 82.8212 62.3017 83.6878 63.1372C84.5544 63.9726 85.2437 64.9741 85.7145 66.082C86.1853 67.1898 86.4279 68.3811 86.4279 69.5849C86.4279 70.7886 86.1853 71.9799 85.7145 73.0877C85.2437 74.1956 84.5544 75.1971 83.6878 76.0325C82.8212 76.868 81.7951 77.5201 80.6708 77.9501C79.5465 78.38 78.347 78.5789 77.1441 78.5349L46.6041 78.5128Z" fill="white"/>
<path d="M85.5933 69.0963C85.4255 67.4777 84.8268 65.9337 83.8594 64.6252C82.8921 63.3166 81.5915 62.2914 80.0933 61.6563C78.4465 60.9349 76.6133 60.7542 74.8573 61.1403C75.1091 59.8639 75.1005 58.5498 74.8319 57.2768C74.5633 56.0038 74.0403 54.7982 73.2943 53.7323C72.3323 52.1506 70.9778 50.8445 69.3621 49.9408C67.7464 49.037 65.9246 48.5663 64.0733 48.5743C62.1699 48.6341 60.3177 49.2055 58.7114 50.2286C57.1052 51.2517 55.8042 52.6886 54.9453 54.3883C56.2601 53.7304 57.697 53.3525 59.1653 53.2783C61.3304 53.2223 63.4633 53.81 65.2941 54.9671C67.1248 56.1242 68.5709 57.7987 69.4493 59.7783C70.0053 60.9321 70.3191 62.1876 70.3713 63.4673C70.3896 64.0271 70.616 64.56 71.0062 64.9618C71.3963 65.3636 71.9223 65.6055 72.4813 65.6403C73.9128 65.7427 75.2995 66.1834 76.5275 66.9261C77.7554 67.6689 78.7896 68.6924 79.5449 69.9127C80.3002 71.133 80.755 72.5151 80.8721 73.9454C80.9892 75.3758 80.7651 76.8135 80.2183 78.1403C81.9553 77.3947 83.4113 76.1176 84.377 74.4927C85.3428 72.8677 85.7686 70.9785 85.5933 69.0963V69.0963Z" fill="#69AAA6"/>
<path d="M77.0364 79.6832H46.4994C44.63 79.6505 42.8293 78.973 41.4019 77.7653C39.9745 76.5577 39.008 74.8941 38.6661 73.0559C38.3242 71.2177 38.6277 69.3178 39.5254 67.6777C40.4231 66.0376 41.8598 64.7579 43.5924 64.0552C43.3517 63.3468 43.2304 62.6033 43.2334 61.8552C43.2374 59.9826 43.983 58.1879 45.3071 56.8638C46.6312 55.5397 48.4259 54.7941 50.2984 54.7902C51.3838 54.8005 52.4526 55.0569 53.4244 55.5402C54.2288 52.8266 55.9829 50.4931 58.3661 48.9663C60.7492 47.4395 63.6022 46.8214 66.4036 47.2249C69.205 47.6284 71.7676 49.0266 73.623 51.1639C75.4784 53.3012 76.5026 56.0349 76.5084 58.8652V59.4552C77.8364 59.4233 79.1577 59.6533 80.3968 60.1321C81.6359 60.6109 82.7685 61.329 83.7301 62.2456C84.6916 63.1621 85.4632 64.259 86.0009 65.4737C86.5385 66.6884 86.8316 67.9972 86.8634 69.3252C86.8953 70.6531 86.6652 71.9744 86.1865 73.2135C85.7077 74.4526 84.9895 75.5852 84.073 76.5468C83.1565 77.5083 82.0596 78.28 80.8449 78.8176C79.6301 79.3552 78.3214 79.6483 76.9934 79.6802L77.0364 79.6832ZM50.3124 57.1302C49.0688 57.1302 47.8762 57.6242 46.9968 58.5035C46.1175 59.3829 45.6234 60.5756 45.6234 61.8192C45.6296 62.6291 45.8394 63.4245 46.2334 64.1322C46.3184 64.2964 46.3627 64.4787 46.3627 64.6637C46.3627 64.8486 46.3184 65.0309 46.2334 65.1952C46.1558 65.3658 46.0388 65.5157 45.8921 65.6325C45.7454 65.7493 45.5732 65.8297 45.3894 65.8672C43.9671 66.1252 42.6935 66.9081 41.8209 68.0606C40.9484 69.2132 40.5405 70.6514 40.6781 72.0905C40.8158 73.5295 41.4888 74.8644 42.5639 75.8307C43.6391 76.797 45.0379 77.3243 46.4834 77.3082H77.0364C78.1589 77.3606 79.2794 77.1704 80.3217 76.7504C81.3639 76.3305 82.3034 75.6908 83.076 74.8748C83.8485 74.0589 84.4361 73.0859 84.7985 72.0223C85.1609 70.9587 85.2897 69.8294 85.1761 68.7115C85.0625 67.5936 84.7092 66.5134 84.1402 65.5444C83.5712 64.5754 82.7999 63.7406 81.879 63.0967C80.9581 62.4529 79.9091 62.0152 78.8037 61.8136C77.6983 61.6119 76.5624 61.651 75.4734 61.9282C75.2847 61.9712 75.0882 61.9663 74.9019 61.9137C74.7156 61.8612 74.5455 61.7628 74.4071 61.6275C74.2687 61.4921 74.1664 61.3243 74.1097 61.1392C74.053 60.9541 74.0436 60.7578 74.0824 60.5682C74.1923 59.9962 74.2499 59.4155 74.2544 58.8332C74.3606 56.3777 73.5008 53.9784 71.8594 52.1492C70.2179 50.32 67.9254 49.2064 65.4728 49.047C63.0203 48.8876 60.6029 49.6951 58.7385 51.2965C56.8741 52.8978 55.711 55.1657 55.4984 57.6142C55.473 57.8248 55.3893 58.0241 55.2568 58.1898C55.1243 58.3555 54.9483 58.481 54.7484 58.5522C54.5471 58.6263 54.3296 58.645 54.1185 58.6065C53.9075 58.568 53.7106 58.4736 53.5484 58.3332C52.6618 57.5365 51.5051 57.1074 50.3134 57.1332L50.3124 57.1302Z" fill="black"/>
</g>
<defs>
<clipPath id="clip0_1158_167">
<rect width="102" height="105" fill="white"/>
</clipPath>
</defs>
</svg>
