<svg width="105" height="105" viewBox="0 0 105 105" fill="none" xmlns="http://www.w3.org/2000/svg">
<g clip-path="url(#clip0_1158_210)">
<path d="M17.5968 31.3081H11.7148V39.1771H17.5968V31.3081Z" fill="#E87E70"/>
<path d="M17.5968 48.5649H11.7148V56.4339H17.5968V48.5649Z" fill="#E87E70"/>
<path d="M17.5968 65.8218H11.7148V73.6908H17.5968V65.8218Z" fill="#E87E70"/>
<path d="M53.6465 103.696C54.458 103.601 55.2106 103.224 55.7739 102.633C56.3372 102.041 56.6756 101.27 56.7305 100.455V87.959H53.6465V103.696Z" fill="#E87E70"/>
<path d="M36.4941 103.696C37.3057 103.601 38.0583 103.224 38.6216 102.633C39.1848 102.041 39.5232 101.27 39.5781 100.455V87.959H36.4941V103.696Z" fill="#E87E70"/>
<path d="M70.7988 103.696C71.6104 103.601 72.363 103.224 72.9263 102.633C73.4895 102.041 73.8279 101.27 73.8828 100.455V87.959H70.7988V103.696Z" fill="#E87E70"/>
<path d="M53.6465 1.20801C54.4499 1.29294 55.1982 1.65647 55.7615 2.23552C56.3249 2.81457 56.6677 3.57259 56.7305 4.37801V16.597H53.6465V1.20801Z" fill="#E87E70"/>
<path d="M36.4941 1.20801C37.2975 1.29294 38.0458 1.65647 38.6092 2.23552C39.1725 2.81457 39.5153 3.57259 39.5781 4.37801V16.597H36.4941V1.20801Z" fill="#E87E70"/>
<path d="M70.7988 1.20801C71.6022 1.29294 72.3505 1.65647 72.9139 2.23552C73.4772 2.81457 73.82 3.57259 73.8828 4.37801V16.597H70.7988V1.20801Z" fill="#E87E70"/>
<path d="M99.865 31.3081H95.748V39.2571H99.865C100.911 39.2571 101.914 38.8417 102.653 38.1022C103.393 37.3628 103.808 36.3599 103.808 35.3141V35.3141C103.816 34.791 103.721 34.2715 103.526 33.7858C103.332 33.3001 103.043 32.858 102.676 32.4852C102.309 32.1123 101.871 31.8162 101.389 31.6142C100.906 31.4121 100.388 31.308 99.865 31.3081V31.3081Z" fill="#E87E70"/>
<path d="M99.865 48.5649H95.748V56.4339H99.865C100.908 56.4339 101.909 56.0207 102.648 55.2847C103.387 54.5487 103.804 53.5499 103.808 52.5069V52.5069C103.808 51.4614 103.392 50.4587 102.653 49.7195C101.913 48.9802 100.911 48.5649 99.865 48.5649V48.5649Z" fill="#E87E70"/>
<path d="M99.865 65.8218H95.748V73.6908H99.865C100.908 73.6908 101.909 73.2773 102.648 72.5409C103.387 71.8044 103.804 70.8051 103.808 69.7618V69.7618C103.807 68.7166 103.391 67.7144 102.652 66.9756C101.913 66.2368 100.91 65.8218 99.865 65.8218V65.8218Z" fill="#E87E70"/>
<path d="M17.2753 40.3698H4.79927C3.94887 40.4512 3.09417 40.2667 2.35302 39.8419C1.61187 39.4171 1.02078 38.7727 0.66127 37.9978C0.226705 37.1532 0 36.2171 0 35.2673C0 34.3175 0.226705 33.3814 0.66127 32.5368C1.02078 31.7618 1.61187 31.1175 2.35302 30.6927C3.09417 30.2678 3.94887 30.0834 4.79927 30.1648H17.2223C17.5163 30.1925 17.7876 30.3347 17.9777 30.5607C18.1678 30.7867 18.2614 31.0784 18.2383 31.3728V39.3218C18.23 39.5829 18.1282 39.8323 17.9514 40.0247C17.7747 40.217 17.5347 40.3395 17.2753 40.3698V40.3698ZM4.79927 32.5168C4.17147 32.6296 3.60741 32.9702 3.21526 33.4732C2.82311 33.9763 2.63046 34.6064 2.67427 35.2428C2.63046 35.8791 2.82311 36.5093 3.21526 37.0123C3.60741 37.5154 4.17147 37.856 4.79927 37.9688H16.2193V32.5168H4.79927Z" fill="black"/>
<path d="M17.2804 57.643H4.86836C2.49536 57.643 0.568359 55.343 0.568359 52.508C0.568359 49.673 2.49236 47.373 4.86836 47.373H17.2274C17.3645 47.3736 17.4998 47.4047 17.6233 47.4642C17.7468 47.5237 17.8555 47.6101 17.9414 47.717C18.1379 47.9561 18.2441 48.2566 18.2414 48.566V56.433C18.2626 56.7179 18.1759 57.0004 17.9984 57.2242C17.8209 57.4481 17.5656 57.5969 17.2834 57.641L17.2804 57.643ZM4.86836 49.774C4.24228 49.8886 3.68045 50.2301 3.29041 50.7331C2.90036 51.236 2.7095 51.8651 2.75436 52.5C2.7095 53.1349 2.90036 53.7641 3.29041 54.267C3.68045 54.77 4.24228 55.1115 4.86836 55.226H16.2294V49.774H4.86836Z" fill="black"/>
<path d="M17.2804 74.8989H4.86836C2.49536 74.8989 0.568359 72.5989 0.568359 69.7639C0.568359 66.9289 2.49236 64.6289 4.86836 64.6289H17.2274C17.5176 64.6566 17.7856 64.7965 17.9744 65.0187C18.1632 65.2409 18.2579 65.528 18.2384 65.8189V73.6879C18.2596 73.9728 18.1729 74.2552 17.9954 74.4791C17.8179 74.7029 17.5626 74.8517 17.2804 74.8959V74.8989ZM4.92136 66.9499C4.31632 67.1053 3.78015 67.4576 3.3973 67.9512C3.01445 68.4448 2.80666 69.0517 2.80666 69.6764C2.80666 70.3011 3.01445 70.908 3.3973 71.4016C3.78015 71.8953 4.31632 72.2475 4.92136 72.4029H16.2834V67.0299L4.92136 66.9499Z" fill="black"/>
<path d="M99.8657 40.37H85.0967C84.9388 40.3721 84.7821 40.3428 84.6356 40.2839C84.4891 40.2249 84.3558 40.1375 84.2434 40.0266C84.131 39.9157 84.0418 39.7836 83.9809 39.6379C83.92 39.4922 83.8887 39.3359 83.8887 39.178V31.229C83.8887 30.9086 84.0159 30.6014 84.2425 30.3748C84.469 30.1483 84.7763 30.021 85.0967 30.021H99.8657C101.228 30.021 102.534 30.562 103.497 31.525C104.46 32.488 105.001 33.7941 105.001 35.156C105.001 36.5179 104.46 37.824 103.497 38.787C102.534 39.75 101.228 40.291 99.8657 40.291V40.37ZM86.3047 37.97H99.8657C100.241 37.9978 100.617 37.948 100.972 37.8236C101.327 37.6992 101.653 37.5029 101.928 37.247C102.204 36.9911 102.424 36.6811 102.574 36.3364C102.724 35.9916 102.802 35.6196 102.802 35.2435C102.802 34.8674 102.724 34.4954 102.574 34.1506C102.424 33.8059 102.204 33.4959 101.928 33.24C101.653 32.9841 101.327 32.7878 100.972 32.6634C100.617 32.539 100.241 32.4892 99.8657 32.517H86.3047V37.97Z" fill="black"/>
<path d="M99.8657 57.6432H85.0967C84.9379 57.6432 84.7806 57.6118 84.6339 57.551C84.4872 57.4902 84.354 57.401 84.2418 57.2886C84.1296 57.1762 84.0406 57.0428 83.9801 56.8961C83.9195 56.7493 83.8884 56.592 83.8887 56.4332V48.5652C83.8887 48.4073 83.92 48.2509 83.9809 48.1053C84.0418 47.9596 84.131 47.8275 84.2434 47.7166C84.3558 47.6057 84.4891 47.5182 84.6356 47.4593C84.7821 47.4003 84.9388 47.371 85.0967 47.3732H99.8657C101.228 47.3732 102.534 47.9142 103.497 48.8772C104.46 49.8402 105.001 51.1463 105.001 52.5082C105.001 53.87 104.46 55.1762 103.497 56.1391C102.534 57.1021 101.228 57.6432 99.8657 57.6432V57.6432ZM86.3047 55.2262H99.8657C100.241 55.254 100.617 55.2041 100.972 55.0797C101.327 54.9553 101.653 54.7591 101.928 54.5032C102.204 54.2473 102.424 53.9372 102.574 53.5925C102.724 53.2478 102.802 52.8757 102.802 52.4997C102.802 52.1236 102.724 51.7515 102.574 51.4068C102.424 51.0621 102.204 50.7521 101.928 50.4962C101.653 50.2403 101.327 50.044 100.972 49.9196C100.617 49.7952 100.241 49.7453 99.8657 49.7732H86.3047V55.2262Z" fill="black"/>
<path d="M99.8657 74.8999H85.0967C84.7763 74.8999 84.469 74.7727 84.2425 74.5461C84.0159 74.3196 83.8887 74.0123 83.8887 73.6919V65.8199C83.8929 65.5023 84.022 65.1992 84.2481 64.9761C84.4742 64.753 84.779 64.6279 85.0967 64.6279H99.8657C100.54 64.6279 101.208 64.7607 101.831 65.0188C102.454 65.2769 103.02 65.6551 103.497 66.1319C103.973 66.6088 104.352 67.1748 104.61 67.7979C104.868 68.4209 105.001 69.0886 105.001 69.7629C105.001 70.4373 104.868 71.105 104.61 71.728C104.352 72.351 103.973 72.9171 103.497 73.3939C103.02 73.8708 102.454 74.249 101.831 74.507C101.208 74.7651 100.54 74.8979 99.8657 74.8979V74.8999ZM86.3047 72.4829H99.8657C100.241 72.5108 100.617 72.4609 100.972 72.3365C101.327 72.2121 101.653 72.0158 101.928 71.7599C102.204 71.504 102.424 71.194 102.574 70.8493C102.724 70.5046 102.802 70.1325 102.802 69.7564C102.802 69.3803 102.724 69.0083 102.574 68.6636C102.424 68.3188 102.204 68.0088 101.928 67.7529C101.653 67.497 101.327 67.3007 100.972 67.1763C100.617 67.0519 100.241 67.0021 99.8657 67.0299H86.3047V72.4829Z" fill="black"/>
<path d="M73.8921 17.367H66.0381C65.7467 17.3925 65.4569 17.3026 65.231 17.1168C65.0051 16.9309 64.8612 16.6639 64.8301 16.373V4.224C64.8301 1.891 67.1291 0 69.9651 0C72.8011 0 75.1001 1.891 75.1001 4.224V16.373C75.069 16.6639 74.925 16.9309 74.6992 17.1168C74.4733 17.3026 74.1835 17.3925 73.8921 17.367V17.367ZM67.1831 15.392H72.6521V4.224C72.5273 3.59045 72.1865 3.01987 71.6877 2.60974C71.189 2.19962 70.5633 1.9754 69.9176 1.9754C69.2719 1.9754 68.6462 2.19962 68.1474 2.60974C67.6487 3.01987 67.3078 3.59045 67.1831 4.224V15.392Z" fill="black"/>
<path d="M56.7504 17.367H48.8014C48.5124 17.3889 48.2263 17.2973 48.0038 17.1117C47.7812 16.9262 47.6398 16.6612 47.6094 16.373V4.224C47.6094 1.891 49.9094 0 52.7444 0C55.5794 0 57.8794 1.891 57.8794 4.224V16.373C57.8526 16.6511 57.721 16.9085 57.5113 17.0931C57.3017 17.2777 57.0296 17.3757 56.7504 17.367ZM50.0894 15.392H55.5424V4.224C55.5638 3.78478 55.4509 3.34946 55.2186 2.97606C54.9864 2.60266 54.6458 2.30893 54.2424 2.134C53.7981 1.91648 53.31 1.80339 52.8154 1.80339C52.3207 1.80339 51.8326 1.91648 51.3884 2.134C50.9849 2.30893 50.6444 2.60266 50.4121 2.97606C50.1799 3.34946 50.0669 3.78478 50.0884 4.224L50.0894 15.392Z" fill="black"/>
<path d="M39.6069 17.367H31.7369C31.4287 17.3708 31.1286 17.2677 30.8879 17.075C30.7819 16.9915 30.6961 16.8852 30.6367 16.7641C30.5773 16.6429 30.546 16.5099 30.5449 16.375V4.224C30.5449 1.891 32.8439 0 35.6799 0C38.5159 0 40.8149 1.891 40.8149 4.224V16.373C40.7838 16.6639 40.6399 16.9309 40.414 17.1168C40.1881 17.3026 39.8983 17.3925 39.6069 17.367V17.367ZM32.9459 15.392H38.3989V4.224C38.4204 3.78478 38.3074 3.34946 38.0752 2.97606C37.8429 2.60266 37.5024 2.30893 37.0989 2.134C36.6547 1.91648 36.1666 1.80339 35.6719 1.80339C35.1773 1.80339 34.6892 1.91648 34.2449 2.134C33.8415 2.30893 33.5009 2.60266 33.2687 2.97606C33.0364 3.34946 32.9235 3.78478 32.9449 4.224L32.9459 15.392Z" fill="black"/>
<path d="M69.9651 105C67.1291 105 64.8301 103.1 64.8301 100.76V88.5652C64.86 88.2733 65.0034 88.0049 65.2293 87.8178C65.4553 87.6308 65.7458 87.54 66.0381 87.5652H73.8911C74.1834 87.54 74.4738 87.6308 74.6998 87.8178C74.9258 88.0049 75.0692 88.2733 75.0991 88.5652V100.76C75.0991 103.102 72.7991 105 69.9641 105H69.9651ZM67.1831 89.5622V100.762C67.3057 101.397 67.6458 101.97 68.1447 102.382C68.6437 102.794 69.2706 103.019 69.9176 103.019C70.5646 103.019 71.1914 102.794 71.6904 102.382C72.1894 101.97 72.5294 101.397 72.6521 100.762V89.5622H67.1831Z" fill="black"/>
<path d="M52.8225 105C49.9865 105 47.6875 103.1 47.6875 100.76V88.5652C47.7167 88.276 47.8576 88.0097 48.0802 87.8229C48.3029 87.6361 48.5897 87.5436 48.8795 87.5652H56.8285C57.1208 87.54 57.4112 87.6308 57.6372 87.8178C57.8632 88.0049 58.0066 88.2733 58.0365 88.5652V100.76C58.024 101.346 57.8798 101.923 57.6146 102.446C57.3494 102.969 56.9701 103.425 56.5045 103.782C55.4552 104.602 54.1538 105.033 52.8225 105V105ZM50.0885 89.5622V100.762C50.0662 101.203 50.1787 101.64 50.411 102.015C50.6432 102.39 50.9842 102.686 51.3885 102.862C51.8325 103.08 52.3207 103.194 52.8155 103.194C53.3103 103.194 53.7985 103.08 54.2425 102.862C54.6468 102.686 54.9878 102.39 55.22 102.015C55.4523 101.64 55.5647 101.203 55.5425 100.762V89.5622H50.0885Z" fill="black"/>
<path d="M35.6584 105C32.8224 105 30.5234 103.1 30.5234 100.76V88.565C30.5246 88.43 30.5561 88.297 30.6157 88.1758C30.6752 88.0546 30.7613 87.9484 30.8674 87.865C31.1079 87.6718 31.408 87.5682 31.7164 87.572H39.5854C39.8777 87.5468 40.1682 87.6376 40.3942 87.8247C40.6202 88.0117 40.7636 88.2801 40.7934 88.572V100.76C40.7934 103.102 38.4934 105 35.6584 105ZM32.9444 89.562V100.762C32.9222 101.203 33.0347 101.64 33.2669 102.015C33.4991 102.39 33.8401 102.685 34.2444 102.862C34.6885 103.08 35.1766 103.194 35.6714 103.194C36.1662 103.194 36.6544 103.08 37.0984 102.862C37.5028 102.685 37.8437 102.39 38.076 102.015C38.3082 101.64 38.4207 101.203 38.3984 100.762V89.562H32.9444Z" fill="black"/>
<path d="M88.5399 26.7692C88.5375 24.0718 87.4648 21.4856 85.5572 19.5784C83.6497 17.6712 81.0633 16.599 78.3659 16.5972H75.8379V88.4032H78.3659C81.0605 88.4013 83.6445 87.3313 85.5516 85.4276C87.4587 83.5239 88.5333 80.9418 88.5399 78.2472V26.7692Z" fill="#E87E70"/>
<path opacity="0.1" d="M88.5399 44.9722H75.8379V60.0432H88.5399V44.9722Z" fill="black"/>
<path d="M22.1672 53.6999H17.7562C17.5636 53.718 17.3704 53.6736 17.205 53.5733C17.0397 53.473 16.911 53.322 16.8382 53.1429C16.7416 52.9421 16.6914 52.7222 16.6914 52.4994C16.6914 52.2766 16.7416 52.0566 16.8382 51.8559C16.911 51.6767 17.0397 51.5258 17.205 51.4255C17.3704 51.3252 17.5636 51.2808 17.7562 51.2989H22.1672C22.3597 51.2808 22.553 51.3252 22.7183 51.4255C22.8837 51.5258 23.0123 51.6767 23.0852 51.8559C23.1818 52.0566 23.232 52.2766 23.232 52.4994C23.232 52.7222 23.1818 52.9421 23.0852 53.1429C23.0123 53.322 22.8837 53.473 22.7183 53.5733C22.553 53.6736 22.3597 53.718 22.1672 53.6999V53.6999Z" fill="black"/>
<path d="M78.3461 89.5948H27.3051C24.3071 89.5821 21.4366 88.3799 19.3243 86.2524C17.2119 84.1248 16.0303 81.2459 16.0391 78.2478V26.7678C16.0303 23.7682 17.2114 20.8876 19.3233 18.7575C21.4352 16.6274 24.3056 15.4217 27.3051 15.4048H78.3461C81.3456 15.4217 84.216 16.6274 86.3279 18.7575C88.4398 20.8876 89.6209 23.7682 89.6121 26.7678V78.2478C89.6209 81.2459 88.4393 84.1248 86.327 86.2524C84.2146 88.3799 81.3442 89.5821 78.3461 89.5948ZM27.3051 17.8008C24.936 17.8111 22.6677 18.761 20.9982 20.442C19.3286 22.1229 18.3943 24.3976 18.4001 26.7668V78.2478C18.3943 80.6129 19.3271 82.8837 20.9938 84.5616C22.6606 86.2396 24.925 87.1877 27.2901 87.1978H78.3461C80.7084 87.1835 82.9688 86.2336 84.632 84.556C86.2953 82.8785 87.226 80.6101 87.2201 78.2478V26.7678C87.2302 24.4027 86.3015 22.1302 84.6377 20.4492C82.974 18.7682 80.7112 17.8161 78.3461 17.8018L27.3051 17.8008Z" fill="black"/>
<path d="M45.3428 89.5952C45.1849 89.5973 45.0282 89.5681 44.8817 89.5091C44.7352 89.4502 44.6019 89.3627 44.4895 89.2518C44.3771 89.1409 44.2879 89.0088 44.227 88.8631C44.1661 88.7174 44.1348 88.5611 44.1348 88.4032V74.0952C44.1348 73.7748 44.262 73.4676 44.4886 73.241C44.7151 73.0145 45.0224 72.8872 45.3428 72.8872C45.6631 72.8872 45.9704 73.0145 46.1969 73.241C46.4235 73.4676 46.5508 73.7748 46.5508 74.0952V88.4032C46.5508 88.5611 46.5194 88.7174 46.4585 88.8631C46.3976 89.0088 46.3084 89.1409 46.196 89.2518C46.0836 89.3627 45.9503 89.4502 45.8038 89.5091C45.6574 89.5681 45.5006 89.5973 45.3428 89.5952V89.5952Z" fill="black"/>
<path d="M60.3018 89.5952C60.1439 89.5973 59.9871 89.5681 59.8407 89.5091C59.6942 89.4502 59.5609 89.3627 59.4485 89.2518C59.3361 89.1409 59.2469 89.0088 59.186 88.8631C59.1251 88.7174 59.0937 88.5611 59.0938 88.4032V74.0952C59.0938 73.7748 59.221 73.4676 59.4476 73.241C59.6741 73.0145 59.9814 72.8872 60.3018 72.8872C60.6221 72.8872 60.9294 73.0145 61.1559 73.241C61.3825 73.4676 61.5098 73.7748 61.5098 74.0952V88.4032C61.5098 88.5611 61.4784 88.7174 61.4175 88.8631C61.3566 89.0088 61.2674 89.1409 61.155 89.2518C61.0426 89.3627 60.9093 89.4502 60.7628 89.5091C60.6164 89.5681 60.4596 89.5973 60.3018 89.5952V89.5952Z" fill="black"/>
<path d="M45.3428 32.1289C45.0251 32.1289 44.7203 32.0039 44.4942 31.7808C44.2681 31.5577 44.139 31.2545 44.1348 30.9369V16.6289C44.1348 16.3085 44.262 16.0013 44.4886 15.7747C44.7151 15.5482 45.0224 15.4209 45.3428 15.4209C45.6631 15.4209 45.9704 15.5482 46.1969 15.7747C46.4235 16.0013 46.5508 16.3085 46.5508 16.6289V30.9369C46.5466 31.2545 46.4174 31.5577 46.1913 31.7808C45.9653 32.0039 45.6604 32.1289 45.3428 32.1289V32.1289Z" fill="black"/>
<path d="M60.3018 32.1289C59.9841 32.1289 59.6793 32.0039 59.4532 31.7808C59.2271 31.5577 59.098 31.2545 59.0938 30.9369V16.6289C59.0938 16.3085 59.221 16.0013 59.4476 15.7747C59.6741 15.5482 59.9814 15.4209 60.3018 15.4209C60.6221 15.4209 60.9294 15.5482 61.1559 15.7747C61.3825 16.0013 61.5098 16.3085 61.5098 16.6289V30.9369C61.5055 31.2545 61.3764 31.5577 61.1503 31.7808C60.9242 32.0039 60.6194 32.1289 60.3018 32.1289V32.1289Z" fill="black"/>
<path d="M32.4476 46.1742H17.8636C17.6566 46.1959 17.4478 46.1543 17.265 46.0549C17.0821 45.9554 16.9338 45.8028 16.8396 45.6172C16.7321 45.4197 16.6758 45.1985 16.6758 44.9737C16.6758 44.7489 16.7321 44.5277 16.8396 44.3302C16.9338 44.1446 17.0821 43.992 17.265 43.8925C17.4478 43.7931 17.6566 43.7515 17.8636 43.7732H32.4476C32.6546 43.7515 32.8633 43.7931 33.0462 43.8925C33.229 43.992 33.3773 44.1446 33.4716 44.3302C33.579 44.5277 33.6354 44.7489 33.6354 44.9737C33.6354 45.1985 33.579 45.4197 33.4716 45.6172C33.3773 45.8028 33.229 45.9554 33.0462 46.0549C32.8633 46.1543 32.6546 46.1959 32.4476 46.1742V46.1742Z" fill="black"/>
<path d="M32.4476 61.225H17.8636C17.6566 61.2467 17.4478 61.2051 17.265 61.1057C17.0821 61.0062 16.9338 60.8536 16.8396 60.668C16.7321 60.4705 16.6758 60.2493 16.6758 60.0245C16.6758 59.7997 16.7321 59.5784 16.8396 59.381C16.9338 59.1954 17.0821 59.0428 17.265 58.9433C17.4478 58.8439 17.6566 58.8022 17.8636 58.824H32.4476C32.6546 58.8022 32.8633 58.8439 33.0462 58.9433C33.229 59.0428 33.3773 59.1954 33.4716 59.381C33.579 59.5784 33.6354 59.7997 33.6354 60.0245C33.6354 60.2493 33.579 60.4705 33.4716 60.668C33.3773 60.8536 33.229 61.0062 33.0462 61.1057C32.8633 61.2051 32.6546 61.2467 32.4476 61.225V61.225Z" fill="black"/>
<path d="M87.6882 46.1741H73.4972C73.2935 46.1956 73.088 46.1537 72.909 46.054C72.73 45.9543 72.5862 45.8017 72.4972 45.6171C72.3926 45.4187 72.3379 45.1979 72.3379 44.9736C72.3379 44.7493 72.3926 44.5284 72.4972 44.3301C72.5862 44.1455 72.73 43.9929 72.909 43.8932C73.088 43.7935 73.2935 43.7515 73.4972 43.7731H87.6882C87.892 43.7515 88.0975 43.7935 88.2765 43.8932C88.4555 43.9929 88.5993 44.1455 88.6882 44.3301C88.7929 44.5284 88.8476 44.7493 88.8476 44.9736C88.8476 45.1979 88.7929 45.4187 88.6882 45.6171C88.5993 45.8017 88.4555 45.9543 88.2765 46.054C88.0975 46.1537 87.892 46.1956 87.6882 46.1741V46.1741Z" fill="black"/>
<path d="M87.6882 61.2249H73.4972C73.2935 61.2464 73.088 61.2045 72.909 61.1048C72.73 61.0051 72.5862 60.8525 72.4972 60.6679C72.3926 60.4695 72.3379 60.2486 72.3379 60.0244C72.3379 59.8001 72.3926 59.5792 72.4972 59.3809C72.5862 59.1963 72.73 59.0437 72.909 58.944C73.088 58.8443 73.2935 58.8023 73.4972 58.8239H87.6882C87.892 58.8023 88.0975 58.8443 88.2765 58.944C88.4555 59.0437 88.5993 59.1963 88.6882 59.3809C88.7929 59.5792 88.8476 59.8001 88.8476 60.0244C88.8476 60.2486 88.7929 60.4695 88.6882 60.6679C88.5993 60.8525 88.4555 61.0051 88.2765 61.1048C88.0975 61.2045 87.892 61.2464 87.6882 61.2249V61.2249Z" fill="black"/>
<path d="M60.3576 75.3372C58.835 75.3387 57.3385 74.9419 56.0166 74.1862C54.6948 73.4305 53.5937 72.3421 52.8226 71.0292C51.85 72.6811 50.3615 73.9677 48.5861 74.6908C46.8108 75.414 44.8469 75.5337 42.9969 75.0315C41.1469 74.5293 39.5131 73.433 38.3471 71.9114C37.1811 70.3898 36.5474 68.5272 36.5436 66.6102V65.8472C35.3608 65.2746 34.3226 64.4424 33.5063 63.4126C32.69 62.3828 32.1169 61.1819 31.8295 59.8997C31.5421 58.6174 31.548 57.2868 31.8467 56.0071C32.1455 54.7274 32.7293 53.5317 33.5546 52.5092C32.7283 51.4856 32.1436 50.2887 31.8444 49.0076C31.5451 47.7266 31.5389 46.3946 31.8262 45.1108C32.1136 43.827 32.687 42.6247 33.5039 41.5935C34.3207 40.5623 35.3598 39.7288 36.5436 39.1552V38.4082C36.5439 36.4898 37.1751 34.6248 38.3398 33.1005C39.5046 31.5762 41.1383 30.4773 42.9892 29.973C44.8401 29.4688 46.8055 29.5872 48.5824 30.31C50.3594 31.0329 51.8493 32.3201 52.8226 33.9732C53.7959 32.3201 55.2858 31.0329 57.0628 30.31C58.8398 29.5872 60.8051 29.4688 62.656 29.973C64.5069 30.4773 66.1406 31.5762 67.3054 33.1005C68.4702 34.6248 69.1013 36.4898 69.1016 38.4082V39.1552C70.2826 39.7318 71.3187 40.5667 72.1331 41.5982C72.9476 42.6296 73.5195 43.8311 73.8066 45.1136C74.0937 46.3961 74.0885 47.7267 73.7914 49.0069C73.4944 50.2871 72.9131 51.4841 72.0906 52.5092C72.913 53.5328 73.4943 54.7286 73.7913 56.0076C74.0883 57.2867 74.0934 58.6162 73.8063 59.8976C73.5191 61.1789 72.9471 62.3791 72.1327 63.409C71.3182 64.439 70.2822 65.2724 69.1016 65.8472V66.6102C69.0971 68.9263 68.1739 71.146 66.5346 72.7821C64.8952 74.4183 62.6737 75.3372 60.3576 75.3372ZM52.8226 65.4012C53.143 65.4012 53.4503 65.5284 53.6768 65.755C53.9033 65.9815 54.0306 66.2888 54.0306 66.6092C54.0306 68.2957 54.7006 69.9131 55.8931 71.1057C57.0857 72.2982 58.7031 72.9682 60.3896 72.9682C62.0761 72.9682 63.6936 72.2982 64.8861 71.1057C66.0787 69.9131 66.7486 68.2957 66.7486 66.6092C66.7545 66.1817 66.7118 65.755 66.6216 65.3372C66.5692 65.0519 66.6185 64.7574 66.7608 64.5047C66.9032 64.252 67.1295 64.0572 67.4006 63.9542C68.6358 63.5186 69.7063 62.7122 70.4659 61.6453C71.2256 60.5783 71.6372 59.3029 71.6446 57.9932C71.6502 57.1291 71.4765 56.2733 71.1345 55.4798C70.7925 54.6863 70.2896 53.9724 69.6576 53.3832C69.5367 53.2702 69.4403 53.1335 69.3744 52.9817C69.3085 52.8299 69.2745 52.6662 69.2745 52.5007C69.2745 52.3352 69.3085 52.1714 69.3744 52.0196C69.4403 51.8678 69.5367 51.7312 69.6576 51.6182C70.2876 51.0307 70.7893 50.3194 71.1313 49.5288C71.4732 48.7383 71.648 47.8855 71.6446 47.0242C71.6347 45.702 71.2129 44.4158 70.4379 43.3446C69.6629 42.2733 68.5733 41.4703 67.3206 41.0472C67.0495 40.9441 66.8232 40.7493 66.6808 40.4966C66.5385 40.244 66.4893 39.9494 66.5416 39.6642C66.6311 39.2516 66.6737 38.8303 66.6686 38.4082C66.6686 36.7217 65.9987 35.1042 64.8061 33.9117C63.6136 32.7191 61.9961 32.0492 60.3096 32.0492C58.6231 32.0492 57.0057 32.7191 55.8131 33.9117C54.6206 35.1042 53.9506 36.7217 53.9506 38.4082C53.9506 38.7285 53.8233 39.0358 53.5968 39.2624C53.3703 39.4889 53.063 39.6162 52.7426 39.6162C52.4222 39.6162 52.115 39.4889 51.8884 39.2624C51.6619 39.0358 51.5346 38.7285 51.5346 38.4082C51.5346 36.7217 50.8647 35.1042 49.6721 33.9117C48.4796 32.7191 46.8621 32.0492 45.1756 32.0492C43.4891 32.0492 41.8717 32.7191 40.6791 33.9117C39.4866 35.1042 38.8166 36.7217 38.8166 38.4082C38.8195 38.8299 38.862 39.2504 38.9436 39.6642C39.0027 39.9499 38.9563 40.2474 38.8131 40.5016C38.67 40.7558 38.4396 40.9496 38.1646 41.0472C36.9297 41.4862 35.8606 42.296 35.1036 43.3659C34.3466 44.4359 33.9386 45.7135 33.9356 47.0242C33.9323 47.8855 34.107 48.7383 34.449 49.5288C34.7909 50.3194 35.2926 51.0307 35.9226 51.6182C36.0435 51.7312 36.1399 51.8678 36.2058 52.0196C36.2717 52.1714 36.3057 52.3352 36.3057 52.5007C36.3057 52.6662 36.2717 52.8299 36.2058 52.9817C36.1399 53.1335 36.0435 53.2702 35.9226 53.3832C35.2907 53.9724 34.7878 54.6863 34.4458 55.4798C34.1038 56.2733 33.93 57.1291 33.9356 57.9932C33.9417 59.3012 34.3511 60.5756 35.1079 61.6425C35.8647 62.7095 36.9321 63.517 38.1646 63.9552C38.4396 64.0527 38.67 64.2465 38.8131 64.5008C38.9563 64.755 39.0027 65.0524 38.9436 65.3382C38.8613 65.7572 38.8188 66.1831 38.8166 66.6102C38.8166 68.2967 39.4866 69.9141 40.6791 71.1067C41.8717 72.2992 43.4891 72.9692 45.1756 72.9692C46.8621 72.9692 48.4796 72.2992 49.6721 71.1067C50.8647 69.9141 51.5346 68.2967 51.5346 66.6102C51.5343 66.4446 51.5679 66.2807 51.6336 66.1286C51.6992 65.9766 51.7954 65.8397 51.9162 65.7264C52.037 65.6131 52.1798 65.5259 52.3357 65.4701C52.4917 65.4143 52.6574 65.3912 52.8226 65.4022V65.4012Z" fill="black"/>
<path d="M37.9916 66.2931H37.6736C37.3665 66.2078 37.1056 66.0046 36.9477 65.7277C36.7898 65.4509 36.7477 65.1229 36.8306 64.8151C37.1159 63.8808 37.5335 62.9921 38.0706 62.1761C38.5722 61.3276 39.2641 60.6074 40.0917 60.0721C40.9193 59.5369 41.8601 59.2014 42.8396 59.0921C43.0038 59.0652 43.1719 59.0724 43.3332 59.1135C43.4945 59.1545 43.6455 59.2285 43.7769 59.3306C43.9083 59.4328 44.0171 59.561 44.0966 59.7073C44.1761 59.8535 44.2245 60.0146 44.2388 60.1804C44.2531 60.3462 44.233 60.5132 44.1797 60.6708C44.1264 60.8285 44.0411 60.9735 43.9292 61.0966C43.8173 61.2198 43.6811 61.3185 43.5292 61.3866C43.3773 61.4546 43.213 61.4906 43.0466 61.4921C40.1696 61.7461 39.1356 65.4031 39.1196 65.4501C39.0433 65.6909 38.8935 65.9018 38.6912 66.053C38.4888 66.2042 38.2442 66.2882 37.9916 66.2931V66.2931Z" fill="black"/>
<path d="M70.3881 53.7008C70.0903 53.7028 69.8019 53.5962 69.5771 53.4008C68.8512 52.7849 67.9519 52.4098 67.0035 52.3272C66.0552 52.2446 65.1045 52.4587 64.2831 52.9398C64.1469 53.0375 63.9918 53.1058 63.8277 53.1403C63.6637 53.1748 63.4942 53.1748 63.3302 53.1403C63.1661 53.1057 63.0111 53.0374 62.8749 52.9397C62.7387 52.842 62.6243 52.7169 62.539 52.5726C62.4537 52.4282 62.3995 52.2677 62.3796 52.1013C62.3597 51.9348 62.3747 51.766 62.4237 51.6057C62.4726 51.4453 62.5544 51.2969 62.6638 51.1699C62.7732 51.0429 62.9078 50.94 63.0591 50.8678C64.3206 50.1162 65.7878 49.7835 67.2501 49.9178C68.7124 50.052 70.0945 50.6461 71.1981 51.6148C71.3801 51.7765 71.5082 51.99 71.5653 52.2266C71.6223 52.4632 71.6056 52.7116 71.5173 52.9385C71.4289 53.1653 71.2733 53.3596 71.0713 53.4954C70.8692 53.6311 70.6305 53.7018 70.3871 53.6978L70.3881 53.7008Z" fill="black"/>
<path d="M44.5683 43.286C44.368 43.2861 44.1711 43.2351 43.9961 43.1378C43.8211 43.0405 43.6738 42.9001 43.5683 42.73C42.0923 40.472 38.2413 41.14 38.1923 41.14C37.8929 41.1627 37.5958 41.0733 37.3589 40.8889C37.1219 40.7046 36.9621 40.4387 36.9105 40.1429C36.859 39.8472 36.9194 39.5428 37.08 39.2892C37.2406 39.0356 37.4899 38.8508 37.7793 38.771C38.0023 38.771 43.2323 37.849 45.5853 41.458C45.7394 41.718 45.789 42.0268 45.724 42.322C45.659 42.6172 45.4843 42.8767 45.2353 43.048C45.0434 43.196 44.8095 43.2793 44.5673 43.286H44.5683Z" fill="black"/>
<path d="M55.2706 52.9869C55.091 52.9871 54.9136 52.9473 54.7513 52.8703C54.5891 52.7933 54.446 52.6811 54.3326 52.5419C53.9727 51.954 53.4807 51.4582 52.8957 51.0937C52.3107 50.7291 51.6488 50.506 50.9626 50.4419C50.3072 50.5483 49.6793 50.7829 49.1146 51.132C48.55 51.4812 48.0596 51.9382 47.6716 52.4769C47.4776 52.7099 47.2031 52.8614 46.9026 52.9014C46.6021 52.9415 46.2975 52.867 46.0493 52.6929C45.8011 52.5187 45.6275 52.2576 45.5629 51.9614C45.4983 51.6652 45.5474 51.3555 45.7006 51.0939C46.3055 50.2521 47.0785 49.5448 47.9706 49.0167C48.8626 48.4887 49.8545 48.1513 50.8836 48.0259C51.9488 48.0641 52.9891 48.3587 53.9163 48.8846C54.8434 49.4105 55.6301 50.1522 56.2096 51.0469C56.3086 51.1697 56.3822 51.3109 56.4262 51.4624C56.4702 51.6138 56.4838 51.7725 56.466 51.9293C56.4482 52.086 56.3995 52.2377 56.3227 52.3754C56.2459 52.5132 56.1425 52.6344 56.0186 52.7319C55.8049 52.8983 55.5414 52.9881 55.2706 52.9869V52.9869Z" fill="black"/>
<path d="M25.6946 56.7361C24.8536 56.7392 24.0307 56.4926 23.3302 56.0273C22.6296 55.5621 22.0831 54.8993 21.7598 54.123C21.4365 53.3466 21.3511 52.4918 21.5144 51.6669C21.6777 50.8419 22.0823 50.0841 22.6769 49.4894C23.2716 48.8948 24.0294 48.4902 24.8544 48.3269C25.6793 48.1636 26.5341 48.249 27.3105 48.5723C28.0868 48.8956 28.7496 49.4421 29.2148 50.1427C29.6801 50.8432 29.9267 51.6661 29.9236 52.5071C29.9194 53.6274 29.4724 54.7006 28.6803 55.4928C27.8881 56.2849 26.8149 56.7319 25.6946 56.7361V56.7361ZM25.6946 50.6791C25.2757 50.6792 24.8698 50.8244 24.5459 51.09C24.222 51.3557 24.0002 51.7253 23.9181 52.1361C23.8361 52.5468 23.8989 52.9733 24.0958 53.343C24.2928 53.7127 24.6117 54.0028 24.9984 54.1638C25.3851 54.3248 25.8156 54.3469 26.2167 54.2263C26.6179 54.1057 26.9648 53.8499 27.1986 53.5023C27.4324 53.1547 27.5385 52.7369 27.4989 52.3199C27.4594 51.9029 27.2765 51.5125 26.9816 51.2151C26.6402 50.8734 26.1775 50.6807 25.6946 50.6791V50.6791Z" fill="black"/>
<path d="M88.0032 53.6988H83.3212C83.1206 53.7188 82.9189 53.6759 82.7438 53.5761C82.5687 53.4763 82.4291 53.3245 82.3442 53.1418C82.2412 52.9429 82.1875 52.7222 82.1875 52.4983C82.1875 52.2743 82.2412 52.0537 82.3442 51.8548C82.4291 51.672 82.5687 51.5202 82.7438 51.4204C82.9189 51.3206 83.1206 51.2778 83.3212 51.2978H88.0032C88.2037 51.2778 88.4054 51.3206 88.5805 51.4204C88.7556 51.5202 88.8952 51.672 88.9802 51.8548C89.0831 52.0537 89.1368 52.2743 89.1368 52.4983C89.1368 52.7222 89.0831 52.9429 88.9802 53.1418C88.8952 53.3245 88.7556 53.4763 88.5805 53.5761C88.4054 53.6759 88.2037 53.7188 88.0032 53.6988Z" fill="black"/>
<path d="M79.952 56.7361C79.1117 56.7361 78.2903 56.4867 77.5918 56.0195C76.8934 55.5523 76.3493 54.8883 76.0285 54.1116C75.7077 53.335 75.6247 52.4806 75.7899 51.6567C75.955 50.8328 76.361 50.0764 76.9564 49.4834C77.5518 48.8904 78.3097 48.4875 79.1343 48.3256C79.9589 48.1637 80.8129 48.2502 81.5883 48.5741C82.3637 48.898 83.0255 49.4448 83.4899 50.1451C83.9543 50.8454 84.2004 51.6678 84.197 52.5081C84.1928 53.6312 83.7437 54.7068 82.948 55.4994C82.1524 56.2921 81.0751 56.7371 79.952 56.7371V56.7361ZM79.952 50.6791C79.5905 50.6791 79.237 50.7863 78.9364 50.9872C78.6358 51.188 78.4015 51.4735 78.2631 51.8076C78.1248 52.1416 78.0886 52.5091 78.1591 52.8637C78.2297 53.2183 78.4038 53.544 78.6594 53.7997C78.9151 54.0553 79.2408 54.2294 79.5954 54.3C79.95 54.3705 80.3175 54.3343 80.6515 54.1959C80.9856 54.0576 81.2711 53.8233 81.4719 53.5227C81.6728 53.2221 81.78 52.8686 81.78 52.5071C81.78 52.267 81.7327 52.0293 81.6409 51.8076C81.549 51.5858 81.4143 51.3843 81.2446 51.2145C81.0748 51.0448 80.8733 50.9101 80.6515 50.8182C80.4298 50.7264 80.1921 50.6791 79.952 50.6791V50.6791Z" fill="black"/>
<path d="M52.8213 23.3848C52.5037 23.3848 52.1988 23.2597 51.9727 23.0366C51.7466 22.8135 51.6175 22.5104 51.6133 22.1928V16.5928C51.6133 16.2724 51.7406 15.9651 51.9671 15.7386C52.1936 15.512 52.5009 15.3848 52.8213 15.3848C53.1417 15.3848 53.4489 15.512 53.6755 15.7386C53.902 15.9651 54.0293 16.2724 54.0293 16.5928V22.2518C54.0092 22.5583 53.8731 22.8456 53.6487 23.0553C53.4243 23.2651 53.1284 23.3814 52.8213 23.3808V23.3848Z" fill="black"/>
<path d="M52.8235 29.4289C51.9832 29.4321 51.161 29.1858 50.4608 28.7213C49.7606 28.2568 49.214 27.5949 48.8902 26.8195C48.5665 26.0442 48.4801 25.1901 48.6421 24.3656C48.8041 23.5411 49.2071 22.7832 49.8002 22.188C50.3932 21.5927 51.1496 21.1868 51.9734 21.0217C52.7973 20.8566 53.6517 20.9397 54.4283 21.2606C55.2049 21.5814 55.8688 22.1255 56.336 22.8239C56.8031 23.5223 57.0525 24.3437 57.0525 25.1839C57.0525 26.307 56.6075 27.3843 55.8148 28.18C55.0222 28.9756 53.9466 29.4247 52.8235 29.4289V29.4289ZM52.8235 23.3559C52.4601 23.3466 52.1022 23.4458 51.7954 23.6409C51.4887 23.836 51.2471 24.1181 51.1015 24.4512C50.9559 24.7843 50.913 25.1532 50.9781 25.5109C51.0432 25.8685 51.2135 26.1986 51.4672 26.459C51.7209 26.7194 52.0464 26.8982 52.4022 26.9726C52.7581 27.047 53.128 27.0137 53.4648 26.8768C53.8015 26.7399 54.0898 26.5058 54.2929 26.2042C54.4959 25.9027 54.6044 25.5475 54.6045 25.1839C54.6047 24.7072 54.4185 24.2492 54.0858 23.9077C53.7531 23.5662 53.3001 23.3682 52.8235 23.3559Z" fill="black"/>
<path d="M52.8213 89.5938C52.6634 89.5959 52.5067 89.5666 52.3602 89.5077C52.2137 89.4487 52.0804 89.3613 51.968 89.2504C51.8557 89.1395 51.7664 89.0073 51.7055 88.8617C51.6446 88.716 51.6133 88.5597 51.6133 88.4018V82.8218C51.6133 82.5014 51.7406 82.1941 51.9671 81.9676C52.1936 81.741 52.5009 81.6138 52.8213 81.6138C53.1417 81.6138 53.4489 81.741 53.6755 81.9676C53.902 82.1941 54.0293 82.5014 54.0293 82.8218V88.4018C54.0293 88.5597 53.9979 88.716 53.937 88.8617C53.8761 89.0073 53.7869 89.1395 53.6745 89.2504C53.5621 89.3613 53.4288 89.4487 53.2824 89.5077C53.1359 89.5666 52.9792 89.5959 52.8213 89.5938V89.5938Z" fill="black"/>
<path d="M52.8228 84.043C51.9863 84.043 51.1687 83.7949 50.4732 83.3303C49.7778 82.8656 49.2357 82.2051 48.9157 81.4323C48.5956 80.6596 48.5118 79.8093 48.675 78.9889C48.8382 78.1686 49.241 77.415 49.8324 76.8236C50.4238 76.2322 51.1774 75.8294 51.9977 75.6662C52.8181 75.503 53.6684 75.5868 54.4411 75.9069C55.2139 76.227 55.8744 76.769 56.339 77.4645C56.8037 78.1599 57.0518 78.9775 57.0518 79.814C57.0518 80.9356 56.6062 82.0112 55.8131 82.8043C55.02 83.5974 53.9444 84.043 52.8228 84.043V84.043ZM52.8228 77.986C52.4594 77.9766 52.1014 78.0758 51.7947 78.2709C51.488 78.466 51.2464 78.7481 51.1008 79.0812C50.9552 79.4143 50.9122 79.7833 50.9773 80.1409C51.0425 80.4985 51.2128 80.8286 51.4664 81.089C51.7201 81.3494 52.0457 81.5282 52.4015 81.6026C52.7573 81.6771 53.1272 81.6437 53.464 81.5068C53.8008 81.37 54.0891 81.1358 54.2921 80.8343C54.4951 80.5327 54.6036 80.1775 54.6038 79.814C54.6039 79.3372 54.4178 78.8792 54.0851 78.5377C53.7524 78.1962 53.2994 77.9982 52.8228 77.986V77.986Z" fill="black"/>
</g>
<defs>
<clipPath id="clip0_1158_210">
<rect width="105" height="105" fill="white"/>
</clipPath>
</defs>
</svg>
