<svg width="98" height="105" viewBox="0 0 98 105" fill="none" xmlns="http://www.w3.org/2000/svg">
<g clip-path="url(#clip0_1158_192)">
<path d="M71.8546 18.1979C71.6499 18.4027 71.3722 18.5178 71.0826 18.5179H56.3206C56.1045 18.5174 55.8936 18.4519 55.7153 18.3299C55.537 18.2079 55.3994 18.0351 55.3206 17.8339C55.2338 17.6372 55.2096 17.4186 55.2513 17.2077C55.293 16.9968 55.3985 16.8038 55.5536 16.6549L58.7536 13.4369C47.2646 4.81793 28.8176 15.1089 28.6576 15.2089C28.4229 15.3529 28.1425 15.4029 27.8725 15.349C27.6025 15.295 27.3629 15.141 27.2016 14.9179C27.0325 14.707 26.9489 14.4401 26.9674 14.1704C26.9859 13.9007 27.1052 13.6478 27.3016 13.4619C36.5486 4.24993 45.5176 -0.278073 53.9766 0.00892728C58.8226 0.140318 63.4648 1.98726 67.0766 5.22093L70.3766 1.93093C70.5284 1.77552 70.7231 1.66891 70.9357 1.62473C71.1484 1.58055 71.3695 1.60081 71.5706 1.68293C71.7687 1.76999 71.9374 1.91253 72.0563 2.09335C72.1752 2.27416 72.2392 2.48553 72.2406 2.70193V17.4839C72.2064 17.7634 72.0656 18.0188 71.8476 18.1969L71.8546 18.1979ZM59.0136 16.3339H69.9916V5.35593L67.7786 7.55593C67.6767 7.66446 67.5523 7.74936 67.4141 7.80464C67.2759 7.85993 67.1272 7.88426 66.9786 7.87593C66.8294 7.87383 66.6823 7.84033 66.5468 7.77762C66.4114 7.7149 66.2907 7.62438 66.1926 7.51193C62.9064 4.22998 58.4874 2.33219 53.8446 2.20893C47.5836 1.99093 40.8576 4.75693 33.9126 10.4349C41.0756 7.78493 52.8396 5.26593 61.1536 12.5349C61.271 12.6297 61.3659 12.7494 61.4315 12.8853C61.497 13.0212 61.5316 13.17 61.5326 13.3209C61.539 13.4693 61.5138 13.6174 61.4586 13.7553C61.4034 13.8933 61.3196 14.0179 61.2126 14.1209L59.0136 16.3339Z" fill="black"/>
<path d="M27.319 86.8019C27.5237 86.5971 27.8014 86.482 28.091 86.4819H42.791C43.0069 86.482 43.218 86.5461 43.3975 86.6661C43.577 86.7861 43.7169 86.9566 43.7995 87.1561C43.8822 87.3556 43.9038 87.5751 43.8617 87.7869C43.8196 87.9987 43.7156 88.1932 43.563 88.3459L40.302 91.5459C51.95 100.165 70.353 89.9009 70.542 89.7839C70.774 89.6349 71.0543 89.5806 71.3252 89.6322C71.5961 89.6837 71.8369 89.8372 71.998 90.0609C72.1624 90.273 72.2442 90.5375 72.2282 90.8053C72.2122 91.0731 72.0994 91.326 71.911 91.5169C62.669 100.75 53.701 105.278 45.256 104.987C40.4064 104.859 35.7615 103.006 32.156 99.7599L28.866 103.007C28.7115 103.158 28.5161 103.261 28.3039 103.302C28.0917 103.344 27.872 103.322 27.672 103.24C27.4734 103.159 27.3036 103.02 27.1842 102.842C27.0648 102.664 27.0014 102.454 27.002 102.24V87.5739C27.0012 87.2848 27.1152 87.0071 27.319 86.8019V86.8019ZM40.16 88.6659H29.183V99.6439L31.383 97.4309C31.6043 97.2249 31.8956 97.1105 32.198 97.1109C32.4996 97.1291 32.7819 97.2652 32.984 97.4899C36.2702 100.77 40.6883 102.667 45.33 102.79C51.62 102.99 58.302 100.228 65.262 94.5489C58.099 97.1989 46.335 99.7179 38.007 92.4669C37.8924 92.3696 37.7996 92.2494 37.7343 92.114C37.669 91.9787 37.6328 91.8311 37.628 91.6809C37.6276 91.3785 37.7419 91.0873 37.948 90.8659L40.16 88.6659Z" fill="black"/>
<path d="M96.9098 95.5088V46.0068H89.9938C82.5606 46.0068 75.4318 48.9597 70.1757 54.2158C64.9196 59.4718 61.9668 66.6006 61.9668 74.0338V82.4058H76.5258L96.9098 95.5088Z" fill="#409FD9"/>
<path d="M96.9023 96.6C96.6967 96.5999 96.4956 96.539 96.3243 96.425L76.2633 83.497H47.4023C46.3422 83.4947 45.3262 83.0725 44.5765 82.3228C43.8269 81.5732 43.4047 80.5572 43.4023 79.497V75.645H45.5863V79.493C45.5874 79.9745 45.779 80.436 46.1193 80.7767C46.4596 81.1173 46.9209 81.3095 47.4023 81.311H76.5383C76.7456 81.311 76.9484 81.3719 77.1213 81.486L95.8163 93.511V35.811C95.8104 35.3302 95.6167 34.8707 95.2767 34.5307C94.9367 34.1907 94.4772 33.997 93.9963 33.991H53.5643V31.811H93.9963C95.0566 31.8131 96.0727 32.2353 96.8224 32.9849C97.5721 33.7346 97.9942 34.7508 97.9963 35.811V95.511C97.997 95.7075 97.9445 95.9005 97.8446 96.0697C97.7446 96.2388 97.6008 96.3778 97.4283 96.472C97.267 96.5577 97.0871 96.6027 96.9043 96.603V96.603L96.9023 96.6Z" fill="black"/>
<path d="M88.1713 50.9369H64.8713C64.5817 50.9369 64.3039 50.8219 64.0991 50.6171C63.8943 50.4123 63.7793 50.1345 63.7793 49.8449C63.7793 49.5553 63.8943 49.2776 64.0991 49.0728C64.3039 48.868 64.5817 48.7529 64.8713 48.7529H88.1713C88.4609 48.7529 88.7387 48.868 88.9435 49.0728C89.1482 49.2776 89.2633 49.5553 89.2633 49.8449C89.2633 50.1345 89.1482 50.4123 88.9435 50.6171C88.7387 50.8219 88.4609 50.9369 88.1713 50.9369V50.9369Z" fill="black"/>
<path d="M76.715 50.9499C76.4254 50.9499 76.1477 50.8348 75.9429 50.6301C75.7381 50.4253 75.623 50.1475 75.623 49.8579V44.0339C75.623 43.7443 75.7381 43.4665 75.9429 43.2617C76.1477 43.0569 76.4254 42.9419 76.715 42.9419C77.0047 42.9419 77.2824 43.0569 77.4872 43.2617C77.692 43.4665 77.807 43.7443 77.807 44.0339V49.8579C77.8091 50.0019 77.7822 50.1448 77.728 50.2782C77.6739 50.4116 77.5935 50.5327 77.4917 50.6346C77.3899 50.7364 77.2687 50.8167 77.1353 50.8709C77.0019 50.925 76.859 50.9519 76.715 50.9499V50.9499Z" fill="black"/>
<path d="M67.0613 74.1801C66.8358 74.1762 66.617 74.1025 66.435 73.9693C66.2531 73.836 66.1168 73.6497 66.0451 73.4358C65.9733 73.222 65.9695 72.9912 66.0341 72.7752C66.0988 72.5591 66.2288 72.3683 66.4063 72.2291C73.962 66.2072 79.8602 58.3607 83.5453 49.4291C83.6489 49.1638 83.8521 48.9494 84.1116 48.8318C84.371 48.7142 84.6662 48.7026 84.9341 48.7996C85.2019 48.8965 85.4213 49.0943 85.5454 49.3507C85.6695 49.6071 85.6885 49.9019 85.5983 50.1721C81.8255 59.5482 75.666 67.7744 67.7313 74.0341C67.528 74.1498 67.2942 74.2007 67.0613 74.1801Z" fill="black"/>
<path d="M85.9884 74.1741C85.7521 74.1752 85.5219 74.0986 85.3334 73.9561C78.6131 68.6159 73.146 61.8667 69.3174 54.1841C69.1956 53.9239 69.1796 53.6266 69.2729 53.3549C69.3662 53.0832 69.5615 52.8584 69.8174 52.7281C70.077 52.6022 70.3757 52.5842 70.6485 52.6779C70.9213 52.7715 71.146 52.9693 71.2734 53.2281C74.9607 60.6012 80.2093 67.083 86.6544 72.2231C86.8833 72.3996 87.0329 72.6596 87.0704 72.9462C87.1079 73.2328 87.0302 73.5226 86.8544 73.7521C86.7513 73.8832 86.6198 73.9892 86.4698 74.0623C86.3198 74.1354 86.1553 74.1736 85.9884 74.1741Z" fill="black"/>
<path d="M12.7988 81.3312V80.0212C12.7989 72.9098 14.3315 65.8819 17.2922 59.4161C20.2528 52.9503 24.5721 47.1984 29.9558 42.5522V49.4522H29.9458V65.4662H40.1368C41.2949 65.4649 42.4051 65.0042 43.224 64.1854C44.0429 63.3665 44.5035 62.2562 44.5048 61.0982V53.8182C44.5035 52.6601 44.0429 51.5499 43.224 50.731C42.4051 49.9121 41.2949 49.4515 40.1368 49.4502H38.0078C39.0177 49.271 39.9321 48.7418 40.5904 47.9554C41.2488 47.169 41.609 46.1758 41.6078 45.1502V37.8712C41.6095 36.9934 41.3452 36.1358 40.8498 35.4112C44.8828 33.4743 49.1598 32.0931 53.5638 31.3052V72.7412C53.5628 73.5129 53.2557 74.2527 52.71 74.7984C52.1644 75.3441 51.4245 75.6511 50.6528 75.6522L21.5338 75.7112L12.7988 81.3302V81.3312Z" fill="#409FD9"/>
<path d="M1.15 89.6848C1.00179 89.6927 0.853533 89.6703 0.714277 89.6189C0.575021 89.5676 0.447693 89.4884 0.340067 89.3862C0.232441 89.284 0.146778 89.1609 0.0883085 89.0245C0.0298394 88.8881 -0.000208414 88.7412 1.08803e-06 88.5928V25.9878C1.08803e-06 24.9269 0.421428 23.9095 1.17157 23.1594C1.92172 22.4092 2.93913 21.9878 4 21.9878H50.59C51.6494 21.9925 52.6641 22.4155 53.4132 23.1646C54.1623 23.9137 54.5853 24.9284 54.59 25.9878V72.5778C54.59 73.6387 54.1686 74.6561 53.4184 75.4062C52.6683 76.1564 51.6509 76.5778 50.59 76.5778H21.839L1.733 89.5098C1.56054 89.6243 1.35803 89.6852 1.151 89.6848H1.15ZM4.062 24.1678C3.57931 24.1678 3.11638 24.3595 2.77507 24.7009C2.43375 25.0422 2.242 25.5051 2.242 25.9878V86.5988L20.936 74.5718C21.1139 74.4547 21.323 74.3937 21.536 74.3968H50.652C51.1246 74.3817 51.5727 74.1833 51.9016 73.8436C52.2305 73.504 52.4142 73.0496 52.414 72.5768V25.9878C52.414 25.5051 52.2223 25.0422 51.8809 24.7009C51.5396 24.3595 51.0767 24.1678 50.594 24.1678H4.062Z" fill="black"/>
<path d="M24.4499 66.5949C24.2011 66.598 23.9587 66.516 23.7628 66.3625C23.5669 66.209 23.4294 65.9932 23.3729 65.7509L17.1729 38.4079L10.9499 65.7499C10.8682 66.0143 10.6899 66.2383 10.4505 66.377C10.2111 66.5158 9.92812 66.5593 9.65809 66.4987C9.38805 66.4381 9.15076 66.278 8.99355 66.0503C8.83634 65.8225 8.77076 65.5438 8.80988 65.2699L16.0899 33.2389C16.1482 32.9963 16.2858 32.78 16.4809 32.6244C16.6759 32.4688 16.9174 32.3828 17.1669 32.3799C17.4146 32.3834 17.654 32.47 17.8468 32.6258C18.0395 32.7815 18.1744 32.9974 18.2299 33.2389L25.5099 65.2699C25.5707 65.5534 25.5178 65.8495 25.3626 66.0945C25.2074 66.3395 24.9622 66.5138 24.6799 66.5799L24.4499 66.5949Z" fill="black"/>
<path opacity="0.1" d="M12.5215 53.8791H21.7955L17.1655 33.4961L12.5215 53.8791Z" fill="black"/>
<path d="M21.839 54.9718H12.521C12.3587 54.9718 12.1985 54.9351 12.0523 54.8644C11.9062 54.7938 11.7779 54.691 11.677 54.5638C11.5755 54.4364 11.5032 54.2882 11.4656 54.1296C11.4279 53.9711 11.4257 53.8063 11.459 53.6468L16.089 33.2638C16.1473 33.0212 16.2849 32.8049 16.48 32.6493C16.6751 32.4937 16.9165 32.4077 17.166 32.4048C17.4138 32.4083 17.6532 32.4949 17.8459 32.6507C18.0386 32.8064 18.1735 33.0223 18.229 33.2638L22.859 53.6468C22.8938 53.8059 22.8925 53.9708 22.8553 54.1293C22.8181 54.2879 22.7459 54.4361 22.644 54.5631C22.542 54.6902 22.413 54.7928 22.2663 54.8635C22.1196 54.9342 21.9589 54.9712 21.796 54.9718H21.839ZM13.933 52.7878H20.381L17.122 38.4328L13.933 52.7878Z" fill="black"/>
<path d="M40.141 66.5569H29.949C29.8002 66.567 29.651 66.5462 29.5108 66.4957C29.3706 66.4451 29.2423 66.366 29.1342 66.2634C29.0261 66.1607 28.9405 66.0368 28.8828 65.8993C28.8251 65.7619 28.7965 65.614 28.799 65.4649V49.4499C28.799 49.1603 28.914 48.8825 29.1188 48.6777C29.3236 48.473 29.6014 48.3579 29.891 48.3579H40.083C41.5299 48.3616 42.9165 48.938 43.9397 49.9612C44.9628 50.9843 45.5393 52.371 45.543 53.8179V61.0979C45.5431 62.5357 44.9761 63.9154 43.965 64.9377C42.954 65.9599 41.5806 66.5421 40.143 66.5579L40.141 66.5569ZM31.041 64.3729H40.141C40.9997 64.3577 41.8182 64.0059 42.42 63.3931C43.0219 62.7804 43.3591 61.9558 43.359 61.0969V53.8179C43.359 52.9491 43.0138 52.1158 42.3995 51.5014C41.7851 50.8871 40.9518 50.5419 40.083 50.5419H31.041V64.3729Z" fill="black"/>
<path d="M37.2407 50.6111H29.9607C29.812 50.6212 29.6628 50.6004 29.5225 50.5498C29.3823 50.4993 29.254 50.4202 29.1459 50.3176C29.0378 50.2149 28.9522 50.091 28.8945 49.9535C28.8368 49.8161 28.8083 49.6682 28.8107 49.5191V33.5041C28.8107 33.2145 28.9257 32.9367 29.1305 32.7319C29.3353 32.5272 29.6131 32.4121 29.9027 32.4121H37.1827C38.6296 32.4158 40.0163 32.9922 41.0394 34.0154C42.0626 35.0385 42.639 36.4252 42.6427 37.8721V45.1521C42.6428 46.5899 42.0758 47.9696 41.0648 48.9919C40.0538 50.0141 38.6803 50.5963 37.2427 50.6121L37.2407 50.6111ZM31.0527 48.4271H37.2407C38.0994 48.4119 38.9179 48.0601 39.5198 47.4473C40.1216 46.8346 40.4588 46.01 40.4587 45.1511V37.8721C40.4587 37.0033 40.1135 36.17 39.4992 35.5556C38.8848 34.9413 38.0515 34.5961 37.1827 34.5961H31.0527V48.4271Z" fill="black"/>
</g>
<defs>
<clipPath id="clip0_1158_192">
<rect width="98" height="105" fill="white"/>
</clipPath>
</defs>
</svg>
