<svg width="111" height="105" viewBox="0 0 111 105" fill="none" xmlns="http://www.w3.org/2000/svg">
<g clip-path="url(#clip0_1158_20)">
<path d="M61.6027 81.8233L55.1427 79.5163V79.5093L29.9727 70.4993H67.5837C68.7017 70.4064 69.7786 70.0342 70.7154 69.4169C71.6522 68.7995 72.419 67.9569 72.9454 66.9661C73.4718 65.9754 73.741 64.8683 73.7283 63.7464C73.7156 62.6246 73.4214 61.5239 72.8727 60.5453C74.5623 60.1994 76.0539 59.216 77.0377 57.7993L102.955 67.0553L61.6037 81.8233H61.6027Z" fill="#68A9A5"/>
<path d="M102.953 67.1041L77.0078 57.8361C77.8064 56.7114 78.2384 55.3676 78.2448 53.9881V53.9821L96.1888 60.3981C96.842 60.6321 97.5567 60.6286 98.2076 60.3881C98.8584 60.1477 99.4037 59.6856 99.7478 59.0831L102.377 54.4901L78.8078 46.0541V46.0411V46.0361L108.861 56.7681L102.953 67.1041Z" fill="#68A9A5"/>
<path d="M102.761 68.2282C102.697 68.2282 102.633 68.2229 102.569 68.2122L76.1914 58.7912C76.7658 58.2365 77.2368 57.584 77.5824 56.8642L102.45 65.7462L107.235 57.4322L78.3854 47.0682C78.7177 46.4241 78.9433 45.7304 79.0534 45.0142L109.229 55.7922C109.381 55.8491 109.519 55.9379 109.634 56.0526C109.749 56.1673 109.837 56.3053 109.894 56.4572C109.964 56.6022 110.001 56.7612 110.001 56.9222C110.001 57.0832 109.964 57.2421 109.894 57.3872L103.991 67.7252C103.889 67.8768 103.75 68.0009 103.589 68.0867C103.427 68.1725 103.247 68.2173 103.063 68.2172C103.028 68.2172 102.992 68.2172 102.957 68.2122C102.893 68.2231 102.827 68.2284 102.761 68.2282V68.2282Z" fill="black"/>
<path d="M61.6215 103.882L20.2695 89.1133V84.3583L50.2795 95.0793C50.7195 95.2385 51.1909 95.2909 51.655 95.2322C52.1192 95.1735 52.5627 95.0054 52.9492 94.7418C53.3357 94.4782 53.654 94.1265 53.878 93.7158C54.102 93.305 54.2252 92.847 54.2375 92.3793V79.0923L61.6215 81.7293V103.88V103.882Z" fill="#68A9A5"/>
<path d="M61.6016 103.882V98.8149L95.0816 86.8239C95.6496 86.6203 96.1419 86.2482 96.4928 85.7574C96.8438 85.2665 97.0366 84.6803 97.0456 84.0769V69.1019L63.2406 81.1449L102.953 66.9609V89.1139L61.6016 103.881V103.882Z" fill="#68A9A5"/>
<path d="M61.4301 105C61.3659 105 61.3018 104.997 61.2381 104.989L19.8881 90.2213C19.677 90.1423 19.4949 90.0012 19.3657 89.8166C19.2364 89.632 19.1661 89.4126 19.1641 89.1873V74.7553L21.3801 75.5483V88.3003L60.5141 102.272V82.5113L54.6311 80.4113L55.1471 79.5113L27.6171 69.6553H30.9171L61.9911 80.7553C62.2062 80.8343 62.3922 80.9771 62.5243 81.1645C62.6563 81.3519 62.7281 81.575 62.7301 81.8043V103.955C62.7285 104.132 62.6849 104.306 62.6028 104.462C62.5207 104.619 62.4025 104.754 62.2581 104.855C62.0928 104.946 61.9074 104.993 61.7191 104.993C61.6901 104.993 61.6571 104.993 61.6191 104.993C61.5562 104.999 61.4931 105.001 61.4301 105Z" fill="black"/>
<path d="M61.6022 104.989C61.4562 104.991 61.3112 104.964 61.1759 104.909C61.0405 104.854 60.9176 104.773 60.8143 104.669C60.711 104.566 60.6294 104.443 60.5745 104.308C60.5195 104.172 60.4922 104.027 60.4942 103.881V81.7293C60.4943 81.5017 60.5635 81.2794 60.6928 81.092C60.8221 80.9047 61.0054 80.7611 61.2182 80.6803L102.569 65.9123C102.739 65.8551 102.919 65.8386 103.096 65.8643C103.274 65.8901 103.442 65.9572 103.588 66.0603C103.734 66.1608 103.853 66.2952 103.936 66.452C104.018 66.6087 104.061 66.7832 104.061 66.9603V89.1133C104.061 89.3411 103.99 89.5632 103.858 89.7485C103.726 89.9339 103.539 90.0733 103.323 90.1473L61.9712 104.916C61.8515 104.955 61.7277 104.979 61.6022 104.989ZM62.7102 82.5123V102.302L101.846 88.3023V68.5263L62.7102 82.5123Z" fill="black"/>
<path d="M55.7201 92.0673L14.3691 77.2993L16.6051 73.8433L48.9561 85.4163C49.6094 85.6502 50.3241 85.6468 50.975 85.4065C51.626 85.1662 52.1716 84.7045 52.5161 84.1023L54.9291 79.8853L61.6291 81.7303L55.7211 92.0663L55.7201 92.0673Z" fill="#68A9A5"/>
<path d="M55.5287 93.1859C55.4645 93.1858 55.4004 93.1821 55.3367 93.1749L13.9847 78.4069C13.8335 78.3531 13.6959 78.2671 13.5813 78.1548C13.4666 78.0426 13.3777 77.9068 13.3207 77.7569C13.2687 77.6043 13.2497 77.4424 13.2648 77.2819C13.28 77.1215 13.329 76.966 13.4087 76.8259L17.4137 69.8179H19.9137L15.9787 76.6929L55.2187 90.7089L60.0027 82.3939L26.8507 70.4979H33.2797L61.9977 80.7549C62.1493 80.8118 62.287 80.9005 62.4015 81.0151C62.516 81.1296 62.6047 81.2673 62.6617 81.4189C62.7315 81.5641 62.7678 81.7232 62.7678 81.8844C62.7678 82.0455 62.7315 82.2046 62.6617 82.3499L56.7537 92.6879C56.651 92.8392 56.5129 92.9631 56.3513 93.0487C56.1897 93.1343 56.0096 93.179 55.8267 93.1789C55.7947 93.1789 55.7597 93.1789 55.7207 93.1789C55.6569 93.1848 55.5928 93.1871 55.5287 93.1859V93.1859ZM25.4597 69.9999L24.9597 69.8179H25.4597V69.9979V69.9999Z" fill="black"/>
<path d="M67.5086 92.0669L65.3346 88.2609L96.6766 77.0609C97.0834 76.9153 97.4533 76.6822 97.7602 76.3781C98.067 76.0739 98.3034 75.7061 98.4527 75.3007C98.6019 74.8952 98.6604 74.4619 98.6239 74.0313C98.5874 73.6008 98.4569 73.1835 98.2416 72.8089L96.2926 69.3969L61.6296 81.7779L61.6016 81.7289L102.953 66.9609L108.861 77.2979L67.5096 92.0669H67.5086Z" fill="#68A9A5"/>
<path d="M67.5097 93.1753C67.3139 93.1778 67.121 93.1269 66.9518 93.0281C66.7827 92.9292 66.6437 92.7862 66.5497 92.6143L60.6437 82.2763C60.5639 82.1364 60.5147 81.9812 60.4993 81.8208C60.484 81.6605 60.5029 81.4987 60.5547 81.3463C60.6141 81.1958 60.7038 81.0591 60.8182 80.9447C60.9326 80.8303 61.0693 80.7407 61.2197 80.6813L102.57 65.9123C102.817 65.8256 103.087 65.8282 103.332 65.9195C103.578 66.0109 103.783 66.1852 103.914 66.4123L109.821 76.7523C109.901 76.8919 109.95 77.0476 109.963 77.2083C109.977 77.369 109.954 77.5306 109.898 77.6817C109.841 77.8327 109.752 77.9693 109.637 78.0818C109.521 78.1943 109.382 78.2798 109.23 78.3323L67.8787 93.1013C67.7591 93.1403 67.6352 93.1651 67.5097 93.1753V93.1753ZM63.2097 82.3943L68.0097 90.7823L107.235 76.7673L102.45 68.3933L63.2097 82.3943Z" fill="black"/>
<path d="M67.1694 71.4541H25.5084C25.363 71.4544 25.2189 71.4259 25.0845 71.3705C24.9501 71.315 24.828 71.2336 24.725 71.1309C24.6221 71.0281 24.5405 70.9061 24.4848 70.7718C24.4291 70.6375 24.4004 70.4935 24.4004 70.3481V35.7311C24.4025 35.5669 24.4406 35.4052 24.5122 35.2575C24.5837 35.1097 24.6869 34.9795 24.8144 34.8761C24.9144 34.7881 35.4624 26.1521 38.6524 15.7181C39.9814 11.3711 37.9734 2.2181 37.9584 2.1311C37.9077 1.90481 37.9286 1.66836 38.0182 1.45446C38.1078 1.24057 38.2616 1.05978 38.4584 0.937101C38.6504 0.837101 40.4224 -0.167899 44.9414 0.0231014C49.9184 0.215101 53.8914 5.9181 54.6144 13.8611C54.9401 17.7256 54.6618 21.6173 53.7894 25.3961H73.2094C75.0068 25.5292 76.6849 26.3457 77.899 27.6777C79.1131 29.0097 79.7709 30.7561 79.7374 32.5581C79.7738 33.6145 79.5979 34.6675 79.22 35.6546C78.8421 36.6418 78.2699 37.5431 77.5374 38.3051C78.41 38.9419 79.1138 39.7824 79.5873 40.7534C80.0609 41.7244 80.2899 42.7964 80.2544 43.8761C80.243 45.9506 79.409 47.9358 77.9354 49.3961C78.8727 50.6818 79.3886 52.2262 79.4124 53.8171C79.4 55.3784 78.9209 56.9003 78.0366 58.1871C77.1524 59.4739 75.9034 60.4668 74.4504 61.0381C74.7321 61.8637 74.8767 62.7298 74.8784 63.6021C74.877 65.5544 74.1436 67.4352 72.823 68.873C71.5023 70.3108 69.6905 71.2012 67.7454 71.3681L67.1694 71.4541ZM26.6154 69.2541H67.4354C68.8366 69.1403 70.1443 68.5055 71.1004 67.4749C72.0566 66.4444 72.5917 65.0929 72.6004 63.6871C72.6253 62.7325 72.4013 61.7878 71.9504 60.9461C71.8704 60.7916 71.8287 60.6201 71.8287 60.4461C71.8287 60.2721 71.8704 60.1006 71.9504 59.9461C72.0261 59.7908 72.1358 59.6545 72.2713 59.5473C72.4069 59.4402 72.5648 59.3649 72.7334 59.3271C73.9933 59.0685 75.1268 58.3865 75.9454 57.3945C76.7641 56.4025 77.2186 55.1602 77.2334 53.8741C77.196 52.4488 76.6057 51.094 75.5874 50.0961C75.4789 49.9835 75.396 49.8488 75.3442 49.7013C75.2925 49.5538 75.2731 49.3968 75.2874 49.2411C75.3007 49.0841 75.3471 48.9316 75.4234 48.7938C75.4998 48.6559 75.6044 48.5357 75.7304 48.4411C76.4351 47.9377 77.0109 47.2748 77.4106 46.5064C77.8103 45.7381 78.0227 44.8862 78.0304 44.0201C78.0304 41.0731 76.0954 39.7611 74.7964 39.7611C74.5032 39.7611 74.222 39.6446 74.0147 39.4373C73.8074 39.23 73.6909 38.9488 73.6909 38.6556C73.6909 38.3624 73.8074 38.0812 74.0147 37.8739C74.222 37.6666 74.5032 37.5501 74.7964 37.5501C75.3424 37.5501 77.5134 36.2681 77.5134 32.6571C77.546 31.4415 77.1209 30.258 76.3223 29.3409C75.5238 28.4238 74.4099 27.84 73.2014 27.7051H52.3564C52.1844 27.7063 52.0145 27.6669 51.8605 27.5901C51.7066 27.5133 51.5729 27.4013 51.4704 27.2631C51.3664 27.1292 51.296 26.9724 51.2652 26.8057C51.2344 26.639 51.2441 26.4673 51.2934 26.3051C52.3753 22.3574 52.7501 18.2494 52.4004 14.1711C51.8004 7.3481 48.6794 2.4851 44.8544 2.3821C43.3332 2.28017 41.8053 2.40418 40.3204 2.7501C40.8074 5.3291 42.0044 12.4761 40.7634 16.5291C37.7064 26.3731 28.6824 34.4791 26.6154 36.2471V69.2541Z" fill="black"/>
<path d="M14.7541 71.455H13.7071H13.6881C13.5382 71.455 13.3901 71.4234 13.2533 71.3622C13.1164 71.301 12.9941 71.2117 12.8941 71.1C8.77542 66.6787 5.52946 61.5189 3.32711 55.892C1.11608 50.2694 -0.0127151 44.2797 0.000108036 38.238C0.000108036 37.338 0.000108033 36.481 0.074108 35.61C0.089208 35.3269 0.212304 35.0603 0.418051 34.8651C0.623799 34.67 0.896536 34.5611 1.18011 34.561H1.24511C1.14511 35.777 1.08411 37.014 1.07811 38.239C1.06214 44.4024 2.26175 50.5085 4.60827 56.2077C6.95479 61.907 10.4022 67.0876 14.7531 71.453L14.7541 71.455ZM25.5321 71.455H16.6591V69.255H24.4121V36.761H16.6591V34.561H25.5361C25.6807 34.5613 25.8237 34.5902 25.957 34.6461C26.0903 34.7021 26.2112 34.7839 26.3127 34.8868C26.4141 34.9898 26.4942 35.1118 26.5481 35.2459C26.6021 35.38 26.629 35.5235 26.6271 35.668V70.345C26.629 70.4899 26.602 70.6336 26.5479 70.768C26.4937 70.9023 26.4134 71.0246 26.3117 71.1277C26.2099 71.2308 26.0887 71.3126 25.955 71.3684C25.8214 71.4243 25.678 71.453 25.5331 71.453L25.5321 71.455Z" fill="black"/>
<path d="M16.659 74.3789C16.3863 74.3819 16.1226 74.2815 15.921 74.0979C10.9152 69.56 6.91305 64.026 4.17132 57.8507C1.42958 51.6755 0.00876702 44.9954 0 38.2389C0.00704313 36.2197 0.135273 34.2027 0.383999 32.1989C0.422855 31.9326 0.556133 31.6891 0.759527 31.5129C0.962921 31.3367 1.22288 31.2394 1.492 31.2389H16.659C16.8051 31.2369 16.95 31.2641 17.0854 31.3191C17.2207 31.3741 17.3437 31.4556 17.447 31.5589C17.5503 31.6622 17.6318 31.7851 17.6868 31.9205C17.7417 32.0558 17.769 32.2008 17.767 32.3469V73.2699C17.7689 73.4844 17.7086 73.6949 17.5932 73.8758C17.4778 74.0567 17.3124 74.2002 17.117 74.2889C16.9716 74.3482 16.816 74.3785 16.659 74.3779V74.3789ZM2.559 33.4409C2.35879 35.0335 2.24529 36.6359 2.219 38.2409C2.20985 50.3964 6.98454 62.0673 15.511 70.7309V33.4399L2.559 33.4409Z" fill="black"/>
</g>
<defs>
<clipPath id="clip0_1158_20">
<rect width="110.001" height="105" fill="white"/>
</clipPath>
</defs>
</svg>
