<svg width="105" height="105" viewBox="0 0 105 105" fill="none" xmlns="http://www.w3.org/2000/svg">
<g clip-path="url(#clip0_1158_69)">
<path d="M89.3012 92.5162H29.7012V75.0972H84.4482V24.8682H92.5172V89.2952C92.5161 90.1482 92.1771 90.9661 91.5744 91.5698C90.9716 92.1735 90.1542 92.5138 89.3012 92.5162V92.5162Z" fill="#409FD9"/>
<path d="M89.3223 93.7249H15.6773C14.5104 93.7249 13.3912 93.2613 12.5661 92.4362C11.7409 91.611 11.2773 90.4919 11.2773 89.3249V15.6749C11.2773 14.5079 11.7409 13.3888 12.5661 12.5636C13.3912 11.7385 14.5104 11.2749 15.6773 11.2749H89.3223C90.4893 11.2749 91.6085 11.7385 92.4336 12.5636C93.2588 13.3888 93.7223 14.5079 93.7223 15.6749V89.3229C93.7223 90.4899 93.2588 91.609 92.4336 92.4342C91.6085 93.2593 90.4893 93.7229 89.3223 93.7229V93.7249ZM15.6773 13.6749C15.1469 13.6749 14.6382 13.8856 14.2631 14.2607C13.8881 14.6358 13.6773 15.1445 13.6773 15.6749V89.3229C13.6773 89.8533 13.8881 90.362 14.2631 90.7371C14.6382 91.1122 15.1469 91.3229 15.6773 91.3229H89.3223C89.8528 91.3229 90.3615 91.1122 90.7366 90.7371C91.1116 90.362 91.3223 89.8533 91.3223 89.3229V15.6749C91.3223 15.1445 91.1116 14.6358 90.7366 14.2607C90.3615 13.8856 89.8528 13.6749 89.3223 13.6749H15.6773Z" fill="black"/>
<path d="M84.6286 75.0322H36.3066V74.9912H43.2446L43.2296 75.0162H84.6066L63.9066 39.5802L49.2676 64.6712L41.7066 53.7102C45.0821 48.0332 49.8475 43.3092 55.5536 39.9832C61.4474 36.5548 68.1462 34.7537 74.9646 34.7642H84.6286V75.0312V75.0322Z" fill="#409FD9"/>
<path d="M84.4575 76.3069H20.5125C20.3543 76.3069 20.1976 76.2756 20.0515 76.2148C19.9053 76.154 19.7727 76.0649 19.6612 75.9526C19.5496 75.8404 19.4614 75.7071 19.4016 75.5606C19.3417 75.4141 19.3115 75.2572 19.3125 75.0989V20.3359C19.3115 20.1777 19.3417 20.0208 19.4016 19.8743C19.4614 19.7277 19.5496 19.5945 19.6612 19.4822C19.7727 19.3699 19.9053 19.2808 20.0515 19.22C20.1976 19.1592 20.3543 19.1279 20.5125 19.1279H84.4575C84.7755 19.1331 85.079 19.2623 85.3031 19.488C85.5273 19.7136 85.6544 20.0179 85.6575 20.3359V75.0989C85.6544 75.417 85.5273 75.7212 85.3031 75.9469C85.079 76.1725 84.7755 76.3017 84.4575 76.3069V76.3069ZM21.7125 73.8909H83.2585V21.5439H21.7125V73.8909Z" fill="black"/>
<path d="M44.4753 42.53C42.9619 42.5304 41.4824 42.082 40.2238 41.2414C38.9653 40.4009 37.9844 39.206 37.405 37.8079C36.8257 36.4097 36.674 34.8712 36.9692 33.3869C37.2643 31.9026 37.9931 30.5391 39.0632 29.469C40.1333 28.3988 41.4968 27.6701 42.9811 27.3749C44.4655 27.0798 46.004 27.2315 47.4021 27.8108C48.8002 28.3901 49.9951 29.3711 50.8357 30.6296C51.6762 31.8881 52.1247 33.3676 52.1243 34.881C52.1237 36.9095 51.3177 38.8548 49.8833 40.2891C48.449 41.7235 46.5037 42.5295 44.4753 42.53V42.53ZM44.4753 29.645C43.4399 29.645 42.4277 29.9521 41.5669 30.5273C40.706 31.1025 40.035 31.9201 39.6388 32.8767C39.2425 33.8333 39.1389 34.8858 39.3409 35.9013C39.5429 36.9168 40.0414 37.8496 40.7736 38.5817C41.5057 39.3139 42.4385 39.8124 43.454 40.0144C44.4695 40.2164 45.522 40.1128 46.4786 39.7165C47.4352 39.3203 48.2528 38.6493 48.828 37.7884C49.4032 36.9276 49.7103 35.9154 49.7103 34.88C49.71 33.4918 49.1583 32.1605 48.1766 31.179C47.1949 30.1974 45.8635 29.646 44.4753 29.646V29.645Z" fill="black"/>
<path d="M56.4001 76.1962H20.3661C20.1454 76.1957 19.9291 76.1347 19.7406 76.02C19.5521 75.9053 19.3986 75.7412 19.2967 75.5454C19.1949 75.3497 19.1485 75.1298 19.1626 74.9096C19.1768 74.6894 19.251 74.4773 19.3771 74.2962L37.3691 48.2182C37.4863 48.064 37.6375 47.939 37.811 47.853C37.9844 47.7669 38.1754 47.7222 38.3691 47.7222C38.5627 47.7222 38.7538 47.7669 38.9272 47.853C39.1007 47.939 39.2519 48.064 39.3691 48.2182L49.9431 63.5182L48.5931 65.8242L38.3831 51.0372L22.6791 73.7792H43.9501L43.2291 75.0152H57.6071C57.6003 75.3308 57.4701 75.6312 57.2445 75.8519C57.0189 76.0727 56.7158 76.1963 56.4001 76.1962V76.1962Z" fill="black"/>
<path d="M38.3542 61.2139C38.1933 61.2133 38.0342 61.1792 37.8872 61.1139L31.9602 58.6139C31.6849 58.4773 31.4721 58.241 31.3649 57.953C31.2577 57.6651 31.2644 57.3471 31.3834 57.0638C31.5024 56.7805 31.7249 56.5533 32.0056 56.4282C32.2862 56.3032 32.604 56.2899 32.8942 56.3909L38.3542 58.6909L43.7822 56.3909C44.0724 56.2899 44.3902 56.3032 44.6708 56.4282C44.9515 56.5533 45.174 56.7805 45.293 57.0638C45.412 57.3471 45.4186 57.6651 45.3115 57.953C45.2043 58.241 44.9914 58.4773 44.7162 58.6139L38.7892 61.1139C38.652 61.1751 38.5043 61.209 38.3542 61.2139V61.2139Z" fill="black"/>
<path d="M84.6065 76.222H43.2245C43.0108 76.2247 42.8005 76.1692 42.616 76.0614C42.4315 75.9536 42.2799 75.7975 42.1775 75.61C42.0714 75.4264 42.0156 75.2181 42.0156 75.006C42.0156 74.794 42.0714 74.5856 42.1775 74.402L62.9395 38.967C63.054 38.7941 63.2096 38.6523 63.3923 38.5542C63.575 38.4561 63.7791 38.4048 63.9865 38.4048C64.1938 38.4048 64.398 38.4561 64.5807 38.5542C64.7634 38.6523 64.9189 38.7941 65.0335 38.967L85.7145 74.402C85.8205 74.5856 85.8763 74.794 85.8763 75.006C85.8763 75.2181 85.8205 75.4264 85.7145 75.61C85.6031 75.8033 85.441 75.9625 85.2457 76.0704C85.0504 76.1782 84.8294 76.2307 84.6065 76.222V76.222ZM45.3345 73.806H82.4935L63.9065 41.984L45.3345 73.806Z" fill="black"/>
<path d="M63.9365 55.8639C63.7508 55.8696 63.5669 55.8251 63.4045 55.7349L56.5265 52.3529C56.2439 52.2082 56.0296 51.958 55.9301 51.6565C55.8305 51.355 55.8536 51.0265 55.9945 50.7419C56.0645 50.6005 56.162 50.4744 56.2812 50.3709C56.4004 50.2675 56.5389 50.1887 56.6888 50.1392C56.8387 50.0897 56.9969 50.0705 57.1542 50.0826C57.3116 50.0948 57.465 50.138 57.6055 50.2099L63.8715 53.3189L70.1375 50.2099C70.422 50.0691 70.7506 50.0459 71.0521 50.1455C71.3536 50.2451 71.6037 50.4593 71.7485 50.7419C71.8839 51.0291 71.9025 51.3576 71.8002 51.6582C71.698 51.9588 71.4829 52.2079 71.2005 52.3529L64.4005 55.7349C64.2563 55.8121 64.0968 55.8562 63.9335 55.8639H63.9365Z" fill="black"/>
<path d="M33.2721 44.0908H26.8291C26.5087 44.0908 26.2015 43.9635 25.9749 43.737C25.7484 43.5104 25.6211 43.2032 25.6211 42.8828C25.6211 42.5624 25.7484 42.2552 25.9749 42.0286C26.2015 41.8021 26.5087 41.6748 26.8291 41.6748H33.2721C33.5925 41.6748 33.8997 41.8021 34.1263 42.0286C34.3528 42.2552 34.4801 42.5624 34.4801 42.8828C34.4801 43.2032 34.3528 43.5104 34.1263 43.737C33.8997 43.9635 33.5925 44.0908 33.2721 44.0908V44.0908Z" fill="black"/>
<path d="M30.044 47.3151C29.8848 47.3172 29.7268 47.2874 29.5792 47.2275C29.4317 47.1675 29.2977 47.0786 29.1851 46.966C29.0725 46.8534 28.9836 46.7194 28.9236 46.5719C28.8637 46.4243 28.8339 46.2663 28.836 46.1071V39.6641C28.836 39.3437 28.9633 39.0364 29.1899 38.8099C29.4164 38.5833 29.7237 38.4561 30.044 38.4561C30.3644 38.4561 30.6717 38.5833 30.8982 38.8099C31.1248 39.0364 31.252 39.3437 31.252 39.6641V46.1071C31.252 46.4274 31.1248 46.7347 30.8982 46.9612C30.6717 47.1878 30.3644 47.3151 30.044 47.3151V47.3151Z" fill="black"/>
<path d="M78.1393 42.4878H71.6963C71.3759 42.4878 71.0686 42.3605 70.8421 42.134C70.6156 41.9074 70.4883 41.6002 70.4883 41.2798C70.4883 40.9594 70.6156 40.6521 70.8421 40.4256C71.0686 40.199 71.3759 40.0718 71.6963 40.0718H78.1393C78.4597 40.0718 78.7669 40.199 78.9935 40.4256C79.22 40.6521 79.3473 40.9594 79.3473 41.2798C79.3473 41.6002 79.22 41.9074 78.9935 42.134C78.7669 42.3605 78.4597 42.4878 78.1393 42.4878Z" fill="black"/>
<path d="M74.9249 45.713C74.7657 45.7152 74.6076 45.6854 74.4601 45.6254C74.3126 45.5655 74.1785 45.4766 74.0659 45.364C73.9533 45.2514 73.8644 45.1174 73.8045 44.9698C73.7445 44.8223 73.7148 44.6642 73.7169 44.505V38.062C73.7169 37.7416 73.8442 37.4344 74.0707 37.2078C74.2973 36.9813 74.6045 36.854 74.9249 36.854C75.2453 36.854 75.5525 36.9813 75.7791 37.2078C76.0056 37.4344 76.1329 37.7416 76.1329 38.062V44.505C76.1329 44.6636 76.1017 44.8207 76.041 44.9673C75.9802 45.1138 75.8913 45.247 75.7791 45.3592C75.6669 45.4714 75.5337 45.5603 75.3872 45.621C75.2406 45.6818 75.0835 45.713 74.9249 45.713V45.713Z" fill="black"/>
<path d="M63.7174 31.2681H57.2744C56.954 31.2681 56.6468 31.1408 56.4202 30.9142C56.1937 30.6877 56.0664 30.3804 56.0664 30.0601C56.0664 29.7397 56.1937 29.4324 56.4202 29.2059C56.6468 28.9793 56.954 28.8521 57.2744 28.8521H63.7174C64.0378 28.8521 64.345 28.9793 64.5716 29.2059C64.7981 29.4324 64.9254 29.7397 64.9254 30.0601C64.9254 30.3804 64.7981 30.6877 64.5716 30.9142C64.345 31.1408 64.0378 31.2681 63.7174 31.2681Z" fill="black"/>
<path d="M60.4971 34.4972C60.1767 34.4972 59.8694 34.3699 59.6429 34.1434C59.4163 33.9168 59.2891 33.6096 59.2891 33.2892V26.8462C59.2891 26.5258 59.4163 26.2185 59.6429 25.992C59.8694 25.7655 60.1767 25.6382 60.4971 25.6382C60.8174 25.6382 61.1247 25.7655 61.3512 25.992C61.5778 26.2185 61.7051 26.5258 61.7051 26.8462V33.2892C61.7009 33.6083 61.5723 33.9131 61.3467 34.1388C61.121 34.3644 60.8162 34.493 60.4971 34.4972V34.4972Z" fill="black"/>
<path d="M67.936 87.2822H52.167C52.0083 87.2822 51.8513 87.251 51.7047 87.1903C51.5581 87.1296 51.425 87.0406 51.3128 86.9284C51.2006 86.8162 51.1116 86.6831 51.0509 86.5365C50.9902 86.3899 50.959 86.2328 50.959 86.0742C50.959 85.9156 50.9902 85.7585 51.0509 85.6119C51.1116 85.4654 51.2006 85.3322 51.3128 85.22C51.425 85.1079 51.5581 85.0189 51.7047 84.9582C51.8513 84.8975 52.0083 84.8662 52.167 84.8662H67.936C68.2564 84.8662 68.5636 84.9935 68.7902 85.22C69.0167 85.4466 69.144 85.7538 69.144 86.0742C69.144 86.3946 69.0167 86.7019 68.7902 86.9284C68.5636 87.1549 68.2564 87.2822 67.936 87.2822V87.2822Z" fill="black"/>
<path d="M77.8618 87.2822H74.3018C74.1431 87.2822 73.986 87.251 73.8395 87.1903C73.6929 87.1296 73.5597 87.0406 73.4476 86.9284C73.3354 86.8162 73.2464 86.6831 73.1857 86.5365C73.125 86.3899 73.0938 86.2328 73.0938 86.0742C73.0938 85.9156 73.125 85.7585 73.1857 85.6119C73.2464 85.4654 73.3354 85.3322 73.4476 85.22C73.5597 85.1079 73.6929 85.0189 73.8395 84.9582C73.986 84.8975 74.1431 84.8662 74.3018 84.8662H77.8618C78.1821 84.8662 78.4894 84.9935 78.7159 85.22C78.9425 85.4466 79.0698 85.7538 79.0698 86.0742C79.0698 86.3946 78.9425 86.7019 78.7159 86.9284C78.4894 87.1549 78.1821 87.2822 77.8618 87.2822Z" fill="black"/>
<path d="M1.208 21.744C0.887619 21.744 0.580359 21.6167 0.353815 21.3902C0.127271 21.1636 0 20.8564 0 20.536V1.208C0 0.887618 0.127271 0.580359 0.353815 0.353815C0.580359 0.127271 0.887619 0 1.208 0L20.536 0C20.8551 0.00414459 21.1599 0.132746 21.3856 0.358398C21.6113 0.58405 21.7399 0.888907 21.744 1.208C21.7399 1.52709 21.6113 1.83195 21.3856 2.0576C21.1599 2.28325 20.8551 2.41186 20.536 2.416H2.416V20.536C2.41186 20.8551 2.28325 21.1599 2.0576 21.3856C1.83195 21.6113 1.52709 21.7399 1.208 21.744V21.744Z" fill="black"/>
<path d="M103.792 21.744C103.471 21.744 103.164 21.6167 102.938 21.3902C102.711 21.1636 102.584 20.8564 102.584 20.536V2.416H84.4639C84.1435 2.416 83.8362 2.28873 83.6097 2.06219C83.3831 1.83564 83.2559 1.52838 83.2559 1.208C83.2559 0.887618 83.3831 0.580359 83.6097 0.353815C83.8362 0.127271 84.1435 0 84.4639 0L103.792 0C104.111 0.00414459 104.416 0.132746 104.641 0.358398C104.867 0.58405 104.996 0.888907 105 1.208V20.536C104.996 20.8551 104.867 21.1599 104.641 21.3856C104.416 21.6113 104.111 21.7399 103.792 21.744V21.744Z" fill="black"/>
<path d="M103.792 105H84.4639C84.3052 105 84.1481 104.969 84.0016 104.908C83.855 104.847 83.7218 104.758 83.6097 104.646C83.4975 104.534 83.4085 104.401 83.3478 104.254C83.2871 104.108 83.2559 103.95 83.2559 103.792C83.2559 103.633 83.2871 103.476 83.3478 103.33C83.4085 103.183 83.4975 103.05 83.6097 102.938C83.7218 102.826 83.855 102.737 84.0016 102.676C84.1481 102.615 84.3052 102.584 84.4639 102.584H102.584V84.4639C102.584 84.1435 102.711 83.8362 102.938 83.6097C103.164 83.3831 103.471 83.2559 103.792 83.2559C104.112 83.2559 104.419 83.3831 104.646 83.6097C104.873 83.8362 105 84.1435 105 84.4639V103.792C104.996 104.111 104.867 104.416 104.641 104.641C104.416 104.867 104.111 104.996 103.792 105V105Z" fill="black"/>
<path d="M20.536 105H1.208C0.887619 105 0.580359 104.873 0.353815 104.646C0.127271 104.419 0 104.112 0 103.792V84.4639C0 84.1435 0.127271 83.8362 0.353815 83.6097C0.580359 83.3831 0.887619 83.2559 1.208 83.2559C1.52838 83.2559 1.83564 83.3831 2.06219 83.6097C2.28873 83.8362 2.416 84.1435 2.416 84.4639V102.584H20.536C20.6946 102.584 20.8517 102.615 20.9983 102.676C21.1448 102.737 21.278 102.826 21.3902 102.938C21.5024 103.05 21.5913 103.183 21.652 103.33C21.7128 103.476 21.744 103.633 21.744 103.792C21.744 103.95 21.7128 104.108 21.652 104.254C21.5913 104.401 21.5024 104.534 21.3902 104.646C21.278 104.758 21.1448 104.847 20.9983 104.908C20.8517 104.969 20.6946 105 20.536 105V105Z" fill="black"/>
</g>
<defs>
<clipPath id="clip0_1158_69">
<rect width="105" height="105" fill="white"/>
</clipPath>
</defs>
</svg>
