<svg width="99" height="105" viewBox="0 0 99 105" fill="none" xmlns="http://www.w3.org/2000/svg">
<g clip-path="url(#clip0_1158_99)">
<path d="M57.2287 46.6372C57.2287 46.6372 57.0477 57.8272 43.9277 60.4872L44.4767 62.1502L51.1277 62.9812L57.1627 60.1382L60.4217 54.8382L59.2217 47.5062L57.2287 46.6372Z" fill="#69AAA6"/>
<path d="M85.8635 39.771C85.5385 39.7664 85.2281 39.6351 84.9985 39.405L73.1275 27.517C72.9543 27.3444 72.8364 27.124 72.7891 26.8841C72.7417 26.6441 72.7669 26.3955 72.8615 26.17C72.9557 25.9421 73.1144 25.7468 73.3182 25.608C73.522 25.4693 73.762 25.3931 74.0085 25.389H79.1795C76.8185 9.111 53.6075 2.511 53.4085 2.444C53.117 2.36586 52.8638 2.18468 52.6957 1.93404C52.5276 1.6834 52.4561 1.38032 52.4945 1.081C52.5374 0.786982 52.6825 0.51747 52.9043 0.319784C53.1261 0.122099 53.4105 0.00887745 53.7075 0C68.6715 0 79.5075 3.591 86.0965 10.658C89.88 14.6655 92.1189 19.8855 92.4145 25.389H97.7515C97.9979 25.3893 98.2387 25.4626 98.4435 25.5996C98.6483 25.7367 98.8079 25.9313 98.9021 26.159C98.9964 26.3867 99.0211 26.6372 98.9731 26.8789C98.9251 27.1206 98.8066 27.3426 98.6325 27.517L86.7395 39.4C86.5072 39.6327 86.1923 39.7643 85.8635 39.766V39.771ZM77.0015 27.883L85.8635 36.745L94.7395 27.883H91.1675C90.9993 27.8842 90.8327 27.851 90.6779 27.7853C90.5231 27.7196 90.3834 27.6228 90.2675 27.501C90.162 27.3779 90.0825 27.2347 90.0338 27.08C89.9852 26.9253 89.9684 26.7624 89.9845 26.601C89.9672 21.2738 87.9083 16.156 84.2315 12.301C79.2455 7.066 71.6975 3.891 61.4885 2.86C69.4195 6.518 80.9085 13.933 81.8065 26.6C81.8239 26.7702 81.8031 26.9421 81.7455 27.1032C81.6878 27.2643 81.5949 27.4105 81.4735 27.531C81.3611 27.6586 81.2226 27.7603 81.0672 27.8294C80.9119 27.8984 80.7435 27.9331 80.5735 27.931L77.0015 27.883Z" fill="black"/>
<path d="M45.2885 104.999C30.3245 104.999 19.4675 101.408 12.8885 94.3411C9.10699 90.3254 6.86731 85.1018 6.56548 79.5941H1.24548C0.999066 79.5938 0.758267 79.5205 0.553478 79.3835C0.34869 79.2464 0.189094 79.0518 0.0948373 78.8241C0.000580303 78.5964 -0.0241117 78.3459 0.0238782 78.1043C0.0718682 77.8626 0.190388 77.6405 0.364477 77.4661L12.2355 65.5941C12.4733 65.3685 12.7886 65.2427 13.1165 65.2427C13.4443 65.2427 13.7597 65.3685 13.9975 65.5941L25.9185 77.4661C26.091 77.6425 26.2082 77.8656 26.2554 78.1078C26.3027 78.35 26.278 78.6008 26.1845 78.8291C26.0916 79.0566 25.9327 79.2511 25.7282 79.3874C25.5238 79.5238 25.2832 79.5958 25.0375 79.5941H19.8005C22.1785 95.8881 45.3725 102.474 45.6215 102.538C45.9244 102.608 46.1903 102.788 46.3671 103.044C46.5439 103.3 46.6187 103.612 46.577 103.92C46.5354 104.229 46.3801 104.51 46.1418 104.709C45.9034 104.909 45.5991 105.012 45.2885 104.999V104.999ZM4.30348 77.0991H7.86148C8.03285 77.1012 8.20205 77.1377 8.35905 77.2064C8.51606 77.2751 8.65767 77.3746 8.77548 77.4991C8.89111 77.6271 8.9801 77.7769 9.03727 77.9396C9.09444 78.1024 9.11865 78.2749 9.10848 78.4471C9.08683 83.7542 11.1044 88.867 14.7445 92.7291C19.7325 97.9831 27.2975 101.159 37.4895 102.173C29.5585 98.4821 18.0885 91.0661 17.1715 78.4471C17.1576 78.2751 17.1796 78.1022 17.2361 77.9391C17.2925 77.7761 17.3822 77.6266 17.4994 77.5C17.6166 77.3734 17.7588 77.2725 17.917 77.2036C18.0752 77.1348 18.246 77.0996 18.4185 77.1001H21.9785L13.1165 68.2381L4.30348 77.0991Z" fill="black"/>
<path d="M54.4637 81.5961C54.4186 81.5961 54.3735 81.5937 54.3287 81.5891H44.6497C44.4916 81.5891 44.335 81.5579 44.1891 81.4972C44.0431 81.4365 43.9105 81.3476 43.799 81.2355C43.6875 81.1235 43.5992 80.9905 43.5393 80.8442C43.4793 80.6979 43.4489 80.5412 43.4497 80.3831V73.3831C41.9277 72.9539 40.4626 72.3439 39.0857 71.5661L34.1647 76.5221C33.945 76.7358 33.6506 76.8553 33.3442 76.8553C33.0377 76.8553 32.7434 76.7358 32.5237 76.5221L25.6677 69.6111C25.4538 69.3893 25.3343 69.0932 25.3343 68.7851C25.3343 68.477 25.4538 68.1809 25.6677 67.9591L30.5897 63.0041C29.8237 61.6127 29.2178 60.139 28.7837 58.6111H21.7977C21.6397 58.6111 21.4832 58.5799 21.3373 58.5193C21.1914 58.4587 21.0589 58.3699 20.9474 58.2579C20.8359 58.1459 20.7476 58.0131 20.6876 57.8669C20.6276 57.7207 20.597 57.5641 20.5977 57.4061V50.3111L22.9767 50.9811V56.1881H29.6767C29.9423 56.1882 30.2001 56.2779 30.4085 56.4426C30.6168 56.6074 30.7634 56.8377 30.8247 57.0961C31.2812 59.0178 32.0339 60.8568 33.0557 62.5471C33.1981 62.7749 33.2594 63.0442 33.2296 63.3112C33.1999 63.5782 33.0808 63.8273 32.8917 64.0181L28.1617 68.7711L33.3297 73.9711L38.0547 69.2111C38.2428 69.0215 38.4901 68.9017 38.7556 68.8717C39.0211 68.8417 39.2889 68.9032 39.5147 69.0461C41.1907 70.0734 43.0176 70.8313 44.9287 71.2921C45.1898 71.356 45.4213 71.5071 45.5849 71.7204C45.7486 71.9337 45.8346 72.1964 45.8287 72.4651V79.1911H53.1477V72.4711C53.1452 72.2032 53.2325 71.9421 53.3956 71.7296C53.5587 71.517 53.7882 71.3651 54.0477 71.2981C55.963 70.8341 57.795 70.0765 59.4787 69.0521C59.7054 68.9122 59.9725 68.8525 60.2372 68.8824C60.5019 68.9123 60.7489 69.0302 60.9387 69.2171L65.6477 73.9741L70.8157 68.7741L66.1087 64.0111C65.9154 63.8232 65.7922 63.575 65.7593 63.3075C65.7263 63.04 65.7858 62.7693 65.9277 62.5401C66.9495 60.8498 67.7021 59.0108 68.1587 57.0891C68.2236 56.8304 68.3729 56.6006 68.5829 56.4362C68.793 56.2718 69.0519 56.182 69.3187 56.1811H73.8877L74.5407 58.5601H70.2407C69.8188 60.0715 69.2358 61.5333 68.5017 62.9201L73.4237 67.8761C73.6373 68.098 73.7566 68.3941 73.7566 68.7021C73.7566 69.0102 73.6373 69.3062 73.4237 69.5281L66.5817 76.4281C66.3584 76.6348 66.0654 76.7495 65.7612 76.7495C65.457 76.7495 65.1639 76.6348 64.9407 76.4281L60.0197 71.4731C58.6423 72.2498 57.1773 72.8598 55.6557 73.2901V80.2901C55.6687 80.4667 55.6429 80.644 55.58 80.8095C55.5171 80.9751 55.4187 81.1248 55.2917 81.2481C55.0718 81.4679 54.7746 81.5928 54.4637 81.5961V81.5961ZM49.5067 64.5751H49.4897C47.9115 64.5785 46.3484 64.2673 44.8919 63.6597C43.4353 63.052 42.1145 62.1601 41.0067 61.0361C38.7564 58.764 37.494 55.6955 37.494 52.4976C37.494 49.2998 38.7564 46.2312 41.0067 43.9591C42.1144 42.8367 43.4346 41.9461 44.8902 41.3393C46.3458 40.7326 47.9077 40.4218 49.4847 40.4251H49.4977C51.0756 40.4231 52.638 40.7356 54.0937 41.3445C55.5494 41.9533 56.8691 42.8463 57.9757 43.9711C60.2223 46.246 61.4812 49.315 61.4793 52.5122C61.4774 55.7094 60.2149 58.7769 57.9657 61.0491C56.86 62.1685 55.5427 63.0567 54.0904 63.662C52.6382 64.2674 51.08 64.5778 49.5067 64.5751V64.5751ZM49.4887 42.8371C48.2235 42.8344 46.9704 43.084 45.8028 43.5713C44.6352 44.0585 43.5765 44.7738 42.6887 45.6751C41.5544 46.791 40.7138 48.1702 40.2418 49.6897C39.7699 51.2092 39.6811 52.8219 39.9836 54.384C40.286 55.9462 40.9703 57.4092 41.9753 58.6428C42.9803 59.8763 44.2749 60.8421 45.7436 61.454C47.2124 62.0659 48.8098 62.3049 50.3933 62.1497C51.9769 61.9946 53.4974 61.45 54.8195 60.5647C56.1416 59.6793 57.2241 58.4806 57.9705 57.0755C58.717 55.6703 59.1042 54.1023 59.0977 52.5111C59.0953 49.9477 58.0862 47.4877 56.2877 45.6611C55.4 44.7593 54.3414 44.0437 53.1738 43.556C52.0062 43.0684 50.753 42.8185 49.4877 42.8211V42.8371H49.4887ZM78.3807 54.6871L75.9977 54.0331V48.8161H69.3237C69.0568 48.8133 68.7983 48.7229 68.5878 48.5589C68.3773 48.3948 68.2266 48.1662 68.1587 47.9081C67.6993 45.982 66.9469 44.1378 65.9277 42.4401C65.7858 42.2112 65.7265 41.9406 65.7594 41.6733C65.7923 41.4059 65.9155 41.1579 66.1087 40.9701L70.8167 36.2291L65.6487 31.0291L60.9397 35.7861C60.7499 35.9731 60.5029 36.091 60.2382 36.1209C59.9735 36.1508 59.7064 36.091 59.4797 35.9511C57.7964 34.926 55.9643 34.1683 54.0487 33.7051C53.7892 33.6382 53.5597 33.4863 53.3966 33.2737C53.2335 33.0611 53.1462 32.8001 53.1487 32.5321V25.8061H45.8297V32.5291C45.8355 32.7979 45.7496 33.0606 45.5859 33.2739C45.4223 33.4872 45.1908 33.6382 44.9297 33.7021C43.0185 34.1626 41.1915 34.9205 39.5157 35.9481C39.2897 36.0903 39.0221 36.1514 38.7568 36.1214C38.4915 36.0914 38.2442 35.9722 38.0557 35.7831L33.3287 31.0261L28.1607 36.2261L32.8857 40.9671C33.0714 41.1597 33.1882 41.4083 33.2179 41.6742C33.2476 41.9401 33.1884 42.2084 33.0497 42.4371C32.0125 44.1336 31.2435 45.98 30.7697 47.9111C30.7047 48.1701 30.5553 48.3999 30.345 48.5644C30.1347 48.7288 29.8756 48.8185 29.6087 48.8191H25.1087L24.4697 46.4561H28.7497C29.1814 44.928 29.7852 43.4539 30.5497 42.0621L25.6337 37.1051C25.4272 36.8798 25.3127 36.5853 25.3127 36.2796C25.3127 35.974 25.4272 35.6795 25.6337 35.4541L32.4917 28.5651C32.7111 28.351 33.0056 28.2312 33.3122 28.2312C33.6188 28.2312 33.9132 28.351 34.1327 28.5651L39.0547 33.5201C40.4428 32.6973 41.9186 32.0325 43.4547 31.5381V24.6001C43.4591 24.2851 43.5866 23.9844 43.8099 23.7622C44.0332 23.54 44.3346 23.414 44.6497 23.4111H54.3287C54.6446 23.4127 54.9472 23.5381 55.1716 23.7604C55.396 23.9828 55.5242 24.2843 55.5287 24.6001V31.5381C57.0454 31.9823 58.5089 32.5916 59.8927 33.3551L64.8137 28.4001C65.0369 28.1935 65.33 28.0787 65.6342 28.0787C65.9384 28.0787 66.2314 28.1935 66.4547 28.4001L73.4277 35.3701C73.6508 35.6002 73.7747 35.9087 73.7727 36.2291C73.7735 36.5444 73.6495 36.8471 73.4277 37.0711L68.5057 42.0271C69.2415 43.4192 69.8245 44.8867 70.2447 46.4041H77.1977C77.5136 46.4104 77.8145 46.5404 78.0357 46.766C78.2569 46.9917 78.3807 47.2951 78.3807 47.6111V54.6871Z" fill="black"/>
<path d="M84.7837 70.5678C84.6263 70.5691 84.4701 70.5389 84.3245 70.479C84.1788 70.4191 84.0467 70.3306 83.9357 70.2188L73.9597 60.2428C73.8083 60.0973 73.6991 59.9134 73.6437 59.7108L71.9807 53.5428C71.9221 53.3385 71.9205 53.1219 71.9762 52.9167C72.0319 52.7115 72.1428 52.5255 72.2967 52.3788C72.4505 52.2307 72.6401 52.1252 72.847 52.0726C73.0539 52.02 73.2709 52.0221 73.4767 52.0788L79.5127 53.7408C79.7089 53.7997 79.8864 53.9086 80.0277 54.0568L90.1207 64.1328C90.3076 64.2883 90.4436 64.4962 90.5109 64.7298C90.5783 64.9634 90.574 65.2118 90.4986 65.4429C90.4232 65.674 90.2801 65.8771 90.0879 66.026C89.8958 66.1748 89.6633 66.2626 89.4207 66.2778C88.5728 66.4091 87.7859 66.7986 87.1673 67.3932C86.5487 67.9879 86.1284 68.7587 85.9637 69.6008C85.9253 69.8154 85.8291 70.0155 85.6855 70.1795C85.5419 70.3435 85.3563 70.4653 85.1487 70.5318C85.0287 70.5591 84.9057 70.5702 84.7827 70.5648L84.7837 70.5678ZM75.8377 58.7128L84.3007 67.1758C84.9149 66.0317 85.8592 65.0989 87.0107 64.4988L78.5307 56.0188L74.8397 54.9378L75.8377 58.7128Z" fill="black"/>
<path d="M87.1766 90.6999C86.8589 90.698 86.5548 90.571 86.3301 90.3464C86.1055 90.1217 85.9784 89.8176 85.9766 89.4999V74.8879C85.9748 74.6734 86.033 74.4627 86.1447 74.2796C86.2564 74.0965 86.4171 73.9484 86.6086 73.8519C86.7924 73.7431 87.002 73.6857 87.2156 73.6857C87.4292 73.6857 87.6388 73.7431 87.8226 73.8519C88.4951 74.2738 89.2737 74.4961 90.0676 74.4929C91.0081 74.5003 91.923 74.1871 92.6616 73.6049C92.8391 73.464 93.0526 73.3759 93.2777 73.3504C93.5029 73.325 93.7306 73.3633 93.9351 73.4609C94.1396 73.5585 94.3125 73.7116 94.4342 73.9027C94.5559 74.0939 94.6216 74.3153 94.6236 74.5419V89.4669C94.6223 89.6679 94.5697 89.8652 94.4709 90.0402C94.372 90.2152 94.2301 90.362 94.0586 90.4669C93.8918 90.5808 93.6977 90.6484 93.4962 90.6628C93.2947 90.6772 93.093 90.6379 92.9116 90.5489C92.0894 90.1848 91.2008 89.9945 90.3016 89.9899C89.402 89.9911 88.5128 90.1815 87.6916 90.5489C87.5344 90.639 87.3577 90.6898 87.1766 90.6969V90.6999ZM88.3236 76.6999V87.8559C89.5775 87.5761 90.8777 87.5761 92.1316 87.8559V76.5639C90.9015 76.9741 89.5791 77.02 88.3236 76.6959V76.6999Z" fill="black"/>
<path d="M90.069 76.8821C88.7535 76.8821 87.4676 76.492 86.3739 75.7612C85.2801 75.0304 84.4276 73.9916 83.9242 72.7763C83.4208 71.561 83.2891 70.2237 83.5458 68.9335C83.8024 67.6434 84.4358 66.4583 85.366 65.5281C86.2962 64.598 87.4813 63.9645 88.7714 63.7079C90.0616 63.4512 91.3989 63.583 92.6142 64.0864C93.8295 64.5898 94.8683 65.4422 95.5991 66.536C96.3299 67.6297 96.72 68.9156 96.72 70.2311C96.72 71.995 96.0192 73.6867 94.7719 74.934C93.5246 76.1814 91.8329 76.8821 90.069 76.8821V76.8821ZM90.069 66.1251C89.2436 66.1251 88.4368 66.3698 87.7506 66.8284C87.0643 67.2869 86.5295 67.9386 86.2136 68.7011C85.8978 69.4637 85.8151 70.3027 85.9762 71.1122C86.1372 71.9217 86.5346 72.6652 87.1182 73.2488C87.7018 73.8324 88.4454 74.2299 89.2549 74.3909C90.0643 74.5519 90.9034 74.4693 91.6659 74.1534C92.4284 73.8376 93.0802 73.3027 93.5387 72.6165C93.9972 71.9302 94.242 71.1234 94.242 70.2981C94.242 69.1913 93.8023 68.1299 93.0197 67.3473C92.2371 66.5647 91.1757 66.1251 90.069 66.1251V66.1251Z" fill="black"/>
<path d="M90.0688 72.0351C91.0237 72.0351 91.7978 71.261 91.7978 70.3061C91.7978 69.3512 91.0237 68.5771 90.0688 68.5771C89.1139 68.5771 88.3398 69.3512 88.3398 70.3061C88.3398 71.261 89.1139 72.0351 90.0688 72.0351Z" fill="black"/>
<path d="M25.9188 53.0528H25.5698L19.5348 51.2908C19.3384 51.2411 19.16 51.1371 19.0198 50.9908L8.94279 40.9158C8.78299 40.7595 8.67005 40.5616 8.6167 40.3445C8.56335 40.1273 8.57171 39.8996 8.64085 39.687C8.70999 39.4744 8.83715 39.2853 9.008 39.1411C9.17885 38.9969 9.38659 38.9033 9.60779 38.8708C10.4553 38.7373 11.2413 38.3468 11.8597 37.7522C12.4782 37.1575 12.8991 36.3874 13.0658 35.5458C13.1056 35.3294 13.2042 35.128 13.3508 34.9638C13.4973 34.7996 13.6862 34.6789 13.8968 34.6148C14.1073 34.55 14.3315 34.5436 14.5454 34.5965C14.7593 34.6493 14.9547 34.7594 15.1108 34.9148L25.0868 44.8908C25.2337 45.0373 25.3375 45.2213 25.3868 45.4228L27.0498 51.5748C27.1006 51.7835 27.0967 52.0018 27.0383 52.2086C26.98 52.4153 26.8692 52.6035 26.7168 52.7548C26.496 52.9496 26.2112 53.0564 25.9168 53.0548L25.9188 53.0528ZM20.5188 49.0288L24.1928 50.0928L23.1928 46.3188L14.7458 37.8728C14.1106 39.0069 13.1644 39.9357 12.0188 40.5498L20.5188 49.0288Z" fill="black"/>
<path d="M5.56914 31.7011C5.25429 31.6904 4.95525 31.5605 4.73249 31.3377C4.50972 31.115 4.37986 30.8159 4.36914 30.5011V15.4871C4.36932 15.2867 4.41965 15.0896 4.51554 14.9137C4.61144 14.7378 4.74985 14.5888 4.91814 14.4801C5.09104 14.372 5.28767 14.3077 5.491 14.2927C5.69434 14.2778 5.89827 14.3125 6.08514 14.3941C6.90362 14.7698 7.79458 14.9613 8.69514 14.9551C9.59663 14.9527 10.487 14.7556 11.3051 14.3771C11.4865 14.3001 11.6839 14.269 11.8801 14.2865C12.0763 14.3039 12.2652 14.3694 12.4301 14.4771C12.5944 14.5843 12.7295 14.7306 12.8234 14.9029C12.9173 15.0751 12.967 15.2679 12.9681 15.4641V30.1491C12.9723 30.3651 12.9174 30.5782 12.8094 30.7654C12.7014 30.9525 12.5443 31.1066 12.3551 31.2111C12.1655 31.3166 11.9507 31.3687 11.7337 31.3619C11.5168 31.355 11.3058 31.2894 11.1231 31.1721C10.4537 30.741 9.67434 30.5118 8.87814 30.5121C7.94001 30.5078 7.02936 30.8286 6.30114 31.4201C6.09074 31.5849 5.83575 31.6827 5.56914 31.7011V31.7011ZM6.78314 17.1551V28.4941C8.01202 28.0827 9.33287 28.031 10.5901 28.3451V17.1551C9.33668 17.436 8.0366 17.436 6.78314 17.1551V17.1551Z" fill="black"/>
<path d="M8.91077 41.283C7.59532 41.283 6.30942 40.8929 5.21567 40.1621C4.12192 39.4312 3.26944 38.3925 2.76605 37.1772C2.26265 35.9619 2.13094 34.6246 2.38757 33.3344C2.6442 32.0442 3.27764 30.8592 4.2078 29.929C5.13796 28.9988 6.32306 28.3654 7.61322 28.1088C8.90339 27.8521 10.2407 27.9838 11.456 28.4872C12.6713 28.9906 13.7101 29.8431 14.4409 30.9369C15.1717 32.0306 15.5618 33.3165 15.5618 34.632C15.5618 36.3959 14.861 38.0876 13.6137 39.3349C12.3664 40.5822 10.6747 41.283 8.91077 41.283V41.283ZM8.91077 30.526C8.08543 30.526 7.27862 30.7707 6.59237 31.2292C5.90613 31.6878 5.37126 32.3395 5.05542 33.102C4.73958 33.8645 4.65694 34.7036 4.81795 35.5131C4.97897 36.3226 5.37641 37.0661 5.96001 37.6497C6.54362 38.2333 7.28717 38.6308 8.09666 38.7918C8.90614 38.9528 9.74519 38.8702 10.5077 38.5543C11.2702 38.2385 11.922 37.7036 12.3805 37.0174C12.839 36.3311 13.0838 35.5243 13.0838 34.699C13.0838 34.151 12.9758 33.6083 12.7661 33.102C12.5564 32.5957 12.249 32.1357 11.8615 31.7482C11.474 31.3607 11.014 31.0533 10.5077 30.8436C10.0014 30.6339 9.45877 30.526 8.91077 30.526V30.526Z" fill="black"/>
<path d="M8.91064 36.4209C9.86554 36.4209 10.6396 35.6468 10.6396 34.6919C10.6396 33.737 9.86554 32.9629 8.91064 32.9629C7.95574 32.9629 7.18164 33.737 7.18164 34.6919C7.18164 35.6468 7.95574 36.4209 8.91064 36.4209Z" fill="black"/>
<path d="M90.0691 102.6C88.6123 102.6 87.1881 102.168 85.9768 101.359C84.7655 100.549 83.8213 99.399 83.2638 98.053C82.7063 96.7071 82.5604 95.226 82.8447 93.7971C83.1289 92.3683 83.8304 91.0558 84.8606 90.0256C85.8907 88.9955 87.2032 88.2939 88.6321 88.0097C90.061 87.7255 91.542 87.8714 92.888 88.4289C94.2339 88.9864 95.3843 89.9305 96.1937 91.1418C97.0031 92.3532 97.4351 93.7773 97.4351 95.2342C97.4351 97.1878 96.6591 99.0613 95.2777 100.443C93.8963 101.824 92.0227 102.6 90.0691 102.6V102.6ZM90.0691 90.6852C89.155 90.6852 88.2614 90.9562 87.5013 91.4641C86.7412 91.972 86.1488 92.6938 85.799 93.5384C85.4491 94.383 85.3576 95.3123 85.5359 96.2089C85.7143 97.1055 86.1545 97.929 86.8009 98.5754C87.4473 99.2218 88.2708 99.662 89.1674 99.8404C90.064 100.019 90.9933 99.9272 91.8379 99.5773C92.6824 99.2275 93.4043 98.6351 93.9122 97.875C94.4201 97.1149 94.6911 96.2213 94.6911 95.3072C94.6911 94.0813 94.2042 92.9057 93.3374 92.0389C92.4706 91.1721 91.295 90.6852 90.0691 90.6852Z" fill="black"/>
<path d="M9.06913 16.6002C7.61227 16.6002 6.18813 16.1682 4.9768 15.3588C3.76547 14.5494 2.82135 13.399 2.26383 12.053C1.70632 10.7071 1.56045 9.226 1.84466 7.79713C2.12888 6.36827 2.83043 5.05577 3.86058 4.02562C4.89073 2.99547 6.20323 2.29392 7.63209 2.0097C9.06096 1.72548 10.542 1.87136 11.888 2.42887C13.2339 2.98639 14.3843 3.93051 15.1937 5.14184C16.0031 6.35317 16.4351 7.77731 16.4351 9.23417C16.4351 11.1878 15.6591 13.0613 14.2777 14.4427C12.8963 15.8241 11.0227 16.6002 9.06913 16.6002V16.6002ZM9.06913 4.68517C8.15498 4.68517 7.26136 4.95624 6.50128 5.46412C5.7412 5.97199 5.14878 6.69384 4.79896 7.5384C4.44913 8.38296 4.3576 9.3123 4.53594 10.2089C4.71428 11.1055 5.15448 11.929 5.80088 12.5754C6.44728 13.2218 7.27084 13.662 8.16742 13.8404C9.064 14.0187 9.99333 13.9272 10.8379 13.5773C11.6824 13.2275 12.4043 12.6351 12.9122 11.875C13.4201 11.1149 13.6911 10.2213 13.6911 9.30717C13.6911 8.08134 13.2042 6.90571 12.3374 6.03892C11.4706 5.17213 10.295 4.68517 9.06913 4.68517Z" fill="black"/>
<path d="M90.0693 97.2289C91.1269 97.2289 91.9843 96.3716 91.9843 95.3139C91.9843 94.2563 91.1269 93.3989 90.0693 93.3989C89.0117 93.3989 88.1543 94.2563 88.1543 95.3139C88.1543 96.3716 89.0117 97.2289 90.0693 97.2289Z" fill="black"/>
<path d="M9.0693 11.2289C10.1269 11.2289 10.9843 10.3716 10.9843 9.31393C10.9843 8.2563 10.1269 7.39893 9.0693 7.39893C8.01167 7.39893 7.1543 8.2563 7.1543 9.31393C7.1543 10.3716 8.01167 11.2289 9.0693 11.2289Z" fill="black"/>
</g>
<defs>
<clipPath id="clip0_1158_99">
<rect width="98.997" height="105" fill="white"/>
</clipPath>
</defs>
</svg>
