<svg width="78" height="78" viewBox="0 0 78 78" fill="none" xmlns="http://www.w3.org/2000/svg">
<g clip-path="url(#clip0_1170_117)">
<path d="M16.3099 49.4701C16.1872 49.4734 16.065 49.4517 15.951 49.4061C15.837 49.3605 15.7335 49.2921 15.6469 49.2051L0.229922 33.7641C0.0806659 33.5987 -0.00195312 33.3838 -0.00195312 33.1611C-0.00195313 32.9383 0.0806659 32.7234 0.229922 32.5581C0.506922 32.1961 7.75692 24.5001 20.8459 24.9581C37.6139 25.5971 46.4679 17.0931 46.5519 17.0081C46.6359 16.9241 46.7356 16.8575 46.8453 16.812C46.9551 16.7666 47.0727 16.7432 47.1914 16.7432C47.3102 16.7432 47.4278 16.7666 47.5375 16.812C47.6472 16.8575 47.7469 16.9241 47.8309 17.0081C47.9149 17.092 47.9815 17.1917 48.027 17.3015C48.0724 17.4112 48.0958 17.5288 48.0958 17.6476C48.0958 17.7663 48.0724 17.8839 48.027 17.9936C47.9815 18.1034 47.9149 18.2031 47.8309 18.2871L16.9499 49.2051C16.866 49.2893 16.7663 49.3561 16.6564 49.4016C16.5466 49.4471 16.4288 49.4703 16.3099 49.4701V49.4701ZM2.15992 33.1491L16.3099 47.2871L40.5329 23.0641C34.3406 25.8768 27.5628 27.1592 20.7709 26.8031C13.9835 26.4574 7.3222 28.7288 2.15992 33.1491V33.1491Z" fill="black"/>
<path d="M44.8975 78C44.7786 78.0013 44.6607 77.9784 44.5509 77.9329C44.4411 77.8873 44.3416 77.82 44.2585 77.735L28.8175 62.294C28.733 62.2103 28.6659 62.1107 28.6201 62.001C28.5744 61.8912 28.5508 61.7735 28.5508 61.6545C28.5508 61.5356 28.5744 61.4178 28.6201 61.3081C28.6659 61.1983 28.733 61.0987 28.8175 61.015L59.6995 30.134C59.8691 29.9644 60.0991 29.8691 60.339 29.8691C60.5789 29.8691 60.8089 29.9644 60.9785 30.134C61.1481 30.3036 61.2434 30.5337 61.2434 30.7735C61.2434 31.0134 61.1481 31.2434 60.9785 31.413C60.9065 31.558 52.3895 40.364 53.0285 57.119C53.2456 60.8896 52.691 64.6649 51.3989 68.2138C50.1067 71.7627 48.1041 75.0107 45.5135 77.759C45.3444 77.911 45.1259 77.9966 44.8985 78H44.8975ZM30.7475 61.715L44.8725 75.804C49.2929 70.6391 51.5752 63.9817 51.2535 57.191C50.8934 50.3998 52.1763 43.6219 54.9935 37.432L30.7475 61.715Z" fill="black"/>
<path d="M29.1152 63.572C28.9965 63.5722 28.8789 63.5489 28.7692 63.5034C28.6596 63.4579 28.56 63.3912 28.4762 63.307L21.6122 56.4431C21.1782 56.0431 19.8032 54.658 14.7362 49.591C14.6415 49.5075 14.5654 49.4049 14.513 49.2901C14.4605 49.1752 14.4328 49.0505 14.4317 48.9242C14.4305 48.7979 14.456 48.6728 14.5064 48.557C14.5568 48.4412 14.631 48.3373 14.7242 48.252L48.0182 15.031C50.9335 12.1147 54.1387 9.50352 57.5842 7.23805C68.4412 0.0600486 76.8852 0.0720485 77.1502 4.849e-05C77.3137 -0.00164811 77.4745 0.0412059 77.6155 0.12401C77.7564 0.206814 77.8721 0.326441 77.9502 0.470048C78.1672 0.870048 78.0712 9.57005 70.8692 20.47C68.5686 23.9184 65.9233 27.1238 62.9742 30.037L29.7542 63.307C29.6705 63.3912 29.5709 63.4579 29.4612 63.5034C29.3515 63.5489 29.2339 63.5722 29.1152 63.572V63.572ZM16.6662 48.94C18.3552 50.629 22.8062 55.0921 22.8912 55.1651L29.1162 61.39L61.7742 28.758C64.6245 25.9319 67.1753 22.8191 69.3862 19.469V19.469C74.8512 11.158 75.9602 4.30605 76.2502 1.86905C73.8372 2.09805 66.9502 3.22005 58.6502 8.69705C55.3002 10.9079 52.1873 13.4588 49.3612 16.309L16.6662 48.94Z" fill="black"/>
<path d="M70.1178 20.8811C70.0013 20.8818 69.886 20.8572 69.7798 20.8091L61.1908 17.3711C60.9667 17.2803 60.7854 17.1076 60.6838 16.8881L57.2468 8.27511C57.196 8.16397 57.1686 8.04358 57.1662 7.9214C57.1638 7.79922 57.1865 7.67785 57.2329 7.5648C57.2793 7.45175 57.3484 7.34943 57.4359 7.26417C57.5235 7.1789 57.6276 7.11251 57.7418 7.06911C57.8531 7.01935 57.9734 6.99272 58.0953 6.99083C58.2171 6.98894 58.3382 7.01184 58.4509 7.05813C58.5637 7.10442 58.6659 7.17313 58.7513 7.26011C58.8367 7.34709 58.9036 7.45051 58.9478 7.56411L62.2408 15.8031L70.4828 19.0961C70.6871 19.1672 70.859 19.3095 70.9669 19.497C71.0749 19.6844 71.1117 19.9045 71.0706 20.1169C71.0296 20.3292 70.9134 20.5197 70.7434 20.6535C70.5734 20.7872 70.3609 20.8552 70.1448 20.8451L70.1178 20.8811Z" fill="black"/>
<path d="M63.7761 28.856C63.6611 28.8537 63.547 28.8334 63.4381 28.796L53.6661 24.875C53.5514 24.8297 53.4472 24.7614 53.36 24.6742C53.2728 24.587 53.2044 24.4827 53.1591 24.368L49.2261 14.568C49.1457 14.3456 49.155 14.1006 49.2522 13.885C49.3494 13.6694 49.5268 13.5002 49.7467 13.4133C49.9667 13.3263 50.2118 13.3285 50.4302 13.4194C50.6485 13.5103 50.8228 13.6827 50.9161 13.9L54.7281 23.345L64.1491 27.121C64.3446 27.1982 64.5068 27.3414 64.6077 27.5256C64.7087 27.7099 64.742 27.9237 64.7018 28.1299C64.6617 28.3362 64.5507 28.5219 64.388 28.6549C64.2253 28.7878 64.0213 28.8597 63.8111 28.858L63.7761 28.856Z" fill="black"/>
<path d="M56.1934 36.4649C56.0782 36.4636 55.964 36.4433 55.8554 36.4049L46.0484 32.4719C45.937 32.4266 45.8358 32.3595 45.7508 32.2745C45.6658 32.1895 45.5986 32.0883 45.5534 31.9769L41.5724 22.1699C41.5282 22.059 41.5063 21.9405 41.5079 21.8211C41.5095 21.7017 41.5346 21.5838 41.5818 21.4742C41.629 21.3645 41.6973 21.2652 41.7828 21.1819C41.8684 21.0987 41.9695 21.0331 42.0804 20.9889C42.1913 20.9447 42.3098 20.9228 42.4292 20.9244C42.5485 20.926 42.6664 20.9511 42.7761 20.9983C42.8858 21.0455 42.9851 21.1138 43.0683 21.1993C43.1516 21.2849 43.2172 21.386 43.2614 21.4969L47.0374 30.9419L56.4824 34.7179C56.6741 34.795 56.8337 34.9353 56.9349 35.1154C57.0362 35.2956 57.0729 35.5049 57.0391 35.7087C57.0053 35.9126 56.903 36.0988 56.749 36.2367C56.5951 36.3745 56.3987 36.4557 56.1924 36.4669L56.1934 36.4649Z" fill="black"/>
<path d="M1.72656 42.4069C8.36156 35.7839 14.8876 31.5499 16.3106 32.9739C17.7336 34.3979 13.5006 40.9239 6.87756 47.5569L1.72656 42.4069Z" fill="#68A9A5"/>
<path d="M6.87706 48.463C6.75797 48.4657 6.63963 48.4436 6.5296 48.3979C6.41957 48.3523 6.32027 48.2842 6.23806 48.198L1.08706 43.058C0.919711 42.8848 0.826172 42.6533 0.826172 42.4125C0.826172 42.1716 0.919711 41.9402 1.08706 41.767C5.79106 37.075 14.4121 29.805 16.9501 32.334C19.4881 34.863 12.2121 43.505 7.51206 48.197C7.42853 48.2814 7.32899 48.3484 7.21926 48.3939C7.10954 48.4394 6.99184 48.4625 6.87306 48.462L6.87706 48.463ZM3.00506 42.431L6.86506 46.291C13.4651 39.536 16.1051 34.457 15.6471 33.601C14.8151 33.179 9.74706 35.821 3.00506 42.419V42.431Z" fill="black"/>
<path d="M29.6055 70.2322C36.2405 63.5972 42.7665 59.3752 44.1895 60.7992C45.6125 62.2232 41.3785 68.7492 34.7565 75.3832L29.6055 70.2322Z" fill="#68A9A5"/>
<path d="M34.7579 76.2869C34.6388 76.2895 34.5205 76.2673 34.4105 76.2217C34.3004 76.1761 34.2011 76.108 34.1189 76.0219L28.9679 70.8709C28.8834 70.7872 28.8163 70.6876 28.7705 70.5778C28.7247 70.468 28.7012 70.3503 28.7012 70.2314C28.7012 70.1124 28.7247 69.9947 28.7705 69.8849C28.8163 69.7751 28.8834 69.6755 28.9679 69.5919C33.6599 64.8989 42.2369 57.6249 44.8299 60.1589C47.4229 62.6929 40.0889 71.3659 35.3969 76.0219C35.3134 76.1063 35.2138 76.1732 35.1041 76.2187C34.9944 76.2642 34.8767 76.2874 34.7579 76.2869V76.2869ZM30.8849 70.2589L34.7449 74.1189C41.3309 67.3759 43.9849 62.3089 43.5389 61.4409C42.6949 61.0069 37.6279 63.6489 30.8969 70.2469L30.8849 70.2589Z" fill="black"/>
<path d="M16.0742 56.7609C22.7092 50.1379 29.2352 45.9039 30.6582 47.3279C32.0812 48.7519 27.8472 55.2779 21.2252 61.9729L16.0742 56.7609Z" fill="#68A9A5"/>
<path d="M21.2333 62.8102C21.1146 62.8103 20.997 62.787 20.8873 62.7415C20.7777 62.696 20.6781 62.6293 20.5943 62.5452L15.4193 57.3942C15.3352 57.3104 15.2684 57.2108 15.223 57.1011C15.1775 56.9915 15.1541 56.8739 15.1543 56.7552C15.1571 56.516 15.252 56.2871 15.4193 56.1162C18.278 53.1866 21.4265 50.5544 24.8163 48.2602C28.0973 46.1372 30.2163 45.6182 31.2823 46.6802C32.3483 47.7422 31.8253 49.8652 29.7023 53.1462C27.4091 56.5369 24.778 59.6864 21.8493 62.5462C21.6844 62.7079 21.4651 62.8024 21.2343 62.8112L21.2333 62.8102ZM17.3613 56.7782L21.2213 60.6382C27.8213 53.8952 30.4613 48.8282 30.0153 47.9602C29.1713 47.4902 24.1043 50.1682 17.3613 56.7662V56.7782Z" fill="black"/>
</g>
<defs>
<clipPath id="clip0_1170_117">
<rect width="78" height="78" fill="white"/>
</clipPath>
</defs>
</svg>
