<svg width="78" height="78" viewBox="0 0 78 78" fill="none" xmlns="http://www.w3.org/2000/svg">
<g clip-path="url(#clip0_1170_16)">
<path d="M39 78C31.2865 78 23.7463 75.7127 17.3328 71.4273C10.9193 67.142 5.92053 61.051 2.96872 53.9247C0.0168979 46.7984 -0.755432 38.9568 0.749392 31.3915C2.25422 23.8262 5.9686 16.8771 11.4229 11.4229C16.8771 5.9686 23.8262 2.25422 31.3915 0.749392C38.9568 -0.755432 46.7984 0.0168979 53.9247 2.96872C61.051 5.92053 67.142 10.9193 71.4273 17.3328C75.7127 23.7463 78 31.2865 78 39C78 49.3435 73.8911 59.2633 66.5772 66.5772C59.2633 73.8911 49.3435 78 39 78V78ZM39 1.78602C31.6398 1.78602 24.4448 3.96858 18.325 8.05771C12.2052 12.1468 7.4354 17.9589 4.61876 24.7588C1.80213 31.5588 1.06516 39.0413 2.50107 46.2601C3.93698 53.4789 7.48127 60.1098 12.6857 65.3143C17.8902 70.5188 24.5211 74.0631 31.7399 75.499C38.9587 76.9349 46.4412 76.1979 53.2412 73.3813C60.0412 70.5646 65.8532 65.7948 69.9423 59.675C74.0314 53.5552 76.214 46.3603 76.214 39C76.214 29.1303 72.2933 19.6647 65.3143 12.6857C58.3353 5.70677 48.8698 1.78602 39 1.78602V1.78602Z" fill="black"/>
<path d="M21.1379 11.7301C20.9451 11.7307 20.7573 11.6688 20.6025 11.5538C20.4477 11.4388 20.3344 11.2768 20.2793 11.092C20.2243 10.9072 20.2306 10.7095 20.2972 10.5286C20.3638 10.3476 20.4872 10.1931 20.6489 10.0881C21.7998 9.36617 22.9929 8.71399 24.2219 8.13509C24.3269 8.081 24.4418 8.04887 24.5596 8.04067C24.6774 8.03247 24.7957 8.04837 24.9071 8.08739C25.0186 8.12642 25.1209 8.18775 25.2079 8.26765C25.2949 8.34755 25.3646 8.44433 25.4129 8.55209C25.4653 8.6574 25.4961 8.77212 25.5034 8.8895C25.5107 9.00688 25.4945 9.12454 25.4556 9.23554C25.4167 9.34654 25.3561 9.44863 25.2771 9.5358C25.1982 9.62297 25.1026 9.69346 24.9959 9.74309C23.8493 10.2967 22.736 10.9171 21.6619 11.6011C21.5061 11.7002 21.322 11.7455 21.1379 11.7301V11.7301Z" fill="black"/>
<path d="M6.18128 34.0111H6.01428C5.78245 33.9679 5.57716 33.8346 5.4432 33.6405C5.30925 33.4464 5.25751 33.2072 5.29928 32.9751C6.65334 25.4353 10.4902 18.5649 16.1993 13.4571C16.3773 13.302 16.6089 13.2225 16.8447 13.2358C17.0805 13.2491 17.3018 13.354 17.4613 13.5281C17.5396 13.6156 17.5999 13.7177 17.6387 13.8285C17.6775 13.9393 17.6941 14.0566 17.6875 14.1739C17.6809 14.2911 17.6512 14.4058 17.6002 14.5116C17.5492 14.6173 17.4779 14.712 17.3903 14.7901C11.9827 19.6288 8.34312 26.1325 7.04728 33.2721C7.01147 33.4768 6.90538 33.6626 6.74731 33.7975C6.58923 33.9324 6.38906 34.008 6.18128 34.0111V34.0111Z" fill="black"/>
<path d="M39.0004 39.893H38.7744C38.5835 39.841 38.415 39.7278 38.2945 39.5709C38.174 39.4139 38.1083 39.2218 38.1074 39.024V0.893C38.1074 0.656162 38.2015 0.429024 38.369 0.261554C38.5364 0.0940837 38.7636 0 39.0004 0C39.2373 0 39.4644 0.0940837 39.6319 0.261554C39.7993 0.429024 39.8934 0.656162 39.8934 0.893V35.606L56.9704 5.383C57.0854 5.1822 57.2748 5.03472 57.4977 4.97241C57.7205 4.9101 57.9589 4.93797 58.1614 5.05C58.3619 5.16503 58.5099 5.35329 58.5744 5.57521C58.639 5.79713 58.6149 6.03543 58.5074 6.24L39.7754 39.44C39.6997 39.5789 39.5875 39.6945 39.4509 39.7743C39.3144 39.8541 39.1586 39.8952 39.0004 39.893V39.893Z" fill="black"/>
<path d="M17.6961 71.4508C17.5194 71.4511 17.3461 71.4015 17.1961 71.3078C17.0136 71.1759 16.8876 70.9799 16.8435 70.759C16.7994 70.5381 16.8403 70.3088 16.9581 70.1168L38.2581 38.4998C38.3661 38.3372 38.5257 38.2157 38.7111 38.1548L74.8801 26.0908C75.106 26.0222 75.3497 26.0434 75.5604 26.15C75.771 26.2565 75.9325 26.4402 76.0111 26.6628C76.0483 26.7746 76.0629 26.8927 76.0543 27.0101C76.0456 27.1276 76.0137 27.2422 75.9606 27.3474C75.9074 27.4525 75.834 27.5461 75.7445 27.6227C75.655 27.6993 75.5512 27.7575 75.4391 27.7938L39.5711 39.7028L18.4341 71.0928C18.3493 71.2077 18.2378 71.3002 18.1092 71.3624C17.9806 71.4246 17.8389 71.4546 17.6961 71.4498V71.4508Z" fill="black"/>
<path d="M70.7968 60.8992C70.604 60.9081 70.4143 60.849 70.2608 60.7322L38.5118 39.7502C38.3275 39.62 38.1985 39.4257 38.15 39.2054C38.1016 38.9851 38.1371 38.7546 38.2498 38.5592C38.3781 38.3727 38.5725 38.2419 38.7936 38.1932C39.0147 38.1446 39.246 38.1817 39.4408 38.2972L71.2408 59.3032C71.4273 59.4315 71.5581 59.6259 71.6067 59.847C71.6554 60.0681 71.6182 60.2994 71.5028 60.4942C71.4242 60.6115 71.3196 60.709 71.1972 60.7793C71.0747 60.8495 70.9377 60.8906 70.7968 60.8992V60.8992Z" fill="black"/>
<path d="M39.0017 65.1978C53.471 65.1978 65.2007 53.4685 65.2007 38.9998C65.2007 24.531 53.471 12.8018 39.0017 12.8018C24.5324 12.8018 12.8027 24.531 12.8027 38.9998C12.8027 53.4685 24.5324 65.1978 39.0017 65.1978Z" fill="#409FD9"/>
<path d="M38.9993 66.0912C33.6409 66.0914 28.4028 64.5027 23.9474 61.5258C19.492 58.549 16.0194 54.3178 13.9687 49.3674C11.9181 44.4169 11.3815 38.9695 12.4268 33.7141C13.4721 28.4587 16.0524 23.6312 19.8413 19.8423C23.6303 16.0534 28.4577 13.4731 33.7131 12.4278C38.9685 11.3824 44.4159 11.919 49.3664 13.9697C54.3168 16.0203 58.548 19.4929 61.5249 23.9484C64.5017 28.4038 66.0905 33.6419 66.0903 39.0002C66.09 46.1851 63.2357 53.0757 58.1552 58.1562C53.0747 63.2367 46.1842 66.091 38.9993 66.0912V66.0912ZM38.9993 13.6912C33.9947 13.6918 29.1027 15.1763 24.9418 17.9571C20.7809 20.7378 17.5379 24.6899 15.623 29.3136C13.7081 33.9373 13.2072 39.025 14.1836 43.9334C15.16 48.8417 17.5699 53.3504 21.1086 56.8892C24.6473 60.428 29.1558 62.8381 34.0642 63.8147C38.9725 64.7913 44.0602 64.2906 48.684 62.3759C53.3078 60.4611 57.26 57.2183 60.0409 53.0575C62.8218 48.8967 64.3065 44.0048 64.3073 39.0002C64.3074 35.6768 63.6529 32.3859 62.381 29.3154C61.1092 26.245 59.245 23.4551 56.8949 21.1052C54.5448 18.7553 51.7548 16.8913 48.6842 15.6197C45.6137 14.3481 42.3227 13.6938 38.9993 13.6942V13.6912Z" fill="black"/>
<path d="M38.9992 66.092C37.7653 66.092 36.5329 66.0048 35.3112 65.831C35.0967 65.8031 34.8996 65.6984 34.7565 65.5361C34.6134 65.3739 34.5341 65.1653 34.5332 64.949V23.519C34.5363 23.2831 34.6314 23.0578 34.7982 22.891C34.965 22.7242 35.1903 22.6291 35.4262 22.626H42.5712C42.8071 22.6291 43.0324 22.7242 43.1992 22.891C43.366 23.0578 43.4611 23.2831 43.4642 23.519V64.949C43.4632 65.1645 43.3843 65.3724 43.2421 65.5343C43.0998 65.6963 42.9038 65.8013 42.6902 65.83C41.4673 66.0042 40.2335 66.0918 38.9982 66.092H38.9992ZM36.3202 64.163C38.1015 64.3536 39.898 64.3536 41.6792 64.163V24.412H36.3192L36.3202 64.163Z" fill="black"/>
<path d="M42.5727 65.8428C42.3582 65.8471 42.1497 65.7707 41.9887 65.6288C41.8904 65.5438 41.8118 65.4384 41.7585 65.3199C41.7051 65.2014 41.6782 65.0727 41.6797 64.9428V34.2358C41.6829 33.9999 41.7779 33.7746 41.9447 33.6078C42.1115 33.441 42.3369 33.3459 42.5727 33.3428H49.7177C49.9536 33.3459 50.179 33.441 50.3458 33.6078C50.5126 33.7746 50.6076 33.9999 50.6107 34.2358V62.8998C50.6124 63.0728 50.5638 63.2426 50.4708 63.3886C50.3778 63.5345 50.2443 63.6503 50.0867 63.7218C47.7329 64.7729 45.2411 65.4827 42.6867 65.8298L42.5727 65.8428ZM43.4657 35.1308V63.8998C45.3062 63.5758 47.104 63.0444 48.8247 62.3158V35.1288L43.4657 35.1308Z" fill="black"/>
<path d="M49.7181 63.7931C49.5453 63.7917 49.3763 63.7422 49.2301 63.6501C49.1063 63.5681 49.005 63.4567 48.9351 63.3257C48.8653 63.1948 48.8292 63.0485 48.8301 62.9001V29.4731C48.8332 29.2381 48.9276 29.0135 49.0933 28.8468C49.259 28.6801 49.4831 28.5845 49.7181 28.5801H56.8631C57.099 28.5832 57.3243 28.6783 57.4911 28.8451C57.6579 29.0119 57.753 29.2372 57.7561 29.4731V58.1491C57.7554 58.272 57.7297 58.3934 57.6805 58.506C57.6313 58.6186 57.5597 58.72 57.4701 58.8041C55.2948 60.8364 52.8006 62.4978 50.0871 63.7221C49.9699 63.7697 49.8446 63.7938 49.7181 63.7931ZM50.6111 30.3661V61.4801C52.5508 60.4791 54.3522 59.2303 55.9701 57.7651V30.3801L50.6111 30.3661Z" fill="black"/>
<path d="M35.4267 65.842H35.3077C32.753 65.4966 30.261 64.7867 27.9077 63.734C27.7517 63.6621 27.6197 63.5466 27.5276 63.4015C27.4356 63.2564 27.3873 63.0878 27.3887 62.916V37.816C27.3878 37.6982 27.4102 37.5813 27.4547 37.4721C27.4991 37.363 27.5648 37.2637 27.6478 37.18C27.7308 37.0964 27.8295 37.03 27.9383 36.9847C28.0471 36.9393 28.1638 36.916 28.2817 36.916H35.4267C35.6626 36.9191 35.8879 37.0142 36.0547 37.181C36.2215 37.3478 36.3166 37.5731 36.3197 37.809V64.948C36.3198 65.0654 36.2968 65.1816 36.252 65.2901C36.2072 65.3985 36.1414 65.4971 36.0585 65.5801C35.9756 65.6631 35.8771 65.729 35.7687 65.7739C35.6603 65.8189 35.5441 65.842 35.4267 65.842V65.842ZM29.1747 62.269C30.8929 63.0154 32.691 63.5627 34.5337 63.9V38.7H29.1747V62.269Z" fill="black"/>
<path d="M28.2823 63.7932C28.1558 63.7939 28.0305 63.7698 27.9133 63.7222C25.1998 62.4979 22.7056 60.8365 20.5303 58.8042C20.4382 58.7219 20.3649 58.6207 20.3156 58.5075C20.2662 58.3943 20.2419 58.2717 20.2443 58.1482V42.5722C20.2443 42.3354 20.3384 42.1082 20.5059 41.9408C20.6733 41.7733 20.9005 41.6792 21.1373 41.6792H28.2823C28.5182 41.6823 28.7435 41.7774 28.9103 41.9442C29.0771 42.111 29.1722 42.3363 29.1753 42.5722V62.9002C29.1762 63.0486 29.1401 63.1949 29.0703 63.3258C29.0004 63.4568 28.899 63.5683 28.7753 63.6502C28.6291 63.7423 28.4601 63.7918 28.2873 63.7932H28.2823ZM22.0303 57.7672C23.6484 59.2313 25.4498 60.4791 27.3893 61.4792V43.4652H22.0303V57.7672Z" fill="black"/>
</g>
<defs>
<clipPath id="clip0_1170_16">
<rect width="78" height="78" fill="white"/>
</clipPath>
</defs>
</svg>
