<svg width="78" height="78" viewBox="0 0 78 78" fill="none" xmlns="http://www.w3.org/2000/svg">
<path d="M58.054 78H5.657C4.91416 78.0001 4.17857 77.8539 3.49224 77.5697C2.8059 77.2856 2.18227 76.869 1.65696 76.3438C1.13164 75.8185 0.714936 75.195 0.430633 74.5087C0.14633 73.8224 -1.16104e-08 73.0868 0 72.344L0 5.656C-1.16104e-08 4.91316 0.14633 4.17759 0.430633 3.49131C0.714936 2.80503 1.13164 2.18147 1.65696 1.65625C2.18227 1.13103 2.8059 0.714432 3.49224 0.43025C4.17857 0.146069 4.91416 -0.000131248 5.657 8.84098e-08H58.057C59.5565 0.000795462 60.9944 0.597045 62.0545 1.65766C63.1145 2.71828 63.71 4.15646 63.71 5.656V72.344C63.71 73.0868 63.5637 73.8222 63.2795 74.5085C62.9952 75.1947 62.5786 75.8182 62.0534 76.3434C61.5282 76.8686 60.9047 77.2852 60.2185 77.5695C59.5322 77.8537 58.7968 78 58.054 78V78ZM5.657 1.786C4.63159 1.78917 3.64907 2.19791 2.92399 2.92299C2.19891 3.64807 1.79016 4.63059 1.787 5.656V72.344C1.79016 73.3694 2.19891 74.3519 2.92399 75.077C3.64907 75.8021 4.63159 76.2108 5.657 76.214H58.057C59.0824 76.2108 60.0649 75.8021 60.79 75.077C61.5151 74.3519 61.9238 73.3694 61.927 72.344V5.656C61.9238 4.63059 61.5151 3.64807 60.79 2.92299C60.0649 2.19791 59.0824 1.78917 58.057 1.786H5.657Z" fill="black"/>
<path d="M53.2895 70.8549H10.4195C9.55112 70.8549 8.71826 70.51 8.10411 69.896C7.48996 69.282 7.1448 68.4493 7.14453 67.5809V19.9469C7.14453 19.0783 7.48957 18.2453 8.10376 17.6311C8.71794 17.0169 9.55095 16.6719 10.4195 16.6719H53.2895C54.1581 16.6719 54.9911 17.0169 55.6053 17.6311C56.2195 18.2453 56.5645 19.0783 56.5645 19.9469V67.5809C56.5643 68.4493 56.2191 69.282 55.605 69.896C54.9908 70.51 54.1579 70.8549 53.2895 70.8549V70.8549ZM10.4195 18.4549C10.224 18.4549 10.0304 18.4934 9.84972 18.5682C9.66906 18.643 9.50492 18.7527 9.36665 18.891C9.22838 19.0293 9.1187 19.1934 9.04387 19.3741C8.96905 19.5547 8.93053 19.7483 8.93053 19.9439V67.5809C8.93027 67.7766 8.96859 67.9704 9.0433 68.1513C9.11801 68.3322 9.22765 68.4966 9.36594 68.635C9.50423 68.7735 9.66847 68.8834 9.84925 68.9583C10.03 69.0333 10.2238 69.0719 10.4195 69.0719H53.2895C53.6844 69.0719 54.0632 68.915 54.3424 68.6358C54.6217 68.3565 54.7785 67.9778 54.7785 67.5829V19.9469C54.7785 19.552 54.6217 19.1732 54.3424 18.894C54.0632 18.6148 53.6844 18.4579 53.2895 18.4579L10.4195 18.4549Z" fill="black"/>
<path d="M75.1076 48.5269H17.1836C16.079 48.5269 15.1836 49.4223 15.1836 50.5269V58.4349C15.1836 59.5394 16.079 60.4349 17.1836 60.4349H75.1076C76.2122 60.4349 77.1076 59.5394 77.1076 58.4349V50.5269C77.1076 49.4223 76.2122 48.5269 75.1076 48.5269Z" fill="#68A9A5"/>
<path d="M69.9618 27.0918H27.0918V38.9998H69.9618V27.0918Z" fill="#68A9A5"/>
<path d="M69.9632 39.8932H27.0922C26.856 39.8901 26.6304 39.7948 26.4635 39.6275C26.2967 39.4603 26.2018 39.2345 26.1992 38.9982V27.0912C26.2023 26.8554 26.2974 26.63 26.4642 26.4632C26.631 26.2964 26.8563 26.2013 27.0922 26.1982H69.9622C70.1991 26.1982 70.4262 26.2923 70.5937 26.4598C70.7611 26.6273 70.8552 26.8544 70.8552 27.0912V38.9982C70.8555 39.1156 70.8326 39.2319 70.7879 39.3404C70.7432 39.4489 70.6776 39.5475 70.5947 39.6306C70.5119 39.7137 70.4135 39.7797 70.3051 39.8248C70.1967 39.8698 70.0806 39.8931 69.9632 39.8932ZM27.9852 38.1062H69.0692V27.9842H27.9852V38.1062Z" fill="black"/>
<path d="M74.7254 39.8932H69.9614C69.7251 39.8901 69.4995 39.7948 69.3327 39.6275C69.1658 39.4603 69.0709 39.2345 69.0684 38.9982V27.0912C69.0715 26.8554 69.1665 26.63 69.3333 26.4632C69.5001 26.2964 69.7255 26.2013 69.9614 26.1982H74.7244C75.5929 26.1982 76.4259 26.5433 77.0401 27.1575C77.6543 27.7716 77.9994 28.6047 77.9994 29.4732V36.6182C77.9994 37.4867 77.6545 38.3195 77.0405 38.9337C76.4265 39.5478 75.5938 39.893 74.7254 39.8932ZM70.8554 38.1072H74.7254C74.9209 38.1072 75.1145 38.0687 75.2952 37.9939C75.4758 37.9191 75.64 37.8094 75.7782 37.6711C75.9165 37.5329 76.0262 37.3687 76.101 37.1881C76.1758 37.0074 76.2144 36.8138 76.2144 36.6182V29.4732C76.2144 29.0783 76.0575 28.6996 75.7782 28.4204C75.499 28.1411 75.1203 27.9842 74.7254 27.9842H70.8554V38.1072Z" fill="black"/>
<path d="M74.7241 61.3288H17.5641C16.6955 61.3288 15.8625 60.9837 15.2483 60.3696C14.6341 59.7554 14.2891 58.9224 14.2891 58.0538V50.9088C14.2891 50.0402 14.6341 49.2072 15.2483 48.593C15.8625 47.9788 16.6955 47.6338 17.5641 47.6338H74.7241C75.1541 47.6338 75.58 47.7185 75.9773 47.8831C76.3747 48.0477 76.7357 48.2889 77.0398 48.593C77.344 48.8971 77.5852 49.2582 77.7498 49.6555C77.9144 50.0528 77.9991 50.4787 77.9991 50.9088V58.0538C77.9991 58.4839 77.9144 58.9097 77.7498 59.3071C77.5852 59.7044 77.344 60.0655 77.0398 60.3696C76.7357 60.6737 76.3747 60.9149 75.9773 61.0795C75.58 61.2441 75.1541 61.3288 74.7241 61.3288V61.3288ZM17.5641 49.4198C17.3685 49.4198 17.1749 49.4583 16.9942 49.5331C16.8136 49.608 16.6494 49.7176 16.5112 49.8559C16.3729 49.9942 16.2632 50.1583 16.1884 50.339C16.1136 50.5196 16.0751 50.7133 16.0751 50.9088V58.0538C16.0751 58.2493 16.1136 58.443 16.1884 58.6236C16.2632 58.8043 16.3729 58.9684 16.5112 59.1067C16.6494 59.2449 16.8136 59.3546 16.9942 59.4294C17.1749 59.5043 17.3685 59.5428 17.5641 59.5428H74.7241C75.119 59.5428 75.4977 59.3859 75.7769 59.1067C76.0562 58.8274 76.2131 58.4487 76.2131 58.0538V50.9088C76.2131 50.5139 76.0562 50.1351 75.7769 49.8559C75.4977 49.5767 75.119 49.4198 74.7241 49.4198H17.5641Z" fill="black"/>
<path d="M27.0891 39.8951C26.9522 39.892 26.8178 39.8578 26.6961 39.7951L14.7891 33.8441C14.6394 33.7708 14.5132 33.6569 14.4248 33.5156C14.3364 33.3742 14.2894 33.2109 14.2891 33.0441C14.288 32.8771 14.3344 32.7132 14.423 32.5716C14.5115 32.4299 14.6385 32.3164 14.7891 32.2441L26.6981 26.2951C26.8302 26.2189 26.98 26.1787 27.1326 26.1787C27.2851 26.1787 27.435 26.2189 27.5671 26.2951C27.6957 26.3762 27.8015 26.4887 27.8745 26.622C27.9474 26.7554 27.9852 26.9051 27.9841 27.0571V38.9641C27.9852 39.1161 27.9474 39.2659 27.8745 39.3993C27.8015 39.5326 27.6957 39.6451 27.5671 39.7261C27.4263 39.8235 27.2619 39.8812 27.0911 39.8931L27.0891 39.8951ZM17.1811 33.0481L26.1961 37.5611V28.5801L17.1811 33.0481Z" fill="black"/>
<path d="M53.2883 12.5041H43.7633C42.8947 12.5041 42.0617 12.1591 41.4475 11.5449C40.8333 10.9307 40.4883 10.0977 40.4883 9.2291C40.4883 8.36052 40.8333 7.52751 41.4475 6.91333C42.0617 6.29915 42.8947 5.9541 43.7633 5.9541H53.2883C54.1569 5.9541 54.9899 6.29915 55.6041 6.91333C56.2182 7.52751 56.5633 8.36052 56.5633 9.2291C56.5633 10.0977 56.2182 10.9307 55.6041 11.5449C54.9899 12.1591 54.1569 12.5041 53.2883 12.5041ZM43.7633 7.7401C43.3752 7.75016 43.0064 7.9114 42.7354 8.18945C42.4645 8.4675 42.3129 8.84038 42.3129 9.2286C42.3129 9.61683 42.4645 9.9897 42.7354 10.2678C43.0064 10.5458 43.3752 10.707 43.7633 10.7171H53.2883C53.6764 10.707 54.0452 10.5458 54.3161 10.2678C54.5871 9.9897 54.7387 9.61683 54.7387 9.2286C54.7387 8.84038 54.5871 8.4675 54.3161 8.18945C54.0452 7.9114 53.6764 7.75016 53.2883 7.7401H43.7633Z" fill="black"/>
<path d="M19.9445 12.5041H10.4195C9.55095 12.5041 8.71794 12.1591 8.10376 11.5449C7.48957 10.9307 7.14453 10.0977 7.14453 9.2291C7.14453 8.36052 7.48957 7.52751 8.10376 6.91333C8.71794 6.29915 9.55095 5.9541 10.4195 5.9541H19.9445C20.8131 5.9541 21.6461 6.29915 22.2603 6.91333C22.8745 7.52751 23.2195 8.36052 23.2195 9.2291C23.2195 10.0977 22.8745 10.9307 22.2603 11.5449C21.6461 12.1591 20.8131 12.5041 19.9445 12.5041ZM10.4195 7.7401C10.0314 7.75016 9.66262 7.9114 9.39168 8.18945C9.12074 8.4675 8.96912 8.84038 8.96912 9.2286C8.96912 9.61683 9.12074 9.9897 9.39168 10.2678C9.66262 10.5458 10.0314 10.707 10.4195 10.7171H19.9445C20.1432 10.7223 20.341 10.6876 20.5261 10.6151C20.7112 10.5426 20.8799 10.4338 21.0223 10.295C21.1646 10.1563 21.2778 9.99048 21.3551 9.80732C21.4323 9.62416 21.4721 9.42739 21.4721 9.2286C21.4721 9.02982 21.4323 8.83304 21.3551 8.64989C21.2778 8.46673 21.1646 8.30089 21.0223 8.16217C20.8799 8.02344 20.7112 7.91462 20.5261 7.84213C20.341 7.76964 20.1432 7.73495 19.9445 7.7401H10.4195Z" fill="black"/>
<path d="M31.8559 14.29C30.855 14.29 29.8765 13.9931 29.0442 13.437C28.2119 12.8809 27.5632 12.0905 27.1802 11.1657C26.7971 10.241 26.6969 9.22336 26.8922 8.24162C27.0874 7.25988 27.5695 6.3581 28.2773 5.6503C28.985 4.94251 29.8868 4.4605 30.8686 4.26522C31.8503 4.06994 32.8679 4.17016 33.7927 4.55322C34.7175 4.93627 35.5079 5.58495 36.064 6.41723C36.6201 7.24951 36.9169 8.228 36.9169 9.22897C36.9169 10.5712 36.3837 11.8585 35.4346 12.8076C34.4855 13.7568 33.1982 14.29 31.8559 14.29V14.29ZM31.8559 5.95397C31.2082 5.95397 30.575 6.14605 30.0364 6.50591C29.4979 6.86577 29.0781 7.37725 28.8302 7.97568C28.5823 8.57411 28.5175 9.2326 28.6439 9.86789C28.7702 10.5032 29.0821 11.0867 29.5401 11.5447C29.9982 12.0028 30.5817 12.3147 31.217 12.441C31.8523 12.5674 32.5108 12.5026 33.1092 12.2547C33.7076 12.0068 34.2191 11.587 34.579 11.0485C34.9388 10.5099 35.1309 9.8767 35.1309 9.22897C35.1309 8.36039 34.7859 7.52738 34.1717 6.9132C33.5575 6.29901 32.7245 5.95397 31.8559 5.95397Z" fill="black"/>
<path d="M15.1821 12.5041C14.9452 12.5041 14.7181 12.41 14.5506 12.2425C14.3831 12.0751 14.2891 11.8479 14.2891 11.6111V6.8471C14.2891 6.61026 14.3831 6.38313 14.5506 6.21566C14.7181 6.04819 14.9452 5.9541 15.1821 5.9541C15.4189 5.9541 15.646 6.04819 15.8135 6.21566C15.981 6.38313 16.0751 6.61026 16.0751 6.8471V11.6101C16.0722 11.8461 15.9772 12.0717 15.8104 12.2388C15.6436 12.4058 15.4181 12.501 15.1821 12.5041V12.5041Z" fill="black"/>
<path d="M48.5278 12.5041C48.2919 12.501 48.0666 12.4059 47.8998 12.2391C47.733 12.0723 47.6379 11.847 47.6348 11.6111V6.8471C47.6348 6.61026 47.7289 6.38313 47.8963 6.21566C48.0638 6.04819 48.2909 5.9541 48.5278 5.9541C48.7646 5.9541 48.9917 6.04819 49.1592 6.21566C49.3267 6.38313 49.4208 6.61026 49.4208 6.8471V11.6101C49.4209 11.7275 49.3979 11.8437 49.3531 11.9521C49.3083 12.0606 49.2425 12.1592 49.1596 12.2422C49.0766 12.3252 48.9781 12.3911 48.8697 12.436C48.7613 12.481 48.6451 12.5041 48.5278 12.5041Z" fill="black"/>
<path d="M69.9632 33.9388H27.0922C26.9749 33.9388 26.8588 33.9157 26.7505 33.8709C26.6421 33.826 26.5437 33.7602 26.4608 33.6773C26.3778 33.5944 26.3121 33.4959 26.2672 33.3876C26.2223 33.2792 26.1992 33.1631 26.1992 33.0458C26.1992 32.9286 26.2223 32.8124 26.2672 32.7041C26.3121 32.5958 26.3778 32.4973 26.4608 32.4144C26.5437 32.3315 26.6421 32.2657 26.7505 32.2208C26.8588 32.1759 26.9749 32.1528 27.0922 32.1528H69.9622C70.1991 32.1528 70.4262 32.2469 70.5937 32.4144C70.7611 32.5819 70.8552 32.809 70.8552 33.0458C70.8552 33.2827 70.7611 33.5098 70.5937 33.6773C70.4262 33.8447 70.1991 33.9388 69.9622 33.9388H69.9632Z" fill="black"/>
<path d="M69.9614 41.0838C69.7255 41.0807 69.5001 40.9856 69.3333 40.8188C69.1665 40.652 69.0715 40.4267 69.0684 40.1908V25.9008C69.0684 25.664 69.1624 25.4368 69.3299 25.2694C69.4974 25.1019 69.7245 25.0078 69.9614 25.0078C70.1982 25.0078 70.4253 25.1019 70.5928 25.2694C70.7603 25.4368 70.8544 25.664 70.8544 25.9008V40.1908C70.8544 40.4276 70.7603 40.6548 70.5928 40.8223C70.4253 40.9897 70.1982 41.0838 69.9614 41.0838V41.0838Z" fill="black"/>
<path d="M69.3676 61.3288C69.1308 61.3288 68.9036 61.2347 68.7362 61.0673C68.5687 60.8998 68.4746 60.6726 68.4746 60.4358V55.6718C68.4746 55.435 68.5687 55.2078 68.7362 55.0404C68.9036 54.8729 69.1308 54.7788 69.3676 54.7788C69.6044 54.7788 69.8316 54.8729 69.9991 55.0404C70.1665 55.2078 70.2606 55.435 70.2606 55.6718V60.4348C70.2622 60.5525 70.2402 60.6694 70.1959 60.7784C70.1516 60.8875 70.0859 60.9866 70.0027 61.0699C69.9194 61.1531 69.8203 61.2188 69.7112 61.2631C69.6022 61.3074 69.4853 61.3294 69.3676 61.3278V61.3288Z" fill="black"/>
<path d="M61.6254 61.3288C61.5082 61.3288 61.392 61.3057 61.2837 61.2608C61.1753 61.216 61.0769 61.1502 60.994 61.0673C60.9111 60.9843 60.8453 60.8859 60.8004 60.7775C60.7555 60.6692 60.7324 60.5531 60.7324 60.4358V55.6718C60.7324 55.435 60.8265 55.2078 60.994 55.0404C61.1614 54.8729 61.3886 54.7788 61.6254 54.7788C61.8623 54.7788 62.0894 54.8729 62.2569 55.0404C62.4243 55.2078 62.5184 55.435 62.5184 55.6718V60.4348C62.52 60.5525 62.498 60.6694 62.4537 60.7784C62.4094 60.8875 62.3437 60.9866 62.2605 61.0699C62.1772 61.1531 62.0781 61.2188 61.9691 61.2631C61.86 61.3074 61.7431 61.3294 61.6254 61.3278V61.3288Z" fill="black"/>
<path d="M53.8852 61.3288C53.6484 61.3288 53.4212 61.2347 53.2537 61.0673C53.0863 60.8998 52.9922 60.6726 52.9922 60.4358V55.6718C52.9922 55.435 53.0863 55.2078 53.2537 55.0404C53.4212 54.8729 53.6484 54.7788 53.8852 54.7788C54.122 54.7788 54.3492 54.8729 54.5166 55.0404C54.6841 55.2078 54.7782 55.435 54.7782 55.6718V60.4348C54.7798 60.5525 54.7578 60.6694 54.7135 60.7784C54.6692 60.8875 54.6035 60.9866 54.5202 61.0699C54.437 61.1531 54.3379 61.2188 54.2288 61.2631C54.1198 61.3074 54.0029 61.3294 53.8852 61.3278V61.3288Z" fill="black"/>
<path d="M46.145 61.3288C45.9081 61.3288 45.681 61.2347 45.5135 61.0673C45.346 60.8998 45.252 60.6726 45.252 60.4358V55.6718C45.252 55.435 45.346 55.2078 45.5135 55.0404C45.681 54.8729 45.9081 54.7788 46.145 54.7788C46.3818 54.7788 46.6089 54.8729 46.7764 55.0404C46.9439 55.2078 47.038 55.435 47.038 55.6718V60.4348C47.0396 60.5525 47.0176 60.6694 46.9733 60.7784C46.929 60.8875 46.8632 60.9866 46.78 61.0699C46.6968 61.1531 46.5977 61.2188 46.4886 61.2631C46.3795 61.3074 46.2627 61.3294 46.145 61.3278V61.3288Z" fill="black"/>
<path d="M38.4047 61.3288C38.1679 61.3288 37.9407 61.2347 37.7733 61.0673C37.6058 60.8998 37.5117 60.6726 37.5117 60.4358V55.6718C37.5117 55.435 37.6058 55.2078 37.7733 55.0404C37.9407 54.8729 38.1679 54.7788 38.4047 54.7788C38.6416 54.7788 38.8687 54.8729 39.0362 55.0404C39.2036 55.2078 39.2977 55.435 39.2977 55.6718V60.4348C39.2993 60.5525 39.2773 60.6694 39.233 60.7784C39.1887 60.8875 39.123 60.9866 39.0398 61.0699C38.9565 61.1531 38.8574 61.2188 38.7484 61.2631C38.6393 61.3074 38.5224 61.3294 38.4047 61.3278V61.3288Z" fill="black"/>
<path d="M30.6645 61.3288C30.4276 61.3288 30.2005 61.2347 30.033 61.0673C29.8656 60.8998 29.7715 60.6726 29.7715 60.4358V55.6718C29.7715 55.435 29.8656 55.2078 30.033 55.0404C30.2005 54.8729 30.4276 54.7788 30.6645 54.7788C30.9013 54.7788 31.1285 54.8729 31.2959 55.0404C31.4634 55.2078 31.5575 55.435 31.5575 55.6718V60.4348C31.5591 60.5525 31.5371 60.6694 31.4928 60.7784C31.4485 60.8875 31.3828 60.9866 31.2995 61.0699C31.2163 61.1531 31.1172 61.2188 31.0081 61.2631C30.899 61.3074 30.7822 61.3294 30.6645 61.3278V61.3288Z" fill="black"/>
<path d="M22.9242 61.3288C22.6874 61.3288 22.4603 61.2347 22.2928 61.0673C22.1253 60.8998 22.0313 60.6726 22.0312 60.4358V55.6718C22.0313 55.435 22.1253 55.2078 22.2928 55.0404C22.4603 54.8729 22.6874 54.7788 22.9242 54.7788C23.1611 54.7788 23.3882 54.8729 23.5557 55.0404C23.7232 55.2078 23.8172 55.435 23.8172 55.6718V60.4348C23.8189 60.5525 23.7969 60.6694 23.7526 60.7784C23.7083 60.8875 23.6425 60.9866 23.5593 61.0699C23.476 61.1531 23.377 61.2188 23.2679 61.2631C23.1588 61.3074 23.042 61.3294 22.9242 61.3278V61.3288Z" fill="black"/>
</svg>
