<svg width="78" height="78" viewBox="0 0 78 78" fill="none" xmlns="http://www.w3.org/2000/svg">
<g clip-path="url(#clip0_1170_95)">
<path d="M59.244 77.9998H3.275C2.40659 77.9998 1.57373 77.6549 0.959579 77.0409C0.345426 76.4269 0.000265164 75.5942 0 74.7258L0 11.6108C0.00310739 11.3749 0.0981887 11.1496 0.26499 10.9828C0.431791 10.816 0.657128 10.7209 0.893 10.7178H61.626C61.8619 10.7209 62.0872 10.816 62.254 10.9828C62.4208 11.1496 62.5159 11.3749 62.519 11.6108V74.7258C62.519 75.5944 62.174 76.4274 61.5598 77.0415C60.9456 77.6557 60.1126 78.0008 59.244 78.0008V77.9998ZM1.786 12.5038V74.7258C1.78561 74.9216 1.82383 75.1155 1.89848 75.2965C1.97313 75.4775 2.08275 75.642 2.22106 75.7806C2.35936 75.9192 2.52364 76.0291 2.70449 76.1041C2.88534 76.1792 3.07921 76.2178 3.275 76.2178H59.245C59.4405 76.2178 59.6342 76.1793 59.8148 76.1044C59.9955 76.0296 60.1596 75.9199 60.2979 75.7817C60.4361 75.6434 60.5458 75.4792 60.6207 75.2986C60.6955 75.1179 60.734 74.9243 60.734 74.7288V12.5038H1.786Z" fill="black"/>
<path d="M61.626 12.5H0.893C0.657809 12.4969 0.433058 12.4024 0.266366 12.2364C0.0996743 12.0705 0.00413822 11.8462 0 11.611L0 3.275C0 2.40642 0.345044 1.57341 0.959225 0.959225C1.57341 0.345044 2.40642 0 3.275 0H59.245C60.1136 0 60.9466 0.345044 61.5608 0.959225C62.175 1.57341 62.52 2.40642 62.52 3.275V11.611C62.5169 11.8469 62.4218 12.0722 62.255 12.239C62.0882 12.4058 61.8629 12.5009 61.627 12.504L61.626 12.5ZM1.786 10.718H60.733V3.275C60.733 2.88009 60.5761 2.50136 60.2969 2.22212C60.0176 1.94288 59.6389 1.786 59.244 1.786H3.275C2.88009 1.786 2.50136 1.94288 2.22212 2.22212C1.94288 2.50136 1.786 2.88009 1.786 3.275V10.718Z" fill="black"/>
<path d="M44.9657 7.14479C44.7289 7.14455 44.502 7.05031 44.3347 6.88279C44.2484 6.80168 44.1795 6.70378 44.1324 6.59509C44.0853 6.48641 44.0609 6.36924 44.0607 6.25079C44.0586 6.1343 44.0796 6.01856 44.1225 5.91024C44.1654 5.80193 44.2294 5.70321 44.3107 5.61979C44.4811 5.45822 44.7069 5.36816 44.9417 5.36816C45.1765 5.36816 45.4023 5.45822 45.5727 5.61979C45.6587 5.70345 45.7272 5.80338 45.7743 5.91377C45.8213 6.02416 45.8459 6.1428 45.8467 6.26279C45.8439 6.49902 45.75 6.72505 45.5847 6.89379C45.416 7.05033 45.1958 7.13963 44.9657 7.14479V7.14479Z" fill="black"/>
<path d="M49.4317 6.25197C49.4301 6.13527 49.4517 6.01941 49.4953 5.91114C49.5389 5.80286 49.6035 5.70432 49.6855 5.62123C49.7674 5.53815 49.8651 5.47218 49.9728 5.42716C50.0805 5.38214 50.196 5.35896 50.3127 5.35897V5.35897C50.431 5.35738 50.5484 5.3793 50.6581 5.42347C50.7679 5.46763 50.8677 5.53316 50.9519 5.61624C51.0361 5.69932 51.103 5.7983 51.1486 5.90744C51.1942 6.01657 51.2177 6.13368 51.2177 6.25197C51.2146 6.4899 51.1178 6.71702 50.9484 6.88416C50.7791 7.05129 50.5507 7.14499 50.3127 7.14497V7.14497C50.078 7.14181 49.8539 7.04634 49.689 6.87921C49.5241 6.71208 49.4317 6.48674 49.4317 6.25197Z" fill="black"/>
<path d="M55.6723 7.14479C55.4356 7.14455 55.2086 7.05031 55.0413 6.88279C54.8757 6.71381 54.7818 6.48736 54.7793 6.25079C54.7795 6.01404 54.8738 5.78707 55.0413 5.61979C55.2117 5.45822 55.4375 5.36816 55.6723 5.36816C55.9071 5.36816 56.1329 5.45822 56.3033 5.61979C56.4708 5.78707 56.5651 6.01404 56.5653 6.25079C56.5601 6.48652 56.4666 6.71171 56.3033 6.88179C56.2205 6.96492 56.1222 7.03093 56.014 7.07606C55.9057 7.12118 55.7896 7.14454 55.6723 7.14479V7.14479Z" fill="black"/>
<path d="M60.3436 66.5922C60.1069 66.592 59.8799 66.4977 59.7126 66.3302L54.1986 60.8162C54.0314 60.6488 53.9375 60.4218 53.9375 60.1852C53.9375 59.9486 54.0314 59.7216 54.1986 59.5542L59.5576 54.1952C59.725 54.028 59.952 53.9341 60.1886 53.9341C60.4252 53.9341 60.6522 54.028 60.8196 54.1952L66.3336 59.6952C66.4987 59.8661 66.591 60.0945 66.591 60.3322C66.591 60.5698 66.4987 60.7982 66.3336 60.9692L60.9746 66.3282C60.8048 66.4922 60.5796 66.5865 60.3436 66.5922V66.5922ZM56.0926 60.1852L60.3436 64.4242L64.4436 60.3392L60.1926 56.0882L56.0926 60.1852Z" fill="black"/>
<path d="M66.9687 59.0694L59.0703 66.9678L66.7163 74.6137L74.6146 66.7153L66.9687 59.0694Z" fill="#409FD9"/>
<path d="M61.1907 56.5891L56.6016 61.1782L60.34 64.9167L64.9292 60.3276L61.1907 56.5891Z" fill="#409FD9"/>
<path d="M66.6875 75.5C66.4508 75.4998 66.2238 75.4056 66.0565 75.238L58.4115 67.593C58.2443 67.4256 58.1504 67.1986 58.1504 66.962C58.1504 66.7254 58.2443 66.4985 58.4115 66.331L66.3115 58.431C66.4789 58.2638 66.7059 58.1699 66.9425 58.1699C67.1791 58.1699 67.4061 58.2638 67.5735 58.431L75.2185 66.076C75.3857 66.2435 75.4796 66.4704 75.4796 66.707C75.4796 66.9436 75.3857 67.1706 75.2185 67.338L67.3185 75.238C67.1512 75.4056 66.9242 75.4998 66.6875 75.5V75.5ZM60.3045 66.962L66.6875 73.345L73.3445 66.688L66.9615 60.305L60.3045 66.962Z" fill="black"/>
<path d="M70.7595 78C70.1537 78.0015 69.5537 77.8834 68.9937 77.6524C68.4338 77.4214 67.925 77.0821 67.4965 76.654L66.0795 75.238C65.9123 75.0705 65.8184 74.8436 65.8184 74.607C65.8184 74.3703 65.9123 74.1434 66.0795 73.976L73.9795 66.076C74.1468 65.9084 74.3737 65.8142 74.6105 65.814V65.814C74.8472 65.8142 75.0742 65.9084 75.2415 66.076L76.6585 67.493C77.5196 68.3606 78.0029 69.5335 78.0029 70.756C78.0029 71.9784 77.5196 73.1513 76.6585 74.019L74.0265 76.651C73.1591 77.5127 71.9862 77.9965 70.7635 77.997L70.7595 78ZM67.9725 74.606L68.7585 75.38C69.0207 75.6434 69.3323 75.8524 69.6756 75.995C70.0188 76.1376 70.3868 76.2111 70.7585 76.2111C71.1301 76.2111 71.4982 76.1376 71.8414 75.995C72.1846 75.8524 72.4963 75.6434 72.7585 75.38L75.3915 72.748C75.9172 72.2173 76.2121 71.5005 76.2121 70.7535C76.2121 70.0065 75.9172 69.2897 75.3915 68.759L74.6055 67.973L67.9725 74.606Z" fill="black"/>
<path d="M41.7625 17.5649C46.5494 17.5649 51.2288 18.9846 55.2088 21.6444C59.1887 24.3041 62.2905 28.0845 64.1217 32.5072C65.953 36.93 66.4314 41.7966 65.4965 46.4913C64.5616 51.186 62.2554 55.498 58.8695 58.8819C55.4837 62.2657 51.1704 64.5695 46.4751 65.5017C41.7798 66.4338 36.9136 65.9526 32.4919 64.1188C28.0701 62.285 24.2916 59.1811 21.6341 55.1996C18.9767 51.218 17.5597 46.5378 17.5625 41.7509C17.5662 35.3351 20.1175 29.1834 24.6555 24.648C29.1934 20.1127 35.3467 17.5649 41.7625 17.5649V17.5649Z" fill="#409FD9"/>
<path d="M41.7512 66.8422C36.7886 66.8422 31.9375 65.3706 27.8114 62.6136C23.6852 59.8565 20.4692 55.9379 18.5701 51.3531C16.671 46.7683 16.1741 41.7233 17.1423 36.8562C18.1104 31.989 20.5001 27.5182 24.0092 24.0092C27.5182 20.5001 31.989 18.1104 36.8562 17.1423C41.7233 16.1741 46.7683 16.671 51.3531 18.5701C55.9379 20.4692 59.8565 23.6852 62.6136 27.8114C65.3706 31.9375 66.8422 36.7886 66.8422 41.7512C66.8422 48.4057 64.1987 54.7877 59.4932 59.4932C54.7877 64.1987 48.4057 66.8422 41.7512 66.8422ZM41.7512 18.4582C37.1426 18.4582 32.6375 19.8249 28.8057 22.3854C24.9738 24.946 21.9874 28.5853 20.2241 32.8433C18.4608 37.1012 17.9998 41.7864 18.8994 46.3063C19.799 50.8263 22.0188 54.9779 25.2781 58.2362C28.5373 61.4945 32.6896 63.7131 37.2099 64.6113C41.7301 65.5096 46.4151 65.0471 50.6725 63.2826C54.9299 61.518 58.5684 58.5304 61.1278 54.6979C63.6872 50.8653 65.0526 46.3598 65.0512 41.7512C65.0493 35.5728 62.5937 29.6482 58.2243 25.2801C53.8549 20.912 47.9295 18.4582 41.7512 18.4582V18.4582Z" fill="black"/>
<path d="M41.7513 58.7198C38.3949 58.7198 35.1139 57.7245 32.3232 55.8598C29.5325 53.9951 27.3574 51.3448 26.073 48.2439C24.7886 45.1431 24.4525 41.731 25.1073 38.4391C25.7621 35.1473 27.3784 32.1235 29.7517 29.7502C32.125 27.3769 35.1487 25.7607 38.4406 25.1059C41.7324 24.4511 45.1445 24.7871 48.2454 26.0716C51.3463 27.356 53.9966 29.5311 55.8613 32.3218C57.726 35.1125 58.7213 38.3934 58.7213 41.7498C58.7213 43.9783 58.2823 46.185 57.4295 48.2439C56.5767 50.3028 55.3267 52.1736 53.7509 53.7494C52.1751 55.3252 50.3043 56.5752 48.2454 57.428C46.1865 58.2809 43.9798 58.7198 41.7513 58.7198V58.7198ZM41.7513 26.5668C38.7484 26.5668 35.8129 27.4572 33.3161 29.1255C30.8193 30.7938 28.8733 33.165 27.7241 35.9393C26.5749 38.7136 26.2742 41.7663 26.8599 44.7115C27.4457 47.6567 28.8916 50.362 31.0149 52.4854C33.1382 54.6089 35.8434 56.055 38.7886 56.6409C41.7337 57.2269 44.7865 56.9264 47.5608 55.7773C50.3352 54.6283 52.7065 52.6824 54.375 50.1857C56.0434 47.689 56.9341 44.7537 56.9343 41.7508C56.9335 37.7245 55.3335 33.8634 52.4862 31.0167C49.6389 28.17 45.7775 26.5708 41.7513 26.5708V26.5668Z" fill="black"/>
<path d="M39.9402 53.1711C39.7003 53.1689 39.4703 53.0752 39.2972 52.9091L30.5092 44.0621C30.342 43.8947 30.248 43.6677 30.248 43.4311C30.248 43.1945 30.342 42.9675 30.5092 42.8001L34.7722 38.5841C34.9394 38.4166 35.1664 38.3223 35.4032 38.3221V38.3221C35.6399 38.3223 35.8669 38.4166 36.0342 38.5841L39.9402 42.4781L47.4782 34.9781C47.5602 34.8939 47.6584 34.8269 47.7667 34.7812C47.8751 34.7355 47.9915 34.7119 48.1092 34.7119C48.2268 34.7119 48.3432 34.7355 48.4516 34.7812C48.56 34.8269 48.6581 34.8939 48.7402 34.9781L53.0032 39.3011C53.1703 39.4685 53.2643 39.6955 53.2643 39.9321C53.2643 40.1687 53.1703 40.3957 53.0032 40.5631L40.5602 52.9091C40.3966 53.0748 40.174 53.169 39.9412 53.1711H39.9402ZM32.4022 43.4781L39.9402 51.0161L51.1102 39.8701L48.1102 36.9171L40.5602 44.4171C40.4781 44.5013 40.38 44.5683 40.2716 44.614C40.1632 44.6597 40.0468 44.6833 39.9292 44.6833C39.8115 44.6833 39.6951 44.6597 39.5867 44.614C39.4784 44.5683 39.3802 44.5013 39.2982 44.4171L35.4042 40.4871L32.4022 43.4781Z" fill="black"/>
<path d="M11.6101 24.4119H8.03713C7.48459 24.4119 6.95467 24.1924 6.56387 23.8018C6.17307 23.4112 5.95339 22.8814 5.95312 22.3289V18.7559C5.95731 18.2045 6.17822 17.6768 6.56814 17.2869C6.95806 16.897 7.48571 16.6761 8.03713 16.6719H11.6101C12.1628 16.6719 12.6929 16.8914 13.0837 17.2823C13.4746 17.6731 13.6941 18.2032 13.6941 18.7559V22.3289C13.6939 22.8814 13.4742 23.4112 13.0834 23.8018C12.6926 24.1924 12.1627 24.4119 11.6101 24.4119V24.4119ZM8.03713 18.4579C7.95756 18.4579 7.88125 18.4895 7.82499 18.5457C7.76873 18.602 7.73712 18.6783 7.73712 18.7579V22.3309C7.73712 22.4104 7.76873 22.4867 7.82499 22.543C7.88125 22.5993 7.95756 22.6309 8.03713 22.6309H11.6101C11.6495 22.6309 11.6885 22.6231 11.7249 22.608C11.7613 22.593 11.7944 22.5709 11.8223 22.543C11.8501 22.5151 11.8722 22.4821 11.8873 22.4457C11.9024 22.4093 11.9101 22.3703 11.9101 22.3309V18.7559C11.9101 18.7165 11.9024 18.6775 11.8873 18.6411C11.8722 18.6047 11.8501 18.5716 11.8223 18.5437C11.7944 18.5159 11.7613 18.4938 11.7249 18.4787C11.6885 18.4636 11.6495 18.4559 11.6101 18.4559L8.03713 18.4579Z" fill="black"/>
<path d="M11.6101 36.3201H8.03713C7.48459 36.3201 6.95467 36.1007 6.56387 35.71C6.17307 35.3194 5.95339 34.7896 5.95312 34.2371V30.6641C5.95731 30.1127 6.17822 29.585 6.56814 29.1951C6.95806 28.8052 7.48571 28.5843 8.03713 28.5801H11.6101C12.1628 28.5801 12.6929 28.7996 13.0837 29.1905C13.4746 29.5813 13.6941 30.1114 13.6941 30.6641V34.2371C13.6939 34.7896 13.4742 35.3194 13.0834 35.71C12.6926 36.1007 12.1627 36.3201 11.6101 36.3201V36.3201ZM8.03713 30.3661C7.95756 30.3661 7.88125 30.3977 7.82499 30.4539C7.76873 30.5102 7.73712 30.5865 7.73712 30.6661V34.2391C7.73712 34.3186 7.76873 34.3949 7.82499 34.4512C7.88125 34.5075 7.95756 34.5391 8.03713 34.5391H11.6101C11.6495 34.5391 11.6885 34.5313 11.7249 34.5162C11.7613 34.5012 11.7944 34.4791 11.8223 34.4512C11.8501 34.4234 11.8722 34.3903 11.8873 34.3539C11.9024 34.3175 11.9101 34.2785 11.9101 34.2391V30.6641C11.9101 30.6247 11.9024 30.5857 11.8873 30.5493C11.8722 30.5129 11.8501 30.4798 11.8223 30.4519C11.7944 30.4241 11.7613 30.402 11.7249 30.3869C11.6885 30.3718 11.6495 30.3641 11.6101 30.3641L8.03713 30.3661Z" fill="black"/>
<path d="M11.6101 48.2288H8.03713C7.48459 48.2288 6.95467 48.0093 6.56387 47.6187C6.17307 47.2281 5.95339 46.6983 5.95312 46.1458V42.5728C5.95731 42.0214 6.17822 41.4937 6.56814 41.1038C6.95806 40.7139 7.48571 40.493 8.03713 40.4888H11.6101C12.1628 40.4888 12.6929 40.7083 13.0837 41.0992C13.4746 41.49 13.6941 42.0201 13.6941 42.5728V46.1458C13.6941 46.4194 13.6402 46.6904 13.5355 46.9433C13.4308 47.1961 13.2773 47.4259 13.0837 47.6194C12.8902 47.8129 12.6605 47.9664 12.4076 48.0711C12.1548 48.1759 11.8838 48.2298 11.6101 48.2298V48.2288ZM8.03713 42.2748C7.95756 42.2748 7.88125 42.3064 7.82499 42.3626C7.76873 42.4189 7.73712 42.4952 7.73712 42.5748V46.1478C7.73712 46.2273 7.76873 46.3036 7.82499 46.3599C7.88125 46.4162 7.95756 46.4478 8.03713 46.4478H11.6101C11.6495 46.4478 11.6885 46.44 11.7249 46.4249C11.7613 46.4099 11.7944 46.3878 11.8223 46.3599C11.8501 46.332 11.8722 46.299 11.8873 46.2626C11.9024 46.2262 11.9101 46.1872 11.9101 46.1478V42.5728C11.9101 42.4932 11.8785 42.4169 11.8223 42.3606C11.766 42.3044 11.6897 42.2728 11.6101 42.2728L8.03713 42.2748Z" fill="black"/>
<path d="M11.6101 60.137H8.03713C7.48459 60.137 6.95467 59.9175 6.56387 59.5269C6.17307 59.1363 5.95339 58.6065 5.95312 58.054V54.481C5.95731 53.9296 6.17822 53.4019 6.56814 53.012C6.95806 52.6221 7.48571 52.4012 8.03713 52.397H11.6101C11.8838 52.397 12.1548 52.4509 12.4076 52.5556C12.6605 52.6603 12.8902 52.8138 13.0837 53.0074C13.2773 53.2009 13.4308 53.4306 13.5355 53.6835C13.6402 53.9363 13.6941 54.2073 13.6941 54.481V58.054C13.6939 58.6065 13.4742 59.1363 13.0834 59.5269C12.6926 59.9175 12.1627 60.137 11.6101 60.137V60.137ZM8.03713 54.183C7.95756 54.183 7.88125 54.2146 7.82499 54.2708C7.76873 54.3271 7.73712 54.4034 7.73712 54.483V58.056C7.73712 58.1355 7.76873 58.2118 7.82499 58.2681C7.88125 58.3244 7.95756 58.356 8.03713 58.356H11.6101C11.6495 58.356 11.6885 58.3482 11.7249 58.3331C11.7613 58.3181 11.7944 58.296 11.8223 58.2681C11.8501 58.2402 11.8722 58.2072 11.8873 58.1708C11.9024 58.1344 11.9101 58.0954 11.9101 58.056V54.481C11.9101 54.4416 11.9024 54.4026 11.8873 54.3662C11.8722 54.3298 11.8501 54.2967 11.8223 54.2688C11.7944 54.241 11.7613 54.2189 11.7249 54.2038C11.6885 54.1887 11.6495 54.181 11.6101 54.181L8.03713 54.183Z" fill="black"/>
<path d="M11.6101 72.0452H8.03713C7.48459 72.0452 6.95467 71.8257 6.56387 71.4351C6.17307 71.0445 5.95339 70.5147 5.95312 69.9622V66.3892C5.95731 65.8378 6.17822 65.3101 6.56814 64.9202C6.95806 64.5303 7.48571 64.3094 8.03713 64.3052H11.6101C11.8838 64.3052 12.1548 64.3591 12.4076 64.4638C12.6605 64.5685 12.8902 64.722 13.0837 64.9156C13.2773 65.1091 13.4308 65.3388 13.5355 65.5917C13.6402 65.8445 13.6941 66.1155 13.6941 66.3892V69.9622C13.6939 70.5147 13.4742 71.0445 13.0834 71.4351C12.6926 71.8257 12.1627 72.0452 11.6101 72.0452V72.0452ZM8.03713 66.0912C7.95756 66.0912 7.88125 66.1228 7.82499 66.179C7.76873 66.2353 7.73712 66.3116 7.73712 66.3912V69.9642C7.73712 70.0437 7.76873 70.12 7.82499 70.1763C7.88125 70.2326 7.95756 70.2642 8.03713 70.2642H11.6101C11.6495 70.2642 11.6885 70.2564 11.7249 70.2413C11.7613 70.2263 11.7944 70.2042 11.8223 70.1763C11.8501 70.1485 11.8722 70.1154 11.8873 70.079C11.9024 70.0426 11.9101 70.0036 11.9101 69.9642V66.3892C11.9101 66.3498 11.9024 66.3108 11.8873 66.2744C11.8722 66.238 11.8501 66.2049 11.8223 66.177C11.7944 66.1492 11.7613 66.1271 11.7249 66.112C11.6885 66.0969 11.6495 66.0892 11.6101 66.0892L8.03713 66.0912Z" fill="black"/>
</g>
<defs>
<clipPath id="clip0_1170_95">
<rect width="77.999" height="78" fill="white"/>
</clipPath>
</defs>
</svg>
