<svg width="78" height="78" viewBox="0 0 78 78" fill="none" xmlns="http://www.w3.org/2000/svg">
<g clip-path="url(#clip0_1170_134)">
<path d="M60.4325 74.4278H47.3325C47.0956 74.4278 46.8685 74.3337 46.701 74.1662C46.5335 73.9988 46.4395 73.7716 46.4395 73.5348C46.4395 73.298 46.5335 73.0708 46.701 72.9034C46.8685 72.7359 47.0956 72.6418 47.3325 72.6418H60.4325C63.3502 72.6347 66.1463 71.4714 68.208 69.4068C70.2698 67.3422 71.4293 64.5446 71.4325 61.6268V48.6098C71.4325 48.373 71.5265 48.1458 71.694 47.9784C71.8615 47.8109 72.0886 47.7168 72.3255 47.7168C72.5623 47.7168 72.7894 47.8109 72.9569 47.9784C73.1244 48.1458 73.2185 48.373 73.2185 48.6098V61.6258C73.2124 65.0165 71.8639 68.2668 69.4678 70.6658C67.0717 73.0649 63.8231 74.4175 60.4325 74.4278Z" fill="black"/>
<path d="M43.7611 77.9998H34.2371C33.0643 77.9823 31.9455 77.5041 31.1224 76.6686C30.2993 75.833 29.8379 74.7072 29.8379 73.5343C29.8379 72.3615 30.2993 71.2357 31.1224 70.4001C31.9455 69.5646 33.0643 69.0864 34.2371 69.0688H43.7611C44.9338 69.0864 46.0526 69.5646 46.8757 70.4001C47.6988 71.2357 48.1602 72.3615 48.1602 73.5343C48.1602 74.7072 47.6988 75.833 46.8757 76.6686C46.0526 77.5041 44.9338 77.9823 43.7611 77.9998ZM34.2341 70.8548C33.5234 70.8548 32.8419 71.1372 32.3394 71.6397C31.8369 72.1422 31.5546 72.8237 31.5546 73.5343C31.5546 74.245 31.8369 74.9265 32.3394 75.429C32.8419 75.9315 33.5234 76.2138 34.2341 76.2138H43.7611C44.4717 76.2138 45.1533 75.9315 45.6558 75.429C46.1583 74.9265 46.4406 74.245 46.4406 73.5343C46.4406 72.8237 46.1583 72.1422 45.6558 71.6397C45.1533 71.1372 44.4717 70.8548 43.7611 70.8548H34.2341Z" fill="black"/>
<path d="M72.3421 44.657C72.1053 44.657 71.8782 44.5629 71.7107 44.3954C71.5432 44.228 71.4491 44.0008 71.4491 43.764V36.356C71.4491 22.542 56.8851 11.348 38.9991 11.348C21.1131 11.348 6.55213 22.578 6.55213 36.356V43.763C6.55213 43.9998 6.45804 44.227 6.29057 44.3944C6.1231 44.5619 5.89596 44.656 5.65913 44.656C5.42229 44.656 5.19515 44.5619 5.02768 44.3944C4.86021 44.227 4.76613 43.9998 4.76613 43.763V34.237C4.74174 29.7254 5.6093 25.2535 7.31891 21.0783C9.02853 16.9032 11.5465 13.1071 14.7281 9.90823C17.9097 6.70942 21.6921 4.17097 25.858 2.43881C30.0238 0.70665 34.491 -0.185059 39.0026 -0.185059C43.5143 -0.185059 47.9814 0.70665 52.1473 2.43881C56.3132 4.17097 60.0956 6.70942 63.2772 9.90823C66.4587 13.1071 68.9767 16.9032 70.6863 21.0783C72.396 25.2535 73.2635 29.7254 73.2391 34.237V43.764C73.236 43.9998 73.1409 44.2252 72.9741 44.392C72.8073 44.5588 72.582 44.6539 72.3461 44.657H72.3421ZM38.9991 9.52697C52.8601 9.52697 64.8161 16.017 70.2471 25.318C68.305 18.5408 64.2095 12.58 58.5795 8.33676C52.9495 4.0935 46.0911 1.7984 39.0411 1.7984C31.9912 1.7984 25.1328 4.0935 19.5028 8.33676C13.8728 12.58 9.77721 18.5408 7.83513 25.318C13.1691 16.017 25.1371 9.52697 38.9991 9.52697Z" fill="black"/>
<path d="M65.1992 34.2368C68.3575 34.2368 71.3865 35.4915 73.6198 37.7247C75.8531 39.958 77.1077 42.987 77.1077 46.1453C77.1077 49.3036 75.8531 52.3326 73.6198 54.5659C71.3865 56.7992 68.3575 58.0538 65.1992 58.0538V34.2368Z" fill="#E87E70"/>
<path d="M38.9965 54.1831C38.7597 54.1831 38.5325 54.089 38.3651 53.9216C38.1976 53.7541 38.1035 53.527 38.1035 53.2901V43.7631C38.1035 43.5263 38.1976 43.2991 38.3651 43.1317C38.5325 42.9642 38.7597 42.8701 38.9965 42.8701C39.2334 42.8701 39.4605 42.9642 39.628 43.1317C39.7954 43.2991 39.8895 43.5263 39.8895 43.7631V53.2901C39.8864 53.526 39.7913 53.7513 39.6245 53.9181C39.4577 54.0849 39.2324 54.18 38.9965 54.1831V54.1831Z" fill="black"/>
<path d="M40.7874 54.183H37.2114C36.9745 54.183 36.7474 54.0889 36.5799 53.9214C36.4124 53.7539 36.3184 53.5268 36.3184 53.29C36.3184 53.0531 36.4124 52.826 36.5799 52.6585C36.7474 52.4911 36.9745 52.397 37.2114 52.397H40.7844C41.0212 52.397 41.2483 52.4911 41.4158 52.6585C41.5833 52.826 41.6774 53.0531 41.6774 53.29C41.6774 53.5268 41.5833 53.7539 41.4158 53.9214C41.2483 54.0889 41.0212 54.183 40.7844 54.183H40.7874Z" fill="black"/>
<path d="M40.7874 44.6561H37.2114C36.9745 44.6561 36.7474 44.562 36.5799 44.3946C36.4124 44.2271 36.3184 44 36.3184 43.7631C36.3184 43.5263 36.4124 43.2991 36.5799 43.1317C36.7474 42.9642 36.9745 42.8701 37.2114 42.8701H40.7844C41.0212 42.8701 41.2483 42.9642 41.4158 43.1317C41.5833 43.2991 41.6774 43.5263 41.6774 43.7631C41.6774 44 41.5833 44.2271 41.4158 44.3946C41.2483 44.562 41.0212 44.6561 40.7844 44.6561H40.7874Z" fill="black"/>
<path d="M38.9996 41.382C39.6574 41.382 40.1906 40.8488 40.1906 40.191C40.1906 39.5332 39.6574 39 38.9996 39C38.3418 39 37.8086 39.5332 37.8086 40.191C37.8086 40.8488 38.3418 41.382 38.9996 41.382Z" fill="black"/>
<path d="M28.2798 66.0918C28.144 66.0957 28.0093 66.0672 27.8868 66.0088C27.7355 65.9347 27.6083 65.8193 27.5198 65.676C27.4314 65.5327 27.3852 65.3673 27.3868 65.1988V35.4278C27.3868 34.9975 27.4716 34.5714 27.6363 34.1739C27.8011 33.7763 28.0426 33.4151 28.347 33.111C28.6515 32.8068 29.0129 32.5657 29.4105 32.4013C29.8082 32.2369 30.2344 32.1524 30.6648 32.1528H47.3368C48.2053 32.1528 49.0383 32.4979 49.6525 33.1121C50.2667 33.7262 50.6118 34.5592 50.6118 35.4278V56.8628C50.6118 57.7314 50.2667 58.5644 49.6525 59.1786C49.0383 59.7928 48.2053 60.1378 47.3368 60.1378H36.0948L28.8308 65.9018C28.6759 66.0273 28.4821 66.0948 28.2828 66.0928L28.2798 66.0918ZM30.6618 33.9388C30.2681 33.9407 29.8911 34.0984 29.6134 34.3774C29.3357 34.6565 29.1798 35.0341 29.1798 35.4278V63.3528L35.2288 58.5898C35.3896 58.4668 35.5863 58.3998 35.7888 58.3988H47.3368C47.5349 58.3959 47.7304 58.3537 47.9121 58.2747C48.0938 58.1957 48.2581 58.0815 48.3954 57.9387C48.5327 57.7959 48.6404 57.6273 48.7122 57.4426C48.784 57.258 48.8185 57.0609 48.8138 56.8628V35.4278C48.8109 35.0338 48.6531 34.6568 48.3745 34.3781C48.0958 34.0995 47.7188 33.9417 47.3248 33.9388H30.6618Z" fill="black"/>
<path d="M17.5535 61.3279H15.1715C14.3031 61.3279 13.4702 60.983 12.8561 60.369C12.2419 59.7551 11.8967 58.9223 11.8965 58.0539V34.2369C11.8965 33.3683 12.2415 32.5353 12.8557 31.9211C13.4699 31.307 14.3029 30.9619 15.1715 30.9619H17.5535C18.4221 30.9619 19.2551 31.307 19.8693 31.9211C20.4834 32.5353 20.8285 33.3683 20.8285 34.2369V58.0539C20.8285 58.9225 20.4834 59.7555 19.8693 60.3697C19.2551 60.9839 18.4221 61.3289 17.5535 61.3289V61.3279ZM15.1715 32.7479C14.7766 32.7479 14.3978 32.9048 14.1186 33.184C13.8394 33.4633 13.6825 33.842 13.6825 34.2369V58.0539C13.6825 58.4488 13.8394 58.8276 14.1186 59.1068C14.3978 59.386 14.7766 59.5429 15.1715 59.5429H17.5535C17.749 59.5429 17.9426 59.5044 18.1233 59.4296C18.304 59.3547 18.4681 59.2451 18.6064 59.1068C18.7446 58.9685 18.8543 58.8044 18.9291 58.6237C19.004 58.4431 19.0425 58.2495 19.0425 58.0539V34.2369C19.0425 34.0414 19.004 33.8478 18.9291 33.6671C18.8543 33.4864 18.7446 33.3223 18.6064 33.184C18.4681 33.0458 18.304 32.9361 18.1233 32.8613C17.9426 32.7864 17.749 32.7479 17.5535 32.7479H15.1715Z" fill="black"/>
<path d="M62.8164 61.3279H60.4354C60.0044 61.3295 59.5774 61.246 59.1787 61.0822C58.78 60.9184 58.4176 60.6775 58.1123 60.3733C57.8069 60.0692 57.5646 59.7077 57.3992 59.3097C57.2338 58.9117 57.1486 58.4849 57.1484 58.0539V34.2369C57.1484 33.8058 57.2335 33.379 57.3989 32.9809C57.5642 32.5827 57.8065 32.2212 58.1119 31.9169C58.4173 31.6126 58.7797 31.3717 59.1785 31.2078C59.5772 31.0439 60.0043 30.9604 60.4354 30.9619H62.8174C63.686 30.9619 64.519 31.307 65.1332 31.9212C65.7474 32.5353 66.0924 33.3684 66.0924 34.2369V58.0539C66.0924 58.9225 65.7474 59.7555 65.1332 60.3697C64.519 60.9839 63.686 61.3289 62.8174 61.3289L62.8164 61.3279ZM60.4344 32.7479C60.04 32.7487 59.6621 32.906 59.3835 33.1851C59.1049 33.4643 58.9484 33.8425 58.9484 34.2369V58.0539C58.9484 58.4488 59.1053 58.8276 59.3846 59.1068C59.6638 59.3861 60.0425 59.5429 60.4374 59.5429H62.8194C63.2123 59.5398 63.5879 59.3815 63.8646 59.1026C64.1412 58.8237 64.2964 58.4468 64.2964 58.0539V34.2369C64.2964 33.842 64.1396 33.4633 63.8603 33.1841C63.5811 32.9048 63.2023 32.7479 62.8074 32.7479H60.4344Z" fill="black"/>
<path d="M65.1958 58.9429C64.959 58.9429 64.7318 58.8488 64.5644 58.6813C64.3969 58.5138 64.3028 58.2867 64.3028 58.0499V34.2359C64.3012 34.1181 64.3232 34.0013 64.3675 33.8922C64.4118 33.7831 64.4775 33.6841 64.5608 33.6008C64.644 33.5176 64.7431 33.4518 64.8522 33.4075C64.9613 33.3632 65.0781 33.3412 65.1958 33.3429C68.5906 33.3429 71.8463 34.6914 74.2468 37.0919C76.6472 39.4924 77.9958 42.7481 77.9958 46.1429C77.9958 49.5376 76.6472 52.7934 74.2468 55.1938C71.8463 57.5943 68.5906 58.9429 65.1958 58.9429V58.9429ZM66.0958 35.1289V57.1599C68.8553 56.9378 71.43 55.6847 73.3074 53.6502C75.1847 51.6156 76.2272 48.9488 76.2272 46.1804C76.2272 43.412 75.1847 40.7451 73.3074 38.7105C71.43 36.676 68.8553 35.4229 66.0958 35.2009V35.1289Z" fill="black"/>
<path d="M12.8011 34.2368C9.64275 34.2368 6.61377 35.4915 4.3805 37.7247C2.14722 39.958 0.892578 42.987 0.892578 46.1453C0.892578 49.3036 2.14722 52.3326 4.3805 54.5659C6.61377 56.7992 9.64275 58.0538 12.8011 58.0538V34.2368Z" fill="#E87E70"/>
<path d="M12.8019 58.9429C13.0388 58.9429 13.2659 58.8488 13.4334 58.6813C13.6009 58.5138 13.695 58.2867 13.695 58.0499V34.2359C13.6966 34.1181 13.6746 34.0013 13.6303 33.8922C13.586 33.7831 13.5202 33.6841 13.437 33.6008C13.3537 33.5176 13.2547 33.4518 13.1456 33.4075C13.0365 33.3632 12.9197 33.3412 12.8019 33.3429C9.40718 33.3429 6.15145 34.6914 3.75098 37.0919C1.35052 39.4924 0.00195312 42.7481 0.00195312 46.1429C0.00195312 49.5376 1.35052 52.7934 3.75098 55.1938C6.15145 57.5943 9.40718 58.9429 12.8019 58.9429ZM11.909 35.1259V57.1599C9.14948 56.9378 6.57481 55.6847 4.69742 53.6502C2.82003 51.6156 1.77758 48.9488 1.77758 46.1804C1.77758 43.412 2.82003 40.7451 4.69742 38.7105C6.57481 36.676 9.14948 35.4229 11.909 35.2009V35.1259Z" fill="black"/>
</g>
<defs>
<clipPath id="clip0_1170_134">
<rect width="78" height="78" fill="white"/>
</clipPath>
</defs>
</svg>
