<svg width="77" height="78" viewBox="0 0 77 78" fill="none" xmlns="http://www.w3.org/2000/svg">
<g clip-path="url(#clip0_1170_61)">
<path d="M73.727 78.0001H61.827C61.3963 78.0017 60.9695 77.9182 60.5711 77.7545C60.1728 77.5907 59.8107 77.35 59.5056 77.046C59.2004 76.742 58.9584 76.3808 58.7932 75.983C58.628 75.5852 58.543 75.1588 58.543 74.7281V3.33208C58.543 2.90138 58.628 2.47492 58.7932 2.07716C58.9584 1.6794 59.2004 1.31816 59.5056 1.01417C59.8107 0.710184 60.1728 0.46942 60.5711 0.305694C60.9695 0.141968 61.3963 0.058501 61.827 0.0600806H73.727C74.5938 0.0632423 75.4242 0.408985 76.0371 1.02192C76.6501 1.63486 76.9958 2.46527 76.999 3.33208V74.7321C76.9979 75.5992 76.6527 76.4304 76.0392 77.0432C75.4257 77.6559 74.5941 78.0001 73.727 78.0001V78.0001ZM61.827 1.84508C61.4331 1.84588 61.0557 2.00289 60.7774 2.28167C60.4992 2.56045 60.343 2.93822 60.343 3.33208V74.7321C60.343 75.1265 60.4996 75.5047 60.7785 75.7835C61.0574 76.0624 61.4356 76.2191 61.83 76.2191H73.73C74.1214 76.2128 74.4948 76.0538 74.7706 75.776C75.0464 75.4982 75.2026 75.1235 75.206 74.7321V3.33208C75.2026 2.94063 75.0464 2.566 74.7706 2.28817C74.4948 2.01034 74.1214 1.85133 73.73 1.84508H61.827Z" fill="black"/>
<path d="M76.1076 72.0501H71.3456C71.1089 72.0501 70.8819 71.9561 70.7145 71.7887C70.5472 71.6214 70.4531 71.3943 70.4531 71.1576C70.4531 70.9209 70.5472 70.6939 70.7145 70.5265C70.8819 70.3592 71.1089 70.2651 71.3456 70.2651H76.1056C76.3423 70.2651 76.5693 70.3592 76.7367 70.5265C76.9041 70.6939 76.9981 70.9209 76.9981 71.1576C76.9981 71.3943 76.9041 71.6214 76.7367 71.7887C76.5693 71.9561 76.3423 72.0501 76.1056 72.0501H76.1076Z" fill="black"/>
<path d="M76.1076 64.911H71.3456C71.1089 64.911 70.8819 64.8169 70.7145 64.6496C70.5472 64.4822 70.4531 64.2552 70.4531 64.0185C70.4531 63.7818 70.5472 63.5548 70.7145 63.3874C70.8819 63.22 71.1089 63.126 71.3456 63.126H76.1056C76.3423 63.126 76.5693 63.22 76.7367 63.3874C76.9041 63.5548 76.9981 63.7818 76.9981 64.0185C76.9981 64.2552 76.9041 64.4822 76.7367 64.6496C76.5693 64.8169 76.3423 64.911 76.1056 64.911H76.1076Z" fill="black"/>
<path d="M76.1076 57.7708H71.3456C71.1089 57.7708 70.8819 57.6768 70.7145 57.5094C70.5472 57.3421 70.4531 57.115 70.4531 56.8783C70.4531 56.6416 70.5472 56.4146 70.7145 56.2472C70.8819 56.0799 71.1089 55.9858 71.3456 55.9858H76.1056C76.3423 55.9858 76.5693 56.0799 76.7367 56.2472C76.9041 56.4146 76.9981 56.6416 76.9981 56.8783C76.9981 57.115 76.9041 57.3421 76.7367 57.5094C76.5693 57.6768 76.3423 57.7708 76.1056 57.7708H76.1076Z" fill="black"/>
<path d="M76.1076 50.6322H71.3456C71.1089 50.6322 70.8819 50.5381 70.7145 50.3708C70.5472 50.2034 70.4531 49.9764 70.4531 49.7397C70.4531 49.503 70.5472 49.276 70.7145 49.1086C70.8819 48.9412 71.1089 48.8472 71.3456 48.8472H76.1056C76.3423 48.8472 76.5693 48.9412 76.7367 49.1086C76.9041 49.276 76.9981 49.503 76.9981 49.7397C76.9981 49.9764 76.9041 50.2034 76.7367 50.3708C76.5693 50.5381 76.3423 50.6322 76.1056 50.6322H76.1076Z" fill="black"/>
<path d="M76.1076 43.492H71.3456C71.2284 43.492 71.1124 43.4689 71.0041 43.4241C70.8958 43.3792 70.7974 43.3135 70.7145 43.2306C70.6317 43.1477 70.5659 43.0494 70.5211 42.9411C70.4762 42.8328 70.4531 42.7167 70.4531 42.5995C70.4531 42.4823 70.4762 42.3663 70.5211 42.258C70.5659 42.1497 70.6317 42.0513 70.7145 41.9684C70.7974 41.8856 70.8958 41.8198 71.0041 41.775C71.1124 41.7301 71.2284 41.707 71.3456 41.707H76.1056C76.3423 41.707 76.5693 41.8011 76.7367 41.9684C76.9041 42.1358 76.9981 42.3628 76.9981 42.5995C76.9981 42.8362 76.9041 43.0632 76.7367 43.2306C76.5693 43.398 76.3423 43.492 76.1056 43.492H76.1076Z" fill="black"/>
<path d="M76.1076 36.3529H71.3456C71.1089 36.3529 70.8819 36.2588 70.7145 36.0915C70.5472 35.9241 70.4531 35.6971 70.4531 35.4604C70.4531 35.2237 70.5472 34.9967 70.7145 34.8293C70.8819 34.6619 71.1089 34.5679 71.3456 34.5679H76.1056C76.3423 34.5679 76.5693 34.6619 76.7367 34.8293C76.9041 34.9967 76.9981 35.2237 76.9981 35.4604C76.9981 35.6971 76.9041 35.9241 76.7367 36.0915C76.5693 36.2588 76.3423 36.3529 76.1056 36.3529H76.1076Z" fill="black"/>
<path d="M76.1076 29.2132H71.3456C71.1089 29.2132 70.8819 29.1192 70.7145 28.9518C70.5472 28.7844 70.4531 28.5574 70.4531 28.3207C70.4531 28.084 70.5472 27.857 70.7145 27.6896C70.8819 27.5223 71.1089 27.4282 71.3456 27.4282H76.1056C76.3423 27.4282 76.5693 27.5223 76.7367 27.6896C76.9041 27.857 76.9981 28.084 76.9981 28.3207C76.9981 28.5574 76.9041 28.7844 76.7367 28.9518C76.5693 29.1192 76.3423 29.2132 76.1056 29.2132H76.1076Z" fill="black"/>
<path d="M76.1076 22.0731H71.3456C71.1089 22.0731 70.8819 21.9791 70.7145 21.8117C70.5472 21.6443 70.4531 21.4173 70.4531 21.1806C70.4531 20.9439 70.5472 20.7169 70.7145 20.5495C70.8819 20.3821 71.1089 20.2881 71.3456 20.2881H76.1056C76.3423 20.2881 76.5693 20.3821 76.7367 20.5495C76.9041 20.7169 76.9981 20.9439 76.9981 21.1806C76.9981 21.4173 76.9041 21.6443 76.7367 21.8117C76.5693 21.9791 76.3423 22.0731 76.1056 22.0731H76.1076Z" fill="black"/>
<path d="M76.1076 14.9339H71.3456C71.1089 14.9339 70.8819 14.8399 70.7145 14.6725C70.5472 14.5051 70.4531 14.2781 70.4531 14.0414C70.4531 13.8047 70.5472 13.5777 70.7145 13.4103C70.8819 13.243 71.1089 13.1489 71.3456 13.1489H76.1056C76.3423 13.1489 76.5693 13.243 76.7367 13.4103C76.9041 13.5777 76.9981 13.8047 76.9981 14.0414C76.9981 14.2781 76.9041 14.5051 76.7367 14.6725C76.5693 14.8399 76.3423 14.9339 76.1056 14.9339H76.1076Z" fill="black"/>
<path d="M76.1076 7.79379H71.3456C71.1089 7.79379 70.8819 7.69976 70.7145 7.53238C70.5472 7.36501 70.4531 7.13799 70.4531 6.90129C70.4531 6.66458 70.5472 6.43757 70.7145 6.2702C70.8819 6.10282 71.1089 6.00879 71.3456 6.00879H76.1056C76.3423 6.00879 76.5693 6.10282 76.7367 6.2702C76.9041 6.43757 76.9981 6.66458 76.9981 6.90129C76.9981 7.13799 76.9041 7.36501 76.7367 7.53238C76.5693 7.69976 76.3423 7.79379 76.1056 7.79379H76.1076Z" fill="black"/>
<path d="M64.1949 27.1312C64.2361 21.3792 62.376 15.7747 58.9037 11.1888C55.4314 6.60286 50.5415 3.29248 44.9939 1.77217C39.4638 0.320133 33.6064 0.7674 28.3609 3.04224C23.1155 5.31707 18.786 9.28766 16.0669 14.3172C13.286 19.3817 12.2341 25.2155 13.0708 30.9324C13.9075 36.6493 16.5872 41.937 20.7029 45.9922C22.0955 47.3809 23.1963 49.034 23.9406 50.8544C24.6849 52.6748 25.0576 54.6256 25.0369 56.5922V58.0682H51.9639V56.3082C51.9849 54.3478 52.3933 52.4109 53.1656 50.6089C53.9378 48.8069 55.0588 47.1754 56.4639 45.8082C58.9239 43.36 60.8741 40.4484 62.2016 37.2416C63.5292 34.0349 64.2077 30.5968 64.1979 27.1262L64.1949 27.1312Z" fill="#E87E70"/>
<path d="M51.9722 58.961H25.0862C24.9703 58.9624 24.8554 58.9402 24.7483 58.8958C24.6412 58.8515 24.5442 58.7859 24.4632 58.703C24.3812 58.6191 24.3167 58.5198 24.2732 58.4108C24.2298 58.3018 24.2084 58.1853 24.2102 58.068V56.593C24.2169 54.7422 23.8556 52.9086 23.1473 51.1987C22.439 49.4888 21.3978 47.9368 20.0842 46.633C14.9757 41.6311 12.0246 34.8306 11.8607 27.683C11.6969 20.5353 14.3333 13.6067 19.2072 8.376C21.5927 5.81029 24.4676 3.74801 27.6626 2.31068C30.8575 0.873341 34.3078 0.0900314 37.8102 0.00690349C41.3125 -0.0762244 44.7961 0.542511 48.0556 1.82665C51.3152 3.11079 54.2847 5.03436 56.7892 7.484C59.3917 10.0107 61.466 13.0294 62.8917 16.3648C64.3173 19.7001 65.0658 23.2856 65.0938 26.9127C65.1217 30.5399 64.4284 34.1364 63.0543 37.4933C61.6801 40.8502 59.6525 43.9005 57.0892 46.467C55.7588 47.7414 54.6953 49.2678 53.9608 50.9574C53.2263 52.647 52.8356 54.4658 52.8112 56.308V58.069C52.8133 58.2977 52.7268 58.5182 52.5698 58.6845C52.4129 58.8508 52.1976 58.9499 51.9692 58.961H51.9722ZM25.9282 57.176H51.0942V56.307C51.1111 54.2288 51.5415 52.1748 52.3602 50.2646C53.179 48.3544 54.3698 46.6263 55.8632 45.181C58.2558 42.7841 60.1482 39.9357 61.4308 36.8013C62.7133 33.6668 63.3602 30.3088 63.3341 26.9222C63.3079 23.5357 62.6092 20.1881 61.2785 17.0738C59.9477 13.9595 58.0115 11.1407 55.5822 8.781C53.1556 6.40911 50.2603 4.57018 47.0818 3.382C43.9033 2.19382 40.5117 1.68257 37.1242 1.881C32.2561 2.16342 27.5784 3.87095 23.6732 6.79116C19.768 9.71137 16.8075 13.7154 15.1602 18.305C13.4694 22.9217 13.1448 27.9278 14.2252 32.7242C15.3056 37.5206 17.7453 41.9041 21.2522 45.35C22.7401 46.8193 23.92 48.5706 24.7229 50.5015C25.5258 52.4323 25.9356 54.5039 25.9282 56.595V57.176Z" fill="black"/>
<path d="M48.0146 68.481H28.9756C28.1077 68.481 27.2753 68.1363 26.6616 67.5225C26.0479 66.9088 25.7031 66.0765 25.7031 65.2085C25.7031 64.3406 26.0479 63.5082 26.6616 62.8945C27.2753 62.2808 28.1077 61.936 28.9756 61.936H48.0146C48.8825 61.936 49.7149 62.2808 50.3286 62.8945C50.9423 63.5082 51.2871 64.3406 51.2871 65.2085C51.2871 66.0765 50.9423 66.9088 50.3286 67.5225C49.7149 68.1363 48.8825 68.481 48.0146 68.481ZM28.9756 63.721C28.5811 63.721 28.2028 63.8778 27.9238 64.1567C27.6448 64.4357 27.4881 64.814 27.4881 65.2085C27.4881 65.603 27.6448 65.9814 27.9238 66.2604C28.2028 66.5393 28.5811 66.696 28.9756 66.696H48.0146C48.4091 66.696 48.7875 66.5393 49.0664 66.2604C49.3454 65.9814 49.5021 65.603 49.5021 65.2085C49.5021 64.814 49.3454 64.4357 49.0664 64.1567C48.7875 63.8778 48.4091 63.721 48.0146 63.721H28.9756Z" fill="black"/>
<path d="M48.0146 73.2408H28.9756C28.1077 73.2408 27.2753 72.896 26.6616 72.2823C26.0479 71.6686 25.7031 70.8362 25.7031 69.9683C25.7031 69.1004 26.0479 68.268 26.6616 67.6543C27.2753 67.0406 28.1077 66.6958 28.9756 66.6958H48.0146C48.8825 66.6958 49.7149 67.0406 50.3286 67.6543C50.9423 68.268 51.2871 69.1004 51.2871 69.9683C51.2871 70.8362 50.9423 71.6686 50.3286 72.2823C49.7149 72.896 48.8825 73.2408 48.0146 73.2408ZM28.9756 68.4808C28.5811 68.4808 28.2028 68.6375 27.9238 68.9165C27.6448 69.1954 27.4881 69.5738 27.4881 69.9683C27.4881 70.3628 27.6448 70.7412 27.9238 71.0201C28.2028 71.2991 28.5811 71.4558 28.9756 71.4558H48.0146C48.4091 71.4558 48.7875 71.2991 49.0664 71.0201C49.3454 70.7412 49.5021 70.3628 49.5021 69.9683C49.5021 69.5738 49.3454 69.1954 49.0664 68.9165C48.7875 68.6375 48.4091 68.4808 48.0146 68.4808H28.9756Z" fill="black"/>
<path d="M48.0141 63.7208H28.9751C28.5454 63.7208 28.1198 63.6361 27.7228 63.4716C27.3257 63.3071 26.965 63.066 26.6611 62.7621C26.3573 62.4581 26.1163 62.0973 25.9519 61.7002C25.7875 61.3031 25.703 60.8775 25.7031 60.4478V58.0678C25.7052 57.8319 25.7999 57.6062 25.9667 57.4394C26.1335 57.2725 26.3592 57.1779 26.5951 57.1758H50.3951C50.5123 57.1758 50.6283 57.1989 50.7365 57.2437C50.8447 57.2885 50.943 57.3542 51.0259 57.437C51.1087 57.5199 51.1744 57.6182 51.2192 57.7264C51.2641 57.8347 51.2871 57.9506 51.2871 58.0678V60.4478C51.2873 60.8776 51.2027 61.3033 51.0382 61.7005C50.8738 62.0976 50.6327 62.4585 50.3288 62.7624C50.0248 63.0664 49.664 63.3075 49.2668 63.4719C48.8696 63.6363 48.444 63.7209 48.0141 63.7208V63.7208ZM27.4881 58.9608V60.4478C27.4881 60.8422 27.6448 61.2204 27.9237 61.4992C28.2025 61.7781 28.5807 61.9348 28.9751 61.9348H48.0141C48.2096 61.935 48.4031 61.8968 48.5838 61.8222C48.7644 61.7476 48.9286 61.6381 49.0669 61.5C49.2052 61.3619 49.3149 61.1978 49.3897 61.0173C49.4646 60.8368 49.5031 60.6432 49.5031 60.4478V58.9608H27.4881Z" fill="black"/>
<path d="M45.6354 77.9998H31.3554C31.1187 77.9998 30.8917 77.9058 30.7243 77.7384C30.5569 77.5711 30.4629 77.3441 30.4629 77.1073C30.4629 76.8706 30.5569 76.6436 30.7243 76.4762C30.8917 76.3089 31.1187 76.2148 31.3554 76.2148H45.6354C45.8721 76.2148 46.0991 76.3089 46.2665 76.4762C46.4339 76.6436 46.5279 76.8706 46.5279 77.1073C46.5279 77.3441 46.4339 77.5711 46.2665 77.7384C46.0991 77.9058 45.8721 77.9998 45.6354 77.9998Z" fill="black"/>
<path d="M17.5555 69.968V15.231L9.22648 17.611L0.896484 15.231V69.968H17.5555Z" fill="white"/>
<path d="M17.554 70.8601H0.893954C0.77673 70.8601 0.660657 70.837 0.552369 70.7921C0.444081 70.7472 0.345704 70.6814 0.262861 70.5984C0.180018 70.5155 0.114334 70.4171 0.0695659 70.3087C0.0247976 70.2004 0.00182227 70.0843 0.00195369 69.9671V15.2321C0.00191485 15.0935 0.0341573 14.9568 0.0961246 14.8329C0.158092 14.709 0.24808 14.6012 0.358954 14.5181C0.471428 14.4204 0.606834 14.3528 0.752512 14.3217C0.898189 14.2906 1.04938 14.2969 1.19195 14.3401L9.22395 16.7201L17.304 14.3401C17.4368 14.3004 17.5772 14.2927 17.7136 14.3176C17.85 14.3424 17.9786 14.3991 18.089 14.4831C18.1998 14.5662 18.2898 14.674 18.3518 14.7979C18.4137 14.9218 18.446 15.0585 18.446 15.1971V69.9321C18.4508 70.0522 18.4313 70.1721 18.3887 70.2845C18.346 70.3969 18.2811 70.4995 18.1978 70.5862C18.1145 70.6729 18.0145 70.7418 17.9038 70.7889C17.7932 70.8359 17.6742 70.8602 17.554 70.8601V70.8601ZM1.78695 69.0751H16.661V16.4091L9.52095 18.4681C9.3577 18.5157 9.18421 18.5157 9.02095 18.4681L1.88195 16.4091L1.78695 69.0751Z" fill="black"/>
<path d="M15.174 78.0002H3.27395C2.84418 78.0002 2.41862 77.9155 2.02158 77.751C1.62454 77.5865 1.26379 77.3454 0.959946 77.0415C0.6561 76.7376 0.415107 76.3767 0.250732 75.9796C0.0863578 75.5826 0.00182193 75.157 0.00195328 74.7272V69.9672C0.00404125 69.7313 0.0986899 69.5056 0.265522 69.3388C0.432354 69.1719 0.658027 69.0773 0.893953 69.0752H17.554C17.7899 69.0773 18.0156 69.1719 18.1824 69.3388C18.3492 69.5056 18.4439 69.7313 18.446 69.9672V74.7272C18.446 75.595 18.1012 76.4272 17.4876 77.0408C16.874 77.6545 16.0417 77.9992 15.174 77.9992V78.0002ZM1.78695 70.8602V74.7272C1.78682 74.9226 1.82519 75.116 1.89986 75.2966C1.97453 75.4771 2.08404 75.6411 2.22213 75.7793C2.36023 75.9175 2.5242 76.0271 2.70467 76.1019C2.88515 76.1767 3.07859 76.2152 3.27395 76.2152H15.174C15.5683 76.2152 15.9466 76.0585 16.2254 75.7797C16.5043 75.5008 16.661 75.1226 16.661 74.7282V70.8602H1.78695Z" fill="black"/>
<path d="M17.5555 15.2311L9.22648 0.952148L0.896484 15.2311L9.22648 17.6111L17.5555 15.2311Z" fill="white"/>
<path d="M9.2258 18.503H8.9758L0.645796 16.123C0.51505 16.0855 0.394623 16.0185 0.293727 15.9273C0.192831 15.836 0.114138 15.7229 0.0636681 15.5966C0.0131977 15.4703 -0.00771306 15.3341 0.00253513 15.1985C0.0127833 15.0628 0.053919 14.9313 0.122796 14.814L8.4518 0.535009C8.53627 0.40648 8.65137 0.300962 8.78673 0.227945C8.9221 0.154927 9.07349 0.116699 9.2273 0.116699C9.3811 0.116699 9.53249 0.154927 9.66786 0.227945C9.80323 0.300962 9.91832 0.40648 10.0028 0.535009L18.3328 14.814C18.3886 14.9373 18.4175 15.0711 18.4175 15.2065C18.4175 15.3419 18.3886 15.4757 18.3328 15.599C18.2804 15.724 18.201 15.8359 18.1002 15.9265C17.9994 16.0171 17.8797 16.0842 17.7498 16.123L9.4198 18.503H9.2258ZM2.2408 14.683L9.2258 16.718L16.2108 14.718L9.2258 2.82001L2.2408 14.683Z" fill="black"/>
<path d="M9.22403 70.8598C8.98746 70.8598 8.76057 70.7658 8.59329 70.5985C8.42601 70.4312 8.33203 70.2044 8.33203 69.9678V17.6098C8.33203 17.3731 8.42606 17.1461 8.59344 16.9787C8.76081 16.8113 8.98783 16.7173 9.22453 16.7173C9.46124 16.7173 9.68825 16.8113 9.85562 16.9787C10.023 17.1461 10.117 17.3731 10.117 17.6098V69.9678C10.117 70.2044 10.0231 70.4312 9.85577 70.5985C9.68849 70.7658 9.4616 70.8598 9.22503 70.8598H9.22403Z" fill="black"/>
<path d="M38.4949 33.5919C37.219 33.5917 35.9718 33.213 34.9112 32.5038C33.8506 31.7946 33.0242 30.7868 32.5365 29.6078C32.0489 28.4288 31.9219 27.1316 32.1716 25.8804C32.4214 24.6292 33.0367 23.4802 33.9396 22.5788C34.8426 21.6774 35.9926 21.0641 37.2442 20.8165C38.4959 20.5689 39.7928 20.698 40.971 21.1877C42.1491 21.6774 43.1556 22.5055 43.863 23.5674C44.5703 24.6292 44.9468 25.877 44.9449 27.1528C44.942 28.8613 44.2612 30.4988 43.0521 31.7059C41.843 32.9129 40.2043 33.5909 38.4959 33.5909L38.4949 33.5919ZM38.4949 22.4919C37.4188 22.4941 36.3768 22.8692 35.5462 23.5534C34.7156 24.2375 34.1478 25.1884 33.9395 26.2441C33.7312 27.2998 33.8953 28.3951 34.4037 29.3435C34.9122 30.2918 35.7337 31.0347 36.7282 31.4454C37.7228 31.8562 38.829 31.9096 39.8585 31.5965C40.888 31.2833 41.7772 30.6231 42.3746 29.7281C42.972 28.8331 43.2407 27.7587 43.135 26.6878C43.0293 25.6169 42.5557 24.6158 41.7949 23.8549C40.9191 22.9809 39.7321 22.4906 38.4949 22.4919Z" fill="black"/>
<path d="M38.4961 44.7058C37.5431 44.7053 36.5918 44.6257 35.6521 44.4678C35.4665 44.4394 35.2948 44.3526 35.162 44.2198C35.0293 44.0871 34.9424 43.9154 34.9141 43.7298L34.0931 38.5818L33.5391 38.3518L29.2791 41.4098C29.1268 41.5201 28.9436 41.5795 28.7556 41.5795C28.5675 41.5795 28.3843 41.5201 28.2321 41.4098C26.68 40.2939 25.3213 38.9312 24.2101 37.3758C24.1009 37.2253 24.0421 37.0442 24.0421 36.8583C24.0421 36.6724 24.1009 36.4912 24.2101 36.3408L27.2801 32.1168C27.1971 31.9268 27.1131 31.7478 27.0421 31.5578L21.8901 30.7368C21.7045 30.7084 21.5328 30.6216 21.4 30.4888C21.2673 30.3561 21.1804 30.1844 21.1521 29.9988C20.8347 28.112 20.8347 26.1855 21.1521 24.2988C21.1809 24.1146 21.2683 23.9446 21.4012 23.8139C21.534 23.6831 21.7055 23.5986 21.8901 23.5728L27.0391 22.7518C27.1101 22.5618 27.1941 22.3708 27.2771 22.1808L24.2071 17.9688C24.0967 17.8165 24.0373 17.6333 24.0373 17.4453C24.0373 17.2572 24.0967 17.074 24.2071 16.9218C25.3185 15.3699 26.6772 14.0112 28.2291 12.8998C28.3813 12.7894 28.5645 12.73 28.7526 12.73C28.9406 12.73 29.1238 12.7894 29.2761 12.8998L33.5001 15.9578L34.0591 15.7198L34.8801 10.5678C34.9133 10.3842 35.0018 10.2153 35.1337 10.0834C35.2656 9.95149 35.4345 9.86301 35.6181 9.82976C37.5014 9.52029 39.4227 9.52029 41.3061 9.82976C41.4896 9.86301 41.6586 9.95149 41.7905 10.0834C41.9223 10.2153 42.0108 10.3842 42.0441 10.5678L42.8651 15.7318L43.4361 15.9578L47.6481 12.8998C47.8017 12.7928 47.9844 12.7354 48.1716 12.7354C48.3588 12.7354 48.5415 12.7928 48.6951 12.8998C50.2475 14.0199 51.6062 15.3866 52.7171 16.9458C52.8263 17.0962 52.8851 17.2774 52.8851 17.4633C52.8851 17.6492 52.8263 17.8303 52.7171 17.9808L49.6941 22.1918C49.7771 22.3698 49.8491 22.5608 49.9201 22.7508L55.0721 23.5718C55.256 23.5994 55.4264 23.6845 55.5589 23.8149C55.6915 23.9453 55.7794 24.1143 55.8101 24.2978C56.1274 26.1845 56.1274 28.111 55.8101 29.9978C55.7817 30.1834 55.6949 30.3551 55.5621 30.4878C55.4294 30.6206 55.2577 30.7074 55.0721 30.7358L49.9201 31.5568C49.8491 31.7348 49.7771 31.9258 49.6941 32.1158L52.7521 36.3398C52.8613 36.4902 52.9201 36.6714 52.9201 36.8573C52.9201 37.0432 52.8613 37.2243 52.7521 37.3748C51.6408 38.9302 50.2821 40.2929 48.7301 41.4088C48.5778 41.5191 48.3946 41.5785 48.2066 41.5785C48.0185 41.5785 47.8353 41.5191 47.6831 41.4088L43.4711 38.3388L42.8991 38.5818L42.0781 43.7338C42.0497 43.9194 41.9629 44.091 41.8301 44.2238C41.6974 44.3566 41.5257 44.4434 41.3401 44.4718C40.4003 44.6297 39.449 44.7093 38.4961 44.7098V44.7058ZM36.5681 42.8058C37.8484 42.9604 39.1427 42.9604 40.4231 42.8058L41.1731 37.7838C41.1969 37.6231 41.2653 37.4724 41.3705 37.3487C41.4757 37.225 41.6134 37.1332 41.7681 37.0838C42.229 36.9293 42.6785 36.7426 43.1131 36.5248C43.2586 36.4474 43.4231 36.413 43.5874 36.4256C43.7517 36.4381 43.909 36.4972 44.0411 36.5958L48.1471 39.5818C49.1621 38.7868 50.0772 37.8718 50.8721 36.8568L47.8851 32.7398C47.7898 32.6062 47.7328 32.4492 47.7203 32.2857C47.7078 32.1221 47.7402 31.9582 47.8141 31.8118C48.0314 31.3811 48.2182 30.9356 48.3731 30.4788C48.4237 30.3248 48.5159 30.1878 48.6394 30.0828C48.7629 29.9778 48.9129 29.9089 49.0731 29.8838L54.0951 29.0838C54.2537 27.8037 54.2537 26.5089 54.0951 25.2288L49.0731 24.4288C48.9143 24.4 48.766 24.3298 48.6431 24.2254C48.5202 24.1209 48.427 23.9858 48.3731 23.8338C48.2204 23.3722 48.0336 22.9226 47.8141 22.4888C47.7402 22.3423 47.7078 22.1784 47.7203 22.0149C47.7328 21.8513 47.7898 21.6943 47.8851 21.5608L50.8721 17.4558C50.0834 16.4351 49.1677 15.5194 48.1471 14.7308L44.0391 17.7178C43.9059 17.8139 43.7488 17.8714 43.5851 17.8839C43.4213 17.8964 43.2573 17.8635 43.1111 17.7888C42.6772 17.5693 42.2277 17.3824 41.7661 17.2298C41.6127 17.178 41.4763 17.0856 41.3715 16.9623C41.2667 16.8389 41.1974 16.6894 41.1711 16.5298L40.3711 11.4968C39.0907 11.3421 37.7964 11.3421 36.5161 11.4968L35.7161 16.5298C35.6897 16.6894 35.6204 16.8389 35.5156 16.9623C35.4108 17.0856 35.2744 17.178 35.1211 17.2298C34.6611 17.3867 34.2118 17.5734 33.7761 17.7888C33.6311 17.8603 33.4695 17.8914 33.3083 17.8789C33.1471 17.8665 32.9923 17.8108 32.8601 17.7178L28.7901 14.7308C27.7694 15.5194 26.8537 16.4351 26.0651 17.4558L29.0521 21.5608C29.1507 21.6928 29.2097 21.8501 29.2223 22.0145C29.2348 22.1788 29.2004 22.3433 29.1231 22.4888C28.9067 22.9304 28.7239 23.3877 28.5761 23.8568C28.5227 24.0129 28.4282 24.1516 28.3026 24.2585C28.1769 24.3653 28.0247 24.4362 27.8621 24.4638L22.8401 25.2638C22.6814 26.5439 22.6814 27.8387 22.8401 29.1188L27.8621 29.9188C28.0247 29.9415 28.1777 30.0093 28.3039 30.1144C28.4301 30.2196 28.5243 30.3579 28.5761 30.5138C28.7234 30.9717 28.9063 31.4174 29.1231 31.8468C29.2004 31.9923 29.2348 32.1568 29.2223 32.3211C29.2097 32.4854 29.1507 32.6427 29.0521 32.7748L26.0651 36.8918C26.86 37.9068 27.775 38.8218 28.7901 39.6168L32.9071 36.6298C33.0391 36.5312 33.1964 36.4721 33.3608 36.4596C33.5251 36.447 33.6896 36.4814 33.8351 36.5588C34.2672 36.7728 34.7125 36.9595 35.1681 37.1178C35.3227 37.1672 35.4605 37.259 35.5656 37.3827C35.6708 37.5064 35.7392 37.6571 35.7631 37.8178L36.5681 42.8058Z" fill="black"/>
<path d="M64.2065 72.1241C64.0893 72.1241 63.9733 72.1011 63.8651 72.0562C63.7569 72.0114 63.6585 71.9457 63.5757 71.8629C63.4929 71.78 63.4272 71.6817 63.3824 71.5735C63.3375 71.4653 63.3145 71.3493 63.3145 71.2321V58.3661C63.3145 58.1294 63.4085 57.9024 63.5759 57.735C63.7432 57.5677 63.9702 57.4736 64.207 57.4736C64.4437 57.4736 64.6707 57.5677 64.838 57.735C65.0054 57.9024 65.0995 58.1294 65.0995 58.3661V71.2301C65.0979 71.4666 65.0033 71.6929 64.8362 71.8602C64.6691 72.0275 64.4429 72.1223 64.2065 72.1241V72.1241Z" fill="black"/>
<path d="M64.2031 54.5229C64.0832 54.524 63.9643 54.501 63.8536 54.4551C63.7428 54.4093 63.6425 54.3416 63.5585 54.2561C63.4745 54.1706 63.4085 54.0691 63.3647 53.9575C63.3208 53.846 63.2998 53.7267 63.3031 53.6069V50.9999C63.3031 50.7632 63.3971 50.5362 63.5645 50.3688C63.7318 50.2015 63.9589 50.1074 64.1956 50.1074C64.4323 50.1074 64.6593 50.2015 64.8267 50.3688C64.994 50.5362 65.0881 50.7632 65.0881 50.9999V53.6059C65.0923 53.8441 65.002 54.0743 64.8369 54.246C64.6717 54.4177 64.4452 54.5169 64.2071 54.5219L64.2031 54.5229Z" fill="black"/>
</g>
<defs>
<clipPath id="clip0_1170_61">
<rect width="77" height="78" fill="white"/>
</clipPath>
</defs>
</svg>
