<svg width="174" height="174" viewBox="0 0 174 174" fill="none" xmlns="http://www.w3.org/2000/svg">
<g filter="url(#filter0_d_1837_1422)">
<rect x="86.7109" y="16" width="100" height="100" rx="10" transform="rotate(45 86.7109 16)" fill="white"/>
</g>
<path d="M67.1334 57.0066H106.867C112.89 57.0066 117.762 61.8765 117.762 67.9017V106.098C117.762 112.122 112.892 116.993 106.867 116.993H67.1334C61.1096 116.993 56.2383 112.123 56.2383 106.098V67.9017C56.2383 61.8779 61.1082 57.0066 67.1334 57.0066Z" fill="#330000"/>
<path d="M86.0518 92.999H76.5156L74.5674 99.0229C74.5154 99.2539 74.3104 99.407 74.0807 99.3811H69.2613C68.9797 99.3811 68.9018 99.2279 68.9797 98.9189L77.2348 75.1559C77.3113 74.8988 77.3879 74.6172 77.4918 74.3096C77.5943 73.7709 77.6449 73.2076 77.6449 72.643C77.6189 72.5145 77.7215 72.3859 77.85 72.3613C77.876 72.3613 77.902 72.3613 77.9266 72.3613H84.4891C84.6941 72.3613 84.7967 72.4379 84.8227 72.5664L94.1797 98.9695C94.2563 99.2512 94.1797 99.3797 93.9227 99.3797H88.5646C88.3855 99.4057 88.2064 99.2771 88.1545 99.098L86.0518 92.999ZM78.0031 87.7941H84.5137C84.3605 87.2555 84.1555 86.6156 83.9244 85.9484C83.6934 85.2566 83.4623 84.5129 83.2326 83.7445C82.9756 82.9502 82.7459 82.1805 82.4889 81.3861C82.2318 80.5918 82.0021 79.848 81.7971 79.1043C81.592 78.3865 81.4129 77.7193 81.2338 77.1041H81.1818C80.9508 78.2061 80.6691 79.308 80.3096 80.4113C79.9254 81.6418 79.5412 82.9242 79.1311 84.2053C78.7715 85.5123 78.3873 86.7182 78.0031 87.7941Z" fill="#FF9A00"/>
<path d="M99.7668 76.746C98.9206 76.772 98.1002 76.4384 97.485 75.8491C96.8957 75.2079 96.5881 74.3616 96.6127 73.4907C96.5868 72.6185 96.9204 71.7995 97.5356 71.2089C98.1508 70.6196 98.9711 70.312 99.8174 70.312C100.817 70.312 101.587 70.6196 102.15 71.2089C102.713 71.8241 103.022 72.6444 102.996 73.4907C103.022 74.363 102.714 75.2079 102.099 75.8491C101.509 76.4644 100.638 76.7979 99.7668 76.746ZM96.8957 98.997V79.2589C96.8957 79.0019 96.9983 78.9007 97.2293 78.9007H102.304C102.535 78.9007 102.638 79.0292 102.638 79.2589V98.9983C102.638 99.28 102.535 99.4085 102.304 99.4085H97.2799C97.0229 99.4071 96.8957 99.2526 96.8957 98.997Z" fill="#FF9A00"/>
<defs>
<filter id="filter0_d_1837_1422" x="0.142578" y="0.14209" width="173.137" height="173.137" filterUnits="userSpaceOnUse" color-interpolation-filters="sRGB">
<feFlood flood-opacity="0" result="BackgroundImageFix"/>
<feColorMatrix in="SourceAlpha" type="matrix" values="0 0 0 0 0 0 0 0 0 0 0 0 0 0 0 0 0 0 127 0" result="hardAlpha"/>
<feOffset/>
<feGaussianBlur stdDeviation="10"/>
<feComposite in2="hardAlpha" operator="out"/>
<feColorMatrix type="matrix" values="0 0 0 0 0 0 0 0 0 0 0 0 0 0 0 0 0 0 0.1 0"/>
<feBlend mode="normal" in2="BackgroundImageFix" result="effect1_dropShadow_1837_1422"/>
<feBlend mode="normal" in="SourceGraphic" in2="effect1_dropShadow_1837_1422" result="shape"/>
</filter>
</defs>
</svg>
