<svg width="90" height="90" viewBox="0 0 90 90" fill="none" xmlns="http://www.w3.org/2000/svg">
<path fill-rule="evenodd" clip-rule="evenodd" d="M44.525 32.9647H38.2229L37.7173 31.7144C37.3169 30.7239 36.5847 29.9039 35.6464 29.3946C34.7082 28.8853 33.6223 28.7184 32.5746 28.9223C31.527 29.1263 30.5827 29.6885 29.9037 30.5129C29.2246 31.3372 28.8531 32.3724 28.8531 33.4409C28.8531 34.5095 29.2246 35.5446 29.9037 36.369C30.5827 37.1933 31.527 37.7555 32.5746 37.9595C33.6223 38.1635 34.7082 37.9966 35.6464 37.4873C36.5847 36.978 37.3169 36.1579 37.7173 35.1675L38.2229 33.9172H44.525V71.8986C44.525 74.3395 43.4889 77.1475 40.8602 78.4953C38.9903 79.4734 36.9134 79.9893 34.8032 80L34.7931 80C29.0644 80 24.8267 77.0818 22.1572 73.743C20.551 71.7405 19.3681 69.4374 18.6749 66.9735C17.2871 66.4273 15.9978 65.6517 14.8619 64.6766L14.8597 64.6747C12.0625 62.2664 10 58.4713 10 53.1386C10 50.5683 10.1818 48.2164 10.6848 46.1701L11.0591 44.6475H26.52C29.7626 44.6475 32.4495 47.0391 32.9046 50.1591L33.1293 51.7001L31.6904 52.2957C30.7048 52.7036 29.8913 53.4417 29.3894 54.3839C28.8875 55.326 28.7284 56.4135 28.9395 57.4602C29.1506 58.5069 29.7187 59.4474 30.5463 60.1209C31.3739 60.7944 32.4096 61.1591 33.476 61.1527C34.5425 61.1463 35.5737 60.7693 36.3932 60.086C37.2128 59.4026 37.7696 58.4554 37.9682 57.4063C38.1668 56.3571 37.9947 55.2716 37.4816 54.3355C36.9685 53.3994 36.1462 52.6711 35.1558 52.275L33.9951 51.8107L33.9039 50.5639C33.7674 48.6972 32.93 46.9516 31.5601 45.6775C30.1904 44.4035 28.3898 43.6954 26.52 43.695C26.5199 43.695 26.5201 43.695 26.52 43.695H9.875L14.1575 40.1538C14.3572 39.9886 14.5641 39.8325 14.7773 39.6861C14.6147 38.8203 14.5152 37.9432 14.4799 37.0616C14.3606 34.3887 14.7591 31.6284 15.5467 29.1666L15.548 29.1627C16.3192 26.7692 17.585 24.2747 19.4941 22.4741C20.4605 21.5357 21.621 20.8301 22.8872 20.4029C23.8172 17.6565 25.5957 15.4039 27.7295 13.7438C30.8432 11.315 34.8755 10 38.8587 10H38.862C40.7806 10 42.2623 10.9858 43.1953 12.2907C44.0989 13.5545 44.525 15.1425 44.525 16.6586V32.9647ZM28.9587 15.3215C26.8236 16.9822 25.1505 19.2735 24.4938 22.0469C23.1295 22.2987 21.8706 22.9503 20.877 23.919C19.293 25.408 18.1644 27.564 17.4516 29.7761C16.7322 32.0245 16.3692 34.5503 16.4781 36.977C16.5145 37.8916 16.6285 38.8009 16.8186 39.695C16.8901 40.0317 16.9725 40.3661 17.0655 40.6979C16.4762 40.9506 15.9262 41.2864 15.432 41.695H26.52C28.8953 41.6954 31.1825 42.5949 32.9222 44.213C34.6619 45.8311 35.7252 48.0478 35.8986 50.418C37.3198 50.9865 38.4994 52.0315 39.2354 53.3741C39.9714 54.7168 40.2181 56.2736 39.9333 57.7782C39.6485 59.2828 38.8498 60.6416 37.6741 61.622C36.4983 62.6024 35.0185 63.1435 33.488 63.1527C31.9574 63.1618 30.4713 62.6384 29.2839 61.6722C28.0965 60.7059 27.2817 59.3567 26.979 57.8556C26.6762 56.3546 26.9043 54.7949 27.6243 53.4435C28.3442 52.0921 29.5112 51.0331 30.9255 50.4477C30.612 48.2984 28.7574 46.6475 26.52 46.6475H12.627C12.1782 48.4733 12 50.6458 12 53.1386C12 57.9062 13.8216 61.1418 16.1646 63.1591C17.384 64.2058 18.8113 64.9823 20.3523 65.4372C20.9137 68.0179 22.0659 70.4331 23.7183 72.4928C26.1042 75.4775 29.8101 78 34.7931 78C36.5868 77.991 38.3522 77.5517 39.9411 76.719C41.6934 75.8242 42.525 73.8663 42.525 71.8986V35.9172H39.5715C38.9971 37.3377 37.9468 38.5142 36.6005 39.245C35.2543 39.9758 33.6959 40.2153 32.1924 39.9226C30.689 39.6299 29.3341 38.8231 28.36 37.6406C27.3859 36.458 26.8531 34.9733 26.8531 33.4409C26.8531 31.9085 27.3859 30.4238 28.36 29.2412C29.3341 28.0587 30.689 27.2519 32.1924 26.9592C33.6959 26.6665 35.2543 26.906 36.6005 27.6368C37.9468 28.3676 38.9971 29.5441 39.5715 30.9647H42.525V16.6586C42.525 14.3244 41.1951 12 38.862 12H38.8587C35.2947 12 31.701 13.182 28.9587 15.3215ZM45.475 59.505H52.92C54.8836 59.505 56.767 58.7245 58.1558 57.3351C59.5446 55.9455 60.325 54.0607 60.325 52.0952V44.8206L61.5747 44.3149C62.5642 43.9144 63.3838 43.182 63.8931 42.2429C64.4023 41.3039 64.5693 40.2167 64.3653 39.1679C64.1613 38.119 63.599 37.174 62.7752 36.4947C61.9514 35.8154 60.9172 35.4441 59.85 35.4441C58.7828 35.4441 57.7486 35.8154 56.9248 36.4947C56.101 37.174 55.5387 38.119 55.3347 39.1679C55.1307 40.2167 55.2977 41.3039 55.8069 42.2429C56.3162 43.182 57.1359 43.9144 58.1253 44.3149L59.375 44.8206V52.0952C59.375 53.8075 58.6952 55.4498 57.4847 56.6608C56.2743 57.8719 54.6323 58.5525 52.92 58.5525H45.475V16.6586C45.475 15.1425 45.9011 13.5545 46.8047 12.2907C47.7377 10.9858 49.2194 10 51.138 10C55.1278 10 59.1568 11.315 62.2705 13.7438C64.4025 15.4025 66.179 17.6546 67.1097 20.3947C68.4194 20.8381 69.5596 21.5867 70.4909 22.4599L70.4929 22.4617C72.4089 24.2629 73.6789 26.7597 74.4523 29.1635L74.4533 29.1666C75.2414 31.6299 75.6399 34.3921 75.5199 37.0667C75.4811 37.9251 75.3876 38.8064 75.2247 39.6859C76.2603 40.3954 77.124 41.3183 77.8035 42.4194C79.5162 45.1827 80 48.922 80 53.1386C80 58.473 77.9385 62.2734 75.1379 64.6768C74.0011 65.6522 72.7108 66.428 71.322 66.9739C70.6296 69.4377 69.4475 71.7408 67.8423 73.7436C65.1726 77.0824 60.935 80 55.2036 80H55.1947C53.0834 79.9905 51.0051 79.4752 49.1339 78.4972C46.5114 77.146 45.475 74.3404 45.475 71.8986V59.505ZM66.2817 72.4928C67.9328 70.4327 69.0838 68.0176 69.6444 65.4372C71.1866 64.9827 72.615 64.2062 73.8354 63.1591C76.1784 61.1484 78 57.9095 78 53.1386C78 48.9884 77.505 45.733 76.1025 43.4713C75.3633 42.2728 74.3733 41.3715 73.1523 40.797L72.9345 40.6979C73.2843 39.4862 73.4658 38.2184 73.5219 36.977C73.6308 34.5503 73.2678 32.0245 72.5484 29.7761C71.8356 27.5607 70.707 25.408 69.123 23.919C68.1264 22.9846 66.8922 22.278 65.5062 22.0469C64.8495 19.2768 63.1764 16.9822 61.0413 15.3215C58.299 13.182 54.7086 12 51.138 12C48.8049 12 47.475 14.3244 47.475 16.6586V56.5525H52.92C54.1015 56.5525 55.2347 56.0829 56.0702 55.247C56.9056 54.4111 57.375 53.2774 57.375 52.0952V46.1688C55.9551 45.5941 54.7792 44.5433 54.0488 43.1963C53.3184 41.8494 53.079 40.2902 53.3715 38.786C53.6641 37.2818 54.4705 35.9263 55.6524 34.9516C56.8344 33.977 58.3184 33.4441 59.85 33.4441C61.3817 33.4441 62.8656 33.977 64.0476 34.9516C65.2295 35.9263 66.0359 37.2818 66.3285 38.786C66.621 40.2902 66.3816 41.8494 65.6512 43.1963C64.9208 44.5433 63.7449 45.5941 62.325 46.1688V52.0952C62.325 54.5909 61.3341 56.9842 59.5703 58.7489C57.8066 60.5136 55.4144 61.505 52.92 61.505H47.475V71.8986C47.475 73.8663 48.3066 75.8242 50.0556 76.7223C51.6448 77.5538 53.4102 77.992 55.2036 78C60.1899 78 63.8958 75.4775 66.2817 72.4928ZM29.8 33.4409C29.8 32.473 30.1843 31.5445 30.8687 30.8598C31.5531 30.175 32.4816 29.7901 33.45 29.7901C34.4184 29.7901 35.3469 30.175 36.0313 30.8598C36.7157 31.5445 37.1 32.473 37.1 33.4409C37.1 34.4088 36.7157 35.3373 36.0313 36.0221C35.3469 36.7069 34.4184 37.0917 33.45 37.0917C32.4817 37.0917 31.5531 36.7069 30.8687 36.0221C30.1843 35.3373 29.8 34.4088 29.8 33.4409ZM30.8687 53.9713C31.5531 53.2865 32.4817 52.9016 33.45 52.9016C34.4184 52.9016 35.3469 53.2865 36.0313 53.9713C36.7157 54.656 37.1 55.5845 37.1 56.5525C37.1 57.5204 36.7157 58.4489 36.0313 59.1336C35.3469 59.8184 34.4184 60.2033 33.45 60.2033C32.4817 60.2033 31.5531 59.8184 30.8687 59.1336C30.1843 58.4489 29.8 57.5204 29.8 56.5525C29.8 55.5845 30.1843 54.656 30.8687 53.9713ZM57.2687 42.6254C56.5843 41.9406 56.2 41.0121 56.2 40.0442C56.2 39.0763 56.5843 38.1478 57.2687 37.4631C57.9531 36.7783 58.8816 36.3934 59.85 36.3934C60.8184 36.3934 61.7469 36.7783 62.4313 37.4631C63.1157 38.1478 63.5 39.0763 63.5 40.0442C63.5 41.0121 63.1157 41.9406 62.4313 42.6254C61.7469 43.3102 60.8184 43.695 59.85 43.695C58.8816 43.695 57.9531 43.3102 57.2687 42.6254ZM32.2833 32.2736C31.9738 32.5832 31.8 33.0031 31.8 33.4409C31.8 33.8787 31.9738 34.2986 32.2833 34.6082C32.5927 34.9178 33.0124 35.0917 33.45 35.0917C33.8876 35.0917 34.3073 34.9178 34.6167 34.6082C34.9262 34.2986 35.1 33.8787 35.1 33.4409C35.1 33.0031 34.9262 32.5832 34.6167 32.2736C34.3073 31.964 33.8876 31.7901 33.45 31.7901C33.0124 31.7901 32.5927 31.964 32.2833 32.2736ZM32.2833 55.3852C32.5927 55.0756 33.0124 54.9016 33.45 54.9016C33.8876 54.9016 34.3073 55.0756 34.6167 55.3852C34.9262 55.6948 35.1 56.1146 35.1 56.5525C35.1 56.9903 34.9262 57.4102 34.6167 57.7198C34.3073 58.0294 33.8876 58.2033 33.45 58.2033C33.0124 58.2033 32.5927 58.0294 32.2833 57.7198C31.9738 57.4102 31.8 56.9903 31.8 56.5525C31.8 56.1146 31.9738 55.6948 32.2833 55.3852ZM58.6833 41.2115C58.3738 40.9019 58.2 40.482 58.2 40.0442C58.2 39.6064 58.3738 39.1865 58.6833 38.8769C58.9927 38.5673 59.4124 38.3934 59.85 38.3934C60.2876 38.3934 60.7073 38.5673 61.0167 38.8769C61.3262 39.1865 61.5 39.6064 61.5 40.0442C61.5 40.482 61.3262 40.9019 61.0167 41.2115C60.7073 41.5211 60.2876 41.695 59.85 41.695C59.4124 41.695 58.9927 41.5211 58.6833 41.2115Z" fill="#024D81"/>
</svg>
