<svg width="90" height="90" viewBox="0 0 90 90" fill="none" xmlns="http://www.w3.org/2000/svg">
<path d="M46.2605 68.9087L43.0075 68.9887L43.0599 65.7068L56.4942 52.2978L59.6983 55.4994L46.2605 68.9087ZM46.0529 69.1159C46.0532 69.1156 46.0534 69.1153 46.0537 69.1151L46.0529 69.1159Z" stroke="#024D81" stroke-width="2"/>
<line x1="25" y1="47" x2="43" y2="47" stroke="#024D81" stroke-width="2"/>
<line x1="25" y1="52" x2="37.75" y2="52" stroke="#024D81" stroke-width="2"/>
<line x1="25" y1="67" x2="37.75" y2="67" stroke="#024D81" stroke-width="2"/>
<line x1="25" y1="62" x2="33.25" y2="62" stroke="#024D81" stroke-width="2"/>
<line x1="25" y1="72" x2="30.25" y2="72" stroke="#024D81" stroke-width="2"/>
<line x1="25" y1="57" x2="41.5" y2="57" stroke="#024D81" stroke-width="2"/>
<path d="M58.9418 11H30.0529C27.2608 11 24.9973 13.2199 24.9973 15.9583V74.0417C24.9973 76.7801 27.2608 79 30.0529 79H58.9418C61.7338 79 63.9973 76.7801 63.9973 74.0417V15.9583C63.9973 13.2199 61.7338 11 58.9418 11Z" stroke="#024D81" stroke-width="2" stroke-linecap="round" stroke-linejoin="round"/>
<path d="M38.0589 35.783C38.0589 36.3422 38.528 36.7987 39.1052 36.7987H40.3013V39.676C40.3013 40.4049 40.903 41 41.6422 41C42.384 41 42.9832 40.4073 42.9832 39.676V36.7963H45.0708V39.6736C45.0708 40.4025 45.6725 40.9976 46.4118 40.9976C47.1535 40.9976 47.7528 40.4049 47.7528 39.6736V36.7963H48.9488C49.526 36.7963 49.9951 36.3398 49.9951 35.7806V26.336H38.0589V35.783ZM46.8293 19.8555L47.932 18.3021C47.9959 18.2113 47.9812 18.0894 47.8952 18.0296C47.8092 17.9723 47.6864 18.001 47.6226 18.0918L46.4781 19.7073C45.7241 19.4181 44.8842 19.258 44.0025 19.258C43.1207 19.258 42.2808 19.4181 41.5268 19.7073L40.3823 18.0942C40.3185 18.0033 40.1957 17.9723 40.1097 18.032C40.0237 18.0894 40.009 18.2089 40.0729 18.3045L41.1756 19.8578C39.422 20.6513 38.194 22.1545 38.0368 23.911H49.973C49.8109 22.1521 48.5804 20.6489 46.8293 19.8555ZM41.4826 22.305C41.3519 22.305 41.2242 22.2673 41.1156 22.1967C41.0069 22.126 40.9222 22.0256 40.8722 21.9082C40.8222 21.7907 40.8091 21.6615 40.8346 21.5367C40.8601 21.412 40.923 21.2975 41.0154 21.2076C41.1078 21.1177 41.2256 21.0565 41.3537 21.0317C41.4819 21.0069 41.6147 21.0196 41.7354 21.0682C41.8561 21.1169 41.9593 21.1993 42.0319 21.305C42.1045 21.4107 42.1433 21.535 42.1433 21.6622C42.1428 21.8325 42.0731 21.9958 41.9493 22.1163C41.8255 22.2367 41.6577 22.3046 41.4826 22.305ZM46.6009 22.305C46.4702 22.305 46.3425 22.2673 46.2339 22.1967C46.1252 22.126 46.0405 22.0256 45.9905 21.9082C45.9405 21.7907 45.9274 21.6615 45.9529 21.5367C45.9784 21.412 46.0413 21.2975 46.1337 21.2076C46.2261 21.1177 46.3439 21.0565 46.472 21.0317C46.6002 21.0069 46.733 21.0196 46.8537 21.0682C46.9744 21.1169 47.0776 21.1993 47.1502 21.305C47.2228 21.4107 47.2616 21.535 47.2616 21.6622C47.2611 21.8325 47.1914 21.9958 47.0676 22.1163C46.9438 22.2367 46.776 22.3046 46.6009 22.305ZM53.659 26.2978C52.9173 26.2978 52.318 26.8905 52.318 27.6218V32.7933C52.318 33.5222 52.9198 34.1173 53.659 34.1173C54.4007 34.1173 55 33.5246 55 32.7933V27.6194C55.0024 26.8881 54.4032 26.2978 53.659 26.2978ZM34.341 26.2978C33.5993 26.2978 33 26.8905 33 27.6218V32.7933C33 33.5222 33.6017 34.1173 34.341 34.1173C35.0827 34.1173 35.6819 33.5246 35.6819 32.7933V27.6194C35.6819 26.8881 35.0802 26.2978 34.341 26.2978Z" stroke="#024D81"/>
</svg>
