<svg width="90" height="90" viewBox="0 0 90 90" fill="none" xmlns="http://www.w3.org/2000/svg">
<g clip-path="url(#clip0_230_470)">
<path d="M58.9444 11H30.0556C27.2635 11 25 13.2199 25 15.9583V74.0417C25 76.7801 27.2635 79 30.0556 79H58.9444C61.7365 79 64 76.7801 64 74.0417V15.9583C64 13.2199 61.7365 11 58.9444 11Z" stroke="#024D81" stroke-width="2" stroke-linecap="round" stroke-linejoin="round"/>
<path d="M18.5424 21.8029C18.5424 21.8029 12.9512 27.2694 11.1406 32.6684" stroke="#024D81" stroke-width="2" stroke-linecap="round"/>
<path d="M11.0027 57.5679C11.0027 57.5679 14.2248 64.698 18.6814 68.2394" stroke="#024D81" stroke-width="2" stroke-linecap="round"/>
<path d="M71.2383 21.8029C71.2383 21.8029 76.8295 27.2694 78.6401 32.6684" stroke="#024D81" stroke-width="2" stroke-linecap="round"/>
<path d="M78.7777 57.5701C78.7777 57.5701 75.5557 64.7004 71.0991 68.2416" stroke="#024D81" stroke-width="2" stroke-linecap="round"/>
<path d="M31.2061 58.1055C32.476 60.3825 34.3046 62.2986 36.5199 63.6734C38.735 65.0481 41.2638 65.8362 43.8677 65.9634C46.4718 66.0907 49.0653 65.5526 51.404 64.4004C53.7426 63.2481 55.7493 61.5194 57.2351 59.377" stroke="#024D81" stroke-width="2" stroke-linecap="round"/>
<path d="M31.2061 35.3772C32.476 33.1003 34.3046 31.1841 36.5199 29.8094C38.735 28.4346 41.2638 27.6465 43.8677 27.5193C46.4718 27.3921 49.0653 27.9298 51.404 29.082C53.7426 30.2343 55.7493 31.9634 57.2351 34.1056" stroke="#024D81" stroke-width="2" stroke-linecap="round"/>
<path d="M39.0589 52.783C39.0589 53.3422 39.528 53.7987 40.1052 53.7987H41.3013V56.676C41.3013 57.4049 41.903 58 42.6422 58C43.384 58 43.9832 57.4073 43.9832 56.676V53.7963H46.0708V56.6736C46.0708 57.4025 46.6725 57.9976 47.4118 57.9976C48.1535 57.9976 48.7528 57.4049 48.7528 56.6736V53.7963H49.9488C50.526 53.7963 50.9951 53.3398 50.9951 52.7806V43.336H39.0589V52.783ZM47.8293 36.8555L48.932 35.3021C48.9959 35.2113 48.9812 35.0894 48.8952 35.0296C48.8092 34.9723 48.6864 35.001 48.6226 35.0918L47.4781 36.7073C46.7241 36.4181 45.8842 36.258 45.0025 36.258C44.1207 36.258 43.2808 36.4181 42.5268 36.7073L41.3823 35.0942C41.3185 35.0033 41.1957 34.9723 41.1097 35.032C41.0237 35.0894 41.009 35.2089 41.0729 35.3045L42.1756 36.8578C40.422 37.6513 39.194 39.1545 39.0368 40.911H50.973C50.8109 39.1521 49.5804 37.6489 47.8293 36.8555ZM42.4826 39.305C42.3519 39.305 42.2242 39.2673 42.1156 39.1967C42.0069 39.126 41.9222 39.0256 41.8722 38.9082C41.8222 38.7907 41.8091 38.6615 41.8346 38.5367C41.8601 38.412 41.923 38.2975 42.0154 38.2076C42.1078 38.1177 42.2256 38.0565 42.3537 38.0317C42.4819 38.0069 42.6147 38.0196 42.7354 38.0682C42.8561 38.1169 42.9593 38.1993 43.0319 38.305C43.1045 38.4107 43.1433 38.535 43.1433 38.6622C43.1428 38.8325 43.0731 38.9958 42.9493 39.1163C42.8255 39.2367 42.6577 39.3046 42.4826 39.305ZM47.6009 39.305C47.4702 39.305 47.3425 39.2673 47.2339 39.1967C47.1252 39.126 47.0405 39.0256 46.9905 38.9082C46.9405 38.7907 46.9274 38.6615 46.9529 38.5367C46.9784 38.412 47.0413 38.2975 47.1337 38.2076C47.2261 38.1177 47.3439 38.0565 47.472 38.0317C47.6002 38.0069 47.733 38.0196 47.8537 38.0682C47.9744 38.1169 48.0776 38.1993 48.1502 38.305C48.2228 38.4107 48.2616 38.535 48.2616 38.6622C48.2611 38.8325 48.1914 38.9958 48.0676 39.1163C47.9438 39.2367 47.776 39.3046 47.6009 39.305ZM54.659 43.2978C53.9173 43.2978 53.318 43.8905 53.318 44.6218V49.7933C53.318 50.5222 53.9198 51.1173 54.659 51.1173C55.4007 51.1173 56 50.5246 56 49.7933V44.6194C56.0024 43.8881 55.4032 43.2978 54.659 43.2978ZM35.341 43.2978C34.5993 43.2978 34 43.8905 34 44.6218V49.7933C34 50.5222 34.6017 51.1173 35.341 51.1173C36.0827 51.1173 36.6819 50.5246 36.6819 49.7933V44.6194C36.6819 43.8881 36.0802 43.2978 35.341 43.2978Z" stroke="#024D81"/>
</g>
<defs>
<clipPath id="clip0_230_470">
<rect width="90" height="90" fill="white"/>
</clipPath>
</defs>
</svg>
