<svg width="90" height="90" viewBox="0 0 90 90" fill="none" xmlns="http://www.w3.org/2000/svg">
<path d="M63.5958 17.9017H51.3195V11H72V60.2838H51.3195V53.4638H63.5958H64.5958V52.4638V18.9017V17.9017H63.5958ZM25.4013 52.3792V53.382L26.4041 53.3792L38.6776 53.3441V75.6971L31.3792 60.8428L31.1045 60.2838H30.4816H18V11H38.6805V17.82H26.4013H25.4013V18.82V52.3792Z" stroke="#024D81" stroke-width="2"/>
<path d="M33.0843 28.9979L44.11 25.0618L55.1357 28.9979L53.439 43.7274L44.11 48.8996L34.781 43.7274L33.0843 28.9979Z" stroke="#024D81" stroke-width="2"/>
<path d="M41.2019 38.7244H40.5224L40.2722 39.3561L39.1236 42.256H38.7426L44.1642 29.9554L49.5671 42.256H49.185L48.0353 39.3559L47.785 38.7244H47.1057H41.2019ZM45.0908 32.2206L44.1658 29.9685L43.2407 32.2206L41.209 37.1674L40.6422 38.5473H42.134H46.1975H47.6893L47.1225 37.1674L45.0908 32.2206Z" fill="black" stroke="#024D81" stroke-width="2"/>
</svg>
