<svg width="90" height="90" viewBox="0 0 90 90" fill="none" xmlns="http://www.w3.org/2000/svg">
<path d="M58.9444 11H30.0556C27.2635 11 25 13.2199 25 15.9583V74.0417C25 76.7801 27.2635 79 30.0556 79H58.9444C61.7365 79 64 76.7801 64 74.0417V15.9583C64 13.2199 61.7365 11 58.9444 11Z" stroke="#024D81" stroke-width="2" stroke-linecap="round" stroke-linejoin="round"/>
<path d="M18.5424 21.8029C18.5424 21.8029 12.9512 27.2694 11.1406 32.6684" stroke="#024D81" stroke-width="2" stroke-linecap="round"/>
<path d="M11.0029 57.5679C11.0029 57.5679 14.225 64.698 18.6817 68.2394" stroke="#024D81" stroke-width="2" stroke-linecap="round"/>
<path d="M71.2383 21.8029C71.2383 21.8029 76.8295 27.2694 78.6401 32.6684" stroke="#024D81" stroke-width="2" stroke-linecap="round"/>
<path d="M78.7782 57.5701C78.7782 57.5701 75.5562 64.7004 71.0996 68.2416" stroke="#024D81" stroke-width="2" stroke-linecap="round"/>
<path d="M31.2061 58.1055C32.476 60.3825 34.3046 62.2986 36.5199 63.6734C38.735 65.0481 41.2638 65.8362 43.8677 65.9634C46.4718 66.0907 49.0653 65.5526 51.404 64.4004C53.7426 63.2481 55.7493 61.5194 57.2351 59.377" stroke="#024D81" stroke-width="2" stroke-linecap="round"/>
<path d="M31.2061 31.3772C32.476 29.1003 34.3046 27.1841 36.5199 25.8094C38.735 24.4346 41.2638 23.6465 43.8677 23.5193C46.4718 23.3921 49.0653 23.9298 51.404 25.082C53.7426 26.2343 55.7493 27.9634 57.2351 30.1056" stroke="#024D81" stroke-width="2" stroke-linecap="round"/>
<path d="M33.0843 37.9979L44.11 34.0618L55.1357 37.9979L53.439 52.7274L44.11 57.8996L34.781 52.7274L33.0843 37.9979Z" stroke="#024D81" stroke-width="2"/>
<path d="M41.2019 47.7244H40.5224L40.2722 48.3562L39.1236 51.2561H38.7426L44.1642 38.9554L49.5671 51.2561H49.185L48.0353 48.3559L47.785 47.7244H47.1057H41.2019ZM45.0908 41.2207L44.1658 38.9685L43.2407 41.2207L41.209 46.1674L40.6422 47.5473H42.134H46.1975H47.6893L47.1225 46.1674L45.0908 41.2207Z" fill="black" stroke="#024D81" stroke-width="2"/>
</svg>
