<svg width="90" height="90" viewBox="0 0 90 90" fill="none" xmlns="http://www.w3.org/2000/svg">
<mask id="path-1-inside-1_94_312" fill="white">
<path d="M37 34H33C32.4696 34 31.9609 34.2107 31.5858 34.5858C31.2107 34.9609 31 35.4696 31 36V48H33V43H37V48H39V36C39 35.4696 38.7893 34.9609 38.4142 34.5858C38.0391 34.2107 37.5304 34 37 34ZM33 41V36H37V41H33ZM51 36H54V46H51V48H59V46H56V36H59V34H51V36ZM43 48H41V34H47C47.5304 34 48.0391 34.2107 48.4142 34.5858C48.7893 34.9609 49 35.4696 49 36V41C49 41.5304 48.7893 42.0391 48.4142 42.4142C48.0391 42.7893 47.5304 43 47 43H43V48ZM43 41H47V36H43V41Z"/>
</mask>
<path d="M31 36H25H31ZM31 48H25V54H31V48ZM33 48V54H39V48H33ZM33 43V37H27V43H33ZM37 43H43V37H37V43ZM37 48H31V54H37V48ZM39 48V54H45V48H39ZM33 41H27V47H33V41ZM33 36V30H27V36H33ZM37 36H43V30H37V36ZM37 41V47H43V41H37ZM51 36H45V42H51V36ZM54 36H60V30H54V36ZM54 46V52H60V46H54ZM51 46V40H45V46H51ZM51 48H45V54H51V48ZM59 48V54H65V48H59ZM59 46H65V40H59V46ZM56 46H50V52H56V46ZM56 36V30H50V36H56ZM59 36V42H65V36H59ZM59 34H65V28H59V34ZM51 34V28H45V34H51ZM43 48V54H49V48H43ZM41 48H35V54H41V48ZM41 34V28H35V34H41ZM43 43V37H37V43H43ZM43 41H37V47H43V41ZM47 41V47H53V41H47ZM47 36H53V30H47V36ZM43 36V30H37V36H43ZM37 28H33V40H37V28ZM33 28C30.8783 28 28.8434 28.8429 27.3431 30.3431L35.8284 38.8284C35.0783 39.5786 34.0609 40 33 40V28ZM27.3431 30.3431C25.8429 31.8434 25 33.8783 25 36H37C37 37.0609 36.5786 38.0783 35.8284 38.8284L27.3431 30.3431ZM25 36V48H37V36H25ZM31 54H33V42H31V54ZM39 48V43H27V48H39ZM33 49H37V37H33V49ZM31 43V48H43V43H31ZM37 54H39V42H37V54ZM45 48V36H33V48H45ZM45 36C45 33.8783 44.1571 31.8434 42.6569 30.3431L34.1716 38.8284C33.4214 38.0783 33 37.0609 33 36H45ZM42.6569 30.3431C41.1566 28.8429 39.1217 28 37 28V40C35.9391 40 34.9217 39.5786 34.1716 38.8284L42.6569 30.3431ZM39 41V36H27V41H39ZM33 42H37V30H33V42ZM31 36V41H43V36H31ZM37 35H33V47H37V35ZM51 42H54V30H51V42ZM48 36V46H60V36H48ZM54 40H51V52H54V40ZM45 46V48H57V46H45ZM51 54H59V42H51V54ZM65 48V46H53V48H65ZM59 40H56V52H59V40ZM62 46V36H50V46H62ZM56 42H59V30H56V42ZM65 36V34H53V36H65ZM59 28H51V40H59V28ZM45 34V36H57V34H45ZM43 42H41V54H43V42ZM47 48V34H35V48H47ZM41 40H47V28H41V40ZM47 40C45.9391 40 44.9217 39.5786 44.1716 38.8284L52.6569 30.3431C51.1566 28.8429 49.1217 28 47 28V40ZM44.1716 38.8284C43.4214 38.0783 43 37.0609 43 36H55C55 33.8783 54.1571 31.8434 52.6569 30.3431L44.1716 38.8284ZM43 36V41H55V36H43ZM43 41C43 39.9391 43.4214 38.9217 44.1716 38.1716L52.6569 46.6569C54.1571 45.1566 55 43.1217 55 41H43ZM44.1716 38.1716C44.9217 37.4214 45.9391 37 47 37V49C49.1217 49 51.1566 48.1571 52.6569 46.6569L44.1716 38.1716ZM47 37H43V49H47V37ZM37 43V48H49V43H37ZM43 47H47V35H43V47ZM53 41V36H41V41H53ZM47 30H43V42H47V30ZM37 36V41H49V36H37Z" fill="#024D81" mask="url(#path-1-inside-1_94_312)"/>
<path d="M27.3416 28.3066L17 40.2199L27.8387 52.6937" stroke="#024D81" stroke-width="2" stroke-linecap="round" stroke-linejoin="round"/>
<path d="M62.6583 28.3066L72.9998 40.2201L62.1611 52.6937" stroke="#024D81" stroke-width="2" stroke-linecap="round" stroke-linejoin="round"/>
<path d="M78.5584 16.8632H12.0319C11.8394 16.8741 11.6532 16.9352 11.4914 17.0402C11.3482 17.1673 11.2413 17.3301 11.1816 17.512V59.9912C11.2935 60.5401 11.5311 61.0556 11.8756 61.4974C12.2548 61.8719 12.725 62.1413 13.24 62.2787H77.0157C77.4921 62.2157 77.9422 62.0236 78.3175 61.7236C78.6089 61.2887 78.7817 60.785 78.8185 60.2628V17.7646C78.8059 17.5091 78.6951 17.2683 78.5088 17.0927C78.2476 16.942 77.9514 16.8619 77.6498 16.8604H69.6939" stroke="#024D81" stroke-width="2" stroke-linecap="square" stroke-linejoin="round"/>
<path d="M34.0371 73.9995H56.8928" stroke="#024D81" stroke-width="2" stroke-linecap="square"/>
<path d="M39.751 72.8573V62.5723" stroke="#024D81" stroke-width="2" stroke-linecap="square"/>
<path d="M51 74L51.1792 62.5723" stroke="#024D81" stroke-width="2" stroke-linecap="square"/>
</svg>
