<svg width="90" height="90" viewBox="0 0 90 90" fill="none" xmlns="http://www.w3.org/2000/svg">
<path d="M24.2596 60.4809V72.7787L36.3766 69.7404L45.5 79L54.6234 69.7404L66.7404 72.7787V60.4809L79 57.2979L72.8702 45L79 32.7021L66.7404 29.5191V17.2213L54.6234 20.2596L45.5 11L36.3766 20.2596L24.2596 17.2213V29.5191L12 32.7021L18.1298 45L12 57.2979L24.2596 60.4809ZM23.5468 42.2511L20.8383 36.6085L25.6851 35.4511C27.1106 35.1617 28.2273 34.4624 29.0351 33.3532C29.8429 32.244 30.2468 30.966 30.2468 29.5191V25.1787L34.8085 26.4809H36.3766C37.9922 26.4809 39.4177 25.8539 40.6532 24.6L45.5 19.6809L50.3468 24.6C51.5823 25.8539 53.0078 26.4809 54.6234 26.4809C55.1936 26.4809 55.7163 26.3844 56.1915 26.1915L60.7532 25.1787V29.5191C60.7532 30.966 61.1571 32.244 61.9649 33.3532C62.7727 34.4624 63.8894 35.1617 65.3149 35.4511L70.1617 36.6085L67.4532 42.2511C66.5028 44.0837 66.5028 45.9163 67.4532 47.7489L70.1617 53.3915L65.3149 54.5489C63.8894 54.8383 62.7727 55.5376 61.9649 56.6468C61.1571 57.756 60.7532 59.034 60.7532 60.4809V64.8213L56.1915 63.5192H54.6234C53.0078 63.5192 51.5823 64.1461 50.3468 65.4L45.5 70.3192L40.6532 65.4C39.4177 64.1461 37.9922 63.5192 36.3766 63.5192C35.8064 63.5192 35.2837 63.6156 34.8085 63.8085L30.2468 64.8213V60.4809C30.2468 59.034 29.8429 57.756 29.0351 56.6468C28.2273 55.5376 27.1106 54.8383 25.6851 54.5489L20.8383 53.3915L23.5468 47.7489C24.4972 45.9163 24.4972 44.0837 23.5468 42.2511ZM42.5064 55.5617L56.7617 40.9489C58.0922 39.5986 58.0922 38.1518 56.7617 36.6085C55.3362 35.3546 53.9106 35.3546 52.4851 36.6085L42.5064 46.8809L38.5149 42.8298C37.0894 41.5759 35.6638 41.5759 34.2383 42.8298C33.0028 44.2766 33.0028 45.7234 34.2383 47.1702L42.5064 55.5617Z" stroke="white" stroke-width="2"/>
</svg>
