<svg width="174" height="174" viewBox="0 0 174 174" fill="none" xmlns="http://www.w3.org/2000/svg">
<g filter="url(#filter0_d_1837_1422)">
<rect x="86.7109" y="16" width="100" height="100" rx="10" transform="rotate(45 86.7109 16)" fill="white"/>
</g>
<g clip-path="url(#clip0_1837_1422)">
<path d="M118.624 73.2517C118.408 73.0872 118.15 73.3914 118.346 73.5795C119.958 75.1244 121.031 77.3597 119.726 79.6012C118.604 81.5287 114.303 84.2435 111.11 85.545C111.064 85.5637 111.013 85.5659 110.966 85.5511C110.919 85.5363 110.878 85.5055 110.851 85.464C109.667 83.6357 107.815 82.4007 105.333 81.817C103.73 81.4393 99.8322 81.2492 93.6032 80.9816C90.9505 80.8673 88.2384 80.7504 85.9529 80.6085C85.7203 80.594 85.6731 80.2712 85.8922 80.1917C92.3093 77.8613 101.927 76.3772 109.525 77.6575C111.626 78.0116 114.409 78.9278 116.453 79.7564C117.279 80.0911 118.235 79.7792 118.687 79.0114L118.693 79.0005C119.184 78.1553 119.245 77.2949 118.88 76.3682C118.461 75.3092 117.52 74.3219 116.531 73.6429C115.988 73.2712 112.526 71.6165 109.263 71.0968C99.7185 69.5768 85.1949 71.6225 72.7502 77.9643C72.7228 77.9783 72.6928 77.9862 72.6621 77.9876C72.6314 77.9891 72.6007 77.9839 72.5722 77.9725C72.0584 77.7667 71.5897 77.5587 71.1748 77.3522C70.7182 77.1264 69.6914 77.1802 69.3351 77.6752C69.3351 77.6762 69.334 77.6762 69.334 77.6775L69.3363 77.6763C71.4557 79.1118 76.5587 80.9409 82.7505 81.56C85.3874 81.8241 89.54 82.0022 93.5566 82.1758C98.8651 82.404 103.45 82.6026 105.058 82.9801C109.134 83.939 111.2 86.797 111.2 91.4756V99.2059C111.2 100.107 111.019 100.902 110.706 101.605C110.604 101.835 110.914 102.021 111.072 101.825C111.812 100.909 112.395 99.7774 112.395 98.4528V94.9979C112.395 94.9206 112.437 94.8491 112.504 94.8109C115.657 93.0193 118.323 91.3033 120.242 89.47C121.366 88.3961 122.001 86.9087 122.001 85.3542V80.0382C122.001 78.8259 121.485 75.4246 118.624 73.2517V73.2517Z" fill="#024D81"/>
<path d="M109.729 99.4798V91.7495C109.729 86.7684 107.218 85.0555 104.509 84.4183C101.8 83.78 88.3319 83.6211 82.3551 83.0232C76.9564 82.4835 71.9645 80.9742 69.1994 79.4336C68.6347 79.119 67.9757 79.0193 67.3418 79.1459C65.57 79.5 62.0258 80.2258 60.4922 80.6649C60.5532 80.6743 60.6094 80.6889 60.6596 80.7068C62.3176 81.2937 64.7202 82.2129 72.4637 84.0393C80.206 85.8658 93.3118 86.6093 97.0173 88.4024C100.723 90.1954 100.764 95.3354 100.764 99.1211C100.764 104.34 100.962 106.492 99.1678 109.186C98.514 110.168 97.4537 110.929 96.2511 111.51C98.7912 110.3 102.033 108.157 104.798 106.392C106.197 105.499 107.426 104.532 108.307 103.411H108.307C108.335 103.376 108.362 103.341 108.389 103.305L108.36 103.342C109.215 102.23 109.729 100.968 109.729 99.4798V99.4798Z" fill="#024D81"/>
<path d="M87.6704 89.3168L58.1526 82.3542C54.6187 81.5205 51.7539 83.7883 51.7539 87.4194V97.9653C51.7539 101.596 54.6187 105.216 58.1527 106.049L87.6705 113.012C91.2044 113.845 94.0692 111.578 94.0692 107.947V97.4006C94.0692 93.7695 91.2044 90.1502 87.6704 89.3168Z" fill="#024D81"/>
</g>
<defs>
<filter id="filter0_d_1837_1422" x="0.142578" y="0.14209" width="173.137" height="173.137" filterUnits="userSpaceOnUse" color-interpolation-filters="sRGB">
<feFlood flood-opacity="0" result="BackgroundImageFix"/>
<feColorMatrix in="SourceAlpha" type="matrix" values="0 0 0 0 0 0 0 0 0 0 0 0 0 0 0 0 0 0 127 0" result="hardAlpha"/>
<feOffset/>
<feGaussianBlur stdDeviation="10"/>
<feComposite in2="hardAlpha" operator="out"/>
<feColorMatrix type="matrix" values="0 0 0 0 0 0 0 0 0 0 0 0 0 0 0 0 0 0 0.1 0"/>
<feBlend mode="normal" in2="BackgroundImageFix" result="effect1_dropShadow_1837_1422"/>
<feBlend mode="normal" in="SourceGraphic" in2="effect1_dropShadow_1837_1422" result="shape"/>
</filter>
<clipPath id="clip0_1837_1422">
<rect width="70" height="70" fill="white" transform="translate(52 52)"/>
</clipPath>
</defs>
</svg>
