<svg width="90" height="90" viewBox="0 0 90 90" fill="none" xmlns="http://www.w3.org/2000/svg">
<path d="M42.5714 71.2308C33.8286 71.2308 25.3286 66.9385 20.2286 59.3077H32.8571V54.5385H13.4286V73.6154H18.2857V64.7923C24.3571 71.9462 33.1 76 42.5714 76V71.2308ZM79 61.6923V56.9231H73.9C73.6571 55.4923 72.9286 54.0615 72.2 52.6308L75.8429 49.0538L72.4429 45.7154L68.8 49.2923C67.5857 48.5769 66.1286 47.8615 64.4286 47.6231V42.6154H59.5714V47.6231C58.1143 47.8615 56.6571 48.5769 55.2 49.2923L51.5571 45.7154L48.1571 49.0538L51.8 52.6308C51.0714 53.8231 50.3429 55.2538 50.1 56.9231H45V61.6923H50.1C50.3429 63.1231 51.0714 64.5538 51.8 65.9846L48.1571 69.5615L51.5571 72.9L55.2 69.3231C56.4143 70.0385 57.8714 70.7538 59.5714 70.9923V76H64.4286V70.9923C65.8857 70.7538 67.3429 70.0385 68.8 69.3231L72.4429 72.9L75.8429 69.5615L72.2 65.9846C72.9286 64.7923 73.6571 63.3615 73.9 61.6923H79ZM62 66.4615C57.8714 66.4615 54.7143 63.3615 54.7143 59.3077C54.7143 55.2538 57.8714 52.1538 62 52.1538C66.1286 52.1538 69.2857 55.2538 69.2857 59.3077C69.2857 63.3615 66.1286 66.4615 62 66.4615ZM52.2857 30.6923H64.9143C56.9 18.5308 40.3857 15.1923 28 23.0615C20.4714 27.8308 15.8571 36.1769 15.8571 45H11C11 27.8308 25.0857 14 42.5714 14C52.0429 14 60.7857 18.0538 66.8571 25.2077V16.3846H71.7143V35.4615H52.2857V30.6923Z" stroke="#024D81" stroke-width="2"/>
</svg>
