<svg width="90" height="90" viewBox="0 0 90 90" fill="none" xmlns="http://www.w3.org/2000/svg">
<path d="M63.4444 39.5V41.9142L65.1516 40.2071L79 26.3587V64.308L65.1516 50.4596L63.4444 48.7525V51.1667V64.7778C63.4444 66.3644 62.1422 67.6667 60.5556 67.6667H13.8889C12.3023 67.6667 11 66.3644 11 64.7778V25.8889C11 24.3023 12.3023 23 13.8889 23H60.5556C62.1422 23 63.4444 24.3023 63.4444 25.8889V39.5Z" stroke="white" stroke-width="2"/>
<path d="M37.9293 50.1258L37.2222 49.4186L36.5151 50.1258L31.7224 54.9184L27.6369 50.8329L32.4296 46.0402L33.1367 45.3331L32.4296 44.626L27.6369 39.8334L31.7224 35.7479L36.5151 40.5405L37.2222 41.2476L37.9293 40.5405L42.7219 35.7479L46.8074 39.8334L42.0148 44.626L41.3077 45.3331L42.0148 46.0403L46.8074 50.8329L42.7219 54.9184L37.9293 50.1258Z" stroke="white" stroke-width="2"/>
</svg>
