<svg width="90" height="90" viewBox="0 0 90 90" fill="none" xmlns="http://www.w3.org/2000/svg">
<path d="M24.9464 14.9821V24.9464H14.9821V14.9821H24.9464ZM10 10V29.9286H29.9286V10H10ZM49.8571 22.4554V32.4196H39.8929V22.4554H49.8571ZM34.9107 17.4732V37.4018H54.8393V17.4732H34.9107ZM24.9464 44.875V54.8393H14.9821V44.875H24.9464ZM10 39.8929V59.8214H29.9286V39.8929H10Z" stroke="#024D81" stroke-width="2"/>
<path d="M59.8216 29.9285V44.8749H44.8751V59.8213H29.9287V79.7499H79.7501V29.9285H59.8216ZM49.8573 49.857H59.8216V59.8213H49.8573V49.857ZM44.8751 74.7678H34.9109V64.8035H44.8751V74.7678ZM59.8216 74.7678H49.8573V64.8035H59.8216V74.7678ZM74.768 74.7678H64.8037V64.8035H74.768V74.7678ZM74.768 59.8213H64.8037V49.857H74.768V59.8213ZM64.8037 44.8749V34.9106H74.768V44.8749H64.8037Z" stroke="#024D81" stroke-width="2"/>
</svg>
