<svg width="90" height="90" viewBox="0 0 90 90" fill="none" xmlns="http://www.w3.org/2000/svg">
<path d="M30.275 73.782V73.6544L30.9558 70.6972H15.255V15.255H57.8046V37.0617L62.0596 33.0407V13.1275C62.0596 12.5632 61.8354 12.0221 61.4365 11.6231C61.0375 11.2241 60.4964 11 59.9321 11H13.1275C12.5632 11 12.0221 11.2241 11.6231 11.6231C11.2241 12.0221 11 12.5632 11 13.1275V72.697C11 73.2612 11.2241 73.8024 11.6231 74.2014C12.0221 74.6003 12.5632 74.8245 13.1275 74.8245H30.1473C30.1649 74.4744 30.2075 74.126 30.275 73.782V73.782Z" stroke="#024D81" stroke-width="2"/>
<path d="M77.9952 42.2103L70.8255 35.0407C70.5073 34.7217 70.1293 34.4685 69.7132 34.2958C69.297 34.1231 68.8508 34.0342 68.4002 34.0342C67.9496 34.0342 67.5034 34.1231 67.0873 34.2958C66.6711 34.4685 66.2931 34.7217 65.9749 35.0407L36.8071 64.3787L34.403 74.6119C34.313 75.0534 34.311 75.5083 34.3971 75.9505C34.4831 76.3928 34.6556 76.8137 34.9046 77.1892C35.1536 77.5647 35.4743 77.8874 35.8482 78.1388C36.2221 78.3901 36.642 78.5653 37.0837 78.6541C37.3029 78.6762 37.5239 78.6762 37.7432 78.6541C38.0038 78.6966 38.2697 78.6966 38.5303 78.6541L48.8486 76.3777L77.9952 47.1674C78.3136 46.851 78.5663 46.4748 78.7387 46.0604C78.9111 45.646 78.9999 45.2015 78.9999 44.7527C78.9999 44.3038 78.9111 43.8594 78.7387 43.445C78.5663 43.0306 78.3136 42.6544 77.9952 42.338V42.2103ZM46.6786 72.5057L38.892 74.229L40.7855 66.5062L62.656 44.4017L68.6555 50.4012L46.6786 72.5057ZM71.0596 47.9971L65.0601 41.9976L68.4428 38.6575L74.4848 44.6995L71.0596 47.9971Z" stroke="#024D81" stroke-width="2"/>
<path d="M20 21H49" stroke="#024D81" stroke-width="2"/>
<path d="M20 33H45" stroke="#024D81" stroke-width="2"/>
<path d="M20 45H49" stroke="#024D81" stroke-width="2"/>
<path d="M20 27H37" stroke="#024D81" stroke-width="2"/>
<path d="M20 39H29" stroke="#024D81" stroke-width="2"/>
<path d="M20 51H35" stroke="#024D81" stroke-width="2"/>
</svg>
