<svg width="90" height="90" viewBox="0 0 90 90" fill="none" xmlns="http://www.w3.org/2000/svg">
<path d="M36.6294 52.5424C37.8322 53.0784 39.0999 53.4617 40.4028 53.6817L41.5693 53.8786V52.6956V44.2678C41.5693 40.059 44.9854 36.6427 49.1937 36.6427H57.616H58.7992L58.602 35.4761C57.9802 31.7969 56.0753 28.457 53.2252 26.0488C50.3752 23.6408 46.7644 22.3201 43.0334 22.3213L36.6294 52.5424ZM36.6294 52.5424C36.6411 53.4151 36.6411 54.2297 36.6411 54.9576V54.9628V55.3571C36.6411 56.3654 36.6224 57.3421 36.5901 58.287C37.9204 58.7124 39.2903 59.0045 40.6796 59.1587L41.5693 59.2574V60.1526V66.4464C41.5693 68.4687 42.3726 70.4082 43.8025 71.8381C45.2323 73.2681 47.1716 74.0714 49.1937 74.0714H71.3707H71.3713C72.3729 74.072 73.3648 73.8752 74.2903 73.4923C75.2158 73.1093 76.0569 72.5478 76.7653 71.8397C77.4738 71.1316 78.0358 70.2908 78.4192 69.3654C78.8026 68.44 79 67.4481 79 66.4464V44.2678C79 40.059 75.5839 36.6427 71.3756 36.6427H65.0773H64.1825L64.0835 35.7534C63.7062 32.3637 62.5159 29.1154 60.6139 26.2845C58.7119 23.4537 56.1545 21.1241 53.159 19.4939C50.1636 17.8637 46.8187 16.981 43.409 16.921C40.3512 16.8672 37.3224 17.4764 34.5294 18.7017C35.3758 20.3124 35.9693 22.0432 36.2894 23.833C38.3324 22.8627 40.6188 22.3213 43.0331 22.3213L36.6294 52.5424ZM64.6634 42.0356H63.8662L63.6885 42.8127C62.7992 46.7026 60.8308 50.2627 58.0095 53.0843C55.1881 55.9058 51.6283 57.8743 47.7387 58.7637L46.9616 58.9414V59.7386V66.4464C46.9616 67.6787 47.9613 68.6785 49.1937 68.6785H71.3707C71.9627 68.6785 72.5304 68.4433 72.949 68.0247C73.3676 67.6061 73.6027 67.0384 73.6027 66.4464V44.2678C73.6027 43.6758 73.3676 43.108 72.949 42.6894C72.5304 42.2708 71.9627 42.0356 71.3707 42.0356H64.6634ZM46.9616 52.0549V53.4705L48.2958 52.9974C50.5158 52.2103 52.5321 50.9375 54.1976 49.2719C55.8631 47.6063 57.1358 45.5899 57.9228 43.3697L58.3958 42.0356H56.9803H56.9754H49.1937C48.6017 42.0356 48.034 42.2708 47.6154 42.6894C47.1968 43.108 46.9616 43.6758 46.9616 44.2678V52.0549ZM23.0584 12.3659L23.0584 12.3659L23.0613 12.3685C23.3044 12.5812 23.4704 12.8682 23.5334 13.1849C23.5964 13.5017 23.553 13.8304 23.4098 14.1199L23.3703 14.1997L23.3456 14.2852C23.2782 14.5181 23.2434 14.7591 23.2421 15.0015H23.2421V15.0067C23.2421 15.5681 23.4165 16.4191 24.3591 17.3561C24.7089 17.7059 24.9838 17.9627 25.2632 18.2237C25.2817 18.241 25.3002 18.2583 25.3187 18.2756L25.3187 18.2756L25.3244 18.2809C25.3567 18.3106 25.3889 18.3402 25.4213 18.3699C25.6401 18.5708 25.8628 18.7753 26.1375 19.0459L26.1432 19.0516L26.1491 19.0571C26.7594 19.6393 27.379 20.3025 27.9302 21.1223C29.0506 22.8061 29.7129 24.9598 29.7129 28.2499C29.7129 32.1179 28.3186 35.3456 26.219 37.3431L25.4813 38.0449L26.1964 38.7698C27.468 40.059 28.2438 41.7835 28.7375 43.603L28.7378 43.6042C29.7062 47.1568 29.7129 51.5979 29.7129 55.1747V55.3571C29.7129 65.3837 27.8363 71.2114 25.8092 74.5916L25.8045 74.5994L25.8 74.6072C25.0513 75.9086 24.0685 77.0602 22.9011 78.0041C22.475 78.3357 22.0125 78.6177 21.5226 78.8445C21.5114 78.8483 21.4977 78.8529 21.4819 78.858C21.4285 78.8755 21.3535 78.8987 21.269 78.9218C21.0994 78.9679 20.9621 78.9931 20.8858 78.9988C20.6501 78.976 20.418 78.9249 20.1945 78.8464C19.703 78.6193 19.2391 78.3367 18.8118 78.0041C17.6444 77.0602 16.6616 75.9086 15.9128 74.6072L15.9082 74.5991L15.9034 74.5911C13.8768 71.2162 12 65.3841 12 55.3571V55.1796C12 51.5983 12.0066 47.1616 12.9752 43.5987C13.4688 41.7841 14.2447 40.0586 15.5177 38.7637L16.2319 38.0372L15.4922 37.3366C13.3948 35.3501 12 32.1189 12 28.2499C12 26.7952 12.3937 24.9935 12.9686 23.2736L12.9688 23.2728C13.54 21.5591 14.3348 19.8059 15.2353 18.4132L15.2459 18.3967L15.256 18.3798C16.3177 16.5871 17.8316 15.0563 19.0352 14.0055L19.038 14.0031C19.6896 13.4299 20.3695 12.8897 21.075 12.3845L21.2091 12.2951L21.2395 12.2749L21.2684 12.2524L21.2691 12.2518L21.2781 12.2459C21.5466 12.0669 21.8667 11.9816 22.1886 12.0033C22.5106 12.025 22.8163 12.1525 23.0584 12.3659Z" stroke="#024D81" stroke-width="2"/>
</svg>
