<svg width="90" height="90" viewBox="0 0 90 90" fill="none" xmlns="http://www.w3.org/2000/svg">
<path d="M77.565 66.4431C77.4122 65.901 77.0549 65.4395 76.5684 65.1557C76.0819 64.872 75.5043 64.7881 74.9573 64.9219L69.5462 66.3779C72.5072 62.0132 74.3026 56.9637 74.7617 51.7094C75.2055 46.7936 74.4867 41.8423 72.6634 37.2557C70.8401 32.669 67.9633 28.5756 64.2656 25.3062C63.8381 24.9526 63.2916 24.7759 62.7381 24.8123C62.1846 24.8487 61.6659 25.0953 61.2884 25.5017C60.9085 25.9342 60.7158 26.4998 60.7525 27.0742C60.7891 27.6487 61.0522 28.1851 61.484 28.5658C64.6703 31.3783 67.1492 34.9019 68.7198 38.8511C70.2904 42.8003 70.9085 47.0639 70.5241 51.2965C70.1519 55.7547 68.6567 60.046 66.1779 63.7702L65.6346 58.3157C65.6756 57.9947 65.6444 57.6685 65.5432 57.3612C65.442 57.0538 65.2735 56.7729 65.0499 56.5389C64.8263 56.305 64.5532 56.124 64.2507 56.0091C63.9482 55.8941 63.6238 55.8482 63.3013 55.8747C62.9788 55.9012 62.6662 55.9993 62.3865 56.162C62.1067 56.3247 61.8669 56.5478 61.6844 56.8151C61.5019 57.0823 61.3814 57.3869 61.3317 57.7067C61.282 58.0265 61.3043 58.3533 61.3971 58.6634L62.4836 72.6582L76.0655 69.0508C76.6036 68.8934 77.06 68.5343 77.3394 68.0483C77.6188 67.5624 77.6996 66.9872 77.565 66.4431V66.4431Z" stroke="#024D81" stroke-width="2"/>
<path d="M14.1544 46.4506C14.4432 46.6363 14.7699 46.7551 15.1105 46.7983C15.6777 46.8727 16.2513 46.7205 16.7069 46.3747C17.1626 46.0289 17.4635 45.5174 17.5444 44.9511C18.4424 38.3213 21.8117 32.2754 26.9777 28.0241C32.1437 23.7729 38.725 21.6301 45.4037 22.0248L40.5359 25.3497C40.1915 25.6092 39.9321 25.9652 39.7906 26.3726C39.6492 26.78 39.6321 27.2202 39.7416 27.6373C39.8511 28.0543 40.0823 28.4294 40.4056 28.7147C40.7289 29.0001 41.1298 29.1828 41.5573 29.2396C42.0468 29.2843 42.5371 29.1617 42.9481 28.8919L54.5307 20.9383L44.6214 10.9855C44.445 10.7152 44.2107 10.4877 43.9355 10.3193C43.6603 10.151 43.351 10.046 43.0301 10.0121C42.7093 9.97812 42.3849 10.016 42.0805 10.1231C41.7761 10.2301 41.4994 10.4036 41.2704 10.631C41.0415 10.8583 40.866 11.1337 40.7567 11.4373C40.6475 11.7409 40.6072 12.065 40.6389 12.3861C40.6705 12.7072 40.7732 13.0172 40.9396 13.2937C41.106 13.5701 41.3318 13.8061 41.6007 13.9843L45.295 17.6786C37.5823 17.3098 30.0116 19.846 24.0774 24.7864C18.1432 29.7269 14.2769 36.7126 13.2417 44.3644C13.186 44.7625 13.2418 45.1683 13.4029 45.5366C13.564 45.9049 13.8242 46.2213 14.1544 46.4506V46.4506Z" stroke="#024D81" stroke-width="2"/>
<path d="M52.0098 74.3748C48.6163 75.4588 45.0368 75.836 41.4919 75.4831C37.1747 75.06 33.0254 73.5924 29.4022 71.2072C25.7789 68.822 22.7906 65.5908 20.6953 61.7926L26.1063 63.8135C26.6051 63.9001 27.1184 63.8097 27.5577 63.5581C27.997 63.3065 28.3347 62.9094 28.5124 62.4354C28.6902 61.9614 28.6969 61.4402 28.5313 60.9618C28.3658 60.4834 28.0384 60.0778 27.6058 59.815L17.6312 56.1207L14.4367 54.969L12.0246 68.7682C11.9409 69.3196 12.0725 69.8821 12.3921 70.3392C12.7117 70.7963 13.1947 71.113 13.7413 71.2238H14.1108C14.6222 71.2331 15.1206 71.0617 15.5181 70.7397C15.9156 70.4178 16.1868 69.9659 16.2839 69.4636L17.1966 64.2482C19.6544 68.5537 23.1067 72.2087 27.2652 74.9079C31.4236 77.6071 36.1675 79.2722 41.1008 79.7642C45.2252 80.1729 49.3897 79.7291 53.3354 78.4603C53.8377 78.2523 54.2439 77.8634 54.4736 77.3706C54.7033 76.8777 54.7399 76.3166 54.5762 75.7981C54.4124 75.2796 54.0603 74.8413 53.5892 74.5698C53.118 74.2982 52.5622 74.2132 52.0315 74.3314L52.0098 74.3748Z" stroke="#024D81" stroke-width="2"/>
<path d="M52.5961 37.5842H35.2112C34.6348 37.5842 34.0821 37.8132 33.6746 38.2207C33.267 38.6283 33.0381 39.181 33.0381 39.7573V57.1422C33.0381 57.7185 33.267 58.2713 33.6746 58.6788C34.0821 59.0864 34.6348 59.3153 35.2112 59.3153H52.5961C53.1724 59.3153 53.7251 59.0864 54.1327 58.6788C54.5402 58.2713 54.7692 57.7185 54.7692 57.1422V39.7573C54.7692 39.181 54.5402 38.6283 54.1327 38.2207C53.7251 37.8132 53.1724 37.5842 52.5961 37.5842ZM50.4229 54.9691H37.3843V41.9304H50.4229V54.9691Z" stroke="#024D81" stroke-width="2"/>
</svg>
