<svg width="90" height="90" viewBox="0 0 90 90" fill="none" xmlns="http://www.w3.org/2000/svg">
<path d="M24.5083 71.6245L27.0042 70.0187L31.1671 76.4888C31.3801 76.8198 31.4528 77.2218 31.3694 77.6064C31.2859 77.991 31.0531 78.3267 30.7221 78.5397C30.3912 78.7526 29.9892 78.8254 29.6046 78.7419C29.2199 78.6585 28.8842 78.4256 28.6713 78.0947L24.5083 71.6245ZM25.3856 38.3516L25.3857 38.3515C25.4038 38.3121 25.4322 38.2783 25.4679 38.2537C25.5036 38.229 25.5453 38.2145 25.5885 38.2114C25.6318 38.2084 25.6751 38.2171 25.7139 38.2365C25.7526 38.256 25.7854 38.2855 25.8089 38.322L25.8091 38.3223L42.8485 64.8053L42.8488 64.8056C42.8722 64.8421 42.8855 64.8842 42.8871 64.9276C42.8888 64.9709 42.8787 65.0139 42.858 65.052C42.8374 65.0901 42.8068 65.122 42.7696 65.1443C42.7324 65.1665 42.6899 65.1784 42.6465 65.1786L42.6464 65.1786L29.2649 65.2454L19.7788 50.502L25.3856 38.3516ZM15.385 68.9213L11.3529 62.6547C10.9618 62.0467 10.8281 61.3082 10.9814 60.6017C11.1347 59.8952 11.5624 59.2785 12.1704 58.8874L17.5961 55.3964L24.578 66.2478L19.1523 69.7388C18.5443 70.13 17.8058 70.2636 17.0993 70.1103C16.3928 69.957 15.7762 69.5293 15.385 68.9213ZM39.2151 47.6816L39.8871 48.726C40.2782 49.334 40.4119 50.0724 40.2586 50.7789C40.1786 51.1477 40.0238 51.4919 39.8078 51.7924L36.3916 46.4829C36.7546 46.4107 37.132 46.4126 37.5007 46.4926C38.2072 46.6459 38.8239 47.0736 39.2151 47.6816Z" stroke="#024D81" stroke-width="2"/>
<path d="M43.7318 38.7087L43.732 38.7088C43.7612 38.7215 43.7875 38.7398 43.8096 38.7626C43.8317 38.7855 43.849 38.8125 43.8606 38.8421C43.8723 38.8717 43.8779 38.9032 43.8774 38.935C43.8768 38.9667 43.87 38.998 43.8573 39.0271C43.8573 39.0272 43.8573 39.0272 43.8573 39.0273L42.068 43.132L42.0679 43.1323C42.0552 43.1614 42.0369 43.1878 42.014 43.2099C41.9911 43.232 41.9641 43.2493 41.9345 43.2609C41.9049 43.2726 41.8733 43.2783 41.8415 43.2777C41.8097 43.2771 41.7784 43.2703 41.7492 43.2576L41.3499 44.1744L41.7492 43.2576C41.7201 43.2449 41.6937 43.2266 41.6717 43.2037C41.6496 43.1808 41.6322 43.1538 41.6206 43.1242C41.609 43.0946 41.6033 43.063 41.6038 43.0312C41.6044 42.9995 41.6112 42.9683 41.6238 42.9392C41.6239 42.9391 41.6239 42.9391 41.6239 42.939C41.6239 42.939 41.6239 42.939 41.6239 42.9389L43.4132 38.8343L43.4133 38.8339C43.426 38.8048 43.4443 38.7784 43.4672 38.7564C43.4901 38.7343 43.517 38.7169 43.5466 38.7053C43.5762 38.6937 43.6078 38.688 43.6396 38.6886C43.6713 38.6892 43.7027 38.696 43.7318 38.7087ZM46.9799 51.3873L46.9799 51.387C46.9804 51.3553 46.9872 51.3239 46.9998 51.2948L46.0872 50.899L46.9998 51.2948C47.0125 51.2656 47.0307 51.2392 47.0536 51.2171C47.0764 51.195 47.1034 51.1776 47.133 51.166C47.1625 51.1543 47.1941 51.1486 47.2259 51.1491L47.2263 51.1491L51.7033 51.222C51.7351 51.2225 51.7665 51.2293 51.7957 51.2419C51.8248 51.2546 51.8512 51.2729 51.8733 51.2957C51.8954 51.3185 51.9128 51.3455 51.9245 51.3751C51.9362 51.4047 51.9419 51.4363 51.9414 51.4681C51.9409 51.4998 51.9341 51.5312 51.9214 51.5604C51.9088 51.5896 51.8905 51.616 51.8677 51.6381C51.8448 51.6602 51.8178 51.6776 51.7883 51.6892C51.7587 51.7009 51.7271 51.7067 51.6953 51.7061L51.695 51.7061L47.2178 51.6333C47.2178 51.6333 47.2177 51.6333 47.2177 51.6333C47.186 51.6327 47.1547 51.6259 47.1255 51.6133C47.0964 51.6007 47.07 51.5824 47.0479 51.5596C47.0258 51.5367 47.0084 51.5098 46.9968 51.4802C46.9851 51.4506 46.9794 51.4191 46.9799 51.3873ZM44.3305 47.3443C44.2957 47.2904 44.2839 47.2248 44.2975 47.1621C44.3111 47.0994 44.3491 47.0446 44.403 47.0099L48.5808 44.3219C48.6348 44.2872 48.7003 44.2753 48.763 44.2889C48.8257 44.3025 48.8805 44.3405 48.9152 44.3945C48.9499 44.4484 48.9618 44.514 48.9482 44.5767C48.9346 44.6394 48.8966 44.6941 48.8427 44.7288L44.6649 47.4169C44.6109 47.4516 44.5454 47.4635 44.4826 47.4499C44.4199 47.4362 44.3652 47.3983 44.3305 47.3443Z" stroke="#024D81" stroke-width="2"/>
<path d="M57.2677 17.0279C56.4748 16.9393 55.668 17.0995 54.9629 17.4947C53.1143 18.5308 52.4536 20.8663 53.4889 22.7135C54.5243 24.5607 56.8613 25.2159 58.7098 24.1799C59.5974 23.6824 60.2514 22.8532 60.5279 21.8746C60.8045 20.8959 60.6808 19.8478 60.1837 18.9611C59.791 18.2604 59.1906 17.7059 58.4729 17.3685C58.5867 17.341 58.6964 17.2979 58.7989 17.2404M58.7989 17.2404C58.7988 17.2404 58.7986 17.2405 58.7985 17.2406L58.554 16.8044L58.7989 17.2404ZM60.7468 15.6177L60.7525 15.6275L60.7586 15.637C61.1216 16.2041 61.2237 16.386 62.0852 17.92L62.087 17.9233C62.0871 17.9234 62.0872 17.9235 62.0872 17.9236C62.9461 19.456 63.0414 19.6451 63.3486 20.2557L63.3484 20.2558L63.3542 20.2666C63.5817 20.6922 63.7346 21.1508 63.8073 21.6263C63.8616 22.0142 63.8347 22.4093 63.7281 22.7866C63.6215 23.164 63.4375 23.5152 63.1879 23.818C62.8768 24.1858 62.5054 24.4983 62.0898 24.7422L62.0814 24.7471L62.0732 24.7523C61.5061 25.1153 61.3223 25.2185 59.7817 26.082C58.2471 26.9421 58.0576 27.0376 57.4453 27.3458L57.4453 27.3458L57.4401 27.3484C57.0104 27.5711 56.546 27.7189 56.0668 27.7855L56.0648 27.7857C55.6754 27.8415 55.2789 27.8154 54.9006 27.7094C54.5231 27.6035 54.172 27.4204 53.8696 27.1716C53.5014 26.8608 53.1901 26.4909 52.9461 26.0755L52.9412 26.0672L52.9361 26.0591C52.5733 25.4924 52.4706 25.3095 51.6086 23.7715C50.7498 22.2395 50.6546 22.0503 50.347 21.4391L50.3472 21.439L50.3411 21.4277C50.1141 21.0041 49.9612 20.5449 49.889 20.0697C49.8343 19.6818 49.8611 19.2866 49.9677 18.9093C50.0743 18.532 50.2584 18.1808 50.5082 17.8782C50.8194 17.5103 51.1905 17.1976 51.606 16.9533L51.6139 16.9487L51.6216 16.9437C52.1893 16.5812 52.3734 16.4779 53.9139 15.6144C55.449 14.7541 55.6379 14.6581 56.2493 14.3504L56.2494 14.3505L56.26 14.3448C56.6853 14.1177 57.146 13.9642 57.6223 13.8908C58.0109 13.8357 58.4065 13.862 58.7839 13.968L58.9191 13.4866L58.7839 13.968C59.1615 14.074 59.5126 14.2574 59.8151 14.5064C60.1878 14.8201 60.5031 15.1961 60.7468 15.6177Z" fill="#024D81" stroke="#024D81"/>
<path d="M58.2909 20.0221C58.7399 20.8232 58.4539 21.8385 57.6497 22.2893C56.8455 22.7401 55.8301 22.4541 55.3811 21.653C54.932 20.8519 55.2181 19.8365 56.0223 19.3857C56.8265 18.935 57.8419 19.2209 58.2909 20.0221Z" fill="#024D81" stroke="#024D81"/>
<path d="M32.8572 18.6155C33.4259 18.9725 33.7854 19.4796 33.9357 20.1369C34.0861 20.7942 33.9828 21.4072 33.6258 21.9759L29.3062 28.8575C28.9492 29.4262 28.4421 29.7857 27.7848 29.936C27.1275 30.0864 26.5145 29.983 25.9458 29.6261L24.5982 28.7802L27.2754 24.515L28.7019 25.4104L29.9609 23.8824L28.3193 22.8519L28.9853 21.791C29.1533 21.5234 29.3354 21.3579 29.5317 21.2946C29.728 21.2313 29.9886 21.3016 30.3136 21.5056L31.1926 22.0474L32.1241 20.5636C31.85 20.3316 31.4382 20.0431 30.8886 19.6981C30.2387 19.2902 29.599 19.1551 28.9695 19.2929C28.34 19.4308 27.8063 19.8485 27.3684 20.5462L26.5989 21.772L25.1653 20.8721L24.1214 22.5352L25.555 23.4351L22.8778 27.7002L19.0642 25.3064C18.4955 24.9495 18.136 24.4423 17.9857 23.7851C17.8353 23.1278 17.9386 22.5148 18.2956 21.9461L22.6152 15.0645C22.9722 14.4958 23.4793 14.1363 24.1366 13.9859C24.7939 13.8356 25.4069 13.9389 25.9756 14.2959L32.8572 18.6155Z" fill="#024D81"/>
<path d="M72.7074 44.5658C72.3619 44.5475 72.0143 44.4774 71.6647 44.3556C72.109 44.3294 72.4929 44.155 72.8164 43.8325C72.3922 43.8563 71.9902 43.8122 71.6101 43.7002C71.4733 43.2119 71.1739 42.8496 70.7117 42.6131C70.2747 42.3896 69.8227 42.3532 69.3558 42.5041C68.8888 42.655 68.5435 42.9489 68.3199 43.386C68.2454 43.5316 68.1963 43.6586 68.1726 43.7669C67.5426 43.4002 67.0183 42.926 66.5997 42.3443C66.1812 41.7626 65.8981 41.1266 65.7505 40.4363C65.4764 40.6129 65.2673 40.8419 65.1234 41.1232C64.8305 41.6958 64.8342 42.2523 65.1345 42.7926C64.901 42.6668 64.6833 42.473 64.4813 42.2112L64.4736 42.2263C64.2808 42.603 64.2349 43.0025 64.3357 43.4249C64.4365 43.8472 64.6523 44.1874 64.983 44.4453C64.8168 44.411 64.6784 44.3655 64.5679 44.309C64.5026 44.2756 64.4098 44.2154 64.2895 44.1285C64.233 44.4989 64.2865 44.8559 64.4499 45.1993C64.6133 45.5427 64.8645 45.8043 65.2035 45.9841C64.3895 46.1381 63.6183 46.0288 62.89 45.6562C62.7594 45.5893 62.6377 45.5176 62.5248 45.4408C63.0267 46.2933 63.7146 46.9432 64.5887 47.3903C65.1513 47.6781 65.7243 47.8588 66.3078 47.9323C66.8913 48.0058 67.4353 47.9831 67.9398 47.8641C68.4444 47.7451 68.923 47.5558 69.3759 47.2963C69.8287 47.0368 70.2252 46.7263 70.5655 46.3648C70.9057 46.0033 71.1837 45.6116 71.3996 45.1896C71.4458 45.0992 71.478 45.0301 71.4961 44.9823C71.9282 44.9182 72.332 44.7793 72.7074 44.5658ZM75.3841 44.0909L71.6836 51.3242C71.3778 51.922 70.9041 52.3245 70.2625 52.5318C69.6209 52.7391 69.0012 52.6899 68.4034 52.3841L61.1701 48.6836C60.5723 48.3778 60.1698 47.904 59.9625 47.2624C59.7552 46.6208 59.8044 46.0011 60.1102 45.4034L63.8107 38.17C64.1165 37.5723 64.5903 37.1697 65.2319 36.9624C65.8735 36.7551 66.4932 36.8044 67.0909 37.1102L74.3243 40.8107C74.922 41.1165 75.3246 41.5902 75.5319 42.2318C75.7392 42.8734 75.69 43.4931 75.3841 44.0909Z" fill="#024D81"/>
<path d="M67.1892 66.5018C67.1892 66.5018 66.6887 65.7426 66.1717 65.5594C65.5215 65.2968 65.0117 65.5364 64.7582 65.6082C63.0564 66.2661 60.5857 67.4274 60.5857 67.4274C60.5857 67.4274 58.115 68.5887 56.5226 69.4792C56.3055 69.6286 55.7957 69.8683 55.5831 70.5365C55.3942 71.0514 55.6594 71.9212 55.6594 71.9212C55.6594 71.9212 55.9793 72.9074 56.4168 73.8383L56.8179 74.6916C57.2555 75.6225 57.8289 76.5368 57.8289 76.5368C57.8289 76.5368 58.3294 77.296 58.8464 77.4792C59.4966 77.7419 60.0848 77.4654 60.3776 77.3751C61.337 76.9715 64.4142 75.5725 64.4142 75.5725C64.4142 75.5725 66.8849 74.4112 68.4773 73.5206C68.6944 73.3712 69.2042 73.1316 69.4168 72.4634C69.6057 71.9484 69.3405 71.0786 69.3405 71.0786C69.3405 71.0786 69.0206 70.0924 68.5831 69.1615L68.182 68.3082C67.7444 67.3774 67.1892 66.5018 67.1892 66.5018ZM61.9952 73.584L60.4638 70.326L64.4061 70.4619L61.9952 73.584Z" fill="#024D81"/>
</svg>
