<svg width="30" height="30" viewBox="0 0 30 30" fill="none" xmlns="http://www.w3.org/2000/svg">
<path d="M19.3117 13.6608C19.0908 13.6598 18.8721 13.7098 18.6697 13.8074C18.4673 13.9051 18.2856 14.0483 18.1362 14.2279C17.9869 14.4076 17.8732 14.6196 17.8024 14.8505C17.7317 15.0815 17.7054 15.3262 17.7253 15.5689H20.9933C21.0144 15.317 20.9858 15.0631 20.9094 14.8246C20.833 14.5861 20.7107 14.3687 20.5509 14.1873C20.3911 14.006 20.1975 13.865 19.9836 13.7741C19.7697 13.6832 19.5404 13.6446 19.3117 13.6608V13.6608ZM10.9513 15.6039H9V19H10.5864C12.1728 19 12.8708 18.4223 12.8708 17.2495C12.8708 16.0766 12.1411 15.6039 10.9513 15.6039ZM12.3315 12.488C12.3315 11.5602 11.7762 11 10.8244 11H9V14.046H10.3484C11.7604 14.046 12.3315 13.4858 12.3315 12.488Z" fill="#024D81"/>
<path d="M15 0C12.0333 0 9.13319 0.879735 6.66645 2.52796C4.19971 4.17618 2.27713 6.51886 1.14181 9.25975C0.00649926 12.0006 -0.290551 15.0166 0.288227 17.9264C0.867006 20.8361 2.29562 23.5088 4.3934 25.6066C6.49119 27.7044 9.16394 29.133 12.0737 29.7118C14.9834 30.2906 17.9994 29.9935 20.7403 28.8582C23.4811 27.7229 25.8238 25.8003 27.472 23.3335C29.1203 20.8668 30 17.9667 30 15C30 11.0217 28.4196 7.20644 25.6066 4.3934C22.7936 1.58035 18.9783 0 15 0V0ZM11.55 19.8H7.5V10.05H11.55C13.305 10.05 14.46 10.965 14.46 12.45C14.4807 12.9489 14.323 13.4388 14.0151 13.8319C13.7072 14.225 13.2693 14.4956 12.78 14.595C13.0901 14.6022 13.3955 14.6726 13.6774 14.8019C13.9594 14.9311 14.212 15.1166 14.4198 15.3469C14.6276 15.5771 14.7863 15.8474 14.886 16.1411C14.9858 16.4348 15.0246 16.7458 15 17.055C15 18.795 13.5 19.8 11.55 19.8V19.8ZM16.875 10.8H21.375V11.55H16.875V10.8ZM22.5 16.575H17.55V16.785C17.5242 17.0129 17.5476 17.2437 17.6185 17.4619C17.6895 17.68 17.8063 17.8804 17.9613 18.0496C18.1162 18.2187 18.3056 18.3527 18.5167 18.4425C18.7278 18.5323 18.9557 18.5757 19.185 18.57C19.507 18.62 19.8362 18.5519 20.1119 18.3782C20.3875 18.2045 20.5911 17.937 20.685 17.625H22.5C22.3384 18.345 21.917 18.9802 21.3166 19.4092C20.7161 19.8381 19.9785 20.0306 19.245 19.95C18.7762 19.9973 18.3027 19.9414 17.8578 19.786C17.413 19.6307 17.0075 19.3798 16.6701 19.0509C16.3326 18.722 16.0714 18.3232 15.9046 17.8825C15.7379 17.4418 15.6697 16.9699 15.705 16.5V15.84C15.6731 15.3847 15.7401 14.9279 15.9014 14.5009C16.0626 14.0739 16.3143 13.6869 16.6392 13.3663C16.964 13.0457 17.3544 12.7992 17.7834 12.6436C18.2125 12.488 18.6702 12.4271 19.125 12.465C19.5783 12.4359 20.0326 12.5043 20.4573 12.6656C20.882 12.8269 21.2672 13.0772 21.587 13.3999C21.9068 13.7225 22.1537 14.1099 22.3112 14.536C22.4687 14.9621 22.5331 15.4169 22.5 15.87V16.575Z" fill="#024D81"/>
</svg>
