<svg width="90" height="90" viewBox="0 0 90 90" fill="none" xmlns="http://www.w3.org/2000/svg">
<path d="M60 40C56.2422 40 52.5687 41.1143 49.4442 43.2021C46.3196 45.2898 43.8844 48.2572 42.4463 51.729C41.0082 55.2008 40.632 59.0211 41.3651 62.7067C42.0982 66.3923 43.9078 69.7778 46.565 72.435C49.2222 75.0922 52.6076 76.9018 56.2933 77.6349C59.9789 78.368 63.7992 77.9918 67.271 76.5537C70.7428 75.1156 73.7102 72.6804 75.7979 69.5558C77.8857 66.4313 79 62.7578 79 59C78.9937 53.9628 76.9899 49.1337 73.4281 45.5719C69.8663 42.0101 65.0372 40.0063 60 40ZM74.0363 56.625H69.3955C69.087 53.0441 68.1056 49.5535 66.5028 46.3365C68.4701 47.35 70.1748 48.8071 71.4823 50.5927C72.7897 52.3783 73.6641 54.4434 74.0363 56.625ZM55.383 56.625C55.8197 52.3328 57.4156 48.2403 60 44.7856C62.5854 48.2399 64.1822 52.3325 64.6194 56.625H55.383ZM64.6217 61.375C64.1842 65.6677 62.5865 69.7605 60 73.2144C57.4146 69.7601 55.8178 65.6675 55.3806 61.375H64.6217ZM53.4972 46.3365C51.8943 49.5535 50.9129 53.044 50.6045 56.625H45.9637C46.3359 54.4434 47.2103 52.3783 48.5177 50.5927C49.8252 48.8071 51.5299 47.35 53.4972 46.3365ZM45.9637 61.375H50.6021C50.9105 64.9559 51.8919 68.4465 53.4949 71.6635C51.528 70.6497 49.8237 69.1925 48.5167 67.4069C47.2097 65.6213 46.3357 63.5563 45.9637 61.375ZM66.5028 71.6635C68.1059 68.4466 69.0873 64.956 69.3955 61.375H74.0363C73.6643 63.5566 72.79 65.6218 71.4825 67.4074C70.1751 69.193 68.4702 70.6501 66.5028 71.6635ZM22 40H36.25V44.75H22V40ZM22 21H50.5V25.75H22V21ZM22 30.5H50.5V35.25H22V30.5ZM22 63.75H36.25V68.5H22V63.75Z" stroke="#024D81" stroke-width="2"/>
<path d="M36 78H16.8C15.5274 77.9987 14.3072 77.4941 13.4073 76.5969C12.5074 75.6997 12.0013 74.4831 12 73.2143V15.7857C12.0013 14.5169 12.5074 13.3003 13.4073 12.4031C14.3072 11.5059 15.5274 11.0013 16.8 11H55.2C56.4727 11.0013 57.6928 11.5059 58.5927 12.4031C59.4926 13.3003 59.9987 14.5169 60 15.7857V34.9286H55.2V15.7857H16.8V73.2143H36V78Z" stroke="#024D81" stroke-width="2"/>
</svg>
