<svg width="174" height="174" viewBox="0 0 174 174" fill="none" xmlns="http://www.w3.org/2000/svg">
<g filter="url(#filter0_d_1837_1422)">
<rect x="86.7109" y="16" width="100" height="100" rx="10" transform="rotate(45 86.7109 16)" fill="white"/>
</g>
<path d="M113.875 92.5H59.125C58.625 92.5 58.125 92.125 58.125 91.5V53.75C58.125 53.125 58.5 52.75 59.125 52.75H114C114.5 52.75 115 53.125 115 53.75V91.5C114.875 92.125 114.5 92.5 113.875 92.5ZM60 90.625H113V54.625H60V90.625Z" fill="#024D81"/>
<path d="M67.25 84.75C66.625 84.75 66.125 84.25 66.125 83.625V75C66.125 74.375 66.625 73.875 67.25 73.875C67.875 73.875 68.375 74.375 68.375 75V83.625C68.25 84.25 67.75 84.75 67.25 84.75Z" fill="#024D81" stroke="#024D81" stroke-width="0.75" stroke-miterlimit="10"/>
<path d="M73.625 84.75C73 84.75 72.5 84.25 72.5 83.625V66.625C72.5 66 73 65.5 73.625 65.5C74.25 65.5 74.75 66 74.75 66.625V83.625C74.75 84.25 74.25 84.75 73.625 84.75Z" fill="#024D81" stroke="#024D81" stroke-width="0.75" stroke-miterlimit="10"/>
<path d="M80.125 84.75C79.5 84.75 79 84.25 79 83.625V70.875C79 70.25 79.5 69.75 80.125 69.75C80.75 69.75 81.25 70.25 81.25 70.875V83.75C81.125 84.25 80.625 84.75 80.125 84.75Z" fill="#024D81" stroke="#024D81" stroke-width="0.75" stroke-miterlimit="10"/>
<path d="M86.5 84.75C85.875 84.75 85.375 84.25 85.375 83.625V60.375C85.375 59.75 85.875 59.25 86.5 59.25C87.125 59.25 87.625 59.75 87.625 60.375V83.625C87.625 84.25 87.125 84.75 86.5 84.75Z" fill="#024D81" stroke="#024D81" stroke-width="0.75" stroke-miterlimit="10"/>
<path d="M92.875 84.75C92.25 84.75 91.75 84.25 91.75 83.625V73.25C91.75 72.625 92.25 72.125 92.875 72.125C93.5 72.125 94 72.75 94 73.25V83.625C94 84.25 93.5 84.75 92.875 84.75Z" fill="#024D81" stroke="#024D81" stroke-width="0.75" stroke-miterlimit="10"/>
<path d="M99.375 84.75C98.75 84.75 98.25 84.25 98.25 83.625V70.875C98.25 70.25 98.75 69.75 99.375 69.75C100 69.75 100.5 70.25 100.5 70.875V83.75C100.5 84.25 100 84.75 99.375 84.75Z" fill="#024D81" stroke="#024D81" stroke-width="0.75" stroke-miterlimit="10"/>
<path d="M105.75 84.75C105.125 84.75 104.625 84.25 104.625 83.625V75C104.625 74.375 105.125 73.875 105.75 73.875C106.375 73.875 106.875 74.375 106.875 75V83.625C106.875 84.25 106.375 84.75 105.75 84.75Z" fill="#024D81" stroke="#024D81" stroke-width="0.75" stroke-miterlimit="10"/>
<path d="M67.375 120.25C63.875 120.25 61.125 117.375 61.125 114C61.125 110.5 64 107.75 67.375 107.75C70.875 107.75 73.625 110.625 73.625 114C73.625 117.375 70.875 120.25 67.375 120.25ZM67.375 109.5C64.875 109.5 62.875 111.5 62.875 114C62.875 116.5 64.875 118.5 67.375 118.5C69.875 118.5 71.875 116.5 71.875 114C71.875 111.5 69.875 109.5 67.375 109.5Z" fill="#024D81" stroke="#024D81" stroke-width="0.25" stroke-miterlimit="10"/>
<path d="M105.625 120.25C102.125 120.25 99.375 117.375 99.375 114C99.375 110.5 102.25 107.75 105.625 107.75C109 107.75 111.875 110.625 111.875 114C111.875 117.375 109.125 120.25 105.625 120.25ZM105.625 109.5C103.125 109.5 101.125 111.5 101.125 114C101.125 116.5 103.125 118.5 105.625 118.5C108.125 118.5 110.125 116.5 110.125 114C110.125 111.5 108.125 109.5 105.625 109.5Z" fill="#024D81" stroke="#024D81" stroke-width="0.25" stroke-miterlimit="10"/>
<path d="M72.125 113.375H100.875" stroke="#024D81" stroke-width="2" stroke-miterlimit="10"/>
<path d="M87.25 91.875V108.5C87.25 109 86.875 109.375 86.375 109.375C85.875 109.375 85.5 109 85.5 108.5V91.875" fill="#024D81"/>
<path d="M87.25 91.875V108.5C87.25 109 86.875 109.375 86.375 109.375C85.875 109.375 85.5 109 85.5 108.5V91.875" stroke="#024D81" stroke-width="0.25" stroke-miterlimit="10"/>
<path d="M86.375 120.25C82.875 120.25 80.125 117.375 80.125 114C80.125 110.5 83 107.75 86.375 107.75C89.75 107.75 92.625 110.625 92.625 114C92.625 117.375 89.75 120.25 86.375 120.25Z" fill="#024D81"/>
<defs>
<filter id="filter0_d_1837_1422" x="0.142578" y="0.14209" width="173.137" height="173.137" filterUnits="userSpaceOnUse" color-interpolation-filters="sRGB">
<feFlood flood-opacity="0" result="BackgroundImageFix"/>
<feColorMatrix in="SourceAlpha" type="matrix" values="0 0 0 0 0 0 0 0 0 0 0 0 0 0 0 0 0 0 127 0" result="hardAlpha"/>
<feOffset/>
<feGaussianBlur stdDeviation="10"/>
<feComposite in2="hardAlpha" operator="out"/>
<feColorMatrix type="matrix" values="0 0 0 0 0 0 0 0 0 0 0 0 0 0 0 0 0 0 0.1 0"/>
<feBlend mode="normal" in2="BackgroundImageFix" result="effect1_dropShadow_1837_1422"/>
<feBlend mode="normal" in="SourceGraphic" in2="effect1_dropShadow_1837_1422" result="shape"/>
</filter>
</defs>
</svg>
