<svg width="90" height="90" viewBox="0 0 90 90" fill="none" xmlns="http://www.w3.org/2000/svg">
<path d="M24.0179 25.7408C24.0179 26.2973 23.7968 26.831 23.4033 27.2245C23.0098 27.6179 22.4761 27.839 21.9196 27.839C21.3632 27.839 20.8295 27.6179 20.436 27.2245C20.0425 26.831 19.8214 26.2973 19.8214 25.7408C19.8214 25.1843 20.0425 24.6506 20.436 24.2571C20.8295 23.8636 21.3632 23.6426 21.9196 23.6426C22.4761 23.6426 23.0098 23.8636 23.4033 24.2571C23.7968 24.6506 24.0179 25.1843 24.0179 25.7408ZM30.3125 25.7408C30.3125 26.2973 30.0914 26.831 29.6979 27.2245C29.3045 27.6179 28.7708 27.839 28.2143 27.839C27.6578 27.839 27.1241 27.6179 26.7306 27.2245C26.3371 26.831 26.1161 26.2973 26.1161 25.7408C26.1161 25.1843 26.3371 24.6506 26.7306 24.2571C27.1241 23.8636 27.6578 23.6426 28.2143 23.6426C28.7708 23.6426 29.3045 23.8636 29.6979 24.2571C30.0914 24.6506 30.3125 25.1843 30.3125 25.7408ZM34.5089 27.839C35.0654 27.839 35.5991 27.6179 35.9926 27.2245C36.3861 26.831 36.6071 26.2973 36.6071 25.7408C36.6071 25.1843 36.3861 24.6506 35.9926 24.2571C35.5991 23.8636 35.0654 23.6426 34.5089 23.6426C33.9524 23.6426 33.4188 23.8636 33.0253 24.2571C32.6318 24.6506 32.4107 25.1843 32.4107 25.7408C32.4107 26.2973 32.6318 26.831 33.0253 27.2245C33.4188 27.6179 33.9524 27.839 34.5089 27.839Z" fill="#024D81"/>
<path d="M13.5268 15.25C12.9703 15.25 12.4366 15.4711 12.0431 15.8646C11.6496 16.258 11.4286 16.7917 11.4286 17.3482V71.9018C11.4286 72.4583 11.6496 72.992 12.0431 73.3855C12.4366 73.7789 12.9703 74 13.5268 74H76.4732C77.0297 74 77.5634 73.7789 77.9569 73.3855C78.3504 72.992 78.5714 72.4583 78.5714 71.9018V17.3482C78.5714 16.7917 78.3504 16.258 77.9569 15.8646C77.5634 15.4711 77.0297 15.25 76.4732 15.25H13.5268ZM15.625 32.0357V19.4464H74.375V32.0357H15.625ZM15.625 36.2321H74.375V69.8036H15.625V36.2321Z" stroke="#024D81" stroke-width="2"/>
<path d="M59 26H69" stroke="#024D81" stroke-width="2" stroke-linecap="round"/>
<path d="M64.1923 50L68.5 46L64.1923 42" stroke="#024D81" stroke-width="2" stroke-linecap="square" stroke-linejoin="round"/>
<path d="M56.1923 42L51.8846 46L56.1923 50" stroke="#024D81" stroke-width="2" stroke-linecap="square" stroke-linejoin="round"/>
<path d="M35.3889 41.7482L35.3888 41.7483L35.3987 41.7579L40.5878 46.8211L33.5333 50.2271L26.5264 46.8244L31.732 41.7588L31.7374 41.7535L31.7427 41.7482C31.977 41.5133 32.2588 41.325 32.5723 41.1959C32.8858 41.0669 33.2238 41 33.5658 41C33.9079 41 34.2458 41.0669 34.5593 41.1959C34.8728 41.325 35.1547 41.5133 35.3889 41.7482ZM45.2207 54.9601L36.1881 63.8365V54.8041L44.4961 50.7551L45.2242 51.4637L45.2314 51.4707L45.2387 51.4775C45.4814 51.7044 45.6729 51.9751 45.8031 52.2725C45.9333 52.5699 46 52.8887 46 53.2102C46 53.5316 45.9333 53.8504 45.8031 54.1478C45.6729 54.4452 45.4814 54.7159 45.2387 54.9428L45.2296 54.9513L45.2207 54.9601ZM30.8131 54.8041V63.8366L21.7792 54.96L21.7703 54.9513L21.7613 54.9428C21.5186 54.7159 21.3271 54.4452 21.1969 54.1478C21.0667 53.8504 21 53.5316 21 53.2102C21 52.8887 21.0667 52.5699 21.1969 52.2725L20.2808 51.8715L21.1969 52.2725C21.3271 51.9751 21.5186 51.7044 21.7613 51.4775L21.7686 51.4707L21.7758 51.4637L22.5039 50.7551L30.8131 54.8041Z" stroke="#024D81" stroke-width="2"/>
</svg>
