<svg width="174" height="174" viewBox="0 0 174 174" fill="none" xmlns="http://www.w3.org/2000/svg">
<g filter="url(#filter0_d_1837_1422)">
<rect x="86.7109" y="16" width="100" height="100" rx="10" transform="rotate(45 86.7109 16)" fill="white"/>
</g>
<g clip-path="url(#clip0_1837_1422)">
<path d="M105.198 55.6032C106.133 55.4037 106.988 55.2252 107.844 55.0345C107.912 55.0187 108.012 54.9137 108.014 54.8507C108.023 53.9075 108.021 52.9642 108.021 52C107.125 52.2047 106.281 52.3902 105.443 52.6002C105.347 52.6247 105.21 52.7665 105.21 52.8557C105.193 53.7465 105.198 54.6407 105.198 55.6032Z" fill="#024D81"/>
<path d="M108.023 122C108.023 121.037 108.028 120.105 108.011 119.172C108.009 119.091 107.851 118.969 107.748 118.944C107.209 118.813 106.667 118.705 106.122 118.593C105.827 118.531 105.529 118.475 105.198 118.411C105.198 119.356 105.193 120.236 105.205 121.114C105.207 121.207 105.298 121.365 105.373 121.382C106.238 121.597 107.108 121.79 108.023 122Z" fill="#024D81"/>
<path d="M104.494 55.7468C104.494 54.73 104.494 53.7833 104.494 52.812C103.86 52.9415 103.253 53.064 102.646 53.1918C101.68 53.3965 101.68 53.3983 101.68 54.4115C101.68 55.024 101.68 55.633 101.68 56.2805C102.66 56.095 103.573 55.9218 104.494 55.7468Z" fill="#024D81"/>
<path d="M101.681 117.721C101.681 118.677 101.676 119.545 101.688 120.411C101.69 120.49 101.781 120.625 101.851 120.639C102.722 120.829 103.597 121.004 104.495 121.186C104.495 120.196 104.495 119.237 104.495 118.252C103.567 118.077 102.652 117.905 101.681 117.721Z" fill="#024D81"/>
<path d="M98.1798 56.8722C99.0776 56.7252 99.9053 56.5957 100.73 56.4452C100.829 56.4277 100.987 56.3 100.989 56.2177C101.006 55.3392 101.001 54.4607 101.001 53.5332C100.073 53.6977 99.1966 53.8517 98.3216 54.018C98.2638 54.0285 98.1868 54.1527 98.1868 54.2262C98.1781 55.0925 98.1798 55.9587 98.1798 56.8722Z" fill="#024D81"/>
<path d="M97.4875 117.018C96.5407 116.881 95.622 116.748 94.6875 116.614C94.6875 117.564 94.6875 118.479 94.6875 119.396C95.6325 119.545 96.5495 119.69 97.4875 119.837C97.4875 118.885 97.4875 117.979 97.4875 117.018Z" fill="#024D81"/>
<path d="M87.5488 58.1917C88.4571 58.1042 89.3391 58.022 90.2228 57.9257C90.2893 57.9187 90.3961 57.8137 90.3961 57.7507C90.4083 56.9055 90.4031 56.0585 90.4031 55.1782C89.4108 55.2867 88.4781 55.3882 87.5488 55.4897C87.5488 56.405 87.5488 57.28 87.5488 58.1917Z" fill="#024D81"/>
<path d="M86.827 118.439C86.827 117.826 86.827 117.25 86.827 116.673C86.827 115.768 86.827 115.763 85.9397 115.677C85.2975 115.614 84.6552 115.57 83.9902 115.518C83.9902 116.433 83.9902 117.296 83.9902 118.199C84.93 118.279 85.854 118.358 86.827 118.439Z" fill="#024D81"/>
<path d="M86.8064 55.5579C85.8386 55.6419 84.9164 55.7224 83.9941 55.8029C83.9941 56.7094 83.9941 57.5704 83.9941 58.4769C84.9426 58.4034 85.8666 58.3334 86.8064 58.2616C86.8064 57.3499 86.8064 56.4749 86.8064 55.5579Z" fill="#024D81"/>
<path d="M91.1113 118.908C92.0546 119.032 92.9751 119.156 93.9183 119.28C93.9183 118.337 93.9183 117.436 93.9183 116.508C92.9768 116.395 92.0563 116.284 91.1113 116.171C91.1113 117.103 91.1113 117.98 91.1113 118.908Z" fill="#024D81"/>
<path d="M93.9193 54.7161C92.9656 54.8438 92.0363 54.9681 91.1211 55.0923C91.1211 56.0233 91.1211 56.9106 91.1211 57.8293C92.0748 57.7138 92.9953 57.6018 93.9193 57.4898C93.9193 56.5466 93.9193 55.6453 93.9193 54.7161Z" fill="#024D81"/>
<path d="M80.4277 56.0181C80.4277 56.9299 80.4277 57.7979 80.4277 58.6904C81.392 58.6344 82.3195 58.5801 83.2435 58.5241C83.2435 57.6159 83.2435 56.7531 83.2435 55.8589C82.2985 55.9131 81.3815 55.9639 80.4277 56.0181Z" fill="#024D81"/>
<path d="M83.25 115.471C82.2787 115.42 81.3565 115.371 80.3905 115.322C80.3905 116.171 80.3817 116.965 80.4027 117.758C80.4062 117.842 80.5742 117.982 80.6775 117.994C81.0922 118.043 81.5105 118.054 81.9305 118.075C82.3697 118.098 82.8072 118.119 83.25 118.14C83.25 117.233 83.25 116.372 83.25 115.471Z" fill="#024D81"/>
<path d="M73.2891 117.79C74.2358 117.79 75.1616 117.79 76.1048 117.79C76.1048 116.936 76.1048 116.076 76.1048 115.175C75.1633 115.175 74.2376 115.175 73.2891 115.175C73.2891 116.02 73.2891 116.867 73.2891 117.79Z" fill="#024D81"/>
<path d="M76.8594 117.879C77.8254 117.879 78.7494 117.879 79.6716 117.879C79.6716 117.019 79.6716 116.169 79.6716 115.261C78.7266 115.261 77.8009 115.261 76.8594 115.261C76.8594 116.101 76.8594 116.949 76.8594 117.879Z" fill="#024D81"/>
<path d="M76.1041 58.8216C76.1041 57.9116 76.1041 57.0611 76.1041 56.2141C75.1556 56.2141 74.2298 56.2141 73.2988 56.2141C73.2988 57.1154 73.2988 57.9711 73.2988 58.8216C74.2508 58.8216 75.1661 58.8216 76.1041 58.8216Z" fill="#024D81"/>
<path d="M69.7051 58.8198C70.6501 58.8198 71.5776 58.8198 72.5173 58.8198C72.5173 57.9536 72.5173 57.0978 72.5173 56.2053C71.5636 56.2053 70.6361 56.2053 69.7051 56.2053C69.7051 57.0838 69.7051 57.9343 69.7051 58.8198Z" fill="#024D81"/>
<path d="M108.011 59.0107C107.049 59.191 106.128 59.366 105.232 59.5357C105.232 60.4282 105.232 61.2577 105.232 62.138C106.183 61.977 107.094 61.823 108.011 61.6672C108.011 60.7747 108.011 59.9277 108.011 59.0107Z" fill="#024D81"/>
<path d="M105.199 111.859C105.199 112.373 105.194 112.811 105.201 113.25C105.206 113.645 105.089 114.146 105.281 114.403C105.454 114.634 105.972 114.606 106.342 114.678C106.889 114.785 107.439 114.881 107.995 114.981C107.995 114.058 107.995 113.201 107.995 112.329C107.068 112.172 106.167 112.02 105.199 111.859Z" fill="#024D81"/>
<path d="M111.495 112.979C110.57 112.806 109.67 112.638 108.746 112.464C108.746 113.374 108.746 114.239 108.746 115.13C109.661 115.32 110.568 115.508 111.495 115.698C111.495 114.783 111.495 113.903 111.495 112.979Z" fill="#024D81"/>
<path d="M108.752 61.5374C109.688 61.3589 110.596 61.1856 111.491 61.0159C111.491 60.0761 111.491 59.1976 111.491 58.2964C110.563 58.4889 109.655 58.6796 108.752 58.8686C108.752 59.7716 108.752 60.6344 108.752 61.5374Z" fill="#024D81"/>
<path d="M111.49 54.8857C110.618 55.0852 109.761 55.2777 108.91 55.4842C108.84 55.5 108.741 55.5997 108.741 55.6592C108.728 56.494 108.734 57.3287 108.734 58.1932C109.684 57.9902 110.58 57.7995 111.492 57.6035C111.49 56.7075 111.49 55.829 111.49 54.8857Z" fill="#024D81"/>
<path d="M101.695 62.6769C102.658 62.5316 103.573 62.3934 104.485 62.2551C104.485 61.3784 104.485 60.5349 104.485 59.6616C103.536 59.8191 102.623 59.9714 101.695 60.1236C101.695 60.9776 101.695 61.7984 101.695 62.6769Z" fill="#024D81"/>
<path d="M104.482 114.333C104.482 113.437 104.482 112.592 104.482 111.741C103.544 111.6 102.638 111.465 101.703 111.325C101.703 112.193 101.703 113.024 101.703 113.875C102.631 114.027 103.537 114.177 104.482 114.333Z" fill="#024D81"/>
<path d="M104.491 117.594C104.491 116.713 104.491 115.866 104.491 114.998C103.556 114.841 102.644 114.685 101.701 114.526C101.701 115.396 101.701 116.227 101.701 117.076C102.632 117.247 103.546 117.419 104.491 117.594Z" fill="#024D81"/>
<path d="M104.494 56.4082C103.623 56.5692 102.771 56.7215 101.922 56.8912C101.833 56.9087 101.691 57.0225 101.689 57.0942C101.673 57.873 101.679 58.6517 101.679 59.4795C102.653 59.3132 103.569 59.1575 104.494 59C104.494 58.1197 104.494 57.271 104.494 56.4082Z" fill="#024D81"/>
<path d="M90.3803 115.473C90.3803 114.631 90.3803 113.856 90.3803 113.056C89.4196 112.972 88.4868 112.89 87.5488 112.807C87.5488 113.64 87.5488 114.405 87.5488 115.194C88.4921 115.287 89.4178 115.38 90.3803 115.473Z" fill="#024D81"/>
<path d="M87.5369 112.198C88.5047 112.28 89.4374 112.359 90.3562 112.438C90.3824 112.363 90.3982 112.336 90.3982 112.31C90.4017 111.843 90.4034 111.376 90.4052 110.908C90.4069 110.051 90.4052 110.051 89.5862 109.974C89.5057 109.967 89.4269 109.948 89.3447 109.942C88.7462 109.9 88.1477 109.858 87.5352 109.816C87.5369 110.637 87.5369 111.39 87.5369 112.198Z" fill="#024D81"/>
<path d="M59.0234 64.8608C59.0234 65.6746 59.0234 66.4376 59.0234 67.2391C59.9702 67.2916 60.8959 67.3388 61.8322 67.3913C61.8322 66.5758 61.8322 65.8111 61.8322 65.0183C60.8854 64.9658 59.9632 64.9133 59.0234 64.8608Z" fill="#024D81"/>
<path d="M59.0215 112.142C59.977 112.076 60.8992 112.009 61.8337 111.945C61.8337 111.141 61.8337 110.378 61.8337 109.579C60.887 109.64 59.963 109.698 59.0215 109.759C59.0215 110.557 59.0215 111.322 59.0215 112.142Z" fill="#024D81"/>
<path d="M59.0029 70.9158C59.0029 71.6035 58.9977 72.328 59.0117 73.0525C59.0134 73.1173 59.1482 73.231 59.2217 73.2328C60.0827 73.245 60.9402 73.2398 61.8257 73.2398C61.8257 72.524 61.8257 71.7523 61.8257 70.9158C60.8789 70.9158 59.9637 70.9158 59.0029 70.9158Z" fill="#024D81"/>
<path d="M59.0234 76.2499C59.9754 76.2499 60.8907 76.2499 61.8287 76.2499C61.8287 75.4939 61.8287 74.7186 61.8287 73.8909C60.8819 73.8909 59.9649 73.8909 59.0234 73.8909C59.0234 74.6329 59.0234 75.3976 59.0234 76.2499Z" fill="#024D81"/>
<path d="M61.8376 106.605C60.8734 106.659 59.9494 106.714 59.0254 106.764C59.0254 107.583 59.0254 108.348 59.0254 109.146C59.9756 109.087 60.8979 109.031 61.8376 108.973C61.8376 108.178 61.8376 107.426 61.8376 106.605Z" fill="#024D81"/>
<path d="M61.8361 79.8496C60.8736 79.8496 59.9618 79.8496 59.0273 79.8496C59.0273 80.6266 59.0273 81.4001 59.0273 82.2069C59.9811 82.2069 60.9051 82.2069 61.8361 82.2069C61.8361 81.4176 61.8361 80.6669 61.8361 79.8496Z" fill="#024D81"/>
<path d="M61.8398 91.8127C60.8755 91.8127 59.9515 91.8127 59.0293 91.8127C59.0293 92.623 59.0293 93.3965 59.0293 94.121C59.983 94.121 60.907 94.121 61.8398 94.121C61.8398 93.3177 61.8398 92.5775 61.8398 91.8127Z" fill="#024D81"/>
<path d="M59.0215 97.1096C59.97 97.1096 60.894 97.1096 61.832 97.1096C61.832 96.2871 61.832 95.5259 61.832 94.7874C60.8835 94.7874 59.9595 94.7874 59.0215 94.7874C59.0215 95.6064 59.0215 96.3711 59.0215 97.1096Z" fill="#024D81"/>
<path d="M76.1146 62.3899C75.1503 62.3899 74.2228 62.3899 73.2988 62.3899C73.2988 63.1861 73.2988 63.9456 73.2988 64.6841C74.2578 64.6841 75.1818 64.6841 76.1146 64.6841C76.1146 63.8984 76.1146 63.1581 76.1146 62.3899Z" fill="#024D81"/>
<path d="M72.5243 62.3828C71.5706 62.3828 70.6448 62.3828 69.7051 62.3828C69.7051 63.1581 69.7051 63.9088 69.7051 64.6946C70.6483 64.6946 71.5758 64.6946 72.5243 64.6946C72.5243 63.9386 72.5243 63.1861 72.5243 62.3828Z" fill="#024D81"/>
<path d="M69.7129 79.3476C70.6614 79.3476 71.5854 79.3476 72.5199 79.3476C72.5199 78.5653 72.5199 77.8076 72.5199 77.0498C71.5661 77.0498 70.6404 77.0498 69.7129 77.0498C69.7129 77.8303 69.7129 78.5811 69.7129 79.3476Z" fill="#024D81"/>
<path d="M69.7051 96.9487C70.6728 96.9487 71.5986 96.9487 72.5243 96.9487C72.5243 96.1577 72.5243 95.4052 72.5243 94.6492C71.5776 94.6492 70.6518 94.6492 69.7051 94.6492C69.7051 95.4349 69.7051 96.1857 69.7051 96.9487Z" fill="#024D81"/>
<path d="M68.9499 82.8965C67.9927 82.8965 67.0669 82.8965 66.1289 82.8965C66.1289 83.6752 66.1289 84.4277 66.1289 85.2117C67.0774 85.2117 68.0049 85.2117 68.9499 85.2117C68.9499 84.4417 68.9499 83.6875 68.9499 82.8965Z" fill="#024D81"/>
<path d="M69.7207 82.9155C69.7207 83.6995 69.7207 84.459 69.7207 85.2115C70.678 85.2115 71.6037 85.2115 72.526 85.2115C72.526 84.431 72.526 83.6785 72.526 82.9155C71.5757 82.9155 70.65 82.9155 69.7207 82.9155Z" fill="#024D81"/>
<path d="M62.5762 82.2349C63.5194 82.2349 64.4452 82.2349 65.3727 82.2349C65.3727 81.4667 65.3727 80.7124 65.3727 79.9197C64.4312 79.9197 63.5072 79.9197 62.5762 79.9197C62.5762 80.6897 62.5762 81.4422 62.5762 82.2349Z" fill="#024D81"/>
<path d="M68.946 88.7974C67.987 88.7974 67.0612 88.7974 66.125 88.7974C66.125 89.5814 66.125 90.3339 66.125 91.1039C67.0682 91.1039 67.9975 91.1039 68.946 91.1039C68.946 90.3269 68.946 89.5744 68.946 88.7974Z" fill="#024D81"/>
<path d="M72.5384 88.7905C71.5742 88.7905 70.6484 88.7905 69.7227 88.7905C69.7227 89.5763 69.7227 90.3358 69.7227 91.0848C70.6817 91.0848 71.6057 91.0848 72.5384 91.0848C72.5384 90.313 72.5384 89.5728 72.5384 88.7905Z" fill="#024D81"/>
<path d="M65.3799 91.7722C64.4156 91.7722 63.4969 91.7722 62.5781 91.7722C62.5781 92.5737 62.5781 93.3245 62.5781 94.0735C63.5214 94.0735 64.4454 94.0735 65.3799 94.0735C65.3799 93.2842 65.3799 92.5317 65.3799 91.7722Z" fill="#024D81"/>
<path d="M65.3702 88.1746C65.3702 87.3871 65.3702 86.6258 65.3702 85.8506C64.4287 85.8506 63.5082 85.8506 62.5859 85.8506C62.5859 86.6398 62.5859 87.4011 62.5859 88.1746C63.5327 88.1746 64.4444 88.1746 65.3702 88.1746Z" fill="#024D81"/>
<path d="M62.5762 97.0276C63.5194 97.0276 64.4417 97.0276 65.3692 97.0276C65.3692 96.2208 65.3692 95.4701 65.3692 94.7368C64.4242 94.7368 63.5019 94.7368 62.5762 94.7368C62.5762 95.5418 62.5762 96.2926 62.5762 97.0276Z" fill="#024D81"/>
<path d="M62.5762 111.902C63.5212 111.859 64.4452 111.815 65.3674 111.769C65.3674 110.966 65.3674 110.214 65.3674 109.414C64.4224 109.456 63.4984 109.5 62.5762 109.542C62.5762 110.354 62.5762 111.108 62.5762 111.902Z" fill="#024D81"/>
<path d="M68.9546 103.503C67.9869 103.503 67.0611 103.503 66.1406 103.503C66.1406 104.313 66.1406 105.074 66.1406 105.788C67.0979 105.788 68.0236 105.788 68.9546 105.788C68.9546 104.985 68.9546 104.245 68.9546 103.503Z" fill="#024D81"/>
<path d="M62.5742 67.4613C63.5245 67.4613 64.4467 67.4613 65.3585 67.4613C65.3585 66.7158 65.3585 65.9528 65.3585 65.1321C64.417 65.1321 63.507 65.1321 62.5742 65.1321C62.5742 65.8601 62.5742 66.6126 62.5742 67.4613Z" fill="#024D81"/>
<path d="M66.1289 99.9133C67.0967 99.9133 68.0207 99.9133 68.9464 99.9133C68.9464 99.1101 68.9464 98.3611 68.9464 97.6208C67.9979 97.6208 67.0722 97.6208 66.1289 97.6208C66.1289 98.4136 66.1289 99.1626 66.1289 99.9133Z" fill="#024D81"/>
<path d="M65.3676 100.634C64.4244 100.634 63.5039 100.634 62.5781 100.634C62.5781 101.459 62.5781 102.222 62.5781 102.939C63.5249 102.939 64.4471 102.939 65.3676 102.939C65.3676 102.117 65.3676 101.366 65.3676 100.634Z" fill="#024D81"/>
<path d="M73.2852 111.616C74.2599 111.616 75.1839 111.616 76.0992 111.616C76.0992 110.837 76.0992 110.088 76.0992 109.311C75.1472 109.311 74.2214 109.311 73.2852 109.311C73.2852 110.083 73.2852 110.835 73.2852 111.616Z" fill="#024D81"/>
<path d="M69.7148 109.314C69.7148 110.124 69.7148 110.872 69.7148 111.612C70.6686 111.612 71.5943 111.612 72.5288 111.612C72.5288 110.828 72.5288 110.077 72.5288 109.314C71.5873 109.314 70.6616 109.314 69.7148 109.314Z" fill="#024D81"/>
<path d="M65.3692 105.914C65.3692 105.071 65.3692 104.322 65.3692 103.609C64.4259 103.609 63.5037 103.609 62.5762 103.609C62.5762 104.432 62.5762 105.181 62.5762 105.914C63.5124 105.914 64.4242 105.914 65.3692 105.914Z" fill="#024D81"/>
<path d="M66.1348 71.1436C66.1348 71.9118 66.1348 72.6608 66.1348 73.4536C67.0868 73.4536 68.0108 73.4536 68.9505 73.4536C68.9505 72.6941 68.9505 71.9433 68.9505 71.1436C68.009 71.1436 67.0815 71.1436 66.1348 71.1436Z" fill="#024D81"/>
<path d="M62.5723 70.4066C63.5243 70.4066 64.436 70.4066 65.3653 70.4066C65.3653 69.6663 65.3653 68.9068 65.3653 68.0913C64.4185 68.0913 63.498 68.0913 62.5723 68.0913C62.5723 68.8473 62.5723 69.5858 62.5723 70.4066Z" fill="#024D81"/>
<path d="M65.3581 79.286C65.3581 78.5037 65.3581 77.7442 65.3581 76.948C64.4131 76.948 63.4996 76.948 62.5879 76.948C62.5879 77.7355 62.5879 78.4967 62.5879 79.286C63.5224 79.286 64.4254 79.286 65.3581 79.286Z" fill="#024D81"/>
<path d="M68.9585 91.741C67.9942 91.741 67.0667 91.741 66.127 91.741C66.127 92.525 66.127 93.2757 66.127 94.0247C67.0807 94.0247 68.0135 94.0247 68.9585 94.0247C68.9585 93.239 68.9585 92.5005 68.9585 91.741Z" fill="#024D81"/>
<path d="M66.1367 65.2598C66.1367 66.007 66.1367 66.7683 66.1367 67.575C67.0887 67.575 68.011 67.575 68.9525 67.575C68.9525 66.8225 68.9525 66.0718 68.9525 65.2598C68.0162 65.2598 67.0905 65.2598 66.1367 65.2598Z" fill="#024D81"/>
<path d="M62.5898 97.6697C62.5898 98.5097 62.5898 99.2709 62.5898 99.9954C63.5366 99.9954 64.4483 99.9954 65.3671 99.9954C65.3671 99.1747 65.3671 98.4152 65.3671 97.6697C64.4291 97.6697 63.5173 97.6697 62.5898 97.6697Z" fill="#024D81"/>
<path d="M66.1289 111.67C67.0932 111.67 68.0189 111.67 68.9464 111.67C68.9464 110.858 68.9464 110.107 68.9464 109.384C67.9979 109.384 67.0739 109.384 66.1289 109.384C66.1289 110.188 66.1289 110.938 66.1289 111.67Z" fill="#024D81"/>
<path d="M68.9581 112.323C67.9956 112.323 67.0699 112.323 66.1406 112.323C66.1406 113.145 66.1406 113.908 66.1406 114.622C67.0996 114.622 68.0236 114.622 68.9581 114.622C68.9581 113.808 68.9581 113.066 68.9581 112.323Z" fill="#024D81"/>
<path d="M66.1289 108.733C67.0844 108.733 68.0189 108.733 68.9429 108.733C68.9429 107.92 68.9429 107.169 68.9429 106.441C67.9909 106.441 67.0669 106.441 66.1289 106.441C66.1289 107.249 66.1289 108 66.1289 108.733Z" fill="#024D81"/>
<path d="M72.5284 74.1113C71.5694 74.1113 70.6454 74.1113 69.7109 74.1113C69.7109 74.8831 69.7109 75.6321 69.7109 76.4161C70.6577 76.4161 71.5834 76.4161 72.5284 76.4161C72.5284 75.6601 72.5284 74.9076 72.5284 74.1113Z" fill="#024D81"/>
<path d="M68.9406 76.3934C68.9406 75.6059 68.9406 74.8587 68.9406 74.0764C67.9886 74.0764 67.0629 74.0764 66.1406 74.0764C66.1406 74.8499 66.1406 75.6112 66.1406 76.3934C67.0909 76.3934 68.0044 76.3934 68.9406 76.3934Z" fill="#024D81"/>
<path d="M69.7129 85.8486C69.7129 86.6361 69.7129 87.3834 69.7129 88.1411C70.6631 88.1411 71.5871 88.1411 72.5286 88.1411C72.5286 87.3711 72.5286 86.6221 72.5286 85.8486C71.5871 85.8486 70.6631 85.8486 69.7129 85.8486Z" fill="#024D81"/>
<path d="M73.2949 112.247C73.2949 113.023 73.2949 113.77 73.2949 114.547C74.2487 114.547 75.1727 114.547 76.1002 114.547C76.1002 113.768 76.1002 113.017 76.1002 112.247C75.1587 112.247 74.2434 112.247 73.2949 112.247Z" fill="#024D81"/>
<path d="M73.2852 61.7372C74.2599 61.7372 75.1874 61.7372 76.0974 61.7372C76.0974 60.948 76.0974 60.1972 76.0974 59.4692C75.1384 59.4692 74.2109 59.4692 73.2852 59.4692C73.2852 60.248 73.2852 60.9882 73.2852 61.7372Z" fill="#024D81"/>
<path d="M68.9412 82.2645C68.9412 81.4927 68.9412 80.7315 68.9412 79.9597C67.9892 79.9597 67.0652 79.9597 66.1289 79.9597C66.1289 80.7385 66.1289 81.4892 66.1289 82.2645C67.0722 82.2645 67.9997 82.2645 68.9412 82.2645Z" fill="#024D81"/>
<path d="M69.7129 97.5876C69.7129 98.3821 69.7129 99.1329 69.7129 99.8801C70.6666 99.8801 71.5941 99.8801 72.5216 99.8801C72.5216 99.0979 72.5216 98.3471 72.5216 97.5876C71.5801 97.5876 70.6614 97.5876 69.7129 97.5876Z" fill="#024D81"/>
<path d="M105.199 55.6032C105.199 54.6407 105.192 53.7482 105.209 52.8557C105.211 52.7665 105.347 52.6247 105.442 52.6002C106.28 52.3902 107.125 52.2047 108.021 52C108.021 52.9642 108.025 53.9075 108.014 54.849C108.014 54.9137 107.915 55.0187 107.845 55.0327C106.991 55.2252 106.135 55.4037 105.199 55.6032Z" fill="#024D81"/>
<path d="M108.024 122C107.11 121.79 106.24 121.597 105.376 121.384C105.301 121.366 105.21 121.209 105.208 121.116C105.194 120.236 105.201 119.357 105.201 118.412C105.533 118.477 105.829 118.535 106.125 118.594C106.667 118.706 107.212 118.815 107.751 118.946C107.854 118.972 108.011 119.093 108.013 119.174C108.031 120.105 108.024 121.037 108.024 122Z" fill="#024D81"/>
<path d="M104.494 55.747C103.573 55.922 102.661 56.0952 101.68 56.2825C101.68 55.635 101.68 55.026 101.68 54.4135C101.68 53.4002 101.68 53.3985 102.646 53.1937C103.253 53.0642 103.862 52.9435 104.494 52.814C104.494 53.7852 104.494 54.7302 104.494 55.747Z" fill="#024D81"/>
<path d="M101.68 117.721C102.653 117.905 103.567 118.077 104.494 118.252C104.494 119.237 104.494 120.194 104.494 121.186C103.596 121.004 102.721 120.831 101.85 120.639C101.78 120.623 101.689 120.49 101.687 120.411C101.677 119.545 101.68 118.677 101.68 117.721Z" fill="#024D81"/>
<path d="M98.1804 56.8722C98.1804 55.9569 98.1769 55.0924 98.1856 54.2279C98.1874 54.1544 98.2626 54.0319 98.3204 54.0197C99.1954 53.8517 100.072 53.6994 101 53.5349C101 54.4624 101.007 55.3409 100.987 56.2194C100.986 56.2999 100.828 56.4277 100.728 56.4469C99.9076 56.5957 99.0781 56.7252 98.1804 56.8722Z" fill="#024D81"/>
<path d="M97.4875 117.018C97.4875 117.979 97.4875 118.885 97.4875 119.837C96.5495 119.69 95.6342 119.545 94.6875 119.396C94.6875 118.481 94.6875 117.566 94.6875 116.614C95.622 116.748 96.5407 116.881 97.4875 117.018Z" fill="#024D81"/>
<path d="M87.5488 58.1917C87.5488 57.2782 87.5488 56.405 87.5488 55.4897C88.4798 55.3882 89.4108 55.285 90.4031 55.1782C90.4031 56.0585 90.4083 56.9055 90.3961 57.7507C90.3943 57.812 90.2876 57.9187 90.2228 57.9257C89.3408 58.0237 88.4571 58.106 87.5488 58.1917Z" fill="#024D81"/>
<path d="M86.8287 118.439C85.8575 118.356 84.9335 118.279 83.9902 118.199C83.9902 117.294 83.9902 116.433 83.9902 115.518C84.6552 115.57 85.2975 115.616 85.9397 115.677C86.8287 115.763 86.827 115.768 86.827 116.673C86.8287 117.25 86.8287 117.826 86.8287 118.439Z" fill="#024D81"/>
<path d="M86.8064 55.5579C86.8064 56.4749 86.8064 57.3499 86.8064 58.2599C85.8649 58.3316 84.9426 58.4034 83.9941 58.4751C83.9941 57.5704 83.9941 56.7076 83.9941 55.8011C84.9164 55.7224 85.8386 55.6419 86.8064 55.5579Z" fill="#024D81"/>
<path d="M91.1113 118.908C91.1113 117.98 91.1113 117.103 91.1113 116.171C92.0546 116.284 92.9768 116.396 93.9183 116.508C93.9183 117.436 93.9183 118.337 93.9183 119.28C92.9751 119.156 92.0528 119.032 91.1113 118.908Z" fill="#024D81"/>
<path d="M93.9193 54.7161C93.9193 55.6436 93.9193 56.5466 93.9193 57.4898C92.9953 57.6018 92.0731 57.7138 91.1211 57.8293C91.1211 56.9106 91.1211 56.0233 91.1211 55.0923C92.0363 54.9698 92.9638 54.8438 93.9193 54.7161Z" fill="#024D81"/>
<path d="M80.4277 56.0183C81.3815 55.9658 82.2985 55.9133 83.2435 55.8608C83.2435 56.7533 83.2435 57.6161 83.2435 58.5261C82.3195 58.5803 81.392 58.6363 80.4277 58.6923C80.4277 57.7981 80.4277 56.9301 80.4277 56.0183Z" fill="#024D81"/>
<path d="M83.25 115.471C83.25 116.374 83.25 117.233 83.25 118.14C82.8072 118.119 82.368 118.098 81.9305 118.075C81.5122 118.052 81.094 118.043 80.6775 117.994C80.5742 117.982 80.4045 117.844 80.4027 117.758C80.3817 116.965 80.3905 116.171 80.3905 115.322C81.3565 115.371 82.2805 115.418 83.25 115.471Z" fill="#024D81"/>
<path d="M73.2891 117.79C73.2891 116.867 73.2891 116.022 73.2891 115.175C74.2393 115.175 75.1633 115.175 76.1048 115.175C76.1048 116.076 76.1048 116.936 76.1048 117.79C75.1598 117.79 74.2358 117.79 73.2891 117.79Z" fill="#024D81"/>
<path d="M76.8594 117.879C76.8594 116.949 76.8594 116.099 76.8594 115.261C77.7991 115.261 78.7231 115.261 79.6716 115.261C79.6716 116.169 79.6716 117.016 79.6716 117.879C78.7494 117.879 77.8254 117.879 76.8594 117.879Z" fill="#024D81"/>
<path d="M76.1041 58.8216C75.1661 58.8216 74.2491 58.8216 73.2988 58.8216C73.2988 57.9729 73.2988 57.1154 73.2988 56.2141C74.2298 56.2141 75.1556 56.2141 76.1041 56.2141C76.1041 57.0629 76.1041 57.9116 76.1041 58.8216Z" fill="#024D81"/>
<path d="M69.7051 58.8198C69.7051 57.9361 69.7051 57.0856 69.7051 56.2053C70.6396 56.2053 71.5653 56.2053 72.5173 56.2053C72.5173 57.0961 72.5173 57.9536 72.5173 58.8198C71.5793 58.8198 70.6518 58.8198 69.7051 58.8198Z" fill="#024D81"/>
<path d="M108.011 59.0107C108.011 59.926 108.011 60.7765 108.011 61.6672C107.094 61.823 106.183 61.977 105.232 62.138C105.232 61.2577 105.232 60.4282 105.232 59.5357C106.127 59.366 107.049 59.1927 108.011 59.0107Z" fill="#024D81"/>
<path d="M105.2 111.859C106.168 112.021 107.069 112.172 107.997 112.329C107.997 113.199 107.997 114.058 107.997 114.981C107.44 114.879 106.891 114.785 106.343 114.678C105.974 114.606 105.456 114.636 105.282 114.403C105.09 114.148 105.209 113.645 105.202 113.25C105.195 112.811 105.2 112.371 105.2 111.859Z" fill="#024D81"/>
<path d="M111.495 112.979C111.495 113.903 111.495 114.781 111.495 115.702C110.57 115.509 109.663 115.322 108.746 115.133C108.746 114.241 108.746 113.378 108.746 112.468C109.67 112.638 110.57 112.806 111.495 112.979Z" fill="#024D81"/>
<path d="M108.752 61.5374C108.752 60.6326 108.752 59.7699 108.752 58.8686C109.655 58.6796 110.563 58.4889 111.491 58.2964C111.491 59.1994 111.491 60.0761 111.491 61.0159C110.596 61.1874 109.688 61.3606 108.752 61.5374Z" fill="#024D81"/>
<path d="M111.491 54.8857C111.491 55.829 111.491 56.7075 111.491 57.6035C110.579 57.7977 109.683 57.9902 108.733 58.1932C108.733 57.3287 108.729 56.4957 108.74 55.6592C108.742 55.5962 108.84 55.5 108.91 55.4825C109.762 55.2777 110.618 55.0852 111.491 54.8857Z" fill="#024D81"/>
<path d="M101.695 62.677C101.695 61.7968 101.695 60.9778 101.695 60.1273C102.621 59.9733 103.536 59.8228 104.485 59.6653C104.485 60.5368 104.485 61.3803 104.485 62.2588C103.573 62.3935 102.658 62.5318 101.695 62.677Z" fill="#024D81"/>
<path d="M104.482 114.333C103.539 114.176 102.631 114.027 101.703 113.873C101.703 113.022 101.703 112.189 101.703 111.323C102.638 111.463 103.544 111.6 104.482 111.74C104.482 112.592 104.482 113.439 104.482 114.333Z" fill="#024D81"/>
<path d="M104.491 117.594C103.546 117.417 102.63 117.249 101.701 117.074C101.701 116.227 101.701 115.394 101.701 114.524C102.643 114.683 103.556 114.839 104.491 114.997C104.491 115.866 104.491 116.712 104.491 117.594Z" fill="#024D81"/>
<path d="M104.495 56.4082C104.495 57.271 104.495 58.118 104.495 59C103.569 59.1575 102.654 59.3132 101.681 59.4795C101.681 58.6517 101.675 57.8712 101.691 57.0942C101.693 57.0225 101.833 56.9087 101.924 56.8912C102.773 56.7197 103.625 56.5675 104.495 56.4082Z" fill="#024D81"/>
<path d="M90.3803 115.473C89.4178 115.378 88.4938 115.289 87.5488 115.198C87.5488 114.409 87.5488 113.642 87.5488 112.811C88.4868 112.893 89.4213 112.975 90.3803 113.059C90.3803 113.854 90.3803 114.631 90.3803 115.473Z" fill="#024D81"/>
<path d="M87.5371 112.198C87.5371 111.39 87.5371 110.637 87.5371 109.815C88.1496 109.857 88.7481 109.899 89.3466 109.941C89.4271 109.946 89.5059 109.965 89.5881 109.972C90.4071 110.049 90.4089 110.049 90.4071 110.907C90.4071 111.374 90.4036 111.841 90.4001 112.308C90.4001 112.335 90.3844 112.359 90.3581 112.436C89.4376 112.359 88.5049 112.28 87.5371 112.198Z" fill="#024D81"/>
<path d="M59.0234 64.8608C59.9632 64.9133 60.8854 64.9658 61.8322 65.0183C61.8322 65.8093 61.8322 66.5758 61.8322 67.3913C60.8942 67.3406 59.9702 67.2916 59.0234 67.2391C59.0234 66.4376 59.0234 65.6746 59.0234 64.8608Z" fill="#024D81"/>
<path d="M59.0215 112.142C59.0215 111.322 59.0215 110.557 59.0215 109.757C59.9647 109.698 60.887 109.638 61.8337 109.577C61.8337 110.377 61.8337 111.14 61.8337 111.943C60.8992 112.009 59.977 112.076 59.0215 112.142Z" fill="#024D81"/>
<path d="M59.0029 70.9158C59.9654 70.9158 60.8789 70.9158 61.8257 70.9158C61.8257 71.7523 61.8257 72.5258 61.8257 73.2398C60.9437 73.2398 60.0827 73.245 59.2217 73.2328C59.1482 73.231 59.0134 73.1173 59.0117 73.0525C58.9977 72.328 59.0029 71.6035 59.0029 70.9158Z" fill="#024D81"/>
<path d="M59.0234 76.2499C59.0234 75.3976 59.0234 74.6329 59.0234 73.8909C59.9649 73.8909 60.8819 73.8909 61.8287 73.8909C61.8287 74.7169 61.8287 75.4939 61.8287 76.2499C60.8907 76.2499 59.9737 76.2499 59.0234 76.2499Z" fill="#024D81"/>
<path d="M61.8376 106.605C61.8376 107.426 61.8376 108.177 61.8376 108.973C60.8979 109.031 59.9756 109.087 59.0254 109.146C59.0254 108.348 59.0254 107.583 59.0254 106.764C59.9494 106.714 60.8716 106.661 61.8376 106.605Z" fill="#024D81"/>
<path d="M61.8361 79.8496C61.8361 80.6669 61.8361 81.4194 61.8361 82.2069C60.9051 82.2069 59.9811 82.2069 59.0273 82.2069C59.0273 81.4001 59.0273 80.6266 59.0273 79.8496C59.9618 79.8496 60.8736 79.8496 61.8361 79.8496Z" fill="#024D81"/>
<path d="M61.8398 91.8127C61.8398 92.5775 61.8398 93.316 61.8398 94.121C60.907 94.121 59.9848 94.121 59.0293 94.121C59.0293 93.3947 59.0293 92.6212 59.0293 91.8127C59.9515 91.8127 60.8755 91.8127 61.8398 91.8127Z" fill="#024D81"/>
<path d="M59.0215 97.1096C59.0215 96.3694 59.0215 95.6064 59.0215 94.7874C59.9595 94.7874 60.8835 94.7874 61.832 94.7874C61.832 95.5259 61.832 96.2871 61.832 97.1096C60.894 97.1096 59.97 97.1096 59.0215 97.1096Z" fill="#024D81"/>
<path d="M76.1146 62.3899C76.1146 63.1581 76.1146 63.9001 76.1146 64.6841C75.1818 64.6841 74.2578 64.6841 73.2988 64.6841C73.2988 63.9456 73.2988 63.1861 73.2988 62.3899C74.2246 62.3899 75.1503 62.3899 76.1146 62.3899Z" fill="#024D81"/>
<path d="M72.5243 62.3828C72.5243 63.1878 72.5243 63.9386 72.5243 64.6946C71.5758 64.6946 70.6518 64.6946 69.7051 64.6946C69.7051 63.9088 69.7051 63.1598 69.7051 62.3828C70.6448 62.3828 71.5706 62.3828 72.5243 62.3828Z" fill="#024D81"/>
<path d="M69.7129 79.3476C69.7129 78.5811 69.7129 77.8303 69.7129 77.0498C70.6404 77.0498 71.5644 77.0498 72.5199 77.0498C72.5199 77.8076 72.5199 78.5653 72.5199 79.3476C71.5854 79.3476 70.6614 79.3476 69.7129 79.3476Z" fill="#024D81"/>
<path d="M69.7051 96.9487C69.7051 96.1839 69.7051 95.4332 69.7051 94.6492C70.6501 94.6492 71.5758 94.6492 72.5243 94.6492C72.5243 95.4052 72.5243 96.1577 72.5243 96.9487C71.5986 96.9487 70.6746 96.9487 69.7051 96.9487Z" fill="#024D81"/>
<path d="M68.9499 82.8965C68.9499 83.6875 68.9499 84.4417 68.9499 85.2117C68.0067 85.2117 67.0774 85.2117 66.1289 85.2117C66.1289 84.4277 66.1289 83.677 66.1289 82.8965C67.0652 82.8965 67.9927 82.8965 68.9499 82.8965Z" fill="#024D81"/>
<path d="M69.7207 82.9155C70.65 82.9155 71.5757 82.9155 72.526 82.9155C72.526 83.6803 72.526 84.431 72.526 85.2115C71.6037 85.2115 70.6797 85.2115 69.7207 85.2115C69.7207 84.459 69.7207 83.6995 69.7207 82.9155Z" fill="#024D81"/>
<path d="M62.5762 82.2349C62.5762 81.4422 62.5762 80.6897 62.5762 79.9197C63.5072 79.9197 64.4312 79.9197 65.3727 79.9197C65.3727 80.7142 65.3727 81.4667 65.3727 82.2349C64.4452 82.2349 63.5212 82.2349 62.5762 82.2349Z" fill="#024D81"/>
<path d="M68.946 88.7974C68.946 89.5744 68.946 90.3269 68.946 91.1039C67.9975 91.1039 67.07 91.1039 66.125 91.1039C66.125 90.3339 66.125 89.5814 66.125 88.7974C67.0612 88.7974 67.9887 88.7974 68.946 88.7974Z" fill="#024D81"/>
<path d="M72.5384 88.7905C72.5384 89.5728 72.5384 90.313 72.5384 91.0848C71.6057 91.0848 70.6817 91.0848 69.7227 91.0848C69.7227 90.334 69.7227 89.5745 69.7227 88.7905C70.6467 88.7905 71.5742 88.7905 72.5384 88.7905Z" fill="#024D81"/>
<path d="M65.3799 91.7722C65.3799 92.5317 65.3799 93.2842 65.3799 94.0735C64.4454 94.0735 63.5249 94.0735 62.5781 94.0735C62.5781 93.3245 62.5781 92.5737 62.5781 91.7722C63.4951 91.7722 64.4156 91.7722 65.3799 91.7722Z" fill="#024D81"/>
<path d="M65.3702 88.1746C64.4427 88.1746 63.5292 88.1746 62.5859 88.1746C62.5859 87.4011 62.5859 86.6416 62.5859 85.8506C63.5082 85.8506 64.4287 85.8506 65.3702 85.8506C65.3702 86.6258 65.3702 87.3906 65.3702 88.1746Z" fill="#024D81"/>
<path d="M62.5762 97.0276C62.5762 96.2926 62.5762 95.5401 62.5762 94.7368C63.5002 94.7368 64.4242 94.7368 65.3692 94.7368C65.3692 95.4683 65.3692 96.2191 65.3692 97.0276C64.4417 97.0276 63.5194 97.0276 62.5762 97.0276Z" fill="#024D81"/>
<path d="M62.5762 111.902C62.5762 111.104 62.5762 110.354 62.5762 109.542C63.5002 109.5 64.4224 109.458 65.3674 109.414C65.3674 110.214 65.3674 110.966 65.3674 111.769C64.4452 111.815 63.5229 111.859 62.5762 111.902Z" fill="#024D81"/>
<path d="M68.9546 103.503C68.9546 104.243 68.9546 104.983 68.9546 105.788C68.0219 105.788 67.0979 105.788 66.1406 105.788C66.1406 105.076 66.1406 104.313 66.1406 103.503C67.0611 103.503 67.9869 103.503 68.9546 103.503Z" fill="#024D81"/>
<path d="M62.5742 67.4613C62.5742 66.6126 62.5742 65.8601 62.5742 65.1321C63.507 65.1321 64.417 65.1321 65.3585 65.1321C65.3585 65.9546 65.3585 66.7158 65.3585 67.4613C64.4467 67.4613 63.5262 67.4613 62.5742 67.4613Z" fill="#024D81"/>
<path d="M66.1289 99.9133C66.1289 99.1626 66.1289 98.4136 66.1289 97.6208C67.0722 97.6208 67.9979 97.6208 68.9464 97.6208C68.9464 98.3611 68.9464 99.1083 68.9464 99.9133C68.0189 99.9133 67.0967 99.9133 66.1289 99.9133Z" fill="#024D81"/>
<path d="M65.3676 100.634C65.3676 101.364 65.3676 102.115 65.3676 102.939C64.4471 102.939 63.5266 102.939 62.5781 102.939C62.5781 102.222 62.5781 101.46 62.5781 100.634C63.5021 100.634 64.4244 100.634 65.3676 100.634Z" fill="#024D81"/>
<path d="M73.2852 111.616C73.2852 110.833 73.2852 110.083 73.2852 109.311C74.2214 109.311 75.1472 109.311 76.0992 109.311C76.0992 110.088 76.0992 110.837 76.0992 111.616C75.1839 111.616 74.2617 111.616 73.2852 111.616Z" fill="#024D81"/>
<path d="M69.7148 109.314C70.6616 109.314 71.5873 109.314 72.5288 109.314C72.5288 110.077 72.5288 110.826 72.5288 111.612C71.5943 111.612 70.6686 111.612 69.7148 111.612C69.7148 110.875 69.7148 110.126 69.7148 109.314Z" fill="#024D81"/>
<path d="M65.3692 105.914C64.4259 105.914 63.5107 105.914 62.5762 105.914C62.5762 105.183 62.5762 104.43 62.5762 103.609C63.5019 103.609 64.4259 103.609 65.3692 103.609C65.3692 104.32 65.3692 105.071 65.3692 105.914Z" fill="#024D81"/>
<path d="M66.1348 71.1436C67.0815 71.1436 68.0073 71.1436 68.9505 71.1436C68.9505 71.9416 68.9505 72.6923 68.9505 73.4536C68.0108 73.4536 67.0868 73.4536 66.1348 73.4536C66.1348 72.6626 66.1348 71.9118 66.1348 71.1436Z" fill="#024D81"/>
<path d="M62.5723 70.4066C62.5723 69.5858 62.5723 68.8473 62.5723 68.0913C63.498 68.0913 64.4185 68.0913 65.3653 68.0913C65.3653 68.9051 65.3653 69.6646 65.3653 70.4066C64.436 70.4066 63.5243 70.4066 62.5723 70.4066Z" fill="#024D81"/>
<path d="M65.3581 79.286C64.4271 79.286 63.5224 79.286 62.5879 79.286C62.5879 78.4985 62.5879 77.7355 62.5879 76.948C63.5014 76.948 64.4131 76.948 65.3581 76.948C65.3581 77.7425 65.3581 78.5037 65.3581 79.286Z" fill="#024D81"/>
<path d="M68.9585 91.741C68.9585 92.5005 68.9585 93.239 68.9585 94.0247C68.0152 94.0247 67.0807 94.0247 66.127 94.0247C66.127 93.274 66.127 92.525 66.127 91.741C67.0667 91.741 67.9907 91.741 68.9585 91.741Z" fill="#024D81"/>
<path d="M66.1367 65.2598C67.0905 65.2598 68.0162 65.2598 68.9525 65.2598C68.9525 66.07 68.9525 66.8208 68.9525 67.575C68.0127 67.575 67.0887 67.575 66.1367 67.575C66.1367 66.7683 66.1367 66.007 66.1367 65.2598Z" fill="#024D81"/>
<path d="M62.5898 97.6697C63.5173 97.6697 64.4308 97.6697 65.3671 97.6697C65.3671 98.4134 65.3671 99.1747 65.3671 99.9954C64.4501 99.9954 63.5366 99.9954 62.5898 99.9954C62.5898 99.2692 62.5898 98.5079 62.5898 97.6697Z" fill="#024D81"/>
<path d="M66.1289 111.67C66.1289 110.94 66.1289 110.189 66.1289 109.384C67.0722 109.384 67.9979 109.384 68.9464 109.384C68.9464 110.107 68.9464 110.858 68.9464 111.67C68.0189 111.67 67.0949 111.67 66.1289 111.67Z" fill="#024D81"/>
<path d="M68.9581 112.323C68.9581 113.066 68.9581 113.81 68.9581 114.622C68.0236 114.622 67.0996 114.622 66.1406 114.622C66.1406 113.908 66.1406 113.147 66.1406 112.323C67.0699 112.323 67.9956 112.323 68.9581 112.323Z" fill="#024D81"/>
<path d="M66.1289 108.733C66.1289 108 66.1289 107.249 66.1289 106.441C67.0652 106.441 67.9909 106.441 68.9429 106.441C68.9429 107.169 68.9429 107.918 68.9429 108.733C68.0189 108.733 67.0844 108.733 66.1289 108.733Z" fill="#024D81"/>
<path d="M72.5284 74.1113C72.5284 74.9093 72.5284 75.6583 72.5284 76.4161C71.5834 76.4161 70.6577 76.4161 69.7109 76.4161C69.7109 75.6321 69.7109 74.8831 69.7109 74.1113C70.6437 74.1113 71.5694 74.1113 72.5284 74.1113Z" fill="#024D81"/>
<path d="M68.9406 76.3934C68.0061 76.3934 67.0909 76.3934 66.1406 76.3934C66.1406 75.6094 66.1406 74.8499 66.1406 74.0764C67.0611 74.0764 67.9869 74.0764 68.9406 74.0764C68.9406 74.8587 68.9406 75.6077 68.9406 76.3934Z" fill="#024D81"/>
<path d="M69.7129 85.8486C70.6614 85.8486 71.5854 85.8486 72.5286 85.8486C72.5286 86.6239 72.5286 87.3711 72.5286 88.1411C71.5871 88.1411 70.6631 88.1411 69.7129 88.1411C69.7129 87.3834 69.7129 86.6344 69.7129 85.8486Z" fill="#024D81"/>
<path d="M73.2949 112.247C74.2417 112.247 75.1569 112.247 76.1002 112.247C76.1002 113.019 76.1002 113.768 76.1002 114.547C75.1727 114.547 74.2487 114.547 73.2949 114.547C73.2949 113.77 73.2949 113.023 73.2949 112.247Z" fill="#024D81"/>
<path d="M73.2852 61.7372C73.2852 60.9882 73.2852 60.248 73.2852 59.4692C74.2092 59.4692 75.1367 59.4692 76.0974 59.4692C76.0974 60.1972 76.0974 60.9462 76.0974 61.7372C75.1874 61.7372 74.2617 61.7372 73.2852 61.7372Z" fill="#024D81"/>
<path d="M68.9412 82.2645C67.9979 82.2645 67.0722 82.2645 66.1289 82.2645C66.1289 81.4892 66.1289 80.7367 66.1289 79.9597C67.0652 79.9597 67.9909 79.9597 68.9412 79.9597C68.9412 80.7315 68.9412 81.4927 68.9412 82.2645Z" fill="#024D81"/>
<path d="M69.7129 97.5876C70.6631 97.5876 71.5801 97.5876 72.5216 97.5876C72.5216 98.3489 72.5216 99.0979 72.5216 99.8801C71.5941 99.8801 70.6666 99.8801 69.7129 99.8801C69.7129 99.1311 69.7129 98.3804 69.7129 97.5876Z" fill="#024D81"/>
<path d="M114.892 97.649C114.717 95.878 114.255 94.1962 113.372 92.6387C113.097 92.154 112.81 91.8688 112.211 91.9265C111.718 91.9738 111.212 91.8933 110.712 91.8705C110.068 91.8408 109.424 91.811 108.757 91.7795C108.757 90.7978 108.741 89.8615 108.766 88.927C108.773 88.6365 108.675 88.4983 108.421 88.4213C107.308 88.087 106.2 87.723 105.078 87.4185C104.433 87.2435 103.761 87.1648 103.083 87.0388C103.083 86.7063 103.083 86.4035 103.083 86.1008C103.083 85.0175 103.085 85.0228 104.104 84.6623C105.873 84.0375 107.623 83.3778 109.123 82.186C110.799 80.8525 112.005 79.1708 112.715 77.1355C113.359 75.298 113.415 73.3853 113.279 71.462C113.174 69.9868 112.843 68.5605 112.159 67.2428C111.623 66.2103 110.853 65.3773 109.873 64.7718C107.794 63.489 105.505 63.1443 103.12 63.279C102.424 63.3193 101.725 63.3665 101.018 63.4103C101.004 63.1705 100.992 62.9728 100.982 62.7645C100.049 62.8835 99.1599 62.9955 98.2552 63.1093C98.2552 62.2553 98.2552 61.473 98.2552 60.668C99.1739 60.5298 100.079 60.3933 100.985 60.255C100.985 59.1683 100.985 58.1253 100.985 57.0928C97.6829 57.56 94.3964 58.0255 91.0819 58.4945C91.0819 60.4948 91.0819 62.4898 91.0819 64.5548C89.0082 64.6493 86.9589 64.7438 84.8852 64.8383C84.8852 64.0035 84.8852 63.223 84.8852 62.4198C85.7759 62.3673 86.6474 62.3183 87.5084 62.2693C87.5084 61.074 87.5084 59.9418 87.5084 58.8568C83.9367 59.0563 80.4034 59.2558 76.8299 59.4553C76.8299 61.3925 76.8299 63.314 76.8299 65.2775C74.4377 65.2775 72.0857 65.2775 69.7109 65.2775C69.7109 66.275 69.7109 67.2305 69.7109 68.2595C70.6472 68.2595 71.5607 68.2595 72.4794 68.2595C72.4794 69.082 72.4794 69.8293 72.4794 70.5643C71.5327 70.5643 70.6174 70.5643 69.7179 70.5643C69.7179 71.5443 69.7179 72.5015 69.7179 73.5008C70.9079 73.5008 72.0664 73.5008 73.2809 73.5008C73.2809 76.6595 73.2809 79.778 73.2809 82.9333C74.2224 82.9333 75.1114 82.9333 76.0022 82.9333C76.0022 83.7068 76.0022 84.44 76.0022 85.2153C75.0852 85.2153 74.1962 85.2153 73.2897 85.2153C73.2897 86.4228 73.2897 87.5848 73.2897 88.8028C74.2102 88.8028 75.1079 88.8028 76.0144 88.8028C76.0144 89.5798 76.0144 90.306 76.0144 91.0865C75.0992 91.0865 74.1997 91.0865 73.2547 91.0865C73.2547 94.247 73.2547 97.355 73.2547 100.501C72.0454 100.501 70.8869 100.501 69.7197 100.501C69.7197 102.507 69.7197 104.47 69.7197 106.434C70.6367 106.434 71.5257 106.434 72.4689 106.434C72.4689 107.188 72.4689 107.921 72.4689 108.714C73.9529 108.714 75.3844 108.714 76.8649 108.714C76.8649 110.709 76.8649 112.643 76.8649 114.564C79.2782 114.673 81.6389 114.78 84.0609 114.886C84.0609 114.13 84.0609 113.397 84.0609 112.634C85.0059 112.718 85.8914 112.795 86.8224 112.877C86.8224 111.617 86.8224 110.398 86.8224 109.131C88.2714 109.243 89.6697 109.351 91.1064 109.463C91.1064 111.511 91.1064 113.516 91.1064 115.492C94.4244 115.961 97.7022 116.425 101.015 116.894C101.015 114.79 101.015 112.701 101.015 110.571C101.608 110.613 102.135 110.651 102.66 110.69C104.478 110.819 106.281 110.795 108.06 110.31C111.343 109.418 113.575 107.435 114.472 104.031C115.027 101.94 115.104 99.8032 114.892 97.649ZM108.787 68.4695C109.662 68.3383 110.551 68.207 111.49 68.067C111.49 68.9893 111.49 69.88 111.49 70.818C110.603 70.9283 109.711 71.0403 108.787 71.1558C108.787 70.258 108.787 69.3883 108.787 68.4695ZM108.776 75.3418C109.677 75.256 110.561 75.172 111.478 75.0845C111.478 75.9963 111.478 76.894 111.478 77.8408C110.593 77.9003 109.698 77.9615 108.776 78.0228C108.776 77.0918 108.776 76.229 108.776 75.3418ZM80.4647 68.0093C81.4062 67.962 82.3162 67.9183 83.2507 67.8728C83.2507 68.6708 83.2507 69.4198 83.2507 70.2108C82.3179 70.2528 81.4062 70.2965 80.4647 70.3385C80.4647 69.5545 80.4647 68.8055 80.4647 68.0093ZM82.1569 77.069C82.1569 77.8093 82.1569 78.5425 82.1569 79.3108C81.2522 79.3108 80.3404 79.3108 79.3972 79.3108C79.3972 78.581 79.3972 77.8478 79.3972 77.069C80.3194 77.069 81.2224 77.069 82.1569 77.069ZM76.9209 68.116C77.8414 68.116 78.7409 68.116 79.6667 68.116C79.6667 68.8283 79.6667 69.5773 79.6667 70.3858C78.7514 70.3858 77.8502 70.3858 76.9209 70.3858C76.9209 69.6788 76.9209 68.9298 76.9209 68.116ZM75.4054 76.3935C75.4054 75.6323 75.4054 74.8938 75.4054 74.1325C76.3224 74.1325 77.2359 74.1325 78.1774 74.1325C78.1774 74.8973 78.1774 75.6323 78.1774 76.3935C77.2342 76.3935 76.3294 76.3935 75.4054 76.3935ZM76.1107 105.783C75.1884 105.783 74.2784 105.783 73.3422 105.783C73.3422 105.06 73.3422 104.311 73.3422 103.515C74.2609 103.515 75.1622 103.515 76.1107 103.515C76.1107 104.252 76.1107 104.988 76.1107 105.783ZM78.9667 99.868C78.0339 99.868 77.1222 99.868 76.1859 99.868C76.1859 99.1312 76.1859 98.3945 76.1859 97.621C77.1047 97.621 78.0147 97.621 78.9667 97.621C78.9667 98.3665 78.9667 99.1032 78.9667 99.868ZM78.9684 96.9245C78.0409 96.9245 77.1292 96.9245 76.1894 96.9245C76.1894 96.193 76.1894 95.458 76.1894 94.6792C77.1117 94.6792 78.0217 94.6792 78.9684 94.6792C78.9684 95.4317 78.9684 96.158 78.9684 96.9245ZM79.0577 85.8575C79.9694 85.8575 80.8794 85.8575 81.8104 85.8575C81.8104 86.6118 81.8104 87.3625 81.8104 88.1378C80.9004 88.1378 80.0009 88.1378 79.0577 88.1378C79.0577 87.373 79.0577 86.6328 79.0577 85.8575ZM83.2612 111.598C82.3372 111.598 81.4149 111.598 80.4699 111.598C80.4699 110.839 80.4699 110.114 80.4699 109.353C81.3939 109.353 82.3144 109.353 83.2612 109.353C83.2612 110.097 83.2612 110.835 83.2612 111.598ZM85.6744 72.127C85.9107 72.1113 93.4024 71.7333 94.3054 71.7088C100.149 71.5583 99.9912 74.1115 100.033 75.97C100.11 79.3808 98.7119 82.4485 91.6857 82.9998C91.4477 83.0173 85.7567 83.2605 85.6744 83.2605C85.6744 79.5383 85.6744 75.8493 85.6744 72.127ZM90.4659 106.124C90.0057 106.103 88.1769 106.016 87.7097 105.995C87.7097 105.23 87.7097 104.469 87.7097 103.746C88.6214 103.746 89.5332 103.746 90.4659 103.746C90.4659 104.568 90.4659 105.321 90.4659 106.124ZM97.5744 106.639C96.8919 106.586 95.0544 106.439 94.8199 106.422C94.8199 105.636 94.8199 104.864 94.8199 104.042C95.5199 104.092 96.2007 104.14 96.8867 104.187C97.1159 104.204 97.3452 104.218 97.5744 104.236C97.5744 105.039 97.5744 105.813 97.5744 106.639ZM101.419 99.2222C101.249 99.8715 100.772 102.306 95.1314 102.299C93.7507 102.297 85.8722 101.968 85.6709 101.968C85.6709 98.2107 85.6709 94.5497 85.6709 90.8328C85.8459 90.8328 90.8527 90.9413 91.6839 90.9868C100.474 91.461 100.686 93.1848 101.578 96.3925C101.836 97.313 101.664 98.2912 101.419 99.2222ZM111.489 102.418C110.584 102.311 109.7 102.206 108.788 102.097C108.788 101.215 108.788 100.342 108.788 99.4077C109.676 99.4952 110.568 99.581 111.489 99.6702C111.489 100.61 111.489 101.497 111.489 102.418Z" fill="#024D81"/>
</g>
<defs>
<filter id="filter0_d_1837_1422" x="0.142578" y="0.14209" width="173.137" height="173.137" filterUnits="userSpaceOnUse" color-interpolation-filters="sRGB">
<feFlood flood-opacity="0" result="BackgroundImageFix"/>
<feColorMatrix in="SourceAlpha" type="matrix" values="0 0 0 0 0 0 0 0 0 0 0 0 0 0 0 0 0 0 127 0" result="hardAlpha"/>
<feOffset/>
<feGaussianBlur stdDeviation="10"/>
<feComposite in2="hardAlpha" operator="out"/>
<feColorMatrix type="matrix" values="0 0 0 0 0 0 0 0 0 0 0 0 0 0 0 0 0 0 0.1 0"/>
<feBlend mode="normal" in2="BackgroundImageFix" result="effect1_dropShadow_1837_1422"/>
<feBlend mode="normal" in="SourceGraphic" in2="effect1_dropShadow_1837_1422" result="shape"/>
</filter>
<clipPath id="clip0_1837_1422">
<rect width="70" height="70" fill="white" transform="translate(52 52)"/>
</clipPath>
</defs>
</svg>
