<svg width="90" height="90" viewBox="0 0 90 90" fill="none" xmlns="http://www.w3.org/2000/svg">
<path d="M51.4311 15.3539L51.4311 15.3539L51.4409 15.3635L66.2801 29.746L45.5832 39.6718L25.0125 29.7493L39.8945 15.3644L39.8999 15.3592L39.9052 15.3539C40.6506 14.6113 41.5444 14.0192 42.5348 13.6142C43.5252 13.2091 44.5908 13 45.6682 13C46.7456 13 47.8112 13.2091 48.8016 13.6142C49.7919 14.0192 50.6858 14.6113 51.4311 15.3539ZM76.5492 39.9999L76.5564 40.0068L76.5638 40.0136C77.3366 40.7312 77.9494 41.5904 78.3673 42.5386L79.2823 42.1353L78.3673 42.5386C78.7851 43.4867 79 44.5052 79 45.5335C79 46.5617 78.7851 47.5803 78.3673 48.5284L79.2823 48.9317L78.3673 48.5284C77.9494 49.4766 77.3366 50.3357 76.5638 51.0533L76.5546 51.0618L76.5457 51.0705L51.1854 75.8254L51.1808 75.83C51.0629 75.9466 50.9405 76.0588 50.8139 76.1664V48.6198L73.9032 37.4423L76.5492 39.9999ZM40.189 48.6198V76.1656C40.0622 76.0579 39.9394 75.9455 39.8207 75.8286L39.8174 75.8254L14.4543 51.0705L14.4454 51.0618L14.4362 51.0533C13.6634 50.3357 13.0506 49.4766 12.6327 48.5284L11.7199 48.9307L12.6327 48.5284C12.2149 47.5803 12 46.5617 12 45.5335C12 44.5052 12.2149 43.4867 12.6327 42.5386C13.0506 41.5904 13.6634 40.7312 14.4362 40.0136L14.4436 40.0068L14.4508 39.9998L17.0968 37.4422L40.189 48.6198Z" stroke="#024D81" stroke-width="2"/>
</svg>
