<svg width="90" height="90" viewBox="0 0 90 90" fill="none" xmlns="http://www.w3.org/2000/svg">
<path d="M15.8333 15.75H14.8333V16.75V34V35H15.8333H74.1667H75.1667V34V16.75V15.75H74.1667H15.8333ZM56.6667 56H55.6667V57V74.25V75.25H56.6667H74.1667H75.1667V74.25V57V56H74.1667H56.6667ZM11 69.5H38.1667V73.25H11V69.5ZM11 52.25H38.1667V56H11V52.25ZM74.1667 38.75H15.8333C14.5468 38.75 13.3159 38.2461 12.4105 37.3537C11.5057 36.4617 11 35.2551 11 34V16.75C11 15.4949 11.5057 14.2883 12.4105 13.3963C13.3159 12.5039 14.5468 12 15.8333 12H74.1667C75.4532 12 76.6841 12.5039 77.5895 13.3963C78.4943 14.2883 79 15.4949 79 16.75V34C79 35.2551 78.4943 36.4617 77.5895 37.3537C76.6841 38.2461 75.4532 38.75 74.1667 38.75ZM74.1667 79H56.6667C55.3802 79 54.1492 78.4961 53.2439 77.6037C52.339 76.7117 51.8333 75.5051 51.8333 74.25V57C51.8333 55.7449 52.339 54.5383 53.2439 53.6463C54.1492 52.7539 55.3802 52.25 56.6667 52.25H74.1667C75.4532 52.25 76.6841 52.7539 77.5895 53.6463C78.4943 54.5383 79 55.7449 79 57V74.25C79 75.5051 78.4943 76.7117 77.5895 77.6037C76.6841 78.4961 75.4532 79 74.1667 79Z" stroke="white" stroke-width="2"/>
</svg>
