<svg width="90" height="90" viewBox="0 0 90 90" fill="none" xmlns="http://www.w3.org/2000/svg">
<path d="M23 45H37" stroke="white" stroke-width="3"/>
<path d="M26 10V20.0517H18.5C16.8957 20.0517 15.3654 20.7065 14.2434 21.8586C13.1228 23.0093 12.5 24.5617 12.5 26.1724V72.3793C12.5 73.99 13.1228 75.5424 14.2434 76.6932C15.3654 77.8452 16.8957 78.5 18.5 78.5H72.5C74.1043 78.5 75.6346 77.8452 76.7566 76.6932C77.8772 75.5424 78.5 73.99 78.5 72.3793V26.1724C78.5 24.5617 77.8772 23.0093 76.7566 21.8586C75.6346 20.7065 74.1043 20.0517 72.5 20.0517H65V10H62V20.0517H29V10H26Z" stroke="white" stroke-width="3"/>
<path d="M23 59H37" stroke="white" stroke-width="3"/>
<path d="M54 45H68" stroke="white" stroke-width="3"/>
<path d="M54 59H68" stroke="white" stroke-width="3"/>
</svg>
