<svg width="90" height="90" viewBox="0 0 90 90" fill="none" xmlns="http://www.w3.org/2000/svg">
<path d="M22.0325 12L18.5125 15.5424L23.75 20.8181L27.265 17.2757L22.03 12H22.0325ZM67.97 12L62.7325 17.2757L66.25 20.8181L71.485 15.5449L67.9675 12H67.97ZM45 13.5721C44.175 13.5822 43.34 13.6301 42.5 13.7334C42.475 13.7334 42.45 13.7284 42.425 13.7334C32.285 14.9049 24.215 23.1612 22.8125 33.3348C21.6925 41.523 25.0425 48.9479 30.625 53.7298C32.9085 55.6938 34.4531 58.389 35 61.3638V76.4805H40.7C41.57 77.9847 43.1575 79 45 79C46.8425 79 48.43 77.9847 49.3 76.4805H55V66.4027H55.235V63.4096C55.235 59.7161 57.14 55.9923 60.235 53.0974C64.375 48.9202 67.5 42.9868 67.5 36.1717C67.5 23.7256 57.335 13.4562 45 13.5721V13.5721ZM45 18.6111C54.6625 18.475 62.5 26.4466 62.5 36.1717C62.5 41.4474 60.075 46.0933 56.7175 49.4744L56.7975 49.5551C53.4609 52.6558 51.3034 56.8333 50.6975 61.3663H39.7625C39.2125 57.0479 37.375 52.8682 33.9025 49.87C29.485 46.0908 26.8525 40.3968 27.7325 33.9672C28.825 26.0309 35.215 19.6491 43.045 18.7748C43.6915 18.684 44.3425 18.6302 44.995 18.6136L45 18.6111ZM10 36.1717V41.2106H17.5V36.1717H10ZM72.5 36.1717V41.2106H80V36.1717H72.5ZM23.75 56.5642L18.515 61.8374L22.0325 65.3823L27.2625 60.1066L23.75 56.5642ZM66.25 56.5642L62.735 60.1066L67.9675 65.3823L71.485 61.8374L66.25 56.5642ZM40 66.4052H50V71.4441H40V66.4052Z" stroke="#024D81" stroke-width="2"/>
</svg>
