<svg width="102" height="91" viewBox="0 0 102 91" fill="none" xmlns="http://www.w3.org/2000/svg">
<path d="M94.025 84.8875H7.64156C7.48461 84.8875 7.32921 84.8565 7.1843 84.7962C7.03939 84.7359 6.90784 84.6476 6.7972 84.5362C6.68657 84.4249 6.59905 84.2928 6.53966 84.1475C6.48028 84.0023 6.45021 83.8467 6.4512 83.6897V7.72943C6.4512 7.41373 6.57661 7.11095 6.79985 6.88771C7.02308 6.66448 7.32586 6.53906 7.64156 6.53906C7.95727 6.53906 8.26004 6.66448 8.48328 6.88771C8.70652 7.11095 8.83193 7.41373 8.83193 7.72943V82.4994H94.0176C94.318 82.5231 94.5984 82.6592 94.8029 82.8805C95.0074 83.1018 95.121 83.3921 95.121 83.6934C95.121 83.9948 95.0074 84.2851 94.8029 84.5064C94.5984 84.7277 94.318 84.8638 94.0176 84.8875H94.025Z" fill="#232B36"/>
<path d="M13.3167 8.06485C13.1593 8.06556 13.0032 8.03502 12.8576 7.975C12.712 7.91498 12.5798 7.82667 12.4686 7.71518L7.64016 2.89419L2.81918 7.71518C2.59621 7.93913 2.29341 8.06534 1.97739 8.06604C1.66137 8.06673 1.35802 7.94187 1.13406 7.7189C0.91011 7.49593 0.783904 7.19313 0.783206 6.87711C0.782508 6.56109 0.907378 6.25774 1.13034 6.03378L6.79947 0.364663C7.02626 0.149045 7.32723 0.0288086 7.64016 0.0288086C7.95309 0.0288086 8.25406 0.149045 8.48086 0.364663L14.15 6.03378C14.2611 6.14378 14.3493 6.27472 14.4095 6.41902C14.4697 6.56332 14.5007 6.71813 14.5007 6.87448C14.5007 7.03084 14.4697 7.18564 14.4095 7.32994C14.3493 7.47425 14.2611 7.60518 14.15 7.71518C14.0415 7.82622 13.9119 7.91438 13.7688 7.97444C13.6257 8.0345 13.4719 8.06525 13.3167 8.06485Z" fill="#232B36"/>
<path d="M95.221 90.0289C94.986 90.0264 94.7568 89.9549 94.5621 89.8231C94.3674 89.6913 94.2158 89.5051 94.1262 89.2878C94.0365 89.0705 94.0128 88.8315 94.058 88.6008C94.1032 88.3701 94.2153 88.1578 94.3803 87.9904L98.6582 83.7125L94.3803 79.4346C94.1574 79.2106 94.0325 78.9073 94.0332 78.5913C94.0339 78.2753 94.1601 77.9725 94.3841 77.7495C94.608 77.5265 94.9114 77.4016 95.2274 77.4023C95.5434 77.403 95.8462 77.5293 96.0692 77.7532L101.188 82.8718C101.411 83.0962 101.536 83.3998 101.536 83.7162C101.536 84.0326 101.411 84.3362 101.188 84.5606L96.0692 89.6792C95.8427 89.9016 95.5385 90.0271 95.221 90.0289V90.0289Z" fill="#232B36"/>
<path d="M35.4585 84.8882C35.1408 84.8882 34.8362 84.762 34.6115 84.5374C34.3869 84.3127 34.2607 84.0081 34.2607 83.6904V58.038H17.6849V83.6681C17.6979 83.8328 17.6767 83.9985 17.6226 84.1546C17.5684 84.3107 17.4826 84.454 17.3705 84.5753C17.2583 84.6967 17.1223 84.7935 16.9709 84.8598C16.8195 84.926 16.656 84.9602 16.4908 84.9602C16.3255 84.9602 16.1621 84.926 16.0107 84.8598C15.8593 84.7935 15.7232 84.6967 15.6111 84.5753C15.4989 84.454 15.4131 84.3107 15.359 84.1546C15.3049 83.9985 15.2837 83.8328 15.2967 83.6681V56.8848C15.2967 56.5671 15.4229 56.2625 15.6475 56.0378C15.8722 55.8132 16.1768 55.687 16.4945 55.687H35.4585C35.7749 55.689 36.0777 55.816 36.3007 56.0405C36.5237 56.2649 36.6489 56.5684 36.6489 56.8848V83.6681C36.6518 83.8266 36.6233 83.9842 36.5649 84.1316C36.5065 84.279 36.4194 84.4134 36.3087 84.5269C36.1979 84.6404 36.0658 84.7308 35.9198 84.7928C35.7739 84.8548 35.6171 84.8872 35.4585 84.8882V84.8882Z" fill="#232B36"/>
<path d="M88.2655 84.8876C87.9491 84.8856 87.6464 84.7586 87.4234 84.5342C87.2003 84.3097 87.0752 84.0062 87.0752 83.6898V46.8777H70.4993V83.6675C70.5123 83.8322 70.4911 83.9979 70.437 84.154C70.3829 84.3101 70.2971 84.4534 70.1849 84.5748C70.0728 84.6961 69.9367 84.793 69.7853 84.8592C69.6339 84.9254 69.4705 84.9596 69.3052 84.9596C69.14 84.9596 68.9765 84.9254 68.8251 84.8592C68.6737 84.793 68.5377 84.6961 68.4255 84.5748C68.3134 84.4534 68.2276 84.3101 68.1734 84.154C68.1193 83.9979 68.0981 83.8322 68.1111 83.6675V45.7245C68.1111 45.4088 68.2366 45.1061 68.4598 44.8828C68.683 44.6596 68.9858 44.5342 69.3015 44.5342H88.2655C88.5819 44.5342 88.8855 44.6593 89.1099 44.8824C89.3343 45.1054 89.4614 45.4082 89.4633 45.7245V83.6675C89.4663 83.8267 89.4375 83.9848 89.3787 84.1327C89.3198 84.2806 89.232 84.4153 89.1205 84.5289C89.009 84.6425 88.8759 84.7328 88.7291 84.7944C88.5823 84.8559 88.4247 84.8876 88.2655 84.8876V84.8876Z" fill="#232B36"/>
<path d="M61.4667 84.8881C61.1503 84.8862 60.8476 84.7591 60.6245 84.5347C60.4015 84.3103 60.2763 84.0067 60.2763 83.6903V34.8109H43.7005V83.6903C43.7135 83.8551 43.6923 84.0207 43.6382 84.1769C43.5841 84.333 43.4982 84.4762 43.3861 84.5976C43.2739 84.719 43.1379 84.8158 42.9865 84.882C42.8351 84.9483 42.6716 84.9825 42.5064 84.9825C42.3411 84.9825 42.1777 84.9483 42.0263 84.882C41.8749 84.8158 41.7389 84.719 41.6267 84.5976C41.5145 84.4762 41.4287 84.333 41.3746 84.1769C41.3205 84.0207 41.2993 83.8551 41.3123 83.6903V33.6205C41.3123 33.3029 41.4385 32.9982 41.6631 32.7736C41.8878 32.5489 42.1924 32.4227 42.5101 32.4227H61.4667C61.6265 32.4188 61.7855 32.4468 61.9342 32.5052C62.083 32.5636 62.2186 32.6512 62.333 32.7629C62.4474 32.8745 62.5383 33.0079 62.6003 33.1552C62.6624 33.3025 62.6943 33.4607 62.6943 33.6205V83.6903C62.6943 83.8502 62.6624 84.0084 62.6003 84.1557C62.5383 84.303 62.4474 84.4364 62.333 84.548C62.2186 84.6596 62.083 84.7472 61.9342 84.8057C61.7855 84.8641 61.6265 84.8921 61.4667 84.8881Z" fill="#232B36"/>
<path d="M78.7876 34.0225C77.6251 34.0225 76.4888 33.6777 75.5223 33.0319C74.5557 32.3861 73.8024 31.4682 73.3576 30.3942C72.9127 29.3203 72.7963 28.1385 73.0231 26.9984C73.2499 25.8583 73.8096 24.811 74.6316 23.989C75.4536 23.1671 76.5008 22.6073 77.641 22.3805C78.7811 22.1537 79.9628 22.2701 81.0368 22.715C82.1108 23.1598 83.0287 23.9131 83.6745 24.8797C84.3203 25.8462 84.665 26.9826 84.665 28.145C84.665 28.9169 84.513 29.6811 84.2176 30.3942C83.9223 31.1073 83.4893 31.7552 82.9436 32.301C82.3978 32.8468 81.7499 33.2797 81.0368 33.5751C80.3237 33.8704 79.5594 34.0225 78.7876 34.0225V34.0225ZM78.7876 24.6558C78.0975 24.6558 77.4229 24.8604 76.8491 25.2438C76.2753 25.6272 75.828 26.1722 75.5639 26.8097C75.2998 27.4473 75.2307 28.1489 75.3654 28.8257C75.5 29.5026 75.8323 30.1243 76.3203 30.6123C76.8083 31.1003 77.43 31.4326 78.1069 31.5672C78.7837 31.7019 79.4853 31.6328 80.1229 31.3687C80.7605 31.1046 81.3054 30.6574 81.6888 30.0835C82.0722 29.5097 82.2769 28.8351 82.2769 28.145C82.2749 27.2202 81.9066 26.3338 81.2527 25.6799C80.5988 25.026 79.7124 24.6577 78.7876 24.6558V24.6558Z" fill="#232B36"/>
<path d="M51.9888 16.375C50.826 16.375 49.6894 16.0301 48.7227 15.3839C47.756 14.7378 47.0026 13.8194 46.558 12.745C46.1134 11.6706 45.9974 10.4885 46.2248 9.34819C46.4522 8.20787 47.0127 7.16063 47.8354 6.33895C48.6581 5.51727 49.7061 4.95809 50.8467 4.73215C51.9873 4.50621 53.1693 4.62366 54.2431 5.06965C55.317 5.51564 56.2344 6.27012 56.8793 7.23764C57.5242 8.20516 57.8677 9.34223 57.8662 10.505C57.8623 12.0619 57.2415 13.5538 56.1399 14.654C55.0383 15.7542 53.5457 16.373 51.9888 16.375V16.375ZM51.9888 7.00829C51.2969 7.00682 50.6201 7.21065 50.0441 7.59397C49.4681 7.9773 49.0187 8.52289 48.7529 9.1617C48.4871 9.80051 48.4168 10.5038 48.5509 11.1826C48.685 11.8614 49.0174 12.4851 49.5062 12.9749C49.9949 13.4647 50.6179 13.7984 51.2964 13.934C51.9749 14.0695 52.6784 14.0007 53.3177 13.7362C53.9571 13.4718 54.5037 13.0236 54.8882 12.4484C55.2728 11.8732 55.478 11.1969 55.478 10.505C55.4702 9.58407 55.0994 8.70341 54.446 8.05428C53.7927 7.40516 52.9097 7.03998 51.9888 7.03805V7.00829Z" fill="#232B36"/>
<path d="M25.9712 46.1343C24.8087 46.1343 23.6724 45.7896 22.7059 45.1437C21.7393 44.4979 20.986 43.58 20.5411 42.506C20.0963 41.4321 19.9799 40.2503 20.2067 39.1102C20.4335 37.9701 20.9932 36.9228 21.8152 36.1009C22.6372 35.2789 23.6844 34.7191 24.8246 34.4923C25.9647 34.2655 27.1464 34.3819 28.2204 34.8268C29.2943 35.2716 30.2123 36.025 30.8581 36.9915C31.5039 37.958 31.8486 39.0944 31.8486 40.2568C31.8447 41.8144 31.2242 43.3071 30.1228 44.4085C29.0214 45.5099 27.5288 46.1303 25.9712 46.1343V46.1343ZM25.9712 36.7676C25.2811 36.7676 24.6065 36.9722 24.0327 37.3556C23.4589 37.739 23.0116 38.284 22.7475 38.9215C22.4834 39.5591 22.4143 40.2607 22.549 40.9376C22.6836 41.6144 23.0159 42.2361 23.5039 42.7241C23.9919 43.2121 24.6136 43.5444 25.2905 43.679C25.9673 43.8137 26.6689 43.7446 27.3065 43.4805C27.9441 43.2164 28.489 42.7692 28.8724 42.1954C29.2558 41.6216 29.4605 40.9469 29.4605 40.2568C29.4614 39.7976 29.372 39.3428 29.1971 38.9181C29.0223 38.4935 28.7656 38.1075 28.4416 37.7821C28.1175 37.4567 27.7326 37.1983 27.3088 37.0217C26.8849 36.8451 26.4304 36.7537 25.9712 36.7527V36.7676Z" fill="#232B36"/>
<path d="M75.0307 26.5527C74.7916 26.5526 74.5581 26.4799 74.3611 26.3444L55.4938 13.6373C55.3581 13.5526 55.2409 13.4414 55.1491 13.3104C55.0573 13.1794 54.9928 13.0313 54.9596 12.8748C54.9263 12.7184 54.925 12.5568 54.9555 12.3998C54.9861 12.2428 55.048 12.0936 55.1375 11.9611C55.2271 11.8285 55.3424 11.7154 55.4766 11.6284C55.6108 11.5414 55.7612 11.4824 55.9188 11.4548C56.0763 11.4273 56.2378 11.4317 56.3936 11.468C56.5494 11.5042 56.6963 11.5714 56.8255 11.6657L75.6928 24.3729C75.9051 24.5148 76.0661 24.7213 76.152 24.9618C76.238 25.2023 76.2443 25.464 76.1701 25.7083C76.0959 25.9527 75.945 26.1667 75.7399 26.3187C75.5347 26.4708 75.2861 26.5528 75.0307 26.5527V26.5527Z" fill="#232B36"/>
<path d="M28.2115 37.3183C27.9143 37.3168 27.6281 37.2055 27.408 37.0058C27.1752 36.7927 27.0366 36.4958 27.0226 36.1805C27.0087 35.8652 27.1205 35.5573 27.3336 35.3244L47.7335 13.0051C47.9466 12.7712 48.2438 12.6317 48.5599 12.617C48.8759 12.6024 49.1848 12.7138 49.4186 12.9269C49.6524 13.14 49.792 13.4373 49.8066 13.7533C49.8213 14.0693 49.7098 14.3782 49.4967 14.6121L29.0968 36.9314C28.9836 37.0531 28.8466 37.1503 28.6943 37.2168C28.542 37.2834 28.3777 37.3179 28.2115 37.3183V37.3183Z" fill="#232B36"/>
<path d="M84.1076 49.8691H73.4688V77.5154H84.1076V49.8691Z" fill="#68A9A5"/>
<path d="M57.3108 38.4263H46.6719V77.5224H57.3108V38.4263Z" fill="#68A9A5"/>
<path d="M31.2932 62.3154H20.6543V77.5224H31.2932V62.3154Z" fill="#68A9A5"/>
</svg>
