<svg width="90" height="90" viewBox="0 0 90 90" fill="none" xmlns="http://www.w3.org/2000/svg">
<path d="M66 45.5C66 42.0312 63.225 39.025 59.7562 38.5625C57.2125 33.0125 51.6625 29.3125 45.1875 29.3125C44.725 29.3125 44.0313 29.3125 43.5688 29.5438C42.1813 27.925 40.3312 27 38.25 27C34.3187 27 31.3125 30.0062 31.3125 33.9375C31.3125 34.8625 31.5437 35.5563 31.775 36.4813C29.925 39.025 29 42.0312 29 45.5C29 48.9688 29.925 51.975 31.775 54.5187C31.5437 55.4437 31.3125 56.1375 31.3125 57.0625C31.3125 60.9938 34.3187 64 38.25 64C40.3312 64 42.1813 63.075 43.5688 61.4562C44.0313 61.4562 44.725 61.6875 45.1875 61.6875C51.6625 61.6875 57.2125 57.7562 59.7562 52.4375C63.225 51.975 66 48.9688 66 45.5ZM38.25 31.625C39.6375 31.625 40.5625 32.55 40.5625 33.9375C40.5625 35.325 39.6375 36.25 38.25 36.25C36.8625 36.25 35.9375 35.325 35.9375 33.9375C35.9375 32.55 36.8625 31.625 38.25 31.625ZM38.25 59.375C36.8625 59.375 35.9375 58.45 35.9375 57.0625C35.9375 55.675 36.8625 54.75 38.25 54.75C39.6375 54.75 40.5625 55.675 40.5625 57.0625C40.5625 58.45 39.6375 59.375 38.25 59.375ZM45.1875 57.0625C45.1875 53.1312 42.1813 50.125 38.25 50.125C37.0938 50.125 35.9375 50.3562 35.0125 51.05C34.0875 49.4312 33.625 47.5812 33.625 45.5C33.625 43.4188 34.0875 41.5688 35.0125 39.95C35.9375 40.6438 37.0938 40.875 38.25 40.875C42.1813 40.875 45.1875 37.8688 45.1875 33.9375C49.5812 33.9375 53.05 36.25 55.1312 39.7188C53.2812 41.1063 52.125 43.1875 52.125 45.5C52.125 47.8125 53.2812 49.8937 55.1312 51.2812C53.05 54.75 49.5812 57.0625 45.1875 57.0625ZM59.0625 47.8125C57.675 47.8125 56.75 46.8875 56.75 45.5C56.75 44.1125 57.675 43.1875 59.0625 43.1875C60.45 43.1875 61.375 44.1125 61.375 45.5C61.375 46.8875 60.45 47.8125 59.0625 47.8125Z" stroke="#024D81" stroke-width="2"/>
<path d="M45 79C44.5538 79 44.3308 79 43.8846 78.7737L17.1154 62.9334C16.4462 62.4809 16 61.802 16 60.8968V29.2163C16 28.3111 16.4462 27.6323 17.1154 27.1797L43.8846 11.3394C44.5538 10.8869 45.4462 10.8869 46.1154 11.3394L72.8846 27.1797L70.6538 31.0266L45 16.0915L20.4615 30.574V59.7654L45 74.2479L69.5385 59.7654V42.7937H74V60.8968C74 61.802 73.5538 62.4809 72.8846 62.9334L46.1154 78.7737C45.6692 79 45.4462 79 45 79Z" stroke="#024D81" stroke-width="2"/>
</svg>
