<svg width="146" height="100" viewBox="0 0 146 100" fill="none" xmlns="http://www.w3.org/2000/svg">
<path fill-rule="evenodd" clip-rule="evenodd" d="M6.8458 7.11404V30.2326H24.8677L11.1658 45.3273V49.9128C17.1967 51.1999 33.3848 52.0113 33.3848 60.1747C33.3848 66.1883 22.8748 68.4814 16.6146 68.6752C11.7653 68.8328 6.96871 67.4928 2.13672 66.9107V91.2818C7.53274 92.4098 14.1986 92.8148 19.4182 92.8148C43.7184 92.7793 59.4827 79.9785 59.6591 63.9842C59.7828 53.9854 56.238 45.6086 43.2946 38.8545L49.8896 32.8945V7.11328H6.8458V7.11404V7.11404ZM62.9755 8.63044V92.8155H85.5466V40.8837L103.075 73.6301L121.361 40.8837V78.3384H143.212V8.63044H115.649L103.075 34.5353L88.7205 8.63044H62.9755Z" fill="#373763"/>
<path fill-rule="evenodd" clip-rule="evenodd" d="M138.045 92.6921V82.43H140.018V90.7881H143.211V92.6921H138.045ZM124.59 88.7777V86.8911C124.783 86.8737 124.978 86.8383 125.172 86.7674C125.225 86.732 125.294 86.7161 125.348 86.6792C125.47 86.5925 125.559 86.5216 125.647 86.3979C125.7 86.327 125.718 86.2562 125.753 86.1679C125.86 85.8115 125.86 85.4317 125.753 85.0753L125.7 84.969C125.636 84.8204 125.533 84.6925 125.4 84.5995C125.302 84.5325 125.196 84.479 125.084 84.4404L124.924 84.3876C124.818 84.3522 124.696 84.3348 124.59 84.3167V82.4474C124.995 82.4647 125.4 82.5002 125.789 82.6238C125.984 82.6766 126.177 82.7641 126.371 82.8697C126.512 82.9579 126.636 83.0461 126.758 83.1524C126.882 83.2588 126.988 83.3628 127.094 83.4865L127.218 83.6456C127.377 83.8756 127.499 84.1033 127.605 84.3514C127.676 84.5105 127.711 84.6681 127.747 84.8446C127.782 84.9682 127.8 85.11 127.818 85.2336C127.835 85.4976 127.835 85.7449 127.8 85.9922C127.781 86.2147 127.733 86.4339 127.659 86.6445C127.606 86.8021 127.552 86.9431 127.482 87.1022C127.376 87.2895 127.252 87.4665 127.113 87.6308C126.97 87.7999 126.804 87.9481 126.62 88.0712C126.492 88.1797 126.349 88.2691 126.196 88.3366C126.003 88.4603 125.791 88.5312 125.561 88.602C125.295 88.6888 125.032 88.7257 124.75 88.7596C124.696 88.7596 124.643 88.7777 124.59 88.7777V88.7777ZM131.325 89.6773C131.342 89.7656 131.342 89.8364 131.362 89.9073C131.396 90.1177 131.467 90.2949 131.572 90.4714C131.66 90.595 131.749 90.6833 131.872 90.77C131.925 90.8054 131.961 90.8228 132.014 90.8582C132.366 91.0173 132.807 91 133.16 90.8582L133.267 90.8054C133.441 90.6833 133.583 90.5415 133.69 90.365C133.738 90.2681 133.779 90.1678 133.813 90.0649C133.884 89.7698 133.884 89.462 133.813 89.1668C133.76 88.9904 133.69 88.8486 133.548 88.7265C133.464 88.6613 133.376 88.6023 133.284 88.55C132.966 88.3798 132.628 88.2492 132.278 88.1609C131.964 88.0759 131.657 87.9641 131.362 87.8269L130.991 87.615C130.884 87.5268 130.779 87.4559 130.674 87.3676L130.48 87.1746C130.409 87.1037 130.356 87.0155 130.285 86.9273C130.108 86.6734 129.971 86.3936 129.88 86.0978L129.827 85.8874C129.739 85.481 129.756 85.0761 129.827 84.6885C129.863 84.423 129.934 84.1938 130.02 83.9653C130.109 83.7708 130.197 83.6117 130.303 83.4526C130.427 83.2776 130.55 83.1359 130.692 82.9948C130.832 82.8712 130.991 82.7475 131.15 82.6593C131.325 82.5545 131.502 82.4843 131.679 82.4135C131.89 82.3412 132.109 82.2936 132.331 82.2717C132.419 82.2544 132.49 82.2543 132.578 82.2543C132.824 82.237 133.054 82.2544 133.319 82.2898C133.441 82.3252 133.582 82.3607 133.706 82.3961C133.848 82.4489 133.953 82.4843 134.076 82.5552L134.323 82.6789C134.499 82.8191 134.677 82.9602 134.816 83.1193C134.958 83.2784 135.082 83.436 135.17 83.6305C135.293 83.8251 135.363 84.0354 135.434 84.2654C135.505 84.5128 135.54 84.7586 135.557 85.024L135.593 85.4131H133.706L133.671 85.0067C133.643 84.8242 133.577 84.6498 133.476 84.4954C133.367 84.3602 133.228 84.2514 133.071 84.1772C132.813 84.0857 132.531 84.0919 132.277 84.1946C132.154 84.2473 132.047 84.3182 131.961 84.4064C131.88 84.5013 131.814 84.6081 131.766 84.7231C131.66 84.9886 131.624 85.2887 131.713 85.5526C131.766 85.6944 131.855 85.818 131.961 85.9063C132.189 86.0812 132.472 86.1702 132.735 86.2584C133.089 86.3647 133.441 86.4349 133.776 86.5766C133.935 86.6475 134.095 86.7184 134.234 86.787L134.552 86.9989C134.711 87.1226 134.869 87.2462 135.01 87.3865C135.081 87.4747 135.152 87.5629 135.24 87.6693C135.345 87.8284 135.433 87.986 135.521 88.1805C135.592 88.3223 135.628 88.4633 135.68 88.6224C135.716 88.78 135.751 88.9391 135.769 89.0982C135.786 89.3267 135.786 89.5386 135.769 89.7505C135.751 89.9963 135.733 90.2082 135.68 90.4382C135.628 90.6682 135.557 90.8612 135.468 91.0731C135.384 91.272 135.277 91.4611 135.152 91.6371C135.021 91.8045 134.879 91.9635 134.728 92.113C134.616 92.2213 134.492 92.3162 134.358 92.3957C134.186 92.5176 133.995 92.613 133.794 92.6785C133.6 92.7652 133.389 92.8007 133.178 92.8534C132.895 92.8889 132.614 92.8889 132.331 92.8889C132.122 92.8726 131.916 92.837 131.714 92.7826C131.608 92.7471 131.519 92.7298 131.414 92.6943C131.137 92.5767 130.876 92.4228 130.639 92.2366C130.479 92.1034 130.331 91.956 130.198 91.7962C130.088 91.6563 129.988 91.5092 129.899 91.3559C129.792 91.1458 129.703 90.9271 129.634 90.7021C129.582 90.4867 129.541 90.2691 129.51 90.0498C129.493 89.804 129.493 89.574 129.493 89.3267H131.31L131.325 89.6773V89.6773ZM124.59 82.4474V84.3167C124.431 84.2994 124.272 84.2994 124.096 84.2994H123.339V86.9265H124.308C124.396 86.9092 124.502 86.9092 124.59 86.8911V88.7777C124.167 88.8132 123.744 88.7951 123.339 88.7951V92.6921H121.362V82.43H124.026C124.201 82.43 124.396 82.4301 124.59 82.4474V82.4474Z" fill="#373763"/>
</svg>
