<svg width="90" height="90" viewBox="0 0 90 90" fill="none" xmlns="http://www.w3.org/2000/svg">
<path d="M43.4015 21.0253L43.2232 21.5092L42.7256 21.6445C38.8729 22.6921 36 26.3221 36 30.6667C36 35.8508 40.0741 40 45.0396 40H69.9604C74.9259 40 79 35.8508 79 30.6667C79 26.313 76.1184 22.6829 72.256 21.6397L71.7571 21.505L71.5784 21.0201C69.4132 15.1451 63.9087 11 57.49 11C51.0717 11 45.5669 15.1498 43.4015 21.0253Z" stroke="#024D81" stroke-width="2"/>
<path d="M18.4015 60.0253L18.2232 60.5092L17.7256 60.6445C13.8729 61.6921 11 65.3221 11 69.6667C11 74.8508 15.0741 79 20.0396 79H44.9604C49.9259 79 54 74.8508 54 69.6667C54 65.313 51.1184 61.6829 47.256 60.6397L46.7571 60.505L46.5784 60.0201C44.4132 54.1451 38.9087 50 32.49 50C26.0717 50 20.5669 54.1498 18.4015 60.0253Z" stroke="#024D81" stroke-width="2"/>
<path fill-rule="evenodd" clip-rule="evenodd" d="M67.449 44.5822L73.0046 47.7897L71.8041 49.8691L68.2735 47.8307C69.2446 50.5077 69.0118 53.6374 67.4679 56.3115C64.9252 60.7155 59.5257 62.668 55.0405 60.5221L54.6509 60.3341L55.8514 58.2548L56.1829 58.4055C59.4012 59.8718 63.4175 58.5124 65.3816 55.1106C66.771 52.7041 66.7626 49.912 65.6146 47.7595L63.3496 51.6825L61.2663 50.4797L64.5997 44.706L66.723 44.1557L67.4522 44.5767L67.4498 44.5808L67.449 44.5822Z" fill="#024D81"/>
</svg>
