<svg width="90" height="90" viewBox="0 0 90 90" fill="none" xmlns="http://www.w3.org/2000/svg">
<path d="M53.2172 53.8936V47.4112C53.2172 45.1189 52.3066 42.9205 50.6857 41.2996C49.0648 39.6787 46.8664 38.7681 44.5741 38.7681C42.2818 38.7681 40.0834 39.6787 38.4625 41.2996C36.8416 42.9205 35.9309 45.1189 35.9309 47.4112V53.8936C34.7851 53.8947 33.6866 54.3504 32.8764 55.1606C32.0662 55.9708 31.6105 57.0693 31.6094 58.2151V71.1798C31.6105 72.3256 32.0662 73.4242 32.8764 74.2344C33.6866 75.0446 34.7851 75.5002 35.9309 75.5014H53.2172C54.363 75.5002 55.4616 75.0446 56.2718 74.2344C57.082 73.4242 57.5376 72.3256 57.5388 71.1798V58.2151C57.5376 57.0693 57.082 55.9708 56.2718 55.1606C55.4616 54.3504 54.363 53.8947 53.2172 53.8936V53.8936ZM40.2525 47.4112C40.2525 46.2651 40.7078 45.1658 41.5183 44.3554C42.3287 43.5449 43.4279 43.0896 44.5741 43.0896C45.7202 43.0896 46.8194 43.5449 47.6299 44.3554C48.4403 45.1658 48.8956 46.2651 48.8956 47.4112V53.8936H40.2525V47.4112ZM35.9309 71.1798V58.2151H53.2172L53.2194 71.1798H35.9309Z" stroke="#024D81" stroke-width="2"/>
<path d="M65.8134 32.5341C64.995 28.2895 62.9232 24.3876 59.8654 21.3321C56.8076 18.2766 52.9041 16.2077 48.6589 15.3926C45.8704 14.8537 43.0031 14.8698 40.2208 15.4398C37.4385 16.0098 34.7959 17.1226 32.4439 18.7145C30.092 20.3065 28.0769 22.3464 26.5138 24.7177C24.9508 27.0889 23.8704 29.745 23.3345 32.5341C19.3512 33.2521 15.7807 35.4343 13.3249 38.6516C10.8691 41.8689 9.7057 45.8885 10.0635 49.9201C10.4213 53.9517 12.2744 57.7037 15.2584 60.4382C18.2424 63.1727 22.1414 64.692 26.1889 64.6973H27.2887V60.3758H26.1975C23.2304 60.3703 20.3725 59.2556 18.1854 57.2505C15.9982 55.2454 14.6399 52.4949 14.3773 49.5394C14.1147 46.5839 14.9667 43.637 16.766 41.2777C18.5654 38.9184 21.1819 37.3172 24.1016 36.7886L27.0186 36.2592L27.5783 33.353C28.3389 29.4031 30.4515 25.8415 33.5531 23.2802C36.6546 20.7189 40.5515 19.3178 44.5739 19.3178C48.5964 19.3178 52.4932 20.7189 55.5948 23.2802C58.6964 25.8415 60.809 29.4031 61.5696 33.353L62.1292 36.2592L65.0441 36.7886C67.9629 37.317 70.5788 38.9173 72.3781 41.2755C74.1774 43.6337 75.0302 46.5794 74.769 49.5341C74.5078 52.4888 73.1515 55.2391 70.9664 57.2451C68.7813 59.251 65.9252 60.3677 62.959 60.3758H61.8613V64.6973H62.959C67.0062 64.6915 70.9049 63.1718 73.8885 60.4371C76.8721 57.7024 78.7248 53.9505 79.0823 49.919C79.4398 45.8876 78.2763 41.8682 75.8205 38.6511C73.3647 35.4341 69.7943 33.252 65.8112 32.5341H65.8134Z" stroke="#024D81" stroke-width="2"/>
</svg>
