<svg width="90" height="90" viewBox="0 0 90 90" fill="none" xmlns="http://www.w3.org/2000/svg">
<path d="M22.5472 31.8832L22.3682 32.3666L21.8706 32.5013C15.6303 34.1904 11 40.0322 11 47C11 55.3105 17.567 62 25.6172 62H64.3828C72.433 62 79 55.3105 79 47C79 40.0174 74.3555 34.1755 68.0997 32.4937L67.6009 32.3596L67.4216 31.8752C63.9797 22.5791 55.2202 16 44.9844 16C34.7491 16 25.9893 22.5866 22.5472 31.8832Z" stroke="#024D81" stroke-width="2"/>
<path d="M49.6575 78.0264C53.1956 72.8115 54.2138 68.0376 54.4448 65.1984C56.3356 65.8798 57.8866 66.7348 59.0042 67.6939C60.3519 68.8504 61 70.0906 61 71.3333V79H48.9969L49.6575 78.0264ZM47.8429 77.6253L48.0661 79H41.8986L42.1268 77.6292L43.8686 67.1642L43.9216 66.8455L43.7782 66.5561L42.4027 63.7795C43.2617 63.7096 44.1402 63.6667 45.0064 63.6667C45.8724 63.6667 46.7338 63.7096 47.581 63.7796L46.2308 66.5636L46.0928 66.8482L46.1435 67.1603L47.8429 77.6253ZM40.3128 78.0264L40.9733 79H29V71.3333C29 70.09 29.6467 68.8499 30.9941 67.694C32.1123 66.7347 33.6663 65.8793 35.5651 65.1976C35.7864 68.0337 36.7728 72.8088 40.3128 78.0264ZM45.0064 42C49.1104 42 52.5032 45.4135 52.5032 49.6667C52.5032 53.9198 49.1104 57.3333 45.0064 57.3333C40.9024 57.3333 37.5096 53.9198 37.5096 49.6667C37.5096 45.4119 40.8827 42 45.0064 42Z" fill="white" stroke="#024D81" stroke-width="2"/>
</svg>
