<svg width="90" height="90" viewBox="0 0 90 90" fill="none" xmlns="http://www.w3.org/2000/svg">
<path d="M62.4981 57.9861L61.5074 57.9952V58.986V69.493C61.5074 70.6868 61.9811 71.8318 62.8246 72.6763C63.6681 73.5207 64.8125 73.9953 66.0059 73.9953H76.5015C77.1638 73.9953 77.7992 74.2587 78.2678 74.7279C78.7365 75.1971 79 75.8337 79 76.4977C79 77.1617 78.7365 77.7983 78.2678 78.2675C77.7992 78.7366 77.1638 79 76.5015 79H66.0059C63.4879 79 61.0727 77.9986 59.2919 76.2159C57.511 74.433 56.5103 72.0148 56.5103 69.493V58.986V57.986H55.5103H48.5133H47.5133V58.986V76.4977C47.5133 77.1617 47.2498 77.7983 46.7811 78.2675C46.3124 78.7366 45.6771 79 45.0148 79C44.3525 79 43.7171 78.7366 43.2484 78.2675C42.7797 77.7983 42.5162 77.1617 42.5162 76.4977V58.986V57.986H41.5162H34.5192H33.5192V58.986V69.493C33.5192 72.0148 32.5185 74.433 30.7376 76.2159C28.9568 77.9986 26.5416 79 24.0236 79H13.528C12.8657 79 12.2303 78.7366 11.7617 78.2675L11.0569 78.9715L11.7617 78.2675C11.293 77.7983 11.0295 77.1617 11.0295 76.4977C11.0295 75.8337 11.293 75.1971 11.7617 74.7279C12.2303 74.2587 12.8657 73.9953 13.528 73.9953H24.0236C25.217 73.9953 26.3614 73.5207 27.2049 72.6763C28.0484 71.8318 28.5221 70.6868 28.5221 69.493V58.986V57.986H27.5221L24.0236 57.986L24.0215 57.986C20.8371 57.9928 17.7609 56.8285 15.3772 54.7141C12.9934 52.5997 11.4681 49.6823 11.0913 46.5159C10.7145 43.3495 11.5124 40.1549 13.3333 37.5389C15.1542 34.9228 17.8712 33.0676 20.9681 32.3251L21.6379 32.1646L21.7267 31.4816C22.3898 26.3804 24.7054 21.6377 28.3184 17.9802C31.9314 14.3228 36.6426 11.9523 41.7298 11.2319C46.817 10.5114 52 11.4806 56.4845 13.9912C60.969 16.5017 64.5077 20.4151 66.5582 25.132L66.7417 25.5541L67.1818 25.6892C70.9458 26.845 74.1729 29.3107 76.2796 32.6411C78.3862 35.9714 79.2332 39.9466 78.6674 43.8478C78.1016 47.7491 76.1603 51.3187 73.1947 53.9117C70.2292 56.5046 66.435 57.9497 62.4981 57.9861ZM26.5221 34.4676V34.4697C26.5221 35.1338 26.2586 35.7703 25.7899 36.2395C25.3213 36.7087 24.6859 36.9721 24.0236 36.9721C21.9023 36.9721 19.8681 37.8157 18.3685 39.317C16.8688 40.8182 16.0266 42.8541 16.0266 44.9767C16.0266 47.0993 16.8688 49.1352 18.3685 50.6365C19.8681 52.1378 21.9023 52.9814 24.0236 52.9814H62.5074C65.5565 52.9814 68.4806 51.7688 70.6364 49.6107C72.7921 47.4526 74.0029 44.5259 74.003 41.4744L74.0029 41.469C73.9882 38.7674 73.0244 36.157 71.28 34.0952C69.5357 32.0333 67.122 30.6515 64.4618 30.1921L64.4607 30.192C64.0149 30.1155 63.5981 29.9193 63.2548 29.6241C62.9116 29.3289 62.6547 28.9458 62.5118 28.5157L62.5118 28.5157L62.5089 28.5072C61.091 24.365 58.2523 20.8598 54.4966 18.6145C50.7409 16.3692 46.3116 15.5294 41.9957 16.2443C37.6797 16.9592 33.7569 19.1826 30.924 22.519C28.0912 25.8555 26.5316 30.0891 26.5221 34.4676Z" stroke="#024D81" stroke-width="2"/>
</svg>
