<svg width="198" height="100" viewBox="0 0 198 100" fill="none" xmlns="http://www.w3.org/2000/svg">
<path fill-rule="evenodd" clip-rule="evenodd" d="M61.6909 32.4378C60.0359 30.2863 57.0574 30.2863 54.9059 32.4378C52.0922 35.2515 51.9274 39.2228 54.4095 43.0293C56.8916 46.8358 60.0359 47.497 62.6837 44.6833C64.173 43.3599 64.8352 41.539 64.8352 39.5534C64.8352 38.5606 64.5046 37.2361 64.173 36.2433L62.0215 38.3947C62.8485 39.884 62.5179 41.5401 61.3603 42.6977C59.87 44.0211 58.0502 43.5247 56.3952 41.0426C54.7401 38.3947 54.7401 36.0774 56.2293 34.5882C57.388 33.4296 58.5466 33.4296 59.5394 34.4224L61.6909 32.4378V32.4378ZM70.958 22.5074C69.4688 20.1901 66.9867 20.356 64.6694 22.5074C62.3521 24.8247 62.0215 27.6374 63.5107 29.9547C64.5036 31.4439 65.827 31.7755 67.6479 30.7827L70.9569 28.9618C71.4533 28.4654 72.2803 28.6313 72.612 29.1277C73.2742 30.1205 72.7778 31.2791 71.4533 32.6036C70.2947 33.927 69.1371 33.927 68.309 32.7694L66.3234 34.7551C68.1443 37.2371 70.2957 37.2371 72.9436 34.5893C75.2609 32.1061 75.9221 29.2924 74.267 26.9762C73.6059 25.9834 73.1084 25.487 72.1156 25.487C71.4533 25.487 70.9569 25.6528 70.1299 26.1492L66.654 28.1348C66.1576 28.4654 65.4953 28.3007 65.1648 27.8043C64.6683 26.9773 64.8342 25.6528 65.9918 24.66C67.1504 23.5013 68.1432 23.5013 68.9702 24.4941L70.958 22.5074V22.5074ZM82.047 11.9159C80.5567 9.76443 77.5782 9.76443 75.262 11.9159C72.6141 14.7296 72.4483 18.7009 74.9303 22.6733C77.2476 26.314 80.5577 26.9762 83.2056 24.3283C84.6949 22.8391 85.3571 21.184 85.3571 19.1984C85.3571 18.0397 85.0265 16.7153 84.5301 15.8883L82.5444 17.8739C83.2067 19.3631 83.0409 21.0182 81.8822 22.1768C80.393 23.6661 78.5721 23.0038 76.9181 20.5218C75.263 18.0397 75.0972 15.5566 76.7523 14.0674C77.9109 12.9087 79.0685 12.9087 80.0624 14.0674L82.047 11.9159V11.9159ZM91.4799 1.98554C89.8248 -0.16593 87.5075 -0.165928 85.1913 2.15137C82.874 4.46866 82.3776 7.11654 83.8668 9.43384C85.0255 11.0889 86.3499 11.2547 88.1698 10.2608L91.3151 8.44101C91.9773 8.11042 92.6385 8.11042 92.9691 8.60578C93.6313 9.5986 93.2997 10.9231 91.9773 12.2465C90.6529 13.4051 89.66 13.571 88.832 12.2465L86.8463 14.2321C88.6672 16.7142 90.8187 16.7142 93.2997 14.0663C95.7828 11.749 96.2792 8.77054 94.79 6.45325C94.1278 5.46043 93.4666 4.96296 92.6385 4.96296C91.9773 4.96296 91.3151 5.12878 90.6529 5.62519L87.178 7.61084C86.5157 7.94143 86.0193 7.77666 85.6887 7.28025C85.0265 6.45219 85.3571 5.12878 86.5157 4.1349C87.6744 2.97625 88.6672 2.97626 89.4942 3.96908L91.4799 1.98554V1.98554ZM110.843 86.0587C109.354 83.7404 107.037 83.7404 104.718 86.0587C102.402 88.375 101.907 91.0218 103.396 93.3391C104.388 94.9952 105.878 95.3258 107.697 94.1682L110.843 92.3463C111.505 92.0167 112.168 92.1815 112.497 92.6779C113.159 93.6697 112.827 94.8294 111.505 96.1518C110.181 97.4762 109.187 97.4762 108.194 96.3186L106.374 98.1385C108.028 100.621 110.346 100.621 112.827 98.1385C115.311 95.6564 115.807 92.8427 114.316 90.3596C113.656 89.3678 112.994 89.0372 112.167 89.0372C111.337 88.8703 110.842 89.0372 110.015 89.5326L106.704 91.5193C106.042 91.8488 105.546 91.8488 105.05 91.1897C104.552 90.3606 104.885 89.203 105.877 88.0433C107.037 86.8857 108.028 86.8857 109.021 87.8786L110.843 86.0587V86.0587ZM122.096 75.4651C120.442 73.1489 117.462 73.1489 115.311 75.4651C112.497 78.2788 112.332 82.2501 114.813 86.0577C117.298 89.8642 120.441 90.5254 123.254 87.7117C124.577 86.3872 125.406 84.5674 125.239 82.5817C125.239 81.422 124.91 80.0997 124.577 79.2706L122.592 81.2573C123.254 82.9113 122.922 84.4016 121.765 85.725C120.276 87.0494 118.454 86.3872 116.965 84.071C115.145 81.422 115.145 79.1058 116.635 77.6166C117.793 76.459 118.952 76.459 120.109 77.4518L122.096 75.4651V75.4651ZM131.365 65.5369C129.876 63.2206 127.392 63.2206 125.075 65.5369C122.924 67.8531 122.426 70.502 123.916 72.9841C124.91 74.4733 126.4 74.8039 128.054 73.8111L131.365 71.8244C132.027 71.4949 132.687 71.6596 133.019 72.156C133.681 73.1478 133.349 74.3075 132.027 75.6299C130.703 76.9543 129.543 76.9543 128.716 75.7967L126.729 77.7813C128.551 80.2655 130.868 80.0997 133.35 77.6166C135.834 75.1345 136.328 72.3208 134.674 69.8398C134.012 69.0107 133.516 68.5153 132.687 68.5153C131.86 68.5153 131.365 68.6801 130.538 69.0107L127.227 71.1622C126.565 71.4938 125.902 71.329 125.573 70.8326C125.075 69.8408 125.408 68.6811 126.4 67.6883C127.557 66.5286 128.551 66.3639 129.378 67.5214L131.365 65.5369V65.5369ZM142.453 54.9443C140.964 52.7928 137.985 52.7928 135.833 54.9443C133.019 57.758 132.854 61.7314 135.335 65.5369C137.816 69.3423 140.963 70.0046 143.609 67.1909C145.099 65.8664 145.761 64.0466 145.761 62.2257C145.761 61.0681 145.431 59.7436 145.099 58.7497L142.947 60.9012C143.774 62.3904 143.445 64.0476 142.285 65.2042C140.796 66.5286 138.976 66.0312 137.322 63.5502C135.668 60.9012 135.668 58.585 137.155 57.0957C138.315 55.9381 139.473 55.9381 140.466 56.931L142.453 54.9443V54.9443Z" fill="black"/>
<path fill-rule="evenodd" clip-rule="evenodd" d="M87.5098 35.582L94.2958 28.7959L102.404 35.582L94.2958 43.6904L87.5098 35.582V35.582Z" fill="#A6A8AA"/>
<path fill-rule="evenodd" clip-rule="evenodd" d="M87.5089 28.7959L79.4004 35.582H87.5089L94.295 28.7959H87.5089Z" fill="#D0D1D3"/>
<path fill-rule="evenodd" clip-rule="evenodd" d="M87.5089 35.582L94.295 43.6905H87.5089L79.4004 35.582H87.5089Z" fill="#BBBCBF"/>
<path fill-rule="evenodd" clip-rule="evenodd" d="M101.246 49.4836L108.196 42.5317L116.14 49.4836L108.196 57.4273L101.246 49.4836Z" fill="#A6A8AA"/>
<path fill-rule="evenodd" clip-rule="evenodd" d="M101.244 42.5317L93.1348 49.4836H101.244L108.194 42.5317H101.244Z" fill="#D0D1D3"/>
<path fill-rule="evenodd" clip-rule="evenodd" d="M101.244 49.4839L108.194 57.4275H101.244L93.1348 49.4839H101.244Z" fill="#BBBCBF"/>
<path fill-rule="evenodd" clip-rule="evenodd" d="M73.6074 49.4836L80.5572 42.5317L88.6678 49.4836L80.5572 57.4273L73.6074 49.4836Z" fill="#A6A8AA"/>
<path fill-rule="evenodd" clip-rule="evenodd" d="M73.6083 42.5317L66.8223 49.4836H73.6083L80.5581 42.5317H73.6083Z" fill="#D0D1D3"/>
<path fill-rule="evenodd" clip-rule="evenodd" d="M73.6083 49.4839L80.5581 57.4275H73.6083L66.8223 49.4839H73.6083Z" fill="#BBBCBF"/>
<path fill-rule="evenodd" clip-rule="evenodd" d="M87.5098 63.2205L94.2958 56.2676L102.404 63.2205L94.2958 71.3289L87.5098 63.2205V63.2205Z" fill="#A6A8AA"/>
<path fill-rule="evenodd" clip-rule="evenodd" d="M87.5089 56.2676L79.4004 63.2206H87.5089L94.295 56.2676H87.5089Z" fill="#D0D1D3"/>
<path fill-rule="evenodd" clip-rule="evenodd" d="M87.5089 63.2207L94.295 71.3291H87.5089L79.4004 63.2207H87.5089V63.2207Z" fill="#BBBCBF"/>
<path fill-rule="evenodd" clip-rule="evenodd" d="M103.562 35.582L110.347 28.7959L117.298 35.582L110.347 43.6904L103.562 35.582Z" fill="#CC2229"/>
<path fill-rule="evenodd" clip-rule="evenodd" d="M103.564 28.7959L95.4531 35.582H103.564L110.348 28.7959H103.564Z" fill="#E0957A"/>
<path fill-rule="evenodd" clip-rule="evenodd" d="M103.564 35.582L110.348 43.6905H103.564L95.4531 35.582H103.564Z" fill="#D77055"/>
<path fill-rule="evenodd" clip-rule="evenodd" d="M116.141 49.4836L124.25 42.5317L131.034 49.4836L124.25 57.4273L116.141 49.4836Z" fill="#CC2229"/>
<path fill-rule="evenodd" clip-rule="evenodd" d="M116.139 42.5317L109.354 49.4836H116.139L124.248 42.5317H116.139Z" fill="#E0957A"/>
<path fill-rule="evenodd" clip-rule="evenodd" d="M116.139 49.4839L124.248 57.4275H116.139L109.354 49.4839H116.139Z" fill="#D77055"/>
<path fill-rule="evenodd" clip-rule="evenodd" d="M89.6621 49.4836L96.6119 42.5317L104.72 49.4836L96.6119 57.4273L89.6621 49.4836Z" fill="#CC2229"/>
<path fill-rule="evenodd" clip-rule="evenodd" d="M89.6605 42.5317L81.7168 49.4836H89.6605L96.6103 42.5317H89.6605Z" fill="#E0957A"/>
<path fill-rule="evenodd" clip-rule="evenodd" d="M89.6605 49.4839L96.6103 57.4275H89.6605L81.7168 49.4839H89.6605Z" fill="#D77055"/>
<path fill-rule="evenodd" clip-rule="evenodd" d="M103.562 63.2205L110.347 56.2676L117.298 63.2205L110.347 71.3289L103.562 63.2205V63.2205Z" fill="#CC2229"/>
<path fill-rule="evenodd" clip-rule="evenodd" d="M103.564 56.2676L95.4531 63.2206H103.564L110.348 56.2676H103.564Z" fill="#E0957A"/>
<path fill-rule="evenodd" clip-rule="evenodd" d="M103.564 63.2207L110.348 71.3291H103.564L95.4531 63.2207H103.564V63.2207Z" fill="#D77055"/>
<path fill-rule="evenodd" clip-rule="evenodd" d="M56.3958 49.4838H49.445L98.9278 99.9605V92.0158L56.3958 49.4838ZM98.9278 8.1094V0.000976562L148.412 49.4838H141.459L98.9278 8.1094ZM0.126953 49.4838V54.1163H46.1349L41.5013 49.4838H0.126953ZM156.355 49.4838L151.72 44.8492H197.729V49.4838H156.355Z" fill="#BBBCBF"/>
</svg>
