<svg width="2500" height="498" viewBox="0 0 2500 498" fill="none" xmlns="http://www.w3.org/2000/svg">
<path d="M959.754 104.409H1027.5V127.537C1034.77 121.179 1058.25 98.7056 1101.62 98.7056C1152.67 98.7056 1193.21 136.384 1193.21 195.582V349.14H1121.62V214.571C1121.62 181.629 1105.57 162.043 1076.46 162.043C1048.22 162.043 1031.27 180.477 1031.27 214.571V349.14H959.74V104.409H959.754ZM1711.9 226.76C1711.9 192.922 1737.14 165.13 1772.29 165.13C1807.45 165.13 1832.7 192.922 1832.7 226.76C1832.7 260.584 1807.45 288.391 1772.29 288.391C1737.14 288.391 1711.9 260.584 1711.9 226.76V226.76ZM1641.26 226.76C1641.26 297.352 1697.81 354.673 1771.83 354.673C1845.87 354.673 1902.41 297.352 1902.41 226.76C1902.41 156.169 1845.87 98.7056 1771.83 98.7056C1697.8 98.7056 1641.26 156.169 1641.26 226.76ZM729.262 226.775C729.262 192.937 754.537 165.158 789.669 165.158C824.815 165.158 850.105 192.937 850.105 226.775C850.105 260.598 824.815 288.419 789.669 288.419C754.551 288.419 729.262 260.598 729.262 226.775ZM658.642 226.789C658.642 297.38 715.223 354.701 789.214 354.701C863.233 354.701 919.8 297.38 919.8 226.789C919.8 156.211 863.233 98.7199 789.214 98.7199C715.209 98.7199 658.642 156.211 658.642 226.789V226.789ZM2249.43 104.409H2321.96V349.154H2249.43V104.409ZM2249.43 15H2321.96V77.2565H2249.43V15ZM2377.89 15H2450.43V349.14H2377.89V15ZM2133.72 226.604C2133.72 261.124 2107.28 287.936 2072.61 287.936C2037.59 287.936 2011.27 261.21 2011.27 226.789C2011.27 191.941 2037.93 165.514 2072.68 165.514C2107.65 165.514 2133.72 192.197 2133.72 226.604ZM2013.08 349.14L2013.83 330.294C2018.9 334.134 2041.31 354.715 2088.25 354.715C2149.94 354.715 2207.19 299.457 2207.19 226.789C2207.19 153.993 2153.45 98.7199 2089.05 98.7199C2039.83 98.7199 2017.3 121.278 2013.82 123.81V15H1944.28V349.14H2013.08V349.14Z" fill="#CF4037"/>
<path d="M236.842 349.14L350.929 206.321L249.956 104.409H350.175L394.937 150.551L477.334 44.5139H561.338L440.68 196.493L487.646 243.644L596.115 104.409H680.332L533.559 289.828L719.931 477.223H618.303L488.627 345.271L419.743 434.552H335.539L443.14 299.813L396.117 252.221L320.718 349.14H236.842ZM0.119141 15H220.186V77.2565H74.9777V146.525H213.657V206.961H74.9777V286.755H220.186V349.14H0.119141V15ZM1250.48 15H1368.8L1424.62 258.877H1427.17L1484.4 15H1599.34V349.14H1528.95V96.8424H1525.77L1463.75 349.14H1384.68L1324.1 96.8424H1320.89V349.14H1250.48V15Z" fill="#CF4037"/>
</svg>
