<svg width="551" height="100" viewBox="0 0 551 100" fill="none" xmlns="http://www.w3.org/2000/svg">
<g clip-path="url(#clip0_1093_610)">
<path fill-rule="evenodd" clip-rule="evenodd" d="M62.6175 25.1979H44.8922V66.438L62.6175 48.7157V25.1979ZM21.3806 3.88546V21.6265H62.6175L44.8922 3.88546H21.3806V3.88546ZM41.3176 66.438V48.7157H0.0712891L17.8092 66.438H41.3176ZM0.0838223 45.1444H17.8092V3.88232L0.0838223 21.6108V45.1444ZM122.529 59.8528C122.529 62.1962 121.229 65.661 115.023 65.661H107.539V54.6117H115.023C121.229 54.6117 122.529 57.5534 122.529 59.8528ZM114.296 48.6938H97.072V84.2103H107.539V71.6227H116.495C126.821 71.6227 132.989 66.5977 132.989 59.9969C132.989 52.6693 127.551 48.6938 114.296 48.6938V48.6938ZM436.128 56.153C432.174 56.153 428.603 57.5972 426.46 59.5803H426.325V48.6969H417.55V84.2134H426.325V65.3916C428.346 63.0107 431.166 62.168 433.503 62.168C439.775 62.168 439.878 66.1936 439.878 71.4442V84.2134H448.659V68.5745C448.659 62.5032 447.027 56.153 436.128 56.153V56.153ZM355.277 56.153C351.323 56.153 347.507 57.5909 345.396 59.5803H345.261V56.7294H336.615V84.2134H345.396V65.3916C347.417 63.0107 350.242 62.168 352.573 62.168C358.845 62.168 358.942 66.1936 358.942 71.4442V84.2134H367.73V68.5745C367.727 62.4969 366.179 56.153 355.277 56.153V56.153ZM411.037 77.4153C408.572 78.0261 404.797 78.8971 399.643 78.8971C390.439 78.8971 384.922 73.9097 384.922 66.604C384.922 59.408 390.605 54.3234 398.732 54.0008C401.99 53.8956 405.247 54.2649 408.4 55.0972L412.187 49.6712C408.021 48.5842 402.911 48.1769 398.115 48.1769C383.08 48.1769 374.099 55.7395 374.099 66.6071C374.099 79.2041 386.116 84.5831 398.187 84.9026C401.852 84.9872 406.839 84.486 411.037 83.543V77.4153V77.4153ZM165.195 73.9629L156.131 48.6938H139.437V84.2134H149.54V56.0966H150.132L160.464 84.2134H169.928L180.245 56.0966H180.852V84.2134H190.974V48.6938H174.342L165.195 73.9629ZM223.211 70.4448C223.211 75.805 220.435 79.4704 214.652 79.4704C208.888 79.4704 206.081 75.805 206.081 70.4448C206.081 65.0658 208.888 61.3816 214.652 61.3816C220.435 61.3848 223.211 65.0689 223.211 70.4448ZM232.562 70.4448C232.562 60.6611 224.721 55.7958 214.652 55.7958C204.593 55.7958 196.739 60.6611 196.739 70.4448C196.739 80.1846 204.593 85.0749 214.652 85.0749C224.718 85.0749 232.562 80.1878 232.562 70.4448ZM285.553 56.72V59.3578H285.425C283.523 57.4719 280.547 56.153 275.331 56.153C265.137 56.153 260.704 63.5746 260.704 70.3007C260.704 78.2173 265.262 84.179 274.72 84.5016C279.548 84.7021 283.279 82.5938 285.03 80.9271H285.152V82.0768C285.152 86.3186 283.501 90.4414 274.889 90.4414C271.453 90.4414 267.599 89.865 263.953 88.1044V94.4733C267.543 95.6794 271.547 96.118 276.189 96.118C290.481 96.118 293.84 88.3581 293.84 80.9616V56.72H285.553V56.72ZM277.389 78.6872C272.292 78.6872 269.842 74.6052 269.842 70.4197C269.842 66.2343 271.835 61.7858 277.696 61.7858C282.865 61.7858 285.199 65.5858 285.199 70.26C285.199 74.2449 283.107 78.6872 277.389 78.6872ZM329.585 66.9204C329.585 59.8466 325.193 56.1499 315.186 56.1499C311.925 56.1499 307.213 56.5101 303.11 57.6191V63.1141C306.308 61.9518 310.14 61.3816 313.254 61.3816C317.683 61.3816 321.086 61.9455 321.086 67.4624H316.772C313.1 67.4624 308.059 67.8164 305.312 68.728C302.129 69.7869 299.096 72.055 299.096 76.0713C299.096 82.5311 304.745 84.8588 311.095 84.8588C315.782 84.8588 319.074 83.8124 321.471 81.4503H321.599V84.2103H329.585V66.9204ZM321.086 76.8169C318.282 78.9472 315.437 79.5581 312.918 79.6677C309.914 79.7586 307.834 78.8062 307.834 75.946C307.834 72.5814 312.705 72.0175 318.059 72.0175H321.089V76.8169H321.086V76.8169ZM484.389 66.9204C484.389 59.8466 480.003 56.1499 469.972 56.1499C466.729 56.1499 462.03 56.5101 457.895 57.6191V63.1141C461.112 61.9518 464.956 61.3816 468.051 61.3816C472.506 61.3816 475.896 61.9455 475.896 67.4624H471.607C467.916 67.4624 462.876 67.8164 460.103 68.728C456.945 69.7869 453.903 72.055 453.903 76.0713C453.903 82.5311 459.539 84.8588 465.883 84.8588C470.589 84.8588 473.894 83.8124 476.265 81.4503H476.406V84.2103H484.385V66.9204H484.389V66.9204ZM475.896 76.8169C473.092 78.9472 470.241 79.5581 467.697 79.6677C464.718 79.7586 462.619 78.8062 462.619 75.946C462.619 72.5814 467.497 72.0175 472.866 72.0175H475.896V76.8169V76.8169ZM77.8585 48.6938V70.285C77.8585 75.1628 75.6249 78.1671 70.6343 78.2392C69.0303 78.2705 65.625 78.1671 62.652 77.5218V84.2636C65.6532 84.7209 69.306 84.8556 72.2822 84.8556C82.2288 84.8556 88.3315 79.5925 88.3315 71.4629V48.6907H77.8585V48.6938ZM535.779 61.3472C539.952 61.3472 541.947 63.7406 542.59 66.5664C542.687 67.0144 542.743 67.5031 542.724 67.9135H528.138C528.498 64.4236 530.964 61.3472 535.779 61.3472ZM547.32 77.9792C543.993 78.9096 541.672 79.3325 538.16 79.3325C532.477 79.3325 528.595 77.2085 528.138 72.7787H550.563C550.69 71.3675 550.686 69.9474 550.55 68.5369C549.902 61.5665 545.632 56.153 535.271 56.153C524.648 56.153 519.908 63.208 519.908 70.7205C519.908 80.8707 527.427 84.8619 537.433 84.8619C541.575 84.8619 544.463 84.2855 547.32 83.5399V77.9792V77.9792ZM504.003 56.153C497.283 56.153 490.523 58.2896 490.523 64.6084C490.523 69.9874 495.037 71.6572 500.115 73.0168C505.519 74.461 507.421 74.8464 507.518 76.7135C507.628 78.6903 505.676 79.6677 500.927 79.6677C497.91 79.6677 493.652 78.9033 490.899 77.7035V83.5148C495.432 84.6833 498.884 84.8619 502.048 84.8619C509.642 84.8619 516.428 82.7065 516.428 76.1559C516.428 70.7706 512.578 68.728 506.35 67.2838C501.798 66.2124 499.244 65.7801 499.244 63.8691C499.244 61.9111 501.544 61.1936 505.344 61.1936C508.182 61.1936 510.961 61.9142 512.856 62.522L516.111 57.8666C513.01 56.8923 508.972 56.153 504.003 56.153V56.153ZM255.873 56.153C252.139 56.153 248.649 57.1148 246.484 60.9086H246.353V56.7294H237.994V84.2134H247.083V70.7831C247.083 67.901 247.559 66.1623 248.163 65.1723C249.16 63.5088 250.388 62.5909 252.778 62.2337C253.984 62.0677 255.742 62.2149 256.976 62.9261L261.049 57.1148C259.404 56.4538 257.645 56.1268 255.873 56.153V56.153Z" fill="#28539C"/>
</g>
<defs>
<clipPath id="clip0_1093_610">
<rect width="550.725" height="100" fill="white"/>
</clipPath>
</defs>
</svg>
