<svg width="90" height="90" viewBox="0 0 90 90" fill="none" xmlns="http://www.w3.org/2000/svg">
<path fill-rule="evenodd" clip-rule="evenodd" d="M55.1802 39.0917C55.3834 39.2943 55.5446 39.5351 55.6546 39.8002C55.7646 40.0653 55.8212 40.3494 55.8212 40.6364C55.8212 40.9234 55.7646 41.2076 55.6546 41.4726C55.5446 41.7377 55.3834 41.9785 55.1802 42.1811L42.0892 55.2721C41.8866 55.4753 41.6458 55.6365 41.3807 55.7465C41.1157 55.8565 40.8315 55.9131 40.5445 55.9131C40.2575 55.9131 39.9734 55.8565 39.7083 55.7465C39.4432 55.6365 39.2024 55.4753 38.9998 55.2721L32.4543 48.7266C32.2514 48.5238 32.0905 48.2829 31.9807 48.0179C31.871 47.7528 31.8145 47.4688 31.8145 47.1819C31.8145 46.895 31.871 46.6109 31.9807 46.3459C32.0905 46.0808 32.2514 45.84 32.4543 45.6371C32.6572 45.4343 32.898 45.2734 33.163 45.1636C33.4281 45.0538 33.7122 44.9973 33.999 44.9973C34.2859 44.9973 34.57 45.0538 34.835 45.1636C35.1001 45.2734 35.3409 45.4343 35.5438 45.6371L40.5445 50.6423L52.0907 39.0917C52.2934 38.8885 52.5342 38.7273 52.7992 38.6173C53.0643 38.5073 53.3485 38.4507 53.6354 38.4507C53.9224 38.4507 54.2066 38.5073 54.4717 38.6173C54.7367 38.7273 54.9775 38.8885 55.1802 39.0917V39.0917Z" stroke="#024D81" stroke-width="2"/>
<path d="M29.2262 26.856C33.5876 23.0951 39.1502 21.0181 44.9092 21C56.6474 21 66.3914 29.7273 67.4518 40.9811C74.3987 41.963 79.8184 47.7797 79.8184 54.9186C79.8184 62.7557 73.2816 69.0001 65.3616 69.0001H26.499C17.4531 69.0001 10 61.8699 10 52.9332C10 45.2401 15.5244 38.8691 22.8379 37.2546C23.4619 33.4888 25.8837 29.736 29.2262 26.856V26.856ZM32.0757 30.1593C28.7724 33.0088 27.0444 36.443 27.0444 39.131V41.0859L25.1026 41.2997C19.0066 41.9673 14.3636 46.9724 14.3636 52.9332C14.3636 59.3346 19.7309 64.6365 26.499 64.6365H65.3616C71.0038 64.6365 75.4547 60.2205 75.4547 54.9186C75.4547 49.6124 71.0038 45.1964 65.3616 45.1964H63.1798V43.0146C63.1841 33.3273 55.0678 25.3636 44.9092 25.3636C40.1959 25.3825 35.6445 27.0848 32.0757 30.1637V30.1593Z" stroke="#024D81" stroke-width="2"/>
</svg>
