<svg width="90" height="90" viewBox="0 0 90 90" fill="none" xmlns="http://www.w3.org/2000/svg">
<path d="M22.5472 37.8832L22.3682 38.3666L21.8706 38.5013C15.6303 40.1904 11 46.0322 11 53C11 61.3105 17.567 68 25.6172 68H64.3828C72.433 68 79 61.3105 79 53C79 46.0174 74.3555 40.1755 68.0997 38.4937L67.6009 38.3596L67.4216 37.8752C63.9797 28.5791 55.2202 22 44.9844 22C34.7491 22 25.9893 28.5866 22.5472 37.8832Z" stroke="#024D81" stroke-width="2"/>
<path d="M29.1548 50.6378C29.098 50.0649 28.8542 49.6198 28.4233 49.3026C27.9924 48.9853 27.4077 48.8267 26.669 48.8267C26.1671 48.8267 25.7434 48.8977 25.3977 49.0398C25.0521 49.1771 24.7869 49.3688 24.6023 49.6151C24.4223 49.8613 24.3324 50.1406 24.3324 50.4531C24.3229 50.7135 24.3774 50.9408 24.4957 51.1349C24.6188 51.3291 24.7869 51.4972 25 51.6392C25.2131 51.7765 25.4593 51.8973 25.7386 52.0014C26.018 52.1009 26.3163 52.1861 26.6335 52.2571L27.9403 52.5696C28.5748 52.7116 29.1572 52.901 29.6875 53.1378C30.2178 53.3745 30.6771 53.6657 31.0653 54.0114C31.4536 54.357 31.7543 54.7642 31.9673 55.233C32.1851 55.7017 32.2964 56.2391 32.3011 56.8452C32.2964 57.7353 32.0691 58.5071 31.6193 59.1605C31.1742 59.8092 30.5303 60.3134 29.6875 60.6733C28.8494 61.0284 27.8385 61.206 26.6548 61.206C25.4806 61.206 24.4579 61.026 23.5866 60.6662C22.7202 60.3063 22.0431 59.7737 21.5554 59.0682C21.0724 58.358 20.8191 57.4796 20.7955 56.4332H23.7713C23.8045 56.9209 23.9441 57.3281 24.1903 57.6548C24.4413 57.9768 24.7751 58.2206 25.1918 58.3864C25.6132 58.5473 26.089 58.6278 26.6193 58.6278C27.1402 58.6278 27.5923 58.5521 27.9759 58.4006C28.3641 58.2491 28.6648 58.0384 28.8778 57.7685C29.0909 57.4986 29.1974 57.1884 29.1974 56.8381C29.1974 56.5114 29.1004 56.2367 28.9062 56.0142C28.7169 55.7917 28.4375 55.6023 28.0682 55.446C27.7036 55.2898 27.2562 55.1477 26.7259 55.0199L25.142 54.6222C23.9157 54.3239 22.9474 53.8575 22.2372 53.223C21.527 52.5885 21.1742 51.7339 21.179 50.6591C21.1742 49.7784 21.4086 49.009 21.8821 48.3509C22.3603 47.6927 23.0161 47.179 23.8494 46.8097C24.6828 46.4403 25.6297 46.2557 26.6903 46.2557C27.7699 46.2557 28.7121 46.4403 29.517 46.8097C30.3267 47.179 30.9564 47.6927 31.4062 48.3509C31.8561 49.009 32.0881 49.7713 32.1023 50.6378H29.1548ZM37.4237 61.206C36.7276 61.206 36.1074 61.0852 35.5629 60.8438C35.0183 60.5975 34.5875 60.2353 34.2702 59.7571C33.9577 59.2741 33.8015 58.6728 33.8015 57.9531C33.8015 57.3471 33.9128 56.8381 34.1353 56.4261C34.3578 56.0142 34.6609 55.6828 35.0444 55.4318C35.4279 55.1809 35.8635 54.9915 36.3512 54.8636C36.8436 54.7358 37.3597 54.6458 37.8995 54.5938C38.534 54.5275 39.0453 54.4659 39.4336 54.4091C39.8219 54.3475 40.1036 54.2576 40.2788 54.1392C40.454 54.0208 40.5415 53.8456 40.5415 53.6136V53.571C40.5415 53.1212 40.3995 52.7732 40.1154 52.527C39.8361 52.2808 39.4383 52.1577 38.9222 52.1577C38.3777 52.1577 37.9445 52.2784 37.6225 52.5199C37.3005 52.7566 37.0875 53.0549 36.9833 53.4148L34.185 53.1875C34.3271 52.5246 34.6064 51.9517 35.0231 51.4688C35.4397 50.9811 35.9772 50.607 36.6353 50.3466C37.2982 50.0814 38.0652 49.9489 38.9364 49.9489C39.5425 49.9489 40.1225 50.0199 40.6765 50.1619C41.2352 50.304 41.73 50.5241 42.1609 50.8224C42.5965 51.1207 42.9397 51.5043 43.1907 51.973C43.4416 52.437 43.5671 52.9934 43.5671 53.642V61H40.6978V59.4872H40.6126C40.4374 59.8281 40.203 60.1288 39.9094 60.3892C39.6159 60.6449 39.2631 60.8461 38.8512 60.9929C38.4393 61.1349 37.9634 61.206 37.4237 61.206ZM38.2901 59.1179C38.7352 59.1179 39.1282 59.0303 39.4691 58.8551C39.81 58.6752 40.0775 58.4337 40.2717 58.1307C40.4658 57.8277 40.5629 57.4844 40.5629 57.1009V55.9432C40.4682 56.0047 40.338 56.0616 40.1722 56.1136C40.0112 56.161 39.829 56.206 39.6254 56.2486C39.4218 56.2865 39.2182 56.322 39.0146 56.3551C38.811 56.3835 38.6263 56.4096 38.4606 56.4332C38.1055 56.4853 37.7953 56.5682 37.5302 56.6818C37.265 56.7955 37.0591 56.9493 36.9123 57.1435C36.7655 57.3329 36.6921 57.5696 36.6921 57.8537C36.6921 58.2656 36.8413 58.5805 37.1396 58.7983C37.4426 59.0114 37.8261 59.1179 38.2901 59.1179ZM49.0252 61.206C48.3292 61.206 47.7089 61.0852 47.1644 60.8438C46.6199 60.5975 46.189 60.2353 45.8718 59.7571C45.5593 59.2741 45.4031 58.6728 45.4031 57.9531C45.4031 57.3471 45.5143 56.8381 45.7369 56.4261C45.9594 56.0142 46.2624 55.6828 46.646 55.4318C47.0295 55.1809 47.4651 54.9915 47.9528 54.8636C48.4452 54.7358 48.9613 54.6458 49.5011 54.5938C50.1355 54.5275 50.6469 54.4659 51.0352 54.4091C51.4234 54.3475 51.7051 54.2576 51.8803 54.1392C52.0555 54.0208 52.1431 53.8456 52.1431 53.6136V53.571C52.1431 53.1212 52.0011 52.7732 51.717 52.527C51.4376 52.2808 51.0399 52.1577 50.5238 52.1577C49.9793 52.1577 49.546 52.2784 49.2241 52.5199C48.9021 52.7566 48.689 53.0549 48.5849 53.4148L45.7866 53.1875C45.9286 52.5246 46.208 51.9517 46.6246 51.4688C47.0413 50.9811 47.5787 50.607 48.2369 50.3466C48.8997 50.0814 49.6668 49.9489 50.538 49.9489C51.1441 49.9489 51.7241 50.0199 52.2781 50.1619C52.8368 50.304 53.3316 50.5241 53.7624 50.8224C54.198 51.1207 54.5413 51.5043 54.7923 51.973C55.0432 52.437 55.1687 52.9934 55.1687 53.642V61H52.2994V59.4872H52.2141C52.0389 59.8281 51.8046 60.1288 51.511 60.3892C51.2174 60.6449 50.8647 60.8461 50.4528 60.9929C50.0408 61.1349 49.565 61.206 49.0252 61.206ZM49.8917 59.1179C50.3368 59.1179 50.7298 59.0303 51.0707 58.8551C51.4116 58.6752 51.6791 58.4337 51.8732 58.1307C52.0674 57.8277 52.1644 57.4844 52.1644 57.1009V55.9432C52.0697 56.0047 51.9395 56.0616 51.7738 56.1136C51.6128 56.161 51.4305 56.206 51.2269 56.2486C51.0233 56.2865 50.8197 56.322 50.6161 56.3551C50.4125 56.3835 50.2279 56.4096 50.0621 56.4332C49.707 56.4853 49.3969 56.5682 49.1317 56.6818C48.8666 56.7955 48.6606 56.9493 48.5138 57.1435C48.3671 57.3329 48.2937 57.5696 48.2937 57.8537C48.2937 58.2656 48.4428 58.5805 48.7411 58.7983C49.0442 59.0114 49.4277 59.1179 49.8917 59.1179ZM65.4634 50.6378C65.4066 50.0649 65.1628 49.6198 64.7319 49.3026C64.301 48.9853 63.7163 48.8267 62.9776 48.8267C62.4757 48.8267 62.052 48.8977 61.7063 49.0398C61.3607 49.1771 61.0955 49.3688 60.9109 49.6151C60.7309 49.8613 60.641 50.1406 60.641 50.4531C60.6315 50.7135 60.686 50.9408 60.8043 51.1349C60.9274 51.3291 61.0955 51.4972 61.3086 51.6392C61.5217 51.7765 61.7679 51.8973 62.0472 52.0014C62.3266 52.1009 62.6249 52.1861 62.9421 52.2571L64.2489 52.5696C64.8834 52.7116 65.4658 52.901 65.9961 53.1378C66.5264 53.3745 66.9857 53.6657 67.3739 54.0114C67.7622 54.357 68.0629 54.7642 68.2759 55.233C68.4937 55.7017 68.605 56.2391 68.6097 56.8452C68.605 57.7353 68.3777 58.5071 67.9279 59.1605C67.4828 59.8092 66.8389 60.3134 65.9961 60.6733C65.158 61.0284 64.1471 61.206 62.9634 61.206C61.7892 61.206 60.7665 61.026 59.8952 60.6662C59.0288 60.3063 58.3517 59.7737 57.864 59.0682C57.381 58.358 57.1277 57.4796 57.104 56.4332H60.0799C60.113 56.9209 60.2527 57.3281 60.4989 57.6548C60.7499 57.9768 61.0837 58.2206 61.5004 58.3864C61.9218 58.5473 62.3976 58.6278 62.9279 58.6278C63.4487 58.6278 63.9009 58.5521 64.2844 58.4006C64.6727 58.2491 64.9734 58.0384 65.1864 57.7685C65.3995 57.4986 65.506 57.1884 65.506 56.8381C65.506 56.5114 65.409 56.2367 65.2148 56.0142C65.0254 55.7917 64.7461 55.6023 64.3768 55.446C64.0122 55.2898 63.5647 55.1477 63.0344 55.0199L61.4506 54.6222C60.2243 54.3239 59.256 53.8575 58.5458 53.223C57.8356 52.5885 57.4828 51.7339 57.4876 50.6591C57.4828 49.7784 57.7172 49.009 58.1907 48.3509C58.6689 47.6927 59.3247 47.179 60.158 46.8097C60.9914 46.4403 61.9383 46.2557 62.9989 46.2557C64.0785 46.2557 65.0207 46.4403 65.8256 46.8097C66.6353 47.179 67.265 47.6927 67.7148 48.3509C68.1647 49.009 68.3967 49.7713 68.4109 50.6378H65.4634Z" fill="#024D81"/>
</svg>
