<svg width="351" height="100" viewBox="0 0 351 100" fill="none" xmlns="http://www.w3.org/2000/svg">
<g clip-path="url(#clip0_1093_2)">
<path fill-rule="evenodd" clip-rule="evenodd" d="M151.897 70.6761C150.71 70.2624 149.465 70.0365 148.209 70.0067C146.085 70.0067 143.403 70.455 141.503 71.3495V88.1126H146.531V73.6964C146.978 73.4713 147.761 73.3617 148.432 73.3617C149.327 73.3617 150.108 73.4713 150.779 73.81L151.897 70.6761ZM221.075 79.1712C221.075 81.0699 220.961 84.8711 218.281 84.8711C215.602 84.8711 215.6 81.0699 215.6 79.1712C215.6 77.2726 215.6 73.2482 218.281 73.2482C220.963 73.2482 221.075 77.2726 221.075 79.1712ZM226.105 79.2828C226.105 74.3639 223.647 70.0067 218.279 70.0067C212.912 70.0067 210.567 74.3659 210.567 79.2828C210.567 84.1998 212.914 88.3338 218.279 88.3338C223.645 88.3338 226.105 84.2018 226.105 79.2828ZM209.677 87.5528L209.003 84.4249C208.113 84.8731 207.33 84.9847 206.322 84.9847C205.093 84.9847 204.088 84.4249 203.64 83.5303C202.746 82.3011 202.521 80.514 202.521 79.2848C202.521 78.0555 202.746 76.5992 203.304 75.3739C203.863 74.1447 204.981 73.4713 206.324 73.4713C207.107 73.4713 208.222 73.6964 208.896 74.1447L209.565 70.9033C208.448 70.3434 206.772 70.0087 205.206 70.0087C200.176 70.0087 197.38 74.3678 197.38 79.1732C197.38 84.8731 200.066 88.3377 205.206 88.3377C206.659 88.3337 208.448 88.1126 209.677 87.5528ZM195.147 88.1126V75.4815C195.147 71.5707 192.575 70.0067 188.885 70.0067C186.873 70.0067 184.865 70.6761 183.297 71.5707C181.733 70.453 179.386 70.0067 177.487 70.0067C175.252 70.0067 172.011 70.6761 170.224 71.4591V88.1126H175.252V73.6964C175.812 73.4713 176.593 73.3617 177.601 73.3617C179.053 73.3617 180.283 74.0311 180.283 75.5951V88.1126H185.309V74.1427C185.869 73.6944 187.098 73.3597 187.881 73.3597C189.224 73.3597 190.115 74.1427 190.115 75.7067V88.1126H195.147ZM166.871 88.1126V71.1244C164.749 70.455 162.848 70.0067 160.948 70.0067C154.578 70.0067 151 74.1427 151 80.4005C151 84.4249 152.901 88.4473 157.369 88.4473C159.158 88.4473 160.946 87.6643 161.952 86.6582V88.1126H166.871ZM139.716 88.1126L131.669 62.8544H126.306L118.036 88.1126H123.178L124.742 82.6378H132.677L134.241 88.1126H139.716ZM110.993 65.3149C110.993 63.8605 109.764 62.7429 108.2 62.7429C106.636 62.7429 105.407 63.8605 105.407 65.3149C105.407 66.7673 106.636 67.883 108.2 67.883C109.764 67.883 110.993 66.7653 110.993 65.3149ZM105.739 88.1126H110.768V70.455H105.739V88.1126ZM101.94 87.1045V62.4082H96.9116V70.455C96.017 70.3414 95.1245 70.2299 94.23 70.2299C89.0879 70.2299 86.2947 74.591 86.2947 79.3984C86.2947 84.9867 89.313 88.4493 94.8994 88.4493C96.9116 88.4473 100.041 87.999 101.94 87.1045ZM83.9458 86.9949V70.453H78.9173V84.5345C78.5826 84.8692 77.3513 84.9827 76.6819 84.9827C75.118 84.9827 74.2234 84.1998 74.2234 82.6358V70.453H69.1949V82.1895C69.1949 86.9949 71.5418 88.4473 76.1241 88.4473C79.0308 88.4473 82.3818 87.7779 83.9458 86.9949ZM65.9535 88.1126V71.1244C63.8297 70.455 61.9291 70.0067 60.0304 70.0067C53.6611 70.0067 50.0849 74.1427 50.0849 80.4005C50.0849 84.4249 51.9856 88.4473 56.4543 88.4473C58.2413 88.4473 60.0304 87.6643 61.0365 86.6582V88.1126H65.9535ZM48.1843 81.0699C48.1843 78.6114 46.9551 76.8243 45.2776 75.4815C44.385 74.8121 42.0381 73.5829 40.3606 72.6883C38.9082 72.0189 37.4559 71.0148 37.4559 69.4469C37.4559 67.5482 38.9082 66.6537 40.8089 66.6537C42.7095 66.5441 44.385 67.102 45.9509 67.7734L47.2918 64.1932C45.3931 63.1891 42.8211 62.6293 40.5877 62.6293C36.0055 62.6293 32.3178 64.9762 32.3178 69.672C32.3178 72.6883 33.9953 74.4774 35.7823 75.5951C37.2347 76.3781 39.1353 77.2726 40.3646 77.942C42.0401 78.8365 42.9346 79.8406 42.9346 81.297C42.9346 83.3092 40.9224 84.2037 39.0238 84.2037C37.0116 84.2037 34.2184 83.3092 33.3239 82.9745L32.2062 86.6602C34.6627 87.6683 37.0116 88.2242 39.5816 88.2242C43.9367 88.2222 48.1843 85.7657 48.1843 81.0699ZM161.842 83.9766C161.15 84.5489 160.282 84.8649 159.384 84.8711C156.702 84.8711 156.254 81.5161 156.254 79.3963C156.254 76.4896 157.26 72.9135 160.724 72.9135C161.059 72.9135 161.507 73.027 161.842 73.1346V83.9766ZM131.781 79.2828H125.634L128.764 68.1081H128.876L131.781 79.2828ZM96.9116 84.8711C96.4653 85.0923 95.7939 85.2058 95.2361 85.2058C91.9946 85.2058 91.5483 81.6297 91.5483 79.1712C91.5483 76.4896 92.1062 73.027 95.4592 73.027C95.9055 73.027 96.4653 73.1366 96.9116 73.2482V84.8711ZM60.925 83.9766C60.142 84.5364 59.361 84.8711 58.4665 84.8711C55.7849 84.8711 55.3366 81.5161 55.3366 79.3963C55.3366 76.4896 56.3427 72.9135 59.8073 72.9135C60.142 72.9135 60.5902 73.027 60.925 73.1346V83.9766ZM191.459 43.073C191.459 45.0852 191.346 48.9961 188.553 48.9961C185.759 48.9961 185.759 44.9717 185.759 43.073C185.759 41.1744 185.759 37.0384 188.553 37.0384C191.346 37.0384 191.459 41.1724 191.459 43.073ZM199.727 52.2356H204.871V26.9794H199.727V52.2356ZM214.817 52.4607V34.1337H209.677V53.0185C209.677 55.7041 208.113 56.4851 205.876 56.4851C204.423 56.4851 202.299 55.9253 201.07 55.477L199.952 58.6049C201.63 59.4994 204.871 60.1728 206.77 60.1728C211.91 60.1748 214.817 57.4892 214.817 52.4607ZM196.599 43.1846C196.599 38.1581 194.141 33.6854 188.553 33.6854C183.078 33.6854 180.619 38.1561 180.619 43.1846C180.619 43.854 180.733 44.637 180.844 45.3084C180.954 45.9778 181.066 46.6472 181.066 46.9819C181.066 48.3247 180.396 48.9941 178.272 48.9941H174.585C175.814 48.2111 176.597 46.5396 176.597 45.0833C176.597 38.3792 166.538 37.931 166.538 33.3467C166.538 31.3345 168.325 30.7787 170.114 30.7787C171.566 30.7787 173.467 31.1134 175.031 31.8963L176.26 28.4318C174.585 27.4256 171.901 26.8678 169.22 26.8678C165.197 26.8678 161.173 28.9896 161.173 33.3467C161.173 41.0588 171.118 40.9453 171.118 45.6431C171.118 47.7669 169.777 48.9941 165.978 48.9941H158.826V35.0242C157.373 34.2412 154.801 33.6854 152.345 33.6854C146.199 33.6854 142.957 37.4827 142.957 43.5193C142.957 48.2111 145.416 52.3491 150.446 52.3491C151.45 52.3491 152.793 52.2355 153.686 51.6797V53.0185C153.686 55.477 152.233 56.4851 149.886 56.4851C148.434 56.4851 146.31 55.9253 145.081 55.477L143.963 58.6049C145.639 59.4994 148.88 60.1728 150.781 60.1728C155.921 60.1728 158.828 57.2661 158.828 52.2356H179.055C180.844 52.2356 182.41 51.6797 183.301 50.5581C183.64 50.8967 184.421 51.4526 184.869 51.6777C185.873 52.2336 187.102 52.5683 188.555 52.5683C194.139 52.5703 196.599 48.2131 196.599 43.1846ZM129.432 52.2356H134.685V26.9794H129.432V52.2356ZM124.517 46.3145V26.9794H119.375V46.6492C119.375 48.2131 118.368 49.1077 116.805 49.1077C114.569 49.1077 113.005 48.6594 111.776 48.1036V34.1337H106.522V48.773C105.853 49.1077 104.735 49.2212 104.064 49.2212C102.386 49.2212 101.494 48.6614 101.494 46.8743V34.1337H96.3517V48.5498C95.7939 48.9941 94.7878 49.2192 93.8953 49.2192C92.1062 49.2192 91.4368 48.3247 91.4368 46.7608V34.1337H86.1831V46.5396C86.1831 48.2131 85.4002 48.9941 83.6131 48.9941H71.9901V37.5963C72.4364 37.3711 73.4425 37.148 74.1139 37.148C75.0084 37.148 75.5662 37.4827 76.0145 37.931C76.5723 38.4908 76.6839 40.0547 76.6839 41.5071C76.6839 43.5193 76.4608 45.5315 76.3492 46.5376H81.2662C81.3777 45.3084 81.7124 42.5132 81.7124 40.7241C81.7124 39.6065 81.6009 38.4908 81.3777 37.7078C80.7083 34.6875 78.1363 33.6834 74.337 33.6834C71.767 33.6834 68.3024 34.3528 66.7384 35.1358V48.9921H62.1562V35.0222C60.8154 34.2393 58.2453 33.6834 55.7869 33.6834C49.5271 33.6834 46.2856 37.4807 46.2856 43.5173C46.2856 48.2092 48.8577 52.3471 53.7746 52.3471C54.7807 52.3471 56.1216 52.2336 57.0161 51.6777V53.0165C57.0161 55.475 55.5637 56.4831 53.2168 56.4831C51.7644 56.4831 49.7522 55.9233 48.4094 55.475L47.2918 58.6029C48.9693 59.4974 52.3203 60.1708 54.2229 60.1708C59.2514 60.1708 62.1562 57.2641 62.1562 52.2336H83.8362C85.2886 52.2336 86.741 51.7853 87.5239 51.0043C88.3069 51.8989 90.4287 52.6818 92.4409 52.6818C94.5627 52.6818 96.8 52.3471 98.2524 51.0043C99.8163 52.3471 102.163 52.6818 104.175 52.6818C106.522 52.6818 108.758 52.126 110.098 51.343C111.776 52.0124 114.123 52.6818 116.916 52.6818C121.387 52.6838 124.517 51.1199 124.517 46.3145ZM44.2715 43.2982C44.2715 40.1663 43.602 37.8194 42.1497 36.1459C40.6973 34.578 38.6851 33.6874 36.115 33.6874C34.7742 33.6874 32.9872 34.0221 31.7559 34.5779L32.5389 37.8194C33.3535 37.4758 34.2251 37.2873 35.1089 37.2635C36.5613 37.2635 37.5674 38.0465 38.1273 39.0486C38.6851 40.2779 38.9102 42.1765 38.9102 43.2982C38.9102 44.8621 38.6871 46.8743 37.5694 48.1036C36.898 48.8865 36.117 49.1077 34.4395 49.1077H30.8634L30.194 52.5703H35.5572C38.0157 52.5703 40.251 51.9009 41.815 50.2234C43.3789 48.4383 44.2715 45.9798 44.2715 43.2982ZM9.40251 28.88C9.40251 27.5392 8.17327 26.4215 6.72089 26.4215C5.26852 26.4215 4.03729 27.5392 4.03729 28.88C4.03729 30.2188 5.26653 31.3365 6.72089 31.3365C8.17526 31.3365 9.40251 30.2188 9.40251 28.88ZM16.1105 28.88C16.1105 27.5392 14.9929 26.4215 13.4289 26.4215C11.9765 26.4215 10.7473 27.5392 10.7473 28.88C10.7473 30.2188 11.9765 31.3365 13.4289 31.3365C14.9929 31.3365 16.1105 30.2188 16.1105 28.88ZM22.9261 57.7143C22.9261 56.3715 21.6969 55.2558 20.2425 55.2558C18.7901 55.2558 17.5609 56.3735 17.5609 57.7143C17.5609 58.9436 18.7901 60.1728 20.2425 60.1728C21.6969 60.1748 22.9261 58.9436 22.9261 57.7143ZM29.6322 57.7143C29.6322 56.3715 28.4029 55.2558 26.9505 55.2558C25.4982 55.2558 24.2669 56.3735 24.2669 57.7143C24.2669 58.9436 25.4962 60.1728 26.9505 60.1728C28.4029 60.1748 29.6322 58.9436 29.6322 57.7143ZM29.409 46.3145V34.1357H24.2669V46.6492C24.2669 48.2131 23.2608 49.1077 21.8085 49.1077C20.1329 49.1077 17.5629 48.6594 16.2201 47.99V35.0242C14.9909 34.3548 12.4188 33.6854 9.7392 33.6854C3.47945 33.6854 0.351562 38.1561 0.351562 43.6309C0.351562 50.1138 4.37598 52.6818 8.50996 52.6818C10.5323 52.6867 12.5126 52.1039 14.2099 51.0043C16.4452 52.124 19.2384 52.6818 21.922 52.6818C26.2791 52.6838 29.409 51.2314 29.409 46.3145ZM153.684 48.8865C153.194 49.1137 152.66 49.2281 152.12 49.2212C148.878 49.2212 148.432 46.2009 148.432 43.2982C148.432 39.8316 149.101 36.8153 152.12 36.8153C152.568 36.8153 153.237 36.8153 153.684 37.0364V48.8865ZM57.0141 48.8865C56.5238 49.1139 55.9886 49.2283 55.4482 49.2212C52.2087 49.2212 51.7604 46.2009 51.7604 43.2982C51.7604 39.8316 52.4299 36.8153 55.4482 36.8153C55.8944 36.8153 56.6774 36.8153 57.0141 37.0364V48.8865ZM11.08 48.9941C10.5222 49.2192 9.96234 49.4424 9.29293 49.4424C5.93992 49.4424 5.71678 45.9798 5.71678 43.4077C5.71678 40.8397 6.05149 36.7037 9.4045 36.7037C9.96433 36.7037 10.5242 36.8173 11.082 37.0384V48.9941H11.08ZM219.397 52.2356V36.4806C219.397 34.0221 220.517 32.9044 219.062 30.5535C217.724 28.5433 219.397 26.9794 219.397 26.9794H224.537C224.537 26.9794 222.864 28.6569 224.316 30.5535C225.768 32.4562 224.537 34.3548 224.537 36.5882V52.2356H219.397ZM350.456 -0.614258L350.491 -0.578401V99.747H250.134V-0.614258H350.456Z" fill="#2E559F"/>
<path fill-rule="evenodd" clip-rule="evenodd" d="M321.642 -0.614258C332.966 7.00368 342.752 16.6871 350.49 27.9292V99.747H250.133V-0.614258H321.642Z" fill="#2E559F"/>
<path fill-rule="evenodd" clip-rule="evenodd" d="M250.135 0.0910156C253.878 -0.379946 257.647 -0.615498 261.419 -0.614253C307.02 -0.614253 344.687 33.3602 350.492 77.288V99.747H250.135V0.0910156Z" fill="#2E559F"/>
<path fill-rule="evenodd" clip-rule="evenodd" d="M250.135 0.764437C253.878 0.291148 257.646 0.0542553 261.419 0.0551785C310.597 0.0551785 350.492 39.9527 350.492 89.1262C350.492 92.6753 350.28 96.2211 349.859 99.745H250.135V0.764437V0.764437Z" fill="#2E559C"/>
<path fill-rule="evenodd" clip-rule="evenodd" d="M250.135 1.54914C253.877 1.074 257.646 0.836445 261.419 0.837897C310.258 0.837897 349.823 40.4007 349.823 89.1259C349.823 92.722 349.602 96.2623 349.185 99.7448H250.135V1.54914V1.54914Z" fill="#2D569C"/>
<path fill-rule="evenodd" clip-rule="evenodd" d="M250.135 2.22853C253.877 1.7472 257.646 1.50631 261.419 1.50733C309.814 1.50733 349.04 40.7334 349.04 89.126C349.04 92.722 348.818 96.2623 348.394 99.7448H250.135V2.22853V2.22853Z" fill="#2D579D"/>
<path fill-rule="evenodd" clip-rule="evenodd" d="M250.135 3.01971C253.877 2.53359 257.646 2.29002 261.419 2.29053C309.475 2.29053 348.368 41.1819 348.368 89.1262C348.368 92.7223 348.147 96.2625 347.723 99.745H250.137V3.01971H250.135V3.01971Z" fill="#2B589B"/>
<path fill-rule="evenodd" clip-rule="evenodd" d="M250.135 3.69507C253.876 3.20663 257.646 2.96173 261.419 2.96191C309.031 2.96191 347.585 41.5186 347.585 89.1282C347.585 92.7243 347.364 96.2645 346.936 99.747H250.135V3.69507Z" fill="#2B599B"/>
<path fill-rule="evenodd" clip-rule="evenodd" d="M250.135 4.37646C253.876 3.88103 257.645 3.63212 261.419 3.63135C308.584 3.63135 346.916 41.9649 346.916 89.1262C346.916 92.7223 346.691 96.2665 346.258 99.7451H250.135V4.37646Z" fill="#2C5A9A"/>
<path fill-rule="evenodd" clip-rule="evenodd" d="M250.135 5.16117C253.876 4.66309 257.645 4.41351 261.419 4.41406C308.246 4.41406 346.246 42.2993 346.246 89.1279C346.246 92.724 346.017 96.2683 345.585 99.7468H250.135V5.16117Z" fill="#2C5B98"/>
<path fill-rule="evenodd" clip-rule="evenodd" d="M250.135 5.84252C253.875 5.33912 257.645 5.0862 261.419 5.08545C307.911 5.08545 345.466 42.7476 345.466 89.1279C345.466 92.728 345.237 96.2683 344.8 99.7468H250.135V5.84252Z" fill="#2B5D98"/>
<path fill-rule="evenodd" clip-rule="evenodd" d="M250.135 6.62974C253.875 6.12208 257.645 5.86716 261.419 5.8667C307.463 5.8667 344.792 43.1941 344.792 89.1282C344.792 92.7283 344.563 96.2685 344.123 99.7471H250.135V6.62974V6.62974Z" fill="#285D97"/>
<path fill-rule="evenodd" clip-rule="evenodd" d="M250.135 7.3091C253.874 6.79679 257.645 6.53919 261.419 6.53809C307.02 6.53809 344.009 43.5288 344.009 89.1282C344.009 92.7283 343.78 96.2685 343.332 99.7471H250.135V7.3091Z" fill="#285E97"/>
<path fill-rule="evenodd" clip-rule="evenodd" d="M250.135 8.09979C253.874 7.58183 257.644 7.32155 261.419 7.3208C306.682 7.3208 343.34 43.9768 343.34 89.1279C343.34 92.728 343.107 96.2683 342.654 99.7468H250.135V8.09979Z" fill="#2B6197"/>
<path fill-rule="evenodd" clip-rule="evenodd" d="M250.135 8.7732C253.874 8.25291 257.644 7.9913 261.419 7.99023C306.237 7.99023 342.559 44.3096 342.559 89.126C342.559 92.726 342.322 96.2663 341.865 99.7448H250.135V8.7732V8.7732Z" fill="#2B6196"/>
<path fill-rule="evenodd" clip-rule="evenodd" d="M250.135 9.56043C253.873 9.03602 257.644 8.7724 261.419 8.77148C305.899 8.77148 341.89 44.7561 341.89 89.1263C341.89 92.7263 341.648 96.2706 341.188 99.7451H250.135V9.56043V9.56043Z" fill="#2E6497"/>
<path fill-rule="evenodd" clip-rule="evenodd" d="M250.135 10.2418C253.873 9.71105 257.644 9.44409 261.419 9.44287C305.457 9.44287 341.106 45.0948 341.106 89.1282C341.106 92.7283 340.861 96.2726 340.399 99.7471H250.135V10.2418V10.2418Z" fill="#2F6595"/>
<path fill-rule="evenodd" clip-rule="evenodd" d="M250.135 10.9231C253.872 10.3851 257.643 10.1148 261.419 10.1143C305.118 10.1143 340.433 45.541 340.433 89.1282C340.433 92.7323 340.188 96.2725 339.726 99.7471H250.135V10.9231Z" fill="#2E6695"/>
<path fill-rule="evenodd" clip-rule="evenodd" d="M250.135 11.7059C253.82 11.1759 257.586 10.895 261.419 10.895C304.674 10.895 339.764 45.8755 339.764 89.126C339.764 92.7301 339.515 96.2703 339.04 99.7449H250.135V11.7059V11.7059Z" fill="#2F6694"/>
<path fill-rule="evenodd" clip-rule="evenodd" d="M250.135 12.3873C253.82 11.8474 257.586 11.5645 261.419 11.5645C304.225 11.5645 338.983 46.3218 338.983 89.126C338.983 92.7301 338.73 96.2743 338.256 99.7449H250.137V12.3873H250.135V12.3873Z" fill="#306995"/>
<path fill-rule="evenodd" clip-rule="evenodd" d="M250.135 13.1744C253.871 12.6258 257.643 12.3501 261.419 12.3496C303.887 12.3496 338.313 46.7703 338.313 89.1282C338.313 92.7323 338.056 96.2765 337.578 99.7471H250.135V13.1744Z" fill="#2E6A93"/>
<path fill-rule="evenodd" clip-rule="evenodd" d="M250.135 13.8538C253.871 13.2985 257.642 13.0202 261.419 13.021C303.444 13.021 337.526 47.107 337.526 89.1282C337.526 92.7323 337.273 96.2765 336.791 99.7471H250.135V13.8538V13.8538Z" fill="#2F6B92"/>
<path fill-rule="evenodd" clip-rule="evenodd" d="M250.135 14.6385C253.817 14.0887 257.586 13.8018 261.419 13.8018C303.106 13.8018 336.857 47.4415 336.857 89.128C336.857 92.736 336.6 96.2763 336.11 99.7469H250.135V14.6385Z" fill="#2F6C92"/>
<path fill-rule="evenodd" clip-rule="evenodd" d="M250.135 15.3199C253.87 14.7547 257.642 14.4717 261.419 14.4732C302.661 14.4732 336.076 47.8877 336.076 89.128C336.076 92.732 335.815 96.2763 335.321 99.7468H250.135V15.3199V15.3199Z" fill="#306E93"/>
<path fill-rule="evenodd" clip-rule="evenodd" d="M250.135 16.0013C253.869 15.4273 257.641 15.1402 261.419 15.1426C302.323 15.1426 335.406 48.334 335.406 89.126C335.406 92.7341 335.141 96.2743 334.643 99.7449H250.135V16.0013V16.0013Z" fill="#306E91"/>
<path fill-rule="evenodd" clip-rule="evenodd" d="M250.135 16.7885C253.869 16.2124 257.641 15.9233 261.419 15.9238C301.876 15.9238 334.733 48.669 334.733 89.1263C334.733 92.7343 334.468 96.2746 333.962 99.7452H250.135V16.7885Z" fill="#327090"/>
<path fill-rule="evenodd" clip-rule="evenodd" d="M250.135 17.4738C253.813 16.896 257.582 16.5972 261.419 16.5972C301.432 16.5972 333.95 49.1192 333.95 89.1282C333.95 92.7363 333.685 96.2805 333.175 99.7471H250.133V17.4738H250.135Z" fill="#34728F"/>
<path fill-rule="evenodd" clip-rule="evenodd" d="M250.135 18.2605C253.868 17.6741 257.64 17.3796 261.419 17.3799C301.093 17.3799 333.281 49.4537 333.281 89.128C333.281 92.736 333.012 96.2803 332.498 99.7468H250.133V18.2605H250.135Z" fill="#35748F"/>
<path fill-rule="evenodd" clip-rule="evenodd" d="M250.135 18.9439C253.867 18.3469 257.64 18.0471 261.419 18.0474C300.759 18.0474 332.5 49.898 332.5 89.1261C332.5 92.7361 332.227 96.2783 331.713 99.7449H250.135V18.9439V18.9439Z" fill="#35758E"/>
<path fill-rule="evenodd" clip-rule="evenodd" d="M250.135 19.6233C253.866 19.0216 257.64 18.7191 261.419 18.7188C300.31 18.7187 331.83 50.2347 331.83 89.126C331.83 92.7361 331.553 96.2823 331.033 99.7449H250.137V19.6233H250.135Z" fill="#38778E"/>
<path fill-rule="evenodd" clip-rule="evenodd" d="M250.135 20.4164C253.865 19.8075 257.639 19.5016 261.419 19.502C299.864 19.502 331.047 50.6832 331.047 89.1283C331.047 92.7383 330.77 96.2845 330.246 99.7471H250.135V20.4164V20.4164Z" fill="#38788E"/>
<path fill-rule="evenodd" clip-rule="evenodd" d="M250.135 21.0978C253.865 20.4823 257.639 20.1732 261.419 20.1733C299.529 20.1733 330.374 51.1314 330.374 89.1283C330.374 92.7383 330.093 96.2845 329.561 99.7471H250.135V21.0978Z" fill="#3C7B8E"/>
<path fill-rule="evenodd" clip-rule="evenodd" d="M250.135 21.8885C253.864 21.2666 257.638 20.9541 261.419 20.9541C299.081 20.9541 329.705 51.4639 329.705 89.1261C329.705 92.6818 329.428 96.2322 328.876 99.7449H250.135V21.8885Z" fill="#3C7B8D"/>
<path fill-rule="evenodd" clip-rule="evenodd" d="M250.135 22.5658C253.864 21.94 257.638 21.6254 261.419 21.6255C298.746 21.6255 328.924 51.8006 328.924 89.128C328.923 92.6839 328.644 96.2343 328.091 99.7469H250.135V22.5658Z" fill="#3D7D8B"/>
<path fill-rule="evenodd" clip-rule="evenodd" d="M250.135 23.2512C253.863 22.6167 257.638 22.2975 261.419 22.2969C298.3 22.2969 328.254 52.2489 328.254 89.128C328.254 92.742 327.959 96.2883 327.406 99.7469H250.135V23.2512Z" fill="#3E7E8B"/>
<path fill-rule="evenodd" clip-rule="evenodd" d="M250.135 24.0444C253.862 23.4008 257.637 23.0775 261.419 23.0781C297.965 23.0781 327.471 52.6954 327.471 89.1283C327.471 92.7423 327.176 96.2886 326.618 99.7472H250.133V24.0444H250.135Z" fill="#41818B"/>
<path fill-rule="evenodd" clip-rule="evenodd" d="M250.135 24.7218C253.801 24.0843 257.57 23.7476 261.419 23.7476C297.517 23.7476 326.798 53.0282 326.798 89.1264C326.798 92.7404 326.499 96.2866 325.933 99.7452H250.133V24.7218H250.135Z" fill="#418189"/>
<path fill-rule="evenodd" clip-rule="evenodd" d="M250.135 25.5165C253.86 24.8591 257.636 24.5291 261.419 24.5303C297.071 24.5303 326.128 53.4762 326.128 89.1261C326.128 92.744 325.826 96.2903 325.254 99.7449H250.135V25.5165V25.5165Z" fill="#438388"/>
<path fill-rule="evenodd" clip-rule="evenodd" d="M250.135 26.1938C253.86 25.5313 257.636 25.1993 261.419 25.2017C296.736 25.2017 325.347 53.8129 325.347 89.1281C325.347 92.7461 325.041 96.2923 324.465 99.7469H250.135V26.1938V26.1938Z" fill="#438486"/>
<path fill-rule="evenodd" clip-rule="evenodd" d="M250.135 26.989C253.859 26.3177 257.635 25.981 261.419 25.9829C296.402 25.9829 324.678 54.2574 324.678 89.1264C324.677 92.6846 324.379 96.2364 323.788 99.7452H250.135V26.989Z" fill="#478688"/>
<path fill-rule="evenodd" clip-rule="evenodd" d="M250.135 27.6704C253.793 27.003 257.566 26.6543 261.419 26.6543C295.953 26.6543 323.891 54.5941 323.891 89.1263C323.891 92.7443 323.58 96.2946 322.993 99.7452H250.135V27.6704Z" fill="#478686"/>
<path fill-rule="evenodd" clip-rule="evenodd" d="M250.135 28.467C253.857 27.7806 257.634 27.4359 261.419 27.437C295.505 27.437 323.222 55.0421 323.222 89.1281C323.222 92.7501 322.907 96.2963 322.311 99.747H250.133V28.467H250.135Z" fill="#488987"/>
<path fill-rule="evenodd" clip-rule="evenodd" d="M250.135 29.1504C253.856 28.4553 257.633 28.1058 261.419 28.1064C295.17 28.1064 322.441 55.4884 322.441 89.1261C322.441 92.7481 322.126 96.2943 321.522 99.7449H250.135V29.1504V29.1504Z" fill="#498984"/>
<path fill-rule="evenodd" clip-rule="evenodd" d="M250.135 29.8377C253.855 29.1314 257.633 28.7765 261.419 28.7778C294.724 28.7778 321.771 55.8231 321.771 89.1281C321.771 92.6882 321.459 96.2415 320.837 99.7469H250.135V29.8377Z" fill="#498B85"/>
<path fill-rule="evenodd" clip-rule="evenodd" d="M250.135 30.6289C253.854 29.9169 257.632 29.5587 261.419 29.5591C294.389 29.5591 321.098 56.2696 321.098 89.1264C321.098 92.7484 320.775 96.2986 320.155 99.7452H250.135V30.6289V30.6289Z" fill="#4C8D85"/>
<path fill-rule="evenodd" clip-rule="evenodd" d="M250.135 31.3143C253.853 30.5927 257.632 30.2297 261.419 30.2305C293.941 30.2305 320.315 56.6043 320.315 89.1264C320.315 92.7523 319.988 96.2986 319.359 99.7452H250.135V31.3143Z" fill="#4D8E83"/>
<path fill-rule="evenodd" clip-rule="evenodd" d="M250.135 32.1129C253.852 31.3809 257.631 31.0125 261.419 31.0132C293.606 31.0132 319.648 57.0523 319.648 89.1261C319.648 92.7521 319.313 96.3023 318.679 99.745H250.137V32.1129H250.135Z" fill="#4D8F83"/>
<path fill-rule="evenodd" clip-rule="evenodd" d="M250.135 32.7943C253.851 32.0539 257.63 31.6816 261.419 31.6826C293.16 31.6826 318.865 57.3871 318.865 89.1261C318.865 92.7561 318.526 96.3023 317.88 99.745H250.135V32.7943Z" fill="#4E9182"/>
<path fill-rule="evenodd" clip-rule="evenodd" d="M250.135 33.5895C253.85 32.8413 257.63 32.4649 261.419 32.4658C292.712 32.4658 318.195 57.8356 318.195 89.1264C318.195 92.7563 317.849 96.3066 317.199 99.7453H250.135V33.5895V33.5895Z" fill="#519281"/>
<path fill-rule="evenodd" clip-rule="evenodd" d="M250.135 34.2748C253.848 33.5157 257.629 33.1346 261.419 33.1372C292.377 33.1372 317.412 58.2838 317.412 89.1284C317.412 92.7583 317.062 96.3086 316.404 99.7473H250.133V34.2748H250.135V34.2748Z" fill="#519381"/>
<path fill-rule="evenodd" clip-rule="evenodd" d="M250.135 34.9642C253.847 34.1925 257.628 33.8046 261.419 33.8066C291.929 33.8066 316.741 58.6166 316.741 89.1264C316.741 92.7563 316.386 96.3065 315.713 99.7452H250.135V34.9642Z" fill="#529681"/>
<path fill-rule="evenodd" clip-rule="evenodd" d="M250.135 35.7548C253.846 34.9781 257.627 34.5876 261.419 34.5894C291.594 34.5894 316.071 58.953 316.071 89.1281C316.071 92.7621 315.713 96.3103 315.035 99.747H250.135V35.7548V35.7548Z" fill="#54967E"/>
<path fill-rule="evenodd" clip-rule="evenodd" d="M250.135 36.4501C253.844 35.6586 257.626 35.2599 261.419 35.2607C291.148 35.2607 315.288 59.4012 315.288 89.1281C315.289 92.6935 314.939 96.2502 314.243 99.747H250.135V36.4501Z" fill="#55977F"/>
<path fill-rule="evenodd" clip-rule="evenodd" d="M250.135 37.2434C253.843 36.4434 257.626 36.0407 261.419 36.042C290.813 36.042 314.619 59.8458 314.619 89.1284C314.619 92.7663 314.252 96.3145 313.557 99.7472H250.135V37.2434Z" fill="#55997E"/>
<path fill-rule="evenodd" clip-rule="evenodd" d="M250.135 37.9347C253.841 37.1222 257.625 36.7127 261.419 36.7134C290.365 36.7134 313.838 60.1825 313.838 89.1284C313.838 92.7663 313.464 96.3146 312.76 99.7473H250.135V37.9347Z" fill="#55997E"/>
<path fill-rule="evenodd" clip-rule="evenodd" d="M250.135 65.5158C253.659 63.8361 257.515 62.9681 261.419 62.9756C275.949 62.9756 287.685 74.7102 287.685 89.1263C287.685 92.9077 286.888 96.4997 285.456 99.7452H250.135V65.5158V65.5158Z" fill="#55997E"/>
<path fill-rule="evenodd" clip-rule="evenodd" d="M303.551 40.4009C304.671 40.9587 305.454 42.0764 305.34 42.9709C305.115 43.8654 304.111 44.2001 302.993 43.7539C301.874 43.196 301.091 42.0784 301.204 41.1838C301.431 40.2893 302.435 39.9526 303.551 40.4009ZM306.237 22.4066C307.127 22.8548 307.801 23.6358 307.689 24.1936C307.689 24.7535 306.906 24.865 305.9 24.4168C305.009 23.9705 304.336 23.1875 304.448 22.6297C304.448 22.0718 305.342 21.9603 306.237 22.4066ZM306.458 20.6195C307.241 20.9542 307.801 21.6256 307.687 22.0718C307.687 22.6317 307.018 22.6317 306.235 22.295C305.452 21.8487 304.892 21.2889 305.005 20.731C305.007 20.2828 305.677 20.2828 306.458 20.6195ZM306.681 18.8324C307.354 19.2787 307.91 19.8365 307.91 20.1732C307.801 20.6195 307.241 20.6195 306.458 20.2848C305.788 19.9501 305.229 19.3922 305.34 18.944C305.342 18.6073 306.012 18.4957 306.681 18.8324V18.8324ZM306.906 17.1549C307.575 17.4896 308.024 17.9379 308.024 18.3841C307.91 18.7188 307.464 18.7188 306.681 18.3841C306.012 18.0494 305.563 17.6012 305.677 17.1549C305.677 16.8202 306.237 16.8202 306.906 17.1549ZM307.127 15.4774C307.687 15.8121 308.135 16.2604 308.135 16.5971C308.135 16.9318 307.575 17.0433 306.906 16.7086C306.346 16.3739 305.898 15.8141 305.898 15.4794C306.012 15.2543 306.458 15.2543 307.127 15.4774V15.4774ZM307.241 14.1366C307.91 14.3597 308.245 14.806 308.245 15.1427C308.245 15.3658 307.689 15.3658 307.127 15.1427C306.571 14.808 306.237 14.3597 306.237 14.1366C306.237 13.8019 306.681 13.8019 307.241 14.1366V14.1366ZM307.462 12.6842C308.022 12.9073 308.356 13.244 308.356 13.5787C308.243 13.9134 307.908 13.8019 307.352 13.5787C306.793 13.3556 306.458 13.0189 306.458 12.6842C306.571 12.3495 306.906 12.4611 307.462 12.6842V12.6842ZM307.689 11.2318C308.137 11.455 308.472 11.7897 308.472 12.0148C308.358 12.3495 308.024 12.2379 307.577 12.0148C307.131 11.7917 306.794 11.457 306.794 11.2318C306.794 11.0067 307.241 11.0087 307.689 11.2318ZM307.801 9.88904C308.245 10.1122 308.584 10.4469 308.584 10.672C308.47 10.8951 308.135 10.7836 307.689 10.672C307.354 10.4489 307.02 10.1142 307.02 9.88904C307.127 9.6659 307.354 9.77946 307.801 9.88904V9.88904ZM308.024 8.6598C308.358 8.77336 308.584 8.99451 308.584 9.21964C308.584 9.44277 308.245 9.3312 307.91 9.21964C307.575 8.9965 307.241 8.77336 307.241 8.55022C307.354 8.43666 307.575 8.43666 308.024 8.6598ZM308.135 7.43056C308.47 7.54412 308.691 7.76726 308.691 7.87883C308.582 8.10196 308.356 8.10196 308.135 7.87883C307.801 7.76726 307.575 7.54412 307.575 7.32098C307.575 7.20942 307.801 7.20942 308.135 7.43056ZM302.549 46.7702C301.541 46.3219 300.985 45.3178 301.095 44.5348C301.208 43.7519 302.103 43.4172 302.997 43.8654C303.888 44.3117 304.561 45.2063 304.45 46.1008C304.334 46.8818 303.551 47.1069 302.549 46.7702V46.7702ZM301.987 50.5695C300.983 50.1232 300.423 49.2287 300.535 48.3341C300.648 47.5512 301.429 47.2165 302.433 47.6647C303.328 48.113 303.886 49.0055 303.776 49.7885C303.665 50.683 302.882 51.0177 301.987 50.5695ZM301.318 54.5939C300.423 54.1456 299.754 53.2531 299.975 52.3585C300.088 51.5756 300.869 51.2409 301.764 51.5756C302.659 52.0238 303.216 52.9164 303.103 53.8109C302.995 54.5939 302.214 54.9286 301.318 54.5939ZM300.537 58.951C299.754 58.6163 299.082 57.6102 299.308 56.8292C299.421 55.9347 300.202 55.6 301.093 55.9347C301.987 56.383 302.547 57.2755 302.435 58.17C302.214 58.951 301.431 59.2877 300.537 58.951ZM299.863 63.4237C299.08 62.9754 298.634 62.1944 298.746 61.4115C298.857 60.6285 299.529 60.2938 300.31 60.6285C300.679 60.7781 300.989 61.0454 301.192 61.389C301.394 61.7326 301.478 62.1333 301.429 62.5291C301.318 63.3101 300.648 63.6468 299.863 63.4237V63.4237ZM298.973 68.6754C298.19 68.4522 297.744 67.5557 297.853 66.7747C297.967 65.9917 298.636 65.5455 299.421 65.8822C300.09 66.2169 300.65 66.9998 300.539 67.7808C300.31 68.5638 299.642 69.0101 298.973 68.6754V68.6754ZM297.965 74.4868C297.295 74.2637 296.847 73.3692 296.961 72.5862C297.07 71.9168 297.744 71.4685 298.413 71.8032C299.082 72.0264 299.421 72.8093 299.308 73.5903C299.194 74.3753 298.634 74.71 297.965 74.4868V74.4868ZM296.961 80.1848C296.401 79.9636 296.066 79.2942 296.178 78.6208C296.287 77.9514 296.733 77.6167 297.407 77.8379C297.963 77.9514 298.297 78.6208 298.19 79.4018C297.965 80.0752 297.516 80.4099 296.961 80.1848ZM307.462 42.4131C308.356 42.8593 309.03 43.7539 308.916 44.5348C308.803 45.3158 308.133 45.5409 307.239 45.0947C306.235 44.6484 305.675 43.7539 305.675 42.9709C305.898 42.2995 306.571 42.0764 307.462 42.4131V42.4131ZM311.377 43.977C312.494 44.5349 313.275 45.6525 313.275 46.5471C313.162 47.4416 312.267 47.7763 311.152 47.33C310.034 46.7722 309.253 45.6545 309.253 44.6484C309.365 43.7539 310.257 43.4192 311.377 43.977ZM340.767 40.8491C340.211 40.626 339.984 40.626 340.098 41.0723C340.098 41.5185 340.546 42.0784 341.106 42.4131C341.55 42.6362 341.775 42.6362 341.775 42.1899C341.661 41.7417 341.215 41.1838 340.767 40.8491ZM337.639 39.06C337.191 38.8369 336.856 38.9485 336.97 39.2832C337.083 39.6179 337.418 40.1777 337.864 40.4009C338.31 40.624 338.647 40.624 338.534 40.2893C338.42 39.843 338.085 39.3948 337.639 39.06ZM338.085 41.6301C337.637 41.2954 337.302 41.407 337.302 41.8532C337.416 42.2995 337.862 42.8574 338.31 43.194C338.866 43.4172 339.093 43.3056 339.093 42.9709C338.982 42.5226 338.534 41.9648 338.085 41.6301ZM334.957 39.6179C334.284 39.2832 333.949 39.5063 333.949 39.9526C334.063 40.4009 334.623 41.0703 335.179 41.405C335.738 41.7397 336.187 41.6281 336.073 41.1818C336.075 40.624 335.513 39.9526 334.957 39.6179V39.6179ZM327.132 69.0101C326.349 68.5618 325.793 68.8985 325.793 69.793C325.902 70.6876 326.462 71.6937 327.245 72.1399C328.028 72.5862 328.588 72.2515 328.588 71.3569C328.475 70.4644 327.919 69.4583 327.132 69.0101V69.0101ZM323.221 61.7462C322.326 61.2979 321.657 61.6346 321.657 62.5291C321.657 63.5352 322.326 64.6529 323.221 65.0992C324.115 65.659 324.785 65.2108 324.785 64.3162C324.787 63.3101 324.117 62.1925 323.221 61.7462ZM319.085 55.4884C318.194 55.0422 317.521 55.3769 317.521 56.2714C317.521 57.1659 318.194 58.172 319.085 58.6183C319.979 59.0646 320.653 58.7299 320.653 57.8353C320.653 56.9408 319.981 55.9347 319.085 55.4884ZM315.847 29.5608C315.064 29.1126 314.393 29.2261 314.393 29.784C314.393 30.3418 315.066 31.1248 315.847 31.4595C316.63 31.9078 317.3 31.7962 317.3 31.2364C317.3 30.6765 316.63 29.8936 315.847 29.5608ZM332.164 40.624C331.491 40.2893 331.156 40.4009 331.156 40.8471C331.27 41.405 331.716 42.0764 332.385 42.4111C332.945 42.7458 333.393 42.6342 333.393 42.0764C333.28 41.6301 332.72 40.9587 332.164 40.624V40.624ZM328.923 38.7253C328.253 38.3906 327.805 38.6138 327.919 39.06C327.919 39.6199 328.475 40.2893 329.144 40.7356C329.817 41.0703 330.264 40.9587 330.264 40.4009C330.152 39.843 329.592 39.1716 328.923 38.7253V38.7253ZM322.665 37.9424C321.878 37.4961 321.322 37.7192 321.322 38.2771C321.322 38.9465 321.992 39.7295 322.775 40.0642C323.558 40.5104 324.117 40.2873 324.117 39.7295C324.004 39.06 323.448 38.2771 322.665 37.9424ZM325.793 36.8247C325.01 36.49 324.339 36.6016 324.45 37.273C324.45 37.8308 325.12 38.7253 325.903 39.1736C326.797 39.6219 327.357 39.3967 327.357 38.7273C327.245 38.1655 326.576 37.271 325.793 36.8247V36.8247ZM322.44 35.0356C321.436 34.5894 320.762 34.7009 320.762 35.4839C320.876 36.1533 321.545 37.0479 322.551 37.6077C323.446 38.054 324.115 37.8308 324.115 37.1594C324.117 36.3765 323.334 35.4839 322.44 35.0356V35.0356ZM319.198 36.0417C318.415 35.5955 317.746 35.8186 317.746 36.49C317.746 37.1594 318.415 37.9424 319.31 38.5022C320.093 38.8369 320.762 38.7254 320.762 38.054C320.762 37.3826 320.093 36.49 319.198 36.0417ZM315.174 49.5654C314.283 49.1191 313.61 49.4538 313.497 50.2368C313.497 51.0197 314.17 52.0238 315.064 52.4721C315.955 52.9184 316.738 52.5837 316.738 51.8007C316.74 50.9062 316.071 50.0116 315.174 49.5654ZM315.401 45.9892C314.393 45.541 313.612 45.8777 313.499 46.6586C313.499 47.5532 314.172 48.5593 315.176 49.1171C316.184 49.5634 316.965 49.2287 317.075 48.4457C317.075 47.5532 316.292 46.5471 315.401 45.9892V45.9892ZM315.509 42.7478C314.391 42.1899 313.61 42.5246 313.497 43.3056C313.497 44.3117 314.283 45.4294 315.399 45.8777C316.403 46.4355 317.298 46.1008 317.298 45.2082C317.3 44.3117 316.517 43.1941 315.509 42.7478V42.7478ZM315.622 39.6179C314.618 39.1696 313.724 39.3948 313.724 40.1757C313.61 40.9587 314.393 42.0764 315.509 42.6342C316.517 43.0805 317.298 42.8573 317.411 41.9628C317.411 41.1838 316.63 40.1777 315.622 39.6179V39.6179ZM315.622 36.9363C314.728 36.49 314.058 36.7131 313.945 37.3845C313.945 38.054 314.618 38.9485 315.509 39.3967C316.517 39.845 317.186 39.6199 317.186 38.9485C317.186 38.2771 316.517 37.3825 315.622 36.9363ZM315.736 34.1411C314.728 33.8064 314.058 33.918 313.947 34.5894C313.947 35.3723 314.73 36.2649 315.736 36.8247C316.63 37.273 317.413 37.0478 317.413 36.3784C317.411 35.5955 316.74 34.7009 315.736 34.1411V34.1411Z" fill="white"/>
<path fill-rule="evenodd" clip-rule="evenodd" d="M315.848 31.6827C314.84 31.2364 314.17 31.4595 314.059 32.1309C314.059 32.8023 314.842 33.6949 315.736 34.1432C316.74 34.5914 317.414 34.4778 317.414 33.8084C317.412 33.1351 316.74 32.131 315.848 31.6827V31.6827ZM309.588 24.3072C308.918 23.9725 308.359 24.0841 308.359 24.5304C308.245 24.9786 308.807 25.5365 309.476 25.8712C310.15 26.0943 310.596 26.0943 310.706 25.6481C310.704 25.2018 310.257 24.642 309.588 24.3072ZM309.588 22.4066C309.032 22.0719 308.584 22.1835 308.47 22.5182C308.47 22.8529 308.918 23.4127 309.588 23.7474C310.148 23.9706 310.596 23.9706 310.706 23.6359C310.704 23.1896 310.257 22.6317 309.588 22.4066ZM309.699 20.6195C309.14 20.2848 308.691 20.2848 308.691 20.6195C308.691 20.9542 309.03 21.4025 309.586 21.6256C310.146 21.9603 310.594 21.8488 310.594 21.6256C310.596 21.2889 310.257 20.8427 309.699 20.6195ZM309.699 18.8325C309.251 18.6093 308.917 18.6093 308.805 18.8325C308.805 19.1672 309.14 19.5019 309.588 19.725C310.148 19.9481 310.482 19.9481 310.482 19.725C310.596 19.3903 310.148 19.0556 309.699 18.8325ZM309.699 17.155C309.251 16.9318 308.917 16.9318 308.917 17.155C308.917 17.4897 309.251 17.8244 309.699 18.0495C310.148 18.2726 310.482 18.2726 310.482 17.9379C310.482 17.7128 310.148 17.3781 309.699 17.155ZM309.813 15.4775C309.365 15.2543 309.03 15.2543 309.03 15.4775C309.03 15.7006 309.365 16.0373 309.699 16.1488C310.148 16.372 310.369 16.4836 310.482 16.1488C310.482 15.9257 310.148 15.7006 309.813 15.4775ZM309.813 14.0251C309.474 13.8019 309.14 13.8019 309.14 14.0251C309.14 14.2482 309.365 14.4733 309.699 14.6945C310.148 14.8061 310.369 14.9176 310.369 14.6945C310.369 14.4733 310.148 14.2482 309.813 14.0251V14.0251ZM309.813 12.4611C309.474 12.3496 309.253 12.3496 309.253 12.4611C309.253 12.6843 309.474 12.9074 309.813 13.1305C310.148 13.2421 310.369 13.2421 310.369 13.1305C310.369 12.9074 310.148 12.6843 309.813 12.4611ZM306.906 48.2246C307.576 48.5593 308.136 48.3362 308.245 47.7763C308.245 47.1069 307.801 46.4355 307.127 46.1008C306.344 45.7661 305.789 45.9893 305.675 46.5471C305.677 47.2185 306.123 47.8879 306.906 48.2246V48.2246ZM306.346 52.1355C307.02 52.3586 307.576 52.1355 307.689 51.5776C307.803 50.9082 307.241 50.2368 306.572 49.9021C306.012 49.679 305.454 49.9021 305.342 50.4599C305.229 51.1294 305.677 51.8008 306.346 52.1355ZM305.563 56.0463C306.237 56.381 306.793 56.0463 306.906 55.4865C306.913 55.1407 306.821 54.8001 306.643 54.5038C306.465 54.2075 306.207 53.9674 305.898 53.811C305.229 53.5878 304.673 53.811 304.559 54.4824C304.448 55.0422 304.894 55.7116 305.563 56.0463ZM304.894 60.4054C305.563 60.6286 306.012 60.4054 306.123 59.736C306.237 59.1762 305.789 58.5068 305.229 58.1701C304.559 57.947 304 58.1701 303.886 58.8395C303.886 59.3993 304.225 60.0687 304.894 60.4054V60.4054ZM304 64.653C304.559 64.8761 305.117 64.653 305.229 63.9816C305.229 63.4237 304.894 62.8639 304.334 62.5292C304.21 62.4772 304.076 62.4538 303.942 62.4606C303.808 62.4675 303.677 62.5044 303.559 62.5687C303.441 62.6329 303.339 62.7229 303.26 62.832C303.182 62.941 303.129 63.0663 303.105 63.1986C303.105 63.7584 303.444 64.4278 304 64.653ZM302.995 69.7931C303.551 70.0162 304 69.7931 304.113 69.1237C304.113 68.5638 303.778 68.006 303.33 67.7828C302.77 67.4481 302.322 67.7828 302.212 68.3407C302.164 68.6353 302.215 68.9376 302.356 69.2003C302.498 69.4631 302.723 69.6715 302.995 69.7931V69.7931ZM319.085 33.4717C318.302 33.0235 317.633 33.2486 317.633 33.8065C317.633 34.4759 318.302 35.2588 319.085 35.7051C319.98 36.1534 320.653 35.9282 320.653 35.3704C320.541 34.701 319.982 33.918 319.085 33.4717ZM319.085 38.9465C318.416 38.6118 317.86 38.7234 317.86 39.2812C317.86 39.8411 318.416 40.6221 319.085 40.9568C319.868 41.2915 320.428 41.1799 320.428 40.5085C320.428 39.9527 319.759 39.2832 319.085 38.9465ZM319.085 41.6302C318.302 41.2954 317.746 41.407 317.633 42.0764C317.633 42.8594 318.302 43.6424 319.085 44.0866C319.98 44.5349 320.539 44.3098 320.539 43.6404C320.541 42.971 319.982 42.0764 319.085 41.6302ZM319.085 51.5756C318.302 51.2409 317.633 51.4641 317.633 52.247C317.633 53.03 318.193 53.9225 318.976 54.2592C319.866 54.7055 320.428 54.4824 320.428 53.6994C320.428 52.9184 319.868 52.0239 319.085 51.5756ZM331.83 37.8289C331.156 37.4942 330.71 37.6057 330.71 38.1636C330.824 38.7234 331.383 39.3928 332.053 39.8411C332.722 40.1758 333.171 40.0642 333.171 39.5064C333.059 38.9465 332.499 38.2771 331.83 37.8289ZM323.11 66.4401C322.327 66.1054 321.771 66.4401 321.771 67.223C321.771 68.1176 322.327 69.1237 323.11 69.4584C323.892 69.9046 324.452 69.5699 324.452 68.6754C324.339 67.8924 323.783 66.8883 323.11 66.4401ZM327.359 73.929C326.69 73.4828 326.13 73.8175 326.13 74.712C326.13 75.6066 326.69 76.6127 327.473 77.0589C328.142 77.5072 328.702 77.0589 328.59 76.2779C328.586 75.8168 328.473 75.3632 328.258 74.9548C328.044 74.5463 327.736 74.1947 327.359 73.929V73.929ZM318.864 59.6225C318.081 59.2878 317.412 59.6225 317.412 60.4054C317.412 61.3 318.081 62.3061 318.864 62.6408C319.647 63.087 320.316 62.7523 320.316 61.8578C320.314 61.0748 319.759 60.0687 318.864 59.6225ZM315.067 53.5878C314.172 53.2531 313.612 53.4763 313.499 54.2592C313.499 55.0422 314.059 55.9347 314.842 56.381C315.736 56.7157 316.294 56.4926 316.406 55.5981C316.406 54.9286 315.736 54.0361 315.067 53.5878ZM311.152 47.6648C310.257 47.3301 309.588 47.5532 309.474 48.3342C309.474 49.1171 310.034 50.1233 310.929 50.458C311.823 50.9062 312.606 50.5695 312.606 49.7886C312.716 49.0056 312.046 48.113 311.152 47.6648ZM319.085 48.2246C318.302 47.8899 317.746 48.113 317.746 48.7825C317.746 49.4519 318.302 50.2348 319.085 50.6831C319.868 51.0178 320.428 50.7947 320.428 50.1252C320.428 49.4519 319.868 48.5593 319.085 48.2246ZM315.957 27.4371C315.174 27.1024 314.728 27.1024 314.618 27.5487C314.618 28.1065 315.174 28.6664 315.848 29.1126C316.631 29.4473 317.073 29.3358 317.073 28.7779C317.075 28.3297 316.631 27.7718 315.957 27.4371V27.4371ZM328.7 36.3765C328.14 36.0418 327.805 36.1534 327.805 36.5996C327.805 37.0459 328.254 37.6057 328.923 37.9404C329.371 38.1636 329.818 38.052 329.818 37.6057C329.704 37.271 329.258 36.6016 328.7 36.3765V36.3765ZM322.886 43.8655C322.217 43.5308 321.769 43.6424 321.769 44.2002C321.769 44.758 322.325 45.4294 322.886 45.7641C323.556 46.0989 324.004 45.8757 324.004 45.4294C324.004 44.8716 323.448 44.2002 322.886 43.8655ZM323 57.6123C322.217 57.2775 321.657 57.6122 321.657 58.2817C321.657 59.1762 322.217 60.0687 323 60.517C323.891 60.9633 324.452 60.6286 324.452 59.8456C324.339 58.9511 323.783 58.0585 323 57.6123ZM319.085 44.9832C318.416 44.6485 317.86 44.8716 317.746 45.4314C317.746 46.1008 318.416 46.8838 319.085 47.2185C319.868 47.6648 320.428 47.4416 320.428 46.7702C320.428 46.0988 319.868 45.4294 319.085 44.9832ZM326.576 48.894C325.903 48.5593 325.347 48.7825 325.347 49.3403C325.46 50.0117 326.016 50.7927 326.69 51.2409C327.359 51.5756 327.919 51.4641 327.919 50.7927C327.805 50.1233 327.246 49.2307 326.576 48.894ZM330.601 82.197C330.041 81.8623 329.592 82.197 329.592 82.98C329.706 83.7669 330.152 84.6575 330.71 85.1038C331.27 85.4385 331.718 85.1038 331.718 84.3208C331.603 83.5398 331.156 82.6453 330.601 82.197ZM326.016 39.7295C325.347 39.3948 324.899 39.5064 324.899 40.0642C324.899 40.6241 325.458 41.2935 326.128 41.6302C326.797 41.9649 327.246 41.8533 327.246 41.2954C327.132 40.7356 326.576 40.0642 326.016 39.7295ZM312.606 25.8712C312.046 25.5365 311.487 25.6481 311.487 26.0943C311.487 26.429 311.935 26.9889 312.606 27.3236C313.162 27.6583 313.724 27.5467 313.724 27.1004C313.724 26.7657 313.276 26.2059 312.606 25.8712ZM318.978 26.9889C318.418 26.6542 317.969 26.7657 317.969 27.1004C317.969 27.5487 318.418 28.1065 319.087 28.4412C319.647 28.6644 320.095 28.6644 320.095 28.2181C320.093 27.7718 319.647 27.3236 318.978 26.9889ZM325.568 34.8126C325.12 34.4779 324.785 34.5894 324.785 34.9241C324.785 35.3724 325.233 35.8187 325.68 36.1534C326.239 36.3765 326.574 36.2649 326.574 35.9302C326.576 35.484 326.128 35.0357 325.568 34.8126V34.8126ZM322.775 46.9954C322.105 46.6607 321.657 46.8838 321.657 47.4416C321.771 48.0015 322.217 48.7825 322.886 49.1191C323.446 49.4539 324.004 49.2307 324.004 48.6709C324.004 48.113 323.448 47.3281 322.775 46.9954V46.9954ZM326.241 45.7641C325.682 45.4294 325.347 45.541 325.347 46.0988C325.347 46.5451 325.795 47.2165 326.351 47.4396C326.911 47.7744 327.359 47.6628 327.359 47.1049C327.246 46.6587 326.797 45.9893 326.241 45.7641V45.7641ZM330.039 50.9062C329.369 50.5715 328.921 50.7946 329.035 51.3525C329.035 51.9123 329.59 52.6933 330.152 53.1396C330.822 53.4763 331.27 53.2531 331.156 52.5817C331.156 52.0239 330.601 51.2409 330.039 50.9062V50.9062ZM335.179 42.4131C334.731 42.19 334.396 42.2996 334.396 42.7478C334.509 43.1961 334.956 43.7539 335.404 43.9771C335.96 44.3118 336.298 44.2002 336.187 43.7539C336.075 43.3077 335.741 42.7478 335.179 42.4131V42.4131ZM318.978 25.0902C318.418 24.8671 317.969 24.8671 317.969 25.2018C318.083 25.5365 318.418 26.0963 318.978 26.3195C319.533 26.5426 319.868 26.5426 319.868 26.2079C319.868 25.8712 319.424 25.4249 318.978 25.0902ZM319.085 29.1126C318.416 28.7779 318.081 28.8895 318.081 29.3358C318.081 29.6705 318.529 30.2303 319.085 30.4534C319.645 30.7881 320.093 30.6766 320.093 30.3419C319.982 29.8936 319.647 29.4473 319.085 29.1126ZM331.047 77.0569C330.373 76.7222 329.927 76.9454 329.927 77.8399C330.041 78.6229 330.601 79.629 331.156 80.1868C331.83 80.5255 332.274 80.3004 332.274 79.4038C332.272 78.5113 331.716 77.5032 331.047 77.0569V77.0569ZM315.957 25.5365C315.401 25.2018 314.953 25.3134 314.953 25.6481C314.953 25.9828 315.401 26.5426 315.957 26.7657C316.517 27.1004 316.852 26.9889 316.965 26.6542C316.852 26.3195 316.517 25.7596 315.957 25.5365ZM322.665 40.9588C322.105 40.6241 321.657 40.7356 321.657 41.1819C321.657 41.6282 322.105 42.188 322.665 42.5227C323.221 42.7458 323.669 42.6363 323.556 42.188C323.556 41.7417 323.11 41.1839 322.665 40.9588V40.9588ZM322.327 33.1351C321.878 32.9119 321.544 33.0235 321.544 33.3582C321.544 33.6929 321.878 34.1412 322.438 34.3643C322.886 34.5874 323.221 34.4759 323.108 34.1412C323.11 33.8064 322.775 33.3602 322.327 33.1351V33.1351ZM323 54.0361C322.44 53.7014 321.992 53.9245 321.992 54.4844C321.992 55.0422 322.44 55.602 323 55.9367C323.556 56.2714 324.004 56.0503 323.891 55.4905C323.891 54.9286 323.448 54.2592 323 54.0361V54.0361ZM327.132 64.4278C326.463 64.0931 326.014 64.3163 326.014 65.0973C326.014 65.7667 326.574 66.6632 327.244 66.9979C327.803 67.3326 328.252 67.1095 328.252 66.3265C328.254 65.6591 327.694 64.7626 327.132 64.4278V64.4278ZM319.085 31.5711C318.641 31.348 318.302 31.4576 318.302 31.6827C318.302 32.0194 318.641 32.4657 319.085 32.6888C319.533 32.8023 319.868 32.8023 319.868 32.4657C319.806 32.2709 319.704 32.0909 319.57 31.937C319.435 31.7832 319.27 31.6586 319.085 31.5711V31.5711ZM327.246 78.9556C326.797 78.6209 326.351 78.9556 326.351 79.629C326.351 80.2984 326.799 80.9678 327.246 81.3065C327.805 81.6412 328.14 81.3065 328.14 80.6331C328.14 79.9637 327.694 79.2943 327.246 78.9556ZM343.453 42.6362C343.114 42.5227 342.893 42.5227 342.893 42.8594C343.006 43.1941 343.341 43.6424 343.676 43.8655C344.124 44.0886 344.345 44.0886 344.236 43.7539C344.122 43.4192 343.787 42.971 343.453 42.6362V42.6362ZM329.258 41.6302C328.702 41.407 328.363 41.5166 328.363 41.9649C328.477 42.4131 328.923 42.971 329.371 43.3057C329.927 43.5288 330.266 43.4192 330.266 42.971C330.152 42.5227 329.704 41.9649 329.258 41.6302ZM322.105 26.7657C321.657 26.5426 321.211 26.5426 321.211 26.8773C321.378 27.3095 321.696 27.6668 322.105 27.8834C322.665 28.1065 323 28.1065 323 27.7718C322.834 27.3391 322.516 26.9816 322.105 26.7657ZM341.215 43.6424C340.767 43.3057 340.432 43.4192 340.546 43.8655C340.66 44.2002 340.994 44.6485 341.441 44.9832C341.889 45.2063 342.11 45.2063 342.11 44.76C341.996 44.3118 341.55 43.8655 341.215 43.6424ZM333.503 53.03C332.947 52.8069 332.613 52.9184 332.613 53.4783C332.722 54.0361 333.169 54.7075 333.73 55.0422C334.286 55.3769 334.625 55.2653 334.625 54.7075C334.509 54.1457 334.063 53.3647 333.503 53.03V53.03ZM346.467 44.6485C346.132 44.4253 345.907 44.5349 345.907 44.8716C346.021 45.0947 346.356 45.541 346.694 45.7661C346.915 45.9893 347.138 45.8777 347.138 45.6546C347.029 45.3179 346.694 44.8716 346.467 44.6485V44.6485ZM334.509 37.4942C334.175 37.271 333.95 37.271 333.95 37.6057C334.063 37.9404 334.398 38.2751 334.733 38.5003C335.071 38.7234 335.406 38.7234 335.292 38.3887C335.292 38.054 334.958 37.6077 334.509 37.4942ZM332.945 87.6758C332.497 87.2275 332.162 87.5622 332.272 88.2316C332.272 89.0146 332.611 89.9091 333.059 90.2439C333.615 90.6921 333.95 90.3574 333.842 89.5744C333.842 88.905 333.394 88.0105 332.945 87.6758V87.6758ZM323.11 71.4686C322.554 71.2454 322.105 71.4686 322.105 72.14C322.105 72.8094 322.554 73.5923 323.11 73.927C323.669 74.1502 324.118 73.9271 324.118 73.2576C324.004 72.5862 323.669 71.8053 323.11 71.4686V71.4686ZM329.818 47.8879C329.369 47.6648 329.144 47.7763 329.144 48.111C329.144 48.4457 329.483 49.0056 329.927 49.2287C330.266 49.4519 330.601 49.3403 330.601 48.894C330.44 48.4911 330.169 48.1421 329.818 47.8879V47.8879ZM321.88 24.8671C321.436 24.6439 321.097 24.6439 321.097 24.9786C321.211 25.2018 321.436 25.5365 321.88 25.7616C322.329 25.9848 322.667 25.9848 322.554 25.6501C322.554 25.4249 322.219 25.0902 321.88 24.8671ZM324.787 26.431C324.452 26.3195 324.231 26.3195 324.231 26.5426C324.231 26.7657 324.566 27.1004 324.901 27.214C325.235 27.4371 325.46 27.4371 325.349 27.214C325.347 26.8773 325.122 26.6542 324.787 26.431ZM318.864 64.7626C318.416 64.5394 317.969 64.7625 317.969 65.3224C317.969 65.7686 318.304 66.4401 318.864 66.6632C319.312 66.8863 319.759 66.7748 319.759 66.2149C319.759 65.6551 319.424 65.0992 318.864 64.7626V64.7626ZM314.728 58.2817C314.172 57.947 313.724 58.1701 313.724 58.6164C313.724 59.1742 314.059 59.734 314.618 59.9572C315.067 60.1803 315.401 59.9572 315.509 59.5109C315.492 59.2569 315.412 59.0112 315.276 58.7964C315.139 58.5815 314.951 58.4045 314.728 58.2817V58.2817ZM310.704 52.1355C310.255 51.9123 309.921 52.1355 309.813 52.4722C309.813 53.03 310.148 53.4783 310.596 53.7014C311.152 53.9245 311.487 53.813 311.6 53.3667C311.598 52.9184 311.263 52.3586 310.704 52.1355ZM324.564 24.642C324.229 24.5304 323.891 24.5304 323.891 24.7535C324.004 24.9767 324.229 25.3114 324.564 25.4229C325.012 25.6461 325.233 25.6461 325.233 25.4229C325.233 25.0902 324.899 24.8671 324.564 24.642ZM326.797 24.642C326.463 24.5304 326.241 24.5304 326.241 24.642C326.241 24.9767 326.576 25.1998 326.797 25.3114C327.132 25.5345 327.357 25.5345 327.357 25.3114C327.359 25.0902 327.024 24.8671 326.797 24.642ZM336.97 55.6C336.635 55.3769 336.41 55.4885 336.41 55.8232C336.524 56.2694 336.745 56.7157 337.193 56.9408C337.528 57.164 337.753 57.0544 337.753 56.6061C337.639 56.2694 337.416 55.8232 336.97 55.6ZM333.95 56.4946C333.501 56.2714 333.167 56.383 333.167 56.9408C333.28 57.3891 333.615 57.947 334.061 58.2817C334.509 58.5048 334.844 58.2817 334.731 57.8354C334.733 57.3871 334.398 56.8293 333.95 56.4946V56.4946ZM330.266 54.4824C329.927 54.2592 329.592 54.3688 329.592 54.8171C329.706 55.1518 330.041 55.7096 330.375 55.9347C330.824 56.1579 331.158 56.0483 331.049 55.6C331.047 55.2653 330.708 54.7055 330.266 54.4824ZM326.69 52.4722C326.241 52.249 326.016 52.3586 326.016 52.6953C326.016 53.1416 326.351 53.5898 326.69 53.813C327.134 53.9245 327.359 53.813 327.359 53.4783C327.359 53.1396 327.024 52.6933 326.69 52.4722ZM322.886 50.458C322.552 50.2348 322.217 50.3464 322.217 50.6811C322.217 51.1294 322.552 51.4641 322.886 51.6872C323.335 51.9103 323.556 51.7988 323.556 51.4641C323.544 51.252 323.475 51.047 323.358 50.8702C323.24 50.6934 323.077 50.5511 322.886 50.458V50.458ZM337.305 58.8395C336.97 58.6164 336.745 58.7279 336.745 59.1742C336.745 59.5089 337.083 60.0687 337.418 60.2919C337.753 60.515 338.088 60.4034 337.974 59.9572C337.974 59.6225 337.639 59.0646 337.305 58.8395V58.8395ZM340.881 61.3C340.546 61.0768 340.325 61.3 340.432 61.6347C340.432 61.9694 340.658 62.4176 340.992 62.6408C341.327 62.9755 341.548 62.7523 341.441 62.4176C341.441 62.0809 341.106 61.6347 340.881 61.3ZM322.105 28.7779C321.771 28.5548 321.436 28.6664 321.436 28.8895C321.436 29.2242 321.771 29.5589 322.105 29.784C322.554 29.8956 322.775 29.8956 322.775 29.6725C322.775 29.3358 322.44 29.0011 322.105 28.7779ZM299.419 38.7254C298.411 38.3907 297.63 38.6138 297.517 39.2832C297.407 40.0662 297.965 40.9588 298.859 41.2954C299.754 41.7417 300.649 41.5186 300.758 40.7356C300.872 40.0642 300.31 39.1717 299.419 38.7254ZM295.397 36.7112C294.277 36.1534 293.16 36.4881 292.938 37.3826C292.713 38.2771 293.387 39.2832 294.616 39.8411C295.841 40.3989 296.849 40.0642 297.07 39.1697C297.296 38.2771 296.513 37.1595 295.397 36.7112ZM265.333 6.31494C266.003 6.53808 266.337 6.87278 266.116 7.20947C265.891 7.54418 265.108 7.65575 264.439 7.43062C263.769 7.20947 263.431 6.76122 263.656 6.53808C263.877 6.20338 264.66 6.08982 265.333 6.31494V6.31494ZM269.579 7.65375C270.248 7.87689 270.587 8.21359 270.362 8.54829C270.141 8.77143 269.467 8.88299 268.909 8.65986C268.236 8.43672 267.901 8.10202 268.126 7.76732C268.348 7.54418 269.017 7.43062 269.579 7.65375V7.65375ZM268.236 9.77952C268.909 9.89109 269.244 10.3374 269.131 10.6721C268.909 11.0068 268.126 11.1203 267.453 10.8952C266.784 10.6721 266.449 10.2258 266.67 9.8891C266.897 9.66596 267.567 9.55639 268.236 9.77952ZM272.593 10.8952C273.38 11.2299 273.822 11.6782 273.601 12.1244C273.38 12.4591 272.593 12.5707 271.703 12.3476C270.92 12.0129 270.473 11.5646 270.808 11.1183C271.029 10.7836 271.812 10.6721 272.593 10.8952V10.8952ZM272.037 45.3179C272.82 45.541 273.155 46.2124 272.932 46.7702C272.593 47.3281 271.924 47.6648 271.254 47.4396C270.471 47.1049 270.137 46.4336 270.36 45.8757C270.587 45.3179 271.368 45.0947 272.037 45.3179ZM278.186 41.9649C279.076 42.4131 279.638 43.1941 279.415 43.9771C279.076 44.76 278.072 45.0947 277.064 44.76C276.173 44.3118 275.611 43.5308 275.946 42.7478C276.281 41.9649 277.177 41.6301 278.186 41.9649V41.9649ZM284.33 39.9527C285.338 40.4009 285.894 41.2935 285.673 42.0764C285.447 42.971 284.443 43.1941 283.435 42.8594C282.431 42.4131 281.762 41.5186 282.096 40.7356C282.318 39.9527 283.326 39.618 284.33 39.9527V39.9527ZM295.397 19.725C296.18 20.1733 296.736 20.8427 296.622 21.2889C296.513 21.8488 295.732 21.9603 294.837 21.6236C293.942 21.1774 293.385 20.506 293.608 19.9481C293.719 19.5019 294.5 19.3903 295.397 19.725V19.725ZM275.5 14.4733C276.283 14.6965 276.729 15.2563 276.508 15.591C276.173 16.0373 275.39 16.1488 274.605 15.9257C273.822 15.591 273.38 15.1428 273.601 14.6965C273.824 14.2482 274.605 14.1367 275.5 14.4733V14.4733ZM279.524 15.8141C280.307 16.1488 280.754 16.7087 280.532 17.155C280.307 17.6032 279.524 17.7128 278.743 17.3781C277.849 17.155 277.405 16.4836 277.626 16.0373C277.847 15.591 278.741 15.4775 279.524 15.8141ZM286.342 20.9542C287.236 21.4005 287.796 22.0719 287.571 22.6297C287.35 23.076 286.567 23.2992 285.559 22.9645C284.664 22.5162 284.107 21.8468 284.33 21.287C284.555 20.7311 285.447 20.6195 286.342 20.9542ZM283.435 17.155C284.443 17.4897 284.999 18.2726 284.778 18.7189C284.557 19.2767 283.66 19.5019 282.654 19.0536C281.65 18.7189 281.09 17.9359 281.315 17.3781C281.537 16.9318 282.543 16.7067 283.435 17.155V17.155ZM287.458 18.6073C288.466 19.0536 289.135 19.8366 288.912 20.506C288.687 21.0638 287.683 21.2889 286.565 20.8407C285.445 20.3944 284.776 19.4999 285.111 18.94C285.338 18.2726 286.342 18.1611 287.458 18.6073V18.6073ZM290.253 22.5182C291.147 22.9664 291.821 23.7474 291.596 24.3053C291.374 24.8651 290.478 25.0882 289.583 24.64C288.579 24.1917 287.906 23.4107 288.131 22.8529C288.352 22.2951 289.249 22.0719 290.253 22.5182ZM290.03 38.2771C291.038 38.7254 291.594 39.618 291.482 40.2894C291.261 41.1839 290.253 41.407 289.249 40.9588C288.241 40.6241 287.685 39.6179 287.906 38.9465C288.131 38.1656 289.135 37.8289 290.03 38.2771ZM290.926 35.0357C292.044 35.484 292.711 36.3765 292.49 37.271C292.265 38.054 291.261 38.2771 290.143 37.8289C289.026 37.3826 288.466 36.3765 288.579 35.5935C288.914 34.8126 289.918 34.5894 290.926 35.0357ZM291.821 31.9058C292.938 32.4657 293.606 33.4718 293.385 34.2527C293.16 35.1473 292.155 35.3704 290.926 34.9221C289.697 34.3643 289.028 33.3582 289.249 32.4637C289.583 31.6827 290.591 31.4596 291.821 31.9058V31.9058ZM292.602 29.1126C293.719 29.5609 294.387 30.4535 294.166 31.2364C293.94 32.0194 292.936 32.2425 291.819 31.7962C290.699 31.348 289.916 30.3439 290.141 29.5609C290.478 28.7779 291.482 28.6664 292.602 29.1126V29.1126ZM293.271 26.6542C294.275 26.9889 294.835 27.8834 294.723 28.4412C294.502 29.1106 293.606 29.3358 292.604 28.8895C291.596 28.4412 291.04 27.6603 291.261 26.9889C291.372 26.3195 292.263 26.2059 293.271 26.6542ZM294.054 24.0841C295.172 24.5304 295.839 25.4249 295.618 26.0963C295.397 26.7657 294.5 26.9909 293.385 26.431C292.377 25.9848 291.707 25.0902 291.821 24.4188C292.042 23.7494 293.05 23.6359 294.054 24.0841ZM294.723 21.7372C295.841 22.295 296.401 23.078 296.287 23.7494C296.066 24.3073 295.17 24.5324 294.168 23.9725C293.05 23.5243 292.49 22.7433 292.604 22.0719C292.825 21.5121 293.719 21.2889 294.723 21.7372ZM302.661 21.0658C303.33 21.2889 303.778 21.9603 303.778 22.295C303.665 22.7433 303.105 22.7433 302.436 22.5182C301.766 22.1835 301.318 21.6236 301.318 21.1774C301.432 20.7311 301.987 20.7311 302.661 21.0658ZM303.217 19.1672C303.776 19.5019 304.225 19.9501 304.111 20.2848C304.111 20.7331 303.551 20.7331 302.882 20.508C302.322 20.1733 301.874 19.6154 301.987 19.2787C301.987 18.942 302.549 18.942 303.217 19.1672ZM303.665 17.4897C304.113 17.7128 304.559 18.1611 304.448 18.4958C304.448 18.7189 304 18.8325 303.444 18.6093C302.884 18.2726 302.549 17.8264 302.549 17.6032C302.661 17.2665 303.105 17.2665 303.665 17.4897ZM304.113 15.8141C304.561 16.0373 304.896 16.374 304.783 16.7087C304.783 16.9318 304.334 16.9318 303.888 16.7087C303.444 16.4855 303.105 16.1508 303.105 15.8141C303.217 15.591 303.551 15.591 304.113 15.8141ZM304.448 14.3618C304.896 14.4733 305.231 14.808 305.231 15.1447C305.117 15.3679 304.783 15.3679 304.336 15.1447C303.89 14.9216 303.553 14.5869 303.553 14.3618C303.665 14.0251 304 14.1367 304.448 14.3618ZM304.783 12.9074C305.231 13.1305 305.565 13.3557 305.456 13.5788C305.456 13.8019 305.117 13.8019 304.673 13.5788C304.334 13.4672 304 13.1305 304.113 12.9074C304.113 12.6843 304.448 12.6843 304.783 12.9074ZM305.117 11.6782C305.565 11.9013 305.791 12.1264 305.791 12.3496C305.677 12.5727 305.456 12.4611 305.008 12.3496C304.673 12.1264 304.448 11.9013 304.448 11.6782C304.448 11.455 304.783 11.455 305.117 11.6782ZM305.454 10.4489C305.789 10.6721 306.01 10.8972 306.01 11.0088C306.01 11.2319 305.675 11.1203 305.34 11.0088C305.115 10.7856 304.781 10.6741 304.892 10.4489C304.894 10.2258 305.229 10.3374 305.454 10.4489ZM298.3 44.3118C297.517 43.9771 297.07 43.3057 297.182 42.7478C297.294 42.19 297.965 41.9649 298.634 42.2996C299.421 42.6363 299.864 43.3057 299.754 43.8655C299.642 44.4233 298.973 44.6485 298.3 44.3118V44.3118ZM297.63 48.113C296.961 47.7783 296.513 47.1069 296.622 46.5471C296.736 45.9893 297.409 45.7641 298.076 46.1008C298.746 46.324 299.081 46.9954 299.081 47.5532C298.859 48.2246 298.3 48.4477 297.63 48.113V48.113ZM297.07 52.1355C296.401 51.8008 295.953 51.1313 296.066 50.4599C296.18 49.9021 296.736 49.677 297.409 49.9021C298.078 50.2368 298.527 50.9082 298.413 51.4661C298.3 52.1355 297.742 52.3586 297.07 52.1355ZM296.513 56.381C296.214 56.2869 295.959 56.0883 295.795 55.8216C295.63 55.5548 295.568 55.2378 295.618 54.9286C295.732 54.2592 296.287 54.0361 296.961 54.2592C297.517 54.5939 297.965 55.2653 297.851 55.8232C297.742 56.381 297.07 56.7157 296.513 56.381ZM295.732 61.0748C295.172 60.8517 294.837 60.2919 294.949 59.6225C295.058 59.0626 295.618 58.8395 296.178 59.0626C296.734 59.2858 297.182 59.9572 297.068 60.515C296.961 61.0748 296.401 61.3 295.732 61.0748ZM295.058 66.4401C294.502 66.2169 294.168 65.6571 294.275 64.9877C294.389 64.4298 294.949 64.2047 295.504 64.4298C296.064 64.653 296.399 65.2128 296.287 65.7707C296.066 66.4401 295.618 66.6652 295.058 66.4401ZM291.147 20.2828C292.042 20.7311 292.602 21.4005 292.49 21.9603C292.265 22.6297 291.372 22.7433 290.478 22.295C289.583 21.8488 288.914 21.1774 289.135 20.6195C289.36 20.0597 290.253 19.9481 291.147 20.2828V20.2828ZM289.249 25.0902C290.143 25.4249 290.591 26.0963 290.478 26.6542C290.253 27.1004 289.583 27.3236 288.689 26.9889C287.906 26.6542 287.35 25.9828 287.571 25.4229C287.796 24.8671 288.466 24.7535 289.249 25.0902ZM288.466 27.5487C289.36 27.997 289.918 28.7779 289.808 29.3358C289.583 30.0072 288.689 30.1187 287.796 29.784C286.788 29.4493 286.228 28.6664 286.453 27.997C286.677 27.4371 287.571 27.214 288.466 27.5487ZM285.447 36.6016C286.342 36.9363 286.902 37.7193 286.677 38.3887C286.455 39.0581 285.559 39.3948 284.664 38.9465C283.774 38.6118 283.212 37.8289 283.435 37.1595C283.66 36.4901 284.555 36.2649 285.447 36.6016ZM276.731 12.238C277.514 12.5727 277.96 13.1325 277.739 13.5788C277.514 14.0251 276.62 14.1366 275.727 13.8019C274.944 13.4672 274.384 12.9074 274.719 12.4611C274.944 12.0129 275.835 11.9013 276.731 12.238V12.238ZM276.731 46.2124C277.514 46.5471 278.074 47.4416 277.739 48.113C277.514 48.896 276.51 49.2307 275.615 48.896C274.721 48.5613 274.273 47.7783 274.607 46.9954C274.83 46.2124 275.727 45.9893 276.731 46.2124ZM270.587 48.894C271.477 49.2287 271.926 50.1233 271.591 50.9062C271.256 51.6892 270.248 52.0239 269.358 51.6892C268.463 51.3545 268.015 50.46 268.35 49.7886C268.682 49.0056 269.579 48.6709 270.587 48.894V48.894ZM283.1 43.9771C283.502 44.1245 283.843 44.4036 284.066 44.7689C284.289 45.1343 284.382 45.5644 284.33 45.9893C283.995 46.7722 283.1 47.1069 282.096 46.7722C281.202 46.324 280.642 45.4314 280.867 44.6504C281.202 43.8655 282.096 43.6424 283.1 43.9771V43.9771ZM289.026 41.9649C289.916 42.4131 290.364 43.1941 290.251 43.9771C290.03 44.6485 289.133 44.9832 288.239 44.6485C287.348 44.2002 286.786 43.4192 287.013 42.6362C287.236 41.9648 288.131 41.6301 289.026 41.9649ZM294.5 40.1778C295.395 40.626 295.953 41.407 295.839 42.19C295.618 42.9729 294.721 43.1961 293.831 42.8594C292.823 42.4131 292.263 41.5186 292.488 40.7356C292.602 40.0642 293.494 39.7295 294.5 40.1778V40.1778ZM286.453 33.3602C287.348 33.8084 287.796 34.4779 287.683 35.1473C287.458 35.7051 286.565 35.9302 285.784 35.5955C284.89 35.2608 284.441 34.4778 284.555 33.8084C284.778 33.2486 285.673 33.1351 286.453 33.3602ZM295.953 17.8244C296.622 18.1591 297.182 18.7189 297.07 19.1652C296.961 19.6134 296.287 19.6134 295.506 19.2767C294.723 18.942 294.277 18.3842 294.389 17.9359C294.5 17.4877 295.17 17.4897 295.953 17.8244ZM280.64 13.9135C281.313 14.1366 281.648 14.6965 281.535 15.0312C281.313 15.3659 280.64 15.4775 279.971 15.1428C279.301 14.9196 278.966 14.4733 279.076 14.1367C279.303 13.6904 279.971 13.6904 280.64 13.9135V13.9135ZM284.33 26.2059C285.113 26.429 285.447 27.1004 285.338 27.5467C285.113 27.995 284.443 28.1045 283.66 27.8814C282.991 27.5467 282.543 26.9869 282.652 26.429C282.877 26.0963 283.66 25.8712 284.33 26.2059V26.2059ZM279.524 38.2771C280.419 38.6118 280.979 39.3948 280.754 40.1778C280.419 40.8492 279.524 41.1839 278.634 40.8492C277.626 40.4009 277.179 39.6199 277.405 38.9485C277.737 38.2771 278.634 37.9424 279.524 38.2771ZM287.458 30.565C288.241 30.8997 288.8 31.5711 288.577 32.2405C288.352 32.8004 287.569 32.9099 286.788 32.5752C285.894 32.2405 285.445 31.5691 285.671 31.0113C285.784 30.4534 286.567 30.2303 287.458 30.565ZM278.968 27.214C279.751 27.5487 280.198 28.2201 280.086 28.7779C279.751 29.3358 278.968 29.4473 278.074 29.2262C277.179 28.8915 276.731 28.2201 276.956 27.6603C277.177 27.1004 278.072 26.8773 278.968 27.214V27.214ZM265.22 51.8008C265.78 52.0239 266.114 52.5837 265.889 53.1416C265.554 53.7014 264.885 53.9245 264.212 53.813C263.656 53.5898 263.321 52.9184 263.542 52.3606C263.877 51.8008 264.55 51.5756 265.22 51.8008ZM282.318 19.5019C283.1 19.8366 283.547 20.3964 283.326 20.8427C283.1 21.2889 282.431 21.4005 281.648 21.1774C280.754 20.8427 280.419 20.2828 280.53 19.8366C280.754 19.3903 281.537 19.2767 282.318 19.5019V19.5019ZM299.419 19.5019C300.089 19.8366 300.423 20.2848 300.423 20.7311C300.31 21.0658 299.754 21.1794 299.081 20.8427C298.411 20.6195 297.963 19.9481 298.076 19.6134C298.076 19.2767 298.746 19.1672 299.419 19.5019ZM289.583 13.2441C290.143 13.4672 290.478 13.8019 290.366 14.1386C290.366 14.3618 289.918 14.4733 289.362 14.2502C288.914 14.0271 288.579 13.6904 288.579 13.4672C288.687 13.1305 289.135 13.1305 289.583 13.2441V13.2441ZM284.33 15.3679C284.89 15.591 285.224 16.0373 285.113 16.374C284.999 16.5971 284.443 16.7087 283.774 16.4855C283.214 16.2624 282.879 15.8161 282.991 15.4794C283.1 15.1427 283.774 15.1427 284.33 15.3679ZM283.212 29.0011C283.881 29.3358 284.33 29.8936 284.216 30.4534C283.995 31.0133 283.212 31.1228 282.431 30.7881C281.762 30.565 281.313 29.8936 281.423 29.4473C281.648 28.8895 282.431 28.7779 283.212 29.0011ZM280.084 24.642C280.754 24.9767 281.202 25.4249 280.979 25.8712C280.754 26.3175 280.196 26.429 279.415 26.2059C278.741 25.9828 278.407 25.4229 278.632 24.9767C278.741 24.5304 279.415 24.4188 280.084 24.642V24.642ZM274.384 25.7596C275.279 26.0943 275.613 26.6542 275.392 27.212C275.167 27.6583 274.384 27.8814 273.603 27.5467C272.709 27.3236 272.26 26.7637 272.595 26.2059C272.82 25.7596 273.601 25.5365 274.384 25.7596ZM271.368 13.2441C272.037 13.4672 272.372 13.9135 272.151 14.2502C271.926 14.5849 271.256 14.6965 270.587 14.4733C269.914 14.2502 269.579 13.8019 269.804 13.4672C270.025 13.1305 270.695 13.019 271.368 13.2441V13.2441ZM290.478 11.5666C290.926 11.7897 291.372 12.1264 291.261 12.4611C291.261 12.6843 290.701 12.7958 290.143 12.5727C289.583 12.3496 289.249 12.0149 289.36 11.6782C289.36 11.455 289.918 11.3435 290.478 11.5666ZM292.49 16.372C293.16 16.5951 293.608 17.155 293.494 17.6012C293.273 17.9359 292.711 17.9359 292.042 17.7128C291.372 17.3781 290.924 16.8183 291.038 16.4836C291.147 16.1488 291.821 16.0373 292.49 16.372ZM293.16 14.4733C293.719 14.808 294.168 15.2563 294.054 15.4775C293.94 15.8122 293.494 15.9257 292.825 15.591C292.265 15.3679 291.93 14.9196 291.93 14.5849C292.042 14.2482 292.602 14.2482 293.16 14.4733V14.4733ZM285.224 23.7494C285.894 23.9725 286.228 24.5324 286.119 24.9786C286.005 25.3133 285.336 25.4249 284.776 25.2018C284.107 24.8671 283.658 24.4188 283.881 23.9725C283.995 23.6359 284.664 23.5243 285.224 23.7494ZM288.131 16.9318C288.687 17.2665 288.914 17.6032 288.914 17.9379C288.8 18.1611 288.241 18.2726 287.685 18.0495C287.236 17.8264 286.902 17.3801 287.015 17.155C287.123 16.8203 287.571 16.7067 288.131 16.9318ZM280.754 35.1473C281.423 35.3704 281.762 35.9302 281.648 36.3765C281.423 36.9343 280.865 37.0459 280.196 36.8228C279.522 36.5996 279.076 36.0398 279.301 35.482C279.524 35.0357 280.198 34.9241 280.754 35.1473ZM291.707 18.6073C292.155 18.8305 292.377 19.1652 292.377 19.3903C292.263 19.6134 291.821 19.725 291.372 19.5019C290.924 19.2787 290.589 18.944 290.699 18.7189C290.813 18.3842 291.259 18.3842 291.707 18.6073V18.6073ZM296.401 16.0373C296.849 16.2604 297.295 16.7067 297.184 17.0434C297.07 17.2665 296.624 17.3781 296.066 17.155C295.618 16.9318 295.283 16.4836 295.283 16.1488C295.397 15.8141 295.839 15.8141 296.401 16.0373ZM261.197 5.19727C261.757 5.30884 261.98 5.64354 261.757 5.86668C261.532 6.08981 260.97 6.20337 260.414 6.08981C259.854 5.97824 259.52 5.64155 259.745 5.42041C260.08 5.19727 260.635 5.08371 261.197 5.19727ZM278.186 18.1611C278.855 18.3842 279.19 18.8325 279.076 19.2787C278.855 19.6154 278.186 19.727 277.512 19.5019C276.843 19.2787 276.508 18.7189 276.729 18.3842C276.843 18.0495 277.512 17.9379 278.186 18.1611ZM263.99 8.43672C264.55 8.55028 264.885 8.99656 264.66 9.21969C264.439 9.5544 263.769 9.5544 263.096 9.44283C262.54 9.21969 262.201 8.88499 262.427 8.65986C262.648 8.32515 263.321 8.21359 263.99 8.43672ZM269.914 24.4188C270.587 24.642 270.922 25.0902 270.697 25.6481C270.475 26.0963 269.692 26.2059 268.911 25.9828C268.238 25.7596 267.903 25.1998 268.128 24.7535C268.348 24.3072 269.131 24.1957 269.914 24.4188ZM257.508 4.30273C257.956 4.4143 258.181 4.63744 257.956 4.86058C257.735 5.08371 257.286 5.19528 256.727 5.08371C256.278 4.97215 255.944 4.749 256.171 4.63744C256.392 4.30273 256.952 4.30273 257.508 4.30273V4.30273ZM273.715 9.21969C274.163 9.44283 274.498 9.66596 274.271 9.8891C274.161 10.1122 273.601 10.2238 273.153 10.0007C272.593 9.8891 272.37 9.5544 272.484 9.33126C272.707 9.10813 273.155 8.99656 273.715 9.21969V9.21969ZM263.769 55.9347C264.439 56.0483 264.66 56.6062 264.439 57.164C264.104 57.7238 263.431 58.0585 262.875 57.8354C262.201 57.6123 261.98 57.0524 262.315 56.4946C262.538 55.9347 263.208 55.7116 263.769 55.9347ZM259.299 58.3932C259.855 58.6164 260.082 59.0626 259.854 59.5109C259.52 59.9572 258.964 60.2939 258.402 60.0687C257.954 59.9572 257.733 59.3993 257.954 58.9511C258.181 58.5048 258.737 58.2817 259.299 58.3932ZM275.165 50.3464C275.835 50.5695 276.173 51.2409 275.948 51.7988C275.727 52.4702 275.054 52.6933 274.384 52.4702C274.228 52.4219 274.083 52.3425 273.958 52.2366C273.833 52.1308 273.731 52.0008 273.658 51.8545C273.585 51.7081 273.542 51.5485 273.532 51.3852C273.523 51.2219 273.546 51.0583 273.601 50.9042C273.824 50.3464 274.496 50.1233 275.165 50.3464ZM269.017 53.1396C269.69 53.4763 270.025 54.1457 269.912 54.7055C269.577 55.2653 268.907 55.6 268.234 55.3749C267.565 55.0402 267.23 54.4824 267.451 53.811C267.579 53.5223 267.812 53.2927 268.102 53.1682C268.393 53.0437 268.719 53.0335 269.017 53.1396V53.1396ZM275.727 23.3012C276.283 23.5243 276.51 23.861 276.396 24.1957C276.283 24.4188 275.727 24.5304 275.279 24.4188C274.719 24.1957 274.384 23.861 274.605 23.5243C274.719 23.3012 275.279 23.1896 275.727 23.3012ZM288.131 9.10813C288.579 9.21969 288.8 9.55639 288.8 9.77952C288.687 10.0027 288.352 10.0027 287.906 9.77952C287.458 9.66596 287.236 9.44283 287.236 9.21969C287.35 8.99656 287.685 8.99656 288.131 9.10813V9.10813ZM281.762 48.113C282.21 48.3362 282.545 48.7825 282.431 49.3423C282.21 49.7905 281.648 50.1252 281.088 49.7905C280.532 49.5674 280.198 49.1211 280.419 48.5613C280.532 48.113 281.088 47.8879 281.762 48.113ZM287.796 45.7641C288.241 45.9873 288.579 46.5471 288.466 46.9934C288.352 47.4397 287.906 47.6628 287.236 47.4396C286.788 47.2165 286.453 46.6567 286.567 46.2104C286.677 45.7641 287.236 45.541 287.796 45.7641ZM293.385 44.3118C293.94 44.5349 294.275 44.9832 294.168 45.4314C294.054 45.8777 293.608 46.1008 293.05 45.8777C292.49 45.6546 292.263 45.0947 292.263 44.6485C292.377 44.3118 292.936 44.0886 293.385 44.3118V44.3118ZM277.512 10.7836C277.847 10.8952 278.072 11.1183 277.96 11.3435C277.847 11.5666 277.512 11.5666 277.066 11.455C276.731 11.2319 276.51 11.0068 276.618 10.7836C276.731 10.6721 277.064 10.5605 277.512 10.7836V10.7836ZM264.885 23.3012C265.441 23.4127 265.668 23.7494 265.441 23.9725C265.331 24.3073 264.771 24.4188 264.323 24.3072C263.767 24.1957 263.54 23.861 263.767 23.5243C263.877 23.3012 264.439 23.1896 264.885 23.3012V23.3012ZM268.236 26.7657C268.909 26.8773 269.131 27.3236 268.909 27.7718C268.796 28.1065 268.126 28.2201 267.567 28.1065C266.897 27.8834 266.563 27.4371 266.784 27.1004C267.011 26.7657 267.68 26.5426 268.236 26.7657ZM272.932 28.6664C273.488 28.7779 273.715 29.2262 273.601 29.5609C273.38 29.8956 272.932 30.0092 272.372 29.8956C271.812 29.6725 271.589 29.3378 271.703 28.8915C271.924 28.5548 272.372 28.4412 272.932 28.6664ZM277.626 30.3419C278.074 30.4534 278.295 30.8997 278.186 31.1248C278.072 31.4595 277.626 31.5731 277.066 31.4596C276.618 31.2364 276.396 30.9017 276.51 30.567C276.618 30.2303 277.064 30.1187 277.626 30.3419V30.3419ZM281.983 32.0194C282.431 32.2425 282.766 32.5772 282.543 32.9119C282.429 33.2466 281.983 33.3602 281.535 33.1351C281.086 33.0235 280.865 32.5772 280.979 32.2405C281.088 31.9058 281.537 31.7962 281.983 32.0194V32.0194ZM291.147 10.1142C291.596 10.3374 291.821 10.5625 291.821 10.7836C291.707 11.0068 291.372 11.0068 290.926 10.8952C290.591 10.7836 290.253 10.4469 290.253 10.2258C290.364 10.0027 290.699 10.0027 291.147 10.1142ZM288.914 7.76732C289.249 7.87889 289.583 8.10202 289.47 8.32516C289.47 8.54829 289.135 8.54829 288.8 8.43672C288.352 8.21359 288.131 7.99045 288.131 7.76732C288.241 7.65376 288.579 7.54418 288.914 7.76732V7.76732ZM286.567 5.64354C286.902 5.7571 287.123 5.98024 287.123 6.09181C287.013 6.31495 286.788 6.31494 286.453 6.20537C286.119 6.09181 285.894 5.86867 285.894 5.64553C286.007 5.53197 286.228 5.53197 286.567 5.64354V5.64354ZM293.719 13.019C294.168 13.1305 294.389 13.4672 294.389 13.8019C294.275 14.0251 293.941 14.0251 293.494 13.8019C293.05 13.5788 292.711 13.2441 292.825 13.019C292.938 12.7938 293.271 12.7958 293.719 13.019ZM263.431 25.5365C263.879 25.6481 264.104 25.9848 263.99 26.3195C263.769 26.5426 263.208 26.7677 262.761 26.5426C262.201 26.431 261.978 26.0963 262.092 25.7596C262.273 25.6038 262.494 25.5006 262.73 25.4613C262.966 25.422 263.208 25.448 263.431 25.5365V25.5365ZM258.85 24.4188C259.406 24.5304 259.52 24.8671 259.406 25.0902C259.245 25.2413 259.048 25.3507 258.835 25.409C258.622 25.4674 258.397 25.4728 258.181 25.4249C257.733 25.3133 257.508 24.9786 257.621 24.7555C257.842 24.4188 258.402 24.3072 258.85 24.4188V24.4188Z" fill="white"/>
<path fill-rule="evenodd" clip-rule="evenodd" d="M297.07 21.5121C296.849 22.0699 297.409 22.7413 298.19 23.1876C297.182 22.9645 296.513 23.076 296.287 23.7474C296.178 24.1937 296.513 24.8651 297.182 25.4229C296.399 25.3114 295.839 25.5345 295.73 26.0943C295.505 26.7638 296.064 27.5467 296.959 28.1045C295.951 27.7698 295.17 28.1046 294.947 28.776C294.833 29.3338 295.168 30.0052 295.837 30.563C295.054 30.4515 294.498 30.7862 294.273 31.346C294.164 32.0174 294.612 32.7984 295.393 33.3582C294.385 33.2466 293.715 33.5814 293.49 34.2528C293.269 35.1473 294.05 36.3765 295.393 36.9344C296.397 37.3826 297.405 37.2691 297.74 36.7112C297.961 37.4942 298.63 38.3887 299.638 38.835C300.533 39.1697 301.316 39.1697 301.762 38.7234C302.097 39.5064 302.766 40.1758 303.661 40.6241C304.444 40.9588 305.225 40.9588 305.673 40.5105C306.008 41.2935 306.677 41.9629 307.458 42.2976C308.353 42.7458 309.136 42.6343 309.582 42.2976C309.807 42.969 310.476 43.75 311.371 44.1982C312.6 44.7561 313.491 44.4214 313.604 43.4153C313.604 42.6323 313.156 41.8513 312.375 41.1799C313.158 41.2915 313.718 40.9568 313.829 40.2854C313.829 39.616 313.381 38.9446 312.71 38.2732C313.383 38.3847 313.939 38.05 313.939 37.4902C313.939 36.7072 313.383 35.9243 312.487 35.2549C313.381 35.5896 314.051 35.2549 314.051 34.5855C314.051 34.0256 313.602 33.3562 312.933 32.7984C313.602 32.9099 314.162 32.6848 314.162 32.127C314.162 31.4556 313.602 30.6746 312.708 30.1148C313.491 30.3379 314.051 30.2283 314.162 29.6685C314.162 28.9991 313.489 28.2161 312.485 27.7679C311.702 27.3196 311.032 27.4332 310.807 27.7679C310.694 27.21 310.138 26.5386 309.243 26.2019C308.574 25.7557 307.9 25.7557 307.566 26.2019C307.452 25.5325 306.783 24.8611 305.888 24.4148C304.998 23.9686 304.324 24.0801 303.99 24.4148C303.876 23.857 303.32 23.2972 302.426 22.9625C301.531 22.4026 300.748 22.5142 300.527 23.074C300.641 22.5162 299.967 21.7332 298.963 21.287C298.077 20.8427 297.182 20.9542 297.07 21.5121V21.5121ZM309.813 39.0601C310.257 39.2833 310.596 39.7295 310.596 40.0662C310.596 40.5125 310.148 40.6261 309.701 40.4009C309.255 40.1758 308.918 39.7295 308.918 39.2833C308.918 38.9466 309.365 38.835 309.813 39.0601ZM306.123 37.3826C306.572 37.6058 306.793 37.9405 306.793 38.2772C306.793 38.6139 306.344 38.7254 306.01 38.6119C305.562 38.3887 305.227 37.9405 305.227 37.6058C305.342 37.2711 305.677 37.2711 306.123 37.3826V37.3826ZM302.322 35.7051C302.77 35.9283 303.105 36.2649 302.995 36.5996C302.995 36.9344 302.547 37.0459 302.213 36.8228C301.764 36.5996 301.43 36.2649 301.539 35.9283C301.541 35.5955 301.987 35.484 302.322 35.7051ZM299.081 34.8126C298.971 35.1473 298.525 35.2588 297.963 35.0357C297.515 34.8126 297.18 34.3663 297.294 34.0296C297.407 33.6929 297.742 33.5833 298.298 33.8065C298.746 34.0296 299.081 34.4779 299.081 34.8126V34.8126ZM310.257 36.4901C310.596 36.6016 310.931 37.0479 310.931 37.3846C310.817 37.6078 310.482 37.7193 310.148 37.6078C309.699 37.3846 309.365 36.9363 309.474 36.6016C309.474 36.3765 309.813 36.2649 310.257 36.4901ZM298.86 31.2364C299.308 31.4596 299.529 31.7963 299.419 32.131C299.419 32.3541 299.081 32.4657 298.632 32.2425C298.188 32.131 297.849 31.6827 297.963 31.4596C298.077 31.1249 298.411 31.0133 298.86 31.2364V31.2364ZM310.482 33.6949C310.817 33.918 311.152 34.2547 311.152 34.5894C311.042 34.9241 310.704 34.9241 310.369 34.8126C309.921 34.5894 309.699 34.1412 309.699 33.918C309.699 33.5833 310.034 33.5833 310.482 33.6949ZM299.419 28.5548C299.754 28.778 300.089 29.1126 300.089 29.4493C299.975 29.6725 299.64 29.784 299.194 29.5609C298.746 29.4493 298.411 29.0031 298.525 28.778C298.634 28.4413 298.973 28.4413 299.419 28.5548ZM310.596 31.2364C310.773 31.2848 310.932 31.3853 311.051 31.525C311.17 31.6646 311.245 31.8368 311.265 32.0194C311.265 32.3541 310.931 32.3541 310.596 32.131C310.148 32.0194 309.923 31.6827 309.923 31.348C309.923 31.1249 310.257 31.0133 310.596 31.2364ZM299.864 26.0963C300.312 26.3195 300.537 26.6542 300.537 26.9909C300.423 27.214 300.089 27.3256 299.754 27.1024C299.306 26.8793 299.081 26.5446 299.081 26.3195C299.081 25.9848 299.529 25.9848 299.864 26.0963ZM310.704 28.5548C311.152 28.778 311.487 29.1126 311.487 29.4493C311.377 29.784 311.042 29.784 310.596 29.5609C310.257 29.4493 309.923 29.0031 309.923 28.778C309.923 28.4413 310.257 28.4413 310.704 28.5548ZM307.462 27.1004C307.801 27.214 308.022 27.5487 308.022 27.7718C308.022 28.1065 307.687 28.1065 307.353 27.995C306.904 27.7718 306.679 27.4351 306.679 27.212C306.681 26.8773 307.02 26.8773 307.462 27.1004ZM304.113 25.4249C304.448 25.6481 304.673 25.9848 304.673 26.2079C304.673 26.431 304.334 26.5426 303.886 26.3195C303.551 26.0963 303.217 25.8732 303.33 25.5365C303.33 25.3134 303.665 25.3134 304.113 25.4249ZM300.423 23.6359C300.872 23.859 301.093 24.3053 301.093 24.5304C301.093 24.8651 300.649 24.8651 300.202 24.642C299.756 24.4188 299.419 24.0841 299.529 23.859C299.642 23.5243 299.975 23.5243 300.423 23.6359V23.6359Z" fill="white"/>
</g>
<defs>
<clipPath id="clip0_1093_2">
<rect width="350.845" height="100" fill="white"/>
</clipPath>
</defs>
</svg>
