<svg width="90" height="90" viewBox="0 0 90 90" fill="none" xmlns="http://www.w3.org/2000/svg">
<path d="M45 11C56.9722 11 63.7638 19.1727 64.7498 29.0454H65.0472C72.761 29.0454 79 35.4714 79 43.3976C79 43.5931 79 43.7928 78.9872 43.9841C77.4254 42.5909 75.5447 41.6034 73.5111 41.1089C71.4774 40.6143 69.3533 40.6277 67.3261 41.1481C65.2989 41.6684 63.4309 42.6797 61.8869 44.0925C60.3428 45.5054 59.1702 47.2766 58.4725 49.2498C56.2799 49.2955 54.1552 50.0185 52.3898 51.3197C50.6245 52.6208 49.305 54.4364 48.6125 56.5172L48.196 57.7497H24.9485C17.2432 57.7497 11 51.3238 11 43.3976C11 35.4714 17.2475 29.0454 24.9485 29.0454H25.2502C26.2447 19.109 33.0277 11 45 11ZM70.5 61.9997C72.1811 61.9997 73.8245 61.5012 75.2223 60.5672C76.6202 59.6332 77.7096 58.3057 78.353 56.7525C78.9963 55.1994 79.1646 53.4903 78.8367 51.8415C78.5087 50.1927 77.6992 48.6781 76.5104 47.4894C75.3217 46.3006 73.8071 45.4911 72.1583 45.1631C70.5094 44.8352 68.8004 45.0035 67.2472 45.6468C65.694 46.2902 64.3665 47.3796 63.4325 48.7774C62.4985 50.1752 62 51.8186 62 53.4998H58.685C57.3476 53.5008 56.0443 53.9224 54.9597 54.7049C53.8751 55.4875 53.0641 56.5913 52.6415 57.8602L50.3295 64.7962C50.1884 65.2198 49.9174 65.5883 49.555 65.8492C49.1927 66.1101 48.7573 66.2502 48.3107 66.2497H43.861C42.8298 64.4639 41.1846 63.1138 39.2318 62.451C37.2791 61.7883 35.152 61.858 33.2468 62.6473C31.3416 63.4365 29.7884 64.8914 28.8764 66.741C27.9644 68.5905 27.7559 70.7085 28.2897 72.7004C28.8236 74.6922 30.0633 76.4221 31.778 77.5677C33.4927 78.7133 35.5653 79.1965 37.6099 78.9272C39.6544 78.658 41.5313 77.6546 42.8909 76.1041C44.2505 74.5537 45.0001 72.5618 45 70.4997H48.315C49.6524 70.4986 50.9557 70.077 52.0403 69.2945C53.1249 68.5119 53.9359 67.4081 54.3585 66.1392L56.6705 59.2032C56.8116 58.7796 57.0826 58.4111 57.445 58.1502C57.8073 57.8893 58.2427 57.7492 58.6892 57.7497H63.139C63.885 59.0419 64.958 60.1148 66.2501 60.8609C67.5422 61.6069 69.008 61.9997 70.5 61.9997ZM70.5 57.7497C69.3728 57.7497 68.2918 57.302 67.4948 56.5049C66.6978 55.7079 66.25 54.6269 66.25 53.4998C66.25 52.3726 66.6978 51.2916 67.4948 50.4946C68.2918 49.6975 69.3728 49.2498 70.5 49.2498C71.6272 49.2498 72.7082 49.6975 73.5052 50.4946C74.3022 51.2916 74.75 52.3726 74.75 53.4998C74.75 54.6269 74.3022 55.7079 73.5052 56.5049C72.7082 57.302 71.6272 57.7497 70.5 57.7497ZM40.75 70.4997C40.75 71.6268 40.3022 72.7078 39.5052 73.5048C38.7082 74.3019 37.6272 74.7496 36.5 74.7496C35.3728 74.7496 34.2918 74.3019 33.4948 73.5048C32.6978 72.7078 32.25 71.6268 32.25 70.4997C32.25 69.3725 32.6978 68.2915 33.4948 67.4945C34.2918 66.6974 35.3728 66.2497 36.5 66.2497C37.6272 66.2497 38.7082 66.6974 39.5052 67.4945C40.3022 68.2915 40.75 69.3725 40.75 70.4997Z" stroke="#024D81" stroke-width="2"/>
</svg>
