<svg width="19" height="26" viewBox="0 0 19 26" fill="none" xmlns="http://www.w3.org/2000/svg">
<g clip-path="url(#clip0_675_391)">
<path d="M9.72224 0.867188H8.33335C7.56628 0.867188 6.94446 1.48901 6.94446 2.25608V3.64497C6.94446 4.41203 7.56628 5.03385 8.33335 5.03385H9.72224C10.4893 5.03385 11.1111 4.41203 11.1111 3.64497V2.25608C11.1111 1.48901 10.4893 0.867188 9.72224 0.867188Z" fill="white"/>
<path d="M2.77778 0.867188H1.38889C0.621827 0.867188 0 1.48901 0 2.25608V3.64497C0 4.41203 0.621827 5.03385 1.38889 5.03385H2.77778C3.54484 5.03385 4.16667 4.41203 4.16667 3.64497V2.25608C4.16667 1.48901 3.54484 0.867188 2.77778 0.867188Z" fill="white"/>
<path d="M16.6667 0.867188H15.2778C14.5107 0.867188 13.8889 1.48901 13.8889 2.25608V3.64497C13.8889 4.41203 14.5107 5.03385 15.2778 5.03385H16.6667C17.4337 5.03385 18.0556 4.41203 18.0556 3.64497V2.25608C18.0556 1.48901 17.4337 0.867188 16.6667 0.867188Z" fill="white"/>
<path d="M9.72224 7.81152H8.33335C7.56628 7.81152 6.94446 8.43335 6.94446 9.20041V10.5893C6.94446 11.3564 7.56628 11.9782 8.33335 11.9782H9.72224C10.4893 11.9782 11.1111 11.3564 11.1111 10.5893V9.20041C11.1111 8.43335 10.4893 7.81152 9.72224 7.81152Z" fill="white"/>
<path d="M2.77778 7.81152H1.38889C0.621827 7.81152 0 8.43335 0 9.20041V10.5893C0 11.3564 0.621827 11.9782 1.38889 11.9782H2.77778C3.54484 11.9782 4.16667 11.3564 4.16667 10.5893V9.20041C4.16667 8.43335 3.54484 7.81152 2.77778 7.81152Z" fill="white"/>
<path d="M16.6667 7.81152H15.2778C14.5107 7.81152 13.8889 8.43335 13.8889 9.20041V10.5893C13.8889 11.3564 14.5107 11.9782 15.2778 11.9782H16.6667C17.4337 11.9782 18.0556 11.3564 18.0556 10.5893V9.20041C18.0556 8.43335 17.4337 7.81152 16.6667 7.81152Z" fill="white"/>
<path d="M9.72224 14.7559H8.33335C7.56628 14.7559 6.94446 15.3777 6.94446 16.1447V17.5336C6.94446 18.3007 7.56628 18.9225 8.33335 18.9225H9.72224C10.4893 18.9225 11.1111 18.3007 11.1111 17.5336V16.1447C11.1111 15.3777 10.4893 14.7559 9.72224 14.7559Z" fill="white"/>
<path d="M2.77778 14.7559H1.38889C0.621827 14.7559 0 15.3777 0 16.1447V17.5336C0 18.3007 0.621827 18.9225 1.38889 18.9225H2.77778C3.54484 18.9225 4.16667 18.3007 4.16667 17.5336V16.1447C4.16667 15.3777 3.54484 14.7559 2.77778 14.7559Z" fill="white"/>
<path d="M16.6667 14.7559H15.2778C14.5107 14.7559 13.8889 15.3777 13.8889 16.1447V17.5336C13.8889 18.3007 14.5107 18.9225 15.2778 18.9225H16.6667C17.4337 18.9225 18.0556 18.3007 18.0556 17.5336V16.1447C18.0556 15.3777 17.4337 14.7559 16.6667 14.7559Z" fill="white"/>
<path d="M9.72224 21.7002H8.33335C7.56628 21.7002 6.94446 22.322 6.94446 23.0891V24.478C6.94446 25.245 7.56628 25.8669 8.33335 25.8669H9.72224C10.4893 25.8669 11.1111 25.245 11.1111 24.478V23.0891C11.1111 22.322 10.4893 21.7002 9.72224 21.7002Z" fill="white"/>
</g>
<defs>
<clipPath id="clip0_675_391">
<rect width="18.0556" height="25" fill="white" transform="translate(0 0.867188)"/>
</clipPath>
</defs>
</svg>
