<svg width="19" height="25" viewBox="0 0 19 25" fill="none" xmlns="http://www.w3.org/2000/svg">
<g clip-path="url(#clip0_664_245)">
<path d="M9.72224 0H8.33335C7.56628 0 6.94446 0.621827 6.94446 1.38889V2.77778C6.94446 3.54484 7.56628 4.16667 8.33335 4.16667H9.72224C10.4893 4.16667 11.1111 3.54484 11.1111 2.77778V1.38889C11.1111 0.621827 10.4893 0 9.72224 0Z" fill="#024D81"/>
<path d="M2.77778 0H1.38889C0.621827 0 0 0.621827 0 1.38889V2.77778C0 3.54484 0.621827 4.16667 1.38889 4.16667H2.77778C3.54484 4.16667 4.16667 3.54484 4.16667 2.77778V1.38889C4.16667 0.621827 3.54484 0 2.77778 0Z" fill="#024D81"/>
<path d="M16.6667 0H15.2778C14.5107 0 13.8889 0.621827 13.8889 1.38889V2.77778C13.8889 3.54484 14.5107 4.16667 15.2778 4.16667H16.6667C17.4337 4.16667 18.0556 3.54484 18.0556 2.77778V1.38889C18.0556 0.621827 17.4337 0 16.6667 0Z" fill="#024D81"/>
<path d="M9.72224 6.94531H8.33335C7.56628 6.94531 6.94446 7.56714 6.94446 8.3342V9.72309C6.94446 10.4902 7.56628 11.112 8.33335 11.112H9.72224C10.4893 11.112 11.1111 10.4902 11.1111 9.72309V8.3342C11.1111 7.56714 10.4893 6.94531 9.72224 6.94531Z" fill="#024D81"/>
<path d="M2.77778 6.94531H1.38889C0.621827 6.94531 0 7.56714 0 8.3342V9.72309C0 10.4902 0.621827 11.112 1.38889 11.112H2.77778C3.54484 11.112 4.16667 10.4902 4.16667 9.72309V8.3342C4.16667 7.56714 3.54484 6.94531 2.77778 6.94531Z" fill="#024D81"/>
<path d="M16.6667 6.94531H15.2778C14.5107 6.94531 13.8889 7.56714 13.8889 8.3342V9.72309C13.8889 10.4902 14.5107 11.112 15.2778 11.112H16.6667C17.4337 11.112 18.0556 10.4902 18.0556 9.72309V8.3342C18.0556 7.56714 17.4337 6.94531 16.6667 6.94531Z" fill="#024D81"/>
<path d="M9.72224 13.8887H8.33335C7.56628 13.8887 6.94446 14.5105 6.94446 15.2776V16.6664C6.94446 17.4335 7.56628 18.0553 8.33335 18.0553H9.72224C10.4893 18.0553 11.1111 17.4335 11.1111 16.6664V15.2776C11.1111 14.5105 10.4893 13.8887 9.72224 13.8887Z" fill="#024D81"/>
<path d="M2.77778 13.8887H1.38889C0.621827 13.8887 0 14.5105 0 15.2776V16.6664C0 17.4335 0.621827 18.0553 1.38889 18.0553H2.77778C3.54484 18.0553 4.16667 17.4335 4.16667 16.6664V15.2776C4.16667 14.5105 3.54484 13.8887 2.77778 13.8887Z" fill="#024D81"/>
<path d="M16.6667 13.8887H15.2778C14.5107 13.8887 13.8889 14.5105 13.8889 15.2776V16.6664C13.8889 17.4335 14.5107 18.0553 15.2778 18.0553H16.6667C17.4337 18.0553 18.0556 17.4335 18.0556 16.6664V15.2776C18.0556 14.5105 17.4337 13.8887 16.6667 13.8887Z" fill="#024D81"/>
<path d="M9.72224 20.834H8.33335C7.56628 20.834 6.94446 21.4558 6.94446 22.2229V23.6118C6.94446 24.3788 7.56628 25.0007 8.33335 25.0007H9.72224C10.4893 25.0007 11.1111 24.3788 11.1111 23.6118V22.2229C11.1111 21.4558 10.4893 20.834 9.72224 20.834Z" fill="#024D81"/>
</g>
<defs>
<clipPath id="clip0_664_245">
<rect width="18.0556" height="25" fill="white"/>
</clipPath>
</defs>
</svg>
