<svg width="90" height="90" viewBox="0 0 90 90" fill="none" xmlns="http://www.w3.org/2000/svg">
<g clip-path="url(#clip0_93_197)">
<path d="M45.3333 11C40.8101 11.0098 36.3962 12.3378 32.673 14.809C28.9498 17.2802 26.0922 20.7787 24.4766 24.8435C22.861 28.9082 22.5632 33.3485 23.6225 37.5793C24.6819 41.8101 27.0486 45.6329 30.4108 48.5439V78L45.3333 68.4286L60.2558 78V48.5439C63.6181 45.6329 65.9848 41.8101 67.0441 37.5793C68.1035 33.3485 67.8057 28.9082 66.1901 24.8435C64.5745 20.7787 61.7168 17.2802 57.9937 14.809C54.2705 12.3378 49.8565 11.0098 45.3333 11V11ZM55.2817 69.0507L48.094 64.4564L45.3333 62.6857L42.5727 64.4564L35.385 69.0507V51.7982C38.4702 53.2958 41.8777 54.076 45.3333 54.076C48.789 54.076 52.1964 53.2958 55.2817 51.7982V69.0507ZM57.4952 44.5C54.6189 47.2017 50.8594 48.8625 46.855 49.2006C42.8507 49.5386 38.8481 48.533 35.5267 46.3545C32.2053 44.176 29.7699 40.9588 28.6337 37.249C27.4975 33.5393 27.7306 29.5655 29.2935 26.0023C30.8564 22.4391 33.6527 19.506 37.2078 17.701C40.7629 15.8959 44.8577 15.3301 48.7971 16.0995C52.7365 16.869 56.2777 18.9263 58.8198 21.9223C61.3618 24.9182 62.7479 28.6682 62.7429 32.5357C62.74 34.7656 62.2743 36.9726 61.3732 39.0271C60.472 41.0815 59.1536 42.9422 57.4952 44.5Z" stroke="#024D81" stroke-width="2"/>
<path d="M45.8335 36.4235L45.3333 36.1346L44.8332 36.4235L40.258 39.066L41.4556 34.1533L41.6037 33.5457L41.1223 33.1466L37.1816 29.8797L42.4128 29.455L43.0055 29.4069L43.2462 28.8633L45.3333 24.151L47.4204 28.8633L47.6612 29.4069L48.2538 29.455L53.4851 29.8797L49.5444 33.1466L49.0629 33.5457L49.211 34.1533L50.4087 39.066L45.8335 36.4235Z" stroke="#024D81" stroke-width="2"/>
</g>
<defs>
<clipPath id="clip0_93_197">
<rect width="90" height="90" fill="white"/>
</clipPath>
</defs>
</svg>
