<svg width="90" height="90" viewBox="0 0 90 90" fill="none" xmlns="http://www.w3.org/2000/svg">
<path d="M40.7516 36.5698C41.8754 35.4695 43.4039 34.8477 45.0021 34.8477C46.6002 34.8477 48.1287 35.4695 49.2525 36.5698C50.3755 37.6695 51.0025 39.1564 51.0025 40.7022C51.0025 42.2481 50.3755 43.735 49.2525 44.8346C48.1287 45.935 46.6002 46.5568 45.0021 46.5568C43.4039 46.5568 41.8754 45.935 40.7516 44.8346C39.6286 43.735 39.0016 42.2481 39.0016 40.7022C39.0016 39.1564 39.6286 37.6695 40.7516 36.5698Z" stroke="#024D81" stroke-width="2"/>
<path d="M31.1005 60.6927L30.4535 61.4821L31.256 62.1129C35.1562 65.1784 40.0066 66.8439 45.0021 66.837C49.9975 66.8439 54.8479 65.1784 58.7481 62.1129L59.5506 61.4821L58.9036 60.6927L55.9821 57.1284L55.3615 56.3712L54.5914 56.9755C51.9673 59.0345 48.6366 60.2672 45.0021 60.2672C41.3676 60.2672 38.0368 59.0345 35.4128 56.9755L34.6426 56.3712L34.0221 57.1284L31.1005 60.6927ZM36.0524 31.9108C33.6745 34.2391 32.3347 37.4015 32.3347 40.7035C32.3347 44.0055 33.6745 47.1679 36.0524 49.4962C38.4295 51.8238 41.6492 53.1278 45.0021 53.1278C48.3549 53.1278 51.5746 51.8238 53.9517 49.4962C56.3296 47.1679 57.6694 44.0055 57.6694 40.7035C57.6694 37.4015 56.3296 34.2391 53.9517 31.9108C51.5746 29.5832 48.3549 28.2793 45.0021 28.2793C41.6492 28.2793 38.4295 29.5832 36.0524 31.9108Z" stroke="#024D81" stroke-width="2"/>
<path d="M46.3355 20.1394V21.1394H47.3355H52.0024C57.2553 21.1399 62.3928 22.6395 66.7861 25.4525C71.1792 28.2655 74.6367 32.2691 76.7388 36.9711C78.8407 41.6729 79.4972 46.8712 78.6291 51.9311C77.7609 56.9911 75.4052 61.6963 71.8467 65.4704L71.4694 65.8707L71.6054 66.4037L74.2982 76.9552C74.3519 77.1668 74.3488 77.388 74.2892 77.5983C74.2296 77.8089 74.1146 78.0031 73.9532 78.1611C73.7917 78.3193 73.5892 78.4356 73.3646 78.4966C73.14 78.5577 72.9022 78.5607 72.6759 78.5056L54.0558 73.9453L53.9048 73.9083L53.7498 73.9189C53.173 73.9583 52.5892 73.976 52.0025 73.976H38.0016C30.8336 73.976 23.9634 71.1876 18.9011 66.2308C13.8396 61.2747 11 54.5574 11 47.5577C11 40.558 13.8396 33.8407 18.9011 28.8846C23.9634 23.9278 30.8336 21.1394 38.0016 21.1394H42.6686H43.6686V20.1394V12H46.3355V20.1394Z" stroke="#024D81" stroke-width="2"/>
</svg>
