<svg width="174" height="174" viewBox="0 0 174 174" fill="none" xmlns="http://www.w3.org/2000/svg">
<g filter="url(#filter0_d_1837_1422)">
<rect x="86.7109" y="16" width="100" height="100" rx="10" transform="rotate(45 86.7109 16)" fill="white"/>
</g>
<g clip-path="url(#clip0_1837_1422)">
<path d="M84.5354 66.5728V62.7722C84.0733 62.5989 83.6251 62.3905 83.1948 62.1488C81.5099 61.1487 80.2409 59.5759 79.6195 57.7177C78.998 55.8595 79.0656 53.8398 79.8098 52.0273C80.2233 51.0389 80.8243 50.1398 81.5794 49.3796C82.3322 48.6267 83.2248 48.0279 84.207 47.6167C85.1967 47.2051 86.2587 46.9955 87.3305 47.0001C88.9409 46.9998 90.5151 47.4774 91.8539 48.3723C93.1926 49.2672 94.2358 50.5392 94.8513 52.0273C95.6732 54.017 95.6732 56.2513 94.8513 58.241C94.4417 59.2296 93.8403 60.1272 93.0817 60.8819L93.0415 60.9222C92.5641 61.3916 92.0331 61.8033 91.4596 62.1488C91.0342 62.4 90.5852 62.6088 90.119 62.7722V66.5728H109.209C111.949 66.5816 114.574 67.6743 116.51 69.6122C118.447 71.5501 119.538 74.1757 119.545 76.9154V78.4504H123.084C124.488 78.4557 125.833 79.0163 126.825 80.0096C127.817 81.003 128.376 82.3485 128.38 83.7525V96.0658C128.376 97.4698 127.817 98.8153 126.825 99.8087C125.833 100.802 124.488 101.363 123.084 101.368H119.565V102.755C119.556 105.498 118.462 108.126 116.521 110.064C114.581 112.002 111.952 113.093 109.209 113.098H83.0205L67.3222 126.578C67.1491 126.726 66.9483 126.839 66.7315 126.91C66.5146 126.981 66.2858 127.008 66.0584 126.99C65.831 126.972 65.6094 126.909 65.4064 126.805C65.2034 126.701 65.023 126.557 64.8756 126.383C64.5808 126.04 64.4295 125.596 64.4533 125.143L65.2912 113.078H65.1504C62.4142 113.071 59.7921 111.981 57.8567 110.047C55.9213 108.113 54.83 105.492 54.8211 102.755V101.368H51.3021C49.8969 101.364 48.5504 100.805 47.5568 99.8111C46.5633 98.8175 46.0035 97.4709 46 96.0658V83.7525C46.0035 82.3485 46.5624 81.003 47.5545 80.0096C48.5466 79.0163 49.8914 78.4557 51.2954 78.4504H54.8211V76.9087C54.8264 74.1703 55.9162 71.5454 57.852 69.6083C59.7877 67.6713 62.4119 66.5798 65.1504 66.5728H84.5354ZM101.46 78.7185C102.701 78.7185 103.914 79.0865 104.946 79.7759C105.978 80.4653 106.782 81.4452 107.257 82.5916C107.732 83.738 107.856 84.9995 107.614 86.2165C107.372 87.4336 106.774 88.5515 105.897 89.4289C105.019 90.3063 103.901 90.9039 102.684 91.146C101.467 91.388 100.206 91.2638 99.0595 90.7889C97.913 90.3141 96.9332 89.5099 96.2438 88.4782C95.5544 87.4464 95.1864 86.2334 95.1864 84.9925C95.1864 83.3286 95.8474 81.7328 97.024 80.5562C98.2006 79.3796 99.7964 78.7185 101.46 78.7185V78.7185ZM72.9191 78.7185C74.16 78.7185 75.373 79.0865 76.4048 79.7759C77.4365 80.4653 78.2407 81.4452 78.7156 82.5916C79.1904 83.738 79.3147 84.9995 79.0726 86.2165C78.8305 87.4336 78.233 88.5515 77.3555 89.4289C76.4781 90.3063 75.3602 90.9039 74.1431 91.146C72.9261 91.388 71.6646 91.2638 70.5182 90.7889C69.3718 90.3141 68.3919 89.5099 67.7025 88.4782C67.0131 87.4464 66.6452 86.2334 66.6452 84.9925C66.6452 83.3286 67.3062 81.7328 68.4828 80.5562C69.6594 79.3796 71.2552 78.7185 72.9191 78.7185V78.7185ZM77.1956 99.7391C77.101 99.6645 77.0155 99.579 76.9409 99.4844C76.7237 99.2294 76.6007 98.9076 76.5924 98.5728C76.5863 98.2362 76.6951 97.9076 76.9007 97.641C76.9775 97.5442 77.0652 97.4564 77.1621 97.3796C77.5308 97.0891 77.9842 96.9267 78.4535 96.917C78.9228 96.9073 79.3825 97.0509 79.7629 97.326C80.9084 98.2298 82.1797 98.9614 83.5367 99.4978C84.7058 99.9499 85.9497 100.177 87.2032 100.168C88.4724 100.141 89.727 99.8916 90.9099 99.4307C92.283 98.8818 93.5786 98.1562 94.7641 97.2724C95.1531 97.0072 95.6177 96.8755 96.088 96.8973C96.5583 96.919 97.0088 97.093 97.3716 97.393C97.4625 97.4768 97.5456 97.5688 97.6196 97.6679C97.8167 97.9399 97.9159 98.2707 97.9011 98.6063C97.8725 98.9419 97.7362 99.2594 97.5124 99.5112C97.4273 99.6078 97.3305 99.6934 97.2241 99.7659C95.7166 100.88 94.0635 101.782 92.3109 102.447C90.6964 103.056 88.9887 103.38 87.2635 103.406C85.5363 103.43 83.8191 103.139 82.1961 102.548C80.4072 101.878 78.732 100.938 77.2292 99.7592V99.7592L77.1956 99.7391ZM109.202 70.0583H65.1504C63.3346 70.0654 61.5952 70.7903 60.3119 72.0749C59.0285 73.3596 58.3053 75.0996 58.3 76.9154V102.755C58.3053 104.571 59.0285 106.311 60.3119 107.596C61.5952 108.881 63.3346 109.605 65.1504 109.613H67.2752C67.7348 109.647 68.1622 109.861 68.4646 110.209C68.7671 110.556 68.9202 111.009 68.8907 111.469L68.2204 121.242L81.1571 110.109C81.318 109.948 81.5093 109.82 81.7199 109.734C81.9305 109.648 82.1562 109.604 82.3837 109.606H109.196C111.011 109.599 112.751 108.874 114.034 107.589C115.318 106.305 116.041 104.565 116.046 102.749V76.9087C116.043 75.0941 115.321 73.3548 114.038 72.071C112.756 70.7873 111.017 70.0636 109.202 70.0583V70.0583Z" fill="#024D81"/>
</g>
<defs>
<filter id="filter0_d_1837_1422" x="0.142578" y="0.14209" width="173.137" height="173.137" filterUnits="userSpaceOnUse" color-interpolation-filters="sRGB">
<feFlood flood-opacity="0" result="BackgroundImageFix"/>
<feColorMatrix in="SourceAlpha" type="matrix" values="0 0 0 0 0 0 0 0 0 0 0 0 0 0 0 0 0 0 127 0" result="hardAlpha"/>
<feOffset/>
<feGaussianBlur stdDeviation="10"/>
<feComposite in2="hardAlpha" operator="out"/>
<feColorMatrix type="matrix" values="0 0 0 0 0 0 0 0 0 0 0 0 0 0 0 0 0 0 0.1 0"/>
<feBlend mode="normal" in2="BackgroundImageFix" result="effect1_dropShadow_1837_1422"/>
<feBlend mode="normal" in="SourceGraphic" in2="effect1_dropShadow_1837_1422" result="shape"/>
</filter>
<clipPath id="clip0_1837_1422">
<rect width="82.3661" height="80" fill="white" transform="translate(46 47)"/>
</clipPath>
</defs>
</svg>
