<svg width="90" height="90" viewBox="0 0 90 90" fill="none" xmlns="http://www.w3.org/2000/svg">
<path d="M59.3405 31.1276C58.0653 29.8529 56.336 29.1367 54.5329 29.1367C52.7298 29.1367 51.0006 29.8529 49.7254 31.1276L48.6714 32.1794L51.8764 35.3844L52.9304 34.3327C53.3579 33.9198 53.9305 33.6913 54.5248 33.6965C55.1191 33.7017 55.6876 33.94 56.1078 34.3603C56.5281 34.7805 56.7665 35.3491 56.7716 35.9434C56.7768 36.5377 56.5483 37.1102 56.1355 37.5377L48.6714 45.0018L51.8764 48.2068L59.3405 40.7428C60.6153 39.4676 61.3314 37.7383 61.3314 35.9352C61.3314 34.1321 60.6153 32.4028 59.3405 31.1276V31.1276ZM38.0023 55.6709C37.5748 56.0838 37.0023 56.3122 36.4079 56.3071C35.8136 56.3019 35.2451 56.0635 34.8249 55.6433C34.4046 55.223 34.1662 54.6545 34.1611 54.0602C34.1559 53.4659 34.3844 52.8933 34.7973 52.4658L42.2613 45.0018L39.0563 41.7967L31.5922 49.2608C30.9428 49.8881 30.4247 50.6384 30.0684 51.468C29.712 52.2976 29.5244 53.1899 29.5166 54.0928C29.5087 54.9957 29.6808 55.8911 30.0227 56.7268C30.3646 57.5625 30.8695 58.3217 31.508 58.9602C32.1464 59.5987 32.9056 60.1036 33.7413 60.4455C34.577 60.7874 35.4724 60.9594 36.3753 60.9516C37.2782 60.9437 38.1705 60.7562 39.0001 60.3998C39.8297 60.0434 40.5801 59.5254 41.2073 58.8759L42.2613 57.8242L39.0563 54.6191L38.0023 55.6709ZM41.2073 31.1299C39.9197 29.9213 38.2123 29.261 36.4464 29.2889C34.6806 29.3167 32.9949 30.0305 31.7459 31.2791C30.497 32.5277 29.7828 34.2133 29.7546 35.9791C29.7263 37.745 30.3862 39.4525 31.5945 40.7405L32.6462 41.7945L35.8513 38.5894L34.7995 37.5355C34.3866 37.108 34.1582 36.5354 34.1633 35.9411C34.1685 35.3468 34.4069 34.7783 34.8271 34.358C35.2474 33.9378 35.8159 33.6994 36.4102 33.6942C37.0045 33.6891 37.5771 33.9175 38.0046 34.3304L45.4664 41.7967L48.6714 38.5917L41.2073 31.1299Z" stroke="#024D81" stroke-width="2"/>
<path d="M59.3405 49.2591L58.2888 48.2051L55.0837 51.4101L56.1355 52.4641C56.5483 52.8916 56.7768 53.4642 56.7716 54.0585C56.7665 54.6528 56.5281 55.2213 56.1078 55.6415C55.6876 56.0618 55.1191 56.3002 54.5248 56.3053C53.9305 56.3105 53.3579 56.082 52.9304 55.6691L45.4664 48.2051L42.2613 51.4101L49.7254 58.8742C51.0079 60.1128 52.7255 60.7982 54.5085 60.7827C56.2914 60.7672 57.9969 60.0521 59.2577 58.7913C60.5184 57.5306 61.2336 55.8251 61.2491 54.0422C61.2645 52.2592 60.5791 50.5416 59.3405 49.2591V49.2591Z" stroke="#024D81" stroke-width="2"/>
<path d="M45.4664 79C45.065 79.0003 44.6707 78.8939 44.324 78.6917L17.1243 62.8252C16.782 62.6255 16.4982 62.3396 16.3009 61.996C16.1036 61.6524 15.9999 61.2631 16 60.8668V29.1338C15.9999 28.7376 16.1036 28.3483 16.3009 28.0047C16.4982 27.661 16.782 27.3751 17.1243 27.1754L44.324 11.3089C44.6707 11.1066 45.0649 11 45.4664 11C45.8678 11 46.262 11.1066 46.6088 11.3089L73.8085 27.1754L71.5237 31.0922L45.4664 15.8921L20.5333 30.4349V59.5658L45.4664 74.1108L70.3995 59.5658V42.7337H74.9328V60.8668C74.9329 61.2631 74.8291 61.6524 74.6319 61.996C74.4346 62.3396 74.1507 62.6255 73.8085 62.8252L46.6088 78.6917C46.262 78.8939 45.8678 79.0003 45.4664 79V79Z" stroke="#024D81" stroke-width="2"/>
</svg>
