<svg width="90" height="90" viewBox="0 0 90 90" fill="none" xmlns="http://www.w3.org/2000/svg">
<path d="M52.2 28.7871V22.6842C52.2 21.7596 52.0077 20.8451 51.6353 19.9985C51.2629 19.1519 50.7186 18.3915 50.0366 17.7655C49.3547 17.1395 48.55 16.6614 47.6734 16.3615C46.7968 16.0616 45.8674 15.9463 44.9439 16.0231L18.1439 18.249C16.4691 18.3882 14.9078 19.1502 13.7698 20.3841C12.6318 21.6179 12.0001 23.2334 12 24.9101V66.0866C12.0001 67.7633 12.6318 69.3788 13.7698 70.6126C14.9078 71.8464 16.4691 72.6085 18.1439 72.7477L44.9439 74.9769C45.8677 75.0537 46.7974 74.9384 47.6742 74.6383C48.551 74.3381 49.3559 73.8598 50.0379 73.2334C50.7198 72.607 51.2641 71.8462 51.6363 70.9992C52.0085 70.1522 52.2004 69.2373 52.2 68.3125V62.2096M48.85 45.4983H79H48.85ZM79 45.4983L67.8344 32.1293L79 45.4983ZM79 45.4983L67.8344 58.8673L79 45.4983Z" stroke="white" stroke-width="2" stroke-linecap="round" stroke-linejoin="round"/>
</svg>
