<svg width="90" height="90" viewBox="0 0 90 90" fill="none" xmlns="http://www.w3.org/2000/svg">
<path d="M57.1429 54.9C56.4988 54.9 55.881 55.1476 55.4256 55.5883C54.9702 56.029 54.7143 56.6267 54.7143 57.25C54.7143 57.8733 54.9702 58.471 55.4256 58.9117C55.881 59.3524 56.4988 59.6 57.1429 59.6H66.8571C67.5012 59.6 68.119 59.3524 68.5744 58.9117C69.0299 58.471 69.2857 57.8733 69.2857 57.25C69.2857 56.6267 69.0299 56.029 68.5744 55.5883C68.119 55.1476 67.5012 54.9 66.8571 54.9H57.1429ZM11 31.4C11 28.907 12.0235 26.516 13.8452 24.7532C15.667 22.9904 18.1379 22 20.7143 22H69.2857C71.8621 22 74.333 22.9904 76.1548 24.7532C77.9765 26.516 79 28.907 79 31.4V59.6C79 62.093 77.9765 64.484 76.1548 66.2468C74.333 68.0096 71.8621 69 69.2857 69H20.7143C18.1379 69 15.667 68.0096 13.8452 66.2468C12.0235 64.484 11 62.093 11 59.6V31.4ZM74.1429 31.4C74.1429 30.1535 73.6311 28.958 72.7202 28.0766C71.8093 27.1952 70.5739 26.7 69.2857 26.7H20.7143C19.4261 26.7 18.1907 27.1952 17.2798 28.0766C16.3689 28.958 15.8571 30.1535 15.8571 31.4V36.1H74.1429V31.4ZM15.8571 59.6C15.8571 60.8465 16.3689 62.042 17.2798 62.9234C18.1907 63.8048 19.4261 64.3 20.7143 64.3H69.2857C70.5739 64.3 71.8093 63.8048 72.7202 62.9234C73.6311 62.042 74.1429 60.8465 74.1429 59.6V40.8H15.8571V59.6Z" stroke="white" stroke-width="2"/>
</svg>
