<svg width="90" height="90" viewBox="0 0 90 90" fill="none" xmlns="http://www.w3.org/2000/svg">
<path d="M54.6049 11H68.7263C70.3272 11 71.625 12.3237 71.625 13.9566V18.9827M35.0101 11H20.8987C19.2978 11 18 12.3237 18 13.9566V45V76.0434C18 77.6763 19.2978 79 20.8987 79H68.7263C70.3272 79 71.625 77.6763 71.625 76.0434V62.4331V11H35.0101Z" stroke="#024D81" stroke-width="2" stroke-linecap="round" stroke-linejoin="round"/>
<path d="M50.5875 11H40.0688C38.1323 11 36.5625 11.8325 36.5625 12.8594V16.5781C36.5625 17.605 38.1323 18.4375 40.0688 18.4375H50.5875C52.5241 18.4375 54.0938 17.605 54.0938 16.5781V12.8594C54.0938 11.8325 52.5241 11 50.5875 11Z" stroke="#024D81" stroke-width="2" stroke-linecap="round" stroke-linejoin="round"/>
<path d="M47.05 33.5033C50.4225 31.4989 54.5776 31.4989 57.9501 33.5033L61.5499 35.6429C64.9224 37.6473 67 41.3517 67 45.3605V49.6395C67 53.6484 64.9224 57.3528 61.5499 59.3571L57.9501 61.4967C54.5776 63.5011 50.4225 63.5011 47.05 61.4967L43.4501 59.3571C40.0776 57.3528 38 53.6484 38 49.6395V45.3605C38 41.3517 40.0776 37.6473 43.4501 35.6429L47.05 33.5033Z" stroke="#024D81" stroke-width="2"/>
<path d="M26.25 67.3125H48.9375" stroke="#024D81" stroke-width="2" stroke-linecap="round"/>
<path d="M26.25 45V31.7639C26.3392 30.9683 26.6901 30.2231 27.25 29.6401C27.9471 29.2124 28.7656 29.0136 29.586 29.0727H43.7813" stroke="#024D81" stroke-width="2" stroke-linecap="round" stroke-linejoin="round"/>
<path d="M57.6489 51.9573L62.4726 47.4782L57.6489 42.999" stroke="#024D81" stroke-width="2" stroke-linecap="square" stroke-linejoin="round"/>
<path d="M47.8237 42.9987L43 47.4779L47.8237 51.957" stroke="#024D81" stroke-width="2" stroke-linecap="square" stroke-linejoin="round"/>
<path d="M54.5328 40.9995L50.5391 54.2449" stroke="#024D81" stroke-width="2" stroke-linecap="square"/>
</svg>
