<svg width="90" height="90" viewBox="0 0 90 90" fill="none" xmlns="http://www.w3.org/2000/svg">
<path d="M45.4751 12.16L45.4751 12.1604C45.4511 13.2576 45.4556 14.3808 45.46 15.4887C45.463 16.232 45.466 16.9685 45.4603 17.6857H45.4603V17.6936C45.4603 18.0116 45.3736 18.15 45.3346 18.1939C45.3087 18.223 45.2543 18.2722 45.0918 18.27C44.9525 18.2672 44.8917 18.222 44.855 18.1799C44.8088 18.1269 44.7296 17.9905 44.7282 17.7115C44.7282 17.2149 44.7306 16.7149 44.7329 16.2125C44.7392 14.8976 44.7455 13.567 44.7096 12.243C44.7016 11.9304 44.7494 11.7452 44.8078 11.6283C44.8413 11.5613 44.8916 11.4895 44.9794 11.4148H45.22C45.3066 11.4806 45.3522 11.543 45.3815 11.5979C45.433 11.6945 45.4817 11.8609 45.4751 12.16Z" stroke="#024D81" stroke-width="2"/>
<mask id="path-2-inside-1_224_197" fill="white">
<path d="M36.098 70.7279C37.2247 73.4054 36.9244 74.9052 34.8767 76.9511C34.2505 77.5772 33.6371 78.2161 32.9946 78.824C31.0725 80.6442 28.3514 80.6296 26.4548 78.7749C25.4955 77.8393 24.5527 76.8892 23.6117 75.9336C22.9619 75.2729 22.9236 74.452 23.4897 73.8804C24.0558 73.3089 24.8749 73.3435 25.541 73.9951C26.4511 74.8834 27.3375 75.7953 28.2422 76.6871C29.2578 77.6901 30.2444 77.6846 31.2618 76.678C31.8934 76.0592 32.5159 75.4294 33.1402 74.8015C34.296 73.6438 34.2979 72.8448 33.1657 71.6962C31.1126 69.6122 29.0722 67.5099 27.0081 65.4385C24.529 62.9425 22.0415 60.4549 19.5454 57.9758C19.1923 57.6245 18.8173 57.2933 18.4351 56.9766C18.1285 56.7551 17.756 56.6436 17.3782 56.6601C17.0003 56.6766 16.639 56.8202 16.3528 57.0676C15.4191 57.9303 14.5108 58.824 13.6535 59.7596C12.9782 60.4968 13.0693 61.4924 13.821 62.2714C14.7438 63.2452 15.7322 64.1553 16.635 65.1345C16.9116 65.4385 17.1592 65.95 17.1064 66.3231C17.0536 66.6963 16.7005 67.1768 16.3474 67.4152C15.8923 67.7246 15.3153 67.6245 14.904 67.2205C13.7373 66.0774 12.5268 64.9671 11.462 63.733C10.0205 62.0585 10.1333 59.5084 11.6441 57.8684C12.5177 56.9165 13.4315 55.9937 14.3889 55.1273C15.6848 53.9533 17.2192 53.6311 18.8847 54.168C19.3252 54.31 19.5745 54.2354 19.884 53.9169C21.2127 52.5517 22.5705 51.2121 23.9666 49.8142C22.7434 48.5583 22.1246 47.0839 22.4704 45.3166C22.8162 43.5492 23.8774 42.4134 25.5556 41.7108C24.7201 40.2947 24.4981 38.8113 25.0969 37.2842C25.6958 35.757 26.877 34.8069 28.4733 34.361C27.9983 31.3413 29.1887 29.3318 32.0918 28.3308C31.7751 26.7436 31.9717 25.251 33.0656 23.9933C34.3397 22.5372 35.9524 22.0421 37.8563 22.4152C38.1453 22.4576 38.4398 22.3928 38.6845 22.2332C39.8803 21.4032 41.189 21.527 42.4941 21.7636C45.4391 22.2951 48.3732 22.883 51.3183 23.4218C51.8643 23.5237 52.4522 23.4618 53.0074 23.5565C55.7376 24.017 57.4013 26.3595 56.9699 29.1007C56.948 29.2336 56.9408 29.3701 56.9226 29.5594C58.1967 29.9234 59.2596 30.6151 59.9622 31.7782C60.6648 32.9412 60.7722 34.2044 60.4974 35.5059C63.3059 36.436 64.6146 38.5437 64.1377 41.5124C67.8872 42.6045 69.0922 46.911 66.2618 49.8397C67.7034 51.2758 69.1395 52.7174 70.5975 54.1389C70.678 54.1844 70.7676 54.2114 70.8598 54.218C70.9521 54.2246 71.0446 54.2107 71.1308 54.1771C73.1821 53.4054 74.9531 53.8131 76.4802 55.3784C77.1792 56.092 77.9036 56.78 78.5971 57.4989C80.4682 59.4338 80.4755 62.1713 78.5716 64.0825C73.7178 68.9569 68.8513 73.818 63.9721 78.6657C62.0918 80.5313 59.327 80.5113 57.4377 78.6657C56.6404 77.8885 55.8432 77.1112 55.0714 76.2995C53.6863 74.8433 53.3332 73.156 54.074 71.2812C54.2196 70.9172 54.1504 70.7206 53.892 70.4658C52.2429 68.8404 50.6157 67.1895 48.963 65.5714C48.7963 65.3997 48.5761 65.2899 48.3386 65.2601C46.8661 65.1983 45.3918 65.1728 43.9193 65.1418C43.4424 65.1418 42.9437 65.0581 42.4959 65.1728C41.9498 65.3129 41.3419 65.5059 40.9506 65.8754C39.2888 67.468 37.6998 69.1171 36.098 70.7279ZM64.2178 51.8127C63.8865 52.1276 63.5807 52.4662 63.2258 52.7465C63.0778 52.8716 62.9043 52.9631 62.7174 53.0145C62.5306 53.0659 62.3347 53.076 62.1435 53.0441C61.9524 53.0122 61.7704 52.9392 61.6103 52.8299C61.4502 52.7207 61.3157 52.578 61.2163 52.4116C60.8614 51.8382 60.9524 51.1866 61.5076 50.6205C62.4941 49.6176 63.5097 48.6456 64.4853 47.6264C64.6725 47.4426 64.8214 47.2235 64.9232 46.9818C65.025 46.74 65.0778 46.4805 65.0785 46.2182C65.0792 45.9558 65.0277 45.696 64.9272 45.4538C64.8266 45.2115 64.6789 44.9916 64.4926 44.8069C63.71 44.0242 62.5378 43.9988 61.6695 44.7687C61.2946 45.0981 60.9597 45.4713 60.6011 45.8189C59.8876 46.5106 59.0885 46.5652 58.5006 45.9718C57.9127 45.3784 57.9946 44.5648 58.6827 43.8677C59.3998 43.1396 60.1388 42.4352 60.8432 41.6944C61.6677 40.8262 61.6768 39.6067 60.8996 38.8204C60.0878 37.9995 58.8847 38.0159 57.9782 38.8732C57.5978 39.2372 57.2393 39.6103 56.8661 39.9762C56.1381 40.6879 55.2935 40.7534 54.7129 40.1473C54.1322 39.5412 54.216 38.7567 54.9167 38.0468C55.683 37.2714 56.4711 36.5179 57.2247 35.7316C58.0911 34.8215 58.1075 33.6256 57.2957 32.8102C56.4839 31.9948 55.2735 32.0348 54.3725 32.9012C54.0085 33.247 53.6681 33.6074 53.3113 33.9569C52.5705 34.685 51.7496 34.7705 51.1563 34.1862C50.5629 33.602 50.6266 32.7647 51.351 32.0348C52.1173 31.2612 52.8927 30.4949 53.6626 29.7232C53.8982 29.5072 54.0774 29.2369 54.1846 28.9359C54.2919 28.6348 54.3239 28.3121 54.2778 27.9958C54.2305 27.6233 54.0793 27.2716 53.8415 26.9809C53.6037 26.6902 53.289 26.4723 52.9333 26.3519C52.5776 26.2316 52.1952 26.2137 51.8298 26.3003C51.4644 26.387 51.1307 26.5746 50.8669 26.8419C49.6965 27.9813 48.5607 29.1571 47.3849 30.3002C47.0645 30.6114 46.999 30.8317 47.2029 31.274C47.482 31.878 47.6301 32.5343 47.6376 33.1997C47.645 33.8651 47.5115 34.5246 47.2459 35.1347C46.9803 35.7448 46.5885 36.2918 46.0964 36.7398C45.6044 37.1877 45.023 37.5265 44.3907 37.7337C43.9023 37.8651 43.4071 37.9696 42.9073 38.0468C42.8818 38.1578 42.8436 38.2871 42.8235 38.4108C42.4486 40.9427 41.0416 42.3624 38.4897 42.7246C38.0802 42.7829 38.0474 42.9886 38.011 43.3089C37.9085 44.3802 37.4391 45.3833 36.6822 46.1484C35.9254 46.9135 34.9275 47.3938 33.8574 47.508C33.6626 47.5335 33.4715 47.5808 33.2931 47.6136C33.042 51.618 29.0958 53.3053 26.3146 51.8309C26.1726 51.7563 25.8414 51.8528 25.7067 51.9802C24.8348 52.8102 23.9975 53.6748 23.1384 54.5175C22.6124 55.0363 22.07 55.5386 21.6659 55.9245L34.3106 68.6365C35.8869 67.0548 37.5123 65.4385 39.1177 63.804C39.4986 63.3961 39.9566 63.0678 40.4652 62.8382C40.9739 62.6086 41.523 62.4821 42.0809 62.4662C43.3728 62.4115 44.6668 62.4334 45.956 62.5317C48.173 62.7283 50.1424 62.448 51.6222 60.5295C51.7357 60.3703 51.8833 60.2384 52.0542 60.1435C52.2252 60.0486 52.4151 59.993 52.6103 59.9808C52.8054 59.9686 53.0008 60 53.1822 60.0729C53.3637 60.1458 53.5265 60.2583 53.659 60.4021C54.2378 60.9864 54.1777 61.7472 53.548 62.4589C52.96 63.1214 52.414 63.8204 51.9098 64.4247L56.0853 68.6347L68.5279 56.1429L64.2178 51.8127ZM72.9637 56.3996C72.465 56.6799 71.9444 56.8419 71.6004 57.1841C66.7345 62.0075 61.8849 66.8455 57.0518 71.6981C56.2236 72.5299 56.2363 73.571 57.0518 74.4192C57.7908 75.1873 58.5455 75.9403 59.3161 76.678C60.197 77.5262 61.2163 77.5444 62.0864 76.678C66.9401 71.8461 71.7866 67.0051 76.6259 62.1549C77.4631 61.3158 77.4486 60.2874 76.6259 59.4356C75.8723 58.6511 75.1151 57.8648 74.3033 57.1404C73.9575 56.8291 73.4697 56.6708 72.9637 56.3996ZM37.7871 40.0181C38.9393 39.978 39.5836 39.6103 39.9167 38.8204C40.0953 38.4471 40.1498 38.0265 40.0722 37.6201C39.9945 37.2137 39.7889 36.8427 39.4853 36.5616C37.8472 34.9234 36.2236 33.2853 34.5709 31.6598C33.7045 30.8135 32.5086 30.8207 31.7023 31.6125C30.896 32.4043 30.8814 33.6147 31.7241 34.4775C33.3423 36.1302 34.9731 37.7738 36.6386 39.3774C37.0081 39.7305 37.5541 39.8925 37.7871 40.0199V40.0181ZM42.8326 35.3457C43.8556 35.2183 44.6528 34.5739 44.8348 33.6456C45.0168 32.7174 44.7565 32.2569 43.8883 31.8528C41.1326 30.5696 39.0849 28.5856 37.9145 25.7388C37.7831 25.4684 37.5542 25.2577 37.2738 25.1491C36.862 25.0113 36.416 25.0155 36.0068 25.161C35.5977 25.3065 35.2492 25.5849 35.0168 25.9518C34.7627 26.334 34.6493 26.7926 34.6961 27.2492C34.7429 27.7058 34.947 28.1319 35.2735 28.4545C37.3266 30.535 39.3907 32.6063 41.4893 34.6431C41.8352 34.978 42.3758 35.1163 42.8326 35.3457ZM33.2495 44.9343C34.1832 44.7523 34.8112 44.3628 35.137 43.5765C35.3068 43.212 35.3569 42.8032 35.28 42.4085C35.2032 42.0139 35.0034 41.6537 34.7092 41.3795C33.4836 40.1333 32.2478 38.8974 31.0015 37.6719C30.1133 36.8018 28.8847 36.7982 28.0893 37.6209C27.2939 38.4436 27.3084 39.6231 28.153 40.4931C29.3543 41.7308 30.5647 42.9613 31.8243 44.1335C32.2047 44.4975 32.7671 44.6795 33.2495 44.9343ZM30.5192 47.4334C30.481 47.3005 30.4864 46.9183 30.2971 46.7053C29.5691 45.9099 28.8537 45.0799 28.0001 44.4392C27.2939 43.9078 26.2746 44.1917 25.6575 44.8506C25.0878 45.4585 24.884 46.5069 25.4045 47.1695C26.027 47.9594 26.7314 48.7439 27.556 49.3027C28.7937 50.1564 30.4901 49.1244 30.5119 47.4334H30.5192ZM44.4926 29.1389C45.6958 27.9321 46.8388 26.7854 48.0237 25.5932C45.5319 25.2183 43.0747 24.5011 40.3663 24.33C41.1344 26.6744 42.707 28.0523 44.4853 29.1389H44.4926Z"/>
</mask>
<path d="M36.098 70.7279C37.2247 73.4054 36.9244 74.9052 34.8767 76.9511C34.2505 77.5772 33.6371 78.2161 32.9946 78.824C31.0725 80.6442 28.3514 80.6296 26.4548 78.7749C25.4955 77.8393 24.5527 76.8892 23.6117 75.9336C22.9619 75.2729 22.9236 74.452 23.4897 73.8804C24.0558 73.3089 24.8749 73.3435 25.541 73.9951C26.4511 74.8834 27.3375 75.7953 28.2422 76.6871C29.2578 77.6901 30.2444 77.6846 31.2618 76.678C31.8934 76.0592 32.5159 75.4294 33.1402 74.8015C34.296 73.6438 34.2979 72.8448 33.1657 71.6962C31.1126 69.6122 29.0722 67.5099 27.0081 65.4385C24.529 62.9425 22.0415 60.4549 19.5454 57.9758C19.1923 57.6245 18.8173 57.2933 18.4351 56.9766C18.1285 56.7551 17.756 56.6436 17.3782 56.6601C17.0003 56.6766 16.639 56.8202 16.3528 57.0676C15.4191 57.9303 14.5108 58.824 13.6535 59.7596C12.9782 60.4968 13.0693 61.4924 13.821 62.2714C14.7438 63.2452 15.7322 64.1553 16.635 65.1345C16.9116 65.4385 17.1592 65.95 17.1064 66.3231C17.0536 66.6963 16.7005 67.1768 16.3474 67.4152C15.8923 67.7246 15.3153 67.6245 14.904 67.2205C13.7373 66.0774 12.5268 64.9671 11.462 63.733C10.0205 62.0585 10.1333 59.5084 11.6441 57.8684C12.5177 56.9165 13.4315 55.9937 14.3889 55.1273C15.6848 53.9533 17.2192 53.6311 18.8847 54.168C19.3252 54.31 19.5745 54.2354 19.884 53.9169C21.2127 52.5517 22.5705 51.2121 23.9666 49.8142C22.7434 48.5583 22.1246 47.0839 22.4704 45.3166C22.8162 43.5492 23.8774 42.4134 25.5556 41.7108C24.7201 40.2947 24.4981 38.8113 25.0969 37.2842C25.6958 35.757 26.877 34.8069 28.4733 34.361C27.9983 31.3413 29.1887 29.3318 32.0918 28.3308C31.7751 26.7436 31.9717 25.251 33.0656 23.9933C34.3397 22.5372 35.9524 22.0421 37.8563 22.4152C38.1453 22.4576 38.4398 22.3928 38.6845 22.2332C39.8803 21.4032 41.189 21.527 42.4941 21.7636C45.4391 22.2951 48.3732 22.883 51.3183 23.4218C51.8643 23.5237 52.4522 23.4618 53.0074 23.5565C55.7376 24.017 57.4013 26.3595 56.9699 29.1007C56.948 29.2336 56.9408 29.3701 56.9226 29.5594C58.1967 29.9234 59.2596 30.6151 59.9622 31.7782C60.6648 32.9412 60.7722 34.2044 60.4974 35.5059C63.3059 36.436 64.6146 38.5437 64.1377 41.5124C67.8872 42.6045 69.0922 46.911 66.2618 49.8397C67.7034 51.2758 69.1395 52.7174 70.5975 54.1389C70.678 54.1844 70.7676 54.2114 70.8598 54.218C70.9521 54.2246 71.0446 54.2107 71.1308 54.1771C73.1821 53.4054 74.9531 53.8131 76.4802 55.3784C77.1792 56.092 77.9036 56.78 78.5971 57.4989C80.4682 59.4338 80.4755 62.1713 78.5716 64.0825C73.7178 68.9569 68.8513 73.818 63.9721 78.6657C62.0918 80.5313 59.327 80.5113 57.4377 78.6657C56.6404 77.8885 55.8432 77.1112 55.0714 76.2995C53.6863 74.8433 53.3332 73.156 54.074 71.2812C54.2196 70.9172 54.1504 70.7206 53.892 70.4658C52.2429 68.8404 50.6157 67.1895 48.963 65.5714C48.7963 65.3997 48.5761 65.2899 48.3386 65.2601C46.8661 65.1983 45.3918 65.1728 43.9193 65.1418C43.4424 65.1418 42.9437 65.0581 42.4959 65.1728C41.9498 65.3129 41.3419 65.5059 40.9506 65.8754C39.2888 67.468 37.6998 69.1171 36.098 70.7279ZM64.2178 51.8127C63.8865 52.1276 63.5807 52.4662 63.2258 52.7465C63.0778 52.8716 62.9043 52.9631 62.7174 53.0145C62.5306 53.0659 62.3347 53.076 62.1435 53.0441C61.9524 53.0122 61.7704 52.9392 61.6103 52.8299C61.4502 52.7207 61.3157 52.578 61.2163 52.4116C60.8614 51.8382 60.9524 51.1866 61.5076 50.6205C62.4941 49.6176 63.5097 48.6456 64.4853 47.6264C64.6725 47.4426 64.8214 47.2235 64.9232 46.9818C65.025 46.74 65.0778 46.4805 65.0785 46.2182C65.0792 45.9558 65.0277 45.696 64.9272 45.4538C64.8266 45.2115 64.6789 44.9916 64.4926 44.8069C63.71 44.0242 62.5378 43.9988 61.6695 44.7687C61.2946 45.0981 60.9597 45.4713 60.6011 45.8189C59.8876 46.5106 59.0885 46.5652 58.5006 45.9718C57.9127 45.3784 57.9946 44.5648 58.6827 43.8677C59.3998 43.1396 60.1388 42.4352 60.8432 41.6944C61.6677 40.8262 61.6768 39.6067 60.8996 38.8204C60.0878 37.9995 58.8847 38.0159 57.9782 38.8732C57.5978 39.2372 57.2393 39.6103 56.8661 39.9762C56.1381 40.6879 55.2935 40.7534 54.7129 40.1473C54.1322 39.5412 54.216 38.7567 54.9167 38.0468C55.683 37.2714 56.4711 36.5179 57.2247 35.7316C58.0911 34.8215 58.1075 33.6256 57.2957 32.8102C56.4839 31.9948 55.2735 32.0348 54.3725 32.9012C54.0085 33.247 53.6681 33.6074 53.3113 33.9569C52.5705 34.685 51.7496 34.7705 51.1563 34.1862C50.5629 33.602 50.6266 32.7647 51.351 32.0348C52.1173 31.2612 52.8927 30.4949 53.6626 29.7232C53.8982 29.5072 54.0774 29.2369 54.1846 28.9359C54.2919 28.6348 54.3239 28.3121 54.2778 27.9958C54.2305 27.6233 54.0793 27.2716 53.8415 26.9809C53.6037 26.6902 53.289 26.4723 52.9333 26.3519C52.5776 26.2316 52.1952 26.2137 51.8298 26.3003C51.4644 26.387 51.1307 26.5746 50.8669 26.8419C49.6965 27.9813 48.5607 29.1571 47.3849 30.3002C47.0645 30.6114 46.999 30.8317 47.2029 31.274C47.482 31.878 47.6301 32.5343 47.6376 33.1997C47.645 33.8651 47.5115 34.5246 47.2459 35.1347C46.9803 35.7448 46.5885 36.2918 46.0964 36.7398C45.6044 37.1877 45.023 37.5265 44.3907 37.7337C43.9023 37.8651 43.4071 37.9696 42.9073 38.0468C42.8818 38.1578 42.8436 38.2871 42.8235 38.4108C42.4486 40.9427 41.0416 42.3624 38.4897 42.7246C38.0802 42.7829 38.0474 42.9886 38.011 43.3089C37.9085 44.3802 37.4391 45.3833 36.6822 46.1484C35.9254 46.9135 34.9275 47.3938 33.8574 47.508C33.6626 47.5335 33.4715 47.5808 33.2931 47.6136C33.042 51.618 29.0958 53.3053 26.3146 51.8309C26.1726 51.7563 25.8414 51.8528 25.7067 51.9802C24.8348 52.8102 23.9975 53.6748 23.1384 54.5175C22.6124 55.0363 22.07 55.5386 21.6659 55.9245L34.3106 68.6365C35.8869 67.0548 37.5123 65.4385 39.1177 63.804C39.4986 63.3961 39.9566 63.0678 40.4652 62.8382C40.9739 62.6086 41.523 62.4821 42.0809 62.4662C43.3728 62.4115 44.6668 62.4334 45.956 62.5317C48.173 62.7283 50.1424 62.448 51.6222 60.5295C51.7357 60.3703 51.8833 60.2384 52.0542 60.1435C52.2252 60.0486 52.4151 59.993 52.6103 59.9808C52.8054 59.9686 53.0008 60 53.1822 60.0729C53.3637 60.1458 53.5265 60.2583 53.659 60.4021C54.2378 60.9864 54.1777 61.7472 53.548 62.4589C52.96 63.1214 52.414 63.8204 51.9098 64.4247L56.0853 68.6347L68.5279 56.1429L64.2178 51.8127ZM72.9637 56.3996C72.465 56.6799 71.9444 56.8419 71.6004 57.1841C66.7345 62.0075 61.8849 66.8455 57.0518 71.6981C56.2236 72.5299 56.2363 73.571 57.0518 74.4192C57.7908 75.1873 58.5455 75.9403 59.3161 76.678C60.197 77.5262 61.2163 77.5444 62.0864 76.678C66.9401 71.8461 71.7866 67.0051 76.6259 62.1549C77.4631 61.3158 77.4486 60.2874 76.6259 59.4356C75.8723 58.6511 75.1151 57.8648 74.3033 57.1404C73.9575 56.8291 73.4697 56.6708 72.9637 56.3996ZM37.7871 40.0181C38.9393 39.978 39.5836 39.6103 39.9167 38.8204C40.0953 38.4471 40.1498 38.0265 40.0722 37.6201C39.9945 37.2137 39.7889 36.8427 39.4853 36.5616C37.8472 34.9234 36.2236 33.2853 34.5709 31.6598C33.7045 30.8135 32.5086 30.8207 31.7023 31.6125C30.896 32.4043 30.8814 33.6147 31.7241 34.4775C33.3423 36.1302 34.9731 37.7738 36.6386 39.3774C37.0081 39.7305 37.5541 39.8925 37.7871 40.0199V40.0181ZM42.8326 35.3457C43.8556 35.2183 44.6528 34.5739 44.8348 33.6456C45.0168 32.7174 44.7565 32.2569 43.8883 31.8528C41.1326 30.5696 39.0849 28.5856 37.9145 25.7388C37.7831 25.4684 37.5542 25.2577 37.2738 25.1491C36.862 25.0113 36.416 25.0155 36.0068 25.161C35.5977 25.3065 35.2492 25.5849 35.0168 25.9518C34.7627 26.334 34.6493 26.7926 34.6961 27.2492C34.7429 27.7058 34.947 28.1319 35.2735 28.4545C37.3266 30.535 39.3907 32.6063 41.4893 34.6431C41.8352 34.978 42.3758 35.1163 42.8326 35.3457ZM33.2495 44.9343C34.1832 44.7523 34.8112 44.3628 35.137 43.5765C35.3068 43.212 35.3569 42.8032 35.28 42.4085C35.2032 42.0139 35.0034 41.6537 34.7092 41.3795C33.4836 40.1333 32.2478 38.8974 31.0015 37.6719C30.1133 36.8018 28.8847 36.7982 28.0893 37.6209C27.2939 38.4436 27.3084 39.6231 28.153 40.4931C29.3543 41.7308 30.5647 42.9613 31.8243 44.1335C32.2047 44.4975 32.7671 44.6795 33.2495 44.9343ZM30.5192 47.4334C30.481 47.3005 30.4864 46.9183 30.2971 46.7053C29.5691 45.9099 28.8537 45.0799 28.0001 44.4392C27.2939 43.9078 26.2746 44.1917 25.6575 44.8506C25.0878 45.4585 24.884 46.5069 25.4045 47.1695C26.027 47.9594 26.7314 48.7439 27.556 49.3027C28.7937 50.1564 30.4901 49.1244 30.5119 47.4334H30.5192ZM44.4926 29.1389C45.6958 27.9321 46.8388 26.7854 48.0237 25.5932C45.5319 25.2183 43.0747 24.5011 40.3663 24.33C41.1344 26.6744 42.707 28.0523 44.4853 29.1389H44.4926Z" stroke="#024D81" stroke-width="4" mask="url(#path-2-inside-1_224_197)"/>
<path d="M22.8142 11.7948L22.8142 11.7949L22.8199 11.791C22.8438 11.7746 22.8573 11.771 22.8609 11.7702C22.8648 11.7692 22.8709 11.7683 22.8826 11.7699C22.9077 11.7735 22.9801 11.7939 23.0779 11.884L23.0778 11.884L23.0828 11.8885C23.505 12.2723 23.9022 12.6736 24.3199 13.0955C24.4742 13.2513 24.6312 13.4098 24.7932 13.5714L24.7934 13.5715C25.0555 13.8327 25.3173 14.0932 25.5788 14.3533C26.361 15.1314 27.1399 15.9062 27.9136 16.6882L27.9136 16.6882L27.9173 16.6919C28.16 16.9346 28.2078 17.1128 28.2132 17.1864C28.2168 17.2359 28.2106 17.3067 28.1011 17.4113C27.9842 17.523 27.9169 17.5216 27.8773 17.5175C27.8081 17.5104 27.6368 17.4598 27.3958 17.2207L27.3956 17.2205C27.2923 17.1181 27.1891 17.0156 27.0858 16.9132C25.6281 15.4676 24.1754 14.0271 22.7486 12.5681L22.7486 12.5681L22.7475 12.567C22.7048 12.5234 22.6485 12.4467 22.5477 12.2647C22.5318 12.236 22.5134 12.2018 22.4928 12.1635C22.5207 12.1252 22.5449 12.0923 22.5641 12.0671C22.6959 11.8936 22.7679 11.8261 22.8142 11.7948Z" stroke="#024D81" stroke-width="2"/>
<path d="M67.0378 11.9595L67.0389 11.9585C67.1745 11.8253 67.2911 11.7963 67.3603 11.7945C67.4286 11.7928 67.5116 11.8152 67.5989 11.899C67.6733 11.9704 67.7066 12.0568 67.7066 12.1445C67.7065 12.2295 67.6742 12.3502 67.5491 12.4769L67.5474 12.4786C66.355 13.6912 65.1539 14.8864 63.9481 16.0864C63.5294 16.5031 63.1102 16.9202 62.6906 17.3389L62.6898 17.3397C62.564 17.4655 62.4742 17.4994 62.4283 17.5091C62.3891 17.5175 62.3171 17.5229 62.1882 17.4648L62.1883 17.4648L62.1828 17.4623C62.0918 17.4219 62.0761 17.3932 62.0669 17.3762L62.0664 17.3754C62.0509 17.347 62.0174 17.2674 62.0054 17.0947C62.0534 16.9981 62.1107 16.9061 62.1763 16.8202C63.7789 15.1833 65.3994 13.5631 67.0378 11.9595Z" stroke="#024D81" stroke-width="2"/>
<path d="M57.0275 57.3908L57.0184 57.3908L57.0094 57.391C56.9651 57.3919 56.9211 57.384 56.8799 57.3679C56.8387 57.3517 56.801 57.3276 56.7692 57.2968L56.1072 57.9826L56.7692 57.2968C56.7373 57.2661 56.7118 57.2293 56.6942 57.1887C56.6766 57.148 56.6672 57.1043 56.6665 57.06L56.6664 57.0521L56.6662 57.0442C56.6647 56.9949 56.673 56.9459 56.6907 56.8999C56.7083 56.8539 56.735 56.8119 56.7691 56.7764C56.8032 56.7408 56.844 56.7124 56.8892 56.6928C56.9298 56.6752 56.9731 56.6651 57.0172 56.6628C57.1143 56.6684 57.2064 56.7086 57.2766 56.7765C57.3462 56.8438 57.3894 56.9335 57.3988 57.0295C57.3975 57.0729 57.3886 57.1158 57.3725 57.1562L58.3015 57.5263L57.3725 57.1562C57.3542 57.2021 57.327 57.2438 57.2924 57.2791C57.2579 57.3144 57.2166 57.3424 57.1712 57.3616L57.5596 58.283L57.1712 57.3616C57.1257 57.3807 57.0768 57.3907 57.0275 57.3908Z" stroke="#024D81" stroke-width="2"/>
</svg>
