<svg width="90" height="90" viewBox="0 0 90 90" fill="none" xmlns="http://www.w3.org/2000/svg">
<path d="M31.4048 55.048C31.4321 55.0826 31.4593 55.1177 31.4861 55.1532L30.6883 55.7561M31.4048 55.048L34.4523 58.9777C34.5256 59.0485 34.601 59.114 34.6781 59.1741C34.4746 59.0592 34.3219 58.942 34.2031 58.8201C33.8814 58.4895 33.6775 57.9819 33.6218 56.8157L33.595 56.2544L33.1016 55.9854C32.852 55.8493 32.5223 55.7054 32.2656 55.5934C32.1501 55.5429 32.0493 55.4989 31.9773 55.465C31.6528 55.3122 31.5315 55.2128 31.4841 55.1505L30.6883 55.7561M31.4048 55.048C31.6753 55.2747 31.9904 55.4454 32.332 55.5478C32.8394 55.6999 33.3809 55.6941 33.8846 55.5313C33.9933 55.4991 34.1004 55.4625 34.2058 55.4214C34.2449 55.4064 34.2741 55.3985 34.2944 55.3943C34.2954 55.3957 34.2964 55.397 34.2972 55.3982C34.2903 55.4196 34.2749 55.4573 34.2415 55.5132C33.9064 56.0718 33.6909 56.6795 33.706 57.3024C33.7218 57.9535 33.9886 58.5302 34.4523 58.9777L31.4048 55.048ZM30.6883 55.7561C29.9959 54.8399 29.0755 54.2789 28.157 53.7191C27.7996 53.5012 27.4424 53.2835 27.0991 53.0451L31.9452 56.5454C31.4488 56.33 30.9656 56.1205 30.6883 55.7561ZM35.8409 46.9492C35.8208 46.9768 35.7891 47.0136 35.74 47.0587L35.7396 47.0591C35.0155 47.7229 34.3116 48.3581 33.6048 48.996C32.9684 49.5704 32.3295 50.147 31.6712 50.7486C31.3675 51.0096 31.1 51.3099 30.876 51.6418L30.8681 51.6535L30.8605 51.6654C30.5698 52.1233 30.4311 52.6612 30.4642 53.2026C30.4922 53.6613 30.6424 54.1026 30.8972 54.4816C30.4634 54.0519 29.997 53.7076 29.5439 53.4081C29.2532 53.216 28.9558 53.0348 28.6767 52.8647C28.6384 52.8413 28.6003 52.8181 28.5627 52.7952C28.2449 52.6011 27.9502 52.4185 27.6706 52.2245C26.2198 51.2101 24.9148 50.0015 23.7922 48.6326L23.7922 48.6326L23.7867 48.626C23.4312 48.2001 22.9933 47.8505 22.4994 47.5981L22.4994 47.598L22.49 47.5933C19.7849 46.2469 17.0724 44.9236 14.3634 43.602C13.4105 43.1371 12.458 42.6724 11.5063 42.207C11.4349 42.1718 11.3847 42.1481 11.3452 42.1295C11.2854 42.1013 11.25 42.0846 11.2026 42.0572L11.1894 42.0495L11.1759 42.0423C11.1041 42.0036 11.0589 41.9691 11.0312 41.9435C11.0609 41.95 11.1029 41.9632 11.1583 41.9897C12.5667 42.6676 13.969 43.3536 15.3757 44.0417C15.4744 44.09 15.5732 44.1384 15.672 44.1867C16.2661 44.4777 16.8594 44.7668 17.4515 45.0554C19.1987 45.9069 20.9367 46.754 22.6603 47.6326C23.0767 47.8483 23.4465 48.1438 23.7487 48.5023C25.2123 50.3168 26.9998 51.844 29.0206 53.0064L30.1505 53.6564L30.4856 52.3966C30.6513 51.7734 31.0075 51.2916 31.5182 50.8015C31.7744 50.5557 32.0526 50.323 32.3629 50.0637L32.3802 50.0492C32.6876 49.7923 33.0268 49.5081 33.3457 49.1963L33.3461 49.1959C34.0321 48.5243 34.7558 47.8853 35.5 47.2281C35.5737 47.163 35.6476 47.0978 35.7217 47.0323L35.7218 47.0322C35.7732 46.9867 35.8134 46.9623 35.8409 46.9492ZM36.7526 59.8816C36.5074 59.8233 36.2839 59.7657 36.08 59.7084C36.765 59.7509 37.4732 59.5232 38.0906 59.0834L38.0906 59.0834L38.0951 59.0802C38.1571 59.0354 38.2062 59.0063 38.2428 58.9878C38.2426 58.9886 38.2423 58.9894 38.242 58.9902C38.2281 59.0293 38.2008 59.0876 38.1507 59.164C37.4259 60.2671 37.4192 61.6706 38.4243 62.609C39.3861 63.5072 40.8748 63.5183 41.9389 62.7618C42.0331 62.6952 42.137 62.6077 42.186 62.5664C42.194 62.5596 42.2006 62.5541 42.2054 62.5501C42.2252 62.5343 42.2422 62.5222 42.2564 62.513C42.2565 62.5132 42.2567 62.5133 42.2568 62.5135C42.2618 62.518 42.2662 62.5222 42.2702 62.5261C42.261 62.5485 42.2464 62.579 42.2235 62.6179L42.2229 62.6188C41.8559 63.2435 41.6325 63.9278 41.697 64.6139C41.7141 64.7962 41.7509 64.9707 41.8058 65.1363C41.7575 65.0395 41.7045 64.9308 41.648 64.815C41.5085 64.5288 41.3481 64.1997 41.1857 63.9033L40.9093 63.3986L40.334 63.384C39.4729 63.3621 38.8533 63.1207 38.4232 62.7335C37.9932 62.3465 37.6464 61.7183 37.5123 60.7212L37.4208 60.0405L36.7526 59.8816ZM57.1717 51.082C57.253 50.3801 57.5829 49.7305 58.1016 49.2508C58.7079 48.7047 59.4144 48.4573 60.1008 48.5034L59.9826 48.5169C59.447 48.5784 58.9404 48.7158 58.4986 48.9874C58.0481 49.2643 57.7219 49.6459 57.4985 50.103C57.27 50.5414 57.1792 51.0387 57.2382 51.5299C57.2972 52.0216 57.5036 52.4838 57.83 52.8559C58.4217 53.5673 59.0319 54.2889 59.6762 54.9798C60.1572 55.4958 60.7882 55.7986 61.4716 55.8164C62.1495 55.834 62.7917 55.5695 63.309 55.1134C63.5693 54.8839 63.7863 54.6171 63.9457 54.3215C63.7543 54.7186 63.5295 55.0053 63.2768 55.2167C62.8528 55.5716 62.2317 55.8138 61.2444 55.8763L60.4652 55.9257L60.3241 56.6936C60.1514 57.6329 59.7936 58.2559 59.3265 58.6621C58.857 59.0705 58.1806 59.3437 57.2197 59.4037L56.45 59.4517L56.3009 60.2083C56.1231 61.1101 55.7543 61.7472 55.2748 62.1665C54.7978 62.5836 54.1351 62.8521 53.2457 62.8843L52.4396 62.9135L52.2975 63.7075C51.9501 65.6488 50.4278 66.5752 48.965 66.3174L49.2357 66.3126C49.8198 66.3023 50.3547 66.1861 50.821 65.9177C51.2889 65.6484 51.6124 65.2694 51.8438 64.8558C52.1069 64.4074 52.2192 63.8863 52.1641 63.3691C52.1095 62.857 51.8935 62.3756 51.5477 61.9945C50.9596 61.2875 50.3519 60.5651 49.7066 59.8751L48.9762 60.5581L49.7066 59.8751C49.2231 59.358 48.5901 59.0577 47.9062 59.0431C47.2288 59.0286 46.5886 59.2956 46.0738 59.7507C45.5616 60.2035 45.2158 60.8014 45.1525 61.4813C45.0889 62.1647 45.321 62.8207 45.7618 63.3632L45.763 63.3647C46.0434 63.7085 46.3321 64.0585 46.6323 64.4058L46.5228 64.2981C45.3567 63.151 44.8168 62.1802 45.2444 60.9477L45.2446 60.9472C45.4872 60.2469 45.8557 59.7883 46.3 59.489C46.7536 59.1835 47.3551 58.9982 48.1261 58.9681L48.9116 58.9375L49.0673 58.167C49.274 57.1443 49.7063 56.4998 50.2077 56.1028C50.7162 55.7001 51.3756 55.4892 52.1344 55.4796L52.9457 55.4694L53.1029 54.6734C53.288 53.736 53.6401 53.1093 54.1036 52.7014C54.5652 52.2952 55.2375 52.0177 56.2308 51.9655L57.0744 51.9211L57.1717 51.082ZM60.5942 48.643L60.4287 48.5481C60.9493 48.6557 61.4467 48.9363 61.8661 49.3875C62.3573 49.9162 62.8197 50.455 63.3161 51.0335C63.5538 51.3105 63.7993 51.5966 64.0594 51.895L64.6106 52.5271L65.3291 52.0944C65.8016 51.8098 66.2545 51.4938 66.6847 51.1484L66.7086 51.1293L66.7312 51.1087C66.8208 51.0272 66.9195 50.9404 67.0241 50.8484C67.5431 50.3918 68.2089 49.8059 68.6487 49.102L68.6491 49.1013C69.2628 48.1171 70.1374 47.5236 71.3196 46.981L71.3205 46.9806C72.9269 46.2414 74.5206 45.4516 76.0986 44.6696C76.7966 44.3237 77.4916 43.9794 78.1832 43.6415C78.2155 43.6258 78.2459 43.6112 78.2746 43.5978C78.2305 43.6333 78.1999 43.6523 78.1781 43.6628L78.1715 43.666L78.1649 43.6693C76.7385 44.3855 75.3273 45.0743 73.9101 45.7659C72.7412 46.3363 71.5683 46.9088 70.3794 47.5002C69.9142 47.7224 69.5094 48.0536 69.1995 48.4658L69.1848 48.4853L69.1711 48.5056C68.1332 50.0363 66.7583 51.3089 65.1521 52.2257L65.1427 52.231L65.1335 52.2365C64.737 52.4743 64.4418 52.8495 64.3041 53.2908L64.296 53.3165L64.2894 53.3425C64.2492 53.5007 64.2061 53.6484 64.1602 53.7862C64.1959 53.655 64.2208 53.5199 64.234 53.3815C64.2991 52.7013 64.0723 52.0454 63.6334 51.5033C63.0532 50.7701 62.4363 50.0668 61.7852 49.3958L61.7852 49.3958L61.779 49.3895C61.5222 49.1296 61.2292 48.9605 61.0191 48.8518C60.9239 48.8026 60.8307 48.7583 60.7601 48.7248L60.7352 48.713C60.6509 48.6729 60.614 48.6544 60.5942 48.643ZM48.7111 66.1748L48.9483 66.3144C48.5661 66.2447 48.1883 66.094 47.8369 65.8594L47.34 65.5276L46.8123 65.808L45.8151 66.338C46.0858 66.1568 46.3365 65.9337 46.5648 65.68L47.1696 65.0082C47.314 65.1645 47.4612 65.3192 47.6116 65.4714C47.8593 65.7248 48.1427 65.8891 48.34 65.992C48.431 66.0394 48.5192 66.0815 48.5836 66.1121L48.6045 66.1221C48.6399 66.139 48.6652 66.1512 48.6857 66.1616C48.704 66.1708 48.7111 66.1748 48.7111 66.1748ZM44.7527 66.79C44.919 66.7567 45.0806 66.7079 45.237 66.6453L44.8087 66.8729H43.8104C43.7197 66.8268 43.6258 66.7811 43.534 66.7373C43.9236 66.8518 44.3357 66.8734 44.7527 66.79ZM42.3241 65.9984C42.425 66.1053 42.5365 66.2044 42.6578 66.2951C42.5448 66.2231 42.4639 66.1574 42.4045 66.0924C42.3773 66.0624 42.3505 66.0311 42.3241 65.9984ZM35.8748 46.8903C35.8748 46.8903 35.8747 46.8907 35.8745 46.8915L35.8748 46.8903ZM56.6361 52.1627L56.3635 51.9961L56.0448 52.0184C55.4804 52.058 54.9624 52.1897 54.5115 52.4593C54.0572 52.7309 53.7351 53.1041 53.5045 53.5261C53.2533 53.962 53.1447 54.4658 53.1944 54.9668C53.2439 55.4662 53.4481 55.9375 53.7783 56.3151C54.3565 57.0196 54.9535 57.7159 55.5725 58.394L55.5737 58.3954C56.063 58.9293 56.6955 59.282 57.4129 59.317C58.13 59.3521 58.7892 59.0629 59.3183 58.5867C59.8362 58.1214 60.1776 57.5086 60.2194 56.8096C60.2609 56.1139 59.9984 55.4595 59.5488 54.9167C59.5487 54.9165 59.5485 54.9164 59.5484 54.9162L59.4794 54.8324C58.9619 54.2042 58.4054 53.5288 57.7805 52.9094L57.7772 52.9062C57.5299 52.6634 57.2549 52.4958 57.0515 52.3834C56.949 52.3267 56.8486 52.2755 56.7777 52.2389C56.6965 52.197 56.658 52.1761 56.6361 52.1627ZM49.1772 58.4593C49.2237 58.9583 49.4234 59.4307 49.7486 59.8118C50.3305 60.5284 50.9348 61.2249 51.5539 61.903C52.0362 62.4336 52.6651 62.7661 53.3612 62.8058C54.0559 62.8455 54.7134 62.5877 55.2447 62.131C55.7804 61.6705 56.1289 61.0548 56.185 60.359C56.241 59.6652 55.9979 58.9995 55.5517 58.4486L55.5482 58.4443C54.9879 57.7603 54.3916 57.0445 53.7318 56.3828L53.7318 56.3828L53.724 56.3751C53.4771 56.1328 53.1993 55.97 52.998 55.8651C52.8941 55.811 52.7973 55.7656 52.7263 55.7324L52.7097 55.7247C52.6801 55.7109 52.6576 55.7004 52.6369 55.6905L52.6102 55.6775L52.6027 55.6737L52.6007 55.6727L52.6002 55.6724L52.6001 55.6723L52.132 56.5403L52.1273 55.5525H52.1254L52.1179 55.5824L52.1176 55.5525C51.5249 55.5583 50.9803 55.6737 50.5081 55.9461C50.0355 56.2188 49.7108 56.6054 49.4856 57.0301C49.2387 57.4634 49.1309 57.9623 49.1772 58.4593Z" stroke="#024D81" stroke-width="2"/>
<mask id="path-2-inside-1_362_116" fill="white">
<path d="M49.6563 35.0153C51.1291 36.4226 52.6128 37.819 54.0692 39.2445C54.5073 39.6448 54.8384 40.1482 55.0325 40.709C55.2265 41.2697 55.2773 41.8701 55.1802 42.4556C54.7601 45.2466 51.7255 46.6084 49.3763 45.0302C47.7017 43.9065 46.078 42.7065 44.4307 41.5428C44.2307 41.3992 44.0234 41.2646 43.7888 41.1064L40.3015 44.2793C40.1233 44.4536 39.9357 44.6181 39.7396 44.772C39.2487 45.1356 38.7087 45.0847 38.3359 44.6665C38.2485 44.5691 38.1811 44.4555 38.1377 44.332C38.0942 44.2086 38.0755 44.0777 38.0826 43.9471C38.0897 43.8164 38.1224 43.6884 38.179 43.5703C38.2356 43.4523 38.3149 43.3466 38.4123 43.2592C39.2505 42.461 40.116 41.6937 40.9706 40.9155C41.4233 40.5028 41.8706 40.0846 42.3324 39.6827C43.2416 38.8863 44.1107 38.8318 45.1143 39.5336C46.8417 40.7409 48.5381 41.9955 50.2891 43.1701C50.7378 43.4575 51.2618 43.6049 51.7946 43.5938C52.4401 43.572 52.8964 43.1028 53.0983 42.4628C53.2015 42.1593 53.2145 41.8324 53.1358 41.5216C53.057 41.2109 52.8899 40.9296 52.6546 40.7119C51.3709 39.3991 50.0836 38.0863 48.7817 36.7917C47.8344 35.8499 46.929 34.8444 45.8835 34.0225C42.8252 31.617 39.3378 30.9806 35.5522 31.717C33.7521 32.0679 31.9375 32.3497 30.1211 32.6043C29.6567 32.6686 29.1835 32.6058 28.7519 32.4225C22.7772 29.6466 16.8097 26.8538 10.8495 24.044C10.3404 23.8058 9.94037 23.4985 10.0076 22.8712C10.084 22.1148 10.8186 21.7803 11.6204 22.153C13.8187 23.1712 16.0097 24.2076 18.2025 25.2349C21.8717 26.9568 25.5391 28.6896 29.2174 30.386C29.542 30.5253 29.8985 30.573 30.2484 30.5242C32.4903 30.1951 34.7158 29.7478 36.965 29.4933C40.9233 29.0478 44.4452 30.1915 47.5108 32.7207C47.6505 32.861 47.8276 32.9583 48.0209 33.0012C48.2142 33.0441 48.4158 33.0306 48.6017 32.9625C51.7946 32.0334 54.9874 32.1206 58.0657 33.3625C59.5294 33.9553 60.6531 33.7971 62.004 32.977C67.0951 29.886 72.2753 26.9386 77.4228 23.9385C77.614 23.8172 77.8132 23.7091 78.0192 23.6149C78.5264 23.404 78.9719 23.5276 79.2647 23.9785C79.5774 24.464 79.4919 24.9386 79.0501 25.3131C78.8338 25.4773 78.6039 25.6227 78.3628 25.7477C72.8244 28.9787 67.2715 32.197 61.7549 35.4498C60.7749 36.0262 59.8385 36.139 58.7821 35.7353C56.7439 34.9553 54.6692 34.2916 52.4437 34.4116C51.5728 34.4589 50.7036 34.5935 49.8345 34.6789L49.6563 35.0153Z"/>
</mask>
<path d="M49.6563 35.0153L47.889 34.0791L47.1808 35.416L48.2746 36.4613L49.6563 35.0153ZM54.0692 39.2445L52.6702 40.6738L52.6949 40.6979L52.7203 40.7211L54.0692 39.2445ZM55.1802 42.4556L53.2071 42.1283L53.2047 42.1431L53.2024 42.1579L55.1802 42.4556ZM49.3763 45.0302L50.4916 43.3701L50.4907 43.3694L49.3763 45.0302ZM44.4307 41.5428L43.264 43.1673L43.2704 43.1718L43.2768 43.1763L44.4307 41.5428ZM43.7888 41.1064L44.9071 39.4483L43.6048 38.57L42.4429 39.6271L43.7888 41.1064ZM40.3015 44.2793L38.9555 42.7999L38.9287 42.8244L38.9027 42.8498L40.3015 44.2793ZM39.7396 44.772L40.9301 46.3791L40.9525 46.3625L40.9744 46.3453L39.7396 44.772ZM38.3359 44.6665L39.829 43.3358L39.8244 43.3307L38.3359 44.6665ZM38.4123 43.2592L39.7475 44.7482L39.7698 44.7282L39.7915 44.7076L38.4123 43.2592ZM40.9706 40.9155L42.3172 42.3942L42.318 42.3935L40.9706 40.9155ZM42.3324 39.6827L43.6452 41.1916L43.6503 41.1871L42.3324 39.6827ZM45.1143 39.5336L43.9682 41.1727L43.9686 41.1729L45.1143 39.5336ZM50.2891 43.1701L49.1749 44.831L49.1926 44.8429L49.2105 44.8544L50.2891 43.1701ZM51.7946 43.5938L51.8365 45.5933L51.8493 45.5931L51.8622 45.5926L51.7946 43.5938ZM53.0983 42.4628L51.2048 41.8189L51.1976 41.84L51.1909 41.8613L53.0983 42.4628ZM52.6546 40.7119L51.2247 42.1101L51.2596 42.1458L51.2962 42.1797L52.6546 40.7119ZM48.7817 36.7917L50.192 35.3735L50.1919 35.3734L48.7817 36.7917ZM45.8835 34.0225L44.647 35.5945L44.6475 35.5949L45.8835 34.0225ZM35.5522 31.717L35.1703 29.7538L35.1695 29.7539L35.5522 31.717ZM30.1211 32.6043L30.3954 34.5854L30.3987 34.5849L30.1211 32.6043ZM28.7519 32.4225L27.9093 34.2363L27.9395 34.2503L27.9701 34.2633L28.7519 32.4225ZM10.8495 24.044L11.7023 22.2349L11.697 22.2325L10.8495 24.044ZM10.0076 22.8712L11.9963 23.0845L11.9975 23.0721L10.0076 22.8712ZM11.6204 22.153L10.7774 23.9666L10.7798 23.9678L11.6204 22.153ZM18.2025 25.2349L19.0521 23.4244L19.051 23.4238L18.2025 25.2349ZM29.2174 30.386L28.3798 32.2022L28.4043 32.2135L28.4291 32.2241L29.2174 30.386ZM30.2484 30.5242L30.5248 32.505L30.5318 32.504L30.5388 32.503L30.2484 30.5242ZM36.965 29.4933L36.7413 27.5058L36.7401 27.506L36.965 29.4933ZM47.5108 32.7207L48.928 31.3094L48.859 31.2402L48.7836 31.1779L47.5108 32.7207ZM48.6017 32.9625L48.0429 31.0421L47.9776 31.0612L47.9137 31.0846L48.6017 32.9625ZM58.0657 33.3625L58.8164 31.5087L58.814 31.5077L58.0657 33.3625ZM62.004 32.977L63.0418 34.6867L63.042 34.6866L62.004 32.977ZM77.4228 23.9385L78.4299 25.6665L78.4625 25.6474L78.4945 25.6272L77.4228 23.9385ZM78.0192 23.6149L77.2513 21.7681L77.2191 21.7815L77.1874 21.796L78.0192 23.6149ZM79.2647 23.9785L80.946 22.8954L80.9422 22.8895L79.2647 23.9785ZM79.0501 25.3131L80.2591 26.9063L80.3022 26.8737L80.3434 26.8387L79.0501 25.3131ZM78.3628 25.7477L77.4419 23.9723L77.3979 23.9952L77.355 24.0202L78.3628 25.7477ZM61.7549 35.4498L62.7688 37.1738L62.7708 37.1727L61.7549 35.4498ZM58.7821 35.7353L58.0673 37.6032L58.0682 37.6036L58.7821 35.7353ZM52.4437 34.4116L52.336 32.4145L52.3353 32.4146L52.4437 34.4116ZM49.8345 34.6789L49.6388 32.6885L48.5699 32.7936L48.0672 33.7427L49.8345 34.6789ZM48.2746 36.4613C49.7621 37.8826 51.2252 39.2594 52.6702 40.6738L55.4682 37.8152C54.0004 36.3786 52.4961 34.9626 51.038 33.5693L48.2746 36.4613ZM52.7203 40.7211C52.9123 40.8965 53.0574 41.1171 53.1424 41.3629L56.9225 40.055C56.6195 39.1792 56.1024 38.393 55.4181 37.7679L52.7203 40.7211ZM53.1424 41.3629C53.2274 41.6086 53.2497 41.8717 53.2071 42.1283L57.1532 42.7828C57.3049 41.8685 57.2256 40.9309 56.9225 40.055L53.1424 41.3629ZM53.2024 42.1579C52.9979 43.5173 51.6054 44.1183 50.4916 43.3701L48.261 46.6903C51.8456 49.0986 56.5224 46.9758 57.1579 42.7532L53.2024 42.1579ZM50.4907 43.3694C48.8406 42.2622 47.2808 41.1074 45.5846 39.9093L43.2768 43.1763C44.8752 44.3055 46.5628 45.5508 48.2619 46.691L50.4907 43.3694ZM45.5974 39.9183C45.3656 39.7519 45.1027 39.5802 44.9071 39.4483L42.6706 42.7646C42.9441 42.949 43.0958 43.0464 43.264 43.1673L45.5974 39.9183ZM42.4429 39.6271L38.9555 42.7999L41.6474 45.7586L45.1348 42.5858L42.4429 39.6271ZM38.9027 42.8498C38.7765 42.9732 38.6437 43.0897 38.5049 43.1987L40.9744 46.3453C41.2277 46.1465 41.47 45.934 41.7002 45.7087L38.9027 42.8498ZM38.5492 43.1649C38.6242 43.1093 38.8362 42.9933 39.1538 43.0189C39.4805 43.0452 39.7127 43.2054 39.829 43.3358L36.8429 45.9973C37.3319 46.5459 38.0205 46.9406 38.8331 47.006C39.6366 47.0707 40.3641 46.7983 40.9301 46.3791L38.5492 43.1649ZM39.8244 43.3307C39.9125 43.4288 39.9803 43.5433 40.0241 43.6677L36.2512 44.9963C36.382 45.3676 36.5846 45.7094 36.8474 46.0023L39.8244 43.3307ZM40.0241 43.6677C40.0679 43.792 40.0868 43.9238 40.0796 44.0554L36.0855 43.8387C36.0642 44.2317 36.1205 44.6251 36.2512 44.9963L40.0241 43.6677ZM40.0796 44.0554C40.0725 44.187 40.0395 44.316 39.9825 44.4349L36.3755 42.7058C36.2054 43.0607 36.1068 43.4457 36.0855 43.8387L40.0796 44.0554ZM39.9825 44.4349C39.9255 44.5538 39.8457 44.6602 39.7475 44.7482L37.0771 41.7702C36.784 42.033 36.5457 42.3509 36.3755 42.7058L39.9825 44.4349ZM39.7915 44.7076C40.6083 43.9298 41.4362 43.1965 42.3172 42.3942L39.624 39.4368C38.7958 40.191 37.8927 40.9923 37.0331 41.8109L39.7915 44.7076ZM42.318 42.3935C42.7955 41.9581 43.2067 41.5731 43.6452 41.1916L41.0196 38.1739C40.5345 38.596 40.0511 39.0474 39.6232 39.4375L42.318 42.3935ZM43.6503 41.1871C43.77 41.0823 43.8409 41.0439 43.8628 41.0336C43.8781 41.0264 43.8527 41.0403 43.7993 41.0432C43.7459 41.0462 43.7192 41.0352 43.7359 41.0409C43.7593 41.0489 43.8355 41.0798 43.9682 41.1727L46.2605 37.8946C45.5228 37.3788 44.6177 36.9914 43.5766 37.0494C42.5361 37.1075 41.6835 37.5924 41.0146 38.1783L43.6503 41.1871ZM43.9686 41.1729C45.6289 42.3334 47.4113 43.648 49.1749 44.831L51.4033 41.5092C49.6649 40.3431 48.0544 39.1485 46.2601 37.8944L43.9686 41.1729ZM49.2105 44.8544C49.9932 45.3556 50.9073 45.6128 51.8365 45.5933L51.7527 41.5942C51.6164 41.5971 51.4824 41.5593 51.3676 41.4859L49.2105 44.8544ZM51.8622 45.5926C53.6249 45.533 54.6408 44.2213 55.0057 43.0643L51.1909 41.8613C51.1744 41.9135 51.1766 41.8628 51.2675 41.7802C51.3155 41.7366 51.3838 41.6889 51.472 41.6521C51.5616 41.6147 51.6504 41.5975 51.727 41.5949L51.8622 45.5926ZM54.9918 43.1068C55.2195 42.4372 55.2482 41.716 55.0745 41.0304L51.197 42.0129C51.1808 41.9488 51.1835 41.8814 51.2048 41.8189L54.9918 43.1068ZM55.0745 41.0304C54.9008 40.3449 54.5321 39.7243 54.013 39.244L51.2962 42.1797C51.2477 42.1349 51.2133 42.0769 51.197 42.0129L55.0745 41.0304ZM54.0846 39.3136C52.8006 38.0005 51.5047 36.6789 50.192 35.3735L47.3715 38.2099C48.6625 39.4937 49.9412 40.7976 51.2247 42.1101L54.0846 39.3136ZM50.1919 35.3734C49.3511 34.5375 48.287 33.368 47.1195 32.4502L44.6475 35.5949C45.5709 36.3208 46.3178 37.1623 47.3716 38.21L50.1919 35.3734ZM47.1199 32.4505C43.5434 29.6373 39.4453 28.9222 35.1703 29.7538L35.9341 33.6802C39.2303 33.039 42.107 33.5966 44.647 35.5945L47.1199 32.4505ZM35.1695 29.7539C33.4181 30.0954 31.6421 30.3716 29.8435 30.6236L30.3987 34.5849C32.2329 34.3279 34.0862 34.0404 35.9349 33.68L35.1695 29.7539ZM29.8468 30.6232C29.7406 30.6379 29.6325 30.6235 29.5338 30.5816L27.9701 34.2633C28.7345 34.588 29.5727 34.6993 30.3954 34.5854L29.8468 30.6232ZM29.5946 30.6087C23.6233 27.8344 17.6592 25.0431 11.7023 22.2349L9.99666 25.853C15.9602 28.6644 21.9311 31.4588 27.9093 34.2363L29.5946 30.6087ZM11.697 22.2325C11.6229 22.1978 11.5994 22.1819 11.6039 22.1849C11.6094 22.1886 11.6701 22.2293 11.7445 22.318C11.8252 22.4141 11.9065 22.5485 11.9559 22.7142C12.0046 22.8777 12.0042 23.0107 11.9962 23.0845L8.01905 22.658C7.92924 23.4954 8.16448 24.2743 8.68031 24.8891C9.12201 25.4155 9.67325 25.7017 10.002 25.8555L11.697 22.2325ZM11.9975 23.0721C11.9855 23.1916 11.939 23.3605 11.8187 23.5327C11.6977 23.706 11.5342 23.8356 11.3604 23.9136C11.0133 24.0692 10.7808 23.9682 10.7774 23.9666L12.4635 20.3394C11.6582 19.9651 10.6575 19.845 9.72354 20.2638C8.73507 20.7071 8.12305 21.6275 8.01776 22.6703L11.9975 23.0721ZM10.7798 23.9678C12.9732 24.9837 15.1519 26.0144 17.354 27.046L19.051 23.4238C16.8675 22.4009 14.6642 21.3587 12.461 20.3382L10.7798 23.9678ZM17.3528 27.0455C21.0157 28.7644 24.6935 30.5021 28.3798 32.2022L30.055 28.5699C26.3847 26.8771 22.7277 25.1493 19.0521 23.4244L17.3528 27.0455ZM28.4291 32.2241C29.089 32.5071 29.8137 32.6043 30.5248 32.505L29.9719 28.5434C29.9834 28.5418 29.9951 28.5434 30.0058 28.548L28.4291 32.2241ZM30.5388 32.503C32.9458 32.1497 34.9583 31.7331 37.1899 31.4806L36.7401 27.506C34.4733 27.7625 32.0347 28.2406 29.9579 28.5454L30.5388 32.503ZM37.1886 31.4807C40.5734 31.0998 43.5624 32.0559 46.238 34.2634L48.7836 31.1779C45.3281 28.3271 41.2732 26.9958 36.7413 27.5058L37.1886 31.4807ZM46.0936 34.1319C46.503 34.543 47.0216 34.8282 47.5881 34.9538L48.4537 31.0486C48.6335 31.0884 48.798 31.1789 48.928 31.3094L46.0936 34.1319ZM47.5881 34.9538C48.1545 35.0794 48.7451 35.04 49.2898 34.8404L47.9137 31.0846C48.0866 31.0212 48.274 31.0087 48.4537 31.0486L47.5881 34.9538ZM49.1606 34.8828C51.9548 34.0697 54.6852 34.1553 57.3175 35.2173L58.814 31.5077C55.2897 30.086 51.6344 29.997 48.0429 31.0421L49.1606 34.8828ZM57.315 35.2163C58.2791 35.6067 59.26 35.7988 60.2907 35.6881C61.307 35.579 62.2084 35.1926 63.0418 34.6867L60.9663 31.2673C60.4487 31.5815 60.1128 31.6842 59.8636 31.711C59.6288 31.7362 59.316 31.711 58.8164 31.5087L57.315 35.2163ZM63.042 34.6866C68.1127 31.608 73.2583 28.6806 78.4299 25.6665L76.4157 22.2106C71.2923 25.1967 66.0776 28.1641 60.9661 31.2675L63.042 34.6866ZM78.4945 25.6272C78.6087 25.5546 78.7278 25.49 78.8509 25.4337L77.1874 21.796C76.8986 21.9281 76.6192 22.0797 76.3511 22.2499L78.4945 25.6272ZM78.787 25.4616C78.722 25.4886 78.4878 25.5623 78.1686 25.4703C77.8377 25.375 77.6539 25.1704 77.5872 25.0676L80.9422 22.8895C80.5826 22.3357 80.0298 21.8439 79.2762 21.6267C78.5342 21.4129 77.8236 21.5302 77.2513 21.7681L78.787 25.4616ZM77.5833 25.0616C77.5295 24.9782 77.4073 24.7217 77.4673 24.3602C77.5254 24.0101 77.7106 23.8267 77.7568 23.7875L80.3434 26.8387C80.8315 26.425 81.2803 25.817 81.4134 25.0146C81.5483 24.2009 81.3125 23.4644 80.946 22.8954L77.5833 25.0616ZM77.8411 23.7199C77.7155 23.8152 77.5819 23.8997 77.4419 23.9723L79.2837 27.5231C79.6258 27.3456 79.9521 27.1393 80.2591 26.9063L77.8411 23.7199ZM77.355 24.0202C71.8232 27.2473 66.261 30.4711 60.7391 33.727L62.7708 37.1727C68.282 33.9229 73.8256 30.7101 79.3706 27.4752L77.355 24.0202ZM60.741 33.7259C60.2378 34.0219 59.9352 34.0349 59.496 33.8671L58.0682 37.6036C59.7419 38.2431 61.312 38.0306 62.7688 37.1738L60.741 33.7259ZM59.4969 33.8674C57.425 33.0745 55.0118 32.2702 52.336 32.4145L52.5514 36.4087C54.3267 36.313 56.0627 36.8361 58.0673 37.6032L59.4969 33.8674ZM52.3353 32.4146C51.4236 32.4641 50.3421 32.6194 49.6388 32.6885L50.0302 36.6693C51.0652 36.5675 51.7219 36.4538 52.5521 36.4087L52.3353 32.4146ZM48.0672 33.7427L47.889 34.0791L51.4237 35.9515L51.6019 35.6151L48.0672 33.7427Z" fill="#024D81" mask="url(#path-2-inside-1_362_116)"/>
<mask id="path-4-inside-2_362_116" fill="white">
<path d="M42.4814 62.5726L42.9578 62.5381L42.4814 62.5726Z"/>
</mask>
<path d="M42.3368 60.5779C41.2351 60.6578 40.4068 61.6156 40.4867 62.7173C40.5666 63.819 41.5244 64.6473 42.6261 64.5674L42.3368 60.5779ZM43.1025 64.5328C44.2042 64.453 45.0325 63.4951 44.9526 62.3934C44.8727 61.2917 43.9148 60.4634 42.8132 60.5433L43.1025 64.5328ZM42.6261 64.5674L43.1025 64.5328L42.8132 60.5433L42.3368 60.5779L42.6261 64.5674Z" fill="#024D81" mask="url(#path-4-inside-2_362_116)"/>
</svg>
