<svg width="90" height="90" viewBox="0 0 90 90" fill="none" xmlns="http://www.w3.org/2000/svg">
<path d="M59.3085 26.6743V22.8761C59.3085 22.528 59.0261 22.2431 58.6809 22.2431H28.5532C28.208 22.2431 27.9255 22.528 27.9255 22.8761V26.6743C27.9255 27.0225 28.208 27.3073 28.5532 27.3073H58.6809C59.0261 27.3073 59.3085 27.0225 59.3085 26.6743ZM28.5532 33.6376C28.208 33.6376 27.9255 33.9225 27.9255 34.2706V38.0688C27.9255 38.417 28.208 38.7018 28.5532 38.7018H42.9894C43.3346 38.7018 43.617 38.417 43.617 38.0688V34.2706C43.617 33.9225 43.3346 33.6376 42.9894 33.6376H28.5532ZM39.8511 72.4037H21.6489V16.6972H65.5851V43.9174C65.5851 44.2656 65.8676 44.5505 66.2128 44.5505H70.6064C70.9516 44.5505 71.234 44.2656 71.234 43.9174V13.5321C71.234 12.1315 70.1121 11 68.7234 11H18.5106C17.1219 11 16 12.1315 16 13.5321V75.5688C16 76.9694 17.1219 78.1009 18.5106 78.1009H39.8511C40.1963 78.1009 40.4787 77.8161 40.4787 77.4679V73.0367C40.4787 72.6885 40.1963 72.4037 39.8511 72.4037Z" stroke="#024D81" stroke-width="2"/>
<path d="M28 45.625C28 45.2813 28.342 45 28.76 45H46.24C46.658 45 47 45.2813 47 45.625V49.375C47 49.7187 46.658 50 46.24 50H28.76C28.342 50 28 49.7187 28 49.375V45.625Z" stroke="#024D81" stroke-width="2"/>
<path d="M74 66.5714V62.4286H69.6479C69.3811 61.1318 68.8663 59.8988 68.1316 58.7974L71.2181 55.7109L68.2891 52.7819L65.2026 55.8684C64.1012 55.1337 62.8682 54.6189 61.5714 54.3521V50H57.4286V54.3521C56.1318 54.6189 54.8988 55.1337 53.7974 55.8684L50.7109 52.7819L47.7819 55.7109L50.8684 58.7974C50.1337 59.8988 49.6189 61.1318 49.3521 62.4286H45V66.5714H49.3521C49.6214 67.8909 50.1475 69.1172 50.8684 70.2026L47.7819 73.2891L50.7109 76.2181L53.7974 73.1316C54.8988 73.8663 56.1318 74.3811 57.4286 74.6479V79H61.5714V74.6479C62.8682 74.3811 64.1012 73.8663 65.2026 73.1316L68.2891 76.2181L71.2181 73.2891L68.1316 70.2026C68.8663 69.1012 69.3811 67.8682 69.6479 66.5714H74ZM59.5 70.7143C56.0739 70.7143 53.2857 67.9261 53.2857 64.5C53.2857 61.0739 56.0739 58.2857 59.5 58.2857C62.9261 58.2857 65.7143 61.0739 65.7143 64.5C65.7143 67.9261 62.9261 70.7143 59.5 70.7143Z" stroke="#024D81" stroke-width="2"/>
</svg>
