<svg width="90" height="90" viewBox="0 0 90 90" fill="none" xmlns="http://www.w3.org/2000/svg">
<path d="M55 78C68.2548 78 79 67.2548 79 54C79 40.7452 68.2548 30 55 30C41.7452 30 31 40.7452 31 54C31 67.2548 41.7452 78 55 78Z" stroke="#024D81" stroke-width="2" stroke-linecap="round" stroke-linejoin="round"/>
<path d="M47.5371 62.6699C48.2418 63.5557 49.1496 64.26 50.1843 64.7238C51.2191 65.1875 52.3504 65.3971 53.4834 65.335H57.0529C58.6302 65.335 60.1428 64.7109 61.2581 63.6001C62.3734 62.4893 63 60.9827 63 59.4118C63 57.8408 62.3734 56.3342 61.2581 55.2234C60.1428 54.1126 58.6302 53.4885 57.0529 53.4885H53.186C51.6088 53.4885 50.0961 52.8645 48.9808 51.7537C47.8655 50.6429 47.2389 49.1363 47.2389 47.5653C47.2389 45.9944 47.8655 44.4878 48.9808 43.377C50.0961 42.2662 51.6088 41.6421 53.186 41.6421H56.7556C57.8957 41.5132 59.0496 41.6927 60.096 42.1617M54.9699 38.3849V53.1924V68M32.0985 45.5416C31.296 44.7927 30.6571 43.8871 30.2217 42.8814C29.7863 41.8756 29.5636 40.7913 29.5677 39.696V31.9952C29.5635 30.9439 29.7682 29.9022 30.1703 28.9302C30.5723 27.9581 31.1636 27.075 31.91 26.3317C32.6565 25.5884 33.5433 24.9997 34.5194 24.5995C35.4954 24.1993 36.5414 23.9956 37.5969 24.0001C38.7894 24.0221 39.9633 24.2977 41.0401 24.8084M26 32.5874H36.1104M26 38.5097H36.1104" stroke="#024D81" stroke-width="2" stroke-linecap="round" stroke-linejoin="round"/>
<path d="M30.8184 58C26.6357 57.1107 22.7706 55.1091 19.6307 52.2062C16.4908 49.3034 14.1924 45.607 12.9781 41.5069C11.7638 37.4067 11.6785 33.0549 12.7313 28.9103C13.784 24.7658 15.9358 20.9821 18.9596 17.9585C21.9833 14.9349 25.7671 12.7834 29.9117 11.7309C34.0563 10.6784 38.4081 10.764 42.5081 11.9786C46.6081 13.1931 50.3044 15.4917 53.207 18.6318C56.1096 21.772 58.111 25.6372 59 29.82" stroke="#024D81" stroke-width="2" stroke-linecap="round" stroke-linejoin="round"/>
</svg>
