<svg width="90" height="90" viewBox="0 0 90 90" fill="none" xmlns="http://www.w3.org/2000/svg">
<g clip-path="url(#clip0_362_69)">
<path d="M72.9231 23.9982H71.9231V24.9982V54.9945V55.9945H72.9231H75.4615C75.8745 55.9945 76.2675 56.1562 76.5549 56.4392C76.8417 56.7216 77 57.1015 77 57.4942C77 57.8869 76.8417 58.2667 76.5549 58.5492C76.2675 58.8322 75.8745 58.9939 75.4615 58.9939H47.5385H46.5385V59.9939V65.4307V66.1414L47.2097 66.3751C48.6836 66.8883 49.9222 67.8967 50.7095 69.2183C51.4966 70.5395 51.7831 72.0903 51.5205 73.5974C51.2579 75.1046 50.4622 76.4751 49.2698 77.465C48.077 78.4552 46.5648 79 45 79C43.4352 79 41.923 78.4552 40.7302 77.465C39.5378 76.4751 38.7421 75.1046 38.4794 73.5974C38.2169 72.0903 38.5034 70.5395 39.2905 69.2183C40.0778 67.8967 41.3164 66.8883 42.7903 66.3751L43.4615 66.1414V65.4307V59.9939V58.9939H42.4615H14.5385C14.1255 58.9939 13.7325 58.8322 13.4451 58.5492C13.1583 58.2667 13 57.8869 13 57.4942C13 57.1015 13.1583 56.7216 13.4451 56.4392C13.7325 56.1562 14.1255 55.9945 14.5385 55.9945H17.0769H18.0769V54.9945V24.9982V23.9982H17.0769C15.9907 23.9982 14.9521 23.5731 14.1886 22.8213C13.4257 22.0701 13 21.0545 13 19.9988V14.9994C13 13.9437 13.4257 12.9281 14.1886 12.1768C14.9521 11.425 15.9907 11 17.0769 11H72.9231C74.0093 11 75.0479 11.425 75.8114 12.1768C76.5743 12.9281 77 13.9437 77 14.9994V19.9988C77 21.0545 76.5743 22.0701 75.8114 22.8213C75.0479 23.5731 74.0093 23.9982 72.9231 23.9982Z" stroke="#024D81" stroke-width="2"/>
<rect x="17" y="15" width="56" height="5" rx="1" stroke="#024D81" stroke-width="2"/>
</g>
<defs>
<clipPath id="clip0_362_69">
<rect width="90" height="90" fill="white"/>
</clipPath>
</defs>
</svg>
