<svg width="90" height="90" viewBox="0 0 90 90" fill="none" xmlns="http://www.w3.org/2000/svg">
<path d="M69.3239 65.7233L79.2842 75.6785C79.7487 76.1594 80.0057 76.8036 79.9999 77.4722C79.9941 78.1408 79.7259 78.7803 79.2531 79.2531C78.7803 79.7259 78.1408 79.9941 77.4722 79.9999C76.8036 80.0057 76.1594 79.7487 75.6785 79.2842L65.7182 69.3239C59.2094 74.9005 50.7937 77.7393 42.2369 77.2446C33.6802 76.75 25.6476 72.9604 19.8247 66.671C14.0018 60.3817 10.8412 52.0814 11.0061 43.5119C11.1711 34.9425 14.6488 26.77 20.7094 20.7094C26.77 14.6488 34.9425 11.1711 43.5119 11.0061C52.0814 10.8412 60.3817 14.0018 66.671 19.8247C72.9604 25.6476 76.75 33.6802 77.2446 42.2369C77.7393 50.7937 74.9005 59.2094 69.3239 65.7182V65.7233ZM44.1504 72.2003C51.5897 72.2003 58.7243 69.245 63.9847 63.9847C69.245 58.7243 72.2003 51.5897 72.2003 44.1504C72.2003 36.711 69.245 29.5764 63.9847 24.316C58.7243 19.0557 51.5897 16.1004 44.1504 16.1004C36.711 16.1004 29.5764 19.0557 24.316 24.316C19.0557 29.5764 16.1004 36.711 16.1004 44.1504C16.1004 51.5897 19.0557 58.7243 24.316 63.9847C29.5764 69.245 36.711 72.2003 44.1504 72.2003V72.2003Z" stroke="#024D81" stroke-width="2"/>
<path fill-rule="evenodd" clip-rule="evenodd" d="M56.3657 36.641C56.5689 36.8437 56.7301 37.0844 56.8401 37.3495C56.9501 37.6146 57.0067 37.8987 57.0067 38.1857C57.0067 38.4727 56.9501 38.7569 56.8401 39.0219C56.7301 39.287 56.5689 39.5278 56.3657 39.7305L43.2748 52.8214C43.0721 53.0246 42.8313 53.1858 42.5663 53.2958C42.3012 53.4058 42.017 53.4624 41.7301 53.4624C41.4431 53.4624 41.1589 53.4058 40.8938 53.2958C40.6288 53.1858 40.388 53.0246 40.1853 52.8214L33.6398 46.2759C33.437 46.0731 33.2761 45.8322 33.1663 45.5672C33.0565 45.3022 33 45.0181 33 44.7312C33 44.4443 33.0565 44.1602 33.1663 43.8952C33.2761 43.6301 33.437 43.3893 33.6398 43.1865C33.8427 42.9836 34.0835 42.8227 34.3486 42.7129C34.6136 42.6031 34.8977 42.5466 35.1846 42.5466C35.4715 42.5466 35.7555 42.6031 36.0206 42.7129C36.2856 42.8227 36.5265 42.9836 36.7293 43.1865L41.7301 48.1916L53.2763 36.641C53.4789 36.4378 53.7197 36.2766 53.9848 36.1666C54.2498 36.0566 54.534 36 54.821 36C55.108 36 55.3921 36.0566 55.6572 36.1666C55.9223 36.2766 56.1631 36.4378 56.3657 36.641V36.641Z" stroke="#024D81" stroke-width="2"/>
</svg>
