<svg width="90" height="90" viewBox="0 0 90 90" fill="none" xmlns="http://www.w3.org/2000/svg">
<path d="M42.4036 75.6831L42.4036 75.6831L34.3286 64.78C33.8407 64.1211 33.2072 63.5851 32.4774 63.2156C31.7476 62.846 30.9422 62.6533 30.125 62.6533H19.5C17.515 62.6533 15.6087 61.8548 14.2012 60.4292C12.7932 59.0032 12 57.0665 12 55.0444V20.6089C12 18.5868 12.7932 16.6501 14.2012 15.2241C15.6087 13.7985 17.515 13 19.5 13H70.5C72.485 13 74.3913 13.7985 75.7988 15.2241C77.2068 16.6501 78 18.5868 78 20.6089V55.0444C78 57.0665 77.2068 59.0032 75.7988 60.4292C74.3913 61.8548 72.485 62.6533 70.5 62.6533H59.875C59.0578 62.6533 58.2524 62.846 57.5226 63.2156C56.7928 63.5851 56.1593 64.121 55.6714 64.7799C55.6714 64.7799 55.6714 64.7799 55.6714 64.78L47.5964 75.6831L47.5964 75.6831C47.2925 76.0934 46.8994 76.4253 46.4489 76.6534C45.9984 76.8816 45.5024 77 45 77C44.4976 77 44.0016 76.8816 43.5511 76.6534C43.1006 76.4253 42.7075 76.0934 42.4036 75.6831Z" stroke="#024D81" stroke-width="2"/>
<path d="M62.1127 37.8291L61.8173 38.2285L61.9571 38.7051C62.0784 39.1189 62.1415 39.557 62.1491 40.007C62.1475 40.9919 61.8305 41.9358 61.2618 42.7047L60.9665 43.1041L61.1062 43.5807C61.2284 43.9975 61.2899 44.4294 61.2899 44.8708C61.2899 45.8584 60.9728 46.8052 60.4026 47.5761L60.1073 47.9755L60.247 48.4521C60.3692 48.8689 60.4308 49.3007 60.4308 49.7421C60.4308 51.5458 59.3832 53.1549 57.7808 53.8541L57.7752 53.8566C57.5636 53.9505 57.3288 54 57.0809 54H38.4774V37.0013L42.0207 23.8749L42.0209 23.8742C42.4795 22.1704 44.0025 21 45.6957 21L45.6995 21C46.1645 20.9983 46.6255 21.094 47.0543 21.2822L47.456 20.3664L47.0543 21.2822C47.4831 21.4703 47.8714 21.7472 48.1943 22.0969L48.1958 22.0985C48.8579 22.8125 49.2004 23.7477 49.1545 24.7447L48.9056 29.9627L48.8556 31.0103H49.9044H59.8577H59.8586C60.1763 31.01 60.4898 31.0965 60.7667 31.2627C62.1528 32.0948 63 33.58 63 35.1238C63 36.1114 62.6828 37.0582 62.1127 37.8291ZM28 53.6409V38.1817C28 37.9605 28.1673 37.8226 28.3282 37.8226H33.821V54H28.3282C28.1674 54 28 53.8622 28 53.6409Z" stroke="#024D81" stroke-width="2"/>
</svg>
