<svg width="90" height="90" viewBox="0 0 90 90" fill="none" xmlns="http://www.w3.org/2000/svg">
<path d="M44.45 11.0006C53.1816 10.9373 61.5855 15.5207 66.3029 23.2862C72.2205 33.0278 70.9363 45.5099 63.1537 53.7365C62.2109 54.7329 61.2132 55.6796 60.2113 56.618C58.3397 58.3707 57.1894 60.4243 57.13 63.062C57.0903 64.8292 56.1406 66.0672 54.3957 66.5471C54.1486 66.617 35.3065 71.6634 35.3065 71.6634C34.2677 71.9407 33.1901 71.3202 32.9117 70.2849L32.869 70.1251C32.5906 69.0898 33.2129 68.0156 34.2519 67.7383C34.2519 67.7383 50.6732 63.1526 50.3934 63.4118C51.8908 63.0442 52.7578 62.2798 53.1198 60.739C53.8938 57.4448 56.0434 54.9921 58.4026 52.7139C62.3119 48.939 64.9473 44.5481 65.6571 39.0469C66.7193 30.8121 62.7117 22.2993 55.3447 18.1674C47.411 13.7177 39.4529 14.0109 32.0452 19.281C21.7339 26.6165 20.2228 40.7794 28.4845 50.3602C30.7866 53.0297 33.126 55.667 35.6948 58.6008C42.4526 57.6165 42.4524 57.6165 42.4526 50.767C42.4531 46.5091 42.4791 42.2508 42.4415 37.9931C42.4279 36.4778 42.9253 35.2948 44.5498 35.3324C46.1547 35.3696 46.6233 36.5934 46.618 38.08C46.5941 44.6472 46.5796 51.2147 46.6229 57.7818C46.6336 59.4092 46.0182 60.3099 44.3986 60.7022C41.2396 61.467 38.1224 62.4031 34.9628 63.1651C32.6876 63.7138 32.3882 63.0603 31.4541 60.9702C30.5224 58.8851 29.003 56.931 27.3502 55.3177C20.3034 48.439 17.519 40.2254 19.7561 30.6761C22.0162 21.0286 28.2316 14.7547 37.7645 11.9788C39.9368 11.3459 42.1868 11.0167 44.45 11.0006ZM44.5345 26.7814C46.2513 26.7997 47.1022 27.8107 47.2246 29.3798C47.0913 31.1878 46.0656 32.2067 44.4724 32.181C42.8861 32.1555 41.7318 31.072 41.7697 29.4221C41.8068 27.8169 42.8166 26.7627 44.5345 26.7814ZM53.6769 71.0504C54.526 71.0854 55.2952 71.6639 55.5259 72.5226C55.8102 73.5791 55.1752 74.6752 54.1151 74.9583L39.2335 78.9324C38.1732 79.2155 37.0736 78.5829 36.7894 77.5261C36.5054 76.4696 37.1402 75.3735 38.2003 75.0904L53.0818 71.1162C53.2757 71.0644 53.4764 71.0422 53.6769 71.0504Z" stroke="#024D81" stroke-width="2"/>
</svg>
