<svg width="90" height="90" viewBox="0 0 90 90" fill="none" xmlns="http://www.w3.org/2000/svg">
<path d="M74.5679 45.4997L74.8576 44.9991L78.6706 38.409C78.9962 37.8457 79.0848 37.176 78.9168 36.5474C78.7488 35.9187 78.3381 35.3825 77.7749 35.0566L71.178 31.2435L70.6785 30.9547V30.3777V22.7786C70.6785 22.1277 70.4199 21.5034 69.9597 21.0432C69.4994 20.583 68.8753 20.3244 68.2244 20.3244H60.629H60.0518L59.7631 19.8247L55.9547 13.2331C55.9545 13.2328 55.9544 13.2325 55.9542 13.2323C55.6263 12.6689 55.0899 12.2571 54.4609 12.086L74.5679 45.4997ZM74.5679 45.4997L74.8574 46.0004M74.5679 45.4997L74.8574 46.0004M74.8574 46.0004L78.6672 52.5909L78.6676 52.5916C78.8292 52.8707 78.9342 53.1789 78.9767 53.4986C79.0191 53.8182 78.9982 54.1431 78.915 54.4547C78.8318 54.7663 78.688 55.0584 78.4919 55.3144C78.2957 55.5703 78.0511 55.7851 77.7719 55.9465L77.7718 55.9465L71.1746 59.7599L70.675 60.0487V60.6257V68.2213C70.675 68.8722 70.4164 69.4965 69.9562 69.9567C69.496 70.4169 68.8718 70.6755 68.221 70.6755H60.6255H60.0482L59.7595 71.1754L55.9506 77.7713C55.9505 77.7715 55.9504 77.7717 55.9503 77.7719C55.6238 78.3345 55.0876 78.7448 54.4591 78.9128C53.8308 79.0807 53.1615 78.9926 52.5979 78.6679C52.5977 78.6678 52.5974 78.6676 52.5971 78.6674L46.0007 74.8545L45.5 74.5651L44.9995 74.8548L38.4096 78.6679C38.0303 78.8871 37.6064 78.9995 37.1825 79C36.7515 78.9971 36.3285 78.8822 35.9552 78.6666C35.5819 78.4511 35.271 78.1423 35.0529 77.7705C35.0524 77.7696 35.052 77.7688 35.0515 77.768L31.2408 71.1751L30.9521 70.6755H30.3751H22.7762C22.1253 70.6755 21.5011 70.4169 21.0409 69.9567C20.5807 69.4965 20.3221 68.8722 20.3221 68.2213V60.6257V60.0487L19.8226 59.7599L13.2295 55.9489C13.2287 55.9485 13.228 55.9481 13.2273 55.9476C12.666 55.6189 12.2572 55.0818 12.0898 54.4531C11.9223 53.8241 12.0101 53.1543 12.3341 52.5897C12.3343 52.5894 12.3345 52.589 12.3347 52.5886L16.1465 46.0008L16.4362 45.5L16.1465 44.9991L12.3332 38.4086L12.332 38.4065C12.1699 38.1279 12.0644 37.8199 12.0216 37.5004C11.9789 37.1808 11.9997 36.8559 12.0828 36.5445C12.166 36.233 12.3099 35.941 12.5062 35.6853C12.7026 35.4296 12.9475 35.2152 13.227 35.0544L13.2288 35.0534L19.826 31.24L20.3256 30.9512V30.3742V22.7786C20.3256 22.1277 20.5841 21.5034 21.0444 21.0432C21.5046 20.583 22.1288 20.3244 22.7796 20.3244H30.3751H30.9521L31.2408 19.8248L35.0541 13.2274L35.0543 13.227C35.3798 12.6633 35.9158 12.2521 36.5444 12.0836C37.173 11.9152 37.8426 12.0033 38.4062 12.3286M74.8574 46.0004L38.4062 12.3286M38.4062 12.3286C38.4063 12.3287 38.4064 12.3287 38.4065 12.3288L45.003 16.1452L45.5035 16.4348L46.0042 16.1454L52.6014 12.332L52.6037 12.3307C52.8817 12.169 53.189 12.0641 53.5078 12.0221C53.8264 11.9802 54.1501 12.0018 54.4603 12.0858L38.4062 12.3286ZM37.3017 62.1547L38.1016 62.7542L38.7014 61.9545L59.4256 34.3213L60.0259 33.521L59.2253 32.9211L53.6989 28.7795L52.8989 28.1801L52.2992 28.9798L31.5749 56.613L30.9747 57.4133L31.7752 58.0132L37.3017 62.1547ZM41.2368 29.0071C40.0777 27.8472 38.5053 27.1952 36.8655 27.1947C35.2257 27.1941 33.6529 27.845 32.493 29.0042C31.3331 30.1633 30.6812 31.7357 30.6807 33.3756C30.6801 35.0154 31.331 36.5882 32.4901 37.7482C33.6492 38.9081 35.2216 39.56 36.8614 39.5606C38.5012 39.5611 40.074 38.9102 41.2339 37.7511C42.3938 36.5919 43.0457 35.0195 43.0462 33.3797C43.0468 31.7399 42.3959 30.167 41.2368 29.0071ZM51.7692 63.2647C52.5192 63.5757 53.3231 63.7359 54.1351 63.7362C55.7748 63.7367 57.3477 63.0858 58.5076 61.9267C59.6674 60.7675 60.3194 59.1951 60.3199 57.5553C60.3204 55.9155 59.6696 54.3426 58.5105 53.1827C57.3514 52.0227 55.779 51.3708 54.1392 51.3703C53.3272 51.37 52.5232 51.5296 51.773 51.8401C51.0227 52.1506 50.341 52.6058 49.7667 53.1798C49.1924 53.7537 48.7367 54.4352 48.4258 55.1852C48.1148 55.9352 47.9546 56.7392 47.9543 57.5511C47.9541 58.3631 48.1137 59.1672 48.4242 59.9174C48.7346 60.6677 49.1898 61.3494 49.7638 61.9237C50.3377 62.4981 51.0191 62.9537 51.7692 63.2647Z" stroke="white" stroke-width="2"/>
</svg>
