<svg width="90" height="90" viewBox="0 0 90 90" fill="none" xmlns="http://www.w3.org/2000/svg">
<path d="M22.159 15V21.7018H10V28.2632C10 39.2456 13.3357 45.3684 21.352 49.1754C24.3322 50.7429 27.0828 52.6962 29.5297 54.9825C31.4964 57.0346 33.8949 58.6448 36.5597 59.7018L39.5904 60.614V68.5614H34.9636C29.3683 68.5614 27.4853 69.807 27.4853 73.5088V76H62.4558V73.7719C62.4558 70.1404 60.1603 68.5088 54.8519 68.5088H50.3506V60.614L53.4352 59.7193C56.1038 58.6612 58.5033 57.0444 60.4652 54.9825C63.0178 52.6024 65.8752 50.5561 68.9657 48.8947C71.3654 47.765 73.5085 46.1749 75.2676 44.219C77.0267 42.263 78.366 39.9811 79.2058 37.5088C79.7767 34.4477 80.041 31.3394 79.9949 28.2281V21.7193H67.7821V15H22.159ZM44.9705 26.1754L48.6469 33.614H57.5061L50.5658 39.8772L52.5564 47.8772L44.9705 43.8947L37.3846 47.9298L39.3752 39.9298L32.417 33.6667H41.2941L44.9705 26.1754ZM16.3844 28.4035H22.0514V42.2281C21.4596 42.5789 19.6124 40.4737 18.2674 38.0702C17.5038 36.2301 17.0146 34.2921 16.8148 32.3158L16.3844 28.4035ZM67.8897 28.4035H74.0588L73.5388 32.2632C73.4165 35.4761 72.096 38.5341 69.8265 40.8596C69.2926 41.5714 68.6151 42.1685 67.8359 42.614L67.8897 28.4035Z" stroke="white" stroke-width="2" stroke-linecap="round" stroke-linejoin="round"/>
</svg>
