<svg width="90" height="90" viewBox="0 0 90 90" fill="none" xmlns="http://www.w3.org/2000/svg">
<path d="M76.1437 62.2259C76.2964 62.4299 76.4079 62.6647 76.4704 62.9164C76.4705 62.9169 76.4706 62.9173 76.4707 62.9178L77.1877 65.8514L77.1899 65.8601L77.9438 68.8292C77.944 68.83 77.9442 68.8308 77.9444 68.8316C78.0033 69.0709 78.0156 69.3202 77.9804 69.5648C77.945 69.8101 77.8628 70.0449 77.7391 70.2557C77.6155 70.4664 77.4533 70.6486 77.2627 70.7925C77.0723 70.9364 76.8572 71.0395 76.63 71.0968L76.6168 71.1002L76.6036 71.1039L62.8923 74.9676L49.1893 78.829C49.188 78.8294 49.1867 78.8297 49.1853 78.8301C48.823 78.9284 48.4506 78.9811 48.0763 78.9872L48.0507 78.9876L48.0251 78.9893C47.6462 79.0148 47.2657 78.9946 46.8913 78.929L35.8456 76.461L24.7839 73.9895C24.3861 73.8952 24.0257 73.6679 23.7613 73.3379C23.4981 73.0093 23.3458 72.5981 23.3317 72.1676V56.7274H23.3318L23.3316 56.7151C23.3263 56.2862 23.4738 55.8731 23.7415 55.5523L23.7549 55.5363L23.7676 55.5197C24.0244 55.1845 24.3805 54.9521 24.7755 54.8538L42.7784 52.5808L42.7866 52.5798L42.7948 52.5786L60.0086 50.1157L60.3464 51.3827L60.877 53.3728C60.8576 53.8719 60.7118 54.3567 60.4548 54.7793C60.1948 55.2068 59.8315 55.5533 59.4039 55.7873L51.9618 57.6905L44.4073 59.6223L41.4829 60.3702L44.2754 61.5163L50.3945 64.0277L56.5136 66.5391L56.8352 66.6711L57.1693 66.5752L65.7814 64.1024L65.7889 64.1002L65.7963 64.098L74.1818 61.5479L74.1843 61.5471C74.4137 61.4767 74.6542 61.4556 74.8913 61.4849C75.1284 61.5142 75.3581 61.5933 75.566 61.7184L75.5748 61.7237L75.5837 61.7289C75.7999 61.8529 75.9907 62.0217 76.1437 62.2259ZM17.6678 53.8637V75.046H12V53.8637H17.6678Z" stroke="#024D81" stroke-width="2"/>
<path d="M35.3889 18.7482L35.3888 18.7483L35.3987 18.7579L40.5878 23.8211L33.5333 27.2271L26.5264 23.8244L31.732 18.7588L31.7374 18.7535L31.7427 18.7482C31.977 18.5133 32.2588 18.325 32.5723 18.1959C32.8858 18.0669 33.2238 18 33.5658 18C33.9079 18 34.2458 18.0669 34.5593 18.1959C34.8728 18.325 35.1547 18.5133 35.3889 18.7482ZM45.2207 31.9601L36.1881 40.8365V31.8041L44.4961 27.7551L45.2242 28.4637L45.2314 28.4707L45.2387 28.4775C45.4814 28.7044 45.6729 28.9751 45.8031 29.2725C45.9333 29.5699 46 29.8887 46 30.2102C46 30.5316 45.9333 30.8504 45.8031 31.1478C45.6729 31.4452 45.4814 31.7159 45.2387 31.9428L45.2296 31.9513L45.2207 31.9601ZM30.8131 31.8041V40.8366L21.7792 31.96L21.7703 31.9513L21.7613 31.9428C21.5186 31.7159 21.3271 31.4452 21.1969 31.1478C21.0667 30.8504 21 30.5316 21 30.2102C21 29.8887 21.0667 29.5699 21.1969 29.2725L20.2808 28.8715L21.1969 29.2725C21.3271 28.9751 21.5186 28.7044 21.7613 28.4775L21.7686 28.4707L21.7758 28.4637L22.5039 27.7551L30.8131 31.8041Z" stroke="#024D81" stroke-width="2"/>
<path d="M57.2657 20.3281H54M57.2657 20.3281V29.5451H63.3501C64.5723 29.5451 65.7445 29.0595 66.6087 28.1953C67.473 27.331 67.9585 26.1588 67.9585 24.9366C67.9585 23.7143 67.473 22.5422 66.6087 21.6779C65.7445 20.8137 64.5723 20.3281 63.3501 20.3281H57.2657Z" stroke="#024D81" stroke-width="2" stroke-linejoin="round"/>
<path d="M62.5436 17V20.0241M57.2657 29.5454V39.369H63.7514C64.4045 39.3819 65.0537 39.2643 65.6609 39.0233C66.2681 38.7822 66.8211 38.4224 67.2876 37.9651C67.754 37.5077 68.1246 36.9619 68.3776 36.3595C68.6305 35.7572 68.7608 35.1105 68.7608 34.4572C68.7608 33.8039 68.6305 33.1572 68.3776 32.5549C68.1246 31.9525 67.754 31.4067 67.2876 30.9493C66.8211 30.492 66.2681 30.1322 65.6609 29.8911C65.0537 29.6501 64.4045 29.5325 63.7514 29.5454H57.2657ZM57.2657 39.3633H54H57.2657ZM57.2581 39.4242V42.4464V39.4242ZM62.5436 39.4242V42.4464V39.4242ZM57.2581 17V20.0241V17Z" stroke="#024D81" stroke-width="2" stroke-linejoin="round"/>
</svg>
