<svg width="90" height="90" viewBox="0 0 90 90" fill="none" xmlns="http://www.w3.org/2000/svg">
<path d="M41.1719 48.3077L41.1754 48.306L41.1719 48.3077ZM41.1719 48.3077L41.1687 48.3092L41.1719 48.3077ZM44.8047 44.8207L46.9366 47.5725H46.0353H45.0353V48.5725V55.8571H44.5679V48.5692V47.5692H43.5679H42.6738L44.8047 44.8207ZM44.8039 43.6084L44.8033 43.6095L44.8039 43.6084Z" stroke="#024D81" stroke-width="2"/>
<path d="M52.5995 52.2398C53.2616 52.2414 53.9171 52.1099 54.528 51.8534C55.1387 51.5969 55.6924 51.2207 56.1574 50.7471C57.103 49.7885 57.6234 48.5092 57.6234 47.1602C57.6234 44.867 56.0976 42.845 53.8965 42.2441L53.8921 42.2429L53.1626 42.0474L52.8947 41.3294L52.8945 41.3288C52.5807 40.4895 52.1426 39.6975 51.5907 38.9825C51.0475 38.2771 50.4051 37.6555 49.6779 37.1371L49.6777 37.1369C48.1741 36.0655 46.3998 35.4971 44.5519 35.4971C42.7041 35.4971 40.9298 36.0655 39.4262 37.1369L39.426 37.1371C38.7015 37.6536 38.057 38.2756 37.5131 38.9827C36.9621 39.6964 36.5236 40.4849 36.2093 41.329C36.2092 41.3294 36.2091 41.3298 36.2089 41.3301L35.9397 42.0486L35.2084 42.2421L35.2084 42.2421L35.2046 42.2431C34.1454 42.528 33.2006 43.1644 32.5273 44.0346L32.5257 44.0367C31.8684 44.8907 31.5043 45.9083 31.4681 46.9851L31.468 46.9866C31.4238 48.3629 31.9264 49.6977 32.8786 50.6914L32.8787 50.6914C33.8316 51.6856 35.1207 52.2398 36.4903 52.2398H37.0519V52.7403H36.4903C33.4709 52.7403 31 50.2562 31 47.1602C31 44.5634 32.7473 42.3881 35.0948 41.7636L35.5934 41.6309L35.7743 41.1477C37.1223 37.5446 40.5511 35 44.5519 35C48.5523 35 51.9814 37.5474 53.3296 41.1509L53.5101 41.6332L54.0075 41.7665C56.349 42.3936 58.0909 44.5657 58.0909 47.1602C58.0909 50.2562 55.62 52.7403 52.6006 52.7403H52.039M52.5995 52.2398C52.599 52.2398 52.5985 52.2398 52.598 52.2398L52.6006 51.2398V52.2398H52.5995ZM52.5995 52.2398H52.039M52.039 52.2398V51.503C52.039 51.898 51.7206 52.2398 51.2987 52.2398H52.039ZM52.039 52.2398V52.7403M52.039 52.7403H51.2987C51.7206 52.7403 52.039 53.0821 52.039 53.4771V52.7403Z" stroke="#024D81" stroke-width="2"/>
<rect x="26" y="11" width="38" height="68" rx="1" stroke="#024D81" stroke-width="2"/>
<rect x="26" y="69" width="38" height="10" rx="1" stroke="#024D81" stroke-width="2"/>
<rect x="26" y="11" width="38" height="10" rx="1" stroke="#024D81" stroke-width="2"/>
<path d="M40 16H50" stroke="#024D81" stroke-width="2" stroke-linecap="round"/>
<g filter="url(#filter0_d_37_41)">
<circle cx="45" cy="74" r="2" fill="#024D81"/>
<circle cx="45" cy="74" r="1.5" stroke="#024D81"/>
</g>
<defs>
<filter id="filter0_d_37_41" x="39" y="72" width="12" height="12" filterUnits="userSpaceOnUse" color-interpolation-filters="sRGB">
<feFlood flood-opacity="0" result="BackgroundImageFix"/>
<feColorMatrix in="SourceAlpha" type="matrix" values="0 0 0 0 0 0 0 0 0 0 0 0 0 0 0 0 0 0 127 0" result="hardAlpha"/>
<feOffset dy="4"/>
<feGaussianBlur stdDeviation="2"/>
<feComposite in2="hardAlpha" operator="out"/>
<feColorMatrix type="matrix" values="0 0 0 0 0 0 0 0 0 0 0 0 0 0 0 0 0 0 0.25 0"/>
<feBlend mode="normal" in2="BackgroundImageFix" result="effect1_dropShadow_37_41"/>
<feBlend mode="normal" in="SourceGraphic" in2="effect1_dropShadow_37_41" result="shape"/>
</filter>
</defs>
</svg>
