<svg width="90" height="90" viewBox="0 0 90 90" fill="none" xmlns="http://www.w3.org/2000/svg">
<path d="M76 63.6152V58.846H70.9899C70.6828 57.3531 70.0901 55.9337 69.2444 54.6658L72.7975 51.1127L69.4256 47.7408L65.8725 51.2939C64.6046 50.4482 63.1851 49.8555 61.6923 49.5484V44.5383H56.9231V49.5484C55.4302 49.8555 54.0108 50.4482 52.7428 51.2939L49.1898 47.7408L45.8179 51.1127L49.371 54.6658C48.5253 55.9337 47.9326 57.3531 47.6255 58.846H42.6154V63.6152H47.6255C47.9355 65.1342 48.5412 66.5459 49.371 67.7954L45.8179 71.3485L49.1898 74.7204L52.7428 71.1673C54.0108 72.013 55.4302 72.6057 56.9231 72.9128V77.9229H61.6923V72.9128C63.1851 72.6057 64.6046 72.013 65.8725 71.1673L69.4256 74.7204L72.7975 71.3485L69.2444 67.7954C70.0901 66.5275 70.6828 65.1081 70.9899 63.6152H76ZM59.3077 68.3844C55.3635 68.3844 52.1538 65.1748 52.1538 61.2306C52.1538 57.2864 55.3635 54.0768 59.3077 54.0768C63.2518 54.0768 66.4615 57.2864 66.4615 61.2306C66.4615 65.1748 63.2518 68.3844 59.3077 68.3844ZM33.0769 20.6921H42.6154V25.4614H33.0769V20.6921Z" stroke="#024D81" stroke-width="2"/>
<path d="M18.7692 73.1538V15.923H56.9231V37.3846H61.6923V15.923C61.6923 13.2928 59.5533 11.1538 56.9231 11.1538H18.7692C16.139 11.1538 14 13.2928 14 15.923V73.1538C14 75.784 16.139 77.923 18.7692 77.923H37.8462V73.1538H18.7692Z" stroke="#024D81" stroke-width="2"/>
</svg>
