<svg width="90" height="90" viewBox="0 0 90 90" fill="none" xmlns="http://www.w3.org/2000/svg">
<path d="M23.75 26.25C23.75 26.8136 23.5261 27.3541 23.1276 27.7526C22.7291 28.1511 22.1886 28.375 21.625 28.375C21.0614 28.375 20.5209 28.1511 20.1224 27.7526C19.7239 27.3541 19.5 26.8136 19.5 26.25C19.5 25.6864 19.7239 25.1459 20.1224 24.7474C20.5209 24.3489 21.0614 24.125 21.625 24.125C22.1886 24.125 22.7291 24.3489 23.1276 24.7474C23.5261 25.1459 23.75 25.6864 23.75 26.25ZM30.125 26.25C30.125 26.8136 29.9011 27.3541 29.5026 27.7526C29.1041 28.1511 28.5636 28.375 28 28.375C27.4364 28.375 26.8959 28.1511 26.4974 27.7526C26.0989 27.3541 25.875 26.8136 25.875 26.25C25.875 25.6864 26.0989 25.1459 26.4974 24.7474C26.8959 24.3489 27.4364 24.125 28 24.125C28.5636 24.125 29.1041 24.3489 29.5026 24.7474C29.9011 25.1459 30.125 25.6864 30.125 26.25ZM34.375 28.375C34.9386 28.375 35.4791 28.1511 35.8776 27.7526C36.2761 27.3541 36.5 26.8136 36.5 26.25C36.5 25.6864 36.2761 25.1459 35.8776 24.7474C35.4791 24.3489 34.9386 24.125 34.375 24.125C33.8114 24.125 33.2709 24.3489 32.8724 24.7474C32.4739 25.1459 32.25 25.6864 32.25 26.25C32.25 26.8136 32.4739 27.3541 32.8724 27.7526C33.2709 28.1511 33.8114 28.375 34.375 28.375Z" fill="#024D81"/>
<path d="M13.125 15.625C12.5614 15.625 12.0209 15.8489 11.6224 16.2474C11.2239 16.6459 11 17.1864 11 17.75V73C11 73.5636 11.2239 74.1041 11.6224 74.5026C12.0209 74.9011 12.5614 75.125 13.125 75.125H76.875C77.4386 75.125 77.9791 74.9011 78.3776 74.5026C78.7761 74.1041 79 73.5636 79 73V17.75C79 17.1864 78.7761 16.6459 78.3776 16.2474C77.9791 15.8489 77.4386 15.625 76.875 15.625H13.125ZM15.25 32.625V19.875H74.75V32.625H15.25ZM15.25 36.875H74.75V70.875H15.25V36.875Z" stroke="#024D81" stroke-width="2"/>
<path d="M55.5547 67.0964C55.5548 67.0963 55.5549 67.0962 55.555 67.0961L55.5547 67.0964ZM55.5547 67.0964L55.554 67.0972C55.5542 67.097 55.5545 67.0967 55.5547 67.0964ZM55.7536 66.898L52.0066 66.9901L52.067 63.2106L67.02 48.2856L70.7102 51.9731L55.7536 66.898Z" stroke="#024D81" stroke-width="2"/>
<line x1="19" y1="42" x2="43" y2="42" stroke="#024D81" stroke-width="2"/>
<line x1="19" y1="47" x2="36" y2="47" stroke="#024D81" stroke-width="2"/>
<line x1="19" y1="62" x2="36" y2="62" stroke="#024D81" stroke-width="2"/>
<line x1="19" y1="57" x2="30" y2="57" stroke="#024D81" stroke-width="2"/>
<line x1="19" y1="67" x2="26" y2="67" stroke="#024D81" stroke-width="2"/>
<line x1="19" y1="52" x2="41" y2="52" stroke="#024D81" stroke-width="2"/>
<path d="M57 48.5L60.5 45.25L57 42" stroke="#024D81" stroke-width="2" stroke-linecap="square" stroke-linejoin="round"/>
<path d="M50.5 42L47 45.25L50.5 48.5" stroke="#024D81" stroke-width="2" stroke-linecap="square" stroke-linejoin="round"/>
</svg>
