<svg width="90" height="90" viewBox="0 0 90 90" fill="none" xmlns="http://www.w3.org/2000/svg">
<rect width="90" height="90" rx="45" fill="white"/>
<path d="M20 26.6665V54.1665C20 56.8765 22.29 59.1665 25 59.1665H31.6667V67.4998C31.6667 67.844 31.8783 68.1532 32.1992 68.2773C32.2975 68.3157 32.3992 68.3332 32.5 68.3332C32.73 68.3332 32.955 68.2382 33.1167 68.0607L41.2017 59.1665H65C67.71 59.1665 70 56.8765 70 54.1665V26.6665C70 23.9565 67.71 21.6665 65 21.6665H25C22.29 21.6665 20 23.9565 20 26.6665ZM53.3333 39.9998C53.3333 38.1615 54.8283 36.6665 56.6667 36.6665C58.505 36.6665 60 38.1615 60 39.9998C60 41.8382 58.505 43.3332 56.6667 43.3332C54.8283 43.3332 53.3333 41.8382 53.3333 39.9998ZM41.6667 39.9998C41.6667 38.1615 43.1617 36.6665 45 36.6665C46.8383 36.6665 48.3333 38.1615 48.3333 39.9998C48.3333 41.8382 46.8383 43.3332 45 43.3332C43.1617 43.3332 41.6667 41.8382 41.6667 39.9998ZM30 39.9998C30 38.1615 31.495 36.6665 33.3333 36.6665C35.1717 36.6665 36.6667 38.1615 36.6667 39.9998C36.6667 41.8382 35.1717 43.3332 33.3333 43.3332C31.495 43.3332 30 41.8382 30 39.9998Z" fill="#024D81"/>
</svg>
