<svg width="90" height="90" viewBox="0 0 90 90" fill="none" xmlns="http://www.w3.org/2000/svg">
<rect width="90" height="90" rx="45" fill="white"/>
<path d="M38.5262 44.7214C36.9452 42.4333 36.0048 39.6726 35.8107 39.438C38.1262 37.8238 42.6548 35.7952 42.9083 32.8845C43.2309 29.1238 36.8595 21.2619 35.6381 21.1904C32.2952 21.2261 26.1774 26.8833 25.4524 28.5928C24.1048 32.1273 24.7726 35.4166 27.0893 40.1785C30.0393 47.2619 40.9964 60.6988 47.2643 64.9166C51.4119 68.1 54.4417 69.35 58.0595 68.5952C59.7417 68.2761 65.8167 63.2916 66.425 59.9214C66.5738 58.6714 59.5119 50.3845 55.8595 50.0559C53.0238 49.794 50.3048 54.0392 48.3559 56.1142C48.1619 55.8666 46.5 54.5702 44.7167 52.5178C42.3952 50.0785 40.2381 47.213 38.5262 44.7214Z" fill="#024D81"/>
</svg>
