<svg width="90" height="90" viewBox="0 0 90 90" fill="none" xmlns="http://www.w3.org/2000/svg">
<path d="M62.8813 57.7615L71.3199 66.2142L62.8766 74.6693L66.2143 77.9999L78 66.2142L66.2143 54.4285L62.8813 57.7615ZM55.4044 57.7615L46.9659 66.2142L55.4091 74.6693L52.0714 77.9999L40.2857 66.2142L52.0714 54.4285L55.4044 57.7615ZM59.1429 21.4285H63.8571V40.2856H59.1429V21.4285ZM49.7143 21.4285H54.4286V40.2856H49.7143V21.4285ZM40.2857 40.2856H35.5714C32.9715 40.2856 30.8571 38.1713 30.8571 35.5713V26.1428C30.8571 23.5428 32.9715 21.4285 35.5714 21.4285H40.2857C42.8856 21.4285 45 23.5428 45 26.1428V35.5713C45 38.1713 42.8856 40.2856 40.2857 40.2856ZM35.5714 26.1428V35.5713H40.2857V26.1428H35.5714ZM21.4286 21.4285H26.1429V40.2856H21.4286V21.4285Z" stroke="#024D81" stroke-width="2"/>
<path d="M30.8571 73.2857H16.7143C14.1144 73.2857 12 71.1714 12 68.5714V16.7143C12 14.1144 14.1144 12 16.7143 12H68.5714C71.1714 12 73.2857 14.1144 73.2857 16.7143V45H68.5714V16.7143H16.7143V68.5714H30.8571V73.2857Z" stroke="#024D81" stroke-width="2"/>
</svg>
