<svg width="90" height="90" viewBox="0 0 90 90" fill="none" xmlns="http://www.w3.org/2000/svg">
<rect width="90" height="90" rx="45" fill="white"/>
<path d="M65.1087 27.0654H24.8913C22.3587 27.0654 20.2718 29.0002 20.0218 31.4676L41.6523 53.0981C43.3914 54.8372 46.511 54.935 48.4567 52.9894L69.9784 31.4676C69.7282 29.0002 67.6413 27.0654 65.1087 27.0654Z" fill="#024D81"/>
<path d="M50.7617 55.2941C49.2204 56.8364 47.1633 57.6856 44.9703 57.6856C42.8463 57.6856 40.7966 56.8546 39.3466 55.4034L20 36.0578V58.0434C20 60.7391 22.1957 62.9347 24.8913 62.9347H65.1087C67.8043 62.9347 70 60.7391 70 58.0434V36.0576L50.7617 55.2941Z" fill="#024D81"/>
</svg>
