<svg width="90" height="90" viewBox="0 0 90 90" fill="none" xmlns="http://www.w3.org/2000/svg">
<path d="M24.0179 25.741C24.0179 26.2975 23.7968 26.8312 23.4033 27.2247C23.0098 27.6182 22.4761 27.8393 21.9196 27.8393C21.3632 27.8393 20.8295 27.6182 20.436 27.2247C20.0425 26.8312 19.8214 26.2975 19.8214 25.741C19.8214 25.1846 20.0425 24.6509 20.436 24.2574C20.8295 23.8639 21.3632 23.6428 21.9196 23.6428C22.4761 23.6428 23.0098 23.8639 23.4033 24.2574C23.7968 24.6509 24.0179 25.1846 24.0179 25.741ZM30.3125 25.741C30.3125 26.2975 30.0914 26.8312 29.6979 27.2247C29.3045 27.6182 28.7708 27.8393 28.2143 27.8393C27.6578 27.8393 27.1241 27.6182 26.7306 27.2247C26.3371 26.8312 26.1161 26.2975 26.1161 25.741C26.1161 25.1846 26.3371 24.6509 26.7306 24.2574C27.1241 23.8639 27.6578 23.6428 28.2143 23.6428C28.7708 23.6428 29.3045 23.8639 29.6979 24.2574C30.0914 24.6509 30.3125 25.1846 30.3125 25.741ZM34.5089 27.8393C35.0654 27.8393 35.5991 27.6182 35.9926 27.2247C36.3861 26.8312 36.6071 26.2975 36.6071 25.741C36.6071 25.1846 36.3861 24.6509 35.9926 24.2574C35.5991 23.8639 35.0654 23.6428 34.5089 23.6428C33.9524 23.6428 33.4188 23.8639 33.0253 24.2574C32.6318 24.6509 32.4107 25.1846 32.4107 25.741C32.4107 26.2975 32.6318 26.8312 33.0253 27.2247C33.4188 27.6182 33.9524 27.8393 34.5089 27.8393Z" fill="#024D81"/>
<path d="M13.5268 15.25C12.9703 15.25 12.4366 15.4711 12.0431 15.8646C11.6496 16.258 11.4286 16.7917 11.4286 17.3482V71.9018C11.4286 72.4583 11.6496 72.992 12.0431 73.3855C12.4366 73.7789 12.9703 74 13.5268 74H76.4732C77.0297 74 77.5634 73.7789 77.9569 73.3855C78.3504 72.992 78.5714 72.4583 78.5714 71.9018V17.3482C78.5714 16.7917 78.3504 16.258 77.9569 15.8646C77.5634 15.4711 77.0297 15.25 76.4732 15.25H13.5268ZM15.625 32.0357V19.4464H74.375V32.0357H15.625ZM15.625 36.2321H74.375V69.8036H15.625V36.2321Z" stroke="#024D81" stroke-width="2"/>
<path d="M59 26H69" stroke="#024D81" stroke-width="2" stroke-linecap="round"/>
<path d="M39 42L28 49.13V57.87L39 65L50 57.87V49.13L39 42Z" stroke="#024D81" stroke-width="2" stroke-linecap="round"/>
<path d="M36.3722 51.1818V57H35.3097L32.7784 53.3381H32.7358V57H31.5057V51.1818H32.5852L35.0966 54.8409H35.1477V51.1818H36.3722ZM37.3885 57V51.1818H41.2408V52.196H38.6186V53.5824H40.9851V54.5966H38.6186V57H37.3885ZM41.8466 52.196V51.1818H46.625V52.196H44.8438V57H43.6278V52.196H41.8466Z" fill="#024D81"/>
<path d="M65 48.5L68.5 45.25L65 42" stroke="#024D81" stroke-width="2" stroke-linecap="square" stroke-linejoin="round"/>
<path d="M58.5 42L55 45.25L58.5 48.5" stroke="#024D81" stroke-width="2" stroke-linecap="square" stroke-linejoin="round"/>
</svg>
