<svg width="90" height="90" viewBox="0 0 90 90" fill="none" xmlns="http://www.w3.org/2000/svg">
<path d="M55.9 56H41.6C41.3084 55.9997 41.0288 55.8837 40.8225 55.6775C40.6163 55.4712 40.5003 55.1916 40.5 54.9V40.6C40.5003 40.3084 40.6163 40.0288 40.8225 39.8225C41.0288 39.6163 41.3084 39.5003 41.6 39.5H55.9C56.1916 39.5003 56.4712 39.6163 56.6775 39.8225C56.8837 40.0288 56.9997 40.3084 57 40.6V54.9C56.9997 55.1916 56.8837 55.4712 56.6775 55.6775C56.4712 55.8837 56.1916 55.9997 55.9 56ZM55.5333 40.9667H41.9667V54.5333H55.5333V40.9667Z" fill="#024D81"/>
<path d="M50.0333 35.4667H36.4667V49.0333H39.0333V50.5H36.1C35.8084 50.4997 35.5288 50.3837 35.3225 50.1775C35.1163 49.9712 35.0003 49.6916 35 49.4V35.1C35.0003 34.8084 35.1163 34.5288 35.3225 34.3225C35.5288 34.1163 35.8084 34.0003 36.1 34H50.4C50.6916 34.0003 50.9712 34.1163 51.1775 34.3225C51.3837 34.5288 51.4997 34.8084 51.5 35.1V38.0333H50.0333V35.4667Z" fill="#024D81"/>
<rect x="26" y="11" width="38" height="68" rx="1" stroke="#024D81" stroke-width="2"/>
<rect x="26" y="69" width="38" height="10" rx="1" stroke="#024D81" stroke-width="2"/>
<rect x="26" y="11" width="38" height="10" rx="1" stroke="#024D81" stroke-width="2"/>
<path d="M40 16H50" stroke="#024D81" stroke-width="2" stroke-linecap="round"/>
<g filter="url(#filter0_d_37_20)">
<circle cx="45" cy="74" r="2" fill="#024D81"/>
<circle cx="45" cy="74" r="1.5" stroke="#024D81"/>
</g>
<defs>
<filter id="filter0_d_37_20" x="39" y="72" width="12" height="12" filterUnits="userSpaceOnUse" color-interpolation-filters="sRGB">
<feFlood flood-opacity="0" result="BackgroundImageFix"/>
<feColorMatrix in="SourceAlpha" type="matrix" values="0 0 0 0 0 0 0 0 0 0 0 0 0 0 0 0 0 0 127 0" result="hardAlpha"/>
<feOffset dy="4"/>
<feGaussianBlur stdDeviation="2"/>
<feComposite in2="hardAlpha" operator="out"/>
<feColorMatrix type="matrix" values="0 0 0 0 0 0 0 0 0 0 0 0 0 0 0 0 0 0 0.25 0"/>
<feBlend mode="normal" in2="BackgroundImageFix" result="effect1_dropShadow_37_20"/>
<feBlend mode="normal" in="SourceGraphic" in2="effect1_dropShadow_37_20" result="shape"/>
</filter>
</defs>
</svg>
