<svg width="90" height="90" viewBox="0 0 90 90" fill="none" xmlns="http://www.w3.org/2000/svg">
<path d="M76.1437 62.2259C76.2964 62.4299 76.4079 62.6647 76.4704 62.9164C76.4705 62.9169 76.4706 62.9173 76.4707 62.9178L77.1877 65.8514L77.1899 65.8601L77.9438 68.8292C77.944 68.83 77.9442 68.8308 77.9444 68.8316C78.0033 69.0709 78.0156 69.3202 77.9804 69.5648C77.945 69.8101 77.8628 70.0449 77.7391 70.2557C77.6155 70.4664 77.4533 70.6486 77.2627 70.7925C77.0723 70.9364 76.8572 71.0395 76.63 71.0968L76.6168 71.1002L76.6036 71.1039L62.8923 74.9676L49.1893 78.829C49.188 78.8294 49.1867 78.8297 49.1853 78.8301C48.823 78.9284 48.4506 78.9811 48.0763 78.9872L48.0507 78.9876L48.0251 78.9893C47.6462 79.0148 47.2657 78.9946 46.8913 78.929L35.8456 76.461L24.7839 73.9895C24.3861 73.8952 24.0257 73.6679 23.7613 73.3379C23.4981 73.0093 23.3458 72.5981 23.3317 72.1676V56.7274H23.3318L23.3316 56.7151C23.3263 56.2862 23.4738 55.8731 23.7415 55.5523L23.7549 55.5363L23.7676 55.5197C24.0244 55.1845 24.3805 54.9521 24.7755 54.8538L42.7784 52.5808L42.7866 52.5798L42.7948 52.5786L60.0086 50.1157L60.3464 51.3827L60.877 53.3728C60.8576 53.8719 60.7118 54.3567 60.4548 54.7793C60.1948 55.2068 59.8315 55.5533 59.4039 55.7873L51.9618 57.6905L44.4073 59.6223L41.4829 60.3702L44.2754 61.5163L50.3945 64.0277L56.5136 66.5391L56.8352 66.6711L57.1693 66.5752L65.7814 64.1024L65.7889 64.1002L65.7963 64.098L74.1818 61.5479L74.1843 61.5471C74.4137 61.4767 74.6542 61.4556 74.8913 61.4849C75.1284 61.5142 75.3581 61.5933 75.566 61.7184L75.5748 61.7237L75.5837 61.7289C75.7999 61.8529 75.9907 62.0217 76.1437 62.2259ZM17.6678 53.8637V75.046H12V53.8637H17.6678Z" stroke="#024D81" stroke-width="2"/>
<path d="M11.9262 44C11.9225 43.9998 11.9155 43.9995 11.9056 43.9988C11.8797 43.997 11.8363 43.9928 11.7816 43.9837C11.6674 43.9646 11.5304 43.9284 11.4055 43.866C11.2846 43.8055 11.1941 43.7305 11.1315 43.6367C11.0732 43.5492 11 43.3875 11 43.0833C11 42.3818 11.3797 40.722 12.8634 39.2384C14.3177 37.784 16.9192 36.4167 21.5 36.4167C26.0808 36.4167 28.6823 37.784 30.1366 39.2384C31.6203 40.722 32 42.3818 32 43.0833C32 43.3875 31.9268 43.5492 31.8685 43.6367C31.8059 43.7305 31.7154 43.8055 31.5945 43.866C31.4696 43.9284 31.3326 43.9646 31.2184 43.9837C31.1637 43.9928 31.1203 43.997 31.0944 43.9988C31.0845 43.9995 31.0775 43.9998 31.0738 44H11.9262ZM24.8588 31.1088C23.968 31.9996 22.7598 32.5 21.5 32.5C20.2402 32.5 19.032 31.9996 18.1412 31.1088C17.2504 30.218 16.75 29.0098 16.75 27.75C16.75 26.4902 17.2504 25.282 18.1412 24.3912C19.032 23.5004 20.2402 23 21.5 23C22.7598 23 23.968 23.5004 24.8588 24.3912C25.7496 25.282 26.25 26.4902 26.25 27.75C26.25 29.0098 25.7496 30.218 24.8588 31.1088Z" stroke="#024D81" stroke-width="2"/>
<path d="M58.9262 44C58.9225 43.9998 58.9155 43.9995 58.9056 43.9988C58.8797 43.997 58.8363 43.9928 58.7816 43.9837C58.6674 43.9646 58.5304 43.9284 58.4055 43.866C58.2846 43.8055 58.1941 43.7305 58.1315 43.6367C58.0732 43.5492 58 43.3875 58 43.0833C58 42.3818 58.3797 40.722 59.8634 39.2384C61.3177 37.784 63.9192 36.4167 68.5 36.4167C73.0808 36.4167 75.6823 37.784 77.1366 39.2384C78.6203 40.722 79 42.3818 79 43.0833C79 43.3875 78.9268 43.5492 78.8685 43.6367C78.8059 43.7305 78.7154 43.8055 78.5945 43.866C78.4696 43.9284 78.3326 43.9646 78.2184 43.9837C78.1637 43.9928 78.1203 43.997 78.0944 43.9988C78.0845 43.9995 78.0775 43.9998 78.0738 44H58.9262ZM71.8588 31.1088C70.968 31.9996 69.7598 32.5 68.5 32.5C67.2402 32.5 66.032 31.9996 65.1412 31.1088C64.2504 30.218 63.75 29.0098 63.75 27.75C63.75 26.4902 64.2504 25.282 65.1412 24.3912C66.032 23.5004 67.2402 23 68.5 23C69.7598 23 70.968 23.5004 71.8588 24.3912C72.7496 25.282 73.25 26.4902 73.25 27.75C73.25 29.0098 72.7496 30.218 71.8588 31.1088Z" stroke="#024D81" stroke-width="2"/>
<path d="M31.6731 44C31.6723 44 31.6713 43.9999 31.67 43.9999C31.6623 43.9996 31.6463 43.999 31.6233 43.9973C31.577 43.994 31.5043 43.9869 31.4144 43.9719C31.2299 43.9412 30.9992 43.8815 30.7805 43.7722C30.5658 43.6649 30.3816 43.5196 30.2487 43.3203C30.12 43.1273 30 42.825 30 42.3333C30 41.2568 30.5672 38.847 32.7071 36.7071C34.8177 34.5965 38.5442 32.6667 45 32.6667C51.4558 32.6667 55.1823 34.5965 57.2929 36.7071C59.4328 38.847 60 41.2568 60 42.3333C60 42.825 59.88 43.1273 59.7513 43.3203C59.6184 43.5196 59.4342 43.6649 59.2195 43.7722C59.0008 43.8815 58.7701 43.9412 58.5856 43.9719C58.4957 43.9869 58.423 43.994 58.3767 43.9973C58.3537 43.999 58.3377 43.9996 58.33 43.9999C58.3287 43.9999 58.3277 44 58.3268 44H31.6731ZM49.9497 25.9497C48.637 27.2625 46.8565 28 45 28C43.1435 28 41.363 27.2625 40.0503 25.9497C38.7375 24.637 38 22.8565 38 21C38 19.1435 38.7375 17.363 40.0503 16.0503C41.363 14.7375 43.1435 14 45 14C46.8565 14 48.637 14.7375 49.9497 16.0503L50.6569 15.3431L49.9497 16.0503C51.2625 17.363 52 19.1435 52 21C52 22.8565 51.2625 24.637 49.9497 25.9497Z" fill="white" stroke="#024D81" stroke-width="2"/>
</svg>
