<svg width="90" height="90" viewBox="0 0 90 90" fill="none" xmlns="http://www.w3.org/2000/svg">
<mask id="path-1-inside-1_33_271" fill="white">
<path d="M20.673 47.8022V39.307H18.8487C16.4383 39.307 15 37.8659 15 35.4554V15.6057C15 13.5841 16.6899 12 18.8487 12H47.2079C49.4011 12 51.0566 13.5498 51.0566 15.6057V35.4583C51.0566 37.7972 49.5469 39.3098 47.2079 39.3098H29.3111L20.673 47.8022Z"/>
</mask>
<path d="M20.673 39.307H22.673V37.307H20.673V39.307ZM29.3111 39.3098V37.3098H28.4927L27.909 37.8836L29.3111 39.3098ZM22.673 47.8022V39.307H18.673V47.8022H22.673ZM20.673 37.307H18.8487V41.307H20.673V37.307ZM18.8487 37.307C18.0428 37.307 17.6374 37.0739 17.4354 36.8717C17.2331 36.6691 17 36.2625 17 35.4554H13C13 37.0587 13.486 38.5779 14.6055 39.6986C15.7252 40.8195 17.2442 41.307 18.8487 41.307V37.307ZM17 35.4554V15.6057H13V35.4554H17ZM17 15.6057C17 14.8092 17.6699 14 18.8487 14V10C15.7099 10 13 12.359 13 15.6057H17ZM18.8487 14H47.2079V10H18.8487V14ZM47.2079 14C48.4219 14 49.0566 14.7757 49.0566 15.6057H53.0566C53.0566 12.3239 50.3803 10 47.2079 10V14ZM49.0566 15.6057V35.4583H53.0566V15.6057H49.0566ZM49.0566 35.4583C49.0566 36.1897 48.8292 36.6126 48.5944 36.8477C48.3599 37.0825 47.9382 37.3098 47.2079 37.3098V41.3098C48.8166 41.3098 50.3193 40.7809 51.4244 39.6746C52.5292 38.5686 53.0566 37.0658 53.0566 35.4583H49.0566ZM47.2079 37.3098H29.3111V41.3098H47.2079V37.3098ZM27.909 37.8836L19.2709 46.376L22.0751 49.2284L30.7133 40.736L27.909 37.8836Z" fill="#024D81" mask="url(#path-1-inside-1_33_271)"/>
<mask id="path-3-inside-2_33_271" fill="white">
<path d="M69.3837 78.8022V70.307H71.2079C73.6184 70.307 75.0566 68.8659 75.0566 66.4554V46.6057C75.0566 44.5841 73.3668 43 71.2079 43H42.8487C40.6556 43 39 44.5498 39 46.6057V66.4583C39 68.7972 40.5097 70.3098 42.8487 70.3098H60.7455L69.3837 78.8022Z"/>
</mask>
<path d="M69.3837 70.307H67.3837V68.307H69.3837V70.307ZM60.7455 70.3098V68.3098H61.564L62.1476 68.8836L60.7455 70.3098ZM67.3837 78.8022V70.307H71.3837V78.8022H67.3837ZM69.3837 68.307H71.2079V72.307H69.3837V68.307ZM71.2079 68.307C72.0139 68.307 72.4192 68.0739 72.6212 67.8717C72.8235 67.6691 73.0566 67.2625 73.0566 66.4554H77.0566C77.0566 68.0587 76.5706 69.5779 75.4512 70.6986C74.3315 71.8195 72.8124 72.307 71.2079 72.307V68.307ZM73.0566 66.4554V46.6057H77.0566V66.4554H73.0566ZM73.0566 46.6057C73.0566 45.8092 72.3867 45 71.2079 45V41C74.3468 41 77.0566 43.359 77.0566 46.6057H73.0566ZM71.2079 45H42.8487V41H71.2079V45ZM42.8487 45C41.6348 45 41 45.7757 41 46.6057H37C37 43.3239 39.6764 41 42.8487 41V45ZM41 46.6057V66.4583H37V46.6057H41ZM41 66.4583C41 67.1897 41.2274 67.6126 41.4622 67.8477C41.6968 68.0825 42.1185 68.3098 42.8487 68.3098V72.3098C41.24 72.3098 39.7373 71.7809 38.6323 70.6746C37.5275 69.5686 37 68.0658 37 66.4583H41ZM42.8487 68.3098H60.7455V72.3098H42.8487V68.3098ZM62.1476 68.8836L70.7858 77.376L67.9815 80.2284L59.3434 71.736L62.1476 68.8836Z" fill="#024D81" mask="url(#path-3-inside-2_33_271)"/>
</svg>
