<svg width="90" height="90" viewBox="0 0 90 90" fill="none" xmlns="http://www.w3.org/2000/svg">
<path d="M77.9841 34.7076C77.3891 40.7525 78.0793 45.1978 76.6274 51.0248C73.4021 63.9326 64.8984 72.5143 52.4316 77.5408C50.3041 78.4825 48.0028 78.9791 45.672 78.9994C43.3413 79.0196 41.0315 78.5631 38.8877 77.6586C23.5228 71.7727 13.591 58.6883 13.1209 42.455C12.9066 35.0446 13.0376 27.6225 13.0614 20.2121C13.0614 17.7989 14.0075 16.7807 16.4235 16.3157C25.5877 14.5499 34.7281 12.6134 43.9398 11.1243C46.5284 10.7064 49.3669 11.4363 52.0388 11.9248C59.4713 13.2844 66.8741 14.7971 74.2887 16.245C77.151 16.8336 77.9544 17.693 77.9841 20.5476C78.0198 24.6678 77.9841 28.7879 77.9841 32.908V34.7076ZM71.349 34.303C71.349 30.9304 71.2836 27.5519 71.349 24.1792C71.3847 22.796 70.867 22.2487 69.5638 22.0015C62.0718 20.5888 54.5917 19.1056 47.0997 17.6812C46.3001 17.5186 45.4772 17.5026 44.6718 17.6341C36.8882 19.0938 29.1165 20.63 21.327 22.0839C20.0237 22.3311 19.7084 22.9432 19.7203 24.1734C19.7857 30.0593 19.7203 35.9098 19.7798 41.7781C19.7651 43.3931 19.8945 45.0062 20.1666 46.5986C22.773 60.3717 31.5028 68.5413 44.6718 72.5849C45.1564 72.742 45.6757 72.7624 46.1714 72.6438C57.0018 69.4595 65.1305 63.2263 69.3317 52.5493C71.6347 46.6516 71.3252 40.4832 71.3193 34.3265L71.349 34.303Z" stroke="#024D81" stroke-width="2"/>
<path d="M38.4337 50.5528L39.2205 51.2887L39.8959 50.4495C41.4008 48.5795 42.8938 46.7224 44.3791 44.8749C48.0616 40.2942 51.6972 35.7719 55.3529 31.2557L55.371 31.2335L55.3877 31.2102C55.8198 30.609 56.3168 30.0604 56.8691 29.5748L56.8725 29.5718C57.3041 29.1887 57.8555 28.9872 58.4187 29.0006C58.982 29.0141 59.5242 29.2417 59.9385 29.6456L59.9833 29.6893L60.0332 29.727C60.5201 30.0953 60.8556 30.6451 60.9631 31.2664C61.0707 31.888 60.9405 32.5265 60.6032 33.0492L60.595 33.0618L60.5872 33.0748C60.3199 33.5177 60.0174 33.937 59.6828 34.3284L59.673 34.3398L59.6636 34.3515C53.8333 41.6015 48.0029 48.845 42.1726 56.0819C41.0218 57.5061 40.2229 57.9591 39.5929 57.9972C38.9604 58.0355 38.1133 57.6795 36.8004 56.4231L36.7986 56.4215C36.307 55.9532 35.8164 55.4936 35.329 55.0371C34.2159 53.9942 33.1198 52.9673 32.067 51.8903C30.6927 50.4843 30.7194 48.858 31.7322 47.78C32.2852 47.1914 32.8793 46.9541 33.4605 46.9562C34.0583 46.9584 34.7677 47.2158 35.5147 47.8532C36.1901 48.4395 36.8334 49.046 37.5842 49.7541C37.8516 50.0062 38.1327 50.2712 38.4337 50.5528Z" stroke="#024D81" stroke-width="2"/>
</svg>
