<svg width="90" height="90" viewBox="0 0 90 90" fill="none" xmlns="http://www.w3.org/2000/svg">
<path d="M14.998 16.1702L15.0719 16.0941L15.1474 16.0195C17.0422 14.1483 19.6275 13 22.4825 13L58.5703 13L58.5718 13C61.3126 12.996 63.9466 14.0793 65.9044 16.0185L65.9865 16.0998L66.0548 16.1702C67.9108 18.0809 69.0528 20.6916 69.0528 23.578V30.8071C67.5148 30.7556 65.9781 30.9307 64.4914 31.3262V24.5399V23.5399H63.4914H40.5264H17.5614H16.5614V24.5399V59.9658C16.5614 61.5443 17.1833 63.0599 18.2927 64.1786C19.4025 65.2976 20.9094 65.9277 22.4825 65.9277H47.0817L45.5443 68.612L45.5438 68.6128C45.188 69.2353 44.9113 69.8826 44.7134 70.5437H22.4825C19.705 70.5437 17.0397 69.4313 15.0732 67.4484C13.1064 65.4653 12 62.7739 12 59.9658V23.578C12 20.6916 13.142 18.0809 14.998 16.1702ZM67.5593 36.1517L67.5603 36.1516C68.0384 36.1071 68.5184 36.0959 68.9969 36.1178L64.3402 44.2459C64.0049 44.7954 63.7817 45.4063 63.6834 46.0431C63.5842 46.6852 63.6139 47.341 63.7709 47.9714C63.9279 48.6019 64.209 49.1946 64.5979 49.7143C64.9869 50.234 65.4758 50.6702 66.0361 50.9966C66.5963 51.3229 67.2163 51.5327 67.8593 51.6131C68.5022 51.6936 69.1546 51.6429 69.7775 51.4643C70.4005 51.2856 70.981 50.9828 71.4847 50.5741C71.9842 50.1689 72.3981 49.6678 72.7026 49.1005L77.3497 40.9864C78.2028 42.3334 78.7461 43.8641 78.9302 45.4655C79.1705 47.5566 78.7872 49.6723 77.8298 51.542C76.8725 53.4116 75.385 54.9497 73.5584 55.9611C71.7319 56.9724 69.6487 57.4116 67.5745 57.2233L66.9352 57.1652L66.6162 57.7223L56.6724 75.0892L56.6722 75.0894C56.1691 75.9688 55.3416 76.6081 54.3739 76.8699C53.4063 77.1316 52.3751 76.9953 51.5062 76.4898C50.6371 75.9842 50.0004 75.1496 49.7392 74.1677C49.4779 73.1856 49.6145 72.1393 50.1178 71.2597L60.045 53.9262L60.3629 53.3713L59.9924 52.85C58.9162 51.3354 58.2553 49.5602 58.0774 47.7042C57.8995 45.8481 58.2111 43.9778 58.9801 42.2827C59.7491 40.5877 60.948 39.1286 62.4546 38.0523C63.9611 36.9761 65.7221 36.3207 67.5593 36.1517Z" stroke="#024D81" stroke-width="2"/>
<path d="M30.3313 48.846L22.0224 44.6916L30.3313 40.5371" stroke="#024D81" stroke-width="2" stroke-linecap="square" stroke-linejoin="round"/>
<path d="M44.298 48.846L52.6069 44.6916L44.298 40.5371" stroke="#024D81" stroke-width="2" stroke-linecap="square" stroke-linejoin="round"/>
<path d="M34.8221 53.0007L39.8075 36.3828" stroke="#024D81" stroke-width="2" stroke-linecap="square"/>
</svg>
