<svg width="90" height="90" viewBox="0 0 90 90" fill="none" xmlns="http://www.w3.org/2000/svg">
<path d="M40.163 46.2549L33.9046 39.9965L30.4976 43.4036L40.163 53.069L59.4939 33.7381L56.0869 30.3311L40.163 46.2549Z" stroke="white" stroke-width="2"/>
<path d="M44.9964 78.6582L30.0729 70.7011C25.8185 68.4377 22.2607 65.0586 19.7814 60.9262C17.3021 56.7939 15.9949 52.0645 16 47.2455V15.8327C16.0013 14.5514 16.5109 13.3229 17.4169 12.4169C18.3229 11.5109 19.5514 11.0013 20.8327 11H69.16C70.4414 11.0013 71.6698 11.5109 72.5759 12.4169C73.4819 13.3229 73.9915 14.5514 73.9928 15.8327V47.2455C73.9979 52.0645 72.6906 56.7939 70.2113 60.9262C67.732 65.0586 64.1743 68.4377 59.9199 70.7011L44.9964 78.6582ZM20.8327 15.8327V47.2455C20.8287 51.1885 21.8986 55.0582 23.9275 58.4392C25.9565 61.8201 28.8678 64.5847 32.3491 66.4362L44.9964 73.1803L57.6436 66.4387C61.1253 64.587 64.0369 61.822 66.0659 58.4405C68.0948 55.0591 69.1645 51.1889 69.16 47.2455V15.8327H20.8327Z" stroke="white" stroke-width="2"/>
</svg>
