<svg width="90" height="90" viewBox="0 0 90 90" fill="none" xmlns="http://www.w3.org/2000/svg">
<path d="M59.0741 11H30.9259C28.2054 11 26 13.2199 26 15.9583V74.0417C26 76.7801 28.2054 79 30.9259 79H59.0741C61.7946 79 64 76.7801 64 74.0417V15.9583C64 13.2199 61.7946 11 59.0741 11Z" stroke="#024D81" stroke-width="2" stroke-linecap="round" stroke-linejoin="round"/>
<path d="M26 68H64V74C64 76.7614 61.7614 79 59 79H31C28.2386 79 26 76.7614 26 74V68Z" stroke="#024D81" stroke-width="2"/>
<g filter="url(#filter0_d_102_205)">
<circle cx="45" cy="73" r="2" fill="#024D81"/>
<circle cx="45" cy="73" r="1.5" stroke="#024D81"/>
</g>
<path d="M39.3837 16.1748L39.3838 16.1747C39.4206 16.0949 39.4781 16.0265 39.5504 15.9767C39.6227 15.9268 39.707 15.8972 39.7946 15.8911C39.8822 15.885 39.9699 15.9026 40.0483 15.942L40.4785 15.0844L40.0483 15.942C40.1268 15.9813 40.1933 16.0411 40.2408 16.115L40.241 16.1153L60.6825 47.8858L60.6827 47.8862C60.7302 47.96 60.7571 48.0452 60.7604 48.133L61.7374 48.0962L60.7604 48.133C60.7637 48.2207 60.7433 48.3078 60.7015 48.385C60.6596 48.4622 60.5978 48.5267 60.5224 48.5718C60.4471 48.6169 60.361 48.6409 60.2732 48.6413L60.273 48.6413L44.1102 48.722L32.6116 30.8507L39.3837 16.1748ZM43.3388 64.0446L38.2367 56.1147L41.5666 53.9721L46.6688 61.902C46.9529 62.3436 47.05 62.88 46.9386 63.3931C46.8273 63.9063 46.5167 64.3542 46.0751 64.6383C45.6335 64.9224 45.0971 65.0195 44.584 64.9081C44.0708 64.7968 43.6229 64.4861 43.3388 64.0446ZM27.3998 53.0397L22.5627 45.5219C22.0648 44.748 21.8947 43.808 22.0898 42.9087C22.285 42.0093 22.8293 41.2244 23.6032 40.7264L30.2801 36.4305L38.8721 49.7843L32.1952 54.0802C31.4213 54.5782 30.4813 54.7483 29.582 54.5531C28.6827 54.358 27.8977 53.8136 27.3998 53.0397ZM56.3235 27.3432L57.1297 28.5962C57.6276 29.37 57.7977 30.31 57.6026 31.2094C57.48 31.7746 57.2193 32.2947 56.8505 32.7267L52.4487 25.8854C52.9948 25.7288 53.5761 25.7071 54.1413 25.8298C55.0406 26.0249 55.8256 26.5693 56.3235 27.3432Z" fill="white" stroke="#024D81" stroke-width="2"/>
<path d="M61.6517 16.504L61.652 16.5041C61.711 16.5298 61.7643 16.5668 61.809 16.6132L62.5153 15.9319L61.809 16.6132C61.8537 16.6595 61.8888 16.7142 61.9123 16.774L62.8246 16.4154L61.9123 16.774C61.9359 16.8339 61.9474 16.8978 61.9462 16.9622C61.9451 17.0265 61.9312 17.0899 61.9056 17.1489C61.9056 17.1489 61.9055 17.1489 61.9055 17.149L59.759 22.0733L59.7589 22.0736C59.7332 22.1326 59.6961 22.186 59.6498 22.2307C59.6035 22.2753 59.5488 22.3105 59.4889 22.334L59.8548 23.2647L59.4889 22.334C59.429 22.3576 59.365 22.3691 59.3007 22.3679L59.2826 23.3677L59.3007 22.3679C59.2363 22.3667 59.1729 22.3529 59.1138 22.3272C59.0548 22.3015 59.0015 22.2644 58.9568 22.2181C58.9121 22.1718 58.877 22.1171 58.8534 22.0572C58.8299 21.9973 58.8184 21.9334 58.8195 21.869C58.8207 21.8048 58.8345 21.7414 58.8601 21.6824C58.8602 21.6823 58.8602 21.6822 58.8602 21.6822L61.0067 16.7579L61.0069 16.7576C61.0325 16.6986 61.0696 16.6452 61.1159 16.6005C61.1622 16.5559 61.2169 16.5207 61.2768 16.4972C61.3367 16.4737 61.4006 16.4621 61.4649 16.4633C61.5293 16.4645 61.5927 16.4783 61.6517 16.504ZM65.2689 31.8937L65.2689 31.8935C65.27 31.8291 65.2837 31.7656 65.3093 31.7066C65.3349 31.6476 65.3719 31.5941 65.4182 31.5494C65.4644 31.5047 65.519 31.4695 65.5789 31.4458C65.6387 31.4222 65.7026 31.4106 65.767 31.4117L65.7674 31.4117L71.1384 31.4991C71.1385 31.4991 71.1386 31.4991 71.1387 31.4991C71.2029 31.5002 71.2663 31.5139 71.3253 31.5395L71.7232 30.6221L71.3253 31.5395C71.3844 31.5651 71.4378 31.6021 71.4825 31.6483C71.5273 31.6946 71.5625 31.7492 71.5861 31.8091C71.6098 31.869 71.6214 31.9329 71.6203 31.9972L72.6202 32.0138L71.6203 31.9972C71.6193 32.0616 71.6055 32.1251 71.5799 32.1842C71.5543 32.2432 71.5173 32.2966 71.471 32.3414C71.4248 32.3861 71.3702 32.4213 71.3103 32.445C71.2504 32.4686 71.1865 32.4802 71.1222 32.4792L71.1219 32.4792L65.7507 32.3917C65.7507 32.3917 65.7506 32.3917 65.7506 32.3917C65.6863 32.3907 65.6229 32.3769 65.5639 32.3514C65.5048 32.3258 65.4514 32.2888 65.4067 32.2425C65.3619 32.1963 65.3268 32.1417 65.3031 32.0818C65.2795 32.022 65.2679 31.958 65.2689 31.8937ZM62.1223 27.1549C62.052 27.0456 62.0279 26.9129 62.0555 26.7859C62.083 26.6589 62.1599 26.5481 62.2692 26.4778L67.2811 23.2531C67.3904 23.1828 67.5231 23.1587 67.6501 23.1863C67.777 23.2138 67.8879 23.2907 67.9582 23.4C68.0285 23.5093 68.0525 23.642 68.025 23.769C67.9974 23.8959 67.9205 24.0068 67.8113 24.0771L62.7994 27.3018C62.6901 27.3721 62.5574 27.3961 62.4304 27.3686C62.3034 27.341 62.1926 27.2642 62.1223 27.1549Z" fill="white" stroke="#024D81" stroke-width="2"/>
<defs>
<filter id="filter0_d_102_205" x="39" y="71" width="12" height="12" filterUnits="userSpaceOnUse" color-interpolation-filters="sRGB">
<feFlood flood-opacity="0" result="BackgroundImageFix"/>
<feColorMatrix in="SourceAlpha" type="matrix" values="0 0 0 0 0 0 0 0 0 0 0 0 0 0 0 0 0 0 127 0" result="hardAlpha"/>
<feOffset dy="4"/>
<feGaussianBlur stdDeviation="2"/>
<feComposite in2="hardAlpha" operator="out"/>
<feColorMatrix type="matrix" values="0 0 0 0 0 0 0 0 0 0 0 0 0 0 0 0 0 0 0.25 0"/>
<feBlend mode="normal" in2="BackgroundImageFix" result="effect1_dropShadow_102_205"/>
<feBlend mode="normal" in="SourceGraphic" in2="effect1_dropShadow_102_205" result="shape"/>
</filter>
</defs>
</svg>
