<svg width="90" height="90" viewBox="0 0 90 90" fill="none" xmlns="http://www.w3.org/2000/svg">
<path d="M56.6541 65.4167H32.9381C32.6495 64.3938 32.2284 63.4133 31.6852 62.5L62.4811 31.6709C64.2349 32.7482 66.2504 33.3233 68.3081 33.3334C70.4894 33.3404 72.6289 32.7345 74.4832 31.5846C76.3376 30.4346 77.8323 28.7867 78.7973 26.8284C79.7624 24.8701 80.1591 22.6799 79.9423 20.5071C79.7255 18.3342 78.9038 16.2659 77.5709 14.5374C76.2379 12.8089 74.4471 11.4896 72.4022 10.7296C70.3573 9.96952 68.1403 9.79927 66.0035 10.2382C63.8667 10.6771 61.8959 11.7075 60.3152 13.2123C58.7344 14.717 57.6073 16.6357 57.062 18.75H32.9381C32.2289 16.0006 30.5425 13.6045 28.1948 12.0108C25.8472 10.4171 22.9995 9.73521 20.1856 10.093C17.3717 10.4508 14.7847 11.8237 12.9096 13.9543C11.0345 16.085 10 18.8271 10 21.6667C10 24.5063 11.0345 27.2484 12.9096 29.379C14.7847 31.5097 17.3717 32.8826 20.1856 33.2404C22.9995 33.5982 25.8472 32.9163 28.1948 31.3226C30.5425 29.7289 32.2289 27.3328 32.9381 24.5834H57.062C57.3504 25.6042 57.7729 26.5871 58.3148 27.5L27.5189 58.3292C25.7651 57.2518 23.7496 56.6767 21.6919 56.6667C19.5106 56.6596 17.3711 57.2655 15.5168 58.4155C13.6624 59.5654 12.1677 61.2133 11.2027 63.1716C10.2376 65.1299 9.84091 67.3201 10.0577 69.4929C10.2746 71.6658 11.0962 73.7341 12.4291 75.4626C13.7621 77.1911 15.5529 78.5104 17.5978 79.2705C19.6427 80.0305 21.8597 80.2008 23.9965 79.7619C26.1333 79.3229 28.1041 78.2925 29.6849 76.7877C31.2656 75.283 32.3927 73.3643 32.9381 71.25H56.6541V80H79.9622V56.6667H56.6541V65.4167ZM21.6919 27.5C20.1465 27.5 18.6643 26.8854 17.5716 25.7915C16.4788 24.6975 15.8649 23.2138 15.8649 21.6667C15.8649 20.1196 16.4788 18.6359 17.5716 17.5419C18.6643 16.4479 20.1465 15.8334 21.6919 15.8334C23.2373 15.8334 24.7194 16.4479 25.8122 17.5419C26.905 18.6359 27.5189 20.1196 27.5189 21.6667C27.5189 23.2138 26.905 24.6975 25.8122 25.7915C24.7194 26.8854 23.2373 27.5 21.6919 27.5ZM68.3081 15.8334C69.8535 15.8334 71.3357 16.4479 72.4285 17.5419C73.5212 18.6359 74.1352 20.1196 74.1352 21.6667C74.1352 23.2138 73.5212 24.6975 72.4285 25.7915C71.3357 26.8854 69.8535 27.5 68.3081 27.5C66.7627 27.5 65.2806 26.8854 64.1878 25.7915C63.095 24.6975 62.4811 23.2138 62.4811 21.6667C62.4811 20.1196 63.095 18.6359 64.1878 17.5419C65.2806 16.4479 66.7627 15.8334 68.3081 15.8334V15.8334ZM21.6919 74.1667C20.1465 74.1667 18.6643 73.5521 17.5716 72.4581C16.4788 71.3642 15.8649 69.8804 15.8649 68.3333C15.8649 66.7862 16.4788 65.3025 17.5716 64.2086C18.6643 63.1146 20.1465 62.5 21.6919 62.5C23.2373 62.5 24.7194 63.1146 25.8122 64.2086C26.905 65.3025 27.5189 66.7862 27.5189 68.3333C27.5189 69.8804 26.905 71.3642 25.8122 72.4581C24.7194 73.5521 23.2373 74.1667 21.6919 74.1667ZM62.4811 62.5H74.1352V74.1667H62.4811V62.5Z" stroke="#024D81" stroke-width="2"/>
</svg>
