<svg width="90" height="90" viewBox="0 0 90 90" fill="none" xmlns="http://www.w3.org/2000/svg">
<path d="M37.2132 24.1577L37.2133 24.1576L37.2041 24.1535C36.9969 24.0608 36.8205 23.9108 36.6957 23.7212L36.278 23.996L36.6957 23.7212C36.5715 23.5324 36.5036 23.3122 36.5 23.0863V16.1126L43.75 19.162V27.2398L37.2132 24.1577ZM45 16.9576L37.5637 13.838L44.412 10.6326L44.4139 10.6317C44.5971 10.545 44.7973 10.5 45 10.5C45.2027 10.5 45.4029 10.545 45.5861 10.6317L45.588 10.6326L52.4363 13.838L45 16.9576ZM52.7959 24.1535L52.7959 24.1534L52.787 24.1576L46.25 27.2355V19.162L53.5 16.1126V23.0947C53.4948 23.3189 53.4263 23.5371 53.3025 23.7241C53.1778 23.9124 53.0021 24.0613 52.7959 24.1535Z" stroke="#024D81"/>
<path d="M17.4397 53.9554L17.4397 53.9553L17.4306 53.9512C17.3125 53.8984 17.2119 53.8129 17.1408 53.7049C17.0702 53.5976 17.0316 53.4725 17.0293 53.3441V48.7116L21.7809 50.7102V56.0023L17.4397 53.9554ZM22.8038 48.9086L17.9928 46.8903L22.458 44.8003L22.458 44.8003L22.4599 44.7994C22.5674 44.7486 22.6849 44.7222 22.8038 44.7222C22.9227 44.7222 23.0401 44.7486 23.1476 44.7994L23.1476 44.7994L23.1495 44.8003L27.6147 46.8903L22.8038 48.9086ZM28.177 53.9512L28.177 53.9511L28.1681 53.9553L23.8266 55.9994V50.7102L28.5782 48.7116V53.3494C28.575 53.4766 28.536 53.6004 28.4657 53.7065C28.3946 53.8138 28.2945 53.8987 28.177 53.9512Z" stroke="#024D81"/>
<path d="M39.4006 65.4586L39.4007 65.4585L39.3915 65.4544C39.2734 65.4016 39.1729 65.3161 39.1018 65.208C39.0312 65.1008 38.9925 64.9757 38.9902 64.8473V60.2148L43.7418 62.2133V67.5055L39.4006 65.4586ZM44.7647 60.4118L39.9537 58.3935L44.4189 56.3035L44.4189 56.3035L44.4209 56.3026C44.5284 56.2517 44.6458 56.2253 44.7647 56.2253C44.8836 56.2253 45.001 56.2517 45.1085 56.3026L45.1085 56.3026L45.1105 56.3035L49.5757 58.3935L44.7647 60.4118ZM50.138 65.4544L50.1379 65.4543L50.129 65.4585L45.7876 67.5026V62.2133L50.5392 60.2148V64.8526C50.5359 64.9798 50.4969 65.1036 50.4266 65.2097C50.3556 65.317 50.2554 65.4019 50.138 65.4544Z" stroke="#024D81"/>
<path d="M32.0803 76.9618L32.0804 76.9617L32.0712 76.9576C31.9531 76.9048 31.8525 76.8193 31.7814 76.7112C31.7109 76.6039 31.6722 76.4788 31.6699 76.3505V71.7179L36.4215 73.7165V79.0086L32.0803 76.9618ZM37.4444 71.9149L32.6334 69.8967L37.0986 67.8067L37.0986 67.8067L37.1006 67.8058C37.208 67.7549 37.3255 67.7285 37.4444 67.7285C37.5633 67.7285 37.6807 67.7549 37.7882 67.8058L37.7882 67.8058L37.7902 67.8067L42.2553 69.8967L37.4444 71.9149ZM42.8176 76.9576L42.8176 76.9575L42.8087 76.9617L38.4673 79.0058V73.7165L43.2189 71.7179V76.3558C43.2156 76.483 43.1766 76.6067 43.1063 76.7129C43.0353 76.8202 42.9351 76.905 42.8176 76.9576Z" stroke="#024D81"/>
<path d="M17.4397 53.9554L17.4397 53.9553L17.4306 53.9512C17.3125 53.8984 17.2119 53.8129 17.1408 53.7049C17.0702 53.5976 17.0316 53.4725 17.0293 53.3441V48.7116L21.7809 50.7102V56.0023L17.4397 53.9554ZM22.8038 48.9086L17.9928 46.8903L22.458 44.8003L22.458 44.8003L22.4599 44.7994C22.5674 44.7486 22.6849 44.7222 22.8038 44.7222C22.9227 44.7222 23.0401 44.7486 23.1476 44.7994L23.1476 44.7994L23.1495 44.8003L27.6147 46.8903L22.8038 48.9086ZM28.177 53.9512L28.177 53.9511L28.1681 53.9553L23.8266 55.9994V50.7102L28.5782 48.7116V53.3494C28.575 53.4766 28.536 53.6004 28.4657 53.7065C28.3946 53.8138 28.2945 53.8987 28.177 53.9512Z" stroke="#024D81"/>
<path d="M39.4006 65.4586L39.4007 65.4585L39.3915 65.4544C39.2734 65.4016 39.1729 65.3161 39.1018 65.208C39.0312 65.1008 38.9925 64.9757 38.9902 64.8473V60.2148L43.7418 62.2133V67.5055L39.4006 65.4586ZM44.7647 60.4118L39.9537 58.3935L44.4189 56.3035L44.4189 56.3035L44.4209 56.3026C44.5284 56.2517 44.6458 56.2253 44.7647 56.2253C44.8836 56.2253 45.001 56.2517 45.1085 56.3026L45.1085 56.3026L45.1105 56.3035L49.5757 58.3935L44.7647 60.4118ZM50.138 65.4544L50.1379 65.4543L50.129 65.4585L45.7876 67.5026V62.2133L50.5392 60.2148V64.8526C50.5359 64.9798 50.4969 65.1036 50.4266 65.2097C50.3556 65.317 50.2554 65.4019 50.138 65.4544Z" stroke="#024D81"/>
<path d="M61.3616 53.9554L61.3616 53.9553L61.3524 53.9512C61.2343 53.8984 61.1338 53.8129 61.0627 53.7049C60.9921 53.5976 60.9535 53.4725 60.9512 53.3441V48.7116L65.7028 50.7102V56.0023L61.3616 53.9554ZM66.7256 48.9086L61.9147 46.8903L66.3799 44.8003L66.3799 44.8003L66.3818 44.7994C66.4893 44.7486 66.6067 44.7222 66.7256 44.7222C66.8446 44.7222 66.962 44.7486 67.0695 44.7994L67.0695 44.7994L67.0714 44.8003L71.5366 46.8903L66.7256 48.9086ZM72.0989 53.9512L72.0989 53.9511L72.0899 53.9553L67.7485 55.9994V50.7102L72.5001 48.7116V53.3494C72.4968 53.4766 72.4579 53.6004 72.3876 53.7065C72.3165 53.8138 72.2164 53.8987 72.0989 53.9512Z" stroke="#024D81"/>
<path d="M24.76 65.4586L24.76 65.4585L24.7509 65.4544C24.6328 65.4016 24.5322 65.3161 24.4611 65.208C24.3906 65.1008 24.3519 64.9757 24.3496 64.8473V60.2148L29.1012 62.2133V67.5055L24.76 65.4586ZM30.1241 60.4118L25.3131 58.3935L29.7783 56.3035L29.7783 56.3035L29.7803 56.3026C29.8877 56.2517 30.0052 56.2253 30.1241 56.2253C30.243 56.2253 30.3604 56.2517 30.4679 56.3026L30.4679 56.3026L30.4698 56.3035L34.935 58.3935L30.1241 60.4118ZM35.4973 65.4544L35.4973 65.4543L35.4884 65.4585L31.1469 67.5026V62.2133L35.8985 60.2148V64.8526C35.8953 64.9798 35.8563 65.1036 35.786 65.2097C35.7149 65.317 35.6148 65.4019 35.4973 65.4544Z" stroke="#024D81"/>
<path d="M46.7209 76.9618L46.721 76.9617L46.7118 76.9576C46.5937 76.9048 46.4932 76.8193 46.4221 76.7112C46.3515 76.6039 46.3128 76.4788 46.3105 76.3505V71.7179L51.0621 73.7165V79.0086L46.7209 76.9618ZM52.085 71.9149L47.2741 69.8967L51.7392 67.8067L51.7392 67.8067L51.7412 67.8058C51.8487 67.7549 51.9661 67.7285 52.085 67.7285C52.2039 67.7285 52.3214 67.7549 52.4288 67.8058L52.4288 67.8058L52.4308 67.8067L56.896 69.8967L52.085 71.9149ZM57.4583 76.9576L57.4582 76.9575L57.4493 76.9617L53.1079 79.0058V73.7165L57.8595 71.7179V76.3558C57.8562 76.483 57.8172 76.6067 57.7469 76.7129C57.6759 76.8202 57.5758 76.905 57.4583 76.9576Z" stroke="#024D81"/>
<path d="M46.7209 53.9554L46.721 53.9553L46.7118 53.9512C46.5937 53.8984 46.4932 53.8129 46.4221 53.7049C46.3515 53.5976 46.3128 53.4725 46.3105 53.3441V48.7116L51.0621 50.7102V56.0023L46.7209 53.9554ZM52.085 48.9086L47.2741 46.8903L51.7392 44.8003L51.7392 44.8003L51.7412 44.7994C51.8487 44.7486 51.9661 44.7222 52.085 44.7222C52.2039 44.7222 52.3214 44.7486 52.4288 44.7994L52.4288 44.7994L52.4308 44.8003L56.896 46.8903L52.085 48.9086ZM57.4583 53.9512L57.4582 53.9511L57.4493 53.9553L53.1079 55.9994V50.7102L57.8595 48.7116V53.3494C57.8562 53.4766 57.8172 53.6004 57.7469 53.7065C57.6759 53.8138 57.5758 53.8987 57.4583 53.9512Z" stroke="#024D81"/>
<path d="M32.0803 53.9554L32.0804 53.9553L32.0712 53.9512C31.9531 53.8984 31.8525 53.8129 31.7814 53.7049C31.7109 53.5976 31.6722 53.4725 31.6699 53.3441V48.7116L36.4215 50.7102V56.0023L32.0803 53.9554ZM37.4444 48.9086L32.6334 46.8903L37.0986 44.8003L37.0986 44.8003L37.1006 44.7994C37.208 44.7486 37.3255 44.7222 37.4444 44.7222C37.5633 44.7222 37.6807 44.7486 37.7882 44.7994L37.7882 44.7994L37.7902 44.8003L42.2553 46.8903L37.4444 48.9086ZM42.8176 53.9512L42.8176 53.9511L42.8087 53.9553L38.4673 55.9994V50.7102L43.2189 48.7116V53.3494C43.2156 53.4766 43.1766 53.6004 43.1063 53.7065C43.0353 53.8138 42.9351 53.8987 42.8176 53.9512Z" stroke="#024D81"/>
<path d="M54.0393 65.4586L54.0393 65.4585L54.0302 65.4544C53.9121 65.4016 53.8115 65.3161 53.7404 65.208C53.6698 65.1008 53.6312 64.9757 53.6289 64.8473V60.2148L58.3805 62.2133V67.5055L54.0393 65.4586ZM59.4034 60.4118L54.5924 58.3935L59.0576 56.3035L59.0576 56.3035L59.0595 56.3026C59.167 56.2517 59.2845 56.2253 59.4034 56.2253C59.5223 56.2253 59.6397 56.2517 59.7472 56.3026L59.7472 56.3026L59.7491 56.3035L64.2143 58.3935L59.4034 60.4118ZM64.7766 65.4544L64.7766 65.4543L64.7677 65.4585L60.4262 67.5026V62.2133L65.1778 60.2148V64.8526C65.1746 64.9798 65.1356 65.1036 65.0653 65.2097C64.9942 65.317 64.8941 65.4019 64.7766 65.4544Z" stroke="#024D81"/>
<path d="M44.166 32.6667H45.0827V37.9584H44.166V32.6667Z" fill="#024D81" stroke="#024D81" stroke-width="2"/>
<path d="M42.25 38.5H47L44.625 41.6667L42.25 38.5Z" fill="#024D81" stroke="#024D81" stroke-width="2"/>
</svg>
