<svg width="90" height="90" viewBox="0 0 90 90" fill="none" xmlns="http://www.w3.org/2000/svg">
<path d="M76.1437 62.2259C76.2964 62.4299 76.4079 62.6647 76.4704 62.9164C76.4705 62.9169 76.4706 62.9173 76.4707 62.9178L77.1877 65.8514L77.1899 65.8601L77.9438 68.8292C77.944 68.83 77.9442 68.8308 77.9444 68.8316C78.0033 69.0709 78.0156 69.3202 77.9804 69.5648C77.945 69.8101 77.8628 70.0449 77.7391 70.2557C77.6155 70.4664 77.4533 70.6486 77.2627 70.7925C77.0723 70.9364 76.8572 71.0395 76.63 71.0968L76.6168 71.1002L76.6036 71.1039L62.8923 74.9676L49.1893 78.829C49.188 78.8294 49.1867 78.8297 49.1853 78.8301C48.823 78.9284 48.4506 78.9811 48.0763 78.9872L48.0507 78.9876L48.0251 78.9893C47.6462 79.0148 47.2657 78.9946 46.8913 78.929L35.8456 76.461L24.7839 73.9895C24.3861 73.8952 24.0257 73.6679 23.7613 73.3379C23.4981 73.0093 23.3458 72.5981 23.3317 72.1676V56.7274H23.3318L23.3316 56.7151C23.3263 56.2862 23.4738 55.8731 23.7415 55.5523L23.7549 55.5363L23.7676 55.5197C24.0244 55.1845 24.3805 54.9521 24.7755 54.8538L42.7784 52.5808L42.7866 52.5798L42.7948 52.5786L60.0086 50.1157L60.3464 51.3827L60.877 53.3728C60.8576 53.8719 60.7118 54.3567 60.4548 54.7793C60.1948 55.2068 59.8315 55.5533 59.4039 55.7873L51.9618 57.6905L44.4073 59.6223L41.4829 60.3702L44.2754 61.5163L50.3945 64.0277L56.5136 66.5391L56.8352 66.6711L57.1693 66.5752L65.7814 64.1024L65.7889 64.1002L65.7963 64.098L74.1818 61.5479L74.1843 61.5471C74.4137 61.4767 74.6542 61.4556 74.8913 61.4849C75.1284 61.5142 75.3581 61.5933 75.566 61.7184L75.5748 61.7237L75.5837 61.7289C75.7999 61.8529 75.9907 62.0217 76.1437 62.2259ZM17.6678 53.8637V75.046H12V53.8637H17.6678Z" stroke="#024D81" stroke-width="2"/>
<path d="M35.3763 35.5008L35.3763 35.5009L35.3725 35.5034C35.2315 35.5981 35.1665 35.6891 35.1359 35.7684C35.1051 35.8483 35.0913 35.9628 35.1321 36.1343L35.1321 36.1343L35.1339 36.1423L35.8771 39.5127L35.989 40.0201L35.4776 40.1124C33.0142 40.5567 30.7178 40.1051 28.6141 38.7615C27.5243 38.0656 26.6174 37.1871 25.8969 36.1284C25.1811 35.0765 24.6896 33.9553 24.4274 32.7664C24.1653 31.5775 24.1396 30.3536 24.3467 29.0982C24.5551 27.8347 25.0085 26.6562 25.7045 25.5665C26.4005 24.4768 27.2789 23.5698 28.3377 22.8493C29.3895 22.1335 30.5108 21.642 31.6996 21.3799C32.8885 21.1177 34.1125 21.0921 35.3678 21.2991C36.6314 21.5075 37.8098 21.9609 38.8995 22.6569C39.0069 22.7255 39.1154 22.794 39.2244 22.8628C40.2769 23.527 41.3825 24.2247 42.1049 25.4126C42.4741 26.0197 42.6756 26.4262 42.7887 26.8827C42.8764 27.2365 42.9075 27.6157 42.948 28.1109C42.9569 28.2192 42.9663 28.3331 42.9767 28.4535L42.9773 28.4603C42.9814 28.466 42.989 28.4755 43.0024 28.4884C43.0434 28.5097 43.0666 28.5081 43.0836 28.5053L43.1243 28.4985L43.1655 28.4985L46.8031 28.4985C46.8033 28.4982 46.8035 28.4979 46.8037 28.4976L46.8049 28.4985L46.8037 28.4976C46.8174 28.478 46.8228 28.4633 46.8192 28.4298L46.8164 28.4033L46.8164 28.3767C46.8164 26.5883 46.141 25.3488 45.0664 23.6534C44.043 22.0387 42.4803 20.7586 40.7981 19.6842C39.3047 18.7304 37.6946 18.1127 35.9642 17.8288C34.2249 17.5434 32.5515 17.5805 30.9402 17.9359C29.3288 18.2912 27.7951 18.9613 26.3371 19.9516C24.8866 20.937 23.6856 22.1746 22.7318 23.6679C21.778 25.1613 21.1603 26.7714 20.8764 28.5019C20.591 30.2411 20.6281 31.9145 20.9834 33.5258C21.3387 35.1372 22.0088 36.671 22.9992 38.1289C23.9845 39.5795 25.2221 40.7805 26.7155 41.7342C28.1216 42.6322 29.6508 43.2356 31.3068 43.545C32.9644 43.8548 34.6128 43.853 36.2551 43.5402L36.7305 43.4497L36.8365 43.9218L37.5461 47.0819L37.5482 47.091L37.5499 47.1001C37.5802 47.2634 37.6379 47.3582 37.7009 47.4188C37.7649 47.4803 37.8699 47.5405 38.0511 47.5733C38.2206 47.5995 38.3375 47.5792 38.4225 47.5414C38.5076 47.5036 38.5992 47.431 38.6898 47.2892L42.9542 40.6121C43.0452 40.4696 43.0732 40.3221 43.0325 40.1374C42.9918 39.9527 42.9043 39.8305 42.7618 39.7396L36.0847 35.4752C35.945 35.3859 35.8328 35.3598 35.7396 35.3623C35.6449 35.3649 35.5259 35.3984 35.3763 35.5008Z" stroke="#024D81"/>
<path d="M55.6807 25.1636L55.6807 25.1636L55.685 25.162C55.8445 25.1034 55.9291 25.0305 55.9777 24.9607C56.0266 24.8903 56.0671 24.7824 56.0682 24.6061L56.0681 24.6061L56.0683 24.5979L56.1456 21.1475L56.1572 20.6279L56.6759 20.6596C59.1744 20.8121 61.2982 21.7954 63.0233 23.5995C63.9169 24.5341 64.5897 25.6025 65.0386 26.8019C65.4845 27.9935 65.6961 29.1993 65.6688 30.4165C65.6416 31.6336 65.3762 32.8287 64.8774 33.9992C64.3753 35.1773 63.6554 36.2145 62.7208 37.1082C61.7863 38.0018 60.7178 38.6745 59.5184 39.1234C58.3268 39.5694 57.121 39.7809 55.9039 39.7537C54.6868 39.7264 53.4916 39.4611 52.3212 38.9623C51.1431 38.4602 50.1058 37.7402 49.2122 36.8057C48.1902 35.737 47.4555 34.5001 47.0117 33.0998C46.5675 31.6984 46.4591 30.2592 46.6853 28.7882L46.6863 28.7815C46.6848 28.7776 46.6823 28.7721 46.6784 28.7649C46.6668 28.7589 46.6514 28.7521 46.6323 28.7451C46.5856 28.7281 46.5378 28.718 46.5051 28.7141L43.2316 28.7141L43.2113 28.7141L43.1911 28.7124L43.1625 28.71L43.1368 28.7079C43.1293 28.7072 43.1225 28.7067 43.116 28.7062C43.1156 28.7084 43.1152 28.7107 43.1149 28.713C42.8878 30.642 43.0845 32.5237 43.7054 34.3634C44.327 36.2051 45.3117 37.8304 46.6628 39.2434C47.8875 40.5241 49.3051 41.506 50.9189 42.1922C52.5408 42.8818 54.1753 43.2426 55.8249 43.2796C57.4746 43.3165 59.1235 43.0292 60.7747 42.4129C62.4176 41.7996 63.8778 40.8821 65.1585 39.6575C66.4392 38.4329 67.4211 37.0152 68.1073 35.4015C68.797 33.7795 69.1577 32.1451 69.1947 30.4954C69.2316 28.8458 68.9444 27.1968 68.328 25.5456C67.7147 23.9028 66.7972 22.4426 65.5726 21.1618C64.4196 19.956 63.0771 19.0072 61.5418 18.3139C60.0049 17.6199 58.4031 17.2308 56.7334 17.1452L56.2501 17.1204L56.2591 16.6366L56.3191 13.3984L56.3193 13.3891L56.3198 13.3798C56.329 13.2139 56.2955 13.1082 56.2486 13.0344C56.201 12.9594 56.1133 12.876 55.9451 12.8012C55.7867 12.7356 55.6682 12.7276 55.5767 12.7441C55.485 12.7607 55.3788 12.8095 55.2572 12.9258L49.531 18.4011C49.4089 18.518 49.3466 18.6547 49.3424 18.8438C49.3382 19.0329 49.3942 19.1722 49.511 19.2944L54.9864 25.0206C55.101 25.1404 55.2038 25.1924 55.295 25.212C55.3875 25.232 55.5111 25.2277 55.6807 25.1636Z" stroke="#024D81"/>
</svg>
