<svg width="90" height="90" viewBox="0 0 90 90" fill="none" xmlns="http://www.w3.org/2000/svg">
<path d="M31.8413 52.4027L31.8413 52.4027L31.8375 52.4053C31.6149 52.5548 31.4945 52.7111 31.4347 52.8662C31.3746 53.022 31.3577 53.2228 31.4215 53.4912L31.4216 53.4912L31.4233 53.4992L32.4576 58.1898L32.5695 58.6973L32.0581 58.7896C28.6781 59.3992 25.5322 58.7804 22.6462 56.9372C21.1517 55.9827 19.9087 54.7787 18.9211 53.3275C17.9382 51.8831 17.2646 50.3455 16.9054 48.7166C16.5462 47.0876 16.5107 45.4093 16.795 43.6855C17.0807 41.9535 17.702 40.3384 18.6565 38.8439C19.611 37.3493 20.815 36.1064 22.2663 35.1188C23.7107 34.1358 25.2482 33.4623 26.8772 33.1031C28.5061 32.7439 30.1844 32.7083 31.9082 32.9927C33.6403 33.2784 35.2553 33.8997 36.7499 34.8542C36.8993 34.9496 37.0497 35.0445 37.2003 35.1397C38.67 36.0678 40.1688 37.0143 41.1489 38.626C41.6597 39.4661 41.9278 40.0113 42.0779 40.6173C42.1957 41.093 42.2374 41.601 42.2939 42.2894C42.3064 42.4414 42.3196 42.6022 42.3345 42.7734L42.3355 42.7845L42.3359 42.7956C42.3366 42.8117 42.3415 42.8683 42.4496 42.9648C42.5533 43.0248 42.635 43.0341 42.7104 43.0216L42.7511 43.0149L42.7923 43.0149L47.9082 43.0149C47.949 43.0033 47.9813 42.9802 48.0165 42.9297C48.0632 42.8626 48.0819 42.7948 48.0721 42.7025L48.0693 42.676L48.0693 42.6494C48.0693 40.1003 47.101 38.3339 45.6033 35.971C44.1568 33.6888 41.9547 31.8888 39.603 30.3869C37.5024 29.0453 35.2365 28.1759 32.8018 27.7764C30.3582 27.3755 28.0042 27.4273 25.7359 27.9274C23.4676 28.4276 21.3102 29.3706 19.2618 30.7621C17.2209 32.1485 15.5308 33.8902 14.1892 35.9908C12.8476 38.0913 11.9782 40.3572 11.5788 42.7919C11.1778 45.2355 11.2296 47.5895 11.7298 49.8578C12.2299 52.1261 13.173 54.2836 14.5644 56.3319C15.9508 58.3729 17.6925 60.063 19.7931 61.4045C21.7713 62.668 23.9232 63.5169 26.2523 63.9521C28.583 64.3877 30.9018 64.3852 33.2117 63.9453L33.687 63.8547L33.7931 64.3269L34.7807 68.7248L34.7827 68.7339L34.7844 68.7431C34.8326 69.0027 34.929 69.1743 35.0514 69.292C35.1747 69.4106 35.3598 69.5083 35.6421 69.559C35.9088 69.6006 36.1115 69.5713 36.2709 69.5005C36.4307 69.4294 36.5857 69.2994 36.7285 69.0758L42.6634 59.7832C42.819 59.5395 42.866 59.2808 42.7985 58.9749C42.7311 58.669 42.5796 58.454 42.3359 58.2984L33.0433 52.3635C32.8218 52.222 32.6276 52.1709 32.4521 52.1757C32.2752 52.1806 32.0736 52.2436 31.8413 52.4027Z" stroke="#024D81"/>
<path d="M60.2792 38.361L60.2792 38.361L60.2835 38.3594C60.5353 38.267 60.6892 38.1437 60.7842 38.0072C60.8795 37.8701 60.9435 37.679 60.9452 37.4031L60.9451 37.4031L60.9453 37.3949L61.0528 32.5928L61.0645 32.0733L61.5832 32.1049C65.0113 32.3142 67.9207 33.6613 70.2874 36.1364C71.5129 37.418 72.4349 38.8824 73.0502 40.5265C73.6625 42.1628 73.9523 43.8163 73.9149 45.4839C73.8776 47.1516 73.5141 48.7904 72.8291 50.3976C72.1409 52.0125 71.1543 53.4342 69.8726 54.6597C68.5909 55.8853 67.1265 56.8072 65.4824 57.4226C63.8461 58.0349 62.1927 58.3247 60.525 58.2873C58.8574 58.25 57.2185 57.8865 55.6113 57.2015C53.9964 56.5132 52.5748 55.5267 51.3492 54.245C49.9475 52.779 48.9404 51.0837 48.3319 49.1636C47.7229 47.2425 47.5742 45.2699 47.8845 43.252L47.8862 43.241L47.8884 43.2301C47.8915 43.2147 47.8998 43.1609 47.8239 43.0473C47.8014 43.031 47.7569 43.0047 47.6843 42.9782C47.6001 42.9475 47.5133 42.9295 47.4509 42.9232L42.8844 42.9232L42.8641 42.9232L42.8438 42.9215C42.8268 42.9201 42.8114 42.9188 42.7972 42.9176C42.7628 42.9147 42.7347 42.9123 42.704 42.9106C42.6636 42.9083 42.6356 42.9083 42.6152 42.9098C42.6141 42.9099 42.6131 42.91 42.6121 42.9101C42.5657 42.9584 42.5386 43.0143 42.5277 43.0923C42.2078 45.8066 42.4844 48.4554 43.3581 51.0439C44.2324 53.6344 45.618 55.9211 47.5181 57.9083C49.2406 59.7097 51.2357 61.0916 53.5062 62.0571C55.7851 63.026 58.0842 63.534 60.4064 63.586C62.7286 63.638 65.0481 63.2334 67.368 62.3675C69.6795 61.5046 71.7344 60.2134 73.5359 58.4908C75.3373 56.7683 76.7192 54.7733 77.6847 52.5027C78.6537 50.2239 79.1616 47.9248 79.2136 45.6026C79.2656 43.2804 78.8611 40.9608 77.9951 38.6409C77.1322 36.3294 75.841 34.2745 74.1184 32.4731C72.4962 30.7766 70.6071 29.4415 68.4476 28.4664C66.2866 27.4906 64.0335 26.9431 61.6851 26.8227L61.2019 26.798L61.2108 26.3141L61.2943 21.8074L61.2945 21.7981L61.295 21.7888C61.3097 21.5251 61.2568 21.3356 61.1658 21.1922C61.0741 21.0478 60.9175 20.909 60.6552 20.7928C60.406 20.6891 60.2022 20.6695 60.0305 20.7005C59.8584 20.7317 59.677 20.8212 59.4853 21.0045L51.5161 28.6247C51.3071 28.8245 51.2001 29.0648 51.1931 29.3779C51.1861 29.6911 51.2822 29.9359 51.482 30.1448L59.1022 38.1141C59.2838 38.304 59.4604 38.3997 59.632 38.4367C59.805 38.4739 60.0158 38.4605 60.2792 38.361Z" stroke="#024D81"/>
<path d="M22.8892 49H20.5689V42.4545H22.9084C23.5668 42.4545 24.1335 42.5856 24.6087 42.8477C25.0838 43.1076 25.4492 43.4815 25.7049 43.9695C25.9627 44.4574 26.0916 45.0412 26.0916 45.7209C26.0916 46.4027 25.9627 46.9886 25.7049 47.4787C25.4492 47.9687 25.0817 48.3448 24.6023 48.6069C24.125 48.869 23.554 49 22.8892 49ZM21.9528 47.8143H22.8317C23.2408 47.8143 23.5849 47.7418 23.864 47.5969C24.1452 47.4499 24.3562 47.223 24.4968 46.9162C24.6396 46.6072 24.7109 46.2088 24.7109 45.7209C24.7109 45.2372 24.6396 44.842 24.4968 44.5352C24.3562 44.2283 24.1463 44.0025 23.8672 43.8576C23.5881 43.7127 23.244 43.6403 22.8349 43.6403H21.9528V47.8143ZM29.3284 49.0959C28.8234 49.0959 28.3888 48.9936 28.0244 48.7891C27.6622 48.5824 27.3831 48.2905 27.1871 47.9134C26.991 47.5341 26.893 47.0856 26.893 46.5678C26.893 46.0629 26.991 45.6197 27.1871 45.2383C27.3831 44.8569 27.659 44.5597 28.0148 44.3466C28.3728 44.1335 28.7925 44.027 29.2741 44.027C29.5979 44.027 29.8994 44.0792 30.1785 44.1836C30.4598 44.2859 30.7048 44.4403 30.9136 44.647C31.1246 44.8537 31.2886 45.1136 31.4058 45.4268C31.523 45.7379 31.5816 46.1023 31.5816 46.5199V46.8938H27.4363V46.0501H30.3C30.3 45.854 30.2574 45.6804 30.1721 45.5291C30.0869 45.3778 29.9687 45.2596 29.8174 45.1744C29.6682 45.087 29.4946 45.0433 29.2964 45.0433C29.0898 45.0433 28.9065 45.0913 28.7467 45.1871C28.589 45.2809 28.4655 45.4077 28.376 45.5675C28.2865 45.7251 28.2407 45.9009 28.2385 46.0948V46.897C28.2385 47.1399 28.2833 47.3498 28.3728 47.5266C28.4644 47.7035 28.5933 47.8398 28.7595 47.9357C28.9257 48.0316 29.1228 48.0795 29.3508 48.0795C29.502 48.0795 29.6405 48.0582 29.7662 48.0156C29.892 47.973 29.9996 47.9091 30.089 47.8239C30.1785 47.7386 30.2467 47.6342 30.2936 47.5107L31.5528 47.5938C31.4889 47.8963 31.3579 48.1605 31.1597 48.3864C30.9637 48.6101 30.7101 48.7848 30.3991 48.9105C30.0901 49.0341 29.7332 49.0959 29.3284 49.0959ZM36.915 44.0909L35.1987 49H33.6646L31.9483 44.0909H33.3865L34.4061 47.6033H34.4572L35.4735 44.0909H36.915Z" fill="#024D81"/>
<path d="M57.5838 45.7273C57.5838 46.4411 57.4485 47.0483 57.1779 47.549C56.9094 48.0497 56.543 48.4322 56.0785 48.6964C55.6161 48.9585 55.0962 49.0895 54.5188 49.0895C53.9371 49.0895 53.4151 48.9574 52.9528 48.6932C52.4904 48.429 52.125 48.0465 51.8565 47.5458C51.5881 47.0451 51.4538 46.4389 51.4538 45.7273C51.4538 45.0135 51.5881 44.4062 51.8565 43.9055C52.125 43.4048 52.4904 43.0234 52.9528 42.7614C53.4151 42.4972 53.9371 42.3651 54.5188 42.3651C55.0962 42.3651 55.6161 42.4972 56.0785 42.7614C56.543 43.0234 56.9094 43.4048 57.1779 43.9055C57.4485 44.4062 57.5838 45.0135 57.5838 45.7273ZM56.1808 45.7273C56.1808 45.2649 56.1115 44.875 55.973 44.5575C55.8366 44.2401 55.6438 43.9993 55.3945 43.8352C55.1452 43.6712 54.8533 43.5891 54.5188 43.5891C54.1843 43.5891 53.8924 43.6712 53.6431 43.8352C53.3938 43.9993 53.1999 44.2401 53.0614 44.5575C52.9251 44.875 52.8569 45.2649 52.8569 45.7273C52.8569 46.1896 52.9251 46.5795 53.0614 46.897C53.1999 47.2145 53.3938 47.4553 53.6431 47.6193C53.8924 47.7834 54.1843 47.8654 54.5188 47.8654C54.8533 47.8654 55.1452 47.7834 55.3945 47.6193C55.6438 47.4553 55.8366 47.2145 55.973 46.897C56.1115 46.5795 56.1808 46.1896 56.1808 45.7273ZM58.5834 50.8409V44.0909H59.9257V44.9155H59.9864C60.0461 44.7834 60.1324 44.6491 60.2453 44.5128C60.3604 44.3743 60.5095 44.2592 60.6927 44.1676C60.8781 44.0739 61.1082 44.027 61.3831 44.027C61.741 44.027 62.0713 44.1207 62.3738 44.3082C62.6764 44.4936 62.9182 44.7738 63.0993 45.1488C63.2805 45.5217 63.371 45.9893 63.371 46.5518C63.371 47.0994 63.2826 47.5618 63.1057 47.9389C62.931 48.3139 62.6924 48.5984 62.3898 48.7923C62.0894 48.984 61.7528 49.0799 61.3799 49.0799C61.1157 49.0799 60.8909 49.0362 60.7055 48.9489C60.5223 48.8615 60.3721 48.7518 60.2549 48.6197C60.1377 48.4854 60.0482 48.3501 59.9864 48.2138H59.9449V50.8409H58.5834ZM59.9161 46.5455C59.9161 46.8374 59.9566 47.092 60.0376 47.3093C60.1185 47.5266 60.2357 47.696 60.3891 47.8175C60.5425 47.9368 60.729 47.9964 60.9484 47.9964C61.17 47.9964 61.3575 47.9357 61.5109 47.8143C61.6643 47.6907 61.7805 47.5202 61.8593 47.3029C61.9403 47.0835 61.9807 46.831 61.9807 46.5455C61.9807 46.2621 61.9413 46.0128 61.8625 45.7976C61.7836 45.5824 61.6675 45.4141 61.5141 45.2926C61.3607 45.1712 61.1721 45.1104 60.9484 45.1104C60.7268 45.1104 60.5393 45.169 60.3859 45.2862C60.2346 45.4034 60.1185 45.5696 60.0376 45.7848C59.9566 46 59.9161 46.2536 59.9161 46.5455ZM68.3632 45.4908L67.1167 45.5675C67.0954 45.4609 67.0496 45.3651 66.9793 45.2798C66.909 45.1925 66.8163 45.1232 66.7013 45.0721C66.5883 45.0188 66.453 44.9922 66.2954 44.9922C66.0844 44.9922 65.9065 45.0369 65.7616 45.1264C65.6167 45.2138 65.5443 45.331 65.5443 45.478C65.5443 45.5952 65.5912 45.6942 65.6849 45.7752C65.7787 45.8562 65.9395 45.9212 66.1675 45.9702L67.056 46.1491C67.5333 46.2472 67.8891 46.4048 68.1235 46.6222C68.3579 46.8395 68.4751 47.125 68.4751 47.4787C68.4751 47.8004 68.3802 48.0827 68.1906 48.3256C68.0031 48.5685 67.7453 48.7582 67.4172 48.8945C67.0912 49.0288 66.7151 49.0959 66.289 49.0959C65.6391 49.0959 65.1214 48.9606 64.7357 48.69C64.3522 48.4173 64.1274 48.0465 64.0613 47.5778L65.4005 47.5075C65.441 47.7056 65.539 47.8569 65.6945 47.9613C65.8501 48.0636 66.0493 48.1147 66.2922 48.1147C66.5308 48.1147 66.7226 48.0689 66.8675 47.9773C67.0145 47.8835 67.089 47.7631 67.0912 47.6161C67.089 47.4925 67.0368 47.3913 66.9346 47.3125C66.8323 47.2315 66.6746 47.1697 66.4616 47.1271L65.6114 46.9577C65.132 46.8619 64.7751 46.6957 64.5407 46.4592C64.3085 46.2227 64.1924 45.9212 64.1924 45.5547C64.1924 45.2393 64.2776 44.9677 64.4481 44.7397C64.6206 44.5117 64.8625 44.3359 65.1736 44.2124C65.4868 44.0888 65.8532 44.027 66.273 44.027C66.893 44.027 67.3809 44.158 67.7368 44.4201C68.0947 44.6822 68.3035 45.0391 68.3632 45.4908Z" fill="#024D81"/>
</svg>
