<svg width="90" height="90" viewBox="0 0 90 90" fill="none" xmlns="http://www.w3.org/2000/svg">
<path d="M13.875 59.125H30.625V75.875H13.875V59.125ZM66.6446 35.4804L56.1446 24.9804C55.7851 24.6209 55.7851 24.1291 56.1446 23.7696L66.6446 13.2696C67.0041 12.9101 67.4959 12.9101 67.8554 13.2696L78.3554 23.7696C78.7149 24.1291 78.7149 24.6209 78.3554 24.9804L67.8554 35.4804C67.4959 35.8399 67.0041 35.8399 66.6446 35.4804Z" stroke="#024D81" stroke-width="2"/>
<path d="M32.5 24.375C32.5 30.0359 27.9109 34.625 22.25 34.625C16.5891 34.625 12 30.0359 12 24.375C12 18.7141 16.5891 14.125 22.25 14.125C27.9109 14.125 32.5 18.7141 32.5 24.375Z" stroke="#024D81" stroke-width="2"/>
<path d="M77.5 67.5C77.5 73.1609 72.9109 77.75 67.25 77.75C61.5891 77.75 57 73.1609 57 67.5C57 61.8391 61.5891 57.25 67.25 57.25C72.9109 57.25 77.5 61.8391 77.5 67.5Z" stroke="#024D81" stroke-width="2"/>
<path d="M21.375 46H23.125V53.375H21.375V46Z" fill="#024D81" stroke="#024D81" stroke-width="2"/>
<path d="M25.875 45.875H18.625L22.25 41.0417L25.875 45.875Z" fill="#024D81" stroke="#024D81" stroke-width="2"/>
<path d="M38.25 23.5H45.625V25.25H38.25V23.5Z" fill="#024D81" stroke="#024D81" stroke-width="2"/>
<path d="M45.75 28V20.75L50.5833 24.375L45.75 28Z" fill="#024D81" stroke="#024D81" stroke-width="2"/>
<path d="M66.375 40.375H68.125V47.75H66.375V40.375Z" fill="#024D81" stroke="#024D81" stroke-width="2"/>
<path d="M63.625 47.875H70.875L67.25 52.7083L63.625 47.875Z" fill="#024D81" stroke="#024D81" stroke-width="2"/>
<path d="M33.2472 50H31.4425V44.9091H33.2621C33.7741 44.9091 34.215 45.011 34.5845 45.2148C34.9541 45.417 35.2383 45.7079 35.4371 46.0874C35.6377 46.4669 35.7379 46.9209 35.7379 47.4496C35.7379 47.9799 35.6377 48.4356 35.4371 48.8168C35.2383 49.1979 34.9524 49.4904 34.5795 49.6942C34.2083 49.8981 33.7642 50 33.2472 50ZM32.5188 49.0778H33.2024C33.5206 49.0778 33.7882 49.0214 34.0053 48.9087C34.2241 48.7944 34.3881 48.6179 34.4975 48.3793C34.6085 48.139 34.6641 47.8291 34.6641 47.4496C34.6641 47.0734 34.6085 46.766 34.4975 46.5273C34.3881 46.2887 34.2249 46.113 34.0078 46.0004C33.7907 45.8877 33.5231 45.8313 33.2049 45.8313H32.5188V49.0778ZM38.2554 50.0746C37.8627 50.0746 37.5246 49.995 37.2412 49.8359C36.9595 49.6752 36.7424 49.4482 36.5899 49.1548C36.4375 48.8598 36.3612 48.511 36.3612 48.1083C36.3612 47.7156 36.4375 47.3709 36.5899 47.0742C36.7424 46.7776 36.957 46.5464 37.2338 46.3807C37.5122 46.215 37.8386 46.1321 38.2132 46.1321C38.4651 46.1321 38.6995 46.1727 38.9166 46.2539C39.1354 46.3335 39.326 46.4536 39.4884 46.6143C39.6524 46.7751 39.78 46.9773 39.8712 47.2209C39.9623 47.4628 40.0079 47.7462 40.0079 48.071V48.3619H36.7838V47.7056H39.0111C39.0111 47.5531 38.978 47.4181 38.9117 47.3004C38.8454 47.1828 38.7534 47.0908 38.6357 47.0245C38.5197 46.9566 38.3847 46.9226 38.2306 46.9226C38.0698 46.9226 37.9273 46.9599 37.803 47.0344C37.6804 47.1074 37.5843 47.206 37.5146 47.3303C37.445 47.4529 37.4094 47.5896 37.4078 47.7404V48.3643C37.4078 48.5533 37.4426 48.7165 37.5122 48.854C37.5834 48.9916 37.6837 49.0977 37.8129 49.1722C37.9422 49.2468 38.0955 49.2841 38.2728 49.2841C38.3905 49.2841 38.4982 49.2675 38.596 49.2344C38.6937 49.2012 38.7774 49.1515 38.847 49.0852C38.9166 49.0189 38.9697 48.9377 39.0061 48.8416L39.9855 48.9062C39.9358 49.1416 39.8339 49.3471 39.6798 49.5227C39.5273 49.6967 39.3301 49.8326 39.0882 49.9304C38.8479 50.0265 38.5703 50.0746 38.2554 50.0746ZM44.1561 46.1818L42.8212 50H41.628L40.2931 46.1818H41.4118L42.2047 48.9137H42.2445L43.035 46.1818H44.1561Z" fill="#024D81"/>
<path d="M50.1207 47.4545C50.1207 48.0097 50.0155 48.482 49.805 48.8714C49.5962 49.2609 49.3112 49.5584 48.9499 49.7638C48.5903 49.9677 48.186 50.0696 47.7369 50.0696C47.2844 50.0696 46.8784 49.9669 46.5188 49.7614C46.1592 49.5559 45.875 49.2584 45.6662 48.869C45.4574 48.4795 45.353 48.008 45.353 47.4545C45.353 46.8994 45.4574 46.4271 45.6662 46.0376C45.875 45.6482 46.1592 45.3516 46.5188 45.1477C46.8784 44.9422 47.2844 44.8395 47.7369 44.8395C48.186 44.8395 48.5903 44.9422 48.9499 45.1477C49.3112 45.3516 49.5962 45.6482 49.805 46.0376C50.0155 46.4271 50.1207 46.8994 50.1207 47.4545ZM49.0295 47.4545C49.0295 47.0949 48.9756 46.7917 48.8679 46.5447C48.7618 46.2978 48.6119 46.1106 48.418 45.983C48.2241 45.8554 47.997 45.7915 47.7369 45.7915C47.4767 45.7915 47.2496 45.8554 47.0558 45.983C46.8619 46.1106 46.7111 46.2978 46.6033 46.5447C46.4973 46.7917 46.4442 47.0949 46.4442 47.4545C46.4442 47.8142 46.4973 48.1174 46.6033 48.3643C46.7111 48.6113 46.8619 48.7985 47.0558 48.9261C47.2496 49.0537 47.4767 49.1175 47.7369 49.1175C47.997 49.1175 48.2241 49.0537 48.418 48.9261C48.6119 48.7985 48.7618 48.6113 48.8679 48.3643C48.9756 48.1174 49.0295 47.8142 49.0295 47.4545ZM50.8982 51.4318V46.1818H51.9422V46.8232H51.9894C52.0358 46.7204 52.103 46.616 52.1908 46.5099C52.2803 46.4022 52.3963 46.3127 52.5388 46.2415C52.683 46.1686 52.8619 46.1321 53.0757 46.1321C53.3541 46.1321 53.611 46.205 53.8463 46.3509C54.0816 46.495 54.2697 46.7129 54.4106 47.0046C54.5515 47.2946 54.6219 47.6584 54.6219 48.0959C54.6219 48.5218 54.5531 48.8814 54.4156 49.1747C54.2797 49.4664 54.0941 49.6876 53.8588 49.8384C53.6251 49.9876 53.3633 50.0621 53.0732 50.0621C52.8677 50.0621 52.6929 50.0282 52.5487 49.9602C52.4062 49.8923 52.2894 49.8069 52.1982 49.7042C52.1071 49.5998 52.0375 49.4946 51.9894 49.3885H51.9571V51.4318H50.8982ZM51.9347 48.0909C51.9347 48.3179 51.9662 48.516 52.0292 48.685C52.0922 48.854 52.1833 48.9858 52.3026 49.0803C52.422 49.1731 52.567 49.2195 52.7377 49.2195C52.91 49.2195 53.0558 49.1722 53.1752 49.0778C53.2945 48.9817 53.3848 48.8491 53.4461 48.68C53.5091 48.5094 53.5406 48.313 53.5406 48.0909C53.5406 47.8705 53.5099 47.6766 53.4486 47.5092C53.3873 47.3419 53.297 47.2109 53.1776 47.1165C53.0583 47.022 52.9117 46.9748 52.7377 46.9748C52.5653 46.9748 52.4195 47.0204 52.3002 47.1115C52.1825 47.2027 52.0922 47.3319 52.0292 47.4993C51.9662 47.6667 51.9347 47.8639 51.9347 48.0909ZM58.5047 47.2706L57.5352 47.3303C57.5187 47.2474 57.483 47.1728 57.4284 47.1065C57.3737 47.0386 57.3016 46.9847 57.2121 46.945C57.1243 46.9035 57.019 46.8828 56.8964 46.8828C56.7323 46.8828 56.594 46.9176 56.4813 46.9872C56.3686 47.0552 56.3122 47.1463 56.3122 47.2607C56.3122 47.3518 56.3487 47.4289 56.4216 47.4918C56.4945 47.5548 56.6196 47.6054 56.797 47.6435L57.488 47.7827C57.8592 47.8589 58.136 47.9815 58.3183 48.1506C58.5006 48.3196 58.5917 48.5417 58.5917 48.8168C58.5917 49.067 58.518 49.2866 58.3705 49.4755C58.2246 49.6644 58.0241 49.8119 57.7689 49.918C57.5154 50.0224 57.2229 50.0746 56.8914 50.0746C56.386 50.0746 55.9833 49.9693 55.6833 49.7589C55.385 49.5468 55.2102 49.2584 55.1588 48.8938L56.2004 48.8391C56.2319 48.9933 56.3081 49.1109 56.4291 49.1921C56.55 49.2717 56.705 49.3114 56.8939 49.3114C57.0795 49.3114 57.2287 49.2758 57.3414 49.2045C57.4557 49.1316 57.5137 49.038 57.5154 48.9237C57.5137 48.8275 57.4731 48.7488 57.3936 48.6875C57.314 48.6245 57.1914 48.5765 57.0257 48.5433L56.3644 48.4116C55.9916 48.337 55.714 48.2077 55.5317 48.0238C55.3511 47.8398 55.2607 47.6054 55.2607 47.3203C55.2607 47.075 55.327 46.8638 55.4596 46.6864C55.5938 46.5091 55.7819 46.3724 56.0239 46.2763C56.2675 46.1802 56.5525 46.1321 56.879 46.1321C57.3612 46.1321 57.7407 46.234 58.0175 46.4379C58.2959 46.6417 58.4583 46.9193 58.5047 47.2706Z" fill="#024D81"/>
</svg>
