<svg width="90" height="90" viewBox="0 0 90 90" fill="none" xmlns="http://www.w3.org/2000/svg">
<path d="M43.8258 71.1212H15.0739C13.7282 71.1212 12.4376 70.5866 11.4861 69.6351C10.5346 68.6836 10 67.393 10 66.0473V22.0739C10 20.7282 10.5346 19.4376 11.4861 18.4861C12.4376 17.5346 13.7282 17 15.0739 17H72.5776C73.9233 17 75.2139 17.5346 76.1654 18.4861C77.1169 19.4376 77.6515 20.7282 77.6515 22.0739V42.4691" stroke="#024D81" stroke-width="2" stroke-linecap="round" stroke-linejoin="round"/>
<path d="M10 22.0739C10 20.7282 10.5346 19.4376 11.4861 18.4861C12.4376 17.5346 13.7282 17 15.0739 17H72.5776C73.9233 17 75.2139 17.5346 76.1654 18.4861C77.1169 19.4376 77.6515 20.7282 77.6515 22.0739V37.2955H10V22.0739Z" stroke="#024D81" stroke-width="2"/>
<path d="M16.7651 27.1477C16.7651 25.2796 18.2796 23.7651 20.1477 23.7651C22.0158 23.7651 23.5303 25.2796 23.5303 27.1477C23.5303 29.0158 22.0158 30.5303 20.1477 30.5303C18.2796 30.5303 16.7651 29.0158 16.7651 27.1477Z" fill="#024D81"/>
<path d="M26.9126 27.1477C26.9126 25.2796 28.427 23.7651 30.2952 23.7651C32.1633 23.7651 33.6777 25.2796 33.6777 27.1477C33.6777 29.0158 32.1633 30.5303 30.2952 30.5303C28.427 30.5303 26.9126 29.0158 26.9126 27.1477Z" fill="#024D81"/>
<path d="M57.549 46.4265L57.549 46.4264L57.5493 46.4267L71.2691 67.7503L71.2693 67.7507L71.2691 67.7507L60.6016 67.8039L53.0793 56.1127L57.549 46.4265ZM60.1815 78.2398L56.935 73.194L58.6169 72.1118L61.8634 77.1576C62.0069 77.3807 62.056 77.6516 61.9997 77.9108C61.9435 78.17 61.7866 78.3962 61.5636 78.5397C61.3405 78.6832 61.0696 78.7322 60.8104 78.676C60.5512 78.6197 60.325 78.4628 60.1815 78.2398ZM49.4836 70.8536L46.2371 65.8078C45.9501 65.3618 45.8521 64.8199 45.9645 64.3016C46.077 63.7832 46.3908 63.3307 46.8369 63.0437L51.0417 60.3383L56.4526 68.748L52.2477 71.4534C51.8017 71.7404 51.2598 71.8385 50.7415 71.726C50.2231 71.6135 49.7706 71.2997 49.4836 70.8536ZM68.3435 53.9626L68.8845 54.8036C69.1716 55.2496 69.2696 55.7915 69.1571 56.3098C69.1197 56.4822 69.0601 56.6472 68.9808 56.8013L66.5653 53.0471C66.7384 53.0387 66.9133 53.0529 67.0856 53.0903C67.604 53.2027 68.0565 53.5165 68.3435 53.9626Z" stroke="#024D81" stroke-width="2"/>
<path d="M72.0663 46.811L72.0665 46.8111L70.6258 50.1162L70.6257 50.1164L70.6257 50.1165L70.6256 50.1165L70.6256 50.1165L70.6255 50.1165L70.6255 50.1165L70.6255 50.1164L70.6255 50.1164L70.6255 50.1163L72.0661 46.8114L72.0663 46.811ZM74.9542 56.8442L74.9542 56.844L74.9546 56.844L78.5594 56.9027L78.5594 56.9027L78.5595 56.9027L78.5595 56.9028L78.5595 56.9028L78.5595 56.9028L78.5595 56.9029L78.5594 56.9029L78.5594 56.9029L78.5591 56.9029L74.9542 56.8442Z" stroke="#024D81" stroke-width="2"/>
</svg>
