<svg width="90" height="90" viewBox="0 0 90 90" fill="none" xmlns="http://www.w3.org/2000/svg">
<path d="M44.7506 71.3087H15.9987C14.653 71.3087 13.3624 70.7741 12.4109 69.8226C11.4594 68.8711 10.9248 67.5805 10.9248 66.2348V22.2614C10.9248 20.9157 11.4594 19.6251 12.4109 18.6736C13.3624 17.7221 14.653 17.1875 15.9987 17.1875H73.5025C74.8481 17.1875 76.1387 17.7221 77.0902 18.6736C78.0417 19.6251 78.5763 20.9157 78.5763 22.2614V42.6566" stroke="#024D81" stroke-width="2" stroke-linecap="round" stroke-linejoin="round"/>
<path d="M10.9248 22.2614C10.9248 20.9157 11.4594 19.6251 12.4109 18.6736C13.3624 17.7221 14.653 17.1875 15.9987 17.1875H73.5025C74.8481 17.1875 76.1387 17.7221 77.0902 18.6736C78.0417 19.6251 78.5763 20.9157 78.5763 22.2614V37.483H10.9248V22.2614Z" stroke="#024D81" stroke-width="2"/>
<path d="M17.6899 27.3352C17.6899 25.4671 19.2044 23.9526 21.0725 23.9526C22.9406 23.9526 24.4551 25.4671 24.4551 27.3352C24.4551 29.2033 22.9406 30.7178 21.0725 30.7178C19.2044 30.7178 17.6899 29.2033 17.6899 27.3352Z" fill="#024D81"/>
<path d="M27.8374 27.3352C27.8374 25.4671 29.3518 23.9526 31.22 23.9526C33.0881 23.9526 34.6025 25.4671 34.6025 27.3352C34.6025 29.2033 33.0881 30.7178 31.22 30.7178C29.3518 30.7178 27.8374 29.2033 27.8374 27.3352Z" fill="#024D81"/>
<path d="M66.7369 66.2349C69.5392 66.2349 71.8108 63.9632 71.8108 61.161C71.8108 58.3588 69.5392 56.0872 66.7369 56.0872C63.9347 56.0872 61.6631 58.3588 61.6631 61.161C61.6631 63.9632 63.9347 66.2349 66.7369 66.2349Z" stroke="#024D81" stroke-width="2"/>
<path d="M71.1309 63.698L76.9896 67.0805M66.737 73.0001V66.2349V73.0001ZM66.737 56.0872V49.322V56.0872ZM56.4844 67.0805L62.343 63.698L56.4844 67.0805ZM71.1309 58.6241L76.9896 55.2415L71.1309 58.6241ZM56.4844 55.2415L62.343 58.6241L56.4844 55.2415Z" stroke="#024D81" stroke-width="2" stroke-linecap="round" stroke-linejoin="round"/>
<mask id="path-7-inside-1_102_152" fill="white">
<path d="M21.0469 51.375H20.5C20.2679 51.375 20.0454 51.4672 19.8813 51.6313C19.7172 51.7954 19.625 52.0179 19.625 52.25V53.125C19.625 53.3571 19.7172 53.5796 19.8813 53.7437C20.0454 53.9078 20.2679 54 20.5 54H21.3717C21.3641 56.3599 21.0714 58.7103 20.5 61H27.5C26.9286 58.7103 26.6359 56.3599 26.6283 54H27.5C27.7321 54 27.9546 53.9078 28.1187 53.7437C28.2828 53.5796 28.375 53.3571 28.375 53.125V52.25C28.375 52.0179 28.2828 51.7954 28.1187 51.6313C27.9546 51.4672 27.7321 51.375 27.5 51.375H26.9531L28.8065 46.4323C28.8562 46.2999 28.873 46.1573 28.8555 46.0169C28.8381 45.8765 28.7868 45.7425 28.7062 45.6262C28.6255 45.51 28.5179 45.415 28.3925 45.3495C28.2671 45.284 28.1277 45.2498 27.9862 45.25H24.875V43.5H26.1875C26.3035 43.5 26.4148 43.4539 26.4969 43.3719C26.5789 43.2898 26.625 43.1785 26.625 43.0625V42.1875C26.625 42.0715 26.5789 41.9602 26.4969 41.8781C26.4148 41.7961 26.3035 41.75 26.1875 41.75H24.875V40.4375C24.875 40.3215 24.8289 40.2102 24.7469 40.1281C24.6648 40.0461 24.5535 40 24.4375 40H23.5625C23.4465 40 23.3352 40.0461 23.2531 40.1281C23.1711 40.2102 23.125 40.3215 23.125 40.4375V41.75H21.8125C21.6965 41.75 21.5852 41.7961 21.5031 41.8781C21.4211 41.9602 21.375 42.0715 21.375 42.1875V43.0625C21.375 43.1785 21.4211 43.2898 21.5031 43.3719C21.5852 43.4539 21.6965 43.5 21.8125 43.5H23.125V45.25H20.0127C19.8713 45.2498 19.7318 45.284 19.6064 45.3495C19.481 45.415 19.3734 45.51 19.2928 45.6262C19.2121 45.7425 19.1608 45.8765 19.1434 46.0169C19.1259 46.1573 19.1427 46.2999 19.1924 46.4323L21.0469 51.375ZM30.5166 65.1333L29.25 64.5V63.625C29.25 63.3929 29.1578 63.1704 28.9937 63.0063C28.8296 62.8422 28.6071 62.75 28.375 62.75H19.625C19.3929 62.75 19.1704 62.8422 19.0063 63.0063C18.8422 63.1704 18.75 63.3929 18.75 63.625V64.5L17.484 65.1333C17.3386 65.2059 17.2163 65.3176 17.1308 65.4558C17.0453 65.594 17 65.7533 17 65.9159V67.125C17 67.3571 17.0922 67.5796 17.2563 67.7437C17.4204 67.9078 17.6429 68 17.875 68H30.125C30.3571 68 30.5796 67.9078 30.7437 67.7437C30.9078 67.5796 31 67.3571 31 67.125V65.9159C31 65.7534 30.9548 65.5941 30.8694 65.4559C30.784 65.3177 30.6619 65.206 30.5166 65.1333ZM35.5899 56.5047L35.41 61H42.34L42.1601 56.5041L43.5054 55.3672C43.6998 55.2027 43.8559 54.9978 43.9629 54.7668C44.0699 54.5358 44.1253 54.2841 44.125 54.0295V50.8281C44.125 50.7411 44.0904 50.6576 44.0289 50.5961C43.9674 50.5346 43.8839 50.5 43.7969 50.5H42.3542C42.2672 50.5 42.1837 50.5346 42.1222 50.5961C42.0607 50.6576 42.0261 50.7411 42.0261 50.8281V52.25H40.6748V50.8281C40.6748 50.7411 40.6402 50.6576 40.5787 50.5961C40.5171 50.5346 40.4337 50.5 40.3466 50.5H37.4039C37.3169 50.5 37.2334 50.5346 37.1719 50.5961C37.1104 50.6576 37.0758 50.7411 37.0758 50.8281V52.25H35.7245V50.8281C35.7245 50.7411 35.6899 50.6576 35.6283 50.5961C35.5668 50.5346 35.4834 50.5 35.3963 50.5H33.9531C33.8661 50.5 33.7826 50.5346 33.7211 50.5961C33.6596 50.6576 33.625 50.7411 33.625 50.8281V54.0328C33.6254 54.287 33.6812 54.5381 33.7885 54.7685C33.8958 54.9989 34.052 55.2032 34.2463 55.3672L35.5899 56.5047ZM38 56.625C38 56.3929 38.0922 56.1704 38.2563 56.0063C38.4204 55.8422 38.6429 55.75 38.875 55.75C39.1071 55.75 39.3296 55.8422 39.4937 56.0063C39.6578 56.1704 39.75 56.3929 39.75 56.625V58.375H38V56.625ZM44.5166 65.1333L43.25 64.5V63.625C43.25 63.3929 43.1578 63.1704 42.9937 63.0063C42.8296 62.8422 42.6071 62.75 42.375 62.75H35.375C35.1429 62.75 34.9204 62.8422 34.7563 63.0063C34.5922 63.1704 34.5 63.3929 34.5 63.625V64.5L33.234 65.1333C33.0886 65.2059 32.9663 65.3176 32.8808 65.4558C32.7953 65.594 32.75 65.7533 32.75 65.9159V67.125C32.75 67.3571 32.8422 67.5796 33.0063 67.7437C33.1704 67.9078 33.3929 68 33.625 68H44.125C44.3571 68 44.5796 67.9078 44.7437 67.7437C44.9078 67.5796 45 67.3571 45 67.125V65.9159C45 65.7534 44.9548 65.5941 44.8694 65.4559C44.784 65.3177 44.6619 65.206 44.5166 65.1333Z"/>
</mask>
<path d="M21.0469 51.375H20.5C20.2679 51.375 20.0454 51.4672 19.8813 51.6313C19.7172 51.7954 19.625 52.0179 19.625 52.25V53.125C19.625 53.3571 19.7172 53.5796 19.8813 53.7437C20.0454 53.9078 20.2679 54 20.5 54H21.3717C21.3641 56.3599 21.0714 58.7103 20.5 61H27.5C26.9286 58.7103 26.6359 56.3599 26.6283 54H27.5C27.7321 54 27.9546 53.9078 28.1187 53.7437C28.2828 53.5796 28.375 53.3571 28.375 53.125V52.25C28.375 52.0179 28.2828 51.7954 28.1187 51.6313C27.9546 51.4672 27.7321 51.375 27.5 51.375H26.9531L28.8065 46.4323C28.8562 46.2999 28.873 46.1573 28.8555 46.0169C28.8381 45.8765 28.7868 45.7425 28.7062 45.6262C28.6255 45.51 28.5179 45.415 28.3925 45.3495C28.2671 45.284 28.1277 45.2498 27.9862 45.25H24.875V43.5H26.1875C26.3035 43.5 26.4148 43.4539 26.4969 43.3719C26.5789 43.2898 26.625 43.1785 26.625 43.0625V42.1875C26.625 42.0715 26.5789 41.9602 26.4969 41.8781C26.4148 41.7961 26.3035 41.75 26.1875 41.75H24.875V40.4375C24.875 40.3215 24.8289 40.2102 24.7469 40.1281C24.6648 40.0461 24.5535 40 24.4375 40H23.5625C23.4465 40 23.3352 40.0461 23.2531 40.1281C23.1711 40.2102 23.125 40.3215 23.125 40.4375V41.75H21.8125C21.6965 41.75 21.5852 41.7961 21.5031 41.8781C21.4211 41.9602 21.375 42.0715 21.375 42.1875V43.0625C21.375 43.1785 21.4211 43.2898 21.5031 43.3719C21.5852 43.4539 21.6965 43.5 21.8125 43.5H23.125V45.25H20.0127C19.8713 45.2498 19.7318 45.284 19.6064 45.3495C19.481 45.415 19.3734 45.51 19.2928 45.6262C19.2121 45.7425 19.1608 45.8765 19.1434 46.0169C19.1259 46.1573 19.1427 46.2999 19.1924 46.4323L21.0469 51.375ZM30.5166 65.1333L29.25 64.5V63.625C29.25 63.3929 29.1578 63.1704 28.9937 63.0063C28.8296 62.8422 28.6071 62.75 28.375 62.75H19.625C19.3929 62.75 19.1704 62.8422 19.0063 63.0063C18.8422 63.1704 18.75 63.3929 18.75 63.625V64.5L17.484 65.1333C17.3386 65.2059 17.2163 65.3176 17.1308 65.4558C17.0453 65.594 17 65.7533 17 65.9159V67.125C17 67.3571 17.0922 67.5796 17.2563 67.7437C17.4204 67.9078 17.6429 68 17.875 68H30.125C30.3571 68 30.5796 67.9078 30.7437 67.7437C30.9078 67.5796 31 67.3571 31 67.125V65.9159C31 65.7534 30.9548 65.5941 30.8694 65.4559C30.784 65.3177 30.6619 65.206 30.5166 65.1333ZM35.5899 56.5047L35.41 61H42.34L42.1601 56.5041L43.5054 55.3672C43.6998 55.2027 43.8559 54.9978 43.9629 54.7668C44.0699 54.5358 44.1253 54.2841 44.125 54.0295V50.8281C44.125 50.7411 44.0904 50.6576 44.0289 50.5961C43.9674 50.5346 43.8839 50.5 43.7969 50.5H42.3542C42.2672 50.5 42.1837 50.5346 42.1222 50.5961C42.0607 50.6576 42.0261 50.7411 42.0261 50.8281V52.25H40.6748V50.8281C40.6748 50.7411 40.6402 50.6576 40.5787 50.5961C40.5171 50.5346 40.4337 50.5 40.3466 50.5H37.4039C37.3169 50.5 37.2334 50.5346 37.1719 50.5961C37.1104 50.6576 37.0758 50.7411 37.0758 50.8281V52.25H35.7245V50.8281C35.7245 50.7411 35.6899 50.6576 35.6283 50.5961C35.5668 50.5346 35.4834 50.5 35.3963 50.5H33.9531C33.8661 50.5 33.7826 50.5346 33.7211 50.5961C33.6596 50.6576 33.625 50.7411 33.625 50.8281V54.0328C33.6254 54.287 33.6812 54.5381 33.7885 54.7685C33.8958 54.9989 34.052 55.2032 34.2463 55.3672L35.5899 56.5047ZM38 56.625C38 56.3929 38.0922 56.1704 38.2563 56.0063C38.4204 55.8422 38.6429 55.75 38.875 55.75C39.1071 55.75 39.3296 55.8422 39.4937 56.0063C39.6578 56.1704 39.75 56.3929 39.75 56.625V58.375H38V56.625ZM44.5166 65.1333L43.25 64.5V63.625C43.25 63.3929 43.1578 63.1704 42.9937 63.0063C42.8296 62.8422 42.6071 62.75 42.375 62.75H35.375C35.1429 62.75 34.9204 62.8422 34.7563 63.0063C34.5922 63.1704 34.5 63.3929 34.5 63.625V64.5L33.234 65.1333C33.0886 65.2059 32.9663 65.3176 32.8808 65.4558C32.7953 65.594 32.75 65.7533 32.75 65.9159V67.125C32.75 67.3571 32.8422 67.5796 33.0063 67.7437C33.1704 67.9078 33.3929 68 33.625 68H44.125C44.3571 68 44.5796 67.9078 44.7437 67.7437C44.9078 67.5796 45 67.3571 45 67.125V65.9159C45 65.7534 44.9548 65.5941 44.8694 65.4559C44.784 65.3177 44.6619 65.206 44.5166 65.1333Z" stroke="#024D81" stroke-width="2" mask="url(#path-7-inside-1_102_152)"/>
</svg>
