<svg width="90" height="90" viewBox="0 0 90 90" fill="none" xmlns="http://www.w3.org/2000/svg">
<path d="M21.251 42.5939L19.9784 43.4298L21.251 44.2656L44.451 59.5032L45 59.8638L45.549 59.5032L68.749 44.2656L70.0216 43.4298L68.749 42.5939L45.549 27.3563L45 26.9957L44.451 27.3563L21.251 42.5939ZM19.3485 39.063L19.3555 39.0586L19.3624 39.0541L45 22.1968L70.6376 39.0541L70.6445 39.0586L70.6515 39.063C72.0473 39.9482 73 41.5511 73 43.4298V73.905C73 75.2718 72.4828 76.5733 71.5768 77.5255C70.6724 78.4759 69.4566 79 68.2 79H21.8C20.5434 79 19.3276 78.4759 18.4232 77.5254C17.5172 76.5733 17 75.2718 17 73.905V43.4298C17 41.5511 17.9527 39.9482 19.3485 39.063Z" stroke="#024D81" stroke-width="2"/>
<path d="M42.9569 11.7852L42.957 11.785C42.9766 11.7425 43.0073 11.706 43.0459 11.6794C43.0844 11.6527 43.1294 11.637 43.1762 11.6337C43.223 11.6305 43.2697 11.6398 43.3116 11.6608C43.3535 11.6819 43.389 11.7137 43.4143 11.7532L43.4145 11.7535L60.7212 38.6519L60.7215 38.6523C60.7468 38.6917 60.7611 38.7372 60.7629 38.784C60.7647 38.8308 60.7538 38.8773 60.7315 38.9185C60.7091 38.9597 60.6761 38.9941 60.6359 39.0182C60.5957 39.0422 60.5498 39.0551 60.5029 39.0553L60.5028 39.0553L46.9028 39.1232L37.2586 24.134L42.9569 11.7852ZM46.2952 52.1668L42.0584 45.5819L44.6198 43.9339L48.8566 50.5187C49.0751 50.8584 49.1498 51.271 49.0641 51.6657C48.9785 52.0604 48.7396 52.4049 48.3999 52.6235C48.0602 52.842 47.6477 52.9167 47.253 52.831C46.8583 52.7454 46.5137 52.5064 46.2952 52.1668ZM32.8005 42.8495L28.7052 36.4846C28.3056 35.8635 28.1691 35.1092 28.3257 34.3876C28.4823 33.6659 28.9191 33.036 29.5401 32.6365L35.0641 29.0823L42.1726 40.1303L36.6485 43.6845C36.0275 44.0841 35.2732 44.2206 34.5516 44.064C33.8299 43.9074 33.2 43.4706 32.8005 42.8495ZM57.0308 21.2596L57.7133 22.3204C58.1129 22.9414 58.2494 23.6957 58.0928 24.4174C58.0094 24.8016 57.8466 25.1599 57.6188 25.4712L54.1242 20.0397C54.5019 19.9615 54.8954 19.9617 55.2796 20.0451L55.4917 19.0679L55.2796 20.0451C56.0013 20.2017 56.6312 20.6386 57.0308 21.2596Z" fill="white" stroke="#024D81" stroke-width="2"/>
<path d="M61.6096 12.1401L61.6099 12.1402C61.6413 12.1539 61.6698 12.1737 61.6936 12.1984C61.7175 12.2232 61.7362 12.2523 61.7488 12.2843C61.7614 12.3162 61.7675 12.3503 61.7669 12.3847C61.7663 12.419 61.7589 12.4528 61.7452 12.4842C61.7452 12.4843 61.7452 12.4843 61.7452 12.4844L59.9278 16.6535L59.9277 16.6538C59.914 16.6853 59.8942 16.7138 59.8695 16.7376C59.8448 16.7615 59.8156 16.7802 59.7836 16.7928C59.7516 16.8054 59.7175 16.8115 59.6831 16.8109C59.6488 16.8103 59.6149 16.8029 59.5834 16.7892C59.5519 16.7754 59.5234 16.7557 59.4996 16.7309C59.4757 16.7062 59.457 16.677 59.4444 16.645C59.4319 16.6131 59.4257 16.579 59.4263 16.5446C59.4269 16.5103 59.4343 16.4765 59.4479 16.4451C59.448 16.4451 59.448 16.445 59.448 16.445C59.448 16.4449 59.448 16.4449 59.448 16.4449L61.2653 12.2758L61.2655 12.2754C61.2792 12.244 61.299 12.2155 61.3237 12.1916C61.3484 12.1678 61.3776 12.1491 61.4095 12.1365C61.4415 12.1239 61.4756 12.1178 61.5099 12.1184C61.5443 12.119 61.5781 12.1264 61.6096 12.1401ZM64.8867 25.0318L64.8867 25.0315C64.8873 24.9972 64.8946 24.9633 64.9083 24.9318C64.9219 24.9003 64.9417 24.8718 64.9663 24.8479C64.991 24.824 65.0202 24.8053 65.0521 24.7926C65.084 24.78 65.1181 24.7738 65.1525 24.7744L65.1529 24.7744L69.7002 24.8484C69.7345 24.849 69.7684 24.8563 69.8 24.87C69.8315 24.8837 69.86 24.9034 69.8839 24.9281C69.9078 24.9528 69.9265 24.9819 69.9392 25.0139C69.9518 25.0459 69.958 25.08 69.9574 25.1143C69.9569 25.1487 69.9495 25.1826 69.9359 25.2141L70.8533 25.612L69.9359 25.2141C69.9222 25.2456 69.9024 25.2741 69.8778 25.298C69.8531 25.3219 69.8239 25.3407 69.792 25.3533C69.76 25.3659 69.7259 25.3721 69.6915 25.3716L69.6913 25.3715L65.1438 25.2975C65.1438 25.2975 65.1437 25.2975 65.1437 25.2975C65.1094 25.2969 65.0756 25.2896 65.0441 25.276C65.0126 25.2623 64.9841 25.2426 64.9602 25.2179C64.9363 25.1932 64.9176 25.1641 64.9049 25.1321C64.8923 25.1002 64.8861 25.0661 64.8867 25.0318ZM62.1982 20.9341C62.1607 20.8758 62.1479 20.805 62.1626 20.7372C62.1773 20.6695 62.2183 20.6103 62.2766 20.5728L66.5199 17.8426C66.5783 17.8051 66.6491 17.7923 66.7168 17.807C66.7846 17.8217 66.8437 17.8627 66.8813 17.921C66.9188 17.9793 66.9316 18.0501 66.9169 18.1179C66.9022 18.1857 66.8612 18.2448 66.8029 18.2823L62.5595 21.0125C62.5012 21.05 62.4304 21.0628 62.3626 21.0481C62.2949 21.0334 62.2357 20.9924 62.1982 20.9341Z" fill="white" stroke="#024D81" stroke-width="2"/>
</svg>
