<svg width="90" height="90" viewBox="0 0 90 90" fill="none" xmlns="http://www.w3.org/2000/svg">
<path d="M24.6519 44.147V44.1463C24.6519 33.3957 33.3855 24.6585 44.1297 24.6585C54.0959 24.6585 62.2921 32.1282 63.4551 41.7764L58.2341 40.2093C57.5885 37.8886 56.3801 35.7597 54.7124 34.0137C52.91 32.1267 50.6365 30.7555 48.1269 30.0418C45.6173 29.3282 42.9627 29.2981 40.4376 29.9546C37.9125 30.6111 35.6085 31.9304 33.7637 33.776C31.919 35.6217 30.6004 37.9267 29.9443 40.4528C29.2882 42.9789 29.3183 45.6345 30.0315 48.1451C30.7448 50.6557 32.1152 52.9302 34.0013 54.7335C35.7464 56.402 37.8743 57.6111 40.194 58.257L41.7604 63.4809C37.2992 62.939 33.146 60.8648 30.0248 57.5889C26.5731 53.9662 24.6488 49.1522 24.6519 44.147ZM68.0633 62.0221L67.2319 62.753L68.0433 63.5061L78.5591 73.2661L73.2184 78.6094L62.6826 68.7692L61.9246 68.0613L61.2448 68.8445L54.9544 76.0922L49.7695 49.7707L76.0766 54.9776L68.0633 62.0221ZM77.2594 44.1463C77.2594 44.7367 77.2478 45.3224 77.2182 45.9045L72.4325 44.4705C72.4335 44.364 72.4334 44.2621 72.4334 44.1676V44.1463C72.4334 28.5018 59.7678 15.8293 44.1297 15.8293C28.4916 15.8293 15.8259 28.5018 15.8259 44.1463C15.8259 59.7909 28.4916 72.4634 44.1297 72.4634H44.151C44.2452 72.4634 44.3469 72.4634 44.4532 72.4625L45.8867 77.2515C45.305 77.2811 44.7197 77.2927 44.1297 77.2927C25.8428 77.2927 11 62.4433 11 44.1463C11 25.8494 25.8428 11 44.1297 11C62.4165 11 77.2594 25.8494 77.2594 44.1463Z" stroke="#024D81" stroke-width="2"/>
<path d="M45.75 36.8667V37.6911L46.5594 37.8483C47.516 38.0341 48.3687 38.5229 48.9816 39.2234C49.3565 39.6518 49.6285 40.1439 49.7873 40.6667H48.2701C48.174 40.4189 48.0254 40.1595 47.7951 39.9181C47.2009 39.2951 46.2688 39 45 39C43.7122 39 42.6607 39.2969 41.8984 39.7352C41.5196 39.953 41.1935 40.2168 40.9507 40.5156C40.721 40.7984 40.5 41.197 40.5 41.6667C40.5 41.6737 40.5 41.681 40.5 41.6885C40.4996 42.0302 40.4985 42.8802 41.3243 43.5212C42.0427 44.0788 43.2148 44.3333 45 44.3333C47.8834 44.3333 49.3306 45.0734 50.0669 45.8305C50.8083 46.5929 51 47.5477 51 48.3333C51 49.8609 49.7487 51.7015 46.5902 52.2129L45.75 52.3489V53.2V54H44.25V53.2V52.3393L43.3989 52.2111C40.7268 51.8088 39.5954 50.4413 39.1916 49.3333H40.8029C40.9417 49.5662 41.1375 49.8052 41.4084 50.0274C42.1225 50.613 43.2557 51 45 51C46.3626 51 47.4238 50.6799 48.1768 50.2201C48.5505 49.9919 48.8595 49.722 49.0853 49.4285C49.294 49.1573 49.5 48.7745 49.5 48.3333L49.5 48.321C49.5002 48.0058 49.5006 47.1698 48.6872 46.5191C47.9713 45.9464 46.8001 45.6667 45 45.6667C42.1166 45.6667 40.6694 44.9266 39.9331 44.1695C39.1917 43.4071 39 42.4523 39 41.6667C39 40.1394 40.2505 38.3003 43.4052 37.8045L44.25 37.6718V36.8167V36H45.75V36.8667Z" stroke="#024D81" stroke-width="2"/>
</svg>
