<svg width="90" height="90" viewBox="0 0 90 90" fill="none" xmlns="http://www.w3.org/2000/svg">
<path d="M37.28 60.7661L45 65L52.72 60.7661C54.9208 59.5618 56.7613 57.7638 58.0438 55.5651C59.3264 53.3663 60.0026 50.8498 60 48.2857V31.5714C59.9993 30.8897 59.7357 30.236 59.267 29.7539C58.7983 29.2718 58.1628 29.0007 57.5 29H32.5C31.8372 29.0007 31.2017 29.2718 30.733 29.7539C30.2643 30.236 30.0007 30.8897 30 31.5714V48.2857C29.9974 50.8498 30.6736 53.3663 31.9562 55.5651C33.2387 57.7638 35.0792 59.5618 37.28 60.7661Z" fill="#024D81"/>
<path d="M38.3093 59.2366L45 63L51.6907 59.2366C53.5981 58.1661 55.1931 56.5678 56.3047 54.6134C57.4162 52.659 58.0023 50.4221 58 48.1429V33.2857C57.9994 32.6797 57.771 32.0987 57.3648 31.6701C56.9586 31.2416 56.4078 31.0006 55.8333 31H34.1667C33.5922 31.0006 33.0414 31.2416 32.6352 31.6701C32.229 32.0987 32.0006 32.6797 32 33.2857V48.1429C31.9977 50.4221 32.5838 52.659 33.6953 54.6134C34.8069 56.5678 36.4019 58.1661 38.3093 59.2366Z" fill="white"/>
<path d="M74.8172 26.6512L46.2018 10.318C45.8371 10.1097 45.4223 10 45 10C44.5777 10 44.1629 10.1097 43.7982 10.318L15.1828 26.6512C14.8227 26.8568 14.5241 27.1511 14.3166 27.5048C14.109 27.8585 13.9999 28.2593 14 28.6672V61.3335C13.9999 61.7414 14.109 62.1422 14.3166 62.4959C14.5241 62.8496 14.8227 63.1439 15.1828 63.3495L43.7982 79.6827C44.1629 79.8908 44.5777 80.0003 45 80C45.4223 80.0003 45.8371 79.8908 46.2018 79.6827L74.8172 63.3495C75.1773 63.1439 75.4759 62.8496 75.6834 62.4959C75.891 62.1422 76.0001 61.7414 76 61.3335V42.667" stroke="#024D81" stroke-width="2"/>
<path d="M42.6667 47.7035L39.645 44.6759L38 46.3241L42.6667 51L52 41.6482L50.355 40L42.6667 47.7035Z" fill="#024D81"/>
</svg>
