<svg width="90" height="90" viewBox="0 0 90 90" fill="none" xmlns="http://www.w3.org/2000/svg">
<path d="M69.3239 65.7233L79.2842 75.6785C79.7487 76.1594 80.0057 76.8036 79.9999 77.4722C79.9941 78.1408 79.7259 78.7803 79.2531 79.2531C78.7803 79.7259 78.1408 79.9941 77.4722 79.9999C76.8036 80.0057 76.1594 79.7487 75.6785 79.2842L65.7182 69.3239C59.2094 74.9005 50.7937 77.7393 42.2369 77.2446C33.6802 76.75 25.6476 72.9604 19.8247 66.671C14.0018 60.3817 10.8412 52.0814 11.0061 43.5119C11.1711 34.9425 14.6488 26.77 20.7094 20.7094C26.77 14.6488 34.9425 11.1711 43.5119 11.0061C52.0814 10.8412 60.3817 14.0018 66.671 19.8247C72.9604 25.6476 76.75 33.6802 77.2446 42.2369C77.7393 50.7937 74.9005 59.2094 69.3239 65.7182V65.7233ZM44.1504 72.2003C51.5897 72.2003 58.7243 69.245 63.9847 63.9847C69.245 58.7243 72.2003 51.5897 72.2003 44.1504C72.2003 36.711 69.245 29.5764 63.9847 24.316C58.7243 19.0557 51.5897 16.1004 44.1504 16.1004C36.711 16.1004 29.5764 19.0557 24.316 24.316C19.0557 29.5764 16.1004 36.711 16.1004 44.1504C16.1004 51.5897 19.0557 58.7243 24.316 63.9847C29.5764 69.245 36.711 72.2003 44.1504 72.2003V72.2003Z" stroke="#024D81" stroke-width="2"/>
<path d="M35.3191 38.784C32.8794 35.1879 28.6075 37.5519 28.9137 41.2481C29.2198 44.9466 34.0992 44.9466 34.403 48.6452C34.7091 52.3425 30.4397 54.7054 28 51.1093M47.5175 37.6276H42.6381V53.4855H47.5175M42.6381 46.1665H47.5175" stroke="#024D81" stroke-width="2" stroke-linecap="round" stroke-linejoin="round"/>
<path d="M62.156 41.287C62.156 39.2659 60.5175 37.6274 58.4964 37.6274C56.4753 37.6274 54.8369 39.2659 54.8369 41.287V49.8259C54.8369 51.847 56.4753 53.4854 58.4964 53.4854C60.5175 53.4854 62.156 51.847 62.156 49.8259V41.287Z" stroke="#024D81" stroke-width="2" stroke-linecap="round" stroke-linejoin="round"/>
</svg>
