<svg width="90" height="90" viewBox="0 0 90 90" fill="none" xmlns="http://www.w3.org/2000/svg">
<path d="M27.5 20.0517H18.5C16.8957 20.0517 15.3654 20.7065 14.2434 21.8586C13.1228 23.0093 12.5 24.5617 12.5 26.1724V72.3793C12.5 73.99 13.1228 75.5424 14.2434 76.6932C15.3654 77.8452 16.8957 78.5 18.5 78.5H72.5C74.1043 78.5 75.6346 77.8452 76.7566 76.6932C77.8772 75.5424 78.5 73.99 78.5 72.3793V26.1724C78.5 24.5617 77.8772 23.0093 76.7566 21.8586C75.6346 20.7065 74.1043 20.0517 72.5 20.0517H63.5H27.5Z" stroke="white" stroke-width="3"/>
<path d="M59 33.1419C59 32.8459 59.1199 32.5577 59.3403 32.3419C59.5615 32.1253 59.8658 32 60.1875 32H64.5625C64.8842 32 65.1885 32.1253 65.4097 32.3419C65.6301 32.5577 65.75 32.8459 65.75 33.1419V37.4258C65.75 37.7218 65.6301 38.01 65.4097 38.2258C65.1885 38.4424 64.8842 38.5677 64.5625 38.5677H60.1875C59.8658 38.5677 59.5615 38.4424 59.3403 38.2258C59.1199 38.01 59 37.7218 59 37.4258V33.1419Z" stroke="white" stroke-width="2"/>
<path d="M59 47.1419C59 46.8459 59.1199 46.5577 59.3403 46.3419C59.5615 46.1253 59.8658 46 60.1875 46H64.5625C64.8842 46 65.1885 46.1253 65.4097 46.3419C65.6301 46.5577 65.75 46.8459 65.75 47.1419V51.4258C65.75 51.7218 65.6301 52.01 65.4097 52.2258C65.1885 52.4424 64.8842 52.5677 64.5625 52.5677H60.1875C59.8658 52.5677 59.5615 52.4424 59.3403 52.2258C59.1199 52.01 59 51.7218 59 51.4258V47.1419Z" stroke="white" stroke-width="2"/>
<path d="M25 33.1419C25 32.8459 25.1199 32.5577 25.3403 32.3419C25.5615 32.1253 25.8658 32 26.1875 32H30.5625C30.8842 32 31.1885 32.1253 31.4097 32.3419C31.6301 32.5577 31.75 32.8459 31.75 33.1419V37.4258C31.75 37.7218 31.6301 38.01 31.4097 38.2258C31.1885 38.4424 30.8842 38.5677 30.5625 38.5677H26.1875C25.8658 38.5677 25.5615 38.4424 25.3403 38.2258C25.1199 38.01 25 37.7218 25 37.4258V33.1419Z" stroke="white" stroke-width="2"/>
<path d="M25 47.1419C25 46.8459 25.1199 46.5577 25.3403 46.3419C25.5615 46.1253 25.8658 46 26.1875 46H30.5625C30.8842 46 31.1885 46.1253 31.4097 46.3419C31.6301 46.5577 31.75 46.8459 31.75 47.1419V51.4258C31.75 51.7218 31.6301 52.01 31.4097 52.2258C31.1885 52.4424 30.8842 52.5677 30.5625 52.5677H26.1875C25.8658 52.5677 25.5615 52.4424 25.3403 52.2258C25.1199 52.01 25 51.7218 25 51.4258V47.1419Z" stroke="white" stroke-width="2"/>
<path d="M25 61.1419C25 60.8459 25.1199 60.5577 25.3403 60.3419C25.5615 60.1253 25.8658 60 26.1875 60H30.5625C30.8842 60 31.1885 60.1253 31.4097 60.3419C31.6301 60.5577 31.75 60.8459 31.75 61.1419V65.4258C31.75 65.7218 31.6301 66.01 31.4097 66.2258C31.1885 66.4424 30.8842 66.5677 30.5625 66.5677H26.1875C25.8658 66.5677 25.5615 66.4424 25.3403 66.2258C25.1199 66.01 25 65.7218 25 65.4258V61.1419Z" stroke="white" stroke-width="2"/>
<path d="M42 33.1419C42 32.8459 42.1199 32.5577 42.3403 32.3419C42.5615 32.1253 42.8658 32 43.1875 32H47.5625C47.8842 32 48.1885 32.1253 48.4097 32.3419C48.6301 32.5577 48.75 32.8459 48.75 33.1419V37.4258C48.75 37.7218 48.6301 38.01 48.4097 38.2258C48.1885 38.4424 47.8842 38.5677 47.5625 38.5677H43.1875C42.8658 38.5677 42.5615 38.4424 42.3403 38.2258C42.1199 38.01 42 37.7218 42 37.4258V33.1419Z" stroke="white" stroke-width="2"/>
<path d="M42 47.1419C42 46.8459 42.1199 46.5577 42.3403 46.3419C42.5615 46.1253 42.8658 46 43.1875 46H47.5625C47.8842 46 48.1885 46.1253 48.4097 46.3419C48.6301 46.5577 48.75 46.8459 48.75 47.1419V51.4258C48.75 51.7218 48.6301 52.01 48.4097 52.2258C48.1885 52.4424 47.8842 52.5677 47.5625 52.5677H43.1875C42.8658 52.5677 42.5615 52.4424 42.3403 52.2258C42.1199 52.01 42 51.7218 42 51.4258V47.1419Z" stroke="white" stroke-width="2"/>
<path d="M42 61.1419C42 60.8459 42.1199 60.5577 42.3403 60.3419C42.5615 60.1253 42.8658 60 43.1875 60H47.5625C47.8842 60 48.1885 60.1253 48.4097 60.3419C48.6301 60.5577 48.75 60.8459 48.75 61.1419V65.4258C48.75 65.7218 48.6301 66.01 48.4097 66.2258C48.1885 66.4424 47.8842 66.5677 47.5625 66.5677H43.1875C42.8658 66.5677 42.5615 66.4424 42.3403 66.2258C42.1199 66.01 42 65.7218 42 65.4258V61.1419Z" stroke="white" stroke-width="2"/>
</svg>
