<svg width="90" height="90" viewBox="0 0 90 90" fill="none" xmlns="http://www.w3.org/2000/svg">
<path d="M16.5441 34.5155L16.5443 34.5154L44.0441 11.3503C44.0441 11.3503 44.0441 11.3503 44.0442 11.3503C44.314 11.1231 44.6522 11 45 11C45.3477 11 45.686 11.1231 45.9557 11.3502C45.9558 11.3502 45.9558 11.3503 45.9559 11.3503L73.4557 34.5154L73.4559 34.5155C73.6251 34.658 73.7621 34.837 73.8564 35.0405C73.9507 35.2438 73.9999 35.4661 74 35.6915C74 35.6916 74 35.6918 74 35.6919V77.4727C74 77.8812 73.8394 78.2709 73.5568 78.5565C73.2747 78.8418 72.8943 79 72.5 79H17.5C17.1057 79 16.7253 78.8418 16.4432 78.5565C16.1606 78.2709 16 77.8812 16 77.4727L16 35.6919C16 35.6918 16 35.6916 16 35.6915C16.0001 35.466 16.0493 35.2439 16.1436 35.0405C16.2379 34.837 16.3749 34.658 16.5441 34.5155Z" stroke="#024D81" stroke-width="2"/>
<path d="M58.6 30H31.4C30.4983 30 29.6335 30.3582 28.9958 30.9958C28.3582 31.6335 28 32.4983 28 33.4V70.8C28 71.7017 28.3582 72.5665 28.9958 73.2042C29.6335 73.8418 30.4983 74.2 31.4 74.2H58.6C59.5017 74.2 60.3665 73.8418 61.0042 73.2042C61.6418 72.5665 62 71.7017 62 70.8V33.4C62 32.4983 61.6418 31.6335 61.0042 30.9958C60.3665 30.3582 59.5017 30 58.6 30ZM58.6 33.4V43.6H31.4V33.4H58.6ZM31.4 57.2V47H58.6V57.2H31.4ZM31.4 70.8V60.6H58.6V70.8H31.4Z" stroke="#024D81" stroke-width="2"/>
<path d="M36.5 40.2008C37.4389 40.2008 38.2 39.4397 38.2 38.5008C38.2 37.5619 37.4389 36.8008 36.5 36.8008C35.5611 36.8008 34.8 37.5619 34.8 38.5008C34.8 39.4397 35.5611 40.2008 36.5 40.2008Z" stroke="#024D81" stroke-width="2"/>
<path d="M36.5 53.8004C37.4389 53.8004 38.2 53.0393 38.2 52.1004C38.2 51.1615 37.4389 50.4004 36.5 50.4004C35.5611 50.4004 34.8 51.1615 34.8 52.1004C34.8 53.0393 35.5611 53.8004 36.5 53.8004Z" stroke="#024D81" stroke-width="2"/>
<path d="M36.5 67.4C37.4389 67.4 38.2 66.6389 38.2 65.7C38.2 64.7611 37.4389 64 36.5 64C35.5611 64 34.8 64.7611 34.8 65.7C34.8 66.6389 35.5611 67.4 36.5 67.4Z" stroke="#024D81" stroke-width="2"/>
</svg>
