<svg width="90" height="90" viewBox="0 0 90 90" fill="none" xmlns="http://www.w3.org/2000/svg">
<path d="M59.1481 69.0744C61.8891 69.0744 64.1111 66.8524 64.1111 64.1114C64.1111 61.3704 61.8891 59.1484 59.1481 59.1484C56.4072 59.1484 54.1852 61.3704 54.1852 64.1114C54.1852 66.8524 56.4072 69.0744 59.1481 69.0744Z" stroke="#024D81" stroke-width="2"/>
<path d="M78.4466 62.8182C76.9134 58.9121 74.2676 55.5417 70.8371 53.1249C67.4067 50.7082 63.3424 49.3512 59.1481 49.2222C54.9538 49.3512 50.8896 50.7082 47.4592 53.1249C44.0287 55.5417 41.3829 58.9121 39.8497 62.8182L39.2963 64.1111L39.8497 65.4039C41.3829 69.31 44.0287 72.6804 47.4592 75.0972C50.8896 77.514 54.9538 78.8709 59.1481 78.9999C63.3424 78.8709 67.4067 77.514 70.8371 75.0972C74.2676 72.6804 76.9134 69.31 78.4466 65.4039L79 64.1111L78.4466 62.8182ZM59.1481 74.037C57.185 74.037 55.2659 73.4548 53.6336 72.3642C52.0013 71.2735 50.7291 69.7233 49.9778 67.9095C49.2265 66.0958 49.03 64.1 49.4129 62.1746C49.7959 60.2492 50.7413 58.4805 52.1295 57.0924C53.5176 55.7042 55.2863 54.7588 57.2117 54.3759C59.1371 53.9929 61.1329 54.1894 62.9466 54.9407C64.7604 55.692 66.3106 56.9642 67.4013 58.5965C68.4919 60.2288 69.0741 62.1479 69.0741 64.1111C69.0708 66.7426 68.024 69.2654 66.1632 71.1261C64.3024 72.9869 61.7797 74.0337 59.1481 74.037V74.037Z" stroke="#024D81" stroke-width="2"/>
<path d="M24.4074 26.8892C25.7779 26.8892 26.8889 25.7782 26.8889 24.4078C26.8889 23.0373 25.7779 21.9263 24.4074 21.9263C23.0369 21.9263 21.9259 23.0373 21.9259 24.4078C21.9259 25.7782 23.0369 26.8892 24.4074 26.8892Z" stroke="#024D81" stroke-width="2"/>
<path d="M24.4074 46.7408C25.7779 46.7408 26.8889 45.6298 26.8889 44.2593C26.8889 42.8888 25.7779 41.7778 24.4074 41.7778C23.0369 41.7778 21.9259 42.8888 21.9259 44.2593C21.9259 45.6298 23.0369 46.7408 24.4074 46.7408Z" stroke="#024D81" stroke-width="2"/>
<path d="M24.4074 66.5928C25.7779 66.5928 26.8889 65.4818 26.8889 64.1114C26.8889 62.7409 25.7779 61.6299 24.4074 61.6299C23.0369 61.6299 21.9259 62.7409 21.9259 64.1114C21.9259 65.4818 23.0369 66.5928 24.4074 66.5928Z" stroke="#024D81" stroke-width="2"/>
<path d="M16.963 56.6667H34.3333V51.7037H16.963V36.8148H56.6667V44.2593H61.6296V16.963C61.6296 15.6467 61.1067 14.3844 60.176 13.4536C59.2453 12.5229 57.9829 12 56.6667 12H16.963C15.6467 12 14.3844 12.5229 13.4536 13.4536C12.5229 14.3844 12 15.6467 12 16.963V71.5556C12 72.8718 12.5229 74.1342 13.4536 75.0649C14.3844 75.9956 15.6467 76.5185 16.963 76.5185H34.3333V71.5556H16.963V56.6667ZM16.963 16.963H56.6667V31.8519H16.963V16.963Z" stroke="#024D81" stroke-width="2"/>
</svg>
