<svg width="90" height="90" viewBox="0 0 90 90" fill="none" xmlns="http://www.w3.org/2000/svg">
<path d="M69.313 44.9995C67.5893 45.0085 65.8999 45.4833 64.4226 46.3741L57.5008 39.4307L63.0522 33.8619C63.96 32.951 64.4699 31.7158 64.4699 30.4278C64.4699 29.1399 63.96 27.9046 63.0522 26.9938L48.5261 12.4221C47.618 11.5115 46.3867 11 45.1027 11C43.8188 11 42.5874 11.5115 41.6794 12.4221L27.1532 26.9938C26.2455 27.9046 25.7355 29.1399 25.7355 30.4278C25.7355 31.7158 26.2455 32.951 27.1532 33.8619L32.7046 39.4307L25.7829 46.3741C23.732 45.1534 21.3074 44.7258 18.9644 45.1715C16.6215 45.6172 14.5213 46.9057 13.0583 48.7948C11.5953 50.684 10.8702 53.0439 11.0191 55.4314C11.168 57.819 12.1807 60.0699 13.8669 61.7614C15.5532 63.4529 17.797 64.4688 20.1771 64.6181C22.5572 64.7675 24.9098 64.0401 26.793 62.5725C28.6763 61.105 29.9607 58.9982 30.4051 56.6479C30.8494 54.2976 30.4231 51.8654 29.2062 49.8081L36.128 42.8647L41.6794 48.4335C41.9792 48.7274 42.3162 48.9806 42.6817 49.1864V59.5711H35.4186V79H54.7869V59.5711H47.5238V49.184C47.8891 48.9789 48.2261 48.7266 48.5261 48.4335L54.0775 42.8647L60.9992 49.8081C59.927 51.6531 59.4926 53.8018 59.7635 55.92C60.0345 58.0383 60.9956 60.0074 62.4974 61.5211C63.9992 63.0347 65.9575 64.0082 68.0678 64.2901C70.1781 64.572 72.3221 64.1465 74.1665 63.0797C76.0108 62.013 77.452 60.3648 78.2661 58.3915C79.0802 56.4182 79.2214 54.2303 78.6678 52.1682C78.1143 50.106 76.8969 48.2852 75.2052 46.9887C73.5134 45.6923 71.442 44.993 69.313 44.9995V44.9995ZM25.7345 54.7139C25.7345 55.6746 25.4505 56.6137 24.9184 57.4124C24.3864 58.2112 23.6302 58.8338 22.7454 59.2014C21.8606 59.569 20.887 59.6652 19.9478 59.4778C19.0085 59.2904 18.1457 58.8278 17.4686 58.1485C16.7914 57.4692 16.3302 56.6037 16.1434 55.6615C15.9566 54.7193 16.0525 53.7427 16.4189 52.8551C16.7854 51.9676 17.406 51.209 18.2023 50.6753C18.9986 50.1416 19.9348 49.8567 20.8924 49.8567C22.1762 49.858 23.4071 50.3701 24.3149 51.2808C25.2226 52.1914 25.7332 53.4261 25.7345 54.7139ZM49.9448 64.4283V74.1428H40.2607V64.4283H49.9448ZM45.1027 44.9995L30.5765 30.4278L45.1027 15.8562L59.6289 30.4278L45.1027 44.9995ZM69.313 59.5711C68.3554 59.5711 67.4192 59.2863 66.6229 58.7525C65.8267 58.2188 65.206 57.4602 64.8396 56.5727C64.4731 55.6852 64.3772 54.7085 64.564 53.7663C64.7508 52.8241 65.212 51.9586 65.8892 51.2793C66.5664 50.6 67.4291 50.1374 68.3684 49.95C69.3077 49.7626 70.2812 49.8588 71.166 50.2264C72.0508 50.5941 72.807 51.2166 73.3391 52.0154C73.8711 52.8142 74.1551 53.7532 74.1551 54.7139C74.1538 56.0017 73.6433 57.2364 72.7355 58.1471C71.8277 59.0577 70.5968 59.5698 69.313 59.5711Z" stroke="#024D81" stroke-width="2"/>
</svg>
