<svg width="90" height="90" viewBox="0 0 90 90" fill="none" xmlns="http://www.w3.org/2000/svg">
<path d="M71.5625 19.852C70.8319 19.3794 69.9963 19.0934 69.1293 19.0193C68.2622 18.9452 67.3903 19.0852 66.59 19.427L40.3675 29.7545C39.7467 30.0072 39.0828 30.1371 38.4125 30.137H21.625C20.216 30.137 18.8648 30.6968 17.8685 31.693C16.8722 32.6893 16.3125 34.0406 16.3125 35.4495V35.8745H11V48.6245H16.3125V49.177C16.3458 50.5638 16.9202 51.8825 17.9129 52.8514C18.9056 53.8203 20.2379 54.3624 21.625 54.362L28 67.877C28.4317 68.7871 29.1113 69.557 29.9608 70.0983C30.8103 70.6396 31.7952 70.9303 32.8025 70.937H35.48C36.8816 70.9258 38.2219 70.3612 39.2091 69.3661C40.1962 68.371 40.75 67.0262 40.75 65.6245V54.872L66.59 65.1995C67.2256 65.4525 67.9034 65.5823 68.5875 65.582C69.6488 65.5649 70.6822 65.2401 71.5625 64.647C72.2615 64.1751 72.8381 63.5434 73.2446 62.8044C73.6511 62.0653 73.8757 61.2401 73.9 60.397V24.2295C73.8961 23.3647 73.6812 22.514 73.2738 21.7511C72.8664 20.9882 72.279 20.3363 71.5625 19.852V19.852ZM35.4375 35.4495V49.177H21.625V35.4495H35.4375ZM35.4375 65.6245H32.76L27.5325 54.362H35.4375V65.6245ZM42.3225 49.8145C41.8179 49.5567 41.2917 49.3434 40.75 49.177V35.152C41.2865 35.0413 41.8126 34.8849 42.3225 34.6845L68.5875 24.2295V60.2695L42.3225 49.8145ZM74.0275 36.937V47.562C75.4365 47.562 76.7877 47.0023 77.784 46.006C78.7803 45.0098 79.34 43.6585 79.34 42.2495C79.34 40.8406 78.7803 39.4893 77.784 38.493C76.7877 37.4968 75.4365 36.937 74.0275 36.937V36.937Z" stroke="#024D81" stroke-width="2"/>
</svg>
