<svg width="90" height="90" viewBox="0 0 90 90" fill="none" xmlns="http://www.w3.org/2000/svg">
<path d="M60.503 47.8689L78.5776 65.7366L75.3024 68.9743L57.2147 51.0905L56.5117 50.3954L55.8086 51.0905L47.8219 58.9857L47.4152 59.3877L47.5554 59.9421L48.3554 63.1053L44.7644 66.6527L20.3463 42.5141L23.9289 38.975L27.1392 39.767L27.6832 39.9012L28.0817 39.5073L48.992 18.8397L49.436 18.4008L49.2367 17.8092L48.2632 14.9193L51.8142 11.4064L76.2326 35.5452L72.6886 39.0536L69.7487 38.083L69.1679 37.8912L68.7326 38.321L60.5034 46.4461L59.7831 47.1573L60.503 47.8689ZM48.8671 74.4315V79H11V74.4315H48.8671Z" stroke="#024D81" stroke-width="2"/>
</svg>
