<svg width="90" height="90" viewBox="0 0 90 90" fill="none" xmlns="http://www.w3.org/2000/svg">
<path d="M57.2425 32.7577C56.1168 31.6324 54.5903 31.0002 52.9986 31.0002C51.4069 31.0002 49.8804 31.6324 48.7547 32.7577L47.8243 33.6861L50.6536 36.5154L51.584 35.5869C51.9613 35.2225 52.4668 35.0208 52.9914 35.0253C53.516 35.0299 54.0179 35.2403 54.3889 35.6113C54.7598 35.9823 54.9703 36.4841 54.9748 37.0088C54.9794 37.5334 54.7777 38.0388 54.4132 38.4162L47.8243 45.0051L50.6536 47.8344L57.2425 41.2455C58.3678 40.1198 59 38.5933 59 37.0016C59 35.4099 58.3678 33.8833 57.2425 32.7577V32.7577ZM38.4061 54.4233C38.0287 54.7878 37.5233 54.9895 36.9987 54.9849C36.474 54.9804 35.9722 54.7699 35.6012 54.399C35.2302 54.028 35.0198 53.5261 35.0152 53.0015C35.0107 52.4769 35.2124 51.9714 35.5768 51.5941L42.1658 45.0051L39.3365 42.1759L32.7476 48.7648C32.1743 49.3185 31.717 49.9809 31.4024 50.7132C31.0878 51.4456 30.9222 52.2333 30.9153 53.0303C30.9083 53.8273 31.0602 54.6178 31.362 55.3555C31.6639 56.0932 32.1096 56.7634 32.6732 57.327C33.2368 57.8906 33.907 58.3363 34.6447 58.6381C35.3824 58.94 36.1728 59.0918 36.9699 59.0849C37.7669 59.078 38.5546 58.9124 39.2869 58.5978C40.0193 58.2832 40.6816 57.8259 41.2354 57.2526L42.1658 56.3242L39.3365 53.4949L38.4061 54.4233ZM41.2354 32.7597C40.0987 31.6927 38.5914 31.1099 37.0326 31.1345C35.4738 31.1591 33.9858 31.7891 32.8832 32.8914C31.7807 33.9936 31.1503 35.4816 31.1254 37.0404C31.1004 38.5991 31.6829 40.1065 32.7496 41.2435L33.678 42.1739L36.5073 39.3446L35.5788 38.4142C35.2144 38.0368 35.0127 37.5314 35.0172 37.0068C35.0218 36.4821 35.2322 35.9803 35.6032 35.6093C35.9742 35.2383 36.476 35.0279 37.0007 35.0233C37.5253 35.0188 38.0307 35.2205 38.4081 35.5849L44.995 42.1759L47.8243 39.3466L41.2354 32.7597Z" stroke="#024D81" stroke-width="2"/>
<path d="M57.2427 48.7648L56.3143 47.8344L53.4851 50.6637L54.4135 51.5941C54.7779 51.9714 54.9796 52.4769 54.9751 53.0015C54.9705 53.5261 54.7601 54.028 54.3891 54.399C54.0181 54.7699 53.5163 54.9804 52.9916 54.9849C52.467 54.9895 51.9616 54.7878 51.5842 54.4233L44.9953 47.8344L42.166 50.6637L48.7549 57.2526C49.8871 58.346 51.4034 58.9511 52.9772 58.9374C54.5511 58.9237 56.0567 58.2924 57.1696 57.1795C58.2826 56.0665 58.9138 54.561 58.9275 52.9871C58.9412 51.4132 58.3362 49.8969 57.2427 48.7648V48.7648Z" stroke="#024D81" stroke-width="2"/>
<path d="M45 79C44.605 79.0003 44.2169 78.8939 43.8757 78.6917L17.1065 62.8252C16.7697 62.6255 16.4903 62.3396 16.2961 61.996C16.102 61.6524 15.9999 61.2631 16 60.8668V29.1338C15.9999 28.7376 16.102 28.3483 16.2961 28.0047C16.4903 27.661 16.7697 27.3751 17.1065 27.1754L43.8757 11.3089C44.2169 11.1066 44.6049 11 45 11C45.3951 11 45.7831 11.1066 46.1243 11.3089L72.8935 27.1754L70.6449 31.0922L45 15.8921L20.4615 30.4349V59.5658L45 74.1108L69.5385 59.5658V42.7337H74V60.8668C74.0001 61.2631 73.898 61.6524 73.7039 61.996C73.5097 62.3396 73.2303 62.6255 72.8935 62.8252L46.1243 78.6917C45.7831 78.8939 45.395 79.0003 45 79V79Z" stroke="#024D81" stroke-width="2"/>
</svg>
