<svg width="90" height="90" viewBox="0 0 90 90" fill="none" xmlns="http://www.w3.org/2000/svg">
<path d="M58.9444 11H30.0556C27.2635 11 25 13.2199 25 15.9583V74.0417C25 76.7801 27.2635 79 30.0556 79H58.9444C61.7365 79 64 76.7801 64 74.0417V15.9583C64 13.2199 61.7365 11 58.9444 11Z" stroke="#024D81" stroke-width="2" stroke-linecap="round" stroke-linejoin="round"/>
<path d="M18.5424 21.8029C18.5424 21.8029 12.9512 27.2694 11.1406 32.6684" stroke="#024D81" stroke-width="2" stroke-linecap="round"/>
<path d="M11.0029 57.5679C11.0029 57.5679 14.225 64.698 18.6817 68.2394" stroke="#024D81" stroke-width="2" stroke-linecap="round"/>
<path d="M71.2383 21.8029C71.2383 21.8029 76.8295 27.2694 78.6401 32.6684" stroke="#024D81" stroke-width="2" stroke-linecap="round"/>
<path d="M78.7782 57.5701C78.7782 57.5701 75.5562 64.7004 71.0996 68.2416" stroke="#024D81" stroke-width="2" stroke-linecap="round"/>
<path d="M31.2061 58.1055C32.476 60.3825 34.3046 62.2986 36.5199 63.6734C38.735 65.0481 41.2638 65.8362 43.8677 65.9634C46.4718 66.0907 49.0653 65.5526 51.404 64.4004C53.7426 63.2481 55.7493 61.5194 57.2351 59.377" stroke="#024D81" stroke-width="2" stroke-linecap="round"/>
<path d="M31.2061 31.3772C32.476 29.1003 34.3046 27.1841 36.5199 25.8094C38.735 24.4346 41.2638 23.6465 43.8677 23.5193C46.4718 23.3921 49.0653 23.9298 51.404 25.082C53.7426 26.2343 55.7493 27.9634 57.2351 30.1056" stroke="#024D81" stroke-width="2" stroke-linecap="round"/>
<path d="M33.6952 40V49.8657H34.8895V42.7305C34.8994 42.279 34.8795 41.8274 34.83 41.3783H34.8755C34.9621 41.594 35.0715 41.8011 35.1993 41.9948L40.4493 49.8606H41.9123V40H40.7231V46.9365C40.7091 47.421 40.7371 47.9056 40.7958 48.3859H40.7686C40.6379 48.1614 40.4995 47.9412 40.3539 47.7254L35.2448 40.0008L33.6952 40ZM44.56 40V49.8657H49.9876L49.992 48.7825H45.7806V45.3603H49.4679V44.321H45.7806V41.0443H49.7365V40.0008L44.56 40ZM50.9038 40V41.0435H53.8385V49.8648H55.0329V41.0435H58V40H50.9038ZM30.7604 48.4561C30.66 48.4586 30.5611 48.4806 30.4695 48.5206C30.378 48.5607 30.2957 48.6181 30.2275 48.6894C30.0808 48.8341 29.9991 49.0289 30 49.2315C29.9987 49.3831 30.0442 49.5317 30.1307 49.6582C30.2172 49.7847 30.3409 49.8834 30.4858 49.9416C30.6307 49.9998 30.7902 50.0149 30.9441 49.985C31.0979 49.955 31.239 49.8814 31.3493 49.7735C31.4998 49.6323 31.5864 49.4344 31.5864 49.2315C31.5864 49.0285 31.4998 48.8307 31.3493 48.6894C31.2773 48.6155 31.1904 48.5566 31.0939 48.5164C30.9974 48.4763 30.8935 48.4557 30.7884 48.4561H30.7613H30.7604Z" fill="#024D81"/>
</svg>
