<svg width="90" height="90" viewBox="0 0 90 90" fill="none" xmlns="http://www.w3.org/2000/svg">
<path d="M27.8067 37V51.7985H29.6835V41.0957C29.6991 40.4185 29.6678 39.741 29.59 39.0675H29.6615C29.7977 39.3909 29.9695 39.7017 30.1703 39.9922L38.4203 51.7909H40.7193V37H38.8507V47.4047C38.8287 48.1315 38.8727 48.8583 38.9648 49.5788H38.9222C38.7167 49.2421 38.4993 48.9117 38.2704 48.5882L30.2418 37.0013L27.8067 37ZM44.88 37V51.7985H53.4091L53.416 50.1737H46.7981V45.0404H52.5924V43.4816H46.7981V38.5665H53.0145V37.0013L44.88 37ZM54.8488 37V38.5652H59.4605V51.7972H61.3374V38.5652H66V37H54.8488ZM23.1949 49.6841C23.0371 49.6879 22.8817 49.7208 22.7378 49.781C22.594 49.8411 22.4647 49.9272 22.3575 50.0342C22.127 50.2512 21.9986 50.5433 22 50.8472C21.9979 51.0747 22.0694 51.2976 22.2054 51.4873C22.3413 51.6771 22.5356 51.8251 22.7633 51.9125C22.991 51.9998 23.2418 52.0224 23.4836 51.9775C23.7253 51.9326 23.947 51.8221 24.1203 51.6603C24.3568 51.4484 24.4929 51.1516 24.4929 50.8472C24.4929 50.5428 24.3568 50.246 24.1203 50.0342C24.0072 49.9232 23.8706 49.8349 23.719 49.7747C23.5674 49.7144 23.404 49.6836 23.2389 49.6841H23.1963H23.1949Z" fill="#024D81"/>
<path d="M22.5472 31.8832L22.3682 32.3666L21.8706 32.5013C15.6303 34.1904 11 40.0322 11 47C11 55.3105 17.567 62 25.6172 62H64.3828C72.433 62 79 55.3105 79 47C79 40.0174 74.3555 34.1755 68.0997 32.4937L67.6009 32.3596L67.4216 31.8752C63.9797 22.5791 55.2202 16 44.9844 16C34.7491 16 25.9893 22.5866 22.5472 31.8832Z" stroke="#024D81" stroke-width="2"/>
</svg>
