<svg width="134" height="135" viewBox="0 0 134 135" fill="none" xmlns="http://www.w3.org/2000/svg">
<circle cx="67.5" cy="67.5" r="36.5" fill="#024D81"/>
<path d="M12 58.9994H0.5C5 11.9997 48.5 -0.833924 66.5 0.499348C66.5 0.499348 123.5 -2 134 58.9994H122C122 58.9994 114.5 13.5 66.5 11.9994C66.5 11.9994 20 13.5 12 58.9994Z" fill="#024D81"/>
<path d="M12 76.4068H0.5C5 123.407 48.5 136.24 66.5 134.907C66.5 134.907 123.5 137.406 134 76.4068H122C122 76.4068 114.5 121.906 66.5 123.407C66.5 123.407 20 121.906 12 76.4068Z" fill="#AAAAAA"/>
</svg>
