<svg width="30" height="30" viewBox="0 0 30 30" fill="none" xmlns="http://www.w3.org/2000/svg">
<path d="M14.4146 11.9616C12.9416 9.35756 11.3696 7.16156 11.0516 6.72656C8.51965 7.93556 6.62365 10.2666 6.01465 13.0686C6.03865 13.0686 6.06865 13.0686 6.10465 13.0686C6.95365 13.0686 10.4636 13.0026 14.4146 11.9616Z" fill="#024D81"/>
<path d="M21.0568 8.11594C19.4368 6.69694 17.3188 5.83594 14.9998 5.83594C14.2858 5.83594 13.5928 5.91694 12.9268 6.07294C13.3018 6.57694 14.8738 8.74894 16.3078 11.3769C19.4098 10.2009 20.7988 8.46694 21.0568 8.11594Z" fill="#024D81"/>
<path d="M17.6574 14.1346C17.7204 14.2816 17.7804 14.4286 17.8404 14.5726C18.5514 14.4856 19.2624 14.4496 19.9344 14.4496C22.0254 14.4496 23.7744 14.7766 24.1884 14.8606C24.1524 12.7456 23.3994 10.8016 22.1574 9.26562C21.8364 9.68262 20.2854 11.5216 17.0664 12.8446C17.2734 13.2706 17.4714 13.6996 17.6574 14.1346Z" fill="#024D81"/>
<path d="M15.6295 15.0424C15.7315 15.0094 15.8335 14.9794 15.9355 14.9494C15.7165 14.4574 15.4795 13.9654 15.2335 13.4824C11.1535 14.6944 7.19355 14.7874 6.05355 14.7874C5.94855 14.7874 5.86755 14.7874 5.81355 14.7844C5.81055 14.8594 5.81055 14.9374 5.81055 15.0124C5.81055 17.3434 6.68655 19.4734 8.12355 21.0934C8.51055 20.4544 11.0365 16.5274 15.6295 15.0424Z" fill="#024D81"/>
<path d="M14.9998 0.300781C6.8818 0.300781 0.299805 6.88278 0.299805 15.0008C0.299805 23.1188 6.8818 29.7008 14.9998 29.7008C23.1178 29.7008 29.6998 23.1188 29.6998 15.0008C29.6998 6.88278 23.1178 0.300781 14.9998 0.300781ZM14.9998 25.8668C8.9998 25.8668 4.1188 20.9918 4.1188 15.0008C4.1188 9.00978 8.9998 4.13478 14.9998 4.13478C20.9998 4.13478 25.8808 9.00978 25.8808 15.0008C25.8808 20.9918 20.9998 25.8668 14.9998 25.8668Z" fill="#024D81"/>
<path d="M18.4434 16.1323C19.5864 19.2853 20.0814 21.8713 20.2044 22.5793C22.2174 21.1933 23.6514 19.0273 24.0654 16.5223C23.7174 16.4173 22.2144 15.9943 20.2914 15.9943C19.7094 15.9913 19.0854 16.0333 18.4434 16.1323Z" fill="#024D81"/>
<path d="M16.5956 16.585C11.5616 18.337 9.65358 21.769 9.39258 22.285C10.9466 23.482 12.8906 24.196 14.9996 24.196C16.2566 24.196 17.4566 23.941 18.5516 23.482C18.4046 22.627 17.8706 19.87 16.6076 16.582C16.6016 16.582 16.5986 16.585 16.5956 16.585Z" fill="#024D81"/>
</svg>
