<svg width="90" height="90" viewBox="0 0 90 90" fill="none" xmlns="http://www.w3.org/2000/svg">
<path d="M27 67.6667V66.9444V66.6667V65.9444V64.2222C27 63.8423 27.3246 63.5 27.75 63.5H31.25C31.6754 63.5 32 63.8423 32 64.2222V65.9444V66.6667V66.9444V67.6667C32 68.0466 31.6754 68.3889 31.25 68.3889H27.75C27.3246 68.3889 27 68.0466 27 67.6667ZM13.9252 66.6667H13.7675H12.7675V67.6667V74.5556C12.7675 77.0173 14.8054 79 17.2675 79H41.75C44.2121 79 46.25 77.0173 46.25 74.5556V67.6667V66.6667H45.25H45.0624C46.7679 66.0386 48 64.4141 48 62.5V57.3333C48 54.8716 45.9621 52.8889 43.5 52.8889H37.4365C36.9379 48.9917 33.5633 46 29.5 46C25.4367 46 22.0621 48.9917 21.5635 52.8889H15.5C13.0379 52.8889 11 54.8716 11 57.3333V62.5C11 64.4255 12.2189 66.0412 13.9252 66.6667ZM27.2215 52.8889C27.6129 52.0452 28.4823 51.4444 29.5 51.4444C30.5177 51.4444 31.3871 52.0452 31.7785 52.8889H27.2215Z" stroke="#024D81" stroke-width="2"/>
<path d="M58 32.6667V31.9444V31.6667V30.9444V29.2222C58 28.8423 58.3246 28.5 58.75 28.5H62.25C62.6754 28.5 63 28.8423 63 29.2222V30.9444V31.6667V31.9444V32.6667C63 33.0466 62.6754 33.3889 62.25 33.3889H58.75C58.3246 33.3889 58 33.0466 58 32.6667ZM44.9252 31.6667H44.7675H43.7675V32.6667V39.5556C43.7675 42.0173 45.8054 44 48.2675 44H72.75C75.2121 44 77.25 42.0173 77.25 39.5556V32.6667V31.6667H76.25H76.0624C77.7679 31.0386 79 29.4141 79 27.5V22.3333C79 19.8716 76.9621 17.8889 74.5 17.8889H68.4365C67.9379 13.9917 64.5633 11 60.5 11C56.4367 11 53.0621 13.9917 52.5635 17.8889H46.5C44.0379 17.8889 42 19.8716 42 22.3333V27.5C42 29.4255 43.2189 31.0412 44.9252 31.6667ZM58.2215 17.8889C58.6129 17.0452 59.4823 16.4444 60.5 16.4444C61.5177 16.4444 62.3871 17.0452 62.7785 17.8889H58.2215Z" stroke="#024D81" stroke-width="2"/>
<path fill-rule="evenodd" clip-rule="evenodd" d="M21.3037 40.7956L14.467 36.6411L16.022 34.0823L20.3667 36.7224C19.2309 33.3577 19.6088 29.4623 21.6084 26.1716C24.9018 20.752 31.6883 18.4688 37.2202 21.2697L37.7007 21.515L36.1457 24.0739L35.7366 23.8767C31.7652 21.9585 26.7198 23.5409 24.176 27.7272C22.3764 30.6886 22.3087 34.1699 23.6797 36.8857L26.6133 32.058L29.1771 33.6159L24.8595 40.721L22.1969 41.3477L21.2996 40.8024L21.3027 40.7973L21.3037 40.7956Z" fill="#024D81"/>
<path fill-rule="evenodd" clip-rule="evenodd" d="M67.1332 50.9798L74.0614 54.9798L72.5643 57.5729L68.1614 55.0309C69.3725 58.3693 69.0821 62.2722 67.1568 65.607C63.9859 71.0992 57.2523 73.5341 51.659 70.858L51.1731 70.6235L52.6703 68.0304L53.0837 68.2184C57.0971 70.0469 62.1057 68.3517 64.555 64.1094C66.2877 61.1084 66.2772 57.6264 64.8456 54.9421L62.0211 59.8344L59.423 58.3344L63.58 51.1342L66.2279 50.4479L67.1372 50.9729L67.1342 50.9781L67.1332 50.9798Z" fill="#024D81"/>
</svg>
