<svg width="90" height="90" viewBox="0 0 90 90" fill="none" xmlns="http://www.w3.org/2000/svg">
<path d="M37.8745 11H37.875H53.125L53.1255 11C54.5284 10.9994 55.8859 11.3739 57.01 12.0576C58.1332 12.7408 58.9555 13.6902 59.3929 14.755L59.6476 15.375H60.3179H68.375C70.1765 15.375 71.8795 15.9923 73.1144 17.0551C74.3446 18.1138 75 19.5148 75 20.9375V73.4375C75 74.8602 74.3446 76.2612 73.1144 77.3199C71.8795 78.3827 70.1765 79 68.375 79H22.625C20.8235 79 19.1205 78.3827 17.8856 77.3199C16.6554 76.2612 16 74.8602 16 73.4375V20.9375C16 19.5148 16.6554 18.1138 17.8856 17.0551C19.1205 15.9923 20.8235 15.375 22.625 15.375H30.6821H31.3524L31.6071 14.755C32.0445 13.6902 32.8668 12.7408 33.99 12.0576C35.1141 11.3739 36.4716 10.9994 37.8745 11ZM59.4792 42.7188C60.7111 42.7188 61.9173 42.2989 62.8273 41.5156C63.7421 40.7284 64.2917 39.6255 64.2917 38.4375C64.2917 37.2495 63.7421 36.1466 62.8273 35.3594C61.9173 34.5761 60.7111 34.1562 59.4792 34.1562C58.2472 34.1562 57.0411 34.5761 56.131 35.3594C55.2163 36.1466 54.6667 37.2495 54.6667 38.4375C54.6667 39.6255 55.2163 40.7284 56.131 41.5156C57.0411 42.2989 58.2472 42.7188 59.4792 42.7188ZM59.4792 55.8438C60.7111 55.8438 61.9173 55.4239 62.8273 54.6406C63.7421 53.8534 64.2917 52.7505 64.2917 51.5625C64.2917 50.3745 63.7421 49.2716 62.8273 48.4844C61.9173 47.7011 60.7111 47.2812 59.4792 47.2812C58.2472 47.2812 57.0411 47.7011 56.131 48.4844C55.2163 49.2716 54.6667 50.3745 54.6667 51.5625C54.6667 52.7505 55.2163 53.8534 56.131 54.6406C57.0411 55.4239 58.2472 55.8438 59.4792 55.8438ZM54.6667 64.6875C54.6667 65.8755 55.2163 66.9784 56.131 67.7656C57.0411 68.5489 58.2472 68.9688 59.4792 68.9688C60.7111 68.9688 61.9173 68.5489 62.8273 67.7656C63.7421 66.9784 64.2917 65.8755 64.2917 64.6875C64.2917 63.4995 63.7421 62.3966 62.8273 61.6094C61.9173 60.8261 60.7111 60.4062 59.4792 60.4062C58.2472 60.4062 57.0411 60.8261 56.131 61.6094C55.2163 62.3966 54.6667 63.4995 54.6667 64.6875ZM51.5833 38.4375C51.5833 37.5396 51.1676 36.7149 50.4912 36.1328C49.8195 35.5546 48.9365 35.25 48.0417 35.25H30.25C29.3551 35.25 28.4722 35.5546 27.8004 36.1328C27.124 36.7149 26.7083 37.5396 26.7083 38.4375C26.7083 39.3354 27.124 40.1601 27.8004 40.7422C28.4722 41.3204 29.3551 41.625 30.25 41.625H48.0417C48.9365 41.625 49.8195 41.3204 50.4912 40.7422C51.1676 40.1601 51.5833 39.3354 51.5833 38.4375ZM51.5833 51.5625C51.5833 50.6646 51.1676 49.8399 50.4912 49.2578C49.8195 48.6796 48.9365 48.375 48.0417 48.375H30.25C29.3551 48.375 28.4722 48.6796 27.8004 49.2578C27.124 49.8399 26.7083 50.6646 26.7083 51.5625C26.7083 52.4604 27.124 53.2851 27.8004 53.8672C28.4722 54.4454 29.3551 54.75 30.25 54.75H48.0417C48.9365 54.75 49.8195 54.4454 50.4912 53.8672C51.1676 53.2851 51.5833 52.4604 51.5833 51.5625ZM51.5833 64.6875C51.5833 63.7896 51.1676 62.9649 50.4912 62.3828C49.8195 61.8046 48.9365 61.5 48.0417 61.5H30.25C29.3551 61.5 28.4722 61.8046 27.8004 62.3828C27.124 62.9649 26.7083 63.7896 26.7083 64.6875C26.7083 65.5854 27.124 66.4101 27.8004 66.9922C28.4722 67.5704 29.3551 67.875 30.25 67.875H48.0417C48.9365 67.875 49.8195 67.5704 50.4912 66.9922C51.1676 66.4101 51.5833 65.5854 51.5833 64.6875Z" stroke="#024D81" stroke-width="2"/>
<path d="M36.0774 19.1093C35.6008 18.6991 35.333 18.1427 35.333 17.5625C35.333 16.9823 35.6008 16.4259 36.0774 16.0157C36.5541 15.6055 37.2006 15.375 37.8747 15.375H53.1247C53.7988 15.375 54.4453 15.6055 54.9219 16.0157C55.3986 16.4259 55.6663 16.9823 55.6663 17.5625C55.6663 18.1427 55.3986 18.6991 54.9219 19.1093C54.4453 19.5195 53.7988 19.75 53.1247 19.75H37.8747C37.2006 19.75 36.5541 19.5195 36.0774 19.1093Z" stroke="#024D81" stroke-width="2"/>
</svg>
