<svg width="90" height="90" viewBox="0 0 90 90" fill="none" xmlns="http://www.w3.org/2000/svg">
<path d="M78.5584 16.8635H12.0319C11.8394 16.8744 11.6532 16.9355 11.4914 17.0404C11.3482 17.1675 11.2413 17.3303 11.1816 17.5122V59.9914C11.2935 60.5403 11.5311 61.0558 11.8756 61.4977C12.2548 61.8722 12.725 62.1415 13.24 62.279H77.0157C77.4921 62.2159 77.9422 62.0239 78.3175 61.7239C78.6089 61.2889 78.7817 60.7853 78.8185 60.263V17.7649C78.8059 17.5093 78.6951 17.2686 78.5088 17.093C78.2476 16.9422 77.9514 16.8622 77.6498 16.8606H69.6939" stroke="#024D81" stroke-width="2" stroke-linecap="square" stroke-linejoin="round"/>
<path d="M34.0371 74H56.8928" stroke="#024D81" stroke-width="2" stroke-linecap="square"/>
<path d="M39.751 72.8573V62.5723" stroke="#024D81" stroke-width="2" stroke-linecap="square"/>
<path d="M51 74L51.1792 62.5723" stroke="#024D81" stroke-width="2" stroke-linecap="square"/>
<path d="M28 27.2732L31.8239 26.5299L35.3516 44.6787L56.6823 40.5325C57.2168 40.4388 57.7151 40.1994 58.1223 39.8407C58.4303 39.432 58.6 38.9357 58.6068 38.424L58.5068 25L32.8845 29.9805" stroke="#024D81" stroke-width="2" stroke-linecap="round" stroke-linejoin="round"/>
<path d="M40.3714 54.3322C41.7397 54.0662 42.6334 52.7413 42.3674 51.3729C42.1014 50.0046 40.7765 49.1109 39.4082 49.3769C38.0398 49.6429 37.1461 50.9678 37.4121 52.3362C37.6781 53.7045 39.003 54.5982 40.3714 54.3322Z" stroke="#024D81" stroke-width="2" stroke-linecap="round" stroke-linejoin="round"/>
<path d="M55.9041 51.3129C57.2724 51.0469 58.1661 49.722 57.9001 48.3537C57.6341 46.9853 56.3092 46.0916 54.9409 46.3576C53.5725 46.6236 52.6788 47.9485 52.9448 49.3169C53.2108 50.6853 54.5357 51.5789 55.9041 51.3129Z" stroke="#024D81" stroke-width="2" stroke-linecap="round" stroke-linejoin="round"/>
<path d="M35.3291 44.5815L36.66 51.4285" stroke="#024D81" stroke-width="2" stroke-linecap="round"/>
<path d="M43.3247 50.5639L51.7597 48.9243" stroke="#024D81" stroke-width="2" stroke-linecap="round"/>
<path d="M46.8667 33.0237L53.707 31.6941" stroke="#024D81" stroke-width="2" stroke-linecap="round"/>
</svg>
