<svg width="90" height="90" viewBox="0 0 90 90" fill="none" xmlns="http://www.w3.org/2000/svg">
<path d="M24.0177 25.741C24.0177 26.2975 23.7967 26.8312 23.4032 27.2247C23.0097 27.6182 22.476 27.8393 21.9195 27.8393C21.363 27.8393 20.8293 27.6182 20.4358 27.2247C20.0424 26.8312 19.8213 26.2975 19.8213 25.741C19.8213 25.1846 20.0424 24.6509 20.4358 24.2574C20.8293 23.8639 21.363 23.6428 21.9195 23.6428C22.476 23.6428 23.0097 23.8639 23.4032 24.2574C23.7967 24.6509 24.0177 25.1846 24.0177 25.741ZM30.3124 25.741C30.3124 26.2975 30.0913 26.8312 29.6978 27.2247C29.3043 27.6182 28.7706 27.8393 28.2141 27.8393C27.6577 27.8393 27.124 27.6182 26.7305 27.2247C26.337 26.8312 26.1159 26.2975 26.1159 25.741C26.1159 25.1846 26.337 24.6509 26.7305 24.2574C27.124 23.8639 27.6577 23.6428 28.2141 23.6428C28.7706 23.6428 29.3043 23.8639 29.6978 24.2574C30.0913 24.6509 30.3124 25.1846 30.3124 25.741ZM34.5088 27.8393C35.0653 27.8393 35.599 27.6182 35.9925 27.2247C36.3859 26.8312 36.607 26.2975 36.607 25.741C36.607 25.1846 36.3859 24.6509 35.9925 24.2574C35.599 23.8639 35.0653 23.6428 34.5088 23.6428C33.9523 23.6428 33.4186 23.8639 33.0251 24.2574C32.6316 24.6509 32.4106 25.1846 32.4106 25.741C32.4106 26.2975 32.6316 26.8312 33.0251 27.2247C33.4186 27.6182 33.9523 27.8393 34.5088 27.8393Z" fill="#024D81"/>
<path d="M13.5269 15.25C12.9704 15.25 12.4368 15.4711 12.0433 15.8646C11.6498 16.258 11.4287 16.7917 11.4287 17.3482V71.9018C11.4287 72.4583 11.6498 72.992 12.0433 73.3855C12.4368 73.7789 12.9704 74 13.5269 74H76.4734C77.0298 74 77.5635 73.7789 77.957 73.3855C78.3505 72.992 78.5716 72.4583 78.5716 71.9018V17.3482C78.5716 16.7917 78.3505 16.258 77.957 15.8646C77.5635 15.4711 77.0298 15.25 76.4734 15.25H13.5269ZM15.6251 32.0357V19.4464H74.3751V32.0357H15.6251ZM15.6251 36.2321H74.3751V69.8036H15.6251V36.2321Z" stroke="#024D81" stroke-width="2"/>
<path d="M59 26H69" stroke="#024D81" stroke-width="2" stroke-linecap="round"/>
<path d="M24 60H46" stroke="#024D81" stroke-width="2" stroke-linecap="round"/>
<path d="M54 60H66" stroke="#024D81" stroke-width="2" stroke-linecap="round"/>
<path d="M24 65H46" stroke="#024D81" stroke-width="2" stroke-linecap="round"/>
<path d="M54 65H66" stroke="#024D81" stroke-width="2" stroke-linecap="round"/>
<path d="M36.098 45.5469H32.9872C32.9304 45.1444 32.8144 44.7869 32.6392 44.4744C32.464 44.1572 32.2391 43.8873 31.9645 43.6648C31.6899 43.4422 31.3726 43.2718 31.0128 43.1534C30.6577 43.035 30.2718 42.9759 29.8551 42.9759C29.1023 42.9759 28.4465 43.1629 27.8878 43.5369C27.3291 43.9062 26.8958 44.446 26.5881 45.1562C26.2803 45.8617 26.1264 46.7187 26.1264 47.7273C26.1264 48.7642 26.2803 49.6354 26.5881 50.3409C26.9006 51.0464 27.3362 51.5791 27.8949 51.9389C28.4536 52.2988 29.0999 52.4787 29.8338 52.4787C30.2457 52.4787 30.6269 52.4242 30.9773 52.3153C31.3324 52.2064 31.6473 52.0478 31.9219 51.8395C32.1965 51.6264 32.4238 51.3684 32.6037 51.0653C32.7884 50.7623 32.9162 50.4167 32.9872 50.0284L36.098 50.0426C36.0175 50.7102 35.8163 51.3542 35.4943 51.9744C35.1771 52.59 34.7486 53.1416 34.2088 53.6293C33.6738 54.1122 33.0346 54.4957 32.2912 54.7798C31.5526 55.0592 30.7169 55.1989 29.7841 55.1989C28.4867 55.1989 27.3267 54.9053 26.304 54.3182C25.286 53.7311 24.4811 52.8812 23.8892 51.7685C23.3021 50.6558 23.0085 49.3087 23.0085 47.7273C23.0085 46.1411 23.3068 44.7917 23.9034 43.679C24.5 42.5663 25.3097 41.7187 26.3324 41.1364C27.3551 40.5492 28.5057 40.2557 29.7841 40.2557C30.6269 40.2557 31.4081 40.3741 32.1278 40.6108C32.8523 40.8475 33.4938 41.1932 34.0526 41.6477C34.6113 42.0975 35.0658 42.6491 35.4162 43.3026C35.7713 43.956 35.9986 44.7041 36.098 45.5469ZM38.3033 55V40.4545H44.0419C45.1404 40.4545 46.0779 40.651 46.8544 41.044C47.6357 41.4323 48.2299 41.9839 48.6371 42.6989C49.049 43.4091 49.255 44.2448 49.255 45.206C49.255 46.1719 49.0466 47.0028 48.63 47.6989C48.2133 48.3902 47.6096 48.9205 46.8189 49.2898C46.0329 49.6591 45.0812 49.8438 43.9638 49.8438H40.1214V47.3722H43.4666C44.0537 47.3722 44.5414 47.2917 44.9297 47.1307C45.3179 46.9697 45.6068 46.7282 45.7962 46.4062C45.9903 46.0843 46.0874 45.6842 46.0874 45.206C46.0874 44.723 45.9903 44.3158 45.7962 43.9844C45.6068 43.6529 45.3156 43.402 44.9226 43.2315C44.5343 43.0563 44.0443 42.9688 43.4524 42.9688H41.3786V55H38.3033ZM46.1584 48.3807L49.7734 55H46.3786L42.8416 48.3807H46.1584ZM51.4283 40.4545H55.2209L59.2266 50.2273H59.397L63.4027 40.4545H67.1953V55H64.2124V45.5327H64.0916L60.3274 54.929H58.2962L54.532 45.4972H54.4112V55H51.4283V40.4545Z" fill="#024D81"/>
</svg>
