<svg width="90" height="90" viewBox="0 0 90 90" fill="none" xmlns="http://www.w3.org/2000/svg">
<path d="M80 49.8571V40.1429H69.6451C69.0103 37.1021 67.7852 34.2109 66.0373 31.6283L73.3809 24.3911L66.4119 17.5231L59.0684 24.7603C56.4477 23.0377 53.514 21.8305 50.4286 21.2049V11H40.5714V21.2049C37.486 21.8305 34.5523 23.0377 31.9316 24.7603L24.5881 17.5231L17.6191 24.3911L24.9626 31.6283C23.2148 34.2109 21.9897 37.1021 21.3549 40.1429H11V49.8571H21.3549C21.9956 52.9511 23.2475 55.8266 24.9626 58.3717L17.6191 65.6089L24.5881 72.4769L31.9316 65.2397C34.5523 66.9623 37.486 68.1695 40.5714 68.7951V79H50.4286V68.7951C53.514 68.1695 56.4477 66.9623 59.0684 65.2397L66.4119 72.4769L73.3809 65.6089L66.0373 58.3717C67.7852 55.7891 69.0103 52.8979 69.6451 49.8571H80ZM45.5 59.5714C37.3481 59.5714 30.7143 53.0337 30.7143 45C30.7143 36.9663 37.3481 30.4286 45.5 30.4286C53.6519 30.4286 60.2857 36.9663 60.2857 45C60.2857 53.0337 53.6519 59.5714 45.5 59.5714Z" stroke="#024D81" stroke-width="2"/>
<rect x="38" y="55" width="42" height="25" fill="white"/>
<path d="M43.2642 75V60.4545H53.0653V62.9901H46.3395V66.456H52.5611V68.9915H46.3395V72.4645H53.0938V75H43.2642ZM55.5103 75V60.4545H61.2489C62.3474 60.4545 63.2849 60.651 64.0614 61.044C64.8427 61.4323 65.4369 61.9839 65.8441 62.6989C66.256 63.4091 66.462 64.2448 66.462 65.206C66.462 66.1719 66.2537 67.0028 65.837 67.6989C65.4203 68.3902 64.8166 68.9205 64.0259 69.2898C63.2399 69.6591 62.2882 69.8438 61.1708 69.8438H57.3285V67.3722H60.6737C61.2608 67.3722 61.7485 67.2917 62.1367 67.1307C62.525 66.9697 62.8138 66.7282 63.0032 66.4062C63.1973 66.0843 63.2944 65.6842 63.2944 65.206C63.2944 64.723 63.1973 64.3158 63.0032 63.9844C62.8138 63.6529 62.5226 63.402 62.1296 63.2315C61.7414 63.0563 61.2513 62.9688 60.6594 62.9688H58.5856V75H55.5103ZM63.3654 68.3807L66.9805 75H63.5856L60.0487 68.3807H63.3654ZM68.6353 75V60.4545H74.3739C75.4772 60.4545 76.417 60.6652 77.1935 61.0866C77.9701 61.5033 78.5619 62.0833 78.9691 62.8267C79.381 63.5653 79.587 64.4176 79.587 65.3835C79.587 66.3494 79.3787 67.2017 78.962 67.9403C78.5453 68.679 77.9416 69.2543 77.1509 69.6662C76.3649 70.0781 75.4132 70.2841 74.2958 70.2841H70.6381V67.8196H73.7987C74.3905 67.8196 74.8782 67.7178 75.2617 67.5142C75.65 67.3059 75.9388 67.0194 76.1282 66.6548C76.3223 66.2855 76.4194 65.8617 76.4194 65.3835C76.4194 64.9006 76.3223 64.4792 76.1282 64.1193C75.9388 63.7547 75.65 63.473 75.2617 63.2741C74.8735 63.0705 74.381 62.9688 73.7844 62.9688H71.7106V75H68.6353Z" fill="#024D81"/>
</svg>
