<svg width="90" height="90" viewBox="0 0 90 90" fill="none" xmlns="http://www.w3.org/2000/svg">
<path d="M52 46H53V45V34.5C53 33.837 53.2634 33.2011 53.7322 32.7322C54.2011 32.2634 54.837 32 55.5 32H76.5C77.163 32 77.7989 32.2634 78.2678 32.7322C78.7366 33.2011 79 33.837 79 34.5V76.5C79 77.163 78.7366 77.7989 78.2678 78.2678C77.7989 78.7366 77.163 79 76.5 79H13.5C12.837 79 12.2011 78.7366 11.7322 78.2678C11.2634 77.7989 11 77.163 11 76.5V20.5C11 19.837 11.2634 19.2011 11.7322 18.7322C12.2011 18.2634 12.837 18 13.5 18H41.5C42.163 18 42.7989 18.2634 43.2678 18.7322C43.7366 19.2011 44 19.837 44 20.5V45V46H45H52ZM31 26.5H30V27.5V34.5V35.5H31H38H39V34.5V27.5V26.5H38H31ZM24 63.5H25V62.5V55.5V54.5H24H17H16V55.5V62.5V63.5H17H24ZM24 49.5H25V48.5V41.5V40.5H24H17H16V41.5V48.5V49.5H17H24ZM24 35.5H25V34.5V27.5V26.5H24H17H16V27.5V34.5V35.5H17H24ZM38 63.5H39V62.5V55.5V54.5H38H31H30V55.5V62.5V63.5H31H38ZM38 49.5H39V48.5V41.5V40.5H38H31H30V41.5V48.5V49.5H31H38ZM69.5 63.5H70.5V62.5V55.5V54.5H69.5H62.5H61.5V55.5V62.5V63.5H62.5H69.5ZM69.5 49.5H70.5V48.5V41.5V40.5H69.5H62.5H61.5V41.5V48.5V49.5H62.5H69.5Z" stroke="#024D81" stroke-width="2"/>
</svg>
