<svg width="90" height="90" viewBox="0 0 90 90" fill="none" xmlns="http://www.w3.org/2000/svg">
<path d="M55.6 46.5556H41.2C40.5635 46.5556 39.953 46.8072 39.5029 47.2552C39.0529 47.7032 38.8 48.3109 38.8 48.9444V56.1111H34V39.3889C34 38.7553 33.7471 38.1477 33.2971 37.6997C32.847 37.2517 32.2365 37 31.6 37H12.4C11.7635 37 11.153 37.2517 10.7029 37.6997C10.2529 38.1477 10 38.7553 10 39.3889V77.6111C10 78.2447 10.2529 78.8523 10.7029 79.3003C11.153 79.7483 11.7635 80 12.4 80H55.6C56.2365 80 56.847 79.7483 57.2971 79.3003C57.7471 78.8523 58 78.2447 58 77.6111V48.9444C58 48.3109 57.7471 47.7032 57.2971 47.2552C56.847 46.8072 56.2365 46.5556 55.6 46.5556ZM24.4 44.1667H29.2V48.9444H24.4V44.1667ZM19.6 68.0556H14.8V63.2778H19.6V68.0556ZM19.6 58.5H14.8V53.7222H19.6V58.5ZM19.6 48.9444H14.8V44.1667H19.6V48.9444ZM29.2 68.0556H24.4V63.2778H29.2V68.0556ZM29.2 58.5H24.4V53.7222H29.2V58.5ZM50.8 68.0556H46V63.2778H50.8V68.0556ZM50.8 58.5H46V53.7222H50.8V58.5Z" stroke="#024D81" stroke-width="2"/>
<path d="M76.9203 38.8124L79 37.0029L77.1757 33.8724L74.5305 34.759C73.9467 34.2705 73.29 33.8905 72.5602 33.619L72.013 30.9048H68.3644L67.8171 33.601C67.0874 33.8724 66.4306 34.2524 65.8469 34.741L63.2016 33.8543L61.3773 36.9848L63.457 38.7943C63.3111 39.699 63.3111 40.1695 63.457 41.0743L61.3773 42.8838L63.2016 46.0143L65.8469 45.1276C66.4306 45.6162 67.0874 45.9962 67.8171 46.2676L68.3644 49H72.013L72.5602 46.3038C73.29 46.0324 73.9467 45.6524 74.5305 45.1638L77.1757 46.0505L79 42.92L76.9203 41.1105C77.0663 40.1876 77.0663 39.7171 76.9203 38.8124ZM70.1887 43.5714C68.1819 43.5714 66.5401 41.9429 66.5401 39.9524C66.5401 37.9619 68.1819 36.3333 70.1887 36.3333C72.1954 36.3333 73.8373 37.9619 73.8373 39.9524C73.8373 41.9429 72.1954 43.5714 70.1887 43.5714ZM55.5943 18.2381V28.0276L59.8997 32.2981L61.7969 29.059L59.2429 26.5438V18.2381H55.5943ZM73.8373 27.2857C73.8373 22.9665 72.1074 18.8241 69.0283 15.77C65.9493 12.7158 61.7731 11 57.4186 11C52.2559 11 47.6587 13.3886 44.6486 17.08V12.8095H41V23.6667H51.9458V20.0476H46.9472C48.1238 18.3742 49.69 17.0069 51.513 16.0619C53.3359 15.1168 55.3617 14.6219 57.4186 14.619C64.4604 14.619 70.1887 20.301 70.1887 27.2857H73.8373ZM55.3389 39.7895C49.8843 38.9029 45.579 34.5419 44.7945 29.0952H41.1095C42.0216 37.2381 48.9722 43.5714 57.4186 43.5714H57.5463L55.3389 39.7895Z" stroke="#024D81" stroke-width="2"/>
</svg>
