<svg width="90" height="90" viewBox="0 0 90 90" fill="none" xmlns="http://www.w3.org/2000/svg">
<path d="M13.5978 56.6624C12.8045 56.2429 12.5272 55.2996 12.9401 54.5462L12.9406 54.5454L17.0832 47.0141L17.0834 47.0137C18.5822 44.286 21.5031 42.5714 24.6781 42.5714H26.8219C28.4233 42.5714 29.9551 43.0043 31.2808 43.7835L32.1686 44.3054L32.6641 43.4026L36.3272 36.7294C36.3274 36.7291 36.3275 36.7288 36.3277 36.7284C37.8334 33.9996 40.7539 32.2857 43.9281 32.2857H46.0719C49.2465 32.2857 52.1673 34.0001 53.6728 36.7294L57.3359 43.4026L57.8314 44.3054L58.7192 43.7835C60.0449 43.0043 61.5767 42.5714 63.1781 42.5714H65.3219C68.4962 42.5714 71.4167 44.2854 72.9223 47.0143C72.9225 47.0146 72.9227 47.0149 72.9228 47.0151L77.0562 54.5455L77.0565 54.546C77.4699 55.2981 77.1915 56.2431 76.403 56.6632C75.599 57.0857 74.6137 56.7825 74.1921 56.0228C74.192 56.0227 74.1919 56.0225 74.1918 56.0223L71.2511 50.6786L69.375 51.1607V55.2857C69.375 56.6105 68.2782 57.7143 66.875 57.7143H61.625C60.2218 57.7143 59.125 56.6105 59.125 55.2857V51.1607L57.2489 50.6786L54.3082 56.0223C54.308 56.0227 54.3077 56.0232 54.3075 56.0236C53.8853 56.7834 52.8988 57.0861 52.0947 56.6619L52.0828 56.6557L52.0708 56.6498C51.258 56.2485 51.0048 55.3442 51.4435 54.546L51.4438 54.5455L55.4141 47.3134L55.7907 46.6274L55.2153 46.0969C55.1031 45.9935 55.0168 45.8822 54.9579 45.7668L54.9508 45.7529L54.9433 45.7393L52.0011 40.3929L50.125 40.875V46.7143C50.125 48.0391 49.0282 49.1429 47.625 49.1429H42.2766C40.9534 49.1429 39.7766 48.0212 39.7766 46.7143V40.875L37.8937 40.4054L35.1039 45.6504C34.9921 45.7847 34.9128 45.9055 34.8613 45.9839C34.8574 45.9899 34.8536 45.9956 34.85 46.0011C34.8041 46.071 34.7869 46.0935 34.7828 46.0987L34.2093 46.6274L34.5859 47.3134L38.5562 54.5455L38.5565 54.546C38.9698 55.298 38.6916 56.2428 37.9034 56.663C37.0991 57.0859 36.1132 56.7825 35.6918 56.0223L35.6918 56.0222L35.6864 56.0128L32.6458 50.6664L30.7768 51.1846L30.875 55.2966C30.869 56.6166 29.7743 57.7143 28.375 57.7143H23.125C21.7218 57.7143 20.625 56.6105 20.625 55.2857V51.1607L18.7487 50.679L15.8109 56.0234C15.8108 56.0236 15.8107 56.0238 15.8106 56.024C15.3911 56.7823 14.3993 57.0863 13.5978 56.6624ZM48.375 25.2857C48.375 27.081 46.8843 28.5714 45 28.5714C43.1157 28.5714 41.625 27.081 41.625 25.2857C41.625 23.4904 43.1157 22 45 22C46.8843 22 48.375 23.4904 48.375 25.2857ZM22.375 35.5714C22.375 33.7752 23.8656 32.2857 25.75 32.2857C27.6344 32.2857 29.125 33.7752 29.125 35.5714C29.125 37.3677 27.6344 38.8571 25.75 38.8571C23.8656 38.8571 22.375 37.3677 22.375 35.5714ZM76.5 63.1429C77.9032 63.1429 79 64.2466 79 65.5714C79 66.8962 77.9032 68 76.5 68H13.5C12.0995 68 11 66.8956 11 65.5714C11 64.2472 12.0995 63.1429 13.5 63.1429H76.5ZM60.875 35.5714C60.875 33.7752 62.3656 32.2857 64.25 32.2857C66.1344 32.2857 67.625 33.7752 67.625 35.5714C67.625 37.3677 66.1344 38.8571 64.25 38.8571C62.3656 38.8571 60.875 37.3677 60.875 35.5714Z" stroke="#024D81" stroke-width="2"/>
</svg>
