<svg width="90" height="90" viewBox="0 0 90 90" fill="none" xmlns="http://www.w3.org/2000/svg">
<path d="M60.8668 60.8668V67.6668H28C25.2948 67.6668 22.7004 66.5922 20.7875 64.6793C18.8746 62.7664 17.8 60.172 17.8 57.4668C17.8 54.7616 18.8746 52.1671 20.7875 50.2543C22.7004 48.3414 25.2948 47.2667 28 47.2667H29.1333V42.7334H28C24.0925 42.7334 20.345 44.2857 17.5819 47.0487C14.8189 49.8118 13.2666 53.5592 13.2666 57.4668C13.2666 61.3743 14.8189 65.1218 17.5819 67.8849C20.345 70.6479 24.0925 72.2002 28 72.2002H60.8668V79.0002H79.0002V60.8668H60.8668ZM74.4668 74.4668H65.4001V65.4001H74.4668V74.4668Z" stroke="#024D81" stroke-width="2"/>
<path d="M56.3337 58.6005H51.8004V51.8005H38.2003V58.6005H33.667V51.8005C33.6682 50.5985 34.1462 49.4461 34.9961 48.5962C35.846 47.7463 36.9984 47.2683 38.2003 47.2671H51.8004C53.0023 47.2683 54.1547 47.7463 55.0046 48.5962C55.8545 49.4461 56.3325 50.5985 56.3337 51.8005V58.6005ZM45.0004 45.0004C43.6554 45.0004 42.3407 44.6016 41.2225 43.8544C40.1042 43.1072 39.2326 42.0452 38.718 40.8027C38.2033 39.5601 38.0686 38.1929 38.331 36.8738C38.5934 35.5547 39.241 34.3431 40.192 33.3921C41.143 32.4411 42.3547 31.7934 43.6737 31.5311C44.9928 31.2687 46.3601 31.4033 47.6026 31.918C48.8452 32.4327 49.9072 33.3043 50.6544 34.4225C51.4016 35.5408 51.8004 36.8555 51.8004 38.2004C51.7986 40.0033 51.0816 41.7319 49.8067 43.0068C48.5319 44.2816 46.8033 44.9986 45.0004 45.0004ZM45.0004 35.9337C44.5521 35.9337 44.1138 36.0667 43.7411 36.3157C43.3683 36.5648 43.0778 36.9188 42.9062 37.333C42.7347 37.7472 42.6898 38.2029 42.7772 38.6426C42.8647 39.0823 43.0806 39.4862 43.3976 39.8032C43.7146 40.1202 44.1185 40.3361 44.5582 40.4235C44.9979 40.511 45.4536 40.4661 45.8678 40.2946C46.282 40.123 46.636 39.8325 46.885 39.4597C47.1341 39.087 47.267 38.6487 47.267 38.2004C47.2664 37.5994 47.0274 37.0233 46.6025 36.5983C46.1775 36.1733 45.6013 35.9343 45.0004 35.9337Z" stroke="#024D81" stroke-width="2"/>
<path d="M62.0002 17.8H29.1334V11H11V29.1334H29.1334V22.3334H62.0002C64.7054 22.3334 67.2998 23.408 69.2127 25.3209C71.1256 27.2338 72.2002 29.8282 72.2002 32.5334C72.2002 35.2386 71.1256 37.833 69.2127 39.7459C67.2998 41.6588 64.7054 42.7334 62.0002 42.7334H60.8668V47.2668H62.0002C65.9077 47.2668 69.6552 45.7145 72.4183 42.9515C75.1813 40.1884 76.7336 36.4409 76.7336 32.5334C76.7336 28.6259 75.1813 24.8784 72.4183 22.1153C69.6552 19.3523 65.9077 17.8 62.0002 17.8V17.8ZM24.6 24.6H15.5333V15.5333H24.6V24.6Z" stroke="#024D81" stroke-width="2"/>
</svg>
