<svg width="90" height="90" viewBox="0 0 90 90" fill="none" xmlns="http://www.w3.org/2000/svg">
<path d="M13.4167 10.5H76.0833C76.8569 10.5 77.5987 10.8073 78.1457 11.3543C78.6927 11.9013 79 12.6431 79 13.4167V76.0833C79 76.8569 78.6927 77.5987 78.1457 78.1457C77.5987 78.6927 76.8569 79 76.0833 79H13.4167C12.6431 79 11.9013 78.6927 11.3543 78.1457C10.8073 77.5987 10.5 76.8569 10.5 76.0833V13.4167C10.5 12.6431 10.8073 11.9013 11.3543 11.3543C11.9013 10.8073 12.6431 10.5 13.4167 10.5Z" stroke="white" stroke-width="2"/>
<path d="M40.5 21.5H48.5V29.9H40.5V21.5ZM40.5 40.3H48.5V67.5H40.5V40.3Z" fill="white" stroke="white"/>
</svg>
