<svg width="28" height="26" viewBox="0 0 28 26" fill="none" xmlns="http://www.w3.org/2000/svg">
<g clip-path="url(#clip0_675_404)">
<path d="M0 6.42274C0 3.35449 2.48731 0.867188 5.55556 0.867188H22.2222C25.2904 0.867188 27.7778 3.35449 27.7778 6.42274V20.3116C27.7778 23.3798 25.2904 25.8672 22.2222 25.8672H5.55556C2.48731 25.8672 0 23.3798 0 20.3116V6.42274Z" fill="white"/>
<mask id="mask0_675_404" style="mask-type:alpha" maskUnits="userSpaceOnUse" x="0" y="0" width="28" height="26">
<path opacity="0.5" d="M0 6.42274C0 3.35449 2.48731 0.867188 5.55556 0.867188H22.2222C25.2904 0.867188 27.7778 3.35449 27.7778 6.42274V20.3116C27.7778 23.3798 25.2904 25.8672 22.2222 25.8672H5.55556C2.48731 25.8672 0 23.3798 0 20.3116V6.42274Z" fill="white"/>
</mask>
<g mask="url(#mask0_675_404)">
<path d="M0 0.867188L10.8058 12.7536C12.459 14.572 15.3188 14.5721 16.9719 12.7536L27.7778 0.867188" stroke="#024D81" stroke-width="2"/>
</g>
</g>
<defs>
<clipPath id="clip0_675_404">
<rect width="27.7778" height="25" fill="white" transform="translate(0 0.867188)"/>
</clipPath>
</defs>
</svg>
