<svg id="Layer_1" data-name="Layer 1" xmlns="http://www.w3.org/2000/svg" xmlns:xlink="http://www.w3.org/1999/xlink" viewBox="0 0 1499.99 450"><defs><style>.cls-1,.cls-2,.cls-3,.cls-4,.cls-5,.cls-9{fill-rule:evenodd;}.cls-1{fill:url(#linear-gradient);}.cls-10,.cls-11,.cls-2,.cls-7{opacity:0.8;}.cls-2{fill:url(#linear-gradient-2);}.cls-3{fill:url(#linear-gradient-3);}.cls-4{fill:url(#radial-gradient);}.cls-5{fill:url(#linear-gradient-4);}.cls-6{fill:url(#linear-gradient-5);}.cls-7{fill:url(#linear-gradient-6);}.cls-8{fill:#09deec;}.cls-9{fill:url(#linear-gradient-7);}.cls-10{fill:url(#linear-gradient-8);}.cls-11{fill:url(#linear-gradient-9);}.cls-12{opacity:0.9;fill:url(#linear-gradient-10);}.cls-13{fill:url(#linear-gradient-11);}.cls-14{fill:url(#linear-gradient-12);}.cls-15{fill:url(#linear-gradient-13);}.cls-16{fill:url(#linear-gradient-14);}.cls-17{fill:url(#linear-gradient-15);}.cls-18{fill:url(#linear-gradient-16);}.cls-19{fill:url(#linear-gradient-17);}.cls-20{fill:url(#linear-gradient-18);}.cls-21{fill:#2f2f2f;}</style><linearGradient id="linear-gradient" x1="195.1" y1="424.53" x2="195.1" y2="37.31" gradientUnits="userSpaceOnUse"><stop offset="0" stop-color="#290a59"/><stop offset="0.43" stop-color="#783438"/><stop offset="0.82" stop-color="#bb581c"/><stop offset="1" stop-color="#d56611"/></linearGradient><linearGradient id="linear-gradient-2" x1="349.77" y1="382.25" x2="10.35" y2="251.95" gradientUnits="userSpaceOnUse"><stop offset="0" stop-color="#13dbe5"/><stop offset="0.35" stop-color="#918f53"/><stop offset="1" stop-color="#de6100"/></linearGradient><linearGradient id="linear-gradient-3" x1="57.74" y1="212.98" x2="100.88" y2="119.19" gradientUnits="userSpaceOnUse"><stop offset="0" stop-color="#18e4e3"/><stop offset="1" stop-color="#88b47a"/></linearGradient><radialGradient id="radial-gradient" cx="-44.02" cy="82.28" r="384" gradientTransform="translate(47.47 14.24) scale(0.94 0.94)" gradientUnits="userSpaceOnUse"><stop offset="0" stop-color="#290a59"/><stop offset="0.01" stop-color="#310e56"/><stop offset="0.08" stop-color="#562246"/><stop offset="0.15" stop-color="#763339"/><stop offset="0.23" stop-color="#90412e"/><stop offset="0.31" stop-color="#a44c25"/><stop offset="0.41" stop-color="#b25320"/><stop offset="0.53" stop-color="#bb581c"/><stop offset="0.73" stop-color="#bd591b"/><stop offset="0.84" stop-color="#c15b19"/><stop offset="0.95" stop-color="#cd6214"/><stop offset="1" stop-color="#d56611"/></radialGradient><linearGradient id="linear-gradient-4" x1="53.85" y1="243.13" x2="117.95" y2="159.94" xlink:href="#linear-gradient-3"/><linearGradient id="linear-gradient-5" x1="202.89" y1="168.67" x2="118.64" y2="395.72" gradientTransform="translate(-5.45 -10.27) rotate(0.81)" gradientUnits="userSpaceOnUse"><stop offset="0" stop-color="#f97f06"/><stop offset="0.54" stop-color="#6ba382"/><stop offset="0.67" stop-color="#52aa97"/><stop offset="0.82" stop-color="#37b1af"/><stop offset="1" stop-color="#19b9c9"/></linearGradient><linearGradient id="linear-gradient-6" x1="28.83" y1="337.81" x2="293.68" y2="343.01" gradientUnits="userSpaceOnUse"><stop offset="0" stop-color="#f97f06"/><stop offset="0.47" stop-color="#58a38e"/><stop offset="1" stop-color="#13b2c8"/></linearGradient><linearGradient id="linear-gradient-7" x1="178.13" y1="189.36" x2="136.49" y2="337.57" gradientUnits="userSpaceOnUse"><stop offset="0.13" stop-color="#9c9"/><stop offset="0.52" stop-color="#51cbae"/><stop offset="1" stop-color="#00f0ff"/></linearGradient><linearGradient id="linear-gradient-8" x1="145.17" y1="146.19" x2="242.95" y2="20.55" xlink:href="#linear-gradient"/><linearGradient id="linear-gradient-9" x1="189.76" y1="172.17" x2="250.18" y2="1.72" gradientUnits="userSpaceOnUse"><stop offset="0.23" stop-color="#290a59" stop-opacity="0.8"/><stop offset="0.64" stop-color="#8f4743" stop-opacity="0.8"/><stop offset="0.8" stop-color="#b0562c" stop-opacity="0.8"/><stop offset="1" stop-color="#d56611" stop-opacity="0.8"/></linearGradient><linearGradient id="linear-gradient-10" x1="127.57" y1="-34.46" x2="241.28" y2="136.03" gradientUnits="userSpaceOnUse"><stop offset="0" stop-color="#290a59"/><stop offset="0.27" stop-color="#5d2643" stop-opacity="0.94"/><stop offset="0.77" stop-color="#b3541f" stop-opacity="0.85"/><stop offset="1" stop-color="#d56611" stop-opacity="0.81"/></linearGradient><linearGradient id="linear-gradient-11" x1="485.38" y1="351.57" x2="485.38" y2="84.53" gradientUnits="userSpaceOnUse"><stop offset="0" stop-color="#29125a"/><stop offset="0.5" stop-color="#33b5cf"/><stop offset="0.83" stop-color="#33bcd4"/></linearGradient><linearGradient id="linear-gradient-12" x1="656.23" y1="351.57" x2="656.23" y2="84.53" xlink:href="#linear-gradient-11"/><linearGradient id="linear-gradient-13" x1="832.83" y1="351.57" x2="832.83" y2="84.53" xlink:href="#linear-gradient-11"/><linearGradient id="linear-gradient-14" x1="971.62" y1="351.57" x2="971.62" y2="84.53" xlink:href="#linear-gradient-11"/><linearGradient id="linear-gradient-15" x1="1104.08" y1="351.57" x2="1104.08" y2="84.53" xlink:href="#linear-gradient-11"/><linearGradient id="linear-gradient-16" x1="1214.99" y1="351.57" x2="1214.99" y2="84.53" xlink:href="#linear-gradient-11"/><linearGradient id="linear-gradient-17" x1="1349.81" y1="351.57" x2="1349.81" y2="84.53" xlink:href="#linear-gradient-11"/><linearGradient id="linear-gradient-18" x1="1456.53" y1="351.57" x2="1456.53" y2="84.53" xlink:href="#linear-gradient-11"/></defs><title>empyreal-infotech-logo</title><path class="cls-1" d="M202,37.31c3.08,0,6.15.07,9.18.22l.22,96.4c-1.86,0-3.67.15-5.48.28a95.38,95.38,0,0,0-63.43,21.59c-1.79,1.45-4.1,2.92-5.76,4.5-12.8,11.41-20.89,25.8-25.52,41.63a97,97,0,0,0-4.47,26.95c-2.06,55.59,43.54,101.33,98.66,100a95.81,95.81,0,0,0,63-26,97.5,97.5,0,0,0,27.42-43.56c.76-1.8,1.21-3.78,1.93-5.65,6.62,3.72,14.88,8.18,20.12,10.76-23.32,59.44-60.51,85.46-79.41,92.89,55.3,11.08,107.27-26.32,136.44-56.92l5.33,2.58C351.84,374.24,282.73,424.53,202,424.53c-106,0-192-86.67-192-193.6S96,37.31,202,37.31Z"/><path class="cls-2" d="M379.94,302.89l.25.12c-27.09,61.9-92.51,102.88-169.71,102.88-119,0-218.79-109.51-172.45-226-1.77,10.31-.5,21.14-2.68,31.73C13.34,318.42,117.61,397,219.12,397c69.71,0,129.69-36.4,160.82-94.07Z"/><path class="cls-3" d="M52.77,109.1c34-8,73.33,25.69,87.4,48.88-15.58,11.19-35,42.21-33.34,77.14C76,225.29,42.4,180.73,28.16,148.8,33,136.37,42.33,122,52.77,109.1Z"/><path class="cls-4" d="M210.74,25.47C148,25.47,94.93,57,57.17,102.9c-3,3.86-4.41,6.18-4.41,6.18C109.4,113.5,126.9,140.63,171.05,192c74.87,61.42,149.34,2.65,157.62-52.75C336,90.47,300.5,27.4,223.31,25.8,222.17,25.78,213.82,25.47,210.74,25.47Z"/><path class="cls-5" d="M28,148.62c8.56,15.29,17.1,30.57,30.22,45S89,221.45,106.7,235c.87,8.76,1.71,17.54,4.19,25.6s6.57,15.36,10.69,22.69c-1.34-.3-106.37-68.7-105-102.91,2.61-10.7,6.5-20.46,11.46-31.72Z"/><path class="cls-6" d="M307.42,286.93C228.88,437.23,22.5,374.81,20,197.49,35.33,353.19,226.82,397.38,307.42,286.93Z"/><path class="cls-7" d="M103.49,329.4s27.05,39.73,79.7,46.33S252,377.66,252,377.66s29-2.22,53.1-14.09,48.7-30.52,63.26-56.62c0,0-26.78,27.3-62.35,42.33-27.45,10.79-47.44,9.62-47.44,9.62S240,360,202.29,348.47,137.85,326.57,103.49,329.4Z"/><path class="cls-8" d="M101.33,326.37s44.61,24.52,93.94,20,94.44-30.5,115.55-65.72c0,0-24.54,62.12-87.11,84C163.09,386.1,125.66,361.78,101.33,326.37Z"/><path class="cls-9" d="M121.54,283.2c53.93,73,146.36,54.67,176.08-29.57,4.12,2.4,20.14,10.76,20.14,10.76C275.49,390.24,27.49,383.73,18.16,186.73a10.83,10.83,0,0,0,.38,2.1c7.54,29.57,101.26,93.35,103,94.37Z"/><path class="cls-10" d="M54.22,107.08S89.06,53.7,182.7,33.57,272.54,112,272.54,112s-.87,63.7-61.55,75c0,0-35.81,10.72-70.81-26.69S86.84,105.7,54.22,107.08Z"/><path class="cls-11" d="M78.33,188.1s5.1-61.55,55.28-115.23S237.75,27.55,237.75,27.55s74.1,6.23,77,88.79c0,0,1.74,56.59-53.39,79.35,0,0-19.25,11.66-70.59-3.51S98,174.68,78.33,188.1Z"/><path class="cls-12" d="M102.4,68.33S156.05,29.64,233.14,44s97.43,85.11,73.65,123.8S248,208.46,248,208.46s-54.16,7.45-80.24-48.72S144.19,85.23,102.4,68.33Z"/><path class="cls-13" d="M515.75,235.74q3.39,0,4.56-1.17c.79-.77,1.18-2.18,1.18-4.23q0-11.22-8.75-21t-26.41-9.77q-12.21,0-25.22,11.6t-13,32.89q0,15.57,13.73,28t30.76,12.4q12.93,0,27.9-8.09,5.73-3.09,7.49-3.09a5.8,5.8,0,0,1,4.19,1.49,5,5,0,0,1,1.54,3.74q0,5.37-16.25,13A77.81,77.81,0,0,1,484,299.14q-25.46,0-42.81-17.36t-17.35-41.33q0-21.91,19.05-37.51t42.73-15.59q30.73,0,46,15.74a52.11,52.11,0,0,1,15.3,37.65q0,4.71-2.35,5.81t-8.67,1.11h-67.4q-8.22,0-8.22-6.11,0-5.81,8.53-5.81Z"/><path class="cls-14" d="M578,216.45q0-5.28-3.17-8.22t-6.1-2.94q-8.82,0-8.83-5.51,0-6.41,6.35-6.4a42.81,42.81,0,0,1,6.87,1,43.15,43.15,0,0,0,7.75,1,31.86,31.86,0,0,0,7.3-.89,28.4,28.4,0,0,1,5.1-.88q4,0,5.31,2t1.92,16.11q.59,14.11.59,32.8l-.29,25.59q0,6.78.81,8.46a8.51,8.51,0,0,0,3.53,3.31,16,16,0,0,0,6.4,2.06,15.07,15.07,0,0,1,5.36,1.41c1.13.65,1.7,2,1.7,4.11q0,5.22-7.52,5.22a57.7,57.7,0,0,1-11.07-1.1,56.73,56.73,0,0,0-11-1.11,65.19,65.19,0,0,0-10.84,1.11,63.15,63.15,0,0,1-9.66,1.1q-8.27,0-8.26-4.77,0-3.58,1.54-4.7t5.67-1.63a14.61,14.61,0,0,0,6.69-2.35,7.87,7.87,0,0,0,3.23-4.77q.68-2.94.67-12.05Zm66.93-.29a6.83,6.83,0,0,0-2.86-5.5,9.78,9.78,0,0,0-6.23-2.28q-7.34,0-17.29,8.29-5.87,5.1-8.5,5.1-3.81,0-3.81-3.39,0-7.5,13.75-17.43T644.76,191a23.24,23.24,0,0,1,16.48,6.7,21.1,21.1,0,0,1,7.06,15.81L668,273a10.43,10.43,0,0,0,10.45,10.59q7.5,0,7.5,6,0,5.22-7.82,5.22-.89,0-8.77-1a112.36,112.36,0,0,0-13.2-.95,85.48,85.48,0,0,0-14.9,1.1,57.13,57.13,0,0,1-7.81,1.1,6.93,6.93,0,0,1-4.65-1.71,5.58,5.58,0,0,1-2-4.4q0-4.19,5.15-4.18a14.74,14.74,0,0,0,8.83-3q4.11-3,4.12-9Zm67.22,0a6.8,6.8,0,0,0-2.86-5.5,9.76,9.76,0,0,0-6.22-2.28q-5.87,0-14.44,6.69t-11.36,6.7a4.93,4.93,0,0,1-3.15-1.11,3.2,3.2,0,0,1-1.39-2.57q0-6.61,12.94-16.7T712,191.32q15.6,0,21.33,13.09,2.07,4,2.06,43.54l-.29,25q0,4.71,2.5,7.06t7.65,3.38c3.43.69,5.52,1.51,6.25,2.45a5.3,5.3,0,0,1,1.1,3.36q0,5.52-7.22,5.52-1,0-8.85-1a111.42,111.42,0,0,0-13.27-.95,70.82,70.82,0,0,0-11.87,1.1,64.78,64.78,0,0,1-10.7,1.1,6.9,6.9,0,0,1-4.64-1.71,5.53,5.53,0,0,1-2-4.4q0-4.62,6.84-5.28c4.56-.45,7.57-1.64,9-3.6a11.87,11.87,0,0,0,2.2-7.34Z"/><path class="cls-15" d="M785.83,316.26q.88-8.36.88-46.38,0-18.35-.88-53.58a9.9,9.9,0,0,0-3-6.38q-2.71-2.71-11.4-4.19-6.61-1-8.6-2.53a4.47,4.47,0,0,1-2-3.72q0-5.8,9.15-5.81a63.67,63.67,0,0,1,8.71,1.4,63.39,63.39,0,0,0,8.7,1.4,39.19,39.19,0,0,0,8-1.69,41.68,41.68,0,0,1,7.52-1.7q4,0,5,1.77a11,11,0,0,1,1,5.43v51.85q0,15.86,10,25.18a33.18,33.18,0,0,0,23.39,9.33q6.46,0,16.54-5.64a39.36,39.36,0,0,0,15.74-16.35,50.86,50.86,0,0,0,5.67-24.19A44.81,44.81,0,0,0,870.49,212q-9.79-12.47-22.73-12.46a35.35,35.35,0,0,0-14.34,2.86c-4.37,1.92-7.24,2.87-8.61,2.87a5.67,5.67,0,0,1-3.68-1.32,4,4,0,0,1-1.61-3.24q0-4.3,10.79-8.85t18.57-4.53q23.79,0,39.87,15.15t16.08,41.19q0,20.15-16.59,37.07t-40,16.91a59.84,59.84,0,0,1-17-2.35q-8-2.35-20.93-10.89-1.17,0-1.17,7.5,0,18.69-2.51,28.47a42.46,42.46,0,0,1-8.56,17q-6.06,7.2-11.89,10.22a24.52,24.52,0,0,1-11.29,3q-8.12,0-8.12-3.9,0-1.65,3.68-3.6,8.82-4.85,12.06-12.55A37.16,37.16,0,0,0,785.83,316.26Z"/><path class="cls-16" d="M995.77,275q3.79,0,3.8,3.68,0,4.56-11.75,11.32t-23.33,6.77q-7.93,0-17-5.36t-11.37-13.36q-2.28-8-2.28-28.87l.3-29.51q0-11.9-10.6-14.1c-4.11-.8-6.74-1.57-7.87-2.31s-1.69-2.21-1.69-4.39a6.44,6.44,0,0,1,1.33-4.09,4.28,4.28,0,0,1,3.54-1.72,50.57,50.57,0,0,1,8.42,1.4,52.2,52.2,0,0,0,8.12,1.4,53.07,53.07,0,0,0,8.56-1.4,56.35,56.35,0,0,1,8.11-1.4,4.73,4.73,0,0,1,2.51,1,3.66,3.66,0,0,1,1.7,2.21q.22,1.17.59,20.41t.37,35.39a126.1,126.1,0,0,0,.88,17.84,13.46,13.46,0,0,0,5.48,9q4.59,3.45,12.19,3.45a23.09,23.09,0,0,0,11.84-3.67C991.68,276.25,994.4,275,995.77,275Zm27.46-81.94q5.16,0,5.16,7.21,0,14.27.45,41.63t.44,36.78q0,32.94-7.67,47.14t-16.43,19.79q-8.77,5.58-21.45,5.59-10.77,0-17-3.09c-4.18-2.06-6.26-3.93-6.26-5.59a4.17,4.17,0,0,1,1.17-2.58,3.56,3.56,0,0,1,2.8-1.39,16.58,16.58,0,0,1,4.78,1.47,21.43,21.43,0,0,0,8.16,1.47q8.24,0,16.11-5.51a24.79,24.79,0,0,0,10.15-15.19q2.28-9.69,2.28-28.92,0-69-.37-76.76t-11-9.47Q984,204,984,198.6q0-5.52,7.53-5.52a81.28,81.28,0,0,1,9.07.89,86,86,0,0,0,10.85.88,28.45,28.45,0,0,0,6.79-.88A24.26,24.26,0,0,1,1023.23,193.08Z"/><path class="cls-17" d="M1103.27,222.06l.59,4.12q.73,0,6.91-14T1123,192.35q6.06-5.88,12.57-5.89,5,0,7.61,1.79c1.73,1.18,2.59,2.52,2.59,4a9.86,9.86,0,0,1-1.77,6.16,35.76,35.76,0,0,1-6.2,5.71q-18.74,14.19-27.08,34.53t-8.34,33.8q0,6.29,1.69,8.56c1.13,1.51,3.85,2.77,8.16,3.8s7.11,2.13,8.39,3.33a5.55,5.55,0,0,1,1.91,4.17q0,4.33-5.16,4.33a68.61,68.61,0,0,1-11.43-1.32,88.19,88.19,0,0,0-15.7-1.33,50.72,50.72,0,0,0-11.36,1.33,45.05,45.05,0,0,1-7.37,1.32,12.36,12.36,0,0,1-6.64-1.57,4.57,4.57,0,0,1-2.5-3.95,4.47,4.47,0,0,1,1.39-3.21c.94-.94,3.56-2.15,7.87-3.61s7-2.93,7.95-4.39,1.47-6.05,1.47-13.75V221.54a14.65,14.65,0,0,0-2-7.61q-2-3.36-7.94-5.19c-4-1.22-6.33-2.28-7.06-3.17a4.59,4.59,0,0,1-1.1-3q0-4.94,6.93-4.94a46.18,46.18,0,0,1,6.43.74,45.78,45.78,0,0,0,6.27.73,31.17,31.17,0,0,0,4.8-.58,46.15,46.15,0,0,1,7.9-.59q8,0,8,16.91Z"/><path class="cls-18" d="M1245.37,235.74q3.38,0,4.56-1.17c.78-.77,1.18-2.18,1.18-4.23q0-11.22-8.76-21t-26.4-9.77q-12.21,0-25.23,11.6t-13,32.89q0,15.57,13.73,28t30.77,12.4q12.91,0,27.9-8.09c3.82-2.06,6.31-3.09,7.49-3.09a5.78,5.78,0,0,1,4.18,1.49,5,5,0,0,1,1.55,3.74q0,5.37-16.26,13a77.77,77.77,0,0,1-33.46,7.65q-25.45,0-42.81-17.36t-17.36-41.33q0-21.91,19-37.51t42.73-15.59q30.75,0,46,15.74a52.14,52.14,0,0,1,15.29,37.65q0,4.71-2.35,5.81t-8.66,1.11h-67.4q-8.23,0-8.23-6.11,0-5.81,8.53-5.81Z"/><path class="cls-19" d="M1393.35,268.27q0,10.59,14.12,14.69a15.75,15.75,0,0,1,5.23,2.39c1.12.89,1.69,2.58,1.69,5.06,0,1.29-.76,2.41-2.28,3.35a9.22,9.22,0,0,1-4.93,1.41,30.39,30.39,0,0,1-7.58-1.32,30.15,30.15,0,0,0-7.72-1.33,35.22,35.22,0,0,0-8.53,1.33,35.14,35.14,0,0,1-6.91,1.32,6.73,6.73,0,0,1-4-1.47c-1.32-1-2-2-2-2.94,0-1.57-.49-2.36-1.47-2.36a5.4,5.4,0,0,0-2.64,1,66.92,66.92,0,0,1-35.9,10.3q-9.12,0-20.37-4.71a40.25,40.25,0,0,1-18-14.49q-6.76-9.78-6.77-24.19,0-15.3,14.61-27.07t37.66-11.77q7.79,0,17.11,4.34t9.32,8.9a4.1,4.1,0,0,1-1.91,3.53,8.12,8.12,0,0,1-4.71,1.33c-1.27,0-3.77-.89-7.5-2.65a26.46,26.46,0,0,0-11.47-2.65q-12.08,0-20,7.12t-7.94,19q0,13.8,9.12,21.2a32.39,32.39,0,0,0,21,7.41,31.45,31.45,0,0,0,19.79-7.06,22.68,22.68,0,0,0,9-18.83V219.27q0-9-5.94-14.57t-15.92-5.59q-12.77,0-24.8,8.1-4.11,2.79-5.58,2.79a9.8,9.8,0,0,1-6-1.84,5.66,5.66,0,0,1-2.5-4.78q0-7.2,13.17-12.21a80.4,80.4,0,0,1,28.76-5q19.26,0,31,9.69t11.77,23.06Z"/><path class="cls-20" d="M1468.67,273a11.06,11.06,0,0,0,2.06,6.77q2.05,2.79,9.12,4t8.6,3a6.63,6.63,0,0,1,1.55,4.47q0,4.78-7.23,4.78a113.17,113.17,0,0,1-13.12-1.11,115,115,0,0,0-13.12-1.1,96.74,96.74,0,0,0-12.09,1.1,95.1,95.1,0,0,1-12.09,1.11q-5.89,0-7.59-1.35a4.46,4.46,0,0,1-1.69-3.72,6,6,0,0,1,1.39-4c.94-1.09,3.88-2,8.83-2.74s8.19-2.35,9.71-4.85a16.52,16.52,0,0,0,2.28-8.75V111.87a17.14,17.14,0,0,0-2.36-9q-2.34-3.89-9.7-5.66c-4.91-1.17-7.82-2.36-8.76-3.55a6.36,6.36,0,0,1-1.39-4A4,4,0,0,1,1425.5,86a10.44,10.44,0,0,1,5.09-1.34,42,42,0,0,1,7,.88,41.1,41.1,0,0,0,6.87.89,47.7,47.7,0,0,0,7.52-.89,48.74,48.74,0,0,1,7.53-.88c3.15,0,5.46.84,6.93,2.5s2.22,4.66,2.22,9Z"/><path class="cls-21" d="M1063,363.77V304.48h6.63v59.29Z"/><path class="cls-21" d="M1094.76,363.77v-43.5h6.14v8a22.73,22.73,0,0,1,8.69-6.67,28.66,28.66,0,0,1,11.65-2.27q9.63,0,14.17,3.95t4.55,12.33v28.14h-6.32V339.31q0-8.3-3-11.54t-10.44-3.25q-8.33,0-13.71,4.05a12.49,12.49,0,0,0-5.37,10.42v24.78Z"/><path class="cls-21" d="M1166.22,363.77V325H1158v-4.73h8.24v-3.44q0-7.45,2.24-9.94c1.49-1.66,4.17-2.49,8-2.49a23.63,23.63,0,0,1,3.31.26c1.2.17,2.48.42,3.86.74v5q-2-.44-3.18-.6a16.72,16.72,0,0,0-2.24-.16c-2.18,0-3.66.38-4.44,1.12s-1.16,2.49-1.16,5.21v4.29h11V325h-11v38.77Z"/><path class="cls-21" d="M1198,342q0-10.42,7.17-16.86t18.81-6.43q11.6,0,18.81,6.45T1250,342q0,10.42-7.21,16.88T1224,365.33q-11.65,0-18.81-6.45T1198,342Zm6.49,0q0,8.13,5.29,12.95t14.2,4.81q8.87,0,14.15-4.83t5.29-12.93q0-8.1-5.29-12.91T1224,324.28q-8.91,0-14.2,4.81T1204.53,342Z"/><path class="cls-21" d="M1279.85,352.18c0,3.23.4,5.22,1.2,5.95s2.33,1.11,4.57,1.11a21.3,21.3,0,0,0,2.31-.14c.82-.1,1.77-.27,2.84-.51v4.94c-1.49.32-2.88.56-4.18.72a30.3,30.3,0,0,1-3.7.24q-5.1,0-7.28-2.59t-2.17-9V325h-8.24v-4.73h8.24V307.53h6.41v12.74h11V325h-11Z"/><path class="cls-21" d="M1355.24,349.9a19,19,0,0,1-8.39,11.26,28.22,28.22,0,0,1-15.61,4.17q-11.7,0-18.84-6.41T1305.26,342q0-10.42,7.16-16.86t18.82-6.43q11.68,0,18.76,6.33t7.08,16.88v1.32h-44.93q.54,7.9,5.51,12.21t13.58,4.31a20.6,20.6,0,0,0,10.63-2.59,14,14,0,0,0,6.21-7.27Zm-42.91-11.43h37.5a14.08,14.08,0,0,0-5.65-10.42q-5.1-3.93-12.94-3.93t-13.13,3.93A14.32,14.32,0,0,0,1312.33,338.47Z"/><path class="cls-21" d="M1417.83,347.93h6.5a18,18,0,0,1-7.68,12.55,26.7,26.7,0,0,1-16.15,4.85q-11.64,0-18.81-6.45T1374.52,342q0-10.42,7.17-16.86t18.81-6.43a27.11,27.11,0,0,1,15.65,4.41,17.15,17.15,0,0,1,7.73,11.5h-6.63a14.28,14.28,0,0,0-6.13-7.79,20.25,20.25,0,0,0-10.84-2.71q-8.61,0-13.93,4.93A16.8,16.8,0,0,0,1381,342q0,8.13,5.29,12.95t14.2,4.81a19.64,19.64,0,0,0,11.35-3.23A14,14,0,0,0,1417.83,347.93Z"/><path class="cls-21" d="M1443.69,363.77V304.48h6.14v23.81a22.73,22.73,0,0,1,8.69-6.67,28.66,28.66,0,0,1,11.65-2.27q9.63,0,14.17,3.95t4.55,12.33v28.14h-6.32V339.31q0-8.3-3-11.54t-10.44-3.25q-8.33,0-13.7,4.05A12.48,12.48,0,0,0,1450,339v24.78Z"/></svg>