<svg width="90" height="90" viewBox="0 0 90 90" fill="none" xmlns="http://www.w3.org/2000/svg">
<path d="M22.3745 34.375H26.4995V42.625H22.3745V34.375ZM22.3745 46.75H26.4995V55H22.3745V46.75ZM34.7495 34.375H38.8745V42.625H34.7495V34.375ZM34.7495 46.75H38.8745V55H34.7495V46.75ZM22.3745 59.125H26.4995V67.375H22.3745V59.125ZM34.7495 59.125H38.8745V67.375H34.7495V59.125Z" stroke="#024D81" stroke-width="2"/>
<path d="M67.75 46.75C67.75 45.656 67.3154 44.6068 66.5418 43.8332C65.7682 43.0596 64.719 42.625 63.625 42.625H51.25V26.125C51.25 25.031 50.8154 23.9818 50.0418 23.2082C49.2682 22.4346 48.219 22 47.125 22H14.125C13.031 22 11.9818 22.4346 11.2082 23.2082C10.4346 23.9818 10 25.031 10 26.125V79.75H67.75V46.75ZM14.125 26.125H47.125V75.625H14.125V26.125ZM51.25 75.625V46.75H63.625V75.625H51.25Z" stroke="#024D81" stroke-width="2"/>
<path d="M79 24.1429V20.8571H75.5484C75.3368 19.8287 74.9284 18.8508 74.3458 17.9772L76.7936 15.5294L74.4706 13.2064L72.0228 15.6542C71.1492 15.0716 70.1713 14.6632 69.1429 14.4516V11H65.8571V14.4516C64.8287 14.6632 63.8508 15.0716 62.9772 15.6542L60.5294 13.2064L58.2064 15.5294L60.6542 17.9772C60.0716 18.8508 59.6632 19.8287 59.4516 20.8571H56V24.1429H59.4516C59.6652 25.1894 60.0825 26.1619 60.6542 27.0228L58.2064 29.4706L60.5294 31.7936L62.9772 29.3458C63.8508 29.9284 64.8287 30.3368 65.8571 30.5484V34H69.1429V30.5484C70.1713 30.3368 71.1492 29.9284 72.0228 29.3458L74.4706 31.7936L76.7936 29.4706L74.3458 27.0228C74.9284 26.1492 75.3368 25.1713 75.5484 24.1429H79ZM67.5 27.4286C64.7827 27.4286 62.5714 25.2173 62.5714 22.5C62.5714 19.7827 64.7827 17.5714 67.5 17.5714C70.2173 17.5714 72.4286 19.7827 72.4286 22.5C72.4286 25.2173 70.2173 27.4286 67.5 27.4286Z" stroke="#024D81" stroke-width="2"/>
</svg>
