<?xml version="1.0" encoding="utf-8"?>
<svg xmlns="http://www.w3.org/2000/svg" width="54.783" height="42" viewBox="0 0 54.783 42">
  <g id="Group_13919" data-name="Group 13919" transform="translate(-780 -262)">
    <path id="Path_12474" data-name="Path 12474" d="M905.087,262H864.913a.913.913,0,0,0-.913.913v26.478a.913.913,0,0,0,.913.913h24.652v8.217h-3.652v1.826h14.609v1.826H885.913V304h15.522a.913.913,0,0,0,.913-.913V290.3h2.739a.913.913,0,0,0,.913-.913V262.913a.913.913,0,0,0-.913-.913Zm-.913,1.826v3.652H865.826v-3.652ZM891.391,290.3h1.826v1.826a.913.913,0,1,0,1.826,0V290.3h1.826v8.217h-5.478Zm9.13,8.217H898.7V290.3h1.826Zm-34.7-10.043V269.3h38.348v19.174Zm0,0" transform="translate(-71.217)" fill="#2a3c4a"/>
    <path id="Path_12475" data-name="Path 12475" d="M784.565,410.826H808.3a4.57,4.57,0,0,0,4.565-4.565.913.913,0,0,0-.913-.913H808.3v-6.391h-1.826v6.391H786.391V389.826h4.565V388h-5.478a.913.913,0,0,0-.913.913v16.435h-3.652a.913.913,0,0,0-.913.913,4.57,4.57,0,0,0,4.565,4.565Zm8.752-3.652.646.646a.913.913,0,0,0,.646.268h3.652a.913.913,0,0,0,.646-.268l.646-.646h11.335A2.744,2.744,0,0,1,808.3,409H784.565a2.744,2.744,0,0,1-2.583-1.826Zm0,0" transform="translate(0 -106.826)" fill="#2a3c4a"/>
    <path id="Path_12476" data-name="Path 12476" d="M883.826,280.913a.913.913,0,1,1-.913-.913.913.913,0,0,1,.913.913Zm0,0" transform="translate(-86.478 -15.261)" fill="#2a3c4a"/>
    <path id="Path_12477" data-name="Path 12477" d="M901.826,280.913a.913.913,0,1,1-.913-.913.913.913,0,0,1,.913.913Zm0,0" transform="translate(-101.739 -15.261)" fill="#2a3c4a"/>
    <path id="Path_12478" data-name="Path 12478" d="M919.826,280.913a.913.913,0,1,1-.913-.913.913.913,0,0,1,.913.913Zm0,0" transform="translate(-117 -15.261)" fill="#2a3c4a"/>
    <rect id="Rectangle_1482" data-name="Rectangle 1482" width="3" height="2" transform="translate(796.391 271)" fill="#2a3c4a"/>
    <rect id="Rectangle_1483" data-name="Rectangle 1483" width="7" height="2" transform="translate(801.391 271)" fill="#2a3c4a"/>
    <rect id="Rectangle_1484" data-name="Rectangle 1484" width="3" height="2" transform="translate(810.391 271)" fill="#2a3c4a"/>
    <rect id="Rectangle_1485" data-name="Rectangle 1485" width="3" height="1" transform="translate(796.391 276)" fill="#2a3c4a"/>
    <rect id="Rectangle_1486" data-name="Rectangle 1486" width="4" height="1" transform="translate(801.391 276)" fill="#2a3c4a"/>
    <rect id="Rectangle_1487" data-name="Rectangle 1487" width="6" height="1" transform="translate(807.391 276)" fill="#2a3c4a"/>
    <rect id="Rectangle_1488" data-name="Rectangle 1488" width="3" height="2" transform="translate(796.391 280)" fill="#2a3c4a"/>
    <rect id="Rectangle_1489" data-name="Rectangle 1489" width="12" height="2" transform="translate(801.391 280)" fill="#2a3c4a"/>
    <rect id="Rectangle_1490" data-name="Rectangle 1490" width="3" height="2" transform="translate(796.391 285)" fill="#2a3c4a"/>
    <rect id="Rectangle_1491" data-name="Rectangle 1491" width="4" height="2" transform="translate(801.391 285)" fill="#2a3c4a"/>
    <rect id="Rectangle_1492" data-name="Rectangle 1492" width="6" height="2" transform="translate(807.391 285)" fill="#2a3c4a"/>
    <path id="Path_12479" data-name="Path 12479" d="M1017.007,347.758l-2.739,2.739a.912.912,0,0,0,0,1.291l2.739,2.739,1.291-1.291-2.094-2.094,2.094-2.094Zm0,0" transform="translate(-198.391 -72.708)" fill="#2a3c4a"/>
    <path id="Path_12480" data-name="Path 12480" d="M1083.049,347.758l-1.291,1.291,2.094,2.094-2.094,2.094,1.291,1.291,2.739-2.739a.912.912,0,0,0,0-1.291Zm0,0" transform="translate(-255.838 -72.708)" fill="#2a3c4a"/>
    <path id="Path_12481" data-name="Path 12481" d="M1044.305,342.926l3.649-10.961,1.733.577-3.65,10.96Zm0,0" transform="translate(-224.085 -59.318)" fill="#2a3c4a"/>
  </g>
</svg>
