<svg width="90" height="90" viewBox="0 0 90 90" fill="none" xmlns="http://www.w3.org/2000/svg">
<path d="M11 16V48.8041C11 50.461 12.3431 51.8041 14 51.8041H47.4242C49.0811 51.8041 50.4242 50.461 50.4242 48.8041V16C50.4242 14.3431 49.0811 13 47.4242 13H14C12.3431 13 11 14.3431 11 16ZM78 48.8041V38.0825C78 36.4256 76.6569 35.0825 75 35.0825H64.0303C62.3735 35.0825 61.0303 36.4256 61.0303 38.0825V48.8041C61.0303 50.461 62.3735 51.8041 64.0303 51.8041H75C76.6569 51.8041 78 50.461 78 48.8041ZM78 75V64.2783C78 62.6215 76.6569 61.2783 75 61.2783H64.0303C62.3735 61.2783 61.0303 62.6215 61.0303 64.2783V75C61.0303 76.6569 62.3735 78 64.0303 78H75C76.6569 78 78 76.6569 78 75ZM50.4242 75V64.2783C50.4242 62.6215 49.0811 61.2783 47.4242 61.2783H36.4545C34.7977 61.2783 33.4545 62.6215 33.4545 64.2783V75C33.4545 76.6569 34.7977 78 36.4545 78H47.4242C49.0811 78 50.4242 76.6568 50.4242 75Z" stroke="#024D81" stroke-width="2"/>
</svg>
