<svg width="90" height="90" viewBox="0 0 90 90" fill="none" xmlns="http://www.w3.org/2000/svg">
<path d="M42.0194 74.7736C47.5422 66.6496 48.914 59.2607 49.1495 55.1976C52.3013 56.2628 54.8995 57.6465 56.7528 59.2338C58.8416 61.0228 59.9143 63.0021 59.9143 65.0476V77H11V65.0476C11 63.0015 12.0701 61.0223 14.1589 59.2339C16.0133 57.6463 18.6162 56.2621 21.7816 55.1966C22.0057 59.2558 23.3253 66.6463 28.8503 74.7736L30.2532 76.8373L30.6637 74.3759L33.2721 58.7359L33.3253 58.4167L33.1814 58.1268L30.7998 53.329C32.3247 53.1868 33.9075 53.0952 35.4667 53.0952C37.0266 53.0952 38.5739 53.1869 40.0832 53.3294L37.7482 58.1344L37.6097 58.4193L37.6606 58.732L40.2054 74.372L40.6084 76.8491L42.0194 74.7736ZM56.0494 26.4787L60.0698 22.3617C65.2373 28.7596 65.208 37.0985 60.0996 42.9698L56.0494 38.8223C58.3555 35.0006 58.3555 30.3004 56.0494 26.4787ZM66.8244 15.3193L70.6274 11.4479C81.8495 23.9078 81.7286 41.9198 70.6379 53.8962L66.809 49.9985C75.1414 39.6279 75.1712 25.2507 66.8244 15.3193ZM35.4667 20.7143C41.8974 20.7143 47.1905 26.0475 47.1905 32.6667C47.1905 39.2858 41.8974 44.619 35.4667 44.619C29.036 44.619 23.7429 39.2858 23.7429 32.6667C23.7429 26.0459 29.0058 20.7143 35.4667 20.7143Z" fill="white" stroke="#024D81" stroke-width="2"/>
</svg>
