<svg width="90" height="90" viewBox="0 0 90 90" fill="none" xmlns="http://www.w3.org/2000/svg">
<path d="M21.6667 22.7037H20.6667V23.7037V52.2222V53.2222H21.6667H36.25H37.25V52.2222V40.8148C37.25 39.5747 37.7536 38.3806 38.6577 37.4967C39.5625 36.612 40.7943 36.1111 42.0833 36.1111H56.6667C57.9557 36.1111 59.1875 36.612 60.0923 37.4967C60.9964 38.3806 61.5 39.5747 61.5 40.8148V52.2222V53.2222H62.5H68.3333H69.3333V52.2222V23.7037V22.7037H68.3333H21.6667ZM68.3333 56.9259V57.9259V58.9259H79V62.6296H62.5H61.5V63.6296C61.5 64.2967 61.3584 65.6315 61.0783 66.9357C60.9393 67.5828 60.7723 68.1931 60.5844 68.6908C60.3852 69.2183 60.204 69.5053 60.0923 69.6144C59.4161 70.2756 58.8898 70.5986 58.4094 70.772C57.9216 70.9481 57.4015 71 56.6667 71H42.0833C41.28 71 40.8087 70.9916 40.3463 70.8406C39.9326 70.7055 39.4486 70.4254 38.7761 69.7368C37.7677 67.7998 37.25 64.9764 37.25 63.6296V62.6296H36.25H11V58.9259H21.6667V57.9259V56.9259C20.3776 56.9259 19.1458 56.425 18.241 55.5403C17.337 54.6564 16.8333 53.4624 16.8333 52.2222V23.7037C16.8333 22.4635 17.337 21.2695 18.241 20.3856C19.1458 19.5009 20.3776 19 21.6667 19H68.3333C69.6224 19 70.8542 19.5009 71.759 20.3856L72.4581 19.6706L71.759 20.3856C72.663 21.2695 73.1667 22.4635 73.1667 23.7037V52.2222C73.1667 53.4624 72.663 54.6564 71.759 55.5403C70.8542 56.425 69.6224 56.9259 68.3333 56.9259ZM42.0833 39.8148H41.0833V40.8148V60.7778V61.7778H42.0833H56.6667H57.6667V60.7778V40.8148V39.8148H56.6667H42.0833Z" stroke="white" stroke-width="2"/>
</svg>
