<svg width="174" height="174" viewBox="0 0 174 174" fill="none" xmlns="http://www.w3.org/2000/svg">
<g filter="url(#filter0_d_1837_1422)">
<rect x="86.7109" y="16" width="100" height="100" rx="10" transform="rotate(45 86.7109 16)" fill="white"/>
</g>
<g clip-path="url(#clip0_1837_1422)">
<path d="M74.6706 122C81.1106 122 86.3372 116.773 86.3372 110.333V98.6667H74.6706C68.2306 98.6667 63.0039 103.893 63.0039 110.333C63.0039 116.773 68.2306 122 74.6706 122Z" fill="#0ACF83"/>
<path d="M63.0039 86.9999C63.0039 80.5599 68.2306 75.3333 74.6706 75.3333H86.3372V98.6666H74.6706C68.2306 98.6666 63.0039 93.4399 63.0039 86.9999Z" fill="#A259FF"/>
<path d="M63.0039 63.6667C63.0039 57.2267 68.2306 52 74.6706 52H86.3372V75.3333H74.6706C68.2306 75.3333 63.0039 70.1067 63.0039 63.6667Z" fill="#F24E1E"/>
<path d="M86.3379 52H98.0046C104.445 52 109.671 57.2267 109.671 63.6667C109.671 70.1067 104.445 75.3333 98.0046 75.3333H86.3379V52Z" fill="#FF7262"/>
<path d="M109.671 86.9999C109.671 93.4399 104.445 98.6666 98.0046 98.6666C91.5646 98.6666 86.3379 93.4399 86.3379 86.9999C86.3379 80.5599 91.5646 75.3333 98.0046 75.3333C104.445 75.3333 109.671 80.5599 109.671 86.9999Z" fill="#1ABCFE"/>
</g>
<defs>
<filter id="filter0_d_1837_1422" x="0.142578" y="0.14209" width="173.137" height="173.137" filterUnits="userSpaceOnUse" color-interpolation-filters="sRGB">
<feFlood flood-opacity="0" result="BackgroundImageFix"/>
<feColorMatrix in="SourceAlpha" type="matrix" values="0 0 0 0 0 0 0 0 0 0 0 0 0 0 0 0 0 0 127 0" result="hardAlpha"/>
<feOffset/>
<feGaussianBlur stdDeviation="10"/>
<feComposite in2="hardAlpha" operator="out"/>
<feColorMatrix type="matrix" values="0 0 0 0 0 0 0 0 0 0 0 0 0 0 0 0 0 0 0.1 0"/>
<feBlend mode="normal" in2="BackgroundImageFix" result="effect1_dropShadow_1837_1422"/>
<feBlend mode="normal" in="SourceGraphic" in2="effect1_dropShadow_1837_1422" result="shape"/>
</filter>
<clipPath id="clip0_1837_1422">
<rect width="46.676" height="70" fill="white" transform="translate(63 52)"/>
</clipPath>
</defs>
</svg>
