<svg width="198" height="197" viewBox="0 0 198 197" fill="none" xmlns="http://www.w3.org/2000/svg">
<g clip-path="url(#clip0_424_2)">
<path d="M98.551 196.13C152.979 196.13 197.102 152.225 197.102 98.065C197.102 43.9052 152.979 0 98.551 0C44.1228 0 0 43.9052 0 98.065C0 152.225 44.1228 196.13 98.551 196.13Z" fill="#024D81" fill-opacity="0.1"/>
<path d="M98.551 195.63C152.703 195.63 196.602 151.949 196.602 98.065C196.602 44.1813 152.703 0.5 98.551 0.5C44.3989 0.5 0.5 44.1813 0.5 98.065C0.5 151.949 44.3989 195.63 98.551 195.63Z" fill="#024D81" fill-opacity="0.1" stroke="#024D81" stroke-opacity="0.15" stroke-miterlimit="10"/>
<path d="M99.051 184.607C146.824 184.607 185.551 145.88 185.551 98.1069C185.551 50.3343 146.824 11.6069 99.051 11.6069C51.2784 11.6069 12.551 50.3343 12.551 98.1069C12.551 145.88 51.2784 184.607 99.051 184.607Z" fill="white"/>
<path d="M99.051 182.107C145.443 182.107 183.051 144.499 183.051 98.1069C183.051 51.715 145.443 14.1069 99.051 14.1069C52.6591 14.1069 15.051 51.715 15.051 98.1069C15.051 144.499 52.6591 182.107 99.051 182.107Z" stroke="#024D81" stroke-opacity="0.5" stroke-width="5"/>
<path d="M136.208 95.3638C136.208 95.5635 136.207 95.7628 136.204 95.9618C135.13 94.0805 133.659 92.4333 131.873 91.1449C128.815 88.9384 125.05 87.9397 121.301 88.3405C117.551 88.7414 114.082 90.5135 111.56 93.3165C109.168 95.9745 107.787 99.3818 107.647 102.943C105.434 103.564 103.459 104.854 101.997 106.645C100.363 108.645 99.4713 111.149 99.4718 113.732C99.4718 113.732 99.4718 113.732 99.4718 113.732V134.141C99.4718 134.451 99.4848 134.759 99.5098 135.063C98.4721 135.143 97.4316 135.183 96.3905 135.182H96.39C74.3982 135.182 56.5715 117.356 56.5715 95.3638C56.5715 73.3721 74.3982 55.5454 96.39 55.5454C118.382 55.5454 136.208 73.3721 136.208 95.3638Z" stroke="#024D81" stroke-width="2"/>
<path d="M118.55 108.585V109.585H119.55H127.714H128.714V108.585V104.503C128.714 103.156 128.178 101.863 127.225 100.91C126.272 99.957 124.98 99.4216 123.632 99.4216C122.284 99.4216 120.991 99.957 120.038 100.91C119.085 101.863 118.55 103.156 118.55 104.503V108.585ZM125.79 127.119L126.489 127.834L125.79 127.119C125.5 127.402 125.157 127.625 124.781 127.776C124.405 127.926 124.003 128.001 123.598 127.997C123.193 127.992 122.793 127.908 122.421 127.749C121.669 127.427 121.075 126.82 120.771 126.06C120.466 125.301 120.476 124.452 120.798 123.7C121.12 122.948 121.727 122.354 122.486 122.05C123.245 121.745 124.095 121.755 124.847 122.077C125.219 122.236 125.557 122.467 125.84 122.757C126.123 123.047 126.346 123.389 126.497 123.765C126.647 124.141 126.723 124.543 126.718 124.948C126.713 125.353 126.629 125.753 126.47 126.126C126.31 126.498 126.079 126.835 125.79 127.119ZM121.634 129.587C122.248 129.85 122.908 129.989 123.575 129.997C124.243 130.004 124.906 129.88 125.525 129.632C126.145 129.384 126.71 129.016 127.187 128.549C127.665 128.082 128.046 127.526 128.308 126.912C128.571 126.298 128.71 125.639 128.718 124.971C128.725 124.303 128.602 123.641 128.353 123.021C128.105 122.401 127.737 121.836 127.27 121.359C126.803 120.881 126.247 120.5 125.633 120.238C124.393 119.708 122.994 119.692 121.742 120.193C120.49 120.695 119.489 121.673 118.959 122.913C118.429 124.153 118.413 125.553 118.914 126.804C119.416 128.056 120.394 129.057 121.634 129.587ZM126.714 107.585H120.55V104.503C120.55 103.686 120.875 102.902 121.453 102.324C122.03 101.746 122.814 101.422 123.632 101.422C124.449 101.422 125.233 101.746 125.811 102.324C126.389 102.902 126.714 103.686 126.714 104.503V107.585ZM132.836 108.585V109.585H133.836H136.034C137.363 109.626 138.624 110.182 139.551 111.135C140.481 112.092 141.001 113.374 141 114.708V114.708V135.117C141 136.476 140.46 137.779 139.5 138.74C138.539 139.7 137.236 140.24 135.877 140.24H111.386C110.028 140.24 108.725 139.7 107.764 138.74C106.803 137.779 106.263 136.476 106.263 135.117V114.708C106.263 113.349 106.803 112.046 107.764 111.086C108.725 110.125 110.028 109.585 111.386 109.585H113.427H114.427V108.585V104.503C114.427 102.062 115.397 99.721 117.123 97.9948C118.849 96.2686 121.191 95.2988 123.632 95.2988C124.84 95.2988 126.037 95.5369 127.154 95.9995C128.271 96.4621 129.286 97.1401 130.14 97.9948C130.995 98.8495 131.673 99.8642 132.136 100.981C132.598 102.098 132.836 103.295 132.836 104.503V108.585Z" stroke="#024D81" stroke-width="2"/>
<mask id="path-7-inside-1_424_2" fill="white">
<path fill-rule="evenodd" clip-rule="evenodd" d="M86.0078 68.2761C85.6932 68.2761 85.3916 68.4104 85.1691 68.6495C84.9467 68.8886 84.8218 69.2129 84.8218 69.5511V73.376H83.6358C82.5456 73.376 81.466 73.6069 80.4588 74.0554C79.4515 74.5039 78.5363 75.1613 77.7654 75.9901C76.9945 76.8188 76.383 77.8027 75.9658 78.8855C75.5486 79.9684 75.3338 81.1289 75.3338 82.301C75.3338 83.473 75.5486 84.6336 75.9658 85.7164C76.383 86.7992 76.9945 87.7831 77.7654 88.6119C78.5363 89.4406 79.4515 90.098 80.4588 90.5465C81.466 90.9951 82.5456 91.2259 83.6358 91.2259H84.8218V103.976H83.6358C82.4092 103.976 81.2128 103.567 80.2111 102.806C79.2095 102.045 78.4519 100.969 78.0427 99.7263C77.9941 99.564 77.9157 99.4138 77.8122 99.2847C77.7088 99.1555 77.5822 99.0499 77.4401 98.9743C77.298 98.8986 77.1433 98.8543 76.985 98.8441C76.8267 98.8338 76.6681 98.8578 76.5186 98.9146C76.369 98.9714 76.2316 99.0598 76.1145 99.1747C75.9973 99.2896 75.9027 99.4286 75.8364 99.5834C75.7701 99.7383 75.7333 99.9058 75.7283 100.076C75.7232 100.247 75.75 100.416 75.8071 100.575C76.3796 102.316 77.4399 103.822 78.8419 104.888C80.244 105.954 81.9188 106.526 83.6358 106.526H84.8218V110.351C84.8218 110.689 84.9467 111.013 85.1691 111.252C85.3916 111.491 85.6932 111.626 86.0078 111.626C86.3223 111.626 86.624 111.491 86.8464 111.252C87.0688 111.013 87.1938 110.689 87.1938 110.351V106.526H88.3798C90.5816 106.526 92.6932 105.586 94.2501 103.912C95.807 102.238 96.6817 99.9679 96.6817 97.6009C96.6817 95.2338 95.807 92.9637 94.2501 91.29C92.6932 89.6162 90.5816 88.6759 88.3798 88.6759H87.1938V75.926H88.3798C89.6063 75.9258 90.8027 76.3344 91.8044 77.0954C92.806 77.8564 93.5636 78.9325 93.9729 80.1756C94.0215 80.3378 94.0998 80.488 94.2033 80.6172C94.3068 80.7464 94.4333 80.8519 94.5754 80.9276C94.7175 81.0033 94.8723 81.0475 95.0306 81.0578C95.1889 81.068 95.3475 81.044 95.497 80.9873C95.6465 80.9305 95.7839 80.842 95.9011 80.7271C96.0183 80.6123 96.1128 80.4733 96.1791 80.3184C96.2455 80.1636 96.2822 79.996 96.2873 79.8256C96.2923 79.6552 96.2655 79.4855 96.2085 79.3264C95.6359 77.5862 94.5756 76.0796 93.1736 75.0139C91.7716 73.9483 90.0968 73.3761 88.3798 73.376H87.1938V69.5511C87.1938 69.2129 87.0688 68.8886 86.8464 68.6495C86.624 68.4104 86.3223 68.2761 86.0078 68.2761ZM82.4498 69.5511C82.4498 68.5366 82.8247 67.5637 83.4919 66.8464C84.1592 66.1291 85.0641 65.7261 86.0078 65.7261C86.9514 65.7261 87.8564 66.1291 88.5236 66.8464C89.1909 67.5637 89.5657 68.5366 89.5657 69.5511V70.8962C91.5583 71.1365 93.4478 71.9748 95.018 73.3152C96.5883 74.6557 97.776 76.4441 98.4453 78.476C98.601 78.9496 98.6685 79.4515 98.6438 79.9531C98.6191 80.4547 98.5027 80.9462 98.3014 81.3995C98.1 81.8528 97.8175 82.2589 97.4701 82.5949C97.1227 82.9308 96.7172 83.1899 96.2767 83.3573C95.8362 83.5247 95.3693 83.5972 94.9027 83.5707C94.4361 83.5442 93.9789 83.4191 93.5573 83.2026C93.1356 82.9861 92.7578 82.6825 92.4453 82.309C92.1328 81.9355 91.8919 81.4996 91.7361 81.026C91.5587 80.4879 91.2718 79.9993 90.8963 79.5956C90.5208 79.1919 90.0662 78.8835 89.5657 78.6927V86.1961C92.1748 86.5104 94.5845 87.8473 96.3345 89.9512C98.0845 92.0551 99.0519 94.7785 99.0519 97.6009C99.0519 100.423 98.0845 103.147 96.3345 105.251C94.5845 107.354 92.1748 108.691 89.5657 109.006V110.351C89.5657 111.365 89.1909 112.338 88.5236 113.055C87.8564 113.773 86.9514 114.176 86.0078 114.176C85.0641 114.176 84.1592 113.773 83.4919 113.055C82.8247 112.338 82.4498 111.365 82.4498 110.351V109.006C80.4572 108.765 78.5678 107.927 76.9975 106.587C75.4272 105.246 74.2396 103.458 73.5703 101.426C73.4145 100.952 73.3471 100.45 73.3718 99.9487C73.3965 99.4471 73.5128 98.9556 73.7142 98.5024C74.1209 97.5869 74.8492 96.8827 75.7389 96.5445C76.6286 96.2064 77.6068 96.262 78.4583 96.6993C79.3098 97.1365 79.9649 97.9194 80.2794 98.8759C80.4569 99.4139 80.7438 99.9026 81.1193 100.306C81.4947 100.71 81.9493 101.018 82.4498 101.209V93.7058C79.8408 93.3914 77.431 92.0546 75.681 89.9506C73.9311 87.8467 72.9636 85.1233 72.9636 82.301C72.9636 79.4786 73.9311 76.7552 75.681 74.6513C77.431 72.5474 79.8408 71.2105 82.4498 70.8962V69.5511ZM77.7058 82.301C77.7058 80.6102 78.3306 78.9887 79.4427 77.7932C80.5548 76.5977 82.0631 75.926 83.6358 75.926H84.8218V88.6759H83.6358C82.0631 88.6759 80.5548 88.0043 79.4427 86.8087C78.3306 85.6132 77.7058 83.9917 77.7058 82.301V82.301ZM82.4498 78.6927C81.7554 78.9562 81.154 79.4447 80.7287 80.0909C80.3033 80.7371 80.0749 81.5093 80.0749 82.301C80.0749 83.0926 80.3033 83.8648 80.7287 84.511C81.154 85.1573 81.7554 85.6458 82.4498 85.9092V78.6927V78.6927ZM87.1938 91.2259H88.3798C89.9525 91.2259 91.4608 91.8976 92.5729 93.0931C93.685 94.2886 94.3097 95.9101 94.3097 97.6009C94.3097 99.2916 93.685 100.913 92.5729 102.109C91.4608 103.304 89.9525 103.976 88.3798 103.976H87.1938V91.2259ZM89.5657 93.9926V101.209C90.2602 100.946 90.8615 100.457 91.2869 99.8109C91.7122 99.1647 91.9406 98.3925 91.9406 97.6009C91.9406 96.8092 91.7122 96.037 91.2869 95.3908C90.8615 94.7446 90.2602 94.2561 89.5657 93.9926V93.9926Z"/>
</mask>
<path fill-rule="evenodd" clip-rule="evenodd" d="M86.0078 68.2761C85.6932 68.2761 85.3916 68.4104 85.1691 68.6495C84.9467 68.8886 84.8218 69.2129 84.8218 69.5511V73.376H83.6358C82.5456 73.376 81.466 73.6069 80.4588 74.0554C79.4515 74.5039 78.5363 75.1613 77.7654 75.9901C76.9945 76.8188 76.383 77.8027 75.9658 78.8855C75.5486 79.9684 75.3338 81.1289 75.3338 82.301C75.3338 83.473 75.5486 84.6336 75.9658 85.7164C76.383 86.7992 76.9945 87.7831 77.7654 88.6119C78.5363 89.4406 79.4515 90.098 80.4588 90.5465C81.466 90.9951 82.5456 91.2259 83.6358 91.2259H84.8218V103.976H83.6358C82.4092 103.976 81.2128 103.567 80.2111 102.806C79.2095 102.045 78.4519 100.969 78.0427 99.7263C77.9941 99.564 77.9157 99.4138 77.8122 99.2847C77.7088 99.1555 77.5822 99.0499 77.4401 98.9743C77.298 98.8986 77.1433 98.8543 76.985 98.8441C76.8267 98.8338 76.6681 98.8578 76.5186 98.9146C76.369 98.9714 76.2316 99.0598 76.1145 99.1747C75.9973 99.2896 75.9027 99.4286 75.8364 99.5834C75.7701 99.7383 75.7333 99.9058 75.7283 100.076C75.7232 100.247 75.75 100.416 75.8071 100.575C76.3796 102.316 77.4399 103.822 78.8419 104.888C80.244 105.954 81.9188 106.526 83.6358 106.526H84.8218V110.351C84.8218 110.689 84.9467 111.013 85.1691 111.252C85.3916 111.491 85.6932 111.626 86.0078 111.626C86.3223 111.626 86.624 111.491 86.8464 111.252C87.0688 111.013 87.1938 110.689 87.1938 110.351V106.526H88.3798C90.5816 106.526 92.6932 105.586 94.2501 103.912C95.807 102.238 96.6817 99.9679 96.6817 97.6009C96.6817 95.2338 95.807 92.9637 94.2501 91.29C92.6932 89.6162 90.5816 88.6759 88.3798 88.6759H87.1938V75.926H88.3798C89.6063 75.9258 90.8027 76.3344 91.8044 77.0954C92.806 77.8564 93.5636 78.9325 93.9729 80.1756C94.0215 80.3378 94.0998 80.488 94.2033 80.6172C94.3068 80.7464 94.4333 80.8519 94.5754 80.9276C94.7175 81.0033 94.8723 81.0475 95.0306 81.0578C95.1889 81.068 95.3475 81.044 95.497 80.9873C95.6465 80.9305 95.7839 80.842 95.9011 80.7271C96.0183 80.6123 96.1128 80.4733 96.1791 80.3184C96.2455 80.1636 96.2822 79.996 96.2873 79.8256C96.2923 79.6552 96.2655 79.4855 96.2085 79.3264C95.6359 77.5862 94.5756 76.0796 93.1736 75.0139C91.7716 73.9483 90.0968 73.3761 88.3798 73.376H87.1938V69.5511C87.1938 69.2129 87.0688 68.8886 86.8464 68.6495C86.624 68.4104 86.3223 68.2761 86.0078 68.2761ZM82.4498 69.5511C82.4498 68.5366 82.8247 67.5637 83.4919 66.8464C84.1592 66.1291 85.0641 65.7261 86.0078 65.7261C86.9514 65.7261 87.8564 66.1291 88.5236 66.8464C89.1909 67.5637 89.5657 68.5366 89.5657 69.5511V70.8962C91.5583 71.1365 93.4478 71.9748 95.018 73.3152C96.5883 74.6557 97.776 76.4441 98.4453 78.476C98.601 78.9496 98.6685 79.4515 98.6438 79.9531C98.6191 80.4547 98.5027 80.9462 98.3014 81.3995C98.1 81.8528 97.8175 82.2589 97.4701 82.5949C97.1227 82.9308 96.7172 83.1899 96.2767 83.3573C95.8362 83.5247 95.3693 83.5972 94.9027 83.5707C94.4361 83.5442 93.9789 83.4191 93.5573 83.2026C93.1356 82.9861 92.7578 82.6825 92.4453 82.309C92.1328 81.9355 91.8919 81.4996 91.7361 81.026C91.5587 80.4879 91.2718 79.9993 90.8963 79.5956C90.5208 79.1919 90.0662 78.8835 89.5657 78.6927V86.1961C92.1748 86.5104 94.5845 87.8473 96.3345 89.9512C98.0845 92.0551 99.0519 94.7785 99.0519 97.6009C99.0519 100.423 98.0845 103.147 96.3345 105.251C94.5845 107.354 92.1748 108.691 89.5657 109.006V110.351C89.5657 111.365 89.1909 112.338 88.5236 113.055C87.8564 113.773 86.9514 114.176 86.0078 114.176C85.0641 114.176 84.1592 113.773 83.4919 113.055C82.8247 112.338 82.4498 111.365 82.4498 110.351V109.006C80.4572 108.765 78.5678 107.927 76.9975 106.587C75.4272 105.246 74.2396 103.458 73.5703 101.426C73.4145 100.952 73.3471 100.45 73.3718 99.9487C73.3965 99.4471 73.5128 98.9556 73.7142 98.5024C74.1209 97.5869 74.8492 96.8827 75.7389 96.5445C76.6286 96.2064 77.6068 96.262 78.4583 96.6993C79.3098 97.1365 79.9649 97.9194 80.2794 98.8759C80.4569 99.4139 80.7438 99.9026 81.1193 100.306C81.4947 100.71 81.9493 101.018 82.4498 101.209V93.7058C79.8408 93.3914 77.431 92.0546 75.681 89.9506C73.9311 87.8467 72.9636 85.1233 72.9636 82.301C72.9636 79.4786 73.9311 76.7552 75.681 74.6513C77.431 72.5474 79.8408 71.2105 82.4498 70.8962V69.5511ZM77.7058 82.301C77.7058 80.6102 78.3306 78.9887 79.4427 77.7932C80.5548 76.5977 82.0631 75.926 83.6358 75.926H84.8218V88.6759H83.6358C82.0631 88.6759 80.5548 88.0043 79.4427 86.8087C78.3306 85.6132 77.7058 83.9917 77.7058 82.301V82.301ZM82.4498 78.6927C81.7554 78.9562 81.154 79.4447 80.7287 80.0909C80.3033 80.7371 80.0749 81.5093 80.0749 82.301C80.0749 83.0926 80.3033 83.8648 80.7287 84.511C81.154 85.1573 81.7554 85.6458 82.4498 85.9092V78.6927V78.6927ZM87.1938 91.2259H88.3798C89.9525 91.2259 91.4608 91.8976 92.5729 93.0931C93.685 94.2886 94.3097 95.9101 94.3097 97.6009C94.3097 99.2916 93.685 100.913 92.5729 102.109C91.4608 103.304 89.9525 103.976 88.3798 103.976H87.1938V91.2259ZM89.5657 93.9926V101.209C90.2602 100.946 90.8615 100.457 91.2869 99.8109C91.7122 99.1647 91.9406 98.3925 91.9406 97.6009C91.9406 96.8092 91.7122 96.037 91.2869 95.3908C90.8615 94.7446 90.2602 94.2561 89.5657 93.9926V93.9926Z" stroke="#024D81" stroke-width="4" mask="url(#path-7-inside-1_424_2)"/>
</g>
<defs>
<clipPath id="clip0_424_2">
<rect width="197.102" height="196.131" fill="white"/>
</clipPath>
</defs>
</svg>
