<svg width="90" height="90" viewBox="0 0 90 90" fill="none" xmlns="http://www.w3.org/2000/svg">
<path d="M58.9444 11H30.0556C27.2635 11 25 13.2199 25 15.9583V74.0417C25 76.7801 27.2635 79 30.0556 79H58.9444C61.7365 79 64 76.7801 64 74.0417V15.9583C64 13.2199 61.7365 11 58.9444 11Z" stroke="#024D81" stroke-width="2" stroke-linecap="round" stroke-linejoin="round"/>
<path d="M18.5424 21.8029C18.5424 21.8029 12.9512 27.2694 11.1406 32.6684" stroke="#024D81" stroke-width="2" stroke-linecap="round"/>
<path d="M11.0027 57.5679C11.0027 57.5679 14.2248 64.698 18.6814 68.2394" stroke="#024D81" stroke-width="2" stroke-linecap="round"/>
<path d="M71.2383 21.8029C71.2383 21.8029 76.8295 27.2694 78.6401 32.6684" stroke="#024D81" stroke-width="2" stroke-linecap="round"/>
<path d="M78.7777 57.5701C78.7777 57.5701 75.5557 64.7004 71.0991 68.2416" stroke="#024D81" stroke-width="2" stroke-linecap="round"/>
<path d="M32.2061 58.1055C33.476 60.3825 35.3046 62.2986 37.5199 63.6734C39.735 65.0481 42.2638 65.8362 44.8677 65.9634C47.4718 66.0907 50.0653 65.5526 52.404 64.4004C54.7426 63.2481 56.7493 61.5194 58.2351 59.377" stroke="#024D81" stroke-width="2" stroke-linecap="round"/>
<path d="M32.2061 32.3772C33.476 30.1003 35.3046 28.1841 37.5199 26.8094C39.735 25.4346 42.2638 24.6465 44.8677 24.5193C47.4718 24.3921 50.0653 24.9298 52.404 26.082C54.7426 27.2343 56.7493 28.9634 58.2351 31.1056" stroke="#024D81" stroke-width="2" stroke-linecap="round"/>
<path d="M46 34.01L36 44L39.09 47.09L41.8 44.39L52.19 34L46 34.01ZM48.82 50.61L54.21 45.23H48.28C48.17 45.23 48.02 45.23 47.94 45.3L45.71 47.53L42.62 50.6L45.71 53.7L47.86 55.85C47.93 55.92 48 56.02 48.12 56H54.19L48.82 50.61Z" stroke="#024D81" stroke-width="2"/>
</svg>
