<svg width="90" height="90" viewBox="0 0 90 90" fill="none" xmlns="http://www.w3.org/2000/svg">
<path d="M19.5 59V79H11V64.25L11 64.2498C10.9994 61.4777 12.0222 58.803 13.8724 56.7387C15.5282 54.8913 17.7422 53.6492 20.1642 53.1922C19.8156 54.6875 19.6029 56.2124 19.5292 57.748L19.5286 57.7604L19.5283 57.7728L19.5003 58.9767L19.5 58.9884V59ZM45 42.5C49.3761 42.5 53.5729 44.2384 56.6673 47.3327C59.7616 50.4271 61.5 54.6239 61.5 59V79H28.5V59C28.5 54.6239 30.2384 50.4271 33.3327 47.3327C36.4271 44.2384 40.6239 42.5 45 42.5ZM79 64.2501V79H70.5V59C70.5 57.0037 70.2719 55.0603 69.8369 53.1941C72.1624 53.6337 74.3035 54.7986 75.9418 56.5396C77.9058 58.6266 78.9995 61.3843 79 64.25C79 64.25 79 64.2501 79 64.2501ZM22.25 32C24.3054 32 26.2767 32.8165 27.7301 34.2699C29.1835 35.7233 30 37.6946 30 39.75C30 41.8054 29.1835 43.7767 27.7301 45.2301C26.2767 46.6835 24.3054 47.5 22.25 47.5C20.1946 47.5 18.2233 46.6835 16.7699 45.2301C15.3165 43.7767 14.5 41.8054 14.5 39.75C14.5 37.6946 15.3165 35.7233 16.7699 34.2699C18.2233 32.8165 20.1946 32 22.25 32ZM67.75 32C69.8054 32 71.7767 32.8165 73.2301 34.2699C74.6835 35.7233 75.5 37.6946 75.5 39.75C75.5 41.8054 74.6835 43.7767 73.2301 45.2301C71.7767 46.6835 69.8054 47.5 67.75 47.5C65.6946 47.5 63.7233 46.6835 62.2699 45.2301C60.8165 43.7767 60 41.8054 60 39.75C60 37.6946 60.8165 35.7233 62.2699 34.2699C63.7233 32.8165 65.6946 32 67.75 32ZM45 11C48.4478 11 51.7544 12.3696 54.1924 14.8076C56.6304 17.2456 58 20.5522 58 24C58 27.4478 56.6304 30.7544 54.1924 33.1924C51.7544 35.6304 48.4478 37 45 37C41.5522 37 38.2456 35.6304 35.8076 33.1924C33.3696 30.7544 32 27.4478 32 24C32 20.5522 33.3696 17.2456 35.8076 14.8076C38.2456 12.3696 41.5522 11 45 11Z" stroke="#024D81" stroke-width="2"/>
<path d="M45.3355 52.0091L36 61.0898L38.8847 63.8986L41.4146 61.4443L51.1142 52L45.3355 52.0091ZM47.9681 67.0982L53 62.2079H47.464C47.3613 62.2079 47.2213 62.2079 47.1466 62.2715L45.0648 64.2985L42.1801 67.0891L45.0648 69.907L47.0719 71.8613C47.1373 71.9249 47.2026 72.0158 47.3147 71.9976H52.9813L47.9681 67.0982Z" stroke="#024D81" stroke-width="2"/>
</svg>
