<svg width="90" height="90" viewBox="0 0 90 90" fill="none" xmlns="http://www.w3.org/2000/svg">
<path d="M73.4725 74.4725H74.4725V73.4725V45.875H78.75V76.96C78.75 77.9509 77.9509 78.75 76.96 78.75H12.79C11.7991 78.75 11 77.9509 11 76.96V12.79C11 11.7991 11.7991 11 12.79 11H43.875V15.2775H16.2775H15.2775V16.2775V73.4725V74.4725H16.2775H73.4725Z" stroke="white" stroke-width="2"/>
<path d="M36.0954 48.2213L35.808 48.5081L35.8019 48.9141L35.7408 52.9596L35.7252 53.9994L36.7648 53.9744L40.7493 53.8785L41.1487 53.8689L41.4315 53.5867L72.8626 22.2254L73.5721 21.5175L72.8626 20.8096L68.9217 16.8774L68.2154 16.1727L67.5091 16.8774L36.0954 48.2213ZM32.0996 57.2511C32.0996 57.2505 32.0996 57.25 32.0996 57.2494L32.2634 47.0002L68.2153 11.1175L78.6278 21.5217L42.6706 57.4011L32.5173 57.6506H32.4947C32.2775 57.6506 32.0981 57.4712 32.0996 57.2511ZM68.0056 10.9079L68.0057 10.9081C68.0056 10.9079 68.0054 10.9078 68.0053 10.9076L68.0056 10.9079Z" stroke="white" stroke-width="2"/>
</svg>
