<svg width="90" height="90" viewBox="0 0 90 90" fill="none" xmlns="http://www.w3.org/2000/svg">
<path d="M58.9418 11H30.0529C27.2608 11 24.9973 13.2199 24.9973 15.9583V74.0417C24.9973 76.7801 27.2608 79 30.0529 79H58.9418C61.7338 79 63.9973 76.7801 63.9973 74.0417V15.9583C63.9973 13.2199 61.7338 11 58.9418 11Z" stroke="#024D81" stroke-width="2" stroke-linecap="round" stroke-linejoin="round"/>
<path d="M18.5397 21.8027C18.5397 21.8027 12.9486 27.2693 11.1379 32.6683" stroke="#024D81" stroke-width="2" stroke-linecap="round"/>
<path d="M11 57.5684C11 57.5684 14.2221 64.6985 18.6787 68.2399" stroke="#024D81" stroke-width="2" stroke-linecap="round"/>
<path d="M71.2356 21.8027C71.2356 21.8027 76.8268 27.2693 78.6374 32.6683" stroke="#024D81" stroke-width="2" stroke-linecap="round"/>
<path d="M78.7751 57.5703C78.7751 57.5703 75.5531 64.7006 71.0964 68.2419" stroke="#024D81" stroke-width="2" stroke-linecap="round"/>
<path d="M31.2034 58.1055C32.4733 60.3825 34.3019 62.2986 36.5172 63.6734C38.7324 65.0481 41.2611 65.8362 43.865 65.9634C46.4691 66.0907 49.0627 65.5526 51.4013 64.4004C53.7399 63.2481 55.7466 61.5194 57.2324 59.377" stroke="#024D81" stroke-width="2" stroke-linecap="round"/>
<path d="M31.2034 35.3772C32.4733 33.1003 34.3019 31.1841 36.5172 29.8094C38.7324 28.4346 41.2611 27.6465 43.865 27.5193C46.4691 27.3921 49.0627 27.9298 51.4013 29.082C53.7399 30.2343 55.7466 31.9634 57.2324 34.1056" stroke="#024D81" stroke-width="2" stroke-linecap="round"/>
<path d="M37.6084 42L34 46.4282L37.7818 51.0648" stroke="#024D81" stroke-width="2" stroke-linecap="round" stroke-linejoin="round"/>
<path d="M52.6632 42L56.2717 46.4282L52.4897 51.0647" stroke="#024D81" stroke-width="2" stroke-linecap="round" stroke-linejoin="round"/>
<path d="M47.502 42L42.8813 51.119" stroke="#024D81" stroke-width="2" stroke-linecap="round"/>
</svg>
