<svg width="30" height="30" viewBox="0 0 30 30" fill="none" xmlns="http://www.w3.org/2000/svg">
<path fill-rule="evenodd" clip-rule="evenodd" d="M15 30C23.2843 30 30 23.2843 30 15C30 6.71573 23.2843 0 15 0C6.71573 0 0 6.71573 0 15C0 23.2843 6.71573 30 15 30Z" fill="#024D81"/>
<path fill-rule="evenodd" clip-rule="evenodd" d="M12.7127 23.7587C12.7127 23.5339 12.7048 22.9389 12.7002 22.1487C10.1326 22.7204 9.59091 20.8798 9.59091 20.8798C9.17101 19.7863 8.5658 19.4952 8.5658 19.4952C7.7277 18.9077 8.62927 18.9199 8.62927 18.9199C9.55577 18.9868 10.0431 19.8955 10.0431 19.8955C10.8665 21.3417 12.2033 20.9245 12.7297 20.6822C12.8136 20.0704 13.0521 19.6532 13.3156 19.4167C11.266 19.1779 9.11094 18.3656 9.11094 14.7389C9.11094 13.7058 9.47077 12.861 10.0612 12.1992C9.96661 11.9598 9.64928 10.9976 10.1519 9.69438C10.1519 9.69438 10.9271 9.43989 12.69 10.6647C13.4261 10.4549 14.2161 10.3492 15.0015 10.3457C15.7852 10.3492 16.5745 10.4549 17.3124 10.6647C19.0741 9.43989 19.8482 9.69438 19.8482 9.69438C20.352 10.997 20.0352 11.9592 19.94 12.1992C20.5316 12.861 20.8886 13.7058 20.8886 14.7389C20.8886 18.3749 18.7302 19.175 16.6737 19.4092C17.0058 19.7014 17.3005 20.279 17.3005 21.1621C17.3005 22.4276 17.2886 23.4485 17.2886 23.7587C17.2886 24.0121 17.4552 24.3061 17.9238 24.2137C21.5884 22.9598 24.2308 19.4144 24.2308 15.2345C24.2308 10.007 20.0975 5.76953 14.9998 5.76953C9.90258 5.76953 5.76929 10.007 5.76929 15.2345C5.76985 19.4156 8.4145 22.9633 12.0826 24.2149C12.5438 24.3014 12.7127 24.0092 12.7127 23.7587Z" fill="white"/>
</svg>
