<svg width="90" height="90" viewBox="0 0 90 90" fill="none" xmlns="http://www.w3.org/2000/svg">
<path d="M38.6155 27.4374L33.1464 36.9103C30.7961 40.981 32.195 46.2028 36.2655 48.5529C40.3361 50.903 45.5577 49.5036 47.9079 45.4329L50.3336 41.2314L63.221 48.6719C63.9461 49.0906 64.1915 50.0062 63.7727 50.7315L61.265 55.075C60.8462 55.8003 59.9306 56.0456 59.2055 55.627L58.4817 55.2091L57.6156 54.7091L57.1156 55.5751L53.772 61.3665C53.1233 62.49 51.6939 62.8729 50.5707 62.2245L49.123 61.3886L48.2569 60.8886L47.7569 61.7547C46.1888 64.4708 42.7041 65.4046 39.9884 63.8367L27.6284 56.7006L27.3964 56.5667L27.1284 56.5667L14.6551 56.5673C14.655 56.5673 14.655 56.5673 14.6549 56.5673C13.3584 56.5651 12.3085 55.5144 12.3107 54.2273L12.3107 54.2258L12.3132 37.5046L12.3132 37.5012C12.309 36.2085 13.3608 35.1591 14.6533 35.1612L14.6551 35.1612L24.3074 35.1598L24.8847 35.1597L25.1733 34.6598L27.6445 30.3796C28.6395 28.6562 30.4762 27.5728 32.4693 27.5453L32.473 27.5452L38.6155 27.4374ZM67.7774 54.4819L68.4002 53.4031C70.2907 50.1288 69.1671 45.9346 65.8928 44.0442L49.244 34.432L48.378 33.932L47.878 34.798L43.2804 42.7612C42.4019 44.2828 40.4587 44.8035 38.9374 43.9252C37.4161 43.0468 36.8954 41.1036 37.7739 39.582L44.3724 28.153C44.7779 27.4506 45.5102 27.0072 46.3087 26.9839L46.3137 26.9837L50.4323 26.8426C50.4329 26.8426 50.4336 26.8426 50.4343 26.8426C51.5044 26.8111 52.5559 27.0707 53.4767 27.6023L62.724 32.9413L62.9561 33.0752L63.2241 33.0752L75.6974 33.0746C75.6976 33.0746 75.6978 33.0746 75.698 33.0746C76.9943 33.077 78.044 34.1276 78.0418 35.4145L78.0418 35.4161L78.0393 52.1358C78.0393 52.1361 78.0393 52.1365 78.0393 52.1368C78.0366 53.4293 76.994 54.4758 75.6954 54.4807C75.695 54.4807 75.6946 54.4807 75.6942 54.4807L67.7774 54.4819Z" stroke="#024D81" stroke-width="2"/>
</svg>
