<svg width="90" height="90" viewBox="0 0 90 90" fill="none" xmlns="http://www.w3.org/2000/svg">
<path d="M39 40.3412C41.385 40.3412 43.6736 41.2942 45.3619 42.9924C47.0504 44.6908 48 46.9956 48 49.4V56H39H30V49.4C30 46.9956 30.9496 44.6908 32.6381 42.9924C34.3264 41.2942 36.615 40.3412 39 40.3412ZM39 20C40.8546 20 42.6345 20.741 43.9477 22.062C45.2611 23.3831 46 25.1762 46 27.0471C46 28.9179 45.2611 30.711 43.9477 32.0322C42.6345 33.3531 40.8546 34.0941 39 34.0941C37.1454 34.0941 35.3655 33.3531 34.0523 32.0322C32.7389 30.711 32 28.9179 32 27.0471C32 25.1762 32.7389 23.3831 34.0523 22.062C35.3655 20.741 37.1454 20 39 20Z" stroke="#024D81" stroke-width="2"/>
<path d="M38.4396 65.8743H38.438C31.161 65.8743 24.182 62.9836 19.0364 57.8381C13.8908 52.6926 11 45.7139 11 38.4371C11 31.1604 13.8908 24.1816 19.0364 19.0362C24.182 13.8908 31.1611 11.0001 38.438 11C45.7143 11.0023 52.692 13.8938 57.8371 19.0387C62.9823 24.1838 65.8738 31.1613 65.8761 38.4374V38.4386C65.8843 44.2732 64.0236 49.9572 60.5666 54.6576L59.9776 55.4584L60.775 56.0521C60.913 56.1549 61.0431 56.268 61.164 56.3904L61.1682 56.3947L78.0123 73.2382C78.645 73.8715 79.0003 74.7302 79 75.6254C78.9997 76.5207 78.6437 77.3792 78.0104 78.0121C77.377 78.6449 76.5182 79.0003 75.6228 79C74.7275 78.9997 73.8689 78.6437 73.236 78.0104L56.0183 60.7147L55.4659 59.9782L54.6679 60.5649C49.9645 64.0228 44.2773 65.8834 38.4396 65.8743Z" stroke="#024D81" stroke-width="2"/>
</svg>
