<svg width="90" height="90" viewBox="0 0 90 90" fill="none" xmlns="http://www.w3.org/2000/svg">
<path d="M65.89 34.5757C64.9444 29.6312 62.3046 25.171 58.425 21.963C54.5454 18.7551 49.6687 17 44.6346 17C39.6005 17 34.7238 18.7551 30.8442 21.963C26.9646 25.171 24.3247 29.6312 23.3791 34.5757C19.3851 35.2866 15.8023 37.4683 13.3375 40.6905C10.8726 43.9127 9.7046 47.9415 10.0637 51.9825C10.4228 56.0234 12.283 59.7831 15.2774 62.5201C18.2719 65.2572 22.1832 66.7729 26.24 66.7683H27.3221V62.4402H26.24C23.151 62.4483 20.1799 61.2541 17.9557 59.1105C15.7314 56.9669 14.4284 54.042 14.3224 50.9547C14.2164 47.8674 15.3157 44.86 17.3877 42.5689C19.4597 40.2777 22.3418 38.8826 25.4242 38.6788L27.2333 38.5554L27.4281 36.7528C27.8899 32.5118 29.9017 28.5908 33.0773 25.7422C36.2529 22.8937 40.3686 21.3182 44.6346 21.3182C48.9006 21.3182 53.0163 22.8937 56.1919 25.7422C59.3675 28.5908 61.3793 32.5118 61.8411 36.7528L62.0358 38.5554L63.845 38.6809C66.9211 38.8929 69.7947 40.2912 71.8598 42.581C73.9249 44.8708 75.0199 47.8731 74.9141 50.9547C74.8083 54.0363 73.5099 56.9564 71.2926 59.0991C69.0753 61.2419 66.1126 62.4398 63.0291 62.4402H61.9471V66.7683H63.0291C67.086 66.7729 70.9973 65.2572 73.9917 62.5201C76.9862 59.7831 78.8464 56.0234 79.2055 51.9825C79.5646 47.9415 78.3965 43.9127 75.9317 40.6905C73.4668 37.4683 69.8841 35.2866 65.89 34.5757V34.5757Z" stroke="white" stroke-width="2"/>
<path d="M59.7832 60.2761V55.948H55.2365C54.9574 54.5934 54.4196 53.3053 53.6524 52.1544L56.8769 48.93L53.8169 45.87L50.5925 49.0944C49.4416 48.3273 48.1535 47.7894 46.7988 47.5103V42.9636H42.4707V47.5103C41.1161 47.7894 39.828 48.3273 38.6771 49.0944L35.4527 45.87L32.3927 48.93L35.6171 52.1544C34.85 53.3053 34.3121 54.5934 34.033 55.948H29.4863V60.2761H34.033C34.3121 61.6308 34.85 62.9189 35.6171 64.0698L32.3927 67.2942L35.4527 70.3542L38.6771 67.1297C39.828 67.8969 41.1161 68.4347 42.4707 68.7138V73.2605H46.7988V68.7138C48.1535 68.4347 49.4416 67.8969 50.5925 67.1297L53.8169 70.3542L56.8769 67.2942L53.6524 64.0698C54.4196 62.9189 54.9574 61.6308 55.2365 60.2761H59.7832ZM44.6348 64.6043C43.3507 64.6043 42.0955 64.2235 41.0279 63.5101C39.9603 62.7968 39.1282 61.7828 38.6368 60.5965C38.1454 59.4102 38.0168 58.1049 38.2673 56.8455C38.5178 55.5861 39.1362 54.4294 40.0441 53.5214C40.9521 52.6135 42.1089 51.9951 43.3682 51.7446C44.6276 51.4941 45.9329 51.6227 47.1192 52.1141C48.3055 52.6055 49.3195 53.4376 50.0328 54.5052C50.7462 55.5728 51.127 56.828 51.127 58.1121C51.1253 59.8334 50.4407 61.4837 49.2236 62.7009C48.0064 63.918 46.3561 64.6026 44.6348 64.6043Z" stroke="white" stroke-width="2"/>
</svg>
