<svg width="90" height="90" viewBox="0 0 90 90" fill="none" xmlns="http://www.w3.org/2000/svg">
<path d="M40.6179 58.1321L41.325 58.8392L42.0321 58.1321L61.8071 38.3571L62.5142 37.65L61.8071 36.9429L56.8196 31.9554L56.1125 31.2483L55.4054 31.9554L41.325 46.0358L34.6821 39.3929L33.975 38.6858L33.2679 39.3929L28.2804 44.3804L27.5733 45.0875L28.2804 45.7946L40.6179 58.1321ZM25.7295 65.4542L25.7293 65.4539C20.5715 58.3611 18 50.5025 18 41.85V21.193L45 11.068L72 21.193V41.85C72 50.5026 69.4296 58.3613 64.2741 65.454C59.174 72.4698 52.7542 76.9565 45 78.9679C37.2458 76.9565 30.8273 72.4699 25.7295 65.4542Z" stroke="#024D81" stroke-width="2"/>
</svg>
