<svg width="198" height="197" viewBox="0 0 198 197" fill="none" xmlns="http://www.w3.org/2000/svg">
<g clip-path="url(#clip0_424_2)">
<path d="M98.551 196.13C152.979 196.13 197.102 152.225 197.102 98.065C197.102 43.9052 152.979 0 98.551 0C44.1228 0 0 43.9052 0 98.065C0 152.225 44.1228 196.13 98.551 196.13Z" fill="#024D81" fill-opacity="0.1"/>
<path d="M98.551 195.63C152.703 195.63 196.602 151.949 196.602 98.065C196.602 44.1813 152.703 0.5 98.551 0.5C44.3989 0.5 0.5 44.1813 0.5 98.065C0.5 151.949 44.3989 195.63 98.551 195.63Z" fill="#024D81" fill-opacity="0.1" stroke="#024D81" stroke-opacity="0.15" stroke-miterlimit="10"/>
<path d="M99.051 184.607C146.824 184.607 185.551 145.88 185.551 98.1069C185.551 50.3343 146.824 11.6069 99.051 11.6069C51.2784 11.6069 12.551 50.3343 12.551 98.1069C12.551 145.88 51.2784 184.607 99.051 184.607Z" fill="white"/>
<path d="M99.051 182.107C145.443 182.107 183.051 144.499 183.051 98.1069C183.051 51.715 145.443 14.1069 99.051 14.1069C52.6591 14.1069 15.051 51.715 15.051 98.1069C15.051 144.499 52.6591 182.107 99.051 182.107Z" stroke="#024D81" stroke-opacity="0.5" stroke-width="5"/>
<path d="M67.375 105.958L65.4977 105.478L61.7202 112.381C61.7201 112.382 61.7199 112.382 61.7198 112.382C61.1026 113.503 59.6571 113.941 58.4939 113.323C57.3363 112.708 56.9184 111.31 57.5307 110.188C57.5309 110.188 57.531 110.188 57.5312 110.187L62.8576 100.459L62.8578 100.459C64.837 96.8401 68.6898 94.5714 72.8719 94.5714H75.6281C77.738 94.5714 79.7566 95.1445 81.504 96.1763L82.3943 96.702L82.89 95.7947L87.6 87.1746C87.6001 87.1743 87.6003 87.1741 87.6004 87.1738C89.5884 83.5538 93.4405 81.2857 97.6219 81.2857H100.378C104.559 81.2857 108.412 83.5538 110.4 87.1738C110.4 87.1741 110.4 87.1743 110.4 87.1746L115.11 95.7947L115.606 96.702L116.496 96.1763C118.243 95.1445 120.262 94.5714 122.372 94.5714H125.128C129.31 94.5714 133.162 96.8399 135.15 100.46L140.465 110.188L140.465 110.188C141.078 111.308 140.658 112.707 139.509 113.323C138.342 113.94 136.904 113.504 136.284 112.381C136.284 112.381 136.284 112.381 136.283 112.38L132.502 105.477L130.625 105.958V111.286C130.625 113.168 129.077 114.714 127.125 114.714H120.375C118.423 114.714 116.875 113.168 116.875 111.286V105.958L114.998 105.477L111.217 112.38C111.216 112.381 111.216 112.381 111.216 112.382C110.595 113.504 109.157 113.94 107.99 113.322L107.978 113.316L107.966 113.31C106.763 112.713 106.397 111.355 107.035 110.188L107.035 110.188L112.14 100.846L112.514 100.162L111.942 99.6329C111.777 99.4796 111.643 99.309 111.549 99.1247L111.542 99.1109L111.535 99.0973L107.752 92.1915L105.875 92.6719V100.214C105.875 102.097 104.327 103.643 102.375 103.643H95.4984C93.6547 103.643 91.9984 102.079 91.9984 100.214V92.6719L90.1147 92.204L86.5135 99.0058C86.371 99.1746 86.2704 99.3286 86.2013 99.4341C86.1966 99.4414 86.192 99.4484 86.1875 99.4552C86.0986 99.591 86.077 99.6153 86.058 99.6329L85.4864 100.162L85.86 100.846L90.9647 110.188L90.9649 110.188C91.5779 111.308 91.1585 112.707 90.0086 113.323C88.8415 113.94 87.4031 113.503 86.7833 112.38L86.7834 112.38L86.778 112.371L82.8687 105.465L80.9987 105.981L81.125 111.297C81.1189 113.174 79.5731 114.714 77.625 114.714H70.875C68.9231 114.714 67.375 113.168 67.375 111.286V105.958ZM103.625 72.5357C103.625 75.0257 101.571 77.0714 99 77.0714C96.4295 77.0714 94.375 75.0257 94.375 72.5357C94.375 70.0458 96.4295 68 99 68C101.571 68 103.625 70.0458 103.625 72.5357ZM69.625 85.8214C69.625 83.3303 71.6793 81.2857 74.25 81.2857C76.8207 81.2857 78.875 83.3303 78.875 85.8214C78.875 88.3126 76.8207 90.3571 74.25 90.3571C71.6793 90.3571 69.625 88.3126 69.625 85.8214ZM139.5 121.143C141.452 121.143 143 122.689 143 124.571C143 126.454 141.452 128 139.5 128H58.5C56.5517 128 55 126.453 55 124.571C55 122.69 56.5517 121.143 58.5 121.143H139.5ZM119.125 85.8214C119.125 83.3303 121.179 81.2857 123.75 81.2857C126.321 81.2857 128.375 83.3303 128.375 85.8214C128.375 88.3126 126.321 90.3571 123.75 90.3571C121.179 90.3571 119.125 88.3126 119.125 85.8214Z" stroke="#024D81" stroke-width="2"/>
</g>
<defs>
<clipPath id="clip0_424_2">
<rect width="197.102" height="196.131" fill="white"/>
</clipPath>
</defs>
</svg>
