<svg width="90" height="90" viewBox="0 0 90 90" fill="none" xmlns="http://www.w3.org/2000/svg">
<path d="M31.7893 67.175C31.8167 67.2096 31.8438 67.2446 31.8706 67.2801L31.0728 67.8831M31.7893 67.175L34.8369 71.1046C34.9102 71.1755 34.9855 71.2409 35.0626 71.3011C34.8591 71.1862 34.7064 71.069 34.5877 70.947C34.2659 70.6165 34.062 70.1089 34.0063 68.9426L33.9795 68.3814L33.4861 68.1124C33.2365 67.9763 32.9068 67.8324 32.6501 67.7203C32.5346 67.6699 32.4338 67.6259 32.3618 67.592C32.0373 67.4392 31.916 67.3397 31.8686 67.2774L31.0728 67.8831M31.7893 67.175C32.0598 67.4017 32.3749 67.5724 32.7165 67.6748C33.2239 67.8269 33.7654 67.821 34.2691 67.6582C34.3779 67.6261 34.4849 67.5894 34.5903 67.5483C34.6294 67.5334 34.6586 67.5255 34.6789 67.5213C34.6799 67.5226 34.6809 67.5239 34.6817 67.5252C34.6748 67.5465 34.6594 67.5842 34.626 67.6402C34.2909 68.1988 34.0755 68.8065 34.0905 69.4293C34.1063 70.0805 34.3731 70.6572 34.8368 71.1046L31.7893 67.175ZM31.0728 67.8831C30.3804 66.9668 29.46 66.4058 28.5415 65.846C28.1841 65.6281 27.8269 65.4104 27.4836 65.172L32.3297 68.6723C31.8333 68.457 31.3502 68.2474 31.0728 67.8831ZM36.2255 59.0761C36.2053 59.1037 36.1737 59.1405 36.1245 59.1857L36.1241 59.186C35.4 59.8499 34.6962 60.4851 33.9893 61.123C33.3529 61.6974 32.714 62.2739 32.0557 62.8756C31.752 63.1365 31.4846 63.4369 31.2605 63.7688L31.2526 63.7805L31.245 63.7924C30.9543 64.2502 30.8156 64.7882 30.8487 65.3295C30.8768 65.7883 31.027 66.2296 31.2817 66.6086C30.8479 66.1788 30.3815 65.8345 29.9284 65.5351C29.6377 65.3429 29.3403 65.1617 29.0613 64.9917C29.0229 64.9683 28.9848 64.9451 28.9472 64.9221C28.6294 64.7281 28.3347 64.5455 28.0551 64.3515C26.6043 63.337 25.2993 62.1285 24.1767 60.7596L24.1767 60.7596L24.1712 60.753C23.8157 60.3271 23.3779 59.9774 22.8839 59.725L22.8839 59.725L22.8745 59.7203C20.1694 58.3738 17.457 57.0506 14.7479 55.7289C13.795 55.2641 12.8425 54.7994 11.8909 54.334C11.8194 54.2988 11.7692 54.2751 11.7297 54.2564C11.6699 54.2282 11.6346 54.2115 11.5872 54.1841L11.5739 54.1765L11.5605 54.1692C11.4886 54.1306 11.4434 54.0961 11.4157 54.0705C11.4454 54.0769 11.4874 54.0901 11.5428 54.1167C12.9512 54.7946 14.3535 55.4806 15.7602 56.1687C15.859 56.217 15.9578 56.2653 16.0566 56.3136C16.6506 56.6047 17.2439 56.8938 17.836 57.1824C19.5832 58.0339 21.3212 58.8809 23.0448 59.7596C23.4612 59.9753 23.831 60.2708 24.1333 60.6293C25.5968 62.4438 27.3843 63.971 29.4051 65.1334L30.535 65.7834L30.8701 64.5236C31.0359 63.9004 31.392 63.4186 31.9028 62.9284C32.1589 62.6826 32.4372 62.45 32.7474 62.1907L32.7647 62.1762C33.0721 61.9192 33.4114 61.635 33.7302 61.3232L33.7306 61.3228C34.4167 60.6513 35.1403 60.0122 35.8846 59.355C35.9582 59.29 36.0321 59.2247 36.1062 59.1592L36.1063 59.1591C36.1577 59.1137 36.1979 59.0892 36.2255 59.0761ZM37.1371 72.0085C36.8919 71.9502 36.6684 71.8926 36.4645 71.8354C37.1495 71.8778 37.8577 71.6502 38.4751 71.2103L38.4751 71.2103L38.4796 71.2071C38.5417 71.1624 38.5907 71.1332 38.6274 71.1147C38.6271 71.1155 38.6268 71.1164 38.6265 71.1172C38.6126 71.1563 38.5854 71.2145 38.5352 71.291C37.8104 72.3941 37.8038 73.7975 38.8088 74.736C39.7707 75.6341 41.2594 75.6453 42.3234 74.8888C42.4176 74.8221 42.5215 74.7346 42.5705 74.6934C42.5785 74.6866 42.5851 74.6811 42.5899 74.6771C42.6097 74.6613 42.6267 74.6492 42.6409 74.64C42.641 74.6401 42.6412 74.6403 42.6413 74.6404C42.6463 74.6449 42.6508 74.6492 42.6548 74.6531C42.6455 74.6755 42.6309 74.706 42.608 74.7448L42.6075 74.7458C42.2404 75.3704 42.017 76.0548 42.0815 76.7409C42.0987 76.9231 42.1355 77.0976 42.1904 77.2632C42.142 77.1665 42.089 77.0577 42.0326 76.942C41.893 76.6557 41.7326 76.3267 41.5703 76.0303L41.2938 75.5256L40.7186 75.511C39.8574 75.4891 39.2379 75.2476 38.8077 74.8605C38.3777 74.4735 38.0309 73.8453 37.8969 72.8482L37.8053 72.1674L37.1371 72.0085ZM57.5562 63.2089C57.6375 62.507 57.9675 61.8575 58.4861 61.3778C59.0924 60.8316 59.7989 60.5843 60.4854 60.6303L60.3671 60.6439C59.8315 60.7054 59.3249 60.8428 58.8831 61.1143C58.4326 61.3913 58.1064 61.7729 57.883 62.2299C57.6546 62.6683 57.5637 63.1657 57.6227 63.6568C57.6817 64.1486 57.8881 64.6108 58.2145 64.9829C58.8062 65.6943 59.4164 66.4158 60.0607 67.1068C60.5418 67.6227 61.1727 67.9256 61.8561 67.9434C62.534 67.961 63.1762 67.6965 63.6935 67.2403C63.9538 67.0108 64.1709 66.744 64.3302 66.4485C64.1388 66.8456 63.914 67.1322 63.6613 67.3437C63.2373 67.6985 62.6162 67.9408 61.6289 68.0033L60.8497 68.0526L60.7086 68.8205C60.536 69.7599 60.1781 70.3829 59.711 70.7891C59.2415 71.1975 58.5651 71.4706 57.6042 71.5306L56.8345 71.5787L56.6854 72.3353C56.5076 73.2371 56.1388 73.8742 55.6593 74.2935C55.1823 74.7106 54.5196 74.9791 53.6302 75.0113L52.8241 75.0404L52.682 75.8344C52.3346 77.7758 50.8124 78.7022 49.3496 78.4444L49.6202 78.4396C50.2043 78.4293 50.7392 78.313 51.2056 78.0446C51.6734 77.7754 51.997 77.3963 52.2284 76.9827C52.4914 76.5344 52.6037 76.0133 52.5486 75.4961C52.494 74.9839 52.278 74.5026 51.9323 74.1215C51.3441 73.4144 50.7364 72.692 50.0912 72.002L49.3608 72.685L50.0912 72.002C49.6077 71.485 48.9746 71.1847 48.2907 71.17C47.6133 71.1555 46.9732 71.4225 46.4584 71.8776C45.9461 72.3305 45.6003 72.9283 45.537 73.6083C45.4734 74.2916 45.7056 74.9476 46.1463 75.4902L46.1475 75.4917C46.4279 75.8355 46.7166 76.1854 47.0168 76.5327L46.9073 76.425C45.7412 75.2779 45.2013 74.3071 45.629 73.0747L45.6291 73.0742C45.8717 72.3739 46.2402 71.9152 46.6846 71.6159C47.1381 71.3104 47.7396 71.1252 48.5106 71.0951L49.2961 71.0644L49.4518 70.2939C49.6585 69.2712 50.0909 68.6268 50.5922 68.2297C51.1007 67.8271 51.7602 67.6161 52.5189 67.6066L53.3302 67.5963L53.4874 66.8004C53.6725 65.863 54.0247 65.2363 54.4882 64.8284C54.9497 64.4222 55.6221 64.1447 56.6153 64.0924L57.4589 64.0481L57.5562 63.2089ZM60.9787 60.77L60.8133 60.675C61.3339 60.7826 61.8312 61.0633 62.2506 61.5145C62.7418 62.0431 63.2042 62.582 63.7006 63.1605C63.9383 63.4375 64.1838 63.7235 64.444 64.0219L64.9951 64.654L65.7136 64.2214C66.1861 63.9368 66.6391 63.6207 67.0692 63.2754L67.0931 63.2562L67.1157 63.2356C67.2054 63.1542 67.304 63.0674 67.4086 62.9753C67.9276 62.5188 68.5935 61.9329 69.0332 61.229L69.0336 61.2283C69.6473 60.2441 70.5219 59.6506 71.7041 59.1079L71.705 59.1075C73.3114 58.3683 74.9051 57.5786 76.4831 56.7966C77.1812 56.4507 77.8761 56.1063 78.5678 55.7685C78.6 55.7527 78.6304 55.7382 78.6591 55.7248C78.615 55.7603 78.5844 55.7792 78.5626 55.7898L78.556 55.793L78.5495 55.7963C77.123 56.5125 75.7118 57.2012 74.2946 57.8929C73.1258 58.4633 71.9529 59.0357 70.764 59.6272C70.2987 59.8494 69.894 60.1806 69.5841 60.5927L69.5694 60.6123L69.5556 60.6325C68.5177 62.1633 67.1428 63.4359 65.5366 64.3526L65.5272 64.358L65.518 64.3635C65.1215 64.6012 64.8263 64.9765 64.6886 65.4177L64.6806 65.4434L64.6739 65.4695C64.6338 65.6277 64.5907 65.7753 64.5448 65.9131C64.5804 65.7819 64.6053 65.6469 64.6185 65.5085C64.6837 64.8282 64.4568 64.1723 64.0179 63.6302C63.4377 62.8971 62.8208 62.1937 62.1697 61.5228L62.1697 61.5228L62.1635 61.5165C61.9068 61.2565 61.6137 61.0874 61.4036 60.9788C61.3085 60.9295 61.2152 60.8853 61.1446 60.8518L61.1197 60.84C61.0354 60.7999 60.9985 60.7813 60.9787 60.77ZM49.0957 78.3017L49.3328 78.4414C48.9506 78.3716 48.5728 78.221 48.2214 77.9863L47.7245 77.6545L47.1968 77.935L46.1996 78.4649C46.4703 78.2838 46.721 78.0606 46.9493 77.807L47.5541 77.1351C47.6985 77.2915 47.8457 77.4462 47.9961 77.5984C48.2438 77.8517 48.5273 78.0161 48.7245 78.1189C48.8155 78.1664 48.9037 78.2084 48.9681 78.2391L48.989 78.2491C49.0244 78.266 49.0497 78.2782 49.0702 78.2885C49.0886 78.2977 49.0956 78.3018 49.0957 78.3017ZM45.1373 78.9169C45.3036 78.8836 45.4651 78.8349 45.6215 78.7722L45.1932 78.9998H44.195C44.1042 78.9538 44.0103 78.9081 43.9185 78.8642C44.3081 78.9787 44.7202 79.0004 45.1373 78.9169ZM42.7086 78.1254C42.8095 78.2323 42.9211 78.3314 43.0423 78.422C42.9293 78.3501 42.8484 78.2843 42.789 78.2193C42.7618 78.1894 42.7351 78.1581 42.7086 78.1254ZM36.2593 59.0173C36.2593 59.0173 36.2592 59.0177 36.259 59.0184L36.2593 59.0173ZM57.0206 64.2897L56.748 64.1231L56.4294 64.1454C55.8649 64.1849 55.3469 64.3167 54.896 64.5863C54.4417 64.8579 54.1196 65.2311 53.8891 65.6531C53.6378 66.089 53.5293 66.5928 53.5789 67.0937C53.6284 67.5932 53.8327 68.0645 54.1628 68.442C54.741 69.1465 55.338 69.8428 55.957 70.5209L55.9583 70.5223C56.4475 71.0563 57.0801 71.4089 57.7974 71.444C58.5145 71.4791 59.1737 71.1898 59.7028 70.7137C60.2207 70.2484 60.5621 69.6356 60.6039 68.9366C60.6454 68.2409 60.3829 67.5864 59.9333 67.0437C59.9332 67.0435 59.9331 67.0433 59.9329 67.0432L59.8639 66.9594C59.3464 66.3312 58.79 65.6558 58.165 65.0363L58.1617 65.0331C57.9145 64.7903 57.6394 64.6228 57.4361 64.5103C57.3335 64.4536 57.2331 64.4025 57.1623 64.3659C57.081 64.3239 57.0425 64.3031 57.0206 64.2897ZM49.5618 70.5862C49.6083 71.0853 49.8079 71.5577 50.1331 71.9387C50.715 72.6554 51.3194 73.3519 51.9384 74.0299C52.4208 74.5605 53.0497 74.893 53.7457 74.9328C54.4405 74.9725 55.098 74.7146 55.6292 74.2579C56.1649 73.7974 56.5134 73.1817 56.5696 72.4859C56.6255 71.7922 56.3825 71.1265 55.9362 70.5756L55.9327 70.5713C55.3724 69.8872 54.7761 69.1715 54.1163 68.5098L54.1164 68.5097L54.1085 68.502C53.8616 68.2598 53.5838 68.097 53.3825 67.992C53.2787 67.9379 53.1819 67.8926 53.1108 67.8594L53.0942 67.8516C53.0646 67.8379 53.0421 67.8273 53.0214 67.8175L52.9947 67.8044L52.9872 67.8006L52.9853 67.7996L52.9847 67.7993L52.9846 67.7993L52.5165 68.6672L52.5118 67.6794H52.51L52.5024 67.7093L52.5021 67.6795C51.9094 67.6852 51.3648 67.8006 50.8926 68.0731C50.42 68.3458 50.0953 68.7323 49.8701 69.1571C49.6232 69.5903 49.5154 70.0893 49.5618 70.5862Z" stroke="#024D81" stroke-width="2"/>
<mask id="path-2-inside-1_224_178" fill="white">
<path d="M50.0408 47.1425C51.5136 48.5498 52.9973 49.9462 54.4537 51.3717C54.8918 51.772 55.2229 52.2754 55.4169 52.8362C55.611 53.3969 55.6617 53.9973 55.5646 54.5828C55.1446 57.3738 52.11 58.7356 49.7608 57.1574C48.0862 56.0337 46.4625 54.8337 44.8151 53.67C44.6151 53.5263 44.4079 53.3918 44.1733 53.2336L40.6859 56.4065C40.5077 56.5808 40.3202 56.7453 40.1241 56.8992C39.6331 57.2628 39.0931 57.2119 38.7204 56.7937C38.633 56.6963 38.5656 56.5827 38.5221 56.4592C38.4787 56.3358 38.4599 56.2049 38.467 56.0743C38.4741 55.9436 38.5069 55.8156 38.5635 55.6975C38.62 55.5795 38.6993 55.4738 38.7968 55.3864C39.635 54.5882 40.5005 53.8209 41.355 53.0427C41.8078 52.63 42.2551 52.2118 42.7169 51.8099C43.626 51.0135 44.4951 50.959 45.4988 51.6608C47.2261 52.8681 48.9226 54.1227 50.6735 55.2973C51.1223 55.5847 51.6463 55.7321 52.179 55.721C52.8245 55.6992 53.2809 55.23 53.4827 54.59C53.5859 54.2865 53.599 53.9596 53.5202 53.6488C53.4415 53.3381 53.2744 53.0568 53.0391 52.839C51.7554 51.5263 50.4681 50.2135 49.1662 48.9189C48.2189 47.9771 47.3134 46.9716 46.2679 46.1497C43.2096 43.7442 39.7222 43.1078 35.9367 43.8442C34.1366 44.1951 32.322 44.4769 30.5055 44.7315C30.0411 44.7958 29.568 44.733 29.1364 44.5497C23.1617 41.7738 17.1942 38.981 11.234 36.1712C10.7248 35.933 10.3248 35.6257 10.3921 34.9984C10.4685 34.242 11.203 33.9075 12.0049 34.2802C14.2032 35.2984 16.3941 36.3348 18.5869 37.3621C22.2562 39.084 25.9236 40.8168 29.6019 42.5132C29.9265 42.6525 30.283 42.7002 30.6328 42.6514C32.8747 42.3223 35.1003 41.875 37.3494 41.6205C41.3078 41.175 44.8297 42.3187 47.8953 44.8479C48.035 44.9882 48.212 45.0855 48.4054 45.1284C48.5987 45.1713 48.8003 45.1578 48.9862 45.0897C52.179 44.1606 55.3719 44.2478 58.4502 45.4897C59.9139 46.0824 61.0375 45.9243 62.3885 45.1042C67.4796 42.0132 72.6598 39.0658 77.8072 36.0657C77.9984 35.9444 78.1977 35.8363 78.4036 35.7421C78.9109 35.5312 79.3564 35.6548 79.6491 36.1057C79.9619 36.5912 79.8764 37.0658 79.4346 37.4403C79.2182 37.6045 78.9883 37.7499 78.7473 37.8749C73.2089 41.1059 67.656 44.3242 62.1394 47.577C61.1594 48.1534 60.223 48.2662 59.1666 47.8625C57.1283 47.0825 55.0537 46.4188 52.8282 46.5388C51.9572 46.5861 51.0881 46.7207 50.219 46.8061L50.0408 47.1425Z"/>
</mask>
<path d="M50.0408 47.1425L48.2734 46.2063L47.5652 47.5432L48.6591 48.5885L50.0408 47.1425ZM54.4537 51.3717L53.0547 52.801L53.0793 52.8251L53.1047 52.8483L54.4537 51.3717ZM55.5646 54.5828L53.5916 54.2555L53.5891 54.2703L53.5869 54.2851L55.5646 54.5828ZM49.7608 57.1574L50.8761 55.4972L50.8752 55.4966L49.7608 57.1574ZM44.8151 53.67L43.6485 55.2945L43.6548 55.299L43.6612 55.3035L44.8151 53.67ZM44.1733 53.2336L45.2916 51.5755L43.9893 50.6972L42.8274 51.7543L44.1733 53.2336ZM40.6859 56.4065L39.34 54.9271L39.3131 54.9516L39.2871 54.977L40.6859 56.4065ZM40.1241 56.8992L41.3145 58.5063L41.3369 58.4897L41.3588 58.4725L40.1241 56.8992ZM38.7204 56.7937L40.2134 55.463L40.2089 55.4579L38.7204 56.7937ZM38.7968 55.3864L40.132 56.8754L40.1543 56.8554L40.176 56.8348L38.7968 55.3864ZM41.355 53.0427L42.7016 54.5214L42.7024 54.5207L41.355 53.0427ZM42.7169 51.8099L44.0297 53.3188L44.0348 53.3143L42.7169 51.8099ZM45.4988 51.6608L44.3527 53.2999L44.353 53.3001L45.4988 51.6608ZM50.6735 55.2973L49.5594 56.9582L49.5771 56.9701L49.595 56.9816L50.6735 55.2973ZM52.179 55.721L52.2209 57.7205L52.2338 57.7203L52.2466 57.7198L52.179 55.721ZM53.4827 54.59L51.5892 53.9461L51.582 53.9672L51.5753 53.9885L53.4827 54.59ZM53.0391 52.839L51.6091 54.2373L51.644 54.273L51.6807 54.3069L53.0391 52.839ZM49.1662 48.9189L50.5765 47.5007L50.5763 47.5006L49.1662 48.9189ZM46.2679 46.1497L45.0315 47.7217L45.0319 47.7221L46.2679 46.1497ZM35.9367 43.8442L35.5548 41.881L35.554 41.8811L35.9367 43.8442ZM30.5055 44.7315L30.7798 46.7126L30.7831 46.7121L30.5055 44.7315ZM29.1364 44.5497L28.2937 46.3635L28.3239 46.3775L28.3546 46.3905L29.1364 44.5497ZM11.234 36.1712L12.0868 34.3621L12.0815 34.3596L11.234 36.1712ZM10.3921 34.9984L12.3807 35.2117L12.382 35.1993L10.3921 34.9984ZM12.0049 34.2802L11.1618 36.0938L11.1643 36.095L12.0049 34.2802ZM18.5869 37.3621L19.4366 35.5516L19.4354 35.551L18.5869 37.3621ZM29.6019 42.5132L28.7643 44.3294L28.7888 44.3407L28.8135 44.3513L29.6019 42.5132ZM30.6328 42.6514L30.9093 44.6322L30.9163 44.6312L30.9233 44.6302L30.6328 42.6514ZM37.3494 41.6205L37.1258 39.633L37.1245 39.6332L37.3494 41.6205ZM47.8953 44.8479L49.3124 43.4366L49.2435 43.3673L49.1681 43.3051L47.8953 44.8479ZM48.9862 45.0897L48.4274 43.1693L48.362 43.1884L48.2981 43.2118L48.9862 45.0897ZM58.4502 45.4897L59.2009 43.6359L59.1984 43.6349L58.4502 45.4897ZM62.3885 45.1042L63.4263 46.8139L63.4265 46.8138L62.3885 45.1042ZM77.8072 36.0657L78.8143 37.7937L78.847 37.7746L78.8789 37.7544L77.8072 36.0657ZM78.4036 35.7421L77.6358 33.8953L77.6036 33.9087L77.5719 33.9232L78.4036 35.7421ZM79.6491 36.1057L81.3305 35.0226L81.3266 35.0167L79.6491 36.1057ZM79.4346 37.4403L80.6436 39.0335L80.6866 39.0009L80.7279 38.9659L79.4346 37.4403ZM78.7473 37.8749L77.8264 36.0995L77.7823 36.1224L77.7394 36.1474L78.7473 37.8749ZM62.1394 47.577L63.1533 49.301L63.1553 49.2998L62.1394 47.577ZM59.1666 47.8625L58.4517 49.7304L58.4527 49.7308L59.1666 47.8625ZM52.8282 46.5388L52.7205 44.5417L52.7198 44.5418L52.8282 46.5388ZM50.219 46.8061L50.0233 44.8157L48.9544 44.9208L48.4516 45.8699L50.219 46.8061ZM48.6591 48.5885C50.1465 50.0098 51.6096 51.3866 53.0547 52.801L55.8526 49.9424C54.3849 48.5058 52.8806 47.0898 51.4225 45.6965L48.6591 48.5885ZM53.1047 52.8483C53.2967 53.0237 53.4418 53.2443 53.5269 53.4901L57.307 52.1822C57.004 51.3064 56.4869 50.5202 55.8026 49.8951L53.1047 52.8483ZM53.5269 53.4901C53.6119 53.7358 53.6341 53.9989 53.5916 54.2555L57.5377 54.91C57.6893 53.9957 57.61 53.0581 57.307 52.1822L53.5269 53.4901ZM53.5869 54.2851C53.3823 55.6445 51.9898 56.2455 50.8761 55.4972L48.6455 58.8175C52.2301 61.2258 56.9069 59.103 57.5424 54.8804L53.5869 54.2851ZM50.8752 55.4966C49.2251 54.3894 47.6653 53.2346 45.9691 52.0365L43.6612 55.3035C45.2597 56.4327 46.9473 57.678 48.6464 58.8181L50.8752 55.4966ZM45.9818 52.0455C45.75 51.8791 45.4872 51.7074 45.2916 51.5755L43.055 54.8918C43.3285 55.0762 43.4803 55.1736 43.6485 55.2945L45.9818 52.0455ZM42.8274 51.7543L39.34 54.9271L42.0318 57.8858L45.5192 54.713L42.8274 51.7543ZM39.2871 54.977C39.161 55.1004 39.0282 55.2169 38.8893 55.3259L41.3588 58.4725C41.6122 58.2737 41.8545 58.0612 42.0847 57.8359L39.2871 54.977ZM38.9336 55.2921C39.0087 55.2365 39.2207 55.1205 39.5383 55.1461C39.865 55.1724 40.0972 55.3326 40.2134 55.463L37.2274 58.1245C37.7163 58.6731 38.4049 59.0678 39.2175 59.1332C40.0211 59.1979 40.7486 58.9255 41.3145 58.5063L38.9336 55.2921ZM40.2089 55.4579C40.2969 55.556 40.3648 55.6705 40.4086 55.7949L36.6357 57.1235C36.7664 57.4948 36.969 57.8366 37.2319 58.1295L40.2089 55.4579ZM40.4086 55.7949C40.4524 55.9192 40.4712 56.051 40.4641 56.1826L36.47 55.9659C36.4486 56.3589 36.5049 56.7523 36.6357 57.1235L40.4086 55.7949ZM40.4641 56.1826C40.4569 56.3142 40.4239 56.4432 40.367 56.5621L36.76 54.833C36.5898 55.1879 36.4913 55.5729 36.47 55.9659L40.4641 56.1826ZM40.367 56.5621C40.31 56.681 40.2301 56.7874 40.132 56.8754L37.4615 53.8974C37.1685 54.1601 36.9301 54.4781 36.76 54.833L40.367 56.5621ZM40.176 56.8348C40.9928 56.057 41.8207 55.3237 42.7016 54.5214L40.0084 51.564C39.1802 52.3182 38.2772 53.1194 37.4175 53.9381L40.176 56.8348ZM42.7024 54.5207C43.18 54.0853 43.5911 53.7003 44.0297 53.3188L41.4041 50.3011C40.919 50.7232 40.4355 51.1746 40.0076 51.5647L42.7024 54.5207ZM44.0348 53.3143C44.1544 53.2095 44.2254 53.1711 44.2472 53.1608C44.2626 53.1536 44.2372 53.1675 44.1838 53.1704C44.1303 53.1734 44.1037 53.1624 44.1203 53.1681C44.1437 53.1761 44.2199 53.207 44.3527 53.2999L46.6449 50.0218C45.9073 49.506 45.0022 49.1186 43.961 49.1766C42.9206 49.2347 42.0679 49.7196 41.399 50.3055L44.0348 53.3143ZM44.353 53.3001C46.0134 54.4606 47.7958 55.7752 49.5594 56.9582L51.7877 53.6364C50.0494 52.4703 48.4389 51.2757 46.6446 50.0216L44.353 53.3001ZM49.595 56.9816C50.3777 57.4828 51.2917 57.74 52.2209 57.7205L52.1371 53.7214C52.0009 53.7243 51.8668 53.6865 51.7521 53.6131L49.595 56.9816ZM52.2466 57.7198C54.0094 57.6602 55.0253 56.3485 55.3901 55.1915L51.5753 53.9885C51.5589 54.0407 51.5611 53.99 51.6519 53.9074C51.6999 53.8638 51.7683 53.8161 51.8565 53.7793C51.946 53.7419 52.0348 53.7247 52.1115 53.7221L52.2466 57.7198ZM55.3762 55.234C55.6039 54.5644 55.6327 53.8432 55.459 53.1576L51.5815 54.1401C51.5653 54.076 51.568 54.0086 51.5892 53.9461L55.3762 55.234ZM55.459 53.1576C55.2853 52.4721 54.9166 51.8515 54.3975 51.3712L51.6807 54.3069C51.6322 54.2621 51.5977 54.2041 51.5815 54.1401L55.459 53.1576ZM54.469 51.4408C53.1851 50.1277 51.8892 48.8061 50.5765 47.5007L47.756 50.3371C49.047 51.6209 50.3257 52.9248 51.6091 54.2373L54.469 51.4408ZM50.5763 47.5006C49.7355 46.6647 48.6715 45.4952 47.5039 44.5774L45.0319 47.7221C45.9554 48.448 46.7023 49.2894 47.7561 50.3372L50.5763 47.5006ZM47.5044 44.5777C43.9278 41.7645 39.8297 41.0494 35.5548 41.881L36.3185 45.8074C39.6148 45.1662 42.4914 45.7238 45.0315 47.7217L47.5044 44.5777ZM35.554 41.8811C33.8025 42.2226 32.0266 42.4988 30.228 42.7508L30.7831 46.7121C32.6174 46.4551 34.4706 46.1676 36.3193 45.8072L35.554 41.8811ZM30.2313 42.7504C30.1251 42.7651 30.0169 42.7507 29.9182 42.7088L28.3546 46.3905C29.119 46.7152 29.9572 46.8265 30.7798 46.7126L30.2313 42.7504ZM29.9791 42.7359C24.0077 39.9616 18.0436 37.1703 12.0868 34.3621L10.3811 37.9802C16.3447 40.7916 22.3156 43.586 28.2937 46.3635L29.9791 42.7359ZM12.0815 34.3596C12.0074 34.325 11.9839 34.3091 11.9884 34.3121C11.9939 34.3158 12.0546 34.3565 12.129 34.4452C12.2097 34.5413 12.2909 34.6757 12.3403 34.8414C12.3891 35.0049 12.3886 35.1379 12.3807 35.2117L8.40351 34.7851C8.3137 35.6225 8.54894 36.4015 9.06477 37.0163C9.50647 37.5427 10.0577 37.8289 10.3864 37.9827L12.0815 34.3596ZM12.382 35.1993C12.3699 35.3188 12.3235 35.4877 12.2032 35.6599C12.0822 35.8332 11.9187 35.9628 11.7449 36.0408C11.3978 36.1964 11.1652 36.0954 11.1618 36.0938L12.848 32.4666C12.0427 32.0923 11.0419 31.9722 10.108 32.391C9.11953 32.8343 8.50751 33.7547 8.40222 34.7975L12.382 35.1993ZM11.1643 36.095C13.3576 37.1109 15.5364 38.1416 17.7385 39.1732L19.4354 35.551C17.2519 34.5281 15.0487 33.4859 12.8455 32.4654L11.1643 36.095ZM17.7373 39.1727C21.4001 40.8916 25.078 42.6293 28.7643 44.3294L30.4395 40.6971C26.7692 39.0043 23.1122 37.2765 19.4366 35.5516L17.7373 39.1727ZM28.8135 44.3513C29.4734 44.6343 30.1982 44.7315 30.9093 44.6322L30.3564 40.6706C30.3679 40.669 30.3796 40.6706 30.3902 40.6752L28.8135 44.3513ZM30.9233 44.6302C33.3302 44.2769 35.3428 43.8603 37.5743 43.6078L37.1245 39.6332C34.8577 39.8897 32.4192 40.3678 30.3423 40.6726L30.9233 44.6302ZM37.5731 43.6079C40.9578 43.227 43.9468 44.1831 46.6225 46.3906L49.1681 43.3051C45.7126 40.4543 41.6577 39.123 37.1258 39.633L37.5731 43.6079ZM46.4781 46.2591C46.8875 46.6702 47.4061 46.9554 47.9725 47.081L48.8382 43.1758C49.0179 43.2156 49.1825 43.3061 49.3124 43.4366L46.4781 46.2591ZM47.9725 47.081C48.539 47.2066 49.1295 47.1672 49.6743 46.9676L48.2981 43.2118C48.471 43.1484 48.6584 43.1359 48.8382 43.1758L47.9725 47.081ZM49.545 47.01C52.3393 46.1969 55.0696 46.2825 57.7019 47.3445L59.1984 43.6349C55.6741 42.2132 52.0188 42.1242 48.4274 43.1693L49.545 47.01ZM57.6995 47.3435C58.6636 47.7339 59.6444 47.926 60.6752 47.8153C61.6915 47.7062 62.5929 47.3198 63.4263 46.8139L61.3507 43.3945C60.8332 43.7087 60.4972 43.8114 60.248 43.8382C60.0133 43.8634 59.7004 43.8382 59.2009 43.6359L57.6995 47.3435ZM63.4265 46.8138C68.4971 43.7352 73.6428 40.8078 78.8143 37.7937L76.8001 34.3378C71.6767 37.3239 66.462 40.2913 61.3505 43.3947L63.4265 46.8138ZM78.8789 37.7544C78.9932 37.6818 79.1123 37.6172 79.2354 37.5609L77.5719 33.9232C77.2831 34.0553 77.0037 34.2069 76.7355 34.3771L78.8789 37.7544ZM79.1714 37.5888C79.1065 37.6158 78.8723 37.6895 78.553 37.5975C78.2221 37.5022 78.0384 37.2976 77.9716 37.1948L81.3266 35.0167C80.9671 34.4629 80.4143 33.9711 79.6606 33.7539C78.9186 33.5401 78.208 33.6574 77.6358 33.8953L79.1714 37.5888ZM77.9678 37.1888C77.914 37.1054 77.7918 36.8489 77.8517 36.4874C77.9098 36.1373 78.095 35.9539 78.1413 35.9147L80.7279 38.9659C81.2159 38.5522 81.6648 37.9442 81.7979 37.1418C81.9328 36.3281 81.697 35.5916 81.3305 35.0226L77.9678 37.1888ZM78.2256 35.8471C78.0999 35.9424 77.9664 36.0269 77.8264 36.0995L79.6681 39.6503C80.0102 39.4728 80.3366 39.2665 80.6436 39.0335L78.2256 35.8471ZM77.7394 36.1474C72.2077 39.3745 66.6454 42.5983 61.1236 45.8542L63.1553 49.2998C68.6665 46.0501 74.2101 42.8373 79.7551 39.6024L77.7394 36.1474ZM61.1255 45.8531C60.6223 46.1491 60.3196 46.1621 59.8804 45.9943L58.4527 49.7308C60.1263 50.3703 61.6965 50.1578 63.1533 49.301L61.1255 45.8531ZM59.8814 45.9946C57.8095 45.2017 55.3963 44.3974 52.7205 44.5417L52.9358 48.5359C54.7111 48.4402 56.4471 48.9633 58.4517 49.7304L59.8814 45.9946ZM52.7198 44.5418C51.8081 44.5913 50.7265 44.7466 50.0233 44.8157L50.4147 48.7965C51.4497 48.6947 52.1063 48.581 52.9366 48.5359L52.7198 44.5418ZM48.4516 45.8699L48.2734 46.2063L51.8081 48.0787L51.9863 47.7423L48.4516 45.8699Z" fill="#024D81" mask="url(#path-2-inside-1_224_178)"/>
<path d="M33.6366 13.5875L33.6358 13.5877C32.9636 13.7205 32.6315 13.9369 32.4508 14.1578C32.2694 14.3794 32.1201 14.7524 32.1201 15.4486V15.4579V15.4672V15.4765V15.4858V15.4951V15.5044V15.5137V15.523V15.5323V15.5416V15.5509V15.5602V15.5695V15.5788V15.5881V15.5974V15.6067V15.616V15.6253V15.6346V15.6439V15.6532V15.6625V15.6718V15.6811V15.6904V15.6997V15.709V15.7183V15.7276V15.7369V15.7462V15.7555V15.7648V15.7741V15.7834V15.7927V15.802V15.8113V15.8206V15.8299V15.8392V15.8485V15.8578V15.8671V15.8764V15.8857V15.895V15.9043V15.9136V15.9229V15.9322V15.9415V15.9508V15.9601V15.9694V15.9787V15.988V15.9973V16.0066V16.0159V16.0252V16.0345V16.0438V16.0531V16.0624V16.0717V16.081V16.0903V16.0996V16.1089V16.1182V16.1275V16.1368V16.1461V16.1554V16.1647V16.174V16.1833V16.1926V16.2019V16.2112V16.2205V16.2298V16.2391V16.2484V16.2577V16.267V16.2763V16.2856V16.2949V16.3042V16.3135V16.3228V16.3321V16.3414V16.3507V16.3601V16.3694V16.3787V16.388V16.3973V16.4066V16.4159V16.4252V16.4345V16.4438V16.4531V16.4624V16.4717V16.481V16.4903V16.4996V16.5089V16.5182V16.5275V16.5368V16.5461V16.5554V16.5647V16.574V16.5833V16.5926V16.6019V16.6112V16.6205V16.6298V16.6391V16.6484V16.6577V16.667V16.6763V16.6856V16.6949V16.7042V16.7135V16.7228V16.7321V16.7414V16.7507V16.76V16.7693V16.7786V16.7879V16.7972V16.8065V16.8158V16.8251V16.8344V16.8437V16.853V16.8623V16.8716V16.8809V16.8902V16.8995V16.9088V16.9181V16.9274V16.9367V16.946V16.9553V16.9646V16.9739V16.9832V16.9925V17.0018V17.0111V17.0204V17.0297V17.039V17.0483V17.0576V17.0669V17.0762V17.0855V17.0948V17.1041V17.1134V17.1227V17.132V17.1413V17.1506V17.1599V17.1692V17.1785V17.1878V17.1971V17.2064V17.2157V17.225V17.2343V17.2436V17.2529V17.2622V17.2715V17.2808V17.2901V17.2994V17.3087V17.318V17.3273V17.3366V17.3459V17.3552V17.3645V17.3738V17.3831V17.3924V17.4017V17.411V17.4203V17.4296V17.4389V17.4482V17.4575V17.4668V17.4761V17.4854V17.4947V17.504V17.5133V17.5226V17.5319V17.5412V17.5505V17.5598V17.5691V17.5784V17.5877V17.5971V17.6064V17.6157V17.625V17.6343V17.6436V17.6529V17.6622V17.6715V17.6808V17.6901V17.6994V17.7087V17.718V17.7273V17.7366V17.7459V17.7552V17.7645V17.7738V17.7831V17.7924V17.8017V17.811V17.8203V17.8296V17.8389V17.8482V17.8575V17.8668V17.8761V17.8854V17.8947V17.904V17.9133V17.9226V17.9319V17.9412V17.9505V17.9598V17.9691V17.9784V17.9877V17.997V18.0063V18.0156V18.0249V18.0342V18.0435V18.0528V18.0621V18.0714V18.0807V18.09V18.0993V18.1086V18.1179V18.1272V18.1365V18.1458V18.1551V18.1644V18.1737V18.183V18.1923V18.2016V18.2109V18.2202V18.2295V18.2388V18.2481V18.2574V18.2667V18.276V18.2853V18.2946V18.3039V18.3132V18.3225V18.3318V18.3411V18.3504V18.3597V18.369V18.3783V18.3876V18.3969V18.4062V18.4155V18.4248V18.4341V18.4434V18.4527V18.462V18.4713V18.4806V18.4899V18.4992V18.5085V18.5178V18.5271V18.5364V18.5457V18.555V18.5643V18.5736V18.5829V18.5922V18.6015V18.6108V18.6201V18.6294V18.6387V18.648V18.6573V18.6666V18.6759V18.6852V18.6945V18.7038V18.7131V18.7224V18.7317V18.741V18.7503V18.7596V18.7689V18.7782V18.7875V18.7968V18.8061V18.8154V18.8247V18.8341V18.8434V18.8527V18.862V18.8713V18.8806V18.8899V18.8992V18.9085V18.9178V18.9271V18.9364V18.9457V18.955V18.9643V18.9736V18.9829V18.9922V19.0015V19.0108V19.0201V19.0294V19.0387V19.048V19.0573V19.0666V19.0759V19.0852V19.0945V19.1038V19.1131V19.1224V19.1317V19.141V19.1503V19.1596V19.1689V19.1782V19.1875V19.1968V19.2061V19.2154V19.2247V19.234V19.2433V19.2526V19.2619V19.2712V19.2805V19.2898V19.2991V19.3084V19.3177V19.327V19.3363V19.3456V19.3549V19.3642V19.3735V19.3828V19.3921V19.4014V19.4107V19.42V19.4293V19.4386V19.4479V19.4572V19.4665V19.4758V19.4851V19.4944V19.5037V19.513V19.5223V19.5316V19.5409V19.5502V19.5595V19.5688V19.5781V19.5874V19.5967V19.606V19.6153V19.6246V19.6303L32.1328 19.6375V20.2178C32.1328 20.7001 32.1271 21.1696 32.1214 21.6319C32.1094 22.6153 32.0978 23.5657 32.1427 24.5354L32.1427 24.5358C32.3682 29.4513 34.5206 33.3001 38.5011 36.2073L38.5012 36.2073C40.1821 37.4354 42.1306 38.092 44.246 38.8048C44.4451 38.8718 44.6457 38.9394 44.8477 39.008L44.8492 39.0085C44.9763 39.0519 45.3088 39.0401 45.7459 38.9016L45.7545 38.8989L45.7545 38.8989C46.8861 38.5516 47.9971 38.1404 49.0822 37.6674C53.7134 35.597 56.5871 32.1062 57.7876 27.1674L57.7877 27.1668C57.815 27.0546 57.8191 26.9798 57.8171 26.9348C57.7989 26.9683 57.7746 27.0244 57.752 27.1135C56.4156 32.6493 52.9418 36.2345 47.7005 38.1997C45.9388 38.8653 44.4046 38.8623 42.6326 38.2432C35.7385 35.8673 32.2027 29.8529 32.1711 24.2569L33.6366 13.5875ZM33.6366 13.5875C34.4965 13.417 35.3539 13.2445 36.2096 13.0723C39.1277 12.4852 42.027 11.9019 44.9464 11.4109L44.9482 11.4106M33.6366 13.5875L44.9482 11.4106M44.9482 11.4106C45.233 11.3622 45.5783 11.3845 46.0216 11.4645C46.2399 11.5039 46.4638 11.5537 46.7072 11.6086C46.7259 11.6128 46.7447 11.6171 46.7637 11.6214C46.9847 11.6713 47.2232 11.7252 47.4598 11.7706L47.4616 11.7709M44.9482 11.4106L47.4616 11.7709M47.4616 11.7709C49.6706 12.1898 51.873 12.6264 54.0811 13.0641M47.4616 11.7709L54.0811 13.0641M58.1311 22.421C58.131 22.4128 58.1309 22.4042 58.1307 22.3952C58.1303 22.3735 58.1298 22.3549 58.1293 22.3342C58.129 22.3204 58.1286 22.3057 58.1282 22.2885C58.1274 22.2506 58.1265 22.2066 58.1265 22.1615V22.1488V22.1361V22.1234V22.1106V22.0979V22.0852V22.0724V22.0597V22.047V22.0343V22.0215V22.0088V21.9961V21.9833V21.9706V21.9579V21.9452V21.9324V21.9197V21.907V21.8942V21.8815V21.8688V21.856V21.8433V21.8306V21.8179V21.8051V21.7924V21.7797V21.7669V21.7542V21.7415V21.7287V21.716V21.7033V21.6905V21.6778V21.6651V21.6523V21.6396V21.6269V21.6141V21.6014V21.5887V21.5759V21.5632V21.5505V21.5377V21.525V21.5123V21.4995V21.4868V21.4741V21.4613V21.4486V21.4359V21.4231V21.4104V21.3977V21.3849V21.3722V21.3595V21.3467V21.334V21.3213V21.3085V21.2958V21.2831V21.2703V21.2576V21.2449V21.2321V21.2194V21.2066V21.1939V21.1812V21.1684V21.1557V21.143V21.1302V21.1175V21.1048V21.092V21.0793V21.0665V21.0538V21.0411V21.0283V21.0156V21.0029V20.9901V20.9774V20.9646V20.9519V20.9392V20.9264V20.9137V20.901V20.8882V20.8755V20.8627V20.85V20.8373V20.8245V20.8118V20.799V20.7863V20.7736V20.7608V20.7481V20.7353V20.7226V20.7099V20.6971V20.6844V20.6716V20.6589V20.6462V20.6334V20.6207V20.6079V20.5952V20.5824V20.5697V20.557V20.5442V20.5315V20.5187V20.506V20.4933V20.4805V20.4678V20.455V20.4423V20.4295V20.4168V20.4041V20.3913V20.3786V20.3658V20.3531V20.3403V20.3276V20.3149V20.3021V20.2894V20.2766V20.2639V20.2511V20.2384V20.2256V20.2129V20.2002V20.1874V20.1747V20.1619V20.1492V20.1364V20.1237V20.1109V20.0982V20.0854V20.0727V20.06V20.0472V20.0345V20.0217V20.009V19.9962V19.9835V19.9707V19.958V19.9452V19.9325V19.9197V19.907V19.8942V19.8815V19.8688V19.856V19.8433V19.8305V19.8178V19.805V19.7923V19.7795V19.7668V19.754V19.7413V19.7285V19.7158V19.703V19.6903V19.6775V19.6648V19.652V19.6393V19.6265V19.6138V19.601V19.5883V19.5755V19.5628V19.55V19.5373V19.5245V19.5118V19.499V19.4863V19.4735V19.4608V19.448V19.4353V19.4225V19.4098V19.397V19.3843V19.3715V19.3588V19.346V19.3333V19.3205V19.3077V19.295V19.2822V19.2695V19.2567V19.244V19.2312V19.2185V19.2057V19.193V19.1802V19.1675V19.1547V19.142V19.1292V19.1164V19.1037V19.0909V19.0782V19.0654V19.0527V19.0399V19.0272V19.0144V19.0017V18.9889V18.9761V18.9634V18.9506V18.9379V18.9251V18.9124V18.8996V18.8869V18.8741V18.8613V18.8486V18.8358V18.8231V18.8103V18.7976V18.7848V18.772V18.7593V18.7465V18.7338V18.721V18.7083V18.6955V18.6827V18.67V18.6572V18.6445V18.6317V18.6189V18.6062V18.5934V18.5807V18.5679V18.5552V18.5424V18.5296V18.5169V18.5041V18.4914V18.4786V18.4658V18.4531V18.4403V18.4276V18.4148V18.402V18.3893V18.3765V18.3638V18.351V18.3382V18.3255V18.3127V18.2999V18.2872V18.2744V18.2617V18.2489V18.2361V18.2234V18.2106V18.1979V18.1851V18.1723V18.1596V18.1468V18.134V18.1213V18.1085V18.0958V18.083V18.0702V18.0575V18.0447V18.0319V18.0192V18.0064V17.9936V17.9809V17.9681V17.9553V17.9426V17.9298V17.9171V17.9043V17.8915V17.8788V17.866V17.8532V17.8405V17.8277V17.8149V17.8022V17.7894V17.7766V17.7639V17.7511V17.7383V17.7256V17.7128V17.7V17.6873V17.6745V17.6617V17.649V17.6362V17.6234V17.6107V17.5979V17.5851V17.5724V17.5596V17.5468V17.5341V17.5213V17.5085V17.4958V17.483V17.4702V17.4575V17.4447V17.4319V17.4191V17.4064V17.3936V17.3808V17.3681V17.3553V17.3425V17.3298V17.317V17.3042V17.2915V17.2787V17.2659V17.2531V17.2404V17.2276V17.2148V17.2021V17.1893V17.1765V17.1637V17.151V17.1382V17.1254V17.1127V17.0999V17.0871V17.0743V17.0616V17.0488V17.036V17.0233V17.0105V16.9977V16.9849V16.9722V16.9594V16.9466V16.9338V16.9211V16.9083V16.8955V16.8828V16.87V16.8572V16.8444V16.8317V16.8189V16.8061V16.7933V16.7806V16.7678V16.755V16.7422V16.7295V16.7167V16.7039V16.6911V16.6784V16.6656V16.6528V16.64V16.6273V16.6145V16.6017V16.5889V16.5762V16.5634V16.5506V16.5378V16.525V16.5123V16.4995V16.4867V16.4739V16.4612V16.4484V16.4356V16.4228V16.4101V16.3973V16.3845V16.3717V16.3589V16.3462V16.3334V16.3206V16.3078V16.295V16.2823V16.2695V16.2567V16.2439V16.2312V16.2184V16.2056V16.1928V16.18V16.1673V16.1545V16.1417V16.1289V16.1161V16.1034V16.0906V16.0778V16.065V16.0522V16.0394V16.0267V16.0139V16.0011V15.9883V15.9755V15.9628V15.95V15.9372V15.9244V15.9116V15.8989V15.8861V15.8733V15.8605V15.8477V15.8349V15.8222V15.8094V15.7966V15.7838V15.771V15.7582V15.7455V15.7327V15.7199V15.7071V15.6943V15.6815V15.6688V15.656V15.6432V15.6304C58.1265 14.7942 57.9671 14.3862 57.7734 14.1516C57.5789 13.9161 57.2071 13.6823 56.3875 13.5205L58.1311 22.421ZM58.1311 22.421C58.1245 22.4262 58.1177 22.4312 58.1109 22.4361C58.09 22.2108 58.0835 21.9844 58.0913 21.7581L58.0919 21.7407V21.7233C58.0919 21.03 58.0903 20.3392 58.0887 19.6501C58.0855 18.2783 58.0822 16.9133 58.0919 15.5484L58.0919 15.5484V15.5413C58.0919 15.1767 58.0404 14.695 57.725 14.2779C57.396 13.8428 56.9256 13.6652 56.5091 13.5864C54.8669 13.2674 53.2205 12.9447 51.5737 12.6219C49.6177 12.2386 47.6611 11.8551 45.7106 11.4776L45.708 11.4771C45.3649 11.4117 45.0126 11.4117 44.6696 11.4771L44.6689 11.4772C43.0386 11.7893 41.4132 12.1034 39.7888 12.4173C37.7701 12.8074 35.753 13.1972 33.7301 13.5825C33.3822 13.6483 32.9275 13.7887 32.5847 14.1768C32.23 14.5785 32.1492 15.0669 32.1529 15.4821C32.1656 17.0476 32.1647 18.581 32.1639 20.1194C32.1631 21.4859 32.1624 22.8562 32.1711 24.2563L58.1311 22.421ZM54.0811 13.0641C54.849 13.2163 55.6175 13.3687 56.3873 13.5204L54.0811 13.0641ZM58.1382 22.6564C58.1382 22.6565 58.1379 22.6559 58.1374 22.6547L58.1382 22.6564Z" stroke="#024D81" stroke-width="2"/>
<path d="M54.1182 22.2738L54.041 22.2701V21.3161C54.041 20.8856 54.0422 20.4583 54.0434 20.0326C54.0458 19.1879 54.0482 18.3497 54.041 17.5069C54.0396 17.3725 54.0313 17.2859 54.0227 17.2319C53.9636 17.2095 53.8675 17.181 53.713 17.1487C53.0365 17.0151 52.3628 16.8802 51.6905 16.7457C50.1016 16.4277 48.5209 16.1113 46.9316 15.8174L54.1182 22.2738ZM54.1182 22.2738C54.1001 22.5571 54.0843 22.8401 54.0688 23.118C54.0504 23.4469 54.0324 23.7686 54.0115 24.0751C53.9946 24.3216 53.9757 24.5638 53.9532 24.802C54.0192 23.9559 54.0132 23.1271 54.0076 22.3448C54.0073 22.3074 54.007 22.2702 54.0068 22.233L54.0136 22.2275V21.747C54.0136 21.3858 54.0113 21.0315 54.0091 20.6809C54.0047 19.9949 54.0003 19.3231 54.0134 18.6417C54.0211 18.3241 53.975 17.8853 53.6616 17.5103C53.3531 17.1413 52.9379 17.0187 52.6565 16.9648L52.6554 16.9645C51.4066 16.7265 50.1717 16.4844 48.9337 16.2418C47.8941 16.0381 46.8525 15.8339 45.7987 15.6313C45.4366 15.5578 45.0641 15.5509 44.6996 15.6111L44.6878 15.613L44.6761 15.6152C43.5136 15.8356 42.3808 16.056 41.2505 16.2759C40.0237 16.5146 38.7998 16.7527 37.544 16.9897L37.544 16.9896L37.5411 16.9902C37.2226 17.0513 36.802 17.1986 36.5155 17.6057C36.2532 17.9784 36.2363 18.3911 36.2386 18.6274L36.2386 18.6288C36.2485 19.5314 36.2485 20.4324 36.2483 21.3388L36.2483 21.404C36.248 22.2841 36.2478 23.1695 36.2567 24.0569C36.2523 24.6114 36.2965 25.1652 36.3889 25.7119L36.3903 25.7206L36.392 25.7293C36.8223 28.0286 37.7699 29.9063 39.1879 31.3796C40.5863 32.8326 42.3968 33.8456 44.5032 34.5083C44.1546 34.4559 43.8133 34.3594 43.4875 34.2204L43.472 34.2138L43.4562 34.2077C39.1121 32.5252 36.3531 28.8231 36.2217 24.2367L54.1182 22.2738ZM36.2039 17.3973H36.2039C36.2021 17.947 36.1986 18.4941 36.195 19.0393C36.1836 20.7836 36.1723 22.5087 36.2217 24.2366L36.2039 17.3973ZM36.2039 17.3973V17.3941M36.2039 17.3973V17.3941M36.2039 17.3941C36.2039 17.3147 36.2088 17.2611 36.214 17.2271C36.2542 17.2118 36.3201 17.1919 36.4222 17.172L36.4224 17.172M36.2039 17.3941L36.4224 17.172M36.4224 17.172C37.2048 17.0196 37.9821 16.864 38.7565 16.709M36.4224 17.172L38.7565 16.709M38.7565 16.709C40.7778 16.3045 42.7793 15.9039 44.7999 15.5737L38.7565 16.709ZM46.8249 34.1911C46.4794 34.3457 46.1152 34.4522 45.7426 34.5082C49.2237 33.4405 51.9314 31.3377 53.3291 27.7463L53.3301 27.7438C53.3594 27.6679 53.3875 27.5917 53.4144 27.5155C52.3778 30.6839 50.1315 32.8426 46.8559 34.1778L46.8403 34.1842L46.8249 34.1911ZM36.2238 17.1809C36.2247 17.178 36.2253 17.1767 36.2254 17.1768C36.2254 17.1769 36.2249 17.1783 36.2238 17.1809ZM44.8001 15.5736C45.053 15.5324 45.354 15.5428 45.7265 15.5955C45.9844 15.632 46.2255 15.6797 46.4913 15.7323C46.6294 15.7596 46.7742 15.7883 46.9316 15.8173L44.8001 15.5736Z" stroke="#024D81" stroke-width="2"/>
<path d="M42.6858 27.4271L43.4631 28.1378L44.1325 27.3247C44.557 26.8091 44.9778 26.2974 45.3964 25.7885C46.4335 24.5276 47.4564 23.2838 48.4854 22.0412L48.5038 22.019L48.5209 21.9958C48.5981 21.8908 48.6854 21.7937 48.7815 21.7058L48.7886 21.711C48.7369 21.7928 48.679 21.8705 48.6153 21.9433L48.6054 21.9547L48.5958 21.9663C46.9537 23.9623 45.3115 25.9565 43.6694 27.9488C43.5728 28.0656 43.4999 28.1379 43.449 28.1813C43.392 28.1442 43.3091 28.0806 43.1964 27.9752L43.1946 27.9735C43.0463 27.8355 42.9029 27.7042 42.763 27.5761C42.4554 27.2944 42.1653 27.0288 41.8803 26.7438C41.8384 26.7019 41.8162 26.6684 41.8046 26.6459C41.8256 26.6578 41.8528 26.676 41.8861 26.7036C42.0633 26.854 42.2288 27.0066 42.4348 27.1965C42.5119 27.2675 42.5946 27.3437 42.6858 27.4271ZM41.7922 26.6134C41.7921 26.613 41.7921 26.6128 41.7921 26.6128L41.7922 26.6134ZM41.7533 26.6237C41.7533 26.6237 41.7536 26.6237 41.7543 26.6239L41.7533 26.6237ZM41.7862 26.6429C41.7862 26.6429 41.7863 26.6427 41.7865 26.6425L41.7862 26.6429Z" stroke="#024D81" stroke-width="2"/>
<mask id="path-7-inside-2_224_178" fill="white">
<path d="M42.866 74.6998L43.3424 74.6653L42.866 74.6998Z"/>
</mask>
<path d="M42.7213 72.7051C41.6197 72.785 40.7913 73.7428 40.8712 74.8445C40.9511 75.9462 41.909 76.7745 43.0107 76.6946L42.7213 72.7051ZM43.487 76.66C44.5887 76.5802 45.417 75.6223 45.3371 74.5206C45.2572 73.4189 44.2994 72.5906 43.1977 72.6705L43.487 76.66ZM43.0107 76.6946L43.487 76.66L43.1977 72.6705L42.7213 72.7051L43.0107 76.6946Z" fill="#024D81" mask="url(#path-7-inside-2_224_178)"/>
</svg>
