<svg width="198" height="197" viewBox="0 0 198 197" fill="none" xmlns="http://www.w3.org/2000/svg">
<g clip-path="url(#clip0_424_2)">
<path d="M98.551 196.13C152.979 196.13 197.102 152.225 197.102 98.065C197.102 43.9052 152.979 0 98.551 0C44.1228 0 0 43.9052 0 98.065C0 152.225 44.1228 196.13 98.551 196.13Z" fill="#024D81" fill-opacity="0.1"/>
<path d="M98.551 195.63C152.703 195.63 196.602 151.949 196.602 98.065C196.602 44.1813 152.703 0.5 98.551 0.5C44.3989 0.5 0.5 44.1813 0.5 98.065C0.5 151.949 44.3989 195.63 98.551 195.63Z" fill="#024D81" fill-opacity="0.1" stroke="#024D81" stroke-opacity="0.15" stroke-miterlimit="10"/>
<path d="M99.051 184.607C146.824 184.607 185.551 145.88 185.551 98.1069C185.551 50.3343 146.824 11.6069 99.051 11.6069C51.2784 11.6069 12.551 50.3343 12.551 98.1069C12.551 145.88 51.2784 184.607 99.051 184.607Z" fill="white"/>
<path d="M99.051 182.107C145.443 182.107 183.051 144.499 183.051 98.1069C183.051 51.715 145.443 14.1069 99.051 14.1069C52.6591 14.1069 15.051 51.715 15.051 98.1069C15.051 144.499 52.6591 182.107 99.051 182.107Z" stroke="#024D81" stroke-opacity="0.5" stroke-width="5"/>
<mask id="path-5-inside-1_424_2" fill="white">
<path fill-rule="evenodd" clip-rule="evenodd" d="M98.5636 78.4627C98.2677 78.4627 97.984 78.5891 97.7747 78.814C97.5655 79.0389 97.448 79.344 97.448 79.6621V83.2601H96.3323C95.3068 83.2601 94.2913 83.4773 93.3438 83.8992C92.3963 84.3211 91.5354 84.9395 90.8102 85.7191C90.085 86.4987 89.5098 87.4243 89.1173 88.4428C88.7248 89.4614 88.5228 90.5532 88.5228 91.6557C88.5228 92.7582 88.7248 93.8499 89.1173 94.8685C89.5098 95.8871 90.085 96.8126 90.8102 97.5922C91.5354 98.3718 92.3963 98.9902 93.3438 99.4121C94.2913 99.8341 95.3068 100.051 96.3323 100.051H97.448V112.045H96.3323C95.1785 112.045 94.0531 111.661 93.1108 110.945C92.1686 110.229 91.4559 109.217 91.071 108.047C91.0253 107.895 90.9516 107.753 90.8542 107.632C90.7569 107.51 90.6378 107.411 90.5042 107.34C90.3705 107.269 90.2249 107.227 90.076 107.217C89.9271 107.208 89.7779 107.23 89.6373 107.284C89.4966 107.337 89.3674 107.42 89.2571 107.529C89.1469 107.637 89.058 107.767 88.9956 107.913C88.9332 108.059 88.8986 108.216 88.8939 108.377C88.8891 108.537 88.9143 108.697 88.968 108.846C89.5066 110.483 90.504 111.9 91.8228 112.903C93.1417 113.905 94.7171 114.444 96.3323 114.444H97.448V118.042C97.448 118.36 97.5655 118.665 97.7747 118.89C97.984 119.115 98.2677 119.241 98.5636 119.241C98.8595 119.241 99.1433 119.115 99.3525 118.89C99.5617 118.665 99.6793 118.36 99.6793 118.042V114.444H100.795C102.866 114.444 104.852 113.559 106.317 111.985C107.782 110.41 108.604 108.275 108.604 106.048C108.604 103.821 107.782 101.686 106.317 100.111C104.852 98.537 102.866 97.6525 100.795 97.6525H99.6793V85.6589H100.795C101.949 85.6587 103.074 86.043 104.016 86.7589C104.959 87.4748 105.671 88.487 106.056 89.6563C106.102 89.809 106.176 89.9503 106.273 90.0718C106.37 90.1933 106.489 90.2926 106.623 90.3637C106.757 90.4349 106.902 90.4766 107.051 90.4862C107.2 90.4959 107.349 90.4733 107.49 90.4199C107.631 90.3665 107.76 90.2833 107.87 90.1752C107.98 90.0671 108.069 89.9364 108.132 89.7907C108.194 89.6451 108.229 89.4874 108.233 89.3272C108.238 89.1669 108.213 89.0072 108.159 88.8576C107.621 87.2206 106.623 85.8033 105.304 84.8009C103.986 83.7985 102.41 83.2602 100.795 83.2601H99.6793V79.6621C99.6793 79.344 99.5617 79.0389 99.3525 78.814C99.1433 78.5891 98.8595 78.4627 98.5636 78.4627ZM95.2167 79.6621C95.2167 78.7078 95.5693 77.7926 96.197 77.1178C96.8247 76.443 97.676 76.064 98.5636 76.064C99.4513 76.064 100.303 76.443 100.93 77.1178C101.558 77.7926 101.911 78.7078 101.911 79.6621V80.9274C103.785 81.1535 105.562 81.942 107.039 83.203C108.517 84.4639 109.634 86.1462 110.263 88.0576C110.41 88.5031 110.473 88.9752 110.45 89.4471C110.427 89.919 110.317 90.3813 110.128 90.8077C109.939 91.234 109.673 91.6161 109.346 91.9321C109.019 92.2481 108.638 92.4918 108.223 92.6494C107.809 92.8069 107.37 92.8751 106.931 92.8501C106.492 92.8251 106.062 92.7075 105.665 92.5038C105.269 92.3002 104.913 92.0145 104.619 91.6632C104.325 91.3119 104.099 90.9018 103.952 90.4563C103.785 89.9502 103.515 89.4905 103.162 89.1108C102.809 88.7311 102.381 88.4409 101.911 88.2615V95.3197C104.365 95.6154 106.632 96.873 108.278 98.8521C109.924 100.831 110.834 103.393 110.834 106.048C110.834 108.703 109.924 111.265 108.278 113.244C106.632 115.223 104.365 116.481 101.911 116.776V118.042C101.911 118.996 101.558 119.911 100.93 120.586C100.303 121.261 99.4513 121.64 98.5636 121.64C97.676 121.64 96.8247 121.261 96.197 120.586C95.5693 119.911 95.2167 118.996 95.2167 118.042V116.776C93.3423 116.55 91.5649 115.762 90.0878 114.501C88.6107 113.24 87.4935 111.558 86.8639 109.646C86.7174 109.201 86.6539 108.728 86.6771 108.257C86.7004 107.785 86.8098 107.322 86.9993 106.896C87.3818 106.035 88.0669 105.372 88.9038 105.054C89.7407 104.736 90.6609 104.789 91.4619 105.2C92.2629 105.611 92.8792 106.348 93.1751 107.247C93.342 107.754 93.6119 108.213 93.9651 108.593C94.3183 108.973 94.7459 109.263 95.2167 109.442V102.384C92.7624 102.088 90.4956 100.831 88.8494 98.8516C87.2033 96.8725 86.2932 94.3106 86.2932 91.6557C86.2932 89.0007 87.2033 86.4389 88.8494 84.4598C90.4956 82.4807 92.7624 81.2231 95.2167 80.9274V79.6621ZM90.7541 91.6557C90.7541 90.0652 91.3418 88.5399 92.3879 87.4153C93.4341 86.2907 94.8529 85.6589 96.3323 85.6589H97.448V97.6525H96.3323C94.8529 97.6525 93.4341 97.0207 92.3879 95.8961C91.3418 94.7714 90.7541 93.2461 90.7541 91.6557V91.6557ZM95.2167 88.2615C94.5634 88.5093 93.9978 88.9688 93.5977 89.5767C93.1975 90.1846 92.9827 90.911 92.9827 91.6557C92.9827 92.4004 93.1975 93.1267 93.5977 93.7347C93.9978 94.3426 94.5634 94.8021 95.2167 95.0499V88.2615V88.2615ZM99.6793 100.051H100.795C102.274 100.051 103.693 100.683 104.739 101.808C105.785 102.932 106.373 104.458 106.373 106.048C106.373 107.638 105.785 109.164 104.739 110.288C103.693 111.413 102.274 112.045 100.795 112.045H99.6793V100.051ZM101.911 102.654V109.442C102.564 109.194 103.129 108.735 103.53 108.127C103.93 107.519 104.145 106.793 104.145 106.048C104.145 105.303 103.93 104.577 103.53 103.969C103.129 103.361 102.564 102.902 101.911 102.654V102.654Z"/>
</mask>
<path fill-rule="evenodd" clip-rule="evenodd" d="M98.5636 78.4627C98.2677 78.4627 97.984 78.5891 97.7747 78.814C97.5655 79.0389 97.448 79.344 97.448 79.6621V83.2601H96.3323C95.3068 83.2601 94.2913 83.4773 93.3438 83.8992C92.3963 84.3211 91.5354 84.9395 90.8102 85.7191C90.085 86.4987 89.5098 87.4243 89.1173 88.4428C88.7248 89.4614 88.5228 90.5532 88.5228 91.6557C88.5228 92.7582 88.7248 93.8499 89.1173 94.8685C89.5098 95.8871 90.085 96.8126 90.8102 97.5922C91.5354 98.3718 92.3963 98.9902 93.3438 99.4121C94.2913 99.8341 95.3068 100.051 96.3323 100.051H97.448V112.045H96.3323C95.1785 112.045 94.0531 111.661 93.1108 110.945C92.1686 110.229 91.4559 109.217 91.071 108.047C91.0253 107.895 90.9516 107.753 90.8542 107.632C90.7569 107.51 90.6378 107.411 90.5042 107.34C90.3705 107.269 90.2249 107.227 90.076 107.217C89.9271 107.208 89.7779 107.23 89.6373 107.284C89.4966 107.337 89.3674 107.42 89.2571 107.529C89.1469 107.637 89.058 107.767 88.9956 107.913C88.9332 108.059 88.8986 108.216 88.8939 108.377C88.8891 108.537 88.9143 108.697 88.968 108.846C89.5066 110.483 90.504 111.9 91.8228 112.903C93.1417 113.905 94.7171 114.444 96.3323 114.444H97.448V118.042C97.448 118.36 97.5655 118.665 97.7747 118.89C97.984 119.115 98.2677 119.241 98.5636 119.241C98.8595 119.241 99.1433 119.115 99.3525 118.89C99.5617 118.665 99.6793 118.36 99.6793 118.042V114.444H100.795C102.866 114.444 104.852 113.559 106.317 111.985C107.782 110.41 108.604 108.275 108.604 106.048C108.604 103.821 107.782 101.686 106.317 100.111C104.852 98.537 102.866 97.6525 100.795 97.6525H99.6793V85.6589H100.795C101.949 85.6587 103.074 86.043 104.016 86.7589C104.959 87.4748 105.671 88.487 106.056 89.6563C106.102 89.809 106.176 89.9503 106.273 90.0718C106.37 90.1933 106.489 90.2926 106.623 90.3637C106.757 90.4349 106.902 90.4766 107.051 90.4862C107.2 90.4959 107.349 90.4733 107.49 90.4199C107.631 90.3665 107.76 90.2833 107.87 90.1752C107.98 90.0671 108.069 89.9364 108.132 89.7907C108.194 89.6451 108.229 89.4874 108.233 89.3272C108.238 89.1669 108.213 89.0072 108.159 88.8576C107.621 87.2206 106.623 85.8033 105.304 84.8009C103.986 83.7985 102.41 83.2602 100.795 83.2601H99.6793V79.6621C99.6793 79.344 99.5617 79.0389 99.3525 78.814C99.1433 78.5891 98.8595 78.4627 98.5636 78.4627ZM95.2167 79.6621C95.2167 78.7078 95.5693 77.7926 96.197 77.1178C96.8247 76.443 97.676 76.064 98.5636 76.064C99.4513 76.064 100.303 76.443 100.93 77.1178C101.558 77.7926 101.911 78.7078 101.911 79.6621V80.9274C103.785 81.1535 105.562 81.942 107.039 83.203C108.517 84.4639 109.634 86.1462 110.263 88.0576C110.41 88.5031 110.473 88.9752 110.45 89.4471C110.427 89.919 110.317 90.3813 110.128 90.8077C109.939 91.234 109.673 91.6161 109.346 91.9321C109.019 92.2481 108.638 92.4918 108.223 92.6494C107.809 92.8069 107.37 92.8751 106.931 92.8501C106.492 92.8251 106.062 92.7075 105.665 92.5038C105.269 92.3002 104.913 92.0145 104.619 91.6632C104.325 91.3119 104.099 90.9018 103.952 90.4563C103.785 89.9502 103.515 89.4905 103.162 89.1108C102.809 88.7311 102.381 88.4409 101.911 88.2615V95.3197C104.365 95.6154 106.632 96.873 108.278 98.8521C109.924 100.831 110.834 103.393 110.834 106.048C110.834 108.703 109.924 111.265 108.278 113.244C106.632 115.223 104.365 116.481 101.911 116.776V118.042C101.911 118.996 101.558 119.911 100.93 120.586C100.303 121.261 99.4513 121.64 98.5636 121.64C97.676 121.64 96.8247 121.261 96.197 120.586C95.5693 119.911 95.2167 118.996 95.2167 118.042V116.776C93.3423 116.55 91.5649 115.762 90.0878 114.501C88.6107 113.24 87.4935 111.558 86.8639 109.646C86.7174 109.201 86.6539 108.728 86.6771 108.257C86.7004 107.785 86.8098 107.322 86.9993 106.896C87.3818 106.035 88.0669 105.372 88.9038 105.054C89.7407 104.736 90.6609 104.789 91.4619 105.2C92.2629 105.611 92.8792 106.348 93.1751 107.247C93.342 107.754 93.6119 108.213 93.9651 108.593C94.3183 108.973 94.7459 109.263 95.2167 109.442V102.384C92.7624 102.088 90.4956 100.831 88.8494 98.8516C87.2033 96.8725 86.2932 94.3106 86.2932 91.6557C86.2932 89.0007 87.2033 86.4389 88.8494 84.4598C90.4956 82.4807 92.7624 81.2231 95.2167 80.9274V79.6621ZM90.7541 91.6557C90.7541 90.0652 91.3418 88.5399 92.3879 87.4153C93.4341 86.2907 94.8529 85.6589 96.3323 85.6589H97.448V97.6525H96.3323C94.8529 97.6525 93.4341 97.0207 92.3879 95.8961C91.3418 94.7714 90.7541 93.2461 90.7541 91.6557V91.6557ZM95.2167 88.2615C94.5634 88.5093 93.9978 88.9688 93.5977 89.5767C93.1975 90.1846 92.9827 90.911 92.9827 91.6557C92.9827 92.4004 93.1975 93.1267 93.5977 93.7347C93.9978 94.3426 94.5634 94.8021 95.2167 95.0499V88.2615V88.2615ZM99.6793 100.051H100.795C102.274 100.051 103.693 100.683 104.739 101.808C105.785 102.932 106.373 104.458 106.373 106.048C106.373 107.638 105.785 109.164 104.739 110.288C103.693 111.413 102.274 112.045 100.795 112.045H99.6793V100.051ZM101.911 102.654V109.442C102.564 109.194 103.129 108.735 103.53 108.127C103.93 107.519 104.145 106.793 104.145 106.048C104.145 105.303 103.93 104.577 103.53 103.969C103.129 103.361 102.564 102.902 101.911 102.654V102.654Z" stroke="#024D81" stroke-width="4" mask="url(#path-5-inside-1_424_2)"/>
<path d="M81.0317 127.724L75.3362 138" stroke="#024D81" stroke-width="2" stroke-linecap="round" stroke-linejoin="round"/>
<path d="M115.214 127.724L120.91 138" stroke="#024D81" stroke-width="2" stroke-linecap="round" stroke-linejoin="round"/>
<path d="M98.1231 132.303C117 132.303 132.303 117 132.303 98.1231C132.303 79.2459 117 63.9429 98.1231 63.9429C79.2459 63.9429 63.9429 79.2459 63.9429 98.1231C63.9429 117 79.2459 132.303 98.1231 132.303Z" stroke="#024D81" stroke-width="2" stroke-linecap="round" stroke-linejoin="round"/>
<path d="M65.0868 89.0118C62.4627 87.045 60.4599 84.3648 59.3174 81.2909C58.1748 78.217 57.9408 74.8793 58.6432 71.6761C59.3456 68.4729 60.9548 65.5394 63.2787 63.2256C65.6027 60.9119 68.5432 59.3156 71.7495 58.6273C74.9558 57.939 78.2924 58.1877 81.3612 59.3437C84.4301 60.4997 87.1015 62.5143 89.0567 65.147" stroke="#024D81" stroke-width="2" stroke-linecap="round" stroke-linejoin="round"/>
<path d="M98.1233 63.9433L98.1234 58.2466" stroke="#024D81" stroke-width="2" stroke-linecap="round" stroke-linejoin="round"/>
<path d="M131.16 89.0118C133.784 87.045 135.787 84.3648 136.929 81.2909C138.072 78.217 138.306 74.8793 137.603 71.6761C136.901 68.4729 135.292 65.5394 132.968 63.2256C130.644 60.9119 127.703 59.3156 124.497 58.6273C121.291 57.939 117.954 58.1877 114.885 59.3437C111.817 60.4997 109.145 62.5143 107.19 65.147" stroke="#024D81" stroke-width="2" stroke-linecap="round" stroke-linejoin="round"/>
</g>
<defs>
<clipPath id="clip0_424_2">
<rect width="197.102" height="196.131" fill="white"/>
</clipPath>
</defs>
</svg>
