<svg width="90" height="90" viewBox="0 0 90 90" fill="none" xmlns="http://www.w3.org/2000/svg">
<path d="M21.8356 12.0009L21.8356 12.001H21.8483H33.3022C34.7084 12.001 36.1007 12.2752 37.3993 12.8077C38.698 13.3402 39.8773 14.1205 40.8703 15.1034C41.8632 16.0864 42.6503 17.2527 43.1871 18.5357C43.7239 19.8186 44 21.1933 44 22.5813C44 29.1798 39.2262 33.2138 34.1143 35.654C31.58 36.8639 29.0349 37.6426 27.1165 38.1188C26.311 38.3187 25.6195 38.4645 25.0903 38.566V34.1597V33.1597H24.0903H21.8483V33.1596L21.8356 33.1598C20.4178 33.1779 19.0108 32.917 17.6963 32.3926C16.3817 31.8682 15.1861 31.0909 14.1785 30.1062C13.171 29.1215 12.3716 27.9492 11.8261 26.6574C11.2807 25.3656 11 23.9798 11 22.5803C11 21.1809 11.2807 19.7951 11.8261 18.5033C12.3716 17.2115 13.171 16.0391 14.1785 15.0545C15.1861 14.0698 16.3817 13.2925 17.6963 12.7681C19.0108 12.2437 20.4178 11.9828 21.8356 12.0009ZM67.4586 35.0764H66.4586V36.0764V40.4534C66.0145 40.3549 65.4593 40.2204 64.8234 40.0428C63.1276 39.5693 60.8781 38.7949 58.6385 37.5921C54.1477 35.1803 49.8722 31.1586 49.8722 24.4979C49.8722 21.6951 50.9968 19.0051 53.0019 17.0201C55.0074 15.0347 57.7295 13.9176 60.57 13.9176H68.1517V13.9177L68.1644 13.9175C69.5822 13.8995 70.9892 14.1603 72.3037 14.6847C73.6183 15.2091 74.8139 15.9864 75.8215 16.9711C76.829 17.9558 77.6284 19.1282 78.1739 20.42C78.7193 21.7117 79 23.0975 79 24.497C79 25.8964 78.7193 27.2822 78.1739 28.574C77.6284 29.8658 76.829 31.0382 75.8215 32.0228C74.8139 33.0075 73.6183 33.7849 72.3037 34.3093C70.9892 34.8336 69.5822 35.0945 68.1644 35.0764L68.1644 35.0764H68.1517H67.4586ZM33.3515 53.167C33.3515 56.841 30.3432 59.8336 26.6072 59.8336C22.8712 59.8336 19.8629 56.841 19.8629 53.167C19.8629 49.493 22.8712 46.5005 26.6072 46.5005C30.3432 46.5005 33.3515 49.493 33.3515 53.167ZM11.1505 72.8452C11.1505 71.8555 11.6414 70.9129 12.6254 70.0103C13.6159 69.1017 15.0359 68.3043 16.689 67.646C19.9967 66.3289 23.9851 65.6669 26.6072 65.6669C29.2294 65.6669 33.2178 66.3284 36.5254 67.6453C38.1785 68.3035 39.5985 69.1008 40.5889 70.0095C41.5729 70.9121 42.0639 71.8549 42.0639 72.8452V79H11.1505V72.8452ZM70.1371 53.167C70.1371 56.841 67.1288 59.8336 63.3928 59.8336C59.6568 59.8336 56.6485 56.841 56.6485 53.167C56.6485 49.493 59.6568 46.5005 63.3928 46.5005C67.1288 46.5005 70.1371 49.493 70.1371 53.167ZM47.9361 72.8452C47.9361 71.8555 48.427 70.9129 49.411 70.0103C50.4015 69.1017 51.8215 68.3043 53.4746 67.646C56.7823 66.3289 60.7707 65.6669 63.3928 65.6669C66.015 65.6669 70.0034 66.3284 73.311 67.6453C74.9641 68.3035 76.3841 69.1008 77.3745 70.0095C78.3585 70.9121 78.8495 71.8549 78.8495 72.8452V79H47.9361V72.8452Z" stroke="#024D81" stroke-width="2"/>
</svg>
