<svg xmlns="http://www.w3.org/2000/svg" width="197.102" height="196.131" viewBox="0 0 197.102 196.131">
  <g id="idea-large" transform="translate(-1031.449 -1403.393)">
    <g id="Group_5494" data-name="Group 5494" transform="translate(760.449 -2574.607)">
      <g id="Ellipse_1133" data-name="Ellipse 1133" transform="translate(271 3978)" fill="#edeff5" stroke="#dbdfef" stroke-miterlimit="10" stroke-width="1">
        <ellipse cx="98.551" cy="98.065" rx="98.551" ry="98.065" stroke="none"/>
        <ellipse cx="98.551" cy="98.065" rx="98.051" ry="97.565" fill="none"/>
      </g>
      <g id="Ellipse_1136" data-name="Ellipse 1136" transform="translate(283.551 3989.607)" fill="#fff" stroke="#e1e2f0" stroke-width="5">
        <circle cx="86.5" cy="86.5" r="86.5" stroke="none"/>
        <circle cx="86.5" cy="86.5" r="84" fill="none"/>
      </g>
    </g>
    <g id="idea" transform="translate(1088.674 1462.125)">
      <path id="Path_20992" data-name="Path 20992" d="M57.568,11.547A25.336,25.336,0,0,0,20.5,45.689a48.728,48.728,0,0,1,4.515,7.05l3.881,7.525v4.357a4.7,4.7,0,0,0,4.04,4.674,7.92,7.92,0,0,0,15.684,0,4.7,4.7,0,0,0,4.04-4.674V60.264l3.881-7.525a53.448,53.448,0,0,1,4.515-7.05A25.28,25.28,0,0,0,57.568,11.547ZM40.854,73.017a4.755,4.755,0,0,1-4.594-3.565h9.189A4.846,4.846,0,0,1,40.854,73.017ZM49.567,64.7a1.589,1.589,0,0,1-1.584,1.584H33.725A1.589,1.589,0,0,1,32.14,64.7V61.531H49.567ZM40.854,33.41a3.169,3.169,0,1,1,3.169-3.169A3.178,3.178,0,0,1,40.854,33.41ZM58.677,43.867a64.488,64.488,0,0,0-4.832,7.446L50.2,58.363H42.438V36.341a6.337,6.337,0,1,0-3.169,0V58.363H31.507l-3.644-7.05a48.568,48.568,0,0,0-4.832-7.446A22.21,22.21,0,0,1,55.509,13.924,22.374,22.374,0,0,1,58.677,43.867ZM10.753,32.222H7.584a1.584,1.584,0,0,1,0-3.169h3.169a1.584,1.584,0,0,1,0,3.169Zm64.955-1.584a1.589,1.589,0,0,1-1.584,1.584H70.955a1.584,1.584,0,0,1,0-3.169h3.169A1.54,1.54,0,0,1,75.708,30.638ZM10.515,13.369a1.58,1.58,0,0,1,2.139-.634l2.772,1.584a1.58,1.58,0,0,1,.634,2.139,1.634,1.634,0,0,1-1.347.792,1.528,1.528,0,0,1-.792-.238l-2.772-1.584A1.452,1.452,0,0,1,10.515,13.369ZM71.193,47.827a1.634,1.634,0,0,1-1.347.792,1.528,1.528,0,0,1-.792-.238L66.282,46.8a1.577,1.577,0,1,1,1.505-2.772l2.772,1.584A1.673,1.673,0,0,1,71.193,47.827ZM65.648,16.538a1.56,1.56,0,0,1,.634-2.139l2.772-1.584a1.577,1.577,0,1,1,1.505,2.772l-2.772,1.584a1.528,1.528,0,0,1-.792.238A2.124,2.124,0,0,1,65.648,16.538ZM16.06,44.659a1.56,1.56,0,0,1-.634,2.139l-2.772,1.584a1.506,1.506,0,0,1-2.139-.554,1.56,1.56,0,0,1,.634-2.139L13.921,44.1A1.571,1.571,0,0,1,16.06,44.659Z" transform="translate(0 3.408)"/>
      <rect id="Rectangle_2605" data-name="Rectangle 2605" width="3.319" height="6.639" rx="1" transform="translate(39.046 0.085)"/>
    </g>
  </g>
</svg>
