<svg width="90" height="90" viewBox="0 0 90 90" fill="none" xmlns="http://www.w3.org/2000/svg">
<path d="M76.3633 32.4414L76.3631 32.441C74.601 28.3548 72.2136 24.8103 69.2016 21.7984C66.1897 18.7864 62.6452 16.3978 58.559 14.6334L76.3633 32.4414ZM76.3633 32.4414C78.1193 36.5083 79 40.8577 79 45.5C79 50.1423 78.1193 54.4917 76.3633 58.5586L76.3631 58.559M76.3633 32.4414L76.3631 58.559M76.3631 58.559C74.601 62.6452 72.2136 66.1897 69.2016 69.2016C66.1897 72.2136 62.6452 74.601 58.559 76.3631L58.5586 76.3633M76.3631 58.559L58.5586 76.3633M58.5586 76.3633C54.4917 78.1193 50.1423 79 45.5 79C40.8577 79 36.5083 78.1193 32.4414 76.3633L32.441 76.3631M58.5586 76.3633L32.441 76.3631M32.441 76.3631C28.3548 74.601 24.8103 72.2136 21.7984 69.2016C18.7864 66.1897 16.399 62.6452 14.6369 58.559L14.6367 58.5586M32.441 76.3631L14.6367 58.5586M14.6367 58.5586C12.8807 54.4917 12 50.1423 12 45.5C12 40.8577 12.8807 36.5083 14.6367 32.4414L14.6369 32.441M14.6367 58.5586L14.6369 32.441M14.6369 32.441C16.399 28.3548 18.7864 24.8103 21.7984 21.7984C24.8103 18.7864 28.3548 16.3978 32.441 14.6334C36.5079 12.8796 40.8576 12 45.5 12C50.1423 12 54.4918 12.8795 58.5586 14.6332L14.6369 32.441ZM65.7443 65.7446L65.7446 65.7443C71.3084 60.1782 74.1 53.4109 74.1 45.5C74.1 37.5891 71.3084 30.8218 65.7446 25.2557L65.7443 25.2554C60.1782 19.6916 53.4109 16.9 45.5 16.9C37.5891 16.9 30.8229 19.6916 25.259 25.2555C19.6929 30.8217 16.9 37.589 16.9 45.5C16.9 53.411 19.6929 60.1783 25.259 65.7445C30.8229 71.3084 37.5891 74.1 45.5 74.1C53.4109 74.1 60.1782 71.3084 65.7443 65.7446Z" stroke="white" stroke-width="2"/>
<path d="M44.7236 56.7984L34.1149 61.4559C33.3099 61.8009 32.5911 61.6709 31.9586 61.066C31.3261 60.4634 31.1824 59.7596 31.5274 58.9546L43.6886 29.2847C44.0336 28.4797 44.6374 28.0771 45.4999 28.0771C46.3624 28.0771 46.9661 28.4797 47.3111 29.2847L59.4724 58.9546C59.8174 59.7596 59.6736 60.4634 59.0411 61.066C58.4086 61.6709 57.6899 61.8009 56.8849 61.4559L46.3624 56.7984C46.0749 56.6834 45.8012 56.6259 45.5413 56.6259C45.2837 56.6259 45.0111 56.6834 44.7236 56.7984Z" fill="white"/>
</svg>
