<svg width="90" height="90" viewBox="0 0 90 90" fill="none" xmlns="http://www.w3.org/2000/svg">
<path d="M63.4444 39.625V42.0514L65.1541 40.3296L79 26.3847V64.6152L65.1541 50.6704L63.4444 48.9486V51.375V65.0833C63.4444 66.6919 62.1355 68 60.5556 68H13.8889C12.309 68 11 66.6919 11 65.0833V25.9167C11 24.3081 12.309 23 13.8889 23H60.5556C62.1355 23 63.4444 24.3081 63.4444 25.9167V39.625ZM56.6667 62.1667H57.6667V61.1667V29.8333V28.8333H56.6667H17.7778H16.7778V29.8333V61.1667V62.1667H17.7778H56.6667ZM41.1111 48.4167H40.1111V49.4167V56.25H34.3333V49.4167V48.4167H33.3333H26.5556V42.5833H33.3333H34.3333V41.5833V34.75H40.1111V41.5833V42.5833H41.1111H47.8889V48.4167H41.1111Z" stroke="white" stroke-width="2"/>
</svg>
