<svg width="90" height="90" viewBox="0 0 90 90" fill="none" xmlns="http://www.w3.org/2000/svg">
<path d="M17.2276 41.4144L17.0635 42.5567H18.2174H21.35C21.9998 42.5567 22.6229 42.8148 23.0824 43.2742C23.5419 43.7337 23.8 44.3569 23.8 45.0067V62.75C23.8 63.3998 23.5419 64.023 23.0824 64.4824C22.6229 64.9419 21.9998 65.2 21.35 65.2H17.9C14.5758 65.2 12 62.7053 12 59.7934V45.5C12 27.029 27.029 12 45.5 12C63.971 12 79 27.029 79 45.5V59.7934C79 62.7053 76.4242 65.2 73.1 65.2H72.1V66.2C72.1 73.2584 66.3584 79 59.3 79H39.6V70.65H51.4V73.1V74.1H52.4H59.3C63.6576 74.1 67.2 70.5576 67.2 66.2V45.0067C67.2 44.3569 67.4581 43.7337 67.9176 43.2742C68.377 42.8148 69.0002 42.5567 69.65 42.5567H72.7826H73.9365L73.7724 41.4144C71.7849 27.58 59.8826 16.9 45.5 16.9C31.1174 16.9 19.2152 27.58 17.2276 41.4144Z" stroke="white" stroke-width="2"/>
</svg>
