<svg width="90" height="90" viewBox="0 0 90 90" fill="none" xmlns="http://www.w3.org/2000/svg">
<path d="M41.1276 52.8627L41.344 53.3134C40.7076 53.6189 39.3467 54.1826 37.1407 54.6668L36.2978 54.8518L36.5565 54.0285C36.8488 53.0983 37.0491 52.1445 37.1548 51.1795C37.1684 51.0418 37.1501 50.9026 37.1004 50.7711C37.0504 50.6389 36.9694 50.5165 36.8613 50.4136C35.1272 48.7651 34.0978 46.6323 34.0978 44.3139C34.0978 39.2538 39.0794 34.9734 45.4782 34.9734C51.8771 34.9734 56.8587 39.2538 56.8587 44.3139C56.8587 49.3754 51.8774 53.6541 45.479 53.6544L41.1276 52.8627ZM41.1276 52.8627L41.344 53.3134C41.5788 53.2007 41.8516 53.1733 42.1084 53.2383L42.1087 53.2384M41.1276 52.8627L42.1087 53.2384M42.1087 53.2384C43.2081 53.5162 44.3409 53.6561 45.4782 53.6544L42.1087 53.2384ZM35.2864 54.5232C35.1716 54.8402 35.0451 55.1533 34.9071 55.4618C34.7843 55.7358 35.0206 56.0423 35.3315 55.9952C35.702 55.9377 36.0714 55.8743 36.4397 55.8051L35.2864 54.5232ZM35.2864 54.5232L35.291 54.5085L35.2864 54.5232ZM41.614 53.7261C40.8452 54.0947 39.1475 54.7869 36.3474 55.3137C36.0488 55.3698 35.7494 55.422 35.4493 55.4703C35.5593 55.2142 35.6618 54.9551 35.7565 54.6934L35.76 54.6838L35.7631 54.6741L35.7646 54.6693C36.1592 53.5812 36.4833 52.3243 36.603 51.142L36.6277 50.8981L36.4499 50.7292C34.6278 48.9977 33.5435 46.7515 33.5435 44.3139C33.5435 38.9773 38.7957 34.5 45.4782 34.5C52.1608 34.5 57.413 38.9773 57.413 44.3139C57.413 49.6505 52.1608 54.1278 45.4782 54.1278H45.4776C44.2874 54.1294 43.1023 53.9829 41.9527 53.6922L41.7772 53.6479L41.614 53.7261Z" stroke="white"/>
<path d="M21.9 40.2281H20.0843C22.3211 28.4996 32.6326 19.6 45 19.6C57.3674 19.6 67.6789 28.4996 69.9157 40.2281H68.1C66.9596 40.2281 65.8658 40.6811 65.0594 41.4875C64.253 42.2939 63.8 43.3877 63.8 44.5281V64.8C63.8 67.8876 61.2876 70.4 58.2 70.4H52.6V68.1V67.1H51.6H38.4H37.4V68.1V78V79H38.4H58.2C65.7156 79 71.883 73.1363 72.3691 65.7418C76.0522 65.2972 79 62.354 79 58.6719V45C79 26.2515 63.7485 11 45 11C26.2515 11 11 26.2515 11 45V58.6719C11 62.6719 14.4789 65.8 18.6 65.8H21.9C23.0404 65.8 24.1342 65.347 24.9406 64.5406C25.747 63.7342 26.2 62.6404 26.2 61.5V44.5281C26.2 43.3877 25.747 42.2939 24.9406 41.4875C24.1342 40.6811 23.0404 40.2281 21.9 40.2281Z" stroke="white" stroke-width="2"/>
</svg>
