<svg width="90" height="90" viewBox="0 0 90 90" fill="none" xmlns="http://www.w3.org/2000/svg">
<path d="M35.8931 54.8927L35.9 54.8736L35.906 54.8543L35.9092 54.8442C36.6997 52.6421 37.3489 50.0987 37.5887 47.7068L37.6372 47.2226L37.2862 46.8856C33.6328 43.3787 31.4561 38.8267 31.4561 33.8836C31.4561 23.0606 41.9952 14 55.3803 14C68.7655 14 79.3046 23.0606 79.3046 33.8836C79.3046 44.7066 68.7655 53.7671 55.3803 53.7671H55.379C52.9941 53.7702 50.6193 53.4737 48.3156 52.8853L47.9614 52.7948L47.6323 52.9542C46.0914 53.7005 42.6889 55.1018 37.077 56.1684C36.4757 56.2825 35.8727 56.3887 35.2683 56.4869C35.4923 55.9614 35.7007 55.4297 35.8931 54.8927Z" stroke="white" stroke-width="2"/>
<path d="M47.7474 75.7865L47.7406 75.7675L47.7345 75.7482L47.7328 75.7424C47.0558 73.8559 46.499 71.6756 46.2932 69.6216L46.2446 69.1375L46.5957 68.8005C49.6873 65.8328 51.5239 61.9865 51.5239 57.8149C51.5239 48.6867 42.6246 41 31.262 41C19.8994 41 11.0001 48.6867 11.0001 57.8149C11.0001 66.9432 19.8994 74.6299 31.262 74.6299H31.2633C33.2855 74.6325 35.2991 74.3811 37.2523 73.8822L37.6065 73.7918L37.9356 73.9511C39.2385 74.5821 42.1286 75.7734 46.9033 76.6809C47.3281 76.7615 47.7538 76.8375 48.1804 76.9088C48.027 76.538 47.8826 76.1639 47.7474 75.7865Z" stroke="white" stroke-width="2"/>
</svg>
