<svg width="90" height="90" viewBox="0 0 90 90" fill="none" xmlns="http://www.w3.org/2000/svg">
<path d="M44.5121 12.0006C52.9218 11.9394 61.016 16.3688 65.5595 23.8731C71.259 33.2873 70.0221 45.3498 62.5264 53.2998C61.6183 54.2627 60.6574 55.1776 59.6925 56.0844C57.8898 57.7782 56.7819 59.7628 56.7246 62.3119C56.6864 64.0196 55.7718 65.2161 54.0911 65.6798C53.8531 65.7473 35.7055 70.6241 35.7055 70.6241C34.705 70.8921 33.6671 70.2925 33.3989 69.292L33.3579 69.1376C33.0897 68.1371 33.6891 67.099 34.6898 66.831C34.6898 66.831 50.5058 62.3994 50.2364 62.6499C51.6786 62.2946 52.5136 61.556 52.8623 60.0669C53.6077 56.8835 55.6781 54.5133 57.9504 52.3116C61.7156 48.6637 64.2539 44.4204 64.9375 39.1041C65.9606 31.1461 62.1007 22.9195 55.0052 18.9265C47.3638 14.6263 39.6991 14.9097 32.5644 20.0026C22.6331 27.0915 21.1777 40.7784 29.1349 50.0371C31.3521 52.6168 33.6053 55.1655 36.0795 58.0006C42.5883 57.0494 42.5881 57.0494 42.5883 50.4301C42.5887 46.3154 42.6137 42.2002 42.5776 38.0857C42.5644 36.6213 43.0435 35.4781 44.6082 35.5144C46.1539 35.5504 46.6053 36.733 46.6001 38.1697C46.5771 44.5161 46.5632 50.8628 46.6048 57.2092C46.6151 58.7818 46.0224 59.6523 44.4626 60.0314C41.42 60.7705 38.4177 61.6751 35.3745 62.4115C33.1831 62.9417 32.8948 62.3103 31.9951 60.2904C31.0977 58.2754 29.6343 56.3869 28.0424 54.8279C21.2554 48.1804 18.5736 40.243 20.7282 31.0146C22.905 21.6914 28.8914 15.6285 38.0729 12.9459C40.1652 12.3343 42.3323 12.0161 44.5121 12.0006ZM44.5934 27.2509C46.2469 27.2685 47.0665 28.2456 47.1844 29.762C47.056 31.5091 46.068 32.4938 44.5336 32.469C43.0058 32.4443 41.894 31.3972 41.9305 29.8028C41.9662 28.2516 42.9388 27.2328 44.5934 27.2509ZM53.3989 70.0317C54.2166 70.0656 54.9575 70.6246 55.1797 71.4544C55.4535 72.4754 54.8419 73.5347 53.8209 73.8082L39.4878 77.6488C38.4665 77.9223 37.4075 77.311 37.1338 76.2897C36.8602 75.2687 37.4716 74.2095 38.4926 73.9359L52.8257 70.0953C53.0125 70.0452 53.2057 70.0237 53.3989 70.0317Z" stroke="#024D81" stroke-width="2"/>
</svg>
