<svg xmlns="http://www.w3.org/2000/svg" xmlns:xlink="http://www.w3.org/1999/xlink" viewBox="0 0 11.57 11.57"><defs><style>.cls-1{fill:url(#linear-gradient);}.cls-2{fill:url(#linear-gradient-2);}.cls-3{fill:url(#linear-gradient-3);}</style><linearGradient id="linear-gradient" x1="3.55" y1="-2.33" x2="14.04" y2="7.71" gradientUnits="userSpaceOnUse"><stop offset="0" stop-color="#ffe185"/><stop offset="0.21" stop-color="#ffbb36"/><stop offset="0.38" stop-color="#ff5176"/><stop offset="0.52" stop-color="#f63395"/><stop offset="0.74" stop-color="#a436d2"/><stop offset="1" stop-color="#5f4eed"/></linearGradient><linearGradient id="linear-gradient-2" x1="0.59" y1="0.76" x2="11.08" y2="10.81" xlink:href="#linear-gradient"/><linearGradient id="linear-gradient-3" x1="0.56" y1="0.79" x2="11.05" y2="10.83" xlink:href="#linear-gradient"/></defs><g id="Layer_2" data-name="Layer 2"><g id="Layer_1-2" data-name="Layer 1"><path class="cls-1" d="M8.85,2.07a.68.68,0,1,0,.67.67A.67.67,0,0,0,8.85,2.07Z"/><path class="cls-2" d="M5.83,2.93A2.85,2.85,0,1,0,8.68,5.78,2.86,2.86,0,0,0,5.83,2.93Zm0,4.68A1.83,1.83,0,1,1,7.66,5.78,1.82,1.82,0,0,1,5.83,7.61Z"/><path class="cls-3" d="M8.09,11.57H3.47A3.48,3.48,0,0,1,0,8.09V3.47A3.48,3.48,0,0,1,3.47,0H8.09a3.48,3.48,0,0,1,3.48,3.47V8.09A3.48,3.48,0,0,1,8.09,11.57ZM3.47,1.09A2.39,2.39,0,0,0,1.09,3.47V8.09a2.39,2.39,0,0,0,2.38,2.39H8.09a2.39,2.39,0,0,0,2.39-2.39V3.47A2.39,2.39,0,0,0,8.09,1.09Z"/></g></g></svg>