<svg width="30" height="30" viewBox="0 0 30 30" fill="none" xmlns="http://www.w3.org/2000/svg">
<path d="M15 29.875C23.2152 29.875 29.875 23.2152 29.875 15C29.875 6.78476 23.2152 0.125 15 0.125C6.78476 0.125 0.125 6.78476 0.125 15C0.125 23.2152 6.78476 29.875 15 29.875Z" fill="#024D81"/>
<path d="M15.0001 6.17578C12.605 6.17578 12.3 6.18578 11.36 6.23078C10.42 6.27578 9.78005 6.42078 9.22005 6.64078C8.64005 6.86578 8.14505 7.16578 7.65505 7.66078C7.16505 8.15078 6.86504 8.64579 6.63504 9.22579C6.41504 9.78579 6.26504 10.4308 6.22504 11.3658C6.18504 12.3058 6.17004 12.6058 6.17004 15.0058C6.17004 17.4008 6.18004 17.7008 6.22504 18.6458C6.27004 19.5858 6.41504 20.2258 6.63504 20.7858C6.86004 21.3658 7.16005 21.8608 7.65505 22.3508C8.14505 22.8408 8.64005 23.1458 9.22005 23.3708C9.78005 23.5908 10.425 23.7358 11.36 23.7808C12.3 23.8258 12.6 23.8358 15.0001 23.8358C17.3951 23.8358 17.6951 23.8258 18.6401 23.7808C19.5801 23.7358 20.2201 23.5908 20.7851 23.3708C21.3651 23.1458 21.8551 22.8408 22.3451 22.3508C22.8351 21.8608 23.1351 21.3658 23.3651 20.7858C23.5801 20.2258 23.7301 19.5858 23.7751 18.6458C23.8151 17.7058 23.8301 17.4058 23.8301 15.0058C23.8301 12.6108 23.8201 12.3108 23.7751 11.3658C23.7301 10.4258 23.5801 9.78579 23.3651 9.22579C23.1401 8.64579 22.8351 8.15078 22.3451 7.66078C21.8551 7.17078 21.3651 6.87078 20.7801 6.64078C20.2151 6.42078 19.5751 6.27578 18.6351 6.23078C17.6951 6.18578 17.3951 6.17578 15.0001 6.17578ZM14.2101 7.76578C14.4451 7.76578 14.7051 7.76578 15.0001 7.76578C17.3551 7.76578 17.6351 7.77578 18.5651 7.81578C19.4251 7.85578 19.8901 8.00078 20.2051 8.12078C20.6151 8.28078 20.9101 8.47079 21.2201 8.78079C21.5301 9.09079 21.7201 9.38579 21.8801 9.79579C22.0001 10.1058 22.1451 10.5758 22.1851 11.4358C22.2251 12.3658 22.2351 12.6458 22.2351 15.0008C22.2351 17.3558 22.2251 17.6358 22.1851 18.5658C22.1451 19.4258 22.0001 19.8908 21.8801 20.2058C21.7201 20.6158 21.5301 20.9108 21.2201 21.2208C20.9101 21.5308 20.6201 21.7208 20.2051 21.8808C19.8951 22.0008 19.4251 22.1458 18.5651 22.1858C17.6351 22.2258 17.3551 22.2358 15.0001 22.2358C12.645 22.2358 12.365 22.2258 11.435 22.1858C10.575 22.1458 10.11 22.0008 9.79505 21.8808C9.38505 21.7208 9.09005 21.5308 8.78005 21.2208C8.47005 20.9108 8.28005 20.6158 8.12005 20.2058C8.00005 19.8958 7.85505 19.4258 7.81505 18.5658C7.77505 17.6358 7.76505 17.3558 7.76505 15.0008C7.76505 12.6458 7.77505 12.3658 7.81505 11.4358C7.85505 10.5758 8.00005 10.1108 8.12005 9.79579C8.28005 9.38579 8.47005 9.09079 8.78005 8.78079C9.09005 8.47079 9.38505 8.28078 9.79505 8.12078C10.105 8.00078 10.575 7.85578 11.435 7.81578C12.25 7.77578 12.5651 7.76578 14.2101 7.76578ZM19.7101 9.23079C19.1251 9.23079 18.6501 9.70579 18.6501 10.2908C18.6501 10.8758 19.1251 11.3508 19.7101 11.3508C20.2951 11.3508 20.7701 10.8758 20.7701 10.2908C20.7701 9.70579 20.2951 9.23079 19.7101 9.23079ZM15.0001 10.4708C12.495 10.4708 10.47 12.5008 10.47 15.0008C10.47 17.5058 12.5 19.5308 15.0001 19.5308C17.5051 19.5308 19.5301 17.5008 19.5301 15.0008C19.5301 12.4958 17.5051 10.4708 15.0001 10.4708ZM15.0001 12.0608C16.6251 12.0608 17.9401 13.3758 17.9401 15.0008C17.9401 16.6258 16.6251 17.9408 15.0001 17.9408C13.3751 17.9408 12.06 16.6258 12.06 15.0008C12.06 13.3758 13.3751 12.0608 15.0001 12.0608Z" fill="white"/>
</svg>
