<svg width="90" height="90" viewBox="0 0 90 90" fill="none" xmlns="http://www.w3.org/2000/svg">
<path fill-rule="evenodd" clip-rule="evenodd" d="M62.5695 17.6552C64.6363 16.4099 67.0476 15.8439 69.4581 16.037C71.8686 16.2301 74.157 17.1725 75.9949 18.7313C77.8331 20.2901 79.1266 22.3857 79.6881 24.7188C80.2495 27.0519 80.0494 29.5009 79.117 31.7142C78.1867 33.9221 76.576 35.7809 74.5168 37.0275C73.2974 37.8182 71.9303 38.3585 70.4967 38.6166C69.3158 38.8292 68.1093 38.8469 66.9259 38.6706L60.9607 50.4878C62.0255 51.5185 62.8796 52.7469 63.4719 54.1061C64.1705 55.709 64.4861 57.4501 64.3937 59.1939C64.3013 60.9378 63.8035 62.6365 62.9396 64.1581C62.0758 65.6797 60.8693 66.9828 59.4148 67.967C57.9603 68.9511 56.2967 69.59 54.5533 69.8348C52.8099 70.0796 51.0328 69.9238 49.3598 69.3794C47.6867 68.8349 46.1622 67.9161 44.905 66.6936C43.6507 65.4738 42.6962 63.9844 42.1161 62.3401C41.5658 60.8843 41.3324 59.3295 41.4314 57.7777C41.5137 56.4874 41.8244 55.2238 42.3468 54.0439L35.0469 47.6118C33.3084 48.6048 31.3329 49.1308 29.3176 49.1313H29.31L29.3023 49.1312C28.6589 49.1215 28.0177 49.0611 27.3848 48.9508L12.3665 76.8262L9.94208 66.0945L21.0098 45.5607C19.9819 44.5115 19.1664 43.2733 18.6109 41.9128C17.955 40.306 17.6795 38.5716 17.8061 36.8426C17.9326 35.1136 18.4578 33.4368 19.3406 31.9406C20.2234 30.4445 21.4402 29.169 22.8971 28.2111C24.3539 27.2532 26.0124 26.6381 27.7455 26.4121C29.4786 26.1862 31.2411 26.3553 32.8982 26.9068C34.5554 27.4583 36.064 28.3777 37.3079 29.5954C38.549 30.8104 39.4938 32.2903 40.0696 33.9226C40.6199 35.3785 40.8533 36.9332 40.7543 38.485C40.6719 39.7753 40.3613 41.0388 39.8389 42.2188L47.1388 48.6509C48.8769 47.6581 50.8519 47.1321 52.8667 47.1313C53.4169 47.1298 53.9661 47.1688 54.5098 47.2477L60.4781 35.4241C58.9525 33.9342 57.8745 32.0457 57.3762 29.9696C56.8161 27.6361 57.0177 25.1872 57.9515 22.9745C58.8853 20.762 60.5025 18.9005 62.5695 17.6552ZM52.8667 47.1313C52.8672 47.1313 52.8676 47.1313 52.868 47.1313L52.8683 48.1313L52.8654 47.1313C52.8659 47.1313 52.8663 47.1313 52.8667 47.1313ZM69.2984 18.0306C67.3034 17.8708 65.3091 18.3395 63.6016 19.3683C61.8943 20.3969 60.5623 21.9321 59.7942 23.7522C59.0261 25.5721 58.8607 27.5849 59.321 29.5028C59.7813 31.4209 60.8444 33.1477 62.3602 34.4347L62.9606 34.9445L55.6103 49.5057L54.854 49.3413C54.2029 49.1998 53.538 49.1294 52.8712 49.1313L52.8686 49.1313C50.9859 49.1318 49.147 49.6865 47.5863 50.7234L46.9473 51.1478L37.3526 42.6937L37.7243 41.9959C38.325 40.8683 38.6772 39.6284 38.7583 38.3576C38.8394 37.0868 38.6476 35.8132 38.1952 34.6203L38.1909 34.6089L38.1869 34.5974C37.7136 33.2512 36.9347 32.0289 35.9088 31.0246C34.8828 30.0202 33.6372 29.2605 32.2667 28.8045C30.8963 28.3484 29.4381 28.2084 28.004 28.3954C26.57 28.5823 25.199 29.0911 23.9959 29.8822C22.7928 30.6732 21.7899 31.7252 21.0631 32.957C20.3363 34.1887 19.9048 35.5678 19.8008 36.9886C19.6968 38.4094 19.923 39.8352 20.4626 41.1569C21.0022 42.4787 21.841 43.6619 22.9158 44.6154L23.5081 45.1408L12.0579 66.3843L13.14 71.1739L26.3426 46.6685L27.0915 46.8486C27.8229 47.0246 28.572 47.1194 29.3247 47.1313C31.2047 47.1294 33.0408 46.5748 34.5994 45.5393L35.2383 45.1149L44.8331 53.569L44.4614 54.2667C43.8607 55.3943 43.5084 56.6343 43.4273 57.9051C43.3462 59.1759 43.538 60.4495 43.9904 61.6423L43.9948 61.6538L43.9988 61.6653C44.4756 63.0213 45.2625 64.2514 46.2993 65.2597C47.3362 66.268 48.5952 67.0273 49.9787 67.4775C51.3623 67.9278 52.8326 68.0568 54.2752 67.8543C55.7178 67.6517 57.0929 67.1232 58.294 66.3105C59.495 65.4979 60.4893 64.4232 61.2004 63.1707C61.9115 61.9182 62.3206 60.5212 62.3965 59.0881C62.4724 57.6551 62.2132 56.2238 61.6385 54.9051C61.0637 53.5864 60.1888 52.4154 59.0806 51.4836L58.4748 50.9742L65.8288 36.4056L66.5884 36.575C67.756 36.8353 68.9647 36.8603 70.1423 36.6482C71.3199 36.4362 72.4415 35.9917 73.4402 35.3419L73.4545 35.3326L73.469 35.3238C75.1757 34.2941 76.5069 32.7582 77.2739 30.9376C78.0408 29.1173 78.2051 27.1044 77.7436 25.1867C77.2821 23.2689 76.2179 21.5427 74.7013 20.2566C73.1846 18.9703 71.2934 18.1904 69.2984 18.0306ZM68.5689 23.2627C67.4424 23.2627 66.3643 23.7052 65.5713 24.4892C64.7786 25.2728 64.3354 26.3332 64.3354 27.4364C64.3354 28.2593 64.5822 29.0647 65.0459 29.7508C65.5097 30.437 66.1702 30.9736 66.9451 31.2909C67.7201 31.6082 68.5735 31.6914 69.397 31.5295C70.2204 31.3676 70.9752 30.9682 71.5665 30.3836C72.1578 29.7992 72.5591 29.0559 72.7215 28.2485C72.884 27.4411 72.8007 26.6042 72.4818 25.843C72.1627 25.0816 71.6217 24.429 70.9253 23.969C70.2288 23.5089 69.4088 23.2627 68.5689 23.2627ZM64.1652 23.0669C65.3351 21.9104 66.9194 21.2627 68.5689 21.2627C69.7992 21.2627 71.0029 21.6233 72.0277 22.3002C73.0526 22.9772 73.8532 23.9407 74.3264 25.0701C74.7996 26.1996 74.9237 27.4431 74.6822 28.643C74.4408 29.8428 73.8452 30.9433 72.9726 31.8059C72.1001 32.6685 70.9899 33.2546 69.7829 33.4919C68.5759 33.7293 67.3248 33.6076 66.1872 33.1417C65.0495 32.6759 64.0752 31.8862 63.3889 30.8708C62.7025 29.8552 62.3354 28.66 62.3354 27.4364C62.3354 25.7953 62.9949 24.2238 64.1652 23.0669ZM29.3174 33.6101C28.1909 33.6101 27.1128 34.0526 26.3197 34.8367C25.5271 35.6203 25.0838 36.6807 25.0838 37.7839C25.0838 38.6068 25.3306 39.4122 25.7944 40.0983C26.2582 40.7845 26.9186 41.3211 27.6935 41.6384C28.4685 41.9557 29.322 42.0389 30.1455 41.877C30.9689 41.7151 31.7237 41.3157 32.315 40.7311C32.9062 40.1466 33.3075 39.4034 33.47 38.596C33.6325 37.7886 33.5492 36.9517 33.2302 36.1904C32.9112 35.4291 32.3702 34.7765 31.6738 34.3165C30.9773 33.8564 30.1572 33.6101 29.3174 33.6101ZM24.9137 33.4143C26.0836 32.2578 27.6678 31.6101 29.3174 31.6101C30.5477 31.6101 31.7514 31.9708 32.7761 32.6477C33.8011 33.3247 34.6016 34.2881 35.0749 35.4175C35.5481 36.547 35.6721 37.7906 35.4307 38.9905C35.1893 40.1903 34.5937 41.2908 33.7211 42.1534C32.8486 43.0159 31.7383 43.6021 30.5313 43.8394C29.3244 44.0767 28.0733 43.955 26.9357 43.4892C25.7979 43.0233 24.8237 42.2336 24.1374 41.2182C23.4509 40.2027 23.0838 39.0075 23.0838 37.7839C23.0838 36.1428 23.7434 34.5712 24.9137 33.4143ZM52.8683 54.3051C52.0284 54.3051 51.2084 54.5513 50.5119 55.0114C49.8155 55.4714 49.2745 56.124 48.9555 56.8853C48.6365 57.6466 48.5532 58.4835 48.7157 59.2909C48.8781 60.0983 49.2794 60.8416 49.8707 61.426C50.462 62.0106 51.2168 62.41 52.0402 62.5719C52.8637 62.7338 53.7171 62.6506 54.4921 62.3333C55.267 62.016 55.9275 61.4794 56.3913 60.7932C56.855 60.1071 57.1018 59.3017 57.1018 58.4788C57.1018 57.3756 56.6586 56.3152 55.8659 55.5316C55.0729 54.7476 53.9948 54.3051 52.8683 54.3051ZM49.4095 53.3426C50.4343 52.6657 51.638 52.3051 52.8683 52.3051C54.5178 52.3051 56.1021 52.9528 57.272 54.1093C58.4423 55.2662 59.1018 56.8377 59.1018 58.4788C59.1018 59.7024 58.7347 60.8976 58.0483 61.9132C57.362 62.9286 56.3877 63.7183 55.25 64.1841C54.1124 64.65 52.8613 64.7717 51.6543 64.5343C50.4473 64.297 49.3371 63.7109 48.4646 62.8483C47.592 61.9857 46.9964 60.8852 46.755 59.6854C46.5135 58.4855 46.6376 57.242 47.1108 56.1125C47.5841 54.9831 48.3846 54.0196 49.4095 53.3426Z" fill="#024D81"/>
</svg>
