<svg width="90" height="90" viewBox="0 0 90 90" fill="none" xmlns="http://www.w3.org/2000/svg">
<path fill-rule="evenodd" clip-rule="evenodd" d="M47.2805 16.2875C47.2805 15.6808 47.04 15.099 46.6118 14.67C46.1837 14.241 45.603 14 44.9976 14C44.3921 14 43.8114 14.241 43.3833 14.67C42.9552 15.099 42.7146 15.6808 42.7146 16.2875V21.625H36.7059C35.6366 21.6245 34.5919 21.9465 33.7077 22.5491L28.5482 26.0688C28.4216 26.1548 28.272 26.2005 28.1191 26.2H15.6329C15.0274 26.2 14.4468 26.441 14.0186 26.87C13.5905 27.299 13.35 27.8808 13.35 28.4875C13.35 29.0942 13.5905 29.676 14.0186 30.105C14.4468 30.534 15.0274 30.775 15.6329 30.775H20.4332L10.1843 54.199C9.9907 54.6561 9.94832 55.1633 10.0634 55.6463C10.1784 56.1293 10.4448 56.5627 10.8235 56.883C11.067 57.0782 11.3136 57.2642 11.7641 57.557C12.3303 57.9261 13.1399 58.405 14.1749 58.8777C16.2447 59.8263 19.2339 60.7687 22.9292 60.7687C25.9488 60.7745 28.9344 60.1296 31.6835 58.8777C32.7184 58.405 33.5281 57.9261 34.0943 57.557C34.5508 57.2612 34.7944 57.0752 35.0379 56.8769C35.4196 56.5602 35.6882 56.1277 35.803 55.6446C35.9177 55.1615 35.8725 54.6541 35.6741 54.199L25.4221 30.775H28.1191C29.1875 30.775 30.2315 30.4517 31.1143 29.8508L36.2767 26.3312C36.4025 26.2458 36.551 26.2001 36.7029 26.2H42.7146V70.425H29.0566C28.4511 70.425 27.8704 70.666 27.4423 71.095C27.0142 71.524 26.7736 72.1058 26.7736 72.7125C26.7736 73.3192 27.0142 73.901 27.4423 74.33C27.8704 74.759 28.4511 75 29.0566 75H60.9386C61.544 75 62.1247 74.759 62.5528 74.33C62.981 73.901 63.2215 73.3192 63.2215 72.7125C63.2215 72.1058 62.981 71.524 62.5528 71.095C62.1247 70.666 61.544 70.425 60.9386 70.425H47.2805V26.2H53.2892C53.4414 26.2 53.5936 26.2458 53.7153 26.3312L58.8809 29.8508C59.7636 30.4517 60.8077 30.775 61.8761 30.775H64.573L54.3211 54.199C54.1161 54.6674 54.0737 55.1911 54.2006 55.6864C54.3275 56.1818 54.6164 56.6203 55.0212 56.9318C55.0577 56.9592 55.0212 56.9318 55.0273 56.9318C55.3292 57.1597 55.6443 57.3695 55.9709 57.5601C56.534 57.9017 57.3407 58.3409 58.3756 58.7801C61.128 59.9329 64.0828 60.5219 67.066 60.5125C70.0503 60.5214 73.0063 59.9313 75.7594 58.777C76.7882 58.3409 77.5979 57.9017 78.1641 57.5601C78.4895 57.3676 78.8045 57.1579 79.1077 56.9318C79.5125 56.6203 79.8014 56.1818 79.9283 55.6864C80.0552 55.1911 80.0128 54.6674 79.8078 54.199L69.562 30.775H74.3653C74.9708 30.775 75.5514 30.534 75.9796 30.105C76.4077 29.676 76.6482 29.0942 76.6482 28.4875C76.6482 27.8808 76.4077 27.299 75.9796 26.87C75.5514 26.441 74.9708 26.2 74.3653 26.2H61.8791C61.7272 26.1999 61.5788 26.1542 61.453 26.0688L56.2875 22.5491C55.4041 21.9471 54.3605 21.6251 53.2922 21.625H47.2805V16.2875ZM15.1459 54.2539C17.5417 55.5313 20.2152 56.1966 22.9292 56.1906C25.6431 56.1966 28.3166 55.5313 30.7125 54.2539L22.9292 36.4724L15.1459 54.2539ZM59.3131 54.1807C59.5627 54.3027 59.8428 54.4338 60.1502 54.565C61.7635 55.2451 64.1225 55.9375 67.066 55.9375C69.7494 55.9451 72.3998 55.3445 74.8188 54.1807L67.066 36.4693L59.3131 54.1807Z" stroke="#024D81" stroke-width="2"/>
</svg>
