<svg width="90" height="90" viewBox="0 0 90 90" fill="none" xmlns="http://www.w3.org/2000/svg">
<path d="M74 67.3333L71.48 69.6667L66.8 65.3333V79H63.2V65.3333L58.52 69.6667L56 67.3333L65 59L74 67.3333Z" stroke="#024D81" stroke-width="2"/>
<path d="M43.55 78.8333L18.4167 63.85C16.9667 62.8833 16 61.4333 16 59.7417V30.2583C16 28.5667 16.9667 26.875 18.4167 26.15L42.5833 11.8917C43.3083 11.4083 44.0333 11.1667 45 11.1667C45.9667 11.1667 46.6917 11.4083 47.4167 11.8917L71.5833 26.15C73.0333 27.1167 74 28.5667 74 30.2583V45H69.1667V30.2583L45 16L20.8333 30.2583V59.7417L46.2083 74.725L43.55 78.8333Z" stroke="#024D81" stroke-width="2"/>
<path d="M56.7071 37.7071C57.0976 37.3166 57.0976 36.6834 56.7071 36.2929L50.3431 29.9289C49.9526 29.5384 49.3195 29.5384 48.9289 29.9289C48.5384 30.3195 48.5384 30.9526 48.9289 31.3431L54.5858 37L48.9289 42.6569C48.5384 43.0474 48.5384 43.6805 48.9289 44.0711C49.3195 44.4616 49.9526 44.4616 50.3431 44.0711L56.7071 37.7071ZM34 38H56V36H34V38Z" fill="#024D81"/>
<path d="M33.2929 51.2929C32.9024 51.6834 32.9024 52.3166 33.2929 52.7071L39.6569 59.0711C40.0474 59.4616 40.6805 59.4616 41.0711 59.0711C41.4616 58.6805 41.4616 58.0474 41.0711 57.6569L35.4142 52L41.0711 46.3431C41.4616 45.9526 41.4616 45.3195 41.0711 44.9289C40.6805 44.5384 40.0474 44.5384 39.6569 44.9289L33.2929 51.2929ZM56 51L34 51L34 53L56 53L56 51Z" fill="#024D81"/>
</svg>
