<svg width="90" height="90" viewBox="0 0 90 90" fill="none" xmlns="http://www.w3.org/2000/svg">
<path d="M58.9444 11H30.0556C27.2635 11 25 13.2199 25 15.9583V74.0417C25 76.7801 27.2635 79 30.0556 79H58.9444C61.7365 79 64 76.7801 64 74.0417V15.9583C64 13.2199 61.7365 11 58.9444 11Z" stroke="#024D81" stroke-width="2" stroke-linecap="round" stroke-linejoin="round"/>
<path d="M18.5424 21.8029C18.5424 21.8029 12.9512 27.2694 11.1406 32.6684" stroke="#024D81" stroke-width="2" stroke-linecap="round"/>
<path d="M11.0027 57.5679C11.0027 57.5679 14.2248 64.698 18.6814 68.2394" stroke="#024D81" stroke-width="2" stroke-linecap="round"/>
<path d="M71.2383 21.8029C71.2383 21.8029 76.8295 27.2694 78.6401 32.6684" stroke="#024D81" stroke-width="2" stroke-linecap="round"/>
<path d="M78.7777 57.5701C78.7777 57.5701 75.5557 64.7004 71.0991 68.2416" stroke="#024D81" stroke-width="2" stroke-linecap="round"/>
<path d="M31.2061 58.1055C32.476 60.3825 34.3046 62.2986 36.5199 63.6734C38.735 65.0481 41.2638 65.8362 43.8677 65.9634C46.4718 66.0907 49.0653 65.5526 51.404 64.4004C53.7426 63.2481 55.7493 61.5194 57.2351 59.377" stroke="#024D81" stroke-width="2" stroke-linecap="round"/>
<path d="M31.2061 35.3772C32.476 33.1003 34.3046 31.1841 36.5199 29.8094C38.735 28.4346 41.2638 27.6465 43.8677 27.5193C46.4718 27.3921 49.0653 27.9298 51.404 29.082C53.7426 30.2343 55.7493 31.9634 57.2351 34.1056" stroke="#024D81" stroke-width="2" stroke-linecap="round"/>
<path fill-rule="evenodd" clip-rule="evenodd" d="M54.1083 50.7057C54.11 50.7006 54.1116 50.6956 54.1133 50.6906C54.092 50.6806 54.0708 50.6705 54.0497 50.6603C53.6205 50.4527 53.2511 50.2205 52.9332 49.9738C52.4632 49.6089 52.1058 49.212 51.8341 48.8151C51.8337 48.8145 51.8333 48.8139 51.8329 48.8133C51.4012 48.182 51.1864 47.5509 51.0801 47.0487C51.08 47.0482 51.0799 47.0477 51.0798 47.0472C50.9712 46.5334 50.9764 46.1549 50.979 46.05C50.9791 46.0452 50.9793 46.041 50.9794 46.0373C50.9796 46.0305 50.9797 46.0257 50.9797 46.023C50.9797 46.0184 50.9796 46.0138 50.9796 46.0091C50.9752 44.7812 51.3428 43.7528 52.084 42.8982C52.2859 42.6653 52.5156 42.4453 52.773 42.2377C52.8411 42.1828 52.9111 42.1288 52.9831 42.0756C53.1514 41.9513 53.3303 41.8316 53.5199 41.7164C53.4863 41.6683 53.4522 41.6209 53.4174 41.5744C53.0294 41.0549 52.5662 40.63 52.0296 40.2994C51.8442 40.1852 51.6501 40.0822 51.4473 39.9904C50.795 39.6953 50.0528 39.5163 49.2233 39.4527C49.2218 39.4526 49.2203 39.4525 49.2188 39.4523C49.2165 39.4522 49.2143 39.452 49.2121 39.4518C49.2066 39.4514 49.2011 39.451 49.1957 39.4506C48.9916 39.4358 48.7854 39.4379 48.5792 39.4534C48.5733 39.4538 48.5673 39.4543 48.5613 39.4547C47.8235 39.5127 47.0859 39.7394 46.4428 39.9672C46.4388 39.9686 46.4349 39.97 46.4309 39.9715C46.2613 40.0316 46.0984 40.0918 45.9438 40.1489C45.7608 40.2165 45.5894 40.2798 45.4327 40.3336C45.4297 40.3346 45.4266 40.3357 45.4235 40.3368C45.1331 40.4361 44.8936 40.5023 44.7234 40.5023C44.6557 40.5023 44.5802 40.4944 44.4979 40.4801C44.3479 40.4538 44.1754 40.4061 43.9861 40.3452C43.9845 40.3447 43.983 40.3442 43.9814 40.3437C43.8453 40.2999 43.7006 40.2494 43.5493 40.1953C43.5435 40.1932 43.5377 40.1911 43.5318 40.1891C43.4606 40.1636 43.388 40.1373 43.3142 40.1106C43.2222 40.0773 43.1283 40.0434 43.033 40.0094C43.0257 40.0068 43.0185 40.0042 43.0112 40.0016C42.8788 39.9545 42.7437 39.9074 42.6071 39.862C42.4215 39.8003 42.233 39.7417 42.0445 39.6904C42.0401 39.6892 42.0358 39.688 42.0315 39.6868C41.6422 39.5815 41.2529 39.5076 40.8885 39.5019C40.8734 39.5017 40.8584 39.5016 40.8434 39.5016C40.8342 39.5017 40.8251 39.5019 40.8159 39.5021C39.409 39.5307 37.9608 40.0946 36.8615 41.2084C36.8604 41.2095 36.8594 41.2106 36.8583 41.2116C35.7526 42.3336 35.0006 44.0126 35 46.2637C35 46.2646 35 46.2655 35 46.2664C35 47.5965 35.2428 48.9703 35.7284 50.385C35.729 50.3866 35.7295 50.3882 35.7301 50.3898C35.7303 50.3906 35.7306 50.3913 35.7308 50.392C36.0566 51.3246 36.8053 52.9314 37.7781 54.2964C37.7792 54.2979 37.7802 54.2994 37.7813 54.3009C38.2676 54.9826 38.8097 55.6036 39.383 56.0499C39.3855 56.0518 39.388 56.0538 39.3904 56.0557C39.6602 56.2648 39.9367 56.4352 40.2176 56.5549C40.2359 56.5627 40.2541 56.5703 40.2724 56.5777C40.4176 56.636 40.5638 56.6807 40.7108 56.71C40.7215 56.7121 40.7322 56.7142 40.7429 56.7162C40.8698 56.7396 40.9972 56.7515 41.125 56.7509C41.1355 56.7508 41.146 56.7507 41.1565 56.7505C41.1624 56.7503 41.1683 56.7502 41.1742 56.75C41.5965 56.7401 41.9779 56.6379 42.3593 56.5054C42.3665 56.5029 42.3737 56.5003 42.3809 56.4978C42.466 56.468 42.5511 56.4368 42.6368 56.4047C42.6416 56.4029 42.6464 56.4011 42.6513 56.3993C42.7039 56.3796 42.7567 56.3596 42.8099 56.3395C42.8466 56.3256 42.8834 56.3116 42.9205 56.2977C42.9475 56.2875 42.9747 56.2773 43.002 56.2671C43.2802 56.1632 43.5697 56.0615 43.8848 55.9836C43.8866 55.9831 43.8883 55.9827 43.8901 55.9822C44.2319 55.8981 44.6038 55.8422 45.0242 55.8422C45.4261 55.8422 45.7798 55.8983 46.1063 55.9827C46.1092 55.9834 46.1121 55.9842 46.1149 55.9849C46.441 56.0698 46.7401 56.1826 47.0333 56.2954C47.034 56.2957 47.0346 56.2959 47.0353 56.2962C47.0535 56.3032 47.0717 56.3102 47.0898 56.3172C47.1111 56.3254 47.1324 56.3336 47.1537 56.3418C47.1707 56.3484 47.1877 56.3549 47.2047 56.3614C47.2108 56.3638 47.217 56.3661 47.2231 56.3684C47.2402 56.375 47.2574 56.3815 47.2745 56.3881C47.771 56.5767 48.2673 56.7432 48.8672 56.7498C48.8795 56.7499 48.8919 56.75 48.9043 56.75C48.9218 56.7497 48.9393 56.7493 48.9567 56.7486C49.5546 56.7259 50.1316 56.4634 50.6711 56.0526C50.6722 56.0519 50.6732 56.0511 50.6742 56.0503C51.229 55.6272 51.7441 55.0473 52.2016 54.4102C52.2017 54.4102 52.2017 54.4101 52.2018 54.4101C52.6997 53.7165 53.1295 52.9552 53.4677 52.2544C53.7489 51.6717 53.9669 51.1309 54.1083 50.7057ZM48.8775 54.8905C48.881 54.8905 48.8844 54.8906 48.8879 54.8906C48.8933 54.8904 48.8987 54.8901 48.9043 54.8897C49.0517 54.8782 49.2675 54.7842 49.5441 54.5734C49.9051 54.2973 50.2988 53.868 50.6898 53.3238C51.0676 52.7981 51.4286 52.1794 51.7307 51.5724C51.7523 51.5291 51.7736 51.4858 51.7945 51.4426C51.7565 51.4131 51.719 51.3834 51.6818 51.3534C51.1354 50.9126 50.6752 50.4125 50.2988 49.8621C49.7711 49.0883 49.4375 48.2625 49.2625 47.4285C49.1497 46.8888 49.1161 46.4309 49.1226 46.0339C49.1227 46.0303 49.1228 46.0267 49.1228 46.023C49.1229 46.0194 49.123 46.0157 49.123 46.0121C49.1215 45.0698 49.2853 44.2021 49.6081 43.4132C49.8469 42.8299 50.1725 42.2898 50.5827 41.7944C50.6143 41.7563 50.6463 41.7184 50.6789 41.6809C50.6344 41.6606 50.5891 41.6412 50.543 41.6225C50.1225 41.4523 49.6367 41.348 49.0778 41.3036C49.0774 41.3036 49.077 41.3035 49.0766 41.3035C49.0753 41.3034 49.074 41.3033 49.0727 41.3032C48.9618 41.2953 48.8454 41.2954 48.7156 41.3062C48.6278 41.3127 48.5373 41.3231 48.4431 41.3375C48.0592 41.3963 47.6152 41.5221 47.0531 41.7219C47.0034 41.7392 46.863 41.7907 46.6994 41.8507C46.4493 41.9425 46.1451 42.0541 46.0277 42.0937C45.5109 42.2715 45.1473 42.3617 44.7234 42.3617C44.3051 42.3617 43.9195 42.2742 43.4219 42.1156C43.266 42.0664 43.1074 42.0117 42.8969 41.9352C42.8763 41.9275 42.7866 41.8951 42.6863 41.8589C42.5729 41.818 42.4462 41.7723 42.391 41.752C42.0437 41.6289 41.7867 41.5441 41.5516 41.4812C41.2626 41.4017 41.0328 41.3633 40.872 41.3586C40.867 41.3584 40.862 41.3583 40.857 41.3582C40.8525 41.3583 40.8479 41.3584 40.8434 41.3585C39.861 41.3838 38.8986 41.7909 38.1828 42.5148C37.3461 43.3652 36.8594 44.6176 36.8594 46.2637C36.8594 46.2646 36.8594 46.2655 36.8594 46.2664C36.8597 47.3829 37.0671 48.5539 37.4871 49.7767C37.4875 49.7778 37.4879 49.7789 37.4883 49.7801C37.4889 49.7817 37.4894 49.7834 37.49 49.7851C37.8325 50.7665 38.5423 52.1635 39.293 53.2172C39.7223 53.816 40.1434 54.2836 40.5262 54.5816C40.693 54.7102 40.8406 54.8004 40.9637 54.8496C41.0074 54.8687 41.0457 54.8797 41.0758 54.8852C41.0878 54.8876 41.1019 54.89 41.1181 54.8905C41.1204 54.8906 41.1227 54.8906 41.125 54.8906C41.1268 54.8906 41.1287 54.8906 41.1305 54.8905C41.2904 54.8869 41.47 54.8458 41.7512 54.7484C41.8195 54.7238 41.8934 54.6965 41.9891 54.6609C42.0017 54.6561 42.0212 54.6487 42.0443 54.6399C42.1264 54.6088 42.253 54.5607 42.268 54.5543C42.7355 54.3793 43.0555 54.2727 43.4355 54.177C43.9523 54.0484 44.4719 53.9801 45.0242 53.9801C45.5656 53.9801 46.0715 54.0512 46.5801 54.1824C46.9438 54.2781 47.2281 54.3766 47.7039 54.5598L47.8242 54.6062C47.8707 54.6227 47.9063 54.6363 47.9391 54.65C48.3974 54.8252 48.6351 54.8862 48.8775 54.8905ZM44.6038 38.443C44.6012 38.4625 44.5987 38.4821 44.5963 38.5017C44.596 38.5041 44.5957 38.5066 44.5954 38.5091C44.5601 38.8059 44.5535 39.1115 44.5785 39.425C44.627 39.4287 44.6753 39.4314 44.7234 39.433C45.0311 39.4433 45.3322 39.4115 45.6257 39.3413C45.9486 39.264 46.2622 39.1403 46.5647 38.9752C47.119 38.6728 47.6362 38.2316 48.1059 37.6832C48.1652 37.6127 48.2218 37.5425 48.2757 37.4726C48.6583 36.977 48.9078 36.4982 49.0688 36.059C49.3259 35.3574 49.3575 34.7568 49.3457 34.3499C49.3418 34.2149 49.3331 34.1013 49.3263 34.0123L49.3254 34C49.285 34.0023 49.2443 34.0054 49.2035 34.0093C48.5921 34.0667 47.9404 34.2891 47.3451 34.6139C46.776 34.9244 46.2586 35.3286 45.8773 35.7719C45.4368 36.2707 45.0862 36.8281 44.8584 37.4343C44.7905 37.6149 44.7335 37.8 44.6883 37.9891C44.6527 38.1379 44.6244 38.2893 44.6038 38.443Z" fill="#024D81"/>
</svg>
