<svg width="90" height="90" viewBox="0 0 90 90" fill="none" xmlns="http://www.w3.org/2000/svg">
<path d="M46.2605 68.9087L43.0075 68.9887L43.0599 65.7068L56.4942 52.2978L59.6983 55.4994L46.2605 68.9087ZM46.0529 69.1159C46.0532 69.1156 46.0534 69.1153 46.0537 69.1151L46.0529 69.1159Z" stroke="#024D81" stroke-width="2"/>
<line x1="25" y1="47" x2="43" y2="47" stroke="#024D81" stroke-width="2"/>
<line x1="25" y1="52" x2="37.75" y2="52" stroke="#024D81" stroke-width="2"/>
<line x1="25" y1="67" x2="37.75" y2="67" stroke="#024D81" stroke-width="2"/>
<line x1="25" y1="62" x2="33.25" y2="62" stroke="#024D81" stroke-width="2"/>
<line x1="25" y1="72" x2="30.25" y2="72" stroke="#024D81" stroke-width="2"/>
<line x1="25" y1="57" x2="41.5" y2="57" stroke="#024D81" stroke-width="2"/>
<path d="M58.9418 11H30.0529C27.2608 11 24.9973 13.2199 24.9973 15.9583V74.0417C24.9973 76.7801 27.2608 79 30.0529 79H58.9418C61.7338 79 63.9973 76.7801 63.9973 74.0417V15.9583C63.9973 13.2199 61.7338 11 58.9418 11Z" stroke="#024D81" stroke-width="2" stroke-linecap="round" stroke-linejoin="round"/>
<path fill-rule="evenodd" clip-rule="evenodd" d="M54.1083 33.7057C54.11 33.7006 54.1116 33.6956 54.1133 33.6906C54.092 33.6806 54.0708 33.6705 54.0497 33.6603C53.6205 33.4527 53.2511 33.2205 52.9332 32.9738C52.4632 32.6089 52.1058 32.212 51.8341 31.8151C51.8337 31.8145 51.8333 31.8139 51.8329 31.8133C51.4012 31.182 51.1864 30.5509 51.0801 30.0487C51.08 30.0482 51.0799 30.0477 51.0798 30.0472C50.9712 29.5334 50.9764 29.1549 50.979 29.05C50.9791 29.0452 50.9793 29.041 50.9794 29.0373C50.9796 29.0305 50.9797 29.0257 50.9797 29.023C50.9797 29.0184 50.9796 29.0138 50.9796 29.0091C50.9752 27.7812 51.3428 26.7528 52.084 25.8982C52.2859 25.6653 52.5156 25.4453 52.773 25.2377C52.8411 25.1828 52.9111 25.1288 52.9831 25.0756C53.1514 24.9513 53.3303 24.8316 53.5199 24.7164C53.4863 24.6683 53.4522 24.6209 53.4174 24.5744C53.0294 24.0549 52.5662 23.63 52.0296 23.2994C51.8442 23.1852 51.6501 23.0822 51.4473 22.9904C50.795 22.6953 50.0528 22.5163 49.2233 22.4527C49.2218 22.4526 49.2203 22.4525 49.2188 22.4523C49.2165 22.4522 49.2143 22.452 49.2121 22.4518C49.2066 22.4514 49.2011 22.451 49.1957 22.4506C48.9916 22.4358 48.7854 22.4379 48.5792 22.4534C48.5733 22.4538 48.5673 22.4543 48.5613 22.4547C47.8235 22.5127 47.0859 22.7394 46.4428 22.9672C46.4388 22.9686 46.4349 22.97 46.4309 22.9715C46.2613 23.0316 46.0984 23.0918 45.9438 23.1489C45.7608 23.2165 45.5894 23.2798 45.4327 23.3336C45.4297 23.3346 45.4266 23.3357 45.4235 23.3368C45.1331 23.4361 44.8936 23.5023 44.7234 23.5023C44.6557 23.5023 44.5802 23.4944 44.4979 23.4801C44.3479 23.4538 44.1754 23.4061 43.9861 23.3452C43.9845 23.3447 43.983 23.3442 43.9814 23.3437C43.8453 23.2999 43.7006 23.2494 43.5493 23.1953C43.5435 23.1932 43.5377 23.1911 43.5318 23.1891C43.4606 23.1636 43.388 23.1373 43.3142 23.1106C43.2222 23.0773 43.1283 23.0434 43.033 23.0094C43.0257 23.0068 43.0185 23.0042 43.0112 23.0016C42.8788 22.9545 42.7437 22.9074 42.6071 22.862C42.4215 22.8003 42.233 22.7417 42.0445 22.6904C42.0401 22.6892 42.0358 22.688 42.0315 22.6868C41.6422 22.5815 41.2529 22.5076 40.8885 22.5019C40.8734 22.5017 40.8584 22.5016 40.8434 22.5016C40.8342 22.5017 40.8251 22.5019 40.8159 22.5021C39.409 22.5307 37.9608 23.0946 36.8615 24.2084C36.8604 24.2095 36.8594 24.2106 36.8583 24.2116C35.7526 25.3336 35.0006 27.0126 35 29.2637C35 29.2646 35 29.2655 35 29.2664C35 30.5965 35.2428 31.9703 35.7284 33.385C35.729 33.3866 35.7295 33.3882 35.7301 33.3898C35.7303 33.3906 35.7306 33.3913 35.7308 33.392C36.0566 34.3246 36.8053 35.9314 37.7781 37.2964C37.7792 37.2979 37.7802 37.2994 37.7813 37.3009C38.2676 37.9826 38.8097 38.6036 39.383 39.0499C39.3855 39.0518 39.388 39.0538 39.3904 39.0557C39.6602 39.2648 39.9367 39.4352 40.2176 39.5549C40.2359 39.5627 40.2541 39.5703 40.2724 39.5777C40.4176 39.636 40.5638 39.6807 40.7108 39.71C40.7215 39.7121 40.7322 39.7142 40.7429 39.7162C40.8698 39.7396 40.9972 39.7515 41.125 39.7509C41.1355 39.7508 41.146 39.7507 41.1565 39.7505C41.1624 39.7503 41.1683 39.7502 41.1742 39.75C41.5965 39.7401 41.9779 39.6379 42.3593 39.5054C42.3665 39.5029 42.3737 39.5003 42.3809 39.4978C42.466 39.468 42.5511 39.4368 42.6368 39.4047C42.6416 39.4029 42.6464 39.4011 42.6513 39.3993C42.7039 39.3796 42.7567 39.3596 42.8099 39.3395C42.8466 39.3256 42.8834 39.3116 42.9205 39.2977C42.9475 39.2875 42.9747 39.2773 43.002 39.2671C43.2802 39.1632 43.5697 39.0615 43.8848 38.9836C43.8866 38.9831 43.8883 38.9827 43.8901 38.9822C44.2319 38.8981 44.6038 38.8422 45.0242 38.8422C45.4261 38.8422 45.7798 38.8983 46.1063 38.9827C46.1092 38.9834 46.1121 38.9842 46.1149 38.9849C46.441 39.0698 46.7401 39.1826 47.0333 39.2954C47.034 39.2957 47.0346 39.2959 47.0353 39.2962C47.0535 39.3032 47.0717 39.3102 47.0898 39.3172C47.1111 39.3254 47.1324 39.3336 47.1537 39.3418C47.1707 39.3484 47.1877 39.3549 47.2047 39.3614C47.2108 39.3638 47.217 39.3661 47.2231 39.3684C47.2402 39.375 47.2574 39.3815 47.2745 39.3881C47.771 39.5767 48.2673 39.7432 48.8672 39.7498C48.8795 39.7499 48.8919 39.75 48.9043 39.75C48.9218 39.7497 48.9393 39.7493 48.9567 39.7486C49.5546 39.7259 50.1316 39.4634 50.6711 39.0526C50.6722 39.0519 50.6732 39.0511 50.6742 39.0503C51.229 38.6272 51.7441 38.0473 52.2016 37.4102C52.2017 37.4102 52.2017 37.4101 52.2018 37.4101C52.6997 36.7165 53.1295 35.9552 53.4677 35.2544C53.7489 34.6717 53.9669 34.1309 54.1083 33.7057ZM48.8775 37.8905C48.881 37.8905 48.8844 37.8906 48.8879 37.8906C48.8933 37.8904 48.8987 37.8901 48.9043 37.8897C49.0517 37.8782 49.2675 37.7842 49.5441 37.5734C49.9051 37.2973 50.2988 36.868 50.6898 36.3238C51.0676 35.7981 51.4286 35.1794 51.7307 34.5724C51.7523 34.5291 51.7736 34.4858 51.7945 34.4426C51.7565 34.4131 51.719 34.3834 51.6818 34.3534C51.1354 33.9126 50.6752 33.4125 50.2988 32.8621C49.7711 32.0883 49.4375 31.2625 49.2625 30.4285C49.1497 29.8888 49.1161 29.4309 49.1226 29.0339C49.1227 29.0303 49.1228 29.0267 49.1228 29.023C49.1229 29.0194 49.123 29.0157 49.123 29.0121C49.1215 28.0698 49.2853 27.2021 49.6081 26.4132C49.8469 25.8299 50.1725 25.2898 50.5827 24.7944C50.6143 24.7563 50.6463 24.7184 50.6789 24.6809C50.6344 24.6606 50.5891 24.6412 50.543 24.6225C50.1225 24.4523 49.6367 24.348 49.0778 24.3036C49.0774 24.3036 49.077 24.3035 49.0766 24.3035C49.0753 24.3034 49.074 24.3033 49.0727 24.3032C48.9618 24.2953 48.8454 24.2954 48.7156 24.3062C48.6278 24.3127 48.5373 24.3231 48.4431 24.3375C48.0592 24.3963 47.6152 24.5221 47.0531 24.7219C47.0034 24.7392 46.863 24.7907 46.6994 24.8507C46.4493 24.9425 46.1451 25.0541 46.0277 25.0937C45.5109 25.2715 45.1473 25.3617 44.7234 25.3617C44.3051 25.3617 43.9195 25.2742 43.4219 25.1156C43.266 25.0664 43.1074 25.0117 42.8969 24.9352C42.8763 24.9275 42.7866 24.8951 42.6863 24.8589C42.5729 24.818 42.4462 24.7723 42.391 24.752C42.0437 24.6289 41.7867 24.5441 41.5516 24.4812C41.2626 24.4017 41.0328 24.3633 40.872 24.3586C40.867 24.3584 40.862 24.3583 40.857 24.3582C40.8525 24.3583 40.8479 24.3584 40.8434 24.3585C39.861 24.3838 38.8986 24.7909 38.1828 25.5148C37.3461 26.3652 36.8594 27.6176 36.8594 29.2637C36.8594 29.2646 36.8594 29.2655 36.8594 29.2664C36.8597 30.3829 37.0671 31.5539 37.4871 32.7767C37.4875 32.7778 37.4879 32.7789 37.4883 32.7801C37.4889 32.7817 37.4894 32.7834 37.49 32.7851C37.8325 33.7665 38.5423 35.1635 39.293 36.2172C39.7223 36.816 40.1434 37.2836 40.5262 37.5816C40.693 37.7102 40.8406 37.8004 40.9637 37.8496C41.0074 37.8687 41.0457 37.8797 41.0758 37.8852C41.0878 37.8876 41.1019 37.89 41.1181 37.8905C41.1204 37.8906 41.1227 37.8906 41.125 37.8906C41.1268 37.8906 41.1287 37.8906 41.1305 37.8905C41.2904 37.8869 41.47 37.8458 41.7512 37.7484C41.8195 37.7238 41.8934 37.6965 41.9891 37.6609C42.0017 37.6561 42.0212 37.6487 42.0443 37.6399C42.1264 37.6088 42.253 37.5607 42.268 37.5543C42.7355 37.3793 43.0555 37.2727 43.4355 37.177C43.9523 37.0484 44.4719 36.9801 45.0242 36.9801C45.5656 36.9801 46.0715 37.0512 46.5801 37.1824C46.9438 37.2781 47.2281 37.3766 47.7039 37.5598L47.8242 37.6062C47.8707 37.6227 47.9063 37.6363 47.9391 37.65C48.3974 37.8252 48.6351 37.8862 48.8775 37.8905ZM44.6038 21.443C44.6012 21.4625 44.5987 21.4821 44.5963 21.5017C44.596 21.5041 44.5957 21.5066 44.5954 21.5091C44.5601 21.8059 44.5535 22.1115 44.5785 22.425C44.627 22.4287 44.6753 22.4314 44.7234 22.433C45.0311 22.4433 45.3322 22.4115 45.6257 22.3413C45.9486 22.264 46.2622 22.1403 46.5647 21.9752C47.119 21.6728 47.6362 21.2316 48.1059 20.6832C48.1652 20.6127 48.2218 20.5425 48.2757 20.4726C48.6583 19.977 48.9078 19.4982 49.0688 19.059C49.3259 18.3574 49.3575 17.7568 49.3457 17.3499C49.3418 17.2149 49.3331 17.1013 49.3263 17.0123L49.3254 17C49.285 17.0023 49.2443 17.0054 49.2035 17.0093C48.5921 17.0667 47.9404 17.2891 47.3451 17.6139C46.776 17.9244 46.2586 18.3286 45.8773 18.7719C45.4368 19.2707 45.0862 19.8281 44.8584 20.4343C44.7905 20.6149 44.7335 20.8 44.6883 20.9891C44.6527 21.1379 44.6244 21.2893 44.6038 21.443Z" fill="#024D81"/>
</svg>
