<svg width="90" height="90" viewBox="0 0 90 90" fill="none" xmlns="http://www.w3.org/2000/svg">
<path d="M64.8183 37.3492C63.8017 32.1871 60.9896 27.5332 56.8642 24.1855C52.7387 20.8377 47.5569 19.0044 42.2068 19V23.5217C46.4868 23.5274 50.6318 24.9947 53.9323 27.6726C57.2329 30.3505 59.4839 34.0725 60.3001 38.2016L60.8959 41.2447L63.9993 41.7986C67.1068 42.3514 69.8918 44.0259 71.8075 46.4933C73.7231 48.9607 74.631 52.0428 74.3529 55.1344C74.0748 58.226 72.6308 61.1037 70.3044 63.2026C67.978 65.3014 64.9373 66.4698 61.7793 66.4783H42.2068V71H61.7793C66.0861 70.9908 70.2337 69.3994 73.4075 66.5383C76.5814 63.6773 78.552 59.7534 78.9325 55.5373C79.313 51.3213 78.0757 47.1178 75.4637 43.7524C72.8517 40.3871 69.0538 38.1032 64.816 37.3492H64.8183ZM23.8029 61.9565H37.6058V66.4783H23.8029V61.9565ZM14.601 61.9565H19.2019V66.4783H14.601V61.9565ZM19.2019 52.913H37.6058V57.4348H19.2019V52.913ZM10 52.913H14.601V57.4348H10V52.913ZM23.8029 43.8696H37.6058V48.3913H23.8029V43.8696ZM14.601 43.8696H19.2019V48.3913H14.601V43.8696ZM28.4039 34.8261H37.6058V39.3478H28.4039V34.8261ZM19.2019 34.8261H23.8029V39.3478H19.2019V34.8261ZM33.0049 25.7826H37.6058V30.3043H33.0049V25.7826Z" stroke="#024D81" stroke-width="2"/>
</svg>
