<svg width="90" height="90" viewBox="0 0 90 90" fill="none" xmlns="http://www.w3.org/2000/svg">
<path d="M58.9418 11H30.0529C27.2608 11 24.9973 13.2199 24.9973 15.9583V74.0417C24.9973 76.7801 27.2608 79 30.0529 79H58.9418C61.7338 79 63.9973 76.7801 63.9973 74.0417V15.9583C63.9973 13.2199 61.7338 11 58.9418 11Z" stroke="#024D81" stroke-width="2" stroke-linecap="round" stroke-linejoin="round"/>
<path d="M18.5397 21.8027C18.5397 21.8027 12.9486 27.2693 11.1379 32.6683" stroke="#024D81" stroke-width="2" stroke-linecap="round"/>
<path d="M11 57.5684C11 57.5684 14.2221 64.6985 18.6787 68.2399" stroke="#024D81" stroke-width="2" stroke-linecap="round"/>
<path d="M71.2356 21.8027C71.2356 21.8027 76.8268 27.2693 78.6374 32.6683" stroke="#024D81" stroke-width="2" stroke-linecap="round"/>
<path d="M78.7751 57.5703C78.7751 57.5703 75.5531 64.7006 71.0964 68.2419" stroke="#024D81" stroke-width="2" stroke-linecap="round"/>
<path d="M35.8421 47.3969V59.4212H33.1579V47.3969H35.8421ZM60 47.3969V50.0689H57.3158V59.4212H54.6316V50.0689H51.9474V47.3969H60ZM45.2368 44.7248C47.1173 44.7348 48.9578 45.2664 50.5516 46.2599L52.4936 44.3227C50.3622 42.8503 47.8311 42.0586 45.2368 42.0527C42.6771 42.0577 40.1799 42.8408 38.0794 44.2973L40.0241 46.2385C41.5855 45.2591 43.3913 44.7347 45.2368 44.7248V44.7248Z" stroke="#024D81"/>
<path d="M44.9496 39.1148C48.259 39.1214 51.4788 40.1513 54.1347 42.0527L56.0526 40.2019C52.8779 37.824 48.9717 36.5308 44.9496 36.5264C40.9623 36.5312 37.0907 37.8165 33.9474 40.1787L35.8639 42.0294C38.4888 40.1433 41.6745 39.1214 44.9496 39.1148V39.1148Z" stroke="#024D81"/>
<path d="M44.9499 33.7067C49.7207 33.7075 54.3484 35.3356 58.0676 38.3218L60 36.3878C55.7775 32.9087 50.4765 31.0042 45.0041 31C39.5317 30.9958 34.2279 32.8922 30 36.3648L31.9324 38.2988C35.6203 35.3286 40.2136 33.7082 44.9499 33.7067V33.7067ZM44.9499 47.2406C43.7447 47.2406 42.5665 47.5978 41.5644 48.267C40.5623 48.9362 39.7813 49.8873 39.32 51.0002C38.8588 52.113 38.7382 53.3376 38.9733 54.519C39.2084 55.7004 39.7888 56.7855 40.641 57.6373C41.4932 58.489 42.579 59.069 43.7611 59.304C44.9431 59.539 46.1684 59.4184 47.2819 58.9575C48.3953 58.4965 49.347 57.7159 50.0166 56.7144C50.6862 55.7128 51.0436 54.5354 51.0436 53.3308C51.0436 51.7156 50.4016 50.1665 49.2588 49.0244C48.116 47.8822 46.566 47.2406 44.9499 47.2406V47.2406ZM44.9499 56.7143C44.2803 56.7143 43.6258 56.5158 43.0691 56.1441C42.5123 55.7723 42.0784 55.2439 41.8222 54.6256C41.566 54.0074 41.4989 53.3271 41.6296 52.6707C41.7602 52.0144 42.0826 51.4115 42.5561 50.9384C43.0295 50.4652 43.6327 50.1429 44.2894 50.0124C44.9461 49.8818 45.6268 49.9488 46.2454 50.2049C46.864 50.461 47.3928 50.8947 47.7647 51.4511C48.1367 52.0075 48.3353 52.6616 48.3353 53.3308C48.3353 54.2282 47.9786 55.0888 47.3437 55.7233C46.7088 56.3578 45.8478 56.7143 44.9499 56.7143V56.7143Z" stroke="#024D81"/>
</svg>
