<svg width="90" height="90" viewBox="0 0 90 90" fill="none" xmlns="http://www.w3.org/2000/svg">
<path d="M24.1447 49.8915V76.9461H18.1053V49.8915H24.1447ZM78.4999 49.8915V55.9036H72.4604V76.9461H66.421V55.9036H60.3815V49.8915H78.4999ZM45.2828 43.8793C49.5139 43.9018 53.6549 45.0978 57.241 47.3333L61.6105 42.9745C56.8149 39.6617 51.12 37.8804 45.2828 37.8672C39.5234 37.8785 33.9047 39.6404 29.1786 42.9174L33.5542 47.2852C37.0674 45.0815 41.1304 43.9016 45.2828 43.8793V43.8793Z" stroke="#024D81" stroke-width="2"/>
<path d="M44.6365 31.2556C52.0828 31.2705 59.3273 33.5877 65.303 37.8658L69.6183 33.7017C62.4752 28.3512 53.6863 25.4417 44.6365 25.4316C35.6653 25.4426 26.954 28.3344 19.8816 33.6493L24.1939 37.8134C30.0997 33.5698 37.2677 31.2704 44.6365 31.2556V31.2556Z" stroke="#024D81" stroke-width="2"/>
<path d="M44.6372 19.0902C55.3715 19.0918 65.7837 22.755 74.152 29.474L78.4999 25.1225C68.9992 17.2947 57.0722 13.0095 44.7592 13C32.4463 12.9906 20.5127 17.2575 11 25.0708L15.3479 29.4222C23.6456 22.7393 33.9806 19.0935 44.6372 19.0902V19.0902ZM44.6372 49.5413C41.9255 49.5413 39.2746 50.3449 37.0199 51.8506C34.7652 53.3563 33.0078 55.4965 31.9701 58.0004C30.9323 60.5042 30.6608 63.2595 31.1898 65.9176C31.7189 68.5757 33.0247 71.0173 34.9422 72.9337C36.8597 74.8501 39.3027 76.1552 41.9624 76.684C44.622 77.2127 47.3788 76.9413 49.8841 75.9042C52.3894 74.867 54.5308 73.1107 56.0373 70.8572C57.5439 68.6038 58.348 65.9545 58.348 63.2443C58.348 59.61 56.9035 56.1246 54.3322 53.5548C51.7609 50.985 48.2735 49.5413 44.6372 49.5413V49.5413ZM44.6372 70.857C43.1307 70.857 41.658 70.4106 40.4054 69.5741C39.1527 68.7376 38.1764 67.5486 37.5999 66.1575C37.0234 64.7665 36.8725 63.2358 37.1664 61.7591C37.4604 60.2823 38.1858 58.9259 39.2511 57.8612C40.3164 56.7965 41.6736 56.0715 43.1512 55.7778C44.6288 55.484 46.1603 55.6348 47.5522 56.211C48.944 56.7872 50.1336 57.7629 50.9706 59.0148C51.8076 60.2667 52.2543 61.7386 52.2543 63.2443C52.2543 65.2633 51.4518 67.1996 50.0233 68.6273C48.5948 70.055 46.6574 70.857 44.6372 70.857V70.857Z" stroke="#024D81" stroke-width="2"/>
</svg>
