<svg width="174" height="174" viewBox="0 0 174 174" fill="none" xmlns="http://www.w3.org/2000/svg">
<g filter="url(#filter0_d_1837_1422)">
<rect x="86.7109" y="16" width="100" height="100" rx="10" transform="rotate(45 86.7109 16)" fill="white"/>
</g>
<path d="M113.676 56.5081H60.3222C56.1082 56.5081 52.6992 59.9241 52.6992 64.1311V98.4311C52.6992 102.638 56.1082 106.054 60.3222 106.054H83.1912V113.677H67.9452V117.485H106.053V113.677H90.8072V106.054H113.676C117.883 106.054 121.299 102.645 121.299 98.4311V64.1311C121.299 59.9241 117.89 56.5081 113.676 56.5081ZM68.1132 90.3321H64.2492V71.2781H68.1132V90.3321ZM89.5542 87.7911C87.9442 89.4851 85.7462 90.3321 82.9462 90.3321C80.1392 90.3321 77.9412 89.4711 76.3382 87.7561C74.7422 86.0411 73.9442 83.7241 73.9442 80.8051C73.9442 77.8651 74.7422 75.5411 76.3382 73.8331C77.9342 72.1251 80.1392 71.2711 82.9462 71.2711C85.7462 71.2711 87.9442 72.1181 89.5542 73.8191C91.1642 75.5201 91.9622 77.8441 91.9622 80.8051C91.9692 83.7731 91.1642 86.0971 89.5542 87.7911ZM111.772 75.0511H105.745V90.3321H101.643V75.0511H94.1812L94.2022 71.2781H111.772V75.0511ZM83.1352 75.6251C84.6192 75.6251 78.7812 74.5471 78.7812 80.9731C78.7812 80.4131 78.2632 86.3071 83.1352 86.3071C81.7702 86.3071 87.4752 87.2661 87.4752 80.9591C87.4752 81.5541 87.9722 75.6251 83.1352 75.6251Z" fill="#024D81"/>
<defs>
<filter id="filter0_d_1837_1422" x="0.142578" y="0.14209" width="173.137" height="173.137" filterUnits="userSpaceOnUse" color-interpolation-filters="sRGB">
<feFlood flood-opacity="0" result="BackgroundImageFix"/>
<feColorMatrix in="SourceAlpha" type="matrix" values="0 0 0 0 0 0 0 0 0 0 0 0 0 0 0 0 0 0 127 0" result="hardAlpha"/>
<feOffset/>
<feGaussianBlur stdDeviation="10"/>
<feComposite in2="hardAlpha" operator="out"/>
<feColorMatrix type="matrix" values="0 0 0 0 0 0 0 0 0 0 0 0 0 0 0 0 0 0 0.1 0"/>
<feBlend mode="normal" in2="BackgroundImageFix" result="effect1_dropShadow_1837_1422"/>
<feBlend mode="normal" in="SourceGraphic" in2="effect1_dropShadow_1837_1422" result="shape"/>
</filter>
</defs>
</svg>
