<svg width="90" height="90" viewBox="0 0 90 90" fill="none" xmlns="http://www.w3.org/2000/svg">
<path d="M47.2941 80L46.3971 69.5H45.5C37.0078 69.5 29.8015 66.6125 23.8809 60.8375C17.9603 55.0625 15 48.0333 15 39.75C15 31.4667 17.9603 24.4375 23.8809 18.6625C29.8015 12.8875 37.0078 10 45.5 10C49.7461 10 53.7075 10.7723 57.3842 12.317C61.0634 13.864 64.294 15.9932 67.0761 18.7045C69.8557 21.4182 72.0374 24.5682 73.621 28.1545C75.207 31.7432 76 35.6083 76 39.75C76 48.6167 73.2789 56.564 67.8368 63.592C62.3946 70.6223 55.5471 76.0917 47.2941 80ZM54.4706 62.5V67.225C58.7167 63.725 62.1697 59.6277 64.8298 54.933C67.4923 50.236 68.8235 45.175 68.8235 39.75C68.8235 33.3917 66.5665 28.0098 62.0525 23.6045C57.5361 19.2015 52.0186 17 45.5 17C38.9814 17 33.4651 19.2015 28.9511 23.6045C24.4347 28.0098 22.1765 33.3917 22.1765 39.75C22.1765 46.1083 24.4347 51.4902 28.9511 55.8955C33.4651 60.2985 38.9814 62.5 45.5 62.5H54.4706Z" stroke="#024D81" stroke-width="2"/>
<path d="M47.5517 54.1278C46.9655 54.7093 46.2572 55 45.4267 55C44.5963 55 43.8879 54.7093 43.3017 54.1278C42.7155 53.5464 42.4224 52.8438 42.4224 52.0201C42.4224 51.1963 42.7155 50.4937 43.3017 49.9123C43.8879 49.3308 44.5963 49.0401 45.4267 49.0401C46.2572 49.0401 46.9655 49.3308 47.5517 49.9123C48.1379 50.4937 48.431 51.1963 48.431 52.0201C48.431 52.8438 48.1379 53.5464 47.5517 54.1278Z" stroke="#024D81" stroke-width="2"/>
<path d="M47.6983 45.7694H43.3017C43.3017 43.589 43.4854 42.0743 43.8528 41.2254C44.2182 40.3784 45.2557 39.2281 46.9655 37.7744C47.6494 37.0961 48.2356 36.4293 48.7241 35.7742C49.2126 35.1211 49.4569 34.3826 49.4569 33.5589C49.4569 32.6867 49.1276 31.8872 48.4691 31.1604C47.8087 30.4336 46.819 30.0702 45.5 30.0702C44.181 30.0702 43.1796 30.4694 42.4957 31.268C41.8118 32.0684 41.3477 32.8805 41.1034 33.7043L37 32.1053C37.5862 30.4094 38.6121 28.9674 40.0776 27.7792C41.5431 26.5931 43.3506 26 45.5 26C47.796 26 49.7871 26.6173 51.4734 27.8519C53.1578 29.0885 54 30.9424 54 33.4135C54 34.5764 53.7069 35.6667 53.1207 36.6842C52.5345 37.7018 51.8017 38.6466 50.9224 39.5188C49.3592 41.0693 48.431 42.1353 48.1379 42.7168C47.8448 43.2982 47.6983 44.3158 47.6983 45.7694Z" stroke="#024D81" stroke-width="2"/>
</svg>
