<svg width="90" height="90" viewBox="0 0 90 90" fill="none" xmlns="http://www.w3.org/2000/svg">
<path d="M60.7761 30.0488C62.0429 31.5998 63.2194 33.2224 64.2996 34.9086C67.4719 34.9042 70.5839 35.7737 73.2945 37.4218C77.2613 39.9085 80.865 46.2152 77.9247 53.8245C76.7075 56.7862 74.4374 59.1925 71.5513 60.5796" stroke="#024D81" stroke-width="2" stroke-linecap="round" stroke-linejoin="round"/>
<path d="M22.4986 38.083C22.4185 38.2833 21.8312 42.3156 21.8312 42.3156C21.8312 42.3156 20.5418 42.2822 18.525 42.3156C17.3109 42.5008 16.1486 42.9364 15.1118 43.5947C14.075 44.253 13.1862 45.1196 12.5022 46.1395C11.818 47.1596 11.3534 48.3105 11.1377 49.5195C10.922 50.7286 10.9601 51.9695 11.2493 53.1631C11.5386 54.8181 12.1692 56.3949 13.1008 57.7931C14.2308 59.6997 15.8967 61.2313 17.891 62.1977" stroke="#024D81" stroke-width="2" stroke-linecap="round" stroke-linejoin="round"/>
<path d="M26.5241 59.6643L38.5061 51.042" stroke="#024D81" stroke-width="2" stroke-linecap="round"/>
<path d="M22.5998 66.2877C24.8254 66.2877 26.6295 64.4836 26.6295 62.2582C26.6295 60.0326 24.8254 58.2285 22.5998 58.2285C20.3744 58.2285 18.5703 60.0326 18.5703 62.2582C18.5703 64.4836 20.3744 66.2877 22.5998 66.2877Z" stroke="#024D81" stroke-width="2" stroke-linecap="round" stroke-linejoin="round"/>
<path d="M38.8029 59.1536L39.3581 58.2744L35.7871 64.0707" stroke="#024D81" stroke-width="2" stroke-linecap="round" stroke-linejoin="round"/>
<path d="M33.829 70.0071C35.4489 70.0071 36.7621 68.6938 36.7621 67.0738C36.7621 65.4539 35.4489 64.1406 33.829 64.1406C32.209 64.1406 30.8957 65.4539 30.8957 67.0738C30.8957 68.6938 32.209 70.0071 33.829 70.0071Z" stroke="#024D81" stroke-width="2" stroke-linecap="round" stroke-linejoin="round"/>
<path d="M50.4218 59.1536L49.8665 58.2744L53.4376 64.0707" stroke="#024D81" stroke-width="2" stroke-linecap="round" stroke-linejoin="round"/>
<path d="M55.3961 70.0071C53.7761 70.0071 52.463 68.6938 52.463 67.0738C52.463 65.4539 53.7761 64.1406 55.3961 64.1406C57.0161 64.1406 58.3293 65.4539 58.3293 67.0738C58.3293 68.6938 57.0161 70.0071 55.3961 70.0071Z" stroke="#024D81" stroke-width="2" stroke-linecap="round" stroke-linejoin="round"/>
<path d="M44.9612 69.9559L44.966 53.6924" stroke="#024D81" stroke-width="2" stroke-linecap="round"/>
<path d="M48.0055 74.2598C48.0055 72.2971 46.4144 70.7061 44.4517 70.7061C42.4889 70.7061 40.8979 72.2971 40.8979 74.2598C40.8979 76.2225 42.4889 77.8136 44.4517 77.8136C46.4144 77.8136 48.0055 76.2225 48.0055 74.2598Z" stroke="#024D81" stroke-width="2" stroke-linecap="round" stroke-linejoin="round"/>
<path d="M62.5205 58.8364L49.8446 50.626" stroke="#024D81" stroke-width="2" stroke-linecap="round"/>
<path d="M70.4517 60.1434C69.8444 57.8785 67.5161 56.5347 65.2512 57.142C62.9863 57.7492 61.6425 60.0776 62.2497 62.3425C62.857 64.6073 65.1853 65.9511 67.4502 65.3438C69.7151 64.7366 71.0589 62.4082 70.4517 60.1434Z" stroke="#024D81" stroke-width="2" stroke-linecap="round" stroke-linejoin="round"/>
<path d="M27.8482 33.4917C30.8709 29.0451 35.3565 25.7985 40.5249 24.3164C45.6934 22.8344 51.2177 23.2107 56.1375 25.3798" stroke="#024D81" stroke-width="2" stroke-linecap="round" stroke-linejoin="round"/>
<path d="M18.6102 28.4227C22.9977 21.5632 29.7373 16.54 37.5647 14.2956C45.392 12.0511 53.7693 12.7395 61.1253 16.2317" stroke="#024D81" stroke-width="2" stroke-linecap="round" stroke-linejoin="round"/>
<path d="M36.9914 38.6099C38.6156 36.576 40.8326 35.0979 43.3346 34.3804C45.8367 33.6629 48.5001 33.7417 50.9553 34.6059" stroke="#024D81" stroke-width="2" stroke-linecap="round" stroke-linejoin="round"/>
</svg>
