<svg width="90" height="90" viewBox="0 0 90 90" fill="none" xmlns="http://www.w3.org/2000/svg">
<g clip-path="url(#clip0_362_74)">
<path d="M31.6254 15.375H32.3303L32.5672 14.7112C32.954 13.6275 33.6711 12.6878 34.6215 12.0225C35.572 11.3571 36.7085 10.9994 37.8745 11H37.875L51.125 11L51.1255 11C52.2915 10.9994 53.428 11.3571 54.3785 12.0225C55.3289 12.6878 56.046 13.6275 56.4328 14.7112L56.6697 15.375H57.3746H64.375C65.8699 15.375 67.3017 15.9633 68.3558 17.0076C69.4097 18.0515 70 19.4653 70 20.9375V73.4375C70 74.9097 69.4097 76.3235 68.3558 77.3674C67.3017 78.4117 65.8699 79 64.375 79H24.625C23.1301 79 21.6983 78.4117 20.6442 77.3674C19.5903 76.3235 19 74.9097 19 73.4375V20.9375C19 19.4653 19.5903 18.0515 20.6442 17.0076C21.6983 15.9633 23.1301 15.375 24.625 15.375H31.6254Z" stroke="#024D81" stroke-width="2"/>
<path d="M60.9983 59.972C60.9983 59.9722 60.9984 59.9712 60.9986 59.9693L60.9983 59.972ZM61.0829 63.6626C61.0829 63.6626 61.0825 63.6633 61.0817 63.6643C61.0825 63.6631 61.0829 63.6625 61.0829 63.6626Z" fill="black" stroke="#024D81" stroke-width="2"/>
<mask id="path-3-inside-1_362_74" fill="white">
<path d="M58.7691 58.979C58.6199 60.5118 58.6662 62.0893 58.302 63.5668C57.4931 66.8398 55.3604 69.0158 52.2337 70.2903C51.7001 70.5291 51.1229 70.655 50.5384 70.6601C49.9538 70.6653 49.3746 70.5495 48.8369 70.3202C44.9834 68.8277 42.4925 65.51 42.3746 61.3938C42.3208 59.5148 42.3537 57.6328 42.3596 55.7538C42.3596 55.1419 42.5969 54.8837 43.2029 54.7658C45.5012 54.3181 47.7936 53.8271 50.104 53.4495C50.7532 53.3435 51.4651 53.5286 52.1352 53.6525C53.9993 53.9972 55.8559 54.3808 57.7155 54.7479C58.4333 54.8972 58.6348 55.1151 58.6423 55.8389C58.6512 56.8836 58.6423 57.9283 58.6423 58.9731L58.7691 58.979ZM56.9782 59.3268C56.9782 58.4716 56.9618 57.6149 56.9782 56.7597C56.9871 56.409 56.8573 56.2702 56.5305 56.2075C54.6515 55.8493 52.7754 55.4733 50.8964 55.1121C50.6959 55.0708 50.4895 55.0668 50.2875 55.1001C48.3354 55.4703 46.3863 55.8598 44.4326 56.2284C44.1058 56.2911 44.0267 56.4463 44.0297 56.7583C44.0461 58.2507 44.0297 59.7342 44.0446 61.2222C44.0409 61.6317 44.0734 62.0407 44.1416 62.4445C44.7953 65.9368 46.9847 68.0084 50.2875 69.0337C50.4091 69.0735 50.5393 69.0787 50.6636 69.0486C53.3799 68.2412 55.4186 66.6607 56.4723 63.9534C57.0498 62.4579 56.9722 60.8938 56.9707 59.3327L56.9782 59.3268Z"/>
</mask>
<path d="M58.7691 58.979C58.6199 60.5118 58.6662 62.0893 58.302 63.5668C57.4931 66.8398 55.3604 69.0158 52.2337 70.2903C51.7001 70.5291 51.1229 70.655 50.5384 70.6601C49.9538 70.6653 49.3746 70.5495 48.8369 70.3202C44.9834 68.8277 42.4925 65.51 42.3746 61.3938C42.3208 59.5148 42.3537 57.6328 42.3596 55.7538C42.3596 55.1419 42.5969 54.8837 43.2029 54.7658C45.5012 54.3181 47.7936 53.8271 50.104 53.4495C50.7532 53.3435 51.4651 53.5286 52.1352 53.6525C53.9993 53.9972 55.8559 54.3808 57.7155 54.7479C58.4333 54.8972 58.6348 55.1151 58.6423 55.8389C58.6512 56.8836 58.6423 57.9283 58.6423 58.9731L58.7691 58.979ZM56.9782 59.3268C56.9782 58.4716 56.9618 57.6149 56.9782 56.7597C56.9871 56.409 56.8573 56.2702 56.5305 56.2075C54.6515 55.8493 52.7754 55.4733 50.8964 55.1121C50.6959 55.0708 50.4895 55.0668 50.2875 55.1001C48.3354 55.4703 46.3863 55.8598 44.4326 56.2284C44.1058 56.2911 44.0267 56.4463 44.0297 56.7583C44.0461 58.2507 44.0297 59.7342 44.0446 61.2222C44.0409 61.6317 44.0734 62.0407 44.1416 62.4445C44.7953 65.9368 46.9847 68.0084 50.2875 69.0337C50.4091 69.0735 50.5393 69.0787 50.6636 69.0486C53.3799 68.2412 55.4186 66.6607 56.4723 63.9534C57.0498 62.4579 56.9722 60.8938 56.9707 59.3327L56.9782 59.3268Z" fill="black"/>
<path d="M58.7691 58.979L60.7597 59.1728L60.9635 57.0801L58.8631 56.9812L58.7691 58.979ZM58.302 63.5668L60.2436 64.0467L60.2439 64.0454L58.302 63.5668ZM52.2337 70.2903L51.4787 68.4383L51.4475 68.451L51.4167 68.4648L52.2337 70.2903ZM48.8369 70.3202L49.6216 68.4805L49.5906 68.4673L49.5592 68.4552L48.8369 70.3202ZM42.3746 61.3938L40.3754 61.451L40.3754 61.4511L42.3746 61.3938ZM42.3596 55.7538L44.3596 55.7602V55.7538H42.3596ZM43.2029 54.7658L43.5849 56.729L43.5853 56.7289L43.2029 54.7658ZM50.104 53.4495L49.7818 51.4756L49.7814 51.4757L50.104 53.4495ZM52.1352 53.6525L52.4989 51.6858L52.4987 51.6858L52.1352 53.6525ZM57.7155 54.7479L58.1226 52.7898L58.1127 52.7877L58.1028 52.7858L57.7155 54.7479ZM58.6423 55.8389L60.6422 55.8218L60.6422 55.8183L58.6423 55.8389ZM58.6423 58.9731H56.6423V60.8811L58.5483 60.9708L58.6423 58.9731ZM56.9782 59.3268L58.2278 60.8883L58.9782 60.2879V59.3268H56.9782ZM56.9782 56.7597L54.9788 56.7087L54.9786 56.7214L56.9782 56.7597ZM56.5305 56.2075L56.9072 54.2433L56.905 54.2429L56.5305 56.2075ZM50.8964 55.1121L50.4936 57.0711L50.5063 57.0737L50.5189 57.0761L50.8964 55.1121ZM50.2875 55.1001L49.9618 53.1268L49.9383 53.1307L49.915 53.1351L50.2875 55.1001ZM44.4326 56.2284L44.0618 54.2631L44.0559 54.2642L44.4326 56.2284ZM44.0297 56.7583L42.0298 56.7774L42.0298 56.7803L44.0297 56.7583ZM44.0446 61.2222L46.0445 61.2401L46.0447 61.2211L46.0445 61.2021L44.0446 61.2222ZM44.1416 62.4445L42.1696 62.7777L42.1725 62.7951L42.1758 62.8125L44.1416 62.4445ZM50.2875 69.0337L50.9104 67.1331L50.8955 67.1283L50.8805 67.1236L50.2875 69.0337ZM50.6636 69.0486L51.134 70.9925L51.1841 70.9804L51.2335 70.9657L50.6636 69.0486ZM56.4723 63.9534L58.3361 64.6788L58.3379 64.6739L56.4723 63.9534ZM56.9707 59.3327L55.7211 57.7712L54.9698 58.3724L54.9707 59.3346L56.9707 59.3327ZM56.7785 58.7852C56.7012 59.58 56.6663 60.4907 56.6208 61.1574C56.5706 61.8924 56.5003 62.5193 56.3601 63.0882L60.2439 64.0454C60.4678 63.1368 60.5565 62.2361 60.6115 61.4298C60.6712 60.5552 60.6879 59.9108 60.7597 59.1728L56.7785 58.7852ZM56.3604 63.087C55.7269 65.6503 54.1034 67.3684 51.4787 68.4383L52.9886 72.1423C56.6173 70.6632 59.2593 68.0293 60.2436 64.0467L56.3604 63.087ZM51.4167 68.4648C51.1348 68.591 50.8297 68.6575 50.5208 68.6602L50.556 72.6601C51.4161 72.6525 52.2655 72.4672 53.0506 72.1159L51.4167 68.4648ZM50.5208 68.6602C50.2119 68.6629 49.9058 68.6018 49.6216 68.4805L48.0521 72.1598C48.8434 72.4973 49.6958 72.6676 50.556 72.6601L50.5208 68.6602ZM49.5592 68.4552C46.4067 67.2342 44.4671 64.5962 44.3737 61.3365L40.3754 61.4511C40.5178 66.4238 43.56 70.4212 48.1146 72.1852L49.5592 68.4552ZM44.3737 61.3366C44.3212 59.4999 44.3535 57.6773 44.3596 55.7602L40.3596 55.7475C40.3538 57.5883 40.3204 59.5297 40.3754 61.451L44.3737 61.3366ZM44.3596 55.7538C44.3596 55.6724 44.3805 56.021 44.0651 56.3848C43.7682 56.7272 43.4526 56.7548 43.5849 56.729L42.8209 52.8026C42.3472 52.8948 41.61 53.1104 41.0429 53.7644C40.4574 54.4397 40.3596 55.2234 40.3596 55.7538H44.3596ZM43.5853 56.7289C45.9327 56.2716 48.156 55.7944 50.4266 55.4233L49.7814 51.4757C47.4313 51.8598 45.0698 52.3645 42.8204 52.8027L43.5853 56.7289ZM50.4261 55.4234C50.4656 55.4169 50.579 55.4093 50.8316 55.4451C51.1231 55.4863 51.333 55.5381 51.7716 55.6191L52.4987 51.6858C52.2673 51.643 51.7862 51.5403 51.3919 51.4845C50.9587 51.4232 50.3915 51.3761 49.7818 51.4756L50.4261 55.4234ZM51.7715 55.6191C53.6202 55.961 55.445 56.3383 57.3281 56.71L58.1028 52.7858C56.2667 52.4233 54.3784 52.0334 52.4989 51.6858L51.7715 55.6191ZM57.3084 56.7061C57.4269 56.7307 57.4204 56.7382 57.3573 56.7105C57.2778 56.6756 57.1008 56.5815 56.9304 56.3838C56.7566 56.1821 56.6831 55.9814 56.655 55.8694C56.6325 55.7795 56.6413 55.7542 56.6424 55.8595L60.6422 55.8183C60.6375 55.364 60.5897 54.5024 59.9601 53.7721C59.3528 53.0676 58.5312 52.8747 58.1226 52.7898L57.3084 56.7061ZM56.6423 55.856C56.6512 56.8908 56.6423 57.904 56.6423 58.9731H60.6423C60.6423 57.9526 60.6512 56.8765 60.6422 55.8218L56.6423 55.856ZM58.5483 60.9708L58.6751 60.9768L58.8631 56.9812L58.7363 56.9753L58.5483 60.9708ZM58.9782 59.3268C58.9782 58.4172 58.9618 57.6309 58.9778 56.7981L54.9786 56.7214C54.9617 57.5989 54.9782 58.5259 54.9782 59.3268H58.9782ZM58.9775 56.8108C58.9873 56.4271 58.9402 55.7216 58.4148 55.093C57.9015 54.4789 57.2352 54.3063 56.9072 54.2433L56.1538 58.1717C56.1525 58.1715 55.7146 58.0996 55.3457 57.6583C54.9647 57.2024 54.978 56.7417 54.9788 56.7087L58.9775 56.8108ZM56.905 54.2429C55.0059 53.8809 53.1959 53.5175 51.274 53.148L50.5189 57.0761C52.355 57.429 54.297 57.8178 56.1559 58.1722L56.905 54.2429ZM51.2993 53.1531C50.8588 53.0625 50.4055 53.0536 49.9618 53.1268L50.6133 57.0734C50.5736 57.08 50.533 57.0792 50.4936 57.0711L51.2993 53.1531ZM49.915 53.1351C47.8706 53.5228 46.0807 53.8822 44.0618 54.2631L44.8035 58.1938C46.6918 57.8374 48.8002 57.4178 50.6601 57.0651L49.915 53.1351ZM44.0559 54.2642C43.6537 54.3414 42.9582 54.5577 42.4719 55.2489C42.0339 55.8712 42.0274 56.529 42.0298 56.7774L46.0296 56.7391C46.0296 56.7418 46.0298 56.7621 46.0273 56.7951C46.0249 56.8281 46.0193 56.8826 46.0051 56.952C45.9763 57.0938 45.9078 57.3169 45.7431 57.5509C45.3772 58.0708 44.8847 58.1782 44.8093 58.1926L44.0559 54.2642ZM42.0298 56.7803C42.0379 57.5135 42.0379 58.2466 42.0377 58.9914C42.0375 59.7326 42.0371 60.4861 42.0447 61.2422L46.0445 61.2021C46.0372 60.4703 46.0375 59.738 46.0377 58.9924C46.0379 58.2503 46.0379 57.4954 46.0296 56.7363L42.0298 56.7803ZM42.0447 61.2042C42.04 61.7314 42.0817 62.2579 42.1696 62.7777L46.1137 62.1113C46.065 61.8235 46.0419 61.532 46.0445 61.2401L42.0447 61.2042ZM42.1758 62.8125C42.567 64.9026 43.441 66.6597 44.7801 68.0511C46.1079 69.4307 47.8006 70.3558 49.6946 70.9437L50.8805 67.1236C49.4716 66.6862 48.4183 66.063 47.6622 65.2773C46.9175 64.5036 46.3699 63.4787 46.1075 62.0765L42.1758 62.8125ZM49.6646 70.9342C50.1395 71.0898 50.6483 71.11 51.134 70.9925L50.1933 67.1047C50.4303 67.0473 50.6787 67.0572 50.9104 67.1331L49.6646 70.9342ZM51.2335 70.9657C54.4254 70.0169 57.0176 68.0664 58.3361 64.6788L54.6084 63.228C53.8196 65.2549 52.3344 66.4655 50.0938 67.1315L51.2335 70.9657ZM58.3379 64.6739C59.0825 62.7463 58.9721 60.728 58.9707 59.3308L54.9707 59.3346C54.9724 61.0596 55.0172 62.1696 54.6066 63.2328L58.3379 64.6739ZM58.2203 60.8943L58.2278 60.8883L55.7286 57.7652L55.7211 57.7712L58.2203 60.8943Z" fill="#024D81" mask="url(#path-3-inside-1_362_74)"/>
<path d="M53.0068 58.6364C52.8659 58.7575 52.7393 58.8942 52.6292 59.0438C51.7837 60.0648 50.9427 61.0874 50.0912 62.1227C49.9581 62.2845 49.8248 62.4467 49.6911 62.6091C49.7039 62.6209 49.7167 62.6326 49.7296 62.6444L49.0548 63.3824L53.0068 58.6364ZM53.0068 58.6364C53.1498 58.5123 53.334 58.446 53.5233 58.4504M53.0068 58.6364L53.5233 58.4504M53.5233 58.4504C53.7126 58.4548 53.8935 58.5296 54.0306 58.6603L53.5233 58.4504ZM47.7589 63.5082L47.7327 63.5344L47.7589 63.5082ZM47.9366 63.2642C47.9366 63.2642 47.9369 63.2647 47.9374 63.2657L47.9366 63.2642ZM47.6821 63.4991C47.6821 63.4991 47.6827 63.4993 47.6841 63.5C47.6827 63.4995 47.6821 63.4991 47.6821 63.4991Z" fill="black" stroke="#024D81" stroke-width="2"/>
<path d="M29.6548 30.6014C30.276 29.9861 30.625 29.1515 30.625 28.2812C30.625 27.411 30.276 26.5764 29.6548 25.9611C29.0336 25.3457 28.191 25 27.3125 25C26.434 25 25.5914 25.3457 24.9702 25.9611C24.349 26.5764 24 27.411 24 28.2812C24 29.1515 24.349 29.9861 24.9702 30.6014C25.5914 31.2168 26.434 31.5625 27.3125 31.5625C28.191 31.5625 29.0336 31.2168 29.6548 30.6014Z" stroke="#024D81" stroke-width="2"/>
<path d="M29.6548 43.7264C30.276 43.1111 30.625 42.2765 30.625 41.4062C30.625 40.536 30.276 39.7014 29.6548 39.0861C29.0336 38.4707 28.191 38.125 27.3125 38.125C26.434 38.125 25.5914 38.4707 24.9702 39.0861C24.349 39.7014 24 40.536 24 41.4062C24 42.2765 24.349 43.1111 24.9702 43.7264C25.5914 44.3418 26.434 44.6875 27.3125 44.6875C28.191 44.6875 29.0336 44.3418 29.6548 43.7264Z" stroke="#024D81" stroke-width="2"/>
<path d="M24.9702 56.8514C25.5914 57.4668 26.434 57.8125 27.3125 57.8125C28.191 57.8125 29.0336 57.4668 29.6548 56.8514C30.276 56.2361 30.625 55.4015 30.625 54.5312C30.625 53.661 30.276 52.8264 29.6548 52.2111C29.0336 51.5957 28.191 51.25 27.3125 51.25C26.434 51.25 25.5914 51.5957 24.9702 52.2111C24.349 52.8264 24 53.661 24 54.5312C24 55.4015 24.349 56.2361 24.9702 56.8514Z" stroke="#024D81" stroke-width="2"/>
<path d="M36.9438 26.6485C36.3395 27.0638 36 27.627 36 28.2143C36 28.8016 36.3395 29.3648 36.9438 29.78C37.548 30.1953 38.3676 30.4286 39.2222 30.4286H61.7778C62.6324 30.4286 63.4519 30.1953 64.0562 29.78C64.6605 29.3648 65 28.8016 65 28.2143C65 27.627 64.6605 27.0638 64.0562 26.6485C63.4519 26.2333 62.6324 26 61.7778 26H39.2222C38.3676 26 37.548 26.2333 36.9438 26.6485Z" stroke="#024D81" stroke-width="2"/>
<path d="M36.9438 39.9343C36.3395 40.3495 36 40.9127 36 41.5C36 42.0873 36.3395 42.6505 36.9438 43.0657C37.548 43.481 38.3676 43.7143 39.2222 43.7143H61.7778C62.6324 43.7143 63.4519 43.481 64.0562 43.0657C64.6605 42.6505 65 42.0873 65 41.5C65 40.9127 64.6605 40.3495 64.0562 39.9343C63.4519 39.519 62.6324 39.2857 61.7778 39.2857H39.2222C38.3676 39.2857 37.548 39.519 36.9438 39.9343Z" stroke="#024D81" stroke-width="2"/>
</g>
<defs>
<clipPath id="clip0_362_74">
<rect width="90" height="90" fill="white"/>
</clipPath>
</defs>
</svg>
