<?xml version="1.0" encoding="utf-8"?>
<svg xmlns="http://www.w3.org/2000/svg" width="65.783" height="41.11" viewBox="0 0 65.783 41.11">
  <g id="Group_14481" data-name="Group 14481" transform="translate(-704 -380)">
    <path id="Path_25780" data-name="Path 25780" d="M1084.716,471.559H1072.3a.964.964,0,0,0,0,1.927h12.42a.964.964,0,0,0,0-1.927Zm0,0" transform="translate(-320.137 -79.795)" fill="#2a3c4a"/>
    <path id="Path_25781" data-name="Path 25781" d="M1127.917,506.891h-6.051a.964.964,0,0,0,0,1.927h6.051a.964.964,0,0,0,0-1.927Zm0,0" transform="translate(-363.338 -110.588)" fill="#2a3c4a"/>
    <path id="Path_25782" data-name="Path 25782" d="M1074.181,506.891H1072.3a.964.964,0,0,0,0,1.927h1.885a.964.964,0,0,0,0-1.927Zm0,0" transform="translate(-320.137 -110.588)" fill="#2a3c4a"/>
    <path id="Path_25783" data-name="Path 25783" d="M910.027,493.886a4.105,4.105,0,1,0-4.1-4.105,4.11,4.11,0,0,0,4.1,4.105Zm0-6.283a2.178,2.178,0,1,1-2.178,2.178,2.18,2.18,0,0,1,2.178-2.178Zm0,0" transform="translate(-175.979 -92.099)" fill="#2a3c4a"/>
    <path id="Path_25784" data-name="Path 25784" d="M865.4,455.546h.433a7.871,7.871,0,0,0,.323.779l-.306.306a1.74,1.74,0,0,0,0,2.461l1.206,1.206a1.743,1.743,0,0,0,2.461,0l.306-.306a7.969,7.969,0,0,0,.779.323v.433a1.742,1.742,0,0,0,1.741,1.74h1.7a1.742,1.742,0,0,0,1.74-1.74v-.433a7.9,7.9,0,0,0,.778-.323l.306.306a1.743,1.743,0,0,0,2.461,0l1.206-1.206a1.743,1.743,0,0,0,0-2.461l-.306-.306a7.838,7.838,0,0,0,.322-.779h.433a1.742,1.742,0,0,0,1.74-1.741v-1.7a1.742,1.742,0,0,0-1.74-1.741h-.433a7.738,7.738,0,0,0-.322-.779l.306-.306a1.743,1.743,0,0,0,0-2.461l-1.206-1.206a1.743,1.743,0,0,0-2.461,0l-.306.306a7.9,7.9,0,0,0-.778-.323v-.433a1.743,1.743,0,0,0-1.74-1.741h-1.7a1.743,1.743,0,0,0-1.741,1.741v.433a7.843,7.843,0,0,0-.779.323l-.306-.306a1.743,1.743,0,0,0-2.461,0l-1.206,1.206a1.74,1.74,0,0,0,0,2.462l.306.306a7.863,7.863,0,0,0-.323.779H865.4a1.743,1.743,0,0,0-1.741,1.741v1.7a1.743,1.743,0,0,0,1.741,1.741Zm.187-3.259h.38a1.74,1.74,0,0,0,1.652-1.194,5.853,5.853,0,0,1,.317-.767,1.741,1.741,0,0,0-.323-2.013l-.268-.269.941-.942.268.269a1.742,1.742,0,0,0,2.014.324,5.88,5.88,0,0,1,.767-.318,1.74,1.74,0,0,0,1.194-1.652v-.38h1.331v.38a1.74,1.74,0,0,0,1.194,1.652,5.907,5.907,0,0,1,.767.318,1.742,1.742,0,0,0,2.013-.324l.268-.269.942.942-.269.269a1.741,1.741,0,0,0-.323,2.013,5.866,5.866,0,0,1,.318.767,1.739,1.739,0,0,0,1.652,1.194h.38v1.332h-.38a1.739,1.739,0,0,0-1.652,1.193,5.816,5.816,0,0,1-.318.767,1.741,1.741,0,0,0,.323,2.014l.269.269-.942.942-.268-.269a1.742,1.742,0,0,0-2.014-.324,5.885,5.885,0,0,1-.767.318,1.74,1.74,0,0,0-1.194,1.652v.38h-1.331v-.38a1.74,1.74,0,0,0-1.194-1.652,5.884,5.884,0,0,1-.767-.318,1.741,1.741,0,0,0-2.014.324l-.268.269-.941-.942.268-.269a1.741,1.741,0,0,0,.323-2.013,5.783,5.783,0,0,1-.317-.767,1.741,1.741,0,0,0-1.652-1.193h-.38Zm0,0" transform="translate(-139.15 -55.27)" fill="#2a3c4a"/>
    <path id="Path_25785" data-name="Path 25785" d="M766.627,387.556h-5.444v-4.484A3.076,3.076,0,0,0,758.111,380H709.985a3.075,3.075,0,0,0-3.072,3.072v30.664h-.671A2.246,2.246,0,0,0,704,415.979a5.137,5.137,0,0,0,5.131,5.131h49.845a5.136,5.136,0,0,0,5.131-5.131,2.246,2.246,0,0,0-2.243-2.243h-.681V403.094h5.444a3.158,3.158,0,0,0,3.155-3.155v-9.228a3.159,3.159,0,0,0-3.155-3.155Zm-57.786-4.484a1.146,1.146,0,0,1,1.144-1.145h48.126a1.146,1.146,0,0,1,1.145,1.145v4.484h-1.6v-2.94a1.279,1.279,0,0,0-1.277-1.277H711.715a1.278,1.278,0,0,0-1.277,1.277V395.59a.964.964,0,0,0,1.927,0V385.267h43.365v2.289h-6.076a3.158,3.158,0,0,0-3.155,3.155v9.228a3.159,3.159,0,0,0,2.923,3.147l-1.1,3.821a1.145,1.145,0,0,0,1.811,1.216l5.6-4.432v6.562H712.365V400.073a.964.964,0,1,0-1.927,0V410.9a1.279,1.279,0,0,0,1.277,1.277h44.665a1.278,1.278,0,0,0,1.277-1.277v-7.809h1.6v10.642H708.841Zm19.632,36.11a1.527,1.527,0,0,1,1.4-.914h8.367a1.529,1.529,0,0,1,1.4.914Zm33.391-3.519a.316.316,0,0,1,.316.316,3.208,3.208,0,0,1-3.2,3.2H741.636a3.459,3.459,0,0,0-3.4-2.841H729.87a3.458,3.458,0,0,0-3.4,2.841H709.131a3.208,3.208,0,0,1-3.2-3.2.316.316,0,0,1,.316-.316Zm5.991-15.724a1.229,1.229,0,0,1-1.228,1.227H756.286a1.359,1.359,0,0,0-.84.292l-4.6,3.639.635-2.2a1.353,1.353,0,0,0-1.3-1.728h-.529a1.229,1.229,0,0,1-1.228-1.228v-9.227a1.229,1.229,0,0,1,1.228-1.228h16.973a1.229,1.229,0,0,1,1.228,1.228Zm0,0" fill="#2a3c4a"/>
  </g>
</svg>
