<svg width="90" height="90" viewBox="0 0 90 90" fill="none" xmlns="http://www.w3.org/2000/svg">
<path d="M73.3571 78H59.4282C58.1972 77.9988 57.017 77.5092 56.1465 76.6388C55.2761 75.7684 54.7865 74.5881 54.7853 73.3572V59.4286C54.7865 58.1976 55.2761 57.0174 56.1465 56.147C57.017 55.2766 58.1972 54.787 59.4282 54.7858H73.3571C74.5881 54.787 75.7683 55.2766 76.6388 56.147C77.5092 57.0174 77.9988 58.1976 78 59.4286V73.3572C77.9988 74.5881 77.5092 75.7684 76.6388 76.6388C75.7683 77.5092 74.5881 77.9988 73.3571 78ZM59.4282 59.4286H59.4259L59.4282 73.3572H73.3571V59.4286H59.4282ZM50.1423 68.7143H36.2135C34.367 68.7125 32.5966 67.9781 31.2909 66.6725C29.9852 65.3668 29.2509 63.5965 29.2491 61.75V52.4644H33.892V61.75C33.8926 62.3655 34.1374 62.9556 34.5726 63.3909C35.0079 63.8261 35.598 64.0709 36.2135 64.0715H50.1423V68.7143ZM68.7141 50.1429H64.0712V43.1787C64.0705 42.5632 63.8258 41.9731 63.3905 41.5378C62.9553 41.1026 62.3652 40.8579 61.7497 40.8572H50.1423V36.2144H61.7497C63.5962 36.2162 65.3666 36.9506 66.6722 38.2562C67.9779 39.5619 68.7123 41.3322 68.7141 43.1787V50.1429ZM43.1779 50.1429C42.7732 50.1432 42.3754 50.0376 42.0241 49.8365L31.5705 43.8472L21.1169 49.8365C20.7249 50.061 20.2758 50.1662 19.8248 50.1393C19.3738 50.1123 18.9405 49.9543 18.578 49.6847C18.2154 49.4151 17.9395 49.0456 17.7839 48.6214C17.6283 48.1973 17.5999 47.7369 17.702 47.2969L20.1651 36.6833L13.6232 29.6726C13.3373 29.3658 13.1398 28.9873 13.0517 28.5773C12.9637 28.1673 12.9884 27.7411 13.1231 27.3439C13.2579 26.9468 13.4977 26.5936 13.8171 26.3218C14.1365 26.0501 14.5236 25.8699 14.9372 25.8005L24.6874 24.1709L29.4835 14.3048C29.6722 13.9175 29.9649 13.5904 30.3289 13.36C30.6929 13.1295 31.1138 13.005 31.5446 13.0001C31.9754 12.9953 32.399 13.1105 32.768 13.3327C33.1371 13.5549 33.437 13.8754 33.6343 14.2584L38.7509 24.1709L48.2155 25.8005C48.6281 25.8716 49.0138 26.053 49.3318 26.3255C49.6497 26.5979 49.8881 26.9513 50.0215 27.3482C50.155 27.745 50.1787 28.1706 50.09 28.5798C50.0013 28.989 49.8036 29.3666 49.5178 29.6726L42.9759 36.6833L45.4367 47.2969C45.5156 47.6371 45.5168 47.9907 45.4401 48.3314C45.3634 48.6721 45.2108 48.9911 44.9937 49.2646C44.7766 49.5382 44.5006 49.7592 44.1862 49.9113C43.8718 50.0634 43.5271 50.1425 43.1779 50.1429ZM31.5705 38.5358C31.5705 38.5358 32.3668 38.9537 32.7243 39.1603L39.7119 43.1624L37.8919 35.323L43.1895 29.6471L35.6842 28.3541L31.6332 20.503L27.8167 28.3541L19.9678 29.6657L25.2468 35.323L23.4268 43.1624L30.4144 39.1603C30.7766 38.9537 31.5705 38.5358 31.5705 38.5358Z" stroke="white" stroke-width="2"/>
</svg>
