<svg width="90" height="90" viewBox="0 0 90 90" fill="none" xmlns="http://www.w3.org/2000/svg">
<path d="M13 23.8333C13 20.9602 14.1414 18.2047 16.173 16.173C18.2047 14.1414 20.9602 13 23.8333 13H56.3333C59.2065 13 61.962 14.1414 63.9937 16.173C66.0253 18.2047 67.1667 20.9602 67.1667 23.8333V56.3333C67.1667 59.2065 66.0253 61.962 63.9937 63.9937C61.962 66.0253 59.2065 67.1667 56.3333 67.1667H23.8333C20.9602 67.1667 18.2047 66.0253 16.173 63.9937C14.1414 61.962 13 59.2065 13 56.3333V23.8333ZM37.375 37.375H26.5417C25.8234 37.375 25.1345 37.6603 24.6266 38.1683C24.1187 38.6762 23.8333 39.365 23.8333 40.0833C23.8333 40.8016 24.1187 41.4905 24.6266 41.9984C25.1345 42.5063 25.8234 42.7917 26.5417 42.7917H37.375V53.625C37.375 54.3433 37.6603 55.0322 38.1683 55.5401C38.6762 56.048 39.365 56.3333 40.0833 56.3333C40.8016 56.3333 41.4905 56.048 41.9984 55.5401C42.5063 55.0322 42.7917 54.3433 42.7917 53.625V42.7917H53.625C54.3433 42.7917 55.0322 42.5063 55.5401 41.9984C56.048 41.4905 56.3333 40.8016 56.3333 40.0833C56.3333 39.365 56.048 38.6762 55.5401 38.1683C55.0322 37.6603 54.3433 37.375 53.625 37.375H42.7917V26.5417C42.7917 25.8234 42.5063 25.1345 41.9984 24.6266C41.4905 24.1187 40.8016 23.8333 40.0833 23.8333C39.365 23.8333 38.6762 24.1187 38.1683 24.6266C37.6603 25.1345 37.375 25.8234 37.375 26.5417V37.375ZM59.0417 72.5833C62.6331 72.5833 66.0775 71.1566 68.6171 68.6171C71.1566 66.0775 72.5833 62.6331 72.5833 59.0417V19.8683C74.2302 20.8191 75.5977 22.1867 76.5485 23.8335C77.4994 25.4803 77.9999 27.3484 78 29.25V59.0417C78 64.0697 76.0026 68.8919 72.4472 72.4472C68.8919 76.0026 64.0697 78 59.0417 78H29.25C27.3484 77.9999 25.4803 77.4994 23.8335 76.5485C22.1867 75.5977 20.8191 74.2302 19.8683 72.5833H59.0417Z" stroke="white" stroke-width="2"/>
</svg>
