<svg width="90" height="90" viewBox="0 0 90 90" fill="none" xmlns="http://www.w3.org/2000/svg">
<path fill-rule="evenodd" clip-rule="evenodd" d="M79 25.6793C73.3348 22.5626 67.6652 21 62 21C56.3348 21 50.6652 22.5626 45 25.6793V68.2222C50.6652 65.3588 56.3348 63.9293 62 63.9293C67.6652 63.9293 73.3348 65.3588 79 68.2222V25.6793Z" stroke="#024D81" stroke-width="2" stroke-linecap="round" stroke-linejoin="round"/>
<path d="M70.5 30.7545C67.6157 29.9182 64.7313 29.5 61.8428 29.5C58.9543 29.5 56.0741 29.9182 53.1856 30.7545M70.5 39.4659C67.6157 38.6296 64.7313 38.2115 61.8428 38.2115C58.9543 38.2115 56.0741 38.6296 53.1856 39.4659M70.5 48.1774C67.6157 47.3411 64.7313 46.923 61.8428 46.923C58.9543 46.923 56.0741 47.3411 53.1856 48.1774M70.5 56.8889C67.6157 56.0526 64.7313 55.6344 61.8428 55.6344C58.9543 55.6344 56.0741 56.0526 53.1856 56.8889M36.8144 30.7545C33.9259 29.9182 31.0457 29.5 28.1572 29.5C25.2687 29.5 22.3885 29.9182 19.5 30.7545M36.8144 39.4659C33.9259 38.6296 31.0457 38.2115 28.1572 38.2115C25.2687 38.2115 22.3885 38.6296 19.5 39.4659M36.8144 48.1774C33.9301 47.3411 31.0457 46.923 28.1572 46.923C25.2687 46.923 22.3885 47.3411 19.5 48.1774M36.8144 56.8889C33.9301 56.0526 31.0457 55.6344 28.1572 55.6344C25.2687 55.6344 22.3885 56.0526 19.5 56.8889" stroke="#024D81" stroke-width="2" stroke-linecap="round" stroke-linejoin="round"/>
<path fill-rule="evenodd" clip-rule="evenodd" d="M45 25.6793C39.3348 22.5626 33.6652 21 28 21C22.3348 21 16.6652 22.5626 11 25.6793V68.2222C16.6652 65.3588 22.3348 63.9293 28 63.9293C33.6652 63.9293 39.3348 65.3588 45 68.2222V25.6793Z" stroke="#024D81" stroke-width="2" stroke-linecap="round" stroke-linejoin="round"/>
</svg>
