<svg width="1920" height="250" viewBox="0 0 1920 250" fill="none" xmlns="http://www.w3.org/2000/svg">
<mask id="mask0_685_826" style="mask-type:alpha" maskUnits="userSpaceOnUse" x="0" y="0" width="1920" height="250">
<rect width="1920" height="250" fill="#024D81"/>
</mask>
<g mask="url(#mask0_685_826)">
<g opacity="0.6">
<path opacity="0.3" fill-rule="evenodd" clip-rule="evenodd" d="M4900.9 -1906.79C4337.71 -1909.52 3861.54 -1585.98 3506.07 -1172.36C3336.94 -975.565 3191.14 -758.603 3051.07 -536.882C3006.24 -465.919 2962 -394.465 2917.77 -323.03C2823.81 -171.287 2729.91 -19.6259 2630.55 127.068C2370.69 510.717 2062.22 910.622 1622.61 1091.84C1224.46 1256.08 793.148 1201.94 386.995 1045.25C-19.1606 888.552 -400.268 629.267 -698.124 383.046C-708.157 374.754 -721.88 363.716 -738.575 350.289C-835.145 272.62 -1031.14 114.981 -1187.45 -54.0125C-1279.11 -153.107 -1357.21 -256.196 -1393.58 -349.431C-1411.77 -396.057 -1419.56 -440.289 -1413.33 -480.36C-1407.09 -520.46 -1386.83 -556.309 -1349.09 -586.148C-1348.65 -586.49 -1348.03 -586.417 -1347.68 -585.984C-1347.34 -585.551 -1347.41 -584.922 -1347.85 -584.579C-1385.21 -555.035 -1405.2 -519.627 -1411.35 -480.052C-1417.51 -440.448 -1409.83 -396.587 -1391.72 -350.158C-1355.48 -257.285 -1277.6 -154.421 -1185.98 -55.3705C-1029.79 113.499 -833.941 271.02 -737.348 348.709C-720.639 362.148 -706.9 373.198 -696.85 381.505C-399.087 627.648 -18.1678 886.792 387.715 1043.38C793.6 1199.97 1224.34 1253.97 1621.85 1089.99C2060.85 909.025 2369.03 509.602 2628.89 125.947C2728.23 -20.7135 2822.1 -172.314 2916.04 -324.038C2960.28 -395.482 3004.53 -466.954 3049.38 -537.95C3189.46 -759.694 3335.33 -976.755 3504.55 -1173.66C3860.23 -1587.52 4336.9 -1911.52 4900.91 -1908.79C5397.96 -1906.42 5871.73 -1730.98 6336.89 -1558.72C6378.8 -1543.2 6420.64 -1527.71 6462.42 -1512.37C6462.94 -1512.18 6463.21 -1511.6 6463.02 -1511.09C6462.83 -1510.57 6462.25 -1510.3 6461.73 -1510.49C6419.96 -1525.83 6378.14 -1541.31 6336.25 -1556.83C5871.02 -1729.1 5397.58 -1904.42 4900.9 -1906.79Z" fill="white"/>
<path opacity="0.3" fill-rule="evenodd" clip-rule="evenodd" d="M4974.77 -1883.67C4953.82 -1884.03 4932.16 -1883.81 4911.35 -1882.95C4465.87 -1864.44 4076.9 -1675.85 3753.13 -1378.71C3671.74 -1304 3594.08 -1220.45 3520.78 -1135.74L3520.03 -1136.39L3520.78 -1135.74C3352.27 -941.057 3206.01 -727.377 3064.91 -509.406C3022.9 -444.502 2981.34 -379.215 2939.79 -313.937C2841.8 -160.004 2743.85 -6.11658 2640.02 142.59C2377.65 518.476 2061.42 917.03 1628.47 1079.14C1095.05 1278.91 513.967 1100.96 26.834 840.84C-221.742 708.185 -461.836 546.661 -682.465 368.549C-855.745 228.658 -1027.33 78.192 -1176.45 -85.792C-1184.68 -94.8448 -1194.71 -105.45 -1205.96 -117.345C-1253.07 -167.157 -1321.59 -239.604 -1369.09 -315.536C-1398.51 -362.573 -1419.95 -411.062 -1423.19 -456.436C-1426.44 -501.884 -1411.44 -544.158 -1368.12 -578.606C-1367.69 -578.95 -1367.06 -578.878 -1366.71 -578.446C-1366.37 -578.014 -1366.44 -577.385 -1366.87 -577.041C-1409.65 -543.024 -1424.41 -501.402 -1421.2 -456.579C-1417.99 -411.683 -1396.75 -363.526 -1367.39 -316.597C-1320.01 -240.856 -1251.69 -168.611 -1204.57 -118.791C-1193.3 -106.869 -1183.24 -96.2316 -1174.97 -87.1375C-1025.95 76.7385 -854.452 227.132 -681.209 366.993C-460.67 545.032 -220.68 706.485 27.7759 839.076L27.3051 839.958L27.7761 839.076C514.76 1099.11 1095.18 1276.73 1627.77 1077.27C2060.07 915.398 2376 517.353 2638.38 141.445C2742.18 -7.22046 2840.1 -161.045 2938.07 -314.957C2979.63 -380.249 3021.2 -445.556 3063.24 -510.493C3204.35 -728.484 3350.66 -942.258 3519.27 -1137.05C3592.6 -1221.79 3670.31 -1305.4 3751.78 -1380.19C4075.83 -1677.59 4465.23 -1866.41 4911.27 -1884.95C4932.11 -1885.81 4953.82 -1886.03 4974.8 -1885.67L4974.79 -1884.67L4974.81 -1885.67C5459.36 -1877.18 5923.73 -1704.6 6379.19 -1535.33C6409.27 -1524.15 6439.31 -1512.98 6469.32 -1501.88C6469.83 -1501.69 6470.1 -1501.12 6469.91 -1500.6C6469.72 -1500.08 6469.14 -1499.82 6468.62 -1500.01C6438.64 -1511.1 6408.63 -1522.25 6378.57 -1533.42C5923.03 -1702.72 5458.97 -1875.19 4974.77 -1883.67Z" fill="white"/>
<path opacity="0.3" fill-rule="evenodd" clip-rule="evenodd" d="M4984.91 -1860.91C4964.11 -1860.91 4942.51 -1860.33 4921.78 -1859.11C4477.66 -1832.78 4091.06 -1637.38 3767.93 -1340.8C3686.69 -1266.23 3609.02 -1183.18 3535.5 -1099.04C3367.67 -906.908 3220.89 -696.565 3078.72 -482.291C3039.22 -422.771 3000.08 -362.946 2960.95 -303.123C2859.2 -147.6 2757.46 7.90344 2649.56 157.968C2384.68 526.32 2064.99 912.949 1634.27 1066.44C1101.72 1256.15 525.235 1076.9 40.3391 819.372C-206.943 688.082 -446.103 528.857 -666.873 353.906C-840.874 215.955 -1013.32 67.8618 -1165.3 -92.5265C-1172.96 -100.606 -1183.38 -110.991 -1195.69 -123.254C-1240.32 -167.707 -1309.71 -236.836 -1361.62 -310.25C-1394.73 -357.085 -1420.81 -405.777 -1428.78 -451.028C-1436.77 -496.351 -1426.58 -538.255 -1387.17 -571.266C-1386.74 -571.62 -1386.11 -571.565 -1385.76 -571.141C-1385.4 -570.718 -1385.46 -570.087 -1385.88 -569.732C-1424.66 -537.258 -1434.7 -496.12 -1426.81 -451.375C-1418.92 -406.559 -1393.04 -358.157 -1359.98 -311.404C-1308.19 -238.154 -1239 -169.225 -1194.36 -124.759C-1182.02 -112.46 -1171.55 -102.032 -1163.85 -93.902C-1011.96 66.3896 -839.595 214.417 -665.631 352.339C-444.947 527.221 -205.888 686.378 41.2771 817.605C526.031 1075.06 1101.86 1253.97 1633.6 1064.55C2063.68 911.295 2383.05 525.163 2647.94 156.8C2755.81 6.77258 2857.51 -148.676 2959.25 -304.188C2998.39 -364.016 3037.54 -423.854 3077.05 -483.397C3219.24 -697.688 3366.07 -908.121 3534 -1100.36C3607.54 -1184.53 3685.26 -1267.64 3766.57 -1342.27C4089.97 -1639.1 4476.99 -1834.74 4921.67 -1861.11L4921.67 -1861.11C4942.44 -1862.33 4964.07 -1862.91 4984.91 -1862.91C5481.75 -1862.63 5958.2 -1684.81 6423.99 -1510.96C6441.41 -1504.45 6458.82 -1497.96 6476.21 -1491.47C6476.73 -1491.28 6476.99 -1490.71 6476.8 -1490.19C6476.61 -1489.67 6476.03 -1489.41 6475.52 -1489.6C6458.16 -1496.07 6440.79 -1502.55 6423.41 -1509.04C5957.52 -1682.92 5481.38 -1860.63 4984.91 -1860.91Z" fill="white"/>
<path opacity="0.3" fill-rule="evenodd" clip-rule="evenodd" d="M6468.43 -1484.32C5992.11 -1663.2 5503.74 -1846.61 4995.13 -1838.15C4974.32 -1837.79 4952.8 -1836.86 4932.22 -1835.21L4932.21 -1835.21C4489.52 -1801.04 4105.36 -1598.9 3782.79 -1302.74C3701.76 -1228.31 3624.02 -1145.76 3550.29 -1062.2C3400.97 -892.884 3263.43 -695.101 3126.97 -488.862C3089.03 -431.514 3051.17 -373.511 3013.17 -315.285C2914.51 -164.133 2814.87 -11.4812 2710.26 135.1C2420.43 541.191 2092.22 900.94 1640.15 1053.67C1108.32 1233.31 536.579 1052.85 53.6971 797.764C-192.219 667.911 -430.372 510.985 -651.284 339.125L-650.67 338.335L-651.284 339.124C-826.079 203.036 -998.873 57.3865 -1154.16 -99.2609L-1153.45 -99.9648L-1154.16 -99.261C-1161.49 -106.666 -1172.41 -116.91 -1185.74 -129.43C-1229.74 -170.73 -1300.11 -236.801 -1355.66 -307.464C-1391.86 -353.51 -1421.85 -401.612 -1434.15 -446.195C-1446.47 -490.831 -1441.07 -532.064 -1406.3 -564.056C-1405.89 -564.43 -1405.26 -564.403 -1404.89 -563.997C-1404.51 -563.591 -1404.54 -562.958 -1404.95 -562.584C-1439 -531.244 -1444.4 -490.872 -1432.22 -446.727C-1420.03 -402.531 -1390.24 -354.68 -1354.09 -308.7C-1298.65 -238.179 -1228.49 -172.308 -1184.48 -130.992C-1171.1 -118.426 -1160.13 -108.132 -1152.74 -100.669C-997.535 55.8958 -824.813 201.487 -650.056 337.546C-429.226 509.343 -191.171 666.203 54.631 795.995C537.377 1051.01 1108.48 1231.15 1639.5 1051.77C2090.95 899.257 2418.85 539.957 2708.63 133.938C2813.22 -12.6061 2912.82 -165.203 3011.47 -316.342C3049.48 -374.576 3087.35 -432.594 3125.31 -489.965C3261.77 -696.217 3399.37 -894.096 3548.79 -1063.52C3622.55 -1147.12 3700.34 -1229.72 3781.44 -1304.21C4104.25 -1600.6 4488.82 -1803 4932.06 -1837.2C4952.69 -1838.85 4974.25 -1839.79 4995.09 -1840.15C5504.09 -1848.61 5992.76 -1665.09 6468.97 -1486.25L6483.18 -1480.92C6483.7 -1480.72 6483.96 -1480.15 6483.77 -1479.63C6483.57 -1479.11 6483 -1478.85 6482.48 -1479.04L6468.43 -1484.32Z" fill="white"/>
<path opacity="0.3" fill-rule="evenodd" clip-rule="evenodd" d="M6489.37 -1468.63C6010.4 -1649.73 5517.58 -1832.68 5005.34 -1815.38C4984.61 -1814.66 4963.23 -1813.3 4942.64 -1811.36C4501.46 -1769.31 4119.72 -1560.42 3797.73 -1264.62C3716.83 -1190.33 3638.02 -1108.21 3565.15 -1025.37C3400.65 -838.145 3253.16 -634.402 3108.47 -427.493C3077.59 -383.323 3046.83 -339.008 3016.06 -294.678C2902.71 -131.366 2789.22 32.1392 2668.72 189.299C2398.58 541.575 2072.43 905.073 1645.94 1040.89C1114.27 1210.11 547.492 1028.79 67.1254 776.076C-177.641 647.3 -414.643 491.884 -635.693 324.12C-811.135 190.977 -984.503 46.8401 -1143.08 -106.066L-1143.08 -106.066C-1150.17 -112.912 -1161.64 -123.084 -1176.07 -135.884C-1219.87 -174.732 -1290.98 -237.792 -1349.7 -305.587C-1388.74 -350.662 -1422.41 -397.931 -1438.99 -441.69C-1455.57 -485.466 -1455.12 -525.954 -1425.52 -557.115C-1425.14 -557.516 -1424.51 -557.532 -1424.11 -557.152C-1423.71 -556.771 -1423.69 -556.138 -1424.07 -555.738C-1452.92 -525.362 -1453.56 -485.806 -1437.12 -442.398C-1420.67 -398.973 -1387.19 -351.918 -1348.19 -306.896C-1289.57 -239.222 -1218.7 -176.37 -1174.88 -137.505C-1160.39 -124.65 -1148.85 -114.419 -1141.69 -107.505C-983.185 45.3329 -809.88 189.419 -634.484 322.527C-413.506 490.236 -176.597 645.589 68.0565 774.306C548.29 1026.95 1114.45 1207.96 1645.34 1038.98C2071.17 903.374 2397 540.352 2667.13 188.082C2787.6 30.959 2901.06 -132.5 3014.41 -295.811C3045.18 -340.141 3075.94 -384.461 3106.83 -428.639C3251.52 -635.558 3399.07 -839.378 3563.65 -1026.69C3636.55 -1109.57 3715.42 -1191.74 3796.37 -1266.09C4118.6 -1562.1 4500.73 -1771.25 4942.45 -1813.36L4942.55 -1812.36L4942.46 -1813.36C4963.08 -1815.3 4984.5 -1816.66 5005.27 -1817.38L5005.27 -1817.38C5517.98 -1834.69 6011.17 -1651.58 6490.08 -1470.5C6490.59 -1470.31 6490.85 -1469.73 6490.66 -1469.21C6490.46 -1468.7 6489.89 -1468.43 6489.37 -1468.63Z" fill="white"/>
<path opacity="0.3" fill-rule="evenodd" clip-rule="evenodd" d="M6496.33 -1458.15C6018.95 -1639.97 5526.35 -1818.75 5015.55 -1792.55L5015.55 -1792.55C4994.89 -1791.54 4973.59 -1789.75 4953.14 -1787.46C4513.54 -1737.51 4134.24 -1521.93 3812.73 -1226.41L3812.06 -1227.15L3812.73 -1226.41C3731.98 -1152.26 3653.1 -1070.65 3580.01 -988.309C3416.16 -803.633 3268.12 -603.173 3122.34 -399.96C3095.45 -362.469 3068.63 -324.883 3041.8 -287.286C2923.23 -121.109 2804.49 45.2976 2678.26 204.825C2405.45 549.504 2080.95 889.568 1651.76 1028.04C1123.52 1198.42 543.593 996.542 80.4836 754.18C-162.989 626.771 -399.056 473.725 -620.176 309.051C-796.408 177.843 -970.275 36.0776 -1131.94 -113.016C-1142.46 -122.714 -1158.54 -136.113 -1178.06 -152.371C-1191.31 -163.41 -1206.14 -175.767 -1221.89 -189.18C-1260.81 -222.318 -1305.24 -261.844 -1344.97 -303.659C-1384.68 -345.463 -1419.73 -389.608 -1439.82 -431.99C-1459.92 -474.37 -1465.14 -515.178 -1444.83 -550.107C-1444.55 -550.585 -1443.94 -550.747 -1443.47 -550.469C-1442.99 -550.192 -1442.83 -549.58 -1443.1 -549.102C-1462.93 -514.991 -1457.98 -474.948 -1438.02 -432.847C-1418.06 -390.749 -1383.17 -346.786 -1343.52 -305.036C-1303.87 -263.297 -1259.49 -223.824 -1220.6 -190.703C-1204.91 -177.34 -1190.1 -165.003 -1176.85 -153.967C-1157.29 -137.671 -1141.13 -124.214 -1130.58 -114.486C-968.979 34.5526 -795.167 176.274 -618.982 307.447C-397.93 472.07 -161.952 625.056 81.4109 752.408C544.437 994.727 1123.72 1196.25 1651.15 1026.13C2079.73 887.859 2403.92 548.219 2676.69 203.584C2802.89 44.1016 2921.59 -122.253 3040.16 -288.426C3066.99 -326.029 3093.81 -363.623 3120.72 -401.126C3266.5 -604.345 3414.59 -804.878 3578.52 -989.637C3651.64 -1072.02 3730.57 -1153.68 3811.38 -1227.89C4133.1 -1523.6 4512.78 -1739.43 4952.92 -1789.44L4952.92 -1789.44C4973.4 -1791.74 4994.75 -1793.54 5015.45 -1794.55C5526.73 -1820.77 6019.71 -1641.82 6497.04 -1460.02C6497.56 -1459.82 6497.82 -1459.24 6497.62 -1458.73C6497.42 -1458.21 6496.85 -1457.95 6496.33 -1458.15Z" fill="white"/>
<path opacity="0.3" fill-rule="evenodd" clip-rule="evenodd" d="M6503.29 -1447.67C6027.5 -1630.2 5535.04 -1804.88 5025.77 -1769.79C5005.25 -1768.35 4983.95 -1766.27 4963.65 -1763.55L4963.65 -1763.55C4525.69 -1705.64 4148.9 -1483.46 3827.74 -1188.15C3747.13 -1114.07 3668.31 -1033.03 3595.02 -951.26C3450.66 -790.266 3312.82 -602.421 3173.39 -407.298C3150.68 -375.509 3127.92 -343.527 3105.08 -311.437C2987.77 -146.567 2868.42 21.1603 2742.31 180.217C2441.02 560.239 2101 890.95 1657.54 1015.19C1127.46 1163.64 570.9 980.391 93.7687 732.203C-148.338 606.23 -383.469 455.412 -604.731 293.756C-781.684 164.492 -956.118 25.2438 -1120.86 -119.966L-1120.2 -120.716L-1120.86 -119.966C-1132.95 -130.622 -1151.77 -145.418 -1174.59 -163.348C-1186.43 -172.658 -1199.35 -182.813 -1212.96 -193.672C-1252.75 -225.419 -1298.37 -263.137 -1340.02 -303.196C-1381.67 -343.246 -1419.39 -385.68 -1443.36 -426.865C-1467.31 -468.028 -1477.63 -508.146 -1464.07 -543.43C-1463.88 -543.945 -1463.3 -544.203 -1462.78 -544.004C-1462.27 -543.806 -1462.01 -543.228 -1462.21 -542.712C-1475.44 -508.274 -1465.47 -468.84 -1441.63 -427.871C-1417.8 -386.922 -1380.23 -344.64 -1338.64 -304.637C-1297.05 -264.643 -1251.49 -226.97 -1211.71 -195.235C-1198.15 -184.415 -1185.26 -174.28 -1173.42 -164.977C-1150.57 -147.016 -1131.66 -132.159 -1119.54 -121.466C-954.844 23.7004 -780.458 162.91 -603.551 292.142C-382.353 453.75 -147.308 604.511 94.6918 730.429C571.701 978.553 1127.68 1161.51 1657 1013.26C2099.83 889.201 2439.51 558.916 2740.75 178.975C2866.82 19.9655 2986.13 -147.709 3103.44 -312.576C3126.28 -344.672 3149.04 -376.662 3171.76 -408.46C3311.19 -603.584 3449.09 -791.51 3593.53 -952.595C3666.86 -1034.4 3745.72 -1115.49 3826.39 -1189.62C4147.74 -1485.11 4524.89 -1707.55 4963.38 -1765.53C4983.73 -1768.26 5005.07 -1770.35 5025.63 -1771.78L5025.63 -1771.78C5535.41 -1806.91 6028.25 -1632.05 6504.01 -1449.53C6504.53 -1449.33 6504.78 -1448.76 6504.59 -1448.24C6504.39 -1447.73 6503.81 -1447.47 6503.29 -1447.67Z" fill="white"/>
<path opacity="0.3" fill-rule="evenodd" clip-rule="evenodd" d="M6510.19 -1437.18C6035.91 -1620.5 5543.75 -1790.95 5035.98 -1746.96L5035.9 -1747.95L5035.98 -1746.95C5015.54 -1745.23 4994.38 -1742.72 4974.15 -1739.64L4974 -1740.63L4974.15 -1739.64C4537.84 -1673.76 4163.63 -1444.98 3842.82 -1149.8C3762.42 -1075.79 3683.53 -995.324 3610.02 -914.061L3609.28 -914.731L3610.02 -914.06C3466.18 -755.253 3327.82 -570.543 3187.37 -379.164C3169.26 -354.491 3151.12 -329.707 3132.93 -304.854C3010.01 -136.943 2884.78 34.1377 2752.26 195.625C2447.99 566.395 2105.15 886.761 1663.34 1002.27C1134.27 1140.59 582.311 955.979 107.054 710.018C-133.83 585.41 -368.026 436.963 -589.286 278.398C-767.026 151.071 -942.105 14.3392 -1109.79 -126.988L-1109.14 -127.752L-1109.79 -126.988C-1124.57 -139.454 -1147.44 -156.396 -1174.8 -176.656C-1184.49 -183.838 -1194.75 -191.436 -1205.41 -199.399C-1246.12 -229.809 -1292.64 -265.508 -1335.87 -303.543C-1379.1 -341.571 -1419.09 -381.967 -1446.71 -421.778C-1474.31 -461.562 -1489.68 -500.934 -1483.37 -536.853C-1483.27 -537.397 -1482.75 -537.76 -1482.21 -537.664C-1481.67 -537.569 -1481.3 -537.05 -1481.4 -536.506C-1487.58 -501.375 -1472.57 -462.561 -1445.06 -422.918C-1417.58 -383.302 -1377.73 -343.03 -1334.55 -305.044C-1291.38 -267.064 -1244.91 -231.403 -1204.21 -201.001C-1193.59 -193.061 -1183.35 -185.478 -1173.66 -178.304C-1146.29 -158.027 -1123.33 -141.026 -1108.5 -128.517C-940.854 12.778 -765.816 149.478 -588.122 276.772C-366.922 435.294 -132.808 583.687 107.973 708.241C583.115 954.143 1134.51 1138.47 1662.84 1000.33C2104.01 884.992 2446.51 565.042 2750.71 194.356C2883.2 32.9159 3008.39 -138.115 3131.31 -306.029C3149.5 -330.884 3167.65 -355.67 3185.76 -380.347C3326.2 -571.723 3464.62 -756.51 3608.54 -915.403C3682.08 -996.705 3761.02 -1077.22 3841.47 -1151.27C4162.45 -1446.62 4537.02 -1675.66 4973.85 -1741.62C4994.12 -1744.71 5015.32 -1747.22 5035.81 -1748.95C5544.09 -1792.99 6036.65 -1622.36 6510.91 -1439.05C6511.42 -1438.85 6511.68 -1438.27 6511.48 -1437.75C6511.28 -1437.24 6510.7 -1436.98 6510.19 -1437.18Z" fill="white"/>
<path opacity="0.3" fill-rule="evenodd" clip-rule="evenodd" d="M6517.15 -1426.77C6044.31 -1610.81 5552.3 -1777.09 5046.27 -1724.12L5046.26 -1724.12C5025.9 -1722.04 5004.81 -1719.1 4984.65 -1715.73C4550.13 -1641.89 4178.5 -1406.57 3857.9 -1111.32C3777.72 -1037.52 3698.9 -957.48 3625.03 -876.79C3481.56 -720.026 3342.63 -538.388 3201.15 -350.739C3187.97 -333.248 3174.76 -315.705 3161.52 -298.125C3032.76 -127.113 2901.37 47.3871 2762.11 211.256C2454.97 572.675 2109.44 882.536 1669.07 989.35C1141.09 1117.47 593.802 931.564 120.268 687.759C-119.249 564.446 -352.51 418.297 -573.912 262.821C-752.44 137.434 -928.019 3.21753 -1098.71 -134.155C-1117.61 -149.357 -1146.39 -169.325 -1180.09 -192.713C-1186.72 -197.312 -1193.53 -202.043 -1200.5 -206.897C-1242.9 -236.416 -1290.92 -270.42 -1335.98 -306.547C-1381.04 -342.669 -1423.18 -380.942 -1453.82 -419.006C-1484.44 -457.043 -1503.7 -495.021 -1502.7 -530.533C-1502.68 -531.085 -1502.22 -531.52 -1501.67 -531.504C-1501.12 -531.489 -1500.68 -531.029 -1500.7 -530.477C-1501.68 -495.691 -1482.79 -458.185 -1452.26 -420.26C-1421.76 -382.361 -1379.74 -344.194 -1334.73 -308.107C-1289.72 -272.026 -1241.75 -238.054 -1199.36 -208.538C-1192.4 -203.692 -1185.59 -198.966 -1178.97 -194.37C-1145.27 -170.984 -1116.42 -150.964 -1097.46 -135.713C-926.791 1.63904 -751.246 135.828 -572.762 261.184C-351.416 416.621 -118.235 562.719 121.184 685.981C594.608 929.73 1141.34 1115.35 1668.6 987.406C2108.34 880.745 2453.53 571.292 2760.59 209.961C2899.81 46.1356 3031.16 -128.322 3159.94 -299.345C3173.17 -316.919 3186.37 -334.457 3199.56 -351.943C3341.03 -539.586 3480.01 -721.297 3623.55 -878.14C3697.45 -958.866 3776.32 -1038.95 3856.55 -1112.79C4177.31 -1408.19 4549.28 -1643.77 4984.31 -1717.7L4984.48 -1716.72L4984.32 -1717.7C5004.51 -1721.08 5025.64 -1724.03 5046.06 -1726.11C5552.62 -1779.13 6045.04 -1612.67 6517.87 -1428.64C6518.39 -1428.44 6518.64 -1427.86 6518.44 -1427.34C6518.24 -1426.83 6517.66 -1426.57 6517.15 -1426.77Z" fill="white"/>
<path opacity="0.3" fill-rule="evenodd" clip-rule="evenodd" d="M6524.11 -1416.29C6052.57 -1601.11 5560.85 -1763.22 5056.48 -1701.29L5056.48 -1701.29C5036.25 -1698.85 5015.24 -1695.55 4995.15 -1691.75L4994.97 -1692.73L4995.15 -1691.75C4562.57 -1610.01 4193.51 -1368.09 3873.05 -1072.83L3872.37 -1073.56L3873.05 -1072.83C3793.01 -999.105 3714.26 -919.565 3640.17 -839.448C3496.85 -684.422 3357.25 -505.721 3214.73 -321.769C3206.89 -311.659 3199.05 -301.534 3191.2 -291.395C3056.2 -117.072 2918.28 61.0292 2771.86 227.3C2462 579.171 2113.98 878.202 1674.87 976.429C1147.97 1094.27 605.218 907.007 133.482 665.358C-104.812 543.337 -337.067 399.491 -558.538 247.173C-737.926 123.727 -914.222 -7.97473 -1087.64 -141.32C-1116.68 -163.637 -1146.04 -185.773 -1175.45 -207.948C-1257.11 -269.508 -1339.16 -331.373 -1416.05 -398.276L-1415.39 -399.03L-1416.05 -398.276C-1423.02 -404.349 -1430.37 -410.389 -1437.81 -416.507C-1452.14 -428.288 -1466.81 -440.355 -1479.87 -453.489C-1499.75 -473.482 -1516.05 -496.104 -1521.99 -524.338C-1522.11 -524.879 -1521.76 -525.409 -1521.22 -525.523C-1520.68 -525.637 -1520.15 -525.291 -1520.04 -524.75C-1514.2 -497.048 -1498.19 -474.757 -1478.45 -454.899C-1465.46 -441.831 -1450.93 -429.885 -1436.65 -418.149C-1429.19 -412.014 -1421.8 -405.936 -1414.73 -399.785C-1337.91 -332.932 -1255.93 -271.13 -1174.3 -209.583C-1144.88 -187.399 -1115.5 -165.248 -1086.42 -142.906L-1087.03 -142.113L-1086.42 -142.906C-913.016 -9.57007 -736.751 122.108 -557.404 245.526C-335.985 397.808 -103.805 541.606 134.394 663.577C606.027 905.174 1148.24 1092.16 1674.43 974.478C2112.92 876.391 2460.58 577.756 2770.36 225.978C2916.73 59.7537 3054.63 -118.305 3189.64 -292.642C3197.48 -302.773 3205.32 -312.891 3213.15 -322.994C3355.66 -506.937 3495.31 -685.706 3638.7 -840.805C3712.82 -920.956 3791.61 -1000.53 3871.7 -1074.3C4192.3 -1369.7 4561.69 -1611.88 4994.78 -1693.72C5014.91 -1697.53 5035.96 -1700.83 5056.24 -1703.28C5561.15 -1765.28 6053.3 -1602.98 6524.84 -1418.15C6525.35 -1417.95 6525.61 -1417.37 6525.41 -1416.85C6525.21 -1416.34 6524.62 -1416.09 6524.11 -1416.29Z" fill="white"/>
<path opacity="0.3" fill-rule="evenodd" clip-rule="evenodd" d="M6531 -1405.81C6060.77 -1591.49 5569.33 -1749.36 5066.77 -1678.46C5046.61 -1675.59 5025.67 -1672 5005.73 -1667.84C4575 -1578.07 4208.6 -1329.69 3888.28 -1034.27C3808.45 -960.544 3729.7 -881.577 3655.32 -802.032C3512.25 -648.907 3372 -473.224 3228.42 -293.001L3222.51 -285.581C3080.82 -107.722 2935.8 74.3063 2781.59 243.155C2468.89 585.542 2118.27 873.867 1680.59 963.436C1154.93 1071 616.772 882.449 146.624 642.883C-90.3766 522.085 -321.695 380.536 -543.236 231.31C-723.412 109.876 -900.712 -19.3835 -1076.63 -148.558C-1115.32 -176.956 -1154.24 -205.124 -1193.18 -233.303C-1268.32 -287.689 -1343.52 -342.114 -1417.22 -398.305C-1424.68 -403.989 -1432.4 -409.634 -1440.2 -415.335C-1455.92 -426.835 -1471.96 -438.564 -1486.83 -451.3C-1509.1 -470.373 -1528.87 -491.807 -1541.31 -518.377C-1541.54 -518.877 -1541.33 -519.472 -1540.83 -519.706C-1540.33 -519.94 -1539.73 -519.724 -1539.5 -519.224C-1527.23 -493.018 -1507.69 -471.802 -1485.53 -452.819C-1470.72 -440.131 -1454.79 -428.485 -1439.1 -417.013C-1431.29 -411.3 -1423.53 -405.63 -1416 -399.896L-1416.61 -399.1L-1416 -399.896C-1342.33 -343.718 -1267.16 -289.32 -1192.03 -234.944C-1153.09 -206.762 -1114.16 -178.585 -1075.45 -150.171L-1076.04 -149.365L-1075.45 -150.171C-899.528 -20.9955 -722.257 108.243 -542.118 229.651C-320.624 378.845 -89.3771 520.35 147.532 641.102C617.584 880.618 1155.22 1068.9 1680.19 961.477C2117.24 872.037 2467.5 584.095 2780.11 241.807C2934.28 73.0077 3079.26 -108.976 3220.96 -286.851L3226.86 -294.247C3370.43 -474.458 3510.72 -650.205 3653.86 -803.398C3728.27 -882.974 3807.05 -961.977 3886.92 -1035.74L3887.6 -1035L3886.92 -1035.74C4207.37 -1331.27 4574.09 -1579.92 5005.32 -1669.8C5025.3 -1673.97 5046.29 -1677.56 5066.49 -1680.44L5066.63 -1679.45L5066.49 -1680.44C5569.62 -1751.42 6061.48 -1593.36 6531.74 -1407.67C6532.25 -1407.47 6532.5 -1406.89 6532.3 -1406.37C6532.1 -1405.86 6531.52 -1405.61 6531 -1405.81Z" fill="white"/>
<path opacity="0.3" fill-rule="evenodd" clip-rule="evenodd" d="M6537.97 -1395.4C6068.88 -1581.86 5577.74 -1735.5 5077.05 -1655.63C5056.97 -1652.4 5036.17 -1648.38 5016.3 -1643.86C4587.51 -1546.12 4223.9 -1291.28 3903.57 -995.566C3823.88 -921.983 3745.13 -843.518 3670.54 -764.476L3669.81 -765.162L3670.54 -764.475C3532.74 -618.536 3396.49 -452.094 3256.71 -281.338L3243.21 -264.85C3098.71 -88.3451 2950.27 92.1924 2792.36 258.895C2476.54 592.289 2122.7 870.468 1686.31 950.443C1160.51 1046.8 628.262 857.747 159.691 620.194C-75.9437 500.689 -306.399 361.439 -527.937 215.303C-679.647 115.265 -829.494 9.98645 -978.855 -94.951C-1007.8 -115.284 -1036.72 -135.604 -1065.63 -155.871L-1065.06 -156.69L-1065.63 -155.871C-1110.99 -187.677 -1164.2 -219.386 -1219.48 -252.325C-1254.97 -273.474 -1291.31 -295.131 -1326.97 -317.647C-1418.1 -375.18 -1504.68 -438.269 -1560.66 -512.598C-1561 -513.04 -1560.91 -513.667 -1560.47 -513.999C-1560.03 -514.331 -1559.4 -514.243 -1559.07 -513.802C-1503.32 -439.783 -1417 -376.855 -1325.9 -319.339C-1290.35 -296.889 -1254.05 -275.256 -1218.57 -254.112C-1163.23 -221.133 -1109.89 -189.345 -1064.48 -157.509C-1035.57 -137.238 -1006.64 -116.915 -977.695 -96.5802C-828.335 8.35632 -678.518 113.614 -526.835 213.633C-305.339 359.741 -74.9521 498.949 160.595 618.41C629.074 855.917 1160.82 1044.7 1685.95 948.475C2121.71 868.616 2475.18 590.812 2790.91 257.519C2948.76 90.8773 3097.15 -89.6056 3241.66 -266.117L3255.19 -282.642C3394.95 -453.373 3531.24 -619.86 3669.08 -765.848C3743.7 -844.92 3822.49 -923.418 3902.21 -997.036C4222.66 -1292.85 4586.58 -1547.96 5015.85 -1645.81L5016.08 -1644.84L5015.86 -1645.81C5035.77 -1650.34 5056.61 -1654.37 5076.74 -1657.6L5076.89 -1656.62L5076.74 -1657.6C5578.01 -1737.57 6069.59 -1583.74 6538.7 -1397.25C6539.22 -1397.05 6539.47 -1396.47 6539.26 -1395.96C6539.06 -1395.44 6538.48 -1395.19 6537.97 -1395.4Z" fill="white"/>
<path opacity="0.3" fill-rule="evenodd" clip-rule="evenodd" d="M6544.92 -1384.91C6076.93 -1572.31 5586.15 -1721.64 5087.41 -1632.73L5087.23 -1633.71L5087.4 -1632.73C5067.4 -1629.21 5046.67 -1624.76 5026.87 -1619.89C4600.09 -1514.11 4239.28 -1252.87 3918.87 -956.789C3839.4 -883.348 3760.64 -805.383 3685.76 -726.915C3555.57 -590.444 3425.84 -436.393 3292.69 -278.287C3280.86 -264.247 3269.01 -250.175 3257.13 -236.081C3111.47 -63.2788 2961.37 112.896 2801.86 274.923C2482.87 598.966 2126.17 866.531 1692.05 937.382C1167.83 1022.95 640.328 833.05 172.837 597.437L173.287 596.544L172.837 597.437C-61.5747 479.225 -291.095 342.131 -512.702 199.156C-633.44 121.223 -753.268 40.1499 -872.903 -40.7924C-933.495 -81.7875 -994.038 -122.749 -1054.62 -163.253C-1112.62 -202.031 -1175.89 -238.735 -1239.99 -275.924C-1268.09 -292.223 -1296.35 -308.615 -1324.39 -325.315C-1416.38 -380.1 -1506.03 -438.181 -1579.93 -507.082C-1580.33 -507.458 -1580.36 -508.091 -1579.98 -508.495C-1579.6 -508.899 -1578.97 -508.921 -1578.57 -508.544C-1504.83 -439.796 -1415.33 -381.805 -1323.37 -327.034C-1295.37 -310.361 -1267.14 -293.984 -1239.06 -277.693C-1174.92 -240.488 -1111.56 -203.73 -1053.51 -164.915C-992.906 -124.398 -932.353 -83.4291 -871.755 -42.4304C-752.132 38.5035 -632.338 119.554 -511.617 197.476C-290.047 340.427 -60.5908 477.481 173.738 595.651C641.142 831.22 1168.16 1020.87 1691.73 935.408C2125.22 864.659 2481.54 597.459 2800.44 273.52C2959.88 111.555 3109.94 -64.5656 3255.6 -237.37C3267.48 -251.465 3279.33 -265.538 3291.16 -279.579C3424.3 -437.675 3554.08 -591.775 3684.31 -728.295C3759.22 -806.791 3838 -884.786 3917.51 -958.258C4238.02 -1254.43 4599.13 -1515.93 5026.39 -1621.83L5026.63 -1620.86L5026.39 -1621.83C5046.23 -1626.72 5067 -1631.17 5087.06 -1634.69C5586.39 -1723.71 6077.62 -1574.19 6545.67 -1386.77C6546.18 -1386.56 6546.43 -1385.98 6546.22 -1385.47C6546.02 -1384.96 6545.44 -1384.71 6544.92 -1384.91Z" fill="white"/>
<path opacity="0.3" fill-rule="evenodd" clip-rule="evenodd" d="M6551.89 -1374.5C6084.83 -1562.76 5594.42 -1707.78 5097.7 -1609.9C5077.83 -1605.95 5057.17 -1601.14 5037.45 -1595.84L5037.19 -1596.8L5037.45 -1595.84C4612.75 -1482.16 4254.8 -1214.53 3934.23 -917.945C3854.9 -844.575 3776.29 -767.112 3701.12 -689.216C3578.33 -561.885 3455.37 -419.899 3329.28 -274.286C3309.8 -251.797 3290.25 -229.221 3270.62 -206.6C3123.85 -37.5193 2972.3 134.112 2811.43 291.261C2489.7 605.55 2130.6 862.014 1697.77 924.313C1174.93 999.61 651.892 808.277 185.84 574.457C-47.2775 457.54 -275.933 322.743 -497.466 182.858C-599.232 118.641 -700.621 52.3588 -801.91 -13.859C-882.495 -66.5415 -963.017 -119.183 -1043.62 -170.711C-1118.27 -218.407 -1197.49 -262.209 -1276.99 -306.167C-1292.66 -314.833 -1308.34 -323.504 -1324 -332.213C-1419.09 -385.089 -1513.36 -439.327 -1599.37 -501.835C-1599.81 -502.16 -1599.91 -502.786 -1599.59 -503.232C-1599.26 -503.679 -1598.64 -503.778 -1598.19 -503.453C-1512.29 -441.022 -1418.12 -386.834 -1323.03 -333.961C-1307.38 -325.257 -1291.7 -316.589 -1276.03 -307.926C-1196.53 -263.968 -1117.25 -220.13 -1042.54 -172.396C-961.89 -120.836 -881.362 -68.1904 -800.78 -15.5103C-699.518 50.6902 -598.173 116.945 -496.399 181.167C-274.898 321.032 -46.3019 455.792 186.737 572.67C652.709 806.45 1175.28 997.539 1697.49 922.334C2129.69 860.124 2488.42 604.011 2810.04 289.83C2970.84 132.745 3122.34 -38.8319 3269.11 -207.911C3288.74 -230.527 3308.29 -253.1 3327.76 -275.586C3453.85 -421.197 3576.85 -563.231 3699.68 -690.605C3774.87 -768.525 3853.51 -846.015 3932.87 -919.413C4253.52 -1216.07 4611.75 -1483.97 5036.93 -1597.77C5056.69 -1603.09 5077.4 -1607.9 5097.31 -1611.86L5097.5 -1610.88L5097.31 -1611.86C5594.64 -1709.86 6085.52 -1564.64 6552.64 -1376.36C6553.15 -1376.15 6553.4 -1375.57 6553.19 -1375.06C6552.99 -1374.54 6552.4 -1374.3 6551.89 -1374.5Z" fill="white"/>
<path opacity="0.3" fill-rule="evenodd" clip-rule="evenodd" d="M6558.85 -1364.09C6092.74 -1553.28 5602.69 -1693.92 5108.05 -1586.99C5088.26 -1582.68 5067.67 -1577.52 5048.09 -1571.85L5047.81 -1572.82L5048.09 -1571.85C4625.47 -1450.15 4270.46 -1176.2 3949.67 -879.101C3870.48 -805.729 3791.94 -728.766 3716.49 -651.372C3601.63 -533.583 3486.17 -403.878 3367.87 -270.995C3340.07 -239.763 3312.11 -208.355 3283.97 -176.885C3136.08 -11.5316 2983.1 155.523 2820.9 307.754C2496.49 612.208 2135.06 857.463 1703.5 911.247C1182.1 976.197 663.446 783.356 198.833 551.409C-33.0607 435.641 -260.712 303.144 -482.312 166.423C-565.501 115.104 -648.485 62.5818 -731.466 10.0609C-831.757 -53.4161 -932.045 -116.891 -1032.69 -178.236C-1150.61 -250.147 -1272.83 -313.924 -1395.25 -377.806C-1470 -416.811 -1544.83 -455.856 -1618.79 -496.815C-1619.28 -497.083 -1619.45 -497.692 -1619.18 -498.175C-1618.92 -498.658 -1618.31 -498.833 -1617.83 -498.565C-1543.95 -457.658 -1469.17 -418.633 -1394.43 -379.633C-1271.95 -315.721 -1149.6 -251.879 -1031.65 -179.944C-931.022 -118.609 -830.685 -55.104 -730.361 8.39307C-647.371 60.9192 -564.39 113.44 -481.262 164.721C-259.688 301.426 -32.093 433.889 199.727 549.619C664.267 781.53 1182.47 974.135 1703.25 909.262C2134.2 855.556 2495.24 610.637 2819.53 306.295C2981.67 154.128 3134.6 -12.8704 3282.48 -178.218C3310.61 -209.677 3338.56 -241.077 3366.36 -272.303C3484.66 -405.191 3600.16 -534.941 3715.06 -652.768C3790.53 -730.184 3869.1 -807.171 3948.31 -880.568C4269.16 -1177.72 4624.45 -1451.93 5047.54 -1573.78C5067.16 -1579.46 5087.79 -1584.63 5107.63 -1588.94L5107.84 -1587.97L5107.63 -1588.94C5602.89 -1696 6093.41 -1555.17 6559.6 -1365.94C6560.12 -1365.73 6560.36 -1365.15 6560.16 -1364.64C6559.95 -1364.13 6559.36 -1363.88 6558.85 -1364.09Z" fill="white"/>
<path opacity="0.3" fill-rule="evenodd" clip-rule="evenodd" d="M6565.82 -1353.61C6100.5 -1543.8 5610.82 -1679.98 5118.41 -1564.09C5098.69 -1559.43 5078.18 -1553.83 5058.74 -1547.81L5058.44 -1548.76L5058.74 -1547.81C4638.26 -1418.13 4287.92 -1137.8 3965.18 -840.109C3885.7 -766.807 3807.59 -690.35 3731.92 -613.527C3625.84 -505.877 3518.89 -388.928 3409.49 -269.295C3372.34 -228.672 3334.91 -187.739 3297.13 -146.756C3148.11 14.9097 2993.73 177.346 2830.22 324.587C2503.22 619.062 2139.6 852.839 1709.15 898.109C1189.34 952.783 675.076 758.438 211.832 528.216C-18.8384 413.67 -245.552 283.401 -467.151 149.839C-535.596 108.617 -603.974 66.6611 -672.379 24.6882C-788.576 -46.6094 -904.853 -117.956 -1021.68 -185.84C-1220.54 -301.348 -1426.36 -399.847 -1638.31 -491.963C-1638.82 -492.183 -1639.05 -492.772 -1638.83 -493.278C-1638.61 -493.785 -1638.02 -494.017 -1637.51 -493.797C-1425.53 -401.663 -1219.62 -303.13 -1020.68 -187.57L-1021.18 -186.705L-1020.68 -187.569C-903.832 -119.676 -787.513 -48.3035 -671.298 23.005C-602.897 64.975 -534.533 106.923 -466.119 148.125L-466.635 148.982L-466.119 148.126C-244.54 281.675 -17.8792 411.914 212.722 526.424L212.277 527.32L212.722 526.425C675.901 756.615 1189.73 950.731 1708.94 896.119C2138.78 850.915 2502.01 617.459 2828.89 323.101C2992.32 175.925 3146.65 13.5448 3295.66 -148.112C3333.43 -189.084 3370.85 -230.01 3408 -270.631C3517.41 -390.269 3624.38 -507.255 3730.49 -614.931C3806.18 -691.77 3884.32 -768.251 3963.82 -841.579C4286.6 -1139.3 4637.22 -1419.9 5058.15 -1549.72C5077.63 -1555.76 5098.19 -1561.36 5117.95 -1566.04L5118.18 -1565.06L5117.96 -1566.04C5610.99 -1682.07 6101.16 -1545.69 6566.57 -1355.46C6567.08 -1355.25 6567.33 -1354.66 6567.12 -1354.15C6566.91 -1353.64 6566.33 -1353.4 6565.82 -1353.61Z" fill="white"/>
<path opacity="0.3" fill-rule="evenodd" clip-rule="evenodd" d="M6572.78 -1343.2C6108.18 -1534.4 5618.95 -1666.12 5128.77 -1541.19C5109.12 -1536.17 5088.75 -1530.22 5069.38 -1523.84L5069.07 -1524.79L5069.38 -1523.84C4651.06 -1386.12 4303.58 -1099.54 3980.69 -801.052C3901.5 -727.823 3823.39 -651.863 3747.35 -575.614C3651.01 -478.912 3553.64 -375.199 3454.18 -269.27C3259.83 -62.2848 3057.54 153.168 2839.51 341.344C2509.85 625.858 2144.03 848.212 1714.87 884.966C1196.73 929.367 686.489 733.444 224.759 504.948C-4.54541 391.413 -230.394 263.443 -452.063 133.114C-506.765 100.961 -561.462 68.4061 -616.199 35.8278C-747.29 -42.1951 -878.606 -120.352 -1010.75 -193.44C-1218.23 -308.161 -1432.66 -407.662 -1657.85 -487.341C-1658.37 -487.525 -1658.64 -488.096 -1658.46 -488.617C-1658.27 -489.138 -1657.7 -489.41 -1657.18 -489.226C-1431.87 -409.505 -1217.34 -309.957 -1009.78 -195.191C-877.608 -122.086 -746.247 -43.9023 -615.144 34.1279C-560.414 66.7021 -505.729 99.2495 -451.049 131.39C-229.396 261.71 -3.59436 389.652 225.647 503.155C687.318 731.623 1197.14 927.324 1714.7 882.973C2143.25 846.271 2508.69 624.225 2838.2 339.83C3056.16 151.717 3258.31 -63.59 3452.61 -270.526C3552.09 -376.478 3649.51 -480.236 3745.94 -577.026L3746.64 -576.32L3745.94 -577.027C3821.98 -653.29 3900.12 -729.269 3979.33 -802.521C4302.24 -1101.02 4649.99 -1387.87 5068.76 -1525.74C5088.17 -1532.13 5108.58 -1538.1 5128.28 -1543.13C5619.1 -1668.23 6108.84 -1536.29 6573.54 -1345.05C6574.05 -1344.84 6574.3 -1344.26 6574.09 -1343.75C6573.88 -1343.24 6573.29 -1342.99 6572.78 -1343.2Z" fill="white"/>
<path opacity="0.3" fill-rule="evenodd" clip-rule="evenodd" d="M6579.74 -1332.79C6115.8 -1524.98 5627 -1652.19 5139.2 -1518.29C5119.62 -1512.91 5099.32 -1506.53 5080.03 -1499.78C4663.99 -1354.1 4319.39 -1061.34 3996.27 -761.912C3917.3 -688.753 3839.18 -613.294 3762.86 -537.546C3678.93 -454.224 3594.49 -367.039 3508.86 -278.635C3297.43 -60.3578 3078.82 165.346 2843.13 358.671C2511.96 630.316 2146.95 838.167 1720.54 871.832C1211.29 911.997 698.18 708.312 237.609 481.474C9.53308 369.16 -215.309 243.413 -437.047 116.244C-477.024 93.2948 -517.018 70.1785 -557.048 47.0419C-703.902 -37.8376 -851.229 -122.991 -999.891 -201.186L-999.425 -202.071L-999.891 -201.186C-1215.98 -314.976 -1440.67 -414.61 -1677.47 -482.943C-1678 -483.096 -1678.3 -483.651 -1678.15 -484.181C-1678 -484.712 -1677.44 -485.018 -1676.91 -484.865C-1439.94 -416.482 -1215.13 -316.786 -998.959 -202.956C-850.259 -124.74 -702.885 -39.5601 -556.025 45.3226C-516.001 68.4561 -476.015 91.5674 -436.051 114.51C-214.323 241.673 10.4752 367.394 238.493 479.68C699.033 706.503 1211.72 909.957 1720.38 869.838C2146.22 836.219 2510.85 628.645 2841.86 357.124C3077.45 163.877 3295.94 -61.6927 3507.33 -279.937C3592.98 -368.362 3677.46 -455.583 3761.45 -538.966C3837.78 -614.726 3915.92 -690.201 3994.91 -763.378C4318.03 -1062.81 4662.9 -1355.83 5079.37 -1501.67C5098.7 -1508.43 5119.04 -1514.83 5138.67 -1520.22L5138.94 -1519.25L5138.67 -1520.22C5627.13 -1654.3 6116.45 -1526.88 6580.51 -1334.64C6581.02 -1334.42 6581.26 -1333.84 6581.05 -1333.33C6580.84 -1332.82 6580.25 -1332.58 6579.74 -1332.79Z" fill="white"/>
<path opacity="0.3" fill-rule="evenodd" clip-rule="evenodd" d="M6586.78 -1322.37C6123.35 -1515.64 5634.98 -1638.18 5149.56 -1495.38C5130.12 -1489.65 5109.9 -1482.83 5090.74 -1475.73C4676.93 -1322.08 4335.34 -1023.07 4011.85 -722.708C3933.09 -649.546 3855.05 -574.589 3778.44 -499.415C3707.51 -429.791 3636.08 -357.774 3563.78 -284.886C3338.58 -57.858 3104.98 177.63 2852.34 375.642C2518.57 637.245 2151.42 833.546 1726.19 858.623C1218.47 888.508 709.959 683.107 250.471 457.923L250.911 457.025L250.471 457.922C23.6144 346.685 -200.293 223.169 -422.027 99.1615C-449.692 83.6888 -477.373 68.1559 -505.075 52.611C-665.337 -37.3196 -826.311 -127.649 -988.955 -209.002C-1214.02 -321.573 -1449.61 -419.623 -1697.09 -478.766C-1697.63 -478.894 -1697.96 -479.434 -1697.83 -479.971C-1697.7 -480.508 -1697.16 -480.839 -1696.63 -480.711C-1448.94 -421.52 -1213.21 -323.4 -988.061 -210.791C-825.37 -129.415 -664.349 -39.0588 -504.089 50.8707C-476.388 66.4147 -448.71 81.9459 -421.051 97.4159C-199.319 221.422 24.5479 344.915 251.351 456.127C710.817 681.3 1218.92 886.479 1726.08 856.626C2150.73 831.583 2517.5 635.543 2851.11 374.068C3103.65 176.138 3337.11 -59.2245 3562.3 -286.235C3634.61 -359.137 3706.07 -431.179 3777.04 -500.842C3853.66 -576.026 3931.71 -650.997 4010.49 -724.173C4333.96 -1024.52 4675.82 -1323.8 5090.05 -1477.61L5090.4 -1476.67L5090.05 -1477.61C5109.24 -1484.72 5129.51 -1491.55 5148.99 -1497.3L5149.28 -1496.34L5148.99 -1497.3C5635.09 -1640.29 6123.98 -1517.54 6587.55 -1324.22C6588.06 -1324.01 6588.3 -1323.42 6588.09 -1322.91C6587.87 -1322.4 6587.29 -1322.16 6586.78 -1322.37Z" fill="white"/>
<path opacity="0.3" fill-rule="evenodd" clip-rule="evenodd" d="M6593.74 -1311.97C6130.74 -1506.31 5642.89 -1624.25 5159.99 -1472.42C5140.63 -1466.32 5120.47 -1459.15 5101.39 -1451.69C4689.94 -1290.07 4351.44 -984.959 4027.51 -683.436C3949.03 -610.345 3870.98 -535.889 3794.09 -461.216C3738.14 -406.905 3681.8 -351.354 3624.91 -295.265C3384 -57.7334 3133.32 189.439 2861.25 392.795C2524.92 644.185 2155.81 828.702 1731.92 845.336C1225.93 865.237 721.733 657.901 263.327 434.225C37.6172 324.067 -185.355 202.85 -407.014 82.0049C-420.587 74.6063 -434.166 67.199 -447.751 59.7883C-623.107 -35.8695 -799.46 -132.071 -978.098 -216.892C-1212.78 -328.312 -1459.14 -422.844 -1716.81 -474.809C-1717.35 -474.918 -1717.7 -475.445 -1717.59 -475.987C-1717.48 -476.528 -1716.95 -476.879 -1716.41 -476.769C-1458.53 -424.761 -1212.01 -330.16 -977.24 -218.698C-798.548 -133.852 -622.148 -37.6245 -446.802 58.028C-433.214 65.4402 -419.632 72.849 -406.056 80.2488C-184.393 201.097 38.541 322.292 264.204 432.428C722.597 656.097 1226.4 863.217 1731.84 843.338C2155.17 826.726 2523.89 642.454 2860.05 391.193C3132 187.927 3382.56 -59.1238 3623.47 -296.648C3680.36 -352.748 3736.72 -408.316 3792.7 -462.651C3869.6 -537.332 3947.66 -611.798 4026.15 -684.9L4026.83 -684.168L4026.15 -684.9C4350.04 -986.394 4688.8 -1291.77 5100.66 -1453.55L5101.03 -1452.62L5100.66 -1453.55C5119.78 -1461.03 5139.98 -1468.22 5159.39 -1474.33L5159.69 -1473.37L5159.39 -1474.33C5642.97 -1626.37 6131.37 -1508.22 6594.51 -1313.81C6595.02 -1313.6 6595.26 -1313.01 6595.05 -1312.5C6594.83 -1311.99 6594.25 -1311.75 6593.74 -1311.97Z" fill="white"/>
<path opacity="0.3" fill-rule="evenodd" clip-rule="evenodd" d="M6600.7 -1301.55C6138.07 -1497.04 5650.73 -1610.24 5170.41 -1449.52C5151.12 -1442.99 5131.11 -1435.46 5112.1 -1427.57L5111.72 -1428.49L5112.1 -1427.57C4702.65 -1258.33 4367.38 -946.621 4043.23 -644.085C3964.83 -570.753 3886.99 -497.036 3809.73 -422.936C3770.85 -385.608 3731.73 -347.794 3692.35 -309.717C3434.05 -60.0039 3164.06 201.019 2869.94 410.377C2530.96 651.67 2159.84 824.403 1737.5 832.126C1232.88 841.322 734.149 632.77 276.104 410.39C73.9758 312.267 -126.29 205.881 -325.723 99.9385C-347.848 88.1851 -369.963 76.437 -392.069 64.7064L-397.89 61.62C-585.698 -37.9722 -775.168 -138.446 -967.166 -224.781C-1211.75 -334.834 -1469.09 -424.916 -1736.53 -470.998C-1737.07 -471.091 -1737.44 -471.609 -1737.34 -472.153C-1737.25 -472.697 -1736.73 -473.062 -1736.19 -472.969C-1468.53 -426.85 -1211.03 -336.704 -966.345 -226.605C-774.286 -140.242 -584.764 -39.7406 -396.972 59.8429L-391.132 62.9396C-369.025 74.6705 -346.91 86.4185 -324.786 98.1716C-125.348 204.117 74.8843 310.484 276.978 408.59C735.017 630.968 1233.36 839.313 1737.46 830.127C2159.25 822.413 2529.98 649.909 2868.78 408.747C3162.77 199.484 3432.64 -61.4236 3690.95 -311.145C3730.33 -349.224 3769.45 -387.043 3808.35 -424.38C3885.61 -498.485 3963.45 -572.208 4041.87 -645.547L4042.55 -644.816L4041.87 -645.547C4365.97 -948.037 4701.5 -1260.02 5111.34 -1429.42C5130.38 -1437.32 5150.44 -1444.87 5169.78 -1451.41L5170.1 -1450.46L5169.78 -1451.41C5650.78 -1612.37 6138.69 -1498.95 6601.48 -1303.4C6601.99 -1303.18 6602.23 -1302.59 6602.01 -1302.09C6601.8 -1301.58 6601.21 -1301.34 6600.7 -1301.55Z" fill="white"/>
<path opacity="0.3" fill-rule="evenodd" clip-rule="evenodd" d="M6607.74 -1291.15C6145.33 -1487.78 5658.5 -1596.17 5180.92 -1426.55L5180.58 -1427.49L5180.91 -1426.55C5161.63 -1419.74 5141.76 -1411.78 5122.82 -1403.53C4729.05 -1232.05 4405.57 -929.149 4090.93 -634.533C4080.29 -624.568 4069.66 -614.612 4059.03 -604.671C3980.84 -531.48 3903 -458.121 3825.53 -384.595C3806.23 -366.281 3786.86 -347.877 3767.43 -329.408C3489.71 -65.4396 3197.98 211.835 2878.8 427.753C2537.27 658.787 2164.23 819.628 1743.15 818.766C1240.27 817.759 745.923 607.344 288.817 386.402C112.406 301.151 -62.9312 210.159 -237.78 119.421C-284.282 95.2888 -330.75 71.1742 -377.194 47.1904C-567.767 -51.1107 -760.814 -149.682 -956.375 -232.816L-955.984 -233.736L-956.375 -232.816C-1211.01 -341.148 -1479.19 -425.989 -1756.32 -467.404C-1756.87 -467.486 -1757.24 -467.995 -1757.16 -468.541C-1757.08 -469.087 -1756.57 -469.464 -1756.03 -469.382C-1478.69 -427.936 -1210.34 -343.038 -955.592 -234.656C-759.954 -151.49 -566.845 -52.8857 -376.278 45.4131C-329.828 69.3997 -283.358 93.5153 -236.856 117.648C-62.0067 208.386 113.301 299.362 289.687 384.601C746.797 605.545 1240.77 815.76 1743.15 816.766C2163.7 817.626 2536.35 656.998 2877.68 426.096C3196.72 210.275 3488.33 -66.8912 3766.08 -330.886C3785.51 -349.345 3804.86 -367.74 3824.15 -386.046C3901.63 -459.575 3979.47 -532.937 4057.66 -606.131L4058.35 -605.401L4057.66 -606.131C4068.32 -616.1 4078.98 -626.085 4089.66 -636.079C4404.22 -930.626 4727.93 -1233.74 5122.02 -1405.36C5141 -1413.62 5160.91 -1421.6 5180.25 -1428.43C5658.53 -1598.3 6145.94 -1489.69 6608.52 -1292.99C6609.03 -1292.77 6609.27 -1292.19 6609.05 -1291.68C6608.83 -1291.17 6608.25 -1290.93 6607.74 -1291.15Z" fill="white"/>
<path opacity="0.3" fill-rule="evenodd" clip-rule="evenodd" d="M6614.7 -1280.74C6152.52 -1478.59 5666.26 -1582.09 5191.34 -1403.58L5190.99 -1404.51L5191.34 -1403.58C5172.2 -1396.4 5152.4 -1388.01 5133.61 -1379.4L5133.19 -1380.31L5133.61 -1379.4C4756.76 -1206.98 4445.85 -914.331 4142.12 -628.444C4119.66 -607.301 4097.24 -586.194 4074.83 -565.175C3996.95 -492.15 3919.08 -419.125 3841.25 -346.099C3544.67 -67.8313 3231.41 224.658 2887.4 445.273C2543.38 665.896 2168.55 814.683 1748.8 805.486C1248.01 794.495 757.697 581.856 301.528 362.281C150.869 289.776 0.797485 213.569 -149.049 137.476C-220.177 101.357 -291.255 65.2638 -362.32 29.6041C-553.821 -66.4698 -748.38 -161.667 -945.514 -240.922C-1210.41 -347.382 -1489.65 -426.34 -1776.19 -464.027C-1776.74 -464.099 -1777.13 -464.602 -1777.06 -465.149C-1776.98 -465.697 -1776.48 -466.082 -1775.93 -466.01C-1489.19 -428.298 -1209.79 -349.291 -944.768 -242.777C-747.551 -163.489 -552.928 -68.2595 -361.423 27.8165C-290.339 63.4856 -219.252 99.584 -148.119 135.705C1.71692 211.793 151.755 287.983 302.396 360.479C758.577 580.061 1248.54 792.506 1748.85 803.487C2168.07 812.672 2542.51 664.08 2886.33 443.589C3230.15 223.09 3543.28 -69.2689 3839.88 -347.558C3917.72 -420.583 3995.58 -493.609 4073.46 -566.634C4095.88 -587.666 4118.32 -608.787 4140.8 -629.948C4444.47 -915.785 4755.61 -1208.66 5132.78 -1381.22C5151.61 -1389.85 5171.45 -1398.26 5190.64 -1405.45C5666.27 -1584.23 6153.11 -1480.51 6615.48 -1282.57C6615.99 -1282.36 6616.23 -1281.77 6616.01 -1281.26C6615.79 -1280.75 6615.21 -1280.52 6614.7 -1280.74Z" fill="white"/>
<path opacity="0.3" fill-rule="evenodd" clip-rule="evenodd" d="M6621.66 -1270.32C6159.63 -1469.46 5673.89 -1567.94 5201.84 -1380.6L5201.48 -1381.53L5201.84 -1380.6C5182.77 -1373.07 5163.04 -1364.32 5144.32 -1355.36C4783.28 -1181.95 4484.14 -898.357 4191.01 -620.458C4157.52 -588.711 4124.11 -557.038 4090.7 -525.612C4013.03 -452.585 3935.16 -379.916 3857.11 -307.607C3261.47 244.376 2591.24 827.551 1754.38 792.13C1255.61 771.01 769.611 556.292 314.166 338.084C188.911 278.061 63.9121 215.767 -61.0247 153.505C-156.531 105.909 -252 58.332 -347.519 11.8009C-539.949 -81.9733 -736.087 -173.867 -934.653 -249.029C-1210.09 -353.262 -1500.11 -425.98 -1796.07 -460.795C-1796.62 -460.859 -1797.01 -461.356 -1796.95 -461.905C-1796.88 -462.453 -1796.39 -462.846 -1795.84 -462.781C-1499.7 -427.946 -1209.53 -355.188 -933.945 -250.899C-735.289 -175.703 -539.085 -83.7767 -346.643 10.0031C-251.083 56.5538 -155.609 104.134 -60.1068 151.728C64.8086 213.979 189.77 276.255 315.03 336.28C770.499 554.5 1256.16 769.031 1754.47 790.132C2590.37 825.512 3260.01 243.01 3855.75 -309.075C3933.8 -381.38 4011.66 -454.045 4089.33 -527.069C4122.74 -558.493 4156.15 -590.168 4189.64 -621.92C4482.74 -899.788 4782.11 -1183.61 5143.46 -1357.16L5143.89 -1356.26L5143.46 -1357.16C5162.21 -1366.15 5181.98 -1374.91 5201.11 -1382.46C5673.87 -1570.09 6160.21 -1471.39 6622.45 -1272.16C6622.96 -1271.94 6623.2 -1271.35 6622.98 -1270.85C6622.76 -1270.34 6622.17 -1270.1 6621.66 -1270.32Z" fill="white"/>
<path opacity="0.3" fill-rule="evenodd" clip-rule="evenodd" d="M6628.69 -1259.91C6166.6 -1460.41 5681.44 -1553.72 5212.27 -1357.63C5193.34 -1349.67 5173.75 -1340.56 5155.1 -1331.24C4808.84 -1157.08 4520.76 -881.521 4237.84 -610.892C4194.04 -569.004 4150.38 -527.234 4106.64 -485.976C4029.2 -412.971 3951.31 -340.637 3872.97 -268.973C3274.45 278.723 2594.09 831.148 1760.03 778.701C1263.29 747.525 781.456 530.657 326.806 313.743C224.759 265.068 122.856 215.128 20.9449 165.184C-96.8528 107.455 -214.661 49.7198 -332.716 -6.07324L-332.289 -6.97742L-332.716 -6.07336C-526.146 -97.548 -723.863 -186.138 -923.863 -257.279C-1209.43 -358.784 -1510.85 -426.407 -1815.95 -457.777C-1816.5 -457.833 -1816.9 -458.324 -1816.84 -458.874C-1816.78 -459.423 -1816.29 -459.823 -1815.74 -459.766C-1510.49 -428.38 -1208.91 -360.723 -923.193 -259.164L-923.528 -258.221L-923.193 -259.164C-723.097 -187.989 -525.31 -99.3649 -331.861 -7.88147C-213.835 47.8979 -95.9756 105.658 21.8584 163.405C123.783 213.355 225.689 263.296 327.667 311.938C782.351 528.868 1263.85 745.556 1760.16 776.705C2593.26 829.093 3273.03 277.308 3871.62 -270.448C3949.96 -342.106 4027.84 -414.433 4105.26 -487.431C4148.99 -528.671 4192.64 -570.43 4236.43 -612.314C4519.33 -882.929 4807.65 -1158.72 5154.21 -1333.02L5154.66 -1332.13L5154.21 -1333.02C5172.89 -1342.37 5192.52 -1351.5 5211.5 -1359.48L5211.88 -1358.55L5211.5 -1359.48C5681.39 -1555.87 6167.17 -1462.34 6629.49 -1261.75C6629.99 -1261.53 6630.23 -1260.94 6630.01 -1260.43C6629.79 -1259.92 6629.2 -1259.69 6628.69 -1259.91Z" fill="white"/>
<path opacity="0.3" fill-rule="evenodd" clip-rule="evenodd" d="M6635.66 -1249.5C6173.5 -1451.36 5689 -1539.43 5222.78 -1334.66C5203.92 -1326.34 5184.41 -1316.8 5165.9 -1307.05L5165.43 -1307.93L5165.9 -1307.05C4833.66 -1132.32 4556.3 -864.292 4283.22 -600.391C4229.63 -548.613 4176.22 -496.993 4122.58 -446.268C4045.68 -373.453 3967.47 -301.284 3888.91 -230.265C3287.06 313.502 2596.51 834.245 1765.62 765.345C1271.25 724.327 793.37 504.878 339.372 289.259C260.782 251.911 182.2 213.955 103.574 175.979C-36.7135 108.22 -177.139 40.3947 -317.987 -24.1626C-512.349 -113.264 -711.712 -198.482 -913.074 -265.53C-1209.33 -364.235 -1521.39 -424.968 -1835.97 -454.976C-1836.52 -455.029 -1836.93 -455.517 -1836.87 -456.067C-1836.82 -456.617 -1836.33 -457.02 -1835.78 -456.967C-1521.07 -426.947 -1208.86 -366.187 -912.442 -267.427C-710.98 -200.346 -511.541 -115.094 -317.153 -25.9807C-176.29 38.5836 -35.8296 106.426 104.472 174.192C183.094 212.166 261.666 250.116 340.23 287.452C794.274 503.093 1271.83 722.369 1765.78 763.352C2595.73 832.174 3285.7 312.037 3887.57 -231.749C3966.12 -302.759 4044.31 -374.917 4121.21 -447.721L4121.9 -446.995L4121.21 -447.721C4174.81 -498.412 4228.2 -550.009 4281.77 -601.773C4554.85 -865.677 4832.45 -1133.94 5164.97 -1308.82C5183.51 -1318.59 5203.06 -1328.15 5221.97 -1336.49L5222.37 -1335.58L5221.97 -1336.49C5688.92 -1541.58 6174.06 -1453.3 6636.46 -1251.33C6636.97 -1251.11 6637.2 -1250.52 6636.98 -1250.02C6636.76 -1249.51 6636.17 -1249.28 6635.66 -1249.5Z" fill="white"/>
<path opacity="0.3" fill-rule="evenodd" clip-rule="evenodd" d="M6642.7 -1239.16C6180.33 -1442.31 5696.4 -1525.14 5233.35 -1311.69C5214.49 -1303.02 5195.12 -1293.05 5176.68 -1282.93C4857.52 -1107.63 4590.22 -846.261 4326.46 -588.353C4263.85 -527.138 4201.45 -466.117 4138.59 -406.49C4061.97 -333.817 3983.7 -261.79 3904.92 -191.557C3299.52 348.567 2599.06 837.699 1771.2 751.844C1279.07 700.915 805.286 479.098 351.94 264.632C296.321 238.309 240.682 211.757 185.003 185.187C22.7219 107.746 -139.886 30.1481 -303.254 -42.3949C-498.69 -129.129 -699.56 -210.682 -902.284 -273.854L-901.987 -274.809L-902.285 -273.854C-1209.52 -369.686 -1531.99 -422.668 -1855.93 -452.391C-1856.48 -452.442 -1856.89 -452.928 -1856.83 -453.478C-1856.78 -454.028 -1856.3 -454.433 -1855.75 -454.383C-1531.72 -424.652 -1209.1 -371.65 -901.689 -275.764C-698.862 -212.56 -497.914 -130.973 -302.443 -44.223L-302.849 -43.309L-302.443 -44.2229C-139.048 28.3315 23.5936 105.945 185.88 183.39C241.555 209.958 297.188 236.507 352.796 262.824C806.199 477.318 1279.67 698.967 1771.4 749.855C2598.34 835.613 3298.22 347.053 3903.59 -193.05C3982.35 -263.268 4060.61 -335.281 4137.22 -407.94C4200.02 -467.52 4262.39 -528.507 4324.97 -589.702C4588.74 -847.626 4856.29 -1109.24 5175.72 -1284.68L5176.2 -1283.81L5175.72 -1284.68C5194.19 -1294.82 5213.6 -1304.81 5232.51 -1313.51C5696.3 -1527.3 6180.88 -1444.26 6643.5 -1240.99C6644.01 -1240.77 6644.24 -1240.18 6644.01 -1239.68C6643.79 -1239.17 6643.2 -1238.94 6642.7 -1239.16Z" fill="white"/>
<path opacity="0.3" fill-rule="evenodd" clip-rule="evenodd" d="M6649.73 -1228.75C6187.09 -1433.34 5703.81 -1510.71 5243.84 -1288.65C5225.13 -1279.62 5205.83 -1269.29 5187.54 -1258.81C4880.69 -1082.99 4623.04 -827.779 4368.29 -575.44C4297.19 -505.018 4226.33 -434.821 4154.68 -366.635L4153.99 -367.36L4154.68 -366.635C4078.35 -294.031 3999.99 -222.291 3920.93 -152.703C3311.77 383.851 2601.55 841.012 1776.77 738.418C1295.13 678.522 832.969 460.694 387.144 250.566C379.569 246.996 371.998 243.428 364.433 239.863C331.243 224.22 298.038 208.521 264.812 192.813C81.158 105.988 -103.102 18.8771 -288.598 -60.7688C-485.106 -145.059 -687.483 -223.093 -891.57 -282.316C-1209.5 -374.559 -1542.67 -420.651 -1875.96 -450.017C-1876.51 -450.065 -1876.92 -450.551 -1876.87 -451.101C-1876.82 -451.651 -1876.34 -452.058 -1875.79 -452.009C-1542.44 -422.639 -1209.12 -376.532 -891.012 -284.237C-686.819 -224.983 -484.36 -146.915 -287.81 -62.6069L-288.204 -61.6879L-287.809 -62.6067C-102.277 17.0549 82.0203 104.184 265.674 191.008C298.897 206.715 332.1 222.412 365.285 238.054C372.807 241.598 380.334 245.146 387.865 248.695C833.789 458.869 1295.7 676.577 1777.02 736.434C2600.88 838.914 3310.52 382.289 3919.6 -154.204L3920.27 -153.454L3919.6 -154.204C3998.65 -223.775 4076.99 -295.498 4153.3 -368.084C4224.88 -436.204 4295.7 -506.358 4366.77 -576.751C4621.54 -829.121 4879.44 -1084.58 5186.55 -1260.55C5204.87 -1271.04 5224.21 -1281.39 5242.97 -1290.45C5703.69 -1512.87 6187.62 -1435.29 6650.54 -1230.58C6651.04 -1230.36 6651.27 -1229.77 6651.05 -1229.26C6650.83 -1228.76 6650.23 -1228.53 6649.73 -1228.75Z" fill="white"/>
<path opacity="0.3" fill-rule="evenodd" clip-rule="evenodd" d="M6656.69 -1218.41C6193.7 -1424.42 5711.15 -1496.27 5254.41 -1265.61C5235.77 -1256.21 5216.55 -1245.53 5198.33 -1234.62L5197.81 -1235.48L5198.33 -1234.62C4903.39 -1058.59 4655.09 -809.19 4409.16 -562.16C4329.97 -482.614 4251.02 -403.314 4170.84 -326.79C4094.79 -254.185 4016.36 -182.729 3937.08 -113.786C3323.74 419.413 2603.82 844.176 1782.36 724.911C1318.15 657.519 873.64 448.528 441.523 245.363C419.962 235.226 398.432 225.103 376.931 215.013C368.081 210.856 359.229 206.698 350.375 202.538C143.572 105.385 -64.2952 7.7323 -274.008 -79.2234C-471.517 -161.214 -675.404 -235.586 -880.849 -290.789C-1209.48 -379.229 -1553.42 -418.429 -1896.06 -447.796C-1896.61 -447.843 -1897.02 -448.327 -1896.97 -448.877C-1896.93 -449.428 -1896.44 -449.835 -1895.89 -449.788C-1553.23 -420.419 -1209.14 -381.209 -880.329 -292.721C-674.774 -237.488 -470.801 -163.082 -273.242 -81.0706C-63.4841 5.90356 144.421 103.575 351.214 200.723C360.072 204.884 368.927 209.044 377.781 213.203C399.254 223.28 420.756 233.389 442.288 243.513C874.48 446.712 1318.74 655.584 1782.64 722.931C2603.21 842.066 3322.54 417.803 3935.77 -115.296C4015.03 -184.217 4093.43 -255.653 4169.46 -328.236C4249.55 -404.68 4328.45 -483.926 4407.61 -563.44C4653.58 -810.513 4902.13 -1060.17 5197.3 -1236.34C5215.56 -1247.26 5234.82 -1257.98 5253.51 -1267.39C5710.99 -1498.43 6194.22 -1426.38 6657.5 -1220.24C6658.01 -1220.02 6658.24 -1219.42 6658.01 -1218.92C6657.79 -1218.41 6657.2 -1218.19 6656.69 -1218.41Z" fill="white"/>
<path opacity="0.3" fill-rule="evenodd" clip-rule="evenodd" d="M6663.73 -1208C6200.24 -1415.59 5718.42 -1481.7 5264.99 -1242.64C5246.42 -1232.82 5227.34 -1221.77 5209.19 -1210.51C5015.55 -1090.22 4842.51 -938.302 4676.61 -776.941C4599.33 -701.77 4523.61 -624.558 4448.08 -547.542L4431.47 -530.609C4350.43 -447.994 4269.5 -365.794 4187 -286.797C4111.23 -214.262 4032.73 -143.019 3953.16 -74.7932C3335.49 455.339 2605.94 847.191 1787.87 711.408C1341.12 637.217 913.724 436.365 496.028 240.073C460.402 223.331 424.846 206.622 389.355 190.028C175.016 89.7896 -41.0916 -10.5848 -259.42 -97.887C-458.073 -177.43 -663.461 -248.074 -870.059 -299.4C-1209.46 -383.605 -1564.1 -415.983 -1916.17 -445.784C-1916.72 -445.83 -1917.13 -446.314 -1917.08 -446.865C-1917.03 -447.415 -1916.55 -447.823 -1916 -447.777C-1563.95 -417.977 -1209.16 -385.59 -869.577 -301.341L-869.818 -300.37L-869.577 -301.341C-662.867 -249.987 -457.389 -179.311 -258.676 -99.7437C-40.2887 -12.4177 175.868 87.9799 390.203 188.216C425.683 204.805 461.225 221.508 496.836 238.243C914.586 434.558 1341.74 635.291 1788.19 709.435C2605.4 845.073 3334.35 453.681 3951.86 -76.3112L3952.51 -75.5524L3951.86 -76.3115C4031.4 -144.513 4109.87 -215.731 4185.62 -288.242C4268.09 -367.214 4349 -449.393 4430.04 -532.01L4446.67 -548.957C4522.19 -625.966 4597.92 -703.19 4675.22 -778.374C4841.15 -939.775 5014.32 -1091.81 5208.13 -1212.21L5208.66 -1211.36L5208.13 -1212.21C5226.32 -1223.49 5245.44 -1234.56 5264.06 -1244.41L5264.53 -1243.53L5264.06 -1244.41C5718.23 -1483.86 6200.75 -1417.56 6664.55 -1209.83C6665.05 -1209.6 6665.28 -1209.01 6665.05 -1208.51C6664.83 -1208 6664.24 -1207.78 6663.73 -1208Z" fill="white"/>
<path opacity="0.3" fill-rule="evenodd" clip-rule="evenodd" d="M6670.76 -1197.66C6206.71 -1406.75 5725.61 -1467.11 5275.56 -1219.59L5275.07 -1220.47L5275.55 -1219.59C5257.06 -1209.48 5238.05 -1197.93 5220.04 -1186.31C5027.69 -1062.11 4856.23 -906.71 4691.47 -742.6C4622.13 -673.532 4553.96 -602.9 4485.92 -532.404C4392.34 -435.446 4299.01 -338.745 4203.22 -246.723L4202.53 -247.444L4203.22 -246.723C4127.74 -174.258 4049.17 -103.233 3969.38 -35.7188C3346.94 491.488 2607.85 850.146 1793.45 697.841C1364.41 617.58 953.963 424.47 551.271 235.006C501.328 211.508 451.503 188.066 401.778 164.902C188.736 65.5972 -26.939 -32.6903 -244.832 -116.689C-444.63 -193.722 -651.452 -260.484 -859.413 -308.006C-1177.9 -380.662 -1508.74 -408.264 -1837.92 -435.727C-1870.75 -438.466 -1903.56 -441.204 -1936.34 -443.985C-1936.89 -444.031 -1937.3 -444.515 -1937.26 -445.066C-1937.21 -445.616 -1936.73 -446.024 -1936.18 -445.978C-1903.39 -443.197 -1870.57 -440.459 -1837.74 -437.719C-1508.58 -410.258 -1177.6 -382.645 -858.969 -309.956L-859.191 -308.981L-858.968 -309.956C-650.894 -262.408 -443.978 -195.614 -244.112 -118.555C-26.1511 -34.53 189.577 63.7825 402.623 163.089C452.354 186.256 502.179 209.698 552.119 233.194C954.844 422.671 1365.04 615.665 1793.81 695.875C2607.37 848.021 3345.86 489.782 3968.08 -37.2452L3968.73 -36.4822L3968.08 -37.2456C4047.84 -104.731 4126.38 -175.728 4201.84 -248.165C4297.62 -340.184 4390.88 -436.814 4484.42 -533.734C4552.46 -604.23 4620.65 -674.879 4690.06 -744.017C4854.85 -908.162 5026.43 -1063.68 5218.96 -1187.99C5236.99 -1199.63 5256.04 -1211.21 5274.59 -1221.34C5725.4 -1469.28 6207.2 -1408.72 6671.59 -1199.48C6672.09 -1199.25 6672.31 -1198.66 6672.09 -1198.16C6671.86 -1197.65 6671.27 -1197.43 6670.76 -1197.66Z" fill="white"/>
<path opacity="0.3" fill-rule="evenodd" clip-rule="evenodd" d="M6677.73 -1187.25C6213.11 -1397.99 5732.73 -1452.4 5286.13 -1196.56C5267.7 -1186.02 5248.83 -1174.18 5230.97 -1162.13L5230.41 -1162.96L5230.97 -1162.13C5039.91 -1034.01 4870.04 -875.15 4706.42 -708.301C4644.57 -645.223 4583.59 -580.993 4522.71 -516.854C4422.57 -411.37 4322.67 -306.132 4219.45 -206.663C4144.32 -134.268 4065.61 -63.4536 3985.6 3.41199C3358.19 527.91 2609.54 852.87 1798.96 684.26C1387.94 598.757 994.65 413.124 607.457 230.368C542.863 199.88 478.438 169.472 414.13 139.622C202.384 41.3243 -12.8533 -54.954 -230.315 -135.648C-431.258 -210.167 -639.514 -273.124 -848.696 -316.697C-1141.29 -377.625 -1443.69 -401.475 -1745.38 -425.269C-1815.87 -430.829 -1886.32 -436.385 -1956.59 -442.41C-1957.14 -442.457 -1957.55 -442.941 -1957.51 -443.492C-1957.46 -444.042 -1956.97 -444.45 -1956.42 -444.403C-1886.18 -438.38 -1815.75 -432.826 -1745.28 -427.268C-1443.58 -403.473 -1141.02 -379.612 -848.288 -318.655C-638.992 -275.058 -430.638 -212.07 -229.619 -137.523L-229.967 -136.585L-229.619 -137.523C-12.0808 -56.8007 203.214 39.505 414.972 137.808C479.304 167.668 543.743 198.083 608.345 228.575C995.551 411.334 1388.6 596.851 1799.36 682.302C2609.12 850.741 3357.17 526.158 3984.32 1.87732C4064.29 -64.957 4142.97 -135.74 4218.07 -208.103C4321.26 -307.548 4421.1 -412.717 4521.2 -518.169C4582.09 -582.317 4643.09 -646.569 4705 -709.701C4868.64 -876.582 5038.63 -1035.56 5229.85 -1163.79C5247.75 -1175.86 5266.65 -1187.72 5285.13 -1198.29C5732.49 -1454.56 6213.59 -1399.97 6678.55 -1189.07C6679.05 -1188.85 6679.28 -1188.25 6679.05 -1187.75C6678.82 -1187.25 6678.23 -1187.02 6677.73 -1187.25Z" fill="white"/>
<path opacity="0.3" fill-rule="evenodd" clip-rule="evenodd" d="M6684.77 -1176.92C6219.44 -1389.3 5739.8 -1437.61 5296.71 -1173.52C5278.42 -1162.62 5259.63 -1150.35 5241.84 -1137.94L5241.27 -1138.76L5241.84 -1137.94C5052.1 -1005.91 4883.87 -843.586 4721.41 -673.988C4666.59 -616.755 4612.42 -558.689 4558.31 -500.681C4452.09 -386.821 4346.08 -273.188 4235.76 -166.527C4160.92 -94.1306 4082.13 -23.4568 4001.9 42.6211C3368.86 564.551 2611.37 855.168 1804.47 670.611C1412.3 580.902 1036.51 402.643 665.539 226.671C585.645 188.773 505.975 150.981 426.413 114.202C215.891 16.9103 1.15479 -77.2821 -215.868 -154.744C-417.812 -226.82 -627.574 -285.685 -838.048 -325.454C-1110.17 -376.851 -1390.12 -397.083 -1669.95 -417.308C-1772.39 -424.712 -1874.82 -432.115 -1976.84 -441.046C-1977.39 -441.094 -1977.8 -441.579 -1977.75 -442.129C-1977.7 -442.679 -1977.22 -443.086 -1976.67 -443.038C-1874.71 -434.114 -1772.33 -426.714 -1669.91 -419.312C-1390.04 -399.084 -1109.92 -378.839 -837.677 -327.419C-627.089 -287.629 -417.226 -228.734 -215.196 -156.628C1.9115 -79.1355 216.711 15.0861 427.252 112.386C506.856 149.184 586.554 186.99 666.466 224.896C1037.43 400.863 1412.98 579.006 1804.91 668.661C2611.03 853.038 3367.9 562.753 4000.63 41.0776L4001.27 41.8492L4000.63 41.0774C4080.81 -24.9647 4159.56 -95.6029 4234.37 -167.965C4344.66 -274.593 4450.6 -388.16 4556.8 -501.997C4610.92 -560.013 4665.11 -618.099 4719.97 -675.372C4882.45 -844.997 5050.79 -1007.44 5240.69 -1139.58C5258.52 -1152.02 5277.35 -1164.31 5295.68 -1175.24C5739.53 -1439.77 6219.91 -1391.29 6685.6 -1178.73C6686.1 -1178.51 6686.32 -1177.91 6686.09 -1177.41C6685.86 -1176.91 6685.27 -1176.69 6684.77 -1176.92Z" fill="white"/>
<path opacity="0.3" fill-rule="evenodd" clip-rule="evenodd" d="M6691.8 -1166.58C6225.62 -1380.61 5746.84 -1422.67 5307.34 -1150.48C5289.13 -1139.22 5270.48 -1126.53 5252.76 -1113.75C5064.35 -977.851 4897.75 -812.077 4736.46 -639.713C4688.08 -588.013 4640.18 -535.717 4592.31 -483.458C4480.61 -361.51 4369.09 -239.76 4252.13 -126.248C4177.57 -53.9219 4098.71 16.5376 4018.26 81.9711C3379.74 601.268 2612.63 857.539 1809.97 656.965C1436.06 563.501 1077.47 392.203 722.614 222.686C627.804 177.395 533.26 132.232 438.762 88.7136C229.393 -7.71326 15.1619 -99.8235 -201.426 -173.982C-404.585 -243.544 -615.782 -298.391 -827.333 -334.282C-1083.03 -377.618 -1345.13 -394.516 -1607.42 -411.425C-1737.52 -419.813 -1867.66 -428.203 -1997.1 -439.825C-1997.65 -439.874 -1998.05 -440.36 -1998 -440.91C-1997.95 -441.46 -1997.47 -441.866 -1996.92 -441.817C-1867.6 -430.205 -1737.51 -421.818 -1607.43 -413.431C-1345.08 -396.517 -1082.79 -379.607 -826.999 -336.254C-615.334 -300.344 -404.033 -245.469 -200.778 -175.874C15.9022 -101.684 230.203 -9.54211 439.598 86.897C534.157 130.443 628.741 175.625 723.577 220.928C1078.41 390.432 1436.76 561.615 1810.46 655.025C2612.35 855.41 3378.84 599.425 4017 80.4196C4097.4 15.025 4176.22 -55.3955 4250.74 -127.683C4367.65 -241.154 4479.11 -362.835 4590.79 -484.764C4638.67 -537.033 4686.59 -589.347 4735 -641.079C4896.31 -813.467 5063.02 -979.357 5251.59 -1115.38L5252.17 -1114.57L5251.59 -1115.38C5269.34 -1128.17 5288.03 -1140.89 5306.29 -1152.18C5746.54 -1424.84 6226.07 -1382.6 6692.63 -1168.39C6693.14 -1168.16 6693.36 -1167.57 6693.13 -1167.07C6692.9 -1166.57 6692.3 -1166.35 6691.8 -1166.58Z" fill="white"/>
<path opacity="0.3" fill-rule="evenodd" clip-rule="evenodd" d="M6698.83 -1156.24C6231.8 -1372.06 5753.82 -1407.67 5317.98 -1127.44C5299.84 -1115.75 5281.26 -1102.69 5263.68 -1089.56L5263.08 -1090.37L5263.68 -1089.56C5076.35 -949.783 4911.47 -780.563 4751.46 -605.432C4709.4 -559.393 4667.67 -512.943 4625.96 -466.513C4509.02 -336.348 4392.22 -206.336 4268.57 -85.9595L4267.87 -86.676L4268.57 -85.9592C4194.3 -13.7036 4115.36 56.5426 4034.63 121.332C3390.34 638.27 2613.67 859.762 1815.48 643.317C1459.68 546.839 1118.12 382.173 779.347 218.848C669.726 166 560.396 113.292 450.969 63.0798C242.824 -32.4843 29.1683 -122.51 -186.981 -193.365C-391.429 -260.341 -603.988 -311.166 -816.689 -343.182C-1013.31 -372.759 -1213.47 -387.387 -1414.49 -399.261C-1460.1 -401.956 -1505.76 -404.508 -1551.43 -407.062C-1707.03 -415.761 -1862.78 -424.468 -2017.42 -438.819C-2017.97 -438.87 -2018.37 -439.358 -2018.32 -439.907C-2018.27 -440.457 -2017.79 -440.862 -2017.24 -440.811C-1862.63 -426.463 -1706.93 -417.759 -1551.34 -409.06C-1505.67 -406.506 -1460 -403.953 -1414.37 -401.258C-1213.34 -389.383 -1013.11 -374.751 -816.391 -345.16C-603.578 -313.126 -390.91 -262.275 -186.359 -195.265L-186.67 -194.315L-186.358 -195.265C29.8921 -124.378 243.624 -34.3176 451.803 61.2622C561.31 111.511 670.691 164.243 780.343 217.106C1119.08 380.411 1460.4 544.961 1816.01 641.387C2613.47 857.636 3389.5 636.382 4033.38 119.772C4114.06 55.0254 4192.95 -15.1783 4267.17 -87.3926C4390.78 -207.72 4507.51 -337.66 4624.43 -467.812C4666.15 -514.251 4707.89 -560.716 4749.98 -606.781C4910.01 -781.932 5075 -951.268 5262.48 -1091.17C5280.09 -1104.32 5298.71 -1117.4 5316.9 -1129.12C5753.49 -1409.83 6232.23 -1374.06 6699.67 -1158.05C6700.17 -1157.82 6700.39 -1157.22 6700.16 -1156.72C6699.92 -1156.22 6699.33 -1156 6698.83 -1156.24Z" fill="white"/>
<path opacity="0.3" fill-rule="evenodd" clip-rule="evenodd" d="M6705.86 -1145.82C6237.84 -1363.51 5760.73 -1392.59 5328.62 -1104.4C5310.55 -1092.35 5292.12 -1078.86 5274.61 -1065.37C5088.64 -921.717 4925.46 -749.049 4766.66 -571.144C4730.43 -530.562 4694.43 -489.707 4658.44 -448.862C4536.68 -310.666 4415.01 -172.583 4285.02 -45.6118C4210.65 27.1422 4132.59 96.021 4051.14 160.751L4050.52 159.968L4051.14 160.752C3401.15 675.413 2613.98 861.841 1820.99 629.597C1482.73 530.563 1157.64 372.099 834.649 214.657C710.723 154.25 587.106 93.9932 463.172 37.3011C256.252 -57.3992 43.1069 -145.342 -172.684 -212.893C-378.272 -277.283 -592.193 -323.944 -806.116 -352.156C-1008.13 -378.825 -1213.54 -390.42 -1419.71 -400.284C-1446.73 -401.577 -1473.76 -402.84 -1500.8 -404.103C-1680.07 -412.479 -1859.65 -420.869 -2037.74 -438.03C-2038.29 -438.083 -2038.7 -438.571 -2038.64 -439.121C-2038.59 -439.671 -2038.1 -440.074 -2037.55 -440.021C-1859.51 -422.865 -1679.99 -414.477 -1500.71 -406.101C-1473.67 -404.838 -1446.64 -403.574 -1419.61 -402.281C-1213.44 -392.417 -1007.96 -380.82 -805.854 -354.139C-591.821 -325.912 -377.788 -279.227 -172.086 -214.802C43.8135 -147.216 257.042 -59.2371 464.004 35.4825C588.038 92.2202 711.715 152.506 835.674 212.93C1158.61 370.345 1483.47 528.694 1821.55 627.677C2613.86 859.721 3400.36 673.483 4049.89 159.185C4131.29 94.4979 4209.3 25.6647 4283.62 -47.0425C4413.55 -173.955 4535.15 -311.958 4656.9 -450.142C4692.9 -490.998 4728.92 -531.87 4765.16 -572.476C4923.98 -750.397 5087.27 -923.181 5273.39 -1066.96L5274 -1066.17L5273.39 -1066.96C5290.92 -1080.47 5309.4 -1093.98 5327.51 -1106.06C5760.37 -1394.75 6238.26 -1365.52 6706.71 -1147.63C6707.21 -1147.4 6707.43 -1146.81 6707.19 -1146.31C6706.96 -1145.81 6706.37 -1145.59 6705.86 -1145.82Z" fill="white"/>
<path opacity="0.3" fill-rule="evenodd" clip-rule="evenodd" d="M6712.9 -1135.49C6243.81 -1354.96 5767.57 -1377.37 5339.26 -1081.29C5321.34 -1068.88 5302.97 -1055.04 5285.61 -1041.12L5284.98 -1041.9L5285.61 -1041.12C5101 -893.654 4939.51 -717.557 4781.89 -536.866C4751.01 -501.456 4720.27 -465.869 4689.53 -430.287C4563.45 -284.319 4437.43 -138.43 4301.53 -5.18579L4300.83 -5.8999L4301.53 -5.18555C4227.84 66.9993 4148.75 136.892 4067.58 200.249C3411.47 712.772 2614.45 863.487 1826.5 615.876C1506.11 515.229 1197.73 362.912 890.868 211.341C752.365 142.93 614.168 74.6696 475.313 11.381C269.547 -82.4567 56.9785 -168.315 -158.305 -232.563C-365.182 -294.296 -580.541 -336.794 -795.47 -361.201C-1002.91 -384.712 -1213.56 -393.238 -1424.88 -401.146C-1434.27 -401.497 -1443.66 -401.848 -1453.05 -402.198C-1655.01 -409.728 -1857.48 -417.278 -2058.14 -437.385C-2058.69 -437.44 -2059.09 -437.93 -2059.04 -438.48C-2058.98 -439.029 -2058.49 -439.43 -2057.94 -439.375C-1857.34 -419.274 -1654.93 -411.727 -1452.95 -404.195C-1443.57 -403.846 -1434.18 -403.496 -1424.8 -403.145C-1213.5 -395.237 -1002.77 -386.709 -795.244 -363.189C-580.207 -338.769 -364.732 -296.249 -157.733 -234.479C57.668 -170.197 270.327 -84.2992 476.143 9.56116C615.123 72.9067 753.387 141.201 891.926 209.63C1198.72 361.167 1506.86 513.368 1827.1 613.968C2614.41 861.377 3410.74 710.8 4066.35 198.673L4066.96 199.461L4066.35 198.673C4147.45 135.366 4226.49 65.5228 4300.13 -6.61401C4435.97 -139.797 4561.92 -285.61 4688 -431.576C4718.74 -467.162 4749.49 -502.757 4780.39 -538.181C4938.01 -718.884 5099.6 -895.097 5284.36 -1042.68C5301.75 -1056.62 5320.15 -1070.49 5338.13 -1082.93C5767.17 -1379.53 6244.21 -1356.98 6713.75 -1137.3C6714.25 -1137.06 6714.46 -1136.47 6714.23 -1135.97C6713.99 -1135.47 6713.4 -1135.25 6712.9 -1135.49Z" fill="white"/>
<path opacity="0.3" fill-rule="evenodd" clip-rule="evenodd" d="M6719.93 -1125.22C6249.7 -1346.48 5774.4 -1362.07 5349.91 -1058.25L5349.32 -1059.06L5349.91 -1058.25C5332.05 -1045.49 5313.83 -1031.21 5296.54 -1016.93C5113.33 -865.627 4953.58 -686.083 4797.18 -502.59C4771.44 -472.383 4745.78 -442.069 4720.13 -411.756C4589.96 -257.951 4459.82 -104.184 4318.05 35.3088C4244.71 107.499 4165.55 177.104 4084.16 239.816C3421.63 750.201 2614.77 864.845 1831.94 602.154C1600.95 524.618 1376.33 421.087 1153.72 311.616C1084.18 277.418 1014.84 242.643 945.555 207.899C793.037 131.411 640.82 55.0745 487.446 -14.6127C282.832 -107.658 70.7703 -191.434 -144.078 -252.378C-352.172 -311.382 -567.741 -348.353 -784.905 -370.32C-996.698 -391.712 -1210.38 -397.345 -1424.38 -402.985L-1430.87 -403.156C-1647.03 -408.856 -1863.51 -414.726 -2078.61 -437.026C-2079.16 -437.083 -2079.56 -437.575 -2079.5 -438.124C-2079.44 -438.673 -2078.95 -439.073 -2078.4 -439.016C-1863.39 -416.725 -1646.99 -410.855 -1430.82 -405.156L-1424.3 -404.984C-1210.32 -399.344 -996.572 -393.71 -784.704 -372.31C-567.451 -350.333 -351.762 -313.344 -143.532 -254.302C71.4421 -193.322 283.602 -109.505 488.274 -16.4332C641.684 53.27 793.959 129.636 946.495 206.132C1015.77 240.872 1085.09 275.639 1154.6 309.821C1377.2 419.282 1601.72 522.765 1832.58 600.258C2614.8 862.748 3420.96 748.189 4082.94 238.232C4164.26 175.572 4243.36 106.021 4316.65 33.8833C4458.35 -105.541 4588.42 -259.226 4718.59 -413.032C4744.24 -443.348 4769.9 -473.67 4795.66 -503.887C4952.06 -687.388 5111.91 -867.049 5295.27 -1018.48C5312.58 -1032.77 5330.84 -1047.08 5348.74 -1059.88C5773.98 -1364.23 6250.08 -1348.51 6720.78 -1127.03C6721.28 -1126.79 6721.5 -1126.2 6721.26 -1125.7C6721.03 -1125.2 6720.43 -1124.99 6719.93 -1125.22Z" fill="white"/>
<path opacity="0.3" fill-rule="evenodd" clip-rule="evenodd" d="M6726.97 -1114.88C6258.34 -1337.65 5779.52 -1346.06 5360.62 -1035.14L5360.03 -1035.94L5360.62 -1035.14C5342.84 -1021.95 5324.76 -1007.31 5307.54 -992.67C5125.73 -837.562 4967.72 -654.609 4812.54 -468.331C4791.55 -443.132 4770.61 -417.872 4749.67 -392.611C4615.83 -231.162 4481.99 -69.7107 4334.64 75.8035C4261.59 147.997 4182.35 217.459 4100.75 279.454C3431.65 787.702 2614.8 865.911 1837.46 588.36C1608.05 506.445 1385 399.63 1163.6 288.06C1108.57 260.33 1053.65 232.306 998.753 204.298C832.769 119.61 667.059 35.0618 499.589 -40.8232C296.056 -133.006 84.573 -214.698 -129.841 -272.339C-339.223 -328.681 -556.083 -361.416 -774.325 -379.508C-975.537 -396.132 -1178.11 -399.533 -1380.99 -402.94C-1399.33 -403.247 -1417.66 -403.555 -1436 -403.873C-1657.26 -407.706 -1878.76 -412.966 -2099.07 -436.81C-2099.62 -436.869 -2100.02 -437.363 -2099.96 -437.912C-2099.9 -438.461 -2099.41 -438.858 -2098.86 -438.798C-1878.65 -414.965 -1657.23 -409.705 -1435.97 -405.873C-1417.63 -405.555 -1399.29 -405.247 -1380.95 -404.939C-1178.08 -401.533 -975.442 -398.131 -774.161 -381.501C-555.831 -363.402 -338.847 -330.651 -129.321 -274.27C85.2273 -216.593 296.816 -134.858 500.415 -42.645C667.931 33.2609 833.7 117.839 999.694 202.533C1054.58 230.537 1109.49 258.554 1164.5 286.274C1385.88 397.837 1608.84 504.605 1838.13 586.476C2614.92 863.83 3431.05 785.65 4099.54 277.862C4181.07 215.923 4260.24 146.519 4333.24 74.3806L4333.94 75.0919L4333.24 74.3804C4480.51 -71.057 4614.28 -232.422 4748.12 -393.875C4769.06 -419.139 4790.01 -444.404 4811 -469.612C4966.18 -655.892 5124.29 -838.963 5306.24 -994.193L5306.89 -993.432L5306.25 -994.194C5323.49 -1008.85 5341.6 -1023.52 5359.43 -1036.74C5779.07 -1348.22 6258.7 -1339.69 6727.83 -1116.69C6728.33 -1116.45 6728.54 -1115.86 6728.31 -1115.36C6728.07 -1114.86 6727.47 -1114.65 6726.97 -1114.88Z" fill="white"/>
<path opacity="0.3" fill-rule="evenodd" clip-rule="evenodd" d="M6734 -1104.55C6264.15 -1329.32 5786.21 -1330.42 5371.33 -1012.1C5353.61 -998.474 5335.61 -983.482 5318.53 -968.415C5138.16 -809.534 4981.88 -623.151 4827.92 -434.053C4811.34 -413.685 4794.79 -393.286 4778.23 -372.887C4641.09 -203.909 4503.92 -34.8979 4351.29 116.445C4278.6 188.566 4199.22 257.888 4117.4 319.167C3441.6 825.348 2614.61 866.765 1842.89 574.496C1615.11 488.273 1393.62 378.173 1173.42 264.487C1132.45 243.337 1091.53 222.064 1050.62 200.797C871.622 107.738 692.856 14.8007 511.577 -67.1019C309.125 -158.565 98.364 -238.101 -115.614 -292.439C-326.357 -345.986 -544.579 -374.557 -763.757 -388.7C-954.568 -401.066 -1146.28 -402.41 -1338.26 -403.756C-1372.55 -403.996 -1406.85 -404.237 -1441.15 -404.54C-1667.49 -406.542 -1894.02 -411.281 -2119.62 -436.813C-2120.17 -436.876 -2120.56 -437.371 -2120.5 -437.92C-2120.44 -438.468 -2119.94 -438.863 -2119.39 -438.801C-1893.91 -413.281 -1667.47 -408.542 -1441.13 -406.54C-1406.84 -406.237 -1372.55 -405.996 -1338.26 -405.756C-1146.28 -404.41 -954.501 -403.066 -763.627 -390.696C-544.367 -376.547 -326.017 -347.963 -115.122 -294.377C98.9998 -240.003 309.875 -160.421 512.401 -68.9244C693.732 13.0021 872.557 105.97 1051.56 199.029C1092.46 220.295 1133.38 241.565 1174.33 262.71C1394.53 376.392 1615.93 486.446 1843.6 572.626C2614.82 864.703 3441.06 823.258 4116.2 317.566C4197.94 256.347 4277.25 187.087 4349.89 115.025C4502.43 -36.2366 4639.53 -205.16 4776.68 -374.148C4793.23 -394.547 4809.79 -414.946 4826.37 -435.315C4980.33 -624.413 5136.7 -810.913 5317.21 -969.915C5334.31 -985.006 5352.35 -1000.03 5370.11 -1013.69L5370.72 -1012.89L5370.11 -1013.69C5785.72 -1332.57 6264.5 -1331.37 6734.86 -1106.35C6735.36 -1106.11 6735.57 -1105.52 6735.33 -1105.02C6735.1 -1104.52 6734.5 -1104.31 6734 -1104.55Z" fill="white"/>
<path opacity="0.3" fill-rule="evenodd" clip-rule="evenodd" d="M6741.11 -1094.21C6269.84 -1320.98 5792.84 -1314.7 5382.04 -988.988C5364.41 -975.004 5346.54 -959.581 5329.53 -944.153C5150.63 -781.542 4996.13 -591.75 4843.41 -399.831C4830.99 -384.216 4818.57 -368.588 4806.16 -352.958C4666 -176.508 4525.79 0.0134277 4368.03 157.082C4295.55 229.205 4216.16 298.317 4134.12 358.948C3451.34 863.492 2614.07 867.397 1848.33 560.701C1622.13 470.097 1402.22 356.659 1183.25 240.82C1156.01 226.41 1128.78 211.963 1101.56 197.518C909.938 95.8358 718.517 -5.74036 523.643 -93.528C322.2 -184.2 112.016 -261.651 -101.454 -312.758C-313.489 -363.429 -532.998 -387.694 -753.183 -398.032C-933.093 -406.469 -1113.53 -405.932 -1294.17 -405.394C-1344.86 -405.243 -1395.56 -405.092 -1446.27 -405.14C-1677.68 -405.355 -1909.25 -409.699 -2140.16 -437.028C-2140.71 -437.093 -2141.1 -437.59 -2141.03 -438.138C-2140.97 -438.687 -2140.47 -439.079 -2139.92 -439.014C-1909.14 -411.7 -1677.67 -407.355 -1446.27 -407.14C-1395.57 -407.092 -1344.89 -407.243 -1294.21 -407.394C-1113.56 -407.932 -933.053 -408.47 -753.089 -400.03C-532.824 -389.688 -313.183 -365.412 -100.99 -314.703C112.634 -263.56 322.938 -186.061 524.463 -95.3517C719.402 -7.5354 910.884 94.0734 1102.5 195.753C1129.72 210.198 1156.94 224.644 1184.18 239.052C1403.16 354.891 1622.98 468.284 1849.08 558.844C2614.36 865.357 3450.85 861.365 4132.93 357.34C4214.89 296.772 4294.2 227.725 4366.62 155.665C4524.29 -1.31653 4664.43 -177.747 4804.6 -354.213C4817.01 -369.839 4829.42 -385.464 4841.85 -401.076C4994.56 -592.99 5149.15 -782.9 5328.19 -945.634C5345.22 -961.083 5363.12 -976.536 5380.8 -990.555C5792.31 -1316.83 6270.17 -1323.04 6741.98 -1096.01C6742.48 -1095.77 6742.69 -1095.17 6742.45 -1094.68C6742.21 -1094.18 6741.61 -1093.97 6741.11 -1094.21Z" fill="white"/>
<path opacity="0.3" fill-rule="evenodd" clip-rule="evenodd" d="M6748.14 -1083.87C6275.45 -1312.71 5801.11 -1298.68 5392.75 -965.872C5196.43 -805.901 5034.27 -602.888 4876.25 -395.883C4857.27 -371.014 4838.34 -346.088 4819.43 -321.171C4680.91 -138.717 4542.81 43.1882 4384.75 197.806C3687.66 879.883 2725.66 915.159 1853.77 546.84C1629.22 451.965 1410.9 335.205 1193.11 217.196C1178.95 209.522 1164.79 201.843 1150.63 194.165C947.031 83.7509 743.578 -26.5844 535.562 -120.018C127.553 -303.35 -293.378 -394.229 -742.681 -407.437C-911.591 -412.399 -1080.75 -410.189 -1250.03 -407.977C-1317.13 -407.101 -1384.24 -406.224 -1451.37 -405.794C-1687.84 -404.276 -1924.43 -408.297 -2160.7 -437.386C-2161.25 -437.454 -2161.64 -437.953 -2161.57 -438.501C-2161.5 -439.049 -2161 -439.439 -2160.46 -439.371C-1924.32 -410.298 -1687.83 -406.277 -1451.38 -407.794C-1384.28 -408.224 -1317.19 -409.1 -1250.1 -409.977C-1080.8 -412.189 -911.578 -414.399 -742.623 -409.436C-293.076 -396.221 128.117 -305.289 536.382 -121.843C744.469 -28.3767 947.986 81.9932 1151.57 192.4C1165.73 200.08 1179.9 207.762 1194.06 215.437C1411.86 333.45 1630.1 450.165 1854.55 544.997C2725.94 913.105 3687.01 877.726 4383.35 196.377C4541.3 41.8685 4679.31 -139.911 4817.83 -322.379C4836.75 -347.295 4855.67 -372.223 4874.66 -397.097C5032.68 -604.1 5194.96 -807.287 5391.49 -967.423C5800.55 -1300.81 6275.75 -1314.79 6749.01 -1085.67C6749.51 -1085.43 6749.72 -1084.83 6749.48 -1084.33C6749.24 -1083.83 6748.64 -1083.63 6748.14 -1083.87Z" fill="white"/>
</g>
</g>
</svg>
