<svg width="30" height="30" viewBox="0 0 30 30" fill="none" xmlns="http://www.w3.org/2000/svg">
<path fill-rule="evenodd" clip-rule="evenodd" d="M23.4185 22.0685V16.2125C23.4185 13.075 21.7435 11.615 19.5105 11.615C17.7085 11.615 16.901 12.6065 16.451 13.302V11.855H13.056C13.101 12.8135 13.056 22.0685 13.056 22.0685H16.451V16.3645C16.451 16.06 16.473 15.755 16.563 15.537C16.808 14.927 17.3665 14.2955 18.304 14.2955C19.533 14.2955 20.024 15.232 20.024 16.6045V22.069H23.4185V22.0685ZM9.4795 10.461C10.663 10.461 11.4005 9.676 11.4005 8.6955C11.3785 7.694 10.663 6.9315 9.502 6.9315C8.341 6.9315 7.5815 7.6935 7.5815 8.6955C7.5815 9.676 8.3185 10.461 9.458 10.461H9.4795ZM15 30C6.716 30 0 23.284 0 15C0 6.7155 6.716 0 15 0C23.284 0 30 6.7155 30 15C30 23.284 23.284 30 15 30ZM11.177 22.0685V11.855H7.7825V22.0685H11.177Z" fill="#024D81"/>
</svg>
