<svg width="90" height="90" viewBox="0 0 90 90" fill="none" xmlns="http://www.w3.org/2000/svg">
<path d="M59.982 72.71H30.4404C29.5829 72.71 28.7561 72.925 28.1507 73.5304C27.5454 74.1357 27.3303 74.9626 27.3303 75.8201C27.3303 76.6776 27.5454 77.5044 28.1507 78.1098C28.7561 78.7151 29.5829 78.9302 30.4404 78.9302H59.982C60.8395 78.9302 61.6663 78.7151 62.2717 78.1098C62.8771 77.5044 63.0921 76.6776 63.0921 75.8201C63.0921 74.9626 62.8771 74.1357 62.2717 73.5304C61.6663 72.925 60.8395 72.71 59.982 72.71Z" stroke="white" stroke-width="2"/>
<path d="M44.5386 71.8231L45.2112 72.4345L45.8838 71.8231C53.6587 64.7564 59.5282 58.1845 63.4598 52.1078C67.3885 46.0355 69.4225 40.3948 69.4225 35.2112C69.4225 28.79 66.8717 22.6318 62.3312 18.0913C57.7907 13.5508 51.6325 11 45.2112 11C38.79 11 32.6318 13.5508 28.0913 18.0913C23.5508 22.6318 21 28.79 21 35.2112C21 40.3948 23.0339 46.0355 26.9627 52.1078C30.8943 58.1845 36.7638 64.7564 44.5386 71.8231ZM57.9328 22.4897C61.3068 25.8636 63.2022 30.4397 63.2022 35.2112C63.2022 38.8475 61.743 43.1471 58.6435 48.0943C55.6626 52.8522 51.2046 58.1448 45.2112 63.9325C39.2178 58.1448 34.7599 52.8522 31.779 48.0943C28.6795 43.1471 27.2202 38.8475 27.2202 35.2112C27.2202 30.4397 29.1157 25.8636 32.4897 22.4897C35.8636 19.1157 40.4397 17.2202 45.2112 17.2202C49.9827 17.2202 54.5588 19.1157 57.9328 22.4897Z" stroke="white" stroke-width="2"/>
<path d="M48.9803 38.9808C47.9807 39.9804 46.6249 40.542 45.2112 40.542C43.7975 40.542 42.4417 39.9804 41.4421 38.9808C40.4425 37.9812 39.8809 36.6254 39.8809 35.2117C39.8809 33.798 40.4425 32.4422 41.4421 31.4426C42.4417 30.4429 43.7975 29.8814 45.2112 29.8814C46.6249 29.8814 47.9807 30.4429 48.9803 31.4426C49.98 32.4422 50.5415 33.798 50.5415 35.2117C50.5415 36.6254 49.98 37.9812 48.9803 38.9808ZM37.0437 43.3792C39.2099 45.5453 42.1478 46.7623 45.2112 46.7623C48.2746 46.7623 51.2125 45.5453 53.3787 43.3792C55.5448 41.213 56.7618 38.2751 56.7618 35.2117C56.7618 32.1483 55.5448 29.2104 53.3787 27.0442C51.2125 24.8781 48.2746 23.6611 45.2112 23.6611C42.1478 23.6611 39.2099 24.8781 37.0437 27.0442C34.8776 29.2104 33.6606 32.1483 33.6606 35.2117C33.6606 38.2751 34.8776 41.213 37.0437 43.3792Z" stroke="white" stroke-width="2"/>
</svg>
