<svg width="90" height="90" viewBox="0 0 90 90" fill="none" xmlns="http://www.w3.org/2000/svg">
<path d="M28.7653 41.9433L28.7424 41.9037L28.716 41.8664C26.4565 38.6733 25.1238 34.7925 25.1238 30.6179C25.1238 19.8402 33.9863 11 44.8007 11C55.6164 11 64.4762 19.8401 64.4756 30.6178V30.618C64.476 33.1385 63.9839 35.6348 63.027 37.9666L63.0165 37.9921L63.0075 38.0182C62.8009 38.6131 62.5726 39.1692 62.2926 39.6789L46.4681 66.6079C46.0835 67.1253 45.7515 67.4955 45.4571 67.7393C45.1575 67.9874 44.9522 68.0589 44.8176 68.0724C44.5935 68.0949 44.069 67.9799 43.1098 66.7415L28.7653 41.9433ZM44.8007 18.6605H43.8007V18.7013C37.6078 19.2002 32.8128 24.2971 32.8128 30.6179C32.8128 37.2758 38.1319 42.5732 44.8007 42.5732C51.4705 42.5732 56.7873 37.2749 56.7873 30.6179C56.7873 23.9611 51.4708 18.6605 44.8007 18.6605Z" stroke="#024D81" stroke-width="2"/>
<path d="M22.1412 62.3564C19.324 63.9007 18 65.6867 18 67.5867C18 70.2429 20.3502 72.9749 25.1795 75.0959C29.9272 77.1811 36.7312 78.5011 44.8 78.5011C52.8688 78.5011 59.6728 77.1811 64.4205 75.0959C69.2498 72.9749 71.6 70.2429 71.6 67.5867C71.6 65.6867 70.2761 63.9006 67.4592 62.3564C64.7924 60.8944 60.9941 59.7776 56.4384 59.083L56.1671 59.5448C59.2877 60.0622 61.9752 60.7925 63.9809 61.6881C65.1355 62.2038 66.1166 62.797 66.8237 63.478C67.5327 64.1608 68.04 65.0081 68.04 65.9987C68.04 67.3836 67.0658 68.4809 65.852 69.3009C64.6034 70.1443 62.8623 70.8645 60.8007 71.4535C56.6639 72.6355 51.0071 73.353 44.8 73.353C38.5929 73.353 32.9361 72.6355 28.7993 71.4535C26.7377 70.8645 24.9966 70.1443 23.748 69.3009C22.5343 68.481 21.5601 67.3837 21.56 65.9989L22.1412 62.3564ZM22.1412 62.3564C24.8075 60.8948 28.6048 59.7782 33.1591 59.0836C33.2496 59.2394 33.3398 59.3947 33.4299 59.5498M22.1412 62.3564L33.4299 59.5498M33.4299 59.5498C30.2974 60.0688 27.6079 60.8001 25.6042 61.6962C24.4521 62.2114 23.4744 62.8039 22.7701 63.4839C22.0638 64.1659 21.5598 65.0114 21.56 65.9987L33.4299 59.5498Z" stroke="#024D81" stroke-width="2"/>
</svg>
