<svg width="90" height="90" viewBox="0 0 90 90" fill="none" xmlns="http://www.w3.org/2000/svg">
<path fill-rule="evenodd" clip-rule="evenodd" d="M65.0773 35.6427C64.6823 32.0931 63.4358 28.6913 61.444 25.7268C59.4522 22.7623 56.7739 20.3227 53.637 18.6155C50.5001 16.9083 46.9974 15.984 43.4266 15.9212C40.5292 15.8702 37.6566 16.3877 34.9693 17.4372C34.3447 17.6811 33.7302 17.9537 33.1277 18.2547C33.4754 18.8264 33.7877 19.4169 34.0634 20.023C34.5394 21.0695 34.9065 22.1621 35.1586 23.2836C35.3145 23.9765 35.4265 24.6804 35.4932 25.3913C36.1004 25.0286 36.7361 24.7085 37.3962 24.4352C39.1309 23.7169 41.0343 23.3213 43.0334 23.3213C46.5282 23.3201 49.9103 24.5571 52.5798 26.8127C54.7222 28.6229 56.2944 30.9952 57.1328 33.6427C57.3391 34.2942 57.501 34.9622 57.616 35.6427H49.1937C44.433 35.6427 40.5693 39.5067 40.5693 44.2678V52.6956C39.8908 52.5811 39.2226 52.4192 38.5693 52.2118C38.2485 52.1099 37.9314 51.9971 37.6184 51.8734C36.92 51.5975 36.2424 51.2679 35.5918 50.8868C35.6181 51.6865 35.6304 52.4566 35.6361 53.1807C35.6411 53.8135 35.6411 54.4112 35.6411 54.9628V55.3571C35.6411 56.6188 35.6115 57.8312 35.5622 58.9944C37.1804 59.5743 38.8609 59.963 40.5693 60.1526V66.4464C40.5693 68.7339 41.478 70.9277 43.0953 72.5452C44.7127 74.1627 46.9064 75.0714 49.1937 75.0714H71.3707C72.5037 75.0721 73.6257 74.8494 74.6726 74.4163C75.7195 73.9831 76.6709 73.3479 77.4722 72.5469C78.2736 71.746 78.9093 70.7949 79.343 69.7482C79.7768 68.7014 80 67.5795 80 66.4464V44.2678C80 39.5067 76.1363 35.6427 71.3756 35.6427H65.0773ZM37.6126 57.5494C38.6526 57.8396 39.7152 58.0455 40.7899 58.1648L42.5693 58.3622V66.4464C42.5693 68.2035 43.2673 69.8886 44.5096 71.131C45.7519 72.3735 47.4369 73.0714 49.1937 73.0714H71.3718C72.2421 73.0719 73.1038 72.9009 73.908 72.5682C74.7121 72.2355 75.4428 71.7476 76.0584 71.1324C76.6739 70.5171 77.1622 69.7866 77.4954 68.9826C77.8285 68.1786 78 67.3167 78 66.4464V44.2678C78 40.6112 75.0316 37.6427 71.3756 37.6427H63.2876L63.0896 35.864C62.7302 32.6344 61.5961 29.5394 59.7839 26.8422C57.9717 24.145 55.535 21.9255 52.681 20.3722C49.827 18.819 46.6401 17.978 43.3914 17.9209C40.8271 17.8757 38.284 18.32 35.8968 19.2233C36.3655 20.2581 36.739 21.3331 37.0129 22.4348C38.8813 21.7149 40.9115 21.3213 43.0328 21.3213M37.6126 57.5494C37.6309 56.8362 37.6411 56.1054 37.6411 55.3571V54.9528C37.6411 54.654 37.6411 54.3395 37.6403 54.0115C38.485 54.2989 39.353 54.5186 40.2364 54.6677L42.5693 55.0616V44.2678C42.5693 40.6112 45.5378 37.6427 49.1937 37.6427H59.9824L59.5881 35.3094C58.9268 31.3972 56.9012 27.8457 53.8706 25.285C50.8402 22.7244 47.0001 21.3201 43.0328 21.3213M63.069 41.0356H71.3707C72.2279 41.0356 73.05 41.3762 73.6561 41.9823C74.2623 42.5885 74.6027 43.4106 74.6027 44.2678V66.4464C74.6027 67.3036 74.2623 68.1257 73.6561 68.7318C73.05 69.338 72.2279 69.6785 71.3707 69.6785H49.1937C47.4089 69.6785 45.9616 68.231 45.9616 66.4464V58.1443L47.5158 57.7889C51.222 56.9414 54.614 55.0657 57.3023 52.3772C59.9907 49.6887 61.8662 46.2964 62.7137 42.5898L63.069 41.0356ZM45.9616 54.886V44.2678C45.9616 43.4106 46.3021 42.5885 46.9082 41.9823C47.5144 41.3762 48.3365 41.0356 49.1937 41.0356H59.8112L58.8653 43.7039C58.0286 46.0643 56.6755 48.2081 54.9047 49.979C53.134 51.7499 50.9903 53.1031 48.63 53.9399L45.9616 54.886ZM22.4345 13.8362L22.5134 13.6766C22.5588 13.5848 22.5726 13.4806 22.5526 13.3801C22.5326 13.2796 22.48 13.1886 22.4029 13.1212L23.7197 11.6159C24.1288 11.9737 24.4081 12.4567 24.5142 12.9898C24.6202 13.5228 24.5471 14.076 24.3062 14.5632C24.2645 14.7074 24.2429 14.8566 24.2421 15.0067C24.2421 15.3172 24.321 15.9087 25.0651 16.648C25.4031 16.986 25.6672 17.2327 25.9472 17.4943C25.9652 17.5111 25.9833 17.528 26.0015 17.545C26.033 17.5739 26.0647 17.6031 26.0968 17.6326C26.3158 17.8336 26.5513 18.0498 26.8393 18.3335C27.48 18.9447 28.1551 19.6643 28.7613 20.5662C30.018 22.4538 30.7129 24.8146 30.7129 28.2499C30.7129 32.1931 29.3457 35.5849 27.1722 37.8073C27.0855 37.8959 26.9975 37.9827 26.9083 38.0676C26.9808 38.1411 27.0517 38.2157 27.1211 38.2913C28.4309 39.7185 29.2112 41.5299 29.7026 43.3412C30.7129 47.0475 30.7129 51.6311 30.7129 55.1747V55.3571C30.7129 65.5001 28.8155 71.5228 26.6668 75.1059C25.8551 76.5168 24.789 77.7651 23.5226 78.7876C23.021 79.1788 22.4752 79.5097 21.8963 79.7733C21.8963 79.7733 21.2704 80 20.8564 80C20.5012 79.9718 20.1514 79.8955 19.8166 79.7733C19.2377 79.5097 18.6918 79.1788 18.1903 78.7876C16.9239 77.7651 15.8578 76.5168 15.0461 75.1059C12.8974 71.5278 11 65.5001 11 55.3571V55.1796C11 51.6311 11 47.0524 12.0103 43.3363C12.5007 41.5331 13.2789 39.7256 14.5841 38.2955C14.656 38.2167 14.7295 38.1391 14.8046 38.0627C14.7135 37.9764 14.6238 37.8882 14.5353 37.798C12.365 35.5839 11 32.1899 11 28.2499C11 26.6431 11.4288 24.7259 12.0201 22.9566C12.6115 21.1823 13.4395 19.3488 14.3955 17.8703C15.534 15.9481 17.1356 14.3365 18.3775 13.2522C19.0584 12.6533 19.769 12.0891 20.5065 11.5617L20.6544 11.4631L20.6987 11.4286L20.7135 11.4187L20.7234 11.4138C21.1753 11.1126 21.714 10.969 22.2559 11.0056C22.7978 11.0421 23.3124 11.2567 23.7197 11.6159L22.397 13.116C22.3203 13.0483 22.2233 13.0079 22.1213 13.0011C22.0259 12.9946 21.9311 13.0178 21.8496 13.0672L21.8246 13.0866L21.6438 13.2072C20.9701 13.6903 20.3209 14.2065 19.6984 14.754L19.6929 14.7588C18.5276 15.7762 17.1015 17.2261 16.1164 18.8894L16.0964 18.9232L16.075 18.9562C15.2301 20.2629 14.4685 21.9359 13.9175 23.589L13.917 23.5905C13.3586 25.2611 13 26.9473 13 28.2499C13 31.8873 14.3111 34.8406 16.1799 36.6106L17.6593 38.0117L16.2308 39.4648C15.124 40.5906 14.4099 42.1343 13.9402 43.8609C13.0133 47.2706 13 51.5655 13 55.1796V55.3571C13 65.268 14.8561 70.9047 16.7607 74.0763L16.7703 74.0923L16.7796 74.1085C17.4653 75.3003 18.3649 76.3553 19.4332 77.2206C19.785 77.4935 20.1655 77.727 20.5679 77.9172C20.6672 77.9494 20.7689 77.9737 20.872 77.9896C20.9025 77.9832 20.947 77.973 21.0063 77.9569C21.062 77.9417 21.1132 77.9261 21.1528 77.9134C21.5523 77.724 21.9302 77.4917 22.2797 77.2206C23.348 76.3553 24.2476 75.3003 24.9333 74.1085L24.9423 74.0928L24.9516 74.0773C26.857 70.8999 28.7129 65.2673 28.7129 55.3571V55.1747C28.7129 51.5648 28.6995 47.266 27.773 43.8672L27.7724 43.8648C27.3026 42.1331 26.5887 40.5916 25.4844 39.4721L24.0543 38.0223L25.5298 36.6186C27.4029 34.8366 28.7129 31.8854 28.7129 28.2499C28.7129 25.1052 28.0833 23.1585 27.0989 21.6782C26.6028 20.9407 26.0387 20.3338 25.4588 19.7807L25.4472 19.7696L25.4357 19.7583C25.1742 19.5007 24.9644 19.308 24.7457 19.1072C24.7132 19.0773 24.6805 19.0473 24.6473 19.0168L24.6416 19.0115L24.636 19.0062C24.6171 18.9886 24.5982 18.9709 24.5792 18.9532C24.3004 18.6927 24.0147 18.4259 23.653 18.0642C22.512 16.9294 22.2421 15.8188 22.2421 15.0067V14.9963C22.2439 14.6616 22.292 14.3288 22.385 14.0073L22.4345 13.8362ZM47.9616 59.7386C52.0346 58.8072 55.7623 56.7459 58.7166 53.7914C61.6709 50.8368 63.7321 47.1088 64.6634 43.0356H71.3707C71.6974 43.0356 72.0108 43.1654 72.2419 43.3965C72.4729 43.6276 72.6027 43.941 72.6027 44.2678V66.4464C72.6027 66.7732 72.4729 67.0866 72.2419 67.3176C72.0108 67.5487 71.6974 67.6785 71.3707 67.6785H49.1937C48.5136 67.6785 47.9616 67.1265 47.9616 66.4464V59.7386ZM49.9616 51.175C51.2574 50.4867 52.4474 49.608 53.4905 48.5648C54.5336 47.5216 55.4123 46.3315 56.1005 45.0356C56.4393 44.3976 56.732 43.7339 56.9754 43.0495C56.977 43.0449 56.9786 43.0402 56.9803 43.0356H49.1937C48.8669 43.0356 48.5536 43.1654 48.3225 43.3965C48.0914 43.6276 47.9616 43.941 47.9616 44.2678V52.0549C48.6509 51.8105 49.3193 51.5162 49.9616 51.175Z" fill="#024D81"/>
</svg>
