<svg width="209" height="35" viewBox="0 0 209 35" fill="none" xmlns="http://www.w3.org/2000/svg">
<path d="M203.707 30.0319L191.737 22.5166L179.511 30.2215L179.518 25.7177L191.127 18.7614C191.61 18.4698 192.218 18.4722 192.702 18.7663L203.707 25.46V30.0319Z" fill="#024D81"/>
<path d="M191.766 12.9426C195.536 10.5656 203.707 5.52945 203.707 5.52945V10.009L192.66 16.5666C192.201 16.8388 191.63 16.8437 191.166 16.5739L179.511 9.80966V5.34473C179.514 5.34473 187.877 10.5315 191.766 12.9426Z" fill="#024D81"/>
<path d="M165.817 29.2906H161.1V9.37702L151.38 9.35271V5.34473H175.503V9.22146L165.628 9.32111L165.817 29.2906Z" fill="black"/>
<path d="M119.853 29.5215C119.853 29.5215 111.222 29.4972 107.321 29.4947C105.221 29.4947 103.114 29.5968 101.024 29.4631C97.458 29.2371 95.4236 27.1711 95.3458 23.5933C95.2583 19.4979 95.3045 15.3975 95.3167 11.5621C95.3215 10.1038 95.8076 8.66487 96.7774 7.57598C98.2455 5.9232 100.17 5.30827 102.56 5.34716C108.135 5.43466 119.853 5.34473 119.853 5.34473L119.787 9.50584H100.749L100.35 25.0468H115.374V19.5854H103.845V15.7548L119.853 15.7645V29.5215Z" fill="black"/>
<path d="M60.2462 29.3342H53.6327C50.8448 27.03 44.6906 21.9453 44.6906 21.9453L41.5965 21.4883V17.8474C41.5965 17.8474 48.6913 18.1147 52.0261 17.1935C53.8222 16.6977 55.0521 15.0425 55.0521 13.1783L54.9451 9.58105L47.199 9.61751L39.2899 9.59563C39.2899 9.59563 39.2705 22.7547 39.1125 29.3172H35.0438C35.0438 22.9734 35.0462 10.456 35.0486 6.55987C35.0486 5.90119 35.5809 5.37133 36.2396 5.3689C36.2396 5.3689 48.1299 5.35918 54.1261 5.37376C55.1882 5.37619 56.1191 5.62167 56.9285 6.07619C58.2094 6.79806 59.0115 8.15431 59.184 9.61508C59.9837 16.3331 59.8427 19.1088 51.8535 22.1422C54.5951 24.4925 57.2347 26.7554 60.2462 29.3342Z" fill="black"/>
<path d="M88.2535 6.0252C87.6823 5.72624 87.0917 5.45402 86.4986 5.42972C82.9986 5.28874 79.4816 5.20367 75.9986 5.42972C70.1264 5.81374 65.3358 10.1353 65.0125 15.5092C64.7792 19.3714 64.8886 29.1981 64.8886 29.1981L66.9667 29.186H67.2267L69.125 29.1981L69.159 25.596L69.1809 23.2627L77.3306 23.3526L85.225 23.3186L85.2712 25.6811L85.3222 29.1981C85.3222 29.1981 86.1778 29.1981 87.2934 29.1981H89.3375V7.81409C89.3351 7.06062 88.9219 6.37034 88.2535 6.0252ZM84.8774 19.2377H69.5358C68.8504 12.9571 71.5629 9.7634 77.6174 9.60541C79.6955 9.54951 81.7809 9.60541 83.859 9.63944C84.1094 9.6443 84.8774 9.58353 84.8774 10.0818V19.2377Z" fill="black"/>
<path d="M12.0458 23.5666V19.7895C12.0458 19.7895 18.1684 19.7384 21.209 19.403C23.6663 19.1308 25.4917 16.987 25.4917 14.5152C25.4917 11.7686 23.2507 9.51065 20.5042 9.57385C20.4823 9.57385 20.4629 9.57385 20.441 9.57628C17.3663 9.66135 14.2868 9.59815 11.4042 9.59815C9.54237 10.3662 9.72466 11.81 9.72709 13.2002C9.73681 18.4478 9.73195 23.6954 9.73195 29.2176H5.43716C5.43716 23.112 5.31806 17.0454 5.48577 10.9884C5.57084 7.89433 7.99654 5.59746 11.2219 5.43218C14.9941 5.23773 18.7955 5.19641 22.5604 5.42732C27.0885 5.70683 29.8642 8.82766 30.0028 13.3752C30.0903 16.2773 30.4646 19.3763 27.6208 21.328C26.1819 22.3148 24.4611 23.3065 22.7889 23.4669C19.3472 23.795 15.8521 23.5666 12.0458 23.5666Z" fill="black"/>
<path d="M147.54 5.34472V9.54958H130.411L130.428 25.0176L147.751 25.2024V29.4947H142.674L132.599 29.5142C132.599 29.5142 126.233 30.2215 125.776 25.5815C125.776 18.9874 125.776 5.34229 125.776 5.34229H147.54V5.34472Z" fill="black"/>
<path d="M131.79 19.5513C131.79 17.9423 131.79 16.8801 131.79 15.5627C136.381 15.5627 140.89 15.5627 145.624 15.5627C145.624 16.7051 145.624 17.8742 145.624 19.5148C141.172 19.6048 136.665 19.5343 131.79 19.5513Z" fill="black"/>
</svg>
