<svg width="90" height="90" viewBox="0 0 90 90" fill="none" xmlns="http://www.w3.org/2000/svg">
<mask id="path-1-inside-1_74_68" fill="white">
<path d="M35.8571 37H31.2857C30.6795 37 30.0981 37.2408 29.6695 37.6695C29.2408 38.0981 29 38.6795 29 39.2857V53H31.2857V47.2857H35.8571V53H38.1429V39.2857C38.1429 38.6795 37.902 38.0981 37.4734 37.6695C37.0447 37.2408 36.4634 37 35.8571 37ZM31.2857 45V39.2857H35.8571V45H31.2857ZM51.8571 39.2857H55.2857V50.7143H51.8571V53H61V50.7143H57.5714V39.2857H61V37H51.8571V39.2857ZM42.7143 53H40.4286V37H47.2857C47.8919 37 48.4733 37.2408 48.902 37.6695C49.3306 38.0981 49.5714 38.6795 49.5714 39.2857V45C49.5714 45.6062 49.3306 46.1876 48.902 46.6162C48.4733 47.0449 47.8919 47.2857 47.2857 47.2857H42.7143V53ZM42.7143 45H47.2857V39.2857H42.7143V45Z"/>
</mask>
<path d="M29 39.2857H23H29ZM29 53H23V59H29V53ZM31.2857 53V59H37.2857V53H31.2857ZM31.2857 47.2857V41.2857H25.2857V47.2857H31.2857ZM35.8571 47.2857H41.8571V41.2857H35.8571V47.2857ZM35.8571 53H29.8571V59H35.8571V53ZM38.1429 53V59H44.1429V53H38.1429ZM31.2857 45H25.2857V51H31.2857V45ZM31.2857 39.2857V33.2857H25.2857V39.2857H31.2857ZM35.8571 39.2857H41.8571V33.2857H35.8571V39.2857ZM35.8571 45V51H41.8571V45H35.8571ZM51.8571 39.2857H45.8571V45.2857H51.8571V39.2857ZM55.2857 39.2857H61.2857V33.2857H55.2857V39.2857ZM55.2857 50.7143V56.7143H61.2857V50.7143H55.2857ZM51.8571 50.7143V44.7143H45.8571V50.7143H51.8571ZM51.8571 53H45.8571V59H51.8571V53ZM61 53V59H67V53H61ZM61 50.7143H67V44.7143H61V50.7143ZM57.5714 50.7143H51.5714V56.7143H57.5714V50.7143ZM57.5714 39.2857V33.2857H51.5714V39.2857H57.5714ZM61 39.2857V45.2857H67V39.2857H61ZM61 37H67V31H61V37ZM51.8571 37V31H45.8571V37H51.8571ZM42.7143 53V59H48.7143V53H42.7143ZM40.4286 53H34.4286V59H40.4286V53ZM40.4286 37V31H34.4286V37H40.4286ZM42.7143 47.2857V41.2857H36.7143V47.2857H42.7143ZM42.7143 45H36.7143V51H42.7143V45ZM47.2857 45V51H53.2857V45H47.2857ZM47.2857 39.2857H53.2857V33.2857H47.2857V39.2857ZM42.7143 39.2857V33.2857H36.7143V39.2857H42.7143ZM35.8571 31H31.2857V43H35.8571V31ZM31.2857 31C29.0882 31 26.9807 31.873 25.4268 33.4268L33.9121 41.9121C33.2155 42.6087 32.2708 43 31.2857 43V31ZM25.4268 33.4268C23.873 34.9807 23 37.0882 23 39.2857H35C35 40.2708 34.6087 41.2155 33.9121 41.9121L25.4268 33.4268ZM23 39.2857V53H35V39.2857H23ZM29 59H31.2857V47H29V59ZM37.2857 53V47.2857H25.2857V53H37.2857ZM31.2857 53.2857H35.8571V41.2857H31.2857V53.2857ZM29.8571 47.2857V53H41.8571V47.2857H29.8571ZM35.8571 59H38.1429V47H35.8571V59ZM44.1429 53V39.2857H32.1429V53H44.1429ZM44.1429 39.2857C44.1429 37.0882 43.2699 34.9807 41.716 33.4268L33.2307 41.9121C32.5342 41.2156 32.1429 40.2708 32.1429 39.2857H44.1429ZM41.716 33.4268C40.1622 31.873 38.0547 31 35.8571 31V43C34.872 43 33.9273 42.6087 33.2307 41.9121L41.716 33.4268ZM37.2857 45V39.2857H25.2857V45H37.2857ZM31.2857 45.2857H35.8571V33.2857H31.2857V45.2857ZM29.8571 39.2857V45H41.8571V39.2857H29.8571ZM35.8571 39H31.2857V51H35.8571V39ZM51.8571 45.2857H55.2857V33.2857H51.8571V45.2857ZM49.2857 39.2857V50.7143H61.2857V39.2857H49.2857ZM55.2857 44.7143H51.8571V56.7143H55.2857V44.7143ZM45.8571 50.7143V53H57.8571V50.7143H45.8571ZM51.8571 59H61V47H51.8571V59ZM67 53V50.7143H55V53H67ZM61 44.7143H57.5714V56.7143H61V44.7143ZM63.5714 50.7143V39.2857H51.5714V50.7143H63.5714ZM57.5714 45.2857H61V33.2857H57.5714V45.2857ZM67 39.2857V37H55V39.2857H67ZM61 31H51.8571V43H61V31ZM45.8571 37V39.2857H57.8571V37H45.8571ZM42.7143 47H40.4286V59H42.7143V47ZM46.4286 53V37H34.4286V53H46.4286ZM40.4286 43H47.2857V31H40.4286V43ZM47.2857 43C46.3006 43 45.3559 42.6087 44.6593 41.9121L53.1446 33.4268C51.5907 31.873 49.4832 31 47.2857 31V43ZM44.6593 41.9121C43.9628 41.2156 43.5714 40.2708 43.5714 39.2857H55.5714C55.5714 37.0882 54.6985 34.9807 53.1446 33.4268L44.6593 41.9121ZM43.5714 39.2857V45H55.5714V39.2857H43.5714ZM43.5714 45C43.5714 44.0149 43.9628 43.0702 44.6593 42.3736L53.1446 50.8589C54.6985 49.305 55.5714 47.1975 55.5714 45H43.5714ZM44.6593 42.3736C45.3559 41.677 46.3006 41.2857 47.2857 41.2857V53.2857C49.4832 53.2857 51.5907 52.4128 53.1446 50.8589L44.6593 42.3736ZM47.2857 41.2857H42.7143V53.2857H47.2857V41.2857ZM36.7143 47.2857V53H48.7143V47.2857H36.7143ZM42.7143 51H47.2857V39H42.7143V51ZM53.2857 45V39.2857H41.2857V45H53.2857ZM47.2857 33.2857H42.7143V45.2857H47.2857V33.2857ZM36.7143 39.2857V45H48.7143V39.2857H36.7143Z" fill="#024D81" mask="url(#path-1-inside-1_74_68)"/>
<path d="M25.4496 31L14 44.1897L26 58" stroke="#024D81" stroke-width="2" stroke-linecap="round" stroke-linejoin="round"/>
<path d="M64.5504 31L76 44.1898L64 58" stroke="#024D81" stroke-width="2" stroke-linecap="round" stroke-linejoin="round"/>
</svg>
