<svg width="90" height="90" viewBox="0 0 90 90" fill="none" xmlns="http://www.w3.org/2000/svg">
<rect x="27" y="11" width="36.8889" height="68" rx="1" stroke="#024D81" stroke-width="2"/>
<rect x="27" y="67.3889" width="36.8889" height="11.6111" rx="1" stroke="#024D81" stroke-width="2"/>
<rect x="27" y="11" width="36.8889" height="9.66667" rx="1" stroke="#024D81" stroke-width="2"/>
<path d="M39.6111 15.8335H51.2778" stroke="#024D81" stroke-linecap="round"/>
<path d="M54.0396 40.7631C53.6123 38.5792 52.4304 36.6102 50.6965 35.1938C48.9627 33.7775 46.7848 33.0019 44.5362 33V34.913C46.335 34.9154 48.0771 35.5362 49.4643 36.6692C50.8515 37.8021 51.7976 39.3768 52.1406 41.1237L52.391 42.4112L53.6954 42.6456C55.0014 42.8794 56.1719 43.5879 56.977 44.6318C57.7822 45.6757 58.1638 46.9797 58.0469 48.2876C57.93 49.5956 57.3231 50.8131 56.3453 51.7011C55.3676 52.5891 54.0896 53.0834 52.7623 53.087H44.5362V55H52.7623C54.5724 54.9961 56.3156 54.3228 57.6495 53.1124C58.9835 51.9019 59.8117 50.2418 59.9716 48.4581C60.1315 46.6744 59.6115 44.896 58.5137 43.4722C57.416 42.0484 55.8197 41.0821 54.0386 40.7631H54.0396ZM36.8012 51.1739H42.6024V53.087H36.8012V51.1739ZM32.9337 51.1739H34.8675V53.087H32.9337V51.1739ZM34.8675 47.3478H42.6024V49.2609H34.8675V47.3478ZM31 47.3478H32.9337V49.2609H31V47.3478ZM36.8012 43.5217H42.6024V45.4348H36.8012V43.5217ZM32.9337 43.5217H34.8675V45.4348H32.9337V43.5217ZM38.735 39.6957H42.6024V41.6087H38.735V39.6957ZM34.8675 39.6957H36.8012V41.6087H34.8675V39.6957ZM40.6687 35.8696H42.6024V37.7826H40.6687V35.8696Z" fill="#024D81"/>
</svg>
