<svg width="90" height="90" viewBox="0 0 90 90" fill="none" xmlns="http://www.w3.org/2000/svg">
<path d="M54.7924 11H68.9138C70.5147 11 71.8125 12.3237 71.8125 13.9566V18.9827M35.1976 11H21.0862C19.4853 11 18.1875 12.3237 18.1875 13.9566V45V76.0434C18.1875 77.6763 19.4853 79 21.0862 79H68.9138C70.5147 79 71.8125 77.6763 71.8125 76.0434V62.4331V11H35.1976Z" stroke="#024D81" stroke-width="2" stroke-linecap="round" stroke-linejoin="round"/>
<path d="M50.775 11H40.2563C38.3198 11 36.75 11.8325 36.75 12.8594V16.5781C36.75 17.605 38.3198 18.4375 40.2563 18.4375H50.775C52.7116 18.4375 54.2813 17.605 54.2813 16.5781V12.8594C54.2813 11.8325 52.7116 11 50.775 11Z" stroke="#024D81" stroke-width="2" stroke-linecap="round" stroke-linejoin="round"/>
<path d="M47.8893 34.6522C50.8874 32.8659 54.5814 32.8659 57.5796 34.6522L60.7798 36.5588C63.778 38.345 65.625 41.646 65.625 45.2184V49.0316C65.625 52.6041 63.778 55.9051 60.7798 57.6912L57.5796 59.5978C54.5814 61.3841 50.8874 61.3841 47.8893 59.5978L44.6889 57.6912C41.6907 55.9051 39.8438 52.6041 39.8438 49.0316V45.2184C39.8438 41.646 41.6907 38.345 44.6889 36.5588L47.8893 34.6522Z" stroke="#024D81" stroke-width="2"/>
<path d="M47.0625 46.8615L50.2259 52.4375L58.4063 43.9375" stroke="#024D81" stroke-width="2" stroke-linecap="round" stroke-linejoin="round"/>
<path d="M26.4375 67.3125H49.125" stroke="#024D81" stroke-width="2" stroke-linecap="round"/>
<path d="M26.4375 45V31.7639C26.5267 30.9683 26.8776 30.2231 27.4375 29.6401C28.1346 29.2124 28.9531 29.0136 29.7735 29.0727H43.9688" stroke="#024D81" stroke-width="2" stroke-linecap="round" stroke-linejoin="round"/>
</svg>
