<svg width="90" height="90" viewBox="0 0 90 90" fill="none" xmlns="http://www.w3.org/2000/svg">
<path d="M59.0741 11H30.9259C28.2054 11 26 13.2199 26 15.9583V74.0417C26 76.7801 28.2054 79 30.9259 79H59.0741C61.7946 79 64 76.7801 64 74.0417V15.9583C64 13.2199 61.7946 11 59.0741 11Z" stroke="#024D81" stroke-width="2" stroke-linecap="round" stroke-linejoin="round"/>
<path d="M26 68H64V74C64 76.7614 61.7614 79 59 79H31C28.2386 79 26 76.7614 26 74V68Z" stroke="#024D81" stroke-width="2"/>
<g filter="url(#filter0_d_74_76)">
<circle cx="45" cy="73" r="2" fill="#024D81"/>
<circle cx="45" cy="73" r="1.5" stroke="#024D81"/>
</g>
<path d="M41.6 19.1V18.4926C41.732 18.675 41.8 18.8871 41.8 19.1V23.3C41.8 23.5129 41.732 23.725 41.6 23.9074V23.3V19.1ZM40.6 18C40.7759 18 40.9456 18.0354 41.0992 18.1H40.6H36.2H35.7008C35.8544 18.0354 36.0241 18 36.2 18H40.6ZM35.2 18.4926V19.1V23.3V23.9074C35.068 23.725 35 23.5129 35 23.3V19.1C35 18.8871 35.068 18.675 35.2 18.4926ZM36.2 24.4C36.0241 24.4 35.8544 24.3646 35.7008 24.3H36.2H40.6H41.0992C40.9456 24.3646 40.7759 24.4 40.6 24.4H36.2ZM41.6 31.7V31.0926C41.732 31.275 41.8 31.4871 41.8 31.7V35.9C41.8 36.1129 41.732 36.325 41.6 36.5074V35.9V31.7ZM40.6 30.6C40.7759 30.6 40.9456 30.6354 41.0992 30.7H40.6H36.2H35.7008C35.8544 30.6354 36.0241 30.6 36.2 30.6H40.6ZM35.2 31.0926V31.7V35.9V36.5074C35.068 36.325 35 36.1129 35 35.9V31.7C35 31.4871 35.068 31.275 35.2 31.0926ZM36.2 37C36.0241 37 35.8544 36.9646 35.7008 36.9H36.2H40.6H41.0992C40.9456 36.9646 40.7759 37 40.6 37H36.2ZM49.4 18.1H48.9008C49.0544 18.0354 49.2241 18 49.4 18H53.8C53.9759 18 54.1456 18.0354 54.2992 18.1H53.8H49.4ZM48.2 19.1C48.2 18.8871 48.268 18.675 48.4 18.4926V19.1V23.3V23.9074C48.268 23.725 48.2 23.5129 48.2 23.3V19.1ZM49.4 24.4C49.2241 24.4 49.0544 24.3646 48.9008 24.3H49.4H53.8H54.2992C54.1456 24.3646 53.9759 24.4 53.8 24.4H49.4ZM55 23.3C55 23.5129 54.932 23.725 54.8 23.9074V23.3V19.1V18.4926C54.932 18.675 55 18.8871 55 19.1V23.3ZM54.8 31.7V31.0926C54.932 31.275 55 31.4871 55 31.7V35.9C55 36.1129 54.932 36.325 54.8 36.5074V35.9V31.7ZM53.8 30.6C53.9759 30.6 54.1456 30.6354 54.2992 30.7H53.8H49.4H48.9008C49.0544 30.6354 49.2241 30.6 49.4 30.6H53.8ZM48.4 31.0926V31.7V35.9V36.5074C48.268 36.325 48.2 36.1129 48.2 35.9V31.7C48.2 31.4871 48.268 31.275 48.4 31.0926ZM49.4 37C49.2241 37 49.0544 36.9646 48.9008 36.9H49.4H53.8H54.2992C54.1456 36.9646 53.9759 37 53.8 37H49.4Z" stroke="#024D81" stroke-width="2"/>
<path d="M41.6 44.2V43.5367C41.7295 43.7319 41.8 43.9623 41.8 44.2V48.6C41.8 48.8377 41.7295 49.0681 41.6 49.2633V48.6V44.2ZM40.6 43C40.8377 43 41.0681 43.0705 41.2633 43.2H40.6H36.2H35.5367C35.7319 43.0705 35.9623 43 36.2 43H40.6ZM35.2 43.5367V44.2V48.6V49.2633C35.0705 49.0681 35 48.8377 35 48.6V44.2C35 43.9623 35.0705 43.7319 35.2 43.5367ZM36.2 49.8C35.9623 49.8 35.7319 49.7295 35.5367 49.6H36.2H40.6H41.2633C41.0681 49.7295 40.8377 49.8 40.6 49.8H36.2ZM41.6 57.4V56.7367C41.7295 56.9319 41.8 57.1623 41.8 57.4V61.8C41.8 62.0377 41.7295 62.2681 41.6 62.4633V61.8V57.4ZM40.6 56.2C40.8377 56.2 41.0681 56.2705 41.2633 56.4H40.6H36.2H35.5367C35.7319 56.2705 35.9623 56.2 36.2 56.2H40.6ZM35.2 56.7367V57.4V61.8V62.4633C35.0705 62.2681 35 62.0377 35 61.8V57.4C35 57.1623 35.0705 56.9319 35.2 56.7367ZM36.2 63C35.9623 63 35.7319 62.9295 35.5367 62.8H36.2H40.6H41.2633C41.0681 62.9295 40.8377 63 40.6 63H36.2ZM49.4 43.2H48.7367C48.9319 43.0705 49.1623 43 49.4 43H53.8C54.0377 43 54.2681 43.0705 54.4633 43.2H53.8H49.4ZM48.2 44.2C48.2 43.9623 48.2705 43.7319 48.4 43.5367V44.2V48.6V49.2633C48.2705 49.0681 48.2 48.8377 48.2 48.6V44.2ZM49.4 49.8C49.1623 49.8 48.9319 49.7295 48.7367 49.6H49.4H53.8H54.4633C54.2681 49.7295 54.0377 49.8 53.8 49.8H49.4ZM55 48.6C55 48.8377 54.9295 49.0681 54.8 49.2633V48.6V44.2V43.5367C54.9295 43.7319 55 43.9623 55 44.2V48.6ZM54.8 57.4V56.7367C54.9295 56.9319 55 57.1623 55 57.4V61.8C55 62.0377 54.9295 62.2682 54.8 62.4633V61.8V57.4ZM53.8 56.2C54.0377 56.2 54.2681 56.2705 54.4633 56.4H53.8H49.4H48.7367C48.9319 56.2705 49.1623 56.2 49.4 56.2H53.8ZM48.4 56.7367V57.4V61.8V62.4633C48.2705 62.2681 48.2 62.0377 48.2 61.8V57.4C48.2 57.1623 48.2705 56.9319 48.4 56.7367ZM49.4 63C49.1623 63 48.9319 62.9295 48.7367 62.8H49.4H53.8H54.4633C54.2682 62.9295 54.0377 63 53.8 63H49.4Z" stroke="#024D81" stroke-width="2"/>
<defs>
<filter id="filter0_d_74_76" x="39" y="71" width="12" height="12" filterUnits="userSpaceOnUse" color-interpolation-filters="sRGB">
<feFlood flood-opacity="0" result="BackgroundImageFix"/>
<feColorMatrix in="SourceAlpha" type="matrix" values="0 0 0 0 0 0 0 0 0 0 0 0 0 0 0 0 0 0 127 0" result="hardAlpha"/>
<feOffset dy="4"/>
<feGaussianBlur stdDeviation="2"/>
<feComposite in2="hardAlpha" operator="out"/>
<feColorMatrix type="matrix" values="0 0 0 0 0 0 0 0 0 0 0 0 0 0 0 0 0 0 0.25 0"/>
<feBlend mode="normal" in2="BackgroundImageFix" result="effect1_dropShadow_74_76"/>
<feBlend mode="normal" in="SourceGraphic" in2="effect1_dropShadow_74_76" result="shape"/>
</filter>
</defs>
</svg>
