<svg width="90" height="90" viewBox="0 0 90 90" fill="none" xmlns="http://www.w3.org/2000/svg">
<path d="M60.7761 30.0491C62.043 31.6 63.2194 33.2226 64.2996 34.9088C67.4719 34.9045 70.584 35.7739 73.2945 37.422C77.2613 39.9087 80.865 46.2154 77.9247 53.8247C76.7076 56.7864 74.4374 59.1928 71.5514 60.5798" stroke="#024D81" stroke-width="2" stroke-linecap="round" stroke-linejoin="round"/>
<path d="M22.4986 38.0825C22.4185 38.2828 21.8312 42.3151 21.8312 42.3151C21.8312 42.3151 20.5418 42.2817 18.525 42.3151C17.3109 42.5003 16.1486 42.936 15.1118 43.5942C14.075 44.2525 13.1862 45.1191 12.5022 46.139C11.818 47.1591 11.3534 48.31 11.1377 49.519C10.922 50.7281 10.9601 51.969 11.2493 53.1626C11.5386 54.8176 12.1692 56.3944 13.1008 57.7927C14.2308 59.6992 15.8967 61.2309 17.891 62.1972" stroke="#024D81" stroke-width="2" stroke-linecap="round" stroke-linejoin="round"/>
<path d="M26.5242 59.664L38.5062 51.0417" stroke="#024D81" stroke-width="2" stroke-linecap="round"/>
<path d="M22.5998 66.2877C24.8254 66.2877 26.6295 64.4836 26.6295 62.2582C26.6295 60.0326 24.8254 58.2285 22.5998 58.2285C20.3744 58.2285 18.5703 60.0326 18.5703 62.2582C18.5703 64.4836 20.3744 66.2877 22.5998 66.2877Z" stroke="#024D81" stroke-width="2" stroke-linecap="round" stroke-linejoin="round"/>
<path d="M38.8029 59.1541L39.3581 58.2749L35.7871 64.0712" stroke="#024D81" stroke-width="2" stroke-linecap="round" stroke-linejoin="round"/>
<path d="M33.829 70.0073C35.4489 70.0073 36.7622 68.694 36.7622 67.074C36.7622 65.4541 35.4489 64.1409 33.829 64.1409C32.209 64.1409 30.8958 65.4541 30.8958 67.074C30.8958 68.694 32.209 70.0073 33.829 70.0073Z" stroke="#024D81" stroke-width="2" stroke-linecap="round" stroke-linejoin="round"/>
<path d="M50.4218 59.1541L49.8665 58.2749L53.4376 64.0712" stroke="#024D81" stroke-width="2" stroke-linecap="round" stroke-linejoin="round"/>
<path d="M55.396 70.0073C53.776 70.0073 52.4629 68.694 52.4629 67.074C52.4629 65.4541 53.776 64.1409 55.396 64.1409C57.016 64.1409 58.3292 65.4541 58.3292 67.074C58.3292 68.694 57.016 70.0073 55.396 70.0073Z" stroke="#024D81" stroke-width="2" stroke-linecap="round" stroke-linejoin="round"/>
<path d="M44.9612 69.9557L44.966 53.6921" stroke="#024D81" stroke-width="2" stroke-linecap="round"/>
<path d="M48.0056 74.2601C48.0056 72.2974 46.4145 70.7063 44.4518 70.7063C42.489 70.7063 40.8979 72.2974 40.8979 74.2601C40.8979 76.2228 42.489 77.8138 44.4518 77.8138C46.4145 77.8138 48.0056 76.2228 48.0056 74.2601Z" stroke="#024D81" stroke-width="2" stroke-linecap="round" stroke-linejoin="round"/>
<path d="M62.5204 58.836L49.8445 50.6255" stroke="#024D81" stroke-width="2" stroke-linecap="round"/>
<path d="M70.4516 60.1432C69.8444 57.8783 67.516 56.5345 65.2511 57.1417C62.9862 57.749 61.6424 60.0773 62.2497 62.3422C62.8569 64.607 65.1852 65.9508 67.4502 65.3436C69.7151 64.7363 71.0589 62.408 70.4516 60.1432Z" stroke="#024D81" stroke-width="2" stroke-linecap="round" stroke-linejoin="round"/>
<path d="M27.8481 33.4922C30.8709 29.0456 35.3565 25.799 40.5249 24.3169C45.6933 22.8349 51.2177 23.2112 56.1374 25.3802" stroke="#024D81" stroke-width="2" stroke-linecap="round" stroke-linejoin="round"/>
<path d="M18.6101 28.4227C22.9976 21.5632 29.7372 16.54 37.5646 14.2956C45.3919 12.0511 53.7692 12.7395 61.1252 16.2317" stroke="#024D81" stroke-width="2" stroke-linecap="round" stroke-linejoin="round"/>
<path d="M36.9915 38.6104C38.6157 36.5765 40.8326 35.0983 43.3346 34.3809C45.8367 33.6634 48.5001 33.7422 50.9553 34.6064" stroke="#024D81" stroke-width="2" stroke-linecap="round" stroke-linejoin="round"/>
</svg>
