<svg width="90" height="90" viewBox="0 0 90 90" fill="none" xmlns="http://www.w3.org/2000/svg">
<path d="M58.6541 52.7869C58.6541 52.7869 58.5683 32.7931 58.6541 19.2185C58.7508 14.9798 58.6831 11.6518 53.1475 11.0011C47.8663 11.012 31.4115 11.0643 25.3918 11.0011C19.3722 10.9377 17.6298 13.6645 18.0627 19.2185C18.0627 27.6766 18.0627 66.6421 18.0627 72.3941C18.0627 78.5066 22.3371 79.1146 25.3918 78.9853H50.5601H51.8047C51.5489 72.896 53.1634 66.8736 56.4331 61.7196C53.5775 58.8787 51.0496 56.262 47.7307 52.7883C47.216 52.0448 46.9811 51.1448 47.0669 50.2461C47.1527 49.3476 47.554 48.5078 48.2003 47.874C48.8464 47.2403 49.6963 46.8534 50.6007 46.781C51.5051 46.7085 52.4062 46.9552 53.1461 47.4778C56.1164 50.0767 65 59.1718 65 59.1718" stroke="#024D81" stroke-width="2" stroke-linecap="round" stroke-linejoin="round"/>
<path d="M19 20H58" stroke="#024D81" stroke-width="2" stroke-linecap="round"/>
<path d="M19 69H40" stroke="#024D81" stroke-width="2" stroke-linecap="round"/>
<path d="M19 64H40" stroke="#024D81" stroke-width="2" stroke-linecap="round"/>
<path d="M19 59H40" stroke="#024D81" stroke-width="2" stroke-linecap="round"/>
<path d="M66 41C66 41 71.2074 45.4873 71.7561 47.4617C72.3049 49.4362 71.7561 79 71.7561 79" stroke="#024D81" stroke-width="2" stroke-linecap="round" stroke-linejoin="round"/>
<path d="M27.2476 28H34.7524C35.0833 28 35.4006 28.1315 35.6346 28.3655C35.8685 28.5994 36 28.9168 36 29.2477V36.7524C36 37.0833 35.8685 37.4006 35.6346 37.6346C35.4006 37.8686 35.0833 38 34.7524 38H27.2476C26.9173 38.0001 26.6006 37.8691 26.3668 37.636C26.1329 37.4028 26.001 37.0865 26 36.7562V29.2477C26 28.9168 26.1314 28.5994 26.3654 28.3655C26.5994 28.1315 26.9167 28 27.2476 28Z" stroke="#024D81" stroke-width="2"/>
<circle cx="38.5" cy="15.5" r="1.5" fill="#024D81"/>
</svg>
