<svg width="90" height="90" viewBox="0 0 90 90" fill="none" xmlns="http://www.w3.org/2000/svg">
<path d="M44.7183 45.7196C46.1678 45.7196 47.3428 44.5445 47.3428 43.095C47.3428 41.6455 46.1678 40.4705 44.7183 40.4705C43.2688 40.4705 42.0938 41.6455 42.0938 43.095C42.0938 44.5445 43.2688 45.7196 44.7183 45.7196Z" fill="#024D81"/>
<path d="M37.3693 48.3132L36.7885 48.1647C32.4746 47.0752 30 45.2225 30 43.0891C30 40.9542 32.476 39.103 36.7885 38.0135L37.3693 37.8665L37.5325 38.4414C37.9685 39.9465 38.5272 41.4135 39.2028 42.8274L39.3278 43.0891L39.2028 43.3508C38.5265 44.7667 37.9663 46.2341 37.5325 47.7398L37.3693 48.3132ZM36.5209 39.3515C33.2436 40.2749 31.2307 41.6834 31.2307 43.0891C31.2307 44.4918 33.2421 45.9018 36.5209 46.8237C36.9223 45.5475 37.4075 44.2992 37.9692 43.0891C37.4035 41.877 36.9196 40.6283 36.5209 39.3515ZM52.0653 48.3132L51.9036 47.7368C51.4664 46.2313 50.9073 44.764 50.2318 43.3493L50.1068 43.0891L50.2318 42.8259C50.9082 41.4129 51.4654 39.944 51.9036 38.4384L52.0653 37.865L52.6461 38.012C56.9615 39.1015 59.4346 40.9527 59.4346 43.0891C59.4346 45.224 56.9601 47.0752 52.6461 48.1647L52.0653 48.3132ZM51.4625 43.0891C52.0506 44.3624 52.5402 45.6151 52.9137 46.8237C56.1925 45.9018 58.2054 44.4918 58.2054 43.0891C58.2054 41.6834 56.194 40.2763 52.9137 39.3515C52.5127 40.6279 52.0279 41.8765 51.4625 43.0891Z" fill="#024D81"/>
<path d="M36.5121 39.3456L36.3503 38.7722C35.1358 34.4965 35.5034 31.4338 37.3604 30.3663C39.1763 29.315 42.0979 30.5575 45.1576 33.6966L45.5752 34.126L45.1576 34.5538C44.0709 35.684 43.0776 36.9006 42.1875 38.1914L42.0214 38.4296L41.7332 38.4531C40.1682 38.5761 38.6157 38.8264 37.0914 39.2015L36.5121 39.3456ZM38.8381 31.2162C38.5088 31.2162 38.2176 31.2882 37.9721 31.4294C36.7547 32.1307 36.54 34.5729 37.3781 37.8694C38.6882 37.5798 40.01 37.3725 41.3421 37.2563C42.1133 36.1624 42.9546 35.1198 43.8608 34.1348C41.9449 32.2719 40.1364 31.2162 38.8381 31.2162ZM50.5964 56.1883C48.8496 56.1883 46.6059 54.8709 44.2769 52.4801L43.8608 52.0523L44.2769 51.6259C45.3638 50.4938 46.3576 49.2759 47.2484 47.9839L47.4131 47.7486L47.6984 47.7207C49.264 47.5999 50.817 47.3506 52.3417 46.9752L52.9225 46.8282L53.0857 47.4031C54.2943 51.6759 53.9282 54.743 52.0741 55.8104C51.6239 56.0656 51.1138 56.1961 50.5964 56.1883ZM45.5752 52.042C47.4896 53.9049 49.2996 54.9621 50.5964 54.9621C50.9272 54.9621 51.2183 54.8885 51.4624 54.7489C52.6813 54.046 52.8975 51.5994 52.0564 48.3029C50.7478 48.594 49.4245 48.8028 48.0895 48.919C47.3215 50.0146 46.4816 51.0579 45.5752 52.042Z" fill="#024D81"/>
<path d="M52.9226 39.3456L52.3418 39.2C50.8171 38.8237 49.2641 38.5734 47.6985 38.4516L47.4132 38.4266L47.2485 38.1884C46.3589 36.8969 45.3651 35.6803 44.277 34.5508L43.8609 34.123L44.277 33.6966C47.3353 30.5589 50.2554 29.3164 52.0742 30.3662C53.9297 31.4352 54.2988 34.4979 53.0858 38.7722L52.9226 39.3456ZM48.0896 37.2562C49.4923 37.3812 50.8214 37.5915 52.0565 37.8694C52.8961 34.5729 52.6814 32.1307 51.4625 31.4278C50.251 30.7265 47.9705 31.7998 45.5753 34.1347C46.481 35.1198 47.322 36.1608 48.0896 37.2562ZM38.8382 56.1883C38.3209 56.1957 37.8108 56.0652 37.3605 55.8104C35.5035 54.7429 35.1359 51.6773 36.3489 47.403L36.5077 46.8281L37.0885 46.9751C38.5059 47.3324 40.0674 47.5839 41.7318 47.7206L42.0171 47.7485L42.1832 47.9838C43.0713 49.2748 44.0653 50.4937 45.1533 51.6258L45.5709 52.0522L45.1533 52.4801C42.8258 54.8723 40.582 56.1883 38.8382 56.1883ZM37.3782 48.3043C36.5401 51.6008 36.7548 54.0475 37.9722 54.7503C39.1852 55.4413 41.4584 54.3753 43.8609 52.0419C42.9551 51.0566 42.1138 50.014 41.3422 48.9204C40.0087 48.8025 38.6845 48.5967 37.3782 48.3043Z" fill="#024D81"/>
<path d="M44.7178 49.0763C43.7077 49.0763 42.6711 49.0337 41.6301 48.947L41.3419 48.922L41.1758 48.6838C40.5888 47.8396 40.0364 46.9719 39.5202 46.0827C39.0078 45.1912 38.5315 44.2793 38.0925 43.3494L37.969 43.0891L38.0925 42.8259C38.5321 41.8967 39.0071 40.9851 39.5202 40.0941C40.0304 39.2177 40.5877 38.3414 41.1758 37.4916L41.3419 37.2563L41.6301 37.2299C43.684 37.0578 45.7487 37.0578 47.8026 37.2299L48.0878 37.2578L48.254 37.493C49.43 39.1821 50.4628 40.9664 51.3417 42.8274L51.4637 43.0906L51.3417 43.3509C50.4652 45.2131 49.4323 46.9977 48.254 48.6852L48.0878 48.9234L47.8026 48.9484C46.7645 49.0322 45.7265 49.0763 44.7178 49.0763ZM42.0212 47.7472C43.8371 47.8839 45.5986 47.8839 47.413 47.7472C48.4259 46.2639 49.3263 44.7069 50.1066 43.0891C49.329 41.4699 48.4285 39.9127 47.413 38.4311C45.6184 38.2929 43.8158 38.2929 42.0212 38.4311C41.0049 39.9122 40.1043 41.4695 39.3276 43.0891C40.1096 44.706 41.01 46.2629 42.0212 47.7472Z" fill="#024D81"/>
<path d="M58.9444 11H30.0556C27.2635 11 25 13.2199 25 15.9583V74.0417C25 76.7801 27.2635 79 30.0556 79H58.9444C61.7365 79 64 76.7801 64 74.0417V15.9583C64 13.2199 61.7365 11 58.9444 11Z" stroke="#024D81" stroke-width="2" stroke-linecap="round" stroke-linejoin="round"/>
<path d="M25 68H64V74C64 76.7614 61.7614 79 59 79H30C27.2386 79 25 76.7614 25 74V68Z" stroke="#024D81" stroke-width="2"/>
<g filter="url(#filter0_d_74_13)">
<circle cx="45" cy="73" r="2" fill="#024D81"/>
<circle cx="45" cy="73" r="1.5" stroke="#024D81"/>
</g>
<defs>
<filter id="filter0_d_74_13" x="39" y="71" width="12" height="12" filterUnits="userSpaceOnUse" color-interpolation-filters="sRGB">
<feFlood flood-opacity="0" result="BackgroundImageFix"/>
<feColorMatrix in="SourceAlpha" type="matrix" values="0 0 0 0 0 0 0 0 0 0 0 0 0 0 0 0 0 0 127 0" result="hardAlpha"/>
<feOffset dy="4"/>
<feGaussianBlur stdDeviation="2"/>
<feComposite in2="hardAlpha" operator="out"/>
<feColorMatrix type="matrix" values="0 0 0 0 0 0 0 0 0 0 0 0 0 0 0 0 0 0 0.25 0"/>
<feBlend mode="normal" in2="BackgroundImageFix" result="effect1_dropShadow_74_13"/>
<feBlend mode="normal" in="SourceGraphic" in2="effect1_dropShadow_74_13" result="shape"/>
</filter>
</defs>
</svg>
