<svg width="90" height="90" viewBox="0 0 90 90" fill="none" xmlns="http://www.w3.org/2000/svg">
<path d="M47 33.5L42 31L47 28.5" stroke="#024D81" stroke-width="2" stroke-linecap="square" stroke-linejoin="round"/>
<path d="M55 33.5L60 31L55 28.5" stroke="#024D81" stroke-width="2" stroke-linecap="square" stroke-linejoin="round"/>
<path d="M50 36L53 26" stroke="#024D81" stroke-width="2" stroke-linecap="square"/>
<path d="M37.0762 78.3618H52.7575" stroke="#024D81" stroke-width="2" stroke-linecap="round"/>
<path d="M24.0087 31.1982H16.7232C16.5594 31.2072 16.4008 31.259 16.2631 31.348C16.1416 31.4558 16.0508 31.5938 16 31.7482V67.8405C16.0951 68.3068 16.2971 68.7447 16.5898 69.1198C16.9121 69.4383 17.3117 69.6673 17.7494 69.7843H71.9352C72.34 69.7304 72.7224 69.567 73.0412 69.3117C73.2884 68.9426 73.4349 68.5155 73.4664 68.0724V31.9652C73.4557 31.7481 73.3615 31.5434 73.2034 31.3941C72.9814 31.2663 72.73 31.1982 72.4739 31.197H65.7133" stroke="#024D81" stroke-width="2" stroke-linecap="round" stroke-linejoin="round"/>
<path d="M40.0762 77.3618V70.3618" stroke="#024D81" stroke-width="2" stroke-linecap="round"/>
<path d="M50.0762 77.3618V70.3618" stroke="#024D81" stroke-width="2" stroke-linecap="round"/>
<path d="M64.5829 11H36.6477V58.3685H64.5829V11Z" stroke="#024D81" stroke-width="2" stroke-linejoin="round"/>
</svg>
