<svg width="90" height="90" viewBox="0 0 90 90" fill="none" xmlns="http://www.w3.org/2000/svg">
<g clip-path="url(#clip0_74_98)">
<rect x="27" y="11" width="36.8889" height="68" rx="1" stroke="#024D81" stroke-width="2"/>
<rect x="27" y="67.3892" width="36.8889" height="11.6111" rx="1" stroke="#024D81" stroke-width="2"/>
<rect x="27" y="11" width="36.8889" height="9.66667" rx="1" stroke="#024D81" stroke-width="2"/>
<path d="M39.6111 15.8335H51.2778" stroke="#024D81" stroke-linecap="round"/>
<path d="M33 37.6587C33 36.4231 33.4935 35.2382 34.3719 34.3645C35.2503 33.4908 36.4417 33 37.6839 33H50.1744C51.4166 33 52.608 33.4908 53.4864 34.3645C54.3648 35.2382 54.8583 36.4231 54.8583 37.6587V42.322C54.3259 42.3469 53.7966 42.4649 53.297 42.6777V37.6587C53.297 36.835 52.968 36.045 52.3824 35.4626C51.7968 34.8801 51.0025 34.5529 50.1744 34.5529H37.6839C36.8557 34.5529 36.0615 34.8801 35.4759 35.4626C34.8903 36.045 34.5613 36.835 34.5613 37.6587V52.4112C34.5613 52.6172 34.4791 52.8146 34.3327 52.9603C34.1863 53.1059 33.9877 53.1877 33.7807 53.1877C33.5736 53.1877 33.375 53.1059 33.2286 52.9603C33.0822 52.8146 33 52.6172 33 52.4112V37.6587ZM33.6245 54.7949C34.2006 55.0807 34.9204 55.3151 35.5246 55.1831C35.9165 55.0962 36.4255 54.8834 36.9969 54.6443C38.3787 54.0651 40.1242 53.3352 41.4654 53.8725C42.4599 54.27 42.3772 55.3959 42.0977 55.9379C42.0431 56.0403 42.0852 56.1863 42.1992 56.2127C42.7702 56.3282 43.3532 56.374 43.9354 56.3494C43.9417 56.2761 43.9537 56.2034 43.9713 56.132L44.5568 53.8057C44.7065 53.2057 45.0186 52.6579 45.4592 52.2218L53.0003 44.7213C53.2707 44.4482 53.5928 44.2311 53.9479 44.0825C54.3031 43.9339 54.6843 43.8566 55.0696 43.8552C55.4549 43.8538 55.8367 43.9282 56.1929 44.0743C56.5492 44.2203 56.8728 44.435 57.1452 44.7061C57.4177 44.9771 57.6334 45.2991 57.7801 45.6535C57.9268 46.0079 58.0015 46.3876 58 46.7709C57.9984 47.1541 57.9206 47.5333 57.771 47.8864C57.6214 48.2396 57.403 48.5599 57.1284 48.8287L49.5873 56.3276C49.148 56.7648 48.5976 57.075 47.9948 57.2252L46.0869 57.6988C44.3366 58.2082 41.7246 58.0436 40.9143 57.4147C40.2132 56.8711 40.1851 56.0372 40.4209 55.4829C40.474 55.3586 40.3803 55.1987 40.2476 55.2189C39.4747 55.3276 38.8424 55.6071 38.2179 55.882C37.3045 56.2857 36.413 56.6786 35.1327 56.5202C34.0227 56.3835 33.4044 55.8074 33.064 55.2391C32.8735 54.9223 33.2935 54.6303 33.6261 54.7949H33.6245Z" fill="#024D81"/>
</g>
<defs>
<clipPath id="clip0_74_98">
<rect width="90" height="90" fill="white"/>
</clipPath>
</defs>
</svg>
