<svg width="90" height="90" viewBox="0 0 90 90" fill="none" xmlns="http://www.w3.org/2000/svg">
<path d="M43 35H47V36H43V35ZM43 23H47V24H43V23ZM43 41H47V42H43V41Z" stroke="#024D81" stroke-width="2"/>
<path d="M71.05 45.866V46.866H72.05C72.5666 46.866 73.0624 47.0715 73.4282 47.438C73.7941 47.8046 74 48.3021 74 48.8213V54.732C74 55.2511 73.7941 55.7487 73.4282 56.1152C73.0624 56.4817 72.5666 56.6873 72.05 56.6873H71.05V57.6873V68.5216C61.6078 68.7629 52.5541 72.3497 45.5009 78.6448C38.4539 72.3384 29.3955 68.7494 19.95 68.5203V57.6873V56.6873H18.95C18.4334 56.6873 17.9376 56.4817 17.5718 56.1152C17.2059 55.7487 17 55.2511 17 54.732V48.8213C17 48.3021 17.2059 47.8046 17.5718 47.438C17.9376 47.0715 18.4334 46.866 18.95 46.866H19.95V45.866V38.0131C28.3549 38.2345 36.4563 41.2645 42.9573 46.6368L43.2346 46.866H43.5943H47.4057H47.7654L48.0427 46.6368C54.5437 41.2645 62.6451 38.2345 71.05 38.0131V45.866Z" stroke="#024D81" stroke-width="2"/>
<path d="M38 22C38 23.1046 37.1046 24 36 24C34.8954 24 34 23.1046 34 22C34 20.8954 34.8954 20 36 20C37.1046 20 38 20.8954 38 22Z" stroke="#024D81" stroke-width="2"/>
<path d="M56 22C56 23.1046 55.1046 24 54 24C52.8954 24 52 23.1046 52 22C52 20.8954 52.8954 20 54 20C55.1046 20 56 20.8954 56 22Z" stroke="#024D81" stroke-width="2"/>
<path d="M33 15L32.999 15C31.9387 15.0011 30.9222 15.4227 30.1725 16.1725C29.4227 16.9222 29.0011 17.9387 29 18.999V19L29 25L29 25.001C29.0011 26.0613 29.4227 27.0778 30.1725 27.8276C30.9222 28.5773 31.9387 28.9989 32.999 29H33H57H57.001C58.0613 28.9989 59.0778 28.5773 59.8275 27.8275C60.5773 27.0778 60.9989 26.0613 61 25.001V25V19V18.999C60.9989 17.9387 60.5773 16.9222 59.8275 16.1725C59.0778 15.4227 58.0613 15.0011 57.001 15H57L33 15ZM56.999 33H33.001C30.8797 32.9979 28.8458 32.1542 27.3458 30.6542C25.8459 29.1543 25.0022 27.1206 25 24.9995V19.0005C25.0022 16.8794 25.8459 14.8457 27.3458 13.3458C28.8457 11.8459 30.8794 11.0022 33.0005 11H56.9995C59.1206 11.0022 61.1543 11.8459 62.6542 13.3458C64.1542 14.8458 64.9979 16.8797 65 19.001V24.999C64.9979 27.1203 64.1542 29.1542 62.6542 30.6542C61.1542 32.1542 59.1203 32.9979 56.999 33Z" stroke="#024D81" stroke-width="2"/>
</svg>
