<svg width="90" height="90" viewBox="0 0 90 90" fill="none" xmlns="http://www.w3.org/2000/svg">
<path d="M23.299 41.4652L16.3821 48.3821C13.0185 51.7456 11.1289 56.3076 11.1289 61.0644C11.1289 65.8212 13.0185 70.3832 16.3821 73.7467C19.7457 77.1103 24.3076 78.9999 29.0644 78.9999C33.8212 78.9999 38.3832 77.1103 41.7468 73.7467L53.2837 62.2035L53.2838 62.2034C55.3121 60.1748 56.8242 57.6893 57.6931 54.9554C58.562 52.2215 58.7625 49.3191 58.2776 46.4917C57.7927 43.6643 56.6366 40.9945 54.9064 38.7064C53.3176 36.6053 51.2873 34.8823 48.9619 33.657L45.7745 36.8444L23.299 41.4652ZM23.299 41.4652C23.3587 43.2712 23.6041 45.0681 24.0322 46.8272L19.4304 51.4232L19.43 51.4236C16.8739 53.9797 15.438 57.4464 15.438 61.0612C15.438 64.676 16.8739 68.1428 19.43 70.6989C21.986 73.2549 25.4528 74.6909 29.0676 74.6909C32.6824 74.6909 36.1492 73.2549 38.7052 70.6989L38.7054 70.6987L50.2356 59.1621L23.299 41.4652ZM45.721 36.8987C47.4662 37.6055 49.0509 38.6685 50.3712 40.0254C52.0245 41.7247 53.2057 43.826 53.798 46.1217C54.3903 48.4174 54.3732 50.8279 53.7485 53.115C53.1238 55.4018 51.9131 57.486 50.2362 59.1616L45.721 36.8987ZM45.721 36.8987C45.7385 36.8807 45.7561 36.8628 45.7739 36.845L45.721 36.8987Z" stroke="white" stroke-width="2"/>
<path d="M51.4291 19.4256L51.4289 19.4258L39.8983 30.9627C38.2075 32.6533 36.9915 34.7592 36.3724 37.0686C35.7533 39.3781 35.753 41.8099 36.3715 44.1195C36.99 46.4292 38.2055 48.5354 39.8958 50.2264C41.1901 51.5212 42.7278 52.5377 44.414 53.2211L41.172 56.4673C38.8467 55.242 36.8165 53.5191 35.2279 51.4181C33.4977 49.13 32.3416 46.4602 31.8567 43.6328C31.3718 40.8054 31.5722 37.903 32.4412 35.1691C33.3101 32.4352 34.8221 29.9497 36.8504 27.9211C36.8504 27.9211 36.8504 27.9211 36.8505 27.9211L48.3875 16.3841C51.751 13.0205 56.313 11.1309 61.0698 11.1309C65.8266 11.1309 70.3886 13.0205 73.7522 16.3841C77.1157 19.7476 79.0054 24.3096 79.0054 29.0664C79.0054 33.8232 77.1157 38.3852 73.7522 41.7487L66.8352 48.6657C66.7757 46.8599 66.5307 45.0603 66.102 43.2973L70.7038 38.7013L70.7043 38.7008C73.2603 36.1448 74.6963 32.678 74.6963 29.0632C74.6963 25.4484 73.2603 21.9817 70.7043 19.4256C68.1482 16.8696 64.6815 15.4336 61.0667 15.4336C57.4519 15.4336 53.9851 16.8696 51.4291 19.4256Z" stroke="white" stroke-width="2"/>
</svg>
