<svg width="90" height="90" viewBox="0 0 90 90" fill="none" xmlns="http://www.w3.org/2000/svg">
<path d="M44.3956 23.5694L45 24.0279L45.6044 23.5694C49.9656 20.2609 56.3887 19 62.5 19C66.1405 19 69.9148 19.4671 73.3279 20.5422C75.4747 21.2583 77.3142 22.0929 79 23.2818V69.2273C79 69.2998 78.9537 69.456 78.7957 69.6139C78.6378 69.7719 78.4816 69.8182 78.4091 69.8182C78.3246 69.8182 78.2754 69.818 78.2337 69.8164C78.1966 69.815 78.1814 69.8128 78.1758 69.8119C78.1722 69.8113 78.1669 69.8104 78.1545 69.8061C78.141 69.8014 78.1153 69.7914 78.0718 69.7701C73.4306 67.2878 67.8507 66.3182 62.5 66.3182C59.6844 66.3182 56.293 66.8538 53.0713 67.725C50.1232 68.5223 47.252 69.6183 45.0522 70.8917C40.2223 67.5089 33.5633 66.3182 27.5 66.3182C22.7923 66.3182 16.5399 67.7488 12.1212 69.8367C11.9269 69.8638 11.7767 69.9141 11.6881 69.9438L11.6724 69.949C11.6197 69.9666 11.5939 69.9742 11.5832 69.9771C11.5078 69.974 11.3568 69.9256 11.2043 69.773C11.0463 69.6151 11 69.4589 11 69.3864V23.2789C15.3485 20.1868 21.571 19 27.5 19C33.6113 19 40.0344 20.2609 44.3956 23.5694ZM73.3332 63.4984L74.6364 63.913V62.5455V25.9545V25.2233L73.9396 25.0016C70.3213 23.8504 66.3975 23.3636 62.5 23.3636C59.6844 23.3636 56.293 23.8992 53.0713 24.7705C49.8542 25.6405 46.7286 26.8663 44.4672 28.2901L44 28.5843V29.1364V65.7273V67.5386L45.5328 66.5735C47.5669 65.2928 50.4868 64.1322 53.5934 63.292C56.6957 62.4531 59.9066 61.9545 62.5 61.9545C66.2389 61.9545 69.9514 62.4224 73.3332 63.4984Z" stroke="white" stroke-width="2"/>
<path d="M49.1816 38.6101V35.6278C52.9311 34.1322 57.473 33.3184 62.4998 33.3184C64.8759 33.3184 67.2312 33.5399 69.4544 33.9181V36.6974C67.2636 36.2988 64.9133 36.0911 62.4998 36.0911C57.3934 36.0911 52.7912 36.9573 49.1816 38.6101Z" stroke="white" stroke-width="2"/>
<path d="M69.4544 45.1603C67.2636 44.7617 64.9133 44.554 62.4998 44.554C57.3934 44.554 52.7912 45.4202 49.1816 47.073V44.0951C52.9368 42.6215 57.48 41.7812 62.4998 41.7812C64.8759 41.7812 67.2312 42.0028 69.4544 42.3809V45.1603Z" stroke="white" stroke-width="2"/>
<path d="M49.1816 55.5691V52.5868C52.9311 51.0912 57.473 50.2773 62.4998 50.2773C64.8856 50.2773 67.2409 50.4753 69.4544 50.8688V53.6564C67.2636 53.2578 64.9133 53.0501 62.4998 53.0501C57.3934 53.0501 52.7912 53.9163 49.1816 55.5691Z" stroke="white" stroke-width="2"/>
</svg>
