<svg width="90" height="90" viewBox="0 0 90 90" fill="none" xmlns="http://www.w3.org/2000/svg">
<path d="M35.0082 54C35.0041 53.9999 34.9953 53.9995 34.9824 53.9986C34.9532 53.9966 34.9052 53.9922 34.8452 53.9826C34.7203 53.9626 34.5699 53.9246 34.4321 53.8586C34.2973 53.794 34.1991 53.7148 34.1334 53.6203C34.0735 53.5343 34 53.3785 34 53.0833C34 52.3956 34.3901 50.7403 35.9419 49.2532C37.4671 47.7916 40.1989 46.4167 45 46.4167C49.8011 46.4167 52.5329 47.7916 54.0581 49.2532C55.6099 50.7403 56 52.3956 56 53.0833C56 53.3785 55.9265 53.5343 55.8666 53.6203C55.8009 53.7148 55.7027 53.794 55.5679 53.8586C55.4301 53.9246 55.2797 53.9626 55.1548 53.9826C55.0948 53.9922 55.0468 53.9966 55.0176 53.9986C55.0047 53.9995 54.9959 53.9999 54.9918 54H35.0082ZM35.0097 54.0001C35.0112 54.0001 35.0111 54.0001 35.0095 54L35.0097 54.0001ZM48.5507 41.0939C47.616 41.9897 46.3395 42.5 45 42.5C43.6605 42.5 42.384 41.9897 41.4493 41.0939C40.516 40.1995 40 38.9957 40 37.75C40 36.5043 40.516 35.3005 41.4493 34.4061C42.384 33.5103 43.6605 33 45 33C46.3395 33 47.616 33.5103 48.5507 34.4061C49.484 35.3005 50 36.5043 50 37.75C50 38.9957 49.484 40.1995 48.5507 41.0939Z" stroke="#024D81" stroke-width="2"/>
<path d="M78 78L60.4 60.4M78 78V60.4M78 78H60.4M12 60.4V78M12 78H29.6M12 78L29.6 60.4M78 29.6V12M78 12H60.4M78 12L60.4 29.6M12 29.6V12M12 12H29.6M12 12L29.6 29.6" stroke="#024D81" stroke-width="2" stroke-linecap="round" stroke-linejoin="round"/>
</svg>
