<svg width="90" height="90" viewBox="0 0 90 90" fill="none" xmlns="http://www.w3.org/2000/svg">
<path d="M20.7143 64.4286C21.6749 64.4286 22.614 64.7134 23.4128 65.2471C24.2115 65.7809 24.8341 66.5394 25.2017 67.427C25.5693 68.3145 25.6655 69.2911 25.4781 70.2333C25.2907 71.1755 24.8281 72.0409 24.1488 72.7202C23.4695 73.3995 22.6041 73.8621 21.6619 74.0495C20.7197 74.2369 19.7431 74.1407 18.8555 73.7731C17.968 73.4055 17.2094 72.7829 16.6757 71.9842C16.142 71.1854 15.8571 70.2464 15.8571 69.2857C15.8571 67.9975 16.3689 66.7621 17.2798 65.8512C18.1907 64.9403 19.4261 64.4286 20.7143 64.4286V64.4286ZM20.7143 59.5714C18.793 59.5714 16.9148 60.1412 15.3173 61.2086C13.7198 62.276 12.4747 63.7932 11.7395 65.5682C11.0042 67.3433 10.8118 69.2965 11.1867 71.1809C11.5615 73.0653 12.4867 74.7962 13.8453 76.1547C15.2038 77.5133 16.9347 78.4385 18.8191 78.8133C20.7035 79.1882 22.6567 78.9958 24.4318 78.2605C26.2068 77.5253 27.724 76.2802 28.7914 74.6827C29.8588 73.0852 30.4286 71.207 30.4286 69.2857C30.4286 66.7093 29.4051 64.2385 27.5833 62.4167C25.7615 60.5949 23.2907 59.5714 20.7143 59.5714V59.5714ZM45 15.8571C45.9607 15.8571 46.8997 16.142 47.6985 16.6757C48.4972 17.2094 49.1198 17.968 49.4874 18.8555C49.855 19.7431 49.9512 20.7197 49.7638 21.6619C49.5764 22.6041 49.1138 23.4695 48.4345 24.1488C47.7552 24.8281 46.8898 25.2907 45.9476 25.4781C45.0054 25.6655 44.0288 25.5693 43.1413 25.2017C42.2537 24.8341 41.4951 24.2115 40.9614 23.4128C40.4277 22.614 40.1429 21.6749 40.1429 20.7143C40.1429 19.4261 40.6546 18.1907 41.5655 17.2798C42.4764 16.3689 43.7118 15.8571 45 15.8571ZM45 11C43.0787 11 41.2005 11.5697 39.603 12.6372C38.0055 13.7046 36.7604 15.2217 36.0252 16.9968C35.2899 18.7718 35.0975 20.7251 35.4724 22.6094C35.8472 24.4938 36.7724 26.2248 38.131 27.5833C39.4895 28.9419 41.2205 29.8671 43.1048 30.2419C44.9892 30.6167 46.9424 30.4244 48.7175 29.6891C50.4925 28.9539 52.0097 27.7088 53.0771 26.1113C54.1446 24.5137 54.7143 22.6356 54.7143 20.7143C54.7143 18.1379 53.6908 15.667 51.869 13.8452C50.0473 12.0235 47.5764 11 45 11ZM69.2857 15.8571C70.2464 15.8571 71.1854 16.142 71.9842 16.6757C72.783 17.2094 73.4055 17.968 73.7731 18.8555C74.1408 19.7431 74.2369 20.7197 74.0495 21.6619C73.8621 22.6041 73.3995 23.4695 72.7202 24.1488C72.0409 24.8281 71.1755 25.2907 70.2333 25.4781C69.2911 25.6655 68.3145 25.5693 67.427 25.2017C66.5394 24.8341 65.7809 24.2115 65.2471 23.4128C64.7134 22.614 64.4286 21.6749 64.4286 20.7143C64.4286 19.4261 64.9403 18.1907 65.8512 17.2798C66.7621 16.3689 67.9975 15.8571 69.2857 15.8571V15.8571ZM69.2857 11C67.3644 11 65.4863 11.5697 63.8887 12.6372C62.2912 13.7046 61.0461 15.2217 60.3109 16.9968C59.5756 18.7718 59.3833 20.7251 59.7581 22.6094C60.1329 24.4938 61.0581 26.2248 62.4167 27.5833C63.7752 28.9419 65.5062 29.8671 67.3906 30.2419C69.2749 30.6167 71.2282 30.4244 73.0032 29.6891C74.7783 28.9539 76.2954 27.7088 77.3628 26.1113C78.4303 24.5137 79 22.6356 79 20.7143C79 18.1379 77.9765 15.667 76.1547 13.8452C74.333 12.0235 71.8621 11 69.2857 11ZM49.8571 64.4286V74.1429H40.1429V64.4286H49.8571ZM54.7143 59.5714H35.2857V79H54.7143V59.5714Z" stroke="#024D81" stroke-width="2"/>
<path d="M71.7143 59.8888V47.4117C71.7143 46.1241 71.2025 44.8892 70.2916 43.9788C69.3807 43.0683 68.1453 42.5568 66.8571 42.5568H23.1429V30.4196H30.4286V11H11V30.4196H18.2857V42.5568C18.2857 43.8444 18.7974 45.0793 19.7083 45.9897C20.6192 46.9002 21.8547 47.4117 23.1429 47.4117H66.8571V59.8888C64.5678 60.4796 62.5727 61.8847 61.2457 63.8407C59.9187 65.7966 59.3509 68.1692 59.6488 70.5137C59.9468 72.8582 61.0899 75.0135 62.864 76.5758C64.6381 78.1381 66.9213 79 69.2857 79C71.6501 79 73.9333 78.1381 75.7074 76.5758C77.4815 75.0135 78.6246 72.8582 78.9225 70.5137C79.2205 68.1692 78.6527 65.7966 77.3257 63.8407C75.9987 61.8847 74.0036 60.4796 71.7143 59.8888V59.8888ZM15.8571 15.8549H25.5714V25.5647H15.8571V15.8549ZM69.2857 74.1136C68.325 74.1136 67.386 73.8289 66.5872 73.2954C65.7885 72.7619 65.1659 72.0037 64.7983 71.1166C64.4307 70.2295 64.3345 69.2533 64.5219 68.3116C64.7093 67.3698 65.1719 66.5047 65.8512 65.8258C66.5305 65.1468 67.3959 64.6844 68.3381 64.4971C69.2803 64.3098 70.2569 64.4059 71.1444 64.7734C72.032 65.1408 72.7905 65.7631 73.3243 66.5615C73.858 67.3598 74.1428 68.2985 74.1428 69.2587C74.1428 70.5463 73.6311 71.7812 72.7202 72.6916C71.8093 73.6021 70.5739 74.1136 69.2857 74.1136Z" stroke="#024D81" stroke-width="2"/>
</svg>
