<svg width="90" height="90" viewBox="0 0 90 90" fill="none" xmlns="http://www.w3.org/2000/svg">
<path d="M80 22.8936H27.5V14H80V22.8936ZM27.5 40.6808V31.7872H80V40.6808H27.5ZM18.75 22.8936H10V14H18.75V22.8936ZM10 40.6808V31.7872H18.75V40.6808H10Z" fill="white"/>
<path d="M80 58.2128H27.5V49.3192H80V58.2128ZM27.5 76V67.1064H80V76H27.5ZM18.75 58.2128H10V49.3192H18.75V58.2128ZM10 76V67.1064H18.75V76H10Z" fill="white"/>
<path d="M80 76H27.5V67.1064H80V76ZM18.75 76H10V67.1064H18.75V76Z" fill="white"/>
</svg>
