<svg xmlns="http://www.w3.org/2000/svg" width="150" height="189.874" viewBox="0 0 150 189.874">
  <g id="Group_1" data-name="Group 1" transform="translate(-299.988 -143.016)">
    <circle id="Ellipse_1658" data-name="Ellipse 1658" cx="75" cy="75" r="75" transform="translate(299.988 143.016)" fill="#e9242b"/>
    <g id="Group_8692" data-name="Group 8692" transform="translate(306.392 292.58)">
      <path id="Path_42792" data-name="Path 42792" d="M303.392,259.039v-31.7h7.083l.743,3.279h.307a7.247,7.247,0,0,1,3.016-2.929,9.049,9.049,0,0,1,4.022-.875,9.9,9.9,0,0,1,5.247,1.334,8.47,8.47,0,0,1,3.345,4.022,17.159,17.159,0,0,1,1.159,6.756,16.849,16.849,0,0,1-1.159,6.688,8.469,8.469,0,0,1-3.345,4,9.9,9.9,0,0,1-5.247,1.334,10.734,10.734,0,0,1-2.382-.263,6.945,6.945,0,0,1-2.12-.852,6.008,6.008,0,0,1-1.661-1.509h-.307v10.712Zm12.46-14.514a3.793,3.793,0,0,0,2.186-.57,3.183,3.183,0,0,0,1.2-1.573,6.8,6.8,0,0,0,.372-2.361V237.7a6.8,6.8,0,0,0-.372-2.361,3.073,3.073,0,0,0-1.2-1.552,3.928,3.928,0,0,0-2.186-.546,3.521,3.521,0,0,0-2.207.655,3.738,3.738,0,0,0-1.245,1.772,7.344,7.344,0,0,0-.4,2.468v1.445a7.931,7.931,0,0,0,.22,1.9,4.774,4.774,0,0,0,.677,1.575,3.256,3.256,0,0,0,1.2,1.07A3.67,3.67,0,0,0,315.852,244.525Z" transform="translate(-303.392 -218.729)"/>
      <path id="Path_42793" data-name="Path 42793" d="M325.374,250.952a15.147,15.147,0,0,1-3.279-.329,7.075,7.075,0,0,1-2.579-1.093,5.039,5.039,0,0,1-1.684-2.011,7.057,7.057,0,0,1-.589-3.038,7.469,7.469,0,0,1,1.07-4.2,6.831,6.831,0,0,1,3.127-2.491,17.866,17.866,0,0,1,5.006-1.2,61.366,61.366,0,0,1,6.754-.329v-1.136a2.453,2.453,0,0,0-.459-1.552,2.866,2.866,0,0,0-1.2-.9,4.435,4.435,0,0,0-1.7-.307,7.046,7.046,0,0,0-1.531.175,2.868,2.868,0,0,0-1.289.611,1.532,1.532,0,0,0-.5,1.225v.175h-8.569a1.245,1.245,0,0,1-.045-.307v-.307a5.548,5.548,0,0,1,1.377-3.738,8.994,8.994,0,0,1,4.067-2.491,21.117,21.117,0,0,1,6.622-.9,23.671,23.671,0,0,1,5.9.7,9.442,9.442,0,0,1,4.372,2.34,6.016,6.016,0,0,1,1.661,4.481v9.006a2.05,2.05,0,0,0,.35,1.2,1.192,1.192,0,0,0,1.05.5h1.573v5.029a6.751,6.751,0,0,1-1.727.591,12.443,12.443,0,0,1-2.82.284,11.945,11.945,0,0,1-3.061-.35,5.634,5.634,0,0,1-2.12-1.006,3.392,3.392,0,0,1-1.114-1.529h-.307a10.953,10.953,0,0,1-2.12,1.486,11.168,11.168,0,0,1-2.734,1.027A14.848,14.848,0,0,1,325.374,250.952Zm3.542-5.422a5.3,5.3,0,0,0,1.6-.241,5.229,5.229,0,0,0,1.377-.655,3.156,3.156,0,0,0,.961-1.006,2.478,2.478,0,0,0,.35-1.289v-1.968a17.934,17.934,0,0,0-4.174.393,5.55,5.55,0,0,0-2.34,1.05,1.986,1.986,0,0,0-.743,1.529,1.939,1.939,0,0,0,.438,1.355,2.2,2.2,0,0,0,1.114.657A5.666,5.666,0,0,0,328.916,245.53Z" transform="translate(-291.186 -218.729)"/>
      <path id="Path_42794" data-name="Path 42794" d="M332.511,250.427V227.342h7.126l.568,3.5h.307a9,9,0,0,1,2.143-2.25,8.67,8.67,0,0,1,2.709-1.334,10.789,10.789,0,0,1,3.061-.438,8.923,8.923,0,0,1,4.524,1.029,6.361,6.361,0,0,1,2.645,2.95,11.264,11.264,0,0,1,.875,4.679v14.952h-8.7v-13.9a4.185,4.185,0,0,0-.2-1.334,3.31,3.31,0,0,0-.547-1.027,2.312,2.312,0,0,0-.9-.677,3.192,3.192,0,0,0-1.291-.241,3.523,3.523,0,0,0-1.9.5,3.588,3.588,0,0,0-1.727,3.127v13.553Z" transform="translate(-277.731 -218.729)"/>
      <path id="Path_42795" data-name="Path 42795" d="M356.275,254.74a9.89,9.89,0,0,1-5.247-1.334,8.44,8.44,0,0,1-3.345-4.022,17.125,17.125,0,0,1-1.159-6.756,16.822,16.822,0,0,1,1.159-6.688,8.466,8.466,0,0,1,3.345-4,10.69,10.69,0,0,1,7.628-1.048,7.7,7.7,0,0,1,2.143.873,5.444,5.444,0,0,1,1.639,1.509h.307V222.518h8.7v31.7h-7.083l-.611-3.279h-.307a7.628,7.628,0,0,1-3.061,2.886A9.071,9.071,0,0,1,356.275,254.74Zm2.711-6.426a3.521,3.521,0,0,0,2.207-.657,3.742,3.742,0,0,0,1.245-1.77,7.356,7.356,0,0,0,.393-2.47v-1.443a7.963,7.963,0,0,0-.218-1.9,4.793,4.793,0,0,0-.677-1.575,3.285,3.285,0,0,0-1.2-1.07,3.674,3.674,0,0,0-1.748-.393,3.8,3.8,0,0,0-2.186.568,3.186,3.186,0,0,0-1.2,1.573,6.844,6.844,0,0,0-.371,2.361v2.318a6.836,6.836,0,0,0,.371,2.361,3.061,3.061,0,0,0,1.2,1.552A3.908,3.908,0,0,0,358.986,248.314Z" transform="translate(-265.382 -222.518)"/>
      <path id="Path_42796" data-name="Path 42796" d="M361.653,228.419v-5.9h8.7v5.9Zm0,25.8V231.13h8.7v23.085Z" transform="translate(-252.049 -222.518)"/>
      <path id="Path_42797" data-name="Path 42797" d="M378.606,253.982a14.459,14.459,0,0,1-4.175-.547,5.271,5.271,0,0,1-2.82-1.9,6.1,6.1,0,0,1-1.006-3.715V236.276h-3.236v-5.9h3.586l1.881-6.995h6.47v6.995h4.9v5.9h-4.9v8.787a4.264,4.264,0,0,0,.482,2.252,2.154,2.154,0,0,0,1.966.764H384.2v5.115a15.478,15.478,0,0,1-1.727.416,19.841,19.841,0,0,1-2.056.284Q379.392,253.981,378.606,253.982Z" transform="translate(-247.012 -221.76)"/>
    </g>
    <g id="Group_8693" data-name="Group 8693" transform="translate(321.578 202.342)">
      <path id="Path_42798" data-name="Path 42798" d="M311.464,213.344v-37.93h11.709l.935,5.674h.5a13.2,13.2,0,0,1,3.377-3.627,14.38,14.38,0,0,1,4.417-2.192,17.148,17.148,0,0,1,4.921-.719,14.16,14.16,0,0,1,7.256,1.689,10.126,10.126,0,0,1,4.239,4.848h.5a13.451,13.451,0,0,1,3.339-3.627,14.04,14.04,0,0,1,4.348-2.192,16.537,16.537,0,0,1,4.812-.719,14.151,14.151,0,0,1,7.256,1.689,10.315,10.315,0,0,1,4.274,4.848,18.941,18.941,0,0,1,1.4,7.687v24.569H360.458V190.5a7.773,7.773,0,0,0-.288-2.192,4.9,4.9,0,0,0-.862-1.687,3.889,3.889,0,0,0-1.437-1.114,4.606,4.606,0,0,0-1.94-.4,5.46,5.46,0,0,0-4.993,2.98,6.438,6.438,0,0,0-.683,2.982v22.27h-14.3V190.5a7.773,7.773,0,0,0-.286-2.192,4.874,4.874,0,0,0-.864-1.687,3.882,3.882,0,0,0-1.435-1.114,4.612,4.612,0,0,0-1.94-.4,5.3,5.3,0,0,0-2.982.826,5.888,5.888,0,0,0-1.975,2.154,6.169,6.169,0,0,0-.719,2.982v22.27Z" transform="translate(-311.464 -174.551)" fill="#fff"/>
      <path id="Path_42799" data-name="Path 42799" d="M358.413,228.026a26.546,26.546,0,0,1-4.743-.4,22.1,22.1,0,0,1-3.52-.9v-8.548H355.9a6.663,6.663,0,0,0,3.843-.933,5.264,5.264,0,0,0,1.868-2.156,8.894,8.894,0,0,0,.683-2.154l-15.086-37.93h15.372l4.455,15.372q.358,1.078.862,2.875t1.042,3.663q.539,1.868.9,3.305h.5q.288-1,.611-2.3t.683-2.694q.358-1.4.719-2.622t.574-2.156l4.1-15.443H391.1l-13.506,36.781a49.633,49.633,0,0,1-2.908,6.5,22.364,22.364,0,0,1-3.808,5.172,15.007,15.007,0,0,1-5.245,3.377A19.918,19.918,0,0,1,358.413,228.026Z" transform="translate(-279.966 -174.147)" fill="#fff"/>
    </g>
    <g id="_3zoDOr.tif" data-name="3zoDOr.tif" transform="translate(349.197 188.097)">
      <g id="Group_8694" data-name="Group 8694">
        <path id="Path_42800" data-name="Path 42800" d="M326.145,172.76v-.7a.821.821,0,0,0,.039-.149,5.386,5.386,0,0,1,.393-1.6,5.251,5.251,0,0,1,7.638-2.547,7.888,7.888,0,0,1,1.622,1.422c.09.1.188.188.273.271.333-.324.642-.63.956-.929a5.167,5.167,0,0,1,4.972-1.386,5.355,5.355,0,0,1,4.06,5.241,5.193,5.193,0,0,1-1.56,3.787q-3.948,4.007-7.9,8.007a.626.626,0,0,1-1.014,0l-7.89-7.992a5.241,5.241,0,0,1-1.4-2.432C326.249,173.426,326.205,173.091,326.145,172.76Z" transform="translate(-326.145 -166.979)" fill="#fff"/>
      </g>
    </g>
  </g>
</svg>
