<svg width="90" height="90" viewBox="0 0 90 90" fill="none" xmlns="http://www.w3.org/2000/svg">
<path d="M20.0625 37.9966L27.4255 51.25H12.6995L20.0625 37.9966ZM13.8125 17H26.3125V29.5H13.8125V17ZM24.4819 71.1694C23.3098 72.3415 21.7201 73 20.0625 73C18.4049 73 16.8152 72.3415 15.6431 71.1694C14.471 69.9973 13.8125 68.4076 13.8125 66.75C13.8125 65.0924 14.471 63.5027 15.6431 62.3306C16.8152 61.1585 18.4049 60.5 20.0625 60.5C21.7201 60.5 23.3098 61.1585 24.4819 62.3306C25.654 63.5027 26.3125 65.0924 26.3125 66.75C26.3125 68.4076 25.654 69.9973 24.4819 71.1694ZM77.0625 25.875H35.5625V20.625H77.0625V25.875ZM77.0625 64.125V69.375H35.5625V64.125H77.0625ZM77.0625 42.375V47.625H35.5625V42.375H77.0625Z" stroke="white" stroke-width="2"/>
</svg>
