<svg width="90" height="90" viewBox="0 0 90 90" fill="none" xmlns="http://www.w3.org/2000/svg">
<path d="M30.6675 12.7573C31.7927 11.6321 33.3188 11 34.9101 11H66.4099C68.0012 11 69.5273 11.6321 70.6525 12.7573C71.7778 13.8826 72.4099 15.4087 72.4099 17V58.9997C72.4099 60.591 71.7778 62.1171 70.6525 63.2423C69.7659 64.129 68.6302 64.7095 67.4099 64.9158V23.9999C67.4099 21.8782 66.5671 19.8434 65.0668 18.3431C63.5665 16.8428 61.5317 16 59.41 16H28.9941C29.2003 14.7797 29.7808 13.644 30.6675 12.7573Z" stroke="white" stroke-width="2"/>
<path d="M24.3579 21.4981L24.3842 21.4995H24.4105H56.2604C57.7588 21.4995 59.1959 22.0947 60.2555 23.1543C61.3151 24.2139 61.9103 25.6509 61.9103 27.1494V68.0121L54.3903 59.9549C56.3696 56.9371 57.38 53.3586 57.2713 49.7181C57.1544 45.7993 55.7475 42.0326 53.2741 39.0271C50.8004 36.0212 47.4035 33.9518 43.6304 33.1584C39.857 32.365 35.9326 32.8953 32.4927 34.6617C29.0532 36.4279 26.3018 39.3252 24.6787 42.8809C23.0557 46.4364 22.6541 50.4455 23.5375 54.2614C24.421 58.0775 26.5391 61.482 29.5544 63.922C32.5688 66.3613 36.3032 67.6935 40.1545 67.6992C42.8858 67.729 45.5795 67.0908 48.0122 65.844L59.382 77.8454C59.0144 78.1252 58.6129 78.3596 58.1861 78.5425C57.4696 78.8495 56.6974 79.005 55.9179 78.9991H55.9104H24.0605H24.0592C23.2915 79.0002 22.5317 78.8448 21.8261 78.5424L21.4322 79.4616L21.8261 78.5424C21.1204 78.2401 20.4838 77.7971 19.9551 77.2406C19.4264 76.684 19.0166 76.0255 18.7508 75.3054C18.485 74.5852 18.3688 73.8184 18.4092 73.0518L18.4106 73.0255V72.9991L18.4106 27.1494L18.4106 27.148C18.4095 26.3804 18.5649 25.6205 18.8673 24.9149C19.1696 24.2093 19.6126 23.5727 20.1691 23.044C20.7257 22.5152 21.3842 22.1055 22.1043 21.8397C22.8245 21.5739 23.5913 21.4577 24.3579 21.4981Z" stroke="white" stroke-width="2"/>
<path d="M49.661 50.2499C49.661 55.4966 45.4077 59.7499 40.1611 59.7499C34.9144 59.7499 30.6611 55.4966 30.6611 50.2499C30.6611 45.0033 34.9144 40.75 40.1611 40.75C45.4077 40.75 49.661 45.0033 49.661 50.2499Z" stroke="white" stroke-width="2"/>
</svg>
