<svg width="90" height="90" viewBox="0 0 90 90" fill="none" xmlns="http://www.w3.org/2000/svg">
<path d="M14 23.083V45.2497C14 45.2497 14 56.333 39.8611 56.333C65.7222 56.333 65.7222 45.2497 65.7222 45.2497V23.083" stroke="white" stroke-width="2" stroke-linecap="round" stroke-linejoin="round"/>
<path d="M39.8611 78.5C14 78.5 14 67.4167 14 67.4167V45.25M39.8611 12C65.7222 12 65.7222 23.0833 65.7222 23.0833C65.7222 23.0833 65.7222 34.1667 39.8611 34.1667C14 34.1667 14 23.0833 14 23.0833C14 23.0833 14 12 39.8611 12Z" stroke="white" stroke-width="2" stroke-linecap="round" stroke-linejoin="round"/>
<path d="M76.8053 78.4997V56.333M54.6387 78.4997V71.1108V78.4997ZM65.722 78.4997V63.7219V78.4997Z" stroke="white" stroke-width="2" stroke-linecap="round"/>
</svg>
