<svg width="90" height="90" viewBox="0 0 90 90" fill="none" xmlns="http://www.w3.org/2000/svg">
<mask id="path-1-inside-1_33_231" fill="white">
<path d="M75.55 47.95C76.465 47.95 77.3425 47.5865 77.9895 46.9395C78.6365 46.2925 79 45.415 79 44.5C79 43.585 78.6365 42.7075 77.9895 42.0605C77.3425 41.4135 76.465 41.05 75.55 41.05H68.65V34.15H75.55C76.465 34.15 77.3425 33.7865 77.9895 33.1395C78.6365 32.4925 79 31.615 79 30.7C79 29.785 78.6365 28.9075 77.9895 28.2605C77.3425 27.6135 76.465 27.25 75.55 27.25H68.029C67.5139 25.8031 66.6831 24.4889 65.5971 23.4029C64.5111 22.3169 63.1969 21.4861 61.75 20.971V13.45C61.75 12.535 61.3865 11.6575 60.7395 11.0105C60.0925 10.3635 59.215 10 58.3 10C57.385 10 56.5075 10.3635 55.8605 11.0105C55.2135 11.6575 54.85 12.535 54.85 13.45V20.35H47.95V13.45C47.95 12.535 47.5865 11.6575 46.9395 11.0105C46.2925 10.3635 45.415 10 44.5 10C43.585 10 42.7075 10.3635 42.0605 11.0105C41.4135 11.6575 41.05 12.535 41.05 13.45V20.35H34.15V13.45C34.15 12.535 33.7865 11.6575 33.1395 11.0105C32.4925 10.3635 31.615 10 30.7 10C29.785 10 28.9075 10.3635 28.2605 11.0105C27.6135 11.6575 27.25 12.535 27.25 13.45V20.971C25.8031 21.4861 24.4889 22.3169 23.4029 23.4029C22.3169 24.4889 21.4861 25.8031 20.971 27.25H13.45C12.535 27.25 11.6575 27.6135 11.0105 28.2605C10.3635 28.9075 10 29.785 10 30.7C10 31.615 10.3635 32.4925 11.0105 33.1395C11.6575 33.7865 12.535 34.15 13.45 34.15H20.35V41.05H13.45C12.535 41.05 11.6575 41.4135 11.0105 42.0605C10.3635 42.7075 10 43.585 10 44.5C10 45.415 10.3635 46.2925 11.0105 46.9395C11.6575 47.5865 12.535 47.95 13.45 47.95H20.35V54.85H13.45C12.535 54.85 11.6575 55.2135 11.0105 55.8605C10.3635 56.5075 10 57.385 10 58.3C10 59.215 10.3635 60.0925 11.0105 60.7395C11.6575 61.3865 12.535 61.75 13.45 61.75H20.971C21.4861 63.1969 22.3169 64.5111 23.4029 65.5971C24.4889 66.6831 25.8031 67.5139 27.25 68.029V75.55C27.25 76.465 27.6135 77.3425 28.2605 77.9895C28.9075 78.6365 29.785 79 30.7 79C31.615 79 32.4925 78.6365 33.1395 77.9895C33.7865 77.3425 34.15 76.465 34.15 75.55V68.65H41.05V75.55C41.05 76.465 41.4135 77.3425 42.0605 77.9895C42.7075 78.6365 43.585 79 44.5 79C45.415 79 46.2925 78.6365 46.9395 77.9895C47.5865 77.3425 47.95 76.465 47.95 75.55V68.65H54.85V75.55C54.85 76.465 55.2135 77.3425 55.8605 77.9895C56.5075 78.6365 57.385 79 58.3 79C59.215 79 60.0925 78.6365 60.7395 77.9895C61.3865 77.3425 61.75 76.465 61.75 75.55V68.029C63.1969 67.5139 64.5111 66.6831 65.5971 65.5971C66.6831 64.5111 67.5139 63.1969 68.029 61.75H75.55C76.465 61.75 77.3425 61.3865 77.9895 60.7395C78.6365 60.0925 79 59.215 79 58.3C79 57.385 78.6365 56.5075 77.9895 55.8605C77.3425 55.2135 76.465 54.85 75.55 54.85H68.65V47.95H75.55ZM61.75 58.3C61.75 59.215 61.3865 60.0925 60.7395 60.7395C60.0925 61.3865 59.215 61.75 58.3 61.75H30.7C29.785 61.75 28.9075 61.3865 28.2605 60.7395C27.6135 60.0925 27.25 59.215 27.25 58.3V30.7C27.25 29.785 27.6135 28.9075 28.2605 28.2605C28.9075 27.6135 29.785 27.25 30.7 27.25H58.3C59.215 27.25 60.0925 27.6135 60.7395 28.2605C61.3865 28.9075 61.75 29.785 61.75 30.7V58.3Z"/>
</mask>
<path d="M75.55 47.95C76.465 47.95 77.3425 47.5865 77.9895 46.9395C78.6365 46.2925 79 45.415 79 44.5C79 43.585 78.6365 42.7075 77.9895 42.0605C77.3425 41.4135 76.465 41.05 75.55 41.05H68.65V34.15H75.55C76.465 34.15 77.3425 33.7865 77.9895 33.1395C78.6365 32.4925 79 31.615 79 30.7C79 29.785 78.6365 28.9075 77.9895 28.2605C77.3425 27.6135 76.465 27.25 75.55 27.25H68.029C67.5139 25.8031 66.6831 24.4889 65.5971 23.4029C64.5111 22.3169 63.1969 21.4861 61.75 20.971V13.45C61.75 12.535 61.3865 11.6575 60.7395 11.0105C60.0925 10.3635 59.215 10 58.3 10C57.385 10 56.5075 10.3635 55.8605 11.0105C55.2135 11.6575 54.85 12.535 54.85 13.45V20.35H47.95V13.45C47.95 12.535 47.5865 11.6575 46.9395 11.0105C46.2925 10.3635 45.415 10 44.5 10C43.585 10 42.7075 10.3635 42.0605 11.0105C41.4135 11.6575 41.05 12.535 41.05 13.45V20.35H34.15V13.45C34.15 12.535 33.7865 11.6575 33.1395 11.0105C32.4925 10.3635 31.615 10 30.7 10C29.785 10 28.9075 10.3635 28.2605 11.0105C27.6135 11.6575 27.25 12.535 27.25 13.45V20.971C25.8031 21.4861 24.4889 22.3169 23.4029 23.4029C22.3169 24.4889 21.4861 25.8031 20.971 27.25H13.45C12.535 27.25 11.6575 27.6135 11.0105 28.2605C10.3635 28.9075 10 29.785 10 30.7C10 31.615 10.3635 32.4925 11.0105 33.1395C11.6575 33.7865 12.535 34.15 13.45 34.15H20.35V41.05H13.45C12.535 41.05 11.6575 41.4135 11.0105 42.0605C10.3635 42.7075 10 43.585 10 44.5C10 45.415 10.3635 46.2925 11.0105 46.9395C11.6575 47.5865 12.535 47.95 13.45 47.95H20.35V54.85H13.45C12.535 54.85 11.6575 55.2135 11.0105 55.8605C10.3635 56.5075 10 57.385 10 58.3C10 59.215 10.3635 60.0925 11.0105 60.7395C11.6575 61.3865 12.535 61.75 13.45 61.75H20.971C21.4861 63.1969 22.3169 64.5111 23.4029 65.5971C24.4889 66.6831 25.8031 67.5139 27.25 68.029V75.55C27.25 76.465 27.6135 77.3425 28.2605 77.9895C28.9075 78.6365 29.785 79 30.7 79C31.615 79 32.4925 78.6365 33.1395 77.9895C33.7865 77.3425 34.15 76.465 34.15 75.55V68.65H41.05V75.55C41.05 76.465 41.4135 77.3425 42.0605 77.9895C42.7075 78.6365 43.585 79 44.5 79C45.415 79 46.2925 78.6365 46.9395 77.9895C47.5865 77.3425 47.95 76.465 47.95 75.55V68.65H54.85V75.55C54.85 76.465 55.2135 77.3425 55.8605 77.9895C56.5075 78.6365 57.385 79 58.3 79C59.215 79 60.0925 78.6365 60.7395 77.9895C61.3865 77.3425 61.75 76.465 61.75 75.55V68.029C63.1969 67.5139 64.5111 66.6831 65.5971 65.5971C66.6831 64.5111 67.5139 63.1969 68.029 61.75H75.55C76.465 61.75 77.3425 61.3865 77.9895 60.7395C78.6365 60.0925 79 59.215 79 58.3C79 57.385 78.6365 56.5075 77.9895 55.8605C77.3425 55.2135 76.465 54.85 75.55 54.85H68.65V47.95H75.55ZM61.75 58.3C61.75 59.215 61.3865 60.0925 60.7395 60.7395C60.0925 61.3865 59.215 61.75 58.3 61.75H30.7C29.785 61.75 28.9075 61.3865 28.2605 60.7395C27.6135 60.0925 27.25 59.215 27.25 58.3V30.7C27.25 29.785 27.6135 28.9075 28.2605 28.2605C28.9075 27.6135 29.785 27.25 30.7 27.25H58.3C59.215 27.25 60.0925 27.6135 60.7395 28.2605C61.3865 28.9075 61.75 29.785 61.75 30.7V58.3Z" stroke="#024D81" stroke-width="4" mask="url(#path-1-inside-1_33_231)"/>
<path d="M45 32C37.3 32 31 36.9722 31 43.1111C31.0352 44.5871 31.3985 46.0371 32.064 47.3576C32.7296 48.6781 33.6809 49.8365 34.85 50.75C34.85 51.5833 34.262 53.7639 31 57C34.318 56.8472 37.496 55.6111 40.058 53.5278C41.654 53.9861 43.334 54.2222 45 54.2222C52.7 54.2222 59 49.25 59 43.1111C59 36.9722 52.7 32 45 32ZM45 51.4444C38.812 51.4444 33.8 47.7083 33.8 43.1111C33.8 38.5139 38.812 34.7778 45 34.7778C51.188 34.7778 56.2 38.5139 56.2 43.1111C56.2 47.7083 51.188 51.4444 45 51.4444ZM52 44.5V41.7222H49.2V44.5H52ZM46.4 44.5V41.7222H43.6V44.5H46.4ZM40.8 44.5V41.7222H38V44.5H40.8Z" stroke="#024D81"/>
</svg>
