<svg width="90" height="90" viewBox="0 0 90 90" fill="none" xmlns="http://www.w3.org/2000/svg">
<path d="M30.275 73.782V73.6544L30.9558 70.6972H15.255V15.255H57.8046V37.0617L62.0596 33.0407V13.1275C62.0596 12.5632 61.8354 12.0221 61.4365 11.6231C61.0375 11.2241 60.4964 11 59.9321 11H13.1275C12.5632 11 12.0221 11.2241 11.6231 11.6231C11.2241 12.0221 11 12.5632 11 13.1275V72.697C11 73.2612 11.2241 73.8024 11.6231 74.2014C12.0221 74.6003 12.5632 74.8245 13.1275 74.8245H30.1473C30.1649 74.4744 30.2075 74.126 30.275 73.782V73.782Z" stroke="#024D81" stroke-width="2"/>
<path d="M77.9956 42.2094L70.826 35.0398C70.5078 34.7207 70.1298 34.4676 69.7136 34.2948C69.2975 34.1221 68.8513 34.0332 68.4007 34.0332C67.9501 34.0332 67.5039 34.1221 67.0877 34.2948C66.6716 34.4676 66.2935 34.7207 65.9754 35.0398L36.8076 64.3777L34.4035 74.6109C34.3135 75.0524 34.3115 75.5073 34.3976 75.9496C34.4836 76.3918 34.6561 76.8127 34.9051 77.1882C35.1541 77.5637 35.4748 77.8864 35.8487 78.1378C36.2226 78.3892 36.6424 78.5643 37.0841 78.6532C37.3034 78.6752 37.5244 78.6752 37.7437 78.6532C38.0043 78.6956 38.2702 78.6956 38.5308 78.6532L48.8491 76.3767L77.9956 47.1664C78.314 46.85 78.5667 46.4738 78.7392 46.0594C78.9116 45.645 79.0004 45.2006 79.0004 44.7517C79.0004 44.3029 78.9116 43.8584 78.7392 43.444C78.5667 43.0296 78.314 42.6534 77.9956 42.337V42.2094ZM46.6791 72.5047L38.8925 74.228L40.786 66.5052L62.6565 44.4007L68.656 50.4002L46.6791 72.5047ZM71.06 47.9961L65.0605 41.9966L68.4432 38.6565L74.4853 44.6985L71.06 47.9961Z" stroke="#024D81" stroke-width="2"/>
<path d="M20 21H49" stroke="#024D81" stroke-width="2"/>
<path d="M20 33H45" stroke="#024D81" stroke-width="2"/>
<path d="M20 45H49" stroke="#024D81" stroke-width="2"/>
<path d="M20 27H37" stroke="#024D81" stroke-width="2"/>
<path d="M20 39H29" stroke="#024D81" stroke-width="2"/>
<path d="M20 51H35" stroke="#024D81" stroke-width="2"/>
</svg>
