<svg width="90" height="90" viewBox="0 0 90 90" fill="none" xmlns="http://www.w3.org/2000/svg">
<path d="M59.9411 57.2112L56.7324 54.0025C59.711 51.0236 61.3843 46.9836 61.3843 42.771C61.3843 38.5585 59.711 34.5184 56.7324 31.5396L59.9411 28.3286C61.8376 30.2251 63.3419 32.4765 64.3683 34.9543C65.3947 37.4322 65.9229 40.0879 65.9229 42.7699C65.9229 45.4519 65.3947 48.1076 64.3683 50.5855C63.3419 53.0633 61.8376 55.3147 59.9411 57.2112V57.2112Z" stroke="#024D81" stroke-width="2"/>
<path d="M53.5237 50.7914L50.3151 47.5827C51.5891 46.3049 52.3045 44.5741 52.3045 42.7697C52.3045 40.9653 51.5891 39.2345 50.3151 37.9567L53.5237 34.748C55.648 36.8772 56.841 39.7621 56.841 42.7697C56.841 45.7774 55.648 48.6622 53.5237 50.7914V50.7914ZM47.769 67.7311H43.2306V42.7697C43.2306 42.1679 43.4697 41.5907 43.8952 41.1651C44.3208 40.7396 44.898 40.5005 45.4998 40.5005C46.1016 40.5005 46.6788 40.7396 47.1044 41.1651C47.5299 41.5907 47.769 42.1679 47.769 42.7697V67.7311ZM37.4758 50.7914C35.3516 48.6622 34.1586 45.7774 34.1586 42.7697C34.1586 39.7621 35.3516 36.8772 37.4758 34.748L40.6845 37.9567C39.4105 39.2345 38.6951 40.9653 38.6951 42.7697C38.6951 44.5741 39.4105 46.3049 40.6845 47.5827L37.4758 50.7914Z" stroke="#024D81" stroke-width="2"/>
<path d="M31.0585 57.2112C29.1621 55.3147 27.6577 53.0633 26.6313 50.5855C25.605 48.1076 25.0767 45.4519 25.0767 42.7699C25.0767 40.0879 25.605 37.4322 26.6313 34.9543C27.6577 32.4765 29.1621 30.2251 31.0585 28.3286L34.2672 31.5396C31.2893 34.5183 29.6164 38.5579 29.6164 42.7699C29.6164 46.9819 31.2893 51.0215 34.2672 54.0003L31.0585 57.2112Z" stroke="#024D81" stroke-width="2"/>
<path d="M45.4998 79.0771C45.098 79.0775 44.7033 78.971 44.3561 78.7685L17.1255 62.884C16.7829 62.6841 16.4987 62.3979 16.3012 62.0539C16.1037 61.7098 15.9999 61.3201 16 60.9234V29.1544C15.9999 28.7577 16.1037 28.368 16.3012 28.024C16.4987 27.6799 16.7829 27.3937 17.1255 27.1938L44.3561 11.3093C44.7032 11.1067 45.0979 11 45.4998 11C45.9017 11 46.2964 11.1067 46.6435 11.3093L73.8741 27.1938L71.5867 31.115L45.4998 15.8976L20.5384 30.4569V59.6209L45.4998 74.1824L70.4612 59.6209V42.7697H74.9996V60.9234C74.9997 61.3201 74.8959 61.7098 74.6984 62.0539C74.5009 62.3979 74.2167 62.6841 73.8741 62.884L46.6435 78.7685C46.2963 78.971 45.9016 79.0775 45.4998 79.0771V79.0771Z" stroke="#024D81" stroke-width="2"/>
</svg>
