<svg width="90" height="90" viewBox="0 0 90 90" fill="none" xmlns="http://www.w3.org/2000/svg">
<path d="M16.7097 27.1042L16.7098 27.1043L16.7218 27.0972L43.2868 11.4516C43.8073 11.156 44.398 11 45 11C45.602 11 46.1928 11.156 46.7132 11.4516L73.2782 27.0972L73.2782 27.0973L73.2903 27.1042C73.812 27.4018 74.2437 27.8289 74.5433 28.3415C74.8428 28.8539 75 29.4343 75 30.0243V59.9757C75 60.5657 74.8428 61.1461 74.5433 61.6585C74.2437 62.1711 73.812 62.5982 73.2903 62.8958L73.2902 62.8957L73.2782 62.9028L46.7188 78.5452C46.7169 78.5463 46.715 78.5474 46.7131 78.5485C46.1926 78.844 45.6019 79 45 79C44.3981 79 43.8074 78.844 43.287 78.5486C43.2851 78.5474 43.2831 78.5463 43.2812 78.5452L16.7218 62.9028L16.7218 62.9027L16.7097 62.8958C16.188 62.5982 15.7563 62.1711 15.4567 61.6585C15.1572 61.1461 15 60.5657 15 59.9757V30.0244C15 29.4343 15.1572 28.8539 15.4567 28.3415C15.7563 27.8289 16.188 27.4018 16.7097 27.1042Z" stroke="#024D81" stroke-width="2"/>
<path d="M54.2332 52.6222L62.8714 44.6009L54.2332 36.5797" stroke="#024D81" stroke-width="2" stroke-linecap="square" stroke-linejoin="round"/>
<path d="M36.6382 36.5797L28 44.601L36.6382 52.6222" stroke="#024D81" stroke-width="2" stroke-linecap="square" stroke-linejoin="round"/>
<path d="M48.6534 33L41.5015 56.7196" stroke="#024D81" stroke-width="2" stroke-linecap="square"/>
</svg>
