<svg width="90" height="90" viewBox="0 0 90 90" fill="none" xmlns="http://www.w3.org/2000/svg">
<path d="M71.7143 59.8877V49.8364C71.7143 48.5489 71.2025 47.3141 70.2916 46.4037C69.3808 45.4933 68.1453 44.9818 66.8571 44.9818H47.4286V35.2727H52.2857C53.5735 35.2714 54.8082 34.7596 55.7188 33.8494C56.6294 32.9393 57.1416 31.7053 57.1428 30.4182V15.8545C57.1416 14.5674 56.6294 13.3334 55.7188 12.4233C54.8082 11.5132 53.5735 11.0013 52.2857 11H37.7143C36.4265 11.0013 35.1918 11.5132 34.2812 12.4233C33.3706 13.3334 32.8584 14.5674 32.8572 15.8545V30.4182C32.8584 31.7053 33.3706 32.9393 34.2812 33.8494C35.1918 34.7596 36.4265 35.2714 37.7143 35.2727H42.5714V44.9818H23.1429C21.8547 44.9818 20.6192 45.4933 19.7084 46.4037C18.7975 47.3141 18.2857 48.5489 18.2857 49.8364V59.8901C15.9964 60.4809 14.0013 61.8859 12.6743 63.8417C11.3473 65.7976 10.7795 68.17 11.0774 70.5143C11.3754 72.8586 12.5185 75.0138 14.2926 76.576C16.0667 78.1381 18.3499 79 20.7143 79C23.0787 79 25.3619 78.1381 27.136 76.576C28.9101 75.0138 30.0532 72.8586 30.3512 70.5143C30.6491 68.17 30.0813 65.7976 28.7543 63.8417C27.4273 61.8859 25.4322 60.4809 23.1429 59.8901V49.8364H42.5714V59.8901C40.2821 60.4809 38.287 61.8859 36.96 63.8417C35.633 65.7976 35.0652 68.17 35.3631 70.5143C35.6611 72.8586 36.8042 75.0138 38.5783 76.576C40.3524 78.1381 42.6356 79 45 79C47.3644 79 49.6476 78.1381 51.4217 76.576C53.1958 75.0138 54.3389 72.8586 54.6369 70.5143C54.9348 68.17 54.367 65.7976 53.04 63.8417C51.713 61.8859 49.7179 60.4809 47.4286 59.8901V49.8364H66.8571V59.8877C64.5678 60.4785 62.5727 61.8835 61.2457 63.8393C59.9187 65.7952 59.3509 68.1676 59.6488 70.5119C59.9468 72.8562 61.0899 75.0114 62.864 76.5735C64.6381 78.1357 66.9213 78.9976 69.2857 78.9976C71.6501 78.9976 73.9333 78.1357 75.7074 76.5735C77.4815 75.0114 78.6246 72.8562 78.9226 70.5119C79.2205 68.1676 78.6527 65.7952 77.3257 63.8393C75.9987 61.8835 74.0036 60.4785 71.7143 59.8877ZM37.7143 15.8545H52.2857L52.2881 30.4182H37.7143V15.8545ZM25.5714 69.2545C25.5714 70.2147 25.2866 71.1533 24.7529 71.9516C24.2192 72.7499 23.4606 73.3721 22.573 73.7396C21.6855 74.107 20.7089 74.2031 19.7667 74.0158C18.8245 73.8285 17.9591 73.3661 17.2798 72.6872C16.6005 72.0083 16.1379 71.1433 15.9505 70.2016C15.7631 69.2599 15.8593 68.2838 16.2269 67.3968C16.5945 66.5097 17.2171 65.7516 18.0158 65.2181C18.8146 64.6847 19.7537 64.4 20.7143 64.4C22.0021 64.4013 23.2368 64.9132 24.1474 65.8233C25.058 66.7334 25.5702 67.9674 25.5714 69.2545ZM49.8571 69.2545C49.8571 70.2147 49.5723 71.1533 49.0386 71.9516C48.5049 72.7499 47.7463 73.3721 46.8587 73.7396C45.9712 74.107 44.9946 74.2031 44.0524 74.0158C43.1102 73.8285 42.2448 73.3661 41.5655 72.6872C40.8862 72.0083 40.4236 71.1433 40.2362 70.2016C40.0488 69.2599 40.145 68.2838 40.5126 67.3968C40.8802 66.5097 41.5028 65.7516 42.3015 65.2181C43.1003 64.6847 44.0393 64.4 45 64.4C46.2876 64.4019 47.5219 64.914 48.4324 65.824C49.3429 66.734 49.8552 67.9676 49.8571 69.2545ZM69.2857 74.1091C68.325 74.1091 67.386 73.8244 66.5872 73.2909C65.7885 72.7575 65.1659 71.9993 64.7983 71.1123C64.4307 70.2252 64.3345 69.2492 64.5219 68.3075C64.7093 67.3658 65.1719 66.5008 65.8512 65.8219C66.5305 65.1429 67.3959 64.6806 68.3381 64.4933C69.2803 64.306 70.2569 64.4021 71.1444 64.7695C72.032 65.137 72.7906 65.7592 73.3243 66.5575C73.858 67.3558 74.1428 68.2944 74.1428 69.2545C74.1416 70.5417 73.6294 71.7757 72.7188 72.6858C71.8082 73.5959 70.5735 74.1078 69.2857 74.1091Z" stroke="#024D81" stroke-width="2"/>
</svg>
