<svg width="90" height="90" viewBox="0 0 90 90" fill="none" xmlns="http://www.w3.org/2000/svg">
<path d="M66.8927 76V44.64V44.2263L67.1849 43.9336L73.3531 37.7536L74.0595 37.0458L74.7673 37.7522L75.2943 38.2782L75.2952 38.2791C75.457 38.441 75.5852 38.6331 75.6727 38.8445C75.7601 39.0559 75.8051 39.2823 75.8051 39.511C75.8051 39.7397 75.7601 39.9661 75.6727 40.1775C75.5853 40.3886 75.4573 40.5805 75.2958 40.7423C75.2956 40.7425 75.2954 40.7427 75.2952 40.7429M66.8927 76L74.5879 40.036L75.2952 40.7429M66.8927 76H13V14H66.8927V27.544V29.0676L68.2906 28.4614C68.92 28.1885 69.5922 28.0284 70.2767 27.9883L70.2855 27.9877C70.9962 27.9399 71.709 28.0444 72.3763 28.2945C73.0395 28.543 73.6427 28.9297 74.1461 29.429C74.889 30.2129 75.3772 31.2045 75.5457 32.273C75.7149 33.3457 75.5537 34.4446 75.0838 35.423L74.7772 36.0613L75.2774 36.5624L76.1393 37.426L66.8927 76ZM75.2952 40.7429L70.5988 45.4503L70.5984 45.4507C70.4861 45.5631 70.4227 45.7159 70.4226 45.8757C70.4225 46.0355 70.4858 46.1884 70.598 46.3009C70.7101 46.4133 70.8617 46.4761 71.0195 46.4762C71.1771 46.4762 71.3286 46.4137 71.4408 46.3016M75.2952 40.7429L71.4408 46.3016M71.4408 46.3016C71.4409 46.3015 71.441 46.3014 71.4411 46.3013M71.4408 46.3016L71.4411 46.3013M71.4408 46.3016L71.4411 46.3013M71.4408 46.3016L76.1393 41.594M71.4411 46.3013L76.1393 41.594M76.1393 41.594C76.1395 41.5939 76.1396 41.5937 76.1397 41.5936M76.1393 41.594L76.1397 41.5936M76.1397 41.5936C76.6904 41.041 77 40.2917 77 39.51C77 38.7283 76.6904 37.979 76.1397 37.4264V41.5936ZM23.977 20.4H22.977V21.4V24.6V25.6H23.977H55.9197H56.9197V24.6V21.4V20.4H55.9197H23.977ZM23.977 30.4H22.977V31.4V34.6V35.6H23.977H55.9197H56.9197V34.6V31.4V30.4H55.9197H23.977ZM23.977 40.4H22.977V41.4V44.6V45.6H23.977H44.9368H45.9368V44.6V41.4V40.4H44.9368H23.977ZM53.5023 69.792H54.5023V69.5712C54.7589 69.4534 54.9949 69.29 55.1982 69.0864C55.6475 68.6361 55.8997 68.0259 55.8997 67.39C55.8997 66.7541 55.6475 66.1439 55.1982 65.6936C54.7487 65.2433 54.1388 64.99 53.5023 64.99H37.9262C37.6477 64.99 37.5058 64.9435 37.4497 64.9165C37.443 64.9132 37.4377 64.9104 37.4337 64.9081C37.4305 64.8899 37.4272 64.8532 37.4339 64.7924C37.4456 64.6856 37.4857 64.5338 37.5744 64.3436C37.9263 63.7082 38.2089 63.0367 38.4172 62.3407L38.4264 62.3097L38.4337 62.2783C38.602 61.5468 38.5213 60.78 38.2044 60.0997C37.8875 59.4193 37.3524 58.8643 36.6839 58.5232L36.6627 58.5124L36.6409 58.5026C35.6857 58.0714 34.6156 57.9657 33.5946 58.2018C32.5852 58.4352 31.6791 58.9899 31.0116 59.7818C30.9413 59.8567 30.8634 59.9483 30.7799 60.0523C31.3488 58.442 31.8858 56.8646 32.18 55.7365C32.4527 54.8725 32.393 53.937 32.0117 53.1143C31.6258 52.2817 30.939 51.626 30.0892 51.2799L30.0637 51.2695L30.0377 51.2605C29.1162 50.9431 28.1087 50.9879 27.219 51.386C26.3425 51.7781 25.6451 52.4839 25.2625 53.3636C24.818 54.2128 22.9417 57.4175 21.1307 60.4848C20.2198 62.0277 19.3335 63.5224 18.6705 64.6384C18.339 65.1965 18.0634 65.6598 17.8686 65.987L17.64 66.3706L17.5773 66.4756C17.5686 66.4901 17.5631 66.4993 17.56 66.5045C17.5571 66.5094 17.5563 66.5107 17.5571 66.5095L17.557 66.5094L17.5506 66.5202C17.225 67.0668 17.1295 67.7204 17.285 68.3373C17.4404 68.9542 17.8343 69.4846 18.3805 69.8113C18.9269 70.138 19.5807 70.2339 20.1979 70.0778C20.8151 69.9217 21.3445 69.5265 21.6702 68.9798L21.6708 68.9788C21.8187 68.7299 23.8453 65.1544 25.8977 61.5268C25.8653 61.6413 25.8331 61.7549 25.8012 61.8673C25.6582 62.3716 25.5208 62.8546 25.3923 63.3065C25.1981 63.9894 25.024 64.6015 24.881 65.1089C24.762 65.5306 24.6633 65.8843 24.5915 66.1495C24.5354 66.3564 24.4818 66.558 24.4555 66.6879C24.3168 67.2569 24.364 67.8559 24.5906 68.3966C24.8217 68.9477 25.2265 69.4082 25.7438 69.7075L25.7713 69.7234L25.7997 69.7375C26.3643 70.0181 27.0061 70.1024 27.624 69.977C28.2214 69.8558 28.7631 69.5453 29.1696 69.0927C29.4871 68.7929 30.0193 68.1758 31.1212 66.8917C31.1214 66.8915 31.1215 66.8914 31.1216 66.8912L31.1497 66.8586C31.4734 66.4818 31.8158 66.0833 32.1596 65.6858C32.1534 66.3304 32.294 67.0073 32.6917 67.6628C33.9071 69.6681 36.1786 69.792 37.9262 69.792H53.5023ZM49.6059 59.6588L49.8672 59.5897L50.0581 59.3984L63.183 46.2464L63.8879 45.5399L63.1829 44.8336L58.7913 40.4336L58.0835 39.7244L57.3758 40.4336L44.221 53.6136L44.0275 53.8075L43.9598 54.0729L42.637 59.2604C42.5697 59.5068 42.5696 59.7669 42.6369 60.0136C42.7039 60.2595 42.8355 60.4831 43.018 60.6612C43.1957 60.8393 43.4174 60.9678 43.6609 61.0333C43.9078 61.0997 44.1679 61.0989 44.4143 61.0311L49.6059 59.6588ZM64.025 43.9844L64.7328 44.6936L65.4406 43.9844L72.923 36.4876C73.7787 35.7297 74.3061 34.6677 74.3931 33.5268C74.4811 32.3734 74.112 31.2315 73.3653 30.3483L73.3355 30.3132L73.3027 30.2808C72.9389 29.9233 72.5076 29.6417 72.0339 29.4527C71.5602 29.2637 71.0536 29.171 70.5437 29.1802L70.5359 29.1803L70.5282 29.1806L70.3486 29.1866L70.3325 29.1871L70.3166 29.1881C69.1109 29.2671 67.9775 29.7903 67.1344 30.6562L59.6334 38.1716L58.9283 38.878L59.6334 39.5844L64.025 43.9844Z" stroke="#024D81" stroke-width="2"/>
</svg>
