<svg width="174" height="174" viewBox="0 0 174 174" fill="none" xmlns="http://www.w3.org/2000/svg">
<g filter="url(#filter0_d_1837_1422)">
<rect x="86.7109" y="16" width="100" height="100" rx="10" transform="rotate(45 86.7109 16)" fill="white"/>
</g>
<path fill-rule="evenodd" clip-rule="evenodd" d="M85.9062 61.6556V64.4928L77.9284 69.0997L75.275 64.5059C76.1544 63.4778 76.3359 61.9684 75.6228 60.7325C74.7172 59.1641 72.7091 58.6259 71.1406 59.5316C69.5722 60.4372 69.0341 62.4453 69.9397 64.0138C70.6528 65.2497 72.0528 65.8447 73.3806 65.5997L76.0341 70.1934L68.0563 74.8003L65.5997 73.3806C65.8447 72.0528 65.2497 70.6528 64.0138 69.9397C62.4453 69.0341 60.4372 69.5722 59.5316 71.1406C58.6259 72.7091 59.1641 74.7172 60.7325 75.6228C61.9684 76.3359 63.4778 76.1544 64.5059 75.275L66.9625 76.6947V85.9062H61.6556C61.205 84.6331 59.9909 83.7188 58.5625 83.7188C56.7512 83.7188 55.2812 85.1887 55.2812 87C55.2812 88.8113 56.7512 90.2812 58.5625 90.2812C59.9909 90.2812 61.205 89.3669 61.6556 88.0938H66.9625V97.3053L64.5059 98.725C63.4778 97.8456 61.9684 97.6641 60.7325 98.3772C59.1641 99.2828 58.6259 101.291 59.5316 102.859C60.4372 104.428 62.4453 104.966 64.0138 104.06C65.2497 103.347 65.8447 101.947 65.5997 100.619L68.0563 99.1997L76.0341 103.807L73.3806 108.4C72.0528 108.155 70.6528 108.75 69.9397 109.986C69.0341 111.555 69.5722 113.563 71.1406 114.468C72.7091 115.374 74.7172 114.836 75.6228 113.267C76.3359 112.032 76.1544 110.522 75.275 109.494L77.9284 104.9L85.9062 109.507V112.344C84.6331 112.795 83.7188 114.009 83.7188 115.438C83.7188 117.249 85.1887 118.719 87 118.719C88.8113 118.719 90.2812 117.249 90.2812 115.438C90.2812 114.009 89.3669 112.795 88.0938 112.344V109.507L96.0716 104.9L98.725 109.494C97.8456 110.522 97.6641 112.032 98.3772 113.267C99.2828 114.836 101.291 115.374 102.859 114.468C104.428 113.563 104.966 111.555 104.06 109.986C103.347 108.75 101.947 108.155 100.619 108.4L97.9659 103.807L105.944 99.1997L108.4 100.619C108.155 101.947 108.75 103.347 109.986 104.06C111.555 104.966 113.563 104.428 114.468 102.859C115.374 101.291 114.836 99.2828 113.267 98.3772C112.032 97.6641 110.522 97.8456 109.494 98.725L107.037 97.3053V88.0938H112.344C112.795 89.3669 114.009 90.2812 115.438 90.2812C117.249 90.2812 118.719 88.8113 118.719 87C118.719 85.1887 117.249 83.7188 115.438 83.7188C114.009 83.7188 112.795 84.6331 112.344 85.9062H107.037V76.6947L109.494 75.275C110.522 76.1544 112.032 76.3359 113.267 75.6228C114.836 74.7172 115.374 72.7091 114.468 71.1406C113.563 69.5722 111.555 69.0341 109.986 69.9397C108.75 70.6528 108.155 72.0528 108.4 73.3806L105.944 74.8003L97.9659 70.1934L100.619 65.5997C101.947 65.8447 103.347 65.2497 104.06 64.0138C104.966 62.4453 104.428 60.4372 102.859 59.5316C101.291 58.6259 99.2828 59.1641 98.3772 60.7325C97.6641 61.9684 97.8456 63.4778 98.725 64.5059L96.0716 69.0997L88.0938 64.4928V61.6556C89.3669 61.205 90.2812 59.9909 90.2812 58.5625C90.2812 56.7512 88.8113 55.2812 87 55.2812C85.1887 55.2812 83.7188 56.7512 83.7188 58.5625C83.7188 59.9909 84.6331 61.205 85.9062 61.6556V61.6556ZM87 116.531C86.3963 116.531 85.9062 116.041 85.9062 115.438C85.9062 114.834 86.3963 114.344 87 114.344C87.6037 114.344 88.0938 114.834 88.0938 115.438C88.0938 116.041 87.6037 116.531 87 116.531ZM102.166 111.08C102.468 111.603 102.288 112.272 101.766 112.574C101.243 112.876 100.573 112.697 100.272 112.174C99.9697 111.651 100.149 110.982 100.672 110.68C101.195 110.378 101.864 110.557 102.166 111.08ZM71.8341 111.08C72.1359 110.557 72.8053 110.378 73.3281 110.68C73.8509 110.982 74.0303 111.651 73.7284 112.174C73.4266 112.697 72.7572 112.876 72.2344 112.574C71.7116 112.272 71.5322 111.603 71.8341 111.08ZM87 66.3872L104.85 76.6947V97.3053L87 107.613L69.15 97.3053V76.6947L87 66.3872ZM87.5469 68.5528C87.2078 68.3581 86.7922 68.3581 86.4531 68.5528L71.2981 77.3028C70.9591 77.4975 70.7512 77.8584 70.7512 78.25V95.75C70.7512 96.1416 70.9591 96.5025 71.2981 96.6972L86.4531 105.447C86.7922 105.642 87.2078 105.642 87.5469 105.447L102.702 96.6972C103.041 96.5025 103.249 96.1416 103.249 95.75V78.25C103.249 77.8584 103.041 77.4975 102.702 77.3028L87.5469 68.5528V68.5528ZM112.574 101.766C112.272 102.288 111.603 102.468 111.08 102.166C110.557 101.864 110.378 101.195 110.68 100.672C110.982 100.149 111.651 99.9697 112.174 100.272C112.697 100.573 112.876 101.243 112.574 101.766ZM61.4259 101.766C61.1241 101.243 61.3034 100.573 61.8263 100.272C62.3491 99.9697 63.0184 100.149 63.3203 100.672C63.6222 101.195 63.4428 101.864 62.92 102.166C62.3972 102.468 61.7278 102.288 61.4259 101.766ZM77.1562 91.375V87.2581L79.4597 91.865C79.685 92.3178 80.1947 92.5562 80.6891 92.4403C81.1834 92.3222 81.5312 91.8825 81.5312 91.375V82.625C81.5312 82.0213 81.0412 81.5312 80.4375 81.5312C79.8338 81.5312 79.3438 82.0213 79.3438 82.625V86.7419L77.0403 82.135C76.815 81.6822 76.3053 81.4437 75.8109 81.5597C75.3166 81.6778 74.9688 82.1175 74.9688 82.625V91.375C74.9688 91.9787 75.4588 92.4688 76.0625 92.4688C76.6662 92.4688 77.1562 91.9787 77.1562 91.375ZM94.6562 83.7188V91.375C94.6562 91.9787 95.1463 92.4688 95.75 92.4688C96.3537 92.4688 96.8438 91.9787 96.8438 91.375V83.7188H97.9375C98.5412 83.7188 99.0312 83.2287 99.0312 82.625C99.0312 82.0213 98.5412 81.5312 97.9375 81.5312H93.5625C92.9588 81.5312 92.4688 82.0213 92.4688 82.625C92.4688 83.2287 92.9588 83.7188 93.5625 83.7188H94.6562ZM85.9062 88.0938H87C87.6037 88.0938 88.0938 87.6037 88.0938 87C88.0938 86.3963 87.6037 85.9062 87 85.9062H85.9062V83.7188H89.1875C89.7912 83.7188 90.2812 83.2287 90.2812 82.625C90.2812 82.0213 89.7912 81.5312 89.1875 81.5312H84.8125C84.2088 81.5312 83.7188 82.0213 83.7188 82.625V91.375C83.7188 91.9787 84.2088 92.4688 84.8125 92.4688C85.4162 92.4688 85.9062 91.9787 85.9062 91.375V88.0938ZM58.5625 85.9062C59.1662 85.9062 59.6562 86.3963 59.6562 87C59.6562 87.6037 59.1662 88.0938 58.5625 88.0938C57.9588 88.0938 57.4688 87.6037 57.4688 87C57.4688 86.3963 57.9588 85.9062 58.5625 85.9062ZM115.438 85.9062C116.041 85.9062 116.531 86.3963 116.531 87C116.531 87.6037 116.041 88.0938 115.438 88.0938C114.834 88.0938 114.344 87.6037 114.344 87C114.344 86.3963 114.834 85.9062 115.438 85.9062ZM61.4259 72.2344C61.7278 71.7116 62.3972 71.5322 62.92 71.8341C63.4428 72.1359 63.6222 72.8053 63.3203 73.3281C63.0184 73.8509 62.3491 74.0303 61.8263 73.7284C61.3034 73.4266 61.1241 72.7572 61.4259 72.2344ZM112.574 72.2344C112.876 72.7572 112.697 73.4266 112.174 73.7284C111.651 74.0303 110.982 73.8509 110.68 73.3281C110.378 72.8053 110.557 72.1359 111.08 71.8341C111.603 71.5322 112.272 71.7116 112.574 72.2344ZM73.7284 61.8263C74.0303 62.3491 73.8509 63.0184 73.3281 63.3203C72.8053 63.6222 72.1359 63.4428 71.8341 62.92C71.5322 62.3972 71.7116 61.7278 72.2344 61.4259C72.7572 61.1241 73.4266 61.3034 73.7284 61.8263ZM100.272 61.8263C100.573 61.3034 101.243 61.1241 101.766 61.4259C102.288 61.7278 102.468 62.3972 102.166 62.92C101.864 63.4428 101.195 63.6222 100.672 63.3203C100.149 63.0184 99.9697 62.3491 100.272 61.8263ZM87 57.4688C87.6037 57.4688 88.0938 57.9588 88.0938 58.5625C88.0938 59.1662 87.6037 59.6562 87 59.6562C86.3963 59.6562 85.9062 59.1662 85.9062 58.5625C85.9062 57.9588 86.3963 57.4688 87 57.4688Z" fill="#024D81"/>
<defs>
<filter id="filter0_d_1837_1422" x="0.142578" y="0.14209" width="173.137" height="173.137" filterUnits="userSpaceOnUse" color-interpolation-filters="sRGB">
<feFlood flood-opacity="0" result="BackgroundImageFix"/>
<feColorMatrix in="SourceAlpha" type="matrix" values="0 0 0 0 0 0 0 0 0 0 0 0 0 0 0 0 0 0 127 0" result="hardAlpha"/>
<feOffset/>
<feGaussianBlur stdDeviation="10"/>
<feComposite in2="hardAlpha" operator="out"/>
<feColorMatrix type="matrix" values="0 0 0 0 0 0 0 0 0 0 0 0 0 0 0 0 0 0 0.1 0"/>
<feBlend mode="normal" in2="BackgroundImageFix" result="effect1_dropShadow_1837_1422"/>
<feBlend mode="normal" in="SourceGraphic" in2="effect1_dropShadow_1837_1422" result="shape"/>
</filter>
</defs>
</svg>
