<svg width="90" height="90" viewBox="0 0 90 90" fill="none" xmlns="http://www.w3.org/2000/svg">
<path d="M46.2605 68.9087L43.0075 68.9887L43.0599 65.7068L56.4942 52.2978L59.6983 55.4994L46.2605 68.9087ZM46.0529 69.1159C46.0532 69.1156 46.0534 69.1153 46.0537 69.1151L46.0529 69.1159Z" stroke="#024D81" stroke-width="2"/>
<line x1="25" y1="47" x2="43" y2="47" stroke="#024D81" stroke-width="2"/>
<line x1="25" y1="52" x2="37.75" y2="52" stroke="#024D81" stroke-width="2"/>
<line x1="25" y1="67" x2="37.75" y2="67" stroke="#024D81" stroke-width="2"/>
<line x1="25" y1="62" x2="33.25" y2="62" stroke="#024D81" stroke-width="2"/>
<line x1="25" y1="72" x2="30.25" y2="72" stroke="#024D81" stroke-width="2"/>
<line x1="25" y1="57" x2="41.5" y2="57" stroke="#024D81" stroke-width="2"/>
<path d="M58.9415 11H30.0526C27.2605 11 24.9971 13.2199 24.9971 15.9583V74.0417C24.9971 76.7801 27.2605 79 30.0526 79H58.9415C61.7336 79 63.9971 76.7801 63.9971 74.0417V15.9583C63.9971 13.2199 61.7336 11 58.9415 11Z" stroke="#024D81" stroke-width="2" stroke-linecap="round" stroke-linejoin="round"/>
<path d="M44.9981 42C44.6567 42 44.3376 41.9036 44.0396 41.737L41.0113 39.8516C40.5582 39.5873 40.7854 39.4909 40.9219 39.4428C41.5378 39.2279 41.652 39.1811 42.289 38.8009C42.3585 38.7527 42.4491 38.7748 42.5187 38.823L44.8405 40.2813C44.9323 40.3282 45.0466 40.3282 45.1148 40.2813L54.2022 34.7645C54.294 34.7176 54.3387 34.6213 54.3387 34.5015V23.4887C54.3387 23.3702 54.294 23.2739 54.2022 23.227L45.1148 17.7336C45.0242 17.6855 44.91 17.6855 44.8405 17.7336L35.7507 23.2257C35.66 23.2726 35.6141 23.3937 35.6141 23.4874V34.4989C35.6141 34.5939 35.66 34.715 35.7507 34.7619L38.2339 36.2684C39.5773 36.9819 40.4216 36.1447 40.4216 35.3114V24.4444C40.4216 24.3012 40.5346 24.1567 40.6947 24.1567H41.8569C41.991 24.1567 42.13 24.2765 42.13 24.4444V35.3127C42.13 37.1993 41.1516 38.2996 39.4432 38.2996C38.9192 38.2996 38.5095 38.2996 37.3474 37.7006L34.9573 36.2697C34.6661 36.0921 34.4244 35.8376 34.2564 35.5314C34.0884 35.2252 34 34.8782 34 34.5249V23.5122C34 22.796 34.3638 22.1268 34.9573 21.7687L44.0409 16.2519C44.3357 16.0865 44.665 16 44.9994 16C45.3338 16 45.663 16.0865 45.9579 16.2519L55.0427 21.7687C55.6375 22.1255 56 22.796 56 23.5122V34.5249C56 35.2397 55.6362 35.909 55.0427 36.2697L45.9579 41.7852C45.6587 41.9284 45.3172 42 44.9981 42V42ZM47.7992 34.4273C43.8136 34.4273 42.9942 32.5158 42.9942 30.8935C42.9942 30.7503 43.1084 30.6057 43.2673 30.6057H44.4518C44.5884 30.6057 44.7014 30.7008 44.7014 30.8453C44.8839 32.1096 45.4066 32.732 47.8228 32.732C49.7349 32.732 50.5568 32.2763 50.5568 31.2021C50.5568 30.581 50.3271 30.1279 47.3448 29.818C44.8628 29.5576 43.3145 28.9808 43.3145 26.904C43.3145 24.9705 44.8628 23.8233 47.4602 23.8233C50.3743 23.8233 51.8096 24.8767 51.9909 27.167C51.9887 27.2443 51.9645 27.3191 51.9213 27.3819C51.8754 27.4287 51.8083 27.4769 51.7401 27.4769H50.5568C50.4983 27.4756 50.4419 27.4539 50.3965 27.4152C50.3511 27.3766 50.3192 27.3231 50.306 27.2634C50.0316 25.9457 49.3264 25.5186 47.4602 25.5186C45.3632 25.5186 45.1124 26.2829 45.1124 26.8558C45.1124 27.5472 45.4066 27.7621 48.2338 28.1449C51.0348 28.5264 52.3559 29.0758 52.3559 31.1318C52.3311 33.2346 50.6934 34.4273 47.7992 34.4273V34.4273Z" fill="#024D81"/>
</svg>
