<svg width="90" height="90" viewBox="0 0 90 90" fill="none" xmlns="http://www.w3.org/2000/svg">
<path d="M58.9444 11H30.0556C27.2635 11 25 13.2199 25 15.9583V74.0417C25 76.7801 27.2635 79 30.0556 79H58.9444C61.7365 79 64 76.7801 64 74.0417V15.9583C64 13.2199 61.7365 11 58.9444 11Z" stroke="#024D81" stroke-width="2" stroke-linecap="round" stroke-linejoin="round"/>
<path d="M18.5424 21.8029C18.5424 21.8029 12.9512 27.2694 11.1406 32.6684" stroke="#024D81" stroke-width="2" stroke-linecap="round"/>
<path d="M11.0029 57.5679C11.0029 57.5679 14.225 64.698 18.6817 68.2394" stroke="#024D81" stroke-width="2" stroke-linecap="round"/>
<path d="M71.2383 21.8029C71.2383 21.8029 76.8295 27.2694 78.6401 32.6684" stroke="#024D81" stroke-width="2" stroke-linecap="round"/>
<path d="M78.7782 57.5701C78.7782 57.5701 75.5562 64.7004 71.0996 68.2416" stroke="#024D81" stroke-width="2" stroke-linecap="round"/>
<path d="M31.2061 58.1055C32.476 60.3825 34.3046 62.2986 36.5199 63.6734C38.735 65.0481 41.2638 65.8362 43.8677 65.9634C46.4718 66.0907 49.0653 65.5526 51.404 64.4004C53.7426 63.2481 55.7493 61.5194 57.2351 59.377" stroke="#024D81" stroke-width="2" stroke-linecap="round"/>
<path d="M31.2061 31.3772C32.476 29.1003 34.3046 27.1841 36.5199 25.8094C38.735 24.4346 41.2638 23.6465 43.8677 23.5193C46.4718 23.3921 49.0653 23.9298 51.404 25.082C53.7426 26.2343 55.7493 27.9634 57.2351 30.1056" stroke="#024D81" stroke-width="2" stroke-linecap="round"/>
<path d="M44.9981 58C44.6567 58 44.3376 57.9036 44.0396 57.737L41.0113 55.8516C40.5582 55.5873 40.7854 55.4909 40.9219 55.4428C41.5378 55.2279 41.652 55.1811 42.289 54.8009C42.3585 54.7527 42.4491 54.7748 42.5187 54.823L44.8405 56.2813C44.9323 56.3282 45.0466 56.3282 45.1148 56.2813L54.2022 50.7645C54.294 50.7176 54.3387 50.6213 54.3387 50.5015V39.4887C54.3387 39.3702 54.294 39.2739 54.2022 39.227L45.1148 33.7336C45.0242 33.6855 44.91 33.6855 44.8405 33.7336L35.7507 39.2257C35.66 39.2726 35.6141 39.3937 35.6141 39.4874V50.4989C35.6141 50.5939 35.66 50.715 35.7507 50.7619L38.2339 52.2684C39.5773 52.9819 40.4216 52.1447 40.4216 51.3114V40.4444C40.4216 40.3012 40.5346 40.1567 40.6947 40.1567H41.8569C41.991 40.1567 42.13 40.2765 42.13 40.4444V51.3127C42.13 53.1993 41.1516 54.2996 39.4432 54.2996C38.9192 54.2996 38.5095 54.2996 37.3474 53.7006L34.9573 52.2697C34.6661 52.0921 34.4244 51.8376 34.2564 51.5314C34.0884 51.2252 34 50.8782 34 50.5249V39.5122C34 38.796 34.3638 38.1268 34.9573 37.7687L44.0409 32.2519C44.3357 32.0865 44.665 32 44.9994 32C45.3338 32 45.663 32.0865 45.9579 32.2519L55.0427 37.7687C55.6375 38.1255 56 38.796 56 39.5122V50.5249C56 51.2397 55.6362 51.909 55.0427 52.2697L45.9579 57.7852C45.6587 57.9284 45.3172 58 44.9981 58ZM47.7992 50.4273C43.8136 50.4273 42.9942 48.5158 42.9942 46.8935C42.9942 46.7503 43.1084 46.6057 43.2673 46.6057H44.4518C44.5884 46.6057 44.7014 46.7008 44.7014 46.8453C44.8839 48.1096 45.4066 48.732 47.8228 48.732C49.7349 48.732 50.5568 48.2763 50.5568 47.2021C50.5568 46.581 50.3271 46.1279 47.3448 45.818C44.8628 45.5576 43.3145 44.9808 43.3145 42.904C43.3145 40.9705 44.8628 39.8233 47.4602 39.8233C50.3743 39.8233 51.8096 40.8767 51.9909 43.167C51.9887 43.2443 51.9645 43.3191 51.9213 43.3819C51.8754 43.4287 51.8083 43.4769 51.7401 43.4769H50.5568C50.4983 43.4756 50.4419 43.4539 50.3965 43.4152C50.3511 43.3766 50.3192 43.3231 50.306 43.2634C50.0316 41.9457 49.3264 41.5186 47.4602 41.5186C45.3632 41.5186 45.1124 42.2829 45.1124 42.8558C45.1124 43.5472 45.4066 43.7621 48.2338 44.1449C51.0348 44.5264 52.3559 45.0758 52.3559 47.1318C52.3311 49.2346 50.6934 50.4273 47.7992 50.4273Z" fill="#024D81"/>
</svg>
