<svg width="90" height="90" viewBox="0 0 90 90" fill="none" xmlns="http://www.w3.org/2000/svg">
<path d="M63.5958 17.9017H51.3195V11H72V60.2838H51.3195V53.4638H63.5958H64.5958V52.4638V18.9017V17.9017H63.5958ZM25.4013 52.3792V53.382L26.4041 53.3792L38.6776 53.3441V75.6971L31.3792 60.8428L31.1045 60.2838H30.4816H18V11H38.6805V17.82H26.4013H25.4013V18.82V52.3792Z" stroke="#024D81" stroke-width="2"/>
<path d="M44.9981 49C44.6567 49 44.3376 48.9036 44.0396 48.737L41.0113 46.8516C40.5582 46.5873 40.7854 46.4909 40.9219 46.4428C41.5378 46.2279 41.652 46.1811 42.289 45.8009C42.3585 45.7527 42.4491 45.7748 42.5187 45.823L44.8405 47.2813C44.9323 47.3282 45.0466 47.3282 45.1148 47.2813L54.2022 41.7645C54.294 41.7176 54.3387 41.6213 54.3387 41.5015V30.4887C54.3387 30.3702 54.294 30.2739 54.2022 30.227L45.1148 24.7336C45.0242 24.6855 44.91 24.6855 44.8405 24.7336L35.7507 30.2257C35.66 30.2726 35.6141 30.3937 35.6141 30.4874V41.4989C35.6141 41.5939 35.66 41.715 35.7507 41.7619L38.2339 43.2684C39.5773 43.9819 40.4216 43.1447 40.4216 42.3114V31.4444C40.4216 31.3012 40.5346 31.1567 40.6947 31.1567H41.8569C41.991 31.1567 42.13 31.2765 42.13 31.4444V42.3127C42.13 44.1993 41.1516 45.2996 39.4432 45.2996C38.9192 45.2996 38.5095 45.2996 37.3474 44.7006L34.9573 43.2697C34.6661 43.0921 34.4244 42.8376 34.2564 42.5314C34.0884 42.2252 34 41.8782 34 41.5249V30.5122C34 29.796 34.3638 29.1268 34.9573 28.7687L44.0409 23.2519C44.3357 23.0865 44.665 23 44.9994 23C45.3338 23 45.663 23.0865 45.9579 23.2519L55.0427 28.7687C55.6375 29.1255 56 29.796 56 30.5122V41.5249C56 42.2397 55.6362 42.909 55.0427 43.2697L45.9579 48.7852C45.6587 48.9284 45.3172 49 44.9981 49ZM47.7992 41.4273C43.8136 41.4273 42.9942 39.5158 42.9942 37.8935C42.9942 37.7503 43.1084 37.6057 43.2673 37.6057H44.4518C44.5884 37.6057 44.7014 37.7008 44.7014 37.8453C44.8839 39.1096 45.4066 39.732 47.8228 39.732C49.7349 39.732 50.5568 39.2763 50.5568 38.2021C50.5568 37.581 50.3271 37.1279 47.3448 36.818C44.8628 36.5576 43.3145 35.9808 43.3145 33.904C43.3145 31.9705 44.8628 30.8233 47.4602 30.8233C50.3743 30.8233 51.8096 31.8767 51.9909 34.167C51.9887 34.2443 51.9645 34.3191 51.9213 34.3819C51.8754 34.4287 51.8083 34.4769 51.7401 34.4769H50.5568C50.4983 34.4756 50.4419 34.4539 50.3965 34.4152C50.3511 34.3766 50.3192 34.3231 50.306 34.2634C50.0316 32.9457 49.3264 32.5186 47.4602 32.5186C45.3632 32.5186 45.1124 33.2829 45.1124 33.8558C45.1124 34.5472 45.4066 34.7621 48.2338 35.1449C51.0348 35.5264 52.3559 36.0758 52.3559 38.1318C52.3311 40.2346 50.6934 41.4273 47.7992 41.4273Z" fill="#024D81"/>
</svg>
