<svg width="90" height="90" viewBox="0 0 90 90" fill="none" xmlns="http://www.w3.org/2000/svg">
<path d="M45 78C48.7513 78 51.8205 74.9538 51.8205 71.2308H38.1795C38.1795 74.9538 41.2487 78 45 78ZM65.4614 57.6923V40.7692C65.4614 30.3785 59.9027 21.68 50.1153 19.3785V17.0769C50.1153 14.2677 47.8305 12 45 12C42.1695 12 39.8847 14.2677 39.8847 17.0769V19.3785C30.1314 21.68 24.5386 30.3446 24.5386 40.7692V57.6923L17.7182 64.4615V67.8462H72.2818V64.4615L65.4614 57.6923ZM58.6409 61.0769H31.3591V40.7692C31.3591 32.3754 36.5085 25.5385 45 25.5385C53.4915 25.5385 58.6409 32.3754 58.6409 40.7692V61.0769ZM29.9268 17.3477L25.0502 12.5077C16.8656 18.7015 11.4774 28.2462 11 39.0769H17.8205C18.332 30.1077 22.9699 22.2554 29.9268 17.3477V17.3477ZM72.1795 39.0769H79C78.4885 28.2462 73.1003 18.7015 64.9499 12.5077L60.1073 17.3477C66.996 22.2554 71.668 30.1077 72.1795 39.0769Z" stroke="white" stroke-width="2"/>
</svg>
