<svg width="90" height="90" viewBox="0 0 90 90" fill="none" xmlns="http://www.w3.org/2000/svg">
<path d="M12.1504 15.8691H11.1504V16.8691V21.6409V22.6409H12.1504H78.0004H79.0004V21.6409V16.8691V15.8691H78.0004H12.1504Z" stroke="white" stroke-width="2"/>
<path d="M19 23H18V24V59.15C18 59.9615 18.3788 60.7008 18.9853 61.2186C19.5869 61.7323 20.3734 62 21.1667 62H68.8333C69.6266 62 70.4131 61.7323 71.0147 61.2186C71.6212 60.7008 72 59.9614 72 59.15V24V23H71H19ZM65.6667 56.3H24.3333V28.7H65.6667V56.3Z" stroke="white" stroke-width="2"/>
<path d="M32.178 75H32.638L32.9373 74.6507L42.3646 63.6507L43.7793 62H41.6053H37.1407H36.7025L36.4054 62.3222L26.2648 73.3222L24.718 75H27H32.178ZM64 75H66.282L64.7352 73.3222L54.5946 62.3222L54.2975 62H53.8593H49.3947H47.2207L48.6354 63.6507L58.0627 74.6507L58.362 75H58.822H64Z" stroke="white" stroke-width="2"/>
<line x1="29" y1="35" x2="61" y2="35" stroke="white" stroke-width="2"/>
<line x1="29" y1="40" x2="51.6667" y2="40" stroke="white" stroke-width="2"/>
<line x1="29" y1="50" x2="43.6667" y2="50" stroke="white" stroke-width="2"/>
<line x1="29" y1="45" x2="58.3333" y2="45" stroke="white" stroke-width="2"/>
</svg>
