<svg width="115" height="115" viewBox="0 0 115 115" fill="none" xmlns="http://www.w3.org/2000/svg">
<g clip-path="url(#clip0_664_268)">
<path d="M76.6905 13.5273L107.182 26.7044L107.557 111.413L76.6905 109.912V13.5273Z" fill="white"/>
<path d="M23.5989 45.9037L65.0148 13.9033L65.3902 106.894L23.2235 111.038L23.5989 45.9037Z" fill="white"/>
<path d="M21.8739 41.1433V115.039H68.8721V0.501953L21.8739 41.1433ZM62.7468 100.081L25.9628 105.016V97.2377L62.7468 88.8044V100.081ZM62.7468 77.52L25.9628 89.4433V81.6648L62.7468 66.2836V77.52ZM62.7468 54.9592L25.9628 73.9103V66.1398L62.7468 43.6749V54.9592ZM62.7468 32.3985L25.9628 58.3613V50.5829L62.7468 21.1141V32.3985Z" fill="#024D81"/>
<path d="M73.9753 0.0869141L74.3825 115.039H109.745V18.7025L73.9753 0.0869141ZM79.278 18.9261L105.417 30.8175V40.9838L79.294 30.522L79.278 18.9261ZM79.278 42.0859L105.417 51.1102V61.2525L79.3339 53.6657L79.278 42.0859ZM79.318 65.2456L105.417 71.4189V81.5452L79.3819 76.7536L79.318 65.2456ZM79.4138 99.8254V88.3175L105.417 91.6557V101.75L79.4138 99.8254Z" fill="black"/>
<path d="M18.8072 115.039H4.50407V42.27L18.8072 28.0547V115.039Z" fill="black"/>
<path d="M22.3211 27.04L27.9673 29.0765L22.345 34.1716L22.3211 27.04Z" fill="black"/>
</g>
<defs>
<clipPath id="clip0_664_268">
<rect width="115" height="115" fill="white"/>
</clipPath>
</defs>
</svg>
