<?xml version="1.0" encoding="utf-8"?>
<svg xmlns="http://www.w3.org/2000/svg" width="56.664" height="50.06" viewBox="0 0 56.664 50.06">
  <g id="Group_14484" data-name="Group 14484" transform="translate(-779.97 -380.97)">
    <path id="Path_25791" data-name="Path 25791" d="M835.66,424.4h-.943V390.2a3.542,3.542,0,0,0-3.209-3.522l-1.769-3.065a.944.944,0,0,0-1.289-.346l-1.369.791a6.546,6.546,0,0,0-.922-.533v-1.58a.944.944,0,0,0-.943-.943h-3.774a.943.943,0,0,0-.943.943v1.58q-.241.114-.473.249t-.448.284l-1.37-.791a.943.943,0,0,0-1.289.346l-1.76,3.049H785.425a3.542,3.542,0,0,0-3.538,3.538v34.2h-.943a.944.944,0,0,0-.943.943v2.83a2.833,2.833,0,0,0,2.83,2.83h50.943a2.833,2.833,0,0,0,2.83-2.83v-2.83a.944.944,0,0,0-.943-.943Zm-5.75-35.438.712-.411h.556a1.653,1.653,0,0,1,1.651,1.651v34.2h-1.887V393.283l.682-1.181a.944.944,0,0,0-.346-1.289l-1.369-.79q.022-.267.022-.532t-.022-.533Zm-11.219,1.394a4.675,4.675,0,0,1,0-1.725.944.944,0,0,0-.456-.988l-1.1-.634.943-1.634,1.1.634a.942.942,0,0,0,1.084-.1,4.752,4.752,0,0,1,.706-.5,4.665,4.665,0,0,1,.785-.362.944.944,0,0,0,.629-.89v-1.266h1.887v1.266a.944.944,0,0,0,.629.89,4.69,4.69,0,0,1,1.491.862.942.942,0,0,0,1.085.1l1.1-.634.943,1.634-1.1.634a.944.944,0,0,0-.456.988,4.684,4.684,0,0,1,0,1.725.944.944,0,0,0,.456.988l1.1.634-.943,1.634-1.1-.634a.944.944,0,0,0-1.085.1,4.679,4.679,0,0,1-1.491.863.943.943,0,0,0-.629.889v1.267h-1.887v-1.266a.944.944,0,0,0-.629-.89,4.659,4.659,0,0,1-.785-.362,4.728,4.728,0,0,1-.707-.5.942.942,0,0,0-1.084-.1l-1.1.634-.943-1.634,1.1-.634a.943.943,0,0,0,.456-.988Zm-1.2,5.457a.943.943,0,0,0,.715-.094l1.37-.791q.219.151.448.284t.472.249v1.58a.944.944,0,0,0,.943.943h1.012v1.887h1.887v-1.887h.876a.944.944,0,0,0,.943-.943v-1.58a6.563,6.563,0,0,0,.922-.533l1.369.79a.944.944,0,0,0,.607.116V424.4H813.962a.943.943,0,0,0-.667.276l-1.266,1.265a1.172,1.172,0,0,1-.834.345h-5.788a1.17,1.17,0,0,1-.834-.346l-1.265-1.265a.944.944,0,0,0-.667-.276H787.547V392.321h16.038v2.44l-1.61,1.61a.935.935,0,0,0-.248.439l-.943,3.774a.935.935,0,0,0-.016.383l.8,4.807a1.957,1.957,0,0,0,1.27,1.525l-3.325,1.109-.016.007a.935.935,0,0,0-.63.888v4.717h-3.936a2.83,2.83,0,1,0,0,1.887h3.936v2.83a.943.943,0,0,0,.645.895l8.49,2.83a.934.934,0,0,0,.6,0h0l8.491-2.83a.943.943,0,0,0,.645-.895v-2.83h3.936a2.83,2.83,0,1,0,0-1.887h-3.936V409.3a.934.934,0,0,0-.629-.888.127.127,0,0,0-.016-.007l-4.054-1.351a5.712,5.712,0,0,0,.922-2.943,2.173,2.173,0,0,0,.472-.472h2.362v-1.887h-1.887v-2.83a.95.95,0,0,0-.1-.422l-1.787-3.575v-2.607h2.14l1.76,3.049a.943.943,0,0,0,.573.44Zm-6.26-.236,1.787,3.575v3.079a.472.472,0,0,1-.141.337.464.464,0,0,1-.34.135.505.505,0,0,1-.462-.519v-1.368a.944.944,0,0,0-.276-.667,4.951,4.951,0,0,0-6.994,0l-.943.943a.944.944,0,0,0-.276.667v3.7a.078.078,0,0,1-.155.013l-.769-4.613.832-3.33,1.7-1.7a.944.944,0,0,0,.276-.667v-2.83h5.66v2.83a.95.95,0,0,0,.1.422Zm4.617,20.333v2.15l-6.6,2.2v-7.445l6.6-2.2v3.408h-2.83v1.887Zm-15.094,0h2.83v-1.887h-2.83v-3.408l6.6,2.2v7.445l-6.6-2.2Zm9.493-13.2a.936.936,0,0,0-.725.273l-1.22,1.22-1.22-1.22a.943.943,0,0,0-1.61.667v-1.5l.667-.667a3.064,3.064,0,0,1,4.05-.245v.946a2.4,2.4,0,0,0,.059.522Zm-.531,5.657h-.472v-2.44l1.61-1.61a.939.939,0,0,0,.192-.279,2.332,2.332,0,0,0,.982.5,3.8,3.8,0,0,1-.709,1.695Zm-1.415,2.779-.663-.221a.939.939,0,0,1-.281-.671h1.887a.938.938,0,0,1-.281.671Zm-2.83-5.687v-1.809a.944.944,0,0,0,.276.667l1.61,1.61v2.44h-.472l-1.585-2.113a1.953,1.953,0,0,0,.169-.8Zm-.724,3.2.724.965v.578L802.8,409.3Zm6.384,1.543v-.578l.724-.965,1.953.65Zm-17.925,4.768a.943.943,0,1,1-.943-.943.944.944,0,0,1,.943.943Zm30.189,0a.943.943,0,1,1,.943.943.944.944,0,0,1-.943-.943ZM783.774,390.2a1.653,1.653,0,0,1,1.651-1.651h30.609l.713.411q-.022.267-.022.532t.022.532l-.713.411H786.6a.944.944,0,0,0-.943.943V424.4h-1.887Zm50.943,37.972a.944.944,0,0,1-.943.943H782.83a.945.945,0,0,1-.943-.943v-1.887h20.364l.989.989a3.045,3.045,0,0,0,2.168.9H811.2a3.045,3.045,0,0,0,2.168-.9l.989-.989h20.364Zm0,0" transform="translate(0 0)" fill="#2a3c4a" stroke="#2a3c4a" stroke-width="0.06"/>
    <rect id="Rectangle_5742" data-name="Rectangle 5742" width="2" height="2" transform="translate(797 400)" fill="#2a3c4a" stroke="#2a3c4a" stroke-width="0.06"/>
    <rect id="Rectangle_5743" data-name="Rectangle 5743" width="2" height="5" transform="translate(797 394)" fill="#2a3c4a" stroke="#2a3c4a" stroke-width="0.06"/>
    <path id="Path_25792" data-name="Path 25792" d="M1040.4,422.661a2.83,2.83,0,1,0-2.83-2.83,2.83,2.83,0,0,0,2.83,2.83Zm0-3.774a.943.943,0,1,1-.943.943.944.944,0,0,1,.943-.943Zm0,0" transform="translate(-217.071 -30.34)" fill="#2a3c4a" stroke="#2a3c4a" stroke-width="0.06"/>
    <rect id="Rectangle_5744" data-name="Rectangle 5744" width="2" height="2" transform="translate(823 401)" fill="#2a3c4a" stroke="#2a3c4a" stroke-width="0.06"/>
    <rect id="Rectangle_5745" data-name="Rectangle 5745" width="3" height="2" transform="translate(818 401)" fill="#2a3c4a" stroke="#2a3c4a" stroke-width="0.06"/>
  </g>
</svg>
