<svg width="90" height="90" viewBox="0 0 90 90" fill="none" xmlns="http://www.w3.org/2000/svg">
<path d="M10 20.1999C10 18.5556 10.6507 16.9786 11.809 15.8159C12.9673 14.6532 14.5383 14 16.1764 14H69.7051C71.3432 14 72.9142 14.6532 74.0725 15.8159C75.2308 16.9786 75.8815 18.5556 75.8815 20.1999V34.2777C74.5838 33.7148 73.1765 33.4521 71.7639 33.5089V20.1999C71.7639 19.6518 71.547 19.1261 71.1609 18.7385C70.7748 18.351 70.2512 18.1332 69.7051 18.1332H16.1764C15.6304 18.1332 15.1067 18.351 14.7206 18.7385C14.3345 19.1261 14.1176 19.6518 14.1176 20.1999V57.3991C14.1176 57.9472 14.3345 58.4729 14.7206 58.8604C15.1067 59.248 15.6304 59.4657 16.1764 59.4657H26.4704V53.2659C26.4704 51.6215 27.1211 50.0446 28.2794 48.8819C29.4377 47.7192 31.0087 47.066 32.6468 47.066H53.2348C54.8728 47.066 56.4438 47.7192 57.6021 48.8819C58.7604 50.0446 59.4112 51.6215 59.4112 53.2659V57.705C57.7188 57.7587 56.3724 58.2836 55.2936 59.0152V53.2659C55.2936 52.7178 55.0766 52.1921 54.6905 51.8045C54.3044 51.417 53.7808 51.1992 53.2348 51.1992H32.6468C32.1008 51.1992 31.5771 51.417 31.191 51.8045C30.8049 52.1921 30.588 52.7178 30.588 53.2659V59.4657H54.6883C53.3912 60.5238 52.5265 61.8465 51.8883 62.8137C51.7197 63.0801 51.544 63.342 51.3613 63.599H16.1764C14.5383 63.599 12.9673 62.9458 11.809 61.7831C10.6507 60.6204 10 59.0434 10 57.3991V20.1999ZM42.9408 42.9327C45.6709 42.9327 48.2892 41.8441 50.2197 39.9062C52.1502 37.9684 53.2348 35.3401 53.2348 32.5996C53.2348 29.8591 52.1502 27.2308 50.2197 25.293C48.2892 23.3552 45.6709 22.2665 42.9408 22.2665C40.2106 22.2665 37.5923 23.3552 35.6618 25.293C33.7313 27.2308 32.6468 29.8591 32.6468 32.5996C32.6468 35.3401 33.7313 37.9684 35.6618 39.9062C37.5923 41.8441 40.2106 42.9327 42.9408 42.9327ZM42.9408 38.7995C41.3027 38.7995 39.7317 38.1463 38.5734 36.9836C37.4151 35.8209 36.7644 34.2439 36.7644 32.5996C36.7644 30.9553 37.4151 29.3783 38.5734 28.2156C39.7317 27.0529 41.3027 26.3997 42.9408 26.3997C44.5789 26.3997 46.1498 27.0529 47.3081 28.2156C48.4664 29.3783 49.1172 30.9553 49.1172 32.5996C49.1172 34.2439 48.4664 35.8209 47.3081 36.9836C46.1498 38.1463 44.5789 38.7995 42.9408 38.7995ZM66.9669 44.028L68.6099 40.1387C69.3798 38.3118 71.2245 37.3198 73.0363 37.7L73.4233 37.7992L75.4821 38.4606C77.5245 39.1177 79.085 40.8702 79.5915 43.0733C80.7897 48.3101 79.3527 54.6877 75.2721 62.2019C71.1998 69.7079 66.7405 74.2173 61.8858 75.7383C60 76.3294 57.9741 75.9037 56.4506 74.6182L56.0512 74.2462L54.4865 72.6714C53.8292 71.9922 53.4045 71.1203 53.2742 70.1824C53.1439 69.2444 53.3147 68.2892 53.7618 67.4553L53.9924 67.075L56.3477 63.6031C56.7759 62.9477 57.3901 62.4363 58.1109 62.1349C58.8317 61.8335 59.626 61.7561 60.3911 61.9126L60.8029 62.0242L65.1552 63.4832C66.8887 62.1606 68.3381 60.5073 69.4951 58.5027C70.4875 56.7874 71.1422 55.0514 71.4428 53.2907L71.5663 52.4061L67.9469 48.9549C67.3628 48.3834 66.9474 47.6609 66.7469 46.8673C66.5463 46.0736 66.5683 45.2398 66.8105 44.4579L66.9628 44.028H66.9669Z" stroke="white" stroke-width="2"/>
</svg>
