<svg width="90" height="90" viewBox="0 0 90 90" fill="none" xmlns="http://www.w3.org/2000/svg">
<path d="M23.125 25.6875C23.125 26.2677 22.8945 26.8241 22.4843 27.2343C22.0741 27.6445 21.5177 27.875 20.9375 27.875C20.3573 27.875 19.8009 27.6445 19.3907 27.2343C18.9805 26.8241 18.75 26.2677 18.75 25.6875C18.75 25.1073 18.9805 24.5509 19.3907 24.1407C19.8009 23.7305 20.3573 23.5 20.9375 23.5C21.5177 23.5 22.0741 23.7305 22.4843 24.1407C22.8945 24.5509 23.125 25.1073 23.125 25.6875ZM29.6875 25.6875C29.6875 26.2677 29.457 26.8241 29.0468 27.2343C28.6366 27.6445 28.0802 27.875 27.5 27.875C26.9198 27.875 26.3634 27.6445 25.9532 27.2343C25.543 26.8241 25.3125 26.2677 25.3125 25.6875C25.3125 25.1073 25.543 24.5509 25.9532 24.1407C26.3634 23.7305 26.9198 23.5 27.5 23.5C28.0802 23.5 28.6366 23.7305 29.0468 24.1407C29.457 24.5509 29.6875 25.1073 29.6875 25.6875ZM34.0625 27.875C34.6427 27.875 35.1991 27.6445 35.6093 27.2343C36.0195 26.8241 36.25 26.2677 36.25 25.6875C36.25 25.1073 36.0195 24.5509 35.6093 24.1407C35.1991 23.7305 34.6427 23.5 34.0625 23.5C33.4823 23.5 32.9259 23.7305 32.5157 24.1407C32.1055 24.5509 31.875 25.1073 31.875 25.6875C31.875 26.2677 32.1055 26.8241 32.5157 27.2343C32.9259 27.6445 33.4823 27.875 34.0625 27.875Z" fill="white"/>
<path d="M12.1875 14.75C11.6073 14.75 11.0509 14.9805 10.6407 15.3907C10.2305 15.8009 10 16.3573 10 16.9375V73.8125C10 74.3927 10.2305 74.9491 10.6407 75.3593C11.0509 75.7695 11.6073 76 12.1875 76H77.8125C78.3927 76 78.9491 75.7695 79.3593 75.3593C79.7695 74.9491 80 74.3927 80 73.8125V16.9375C80 16.3573 79.7695 15.8009 79.3593 15.3907C78.9491 14.9805 78.3927 14.75 77.8125 14.75H12.1875ZM14.375 32.25V19.125H75.625V32.25H14.375ZM14.375 36.625H75.625V71.625H14.375V36.625Z" stroke="white" stroke-width="2"/>
<path d="M50.5568 65.0592C50.5569 65.0591 50.557 65.059 50.5571 65.0589L50.5568 65.0592ZM50.5568 65.0592L50.5561 65.0599C50.5563 65.0597 50.5566 65.0594 50.5568 65.0592ZM50.7397 64.8767L46.0047 64.9931L46.081 60.218L64.0715 42.2613L68.7341 46.9204L50.7397 64.8767ZM63.62 41.8101L63.6203 41.8104C63.6202 41.8103 63.6201 41.8102 63.62 41.8101Z" stroke="white" stroke-width="2"/>
<line x1="19" y1="42" x2="43" y2="42" stroke="white" stroke-width="2"/>
<line x1="19" y1="47" x2="36" y2="47" stroke="white" stroke-width="2"/>
<line x1="19" y1="62" x2="36" y2="62" stroke="white" stroke-width="2"/>
<line x1="19" y1="57" x2="30" y2="57" stroke="white" stroke-width="2"/>
<line x1="19" y1="67" x2="26" y2="67" stroke="white" stroke-width="2"/>
<line x1="19" y1="52" x2="41" y2="52" stroke="white" stroke-width="2"/>
</svg>
