<svg width="90" height="90" viewBox="0 0 90 90" fill="none" xmlns="http://www.w3.org/2000/svg">
<path d="M30.1819 54.7509H30.5961L30.889 54.458L54.2189 31.1281L54.926 30.421L54.2189 29.7138L51.536 27.0309L50.8289 26.3238L50.1218 27.0309L26.7919 50.3608L26.499 50.6537V51.0679V53.7509V54.7509H27.499H30.1819ZM22.6665 49.0617L50.8289 20.8993L60.3506 30.421L32.1882 58.5833H22.6665V49.0617ZM69.6897 18.3841C70.4365 19.1309 70.4365 20.335 69.6897 21.0818L64.681 26.0905L55.1593 16.5688L60.1681 11.5601C60.9149 10.8133 62.1189 10.8133 62.8657 11.5601L69.6897 18.3841Z" stroke="white" stroke-width="2"/>
<path d="M10 68.334H80V80.0007H10V68.334Z" fill="white"/>
</svg>
