<svg width="90" height="90" viewBox="0 0 90 90" fill="none" xmlns="http://www.w3.org/2000/svg">
<path d="M32.8571 62.4371L28 57.5776L24.5733 61.0019L32.8571 69.2857L47.4285 54.7143L44.0043 51.29L32.8571 62.4371ZM74.1428 79H64.4285V74.1429H74.1428V45H64.4285V25.5714C64.4253 22.996 63.4008 20.527 61.5797 18.7059C59.7587 16.8849 57.2897 15.8604 54.7143 15.8571V11C58.5775 11.0045 62.2811 12.5411 65.0128 15.2728C67.7445 18.0045 69.2812 21.7082 69.2857 25.5714V40.1429H74.1428C75.4306 40.1441 76.6653 40.6563 77.5759 41.5669C78.4865 42.4775 78.9987 43.7122 79 45V74.1429C78.9987 75.4307 78.4865 76.6653 77.5759 77.576C76.6653 78.4866 75.4306 78.9987 74.1428 79Z" stroke="#024D81" stroke-width="2"/>
<path d="M54.7143 40.1429H49.8571V25.5714C49.8571 21.7068 48.3219 18.0005 45.5893 15.2679C42.8566 12.5352 39.1503 11 35.2857 11C31.4211 11 27.7148 12.5352 24.9822 15.2679C22.2495 18.0005 20.7143 21.7068 20.7143 25.5714V40.1429H15.8571C14.5689 40.1429 13.3335 40.6546 12.4226 41.5655C11.5117 42.4764 11 43.7118 11 45V74.1429C11 75.4311 11.5117 76.6665 12.4226 77.5774C13.3335 78.4883 14.5689 79 15.8571 79H54.7143C56.0025 79 57.2379 78.4883 58.1488 77.5774C59.0597 76.6665 59.5714 75.4311 59.5714 74.1429V45C59.5714 43.7118 59.0597 42.4764 58.1488 41.5655C57.2379 40.6546 56.0025 40.1429 54.7143 40.1429ZM25.5714 25.5714C25.5714 22.995 26.5949 20.5242 28.4167 18.7024C30.2385 16.8806 32.7093 15.8571 35.2857 15.8571C37.8621 15.8571 40.333 16.8806 42.1548 18.7024C43.9765 20.5242 45 22.995 45 25.5714V40.1429H25.5714V25.5714ZM54.7143 74.1429H15.8571V45H54.7143V74.1429Z" stroke="#024D81" stroke-width="2"/>
</svg>
