<svg width="90" height="90" viewBox="0 0 90 90" fill="none" xmlns="http://www.w3.org/2000/svg">
<path d="M14.3683 14.3683C16.5249 12.2116 19.45 11 22.5 11H67.5C70.55 11 73.4751 12.2116 75.6317 14.3683C77.7884 16.5249 79 19.45 79 22.5V67.5C79 70.55 77.7884 73.4751 75.6317 75.6317C73.4751 77.7884 70.55 79 67.5 79H22.5C19.45 79 16.5249 77.7884 14.3683 75.6317C12.2116 73.4751 11 70.55 11 67.5V22.5C11 19.45 12.2116 16.5249 14.3683 14.3683ZM16.4896 16.4896C14.8955 18.0837 14 20.2457 14 22.5V67.5C14 69.7543 14.8955 71.9163 16.4896 73.5104C18.0837 75.1045 20.2457 76 22.5 76H67.5C69.7543 76 71.9163 75.1045 73.5104 73.5104C75.1045 71.9163 76 69.7543 76 67.5V22.5C76 20.2457 75.1045 18.0837 73.5104 16.4896C71.9163 14.8955 69.7543 14 67.5 14H22.5C20.2457 14 18.0837 14.8955 16.4896 16.4896ZM25.0251 40.0251C24.3687 40.6815 24 41.5717 24 42.5C24 43.4283 24.3687 44.3185 25.0251 44.9749C25.6815 45.6313 26.5717 46 27.5 46C28.4283 46 29.3185 45.6313 29.9749 44.9749C30.6313 44.3185 31 43.4283 31 42.5C31 41.5717 30.6312 40.6815 29.9749 40.0251C29.3185 39.3687 28.4283 39 27.5 39C26.5717 39 25.6815 39.3687 25.0251 40.0251ZM22.9038 37.9038C24.1228 36.6848 25.7761 36 27.5 36C29.2239 36 30.8772 36.6848 32.0962 37.9038C33.3152 39.1228 34 40.7761 34 42.5C34 44.2239 33.3152 45.8772 32.0962 47.0962C30.8772 48.3152 29.2239 49 27.5 49C25.7761 49 24.1228 48.3152 22.9038 47.0962C21.6848 45.8772 21 44.2239 21 42.5C21 40.7761 21.6848 39.1228 22.9038 37.9038ZM41 42.5C41 42.1022 41.158 41.7206 41.4393 41.4393C41.7206 41.158 42.1022 41 42.5 41H67.5C67.8978 41 68.2794 41.158 68.5607 41.4393C68.842 41.7206 69 42.1022 69 42.5C69 42.8978 68.842 43.2794 68.5607 43.5607C68.2794 43.842 67.8978 44 67.5 44H42.5C42.1022 44 41.7206 43.842 41.4393 43.5607C41.158 43.2794 41 42.8978 41 42.5ZM25.0251 60.0251C24.3687 60.6815 24 61.5717 24 62.5C24 63.4283 24.3687 64.3185 25.0251 64.9749C25.6815 65.6313 26.5717 66 27.5 66C28.4283 66 29.3185 65.6313 29.9749 64.9749C30.6313 64.3185 31 63.4283 31 62.5C31 61.5717 30.6313 60.6815 29.9749 60.0251C29.3185 59.3687 28.4283 59 27.5 59C26.5717 59 25.6815 59.3687 25.0251 60.0251ZM22.9038 57.9038C24.1228 56.6848 25.7761 56 27.5 56C29.2239 56 30.8772 56.6848 32.0962 57.9038C33.3152 59.1228 34 60.7761 34 62.5C34 64.2239 33.3152 65.8772 32.0962 67.0962C30.8772 68.3152 29.2239 69 27.5 69C25.7761 69 24.1228 68.3152 22.9038 67.0962C21.6848 65.8772 21 64.2239 21 62.5C21 60.7761 21.6848 59.1228 22.9038 57.9038ZM21 22.5C21 22.1022 21.158 21.7206 21.4393 21.4393C21.7206 21.158 22.1022 21 22.5 21H67.5C67.8978 21 68.2794 21.158 68.5607 21.4393C68.842 21.7206 69 22.1022 69 22.5C69 22.8978 68.842 23.2794 68.5607 23.5607C68.2794 23.842 67.8978 24 67.5 24H22.5C22.1022 24 21.7206 23.842 21.4393 23.5607C21.158 23.2794 21 22.8978 21 22.5ZM41.4393 61.4393C41.7206 61.158 42.1022 61 42.5 61H67.5C67.8978 61 68.2794 61.158 68.5607 61.4393C68.842 61.7206 69 62.1022 69 62.5C69 62.8978 68.842 63.2794 68.5607 63.5607C68.2794 63.842 67.8978 64 67.5 64H42.5C42.1022 64 41.7206 63.842 41.4393 63.5607C41.158 63.2794 41 62.8978 41 62.5C41 62.1022 41.158 61.7206 41.4393 61.4393Z" stroke="white" stroke-width="2"/>
</svg>
