<svg width="90" height="90" viewBox="0 0 90 90" fill="none" xmlns="http://www.w3.org/2000/svg">
<path d="M31.3643 78.2245L32.0369 78.8358L32.7095 78.2245C39.4262 72.1196 44.5021 66.4375 47.9046 61.1785C51.3043 55.9238 53.0738 51.0287 53.0738 46.5184C53.0738 40.939 50.8574 35.5882 46.9122 31.643C42.9671 27.6978 37.6162 25.4814 32.0369 25.4814C26.4576 25.4814 21.1068 27.6978 17.1616 31.643C13.2164 35.5882 11 40.939 11 46.5184C11 51.0287 12.7695 55.9238 16.1692 61.1785C19.5717 66.4375 24.6476 72.1196 31.3643 78.2245ZM42.922 35.6333C45.8089 38.5202 47.4307 42.4357 47.4307 46.5184C47.4307 49.6219 46.1846 53.308 43.5163 57.5669C40.9665 61.6366 37.1577 66.1661 32.0369 71.1215C26.9161 66.1661 23.1073 61.6366 20.5575 57.5669C17.8892 53.308 16.6431 49.6219 16.6431 46.5184C16.6431 42.4357 18.2649 38.5202 21.1518 35.6333C24.0387 32.7464 27.9542 31.1245 32.0369 31.1245C36.1196 31.1245 40.0351 32.7464 42.922 35.6333Z" stroke="white" stroke-width="2"/>
<path d="M68.2197 38.3415L68.5587 38.6543L68.8978 38.3415C72.3971 35.1136 75.0404 32.1103 76.8118 29.3317C78.5818 26.5553 79.5003 23.9729 79.5003 21.5969C79.5003 18.6562 78.3493 15.8345 76.2982 13.7528C74.2468 11.671 71.463 10.5 68.5587 10.5C65.6545 10.5 62.8706 11.671 60.8193 13.7528C58.7682 15.8345 57.6172 18.6562 57.6172 21.5969C57.6172 23.9729 58.5357 26.5553 60.3057 29.3317C62.077 32.1103 64.7204 35.1136 68.2197 38.3415ZM74.2435 15.8171C75.7527 17.3488 76.6018 19.4277 76.6018 21.5969C76.6018 23.2477 75.9489 25.2036 74.557 27.4584C73.2246 29.6166 71.2342 32.0178 68.5587 34.644C65.8833 32.0178 63.8929 29.6166 62.5605 27.4584C61.1686 25.2036 60.5157 23.2477 60.5157 21.5969C60.5157 19.4277 61.3648 17.3488 62.874 15.8171C64.383 14.2857 66.428 13.4267 68.5587 13.4267C70.6895 13.4267 72.7345 14.2857 74.2435 15.8171Z" stroke="white"/>
<path d="M35.1933 49.6748C34.3561 50.5121 33.2205 50.9824 32.0364 50.9824C30.8523 50.9824 29.7167 50.5121 28.8794 49.6748C28.0422 48.8375 27.5718 47.7019 27.5718 46.5178C27.5718 45.3337 28.0422 44.1982 28.8794 43.3609C29.7167 42.5236 30.8523 42.0532 32.0364 42.0532C33.2205 42.0532 34.3561 42.5236 35.1933 43.3609C36.0306 44.1982 36.501 45.3337 36.501 46.5178C36.501 47.7019 36.0306 48.8375 35.1933 49.6748ZM24.8892 53.665C26.7847 55.5606 29.3557 56.6255 32.0364 56.6255C34.7171 56.6255 37.288 55.5606 39.1836 53.665C41.0792 51.7695 42.1441 49.1986 42.1441 46.5178C42.1441 43.8371 41.0792 41.2662 39.1836 39.3706C37.288 37.4751 34.7171 36.4102 32.0364 36.4102C29.3557 36.4102 26.7847 37.4751 24.8892 39.3706C22.9936 41.2662 21.9287 43.8371 21.9287 46.5178C21.9287 49.1986 22.9936 51.7695 24.8892 53.665Z" stroke="white" stroke-width="2"/>
<path d="M70.6706 23.5544C70.2258 23.9991 69.6227 24.2489 68.9937 24.2489C68.3648 24.2489 67.7616 23.9991 67.3169 23.5544C66.8721 23.1096 66.6223 22.5065 66.6223 21.8775C66.6223 21.2486 66.8721 20.6454 67.3169 20.2007C67.7616 19.7559 68.3648 19.5061 68.9937 19.5061C69.6227 19.5061 70.2258 19.7559 70.6706 20.2007C71.1153 20.6454 71.3652 21.2486 71.3652 21.8775C71.3652 22.5065 71.1153 23.1096 70.6706 23.5544ZM65.2562 25.6151C66.2474 26.6063 67.5919 27.1632 68.9937 27.1632C70.3956 27.1632 71.74 26.6063 72.7313 25.6151C73.7226 24.6238 74.2794 23.2794 74.2794 21.8775C74.2794 20.4757 73.7226 19.1312 72.7313 18.1399C71.74 17.1487 70.3956 16.5918 68.9937 16.5918C67.5919 16.5918 66.2474 17.1487 65.2562 18.1399C64.2649 19.1312 63.708 20.4757 63.708 21.8775C63.708 23.2794 64.2649 24.6238 65.2562 25.6151Z" stroke="white"/>
<path d="M32 79C43.8077 79.6875 68.8414 60.291 68.5 39.5" stroke="white" stroke-dasharray="2 2"/>
</svg>
