<svg width="90" height="90" viewBox="0 0 90 90" fill="none" xmlns="http://www.w3.org/2000/svg">
<mask id="path-1-inside-1_224_212" fill="white">
<path d="M51.7837 50.1656C51.5783 50.2059 51.3999 50.2558 51.2079 50.2769C50.5804 50.3441 50.1217 50.1042 49.9413 49.4805C49.7609 48.8567 50.0372 48.4518 50.5631 48.1102C51.3979 47.567 52.2769 47.0527 52.9889 46.3714C55.1307 44.316 57.1919 42.178 59.303 40.0919C61.1281 38.2898 61.6981 36.2036 60.9381 33.7337C60.228 31.4306 59.612 29.0893 58.8865 26.7882C58.7301 26.33 58.4 25.9516 57.9673 25.7345C54.8582 24.4967 51.7204 23.3317 48.5921 22.1476C48.5049 22.1228 48.4156 22.1061 48.3253 22.0977C47.3658 23.5428 47.8571 25.5273 49.4346 26.5387C50.5209 27.2334 51.6148 27.9301 52.7567 28.5308C53.6165 28.9837 53.9255 29.594 53.8852 30.5497C53.8722 31.5747 53.9119 32.5996 54.0042 33.6204C54.0445 34.3248 53.7316 34.7719 52.9582 34.9159C50.9085 35.2997 49.0009 36.0117 47.312 37.2572C44.7307 39.163 43.2818 41.6867 43.1532 44.9205C43.1532 45.0894 43.1532 45.2564 43.1301 45.4233C43.0534 46.1373 42.6273 46.5576 41.9786 46.5576C41.33 46.5576 40.7907 46.0778 40.8866 45.337C41.0536 43.9206 41.1476 42.4467 41.637 41.1301C43.2319 36.8331 46.5443 34.3593 50.8203 33.0696C51.419 32.8892 51.6666 32.6762 51.5879 32.0659C51.5486 31.7569 51.5486 31.4441 51.5879 31.1351C51.6589 30.5824 51.4171 30.2811 50.8471 30.141C49.995 32.5534 48.3042 33.5955 45.7536 33.1176C43.9573 35.9062 42.9114 36.3341 39.9942 35.4763C39.3532 36.5414 38.4589 37.2918 37.1826 37.4741C35.7221 37.6814 34.4958 37.2265 33.5362 36.0789C32.9182 35.3323 32.3194 34.5685 31.6381 33.8373C31.7399 36.8792 31.12 39.9594 32.4058 42.8939C33.3931 45.234 35.2106 47.1267 37.5089 48.208C37.6797 48.2906 37.862 48.3597 38.0251 48.4575C38.5894 48.7991 38.7928 49.3845 38.5491 49.9334C38.3053 50.4823 37.7353 50.7202 37.1001 50.5379C36.9197 50.4861 36.7451 50.4074 36.4994 50.3134C36.3459 52.0886 36.1923 53.8178 36.0484 55.5489C35.5801 61.1529 35.1138 66.7575 34.6493 72.3627C34.4855 74.3408 34.325 76.3201 34.1676 78.3007C34.1542 78.4696 34.1542 78.6365 34.1311 78.8035C34.0237 79.5808 33.5208 80.0529 32.8702 79.9953C32.2196 79.9377 31.7898 79.4195 31.8492 78.6116C32.0546 75.8902 32.2791 73.1707 32.5037 70.4513C32.8645 66.1114 33.2279 61.7715 33.5938 57.4316C33.8126 54.8081 34.016 52.1827 34.2559 49.563C34.2895 49.3808 34.2713 49.1929 34.2035 49.0206C34.1356 48.8483 34.0208 48.6984 33.8721 48.588C30.8014 45.9837 29.2987 42.6501 29.2929 38.6333C29.2929 35.9273 29.2929 33.2212 29.2929 30.5152C29.2929 29.7091 29.1739 28.8877 29.2833 28.097C29.4848 26.6212 30.3945 25.5887 31.6573 24.8575C31.9015 24.6983 32.1979 24.6399 32.4842 24.6947C32.7705 24.7494 33.0245 24.913 33.1927 25.1511C33.5669 25.6712 33.4709 26.3026 32.9355 26.7421C32.7436 26.8937 32.5401 27.0108 32.3597 27.1605C31.3867 27.9397 31.1372 29.237 31.878 30.2312C33.0065 31.7473 34.1964 33.2193 35.394 34.6817C35.6416 34.9751 35.9903 35.1651 36.3711 35.2141C36.752 35.2632 37.1374 35.1677 37.4513 34.9466C37.7638 34.7374 37.9854 34.4174 38.0712 34.0512C38.1571 33.6851 38.1008 33.3 37.9138 32.9737C36.7969 30.9413 35.6396 28.93 34.4919 26.9148C32.8587 24.0514 33.7108 21.3204 36.6932 19.8753C37.4052 19.5318 38.0367 19.6949 38.3552 20.3052C38.6738 20.9155 38.4454 21.5162 37.7488 21.9173C37.5569 22.0248 37.3649 22.1092 37.173 22.2244C36.0081 22.9095 35.6089 24.1973 36.2691 25.3737C37.649 27.836 39.0634 30.2791 40.4913 32.7184C40.9672 33.5379 41.7982 33.797 42.5755 33.4343C42.764 33.3536 42.9342 33.2357 43.076 33.0877C43.2179 32.9397 43.3284 32.7646 43.4009 32.5728C43.4735 32.3811 43.5066 32.1767 43.4984 31.9719C43.4901 31.767 43.4406 31.566 43.3528 31.3807C42.1706 28.502 40.9404 25.6559 39.7063 22.802C39.242 21.793 39.1502 20.652 39.4472 19.5817C40.0134 17.5723 41.5238 16.6204 43.4007 16.1272C43.9439 15.9851 44.4025 16.2884 44.6079 16.8085C44.8133 17.3286 44.7058 17.8717 44.1838 18.1903C43.8248 18.3788 43.4521 18.5399 43.0687 18.672C41.7925 19.2113 41.2282 20.4607 41.7656 21.7427C42.9171 24.4736 44.1012 27.1912 45.2969 29.903C45.4432 30.2901 45.7303 30.6076 46.1008 30.7919C46.4713 30.9763 46.8977 31.0139 47.2947 30.8971C47.6737 30.813 48.0085 30.5925 48.2353 30.2775C48.4622 29.9625 48.5652 29.5751 48.5249 29.1891C48.4831 28.8947 48.3341 28.6261 48.1066 28.4348C45.721 26.6308 45.009 24.3182 45.982 21.4663C46.059 21.2457 46.0755 21.0084 46.03 20.7792C45.295 17.8007 46.7746 15.8105 49.8683 15.6493C50.8562 15.5814 51.839 15.8404 52.6651 16.3863C53.4913 16.9322 54.1149 17.7347 54.4398 18.6701C54.8064 19.6796 55.1326 20.7063 55.4263 21.7407C55.4731 21.9469 55.5758 22.1361 55.723 22.2878C55.8703 22.4395 56.0564 22.5477 56.2611 22.6005C57.165 22.9076 58.0536 23.2626 58.948 23.6119C59.458 23.7945 59.9164 24.0978 60.284 24.4958C60.6516 24.8937 60.9175 25.3747 61.059 25.8977C61.8171 28.4905 62.627 31.0794 63.3064 33.6818C64.0741 36.6527 63.3064 39.2781 61.1704 41.466C58.9748 43.7057 56.7467 45.9127 54.5147 48.1159C54.3581 48.2578 54.2372 48.4347 54.1619 48.6321C54.0865 48.8295 54.0588 49.0419 54.0809 49.2521C54.3573 55.8515 54.6215 62.4534 54.8736 69.0579C54.9938 72.071 55.1179 75.0848 55.2459 78.0992C55.2689 78.3614 55.2746 78.6249 55.2631 78.8879C55.2492 79.1908 55.1177 79.4764 54.8966 79.6839C54.6755 79.8913 54.3822 80.0044 54.079 79.9991C53.7876 79.9931 53.5103 79.8728 53.3068 79.6643C53.1032 79.4557 52.9898 79.1755 52.9908 78.8841C52.8936 77.0443 52.8098 75.2025 52.7394 73.3588C52.4388 65.7768 52.14 58.1941 51.8432 50.6108C51.8259 50.4688 51.801 50.3287 51.7837 50.1656ZM52.8853 21.307C52.6185 20.5201 52.4746 19.8388 52.1714 19.2362C51.3903 17.6894 49.7129 17.6644 48.4923 18.4551C48.2428 18.6163 48.1449 19.1 48.1085 19.4493C48.097 19.5452 48.5576 19.7083 48.8147 19.8101C49.212 19.9655 49.6227 20.0903 50.0257 20.238C50.9335 20.5739 51.8374 20.9155 52.8853 21.307Z"/>
</mask>
<path d="M51.7837 50.1656C51.5783 50.2059 51.3999 50.2558 51.2079 50.2769C50.5804 50.3441 50.1217 50.1042 49.9413 49.4805C49.7609 48.8567 50.0372 48.4518 50.5631 48.1102C51.3979 47.567 52.2769 47.0527 52.9889 46.3714C55.1307 44.316 57.1919 42.178 59.303 40.0919C61.1281 38.2898 61.6981 36.2036 60.9381 33.7337C60.228 31.4306 59.612 29.0893 58.8865 26.7882C58.7301 26.33 58.4 25.9516 57.9673 25.7345C54.8582 24.4967 51.7204 23.3317 48.5921 22.1476C48.5049 22.1228 48.4156 22.1061 48.3253 22.0977C47.3658 23.5428 47.8571 25.5273 49.4346 26.5387C50.5209 27.2334 51.6148 27.9301 52.7567 28.5308C53.6165 28.9837 53.9255 29.594 53.8852 30.5497C53.8722 31.5747 53.9119 32.5996 54.0042 33.6204C54.0445 34.3248 53.7316 34.7719 52.9582 34.9159C50.9085 35.2997 49.0009 36.0117 47.312 37.2572C44.7307 39.163 43.2818 41.6867 43.1532 44.9205C43.1532 45.0894 43.1532 45.2564 43.1301 45.4233C43.0534 46.1373 42.6273 46.5576 41.9786 46.5576C41.33 46.5576 40.7907 46.0778 40.8866 45.337C41.0536 43.9206 41.1476 42.4467 41.637 41.1301C43.2319 36.8331 46.5443 34.3593 50.8203 33.0696C51.419 32.8892 51.6666 32.6762 51.5879 32.0659C51.5486 31.7569 51.5486 31.4441 51.5879 31.1351C51.6589 30.5824 51.4171 30.2811 50.8471 30.141C49.995 32.5534 48.3042 33.5955 45.7536 33.1176C43.9573 35.9062 42.9114 36.3341 39.9942 35.4763C39.3532 36.5414 38.4589 37.2918 37.1826 37.4741C35.7221 37.6814 34.4958 37.2265 33.5362 36.0789C32.9182 35.3323 32.3194 34.5685 31.6381 33.8373C31.7399 36.8792 31.12 39.9594 32.4058 42.8939C33.3931 45.234 35.2106 47.1267 37.5089 48.208C37.6797 48.2906 37.862 48.3597 38.0251 48.4575C38.5894 48.7991 38.7928 49.3845 38.5491 49.9334C38.3053 50.4823 37.7353 50.7202 37.1001 50.5379C36.9197 50.4861 36.7451 50.4074 36.4994 50.3134C36.3459 52.0886 36.1923 53.8178 36.0484 55.5489C35.5801 61.1529 35.1138 66.7575 34.6493 72.3627C34.4855 74.3408 34.325 76.3201 34.1676 78.3007C34.1542 78.4696 34.1542 78.6365 34.1311 78.8035C34.0237 79.5808 33.5208 80.0529 32.8702 79.9953C32.2196 79.9377 31.7898 79.4195 31.8492 78.6116C32.0546 75.8902 32.2791 73.1707 32.5037 70.4513C32.8645 66.1114 33.2279 61.7715 33.5938 57.4316C33.8126 54.8081 34.016 52.1827 34.2559 49.563C34.2895 49.3808 34.2713 49.1929 34.2035 49.0206C34.1356 48.8483 34.0208 48.6984 33.8721 48.588C30.8014 45.9837 29.2987 42.6501 29.2929 38.6333C29.2929 35.9273 29.2929 33.2212 29.2929 30.5152C29.2929 29.7091 29.1739 28.8877 29.2833 28.097C29.4848 26.6212 30.3945 25.5887 31.6573 24.8575C31.9015 24.6983 32.1979 24.6399 32.4842 24.6947C32.7705 24.7494 33.0245 24.913 33.1927 25.1511C33.5669 25.6712 33.4709 26.3026 32.9355 26.7421C32.7436 26.8937 32.5401 27.0108 32.3597 27.1605C31.3867 27.9397 31.1372 29.237 31.878 30.2312C33.0065 31.7473 34.1964 33.2193 35.394 34.6817C35.6416 34.9751 35.9903 35.1651 36.3711 35.2141C36.752 35.2632 37.1374 35.1677 37.4513 34.9466C37.7638 34.7374 37.9854 34.4174 38.0712 34.0512C38.1571 33.6851 38.1008 33.3 37.9138 32.9737C36.7969 30.9413 35.6396 28.93 34.4919 26.9148C32.8587 24.0514 33.7108 21.3204 36.6932 19.8753C37.4052 19.5318 38.0367 19.6949 38.3552 20.3052C38.6738 20.9155 38.4454 21.5162 37.7488 21.9173C37.5569 22.0248 37.3649 22.1092 37.173 22.2244C36.0081 22.9095 35.6089 24.1973 36.2691 25.3737C37.649 27.836 39.0634 30.2791 40.4913 32.7184C40.9672 33.5379 41.7982 33.797 42.5755 33.4343C42.764 33.3536 42.9342 33.2357 43.076 33.0877C43.2179 32.9397 43.3284 32.7646 43.4009 32.5728C43.4735 32.3811 43.5066 32.1767 43.4984 31.9719C43.4901 31.767 43.4406 31.566 43.3528 31.3807C42.1706 28.502 40.9404 25.6559 39.7063 22.802C39.242 21.793 39.1502 20.652 39.4472 19.5817C40.0134 17.5723 41.5238 16.6204 43.4007 16.1272C43.9439 15.9851 44.4025 16.2884 44.6079 16.8085C44.8133 17.3286 44.7058 17.8717 44.1838 18.1903C43.8248 18.3788 43.4521 18.5399 43.0687 18.672C41.7925 19.2113 41.2282 20.4607 41.7656 21.7427C42.9171 24.4736 44.1012 27.1912 45.2969 29.903C45.4432 30.2901 45.7303 30.6076 46.1008 30.7919C46.4713 30.9763 46.8977 31.0139 47.2947 30.8971C47.6737 30.813 48.0085 30.5925 48.2353 30.2775C48.4622 29.9625 48.5652 29.5751 48.5249 29.1891C48.4831 28.8947 48.3341 28.6261 48.1066 28.4348C45.721 26.6308 45.009 24.3182 45.982 21.4663C46.059 21.2457 46.0755 21.0084 46.03 20.7792C45.295 17.8007 46.7746 15.8105 49.8683 15.6493C50.8562 15.5814 51.839 15.8404 52.6651 16.3863C53.4913 16.9322 54.1149 17.7347 54.4398 18.6701C54.8064 19.6796 55.1326 20.7063 55.4263 21.7407C55.4731 21.9469 55.5758 22.1361 55.723 22.2878C55.8703 22.4395 56.0564 22.5477 56.2611 22.6005C57.165 22.9076 58.0536 23.2626 58.948 23.6119C59.458 23.7945 59.9164 24.0978 60.284 24.4958C60.6516 24.8937 60.9175 25.3747 61.059 25.8977C61.8171 28.4905 62.627 31.0794 63.3064 33.6818C64.0741 36.6527 63.3064 39.2781 61.1704 41.466C58.9748 43.7057 56.7467 45.9127 54.5147 48.1159C54.3581 48.2578 54.2372 48.4347 54.1619 48.6321C54.0865 48.8295 54.0588 49.0419 54.0809 49.2521C54.3573 55.8515 54.6215 62.4534 54.8736 69.0579C54.9938 72.071 55.1179 75.0848 55.2459 78.0992C55.2689 78.3614 55.2746 78.6249 55.2631 78.8879C55.2492 79.1908 55.1177 79.4764 54.8966 79.6839C54.6755 79.8913 54.3822 80.0044 54.079 79.9991C53.7876 79.9931 53.5103 79.8728 53.3068 79.6643C53.1032 79.4557 52.9898 79.1755 52.9908 78.8841C52.8936 77.0443 52.8098 75.2025 52.7394 73.3588C52.4388 65.7768 52.14 58.1941 51.8432 50.6108C51.8259 50.4688 51.801 50.3287 51.7837 50.1656ZM52.8853 21.307C52.6185 20.5201 52.4746 19.8388 52.1714 19.2362C51.3903 17.6894 49.7129 17.6644 48.4923 18.4551C48.2428 18.6163 48.1449 19.1 48.1085 19.4493C48.097 19.5452 48.5576 19.7083 48.8147 19.8101C49.212 19.9655 49.6227 20.0903 50.0257 20.238C50.9335 20.5739 51.8374 20.9155 52.8853 21.307Z" stroke="#024D81" stroke-width="4" mask="url(#path-1-inside-1_224_212)"/>
<path d="M18.9552 12.41L18.9539 12.409C18.8817 12.3528 18.8298 12.3027 18.7951 12.262C18.7943 12.2611 18.7935 12.2602 18.7928 12.2593C18.8269 12.2217 18.8792 12.1707 18.9598 12.1014C18.9635 12.0982 18.9674 12.0949 18.9715 12.0914C19.0542 12.139 19.1358 12.1884 19.2163 12.2396C22.5517 14.8231 25.8827 17.4123 29.2092 20.0073C29.3057 20.0828 29.3611 20.1473 29.3912 20.192C29.4163 20.2293 29.4231 20.2515 29.4247 20.2581C29.4226 20.2645 29.4134 20.2885 29.3812 20.328C29.3471 20.3699 29.3235 20.3872 29.3146 20.3928C29.3124 20.3926 29.3095 20.3922 29.3057 20.3916C29.2954 20.3899 29.2784 20.386 29.2544 20.3771C29.206 20.3593 29.1328 20.3226 29.0383 20.2509C25.674 17.6424 22.313 15.0287 18.9552 12.41Z" stroke="#024D81" stroke-width="2"/>
<path d="M11.9085 44.4307L11.9083 44.4285C11.9013 44.356 11.908 44.318 11.9111 44.3052C11.912 44.3017 11.9127 44.2995 11.9132 44.2982C11.921 44.2897 11.9676 44.2453 12.1111 44.2015L12.1112 44.2014C13.0475 43.9152 13.9881 43.6362 14.9333 43.3558C15.34 43.2352 15.7476 43.1143 16.1561 42.9924L16.1568 42.9922C18.5347 42.281 20.9133 41.5685 23.2926 40.8547C23.5359 40.7832 23.6356 40.8225 23.6413 40.825C23.6437 40.826 23.6418 40.8249 23.6424 40.8255C23.6441 40.8275 23.66 40.8466 23.6762 40.8988C23.6858 40.93 23.6872 40.9481 23.6872 40.9553C23.6796 40.9666 23.6096 41.0571 23.3662 41.1309L23.3658 41.131C19.664 42.255 15.9603 43.3655 12.2546 44.4626L12.2546 44.4626L12.2501 44.464C12.1988 44.4794 12.1408 44.4942 12.0797 44.5085C12.0712 44.5105 12.0627 44.5124 12.0543 44.5143C11.9911 44.5029 11.952 44.4797 11.9326 44.4637C11.9091 44.4443 11.9086 44.4333 11.9085 44.431C11.9085 44.4309 11.9085 44.4308 11.9085 44.4307ZM11.9138 44.2966C11.9138 44.2966 11.9137 44.2969 11.9135 44.2973L11.9138 44.2966Z" stroke="#024D81" stroke-width="2"/>
<path d="M63.7443 12.4172L63.747 12.4145C63.7578 12.4036 63.7903 12.3652 63.8659 12.2232C63.8655 12.2227 63.8652 12.2223 63.8648 12.2219C63.7942 12.1357 63.7461 12.0856 63.7137 12.056C63.7118 12.0573 63.7099 12.0585 63.7079 12.0599C63.667 12.0872 63.6153 12.1293 63.5548 12.1898L63.5543 12.1902C63.2416 12.5026 62.9289 12.8146 62.6164 13.1265C61.4714 14.2689 60.3285 15.4094 59.1922 16.5562L63.7443 12.4172ZM63.7443 12.4172C62.3128 13.8831 60.859 15.3331 59.397 16.776L59.3969 16.7761M63.7443 12.4172L59.3969 16.7761M59.3969 16.7761C59.2281 16.9428 59.1281 16.9493 59.1254 16.9494M59.3969 16.7761L59.1254 16.9494M59.1254 16.9494C59.1244 16.9494 59.1241 16.9495 59.1238 16.9495M59.1254 16.9494L59.1238 16.9495M59.1238 16.9495C59.1235 16.9494 59.1232 16.9492 59.122 16.9487M59.1238 16.9495L59.122 16.9487M59.122 16.9487C59.1183 16.9471 59.0954 16.9365 59.0592 16.8977M59.122 16.9487L59.0592 16.8977M59.0592 16.8977C59.0238 16.8597 59.0108 16.8352 59.0068 16.8266M59.0592 16.8977L59.0068 16.8266M59.0068 16.8266C59.0085 16.818 59.0142 16.7965 59.033 16.7611C59.0585 16.7128 59.1065 16.6428 59.1919 16.5565L59.0068 16.8266Z" stroke="#024D81" stroke-width="2"/>
<path d="M65.9252 24.7613C65.9271 24.7638 65.9292 24.7665 65.9313 24.7693C65.9608 24.8075 66.0046 24.8561 66.0719 24.9223C66.0848 24.935 66.0976 24.9474 66.1106 24.9599C66.1237 24.9556 66.1368 24.9512 66.1498 24.9466C66.4896 24.7936 66.829 24.6409 67.168 24.4885C68.8159 23.7474 70.4558 23.01 72.0847 22.2475L65.9252 24.7613ZM65.9252 24.7613C65.9455 24.7463 65.9734 24.7289 66.0103 24.7114L66.0103 24.7114L66.0126 24.7103C66.9232 24.2765 67.8426 23.8591 68.771 23.4375C68.9494 23.3565 69.1281 23.2754 69.3071 23.194L69.3078 23.1936C69.5204 23.0968 69.7305 23.0003 69.9393 22.9046C70.5952 22.6036 71.2368 22.3092 71.8928 22.0285L71.8928 22.0285L71.8961 22.0271C72.0553 21.9583 72.1288 21.98 72.1343 21.9818C72.1393 21.9834 72.1428 21.9852 72.1481 21.9899C72.1539 21.995 72.1701 22.0112 72.189 22.0491C72.2072 22.086 72.212 22.1119 72.2131 22.1256C72.2141 22.1389 72.2123 22.1455 72.2112 22.1485C72.2103 22.1512 72.2068 22.1604 72.1926 22.1755C72.1781 22.1909 72.1465 22.2185 72.0849 22.2474L65.9252 24.7613Z" stroke="#024D81" stroke-width="2"/>
<path d="M71.728 44.2949L71.7285 44.295C71.7975 44.32 71.8772 44.3432 71.9721 44.3679C72.0074 44.3771 72.0415 44.3857 72.0778 44.3948C72.1475 44.3806 72.179 44.3635 72.1878 44.358C72.1878 44.358 72.1878 44.3579 72.1878 44.3579C72.191 44.3523 72.203 44.3293 72.2136 44.278C72.2217 44.2319 72.2203 44.2061 72.2193 44.1964C72.2064 44.1824 72.1546 44.1338 72.0138 44.0819L71.728 44.2949ZM71.728 44.2949C69.9142 43.6391 68.1016 42.9783 66.2904 42.3123L66.2892 42.3119M71.728 44.2949L66.2892 42.3119M66.2892 42.3119C66.0262 42.2155 65.9339 42.1185 65.9112 42.0892M66.2892 42.3119L65.9112 42.0892M65.9112 42.0892C65.9129 42.0804 65.9163 42.0667 65.9235 42.0474C65.942 41.9974 65.9586 41.9795 65.9608 41.9772C65.9609 41.9771 65.9611 41.9769 65.9612 41.9768C65.9618 41.976 65.9624 41.9753 65.9682 41.9731C65.9838 41.9674 66.1045 41.9329 66.3755 42.0293C68.2574 42.7077 70.1368 43.3919 72.0136 44.0818L65.9112 42.0892ZM65.9098 42.1012C65.9098 42.1012 65.9097 42.1009 65.9098 42.1003C65.9098 42.1009 65.9098 42.1012 65.9098 42.1012Z" stroke="#024D81" stroke-width="2"/>
<path d="M23.3345 26.9031L23.335 26.9033C23.5947 27.0084 23.6708 27.1093 23.684 27.13C23.6828 27.1393 23.6789 27.1593 23.6655 27.1916C23.647 27.2361 23.6313 27.2566 23.6254 27.2634C23.6064 27.2679 23.498 27.2863 23.2668 27.1954C21.4506 26.4776 19.6363 25.7509 17.8239 25.0152L17.8239 25.0152L17.8219 25.0144C17.6989 24.9648 17.6562 24.9211 17.6468 24.9099C17.6456 24.9033 17.642 24.8751 17.6518 24.8183C17.6606 24.7687 17.6713 24.7482 17.6731 24.745C17.6772 24.7417 17.7067 24.7202 17.7827 24.6986C17.8977 24.7299 17.9857 24.7543 18.0887 24.7949C19.8392 25.4925 21.5878 26.1953 23.3345 26.9031Z" stroke="#024D81" stroke-width="2"/>
<path d="M78.71 46.8168L78.7116 46.8173C78.7137 46.8179 78.7155 46.8184 78.717 46.8189C78.7186 46.8176 78.7206 46.816 78.7229 46.814C78.7366 46.8017 78.7719 46.7621 78.8012 46.6821C78.7912 46.6684 78.7814 46.6551 78.7714 46.642C78.7269 46.5837 78.6992 46.5566 78.6891 46.547C77.7781 46.1478 76.8452 45.8006 75.8948 45.5072L75.8816 45.5031L75.8684 45.4987C75.8571 45.4949 75.8452 45.4933 75.8333 45.4941C75.8215 45.4949 75.8099 45.4981 75.7992 45.5034C75.7886 45.5087 75.7791 45.516 75.7713 45.525C75.7635 45.534 75.7576 45.5445 75.7539 45.5558L75.738 45.6038L75.7174 45.65C75.714 45.6576 75.7122 45.6659 75.7121 45.6742C75.712 45.6826 75.7136 45.6908 75.7168 45.6985L74.7932 46.0819L75.7168 45.6985C75.72 45.7062 75.7247 45.7132 75.7307 45.719L78.71 46.8168ZM78.71 46.8168C77.7224 46.5043 76.7434 46.1402 75.7759 45.742L75.7638 45.737M78.71 46.8168L75.7638 45.737M75.7638 45.737L75.7516 45.7323M75.7638 45.737L75.7516 45.7323M75.7516 45.7323C75.7438 45.7293 75.7367 45.7248 75.7307 45.719L75.7516 45.7323Z" stroke="#024D81" stroke-width="2"/>
<path d="M76.3307 20.3252L76.3191 20.3298L76.3077 20.3347C76.1877 20.3856 76.1211 20.3688 76.1033 20.3624C76.0922 20.3584 76.0849 20.3534 76.079 20.3478C76.0733 20.3424 76.063 20.3308 76.0526 20.3067L76.0527 20.3067L76.0473 20.2946C76.0403 20.279 76.0366 20.2622 76.0362 20.2452C76.0358 20.2281 76.0388 20.2111 76.045 20.1952C76.0513 20.1794 76.0606 20.1649 76.0725 20.1526C76.0844 20.1404 76.0987 20.1307 76.1144 20.124L76.1408 20.1128L76.1665 20.1001C76.9803 19.6979 77.8036 19.319 78.6358 18.979C78.6858 18.9591 78.7129 18.9614 78.7196 18.9622C78.726 18.9631 78.7312 18.9647 78.7396 18.9713C78.7446 18.9752 78.7795 19.0055 78.808 19.0844C78.7988 19.0959 78.7896 19.1072 78.7803 19.1185C78.7382 19.1692 78.7038 19.2057 78.6751 19.2318C78.6612 19.2443 78.6504 19.2529 78.6427 19.2585C78.635 19.264 78.6313 19.266 78.6316 19.2658C77.8846 19.6609 77.1165 20.0145 76.3307 20.3252Z" stroke="#024D81" stroke-width="2"/>
<path d="M12.6934 22.6323C13.2854 22.878 13.8806 23.125 14.4667 23.4374C14.4598 23.4597 14.4497 23.4857 14.4353 23.5144C14.417 23.5507 14.4008 23.574 14.3889 23.5883L14.3857 23.5873C13.5324 23.3111 12.6987 22.9777 11.8902 22.5895C11.8919 22.5703 11.897 22.542 11.9097 22.5039C11.9201 22.4725 11.9289 22.4549 11.9336 22.4466C11.951 22.4378 12.0082 22.414 12.1355 22.3985C12.3209 22.4777 12.507 22.5549 12.6934 22.6323Z" stroke="#024D81" stroke-width="2"/>
</svg>
