<svg width="90" height="90" viewBox="0 0 90 90" fill="none" xmlns="http://www.w3.org/2000/svg">
<path d="M53.4661 17.9692L53.4667 17.9686C53.4846 17.9457 53.5063 17.9272 53.5304 17.9137L53.0413 17.0415L53.5304 17.9137C53.5545 17.9002 53.5805 17.8919 53.6071 17.8888C53.6336 17.8858 53.6606 17.888 53.6865 17.8956C53.7124 17.9032 53.7371 17.9159 53.759 17.9337L55.6126 19.433L46.6471 30.9436L45.3896 32.5581H47.436H53.6003H54.0889L54.3892 32.1727L60.9552 23.7459L66.2309 28.0094L66.2311 28.0096C66.2534 28.0276 66.2725 28.0505 66.2867 28.0771L67.169 27.6065L66.2868 28.0772C66.301 28.1038 66.3099 28.1335 66.3128 28.1645L67.2868 28.0756L66.3128 28.1645C66.3156 28.1954 66.3122 28.2265 66.3029 28.2559C66.2936 28.2851 66.2787 28.3117 66.2595 28.3341L66.2592 28.3344L64.0591 30.9083L62.6488 32.5581H64.8192H71.1531H71.6931L71.9892 32.1066C72.9597 30.6273 73.3462 28.8367 73.0742 27.0861C72.8023 25.3354 71.891 23.7485 70.5167 22.6382L70.5167 22.6382L58.0451 12.5627L58.045 12.5626C57.3193 11.9765 56.4854 11.5404 55.5912 11.2799C54.6969 11.0193 53.7603 10.9396 52.8352 11.0453C51.91 11.151 51.0151 11.4401 50.2018 11.8955C49.3885 12.351 48.673 12.9637 48.0962 13.6982L48.0961 13.6983L34.5584 30.9405L33.2883 32.5581H35.3449H41.5262H42.0124L42.3127 32.1756L53.4661 17.9692ZM32.3669 30.1137H32.8509L33.1512 29.7341L37.0184 24.8455L38.3003 23.2251H36.2342H21.2692C19.0733 23.2251 16.969 24.1052 15.4189 25.6689C13.8691 27.2322 13 29.3508 13 31.5581V67.0006C13 70.1802 14.2521 73.2314 16.4835 75.4824C18.7152 77.7336 21.7439 79 24.9038 79H66.0962C69.2561 79 72.2848 77.7336 74.5165 75.4824C76.7479 73.2314 78 70.1802 78 67.0006V45.0018C78 41.8221 76.7479 38.771 74.5165 36.52C72.2848 34.2687 69.2561 33.0024 66.0962 33.0024H21.2692C20.8946 33.0024 20.5336 32.8523 20.266 32.5824C19.9982 32.3122 19.8462 31.9439 19.8462 31.5581C19.8462 31.1722 19.9982 30.8039 20.266 30.5337C20.5336 30.2638 20.8946 30.1137 21.2692 30.1137H32.3669ZM57.6154 52.5569C56.7047 52.5569 55.8331 52.9219 55.1918 53.5688C54.5508 54.2154 54.1923 55.0905 54.1923 56.0012C54.1923 56.9119 54.5508 57.787 55.1918 58.4336C55.8331 59.0805 56.7047 59.4455 57.6154 59.4455H64.8846C65.7953 59.4455 66.6669 59.0805 67.3082 58.4336C67.9492 57.787 68.3077 56.9119 68.3077 56.0012C68.3077 55.0905 67.9492 54.2154 67.3082 53.5688C66.6669 52.9219 65.7953 52.5569 64.8846 52.5569H57.6154ZM19.8462 67.0006V39.7681C20.3092 39.8489 20.7849 39.891 21.2692 39.891H66.0962C67.4347 39.891 68.7202 40.4273 69.6694 41.3848C70.6189 42.3426 71.1538 43.6435 71.1538 45.0018V67.0006C71.1538 68.3589 70.6189 69.6598 69.6694 70.6176C68.7202 71.5751 67.4347 72.1114 66.0962 72.1114H24.9038C23.5653 72.1114 22.2798 71.5751 21.3306 70.6176C20.3811 69.6598 19.8462 68.3589 19.8462 67.0006Z" stroke="white" stroke-width="2"/>
</svg>
