<svg width="90" height="90" viewBox="0 0 90 90" fill="none" xmlns="http://www.w3.org/2000/svg">
<path d="M45 21.7717H60V23.9075H45V21.7717ZM34.2857 24.5376L31.5107 21.7717L30 23.2774L34.2857 27.5491L42.8571 19.0058L41.3464 17.5L34.2857 24.5376ZM45 36.7225H60V38.8584H45V36.7225ZM34.2857 39.4885L31.5107 36.7225L30 38.2283L34.2857 42.5L42.8571 33.9566L41.3464 32.4509L34.2857 39.4885Z" fill="#024D81"/>
<path d="M45 51.7717H60V53.9075H45V51.7717ZM34.2857 54.5376L31.5107 51.7717L30 53.2774L34.2857 57.5491L42.8571 49.0058L41.3464 47.5L34.2857 54.5376ZM45 66.7225H60V68.8584H45V66.7225ZM34.2857 69.4885L31.5107 66.7225L30 68.2283L34.2857 72.5L42.8571 63.9566L41.3464 62.4509L34.2857 69.4885Z" fill="#024D81"/>
<path d="M23.3333 11H66.6667C67.5476 11 68.3944 11.3532 69.0203 11.9851C69.6465 12.6173 70 13.4768 70 14.375V75.625C70 76.5232 69.6465 77.3827 69.0203 78.0149C68.3944 78.6468 67.5476 79 66.6667 79H23.3333C22.4524 79 21.6056 78.6468 20.9797 78.0149C20.3535 77.3827 20 76.5232 20 75.625V14.375C20 13.4768 20.3535 12.6173 20.9797 11.9851C21.6056 11.3532 22.4524 11 23.3333 11Z" stroke="#024D81" stroke-width="2"/>
</svg>
