<svg width="90" height="90" viewBox="0 0 90 90" fill="none" xmlns="http://www.w3.org/2000/svg">
<path d="M42.6024 12.7935L42.6028 12.7931C42.8527 12.5413 43.1491 12.3418 43.4749 12.2058C43.8006 12.0699 44.1496 12 44.5018 12C44.8541 12 45.203 12.0699 45.5288 12.2058C45.8546 12.3418 46.151 12.5413 46.4009 12.7931L46.4013 12.7935L72.2137 38.7804L72.2146 38.7813C72.4642 39.0319 72.6623 39.3302 72.7972 39.6591C72.9322 39.9881 73.0011 40.3409 73 40.6971V40.7004V76.2876C73 77.0091 72.7152 77.6998 72.2105 78.2079C71.7059 78.7159 71.0231 79 70.3125 79H18.6875C17.9769 79 17.2941 78.7159 16.7895 78.2079C16.2848 77.6998 16 77.0091 16 76.2876V40.5223C16.0479 39.8642 16.3288 39.246 16.7903 38.78C16.7905 38.7799 16.7906 38.7797 16.7907 38.7796L42.6024 12.7935ZM45.2095 19.2581L44.5 18.5438L43.7905 19.2581L21.6655 41.5326L21.375 41.8251V42.2373V72.5752V73.5752H22.375H66.625H67.625V72.5752V42.2373V41.8251L67.3345 41.5326L45.2095 19.2581ZM30.3976 57.1983L34.1802 53.3577L38.2614 57.4412L38.9703 58.1504L39.6776 57.4397L54.8233 42.22L58.6226 46.0557L38.9668 65.8062L30.3976 57.1983Z" stroke="white" stroke-width="2"/>
</svg>
