<svg width="174" height="174" viewBox="0 0 174 174" fill="none" xmlns="http://www.w3.org/2000/svg">
<g filter="url(#filter0_d_1837_1422)">
<rect x="86.7109" y="16" width="100" height="100" rx="10" transform="rotate(45 86.7109 16)" fill="white"/>
</g>
<g clip-path="url(#clip0_1837_1422)">
<path d="M65.5104 55H107.49C113.854 55 119 60.1458 119 66.5104V106.865C119 113.229 113.854 118.375 107.49 118.375H65.5104C59.1458 118.375 54 113.229 54 106.865V66.5104C54 60.1458 59.1458 55 65.5104 55Z" fill="#001E36"/>
<path d="M68.625 99.4437V71.5749C68.625 71.3853 68.7062 71.277 68.8958 71.277C69.3562 71.277 69.7896 71.277 70.4125 71.2499C71.0625 71.2228 71.7396 71.2228 72.4708 71.1958C73.2021 71.1687 73.9875 71.1687 74.8271 71.1416C75.6667 71.1145 76.4792 71.1145 77.2917 71.1145C79.5125 71.1145 81.3542 71.3853 82.8708 71.9541C84.225 72.4145 85.4708 73.1728 86.5 74.1749C87.3667 75.0416 88.0437 76.0978 88.4771 77.2624C88.8833 78.3999 89.1 79.5645 89.1 80.7833C89.1 83.1124 88.5583 85.0353 87.475 86.552C86.3917 88.0687 84.875 89.2062 83.1146 89.8562C81.2729 90.5332 79.2417 90.777 77.0208 90.777C76.3708 90.777 75.9375 90.777 75.6667 90.7499C75.3958 90.7228 75.0167 90.7228 74.5021 90.7228V99.4166C74.5292 99.6062 74.3937 99.7687 74.2042 99.7957C74.1771 99.7957 74.15 99.7957 74.0958 99.7957H68.95C68.7333 99.7957 68.625 99.6874 68.625 99.4437ZM74.5292 76.5041V85.6041C74.9083 85.6312 75.2604 85.6583 75.5854 85.6583H77.0208C78.0771 85.6583 79.1333 85.4958 80.1354 85.1708C81.0021 84.927 81.7604 84.4124 82.3562 83.7353C82.925 83.0583 83.1958 82.1374 83.1958 80.9458C83.2229 80.1062 83.0062 79.2666 82.5729 78.5353C82.1125 77.8312 81.4625 77.2895 80.6771 76.9916C79.675 76.5853 78.5917 76.4228 77.4812 76.4499C76.7771 76.4499 76.1542 76.4499 75.6396 76.477C75.0979 76.4499 74.7188 76.477 74.5292 76.5041Z" fill="#31A8FF"/>
<path d="M106 83.9519C105.187 83.5186 104.321 83.2206 103.4 83.0311C102.398 82.8144 101.396 82.679 100.366 82.679C99.8247 82.6519 99.2559 82.7331 98.7413 82.8686C98.3893 82.9498 98.0913 83.1394 97.9018 83.4102C97.7663 83.6269 97.6851 83.8977 97.6851 84.1415C97.6851 84.3852 97.7934 84.629 97.9559 84.8456C98.1997 85.1436 98.5247 85.3873 98.8768 85.5769C99.4997 85.9019 100.15 86.1998 100.8 86.4706C102.262 86.9581 103.671 87.6352 104.971 88.4477C105.864 89.0165 106.596 89.7748 107.11 90.6956C107.543 91.5623 107.76 92.5102 107.733 93.4852C107.76 94.7581 107.381 96.0311 106.677 97.0873C105.918 98.1706 104.862 99.0102 103.643 99.4977C102.316 100.066 100.691 100.364 98.7413 100.364C97.4955 100.364 96.2768 100.256 95.058 100.012C94.1101 99.8498 93.1622 99.5519 92.2955 99.1456C92.1059 99.0373 91.9705 98.8477 91.9976 98.6311V93.9186C91.9976 93.8373 92.0247 93.729 92.1059 93.6748C92.1872 93.6206 92.2684 93.6477 92.3497 93.7019C93.4059 94.3248 94.5163 94.7581 95.708 95.029C96.7372 95.2998 97.8205 95.4352 98.9038 95.4352C99.933 95.4352 100.664 95.2998 101.152 95.0561C101.585 94.8665 101.883 94.4061 101.883 93.9186C101.883 93.5394 101.666 93.1873 101.233 92.8352C100.8 92.4831 99.9059 92.0769 98.5788 91.5623C97.1976 91.0748 95.9247 90.4248 94.733 89.6123C93.8934 89.0165 93.1893 88.2311 92.6747 87.3102C92.2413 86.4436 92.0247 85.4956 92.0518 84.5477C92.0518 83.3831 92.3768 82.2727 92.9726 81.2706C93.6497 80.1873 94.6518 79.3206 95.8163 78.779C97.0893 78.129 98.6872 77.8311 100.61 77.8311C101.721 77.8311 102.858 77.9123 103.968 78.0748C104.781 78.1831 105.566 78.3998 106.298 78.6977C106.406 78.7248 106.514 78.8331 106.568 78.9415C106.596 79.0498 106.623 79.1581 106.623 79.2665V83.6811C106.623 83.7894 106.568 83.8977 106.487 83.9519C106.243 84.0061 106.108 84.0061 106 83.9519Z" fill="#31A8FF"/>
</g>
<defs>
<filter id="filter0_d_1837_1422" x="0.142578" y="0.14209" width="173.137" height="173.137" filterUnits="userSpaceOnUse" color-interpolation-filters="sRGB">
<feFlood flood-opacity="0" result="BackgroundImageFix"/>
<feColorMatrix in="SourceAlpha" type="matrix" values="0 0 0 0 0 0 0 0 0 0 0 0 0 0 0 0 0 0 127 0" result="hardAlpha"/>
<feOffset/>
<feGaussianBlur stdDeviation="10"/>
<feComposite in2="hardAlpha" operator="out"/>
<feColorMatrix type="matrix" values="0 0 0 0 0 0 0 0 0 0 0 0 0 0 0 0 0 0 0.1 0"/>
<feBlend mode="normal" in2="BackgroundImageFix" result="effect1_dropShadow_1837_1422"/>
<feBlend mode="normal" in="SourceGraphic" in2="effect1_dropShadow_1837_1422" result="shape"/>
</filter>
<clipPath id="clip0_1837_1422">
<rect width="65" height="63.375" fill="white" transform="translate(54 55)"/>
</clipPath>
</defs>
</svg>
