<svg width="241" height="198" viewBox="0 0 241 198" fill="none" xmlns="http://www.w3.org/2000/svg">
<g filter="url(#filter0_d_686_1156)">
<path d="M178.734 152.259C178.734 152.259 156.192 185.06 119.362 157.928C91.8291 173.316 71.6627 158.94 65.0211 149.829C65.0211 149.829 45.2974 157.928 32.0143 144.16C32.0143 144.16 15.3096 130.391 24.9701 103.462C24.9701 103.462 15.3096 84.6315 26.9827 69.6484C26.9827 69.6484 41.6747 48.3883 63.0084 57.4998C63.0084 57.4998 74.6815 35.025 99.6379 35.025C99.6379 35.025 102.657 18.8268 122.783 13.5625C122.783 13.5625 149.148 7.0832 161.224 35.025C161.224 35.025 203.489 32.5953 203.489 78.3548C203.489 78.3548 222.206 89.0861 219.791 114.598C219.791 114.598 217.174 149.829 178.734 152.259Z" fill="white"/>
<path d="M178.734 152.259C178.734 152.259 156.192 185.06 119.362 157.928C91.8291 173.316 71.6627 158.94 65.0211 149.829C65.0211 149.829 45.2974 157.928 32.0143 144.16C32.0143 144.16 15.3096 130.391 24.9701 103.462C24.9701 103.462 15.3096 84.6315 26.9827 69.6484C26.9827 69.6484 41.6747 48.3883 63.0084 57.4998C63.0084 57.4998 74.6815 35.025 99.6379 35.025C99.6379 35.025 102.657 18.8268 122.783 13.5625C122.783 13.5625 149.148 7.0832 161.224 35.025C161.224 35.025 203.489 32.5953 203.489 78.3548C203.489 78.3548 222.206 89.0861 219.791 114.598C219.791 114.598 217.174 149.829 178.734 152.259Z" stroke="#E8E8E8"/>
</g>
<defs>
<filter id="filter0_d_686_1156" x="0.71582" y="0.412109" width="239.79" height="196.762" filterUnits="userSpaceOnUse" color-interpolation-filters="sRGB">
<feFlood flood-opacity="0" result="BackgroundImageFix"/>
<feColorMatrix in="SourceAlpha" type="matrix" values="0 0 0 0 0 0 0 0 0 0 0 0 0 0 0 0 0 0 127 0" result="hardAlpha"/>
<feOffset dy="8"/>
<feGaussianBlur stdDeviation="10"/>
<feComposite in2="hardAlpha" operator="out"/>
<feColorMatrix type="matrix" values="0 0 0 0 0 0 0 0 0 0 0 0 0 0 0 0 0 0 0.15 0"/>
<feBlend mode="normal" in2="BackgroundImageFix" result="effect1_dropShadow_686_1156"/>
<feBlend mode="normal" in="SourceGraphic" in2="effect1_dropShadow_686_1156" result="shape"/>
</filter>
</defs>
</svg>
