<svg width="90" height="90" viewBox="0 0 90 90" fill="none" xmlns="http://www.w3.org/2000/svg">
<path d="M61 46.7143V42.2857H56.3478C56.0626 40.8995 55.5122 39.5815 54.7269 38.4041L58.0262 35.1048L54.8952 31.9738L51.5959 35.2731C50.4185 34.4878 49.1005 33.9374 47.7143 33.6522V29H43.2857V33.6522C41.8995 33.9374 40.5815 34.4878 39.4041 35.2731L36.1048 31.9738L32.9738 35.1048L36.2731 38.4041C35.4878 39.5815 34.9374 40.8995 34.6522 42.2857H30V46.7143H34.6522C34.9401 48.1248 35.5025 49.4356 36.2731 50.5959L32.9738 53.8952L36.1048 57.0262L39.4041 53.7269C40.5815 54.5122 41.8995 55.0626 43.2857 55.3478V60H47.7143V55.3478C49.1005 55.0626 50.4185 54.5122 51.5959 53.7269L54.8952 57.0262L58.0262 53.8952L54.7269 50.5959C55.5122 49.4185 56.0626 48.1005 56.3478 46.7143H61ZM45.5 51.1429C41.8376 51.1429 38.8571 48.1624 38.8571 44.5C38.8571 40.8376 41.8376 37.8571 45.5 37.8571C49.1624 37.8571 52.1429 40.8376 52.1429 44.5C52.1429 48.1624 49.1624 51.1429 45.5 51.1429Z" stroke="#024D81" stroke-width="2"/>
<path d="M26.85 63.15H16.95V73.05" stroke="#024D81" stroke-width="2" stroke-linecap="round" stroke-linejoin="round"/>
<path d="M73.05 73.05H63.15V63.15" stroke="#024D81" stroke-width="2" stroke-linecap="round" stroke-linejoin="round"/>
<path d="M63.15 26.85H73.05V16.95" stroke="#024D81" stroke-width="2" stroke-linecap="round" stroke-linejoin="round"/>
<path d="M16.95 16.95H26.85V26.85" stroke="#024D81" stroke-width="2" stroke-linecap="round" stroke-linejoin="round"/>
<path d="M26.85 17.4352C17.9033 23.338 12 33.4795 12 45C12 46.6823 12.1259 48.3353 12.3688 49.95" stroke="#024D81" stroke-width="2" stroke-linecap="round" stroke-linejoin="round"/>
<path d="M49.9498 77.6313C48.3351 77.8741 46.6822 78 44.9998 78C33.4794 78 23.3378 72.0967 17.435 63.15" stroke="#024D81" stroke-width="2" stroke-linecap="round" stroke-linejoin="round"/>
<path d="M77.6312 40.05C77.8741 41.6647 78 43.3176 78 45C78 56.5205 72.0966 66.662 63.15 72.5649" stroke="#024D81" stroke-width="2" stroke-linecap="round" stroke-linejoin="round"/>
<path d="M40.05 12.3688C41.6647 12.1259 43.3176 12 45 12C56.5205 12 66.662 17.9033 72.5649 26.85" stroke="#024D81" stroke-width="2" stroke-linecap="round" stroke-linejoin="round"/>
</svg>
