<svg width="90" height="90" viewBox="0 0 90 90" fill="none" xmlns="http://www.w3.org/2000/svg">
<path d="M78.5584 16.8635H12.0319C11.8394 16.8744 11.6532 16.9355 11.4914 17.0404C11.3482 17.1675 11.2413 17.3303 11.1816 17.5122V59.9914C11.2935 60.5403 11.5311 61.0558 11.8756 61.4977C12.2548 61.8722 12.725 62.1415 13.24 62.279H77.0157C77.4921 62.2159 77.9422 62.0239 78.3175 61.7239C78.6089 61.2889 78.7817 60.7853 78.8185 60.263V17.7649C78.8059 17.5093 78.6951 17.2686 78.5088 17.093C78.2476 16.9422 77.9514 16.8622 77.6498 16.8606H69.6939" stroke="#024D81" stroke-width="2" stroke-linecap="square" stroke-linejoin="round"/>
<path d="M34.0371 74H56.8928" stroke="#024D81" stroke-width="2" stroke-linecap="square"/>
<path d="M39.751 72.8573V62.5723" stroke="#024D81" stroke-width="2" stroke-linecap="square"/>
<path d="M51 74L51.1792 62.5723" stroke="#024D81" stroke-width="2" stroke-linecap="square"/>
<path d="M23.5999 35.915L16 37.025L21.5 42.4025L20.1997 50L27 46.415V29L23.5999 35.915Z" fill="#024D81"/>
<path d="M28.4347 46V31.4545H33.8892C35.0066 31.4545 35.9441 31.6629 36.7017 32.0795C37.464 32.4962 38.0393 33.0691 38.4276 33.7983C38.8205 34.5227 39.017 35.3466 39.017 36.2699C39.017 37.2027 38.8205 38.0312 38.4276 38.7557C38.0346 39.4801 37.4545 40.0507 36.6875 40.4673C35.9205 40.8793 34.9759 41.0852 33.8537 41.0852H30.2386V38.919H33.4986C34.152 38.919 34.687 38.8054 35.1037 38.5781C35.5204 38.3509 35.8281 38.0384 36.027 37.6406C36.2306 37.2429 36.3324 36.786 36.3324 36.2699C36.3324 35.7538 36.2306 35.2992 36.027 34.9062C35.8281 34.5133 35.518 34.2079 35.0966 33.9901C34.6799 33.7675 34.1425 33.6562 33.4844 33.6562H31.0696V46H28.4347ZM44.3668 46L40.2617 31.4545H43.0955L45.7163 42.1435H45.8512L48.6495 31.4545H51.2276L54.033 42.1506H54.1609L56.7816 31.4545H59.6154L55.5103 46H52.9109L49.9989 35.794H49.8853L46.9663 46H44.3668ZM61.9432 46H59.1307L64.2514 31.4545H67.5043L72.6321 46H69.8196L65.9347 34.4375H65.821L61.9432 46ZM62.0355 40.2969H69.706V42.4134H62.0355V40.2969Z" fill="#024D81"/>
</svg>
