<svg width="90" height="90" viewBox="0 0 90 90" fill="none" xmlns="http://www.w3.org/2000/svg">
<path d="M74.5854 41.0239L74.432 41.4782L74.6901 41.8822L78.8149 48.3389C78.815 48.3389 78.815 48.339 78.815 48.339C78.9627 48.5714 79.0246 48.8462 78.9911 49.1174C78.9577 49.3886 78.8307 49.6415 78.6299 49.8326L79.3192 50.557L78.6299 49.8326L73.0698 55.1239L72.7234 55.4535L72.7625 55.9301L73.3872 63.5475L73.3874 63.549C73.4101 63.821 73.3373 64.0932 73.1803 64.3195C73.0233 64.5457 72.7913 64.7127 72.5223 64.7902C72.5219 64.7903 72.5216 64.7904 72.5213 64.7905L65.1211 66.9061L64.6638 67.0368L64.4766 67.4741L61.4644 74.512L61.4642 74.5125C61.24 75.037 60.6687 75.3346 60.1153 75.2181L60.1086 75.2167L52.5576 73.6803L52.0943 73.586L51.7275 73.8842L45.7739 78.7234C45.7731 78.724 45.7723 78.7246 45.7715 78.7253C45.5412 78.9087 45.268 79 45 79C44.7295 79 44.4546 78.9072 44.2293 78.7259C44.2291 78.7258 44.2289 78.7256 44.2286 78.7254L38.2725 73.8842L37.9057 73.586L37.4424 73.6803L29.8914 75.2167L29.8893 75.2172C29.6151 75.2736 29.3299 75.2335 29.0829 75.1047C28.8361 74.9759 28.6437 74.7669 28.537 74.5151L28.5356 74.512L25.5234 67.4741L25.3362 67.0368L24.8789 66.9061L17.4796 64.7908C17.4791 64.7906 17.4786 64.7905 17.4781 64.7903C17.2092 64.7124 16.9773 64.5453 16.8204 64.3191C16.6632 64.0926 16.5903 63.8203 16.6127 63.548L16.6128 63.5475L17.2375 55.9301L17.2766 55.4535L16.9302 55.1239L11.3702 49.8326L11.3701 49.8326C11.1693 49.6415 11.0423 49.3886 11.0088 49.1174C10.9754 48.8462 11.0373 48.5713 11.185 48.339C11.185 48.339 11.185 48.3389 11.1851 48.3389L15.3074 41.8791L15.5652 41.4752L15.4119 41.0212L12.9651 33.7744C12.965 33.7742 12.9649 33.774 12.9648 33.7738C12.8779 33.5146 12.8839 33.2338 12.9818 32.9784C13.0799 32.7226 13.2647 32.5066 13.5069 32.3684L13.5078 32.3679L20.1843 28.5483L20.5982 28.3115L20.6747 27.8409L21.9023 20.2945C21.9464 20.0252 22.0831 19.7778 22.2912 19.5949C22.4993 19.412 22.7659 19.3051 23.0461 19.2938C23.0463 19.2938 23.0464 19.2938 23.0466 19.2938L30.7462 18.9947L31.2198 18.9762L31.5054 18.598L36.1244 12.4809C36.1246 12.4806 36.1247 12.4804 36.1249 12.4802C36.2918 12.2604 36.531 12.103 36.8034 12.0362C37.0756 11.9694 37.3626 11.9977 37.6158 12.1159C37.6162 12.1161 37.6166 12.1163 37.617 12.1165L44.573 15.4009L44.9999 15.6025L45.4268 15.401L52.383 12.1179L52.3846 12.1171C52.6366 11.9977 52.9232 11.9684 53.1951 12.0348C53.4669 12.1012 53.7054 12.2587 53.8711 12.4786L53.8716 12.4792L58.4919 18.598L58.7775 18.9762L59.2511 18.9947L66.9488 19.2937C66.9492 19.2938 66.9496 19.2938 66.95 19.2938C67.231 19.3058 67.4982 19.4133 67.7069 19.5968C67.9155 19.7802 68.0529 20.0281 68.0978 20.298C68.0979 20.2983 68.0979 20.2986 68.098 20.299L69.3253 27.8436L69.4018 28.3142L69.8157 28.551L76.4921 32.3705C76.734 32.5089 76.9185 32.725 77.0163 32.9808C77.1141 33.2364 77.1197 33.5173 77.0324 33.7765L74.5854 41.0239ZM42.0695 49.3103L35.5432 42.7313L35.5396 42.7277C35.2628 42.4515 34.9342 42.2327 34.5727 42.0835C34.2113 41.9344 33.824 41.8577 33.433 41.8577C33.0421 41.8577 32.6548 41.9344 32.2934 42.0835C31.9319 42.2327 31.6033 42.4515 31.3265 42.7277L31.3265 42.7277L31.322 42.7322L28.5216 45.5625L28.5192 45.5649C27.9642 46.1297 27.6523 46.8889 27.6523 47.681C27.6523 48.473 27.9642 49.2322 28.5192 49.797L28.5224 49.8003L39.8707 61.2427L39.8748 61.2468C40.6571 62.0264 41.9011 62.6733 43.1177 62.6733C44.4339 62.6733 45.616 61.8555 46.3317 60.805L46.335 60.8001L61.7928 37.8184C61.7929 37.8183 61.7929 37.8183 61.7929 37.8183C62.7082 36.4577 62.362 34.5914 61.0016 33.6589L60.9997 33.6577L57.7166 31.4183C57.7164 31.4181 57.7162 31.418 57.716 31.4178C57.7159 31.4178 57.7159 31.4177 57.7158 31.4177C57.3917 31.1963 57.0267 31.0414 56.6424 30.9616C56.2577 30.8818 55.861 30.8788 55.4752 30.9528L55.6636 31.9349L55.4752 30.9528C55.0894 31.0268 54.7219 31.1764 54.3942 31.3932L54.9459 32.2272L54.3942 31.3932C54.067 31.6097 53.7859 31.8889 53.5676 32.215C53.5673 32.2155 53.567 32.2159 53.5667 32.2164L42.0695 49.3103Z" stroke="#024D81" stroke-width="2"/>
</svg>
