<svg xmlns="http://www.w3.org/2000/svg" width="369" height="348" viewBox="0 0 369 348">
  <path fill="none" stroke="#FFF" stroke-width="1" vector-effect="non-scaling-stroke" d="M378.738281,113 L378.738281,162.429688 C363.152266,170.890667 351.46293,186.142468 343.669922,208.185547 C335.876914,230.228626 331.980469,259.284976 331.980469,295.355469 L331.980469,310.71875 L395.4375,310.71875 L395.4375,459.007812 L247.148438,459.007812 L247.148438,348.125 C247.148438,280.882476 258.058485,227.668165 279.878906,188.480469 C301.699328,149.292773 334.652123,124.132868 378.738281,113 Z M131.589844,113 L131.589844,162.429688 C116.003828,170.890667 104.314492,186.142468 96.5214844,208.185547 C88.7284767,230.228626 84.8320312,259.284976 84.8320312,295.355469 L84.8320312,310.71875 L148.289062,310.71875 L148.289062,459.007812 L0,459.007812 L0,348.125 C0,280.882476 10.9100471,227.668165 32.7304688,188.480469 C54.5508904,149.292773 87.5036858,124.132868 131.589844,113 Z" transform="translate(-27 -112)"/>
</svg>