<svg width="90" height="90" viewBox="0 0 90 90" fill="none" xmlns="http://www.w3.org/2000/svg">
<path d="M46.2605 68.9087L43.0075 68.9887L43.0599 65.7068L56.4942 52.2978L59.6983 55.4994L46.2605 68.9087ZM46.0529 69.1159C46.0532 69.1156 46.0534 69.1153 46.0537 69.1151L46.0529 69.1159Z" stroke="#024D81" stroke-width="2"/>
<line x1="25" y1="47" x2="43" y2="47" stroke="#024D81" stroke-width="2"/>
<line x1="25" y1="52" x2="37.75" y2="52" stroke="#024D81" stroke-width="2"/>
<line x1="25" y1="67" x2="37.75" y2="67" stroke="#024D81" stroke-width="2"/>
<line x1="25" y1="62" x2="33.25" y2="62" stroke="#024D81" stroke-width="2"/>
<line x1="25" y1="72" x2="30.25" y2="72" stroke="#024D81" stroke-width="2"/>
<line x1="25" y1="57" x2="41.5" y2="57" stroke="#024D81" stroke-width="2"/>
<path d="M58.9415 11H30.0526C27.2605 11 24.9971 13.2199 24.9971 15.9583V74.0417C24.9971 76.7801 27.2605 79 30.0526 79H58.9415C61.7336 79 63.9971 76.7801 63.9971 74.0417V15.9583C63.9971 13.2199 61.7336 11 58.9415 11Z" stroke="#024D81" stroke-width="2" stroke-linecap="round" stroke-linejoin="round"/>
<path d="M43.7183 31.7195C45.1678 31.7195 46.3428 30.5444 46.3428 29.0949C46.3428 27.6454 45.1678 26.4704 43.7183 26.4704C42.2688 26.4704 41.0938 27.6454 41.0938 29.0949C41.0938 30.5444 42.2688 31.7195 43.7183 31.7195Z" fill="#024D81"/>
<path d="M36.3693 34.3132L35.7885 34.1647C31.4746 33.0752 29 31.2226 29 29.0891C29 26.9542 31.476 25.103 35.7885 24.0135L36.3693 23.8665L36.5325 24.4414C36.9685 25.9466 37.5272 27.4135 38.2028 28.8274L38.3278 29.0891L38.2028 29.3508C37.5265 30.7668 36.9663 32.2341 36.5325 33.7398L36.3693 34.3132ZM35.5209 25.3515C32.2436 26.2749 30.2307 27.6835 30.2307 29.0891C30.2307 30.4918 32.2421 31.9019 35.5209 32.8238C35.9223 31.5475 36.4075 30.2992 36.9692 29.0891C36.4035 27.877 35.9196 26.6283 35.5209 25.3515ZM51.0653 34.3132L50.9036 33.7368C50.4664 32.2314 49.9073 30.764 49.2318 29.3494L49.1068 29.0891L49.2318 28.8259C49.9082 27.4129 50.4654 25.9441 50.9036 24.4384L51.0653 23.865L51.6461 24.012C55.9615 25.1016 58.4346 26.9527 58.4346 29.0891C58.4346 31.224 55.9601 33.0752 51.6461 34.1647L51.0653 34.3132ZM50.4625 29.0891C51.0506 30.3624 51.5402 31.6151 51.9137 32.8238C55.1925 31.9019 57.2054 30.4918 57.2054 29.0891C57.2054 27.6835 55.194 26.2764 51.9137 25.3515C51.5127 26.6279 51.0279 27.8765 50.4625 29.0891Z" fill="#024D81"/>
<path d="M35.5123 25.3456L35.3506 24.7722C34.1361 20.4965 34.5036 17.4338 36.3607 16.3663C38.1765 15.315 41.0981 16.5575 44.1579 19.6966L44.5754 20.126L44.1579 20.5538C43.0711 21.684 42.0778 22.9006 41.1878 24.1914L41.0216 24.4296L40.7335 24.4531C39.1684 24.5761 37.616 24.8264 36.0916 25.2015L35.5123 25.3456ZM37.8384 17.2162C37.509 17.2162 37.2179 17.2882 36.9723 17.4294C35.7549 18.1307 35.5402 20.5729 36.3783 23.8694C37.6884 23.5798 39.0102 23.3725 40.3424 23.2563C41.1136 22.1624 41.9549 21.1198 42.861 20.1348C40.9452 18.2719 39.1367 17.2162 37.8384 17.2162ZM49.5966 42.1883C47.8499 42.1883 45.6061 40.8709 43.2771 38.4801L42.861 38.0523L43.2771 37.6259C44.3641 36.4938 45.3578 35.2759 46.2487 33.9839L46.4134 33.7486L46.6986 33.7207C48.2642 33.5999 49.8172 33.3506 51.3419 32.9752L51.9227 32.8282L52.0859 33.4031C53.2945 37.6759 52.9284 40.743 51.0743 41.8104C50.6241 42.0656 50.114 42.1961 49.5966 42.1883ZM44.5754 38.042C46.4898 39.9049 48.2998 40.9621 49.5966 40.9621C49.9275 40.9621 50.2186 40.8885 50.4627 40.7489C51.6816 40.046 51.8977 37.5994 51.0567 34.3029C49.7481 34.594 48.4248 34.8028 47.0897 34.919C46.3218 36.0146 45.4818 37.0579 44.5754 38.042Z" fill="#024D81"/>
<path d="M51.9226 25.3456L51.3418 25.2C49.8171 24.8236 48.2641 24.5733 46.6985 24.4516L46.4132 24.4266L46.2485 24.1884C45.3589 22.8968 44.3651 21.6803 43.277 20.5508L42.8609 20.1229L43.277 19.6965C46.3353 16.5588 49.2554 15.3164 51.0742 16.3662C52.9297 17.4352 53.2988 20.4979 52.0858 24.7721L51.9226 25.3456ZM47.0896 23.2562C48.4923 23.3812 49.8214 23.5915 51.0565 23.8694C51.8961 20.5729 51.6814 18.1306 50.4625 17.4278C49.251 16.7265 46.9705 17.7998 44.5753 20.1347C45.481 21.1198 46.322 22.1608 47.0896 23.2562ZM37.8382 42.1882C37.3209 42.1956 36.8108 42.0652 36.3605 41.8104C34.5035 40.7429 34.1359 37.6773 35.3489 33.403L35.5077 32.8281L36.0885 32.9751C37.5059 33.3324 39.0674 33.5839 40.7318 33.7206L41.0171 33.7485L41.1832 33.9838C42.0713 35.2747 43.0653 36.4936 44.1533 37.6258L44.5709 38.0522L44.1533 38.4801C41.8258 40.8723 39.582 42.1882 37.8382 42.1882ZM36.3782 34.3043C35.5401 37.6008 35.7548 40.0474 36.9722 40.7503C38.1852 41.4413 40.4584 40.3753 42.8609 38.0419C41.9551 37.0566 41.1138 36.014 40.3422 34.9204C39.0087 34.8025 37.6845 34.5967 36.3782 34.3043Z" fill="#024D81"/>
<path d="M43.7181 35.0763C42.708 35.0763 41.6714 35.0336 40.6304 34.9469L40.3422 34.9219L40.176 34.6837C39.589 33.8396 39.0367 32.9718 38.5204 32.0827C38.008 31.1911 37.5317 30.2792 37.0927 29.3493L36.9692 29.0891L37.0927 28.8259C37.5324 27.8966 38.0073 26.985 38.5204 26.094C39.0306 25.2177 39.5879 24.3413 40.176 23.4915L40.3422 23.2562L40.6304 23.2298C42.6843 23.0577 44.7489 23.0577 46.8028 23.2298L47.0881 23.2577L47.2542 23.493C48.4302 25.182 49.463 26.9663 50.3419 28.8273L50.464 29.0905L50.3419 29.3508C49.4655 31.213 48.4325 32.9976 47.2542 34.6852L47.0881 34.9233L46.8028 34.9483C45.7648 35.0322 44.7267 35.0763 43.7181 35.0763ZM41.0215 33.7471C42.8373 33.8838 44.5988 33.8838 46.4132 33.7471C47.4261 32.2638 48.3265 30.7068 49.1069 29.0891C48.3293 27.4699 47.4287 25.9126 46.4132 24.431C44.6186 24.2928 42.8161 24.2928 41.0215 24.431C40.0051 25.9121 39.1045 27.4694 38.3278 29.0891C39.1099 30.7059 40.0102 32.2628 41.0215 33.7471Z" fill="#024D81"/>
</svg>
