<svg width="90" height="90" viewBox="0 0 90 90" fill="none" xmlns="http://www.w3.org/2000/svg">
<path d="M19.5 59V79H11V64.25L11 64.2498C10.9994 61.4777 12.0222 58.803 13.8724 56.7387C15.5282 54.8913 17.7422 53.6492 20.1642 53.1922C19.8156 54.6875 19.6029 56.2124 19.5292 57.748L19.5286 57.7604L19.5283 57.7728L19.5003 58.9767L19.5 58.9884V59ZM45 42.5C49.3761 42.5 53.5729 44.2384 56.6673 47.3327C59.7616 50.4271 61.5 54.6239 61.5 59V79H28.5V59C28.5 54.6239 30.2384 50.4271 33.3327 47.3327C36.4271 44.2384 40.6239 42.5 45 42.5ZM79 64.2501V79H70.5V59C70.5 57.0037 70.2719 55.0603 69.8369 53.1941C72.1624 53.6337 74.3035 54.7986 75.9418 56.5396C77.9058 58.6266 78.9995 61.3843 79 64.25C79 64.25 79 64.2501 79 64.2501ZM22.25 32C24.3054 32 26.2767 32.8165 27.7301 34.2699C29.1835 35.7233 30 37.6946 30 39.75C30 41.8054 29.1835 43.7767 27.7301 45.2301C26.2767 46.6835 24.3054 47.5 22.25 47.5C20.1946 47.5 18.2233 46.6835 16.7699 45.2301C15.3165 43.7767 14.5 41.8054 14.5 39.75C14.5 37.6946 15.3165 35.7233 16.7699 34.2699C18.2233 32.8165 20.1946 32 22.25 32ZM67.75 32C69.8054 32 71.7767 32.8165 73.2301 34.2699C74.6835 35.7233 75.5 37.6946 75.5 39.75C75.5 41.8054 74.6835 43.7767 73.2301 45.2301C71.7767 46.6835 69.8054 47.5 67.75 47.5C65.6946 47.5 63.7233 46.6835 62.2699 45.2301C60.8165 43.7767 60 41.8054 60 39.75C60 37.6946 60.8165 35.7233 62.2699 34.2699C63.7233 32.8165 65.6946 32 67.75 32ZM45 11C48.4478 11 51.7544 12.3696 54.1924 14.8076C56.6304 17.2456 58 20.5522 58 24C58 27.4478 56.6304 30.7544 54.1924 33.1924C51.7544 35.6304 48.4478 37 45 37C41.5522 37 38.2456 35.6304 35.8076 33.1924C33.3696 30.7544 32 27.4478 32 24C32 20.5522 33.3696 17.2456 35.8076 14.8076C38.2456 12.3696 41.5522 11 45 11Z" stroke="#024D81" stroke-width="2"/>
<path d="M45.2834 65.3242C46.4846 65.3242 47.4583 64.3504 47.4583 63.1492C47.4583 61.948 46.4846 60.9743 45.2834 60.9743C44.0822 60.9743 43.1084 61.948 43.1084 63.1492C43.1084 64.3504 44.0822 65.3242 45.2834 65.3242Z" fill="#024D81"/>
<path d="M39.1934 67.4736L38.7121 67.3505C35.1371 66.4477 33.0864 64.9124 33.0864 63.1444C33.0864 61.3752 35.1383 59.8411 38.7121 58.9383L39.1934 58.8164L39.3286 59.2928C39.69 60.5402 40.1529 61.7558 40.7128 62.9275L40.8164 63.1444L40.7128 63.3613C40.1523 64.5347 39.6881 65.7507 39.3286 66.9984L39.1934 67.4736ZM38.4903 60.0471C35.7744 60.8123 34.1063 61.9796 34.1063 63.1444C34.1063 64.3068 35.7731 65.4753 38.4903 66.2393C38.823 65.1817 39.2251 64.1472 39.6905 63.1444C39.2217 62.1399 38.8207 61.1052 38.4903 60.0471ZM51.372 67.4736L51.2379 66.996C50.8756 65.7484 50.4123 64.5324 49.8525 63.3601L49.749 63.1444L49.8525 62.9263C50.413 61.7554 50.8748 60.5381 51.2379 59.2904L51.372 58.8152L51.8532 58.937C55.4294 59.8399 57.4789 61.374 57.4789 63.1444C57.4789 64.9136 55.4282 66.4477 51.8532 67.3505L51.372 67.4736ZM50.8724 63.1444C51.3598 64.1996 51.7655 65.2377 52.075 66.2393C54.7922 65.4753 56.4603 64.3068 56.4603 63.1444C56.4603 61.9796 54.7934 60.8135 52.075 60.0471C51.7427 61.1048 51.341 62.1395 50.8724 63.1444Z" fill="#024D81"/>
<path d="M38.483 60.0422L38.349 59.567C37.3426 56.0237 37.6472 53.4856 39.1861 52.601C40.6909 51.7298 43.112 52.7594 45.6476 55.3609L45.9937 55.7166L45.6476 56.0712C44.747 57.0078 43.9239 58.016 43.1863 59.0857L43.0486 59.2831L42.8098 59.3026C41.5129 59.4045 40.2264 59.6119 38.9631 59.9228L38.483 60.0422ZM40.4107 53.3053C40.1377 53.3053 39.8965 53.365 39.693 53.482C38.6841 54.0632 38.5062 56.0871 39.2007 58.8189C40.2864 58.5788 41.3818 58.407 42.4857 58.3108C43.1248 57.4043 43.822 56.5402 44.5729 55.724C42.9853 54.1802 41.4866 53.3053 40.4107 53.3053ZM50.1547 73.9997C48.7072 73.9997 46.8478 72.908 44.9178 70.9268L44.5729 70.5722L44.9178 70.2188C45.8185 69.2807 46.642 68.2714 47.3803 67.2007L47.5168 67.0057L47.7531 66.9826C49.0505 66.8825 50.3375 66.6759 51.601 66.3648L52.0823 66.243L52.2176 66.7194C53.2192 70.2603 52.9158 72.802 51.3793 73.6866C51.0062 73.8981 50.5835 74.0061 50.1547 73.9997ZM45.9937 70.5637C47.5801 72.1075 49.08 72.9835 50.1547 72.9835C50.4289 72.9835 50.6701 72.9226 50.8724 72.8069C51.8825 72.2244 52.0616 70.1969 51.3647 67.4651C50.2802 67.7064 49.1836 67.8794 48.0772 67.9756C47.4409 68.8835 46.7448 69.7481 45.9937 70.5637Z" fill="#024D81"/>
<path d="M52.0821 60.0421L51.6008 59.9215C50.3374 59.6096 49.0504 59.4022 47.7529 59.3013L47.5165 59.2806L47.3801 59.0832C46.6428 58.0129 45.8192 57.0047 44.9176 56.0687L44.5727 55.7141L44.9176 55.3608C47.452 52.7606 49.8718 51.731 51.3791 52.601C52.9168 53.4868 53.2226 56.0249 52.2174 59.5669L52.0821 60.0421ZM48.077 58.3107C49.2395 58.4143 50.3409 58.5885 51.3645 58.8188C52.0602 56.087 51.8823 54.0631 50.8722 53.4807C49.8682 52.8995 47.9783 53.789 45.9935 55.7239C46.744 56.5403 47.441 57.4029 48.077 58.3107ZM40.4104 73.9997C39.9817 74.0058 39.5591 73.8977 39.1859 73.6865C37.647 72.8019 37.3423 70.2614 38.3476 66.7193L38.4792 66.2429L38.9605 66.3648C40.1351 66.6608 41.4291 66.8692 42.8084 66.9825L43.0448 67.0057L43.1825 67.2006C43.9184 68.2704 44.7421 69.2806 45.6438 70.2188L45.9898 70.5721L45.6438 70.9267C43.7149 72.9091 41.8555 73.9997 40.4104 73.9997ZM39.2005 67.4663C38.506 70.1981 38.6839 72.2256 39.6928 72.808C40.698 73.3807 42.5818 72.4973 44.5727 70.5636C43.8221 69.7471 43.1249 68.883 42.4855 67.9768C41.3805 67.8791 40.2831 67.7085 39.2005 67.4663Z" fill="#024D81"/>
<path d="M45.2832 68.106C44.4461 68.106 43.5871 68.0706 42.7244 67.9987L42.4856 67.978L42.3479 67.7806C41.8614 67.0811 41.4037 66.362 40.9759 65.6252C40.5513 64.8863 40.1566 64.1307 39.7928 63.36L39.6904 63.1444L39.7928 62.9263C40.1571 62.1562 40.5507 61.4007 40.9759 60.6624C41.3987 59.9362 41.8605 59.2099 42.3479 58.5057L42.4856 58.3107L42.7244 58.2888C44.4265 58.1462 46.1375 58.1462 47.8395 58.2888L48.0759 58.3119L48.2136 58.5069C49.1881 59.9066 50.044 61.3853 50.7724 62.9275L50.8735 63.1456L50.7724 63.3613C50.046 64.9045 49.19 66.3834 48.2136 67.7819L48.0759 67.9792L47.8395 68C46.9793 68.0694 46.1191 68.106 45.2832 68.106ZM43.0485 67.0045C44.5533 67.1178 46.0131 67.1178 47.5166 67.0045C48.356 65.7753 49.1022 64.485 49.7489 63.1444C49.1045 61.8025 48.3582 60.5121 47.5166 59.2843C46.0295 59.1697 44.5357 59.1697 43.0485 59.2843C42.2062 60.5116 41.46 61.8022 40.8163 63.1444C41.4644 64.4843 42.2105 65.7745 43.0485 67.0045Z" fill="#024D81"/>
</svg>
