<svg width="90" height="90" viewBox="0 0 90 90" fill="none" xmlns="http://www.w3.org/2000/svg">
<path d="M73.2 17.8V16.8H72.2H31.4H30.4V17.8V58.6V59.6H31.4H72.2H73.2V58.6V17.8ZM16.8 72.2V73.2H17.8H64.4V78H17.8C14.6123 78 12 75.3877 12 72.2V25.6H16.8V72.2ZM31.4 12H72.2C75.3877 12 78 14.6123 78 17.8V58.6C78 61.7877 75.3877 64.4 72.2 64.4H31.4C28.2123 64.4 25.6 61.7877 25.6 58.6V17.8C25.6 14.6123 28.2123 12 31.4 12Z" stroke="#024D81" stroke-width="2"/>
<path d="M51.7183 41.7195C53.1678 41.7195 54.3428 40.5444 54.3428 39.0949C54.3428 37.6454 53.1678 36.4704 51.7183 36.4704C50.2688 36.4704 49.0938 37.6454 49.0938 39.0949C49.0938 40.5444 50.2688 41.7195 51.7183 41.7195Z" fill="#024D81"/>
<path d="M44.3693 44.3132L43.7885 44.1647C39.4746 43.0752 37 41.2226 37 39.0891C37 36.9542 39.476 35.103 43.7885 34.0135L44.3693 33.8665L44.5325 34.4414C44.9685 35.9465 45.5272 37.4135 46.2028 38.8274L46.3278 39.0891L46.2028 39.3508C45.5265 40.7667 44.9663 42.2341 44.5325 43.7398L44.3693 44.3132ZM43.5209 35.3515C40.2436 36.2749 38.2307 37.6835 38.2307 39.0891C38.2307 40.4918 40.2421 41.9018 43.5209 42.8237C43.9223 41.5475 44.4075 40.2992 44.9692 39.0891C44.4035 37.877 43.9196 36.6283 43.5209 35.3515ZM59.0653 44.3132L58.9036 43.7368C58.4664 42.2314 57.9073 40.764 57.2318 39.3493L57.1068 39.0891L57.2318 38.8259C57.9082 37.4129 58.4654 35.9441 58.9036 34.4384L59.0653 33.865L59.6461 34.012C63.9615 35.1015 66.4346 36.9527 66.4346 39.0891C66.4346 41.224 63.9601 43.0752 59.6461 44.1647L59.0653 44.3132ZM58.4625 39.0891C59.0506 40.3624 59.5402 41.6151 59.9137 42.8237C63.1925 41.9018 65.2054 40.4918 65.2054 39.0891C65.2054 37.6835 63.194 36.2763 59.9137 35.3515C59.5127 36.6279 59.0279 37.8765 58.4625 39.0891Z" fill="#024D81"/>
<path d="M43.5123 35.3456L43.3506 34.7722C42.1361 30.4965 42.5036 27.4338 44.3607 26.3663C46.1765 25.315 49.0981 26.5575 52.1579 29.6966L52.5754 30.126L52.1579 30.5538C51.0711 31.684 50.0778 32.9006 49.1878 34.1914L49.0216 34.4296L48.7335 34.4531C47.1684 34.5761 45.616 34.8264 44.0916 35.2015L43.5123 35.3456ZM45.8384 27.2162C45.509 27.2162 45.2179 27.2882 44.9723 27.4294C43.7549 28.1307 43.5402 30.5729 44.3783 33.8694C45.6884 33.5798 47.0102 33.3725 48.3424 33.2563C49.1136 32.1624 49.9549 31.1198 50.861 30.1348C48.9452 28.2719 47.1367 27.2162 45.8384 27.2162ZM57.5966 52.1883C55.8499 52.1883 53.6061 50.8709 51.2771 48.4801L50.861 48.0523L51.2771 47.6259C52.3641 46.4938 53.3578 45.2759 54.2487 43.9839L54.4134 43.7486L54.6986 43.7207C56.2642 43.5999 57.8172 43.3506 59.3419 42.9752L59.9227 42.8282L60.0859 43.4031C61.2945 47.6759 60.9284 50.743 59.0743 51.8104C58.6241 52.0656 58.114 52.1961 57.5966 52.1883ZM52.5754 48.042C54.4898 49.9049 56.2998 50.9621 57.5966 50.9621C57.9275 50.9621 58.2186 50.8885 58.4627 50.7489C59.6816 50.046 59.8977 47.5994 59.0567 44.3029C57.7481 44.594 56.4248 44.8028 55.0897 44.919C54.3218 46.0146 53.4818 47.0579 52.5754 48.042Z" fill="#024D81"/>
<path d="M59.9226 35.3456L59.3418 35.2C57.8171 34.8236 56.2641 34.5733 54.6985 34.4516L54.4132 34.4266L54.2485 34.1884C53.3589 32.8968 52.3651 31.6803 51.277 30.5508L50.8609 30.1229L51.277 29.6965C54.3353 26.5588 57.2554 25.3164 59.0742 26.3662C60.9297 27.4352 61.2988 30.4979 60.0858 34.7721L59.9226 35.3456ZM55.0896 33.2562C56.4923 33.3812 57.8214 33.5915 59.0565 33.8694C59.8961 30.5729 59.6814 28.1306 58.4625 27.4278C57.251 26.7265 54.9705 27.7998 52.5753 30.1347C53.481 31.1198 54.322 32.1608 55.0896 33.2562ZM45.8382 52.1882C45.3209 52.1956 44.8108 52.0652 44.3605 51.8104C42.5035 50.7429 42.1359 47.6773 43.3489 43.403L43.5077 42.8281L44.0885 42.9751C45.5059 43.3324 47.0674 43.5839 48.7318 43.7206L49.0171 43.7485L49.1832 43.9838C50.0713 45.2747 51.0653 46.4936 52.1533 47.6258L52.5709 48.0522L52.1533 48.4801C49.8258 50.8723 47.582 52.1882 45.8382 52.1882ZM44.3782 44.3043C43.5401 47.6008 43.7548 50.0474 44.9722 50.7503C46.1852 51.4413 48.4584 50.3753 50.8609 48.0419C49.9551 47.0566 49.1138 46.014 48.3422 44.9204C47.0087 44.8025 45.6845 44.5967 44.3782 44.3043Z" fill="#024D81"/>
<path d="M51.7181 45.0763C50.708 45.0763 49.6714 45.0336 48.6304 44.9469L48.3422 44.9219L48.176 44.6837C47.589 43.8396 47.0367 42.9718 46.5204 42.0827C46.008 41.1911 45.5317 40.2792 45.0927 39.3493L44.9692 39.0891L45.0927 38.8259C45.5324 37.8966 46.0073 36.985 46.5204 36.094C47.0306 35.2177 47.5879 34.3413 48.176 33.4915L48.3422 33.2562L48.6304 33.2298C50.6843 33.0577 52.7489 33.0577 54.8028 33.2298L55.0881 33.2577L55.2542 33.493C56.4302 35.182 57.463 36.9663 58.3419 38.8273L58.464 39.0905L58.3419 39.3508C57.4655 41.213 56.4325 42.9976 55.2542 44.6852L55.0881 44.9233L54.8028 44.9483C53.7648 45.0322 52.7267 45.0763 51.7181 45.0763ZM49.0215 43.7471C50.8373 43.8838 52.5988 43.8838 54.4132 43.7471C55.4261 42.2638 56.3265 40.7068 57.1069 39.0891C56.3293 37.4699 55.4287 35.9126 54.4132 34.431C52.6186 34.2928 50.8161 34.2928 49.0215 34.431C48.0051 35.9121 47.1045 37.4694 46.3278 39.0891C47.1099 40.7059 48.0102 42.2628 49.0215 43.7471Z" fill="#024D81"/>
</svg>
