<svg width="90" height="90" viewBox="0 0 90 90" fill="none" xmlns="http://www.w3.org/2000/svg">
<path d="M58.9444 11H30.0556C27.2635 11 25 13.2199 25 15.9583V74.0417C25 76.7801 27.2635 79 30.0556 79H58.9444C61.7365 79 64 76.7801 64 74.0417V15.9583C64 13.2199 61.7365 11 58.9444 11Z" stroke="#024D81" stroke-width="2" stroke-linecap="round" stroke-linejoin="round"/>
<path d="M18.5424 21.8029C18.5424 21.8029 12.9512 27.2694 11.1406 32.6684" stroke="#024D81" stroke-width="2" stroke-linecap="round"/>
<path d="M11.0029 57.5679C11.0029 57.5679 14.225 64.698 18.6817 68.2394" stroke="#024D81" stroke-width="2" stroke-linecap="round"/>
<path d="M71.2383 21.8029C71.2383 21.8029 76.8295 27.2694 78.6401 32.6684" stroke="#024D81" stroke-width="2" stroke-linecap="round"/>
<path d="M78.7782 57.5701C78.7782 57.5701 75.5562 64.7004 71.0996 68.2416" stroke="#024D81" stroke-width="2" stroke-linecap="round"/>
<path d="M31.2061 58.1055C32.476 60.3825 34.3046 62.2986 36.5199 63.6734C38.735 65.0481 41.2638 65.8362 43.8677 65.9634C46.4718 66.0907 49.0653 65.5526 51.404 64.4004C53.7426 63.2481 55.7493 61.5194 57.2351 59.377" stroke="#024D81" stroke-width="2" stroke-linecap="round"/>
<path d="M31.2061 31.3772C32.476 29.1003 34.3046 27.1841 36.5199 25.8094C38.735 24.4346 41.2638 23.6465 43.8677 23.5193C46.4718 23.3921 49.0653 23.9298 51.404 25.082C53.7426 26.2343 55.7493 27.9634 57.2351 30.1056" stroke="#024D81" stroke-width="2" stroke-linecap="round"/>
<path d="M44.7183 47.7195C46.1678 47.7195 47.3428 46.5444 47.3428 45.0949C47.3428 43.6454 46.1678 42.4704 44.7183 42.4704C43.2688 42.4704 42.0938 43.6454 42.0938 45.0949C42.0938 46.5444 43.2688 47.7195 44.7183 47.7195Z" fill="#024D81"/>
<path d="M37.3693 50.3132L36.7885 50.1647C32.4746 49.0752 30 47.2225 30 45.0891C30 42.9542 32.476 41.103 36.7885 40.0135L37.3693 39.8665L37.5325 40.4414C37.9685 41.9465 38.5272 43.4135 39.2028 44.8274L39.3278 45.0891L39.2028 45.3508C38.5265 46.7667 37.9663 48.2341 37.5325 49.7398L37.3693 50.3132ZM36.5209 41.3515C33.2436 42.2749 31.2307 43.6834 31.2307 45.0891C31.2307 46.4918 33.2421 47.9018 36.5209 48.8237C36.9223 47.5475 37.4075 46.2992 37.9692 45.0891C37.4035 43.877 36.9196 42.6283 36.5209 41.3515ZM52.0653 50.3132L51.9036 49.7368C51.4664 48.2313 50.9073 46.764 50.2318 45.3493L50.1068 45.0891L50.2318 44.8259C50.9082 43.4129 51.4654 41.944 51.9036 40.4384L52.0653 39.865L52.6461 40.012C56.9615 41.1015 59.4346 42.9527 59.4346 45.0891C59.4346 47.224 56.9601 49.0752 52.6461 50.1647L52.0653 50.3132ZM51.4625 45.0891C52.0506 46.3624 52.5402 47.6151 52.9137 48.8237C56.1925 47.9018 58.2054 46.4918 58.2054 45.0891C58.2054 43.6834 56.194 42.2763 52.9137 41.3515C52.5127 42.6279 52.0279 43.8765 51.4625 45.0891Z" fill="#024D81"/>
<path d="M36.5123 41.3456L36.3506 40.7722C35.1361 36.4965 35.5036 33.4338 37.3607 32.3663C39.1765 31.315 42.0981 32.5575 45.1579 35.6966L45.5754 36.126L45.1579 36.5538C44.0711 37.684 43.0778 38.9006 42.1878 40.1914L42.0216 40.4296L41.7335 40.4531C40.1684 40.5761 38.616 40.8264 37.0916 41.2015L36.5123 41.3456ZM38.8384 33.2162C38.509 33.2162 38.2179 33.2882 37.9723 33.4294C36.7549 34.1307 36.5402 36.5729 37.3783 39.8694C38.6884 39.5798 40.0102 39.3725 41.3424 39.2563C42.1136 38.1624 42.9549 37.1198 43.861 36.1348C41.9452 34.2719 40.1367 33.2162 38.8384 33.2162ZM50.5966 58.1883C48.8499 58.1883 46.6061 56.8709 44.2771 54.4801L43.861 54.0523L44.2771 53.6259C45.3641 52.4938 46.3578 51.2759 47.2487 49.9839L47.4134 49.7486L47.6986 49.7207C49.2642 49.5999 50.8172 49.3506 52.3419 48.9752L52.9227 48.8282L53.0859 49.4031C54.2945 53.6759 53.9284 56.743 52.0743 57.8104C51.6241 58.0656 51.114 58.1961 50.5966 58.1883ZM45.5754 54.042C47.4898 55.9049 49.2998 56.9621 50.5966 56.9621C50.9275 56.9621 51.2186 56.8885 51.4627 56.7489C52.6816 56.046 52.8977 53.5994 52.0567 50.3029C50.7481 50.594 49.4248 50.8028 48.0897 50.919C47.3218 52.0146 46.4818 53.0579 45.5754 54.042Z" fill="#024D81"/>
<path d="M52.9226 41.3456L52.3418 41.2C50.8171 40.8237 49.2641 40.5734 47.6985 40.4516L47.4132 40.4266L47.2485 40.1884C46.3589 38.8969 45.3651 37.6803 44.277 36.5508L43.8609 36.123L44.277 35.6966C47.3353 32.5589 50.2554 31.3164 52.0742 32.3662C53.9297 33.4352 54.2988 36.4979 53.0858 40.7722L52.9226 41.3456ZM48.0896 39.2562C49.4923 39.3812 50.8214 39.5915 52.0565 39.8694C52.8961 36.5729 52.6814 34.1307 51.4625 33.4278C50.251 32.7265 47.9705 33.7998 45.5753 36.1347C46.481 37.1198 47.322 38.1608 48.0896 39.2562ZM38.8382 58.1883C38.3209 58.1957 37.8108 58.0652 37.3605 57.8104C35.5035 56.7429 35.1359 53.6773 36.3489 49.403L36.5077 48.8281L37.0885 48.9751C38.5059 49.3324 40.0674 49.5839 41.7318 49.7206L42.0171 49.7485L42.1832 49.9838C43.0713 51.2748 44.0653 52.4937 45.1533 53.6258L45.5709 54.0522L45.1533 54.4801C42.8258 56.8723 40.582 58.1883 38.8382 58.1883ZM37.3782 50.3043C36.5401 53.6008 36.7548 56.0475 37.9722 56.7503C39.1852 57.4413 41.4584 56.3753 43.8609 54.0419C42.9551 53.0566 42.1138 52.014 41.3422 50.9204C40.0087 50.8025 38.6845 50.5967 37.3782 50.3043Z" fill="#024D81"/>
<path d="M44.7181 51.0763C43.708 51.0763 42.6714 51.0336 41.6304 50.9469L41.3422 50.9219L41.176 50.6837C40.589 49.8396 40.0367 48.9719 39.5204 48.0827C39.008 47.1911 38.5317 46.2793 38.0927 45.3493L37.9692 45.0891L38.0927 44.8259C38.5324 43.8966 39.0073 42.985 39.5204 42.094C40.0306 41.2177 40.5879 40.3414 41.176 39.4915L41.3422 39.2563L41.6304 39.2298C43.6843 39.0578 45.7489 39.0578 47.8028 39.2298L48.0881 39.2577L48.2542 39.493C49.4302 41.182 50.463 42.9664 51.3419 44.8274L51.464 45.0905L51.3419 45.3508C50.4655 47.2131 49.4325 48.9976 48.2542 50.6852L48.0881 50.9234L47.8028 50.9484C46.7648 51.0322 45.7267 51.0763 44.7181 51.0763ZM42.0215 49.7471C43.8373 49.8838 45.5988 49.8838 47.4132 49.7471C48.4261 48.2638 49.3265 46.7068 50.1069 45.0891C49.3293 43.4699 48.4287 41.9127 47.4132 40.4311C45.6186 40.2928 43.8161 40.2928 42.0215 40.4311C41.0051 41.9121 40.1045 43.4694 39.3278 45.0891C40.1099 46.7059 41.0102 48.2628 42.0215 49.7471Z" fill="#024D81"/>
</svg>
