<svg width="90" height="90" viewBox="0 0 90 90" fill="none" xmlns="http://www.w3.org/2000/svg">
<path d="M31.3643 78.2245L32.0369 78.8358L32.7095 78.2245C39.4262 72.1196 44.5021 66.4375 47.9046 61.1785C51.3043 55.9238 53.0738 51.0287 53.0738 46.5184C53.0738 40.939 50.8574 35.5882 46.9122 31.643C42.9671 27.6978 37.6162 25.4814 32.0369 25.4814C26.4576 25.4814 21.1068 27.6978 17.1616 31.643C13.2164 35.5882 11 40.939 11 46.5184C11 51.0287 12.7695 55.9238 16.1692 61.1785C19.5717 66.4375 24.6476 72.1196 31.3643 78.2245ZM42.922 35.6333C45.8089 38.5202 47.4307 42.4357 47.4307 46.5184C47.4307 49.6219 46.1846 53.308 43.5163 57.5669C40.9665 61.6366 37.1577 66.1661 32.0369 71.1215C26.9161 66.1661 23.1073 61.6366 20.5575 57.5669C17.8892 53.308 16.6431 49.6219 16.6431 46.5184C16.6431 42.4357 18.2649 38.5202 21.1518 35.6333C24.0387 32.7464 27.9542 31.1245 32.0369 31.1245C36.1196 31.1245 40.0351 32.7464 42.922 35.6333Z" stroke="white" stroke-width="2"/>
<path d="M68.2195 38.3415L68.5585 38.6543L68.8975 38.3415C72.3969 35.1136 75.0402 32.1103 76.8115 29.3317C78.5815 26.5553 79.5001 23.9729 79.5001 21.5969C79.5001 18.6562 78.3491 15.8345 76.298 13.7528C74.2466 11.671 71.4628 10.5 68.5585 10.5C65.6542 10.5 62.8704 11.671 60.8191 13.7528C58.7679 15.8345 57.6169 18.6562 57.6169 21.5969C57.6169 23.9729 58.5355 26.5553 60.3055 29.3317C62.0768 32.1103 64.7201 35.1136 68.2195 38.3415ZM74.2432 15.8171C75.7524 17.3488 76.6016 19.4277 76.6016 21.5969C76.6016 23.2477 75.9487 25.2036 74.5567 27.4584C73.2244 29.6166 71.234 32.0178 68.5585 34.644C65.883 32.0178 63.8926 29.6166 62.5603 27.4584C61.1683 25.2036 60.5154 23.2477 60.5154 21.5969C60.5154 19.4277 61.3646 17.3488 62.8738 15.8171C64.3827 14.2857 66.4277 13.4267 68.5585 13.4267C70.6893 13.4267 72.7343 14.2857 74.2432 15.8171Z" stroke="white"/>
<path d="M35.1936 49.6748C34.3563 50.5121 33.2207 50.9824 32.0366 50.9824C30.8525 50.9824 29.717 50.5121 28.8797 49.6748C28.0424 48.8375 27.572 47.7019 27.572 46.5178C27.572 45.3337 28.0424 44.1982 28.8797 43.3609C29.717 42.5236 30.8525 42.0532 32.0366 42.0532C33.2207 42.0532 34.3563 42.5236 35.1936 43.3609C36.0309 44.1982 36.5012 45.3337 36.5012 46.5178C36.5012 47.7019 36.0309 48.8375 35.1936 49.6748ZM24.8894 53.665C26.785 55.5606 29.3559 56.6255 32.0366 56.6255C34.7174 56.6255 37.2883 55.5606 39.1838 53.665C41.0794 51.7695 42.1443 49.1986 42.1443 46.5178C42.1443 43.8371 41.0794 41.2662 39.1838 39.3706C37.2883 37.4751 34.7174 36.4102 32.0366 36.4102C29.3559 36.4102 26.785 37.4751 24.8894 39.3706C22.9939 41.2662 21.929 43.8371 21.929 46.5178C21.929 49.1986 22.9939 51.7695 24.8894 53.665Z" stroke="white" stroke-width="2"/>
<path d="M70.6703 23.5544C70.2256 23.9991 69.6224 24.2489 68.9935 24.2489C68.3645 24.2489 67.7614 23.9991 67.3166 23.5544C66.8719 23.1096 66.622 22.5065 66.622 21.8775C66.622 21.2486 66.8719 20.6454 67.3166 20.2007C67.7614 19.7559 68.3645 19.5061 68.9935 19.5061C69.6224 19.5061 70.2256 19.7559 70.6703 20.2007C71.1151 20.6454 71.3649 21.2486 71.3649 21.8775C71.3649 22.5065 71.1151 23.1096 70.6703 23.5544ZM65.2559 25.6151C66.2472 26.6063 67.5916 27.1632 68.9935 27.1632C70.3953 27.1632 71.7398 26.6063 72.731 25.6151C73.7223 24.6238 74.2792 23.2794 74.2792 21.8775C74.2792 20.4757 73.7223 19.1312 72.731 18.1399C71.7398 17.1487 70.3953 16.5918 68.9935 16.5918C67.5916 16.5918 66.2472 17.1487 65.2559 18.1399C64.2646 19.1312 63.7078 20.4757 63.7078 21.8775C63.7078 23.2794 64.2646 24.6238 65.2559 25.6151Z" stroke="white"/>
<path d="M32 79C43.8077 79.6875 68.8414 60.291 68.5 39.5" stroke="white" stroke-dasharray="2 2"/>
</svg>
