<svg width="90" height="90" viewBox="0 0 90 90" fill="none" xmlns="http://www.w3.org/2000/svg">
<path d="M61.7731 65.2931L61.48 64.9992H61.065H20.5C17.9804 64.9992 15.5641 63.9983 13.7825 62.2168C12.0009 60.4352 11 58.0189 11 55.4994V20.4999C11 17.9803 12.0009 15.564 13.7825 13.7824C15.5641 12.0009 17.9804 11 20.5 11H69.5C72.0196 11 74.4359 12.0009 76.2175 13.7824C77.9991 15.564 79 17.9803 79 20.4999V76.4968C78.997 76.9894 78.8485 77.4702 78.5732 77.8787L79.4025 78.4376L78.5732 77.8787C78.2974 78.288 77.9066 78.6065 77.45 78.794L77.4264 78.8037L77.4034 78.8146C77.1293 78.9439 76.8287 79.0072 76.5258 78.9994L76.51 78.9989L76.4942 78.999C76.1652 79.0009 75.839 78.9379 75.5345 78.8135C75.2305 78.6893 74.954 78.5066 74.7207 78.2756C74.7202 78.2751 74.7197 78.2746 74.7192 78.274L61.7731 65.2931ZM72.2914 68.7698L74 70.4858V68.0642V20.4999C74 19.3064 73.5259 18.1618 72.682 17.3179C71.8381 16.474 70.6935 15.9999 69.5 15.9999H20.5C19.3065 15.9999 18.1619 16.474 17.318 17.3179C16.4741 18.1618 16 19.3064 16 20.4999V55.4994C16 56.6928 16.4741 57.8374 17.318 58.6813C18.1619 59.5252 19.3065 59.9993 20.5 59.9993L62.5 59.9993L62.5058 59.9993C62.8348 59.9974 63.161 60.0605 63.4656 60.1849C63.7693 60.3089 64.0456 60.4916 64.2788 60.7223C64.2795 60.723 64.2801 60.7236 64.2808 60.7243L72.2914 68.7698ZM26.1111 28.9211C26.5222 28.6464 27.0055 28.4998 27.5 28.4998C28.163 28.4998 28.7989 28.7631 29.2678 29.232C29.7366 29.7008 30 30.3367 30 30.9997C30 31.4942 29.8534 31.9775 29.5787 32.3886C29.304 32.7997 28.9135 33.1201 28.4567 33.3094C27.9999 33.4986 27.4972 33.5481 27.0123 33.4516C26.5273 33.3552 26.0819 33.1171 25.7322 32.7674C25.3826 32.4178 25.1445 31.9724 25.048 31.4874C24.9516 31.0025 25.0011 30.4998 25.1903 30.043C25.3795 29.5862 25.6999 29.1958 26.1111 28.9211ZM26.1111 42.9209C26.5222 42.6462 27.0055 42.4996 27.5 42.4996C28.163 42.4996 28.7989 42.763 29.2678 43.2318C29.7366 43.7006 30 44.3365 30 44.9995C30 45.494 29.8534 45.9773 29.5787 46.3884C29.304 46.7995 28.9135 47.1199 28.4567 47.3092C27.9999 47.4984 27.4972 47.5479 27.0123 47.4514C26.5273 47.355 26.0819 47.1169 25.7322 46.7672C25.3826 46.4176 25.1445 45.9722 25.048 45.4872C24.9516 45.0023 25.0011 44.4996 25.1903 44.0428C25.3795 43.586 25.6999 43.1956 26.1111 42.9209ZM41.5 42.4996H62.5C63.163 42.4996 63.7989 42.763 64.2678 43.2318C64.7366 43.7006 65 44.3365 65 44.9995C65 45.6625 64.7366 46.2984 64.2678 46.7672C63.7989 47.2361 63.163 47.4995 62.5 47.4995H41.5C40.837 47.4995 40.2011 47.2361 39.7322 46.7672C39.2634 46.2984 39 45.6625 39 44.9995C39 44.3365 39.2634 43.7006 39.7322 43.2318C40.2011 42.763 40.837 42.4996 41.5 42.4996ZM41.5 28.4998H62.5C63.163 28.4998 63.7989 28.7631 64.2678 29.232C64.7366 29.7008 65 30.3367 65 30.9997C65 31.6627 64.7366 32.2986 64.2678 32.7674C63.7989 33.2363 63.163 33.4997 62.5 33.4997H41.5C40.837 33.4997 40.2011 33.2363 39.7322 32.7674C39.2634 32.2986 39 31.6627 39 30.9997C39 30.3367 39.2634 29.7008 39.7322 29.232C40.2011 28.7631 40.837 28.4998 41.5 28.4998Z" stroke="white" stroke-width="2"/>
</svg>
