<svg width="90" height="90" viewBox="0 0 90 90" fill="none" xmlns="http://www.w3.org/2000/svg">
<path d="M70.8889 52V51H69.8889H60.2222V24C60.2222 21.3191 61.989 18.0733 65.0781 15.4525C67.917 13.0439 71.7546 11.2723 76 11.0287V79H70.8889V52ZM41.4444 35.5H42.4444V34.5V11H47.5556V34.5C47.5556 41.6679 41.6537 47.5 34.3333 47.5H33.3333V48.5V79H28.2222V48.5V47.5H27.2222C19.9018 47.5 14 41.6679 14 34.5V11H19.1111V34.5V35.5H20.1111H27.2222H28.2222V34.5V11H33.3333V34.5V35.5H34.3333H41.4444Z" stroke="white" stroke-width="2"/>
</svg>
