<svg width="90" height="90" viewBox="0 0 90 90" fill="none" xmlns="http://www.w3.org/2000/svg">
<path d="M77.8133 41.9867L77.8132 41.9865L77.8021 41.9953L62.8348 53.8516C62.679 53.9695 62.5627 54.1319 62.501 54.3172C62.4389 54.5043 62.4354 54.7059 62.4909 54.8949C62.4913 54.8962 62.4917 54.8975 62.4921 54.8989L67.6639 73.1908L67.6647 73.1936C67.9036 74.0196 67.8813 74.8997 67.6011 75.7125C67.321 76.5247 66.7971 77.2297 66.1016 77.7309C65.3999 78.2313 64.5604 78.5 63.6998 78.5C62.8389 78.5 61.9994 78.2312 61.2976 77.7307L61.2977 77.7305L61.2862 77.7228L45.5381 67.137C45.537 67.1363 45.536 67.1356 45.535 67.1349C45.3745 67.0247 45.1843 66.9656 44.9894 66.9656C44.7947 66.9656 44.6046 67.0246 44.4442 67.1347C44.4431 67.1355 44.442 67.1363 44.4408 67.137L28.6927 77.7228L28.6904 77.7243C27.9782 78.2088 27.1347 78.4614 26.2746 78.448C25.4145 78.4346 24.5792 78.1557 23.8824 77.6492C23.1856 77.1426 22.6611 76.4329 22.3805 75.6165C22.0998 74.8 22.0768 73.9166 22.3145 73.0865L22.3152 73.0843L27.4468 54.849L27.4468 54.849L27.4487 54.842C27.4982 54.6558 27.4922 54.4591 27.4314 54.2763C27.3706 54.0934 27.2577 53.9322 27.1063 53.8127L27.1061 53.8126L12.197 42.0581L12.1971 42.058L12.1867 42.0502C11.4855 41.5263 10.9651 40.7953 10.6988 39.9595C10.4325 39.1237 10.4338 38.2252 10.7023 37.3901C10.9708 36.5551 11.4931 35.8255 12.1957 35.3035C12.8983 34.7815 13.7459 34.4933 14.6198 34.479L14.6198 34.4791L14.6305 34.4787L33.6365 33.7586L33.6443 33.7583L33.6521 33.7578C33.842 33.7446 34.024 33.6767 34.1761 33.5623C34.3281 33.4479 34.4438 33.292 34.5093 33.1136L34.5093 33.1134L41.0558 15.2593L41.0561 15.2585C41.3511 14.4494 41.8868 13.751 42.5903 13.2577L42.3054 12.8513L42.5903 13.2577C43.2938 12.7644 44.1313 12.5 44.9894 12.5C45.8475 12.5 46.6851 12.7644 47.3886 13.2577L47.6735 12.8513L47.3886 13.2577C48.0921 13.751 48.6278 14.4494 48.9227 15.2585L48.9234 15.2604L55.4907 33.05C55.5562 33.2285 55.6719 33.3844 55.8239 33.4987C55.976 33.6131 56.158 33.6811 56.3479 33.6942L56.3557 33.6948L56.3635 33.6951L75.3695 34.4152L75.3695 34.4153L75.3802 34.4155C76.2541 34.4298 77.1017 34.718 77.8043 35.24C78.5069 35.7619 79.0292 36.4915 79.2977 37.3266C79.5662 38.1617 79.5675 39.0602 79.3012 39.896C79.0349 40.7318 78.5145 41.4628 77.8133 41.9867ZM45.5286 15.9231L45.293 16.252L45.5286 15.9231C45.3513 15.7961 45.1347 15.736 44.9172 15.7537L44.4578 15.7911V16.252V63.2276V63.7278L44.958 63.7276C45.7911 63.7272 46.6054 63.9774 47.2955 64.446L47.2974 64.4473L63.0261 75.02C63.1839 75.1515 63.38 75.2294 63.5859 75.2416C63.8064 75.2546 64.0246 75.1915 64.2041 75.0629C64.3835 74.9344 64.5133 74.7483 64.5722 74.5358C64.6277 74.3359 64.6173 74.1236 64.5431 73.9305L59.3768 55.6582C59.1493 54.8498 59.1698 53.9914 59.4357 53.1949C59.7015 52.3984 60.2003 51.7009 60.8668 51.1931L60.8668 51.1931L60.8733 51.188L75.7737 39.4404C75.9361 39.322 76.0575 39.1558 76.121 38.965C76.1861 38.7692 76.187 38.5577 76.1234 38.3615L75.6477 38.5156L76.1233 38.3614C76.0597 38.1651 75.9349 37.9942 75.7671 37.874L75.4759 38.2804L75.767 37.874C75.6034 37.7568 75.4073 37.6937 75.2062 37.6937L56.2119 36.974C55.3809 36.9415 54.5782 36.6615 53.9062 36.1695C53.2342 35.6776 52.7233 34.9958 52.4389 34.2111L52.438 34.2085L45.8777 16.4166C45.8201 16.218 45.6974 16.044 45.5286 15.9231Z" fill="white" stroke="white"/>
</svg>
