<svg width="90" height="90" viewBox="0 0 90 90" fill="none" xmlns="http://www.w3.org/2000/svg">
<path d="M35.9774 37.2161V36.7591L35.632 36.4601C33.5259 34.6366 32.0487 32.2469 31.3882 29.6089C30.7277 26.9713 30.9131 24.2031 31.921 21.6672C32.9292 19.1308 34.715 16.9412 37.0498 15.3915C39.3844 13.8419 42.1562 13.0066 45 13C47.8438 13.0066 50.6156 13.8419 52.9502 15.3915C55.285 16.9412 57.0708 19.1308 58.079 21.6672C59.0869 24.2031 59.2723 26.9713 58.6118 29.6089C57.9513 32.2469 56.4741 34.6366 54.368 36.4601L54.0226 36.7591V37.2161V55.1706L45.5399 49.7297L45 49.3834L44.4601 49.7297L35.9774 55.1706V37.2161ZM51.1431 51.8319L52.6817 52.8153V50.9893V39.4018V37.8048L51.245 38.5022C49.31 39.4415 47.1709 39.9317 45 39.9317C42.8291 39.9317 40.69 39.4415 38.755 38.5022L37.3183 37.8048V39.4018V50.9893V52.8153L38.8569 51.8319L43.6844 48.7462L43.6857 48.7453L45 47.9023L46.3143 48.7453L46.3156 48.7462L51.1431 51.8319ZM46.1062 38.6536C49.0158 38.4079 51.7536 37.2008 53.853 35.2289C55.0638 34.0916 56.0286 32.731 56.6888 31.2258C57.3491 29.7205 57.6909 28.102 57.693 26.4656C57.6967 23.6265 56.6788 20.879 54.8206 18.6889C52.963 16.4996 50.3814 15.0029 47.5181 14.4436C44.655 13.8844 41.6778 14.295 39.0898 15.609C36.5012 16.9234 34.4564 19.0637 33.3112 21.6745C32.1657 24.2862 31.9942 27.2016 32.8277 29.9228C33.6608 32.6433 35.4442 34.9939 37.865 36.5818C40.2851 38.1691 43.1966 38.8992 46.1062 38.6536Z" stroke="white" stroke-width="2"/>
<path d="M14.3183 57.9314V57.4937L13.9967 57.1968C12.6399 55.9438 11.6816 54.295 11.2523 52.4661C10.8229 50.637 10.9438 48.7172 11.5982 46.961C12.2526 45.2049 13.4083 43.6979 14.909 42.6354C16.4087 41.5736 18.1836 41.0047 20 41C21.8164 41.0047 23.5913 41.5736 25.091 42.6354C26.5917 43.6979 27.7474 45.2049 28.4018 46.961C29.0562 48.7172 29.1771 50.637 28.7477 52.4661C28.3184 54.2951 27.3601 55.9438 26.0033 57.1968L25.6817 57.4937V57.9314V70.1042L20.5647 66.6033L20 66.2169L19.4353 66.6033L14.3183 70.1042V57.9314ZM23.8911 68.5519L25.4545 69.6178V67.7257V59.4857V57.8418L23.9947 58.5977C22.7545 59.2398 21.3864 59.5736 20 59.5736C18.6136 59.5736 17.2455 59.2398 16.0053 58.5977L14.5455 57.8418V59.4857V67.7257V69.6178L16.1089 68.5519L19.3272 66.3577L19.3285 66.3568L20 65.8974L20.6715 66.3568L20.6728 66.3577L23.8911 68.5519ZM20.771 59.241C22.8009 59.0582 24.7021 58.1605 26.1534 56.7064C26.99 55.8682 27.6537 54.8684 28.1069 53.7664C28.56 52.6644 28.7939 51.4815 28.7953 50.2869C28.7979 48.2158 28.1021 46.2043 26.8213 44.5941C25.5401 42.9834 23.751 41.8725 21.7549 41.4566C19.7584 41.0407 17.684 41.3471 15.8855 42.3212C14.0875 43.2949 12.679 44.8739 11.8931 46.785C11.1075 48.6956 10.9906 50.8248 11.5614 52.8128C12.1323 54.8011 13.3576 56.5311 15.0357 57.7051C16.7144 58.8796 18.741 59.4238 20.771 59.241Z" stroke="white" stroke-width="2"/>
<path d="M64.3183 57.9314V57.4937L63.9967 57.1968C62.6399 55.9438 61.6816 54.295 61.2523 52.4661C60.8229 50.637 60.9438 48.7172 61.5982 46.961C62.2526 45.2049 63.4083 43.6979 64.909 42.6354C66.4087 41.5736 68.1836 41.0047 70 41C71.8164 41.0047 73.5913 41.5736 75.091 42.6354C76.5917 43.6979 77.7474 45.2049 78.4018 46.961C79.0562 48.7172 79.1771 50.637 78.7477 52.4661C78.3184 54.2951 77.3601 55.9438 76.0033 57.1968L75.6817 57.4937V57.9314V70.1042L70.5647 66.6033L70 66.2169L69.4353 66.6033L64.3183 70.1042V57.9314ZM73.8911 68.5519L75.4545 69.6178V67.7257V59.4857V57.8418L73.9947 58.5977C72.7545 59.2398 71.3864 59.5736 70 59.5736C68.6136 59.5736 67.2455 59.2398 66.0053 58.5977L64.5455 57.8418V59.4857V67.7257V69.6178L66.1089 68.5519L69.3272 66.3577L69.3285 66.3568L70 65.8974L70.6715 66.3568L70.6728 66.3577L73.8911 68.5519ZM70.771 59.241C72.8009 59.0582 74.7021 58.1605 76.1534 56.7064C76.99 55.8682 77.6537 54.8684 78.1069 53.7664C78.56 52.6644 78.7939 51.4815 78.7953 50.2869C78.7979 48.2158 78.1021 46.2043 76.8213 44.5941C75.5401 42.9834 73.751 41.8725 71.7549 41.4566C69.7584 41.0407 67.684 41.3471 65.8855 42.3212C64.0875 43.2949 62.679 44.8739 61.8931 46.785C61.1075 48.6956 60.9906 50.8248 61.5614 52.8128C62.1323 54.8011 63.3576 56.5311 65.0357 57.7051C66.7144 58.8796 68.741 59.4238 70.771 59.241Z" stroke="white" stroke-width="2"/>
</svg>
