<svg width="90" height="90" viewBox="0 0 90 90" fill="none" xmlns="http://www.w3.org/2000/svg">
<path d="M59.0775 29.8406L32.47 46.7811C32.9455 48.2947 33.1021 49.8904 32.9301 51.4676L58.0819 60.8981C59.6886 58.6059 62.0762 56.9784 64.7971 56.3206C67.518 55.6629 70.3854 56.0201 72.8617 57.3253C75.3381 58.6305 77.2534 60.7941 78.2486 63.4105C79.2438 66.0269 79.2506 68.9164 78.2677 71.5375C77.2849 74.1585 75.3798 76.3311 72.9096 77.6479C70.4394 78.9648 67.5738 79.3355 64.8498 78.6906C62.1258 78.0457 59.7306 76.4294 58.1131 74.1448C56.4956 71.8601 55.7669 69.064 56.0635 66.2805L30.9175 56.8499C29.57 58.7719 27.6666 60.2356 25.463 61.0444C23.2594 61.8531 20.861 61.9682 18.5901 61.3741C16.3192 60.7801 14.2844 59.5053 12.7591 57.7211C11.2338 55.937 10.2909 53.7287 10.0572 51.3931C9.82343 49.0574 10.31 46.7061 11.4515 44.655C12.593 42.6039 14.3348 40.9513 16.443 39.919C18.5511 38.8867 20.9247 38.5242 23.2449 38.8802C25.565 39.2362 27.7207 40.2937 29.4224 41.9105L56.5293 24.9643C55.6863 22.2951 55.8457 19.41 56.9777 16.8499C58.1096 14.2898 60.1364 12.2305 62.6781 11.0578C65.2198 9.88518 68.1019 9.67978 70.7843 10.4801C73.4666 11.2805 75.7649 13.0316 77.2485 15.4053C78.732 17.779 79.2989 20.6123 78.843 23.3741C78.387 26.1359 76.9394 28.6366 74.7716 30.4074C72.6037 32.1783 69.8645 33.0977 67.0672 32.9933C64.27 32.889 61.5933 31.768 59.5634 29.8406H59.0775Z" stroke="white" stroke-width="2"/>
</svg>
