<svg width="90" height="90" viewBox="0 0 90 90" fill="none" xmlns="http://www.w3.org/2000/svg">
<path d="M26.6667 12H19.3333C17.3884 12 15.5232 12.7726 14.1479 14.1479C12.7726 15.5232 12 17.3884 12 19.3333M63.3333 12H70.6667C72.6116 12 74.4769 12.7726 75.8521 14.1479C77.2274 15.5232 78 17.3884 78 19.3333M59.6667 30.3333V37.6667M30.3333 30.3333V37.6667M34 59.6667C34 59.6667 37.6667 63.3333 45 63.3333C52.3333 63.3333 56 59.6667 56 59.6667M45 30.3333V48.6667H41.3333M19.3333 78C17.3884 78 15.5232 77.2274 14.1479 75.8521C12.7726 74.4769 12 72.6116 12 70.6667V63.3333M63.3333 78H70.6667C72.6116 78 74.4769 77.2274 75.8521 75.8521C77.2274 74.4769 78 72.6116 78 70.6667V63.3333" stroke="white" stroke-width="2" stroke-linecap="round" stroke-linejoin="round"/>
</svg>
