<svg width="50" height="50" viewBox="0 0 50 50" fill="none" xmlns="http://www.w3.org/2000/svg">
<path d="M33.7148 17.9554C33.1461 17.6608 32.4452 17.8841 32.1505 18.453L27.0706 28.2778C26.776 28.8479 26.9981 29.5478 27.5681 29.8424C27.7389 29.9309 27.9213 29.9729 28.1004 29.9729C28.5205 29.9729 28.9262 29.7441 29.1324 29.3443L34.2129 19.5201C34.5069 18.9512 34.2848 18.2501 33.7148 17.9554Z" fill="white"/>
<path d="M37.7981 18.1194C37.32 17.692 36.586 17.7362 36.1592 18.2156C35.7335 18.6949 35.7773 19.4281 36.2565 19.8538L40.8052 23.8998L36.2565 27.943C35.7773 28.3693 35.7341 29.1041 36.1592 29.5834C36.3892 29.8416 36.7076 29.9721 37.0281 29.9721C37.3023 29.9721 37.5776 29.8748 37.7981 29.6796L43.3236 24.7673C43.5719 24.5472 43.7133 24.2316 43.7133 23.9003C43.7133 23.5675 43.5719 23.2524 43.3236 23.0334L37.7981 18.1194Z" fill="white"/>
<path d="M25.3498 18.2156C24.9236 17.7362 24.1901 17.692 23.7109 18.1194L18.1854 23.0324C17.9372 23.2512 17.7957 23.567 17.7957 23.8992C17.7957 24.231 17.9383 24.5462 18.1854 24.7662L23.7109 29.6786C23.9319 29.8743 24.2073 29.971 24.4819 29.971C24.8015 29.971 25.121 29.8405 25.3498 29.5824C25.7755 29.103 25.7329 28.3687 25.2525 27.942L20.7038 23.8987L25.2531 19.8527C25.7329 19.4281 25.7755 18.6949 25.3498 18.2156Z" fill="white"/>
<path d="M28.0887 36.474C28.0887 35.8327 27.5697 35.313 26.9279 35.313H19.6352C18.9952 35.313 18.4744 35.8321 18.4744 36.474C18.4744 37.1159 18.9946 37.6362 19.6352 37.6362H26.9279C27.5697 37.6356 28.0887 37.1154 28.0887 36.474Z" fill="white"/>
<path d="M30.7791 35.313C30.1379 35.313 29.6183 35.8321 29.6183 36.474C29.6183 37.1159 30.1373 37.6362 30.7791 37.6362H32.7C33.3412 37.6362 33.8619 37.1159 33.8619 36.474C33.8619 35.8321 33.3418 35.313 32.7 35.313H30.7791Z" fill="white"/>
<path d="M42.6454 35.313H37.5119C36.8717 35.313 36.351 35.8321 36.351 36.474C36.351 37.1159 36.8711 37.6362 37.5119 37.6362H42.6454C43.2866 37.6362 43.8062 37.1159 43.8062 36.474C43.8062 35.8321 43.2866 35.313 42.6454 35.313Z" fill="white"/>
<path d="M19.6352 39.963C18.9952 39.963 18.4744 40.4822 18.4744 41.1241C18.4744 41.766 18.9946 42.2862 19.6352 42.2862H21.4705C22.1117 42.2862 22.6313 41.766 22.6313 41.1241C22.6313 40.4822 22.1123 39.963 21.4705 39.963H19.6352Z" fill="white"/>
<path d="M25.2071 42.2862H36.0756C36.7169 42.2862 37.2364 41.766 37.2364 41.1241C37.2364 40.4822 36.7173 39.963 36.0756 39.963H25.2071C24.5659 39.963 24.0463 40.4822 24.0463 41.1241C24.0463 41.766 24.5659 42.2862 25.2071 42.2862Z" fill="white"/>
<path d="M42.6456 39.963H40.0664C39.4252 39.963 38.9044 40.4822 38.9044 41.1241C38.9044 41.766 39.4246 42.2862 40.0664 42.2862H42.6456C43.2868 42.2862 43.8064 41.766 43.8064 41.1241C43.8064 40.4822 43.2868 39.963 42.6456 39.963Z" fill="white"/>
<path d="M18.5469 7.32212C19.188 7.32212 19.7077 6.8024 19.7077 6.1613C19.7077 5.52021 19.188 5.00049 18.5469 5.00049C17.9058 5.00049 17.386 5.52021 17.386 6.1613C17.386 6.8024 17.9058 7.32212 18.5469 7.32212Z" fill="white"/>
<path d="M23.1907 7.32212C23.8319 7.32212 24.3516 6.8024 24.3516 6.1613C24.3516 5.52021 23.8319 5.00049 23.1907 5.00049C22.5497 5.00049 22.0299 5.52021 22.0299 6.1613C22.0299 6.8024 22.5497 7.32212 23.1907 7.32212Z" fill="white"/>
<path d="M27.8332 7.32053C28.4746 7.32053 28.9945 6.80057 28.9945 6.15917C28.9945 5.51776 28.4746 4.9978 27.8332 4.9978C27.1918 4.9978 26.6719 5.51776 26.6719 6.15917C26.6719 6.80057 27.1918 7.32053 27.8332 7.32053Z" fill="white"/>
<path d="M48.8017 0H1.16081C0.519602 0 0 0.520264 0 1.16106V7.23836C0 7.8786 0.519049 8.39944 1.16081 8.39944C1.80257 8.39944 2.32163 7.87915 2.32163 7.23836V2.32267H12.1255V7.3904C12.1255 8.03175 12.6446 8.55145 13.2874 8.55145C13.9275 8.55145 14.4482 8.0323 14.4482 7.3904V2.32267H47.6414L47.6436 44.4464C47.6436 46.209 46.2108 47.6426 44.4492 47.6426H2.32163V12.3935H12.1255V45.3564C12.1255 45.9977 12.6446 46.5174 13.2874 46.5174C13.9275 46.5174 14.4482 45.9983 14.4482 45.3564V12.3935H42.4084C43.0485 12.3935 43.5692 11.8743 43.5692 11.2324C43.5692 10.5905 43.049 10.0714 42.4084 10.0714H1.16081C0.519602 10.0714 0 10.5905 0 11.2324V48.8036C0 49.445 0.519049 49.9647 1.16081 49.9647H44.4486C47.491 49.9647 49.9647 47.4894 49.9647 44.4469L49.9631 1.1605C49.9631 0.520264 49.4429 0 48.8017 0Z" fill="white"/>
<path d="M9.80419 17.976C9.80419 17.3346 9.28516 16.8149 8.64339 16.8149H5.50917C4.86796 16.8149 4.34836 17.3341 4.34836 17.976C4.34836 18.6179 4.86741 19.1382 5.50917 19.1382H8.64339C9.28516 19.1382 9.80419 18.6179 9.80419 17.976Z" fill="white"/>
<path d="M5.50917 20.6732C4.86796 20.6732 4.34836 21.1923 4.34836 21.8343C4.34836 22.4761 4.86741 22.9948 5.50917 22.9948H6.78552C7.42672 22.9948 7.94743 22.4756 7.94743 21.8343C7.94743 21.1929 7.42727 20.6732 6.78552 20.6732H5.50917Z" fill="white"/>
</svg>
