<svg width="50" height="50" viewBox="0 0 50 50" fill="none" xmlns="http://www.w3.org/2000/svg">
<path d="M46.6667 6.66667H45V3.33333C45 1.49251 43.5075 0 41.6667 0H8.33333C6.49251 0 5 1.49251 5 3.33333V6.66667H3.33333C1.49251 6.66667 0 8.15918 0 10V38.3333C0 40.1742 1.49251 41.6667 3.33333 41.6667H19.7131L17.7132 48.3333H15.8333V50H34.1667V48.3333H32.2868L30.2869 41.6667H46.6667C48.5075 41.6667 50 40.1742 50 38.3333V10C50 8.15918 48.5075 6.66667 46.6667 6.66667ZM1.66667 10C1.66667 9.07959 2.41292 8.33333 3.33333 8.33333H5V33.3333H6.66667V3.33333C6.66667 2.41292 7.41292 1.66667 8.33333 1.66667H41.6667C42.5871 1.66667 43.3333 2.41292 43.3333 3.33333V33.3333H45V8.33333H46.6667C47.5871 8.33333 48.3333 9.07959 48.3333 10V35H1.66667V10ZM30.5465 48.3333H19.4535L21.4534 41.6667H28.5465L30.5465 48.3333ZM48.3333 38.3333C48.3333 39.2537 47.5871 40 46.6667 40H3.33333C2.41292 40 1.66667 39.2537 1.66667 38.3333V36.6667H48.3333V38.3333Z" fill="white"/>
<path d="M8.33333 3.33337H9.99999V5.00004H8.33333V3.33337Z" fill="white"/>
<path d="M11.6667 3.33337H13.3333V5.00004H11.6667V3.33337Z" fill="white"/>
<path d="M15 3.33337H16.6667V5.00004H15V3.33337Z" fill="white"/>
<path d="M35.8362 14.4739L40.1449 13.512L40.5082 15.1388L36.1991 16.1007L35.8362 14.4739Z" fill="white"/>
<path d="M33.5775 6.91081L36.0775 4.4104L37.2563 5.58919L34.7559 8.08919L33.5775 6.91081Z" fill="white"/>
<path d="M37.1277 23.2458L37.8731 21.7549L41.2061 23.4216L40.461 24.9124L37.1277 23.2458Z" fill="white"/>
<path d="M31.9377 5.3426C31.6243 3.94164 30.2352 3.05947 28.8342 3.37238C27.4333 3.68529 26.5511 5.07485 26.864 6.47581L27.1208 7.62572L16.6382 14.2383L12.4715 15.1684C9.96175 15.7161 8.21858 18.0025 8.35449 20.568C8.4908 23.1335 10.4659 25.2226 13.02 25.5017L14.4417 31.8701C14.5426 32.3177 14.987 32.5993 15.435 32.5L18.8818 31.7301C19.3311 31.63 19.6147 31.1845 19.5142 30.7348L18.1559 24.6517L18.9258 24.48L31.2252 26.0058L31.475 27.1199C31.7399 28.306 32.7905 29.1508 34.0059 29.154C34.7953 29.1544 35.5424 28.7964 36.0364 28.1807C36.5308 27.5651 36.7188 26.7582 36.5474 25.9875L31.9377 5.3426ZM10.1192 21.0709C9.68912 19.1406 10.9037 17.2274 12.8332 16.7948L16.3285 16.0148L17.109 19.5101L17.889 23.0049L16.98 23.2084L14.3966 23.7858C12.4666 24.2151 10.5538 23.0001 10.1217 21.0709H10.1192ZM17.7026 30.2832L15.8818 30.6901L14.7058 25.4223L14.7502 25.4126L16.5226 25.0167L17.7026 30.2832ZM19.5666 22.8817L17.9 15.4118L27.5049 9.35342L30.8382 24.2789L19.5666 22.8817ZM34.2334 27.4601C33.9897 27.5191 33.7329 27.478 33.5197 27.3458C33.3069 27.2135 33.1563 27.0011 33.1018 26.7566L28.4908 6.11164C28.4371 5.87035 28.481 5.61766 28.6137 5.40933C28.7463 5.20099 28.9563 5.0537 29.1976 4.99999C29.7001 4.88768 30.1986 5.20425 30.3109 5.70677L34.9166 26.3509C35.0248 26.8445 34.7221 27.3352 34.2326 27.4601H34.2334Z" fill="white"/>
</svg>
