<svg width="55" height="50" viewBox="0 0 55 50" fill="none" xmlns="http://www.w3.org/2000/svg">
<g clip-path="url(#clip0_616_234)">
<path d="M42.4163 39.1215C42.7597 39.0861 43.066 38.886 43.2437 38.5815C43.4208 38.2771 43.4475 37.9043 43.3152 37.5763L41.1392 32.1785C41.0073 31.8517 40.7332 31.6078 40.3995 31.5209C40.0655 31.4328 39.7117 31.5141 39.4446 31.7378C38.6118 32.4354 37.4099 32.3715 36.6506 31.5904C35.8919 30.8082 35.8303 29.5708 36.5062 28.7125C36.7225 28.4371 36.8005 28.0732 36.716 27.7307C36.6315 27.3881 36.3945 27.1061 36.0767 26.9709L30.8305 24.7361C30.5127 24.5998 30.1496 24.6278 29.8537 24.8095C29.5577 24.9918 29.3632 25.3074 29.3288 25.6601C29.2219 26.7568 28.3297 27.5838 27.2537 27.5838C26.1756 27.5838 25.2822 26.7568 25.1759 25.6601C25.1416 25.3068 24.947 24.9918 24.6511 24.8089C24.3551 24.6273 23.9926 24.5992 23.6743 24.7355L18.4281 26.9704C18.1103 27.1061 17.8726 27.3881 17.7882 27.7312C17.7037 28.0744 17.7816 28.4388 17.9991 28.7135C18.6766 29.5714 18.6145 30.8077 17.8546 31.5893C17.0948 32.3709 15.8946 32.4354 15.0634 31.7385C14.7968 31.5147 14.4425 31.4345 14.1085 31.5203C13.7748 31.6072 13.5002 31.8511 13.3682 32.178L11.1928 37.5757C11.061 37.9037 11.0877 38.2765 11.2643 38.581C11.4415 38.8855 11.7483 39.0856 12.0917 39.1209C13.1578 39.2303 13.9612 40.1481 13.9612 41.2555C13.9612 41.2611 13.9629 41.2661 13.9629 41.2711C13.9558 42.3225 13.2211 43.1915 12.2291 43.3631C12.2192 43.3631 12.21 43.3603 12.1996 43.3603H3.81545C2.91391 43.3603 2.18025 42.6056 2.18025 41.6782V11.1205H47.9656C48.5674 11.1205 49.0557 10.6181 49.0557 9.99907C49.0557 9.38007 48.5674 8.87769 47.9656 8.87769H1.09013C0.488377 8.87769 0 9.38007 0 9.99907V41.6788C0 43.843 1.7115 45.6035 3.81545 45.6035H11.9751C12.047 45.6192 12.1212 45.6288 12.1969 45.6288C12.2328 45.6288 12.2694 45.6271 12.3065 45.6232C14.4932 45.3989 16.1426 43.5218 16.1426 41.2566C16.1426 41.2207 16.1355 41.1865 16.1322 41.1518C16.093 39.4361 15.1141 37.9553 13.674 37.2718L14.9124 34.1987C16.4332 34.7734 18.1866 34.4185 19.395 33.1755C20.6028 31.933 20.9479 30.1276 20.3892 28.5616L23.3767 27.2888C24.0553 28.8016 25.5401 29.8259 27.2526 29.8259C28.9642 29.8259 30.4478 28.801 31.1258 27.2888L34.1145 28.5621C33.5579 30.1276 33.9018 31.9318 35.107 33.1749C36.3154 34.4185 38.0705 34.7734 39.5923 34.1976L40.8312 37.2707C39.3596 37.9688 38.3627 39.4949 38.3627 41.2555C38.3627 41.2745 38.367 41.2919 38.3682 41.3105C38.3948 43.5504 40.0311 45.3995 42.1988 45.6221C42.2354 45.626 42.2724 45.6277 42.3084 45.6277C42.8616 45.6277 43.3358 45.1959 43.392 44.6179C43.4519 44.0017 43.0148 43.4522 42.4152 43.3905C41.3491 43.2812 40.5456 42.3634 40.5456 41.2561C40.5456 41.2505 40.544 41.2454 40.544 41.2403C40.5528 40.1408 41.354 39.2308 42.4163 39.1215Z" fill="white"/>
<path d="M50.6909 0H1.09013C0.488377 0 0 0.502372 0 1.12137C0 1.74036 0.488377 2.24273 1.09013 2.24273H50.6909C51.5925 2.24273 52.3261 2.99742 52.3261 3.92478V41.6801C52.3261 42.6075 51.5925 43.3622 50.6909 43.3622H47.7585C47.1567 43.3622 46.6684 43.8645 46.6684 44.4835C46.6684 45.1025 47.1567 45.6048 47.7585 45.6048H50.6909C52.7943 45.6048 54.5064 43.8443 54.5064 41.6801V3.92478C54.5064 1.76055 52.7948 0 50.6909 0Z" fill="white"/>
<path d="M5.49157 6.61842C5.95033 6.61842 6.32224 6.23686 6.32224 5.76618C6.32224 5.2955 5.95033 4.91394 5.49157 4.91394C5.0328 4.91394 4.66089 5.2955 4.66089 5.76618C4.66089 6.23686 5.0328 6.61842 5.49157 6.61842Z" fill="white"/>
<path d="M8.63022 6.61842C9.08899 6.61842 9.46084 6.23686 9.46084 5.76618C9.46084 5.2955 9.08899 4.91394 8.63022 4.91394C8.17145 4.91394 7.79953 5.2955 7.79953 5.76618C7.79953 6.23686 8.17145 6.61842 8.63022 6.61842Z" fill="white"/>
<path d="M11.7691 6.61842C12.2278 6.61842 12.5998 6.23686 12.5998 5.76618C12.5998 5.2955 12.2278 4.91394 11.7691 4.91394C11.3103 4.91394 10.9384 5.2955 10.9384 5.76618C10.9384 6.23686 11.3103 6.61842 11.7691 6.61842Z" fill="white"/>
<path d="M27.2531 32.6217C22.6244 32.6217 18.8591 36.4955 18.8591 41.2568C18.8591 42.5536 19.1321 43.8017 19.6707 44.9652C21.0562 47.9581 24.0322 49.8919 27.2531 49.8919C30.4749 49.8919 33.4515 47.9576 34.8365 44.964C35.3745 43.8012 35.647 42.5542 35.647 41.2568C35.647 36.4955 31.8811 32.6217 27.2531 32.6217ZM32.8672 44.0008C31.8419 46.2172 29.6382 47.6492 27.2531 47.6492C24.8689 47.6492 22.6652 46.2172 21.6395 44.0008C21.2415 43.1407 21.0393 42.2172 21.0393 41.2562C21.0393 37.7312 23.8268 34.8639 27.2531 34.8639C30.6793 34.8639 33.4668 37.7318 33.4668 41.2562C33.4668 42.2178 33.2651 43.1407 32.8672 44.0008Z" fill="white"/>
<path d="M18.7561 19.7996C18.1545 19.7996 17.6661 20.3019 17.6661 20.9209C17.6661 21.5399 18.1545 22.0423 18.7561 22.0423H40.8187C40.8192 22.0423 40.8198 22.0423 40.8204 22.0423C40.8879 22.0423 40.9555 22.0345 41.0237 22.021C41.0498 22.016 41.0749 22.007 41.1005 21.9997C41.1305 21.9913 41.161 21.9862 41.191 21.975L48.3362 19.3179C48.7679 19.1576 49.0557 18.7354 49.0557 18.2633C49.0557 17.7912 48.7679 17.369 48.3362 17.2087L41.191 14.5522C41.1686 14.5438 41.1458 14.5415 41.1228 14.5348C41.0847 14.5236 41.0471 14.5123 41.0078 14.5051C40.9686 14.4978 40.9305 14.4956 40.8912 14.4927C40.8672 14.491 40.8448 14.4855 40.8204 14.4855H9.12053C7.09725 14.4855 5.45062 16.1787 5.45062 18.2667C5.45062 20.3479 7.09725 22.0418 9.12053 22.0418H13.3061C13.9078 22.0418 14.3962 21.5394 14.3962 20.9204V16.7282H39.7308V19.799H18.7561V19.7996ZM12.2154 19.7996H9.11999C8.29861 19.7996 7.63033 19.1122 7.63033 18.2606C7.63033 17.4156 8.29861 16.7287 9.11999 16.7287H12.2154V19.7996ZM41.9105 19.323V17.2048L44.759 18.2639L41.9105 19.323Z" fill="white"/>
</g>
<defs>
<clipPath id="clip0_616_234">
<rect width="54.6154" height="50" fill="white"/>
</clipPath>
</defs>
</svg>
