<svg width="50" height="50" viewBox="0 0 50 50" fill="none" xmlns="http://www.w3.org/2000/svg">
<path d="M48.3571 31.8657H1V7.90386C1 4.64365 3.64271 2 6.90386 2H42.4542C45.7144 2 48.3581 4.64272 48.3581 7.90386V31.8657H48.3571Z" stroke="white" stroke-width="2" stroke-miterlimit="10" stroke-linecap="round" stroke-linejoin="round"/>
<path d="M46.656 37.2412H2.70114C1.76143 37.2412 1 36.4798 1 35.5401V31.8657H48.3571V35.5401C48.3571 36.4798 47.5957 37.2412 46.656 37.2412Z" stroke="white" stroke-width="2" stroke-miterlimit="10" stroke-linecap="round" stroke-linejoin="round"/>
<path d="M24.6924 35.6001C25.2447 35.6001 25.6924 35.1524 25.6924 34.6001C25.6924 34.0478 25.2447 33.6001 24.6924 33.6001C24.1401 33.6001 23.6924 34.0478 23.6924 34.6001C23.6924 35.1524 24.1401 35.6001 24.6924 35.6001Z" stroke="white" stroke-miterlimit="10" stroke-linecap="round" stroke-linejoin="round"/>
<path d="M37.5022 48.0099H12.2218C12.2218 45.4359 14.3083 43.3494 16.8823 43.3494H32.8407C35.4157 43.3494 37.5022 45.4359 37.5022 48.0099Z" stroke="white" stroke-width="2" stroke-miterlimit="10" stroke-linecap="round" stroke-linejoin="round"/>
<path d="M18.7469 37.2412L16.7978 43.3503" stroke="white" stroke-width="2" stroke-miterlimit="10" stroke-linecap="round" stroke-linejoin="round"/>
<path d="M30.8359 37.2412L32.8983 43.3503" stroke="white" stroke-width="2" stroke-miterlimit="10" stroke-linecap="round" stroke-linejoin="round"/>
<path d="M16.301 22.6431C18.4667 22.6431 20.2224 21.7846 20.2224 20.7256C20.2224 19.6666 18.4667 18.8081 16.301 18.8081C14.1353 18.8081 12.3796 19.6666 12.3796 20.7256C12.3796 21.7846 14.1353 22.6431 16.301 22.6431Z" stroke="white" stroke-width="2" stroke-miterlimit="10" stroke-linecap="round" stroke-linejoin="round"/>
<path d="M12.4 21L12.401 26.3987C12.401 27.2803 14.1912 28 16.3991 28C18.607 28 20.3981 27.2803 20.3981 26.3987L20.4 21" stroke="white" stroke-width="2" stroke-miterlimit="10" stroke-linecap="round" stroke-linejoin="round"/>
<path d="M33.5566 22.6431C35.7223 22.6431 37.478 21.7846 37.478 20.7256C37.478 19.6666 35.7223 18.8081 33.5566 18.8081C31.3909 18.8081 29.6353 19.6666 29.6353 20.7256C29.6353 21.7846 31.3909 22.6431 33.5566 22.6431Z" stroke="white" stroke-width="2" stroke-miterlimit="10" stroke-linecap="round" stroke-linejoin="round"/>
<path d="M29.5 21L29.5009 26.3987C29.5009 27.2803 31.2911 28 33.4991 28C35.707 28 37.4981 27.2803 37.4981 26.3987L37.5 21" stroke="white" stroke-width="2" stroke-miterlimit="10" stroke-linecap="round" stroke-linejoin="round"/>
<path d="M16.3 21V15H33.8V21" stroke="white" stroke-width="2" stroke-miterlimit="10" stroke-linecap="round" stroke-linejoin="round"/>
<path d="M26.9443 6.28809H22.126V11.8409H26.9443V6.28809Z" stroke="white" stroke-width="2" stroke-miterlimit="10" stroke-linecap="round" stroke-linejoin="round"/>
<path d="M24.6619 12.8411V19.0829" stroke="white" stroke-width="2" stroke-miterlimit="10" stroke-linecap="round" stroke-linejoin="round"/>
</svg>
