<svg width="53" height="50" viewBox="0 0 53 50" fill="none" xmlns="http://www.w3.org/2000/svg">
<g clip-path="url(#clip0_616_244)">
<path d="M28.76 41.8824H23.6847C22.7517 41.8824 21.993 42.6049 21.993 43.4934V45.1042C21.993 45.9927 22.7517 46.7152 23.6847 46.7152H28.76C29.693 46.7152 30.4517 45.9927 30.4517 45.1042V43.4934C30.4517 42.6049 29.693 41.8824 28.76 41.8824ZM23.6847 45.1042V43.4934H28.76L28.7609 45.1042H23.6847Z" fill="white"/>
<path d="M16.9176 41.8824H15.2258C14.2928 41.8824 13.5341 42.6049 13.5341 43.4934V45.1042C13.5341 45.9927 14.2928 46.7152 15.2258 46.7152H16.9176C17.8506 46.7152 18.6094 45.9927 18.6094 45.1042V43.4934C18.6094 42.6049 17.8506 41.8824 16.9176 41.8824ZM15.2258 45.1042V43.4934H16.9176L16.9184 45.1042H15.2258Z" fill="white"/>
<path d="M37.2187 41.8824H35.5269C34.5939 41.8824 33.8351 42.6049 33.8351 43.4934V45.1042C33.8351 45.9927 34.5939 46.7152 35.5269 46.7152H37.2187C38.1517 46.7152 38.9105 45.9927 38.9105 45.1042V43.4934C38.9105 42.6049 38.1517 41.8824 37.2187 41.8824ZM35.5269 45.1042V43.4934H37.2187L37.2195 45.1042H35.5269Z" fill="white"/>
<path d="M16.0719 4.83234C16.5391 4.83234 16.9178 4.47173 16.9178 4.02689C16.9178 3.58205 16.5391 3.22144 16.0719 3.22144C15.6048 3.22144 15.2261 3.58205 15.2261 4.02689C15.2261 4.47173 15.6048 4.83234 16.0719 4.83234Z" fill="white"/>
<path d="M19.4552 4.83234C19.9224 4.83234 20.3011 4.47173 20.3011 4.02689C20.3011 3.58205 19.9224 3.22144 19.4552 3.22144C18.9881 3.22144 18.6094 3.58205 18.6094 4.02689C18.6094 4.47173 18.9881 4.83234 19.4552 4.83234Z" fill="white"/>
<path d="M30.4517 3.22144H21.993V4.83234H30.4517V3.22144Z" fill="white"/>
<path d="M16.9176 12.8867H3.38354V14.4976H16.9176V12.8867Z" fill="white"/>
<path d="M13.5341 16.11H3.38354V17.7209H13.5341V16.11Z" fill="white"/>
<path d="M16.9178 16.11H15.2261V17.7209H16.9178V16.11Z" fill="white"/>
<path d="M38.9104 17.7198V21.8953C38.6448 21.8051 38.3622 21.7471 38.0644 21.7471C36.6654 21.7471 35.5269 22.8313 35.5269 24.1635C35.5269 25.4957 36.6654 26.5798 38.0644 26.5798C39.4636 26.5798 40.6021 25.4957 40.6021 24.1635V17.7198C40.6021 16.8314 41.3609 16.109 42.2939 16.109H46.5233V14.498H42.2939C40.4278 14.498 38.9104 15.943 38.9104 17.7198ZM38.0644 24.9689C37.5975 24.9689 37.2186 24.6072 37.2186 24.1635C37.2186 23.7197 37.5975 23.358 38.0644 23.358C38.5314 23.358 38.9104 23.7197 38.9104 24.1635C38.9104 24.6072 38.5314 24.9689 38.0644 24.9689Z" fill="white"/>
<path d="M22.5155 30.607C22.8573 30.607 23.2007 30.5296 23.506 30.3846L29.2276 27.6606C29.9821 27.3013 30.4516 26.5781 30.4516 25.7742C30.4516 24.9704 29.9821 24.2471 29.2276 23.8879L23.506 21.1638C23.2007 21.0189 22.8573 20.9415 22.5155 20.9415C21.2949 20.9415 20.301 21.8871 20.301 23.0502V28.4983C20.301 29.6613 21.2949 30.607 22.5155 30.607ZM21.9928 23.0502C21.9928 22.7755 22.2271 22.5525 22.5155 22.5525C22.5968 22.5525 22.6771 22.5702 22.749 22.6048L28.4705 25.3288C28.649 25.4142 28.7598 25.5841 28.7598 25.7742C28.7598 25.9643 28.649 26.1342 28.4705 26.2196L22.749 28.9437C22.4225 29.1015 21.9928 28.8502 21.992 28.4983V23.0502H21.9928Z" fill="white"/>
<path d="M27.068 37.0506H38.9103V32.2179H27.068V37.0506ZM28.7598 33.8288H37.2186V35.4397H28.7598V33.8288Z" fill="white"/>
<path d="M25.3764 32.2179H13.5341V33.8288H25.3764V32.2179Z" fill="white"/>
<path d="M21.9929 35.4392H13.5341V37.0501H21.9929V35.4392Z" fill="white"/>
<path d="M25.3764 35.4392H23.6846V37.0501H25.3764V35.4392Z" fill="white"/>
<path d="M52.4444 20.1363C52.4444 14.6343 47.9622 10.1205 42.2939 9.70648V4.02725C42.2939 1.80662 40.3966 0 38.0645 0H14.3799C12.0478 0 10.1506 1.80662 10.1506 4.02725V9.66543H2.53764C1.13855 9.66543 0 10.7496 0 12.0818V18.5254C0 19.8576 1.13855 20.9417 2.53764 20.9417H8.20247L10.1506 22.1781V45.9107C10.1506 48.1313 12.0478 49.938 14.3799 49.938H38.0645C40.3966 49.938 42.2939 48.1313 42.2939 45.9107V30.566C47.9622 30.152 52.4444 25.6383 52.4444 20.1363ZM14.3799 1.6109H38.0645C39.4636 1.6109 40.6022 2.69504 40.6022 4.02725V6.44358H11.8423V4.02725C11.8423 2.69504 12.9809 1.6109 14.3799 1.6109ZM2.53764 19.3308C2.07071 19.3308 1.69176 18.9692 1.69176 18.5254V12.0818C1.69176 11.638 2.07071 11.2763 2.53764 11.2763H17.7635C18.2304 11.2763 18.6093 11.638 18.6093 12.0818V18.5254C18.6093 18.9692 18.2304 19.3308 17.7635 19.3308H14.3799V22.1217C14.3799 22.4447 13.957 22.659 13.6762 22.4801L8.71506 19.3308H2.53764ZM12.7381 23.8204C13.0917 24.0451 13.5028 24.1635 13.9274 24.1635C15.1091 24.1635 16.0717 23.2477 16.0717 22.1217V20.9417H17.7635C19.1625 20.9417 20.301 19.8576 20.301 18.5254V12.0818C20.301 10.7496 19.1625 9.66543 17.7635 9.66543H11.8423V8.05451H40.6022V9.70648C34.9339 10.1205 30.4516 14.6343 30.4516 20.1363C30.4516 25.6383 34.9339 30.152 40.6022 30.566V38.6617H11.8423V23.2517L12.7381 23.8204ZM38.0645 48.327H14.3799C12.9809 48.327 11.8423 47.2429 11.8423 45.9107V40.2725H40.6022V45.9107C40.6022 47.2429 39.4636 48.327 38.0645 48.327ZM41.448 28.9962C36.3178 28.9962 32.1434 25.0213 32.1434 20.1363C32.1434 15.2512 36.3178 11.2763 41.448 11.2763C46.5783 11.2763 50.7527 15.2512 50.7527 20.1363C50.7527 25.0213 46.5783 28.9962 41.448 28.9962Z" fill="white"/>
</g>
<defs>
<clipPath id="clip0_616_244">
<rect width="52.4691" height="50" fill="white"/>
</clipPath>
</defs>
</svg>
