<svg width="50" height="50" viewBox="0 0 50 50" fill="none" xmlns="http://www.w3.org/2000/svg">
<path d="M23.9991 32.6045L18.7866 30.4636L16.9589 28.1793C18.1959 27.5083 19.0299 26.2541 19.0299 24.8206V17.8396C19.0299 15.701 17.1741 13.9612 14.8929 13.9612H11.5834C9.3023 13.9612 7.44649 15.701 7.44649 17.8396V19.3909C7.44649 19.7252 7.67399 20.0208 8.01243 20.127L12.9767 21.6783C13.2199 21.7544 13.4855 21.721 13.6974 21.5876L16.1795 20.0362L15.262 18.7455L13.1166 20.0867L9.10122 18.8317V17.8396C9.10122 16.5566 10.2149 15.5125 11.5834 15.5125H14.8929C16.2614 15.5125 17.3751 16.5566 17.3751 17.8396V24.8206C17.3751 26.1035 16.2614 27.1477 14.8929 27.1477H11.5834C10.2149 27.1477 9.10122 26.1035 9.10122 24.8206V21.7179H7.44649V24.8206C7.44649 26.2541 8.28047 27.5083 9.51743 28.1793L7.70047 30.4504L2.59799 32.3679C1.01934 32.9605 0 34.3738 0 35.9678V48.8665C0 49.2947 0.369841 49.6422 0.827385 49.6422H3.30954V48.0908H1.65477V35.9678C1.65477 35.0114 2.26621 34.1636 3.21357 33.8076L7.20737 32.3067L6.63067 35.5521C6.58351 35.8142 6.68362 36.081 6.89541 36.2587C7.04932 36.3875 7.24622 36.4557 7.44649 36.4557C7.52257 36.4557 7.59953 36.4456 7.67318 36.4254L11.4039 35.4264L9.93527 46.4433C9.90297 46.6846 9.99318 46.9258 10.1793 47.0956L12.7301 49.4227C12.8841 49.5631 13.0909 49.6422 13.3068 49.6422H13.3184C13.5385 49.6391 13.7478 49.5545 13.9001 49.4071L16.3136 47.0801C16.489 46.911 16.5725 46.6768 16.5411 46.4433L15.0725 35.4264L18.8032 36.4254C18.8768 36.4456 18.9537 36.4557 19.0299 36.4557C19.2301 36.4557 19.427 36.3875 19.5809 36.2587C19.7927 36.081 19.8928 35.815 19.8457 35.5521L19.2781 32.3594L23.3347 34.0255C24.2382 34.3963 24.8216 35.2333 24.8216 36.1571V41.8854H26.4764V36.1571C26.4764 34.6174 25.5042 33.2227 23.9991 32.6045ZM8.47737 34.5972L8.87291 32.3772L11.2409 33.8572L8.47737 34.5972ZM13.2903 47.7689L11.6272 46.2525L13.1331 34.9633L13.1926 34.9471C13.2224 34.9486 13.253 34.9486 13.2828 34.9471L13.3424 34.9633L14.8499 46.2656L13.2903 47.7689ZM13.2382 33.1963L11.3493 32.0158L9.46034 30.8352L11.1697 28.699H15.3066L17.0152 30.8352L15.1263 32.0158L13.2382 33.1963ZM15.2355 33.8572L17.6034 32.3772L17.9989 34.5972L15.2355 33.8572Z" fill="white"/>
<path d="M24.8215 48.092H23.1667V49.6434H25.6488C26.1064 49.6434 26.4763 49.2959 26.4763 48.8677V43.438H24.8215V48.092Z" fill="white"/>
<path d="M6.61907 38.7834H4.9643V49.6429H6.61907V38.7834Z" fill="white"/>
<path d="M21.512 38.7834H19.8572V49.6429H21.512V38.7834Z" fill="white"/>
<path d="M23.1668 10.8589H21.512V20.167H23.1668V10.8589Z" fill="white"/>
<path d="M28.1311 10.8589H26.4764V20.167H28.1311V10.8589Z" fill="white"/>
<path d="M23.1668 23.2705H21.512V29.4759H23.1668V23.2705Z" fill="white"/>
<path d="M28.1311 23.2705H26.4764V32.5786H28.1311V23.2705Z" fill="white"/>
<path d="M18.2025 10.8589H16.5477V12.4102H18.2025V10.8589Z" fill="white"/>
<path d="M35.5774 26.3726H45.506C45.9636 26.3726 46.3334 26.0251 46.3334 25.5969V16.2889C46.3334 15.8607 45.9636 15.5132 45.506 15.5132H35.5774C35.1199 15.5132 34.7501 15.8607 34.7501 16.2889V25.5969C34.7501 26.0251 35.1199 26.3726 35.5774 26.3726ZM41.3691 17.0645H44.6786V24.8212H41.3691V17.0645ZM36.4048 17.0645H39.7143V24.8212H36.4048V17.0645Z" fill="white"/>
<path d="M49.6432 9.30811V7.75676H33.0955V6.98108C33.0955 6.55289 32.7257 6.20539 32.2681 6.20539H29.7859V0.775676C29.7859 0.347502 29.4162 0 28.9586 0H18.2026C17.9643 0 17.7376 0.0969595 17.5795 0.264505L11.7878 6.46989C11.6563 6.61185 11.5835 6.79338 11.5835 6.98108V12.4108H13.2382V7.75676H25.6491V6.20539H14.2345L18.5782 1.55134H28.1312V6.98108C28.1312 7.40926 28.501 7.75676 28.9586 7.75676H31.4407V48.0918H28.1312V49.6431H48.8158C49.2734 49.6431 49.6432 49.2956 49.6432 48.8674V11.6351C49.6432 11.2093 49.2775 10.8626 48.8232 10.8595L47.1611 10.8462V9.30811H49.6432ZM43.8515 9.30811H45.5063V10.833L43.8515 10.8199V9.30811ZM40.542 9.30811H42.1968V10.8074L40.542 10.7943V9.30811ZM37.2324 9.30811H38.8872V10.7811L37.2324 10.7679V9.30811ZM33.0955 9.30811H35.5776V10.7555L33.0955 10.7361V9.30811ZM43.0241 48.0918H38.0598V38.7837H43.0241V48.0918ZM47.9884 48.0918H44.6789V38.008C44.6789 37.5799 44.3091 37.2324 43.8515 37.2324H37.2324C36.7749 37.2324 36.4051 37.5799 36.4051 38.008V48.0918H33.0955V34.1297H47.9884V48.0918ZM47.9884 12.4046V29.4756H44.6789V31.027H47.9884V32.5783H33.0955V31.027H43.0241V29.4756H33.0955V12.2874L47.9884 12.4046Z" fill="white"/>
</svg>
