<svg width="50" height="50" viewBox="0 0 50 50" fill="none" xmlns="http://www.w3.org/2000/svg">
<path d="M18.0185 1.36208C16.5245 1.61108 15.28 2.64508 13.6615 4.97208C12.675 6.39907 12.1485 6.95408 11.526 7.27008C11.325 7.37558 10.4055 7.70108 9.48651 8.00758C7.38951 8.68758 6.46051 9.15658 5.69451 9.92258C5.02501 10.5831 4.67051 11.2151 4.39301 12.2491C4.23051 12.8716 4.19201 13.3501 4.16301 15.2366C4.14401 16.4716 4.07701 17.6976 4.01951 17.9466C3.90451 18.4351 3.41601 19.2201 2.31501 20.6946C1.17551 22.2266 0.620006 23.4431 0.515006 24.6686C0.400006 26.0856 0.946006 27.4456 2.48751 29.5521C4.15351 31.8216 4.15351 31.8311 4.14401 34.1961C4.11501 37.5761 4.46001 38.8591 5.69501 40.0851C6.46101 40.8511 7.39001 41.3106 9.45801 41.9811C10.358 42.2781 11.306 42.6226 11.5645 42.7471C12.1675 43.0631 12.704 43.6471 13.7475 45.1601C15.337 47.4486 16.553 48.4061 18.1905 48.6551C19.1865 48.8181 20.0865 48.6646 22.1835 47.9846C24.951 47.0846 25.0465 47.0846 27.8135 47.9846C29.9105 48.6646 30.8105 48.8176 31.8065 48.6551C33.444 48.4061 34.5835 47.5061 36.2015 45.2081C37.8675 42.8336 37.877 42.8336 41.085 41.8086C43.1915 41.1286 44.532 40.2096 45.145 38.9936C45.681 37.9501 45.796 37.2316 45.825 34.7711C45.844 33.4211 45.892 32.3486 45.9685 32.0901C46.1215 31.5156 46.3515 31.1326 47.51 29.5526C50.1625 25.9141 50.1625 24.0946 47.51 20.4561C46.3515 18.8761 46.1215 18.4931 45.9685 17.9186C45.9015 17.6696 45.844 16.5686 45.825 15.2376C45.7965 13.3416 45.7675 12.8726 45.605 12.2501C45.3275 11.2161 44.973 10.5936 44.3025 9.92308C43.4505 9.07108 42.617 8.66858 39.936 7.81658C38.002 7.19408 37.7625 7.00258 36.307 4.94408C34.5835 2.49258 33.4535 1.59258 31.8065 1.34358C30.7915 1.19058 29.882 1.35308 27.7755 2.05207C26.0615 2.62658 25.9755 2.63608 24.9985 2.64558C24.022 2.64558 23.9355 2.62658 22.327 2.08058C20.0295 1.31408 19.1865 1.17058 18.0185 1.36208ZM21.772 3.54508C24.8075 4.54108 25.2095 4.54108 28.226 3.53558C29.959 2.96108 30.0645 2.94208 31.0315 2.94208C31.9605 2.93258 32.0755 2.95158 32.525 3.20058C33.358 3.66958 33.9135 4.28258 35.484 6.49458C36.164 7.46157 37.0545 8.33308 37.6865 8.65858C37.9545 8.78308 38.73 9.08008 39.41 9.30008C42.742 10.3726 43.4125 10.8036 43.968 12.2591C44.1595 12.7476 44.1885 13.0441 44.2455 15.3806C44.3415 18.7801 44.3795 18.9041 46.0555 21.1641C47.53 23.1461 47.8845 23.8836 47.8845 25.0036C47.8845 26.1241 47.5015 26.9091 45.9505 28.9871C44.3995 31.0746 44.342 31.2756 44.246 34.5791C44.1695 37.2791 44.1215 37.6146 43.633 38.4476C43.135 39.2996 42.3115 39.7596 39.87 40.5446C38.97 40.8416 38.0125 41.1861 37.7635 41.3201C36.8345 41.7891 36.1455 42.5076 34.939 44.2691C34.1635 45.4086 33.1865 46.4331 32.545 46.7971C32.076 47.0556 31.9705 47.0746 31.032 47.0651C30.065 47.0651 29.9595 47.0461 28.217 46.4616C25.191 45.4656 24.808 45.4656 21.7635 46.4711C20.04 47.0456 19.9345 47.0646 18.9675 47.0646C18.1155 47.0741 17.9045 47.0456 17.579 46.8636C16.679 46.3846 16.018 45.6861 14.831 43.9431C14.017 42.7461 13.069 41.7601 12.3895 41.3961C12.083 41.2331 11.0775 40.8596 10.1585 40.5631C7.68801 39.7491 6.86451 39.2991 6.37601 38.4661C5.85901 37.5851 5.83001 37.3746 5.75351 34.6261C5.66751 31.2076 5.64801 31.1596 3.78101 28.6321C3.29151 27.9721 2.72651 27.1201 2.53501 26.7271C2.21901 26.1236 2.17101 25.9131 2.13301 25.2236C2.06601 23.9501 2.36301 23.2896 3.92351 21.1731C4.81401 19.9666 5.34051 19.0571 5.56101 18.3486C5.62801 18.1186 5.70451 16.9026 5.74301 15.3801C5.81001 13.0626 5.83901 12.7371 6.02051 12.2681C6.57601 10.8511 7.41851 10.2956 10.4445 9.34758C12.714 8.63908 13.3075 8.17958 14.9065 5.94808C16.764 3.34358 17.4535 2.84558 19.11 2.92208C19.8475 2.95158 20.2305 3.03758 21.772 3.54508Z" fill="white"/>
<path d="M24.731 5.78559C24.683 5.84309 24.5105 6.16859 24.348 6.48459L24.051 7.07809L23.4955 7.14509C22.72 7.23109 22.509 7.28859 22.509 7.41309C22.509 7.47059 22.7485 7.75759 23.0355 8.05459L23.5525 8.58109L23.447 9.22259C23.284 10.1991 23.332 10.2376 24.146 9.81609L24.826 9.45209L25.506 9.80609C25.8795 9.99759 26.224 10.1221 26.2625 10.0836C26.3005 10.0451 26.2815 9.68159 26.205 9.27909L26.0805 8.54159L26.5975 8.03409C26.875 7.75659 27.105 7.47859 27.105 7.42109C27.105 7.29659 26.8945 7.22959 26.138 7.14359L25.602 7.07659L25.2765 6.40609C24.9225 5.66159 24.8745 5.61359 24.731 5.78559Z" fill="white"/>
<path d="M14.9735 9.03207L15.0215 9.82657L14.4565 10.2576C14.15 10.4971 13.9105 10.7556 13.9205 10.8321C13.93 10.9181 14.208 11.0426 14.648 11.1671L15.3565 11.3586L15.6055 12.0481C15.7395 12.4311 15.912 12.7471 15.979 12.7471C16.046 12.7471 16.276 12.4696 16.4865 12.1246L16.879 11.5021H17.4725C18.076 11.5021 18.4875 11.4256 18.4875 11.3201C18.4875 11.2911 18.2675 10.9946 17.999 10.6691L17.52 10.0756L17.7115 9.36707C17.8265 8.98408 17.9125 8.62958 17.9125 8.59158C17.9125 8.48608 17.6155 8.55308 16.8975 8.82158L16.3135 9.04158L15.739 8.64908C14.9355 8.07458 14.9065 8.09358 14.9735 9.03207Z" fill="white"/>
<path d="M33.8755 8.7736L33.2435 9.1951L32.554 8.9176C32.142 8.7451 31.826 8.6591 31.769 8.7166C31.721 8.7646 31.769 9.0806 31.8935 9.4826C31.999 9.8561 32.066 10.2201 32.0275 10.2871C31.989 10.3446 31.7595 10.6316 31.5295 10.9096C31.271 11.2161 31.1275 11.4456 31.1845 11.5031C31.2325 11.5511 31.5965 11.5991 31.989 11.6181L32.707 11.6466L33.109 12.2691C33.3385 12.6136 33.5685 12.8916 33.626 12.8916C33.693 12.8916 33.8465 12.6141 33.971 12.2691C34.2585 11.5126 34.306 11.4456 34.689 11.3691C35.3975 11.2256 35.723 11.1011 35.723 10.9766C35.723 10.9096 35.4645 10.6416 35.1485 10.4021L34.5835 9.9521L34.641 9.2051C34.6695 8.7646 34.66 8.4391 34.6025 8.4101C34.555 8.3806 34.2295 8.5436 33.8755 8.7736Z" fill="white"/>
<path d="M23.0455 11.933C20.1345 12.412 17.6165 13.6855 15.634 15.696C11.6415 19.7274 10.655 25.8174 13.183 30.8729C15.0405 34.5884 18.44 37.1734 22.5765 37.9969C23.735 38.2269 26.263 38.2269 27.4215 37.9969C32.822 36.9149 36.9105 32.8264 37.9925 27.4259C38.1075 26.8324 38.1555 26.1239 38.1555 25.0034C38.1555 23.8829 38.1075 23.1744 37.9925 22.5809C36.93 17.2665 32.937 13.1875 27.6995 12.077C26.464 11.8085 24.2235 11.7415 23.0455 11.933ZM27.3355 13.628C31.9415 14.528 35.6375 18.3295 36.442 22.9829C36.624 24.0074 36.624 25.9994 36.442 27.0239C35.6375 31.6869 31.951 35.4599 27.307 36.3979C25.9375 36.6754 24.061 36.6754 22.6915 36.3979C18.1335 35.4689 14.5335 31.8689 13.6045 27.3109C13.183 25.2329 13.394 22.7434 14.1505 20.838C16.2665 15.476 21.6955 12.5075 27.3355 13.628Z" fill="white"/>
<path d="M16.5725 25.5302V27.9717H17.578C18.124 27.9717 18.679 27.9237 18.8035 27.8662C19.1675 27.7032 19.3015 27.3492 19.3015 26.5737C19.3015 25.8172 19.129 25.4822 18.7365 25.4822C18.564 25.4822 18.5835 25.4537 18.8325 25.3002C19.5505 24.8597 19.493 23.5477 18.7365 23.2317C18.516 23.1357 18.066 23.0882 17.482 23.0882H16.5725V25.5302ZM18.0475 23.9122C18.22 24.0847 18.2485 24.6397 18.105 24.9177C18.0475 25.0232 17.904 25.0997 17.77 25.0997C17.54 25.0997 17.5305 25.0712 17.5305 24.4967C17.5305 24.1617 17.559 23.8552 17.5975 23.8262C17.7025 23.7112 17.894 23.7492 18.0475 23.9122ZM18.0475 25.9232C18.22 26.0957 18.258 26.8327 18.105 27.1202C18.0475 27.2257 17.904 27.3022 17.77 27.3022C17.54 27.3022 17.5305 27.2832 17.5305 26.6032C17.5305 26.2107 17.559 25.8657 17.5975 25.8372C17.7025 25.7217 17.894 25.7602 18.0475 25.9232Z" fill="white"/>
<path d="M20.02 25.5207V27.9722H20.5465H21.073V26.8712C21.073 25.8467 21.0825 25.7702 21.255 25.7702C21.6285 25.7702 21.7435 26.0192 21.7435 26.8712C21.7435 27.9627 21.753 27.9722 22.404 27.9722H22.94L22.9115 27.0432C22.8635 25.9422 22.72 25.5207 22.366 25.4252L22.117 25.3677L22.4045 25.1857C22.797 24.9462 22.9695 24.3812 22.8065 23.8547C22.634 23.2612 22.366 23.1462 21.102 23.0982L20.02 23.0692V25.5207ZM21.5325 23.9122C21.81 24.1037 21.82 24.6397 21.542 24.9177C21.2545 25.2052 21.1205 25.0997 21.092 24.5252C21.0445 23.7492 21.1305 23.6347 21.5325 23.9122Z" fill="white"/>
<path d="M24.2905 23.2517C24.2615 23.3477 24.0895 24.3527 23.898 25.4827C23.716 26.6127 23.534 27.6372 23.515 27.7522C23.467 27.9532 23.496 27.9722 23.9365 27.9722C24.3865 27.9722 24.4155 27.9627 24.463 27.6847C24.492 27.5217 24.549 27.2637 24.578 27.1102C24.626 26.8612 24.674 26.8227 24.961 26.8227C25.258 26.8227 25.2865 26.8512 25.2865 27.1002C25.2865 27.2532 25.315 27.5122 25.344 27.6747C25.4015 27.9717 25.411 27.9717 25.9665 27.9717C26.503 27.9717 26.5315 27.9622 26.4835 27.7517C26.4645 27.6367 26.33 26.6602 26.196 25.5782C25.8415 22.7727 25.9855 23.0887 25.095 23.0887C24.463 23.0887 24.3385 23.1172 24.2905 23.2517ZM25.114 25.5017C25.152 26.0282 25.1425 26.0572 24.9415 26.0572C24.75 26.0572 24.7215 26.0192 24.7595 25.7892C24.7785 25.6457 24.8265 25.1862 24.865 24.7647L24.932 23.9987L25.0085 24.4777C25.047 24.7357 25.095 25.2047 25.114 25.5017Z" fill="white"/>
<path d="M26.914 25.5302V27.9717H27.4405H27.967L27.9765 25.9802L27.986 23.9982L28.36 25.7697C28.561 26.7462 28.7525 27.6367 28.7815 27.7517C28.8295 27.9527 28.887 27.9717 29.5475 27.9717H30.2655V25.5302V23.0887H29.8345H29.4035L29.3845 24.8312L29.356 26.5837L29.04 25.0037C28.8675 24.1322 28.705 23.3472 28.676 23.2512C28.628 23.1172 28.5035 23.0882 27.7665 23.0882H26.9145V25.5302H26.914Z" fill="white"/>
<path d="M30.744 25.5207V27.9722H31.7975C32.918 27.9722 33.205 27.8957 33.569 27.4932C33.7415 27.3017 33.7605 27.1197 33.789 25.7792C33.837 23.3567 33.703 23.1557 31.8835 23.1077L30.744 23.0692V25.5207ZM32.506 23.9122C32.6305 24.0367 32.659 24.3237 32.659 25.5687C32.659 27.1197 32.6205 27.3017 32.257 27.3017C32.094 27.3017 32.0845 27.1677 32.0845 25.5302C32.0845 24.0557 32.1035 23.7587 32.2185 23.7587C32.2955 23.7587 32.4295 23.8262 32.506 23.9122Z" fill="white"/>
<path d="M10.09 14.4801C9.2475 15.4566 9.41 15.3611 8.5485 15.3421C8.022 15.3231 7.7635 15.3516 7.7635 15.4281C7.7635 15.4856 7.936 15.7921 8.1465 16.0986C8.357 16.4051 8.5295 16.7116 8.5295 16.7591C8.5295 16.8166 8.4145 17.1421 8.2805 17.4966C8.1275 17.8701 8.0605 18.1571 8.108 18.2051C8.1655 18.2626 8.443 18.2241 8.8165 18.1091C9.161 18.0036 9.487 17.9176 9.5445 17.9176C9.6115 17.9176 9.8985 18.1186 10.1955 18.3581C10.904 18.9516 11.019 18.8941 11.019 17.9751V17.2666L11.6415 16.8741C11.986 16.6536 12.264 16.4241 12.264 16.3476C12.264 16.2806 11.9575 16.1081 11.565 15.9646L10.8565 15.7061L10.694 14.9976C10.598 14.6051 10.4835 14.2601 10.445 14.2316C10.3965 14.2026 10.234 14.3176 10.09 14.4801Z" fill="white"/>
<path d="M38.8165 15.208L38.6345 15.9355L38.0215 16.1655C37.0545 16.5295 37.045 16.577 37.8015 17.0655L38.4525 17.487L38.5005 18.253C38.529 18.7795 38.5865 19.019 38.673 19.019C38.74 19.019 39.037 18.818 39.3435 18.569L39.8895 18.1285L40.6365 18.3295C41.0385 18.435 41.4025 18.4925 41.441 18.4635C41.4695 18.425 41.3835 18.109 41.2495 17.7455C41.106 17.391 40.991 17.0465 40.991 16.9795C40.991 16.9125 41.1635 16.5965 41.374 16.2805C41.594 15.9645 41.738 15.6675 41.6995 15.61C41.661 15.543 41.393 15.524 40.9045 15.5715L40.167 15.6385L39.7075 15.0545C39.4585 14.729 39.2 14.4705 39.1235 14.4705C39.046 14.4705 38.931 14.7485 38.8165 15.208Z" fill="white"/>
<path d="M6.739 22.9161C6.6815 22.9831 6.605 23.3276 6.5665 23.6916L6.4995 24.3331L5.8195 24.6971C5.446 24.8886 5.13 25.0991 5.111 25.1471C5.092 25.2046 5.379 25.3961 5.7525 25.5781C6.4705 25.9231 6.48 25.9326 6.5665 26.7366C6.672 27.5986 6.7195 27.6176 7.371 26.9761L7.936 26.4206L8.549 26.5261C9.65 26.7176 9.6695 26.6791 9.162 25.7601L8.8365 25.1666L9.162 24.5731C9.5735 23.8261 9.5835 23.6156 9.21 23.6921C9.0665 23.7211 8.712 23.7781 8.444 23.8166L7.9365 23.8836L7.39 23.3376C6.959 22.9066 6.8155 22.8206 6.739 22.9161Z" fill="white"/>
<path d="M41.976 23.6057L41.4205 24.1612L40.6735 24.0462C40.262 23.9792 39.898 23.9502 39.8595 23.9887C39.831 24.0272 39.965 24.3717 40.166 24.7452L40.54 25.4442L40.176 26.0952C39.956 26.4972 39.8505 26.7752 39.908 26.8327C39.9655 26.8902 40.272 26.8807 40.741 26.8037L41.478 26.6887L42.0045 27.2537C42.3395 27.6177 42.5505 27.7902 42.6175 27.7227C42.6655 27.6747 42.761 27.3012 42.8185 26.9087L42.924 26.1807L43.585 25.8657C43.949 25.6837 44.2455 25.4827 44.2455 25.4157C44.2455 25.3487 43.9485 25.1382 43.575 24.9562C43.211 24.7742 42.9045 24.5827 42.9045 24.5447C42.9045 24.2672 42.6845 23.2137 42.617 23.1466C42.56 23.0886 42.3115 23.2707 41.976 23.6057Z" fill="white"/>
<path d="M10.0425 32.003L9.4965 32.482L8.836 32.2905C8.472 32.1755 8.1275 32.0895 8.0605 32.0895C7.8975 32.0895 7.936 32.3195 8.204 32.9895L8.453 33.612L8.0605 34.1865C7.4765 35.0385 7.505 35.096 8.4625 35.029L9.2475 34.962L9.6785 35.5365C9.918 35.862 10.167 36.1015 10.2435 36.092C10.3295 36.073 10.4445 35.8045 10.55 35.4025C10.646 35.048 10.751 34.713 10.799 34.665C10.8375 34.6265 11.1535 34.4925 11.4885 34.3585C11.833 34.234 12.13 34.081 12.149 34.0235C12.168 33.9565 11.9 33.736 11.565 33.5255L10.9425 33.133L10.8755 32.319C10.8275 31.821 10.7605 31.5145 10.6935 31.5145C10.636 31.5245 10.339 31.735 10.0425 32.003Z" fill="white"/>
<path d="M38.4045 32.2522C38.4045 33.2382 38.347 33.3532 37.677 33.7557C36.8725 34.2347 36.892 34.3017 37.945 34.6847C38.443 34.8572 38.51 34.9142 38.5865 35.2302C38.6345 35.4217 38.73 35.7667 38.7875 35.9867C38.845 36.2167 38.931 36.3982 38.979 36.3982C39.027 36.3982 39.276 36.1397 39.525 35.8237L39.9845 35.2492H40.779C41.3155 35.2492 41.564 35.2112 41.564 35.1342C41.564 35.0767 41.3915 34.7607 41.181 34.4352L40.798 33.8512L41.047 33.2192C41.411 32.3192 41.363 32.2617 40.4725 32.5012L39.7545 32.6927L39.2085 32.2522C38.51 31.6777 38.4045 31.6777 38.4045 32.2522Z" fill="white"/>
<path d="M15.644 37.7582C15.6055 37.8252 15.462 38.1602 15.328 38.4957L15.0885 39.1182L14.428 39.2807C13.748 39.4532 13.499 39.5967 13.6525 39.7307C13.71 39.7787 13.978 39.9987 14.2655 40.2287L14.773 40.6502L14.7345 41.3972C14.706 41.8182 14.725 42.1727 14.773 42.2012C14.821 42.2397 15.1465 42.0672 15.5005 41.8372L16.142 41.4062L16.8025 41.6837C17.1665 41.8272 17.5015 41.9517 17.5495 41.9517C17.6645 41.9517 17.6455 41.6837 17.4635 40.9752L17.301 40.3432L17.7605 39.8067C18.364 39.0887 18.316 38.9832 17.3965 38.9832H16.6785L16.2475 38.3127C16.008 37.9392 15.788 37.6422 15.7685 37.6422C15.7395 37.6432 15.6915 37.7007 15.644 37.7582Z" fill="white"/>
<path d="M32.8985 38.457C32.5155 39.0605 32.506 39.07 32.0845 39.0795C31.462 39.0795 30.9355 39.185 30.9355 39.2995C30.9355 39.3475 31.1365 39.625 31.3855 39.922L31.8355 40.439L31.711 40.985C31.491 41.952 31.481 42.048 31.615 42.048C31.682 42.048 32.027 41.933 32.381 41.799L33.0225 41.55L33.616 41.952C33.9415 42.172 34.2575 42.3255 34.334 42.2965C34.43 42.268 34.449 42.0765 34.4105 41.502L34.3625 40.755L34.9465 40.2955C35.272 40.0465 35.5305 39.788 35.502 39.721C35.483 39.6635 35.1475 39.5295 34.755 39.4335L34.037 39.261L33.769 38.543C33.6255 38.1505 33.453 37.8345 33.3955 37.8345C33.3295 37.8345 33.1095 38.1125 32.8985 38.457Z" fill="white"/>
<path d="M23.084 40.6785C23.084 40.7645 23.132 41.1095 23.1895 41.454L23.295 42.067L22.7395 42.632C22.433 42.9385 22.213 43.216 22.2415 43.2545C22.28 43.2835 22.634 43.36 23.036 43.4175L23.7735 43.5325L24.118 44.1931C24.3095 44.5571 24.52 44.8636 24.568 44.8636C24.6255 44.8731 24.817 44.5666 24.999 44.2031L25.334 43.5325L26.0045 43.427C27.01 43.2835 27.0195 43.2545 26.3875 42.6225L25.832 42.067L25.899 41.5595C25.9375 41.2915 25.995 40.937 26.0235 40.7935C26.0905 40.4295 25.9375 40.4295 25.152 40.822L24.5295 41.1285L23.9645 40.822C23.3235 40.4775 23.084 40.439 23.084 40.6785Z" fill="white"/>
</svg>
