<svg width="50" height="50" viewBox="0 0 50 50" fill="none" xmlns="http://www.w3.org/2000/svg">
<path d="M37.9309 37.9316H36.2817V41.23H21.4391V42.8792H36.2817V45.3529C36.2817 46.009 36.021 46.6382 35.5571 47.1021C35.0932 47.5661 34.464 47.8266 33.8079 47.8266H15.667C15.2328 47.826 14.8062 47.7115 14.43 47.4944C14.0538 47.2774 13.7411 46.9655 13.5231 46.5898L12.0949 47.4144C12.4583 48.0402 12.9793 48.5598 13.6061 48.9216C14.2328 49.2832 14.9434 49.4743 15.667 49.4758H33.8079C34.901 49.4745 35.9489 49.0397 36.7218 48.2668C37.4947 47.4939 37.9296 46.446 37.9309 45.3529V37.9316Z" fill="white"/>
<path d="M25.5621 44.5273H23.913V46.1765H25.5621V44.5273Z" fill="white"/>
<path d="M28.8603 22.2638V20.6146H26.3445C26.1457 18.0676 25.0438 15.6754 23.2373 13.8688C21.4308 12.0624 19.0386 10.9604 16.4915 10.7617V8.24587H14.8424V10.7617C14.2867 10.8041 13.7354 10.8901 13.1932 11.0189V6.59667H26.3866V4.94751H13.1932V4.12292C13.1932 3.46684 13.4538 2.83763 13.9178 2.37372C14.3817 1.9098 15.0109 1.64917 15.667 1.64917H33.8078C34.4103 1.64923 34.992 1.86913 35.4438 2.26761L36.5347 1.03073C35.7818 0.366146 34.812 -0.000417695 33.8078 3.57185e-07H15.667C14.5739 0.00130968 13.5259 0.436108 12.753 1.20902C11.9801 1.98193 11.5454 3.02986 11.5441 4.12292V11.5442C9.72297 12.307 8.14754 13.5573 6.9911 15.1576C5.83468 16.7579 5.14204 18.6461 4.98941 20.6146H2.4736V22.2638H4.99107C5.17928 24.8147 6.27746 27.2132 8.08558 29.0224C9.89377 30.8316 12.2916 31.9312 14.8424 32.1209V34.6325H16.4915V32.1209C19.0423 31.9312 21.4401 30.8316 23.2483 29.0224C25.0564 27.2132 26.1546 24.8147 26.3428 22.2638H28.8603ZM14.8424 28.8604V30.4717C13.6922 30.3682 12.5725 30.0452 11.5441 29.5201V28.0359C11.5441 26.9424 11.9784 25.8937 12.7516 25.1205C13.5248 24.3473 14.5735 23.913 15.667 23.913C16.7604 23.913 17.8091 24.3473 18.5823 25.1205C19.3555 25.8937 19.7899 26.9424 19.7899 28.0359V29.5201C18.7614 30.0457 17.6418 30.3695 16.4915 30.4742V28.8604H14.8424ZM13.1932 19.79C13.1932 19.3008 13.3383 18.8225 13.6101 18.4157C13.882 18.0089 14.2683 17.6918 14.7203 17.5046C15.1723 17.3173 15.6697 17.2683 16.1496 17.3638C16.6294 17.4593 17.0702 17.6949 17.4162 18.0408C17.7621 18.3868 17.9978 18.8275 18.0932 19.3074C18.1886 19.7872 18.1396 20.2846 17.9524 20.7367C17.7651 21.1887 17.4481 21.5751 17.0413 21.8469C16.6345 22.1187 16.1562 22.2638 15.667 22.2638C15.0109 22.2638 14.3817 22.0032 13.9178 21.5392C13.4538 21.0753 13.1932 20.4461 13.1932 19.79ZM21.7136 28.2008C21.6246 28.2833 21.5298 28.3492 21.4391 28.4251V28.0359C21.438 26.9791 21.1469 25.9429 20.5974 25.0403C20.0479 24.1376 19.2612 23.4031 18.323 22.9169C18.9696 22.3722 19.4332 21.642 19.6509 20.825C19.8686 20.008 19.8299 19.1439 19.5399 18.3497C19.2501 17.5555 18.723 16.8696 18.0302 16.385C17.3375 15.9004 16.5124 15.6405 15.667 15.6405C14.8215 15.6405 13.9965 15.9004 13.3037 16.385C12.6109 16.8696 12.0839 17.5555 11.794 18.3497C11.5041 19.1439 11.4654 20.008 11.683 20.825C11.9007 21.642 12.3643 22.3722 13.0109 22.9169C12.0728 23.4031 11.286 24.1376 10.7365 25.0403C10.187 25.9429 9.89594 26.9791 9.89486 28.0359V28.4292C9.80333 28.3541 9.70848 28.2841 9.62029 28.2049C7.91145 26.6726 6.84663 24.5497 6.64023 22.2638H8.24573V20.6146H6.63858C6.83376 18.5047 7.7608 16.5296 9.25906 15.0313C10.7573 13.533 12.7325 12.606 14.8424 12.4108V14.018H16.4915V12.4108C18.6014 12.606 20.5766 13.533 22.0749 15.0313C23.5731 16.5296 24.5001 18.5047 24.6954 20.6146H23.0882V22.2638H24.6937C24.4873 24.5497 23.4225 26.6726 21.7136 28.2049V28.2008Z" fill="white"/>
<path d="M47.0014 14.8433C47.2201 14.8433 47.4298 14.7564 47.5844 14.6017C47.7391 14.4471 47.8259 14.2374 47.8259 14.0187V4.12366C47.8259 3.90496 47.7391 3.69523 47.5844 3.54059C47.4298 3.38595 47.2201 3.29907 47.0014 3.29907H28.8605C28.6418 3.29907 28.4321 3.38595 28.2775 3.54059C28.1228 3.69523 28.0359 3.90496 28.0359 4.12366V14.0187C28.0359 14.2374 28.1228 14.4471 28.2775 14.6017C28.4321 14.7564 28.6418 14.8433 28.8605 14.8433H47.0014ZM29.6851 4.94825H46.1768V13.1941H29.6851V4.94825Z" fill="white"/>
<path d="M34.6325 6.59668H31.3342V8.24587H34.6325V6.59668Z" fill="white"/>
<path d="M44.5275 6.59668H36.2817V8.24587H44.5275V6.59668Z" fill="white"/>
<path d="M44.5275 9.89551H31.3342V11.5446H44.5275V9.89551Z" fill="white"/>
<path d="M46.8553 16.4919C46.2169 16.493 45.6009 16.7277 45.1236 17.1516L37.9308 23.4927V16.4919H36.2816V24.7378H36.5199L31.8288 28.8772C30.3588 28.9614 28.9764 29.6042 27.9646 30.6741C26.9529 31.7441 26.3884 33.1603 26.3866 34.6328V36.0874C26.3883 36.4885 26.2773 36.8821 26.0664 37.2233C25.8554 37.5646 25.553 37.8398 25.1934 38.0177C25.027 38.1006 24.8935 38.2374 24.8146 38.4057C24.7357 38.574 24.716 38.764 24.7587 38.9451C24.8014 39.126 24.9039 39.2872 25.0498 39.4025C25.1956 39.5178 25.3761 39.5805 25.562 39.5803H31.3341C32.8067 39.5785 34.2228 39.014 35.2927 38.0022C36.3628 36.9906 37.0056 35.6082 37.0897 34.138L48.8203 20.8441C49.1536 20.4659 49.3708 19.9996 49.4458 19.5011C49.5207 19.0027 49.4503 18.4931 49.2428 18.0336C49.0354 17.5742 48.6998 17.1843 48.2763 16.9109C47.8528 16.6374 47.3594 16.4919 46.8553 16.4919ZM31.3341 37.9311H27.5633C27.8744 37.3664 28.037 36.732 28.0358 36.0874V34.6328C28.0371 33.5968 28.4279 32.5992 29.1305 31.8379C29.8331 31.0766 30.7963 30.6073 31.8288 30.523L35.4438 34.138C35.3599 35.1706 34.8906 36.134 34.1292 36.8367C33.3679 37.5393 32.3701 37.93 31.3341 37.9311ZM47.5834 19.7532L36.2445 32.6043L33.3626 29.7232L46.2138 18.3835C46.399 18.221 46.6391 18.135 46.8855 18.143C47.1318 18.151 47.3659 18.2525 47.5401 18.4267C47.7144 18.601 47.8159 18.8351 47.8239 19.0814C47.832 19.3277 47.7459 19.5679 47.5834 19.7532Z" fill="white"/>
<path d="M0.824587 45.3531H18.9654C19.1841 45.3531 19.3938 45.2663 19.5485 45.1116C19.7031 44.957 19.79 44.7472 19.79 44.5285V37.9318C19.79 37.7131 19.7031 37.5034 19.5485 37.3488C19.3938 37.1942 19.1841 37.1073 18.9654 37.1073H13.1933V32.9844H11.5442V37.1073H0.824587C0.605891 37.1073 0.396155 37.1942 0.241515 37.3488C0.0868753 37.5034 0 37.7131 0 37.9318V44.5285C0 44.7472 0.0868753 44.957 0.241515 45.1116C0.396155 45.2663 0.605891 45.3531 0.824587 45.3531ZM1.64917 38.7564H18.1409V43.7039H1.64917V38.7564Z" fill="white"/>
<path d="M7.42138 40.4058H3.29846V42.0549H7.42138V40.4058Z" fill="white"/>
<path d="M16.4917 40.4058H9.07043V42.0549H16.4917V40.4058Z" fill="white"/>
<path d="M0.824587 11.5449H9.07043C9.28913 11.5449 9.49884 11.458 9.65348 11.3034C9.80812 11.1488 9.895 10.9391 9.895 10.7204V4.12366C9.895 3.90496 9.80812 3.69523 9.65348 3.54059C9.49884 3.38595 9.28913 3.29907 9.07043 3.29907H0.824587C0.605891 3.29907 0.396155 3.38595 0.241515 3.54059C0.0868753 3.69523 0 3.90496 0 4.12366V10.7204C0 10.9391 0.0868753 11.1488 0.241515 11.3034C0.396155 11.458 0.605891 11.5449 0.824587 11.5449ZM1.64917 4.94825H8.24587V9.89572H1.64917V4.94825Z" fill="white"/>
<path d="M6.5968 6.59668H3.29846V8.24587H6.5968V6.59668Z" fill="white"/>
</svg>
