<svg width="50" height="50" viewBox="0 0 50 50" fill="none" xmlns="http://www.w3.org/2000/svg">
<path d="M21.5426 43.179V30.3909C21.5426 29.9501 21.1855 29.593 20.7447 29.593H15.4256C14.9848 29.593 14.6277 29.9501 14.6277 30.3909C14.6277 30.8316 14.9848 31.1888 15.4256 31.1888H19.9468V43.179C18.424 43.5403 17.2873 44.9107 17.2873 46.5425C17.2873 48.449 18.8382 49.9999 20.7447 49.9999C22.6512 49.9999 24.2022 48.449 24.2022 46.5425C24.2022 44.9107 23.0655 43.5403 21.5426 43.179ZM20.7447 48.4042C19.7182 48.4042 18.883 47.569 18.883 46.5425C18.883 45.516 19.7182 44.6808 20.7447 44.6808C21.7712 44.6808 22.6064 45.516 22.6064 46.5425C22.6064 47.569 21.7712 48.4042 20.7447 48.4042Z" fill="white"/>
<path d="M30.0532 43.179V30.3909C30.0532 29.9501 29.6961 29.593 29.2553 29.593H23.9363C23.4956 29.593 23.1384 29.9501 23.1384 30.3909C23.1384 30.8316 23.4956 31.1888 23.9363 31.1888H28.4575V43.179C26.9346 43.5403 25.7979 44.9107 25.7979 46.5425C25.7979 48.449 27.3489 49.9999 29.2553 49.9999C31.1618 49.9999 32.7128 48.449 32.7128 46.5425C32.7128 44.9107 31.5761 43.5403 30.0532 43.179ZM29.2553 48.4042C28.2289 48.4042 27.3936 47.569 27.3936 46.5425C27.3936 45.516 28.2289 44.6808 29.2553 44.6808C30.2818 44.6808 31.117 45.516 31.117 46.5425C31.117 47.569 30.2818 48.4042 29.2553 48.4042Z" fill="white"/>
<path d="M43.617 37.7659C41.9852 37.7659 40.6148 38.9026 40.2535 40.4255H38.5638V30.3909C38.5638 29.9501 38.2067 29.593 37.7659 29.593H32.4468C32.0061 29.593 31.6489 29.9501 31.6489 30.3909C31.6489 30.8316 32.0061 31.1888 32.4468 31.1888H36.9681V41.2233C36.9681 41.6641 37.3252 42.0212 37.7659 42.0212H40.2535C40.6148 43.5441 41.9852 44.6808 43.617 44.6808C45.5235 44.6808 47.0745 43.1298 47.0745 41.2233C47.0745 39.3168 45.5235 37.7659 43.617 37.7659ZM43.617 43.085C42.5905 43.085 41.7553 42.2498 41.7553 41.2233C41.7553 40.1968 42.5905 39.3616 43.617 39.3616C44.6435 39.3616 45.4787 40.1968 45.4787 41.2233C45.4787 42.2498 44.6435 43.085 43.617 43.085Z" fill="white"/>
<path d="M48.1001 17.1869C47.0248 15.8518 45.5643 14.8627 43.9392 14.358C43.7562 10.5811 42.1891 7.05713 39.4881 4.37862C36.6406 1.555 32.864 0 28.8538 0C23.5878 0 18.7149 2.74596 15.9745 7.21138C15.3081 7.00128 14.6154 6.89521 13.907 6.89521C10.6478 6.89521 7.845 9.19585 7.16915 12.3319C2.9834 13.4178 0 17.2328 0 21.6065C0 26.8902 4.29851 31.1888 9.58223 31.1888H11.4362V40.4255H9.74649C9.38521 38.9027 8.01479 37.766 6.38298 37.766C4.47649 37.766 2.92553 39.3169 2.92553 41.2234C2.92553 43.1299 4.47649 44.6809 6.38298 44.6809C8.01479 44.6809 9.38521 43.5442 9.74649 42.0213H12.234C12.6748 42.0213 13.0319 41.6642 13.0319 41.2234V30.391C13.0319 29.9502 12.6748 29.5931 12.234 29.5931H9.58223C5.17851 29.5931 1.59574 26.0103 1.59574 21.6065C1.59574 17.8062 4.29734 14.512 8.01947 13.7738C8.35511 13.7073 8.61106 13.4341 8.65543 13.0948C8.99894 10.4702 11.2566 8.49106 13.907 8.49106C14.6362 8.49106 15.3433 8.63713 16.0087 8.92511C16.386 9.0884 16.8252 8.9384 17.0239 8.57894C19.4052 4.27149 23.9382 1.59574 28.8538 1.59574C36.2351 1.59574 42.2943 7.59979 42.3609 14.98C42.3641 15.3487 42.6197 15.667 42.9788 15.7501C46.1733 16.4894 48.4044 19.2981 48.4044 22.5802C48.4044 26.4471 45.2585 29.5931 41.3916 29.5931H40.9574C40.5167 29.5931 40.1596 29.9502 40.1596 30.391C40.1596 30.8317 40.5167 31.1888 40.9574 31.1888H41.3915C46.1382 31.1888 50 27.327 50 22.5802C50 20.6233 49.3252 18.7079 48.1001 17.1869ZM6.38298 43.0851C5.35649 43.0851 4.52128 42.2499 4.52128 41.2234C4.52128 40.1969 5.35649 39.3617 6.38298 39.3617C7.40947 39.3617 8.24468 40.1969 8.24468 41.2234C8.24468 42.2499 7.40947 43.0851 6.38298 43.0851Z" fill="white"/>
<path d="M38.9034 15.809H38.9107C39.3514 15.805 39.7053 15.4445 39.7014 15.0039C39.6895 13.6896 39.4414 12.4036 38.964 11.1814C38.8036 10.771 38.3411 10.5681 37.9305 10.7285C37.52 10.8888 37.3172 11.3514 37.4776 11.762C37.8842 12.8028 38.0954 13.8985 38.1055 15.0184C38.1097 15.4567 38.4661 15.809 38.9034 15.809Z" fill="white"/>
<path d="M35.987 9.22941C36.1448 9.42048 36.3727 9.5192 36.6025 9.5192C36.7816 9.5192 36.9616 9.45931 37.1102 9.33644C37.4499 9.0558 37.4979 8.55293 37.2172 8.21314C35.1396 5.69792 32.0911 4.25537 28.8539 4.25537C28.4132 4.25537 28.056 4.6125 28.056 5.05324C28.056 5.49399 28.4132 5.85112 28.8539 5.85112C31.6135 5.85112 34.2134 7.08239 35.987 9.22941Z" fill="white"/>
</svg>
