<svg width="90" height="90" viewBox="0 0 90 90" fill="none" xmlns="http://www.w3.org/2000/svg">
<path d="M68.0876 31.2635C64.528 21.6753 55.4581 14.8572 44.8339 14.8572C34.2096 14.8572 25.1398 21.6673 21.5802 31.2556C14.9196 33.0414 10 39.2404 10 46.6062C10 55.3769 16.9559 62.4807 25.5361 62.4807H28.6527C28.9946 62.4807 29.2744 62.195 29.2744 61.8458V57.0834C29.2744 56.7342 28.9946 56.4484 28.6527 56.4484H25.5361C22.917 56.4484 20.4533 55.3848 18.6191 53.4561C16.7927 51.5353 15.8212 48.9477 15.9067 46.2649C15.9766 44.1695 16.6761 42.201 17.9429 40.5422C19.2409 38.8515 21.0595 37.6212 23.0802 37.0736L26.0258 36.2878L27.1061 33.3827C27.7745 31.573 28.7071 29.8824 29.8807 28.3505C31.0392 26.8322 32.4116 25.4975 33.9532 24.3898C37.1474 22.096 40.9091 20.8816 44.8339 20.8816C48.7587 20.8816 52.5203 22.096 55.7146 24.3898C57.2612 25.501 58.6291 26.8345 59.7871 28.3505C60.9607 29.8824 61.8933 31.581 62.5617 33.3827L63.6342 36.2798L66.572 37.0736C70.7844 38.2324 73.73 42.1455 73.73 46.6062C73.73 49.2335 72.7274 51.7099 70.9088 53.5672C70.0169 54.4834 68.9559 55.2098 67.7873 55.7043C66.6186 56.1989 65.3656 56.4518 64.1006 56.4484H60.984C60.642 56.4484 60.3622 56.7342 60.3622 57.0834V61.8458C60.3622 62.195 60.642 62.4807 60.984 62.4807H64.1006C72.6808 62.4807 79.6367 55.3769 79.6367 46.6062C79.6367 39.2484 74.7326 33.0573 68.0876 31.2635Z" stroke="#024D81" stroke-width="2"/>
<path d="M57 69.1429V65.8571H53.5484C53.3368 64.8287 52.9284 63.8508 52.3458 62.9772L54.7936 60.5294L52.4706 58.2064L50.0228 60.6542C49.1492 60.0716 48.1713 59.6632 47.1429 59.4516V56H43.8571V59.4516C42.8287 59.6632 41.8508 60.0716 40.9772 60.6542L38.5294 58.2064L36.2064 60.5294L38.6542 62.9772C38.0716 63.8508 37.6632 64.8287 37.4516 65.8571H34V69.1429H37.4516C37.6652 70.1894 38.0825 71.1619 38.6542 72.0228L36.2064 74.4706L38.5294 76.7936L40.9772 74.3458C41.8508 74.9284 42.8287 75.3368 43.8571 75.5484V79H47.1429V75.5484C48.1713 75.3368 49.1492 74.9284 50.0228 74.3458L52.4706 76.7936L54.7936 74.4706L52.3458 72.0228C52.9284 71.1492 53.3368 70.1713 53.5484 69.1429H57ZM45.5 72.4286C42.7827 72.4286 40.5714 70.2173 40.5714 67.5C40.5714 64.7827 42.7827 62.5714 45.5 62.5714C48.2173 62.5714 50.4286 64.7827 50.4286 67.5C50.4286 70.2173 48.2173 72.4286 45.5 72.4286Z" stroke="#024D81" stroke-width="2"/>
<path d="M34.6719 43.4929C34.6188 43.0223 34.4001 42.6577 34.0156 42.3991C33.6312 42.1373 33.1473 42.0064 32.5639 42.0064C32.1463 42.0064 31.785 42.0727 31.4801 42.2053C31.1752 42.3345 30.9382 42.5135 30.7692 42.7422C30.6035 42.9676 30.5206 43.2244 30.5206 43.5128C30.5206 43.7547 30.5769 43.9635 30.6896 44.1392C30.8056 44.3149 30.9564 44.4624 31.142 44.5817C31.331 44.6977 31.5331 44.7955 31.7486 44.875C31.964 44.9512 32.1712 45.0142 32.37 45.0639L33.3643 45.3224C33.6892 45.402 34.0223 45.5097 34.3636 45.6456C34.705 45.7815 35.0215 45.9605 35.3132 46.1825C35.6049 46.4046 35.8402 46.6797 36.0192 47.0078C36.2015 47.3359 36.2926 47.7287 36.2926 48.1861C36.2926 48.7628 36.1435 49.2749 35.8452 49.7223C35.5502 50.1697 35.121 50.5227 34.5575 50.7812C33.9974 51.0398 33.3196 51.169 32.5241 51.169C31.7618 51.169 31.1023 51.0481 30.5455 50.8061C29.9886 50.5642 29.5528 50.2211 29.2379 49.777C28.9231 49.3295 28.7491 48.7992 28.7159 48.1861H30.2571C30.2869 48.554 30.4063 48.8606 30.6151 49.1058C30.8272 49.3478 31.0973 49.5284 31.4254 49.6477C31.7569 49.7637 32.1198 49.8217 32.5142 49.8217C32.9484 49.8217 33.3345 49.7538 33.6726 49.6179C34.014 49.4787 34.2824 49.2865 34.478 49.0412C34.6735 48.7926 34.7713 48.5026 34.7713 48.1712C34.7713 47.8696 34.6851 47.6226 34.5128 47.4304C34.3438 47.2382 34.1134 47.0791 33.8217 46.9531C33.5334 46.8272 33.2069 46.7161 32.8423 46.62L31.6392 46.2919C30.8239 46.0698 30.1776 45.7434 29.7003 45.3125C29.2263 44.8816 28.9893 44.3116 28.9893 43.6023C28.9893 43.0156 29.1484 42.5036 29.4666 42.0661C29.7848 41.6286 30.2157 41.2888 30.7592 41.0469C31.3028 40.8016 31.916 40.679 32.5987 40.679C33.2881 40.679 33.8963 40.8 34.4233 41.0419C34.9536 41.2839 35.3712 41.617 35.6761 42.0412C35.9811 42.4621 36.1402 42.946 36.1534 43.4929H34.6719ZM40.2314 51.169C39.7475 51.169 39.31 51.0795 38.9189 50.9006C38.5278 50.7183 38.2179 50.4548 37.9892 50.1101C37.7638 49.7654 37.6511 49.3428 37.6511 48.8423C37.6511 48.4115 37.734 48.0568 37.8997 47.7784C38.0654 47.5 38.2891 47.2796 38.5708 47.1172C38.8526 46.9548 39.1674 46.8321 39.5154 46.7493C39.8635 46.6664 40.2181 46.6035 40.5794 46.5604C41.0368 46.5073 41.408 46.4643 41.693 46.4311C41.978 46.3946 42.1852 46.3366 42.3145 46.2571C42.4437 46.1776 42.5083 46.0483 42.5083 45.8693V45.8345C42.5083 45.4003 42.3857 45.0639 42.1404 44.8253C41.8985 44.5866 41.5372 44.4673 41.0566 44.4673C40.5562 44.4673 40.1618 44.5784 39.8734 44.8004C39.5884 45.0192 39.3912 45.2628 39.2818 45.5312L37.8848 45.2131C38.0505 44.7491 38.2924 44.3745 38.6106 44.0895C38.9321 43.8011 39.3017 43.5923 39.7193 43.4631C40.1369 43.3305 40.5761 43.2642 41.0368 43.2642C41.3417 43.2642 41.6648 43.3007 42.0062 43.3736C42.3509 43.4432 42.6724 43.5724 42.9707 43.7614C43.2723 43.9503 43.5192 44.2204 43.7115 44.5717C43.9037 44.9197 43.9998 45.3722 43.9998 45.929V51H42.5481V49.956H42.4885C42.3923 50.1482 42.2482 50.3371 42.0559 50.5227C41.8637 50.7083 41.6168 50.8625 41.3152 50.9851C41.0136 51.1077 40.6523 51.169 40.2314 51.169ZM40.5545 49.9759C40.9655 49.9759 41.3168 49.8946 41.6085 49.7322C41.9035 49.5698 42.1272 49.3577 42.2797 49.0959C42.4354 48.8307 42.5133 48.5473 42.5133 48.2457V47.2614C42.4603 47.3144 42.3575 47.3641 42.2051 47.4105C42.0559 47.4536 41.8852 47.4917 41.693 47.5249C41.5008 47.5547 41.3135 47.5829 41.1312 47.6094C40.9489 47.6326 40.7965 47.6525 40.6738 47.669C40.3855 47.7055 40.122 47.7668 39.8833 47.853C39.648 47.9392 39.4591 48.0634 39.3166 48.2259C39.1774 48.3849 39.1078 48.5971 39.1078 48.8622C39.1078 49.2301 39.2437 49.5085 39.5154 49.6974C39.7872 49.883 40.1336 49.9759 40.5545 49.9759ZM48.2021 51.169C47.7182 51.169 47.2807 51.0795 46.8896 50.9006C46.4985 50.7183 46.1886 50.4548 45.9599 50.1101C45.7345 49.7654 45.6218 49.3428 45.6218 48.8423C45.6218 48.4115 45.7047 48.0568 45.8704 47.7784C46.0361 47.5 46.2598 47.2796 46.5415 47.1172C46.8233 46.9548 47.1381 46.8321 47.4862 46.7493C47.8342 46.6664 48.1888 46.6035 48.5501 46.5604C49.0075 46.5073 49.3787 46.4643 49.6637 46.4311C49.9487 46.3946 50.1559 46.3366 50.2852 46.2571C50.4144 46.1776 50.479 46.0483 50.479 45.8693V45.8345C50.479 45.4003 50.3564 45.0639 50.1112 44.8253C49.8692 44.5866 49.5079 44.4673 49.0273 44.4673C48.5269 44.4673 48.1325 44.5784 47.8441 44.8004C47.5591 45.0192 47.3619 45.2628 47.2525 45.5312L45.8555 45.2131C46.0212 44.7491 46.2631 44.3745 46.5813 44.0895C46.9028 43.8011 47.2724 43.5923 47.69 43.4631C48.1076 43.3305 48.5468 43.2642 49.0075 43.2642C49.3124 43.2642 49.6355 43.3007 49.9769 43.3736C50.3216 43.4432 50.6431 43.5724 50.9414 43.7614C51.243 43.9503 51.4899 44.2204 51.6822 44.5717C51.8744 44.9197 51.9705 45.3722 51.9705 45.929V51H50.5188V49.956H50.4592C50.363 50.1482 50.2189 50.3371 50.0266 50.5227C49.8344 50.7083 49.5875 50.8625 49.2859 50.9851C48.9843 51.1077 48.623 51.169 48.2021 51.169ZM48.5252 49.9759C48.9362 49.9759 49.2875 49.8946 49.5792 49.7322C49.8742 49.5698 50.0979 49.3577 50.2504 49.0959C50.4061 48.8307 50.484 48.5473 50.484 48.2457V47.2614C50.431 47.3144 50.3282 47.3641 50.1758 47.4105C50.0266 47.4536 49.8559 47.4917 49.6637 47.5249C49.4715 47.5547 49.2842 47.5829 49.1019 47.6094C48.9196 47.6326 48.7672 47.6525 48.6445 47.669C48.3562 47.7055 48.0927 47.7668 47.854 47.853C47.6187 47.9392 47.4298 48.0634 47.2873 48.2259C47.1481 48.3849 47.0785 48.5971 47.0785 48.8622C47.0785 49.2301 47.2144 49.5085 47.4862 49.6974C47.7579 49.883 48.1043 49.9759 48.5252 49.9759ZM59.623 43.4929C59.57 43.0223 59.3513 42.6577 58.9668 42.3991C58.5823 42.1373 58.0984 42.0064 57.5151 42.0064C57.0975 42.0064 56.7362 42.0727 56.4313 42.2053C56.1264 42.3345 55.8894 42.5135 55.7203 42.7422C55.5546 42.9676 55.4718 43.2244 55.4718 43.5128C55.4718 43.7547 55.5281 43.9635 55.6408 44.1392C55.7568 44.3149 55.9076 44.4624 56.0932 44.5817C56.2821 44.6977 56.4843 44.7955 56.6998 44.875C56.9152 44.9512 57.1223 45.0142 57.3212 45.0639L58.3155 45.3224C58.6403 45.402 58.9734 45.5097 59.3148 45.6456C59.6562 45.7815 59.9727 45.9605 60.2644 46.1825C60.556 46.4046 60.7914 46.6797 60.9703 47.0078C61.1526 47.3359 61.2438 47.7287 61.2438 48.1861C61.2438 48.7628 61.0946 49.2749 60.7963 49.7223C60.5014 50.1697 60.0721 50.5227 59.5087 50.7812C58.9486 51.0398 58.2708 51.169 57.4753 51.169C56.713 51.169 56.0534 51.0481 55.4966 50.8061C54.9398 50.5642 54.504 50.2211 54.1891 49.777C53.8742 49.3295 53.7002 48.7992 53.6671 48.1861H55.2083C55.2381 48.554 55.3574 48.8606 55.5662 49.1058C55.7783 49.3478 56.0485 49.5284 56.3766 49.6477C56.708 49.7637 57.071 49.8217 57.4654 49.8217C57.8996 49.8217 58.2857 49.7538 58.6238 49.6179C58.9651 49.4787 59.2336 49.2865 59.4292 49.0412C59.6247 48.7926 59.7225 48.5026 59.7225 48.1712C59.7225 47.8696 59.6363 47.6226 59.464 47.4304C59.2949 47.2382 59.0646 47.0791 58.7729 46.9531C58.4846 46.8272 58.1581 46.7161 57.7935 46.62L56.5904 46.2919C55.775 46.0698 55.1287 45.7434 54.6515 45.3125C54.1775 44.8816 53.9405 44.3116 53.9405 43.6023C53.9405 43.0156 54.0996 42.5036 54.4178 42.0661C54.736 41.6286 55.1668 41.2888 55.7104 41.0469C56.254 40.8016 56.8671 40.679 57.5499 40.679C58.2393 40.679 58.8475 40.8 59.3745 41.0419C59.9048 41.2839 60.3224 41.617 60.6273 42.0412C60.9322 42.4621 61.0913 42.946 61.1046 43.4929H59.623Z" fill="#024D81"/>
</svg>
