<svg width="50" height="50" viewBox="0 0 50 50" fill="none" xmlns="http://www.w3.org/2000/svg">
<g clip-path="url(#clip0_1116_102)">
<path d="M49 30.75H43.4167V8.5C43.4167 8.33333 43.3333 8.16667 43.25 8L35.6667 0.416667C35.5 0.25 35.3333 0.25 35.1667 0.25H8.75C7.16667 0.333333 5.75 1.66667 5.75 3.33333V8.75L5.58333 8.83333C2.33333 10.6667 0.25 14.0833 0.25 17.8333C0.25 21.5833 2.25 25 5.58333 26.8333L5.75 26.9167V46.6667C5.75 48.3333 7.08333 49.6667 8.75 49.6667H40.4167C42.0833 49.6667 43.4167 48.3333 43.4167 46.6667V44.4167H49C49.3333 44.4167 49.6667 44.0833 49.6667 43.75V31.4167C49.6667 31.0833 49.4167 30.75 49 30.75ZM35.9167 2.58333L41.1667 7.83333H37.5833C36.6667 7.83333 35.9167 7.08333 35.9167 6.16667V2.58333ZM1.66667 17.75C1.66667 13.25 5.08333 9.41667 9.58333 8.91667H9.91667V17.8333C9.91667 18 10 18.1667 10.0833 18.3333L16.3333 24.5833L16.0833 24.8333C14.5 26.0833 12.5833 26.75 10.5833 26.75C5.66667 26.6667 1.66667 22.6667 1.66667 17.75ZM11.25 17.0833V6.91667H11.5833C16.75 7.41667 20.9167 11.5 21.4167 16.75V17.0833H11.25ZM19.4167 18.4167V18.75C19.25 20.4167 18.5833 22 17.5 23.25L17.25 23.5L12.0833 18.3333H19.4167V18.4167ZM42.0833 43.0833H37.1667V26.25H42.0833V43.0833ZM42.0833 24.9167H36.5C36.1667 24.9167 35.8333 25.25 35.8333 25.5833V30.75H30.25C29.9167 30.75 29.5833 31.0833 29.5833 31.4167V36.8333H24C23.6667 36.8333 23.3333 37.1667 23.3333 37.5V43.75C23.3333 44.0833 23.6667 44.4167 24 44.4167H42.0833V46.6667C42.0833 47.5833 41.3333 48.3333 40.4167 48.3333H8.75C7.83333 48.3333 7.08333 47.5833 7.08333 46.6667V27.4167L7.5 27.5833C8.5 27.9167 9.5 28.0833 10.5 28.0833C15.75 28.0833 20.25 24 20.6667 18.75V18.5H22C22.3333 18.5 22.6667 18.1667 22.6667 17.8333C22.6667 11.0833 17.1667 5.66667 10.5 5.66667C10.1667 5.66667 9.83333 6 9.83333 6.33333V7.66667H9.58333C8.91667 7.66667 8.16667 7.75 7.5 8L7.08333 8.08333V3.33333C7.08333 2.41667 7.83333 1.66667 8.75 1.66667H34.5V6.16667C34.5 7.83333 35.8333 9.16667 37.5 9.16667H42L42.0833 24.9167ZM35.8333 32.0833V43.0833H30.9167V32.0833H35.8333ZM29.5833 38.1667V43.0833H24.6667V38.1667H29.5833ZM48.3333 43.0833H43.4167V32.0833H48.3333V43.0833Z" fill="white" stroke="white"/>
<path d="M26.4999 13.9168H29.3333C29.6666 13.9168 29.9999 13.5835 29.9999 13.2502C29.9999 12.9168 29.6666 12.5835 29.3333 12.5835H26.4999C26.1666 12.5835 25.8333 12.9168 25.8333 13.2502C25.8333 13.5835 26.0833 13.9168 26.4999 13.9168Z" fill="white"/>
<path d="M37.5 12.5835H33.9167C33.5833 12.5835 33.25 12.9168 33.25 13.2502C33.25 13.5835 33.5833 13.9168 33.9167 13.9168H37.5C37.8333 13.9168 38.1667 13.5835 38.1667 13.2502C38.1667 12.8335 37.8333 12.5835 37.5 12.5835Z" fill="white"/>
<path d="M26.4999 17.25C26.3333 17.25 26.1666 17.3333 25.9999 17.4167C25.8333 17.5 25.8333 17.75 25.8333 17.9167C25.8333 18.0833 25.9166 18.25 25.9999 18.4167C26.2499 18.6667 26.6666 18.6667 26.9166 18.4167C27.0833 18.25 27.0833 18.0833 27.0833 17.9167C27.0833 17.75 26.9999 17.5833 26.9166 17.4167C26.8333 17.3333 26.6666 17.25 26.4999 17.25Z" fill="white"/>
<path d="M37.5001 17.25H30.8334C30.5001 17.25 30.1667 17.5833 30.1667 17.9167C30.1667 18.25 30.5001 18.5833 30.8334 18.5833H37.5001C37.8334 18.5833 38.1667 18.25 38.1667 17.9167C38.1667 17.5 37.8334 17.25 37.5001 17.25Z" fill="white"/>
<path d="M11.5834 39.7498H15.1667C15.5001 39.7498 15.8334 39.4165 15.8334 39.0832C15.8334 38.7498 15.5001 38.4165 15.1667 38.4165H11.5834C11.2501 38.4165 10.9167 38.7498 10.9167 39.0832C10.9167 39.4165 11.2501 39.7498 11.5834 39.7498Z" fill="white"/>
<path d="M18.8334 43.0835H11.5834C11.2501 43.0835 10.9167 43.4168 10.9167 43.7502C10.9167 44.0835 11.2501 44.4168 11.5834 44.4168H18.8334C19.1667 44.4168 19.5001 44.0835 19.5001 43.7502C19.5001 43.4168 19.1667 43.0835 18.8334 43.0835Z" fill="white"/>
</g>
<defs>
<clipPath id="clip0_1116_102">
<rect width="50" height="50" fill="white"/>
</clipPath>
</defs>
</svg>
