<svg width="70" height="70" viewBox="0 0 70 70" fill="none" xmlns="http://www.w3.org/2000/svg">
<path d="M19.5999 11.2002C11.8835 11.2002 5.5999 17.4838 5.5999 25.2002C5.5999 26.6385 5.97178 27.9729 6.37647 29.2744C3.38506 31.5768 1.3999 35.1369 1.3999 39.2002C1.3999 46.14 7.06006 51.8002 13.9999 51.8002C14.4757 51.8002 14.9296 51.7182 15.389 51.6635C17.4397 55.8525 21.6343 58.8002 26.5999 58.8002C31.2976 58.8002 35.3062 56.1533 37.4718 52.3307C38.6968 52.7627 39.9272 53.2002 41.2999 53.2002C45.5929 53.2002 49.2843 50.8541 51.3788 47.4307C51.9749 47.5072 52.571 47.6002 53.1999 47.6002C61.6874 47.6002 68.5999 40.6877 68.5999 32.2002C68.5999 23.7127 61.6874 16.8002 53.1999 16.8002C51.439 16.8002 49.8147 17.2814 48.2343 17.8283C46.0905 14.7057 42.5632 12.6002 38.4999 12.6002C35.2187 12.6002 32.4187 14.1369 30.2694 16.2971C27.6991 13.2236 23.9093 11.2002 19.5999 11.2002ZM19.5999 14.0002C23.5046 14.0002 26.9171 15.9854 28.9241 19.0041L30.0288 20.6557L31.2155 19.0697C32.878 16.8439 35.5085 15.4002 38.4999 15.4002C41.9124 15.4002 44.8655 17.2705 46.4241 20.0377L47.0476 21.1369L48.2015 20.6338C49.7382 19.9721 51.4226 19.6002 53.1999 19.6002C60.178 19.6002 65.7999 25.2221 65.7999 32.2002C65.7999 39.1783 60.178 44.8002 53.1999 44.8002C52.4397 44.8002 51.6905 44.7236 50.9468 44.5869L49.9132 44.401L49.4429 45.3416C47.9499 48.3385 44.8819 50.4002 41.2999 50.4002C39.9108 50.4002 38.5983 50.0775 37.4116 49.5197L36.121 48.9072L35.5358 50.2088C34.0046 53.6213 30.5921 56.0002 26.5999 56.0002C22.4054 56.0002 18.8616 53.3752 17.4562 49.6947L17.0351 48.59L15.8812 48.8197C15.2632 48.9346 14.6397 49.0002 13.9999 49.0002C8.56943 49.0002 4.1999 44.6307 4.1999 39.2002C4.1999 35.7549 5.97178 32.7471 8.65147 30.9971L9.6085 30.3682L9.1874 29.3127C8.68428 28.0275 8.3999 26.6494 8.3999 25.2002C8.3999 18.9986 13.3983 14.0002 19.5999 14.0002ZM22.5585 28.0002C22.4983 28.0002 22.4546 28.0494 22.4546 28.115V36.2854C22.4546 36.351 22.4983 36.4002 22.5585 36.4002H23.5538C23.614 36.4002 23.6577 36.351 23.6577 36.2854V28.115C23.6577 28.0494 23.614 28.0002 23.5538 28.0002H22.5585ZM40.0093 28.0221C39.3312 28.0221 38.8007 28.2135 38.4288 28.5908C38.0569 28.9627 37.8054 29.5369 37.6741 30.2807L37.603 30.7947H36.7608C36.7608 30.7947 36.6569 30.7893 36.6351 30.9041L36.4929 31.6807C36.4874 31.7572 36.5202 31.801 36.6187 31.801H37.4444L36.6077 36.4713C36.5421 36.8486 36.4655 37.1549 36.3835 37.39C36.3015 37.6252 36.2194 37.7947 36.121 37.926C36.028 38.0463 35.9351 38.1338 35.7819 38.1885C35.6507 38.2322 35.503 38.2541 35.3444 38.2541C35.2515 38.2541 35.1312 38.2377 35.0437 38.2158C34.9507 38.1994 34.9069 38.183 34.8413 38.1502C34.8413 38.1502 34.7429 38.1174 34.7046 38.2158C34.6718 38.2924 34.453 38.8994 34.4312 38.976C34.4038 39.0471 34.4366 39.1018 34.4858 39.1182C34.5952 39.1619 34.6772 39.1838 34.8249 39.2221C35.0382 39.2658 35.2132 39.2713 35.3718 39.2713C35.7163 39.2713 36.0335 39.2221 36.2905 39.1291C36.553 39.0361 36.7772 38.8721 36.9796 38.6533C37.1983 38.4072 37.3351 38.1557 37.4663 37.8166C37.5921 37.4721 37.7015 37.051 37.7944 36.5588L38.6312 31.801H39.8616C39.8616 31.801 39.9655 31.8064 39.9874 31.6916L40.1241 30.915C40.1351 30.8385 40.1022 30.7947 40.0038 30.7947H38.8062C38.8171 30.7674 38.8937 30.0893 39.0304 29.6955C39.0905 29.526 39.1999 29.3893 39.2929 29.2963C39.3858 29.2033 39.4897 29.1377 39.6046 29.0994C39.7249 29.0611 39.8562 29.0447 40.0038 29.0447C40.1132 29.0447 40.228 29.0557 40.3155 29.0721C40.4249 29.0994 40.4741 29.1104 40.5069 29.1213C40.6272 29.1596 40.6382 29.1213 40.6655 29.0666L40.9499 28.2791C40.9827 28.1971 40.9116 28.1588 40.8843 28.1479C40.764 28.1096 40.6601 28.0877 40.5124 28.0658C40.3702 28.0385 40.2007 28.0221 40.0093 28.0221ZM13.3819 30.8002H13.2507C12.0421 30.8002 11.1944 31.4783 11.1944 32.4408V32.4627C11.1944 33.4744 12.1241 33.808 12.9991 34.0377L13.1413 34.076C13.7757 34.2564 14.328 34.4096 14.328 34.8252V34.8471C14.328 35.2189 13.9671 35.5033 13.3929 35.5033C13.1687 35.5033 12.4632 35.4979 11.6921 35.0494C11.5991 35.0002 11.5444 34.9619 11.4733 34.9236C11.4351 34.9018 11.3421 34.8635 11.2983 34.9783L11.0358 35.651C10.9976 35.7439 11.0522 35.7658 11.0687 35.7822C11.189 35.8643 11.3093 35.9189 11.4351 35.9846C12.0913 36.3072 12.7093 36.4002 13.3601 36.4002C14.6835 36.4002 15.5038 35.7549 15.5038 34.7104V34.6939C15.5038 33.726 14.5741 33.376 13.7046 33.1189L13.5952 33.0916C12.939 32.8947 12.3757 32.7252 12.3757 32.326V32.3096C12.3757 31.965 12.7038 31.7189 13.2179 31.7189C13.7866 31.7189 14.4593 31.8939 14.8968 32.1127C14.8968 32.1127 15.028 32.1893 15.0718 32.0744C15.0991 32.0143 15.3179 31.4674 15.3397 31.4072C15.3671 31.3416 15.3179 31.2979 15.2741 31.2705C14.7765 30.9916 14.0929 30.8002 13.3819 30.8002ZM18.9983 30.8002C18.7194 30.8002 18.271 30.833 17.9976 30.8877C17.9976 30.8877 17.1827 31.0299 16.8437 31.276C16.8437 31.276 16.7726 31.3197 16.8163 31.4127L17.0788 32.0689C17.1116 32.1564 17.1991 32.1291 17.1991 32.1291C17.1991 32.1291 17.2265 32.1182 17.2593 32.0963C17.9812 31.7354 18.889 31.7463 18.889 31.7463C19.2937 31.7463 19.5999 31.8229 19.8132 31.9705C20.0155 32.1182 20.1194 32.3369 20.1194 32.7963V32.9439C19.7968 32.9002 19.5015 32.8783 19.5015 32.8783C19.3483 32.8674 19.1569 32.8564 18.9218 32.8564C18.5991 32.8564 18.2874 32.8947 18.003 32.9658C17.7077 33.0424 17.4452 33.1518 17.221 33.2994C16.9968 33.4525 16.8108 33.6439 16.6796 33.8736C16.5483 34.1033 16.4772 34.3713 16.4772 34.6721C16.4772 34.9783 16.5374 35.2408 16.6468 35.4596C16.7616 35.6783 16.9257 35.8643 17.1335 36.0064C17.3413 36.1432 17.5983 36.2471 17.8937 36.3072C18.1944 36.3674 18.5226 36.4002 18.8835 36.4002C19.2718 36.4002 19.6491 36.3729 20.021 36.3127C20.3874 36.258 20.8358 36.1705 20.9616 36.1432C21.0874 36.1158 21.2187 36.0775 21.2187 36.0775C21.3116 36.0557 21.3062 35.9682 21.3062 35.9682V32.8072C21.3062 32.1127 21.1093 31.5986 20.7155 31.2814C20.3218 30.9643 19.7421 30.8002 18.9983 30.8002ZM27.7812 30.8002C27.3163 30.8002 26.8897 30.8713 26.5507 31.0189C26.2062 31.1721 25.9108 31.3744 25.6866 31.6314C25.4624 31.883 25.2874 32.1893 25.178 32.5283C25.0741 32.8729 25.0194 33.2447 25.0194 33.6385C25.0194 34.0322 25.0741 34.4041 25.1835 34.7377C25.2983 35.0768 25.4843 35.3721 25.7249 35.6182C25.9765 35.8697 26.2882 36.0611 26.6655 36.1979C27.0429 36.3346 27.4968 36.4057 28.0218 36.4002C29.0991 36.4002 29.6679 36.176 29.903 36.0557C29.9468 36.0338 29.9851 35.9955 29.9358 35.8916L29.6897 35.2572C29.6515 35.1588 29.553 35.1971 29.553 35.1971C29.2851 35.2846 28.9022 35.4541 28.0163 35.4541C27.4366 35.4486 27.0101 35.2955 26.7366 35.0439C26.4632 34.7924 26.3265 34.415 26.3046 33.89L30.0343 33.8955C30.0343 33.8955 30.1327 33.8955 30.1437 33.8025C30.1491 33.7697 30.2749 33.0916 30.0343 32.3096C29.9413 31.9814 29.7062 31.6533 29.553 31.5002C29.3124 31.2596 29.0827 31.0955 28.8476 31.0025C28.5413 30.8822 28.1804 30.8002 27.7812 30.8002ZM33.4905 30.8002H33.3593C32.1452 30.8002 31.303 31.4783 31.303 32.4408V32.4627C31.303 33.4744 32.2382 33.808 33.1077 34.0377L33.2499 34.076C33.8843 34.2564 34.4312 34.4096 34.4312 34.8252V34.8471C34.4312 35.2189 34.0757 35.5033 33.5015 35.5033C33.2772 35.5033 32.5663 35.4979 31.8007 35.0494C31.7077 35.0002 31.653 34.9674 31.5819 34.9236C31.5601 34.9072 31.4452 34.8689 31.4069 34.9783L31.1444 35.651C31.1062 35.7439 31.1608 35.7658 31.1718 35.7822C31.2976 35.8643 31.4179 35.9189 31.5437 35.9846C32.1999 36.3072 32.8179 36.4002 33.4687 36.4002C34.7866 36.4002 35.6124 35.7549 35.6124 34.7104V34.6939C35.6124 33.726 34.6827 33.376 33.8132 33.1189L33.7038 33.0916C33.0476 32.8947 32.4843 32.7252 32.4843 32.326V32.3096C32.4843 31.965 32.8124 31.7189 33.321 31.7189C33.8897 31.7189 34.5679 31.8939 34.9999 32.1127C34.9999 32.1127 35.1312 32.1893 35.1749 32.0744C35.2022 32.0143 35.421 31.4674 35.4429 31.4072C35.4702 31.3416 35.4265 31.2979 35.3827 31.2705C34.8851 30.9916 34.196 30.8002 33.4905 30.8002ZM42.9187 30.8002C42.4757 30.8002 42.0765 30.8713 41.7374 31.0189C41.3983 31.1666 41.114 31.3689 40.8897 31.615C40.6655 31.8666 40.5015 32.1674 40.3921 32.5064C40.2827 32.8455 40.228 33.2119 40.228 33.6057C40.228 33.9994 40.2827 34.3658 40.3921 34.6994C40.5015 35.0385 40.6655 35.3447 40.8897 35.5908C41.114 35.8424 41.4038 36.0447 41.7374 36.1814C42.0765 36.3236 42.4757 36.4002 42.9187 36.4002C43.3671 36.4002 43.7663 36.3291 44.0999 36.1869C44.439 36.0447 44.7233 35.8424 44.953 35.5908C45.1718 35.3447 45.3413 35.0439 45.4507 34.7049C45.5601 34.3658 45.6093 33.9994 45.6093 33.6057C45.6093 33.2119 45.5601 32.8455 45.4507 32.5064C45.3413 32.1674 45.1718 31.8666 44.953 31.615C44.7288 31.3689 44.439 31.1666 44.0999 31.0189C43.7663 30.8768 43.3671 30.8002 42.9187 30.8002ZM53.0905 30.8002C52.6312 30.8002 52.221 30.8713 51.8655 31.0189C51.5101 31.1611 51.2147 31.3635 50.9741 31.615C50.739 31.8666 50.5585 32.1674 50.4382 32.5064C50.3179 32.84 50.2632 33.2119 50.2632 33.6057C50.2632 34.4533 50.5038 35.1369 50.9905 35.64C51.4827 36.1432 52.2155 36.4002 53.1726 36.4002C53.7358 36.4002 54.3155 36.2963 54.7312 36.1432C54.7312 36.1432 54.8132 36.1049 54.7749 36.0229L54.5069 35.3283C54.4687 35.2244 54.3647 35.2627 54.3647 35.2627C54.2062 35.3229 54.0366 35.3721 53.8562 35.3994C53.6702 35.4268 53.4679 35.4377 53.2491 35.4377C52.7132 35.4377 52.2921 35.2955 51.9913 35.0002C51.6851 34.7104 51.5155 34.24 51.5155 33.6057C51.5155 33.026 51.6687 32.5885 51.9366 32.2604C52.2046 31.9268 52.6147 31.7572 53.1616 31.7572C53.6155 31.7572 53.9655 31.8064 54.3265 31.9158C54.3265 31.9158 54.414 31.9486 54.4522 31.8447C54.5507 31.5932 54.6218 31.4127 54.7257 31.1447C54.753 31.0627 54.6819 31.0299 54.6546 31.0189C54.5124 30.9697 54.1788 30.8877 53.9218 30.8494C53.6812 30.8166 53.4022 30.8002 53.0905 30.8002ZM57.8921 30.8002C57.4272 30.8002 57.0062 30.8713 56.6616 31.0189C56.3171 31.1721 56.0272 31.3744 55.803 31.6314C55.5733 31.883 55.4038 32.1893 55.2944 32.5283C55.1851 32.8729 55.1304 33.2447 55.1304 33.6385C55.1304 34.0322 55.1905 34.4041 55.2999 34.7377C55.4147 35.0768 55.5952 35.3721 55.8413 35.6182C56.0874 35.8697 56.4046 36.0611 56.7819 36.1979C57.1593 36.3346 57.6132 36.4057 58.1382 36.4002C59.2155 36.4002 59.7843 36.176 60.0194 36.0557C60.0577 36.0338 60.096 35.9955 60.0468 35.8916L59.8062 35.2572C59.7679 35.1588 59.664 35.1971 59.664 35.1971C59.396 35.2846 59.0187 35.4541 58.1272 35.4541C57.553 35.4486 57.121 35.2955 56.853 35.0439C56.5796 34.7924 56.4429 34.415 56.421 33.89L60.1562 33.8955C60.1562 33.8955 60.2491 33.8955 60.2655 33.8025C60.2655 33.7697 60.3858 33.0916 60.1507 32.3096C60.0522 31.9814 59.8226 31.6533 59.6694 31.5002C59.4288 31.2596 59.1937 31.0955 58.9585 31.0025C58.6577 30.8822 58.2913 30.8002 57.8921 30.8002ZM49.3827 30.8057C48.9124 30.7783 48.6554 30.8549 48.4202 30.9533C48.1905 31.0518 47.928 31.2158 47.7913 31.3963V30.9643C47.7913 30.9041 47.7421 30.8549 47.6819 30.8549H46.7249C46.6593 30.8549 46.6155 30.9041 46.6155 30.9643V36.2908C46.6155 36.3564 46.6647 36.4002 46.7304 36.4002H47.7093C47.7749 36.4002 47.8187 36.3564 47.8187 36.2908V33.6275C47.8187 33.2721 47.8624 32.9166 47.9499 32.6924C48.0265 32.4736 48.1358 32.2932 48.2726 32.1674C48.4093 32.0416 48.5624 31.9541 48.7374 31.8994C48.9069 31.8502 49.0983 31.8338 49.2351 31.8338C49.4319 31.8338 49.6452 31.883 49.6452 31.883C49.7163 31.8885 49.7546 31.8447 49.7819 31.7846C49.8476 31.6205 50.028 31.1338 50.0663 31.0408C50.0937 30.9588 50.0335 30.915 50.0062 30.9096C49.946 30.8822 49.6288 30.8221 49.3827 30.8057ZM27.6937 31.7189C28.1804 31.7189 28.503 31.8939 28.7382 32.2221C28.8913 32.4354 28.9569 32.7197 28.9843 33.0369H26.321C26.3757 32.7088 26.4741 32.4299 26.6218 32.2221C26.8515 31.8939 27.2015 31.7189 27.6937 31.7189ZM57.8046 31.7189C58.2968 31.7189 58.6194 31.8939 58.8491 32.2221C59.0022 32.4354 59.0733 32.7197 59.1007 33.0369H56.4374C56.4866 32.7088 56.5851 32.4299 56.7382 32.2221C56.9679 31.8939 57.3124 31.7189 57.8046 31.7189ZM42.9187 31.7408C43.4108 31.7408 43.7608 31.8939 43.996 32.2221C44.2312 32.5447 44.346 33.015 44.346 33.6057C44.346 34.1963 44.2312 34.6666 43.9905 34.9947C43.7608 35.3229 43.4108 35.4814 42.9187 35.4814C42.4265 35.4814 42.0819 35.3229 41.8522 34.9947C41.6226 34.6666 41.5022 34.1963 41.5022 33.6057C41.5022 33.015 41.6226 32.5447 41.8522 32.2221C42.0819 31.8939 42.4319 31.7408 42.9187 31.7408ZM19.1022 33.7314C19.6382 33.7369 20.1194 33.8135 20.1194 33.8135V35.383C20.1194 35.383 19.6437 35.476 19.1132 35.5033C18.353 35.5471 18.014 35.3064 18.0194 35.3064C17.8718 35.1971 17.8499 35.1697 17.8062 35.0986C17.7296 34.9947 17.6913 34.8416 17.6913 34.6502C17.6913 34.3439 17.8007 34.1252 18.0249 33.9775C18.0194 33.9775 18.3421 33.7205 19.1022 33.7314Z" fill="white"/>
</svg>
