<svg width="90" height="90" viewBox="0 0 90 90" fill="none" xmlns="http://www.w3.org/2000/svg">
<path d="M45 10C40.3418 10.0101 35.7961 11.3777 31.9617 13.9227C28.1274 16.4677 25.1845 20.0706 23.5206 24.2567C21.8568 28.4428 21.5502 33.0157 22.6411 37.3728C23.7321 41.7298 26.1694 45.6667 29.6321 48.6646V79L45 69.1429L60.3679 79V48.6646C63.8306 45.6667 66.2679 41.7298 67.3589 37.3728C68.4498 33.0157 68.1432 28.4428 66.4794 24.2567C64.8155 20.0706 61.8726 16.4677 58.0383 13.9227C54.2039 11.3777 49.6582 10.0101 45 10V10ZM55.2453 69.7836L47.8431 65.0521L45 63.2286L42.1569 65.0521L34.7547 69.7836V52.0161C37.932 53.5584 41.4412 54.3619 45 54.3619C48.5588 54.3619 52.068 53.5584 55.2453 52.0161V69.7836ZM57.5249 44.5C54.5627 47.2824 50.6911 48.9928 46.5671 49.3409C42.4432 49.689 38.3212 48.6534 34.9006 46.4099C31.4801 44.1663 28.9719 40.8531 27.8018 37.0326C26.6318 33.2121 26.8718 29.1197 28.4814 25.4501C30.0909 21.7806 32.9707 18.76 36.6319 16.901C40.2931 15.0421 44.5101 14.4593 48.5671 15.2518C52.6241 16.0442 56.2711 18.1629 58.889 21.2483C61.5069 24.3337 62.9345 28.1956 62.9293 32.1786C62.9263 34.4751 62.4467 36.7479 61.5186 38.8637C60.5906 40.9795 59.2328 42.8957 57.5249 44.5Z" stroke="#024D81" stroke-width="2"/>
<path d="M45.5001 36.2077L45 35.9189L44.4999 36.2077L39.7276 38.964L40.9775 33.8368L41.1257 33.2293L40.6442 32.8301L36.5294 29.419L41.9899 28.9757L42.5826 28.9276L42.8233 28.3839L45 23.4694L47.1767 28.3839L47.4174 28.9276L48.0101 28.9757L53.4706 29.419L49.3558 32.8301L48.8743 33.2293L49.0225 33.8368L50.2724 38.964L45.5001 36.2077Z" stroke="#024D81" stroke-width="2"/>
</svg>
