<svg width="90" height="90" viewBox="0 0 90 90" fill="none" xmlns="http://www.w3.org/2000/svg">
<path d="M45.5177 41.2918L45 40.9786L44.4823 41.2918L33.5335 47.9166L36.44 35.4266L36.5765 34.84L36.1217 34.445L26.4416 26.0381L39.1837 24.9543L39.7851 24.9032L40.0201 24.3473L45 12.568L49.9799 24.3473L50.2149 24.9032L50.8163 24.9543L63.5584 26.0381L53.8783 34.445L53.4235 34.84L53.56 35.4266L56.4665 47.9166L45.5177 41.2918Z" stroke="white" stroke-width="2"/>
<path d="M26.5117 73.2514L26 72.9466L25.4883 73.2514L17.6282 77.933L19.7092 69.1301L19.8495 68.5363L19.3858 68.1399L12.4708 62.2282L21.5874 61.4649L22.1859 61.4148L22.4228 60.863L26 52.534L29.5772 60.863L29.8141 61.4148L30.4126 61.4649L39.5292 62.2282L32.6142 68.1399L32.1505 68.5363L32.2908 69.1301L34.3718 77.933L26.5117 73.2514Z" stroke="white" stroke-width="2"/>
<path d="M64.5117 73.2514L64 72.9466L63.4883 73.2514L55.6282 77.933L57.7092 69.1301L57.8495 68.5363L57.3858 68.1399L50.4708 62.2282L59.5874 61.4649L60.1859 61.4148L60.4228 60.863L64 52.534L67.5772 60.863L67.8141 61.4148L68.4126 61.4649L77.5292 62.2282L70.6142 68.1399L70.1505 68.5363L70.2908 69.1301L72.3718 77.933L64.5117 73.2514Z" stroke="white" stroke-width="2"/>
</svg>
