<svg width="90" height="90" viewBox="0 0 90 90" fill="none" xmlns="http://www.w3.org/2000/svg">
<path d="M60.1562 12C62.9327 12 65.5955 13.103 67.5588 15.0662C69.522 17.0295 70.625 19.6923 70.625 22.4688V39.6375C69.2866 38.9527 67.884 38.4015 66.4375 37.9918V28.75H16.1875V60.1562C16.1875 61.8221 16.8493 63.4198 18.0272 64.5978C19.2052 65.7757 20.8029 66.4375 22.4688 66.4375H37.9918C38.4064 67.8989 38.9549 69.2976 39.6375 70.625H22.4688C19.6923 70.625 17.0295 69.522 15.0662 67.5588C13.103 65.5955 12 62.9327 12 60.1562V22.4688C12 19.6923 13.103 17.0295 15.0662 15.0662C17.0295 13.103 19.6923 12 22.4688 12H60.1562ZM60.1562 16.1875H22.4688C20.8029 16.1875 19.2052 16.8493 18.0272 18.0272C16.8493 19.2052 16.1875 20.8029 16.1875 22.4688V24.5625H66.4375V22.4688C66.4375 20.8029 65.7757 19.2052 64.5978 18.0272C63.4198 16.8493 61.8221 16.1875 60.1562 16.1875ZM57.5391 51.7812C57.5391 51.0871 57.8148 50.4214 58.3056 49.9306C58.7964 49.4398 59.4621 49.1641 60.1562 49.1641C60.8504 49.1641 61.5161 49.4398 62.0069 49.9306C62.4977 50.4214 62.7734 51.0871 62.7734 51.7812C62.7734 52.4754 62.4977 53.1411 62.0069 53.6319C61.5161 54.1227 60.8504 54.3984 60.1562 54.3984C59.4621 54.3984 58.7964 54.1227 58.3056 53.6319C57.8148 53.1411 57.5391 52.4754 57.5391 51.7812V51.7812ZM62.25 68.5312C62.25 69.0865 62.0294 69.6191 61.6368 70.0118C61.2441 70.4044 60.7115 70.625 60.1562 70.625C59.601 70.625 59.0684 70.4044 58.6757 70.0118C58.2831 69.6191 58.0625 69.0865 58.0625 68.5312V60.1562C58.0625 59.601 58.2831 59.0684 58.6757 58.6757C59.0684 58.2831 59.601 58.0625 60.1562 58.0625C60.7115 58.0625 61.2441 58.2831 61.6368 58.6757C62.0294 59.0684 62.25 59.601 62.25 60.1562V68.5312ZM41.3125 60.1562C41.3125 55.1586 43.2978 50.3656 46.8317 46.8317C50.3656 43.2978 55.1586 41.3125 60.1562 41.3125C65.1539 41.3125 69.9469 43.2978 73.4808 46.8317C77.0147 50.3656 79 55.1586 79 60.1562C79 65.1539 77.0147 69.9469 73.4808 73.4808C69.9469 77.0147 65.1539 79 60.1562 79C55.1586 79 50.3656 77.0147 46.8317 73.4808C43.2978 69.9469 41.3125 65.1539 41.3125 60.1562V60.1562ZM45.5 60.1562C45.5 62.0809 45.8791 63.9868 46.6156 65.765C47.3522 67.5431 48.4318 69.1588 49.7927 70.5198C51.1537 71.8807 52.7694 72.9603 54.5475 73.6969C56.3257 74.4334 58.2316 74.8125 60.1562 74.8125C62.0809 74.8125 63.9868 74.4334 65.765 73.6969C67.5431 72.9603 69.1588 71.8807 70.5198 70.5198C71.8807 69.1588 72.9603 67.5431 73.6969 65.765C74.4334 63.9868 74.8125 62.0809 74.8125 60.1562C74.8125 56.2692 73.2684 52.5413 70.5198 49.7927C67.7712 47.0441 64.0433 45.5 60.1562 45.5C56.2692 45.5 52.5413 47.0441 49.7927 49.7927C47.0441 52.5413 45.5 56.2692 45.5 60.1562V60.1562Z" stroke="white" stroke-width="2"/>
<path d="M21 34H47" stroke="white" stroke-width="2"/>
<path d="M21 40H40" stroke="white" stroke-width="2"/>
<path d="M21 46H31" stroke="white" stroke-width="2"/>
</svg>
