<svg width="90" height="90" viewBox="0 0 90 90" fill="none" xmlns="http://www.w3.org/2000/svg">
<path fill-rule="evenodd" clip-rule="evenodd" d="M30.625 65.0775C30.625 64.4227 30.8851 63.7948 31.3481 63.3318C31.811 62.8689 32.439 62.6088 33.0937 62.6088H77.5305C78.1853 62.6088 78.8132 62.8689 79.2762 63.3318C79.7392 63.7948 79.9993 64.4227 79.9993 65.0775C79.9993 65.7322 79.7392 66.3602 79.2762 66.8231C78.8132 67.2861 78.1853 67.5462 77.5305 67.5462H33.0937C32.439 67.5462 31.811 67.2861 31.3481 66.8231C30.8851 66.3602 30.625 65.7322 30.625 65.0775ZM30.625 45.3278C30.625 44.673 30.8851 44.0451 31.3481 43.5821C31.811 43.1192 32.439 42.8591 33.0937 42.8591H77.5305C78.1853 42.8591 78.8132 43.1192 79.2762 43.5821C79.7392 44.0451 79.9993 44.673 79.9993 45.3278C79.9993 45.9825 79.7392 46.6105 79.2762 47.0734C78.8132 47.5364 78.1853 47.7965 77.5305 47.7965H33.0937C32.439 47.7965 31.811 47.5364 31.3481 47.0734C30.8851 46.6105 30.625 45.9825 30.625 45.3278ZM30.625 25.5781C30.625 24.9233 30.8851 24.2954 31.3481 23.8324C31.811 23.3695 32.439 23.1094 33.0937 23.1094H77.5305C78.1853 23.1094 78.8132 23.3695 79.2762 23.8324C79.7392 24.2954 79.9993 24.9233 79.9993 25.5781C79.9993 26.2328 79.7392 26.8608 79.2762 27.3237C78.8132 27.7867 78.1853 28.0468 77.5305 28.0468H33.0937C32.439 28.0468 31.811 27.7867 31.3481 27.3237C30.8851 26.8608 30.625 26.2328 30.625 25.5781Z" stroke="white" stroke-width="2"/>
<path d="M17.0079 19.1295C17.0919 18.8573 17.2609 18.6191 17.4901 18.4499C17.7194 18.2807 17.9968 18.1895 18.2817 18.1895C18.5666 18.1895 18.8441 18.2807 19.0733 18.4499C19.3026 18.6191 19.4716 18.8573 19.5556 19.1295L20.3554 21.7464C20.5282 22.3142 21.0467 22.7042 21.6293 22.7042H24.3498C25.6286 22.7042 26.1767 24.3484 25.1595 25.1384L22.8488 26.9307C22.6305 27.1014 22.4692 27.3345 22.3863 27.5991C22.3034 27.8636 22.3028 28.1471 22.3847 28.4119L23.2389 31.2213C23.624 32.4853 22.1872 33.5024 21.1504 32.7025L19.0914 31.1028C18.86 30.9226 18.575 30.8248 18.2817 30.8248C17.9884 30.8248 17.7034 30.9226 17.472 31.1028L15.4131 32.6976C14.3762 33.5024 12.9444 32.4853 13.3245 31.2213L14.1787 28.407C14.2595 28.1428 14.2584 27.8604 14.1755 27.5969C14.0927 27.3333 13.932 27.1011 13.7146 26.9307L11.4039 25.1384C10.3868 24.3484 10.9348 22.7042 12.2136 22.7042H14.9292C15.217 22.7034 15.4969 22.6097 15.7273 22.4371C15.9576 22.2646 16.1262 22.0223 16.208 21.7464L17.0079 19.1295V19.1295ZM17.0079 38.8792C17.0919 38.607 17.2609 38.3688 17.4901 38.1996C17.7194 38.0304 17.9968 37.9392 18.2817 37.9392C18.5666 37.9392 18.8441 38.0304 19.0733 38.1996C19.3026 38.3688 19.4716 38.607 19.5556 38.8792L20.3554 41.4961C20.5282 42.0639 21.0467 42.4539 21.6293 42.4539H24.3498C25.6286 42.4539 26.1767 44.0981 25.1595 44.8881L22.8488 46.6804C22.6305 46.8512 22.4692 47.0842 22.3863 47.3488C22.3034 47.6133 22.3028 47.8968 22.3847 48.1616L23.2389 50.971C23.624 52.23 22.1872 53.2521 21.1504 52.4522L19.0914 50.8525C18.86 50.6723 18.575 50.5745 18.2817 50.5745C17.9884 50.5745 17.7034 50.6723 17.472 50.8525L15.4131 52.4473C14.3762 53.2521 12.9444 52.235 13.3245 50.971L14.1787 48.1567C14.2595 47.8925 14.2584 47.6101 14.1755 47.3466C14.0927 47.0831 13.932 46.8508 13.7146 46.6804L11.4039 44.8881C10.3868 44.0981 10.9348 42.4539 12.2136 42.4539H14.9292C15.217 42.4531 15.4969 42.3594 15.7273 42.1868C15.9576 42.0143 16.1262 41.772 16.208 41.4961L17.0079 38.8792V38.8792ZM17.0079 58.6289C17.0919 58.3567 17.2609 58.1185 17.4901 57.9493C17.7194 57.7801 17.9968 57.6889 18.2817 57.6889C18.5666 57.6889 18.8441 57.7801 19.0733 57.9493C19.3026 58.1185 19.4716 58.3567 19.5556 58.6289L20.3554 61.2458C20.5282 61.8136 21.0467 62.2036 21.6293 62.2036H24.3498C25.6286 62.2036 26.1767 63.8478 25.1595 64.6378L22.8488 66.4301C22.6305 66.6009 22.4692 66.8339 22.3863 67.0985C22.3034 67.363 22.3028 67.6465 22.3847 67.9113L23.2389 70.7207C23.624 71.9797 22.1872 73.0018 21.1504 72.2019L19.0914 70.6022C18.86 70.422 18.575 70.3242 18.2817 70.3242C17.9884 70.3242 17.7034 70.422 17.472 70.6022L15.4131 72.197C14.3762 73.0018 12.9444 71.9847 13.3245 70.7207L14.1787 67.9064C14.2595 67.6422 14.2584 67.3598 14.1755 67.0963C14.0927 66.8328 13.932 66.6005 13.7146 66.4301L11.4039 64.6378C10.3868 63.8478 10.9348 62.2036 12.2136 62.2036H14.9292C15.217 62.2028 15.4969 62.1091 15.7273 61.9365C15.9576 61.764 16.1262 61.5217 16.208 61.2458L17.0079 58.6289V58.6289Z" stroke="white" stroke-width="2"/>
</svg>
