<svg width="90" height="90" viewBox="0 0 90 90" fill="none" xmlns="http://www.w3.org/2000/svg">
<path d="M28.6667 28.6676H16.46V16.4609M62 62.0009H74.2067V74.2076" stroke="#024D81" stroke-width="2" stroke-linecap="round" stroke-linejoin="round"/>
<path d="M74.2067 62C68.4433 71.9633 57.6717 78.6667 45.3333 78.6667M28.6667 62V74.2067H16.46" stroke="#024D81" stroke-width="2" stroke-linecap="round" stroke-linejoin="round"/>
<path d="M28.6667 74.2067C18.7033 68.4433 12 57.6717 12 45.3333M16.46 28.6667C22.2233 18.7033 32.995 12 45.3333 12M62 28.6667V16.46H74.2067" stroke="#024D81" stroke-width="2" stroke-linecap="round" stroke-linejoin="round"/>
<path d="M62 16.4609C71.9633 22.2243 78.6667 32.9959 78.6667 45.3343" stroke="#024D81" stroke-width="2" stroke-linecap="round" stroke-linejoin="round"/>
<path d="M60 42.8571V47.1429H55.4979C55.2219 48.4844 54.6892 49.7599 53.9293 50.8993L57.1221 54.0921L54.0921 57.1221L50.8993 53.9293C49.7599 54.6892 48.4844 55.2219 47.1429 55.4979V60H42.8571V55.4979C41.5156 55.2219 40.2401 54.6892 39.1007 53.9293L35.9079 57.1221L32.8779 54.0921L36.0707 50.8993C35.325 49.7764 34.7807 48.5079 34.5021 47.1429H30V42.8571H34.5021C34.7781 41.5156 35.3108 40.2401 36.0707 39.1007L32.8779 35.9079L35.9079 32.8779L39.1007 36.0707C40.2401 35.3108 41.5156 34.7781 42.8571 34.5021V30H47.1429V34.5021C48.4844 34.7781 49.7599 35.3108 50.8993 36.0707L54.0921 32.8779L57.1221 35.9079L53.9293 39.1007C54.6892 40.2401 55.2219 41.5156 55.4979 42.8571H60Z" stroke="#024D81" stroke-width="2"/>
<path d="M45 40C42.1739 40 40 42.1739 40 45C40 47.8261 42.1739 50 45 50C47.8261 50 50 47.8261 50 45C50 42.1739 47.8261 40 45 40Z" stroke="#024D81" stroke-width="2"/>
</svg>
