<svg width="90" height="90" viewBox="0 0 90 90" fill="none" xmlns="http://www.w3.org/2000/svg">
<path d="M78 74.667L66.9474 63.6167C69.9011 59.815 71.2948 55.0304 70.8446 50.2371C70.3944 45.4439 68.1341 41.0024 64.5241 37.8172C60.9141 34.632 56.2257 32.9425 51.4137 33.0928C46.6017 33.2431 42.0279 35.2218 38.6237 38.626C35.2194 42.0303 33.2407 46.6041 33.0904 51.4161C32.9402 56.2281 34.6297 60.9164 37.8149 64.5265C41.0001 68.1365 45.4415 70.3967 50.2348 70.8469C55.028 71.2972 59.8126 69.9035 63.6144 66.9497L74.667 78L78 74.667ZM52.0714 66.2143C49.2742 66.2143 46.5399 65.3848 44.2141 63.8308C41.8883 62.2767 40.0756 60.0679 39.0051 57.4837C37.9347 54.8994 37.6546 52.0557 38.2003 49.3123C38.746 46.5688 40.093 44.0488 42.0709 42.0709C44.0488 40.093 46.5688 38.746 49.3123 38.2003C52.0557 37.6546 54.8994 37.9347 57.4837 39.0051C60.0679 40.0756 62.2767 41.8883 63.8308 44.2141C65.3848 46.5399 66.2143 49.2742 66.2143 52.0714C66.2099 55.821 64.7185 59.4158 62.0671 62.0671C59.4158 64.7185 55.821 66.2099 52.0714 66.2143V66.2143ZM12 35.5714H30.8571V40.2857H12V35.5714ZM12 12H49.7143V16.7143H12V12ZM12 23.7857H49.7143V28.5H12V23.7857Z" stroke="white" stroke-width="2"/>
</svg>
