<svg width="90" height="90" viewBox="0 0 90 90" fill="none" xmlns="http://www.w3.org/2000/svg">
<path d="M44.7506 71.3087H15.9987C14.653 71.3087 13.3624 70.7741 12.4109 69.8226C11.4594 68.8711 10.9248 67.5805 10.9248 66.2348V22.2614C10.9248 20.9157 11.4594 19.6251 12.4109 18.6736C13.3624 17.7221 14.653 17.1875 15.9987 17.1875H73.5025C74.8481 17.1875 76.1387 17.7221 77.0902 18.6736C78.0417 19.6251 78.5763 20.9157 78.5763 22.2614V42.6566" stroke="#024D81" stroke-width="2" stroke-linecap="round" stroke-linejoin="round"/>
<path d="M10.9248 22.2614C10.9248 20.9157 11.4594 19.6251 12.4109 18.6736C13.3624 17.7221 14.653 17.1875 15.9987 17.1875H73.5025C74.8481 17.1875 76.1387 17.7221 77.0902 18.6736C78.0417 19.6251 78.5763 20.9157 78.5763 22.2614V37.483H10.9248V22.2614Z" stroke="#024D81" stroke-width="2"/>
<path d="M17.69 27.3352C17.69 25.4671 19.2044 23.9526 21.0725 23.9526C22.9407 23.9526 24.4551 25.4671 24.4551 27.3352C24.4551 29.2033 22.9407 30.7178 21.0725 30.7178C19.2044 30.7178 17.69 29.2033 17.69 27.3352Z" fill="#024D81"/>
<path d="M27.8377 27.3352C27.8377 25.4671 29.3521 23.9526 31.2203 23.9526C33.0884 23.9526 34.6028 25.4671 34.6028 27.3352C34.6028 29.2033 33.0884 30.7178 31.2203 30.7178C29.3521 30.7178 27.8377 29.2033 27.8377 27.3352Z" fill="#024D81"/>
<path d="M74.6784 72.4438L78.8496 77.7317C79.0432 77.9862 79.1291 78.3066 79.0887 78.6238C79.0484 78.941 78.8851 79.2297 78.634 79.4277C78.3828 79.6257 78.064 79.7171 77.7461 79.6823C77.4283 79.6475 77.1368 79.4892 76.9345 79.2416L72.7636 73.9512C69.3588 76.234 65.2023 77.1094 61.1661 76.3936C57.1298 75.6779 53.5277 73.4266 51.1156 70.1123C48.7034 66.7979 47.6688 62.6781 48.2287 58.6174C48.7886 54.5566 50.8995 50.8705 54.1186 48.3326C57.3376 45.7947 61.4146 44.6022 65.4939 45.0055C69.5732 45.4087 73.3378 47.3762 75.9977 50.4952C78.6576 53.6142 80.0061 57.6422 79.7601 61.734C79.5142 65.8258 77.693 69.6634 74.6787 72.4413L74.6784 72.4438ZM62.3583 74.1054C65.8916 74.5234 69.4462 73.5208 72.2402 71.3179C75.0343 69.1151 76.8388 65.8926 77.2568 62.3594C77.6749 58.8261 76.6722 55.2714 74.4694 52.4774C72.2666 49.6834 69.0441 47.8789 65.5108 47.4608C61.9775 47.0428 58.4229 48.0455 55.6289 50.2483C52.8349 52.4511 51.0303 55.6736 50.6123 59.2068C50.1942 62.7401 51.1969 66.2948 53.3997 69.0888C55.6025 71.8828 58.825 73.6873 62.3583 74.1054V74.1054Z" stroke="#024D81"/>
<rect x="15" y="42" width="33" height="3" fill="#024D81"/>
<rect x="15" y="57" width="8" height="4" fill="#024D81"/>
<rect x="26" y="57" width="8" height="4" fill="#024D81"/>
<rect x="37" y="57" width="8" height="4" fill="#024D81"/>
<path d="M15 49H28V53H15V49Z" fill="#024D81"/>
<path d="M15 65H28V68H15V65Z" fill="#024D81"/>
<rect x="32" y="49" width="13" height="4" fill="#024D81"/>
<rect x="32" y="65" width="13" height="3" fill="#024D81"/>
</svg>
