<svg width="90" height="90" viewBox="0 0 90 90" fill="none" xmlns="http://www.w3.org/2000/svg">
<path d="M28.6667 28.6676H16.46V16.4609M62 62.0009H74.2067V74.2076" stroke="#024D81" stroke-width="2" stroke-linecap="round" stroke-linejoin="round"/>
<path d="M74.2067 62C68.4433 71.9633 57.6717 78.6667 45.3333 78.6667M28.6667 62V74.2067H16.46" stroke="#024D81" stroke-width="2" stroke-linecap="round" stroke-linejoin="round"/>
<path d="M28.6667 74.2067C18.7033 68.4433 12 57.6717 12 45.3333M16.46 28.6667C22.2233 18.7033 32.995 12 45.3333 12M62 28.6667V16.46H74.2067" stroke="#024D81" stroke-width="2" stroke-linecap="round" stroke-linejoin="round"/>
<path d="M62 16.4609C71.9633 22.2243 78.6667 32.9959 78.6667 45.3343" stroke="#024D81" stroke-width="2" stroke-linecap="round" stroke-linejoin="round"/>
<path d="M44.9285 59.4999C44.9285 59.4999 55.857 55.8571 55.857 46.75" stroke="#024D81" stroke-width="2" stroke-linecap="round" stroke-linejoin="round"/>
<path d="M55.857 46.7499V35.8214C55.857 35.8214 52.2142 34 44.9285 34" stroke="#024D81" stroke-width="2" stroke-linecap="round" stroke-linejoin="round"/>
<path d="M44.9285 59.4999C44.9285 59.4999 34 55.8571 34 46.75" stroke="#024D81" stroke-width="2" stroke-linecap="round" stroke-linejoin="round"/>
<path d="M34 46.7499V35.8214C34 35.8214 37.6428 34 44.9285 34" stroke="#024D81" stroke-width="2" stroke-linecap="round" stroke-linejoin="round"/>
<path d="M52.2142 39.4629C44.9285 44.9271 43.1071 52.2128 43.1071 52.2128C43.1071 52.2128 41.2857 50.0388 39.4643 48.57" stroke="#024D81" stroke-width="2" stroke-linecap="round" stroke-linejoin="round"/>
</svg>
