<svg width="90" height="90" viewBox="0 0 90 90" fill="none" xmlns="http://www.w3.org/2000/svg">
<path d="M72.6628 61.6461V62.5654L73.5789 62.6426C74.2827 62.7019 74.9388 63.0227 75.4179 63.5417L76.1527 62.8634L75.4179 63.5417C75.8966 64.0603 76.1639 64.7392 76.1672 65.4449V75.6184C76.0996 76.3075 75.7812 76.9484 75.2717 77.4187C74.7531 77.8974 74.0742 78.1647 73.3684 78.168H57.3543C56.6652 78.1004 56.0243 77.782 55.554 77.2725C55.0753 76.7539 54.8081 76.0751 54.8047 75.3694V65.1869C54.8565 64.5307 55.1406 63.914 55.6066 63.448C56.0799 62.9747 56.7087 62.689 57.3766 62.6438L58.3091 62.5808V61.6461V57.3241C58.5205 55.5803 59.3598 53.9723 60.671 52.8016C61.9959 51.6187 63.7099 50.9648 65.486 50.9648C67.2621 50.9648 68.976 51.6187 70.3009 52.8016C71.6121 53.9723 72.4514 55.5803 72.6628 57.3241V61.6461Z" stroke="white" stroke-width="2"/>
<mask id="path-2-inside-1_106_1169" fill="white">
<path d="M80.0876 44.1235V17.8406C80.0876 16.2916 79.4723 14.806 78.377 13.7107C77.2816 12.6154 75.796 12 74.247 12H15.8406C14.2916 12 12.806 12.6154 11.7107 13.7107C10.6154 14.806 10 16.2916 10 17.8406L10 70.4064C10 71.9554 10.6154 73.441 11.7107 74.5363C12.806 75.6317 14.2916 76.247 15.8406 76.247H47.9641V70.4064H15.8406V17.8406H74.247V44.1235"/>
</mask>
<path d="M15.8406 12V10V12ZM10 17.8406H8H10ZM10 70.4064H8H10ZM47.9641 76.247V78.247H49.9641V76.247H47.9641ZM47.9641 70.4064H49.9641V68.4064H47.9641V70.4064ZM15.8406 70.4064H13.8406V72.4064H15.8406V70.4064ZM15.8406 17.8406V15.8406H13.8406V17.8406H15.8406ZM74.247 17.8406H76.247V15.8406H74.247V17.8406ZM82.0876 44.1235V17.8406H78.0876V44.1235H82.0876ZM82.0876 17.8406C82.0876 15.7612 81.2616 13.7669 79.7912 12.2965L76.9627 15.1249C77.683 15.8452 78.0876 16.822 78.0876 17.8406H82.0876ZM79.7912 12.2965C78.3208 10.8261 76.3265 10 74.247 10V14C75.2656 14 76.2425 14.4046 76.9627 15.1249L79.7912 12.2965ZM74.247 10H15.8406V14H74.247V10ZM15.8406 10C13.7612 10 11.7669 10.8261 10.2965 12.2965L13.1249 15.1249C13.8452 14.4046 14.822 14 15.8406 14V10ZM10.2965 12.2965C8.82606 13.7669 8 15.7612 8 17.8406H12C12 16.822 12.4046 15.8452 13.1249 15.1249L10.2965 12.2965ZM8 17.8406V70.4064H12V17.8406H8ZM8 70.4064C8 72.4858 8.82607 74.4801 10.2965 75.9505L13.1249 73.1221C12.4046 72.4019 12 71.425 12 70.4064H8ZM10.2965 75.9505C11.7669 77.4209 13.7612 78.247 15.8406 78.247V74.247C14.822 74.247 13.8452 73.8424 13.1249 73.1221L10.2965 75.9505ZM15.8406 78.247H47.9641V74.247H15.8406V78.247ZM49.9641 76.247V70.4064H45.9641V76.247H49.9641ZM47.9641 68.4064H15.8406V72.4064H47.9641V68.4064ZM17.8406 70.4064V17.8406H13.8406V70.4064H17.8406ZM15.8406 19.8406H74.247V15.8406H15.8406V19.8406ZM72.247 17.8406V44.1235H76.247V17.8406H72.247Z" fill="white" mask="url(#path-2-inside-1_106_1169)"/>
<path d="M50.4686 51.4058L50.4684 51.4152V51.4247V51.8848H46.0437V48.0442H51.3238C50.7876 49.0758 50.4909 50.225 50.4686 51.4058ZM22.6812 28.5223V24.6816H26.5218V28.5223H22.6812ZM34.3624 28.5223V24.6816H67.4062V28.5223H34.3624ZM34.3624 63.5661V59.7255H46.964V63.5661H34.3624ZM22.6812 63.5661V59.7255H26.5218V63.5661H22.6812ZM34.3624 40.2036V36.3629H38.2031V40.2036H34.3624ZM46.0437 40.2036V36.3629H67.4062V40.2036H46.0437ZM34.3624 51.8848V48.0442H38.2031V51.8848H34.3624Z" stroke="white" stroke-width="2"/>
</svg>
