<svg width="90" height="90" viewBox="0 0 90 90" fill="none" xmlns="http://www.w3.org/2000/svg">
<path d="M25 45C25 39.7667 26.9531 35.0113 30.1746 31.4433L33.7415 35.047C31.4093 37.702 30 41.1941 30 45C30 48.8105 31.4123 52.3014 33.7147 54.9801L30.1746 58.5567C26.9531 54.9887 25 50.2333 25 45ZM65 45C65 50.2333 63.0469 54.9887 59.8254 58.5567L56.2853 54.9801C58.5877 52.3014 60 48.8105 60 45C60 41.1941 58.5907 37.702 56.2585 35.047L59.8254 31.4433C63.0469 35.0113 65 39.7667 65 45ZM39 45C39 41.6529 41.7119 38.9279 45 38.9279C48.2881 38.9279 51 41.6529 51 45C51 48.3471 48.2881 51.0721 45 51.0721C41.7119 51.0721 39 48.3471 39 45ZM69.7346 68.5679L66.1725 64.9692C71.0221 59.7591 73.9996 52.7294 74 45.0014C74.0054 41.1563 73.2556 37.3481 71.7938 33.7972C70.4586 30.5541 68.5536 27.5843 66.173 25.0303L69.7346 21.4321C75.4782 27.5858 79 35.8784 79 45C79 54.1216 75.4782 62.4142 69.7346 68.5679ZM20.2654 68.5679C14.5218 62.4142 11 54.1216 11 45C11 35.8784 14.5218 27.5858 20.2654 21.4321L23.8275 25.0308C18.9776 30.2412 16 37.2715 16 45C16 52.7285 18.9776 59.7588 23.8275 64.9692L20.2654 68.5679Z" stroke="#024D81" stroke-width="2"/>
</svg>
