<svg width="90" height="90" viewBox="0 0 90 90" fill="none" xmlns="http://www.w3.org/2000/svg">
<path d="M59.7652 51.2677L59.3455 51.9357L59.8974 52.4994L77.5982 70.5772L70.6958 77.5812L52.7812 59.6945L52.2156 59.1298L51.5402 59.5569C47.575 62.0643 42.8638 63.5215 37.8657 63.5215C23.5063 63.5215 12 51.8672 12 37.2608C12 22.6544 23.5063 11 37.8657 11C52.225 11 63.7313 22.6544 63.7313 37.2608C63.7313 42.4052 62.291 47.2486 59.7652 51.2677ZM37.8657 21.1159C33.6373 21.1159 29.585 22.8205 26.5996 25.8498C23.6147 28.8786 21.9403 32.9835 21.9403 37.2608C21.9403 41.538 23.6147 45.6429 26.5996 48.6717C29.585 51.701 33.6373 53.4056 37.8657 53.4056C42.0941 53.4056 46.1463 51.701 49.1318 48.6717C52.1167 45.6429 53.791 41.538 53.791 37.2608C53.791 32.9835 52.1167 28.8786 49.1318 25.8498C46.1463 22.8205 42.0941 21.1159 37.8657 21.1159Z" stroke="#024D81" stroke-width="2"/>
</svg>
