<svg width="90" height="90" viewBox="0 0 90 90" fill="none" xmlns="http://www.w3.org/2000/svg">
<path d="M40.2953 23.9894L40.7638 24.3818L41.3267 24.1439C43.3884 23.2728 45.356 22.55 47.5 22.55C51.0377 22.55 54.2625 23.8412 56.9854 25.8417L57.3879 26.1374L57.866 25.9933C59.4559 25.5143 60.9279 25.1 62.5 25.1C71.5666 25.1 79 32.6533 79 41.95C79 51.2467 71.5666 58.8 62.5 58.8C61.7404 58.8 61.0419 58.6682 60.2399 58.5168C60.0503 58.4811 59.8549 58.4442 59.6516 58.4077L59.0401 58.298L58.6709 58.7976C56.5697 61.6399 53.5892 63.6323 50 63.6323C49.9359 63.6323 49.9156 63.6305 49.9026 63.6294C49.8862 63.628 49.8783 63.6271 49.8425 63.6238C49.8266 63.6223 49.8089 63.6206 49.789 63.619C49.7703 63.6174 49.7495 63.6158 49.7265 63.6142L49.2692 63.5826L48.9468 63.9084C45.9307 66.9556 41.9844 69 37.5 69C33.1338 69 29.2607 67.0596 26.2651 64.1427L25.9801 63.8652L25.5824 63.8593C17.5563 63.7401 11 57.0553 11 48.8044C11 45.6983 12.0839 42.8996 13.7021 40.4724L13.9274 40.1343L13.8531 39.7348C13.6661 38.7294 13.5 37.8201 13.5 36.85C13.5 27.5533 20.9334 20 30 20C33.9175 20 37.4276 21.587 40.2953 23.9894Z" stroke="#024D81" stroke-width="2"/>
<path d="M39.05 37.3501H35.65C34.3929 37.3501 33.1552 37.6599 32.0463 38.2521C30.9374 38.8443 29.9916 39.7006 29.2924 40.7453C28.5932 41.7901 28.1623 42.991 28.0377 44.2419C27.9131 45.4928 28.0986 46.7551 28.578 47.9172C29.0573 49.0793 29.8156 50.1054 30.7859 50.9047C31.7561 51.704 32.9084 52.2519 34.1408 52.4999C35.3732 52.7479 36.6477 52.6884 37.8516 52.3267C39.0555 51.9649 40.1517 51.312 41.0433 50.4258C42.4373 49.0403 45.0001 45.0002 45.0001 45.0002C45.0001 45.0002 47.5552 40.9779 48.9373 39.5941C49.8265 38.7038 50.9215 38.0466 52.1254 37.6807C53.3293 37.3148 54.6049 37.2515 55.8391 37.4964C57.0733 37.7413 58.228 38.2868 59.201 39.0847C60.1739 39.8825 60.9351 40.9081 61.417 42.0704C61.8988 43.2327 62.0866 44.496 61.9636 45.7482C61.8405 47.0004 61.4105 48.203 60.7116 49.2493C60.0127 50.2956 59.0666 51.1534 57.9569 51.7467C56.8473 52.3399 55.6085 52.6503 54.3502 52.6503H50.9502" stroke="#024D81" stroke-width="2" stroke-linecap="round" stroke-linejoin="round"/>
<path d="M54.3506 49.2501L50.9506 52.6502L54.3506 56.0502M35.6504 33.95L39.0504 37.35L35.6504 40.75" stroke="#024D81" stroke-width="2" stroke-linecap="round" stroke-linejoin="round"/>
</svg>
