<svg width="90" height="90" viewBox="0 0 90 90" fill="none" xmlns="http://www.w3.org/2000/svg">
<path d="M40.2953 23.9894L40.7638 24.3818L41.3267 24.1439C43.3884 23.2728 45.356 22.55 47.5 22.55C51.0377 22.55 54.2625 23.8412 56.9854 25.8417L57.3879 26.1374L57.866 25.9933C59.4559 25.5143 60.9279 25.1 62.5 25.1C71.5666 25.1 79 32.6533 79 41.95C79 51.2467 71.5666 58.8 62.5 58.8C61.7404 58.8 61.0419 58.6682 60.2399 58.5168C60.0503 58.4811 59.8549 58.4442 59.6516 58.4077L59.0401 58.298L58.6709 58.7976C56.5697 61.6399 53.5892 63.6323 50 63.6323C49.9359 63.6323 49.9156 63.6305 49.9026 63.6294C49.8862 63.628 49.8783 63.6271 49.8425 63.6238C49.8266 63.6223 49.8089 63.6206 49.789 63.619C49.7703 63.6174 49.7495 63.6158 49.7265 63.6142L49.2692 63.5826L48.9468 63.9084C45.9307 66.9556 41.9844 69 37.5 69C33.1338 69 29.2607 67.0596 26.2651 64.1427L25.9801 63.8652L25.5824 63.8593C17.5563 63.7401 11 57.0553 11 48.8044C11 45.6983 12.0839 42.8996 13.7021 40.4724L13.9274 40.1343L13.8531 39.7348C13.6661 38.7294 13.5 37.8201 13.5 36.85C13.5 27.5533 20.9334 20 30 20C33.9175 20 37.4276 21.587 40.2953 23.9894Z" stroke="#024D81" stroke-width="2"/>
<path d="M58 35.5586L58 35.5528C57.9964 34.3665 57.5315 33.228 56.7036 32.3785L55.9911 33.0729L56.7036 32.3785C55.8756 31.5289 54.7495 31.0351 53.5638 31.0018C52.3781 30.9685 51.2261 31.3983 50.3517 32.2C49.6738 32.8217 49.204 33.6291 48.9945 34.5126L39.2673 36.4589C38.9777 36.0557 38.6231 35.701 38.2165 35.4101C37.5926 34.9638 36.8663 34.6819 36.1047 34.5908C35.3431 34.4996 34.5708 34.602 33.8592 34.8884C33.1477 35.1749 32.5198 35.6362 32.0337 36.2297L32.8073 36.8634L32.0337 36.2297C31.5476 36.8231 31.2188 37.5296 31.0778 38.2837C30.9368 39.0378 30.988 39.8153 31.2268 40.5444C31.4655 41.2735 31.8841 41.9306 32.444 42.4551C32.8089 42.797 33.2261 43.0753 33.6782 43.2804V49.2736C33.1919 49.4944 32.7462 49.7998 32.3627 50.1775C31.7889 50.7426 31.3749 51.4495 31.1625 52.2264C30.9501 53.0032 30.9468 53.8225 31.1531 54.601C31.3594 55.3795 31.7679 56.0897 32.3371 56.6593C32.9064 57.2289 33.6162 57.6377 34.3945 57.8442C35.1729 58.0507 35.9919 58.0475 36.7686 57.8348C37.5453 57.6222 38.2519 57.2078 38.8166 56.6337C39.1941 56.25 39.4992 55.8041 39.7198 55.3177H45.7076C45.9124 55.7702 46.1904 56.1879 46.532 56.5533C47.0562 57.1139 47.7132 57.5333 48.4423 57.7726C49.1715 58.0119 49.9492 58.0633 50.7035 57.9222C51.4579 57.7811 52.1644 57.4519 52.7578 56.9652C53.3512 56.4785 53.8123 55.85 54.0986 55.1379C54.3849 54.4257 54.487 53.6529 54.3957 52.8908C54.3044 52.1287 54.0224 51.4019 53.576 50.7776C53.2849 50.3706 52.93 50.0157 52.5265 49.7259L54.4712 39.9948C55.3348 39.7933 56.1271 39.3429 56.7454 38.6912C57.548 37.8454 57.9968 36.7246 58 35.5586ZM53.9839 36.1124L54.6912 36.8193L53.9839 36.1124C53.874 36.2224 53.734 36.2973 53.5817 36.3276C53.4294 36.3579 53.2715 36.3423 53.128 36.2829C52.9845 36.2234 52.8618 36.1226 52.7753 35.9932C52.6891 35.864 52.6429 35.712 52.6428 35.5565C52.643 35.3476 52.7261 35.1473 52.8736 34.9997C53.0211 34.8522 53.2208 34.7693 53.429 34.769C53.5841 34.7691 53.7358 34.8151 53.8648 34.9014C53.994 34.9878 54.0948 35.1107 54.1544 35.2545C54.2139 35.3984 54.2295 35.5567 54.1991 35.7094C54.1688 35.8622 54.0938 36.0024 53.9839 36.1124ZM35.0162 39.6856C34.8687 39.538 34.7856 39.3379 34.7853 39.129C34.7854 38.9734 34.8315 38.8214 34.9179 38.6921C35.0043 38.5627 35.127 38.462 35.2705 38.4025C35.414 38.343 35.5719 38.3274 35.7242 38.3578C35.8765 38.3881 36.0165 38.4629 36.1264 38.5729C36.2364 38.6829 36.3113 38.8231 36.3417 38.9759C36.372 39.1286 36.3564 39.287 36.2969 39.4308C36.2373 39.5747 36.1365 39.6975 36.0073 39.7839C35.8783 39.8702 35.7266 39.9162 35.5715 39.9163C35.3633 39.916 35.1636 39.8331 35.0162 39.6856ZM35.0156 52.8676L34.3083 52.1608L35.0156 52.8676C35.1256 52.7576 35.2656 52.6828 35.4179 52.6525C35.5702 52.6222 35.728 52.6377 35.8715 52.6972C36.015 52.7567 36.1378 52.8575 36.2242 52.9869L37.0558 52.4315L36.2242 52.9869C36.3105 53.1161 36.3567 53.2682 36.3568 53.4237C36.3564 53.6326 36.2734 53.8328 36.1259 53.9803C35.9784 54.1279 35.7786 54.2108 35.5703 54.2111C35.4153 54.2109 35.2637 54.1649 35.1347 54.0786C35.0055 53.9923 34.9047 53.8694 34.8452 53.7256L33.9264 54.1059L34.8452 53.7256C34.7856 53.5817 34.77 53.4234 34.8004 53.2706C34.8308 53.1179 34.9057 52.9776 35.0156 52.8676ZM46.9677 49.8986C46.4269 50.3419 45.9982 50.9011 45.7104 51.5308H39.7174C39.4921 51.0378 39.1799 50.5868 38.7938 50.2004C38.4076 49.814 37.9568 49.5015 37.4639 49.276V43.2779C38.0934 42.9899 38.6524 42.5608 39.0953 42.0198C39.5382 41.4789 39.8485 40.8463 40.0068 40.1724L49.7347 38.226C50.0196 38.6202 50.3657 38.9666 50.7596 39.2519L48.814 48.9865C48.1405 49.1449 47.5082 49.4555 46.9677 49.8986ZM49.8563 54.2111C49.7013 54.2109 49.5497 54.1649 49.4207 54.0786C49.2915 53.9923 49.1907 53.8694 49.1312 53.7256C49.0716 53.5817 49.056 53.4234 49.0864 53.2706C49.1168 53.1179 49.1917 52.9776 49.3016 52.8676C49.4116 52.7576 49.5515 52.6828 49.7038 52.6525C49.8561 52.6222 50.014 52.6377 50.1575 52.6972C50.301 52.7567 50.4238 52.8575 50.5102 52.9869C50.5965 53.1161 50.6426 53.268 50.6428 53.4235C50.6425 53.6325 50.5594 53.8327 50.4119 53.9803C50.2644 54.1279 50.0646 54.2108 49.8563 54.2111Z" stroke="#024D81" stroke-width="2"/>
</svg>
