<svg width="90" height="90" viewBox="0 0 90 90" fill="none" xmlns="http://www.w3.org/2000/svg">
<path fill-rule="evenodd" clip-rule="evenodd" d="M56.3657 36.641C56.5689 36.8437 56.7301 37.0844 56.8401 37.3495C56.9501 37.6146 57.0067 37.8987 57.0067 38.1857C57.0067 38.4727 56.9501 38.7569 56.8401 39.0219C56.7301 39.287 56.5689 39.5278 56.3657 39.7305L43.2748 52.8214C43.0721 53.0246 42.8313 53.1858 42.5663 53.2958C42.3012 53.4058 42.017 53.4624 41.7301 53.4624C41.4431 53.4624 41.1589 53.4058 40.8938 53.2958C40.6288 53.1858 40.388 53.0246 40.1853 52.8214L33.6398 46.2759C33.437 46.0731 33.2761 45.8322 33.1663 45.5672C33.0565 45.3022 33 45.0181 33 44.7312C33 44.4443 33.0565 44.1602 33.1663 43.8952C33.2761 43.6301 33.437 43.3893 33.6398 43.1865C33.8427 42.9836 34.0835 42.8227 34.3486 42.7129C34.6136 42.6031 34.8977 42.5466 35.1846 42.5466C35.4715 42.5466 35.7555 42.6031 36.0206 42.7129C36.2856 42.8227 36.5265 42.9836 36.7293 43.1865L41.7301 48.1916L53.2763 36.641C53.4789 36.4378 53.7197 36.2766 53.9848 36.1666C54.2498 36.0566 54.534 36 54.821 36C55.108 36 55.3921 36.0566 55.6572 36.1666C55.9223 36.2766 56.1631 36.4378 56.3657 36.641V36.641Z" stroke="#024D81" stroke-width="2"/>
<path d="M40.3105 25.8362L40.7687 26.205L41.3137 25.9838C43.3745 25.1471 45.3477 24.45 47.5 24.45C51.0483 24.45 54.2783 25.6944 57.0008 27.6161L57.3937 27.8934L57.8556 27.7597C59.4448 27.2996 60.9215 26.9 62.5 26.9C71.6044 26.9 79 34.1765 79 43.05C79 51.9235 71.6044 59.2 62.5 59.2C61.7364 59.2 61.0338 59.0726 60.2315 58.9271C60.0422 58.8928 59.8474 58.8574 59.6449 58.8225L59.0503 58.7201L58.6824 59.1982C56.5884 61.9198 53.6065 63.8428 50 63.8428C49.935 63.8428 49.9136 63.8411 49.8993 63.8399C49.8826 63.8385 49.8743 63.8376 49.8389 63.8344C49.8286 63.8335 49.8175 63.8325 49.8055 63.8315C49.782 63.8295 49.7551 63.8274 49.7238 63.8253L49.2801 63.7959L48.961 64.1056C45.9487 67.0297 41.9982 69 37.5 69C33.1203 69 29.2429 67.1299 26.2507 64.3306L25.9684 64.0664L25.5818 64.0609C17.519 63.9459 11 57.505 11 49.6356C11 46.6712 12.0765 43.995 13.6916 41.6674L13.9319 41.3211L13.8518 40.9073C13.6645 39.9403 13.5 39.0736 13.5 38.15C13.5 29.2765 20.8956 22 30 22C33.9295 22 37.4445 23.5295 40.3105 25.8362Z" stroke="#024D81" stroke-width="2"/>
</svg>
