<svg width="90" height="90" viewBox="0 0 90 90" fill="none" xmlns="http://www.w3.org/2000/svg">
<path d="M40.2953 23.9894L40.7638 24.3818L41.3267 24.1439C43.3884 23.2728 45.356 22.55 47.5 22.55C51.0377 22.55 54.2625 23.8412 56.9854 25.8417L57.3879 26.1374L57.866 25.9933C59.4559 25.5143 60.9279 25.1 62.5 25.1C71.5666 25.1 79 32.6533 79 41.95C79 51.2467 71.5666 58.8 62.5 58.8C61.7404 58.8 61.0419 58.6682 60.2399 58.5168C60.0503 58.4811 59.8549 58.4442 59.6516 58.4077L59.0401 58.298L58.6709 58.7976C56.5697 61.6399 53.5892 63.6323 50 63.6323C49.9359 63.6323 49.9156 63.6305 49.9026 63.6294C49.8862 63.628 49.8783 63.6271 49.8425 63.6238C49.8266 63.6223 49.8089 63.6206 49.789 63.619C49.7703 63.6174 49.7495 63.6158 49.7265 63.6142L49.2692 63.5826L48.9468 63.9084C45.9307 66.9556 41.9844 69 37.5 69C33.1338 69 29.2607 67.0596 26.2651 64.1427L25.9801 63.8652L25.5824 63.8593C17.5563 63.7401 11 57.0553 11 48.8044C11 45.6983 12.0839 42.8996 13.7021 40.4724L13.9274 40.1343L13.8531 39.7348C13.6661 38.7294 13.5 37.8201 13.5 36.85C13.5 27.5533 20.9334 20 30 20C33.9175 20 37.4276 21.587 40.2953 23.9894Z" stroke="#024D81" stroke-width="2"/>
<mask id="path-2-inside-1_193_186" fill="white">
<path d="M57.9992 44.0715C57.9992 45.0978 55.2974 45.9286 51.9634 45.9286C48.6295 45.9286 45.9277 45.0978 45.9277 44.0715V42.2144C45.9277 43.2397 48.6295 44.0715 51.9634 44.0715C55.2974 44.0715 57.9992 43.2407 57.9992 42.2144"/>
</mask>
<path d="M55.9992 44.0715C55.9992 43.3821 56.4476 43.1052 56.3482 43.1775C56.2922 43.2182 56.0826 43.3383 55.6435 43.4734C54.7896 43.736 53.4882 43.9286 51.9634 43.9286V47.9286C53.7726 47.9286 55.489 47.7059 56.8196 47.2965C57.4726 47.0956 58.1468 46.8156 58.7017 46.4118C59.213 46.0397 59.9992 45.2741 59.9992 44.0715H55.9992ZM51.9634 43.9286C50.4387 43.9286 49.1373 43.736 48.2834 43.4734C47.8443 43.3383 47.6347 43.2182 47.5787 43.1775C47.4793 43.1052 47.9277 43.3821 47.9277 44.0715H43.9277C43.9277 45.2741 44.7139 46.0397 45.2252 46.4118C45.7801 46.8156 46.4543 47.0956 47.1073 47.2965C48.4379 47.7059 50.1543 47.9286 51.9634 47.9286V43.9286ZM47.9277 44.0715V42.2144H43.9277V44.0715H47.9277ZM43.9277 42.2144C43.9277 43.4172 44.7146 44.1828 45.2254 44.5544C45.7801 44.9579 46.4541 45.238 47.1071 45.439C48.4376 45.8484 50.1541 46.0715 51.9634 46.0715V42.0715C50.4389 42.0715 49.1375 41.8787 48.2836 41.6159C47.8445 41.4807 47.6347 41.3606 47.5786 41.3198C47.4786 41.2471 47.9277 41.5241 47.9277 42.2144H43.9277ZM51.9634 46.0715C53.7726 46.0715 55.489 45.8487 56.8196 45.4394C57.4726 45.2385 58.1468 44.9584 58.7017 44.5547C59.213 44.1826 59.9992 43.4169 59.9992 42.2144H55.9992C55.9992 41.525 56.4476 41.248 56.3482 41.3203C56.2922 41.3611 56.0826 41.4811 55.6435 41.6162C54.7896 41.8789 53.4882 42.0715 51.9634 42.0715V46.0715Z" fill="#024D81" mask="url(#path-2-inside-1_193_186)"/>
<path d="M46.9277 40.2142V38.7535C47.0813 38.8118 47.2396 38.8657 47.4009 38.9157C48.6129 39.2908 50.226 39.5084 51.9634 39.5084C53.7009 39.5084 55.314 39.2908 56.526 38.9157C56.6873 38.8657 56.8456 38.8118 56.9992 38.7535V40.2142C56.9831 40.2281 56.962 40.245 56.9348 40.2649C56.7535 40.3972 56.4272 40.5582 55.9345 40.7108C54.9613 41.0121 53.5566 41.2143 51.9634 41.2143C50.3703 41.2143 48.9656 41.0121 47.9924 40.7108C47.4997 40.5582 47.1734 40.3972 46.9921 40.2649C46.9649 40.245 46.9438 40.2281 46.9277 40.2142ZM57.0455 40.1672C57.0458 40.1672 57.044 40.17 57.0392 40.1755C57.0428 40.1699 57.0452 40.1671 57.0455 40.1672ZM46.8814 40.1672C46.8817 40.1671 46.8841 40.1699 46.8877 40.1755C46.8829 40.17 46.8811 40.1672 46.8814 40.1672Z" stroke="#024D81" stroke-width="2"/>
<path d="M52.0417 33C53.6092 33 54.9864 33.2146 55.9371 33.5334C56.4175 33.6946 56.7343 33.8643 56.9106 34.004C56.9543 34.0387 56.9825 34.0656 57 34.0843V35.2449C56.9825 35.2637 56.9544 35.2906 56.9105 35.3254C56.7343 35.4651 56.4176 35.6347 55.9372 35.7958C54.9865 36.1145 53.6093 36.3288 52.0417 36.3288C50.4742 36.3288 49.097 36.1143 48.1463 35.7954C47.6658 35.6343 47.349 35.4646 47.1728 35.3248C47.129 35.2901 47.1008 35.2633 47.0833 35.2445V34.0839C47.1008 34.0651 47.129 34.0382 47.1728 34.0035C47.349 33.8638 47.6657 33.6941 48.1462 33.533C49.0968 33.2143 50.4741 33 52.0417 33ZM57.0254 34.1163C57.0252 34.1163 57.0236 34.1141 57.0214 34.1097C57.0245 34.1141 57.0256 34.1163 57.0254 34.1163ZM57.0252 35.2131C57.0255 35.2131 57.0243 35.2153 57.0212 35.2196C57.0235 35.2152 57.025 35.213 57.0252 35.2131ZM47.058 35.2125C47.0582 35.2125 47.0597 35.2147 47.062 35.2191C47.0589 35.2147 47.0577 35.2125 47.058 35.2125ZM47.0581 34.1158C47.0579 34.1158 47.059 34.1136 47.0621 34.1092C47.0599 34.1136 47.0583 34.1158 47.0581 34.1158Z" stroke="#024D81" stroke-width="2"/>
<path d="M33 52.2857V50.825C33.1536 50.8833 33.3119 50.9373 33.4732 50.9872C34.6852 51.3623 36.2983 51.58 38.0357 51.58C39.7731 51.58 41.3863 51.3623 42.5982 50.9872C42.7595 50.9373 42.9178 50.8833 43.0714 50.825V52.2857C43.0553 52.2996 43.0343 52.3165 43.0071 52.3364C42.8258 52.4687 42.4994 52.6298 42.0068 52.7823C41.0336 53.0836 39.6289 53.2858 38.0357 53.2858C36.4425 53.2858 35.0378 53.0836 34.0646 52.7823C33.572 52.6298 33.2456 52.4687 33.0644 52.3364C33.0372 52.3165 33.0161 52.2996 33 52.2857ZM43.1178 52.2387C43.1181 52.2387 43.1163 52.2415 43.1115 52.2471C43.115 52.2414 43.1174 52.2387 43.1178 52.2387ZM32.9537 52.2387C32.954 52.2387 32.9564 52.2414 32.96 52.2471C32.9551 52.2415 32.9534 52.2387 32.9537 52.2387Z" stroke="#024D81" stroke-width="2"/>
<path d="M50.4994 51.6365L48.4557 53.7691L48.3351 53.6432L50.4377 51.4492L52.0591 49.7572H49.7157H47.95V49.5287H52.3571V54.2144H52.2214V52.3284V49.8396L50.4994 51.6365ZM37.8732 45.0715C39.414 45.0715 40.7662 45.2903 41.6979 45.6144C42.1684 45.7781 42.4778 45.9501 42.6498 46.0916C42.7001 46.1329 42.7298 46.1637 42.7464 46.1835V47.4077C42.7298 47.4275 42.7001 47.4583 42.6498 47.4998C42.4778 47.6412 42.1685 47.8132 41.698 47.9768C40.7663 48.3007 39.4142 48.5193 37.8732 48.5193C36.3324 48.5193 34.9803 48.3005 34.0486 47.9764C33.578 47.8127 33.2687 47.6407 33.0966 47.4992C33.0463 47.4579 33.0167 47.4271 33 47.4073V46.1831C33.0166 46.1633 33.0463 46.1325 33.0967 46.091C33.2687 45.9496 33.5779 45.7776 34.0485 45.614C34.9801 45.2901 36.3322 45.0715 37.8732 45.0715ZM42.7654 46.2101C42.7652 46.2101 42.7638 46.208 42.762 46.2039C42.7646 46.208 42.7655 46.2101 42.7654 46.2101ZM42.7652 47.3813C42.7654 47.3813 42.7645 47.3833 42.7618 47.3874C42.7637 47.3833 42.765 47.3813 42.7652 47.3813ZM32.9811 47.3807C32.9813 47.3807 32.9826 47.3828 32.9845 47.3869C32.9818 47.3828 32.9809 47.3808 32.9811 47.3807ZM32.9812 46.2095C32.981 46.2095 32.9819 46.2075 32.9846 46.2034C32.9827 46.2075 32.9814 46.2096 32.9812 46.2095Z" stroke="#024D81" stroke-width="2"/>
</svg>
