<svg width="90" height="90" viewBox="0 0 90 90" fill="none" xmlns="http://www.w3.org/2000/svg">
<path d="M40 52.5714V50.4286H37.7489C37.6109 49.7578 37.3446 49.1201 36.9646 48.5504L38.5611 46.9539L37.0461 45.4389L35.4496 47.0354C34.8799 46.6554 34.2422 46.3891 33.5714 46.2511V44H31.4286V46.2511C30.7578 46.3891 30.1201 46.6554 29.5504 47.0354L27.9539 45.4389L26.4389 46.9539L28.0354 48.5504C27.6554 49.1201 27.3891 49.7578 27.2511 50.4286H25V52.5714H27.2511C27.3904 53.2539 27.6625 53.8882 28.0354 54.4496L26.4389 56.0461L27.9539 57.5611L29.5504 55.9646C30.1201 56.3446 30.7578 56.6109 31.4286 56.7489V59H33.5714V56.7489C34.2422 56.6109 34.8799 56.3446 35.4496 55.9646L37.0461 57.5611L38.5611 56.0461L36.9646 54.4496C37.3446 53.8799 37.6109 53.2422 37.7489 52.5714H40ZM32.5 54.7143C30.7279 54.7143 29.2857 53.2721 29.2857 51.5C29.2857 49.7279 30.7279 48.2857 32.5 48.2857C34.2721 48.2857 35.7143 49.7279 35.7143 51.5C35.7143 53.2721 34.2721 54.7143 32.5 54.7143Z" stroke="#024D81"/>
<path d="M64 43V40H60.8485C60.6553 39.061 60.2825 38.1681 59.7505 37.3705L61.9855 35.1355L59.8645 33.0145L57.6295 35.2495C56.8319 34.7175 55.939 34.3447 55 34.1515V31H52V34.1515C51.061 34.3447 50.1681 34.7175 49.3705 35.2495L47.1355 33.0145L45.0145 35.1355L47.2495 37.3705C46.7175 38.1681 46.3447 39.061 46.1515 40H43V43H46.1515C46.3465 43.9555 46.7275 44.8435 47.2495 45.6295L45.0145 47.8645L47.1355 49.9855L49.3705 47.7505C50.1681 48.2825 51.061 48.6553 52 48.8485V52H55V48.8485C55.939 48.6553 56.8319 48.2825 57.6295 47.7505L59.8645 49.9855L61.9855 47.8645L59.7505 45.6295C60.2825 44.8319 60.6553 43.939 60.8485 43H64ZM53.5 46C51.019 46 49 43.981 49 41.5C49 39.019 51.019 37 53.5 37C55.981 37 58 39.019 58 41.5C58 43.981 55.981 46 53.5 46Z" stroke="#024D81"/>
<path d="M40.3105 24.8362L40.7687 25.205L41.3137 24.9838C43.3745 24.1471 45.3477 23.45 47.5 23.45C51.0483 23.45 54.2783 24.6944 57.0008 26.6161L57.3937 26.8934L57.8556 26.7597C59.4448 26.2996 60.9215 25.9 62.5 25.9C71.6044 25.9 79 33.1765 79 42.05C79 50.9235 71.6044 58.2 62.5 58.2C61.7364 58.2 61.0338 58.0726 60.2315 57.9271C60.0422 57.8928 59.8474 57.8574 59.6449 57.8225L59.0503 57.7201L58.6824 58.1982C56.5884 60.9198 53.6065 62.8428 50 62.8428C49.935 62.8428 49.9136 62.8411 49.8993 62.8399C49.8826 62.8385 49.8743 62.8376 49.8389 62.8344C49.8286 62.8335 49.8175 62.8325 49.8055 62.8315C49.782 62.8295 49.7551 62.8274 49.7238 62.8253L49.2801 62.7959L48.961 63.1056C45.9487 66.0297 41.9982 68 37.5 68C33.1203 68 29.2429 66.1299 26.2507 63.3306L25.9684 63.0664L25.5818 63.0609C17.519 62.9459 11 56.505 11 48.6356C11 45.6712 12.0765 42.995 13.6916 40.6674L13.9319 40.3211L13.8518 39.9073C13.6645 38.9403 13.5 38.0736 13.5 37.15C13.5 28.2765 20.8956 21 30 21C33.9295 21 37.4445 22.5295 40.3105 24.8362Z" stroke="#024D81" stroke-width="2"/>
</svg>
