<svg width="90" height="90" viewBox="0 0 90 90" fill="none" xmlns="http://www.w3.org/2000/svg">
<path d="M65.4753 63.2417L65.0521 63.9119L65.608 64.4769L73.8991 72.9038L71.2443 75.5846L62.8548 67.2486L62.2906 66.6879L61.6174 67.1116C59.7589 68.2811 57.551 68.9607 55.2083 68.9607C48.4781 68.9607 43.0833 63.5271 43.0833 56.7069C43.0833 49.8867 48.4781 44.453 55.2083 44.453C61.9385 44.453 67.3333 49.8867 67.3333 56.7069C67.3333 59.1112 66.657 61.3704 65.4753 63.2417ZM65.4563 31.9533L65.6035 32.7013L66.3639 32.7575C73.4291 33.2788 79 39.1506 79 46.3983C79 50.1317 77.5255 53.5214 75.1536 55.9771C75.0675 53.582 74.5586 51.2194 73.6487 49.0011C72.6465 46.5578 71.1773 44.3371 69.3245 42.4661C67.4716 40.595 65.2714 39.1103 62.8493 38.0972C60.4271 37.084 57.8307 36.5624 55.2083 36.5624C49.9119 36.5624 44.8344 38.6872 41.0922 42.4661C37.3504 46.2446 35.25 51.3674 35.25 56.7069C35.25 57.8508 35.3502 58.9904 35.5367 60.1248H27.5C23.1271 60.1248 18.9313 58.3707 15.8362 55.2452C12.7407 52.1194 11 47.8778 11 43.453C11 34.8317 17.4422 27.7793 25.7142 26.8635L26.2463 26.8046L26.4923 26.3291C28.2604 22.912 30.9206 20.0504 34.1834 18.0538C37.446 16.0572 41.1869 15.0014 45.0004 15L45.0005 15C49.823 14.9976 54.4983 16.6846 58.2289 19.7753C61.9597 22.8661 64.5149 27.1697 65.4563 31.9533ZM55.2083 48.3436C53.0061 48.3436 50.896 49.2271 49.3418 50.7966C47.7879 52.3658 46.9167 54.4919 46.9167 56.7069C46.9167 58.9218 47.7879 61.048 49.3418 62.6171C50.896 64.1866 53.0061 65.0701 55.2083 65.0701C57.4106 65.0701 59.5207 64.1866 61.0749 62.6171C62.6288 61.048 63.5 58.9218 63.5 56.7069C63.5 54.4919 62.6288 52.3658 61.0749 50.7966C59.5207 49.2271 57.4106 48.3436 55.2083 48.3436Z" stroke="#024D81" stroke-width="2"/>
</svg>
