<svg width="90" height="90" viewBox="0 0 90 90" fill="none" xmlns="http://www.w3.org/2000/svg">
<path d="M40.2953 23.9894L40.7638 24.3818L41.3267 24.1439C43.3884 23.2728 45.356 22.55 47.5 22.55C51.0377 22.55 54.2625 23.8412 56.9854 25.8417L57.3879 26.1374L57.866 25.9933C59.4559 25.5143 60.9279 25.1 62.5 25.1C71.5666 25.1 79 32.6533 79 41.95C79 51.2467 71.5666 58.8 62.5 58.8C61.7404 58.8 61.0419 58.6682 60.2399 58.5168C60.0503 58.4811 59.8549 58.4442 59.6516 58.4077L59.0401 58.298L58.6709 58.7976C56.5697 61.6399 53.5892 63.6323 50 63.6323C49.9359 63.6323 49.9156 63.6305 49.9026 63.6294C49.8862 63.628 49.8783 63.6271 49.8425 63.6238C49.8266 63.6223 49.8089 63.6206 49.789 63.619C49.7703 63.6174 49.7495 63.6158 49.7265 63.6142L49.2692 63.5826L48.9468 63.9084C45.9307 66.9556 41.9844 69 37.5 69C33.1338 69 29.2607 67.0596 26.2651 64.1427L25.9801 63.8652L25.5824 63.8593C17.5563 63.7401 11 57.0553 11 48.8044C11 45.6983 12.0839 42.8996 13.7021 40.4724L13.9274 40.1343L13.8531 39.7348C13.6661 38.7294 13.5 37.8201 13.5 36.85C13.5 27.5533 20.9334 20 30 20C33.9175 20 37.4276 21.587 40.2953 23.9894Z" stroke="#024D81" stroke-width="2"/>
<path d="M48.9399 34.2079L48.9392 34.2086L48.8534 34.2942L49.855 35.2958L49.9424 35.2087L49.9481 35.2029L49.954 35.1972C50.4648 34.7039 51.149 34.4309 51.8592 34.437C52.5693 34.4432 53.2487 34.728 53.7508 35.2302C54.253 35.7324 54.5379 36.4117 54.544 37.1219C54.5502 37.8321 54.2772 38.5162 53.7838 39.0271L53.7778 39.0333L53.7717 39.0395L48.8526 43.9585L49.8542 44.9601L54.7732 40.0412C54.7732 40.0412 54.7732 40.0411 54.7733 40.0411C55.5466 39.2674 55.9811 38.2183 55.9811 37.1244C55.9811 36.0306 55.5467 34.9815 54.7734 34.2079C54.7733 34.2078 54.7732 34.2078 54.7732 34.2077M48.9399 34.2079L54.7732 34.2077M48.9399 34.2079C49.7135 33.4345 50.7627 33 51.8566 33C52.9505 33 53.9995 33.4344 54.7732 34.2077M48.9399 34.2079L54.7732 34.2077M40.0912 52.7198L40.097 52.7141L40.1028 52.7083L40.1901 52.6212L41.1918 53.6228L41.1059 53.7084L41.0994 53.7149L41.093 53.7216C40.7124 54.1156 40.2572 54.4299 39.7539 54.6461C39.2505 54.8623 38.7092 54.9761 38.1614 54.9809C37.6136 54.9857 37.0704 54.8813 36.5633 54.6739C36.0563 54.4664 35.5957 54.1601 35.2083 53.7727C34.821 53.3854 34.5147 52.9247 34.3072 52.4177C34.0998 51.9107 33.9954 51.3675 34.0002 50.8197C34.0049 50.2719 34.1187 49.7305 34.3349 49.2272C34.5512 48.7239 34.8654 48.2686 35.2595 47.8881L35.2657 47.882L35.2719 47.8759L40.1909 42.9569L41.1925 43.9585L36.2735 48.8775L36.2674 48.8837L36.2613 48.8899C35.7679 49.4007 35.4949 50.0849 35.5011 50.7951C35.5073 51.5052 35.7921 52.1846 36.2943 52.6868C36.7965 53.1889 37.4758 53.4738 38.186 53.48C38.8961 53.4861 39.5803 53.2131 40.0912 52.7198ZM36.263 39.0254L36.2687 39.0312L36.2744 39.037L36.3616 39.1244L35.36 40.126L35.2858 40.0516C34.559 39.2715 34.1624 38.24 34.1795 37.1736C34.1966 36.1022 34.6299 35.0796 35.3876 34.322C36.1454 33.5645 37.1681 33.1314 38.2394 33.1145C39.3058 33.0977 40.3371 33.4945 41.117 34.2213L46.0241 39.1269L45.0228 40.1282L40.1055 35.2079L40.0992 35.2017L40.0929 35.1955C39.582 34.7021 38.8979 34.4291 38.1877 34.4353C37.4775 34.4415 36.7982 34.7263 36.296 35.2285C35.7938 35.7307 35.509 36.41 35.5028 37.1202C35.4966 37.8304 35.7696 38.5145 36.263 39.0254Z" stroke="#024D81" stroke-width="2"/>
<path d="M48.9322 53.7027L44.0197 48.7901L45.0213 47.7885L49.9403 52.7075L49.9465 52.7137L49.9527 52.7197C50.4636 53.2131 51.1477 53.4861 51.8579 53.4799C52.5681 53.4737 53.2474 53.1889 53.7496 52.6867C54.2517 52.1845 54.5366 51.5052 54.5428 50.795C54.5489 50.0849 54.2759 49.4007 53.7826 48.8899L53.7769 48.884L53.7711 48.8782L53.684 48.7909L54.6856 47.7892L54.7652 47.869C55.5133 48.6465 55.9271 49.6862 55.9178 50.7653C55.9084 51.8471 55.4745 52.8818 54.7096 53.6467C53.9447 54.4116 52.9099 54.8455 51.8282 54.8549C50.7493 54.8643 49.7097 54.4506 48.9322 53.7027Z" stroke="#024D81" stroke-width="2"/>
</svg>
