<svg width="90" height="90" viewBox="0 0 90 90" fill="none" xmlns="http://www.w3.org/2000/svg">
<rect x="27" y="11" width="36.8889" height="68" rx="1" stroke="#024D81" stroke-width="2"/>
<rect x="27" y="67.3889" width="36.8889" height="11.6111" rx="1" stroke="#024D81" stroke-width="2"/>
<rect x="27" y="11" width="36.8889" height="9.66667" rx="1" stroke="#024D81" stroke-width="2"/>
<path d="M39.6113 15.8335H51.278" stroke="#024D81" stroke-linecap="round"/>
<path d="M42.9454 36.1283L43.1745 36.3127L43.447 36.2021C44.3296 35.8438 45.164 35.55 46.0714 35.55C47.5749 35.55 48.9451 36.0772 50.102 36.8938L50.2985 37.0325L50.5294 36.9656C51.211 36.7683 51.8349 36.6 52.5 36.6C56.3638 36.6 59.5 39.6879 59.5 43.45C59.5 47.2121 56.3638 50.3 52.5 50.3C52.1797 50.3 51.8861 50.2468 51.543 50.1846C51.4613 50.1698 51.3768 50.1545 51.2885 50.1393L50.9912 50.088L50.8073 50.3271C49.9196 51.4809 48.6608 52.2898 47.1429 52.2898C47.1176 52.2898 47.1099 52.2891 47.1059 52.2888L47.1055 52.2888L47.0803 52.2865C47.0667 52.2852 47.0502 52.2838 47.0292 52.2824L46.8074 52.2677L46.6478 52.4226C45.3675 53.6653 43.6916 54.5 41.7857 54.5C39.93 54.5 38.285 53.7078 37.0134 52.5181L36.8722 52.386L36.6789 52.3832C33.2607 52.3345 30.5 49.6042 30.5 46.2724C30.5 45.02 30.9547 43.887 31.6408 42.8982L31.7609 42.725L31.7209 42.5181C31.6405 42.1029 31.5714 41.7379 31.5714 41.35C31.5714 37.5879 34.7076 34.5 38.5714 34.5C40.2362 34.5 41.7273 35.1479 42.9454 36.1283Z" stroke="#024D81"/>
</svg>
