<svg width="90" height="90" viewBox="0 0 90 90" fill="none" xmlns="http://www.w3.org/2000/svg">
<path d="M40.2953 24.9894L40.7638 25.3818L41.3267 25.1439C43.3884 24.2728 45.356 23.55 47.5 23.55C51.0377 23.55 54.2625 24.8412 56.9854 26.8417L57.3879 27.1374L57.866 26.9933C59.4559 26.5143 60.9279 26.1 62.5 26.1C71.5666 26.1 79 33.6533 79 42.95C79 52.2467 71.5666 59.8 62.5 59.8C61.7404 59.8 61.0419 59.6682 60.2399 59.5168C60.0503 59.4811 59.8549 59.4442 59.6516 59.4077L59.0401 59.298L58.6709 59.7976C56.5697 62.6399 53.5892 64.6323 50 64.6323C49.9359 64.6323 49.9156 64.6305 49.9026 64.6294C49.8862 64.628 49.8783 64.6271 49.8425 64.6238C49.8266 64.6223 49.8089 64.6206 49.789 64.619C49.7703 64.6174 49.7495 64.6158 49.7265 64.6142L49.2692 64.5826L48.9468 64.9084C45.9307 67.9556 41.9844 70 37.5 70C33.1338 70 29.2607 68.0596 26.2651 65.1427L25.9801 64.8652L25.5824 64.8593C17.5563 64.7401 11 58.0553 11 49.8044C11 46.6983 12.0839 43.8996 13.7021 41.4724L13.9274 41.1343L13.8531 40.7348C13.6661 39.7294 13.5 38.8201 13.5 37.85C13.5 28.5533 20.9334 21 30 21C33.9175 21 37.4276 22.587 40.2953 24.9894Z" stroke="#024D81" stroke-width="2"/>
<path d="M32.9853 39.0005C32.9309 39.0005 32.8874 39.0445 32.8874 39.1105V47.1319C32.8874 47.1951 32.9309 47.2501 32.9853 47.2501H33.9103C33.9729 47.2501 34.0056 47.1951 34.0056 47.1319V39.1077C34.0056 39.0527 33.962 39.0005 33.9076 39.0005H32.9853ZM49.1272 39.0005C48.4688 39.0005 47.9573 39.182 47.5982 39.5587C47.2363 39.9244 46.9806 40.5487 46.8527 41.2774L46.7901 41.7503H45.9739C45.9739 41.7503 45.8651 41.7833 45.8542 41.8878L45.7182 42.6523C45.7046 42.7183 45.7372 42.7706 45.8324 42.7706H46.6296L45.8324 47.2611C45.7861 47.5681 45.7114 47.8701 45.6093 48.1631C45.5582 48.3485 45.4754 48.5235 45.3645 48.6801C45.2693 48.8066 45.1849 48.8945 45.038 48.9358C44.7386 49.0366 44.4134 49.0259 44.1211 48.9055C44.1211 48.9055 44.0395 48.8725 43.996 48.9688C43.9036 49.2113 43.8147 49.4552 43.7293 49.7003C43.7076 49.7745 43.7402 49.8295 43.7838 49.8488C43.893 49.8913 44.006 49.9235 44.1211 49.945C44.3116 50 44.483 50 44.6326 50C44.9727 50 45.2693 49.945 45.525 49.8625C45.781 49.7626 46.0102 49.6034 46.1943 49.3978C46.3977 49.1563 46.5562 48.8796 46.6623 48.5811C46.7901 48.2511 46.8854 47.8303 46.9697 47.3464L47.7777 42.7706H48.9694C48.9694 42.7706 49.0755 42.7706 49.0973 42.6523L49.2224 41.9016C49.2333 41.8246 49.2034 41.7503 49.1054 41.7503H47.96C47.9682 41.7283 48.0416 41.0189 48.1831 40.6339C48.2356 40.4889 48.3192 40.3574 48.428 40.2489C48.5129 40.1591 48.6185 40.092 48.7354 40.0537C49.0211 39.9717 49.3247 39.9794 49.606 40.0757C49.723 40.1059 49.7339 40.0757 49.7666 40.0207L50.0305 39.259C50.0631 39.1737 50.0005 39.1407 49.9761 39.1297C49.8596 39.0889 49.7392 39.0604 49.6169 39.0445C49.4557 39.0119 49.2915 38.9971 49.1272 39.0005ZM24.1621 41.7503C22.984 41.7503 22.1651 42.4158 22.1651 43.3618V43.3838C22.1651 44.3737 23.0684 44.7037 23.9199 44.9292L24.056 44.9732C24.6736 45.1437 25.2041 45.2949 25.2041 45.7019V45.7129C25.2041 46.0897 24.8531 46.3592 24.3008 46.3592C24.0886 46.3592 23.3976 46.3592 22.6548 45.9192C22.5805 45.8867 22.5095 45.8471 22.4426 45.8009C22.3991 45.7789 22.3147 45.7459 22.2712 45.8559L22.0155 46.5076C21.9746 46.6066 22.0263 46.6259 22.0372 46.6479C22.1651 46.7249 22.2821 46.7771 22.3991 46.8404C23.0357 47.1539 23.6424 47.2501 24.2709 47.2501C25.5551 47.2501 26.3522 46.6176 26.3522 45.5864V45.5754C26.3522 44.6185 25.449 44.2747 24.611 44.0273L24.5022 43.9943C23.8655 43.8018 23.3132 43.6395 23.3132 43.2518V43.2243C23.3132 42.8888 23.6315 42.6523 24.1294 42.6523C24.6845 42.6523 25.332 42.8146 25.7564 43.0373C25.7564 43.0373 25.8843 43.1033 25.9278 42.996C25.9605 42.9328 26.1727 42.3938 26.1944 42.3416C26.2135 42.2756 26.1727 42.2316 26.1291 42.2123C25.5646 41.9036 24.9318 41.7447 24.29 41.7503H24.1621ZM29.5083 41.7503C29.1846 41.7523 28.8615 41.7808 28.5424 41.8356C28.5424 41.8356 27.7452 41.9758 27.416 42.2206C27.416 42.2206 27.3507 42.2563 27.3943 42.3526L27.65 42.996C27.6799 43.0813 27.767 43.051 27.767 43.051C27.767 43.051 27.7861 43.04 27.8214 43.029C28.5206 42.6633 29.4021 42.6853 29.4021 42.6853C29.7966 42.6853 30.0932 42.7486 30.3054 42.8998C30.4959 43.0373 30.6047 43.2655 30.6047 43.7165V43.854C30.2945 43.8128 30.0061 43.7798 30.0061 43.7798C29.8592 43.7688 29.6688 43.7688 29.4348 43.7688C29.1339 43.766 28.8339 43.803 28.5424 43.8788C28.2729 43.9423 28.0167 44.0541 27.7861 44.2087C27.5722 44.3516 27.395 44.5439 27.2691 44.7697C27.13 45.0066 27.0593 45.2781 27.0651 45.5534C27.0651 45.8559 27.1195 46.1117 27.2229 46.3262C27.3383 46.5406 27.5024 46.7244 27.7017 46.8624C27.9284 47.0035 28.1766 47.1057 28.4363 47.1649C28.722 47.2199 29.0512 47.2501 29.4021 47.2501C29.7749 47.2501 30.1476 47.2171 30.5067 47.1649C30.8686 47.1099 31.2958 47.0246 31.4209 46.9916C31.5379 46.9696 31.6658 46.9366 31.6658 46.9366C31.761 46.9174 31.7501 46.8321 31.7501 46.8321V43.7248C31.7501 43.0373 31.5597 42.5341 31.1788 42.2233C30.7951 41.9126 30.232 41.7503 29.5083 41.7503ZM37.6703 41.7503C37.2636 41.7379 36.8587 41.8109 36.4814 41.9648C36.168 42.1026 35.8872 42.3063 35.6578 42.5623C35.4284 42.8184 35.2556 43.1209 35.151 43.4498C35.0449 43.7798 34.9932 44.1455 34.9932 44.5332C34.9932 44.9292 35.0558 45.2949 35.1619 45.6167C35.2707 45.9494 35.4503 46.2409 35.6951 46.4774C35.9291 46.7249 36.2257 46.9174 36.5984 47.0466C36.9602 47.1841 37.4064 47.2501 37.9152 47.2501C38.9681 47.2391 39.5095 47.0246 39.7435 46.9064C39.7762 46.8844 39.817 46.8514 39.7762 46.7441L39.5313 46.1227C39.4987 46.0264 39.3953 46.0567 39.3953 46.0567C39.1259 46.1557 38.7668 46.3152 37.9043 46.3152C37.3411 46.3152 36.9249 46.1639 36.6719 45.9192C36.3971 45.6717 36.2692 45.3059 36.2474 44.7917H39.8714C39.8714 44.7917 39.9666 44.7917 39.9775 44.7037C39.9775 44.6625 40.1054 43.9943 39.8687 43.2325C39.7771 42.9346 39.6177 42.6624 39.4034 42.4378C39.2127 42.2302 38.981 42.0653 38.7233 41.9538C38.3893 41.8154 38.0313 41.7462 37.6703 41.7503ZM42.8478 41.7503C41.6779 41.7503 40.8481 42.4158 40.8481 43.3618V43.3838C40.8481 44.3737 41.7623 44.7037 42.603 44.9292L42.7499 44.9732C43.3675 45.1437 43.898 45.2949 43.898 45.7019V45.7129C43.898 46.0897 43.5471 46.3592 42.9839 46.3592C42.7717 46.3592 42.0806 46.3592 41.3378 45.9192C41.2535 45.8752 41.1882 45.8422 41.1256 45.8009C41.1039 45.7899 40.9978 45.7459 40.9542 45.8559L40.7094 46.5076C40.6686 46.6066 40.7202 46.6259 40.7311 46.6479C40.8481 46.7249 40.9651 46.7771 41.093 46.8404C41.6759 47.1251 42.3176 47.2655 42.9648 47.2501C44.2381 47.2501 45.0462 46.6176 45.0462 45.5864V45.5754C45.0462 44.6185 44.1429 44.2747 43.3049 44.0273L43.1879 43.9943C42.5486 43.8018 41.9963 43.6395 41.9963 43.2518V43.2243C41.9963 42.8888 42.3255 42.6523 42.8125 42.6523C43.3675 42.6523 44.0259 42.8146 44.4503 43.0373C44.4503 43.0373 44.5782 43.1033 44.6217 42.996C44.704 42.7752 44.7929 42.5569 44.8884 42.3416C44.9074 42.2756 44.8666 42.2316 44.8122 42.2123C44.2484 41.9041 43.6166 41.7451 42.9757 41.7503H42.8478ZM51.7445 41.7503C51.3065 41.7503 50.912 41.8246 50.5828 41.9648C50.2732 42.0986 49.9971 42.3006 49.7747 42.5561C49.5487 42.806 49.3789 43.1025 49.2768 43.425C49.075 44.1311 49.075 44.8804 49.2768 45.5864C49.3775 45.9122 49.5476 46.2118 49.7751 46.4641C50.0026 46.7163 50.282 46.9152 50.5937 47.0466C50.9595 47.1899 51.3496 47.259 51.7418 47.2501C52.1771 47.2501 52.558 47.1869 52.8899 47.0356C53.2053 46.9061 53.4886 46.708 53.7197 46.4554C53.9391 46.2042 54.1015 45.9076 54.1959 45.5864C54.3047 45.251 54.3591 44.888 54.3591 44.5002C54.3591 44.1235 54.3047 43.7578 54.1959 43.4278C54.1019 43.1056 53.9394 42.8081 53.7197 42.5561C53.4892 42.3 53.206 42.0982 52.8899 41.9648C52.5252 41.8167 52.1348 41.7438 51.7418 41.7503H51.7445ZM61.2234 41.7503C60.7745 41.7503 60.3718 41.8246 60.0209 41.9648C59.6979 42.0955 59.4078 42.2975 59.172 42.5561C58.9326 42.8001 58.7536 43.0978 58.6496 43.425C58.5238 43.7689 58.4629 44.1336 58.4701 44.5002C58.4701 45.3389 58.7041 46.0127 59.1829 46.5076C59.659 47.0026 60.361 47.2501 61.2969 47.2501C61.8492 47.2501 62.4124 47.1401 62.815 46.9916C62.815 46.9916 62.8912 46.9614 62.8586 46.8734L62.5919 46.1969C62.562 46.1007 62.4559 46.1337 62.4559 46.1337C62.2993 46.1994 62.1345 46.2428 61.9662 46.2629C61.7691 46.2939 61.5698 46.3077 61.3703 46.3042C60.8507 46.3042 60.4344 46.1667 60.1488 45.8752C59.8495 45.5947 59.6808 45.1327 59.6808 44.5002C59.6917 43.942 59.8304 43.5103 60.0943 43.1803C60.361 42.8558 60.7555 42.6963 61.286 42.6963C61.7213 42.6963 62.0614 42.7513 62.4124 42.8448C62.4124 42.8448 62.5076 42.8778 62.5402 42.7816C62.6355 42.5341 62.7089 42.3636 62.8069 42.0941C62.8368 42.0088 62.7633 41.9758 62.7416 41.9648C62.5042 41.896 62.2636 41.8391 62.0206 41.7943C61.7561 41.7615 61.4898 41.7468 61.2234 41.7503ZM65.6636 41.7503C65.2569 41.7379 64.852 41.8109 64.4747 41.9648C64.1584 42.0995 63.8748 42.302 63.6437 42.5584C63.4126 42.8148 63.2393 43.119 63.1361 43.4498C63.036 43.802 62.9856 44.1668 62.9864 44.5332C62.9864 44.9292 63.0408 45.2949 63.1551 45.6167C63.256 45.9429 63.4355 46.2387 63.6775 46.4774C63.9224 46.7249 64.2216 46.9174 64.5808 47.0466C64.9535 47.1841 65.397 47.2501 65.8976 47.2501C66.9505 47.2391 67.5028 47.0246 67.7259 46.9064C67.7694 46.8844 67.8102 46.8514 67.7585 46.7441L67.5137 46.1227C67.481 46.0264 67.3776 46.0567 67.3776 46.0567C67.1192 46.1557 66.7492 46.3152 65.8867 46.3152C65.3344 46.3152 64.9209 46.1639 64.6542 45.9192C64.3903 45.6717 64.2624 45.3059 64.2298 44.7917H67.8538C67.8538 44.7917 67.949 44.7917 67.9708 44.7037C67.9708 44.6625 68.0877 43.9943 67.8538 43.2325C67.7614 42.9343 67.6011 42.6621 67.3858 42.4378C67.1951 42.2302 66.9634 42.0653 66.7056 41.9538C66.3755 41.8154 66.021 41.7462 65.6636 41.7503ZM57.8008 41.7503C57.4777 41.7207 57.1523 41.7727 56.854 41.9016C56.6183 41.9999 56.4072 42.1502 56.2364 42.3416V41.9126C56.2364 41.8466 56.2065 41.8026 56.1412 41.8026H55.2161C55.1535 41.8026 55.1019 41.8466 55.1019 41.9126V47.1429C55.1019 47.1979 55.1563 47.2501 55.2188 47.2501H56.1629C56.2282 47.2501 56.2799 47.1951 56.2799 47.1401V44.5332C56.2799 44.1757 56.3234 43.8238 56.3969 43.5983C56.4591 43.402 56.5684 43.2244 56.7152 43.0813C56.8488 42.9655 57.0043 42.8785 57.1723 42.8256C57.4594 42.7388 57.7647 42.735 58.0538 42.8146C58.1191 42.8146 58.1626 42.7706 58.1817 42.7046C58.247 42.5561 58.4157 42.0721 58.4483 41.9758C58.4539 41.9645 58.4572 41.9521 58.458 41.9394C58.4588 41.9268 58.4572 41.9141 58.4531 41.9021C58.4491 41.8901 58.4427 41.879 58.4344 41.8694C58.4261 41.8599 58.4161 41.8522 58.4048 41.8466C58.2058 41.8008 58.004 41.7687 57.8008 41.7503ZM37.586 42.6523C38.0648 42.6523 38.3832 42.8256 38.6063 43.1473C38.7535 43.3868 38.8378 43.6603 38.8511 43.942H36.2583C36.2967 43.6566 36.3991 43.3839 36.5576 43.1445C36.7671 42.8256 37.1072 42.6523 37.586 42.6523ZM65.582 42.6523C66.0581 42.6523 66.3655 42.8256 66.5995 43.1473C66.7479 43.3856 66.8289 43.6605 66.8335 43.942H64.2488C64.2887 43.6587 64.3869 43.387 64.5372 43.1445C64.7603 42.8256 65.1004 42.6523 65.5793 42.6523H65.582ZM51.7418 42.6743C52.2206 42.6743 52.558 42.8256 52.7838 43.1473C53.0178 43.469 53.1348 43.92 53.1348 44.5002C53.1348 45.0915 53.0178 45.5424 52.7947 45.8752C52.5607 46.1859 52.2206 46.3482 51.7418 46.3482C51.263 46.3482 50.9256 46.1859 50.7107 45.8752C50.4767 45.5424 50.3706 45.0915 50.3706 44.5002C50.3706 43.9228 50.4794 43.469 50.6998 43.1473C50.9229 42.8366 51.263 42.6743 51.7418 42.6743ZM29.6144 44.6267C30.1367 44.6405 30.6047 44.7147 30.6047 44.7147V46.2629C30.6047 46.2629 30.1367 46.3454 29.6252 46.3812C28.8825 46.4114 28.5533 46.1749 28.5642 46.1749C28.4145 46.0677 28.4037 46.0374 28.3492 45.9714C28.2694 45.8395 28.2323 45.6857 28.2431 45.5314C28.2431 45.229 28.352 45.0145 28.5642 44.877C28.5642 44.877 28.8716 44.6185 29.6144 44.6295V44.6267Z" fill="#024D81"/>
</svg>
