<svg width="90" height="90" viewBox="0 0 90 90" fill="none" xmlns="http://www.w3.org/2000/svg">
<mask id="path-1-inside-1_224_219" fill="white">
<path d="M9.46718 48.0215C9.77144 47.4863 10.2407 47.2315 10.8437 47.1215C11.9434 46.9218 13.0267 46.667 14.2272 46.4104L12.277 43.5694C11.6062 42.587 11.641 42.2002 12.4805 41.3589C13.4702 40.3673 14.4563 39.3721 15.4534 38.3878C16.1463 37.7041 16.5825 37.6693 17.3963 38.2192C18.3622 38.8735 19.3227 39.5389 20.3876 40.2702C20.6258 39.1375 20.8458 38.0945 21.0639 37.0516C21.3205 35.8199 21.48 35.655 22.6805 35.4148C22.884 32.7058 23.4613 30.0756 24.6051 27.5902C27.2078 21.9376 31.4192 18.0054 37.2392 15.7937C40.0782 14.7052 43.1263 14.2717 46.1562 14.5253C46.4824 14.568 46.8139 14.54 47.1282 14.4432C47.4426 14.3464 47.7325 14.1832 47.9781 13.9645C48.6911 13.3523 49.4719 12.8208 50.2253 12.2562C51.3415 11.4204 51.8162 11.4919 52.6685 12.6228C53.4139 13.6126 54.1574 14.6042 54.8992 15.5976C55.2327 16.0466 55.6323 16.3821 56.228 16.2556C56.8603 16.1236 57.1115 15.6654 57.1958 15.0679C57.3937 13.6822 57.588 12.2965 57.8135 10.9164C57.9619 10.0109 58.4715 9.65534 59.3623 9.78181C61.497 10.08 63.6323 10.3818 65.7682 10.6873C66.8276 10.8357 67.1979 11.3489 67.0421 12.4652C66.8588 13.761 66.6755 15.0551 66.4922 16.3491C66.4024 16.9374 66.4775 17.4616 67.0421 17.7879C67.6066 18.1142 68.096 17.8905 68.5634 17.5368C69.624 16.734 70.6889 15.9361 71.7581 15.143C72.5903 14.529 73.1914 14.6115 73.8183 15.44C75.1074 17.1409 76.3905 18.8516 77.6674 20.5721C78.3199 21.45 78.2301 21.9962 77.3429 22.6707C76.3019 23.4644 75.2534 24.2452 74.2014 25.0242C73.7046 25.3907 73.3637 25.8288 73.5507 26.4905C73.734 27.1137 74.2307 27.2951 74.8136 27.3739C76.1332 27.5499 77.4505 27.7362 78.7653 27.933C79.755 28.0778 80.1363 28.6203 79.9915 29.6192C79.6848 31.7075 79.3836 33.7964 79.0879 35.8859C78.9284 36.9856 78.4629 37.3522 77.3576 37.1891C76.0416 37.0058 74.7237 36.8225 73.4059 36.6264C72.845 36.5439 72.3465 36.6264 72.0202 37.1433C71.6738 37.6931 71.8479 38.1899 72.2035 38.6646C72.9929 39.7081 73.7786 40.7547 74.5606 41.8043C75.2736 42.7593 75.204 43.3091 74.2728 44.0038C72.6025 45.2612 70.9309 46.5136 69.2581 47.7612C68.3416 48.4431 67.7917 48.3643 67.1044 47.4606C66.3126 46.4171 65.5269 45.3705 64.7473 44.3209C64.3954 43.8443 63.9756 43.5071 63.3543 43.6574C62.6981 43.8187 62.4928 44.3465 62.4085 44.9532C62.2142 46.2656 62.0224 47.581 61.833 48.8995C61.6955 49.8526 61.2355 50.2375 60.2824 50.1128C58.1208 49.8269 55.9628 49.5214 53.8086 49.1964C52.7528 49.0369 52.4504 48.6062 52.5842 47.5248C52.7345 46.3187 52.9196 45.1164 53.0882 43.9121C53.1176 43.7087 53.2074 43.4778 53.1469 43.3036C53.0039 42.8949 52.8756 42.4202 52.5805 42.1452C52.1901 41.7787 51.6641 41.9271 51.248 42.2387C50.1593 43.0452 49.0797 43.8627 47.9928 44.671C47.014 45.4041 46.466 45.3253 45.7383 44.3575C44.4956 42.7079 43.256 41.0583 42.0194 39.4087C41.3211 38.4721 41.4054 37.9167 42.342 37.2093C43.3867 36.4211 44.4315 35.6311 45.4836 34.854C45.9693 34.4966 46.2644 34.0512 46.0994 33.4408C45.94 32.8598 45.4762 32.6417 44.9062 32.5665C43.6104 32.3942 42.3163 32.2 41.0223 32.0167C39.8602 31.8444 39.5047 31.4008 39.6641 30.2424C39.9537 28.1297 40.2592 26.0188 40.5806 23.9098C40.7327 22.9218 41.2386 22.5718 42.2137 22.7092C43.5535 22.8925 44.8952 23.0758 46.2314 23.2939C46.8088 23.3856 47.2945 23.2939 47.6189 22.7825C47.9433 22.2712 47.8187 21.7781 47.4704 21.3162C46.6676 20.255 45.8556 19.1992 45.0877 18.116C44.8311 17.7494 44.6753 17.326 44.3765 16.7376C43.2493 16.8824 41.9168 16.9429 40.6392 17.2362C33.6907 18.8308 28.7456 22.931 26.218 29.5807C23.674 36.28 24.6637 42.6584 28.8445 48.4999C30.2797 50.5032 32.1163 52.0887 34.1599 53.4359C35.7692 54.4916 36.9533 55.8993 37.4757 57.767C37.694 58.5847 37.817 59.4248 37.8422 60.2707C37.9009 61.6931 37.8422 63.1172 37.8624 64.5414C37.8752 66.1323 38.7788 67.0873 40.3771 67.1074C43.3855 67.1307 46.3939 67.1307 49.4023 67.1074C51.0043 67.0946 51.9005 66.1525 51.9097 64.5524C51.9097 63.1759 51.8987 61.803 51.9097 60.4192C51.9409 57.5379 53.0974 55.2358 55.4637 53.5568C56.3618 52.9208 57.2379 52.2573 58.191 51.5553L59.738 53.2874C58.8509 53.9564 58.0462 54.6364 57.1719 55.2065C55.1173 56.5408 54.1715 58.4067 54.2393 60.8389C54.2778 62.122 54.2503 63.405 54.2393 64.688C54.2393 66.2863 53.5703 67.551 52.3221 68.5481C52.0846 68.7633 51.94 69.0623 51.9189 69.3821C51.8822 71.0317 51.8254 72.6923 51.9189 74.34C52.0673 76.9464 51.0024 79.3035 47.76 80H41.9882C38.8137 78.9846 37.8642 77.6759 37.8642 74.318C37.8642 72.6428 37.8642 70.9675 37.8551 69.2922C37.8551 69.087 37.8037 68.7864 37.6718 68.6911C35.892 67.4758 35.421 65.7218 35.5236 63.7001C35.5603 63.0073 35.5236 62.3108 35.5236 61.6143L35.3202 61.5189C35.0214 61.8617 34.7391 62.2228 34.4202 62.5454C33.0584 63.92 32.9851 63.92 31.3684 62.8056L28.9857 61.178C28.7089 62.4775 28.4651 63.6616 28.203 64.8438C28.0344 65.5953 27.6532 65.9344 26.92 65.9436C25.428 65.96 23.9361 65.9436 22.4441 65.9436C21.7512 65.9436 21.3443 65.577 21.1775 64.9098C21.1171 64.6642 21.0749 64.4168 21.0218 64.1766C20.8128 63.207 20.602 62.2356 20.3747 61.1872C19.3098 61.9203 18.3586 62.5839 17.3816 63.2345C16.5788 63.7752 16.1353 63.7331 15.4406 63.0512C14.46 62.0835 13.4904 61.1047 12.508 60.1314C11.6062 59.2278 11.5787 58.8869 12.3118 57.8147L14.2162 55.036C13.0047 54.7812 11.9159 54.5301 10.8199 54.3267C10.2168 54.2149 9.74578 53.9601 9.44702 53.4102L9.46718 48.0215ZM75.2681 21.2869L72.4675 17.5625C71.386 18.3451 70.4164 19.1259 69.3717 19.7858C67.7716 20.7957 65.6894 20.2605 64.6593 18.686C64.0215 17.7036 64.0691 16.646 64.2304 15.5701C64.3624 14.6958 64.4797 13.8197 64.608 12.9106L59.9909 12.2636C59.8278 13.3486 59.661 14.3622 59.5272 15.3795C59.3128 17.0016 58.4641 18.1288 56.8732 18.5321C55.2822 18.9353 54.0029 18.3213 53.0333 17.0254C52.4156 16.2006 51.7961 15.3758 51.149 14.5162L47.4118 17.3205C48.1156 18.2626 48.7901 19.1296 49.428 20.0222C50.3261 21.2814 50.4489 22.6377 49.6552 23.9648C48.8616 25.2918 47.5767 25.8416 46.0114 25.6254L42.7654 25.1781C42.5436 26.7379 42.331 28.2464 42.111 29.797C43.2328 29.9602 44.272 30.1141 45.3131 30.2608C46.3872 30.4147 47.2761 30.8876 47.892 31.7967C48.9569 33.3675 48.6252 35.3379 47.0782 36.5861C46.2094 37.2844 45.3039 37.9369 44.3747 38.6407L47.168 42.3634C47.3806 42.2131 47.5676 42.0866 47.749 41.951C48.4474 41.4304 49.1402 40.8989 49.844 40.3838C50.6982 39.7606 51.6458 39.4674 52.6978 39.7002C54.7049 40.1309 55.7881 41.8483 55.4582 44.0185C55.3061 45.0064 55.1759 45.9962 55.0311 47.0244L59.6298 47.6549C59.6848 47.3195 59.7288 47.0739 59.7655 46.8265C59.9048 45.8972 59.9946 44.9569 60.1907 44.0386C60.3035 43.3996 60.6022 42.808 61.0495 42.3379C61.4968 41.8678 62.0728 41.54 62.7055 41.3956C64.0673 41.029 65.2715 41.3846 66.1971 42.4458C67.0036 43.3769 67.7147 44.3924 68.4846 45.3913L72.2108 42.5906C71.5492 41.7053 70.9278 40.8824 70.3138 40.0521C69.3149 38.6957 69.1939 37.2221 69.9655 35.9354C70.7372 34.6487 72.165 34.053 73.833 34.3151C74.8209 34.4691 75.8143 34.5919 76.8554 34.7348C77.0808 33.1696 77.2971 31.6794 77.5207 30.1233C76.5072 29.9748 75.5376 29.8209 74.5643 29.6944C72.8175 29.4689 71.6152 28.5232 71.2302 27.0459C70.8453 25.5685 71.4135 24.192 72.7845 23.1491C73.5873 22.5443 74.3975 21.9412 75.2626 21.2887L75.2681 21.2869ZM16.7438 40.6129L14.5571 42.7428C15.03 43.4319 15.5286 44.1431 16.0125 44.8653C17.1598 46.5717 16.4908 48.2854 14.4948 48.7473C13.6095 48.9526 12.7206 49.1377 11.8408 49.332V52.1034C12.7297 52.2976 13.6004 52.4791 14.4673 52.6771C16.5018 53.1408 17.1727 54.8637 15.996 56.5976C15.5084 57.3161 15.0117 58.0291 14.5865 58.6523L16.7254 60.8279C17.4384 60.3404 18.1918 59.8088 18.9506 59.3085C20.5489 58.2637 22.2773 58.9657 22.708 60.8334C22.917 61.7407 23.1039 62.6535 23.2964 63.5443H26.0805C26.2803 62.6278 26.4581 61.7462 26.6597 60.8756C27.1143 58.9181 28.8299 58.2381 30.4997 59.3543C31.2328 59.8492 31.966 60.3624 32.8109 60.9416C33.5203 60.1974 34.1966 59.4496 34.9169 58.7421C35.201 58.4653 35.2029 58.2509 35.0617 57.91C34.2553 55.9689 32.4059 55.1698 30.9047 53.9637C28.9105 57.3821 25.5123 58.2216 22.84 57.5031C21.3897 57.1059 20.1035 56.2576 19.1673 55.0809C18.2312 53.9042 17.6937 52.4602 17.6327 50.9578C17.5737 49.4071 18.0465 47.8828 18.9726 46.6377C20.1566 44.9881 21.7879 44.0551 23.7729 43.7344L22.8931 40.0447C22.8272 40.2427 22.7612 40.4113 22.7098 40.5799C22.226 42.532 20.5287 43.1882 18.8608 42.0628C18.1276 41.577 17.4201 41.0767 16.7438 40.6129ZM25.0138 55.3622C26.4984 55.3128 27.8988 54.4971 28.8207 52.8475C29.0498 52.4351 29.004 52.1803 28.6814 51.8394C27.231 50.3676 26.0383 48.6625 25.1531 46.7953C24.8085 46.0456 24.354 45.9925 23.6868 46.1446C22.5783 46.3852 21.5956 47.022 20.9231 47.9354C20.2506 48.8489 19.9344 49.9763 20.0338 51.1063C20.2721 53.5385 22.1691 55.2963 25.0138 55.3622ZM40.236 74.1568C40.2232 74.3877 40.2103 74.5472 40.2085 74.7066C40.1847 76.765 41.0553 77.6484 43.1045 77.6484C44.2977 77.6484 45.4872 77.5843 46.6805 77.6631C48.5922 77.7896 49.9797 76.5267 49.4829 74.1586L40.236 74.1568ZM40.247 69.492V71.7373H49.5398V69.492H40.247Z"/>
</mask>
<path d="M9.46718 48.0215C9.77144 47.4863 10.2407 47.2315 10.8437 47.1215C11.9434 46.9218 13.0267 46.667 14.2272 46.4104L12.277 43.5694C11.6062 42.587 11.641 42.2002 12.4805 41.3589C13.4702 40.3673 14.4563 39.3721 15.4534 38.3878C16.1463 37.7041 16.5825 37.6693 17.3963 38.2192C18.3622 38.8735 19.3227 39.5389 20.3876 40.2702C20.6258 39.1375 20.8458 38.0945 21.0639 37.0516C21.3205 35.8199 21.48 35.655 22.6805 35.4148C22.884 32.7058 23.4613 30.0756 24.6051 27.5902C27.2078 21.9376 31.4192 18.0054 37.2392 15.7937C40.0782 14.7052 43.1263 14.2717 46.1562 14.5253C46.4824 14.568 46.8139 14.54 47.1282 14.4432C47.4426 14.3464 47.7325 14.1832 47.9781 13.9645C48.6911 13.3523 49.4719 12.8208 50.2253 12.2562C51.3415 11.4204 51.8162 11.4919 52.6685 12.6228C53.4139 13.6126 54.1574 14.6042 54.8992 15.5976C55.2327 16.0466 55.6323 16.3821 56.228 16.2556C56.8603 16.1236 57.1115 15.6654 57.1958 15.0679C57.3937 13.6822 57.588 12.2965 57.8135 10.9164C57.9619 10.0109 58.4715 9.65534 59.3623 9.78181C61.497 10.08 63.6323 10.3818 65.7682 10.6873C66.8276 10.8357 67.1979 11.3489 67.0421 12.4652C66.8588 13.761 66.6755 15.0551 66.4922 16.3491C66.4024 16.9374 66.4775 17.4616 67.0421 17.7879C67.6066 18.1142 68.096 17.8905 68.5634 17.5368C69.624 16.734 70.6889 15.9361 71.7581 15.143C72.5903 14.529 73.1914 14.6115 73.8183 15.44C75.1074 17.1409 76.3905 18.8516 77.6674 20.5721C78.3199 21.45 78.2301 21.9962 77.3429 22.6707C76.3019 23.4644 75.2534 24.2452 74.2014 25.0242C73.7046 25.3907 73.3637 25.8288 73.5507 26.4905C73.734 27.1137 74.2307 27.2951 74.8136 27.3739C76.1332 27.5499 77.4505 27.7362 78.7653 27.933C79.755 28.0778 80.1363 28.6203 79.9915 29.6192C79.6848 31.7075 79.3836 33.7964 79.0879 35.8859C78.9284 36.9856 78.4629 37.3522 77.3576 37.1891C76.0416 37.0058 74.7237 36.8225 73.4059 36.6264C72.845 36.5439 72.3465 36.6264 72.0202 37.1433C71.6738 37.6931 71.8479 38.1899 72.2035 38.6646C72.9929 39.7081 73.7786 40.7547 74.5606 41.8043C75.2736 42.7593 75.204 43.3091 74.2728 44.0038C72.6025 45.2612 70.9309 46.5136 69.2581 47.7612C68.3416 48.4431 67.7917 48.3643 67.1044 47.4606C66.3126 46.4171 65.5269 45.3705 64.7473 44.3209C64.3954 43.8443 63.9756 43.5071 63.3543 43.6574C62.6981 43.8187 62.4928 44.3465 62.4085 44.9532C62.2142 46.2656 62.0224 47.581 61.833 48.8995C61.6955 49.8526 61.2355 50.2375 60.2824 50.1128C58.1208 49.8269 55.9628 49.5214 53.8086 49.1964C52.7528 49.0369 52.4504 48.6062 52.5842 47.5248C52.7345 46.3187 52.9196 45.1164 53.0882 43.9121C53.1176 43.7087 53.2074 43.4778 53.1469 43.3036C53.0039 42.8949 52.8756 42.4202 52.5805 42.1452C52.1901 41.7787 51.6641 41.9271 51.248 42.2387C50.1593 43.0452 49.0797 43.8627 47.9928 44.671C47.014 45.4041 46.466 45.3253 45.7383 44.3575C44.4956 42.7079 43.256 41.0583 42.0194 39.4087C41.3211 38.4721 41.4054 37.9167 42.342 37.2093C43.3867 36.4211 44.4315 35.6311 45.4836 34.854C45.9693 34.4966 46.2644 34.0512 46.0994 33.4408C45.94 32.8598 45.4762 32.6417 44.9062 32.5665C43.6104 32.3942 42.3163 32.2 41.0223 32.0167C39.8602 31.8444 39.5047 31.4008 39.6641 30.2424C39.9537 28.1297 40.2592 26.0188 40.5806 23.9098C40.7327 22.9218 41.2386 22.5718 42.2137 22.7092C43.5535 22.8925 44.8952 23.0758 46.2314 23.2939C46.8088 23.3856 47.2945 23.2939 47.6189 22.7825C47.9433 22.2712 47.8187 21.7781 47.4704 21.3162C46.6676 20.255 45.8556 19.1992 45.0877 18.116C44.8311 17.7494 44.6753 17.326 44.3765 16.7376C43.2493 16.8824 41.9168 16.9429 40.6392 17.2362C33.6907 18.8308 28.7456 22.931 26.218 29.5807C23.674 36.28 24.6637 42.6584 28.8445 48.4999C30.2797 50.5032 32.1163 52.0887 34.1599 53.4359C35.7692 54.4916 36.9533 55.8993 37.4757 57.767C37.694 58.5847 37.817 59.4248 37.8422 60.2707C37.9009 61.6931 37.8422 63.1172 37.8624 64.5414C37.8752 66.1323 38.7788 67.0873 40.3771 67.1074C43.3855 67.1307 46.3939 67.1307 49.4023 67.1074C51.0043 67.0946 51.9005 66.1525 51.9097 64.5524C51.9097 63.1759 51.8987 61.803 51.9097 60.4192C51.9409 57.5379 53.0974 55.2358 55.4637 53.5568C56.3618 52.9208 57.2379 52.2573 58.191 51.5553L59.738 53.2874C58.8509 53.9564 58.0462 54.6364 57.1719 55.2065C55.1173 56.5408 54.1715 58.4067 54.2393 60.8389C54.2778 62.122 54.2503 63.405 54.2393 64.688C54.2393 66.2863 53.5703 67.551 52.3221 68.5481C52.0846 68.7633 51.94 69.0623 51.9189 69.3821C51.8822 71.0317 51.8254 72.6923 51.9189 74.34C52.0673 76.9464 51.0024 79.3035 47.76 80H41.9882C38.8137 78.9846 37.8642 77.6759 37.8642 74.318C37.8642 72.6428 37.8642 70.9675 37.8551 69.2922C37.8551 69.087 37.8037 68.7864 37.6718 68.6911C35.892 67.4758 35.421 65.7218 35.5236 63.7001C35.5603 63.0073 35.5236 62.3108 35.5236 61.6143L35.3202 61.5189C35.0214 61.8617 34.7391 62.2228 34.4202 62.5454C33.0584 63.92 32.9851 63.92 31.3684 62.8056L28.9857 61.178C28.7089 62.4775 28.4651 63.6616 28.203 64.8438C28.0344 65.5953 27.6532 65.9344 26.92 65.9436C25.428 65.96 23.9361 65.9436 22.4441 65.9436C21.7512 65.9436 21.3443 65.577 21.1775 64.9098C21.1171 64.6642 21.0749 64.4168 21.0218 64.1766C20.8128 63.207 20.602 62.2356 20.3747 61.1872C19.3098 61.9203 18.3586 62.5839 17.3816 63.2345C16.5788 63.7752 16.1353 63.7331 15.4406 63.0512C14.46 62.0835 13.4904 61.1047 12.508 60.1314C11.6062 59.2278 11.5787 58.8869 12.3118 57.8147L14.2162 55.036C13.0047 54.7812 11.9159 54.5301 10.8199 54.3267C10.2168 54.2149 9.74578 53.9601 9.44702 53.4102L9.46718 48.0215ZM75.2681 21.2869L72.4675 17.5625C71.386 18.3451 70.4164 19.1259 69.3717 19.7858C67.7716 20.7957 65.6894 20.2605 64.6593 18.686C64.0215 17.7036 64.0691 16.646 64.2304 15.5701C64.3624 14.6958 64.4797 13.8197 64.608 12.9106L59.9909 12.2636C59.8278 13.3486 59.661 14.3622 59.5272 15.3795C59.3128 17.0016 58.4641 18.1288 56.8732 18.5321C55.2822 18.9353 54.0029 18.3213 53.0333 17.0254C52.4156 16.2006 51.7961 15.3758 51.149 14.5162L47.4118 17.3205C48.1156 18.2626 48.7901 19.1296 49.428 20.0222C50.3261 21.2814 50.4489 22.6377 49.6552 23.9648C48.8616 25.2918 47.5767 25.8416 46.0114 25.6254L42.7654 25.1781C42.5436 26.7379 42.331 28.2464 42.111 29.797C43.2328 29.9602 44.272 30.1141 45.3131 30.2608C46.3872 30.4147 47.2761 30.8876 47.892 31.7967C48.9569 33.3675 48.6252 35.3379 47.0782 36.5861C46.2094 37.2844 45.3039 37.9369 44.3747 38.6407L47.168 42.3634C47.3806 42.2131 47.5676 42.0866 47.749 41.951C48.4474 41.4304 49.1402 40.8989 49.844 40.3838C50.6982 39.7606 51.6458 39.4674 52.6978 39.7002C54.7049 40.1309 55.7881 41.8483 55.4582 44.0185C55.3061 45.0064 55.1759 45.9962 55.0311 47.0244L59.6298 47.6549C59.6848 47.3195 59.7288 47.0739 59.7655 46.8265C59.9048 45.8972 59.9946 44.9569 60.1907 44.0386C60.3035 43.3996 60.6022 42.808 61.0495 42.3379C61.4968 41.8678 62.0728 41.54 62.7055 41.3956C64.0673 41.029 65.2715 41.3846 66.1971 42.4458C67.0036 43.3769 67.7147 44.3924 68.4846 45.3913L72.2108 42.5906C71.5492 41.7053 70.9278 40.8824 70.3138 40.0521C69.3149 38.6957 69.1939 37.2221 69.9655 35.9354C70.7372 34.6487 72.165 34.053 73.833 34.3151C74.8209 34.4691 75.8143 34.5919 76.8554 34.7348C77.0808 33.1696 77.2971 31.6794 77.5207 30.1233C76.5072 29.9748 75.5376 29.8209 74.5643 29.6944C72.8175 29.4689 71.6152 28.5232 71.2302 27.0459C70.8453 25.5685 71.4135 24.192 72.7845 23.1491C73.5873 22.5443 74.3975 21.9412 75.2626 21.2887L75.2681 21.2869ZM16.7438 40.6129L14.5571 42.7428C15.03 43.4319 15.5286 44.1431 16.0125 44.8653C17.1598 46.5717 16.4908 48.2854 14.4948 48.7473C13.6095 48.9526 12.7206 49.1377 11.8408 49.332V52.1034C12.7297 52.2976 13.6004 52.4791 14.4673 52.6771C16.5018 53.1408 17.1727 54.8637 15.996 56.5976C15.5084 57.3161 15.0117 58.0291 14.5865 58.6523L16.7254 60.8279C17.4384 60.3404 18.1918 59.8088 18.9506 59.3085C20.5489 58.2637 22.2773 58.9657 22.708 60.8334C22.917 61.7407 23.1039 62.6535 23.2964 63.5443H26.0805C26.2803 62.6278 26.4581 61.7462 26.6597 60.8756C27.1143 58.9181 28.8299 58.2381 30.4997 59.3543C31.2328 59.8492 31.966 60.3624 32.8109 60.9416C33.5203 60.1974 34.1966 59.4496 34.9169 58.7421C35.201 58.4653 35.2029 58.2509 35.0617 57.91C34.2553 55.9689 32.4059 55.1698 30.9047 53.9637C28.9105 57.3821 25.5123 58.2216 22.84 57.5031C21.3897 57.1059 20.1035 56.2576 19.1673 55.0809C18.2312 53.9042 17.6937 52.4602 17.6327 50.9578C17.5737 49.4071 18.0465 47.8828 18.9726 46.6377C20.1566 44.9881 21.7879 44.0551 23.7729 43.7344L22.8931 40.0447C22.8272 40.2427 22.7612 40.4113 22.7098 40.5799C22.226 42.532 20.5287 43.1882 18.8608 42.0628C18.1276 41.577 17.4201 41.0767 16.7438 40.6129ZM25.0138 55.3622C26.4984 55.3128 27.8988 54.4971 28.8207 52.8475C29.0498 52.4351 29.004 52.1803 28.6814 51.8394C27.231 50.3676 26.0383 48.6625 25.1531 46.7953C24.8085 46.0456 24.354 45.9925 23.6868 46.1446C22.5783 46.3852 21.5956 47.022 20.9231 47.9354C20.2506 48.8489 19.9344 49.9763 20.0338 51.1063C20.2721 53.5385 22.1691 55.2963 25.0138 55.3622ZM40.236 74.1568C40.2232 74.3877 40.2103 74.5472 40.2085 74.7066C40.1847 76.765 41.0553 77.6484 43.1045 77.6484C44.2977 77.6484 45.4872 77.5843 46.6805 77.6631C48.5922 77.7896 49.9797 76.5267 49.4829 74.1586L40.236 74.1568ZM40.247 69.492V71.7373H49.5398V69.492H40.247Z" stroke="#024D81" stroke-width="4" stroke-linejoin="round" mask="url(#path-1-inside-1_224_219)"/>
<path d="M43.3637 53.7233C44.2583 54.9477 44.8126 56.3803 44.9798 57.8759H44.649C44.5069 57.2175 44.3463 56.478 44.1051 55.8189C43.7444 54.8128 43.1816 53.8911 42.4515 53.1105C41.7216 52.3301 40.8399 51.7072 39.8605 51.28C37.8773 50.3945 36.0583 49.4274 34.5224 48.0326L34.5221 48.0324C27.7423 41.8804 27.8779 31.0078 34.8196 25.0614L34.8203 25.0609C35.1583 24.7709 35.4992 24.508 35.8709 24.2255L36.0478 24.5044C35.7836 24.7058 35.5196 24.9098 35.2667 25.1166C26.7867 32.0361 28.5965 45.8326 38.5977 50.3071L38.5979 50.3072C40.5657 51.1872 42.2178 52.1149 43.3567 53.7136L43.3567 53.7137L43.3637 53.7233Z" stroke="#024D81" stroke-width="2" stroke-linejoin="round"/>
<path d="M20.766 21.8964L20.568 22.1746L14.0038 17.4857L14.1996 17.2118L20.766 21.8964Z" stroke="#024D81" stroke-width="2" stroke-linejoin="round"/>
<path d="M23.8515 10.7594L24.1884 10.6706C24.5528 12.1045 24.917 13.5337 25.2833 14.9707C25.5468 16.0045 25.8113 17.0423 26.0776 18.0887L25.7503 18.1736C25.4096 16.8426 25.0699 15.5164 24.729 14.1857C24.4378 13.0489 24.1458 11.9087 23.8515 10.7594Z" stroke="#024D81" stroke-width="2" stroke-linejoin="round"/>
<path d="M19.3707 28.8789L11.9629 30.7323L11.8809 30.4049L19.2883 28.5501L19.3707 28.8789Z" stroke="#024D81" stroke-width="2" stroke-linejoin="round"/>
<path d="M66.6372 60.8543L66.8518 60.594L72.3336 65.1614L72.117 65.4217L66.6372 60.8543Z" stroke="#024D81" stroke-width="2" stroke-linejoin="round"/>
<path d="M61.4158 69.6008H61.1834V63.4646H61.4158V69.6008Z" stroke="#024D81" stroke-width="2" stroke-linejoin="round"/>
<path d="M68.1814 54.3532V54.1262H74.2975V54.3532H68.1814Z" stroke="#024D81" stroke-width="2" stroke-linejoin="round"/>
<path d="M44.7881 63.688V62.2971H45.0279V63.688H44.7881Z" stroke="#024D81" stroke-width="2" stroke-linejoin="round"/>
<path d="M59.8028 21.585H59.8029C60.9022 21.5841 61.9908 21.8004 63.0063 22.2213C64.0218 22.6423 64.9441 23.2597 65.7204 24.0381C66.4966 24.8164 67.1115 25.7404 67.5297 26.7571C67.9472 27.7721 68.1604 28.8595 68.1573 29.957C68.1252 32.1519 67.2311 34.2463 65.6679 35.7878C64.1035 37.3305 61.9947 38.1953 59.7976 38.1953C57.6005 38.1953 55.4916 37.3305 53.9272 35.7878C52.3638 34.2461 51.4697 32.1514 51.4378 29.956C51.4157 25.373 55.1892 21.5882 59.8028 21.585ZM67.8147 30.0155C67.8352 28.9547 67.6449 27.9004 67.2549 26.9136C66.864 25.9246 66.2803 25.0233 65.5378 24.2621C64.7953 23.5009 63.9088 22.895 62.9298 22.4796C61.9509 22.0643 60.8991 21.8478 59.8358 21.8428C58.7724 21.8378 57.7186 22.0444 56.7358 22.4505C55.7531 22.8566 54.8609 23.4542 54.1112 24.2084C53.3616 24.9626 52.7694 25.8584 52.3693 26.8436C51.9701 27.8264 51.7699 28.8787 51.7803 29.9394C51.7637 34.2889 55.4102 37.9545 59.7661 37.9839C64.1305 38.0132 67.7855 34.3865 67.8147 30.0155Z" stroke="#024D81" stroke-width="2" stroke-linejoin="round"/>
</svg>
