<svg width="25" height="25" viewBox="0 0 25 25" fill="none" xmlns="http://www.w3.org/2000/svg">
<path d="M24.1151 14.587C24.1073 14.631 24.1016 14.6755 24.0934 14.7195L24.0506 14.4671C24.074 14.5064 24.0934 14.5472 24.1151 14.587C24.2443 13.8829 24.3119 13.1621 24.3119 12.4419C24.3119 10.8445 23.9999 9.29469 23.3835 7.83579C22.7889 6.42651 21.938 5.16089 20.8533 4.07426C19.77 2.98764 18.5066 2.13476 17.1015 1.53866C15.6465 0.921531 14.1005 0.608797 12.5069 0.608797C11.7559 0.608797 11.0036 0.67944 10.2716 0.820329C10.27 0.820726 10.268 0.820726 10.2661 0.821123C10.3072 0.842951 10.3488 0.862398 10.3892 0.885019L10.1409 0.846126C10.1825 0.838189 10.2245 0.829458 10.2661 0.821123C9.26163 0.285746 8.13208 0 6.98868 0C5.12194 0 3.36685 0.728652 2.04688 2.05221C0.727294 3.37538 0 5.1347 0 7.00594C0 8.19694 0.305646 9.36771 0.879325 10.4024C0.886847 10.3595 0.891995 10.3162 0.900309 10.2734L0.943068 10.5214C0.920896 10.4825 0.901496 10.442 0.879325 10.4024C0.762926 11.0727 0.70156 11.7577 0.70156 12.4419C0.70156 14.0396 1.01354 15.589 1.62997 17.0484C2.22385 18.458 3.07506 19.7229 4.15869 20.8095C5.24349 21.8961 6.50526 22.7501 7.91195 23.3446C9.36694 23.963 10.9134 24.2761 12.5069 24.2761C13.2006 24.2761 13.8958 24.2126 14.5744 24.092C14.5347 24.0697 14.4944 24.0495 14.454 24.0261L14.7063 24.0705C14.6626 24.0789 14.6188 24.084 14.5744 24.092C15.62 24.6849 16.8037 25 18.0125 25C19.8789 25 21.6331 24.2725 22.9531 22.9486C24.2735 21.6262 25 19.8665 25 17.9953C25 16.8003 24.6928 15.6255 24.1151 14.587ZM12.554 19.6891C8.36012 19.6891 6.48389 17.6222 6.48389 16.0732C6.48389 15.2786 7.06905 14.7219 7.87552 14.7219C9.6702 14.7219 9.2054 17.3051 12.554 17.3051C14.2684 17.3051 15.215 16.372 15.215 15.4173C15.215 14.8429 14.9323 14.2064 13.8035 13.9274L10.0732 12.9939C7.06905 12.2387 6.52388 10.6107 6.52388 9.08037C6.52388 5.90304 9.50827 4.71005 12.3109 4.71005C14.8927 4.71005 17.9361 6.14036 17.9361 8.04653C17.9361 8.86329 17.2306 9.33834 16.4245 9.33834C14.8927 9.33834 15.1746 7.2131 12.0892 7.2131C10.5582 7.2131 9.71019 7.90802 9.71019 8.90257C9.71019 9.89515 10.9193 10.2122 11.9693 10.452L14.7304 11.0663C17.7547 11.7418 18.5216 13.5119 18.5216 15.1791C18.5216 17.7611 16.5445 19.6891 12.554 19.6891ZM14.454 24.0261C14.4944 24.0495 14.5347 24.0697 14.5744 24.092C14.6188 24.084 14.6626 24.0789 14.7063 24.0705L14.454 24.0261ZM24.0934 14.7195C24.1016 14.6755 24.1073 14.631 24.1151 14.587C24.0934 14.5472 24.074 14.5064 24.0506 14.4671L24.0934 14.7195ZM0.900309 10.2734C0.891995 10.3162 0.886847 10.3595 0.879325 10.4024C0.901496 10.442 0.920896 10.4825 0.943068 10.5214L0.900309 10.2734ZM10.3892 0.885019C10.3488 0.862398 10.3072 0.842951 10.2661 0.821123C10.2245 0.829458 10.1825 0.838189 10.1409 0.846126L10.3892 0.885019Z" fill="#024D81"/>
</svg>
