<svg width="25" height="26" viewBox="0 0 25 26" fill="none" xmlns="http://www.w3.org/2000/svg">
<g clip-path="url(#clip0_675_412)">
<path d="M24.1151 15.4542C24.1073 15.4982 24.1016 15.5427 24.0934 15.5867L24.0506 15.3343C24.074 15.3736 24.0934 15.4144 24.1151 15.4542C24.2443 14.7501 24.3119 14.0293 24.3119 13.3091C24.3119 11.7116 23.9999 10.1619 23.3835 8.70298C22.7889 7.2937 21.938 6.02807 20.8533 4.94145C19.77 3.85482 18.5066 3.00195 17.1015 2.40585C15.6465 1.78872 14.1005 1.47598 12.5069 1.47598C11.7559 1.47598 11.0036 1.54663 10.2716 1.68752C10.27 1.68791 10.268 1.68791 10.2661 1.68831C10.3072 1.71014 10.3488 1.72959 10.3892 1.75221L10.1409 1.71331C10.1825 1.70538 10.2245 1.69665 10.2661 1.68831C9.26163 1.15293 8.13208 0.867188 6.98868 0.867188C5.12194 0.867188 3.36685 1.59584 2.04688 2.9194C0.727294 4.24256 0 6.00189 0 7.87313C0 9.06413 0.305646 10.2349 0.879325 11.2695C0.886847 11.2267 0.891995 11.1834 0.900309 11.1405L0.943068 11.3886C0.920896 11.3497 0.901496 11.3092 0.879325 11.2695C0.762926 11.9399 0.70156 12.6248 0.70156 13.3091C0.70156 14.9068 1.01354 16.4562 1.62997 17.9156C2.22385 19.3252 3.07506 20.5901 4.15869 21.6767C5.24349 22.7633 6.50526 23.6173 7.91195 24.2118C9.36694 24.8302 10.9134 25.1433 12.5069 25.1433C13.2006 25.1433 13.8958 25.0798 14.5744 24.9592C14.5347 24.9369 14.4944 24.9167 14.454 24.8933L14.7063 24.9377C14.6626 24.9461 14.6188 24.9512 14.5744 24.9592C15.62 25.5521 16.8037 25.8672 18.0125 25.8672C19.8789 25.8672 21.6331 25.1397 22.9531 23.8158C24.2735 22.4934 25 20.7337 25 18.8624C25 17.6674 24.6928 16.4927 24.1151 15.4542ZM12.554 20.5563C8.36012 20.5563 6.48389 18.4894 6.48389 16.9404C6.48389 16.1458 7.06905 15.5891 7.87552 15.5891C9.6702 15.5891 9.2054 18.1723 12.554 18.1723C14.2684 18.1723 15.215 17.2392 15.215 16.2844C15.215 15.7101 14.9323 15.0736 13.8035 14.7946L10.0732 13.8611C7.06905 13.1058 6.52388 11.4779 6.52388 9.94756C6.52388 6.77022 9.50827 5.57724 12.3109 5.57724C14.8927 5.57724 17.9361 7.00755 17.9361 8.91371C17.9361 9.73048 17.2306 10.2055 16.4245 10.2055C14.8927 10.2055 15.1746 8.08029 12.0892 8.08029C10.5582 8.08029 9.71019 8.77521 9.71019 9.76976C9.71019 10.7623 10.9193 11.0794 11.9693 11.3191L14.7304 11.9335C17.7547 12.609 18.5216 14.3791 18.5216 16.0463C18.5216 18.6283 16.5445 20.5563 12.554 20.5563ZM14.454 24.8933C14.4944 24.9167 14.5347 24.9369 14.5744 24.9592C14.6188 24.9512 14.6626 24.9461 14.7063 24.9377L14.454 24.8933ZM24.0934 15.5867C24.1016 15.5427 24.1073 15.4982 24.1151 15.4542C24.0934 15.4144 24.074 15.3736 24.0506 15.3343L24.0934 15.5867ZM0.900309 11.1405C0.891995 11.1834 0.886847 11.2267 0.879325 11.2695C0.901496 11.3092 0.920896 11.3497 0.943068 11.3886L0.900309 11.1405ZM10.3892 1.75221C10.3488 1.72959 10.3072 1.71014 10.2661 1.68831C10.2245 1.69665 10.1825 1.70538 10.1409 1.71331L10.3892 1.75221Z" fill="white"/>
</g>
<defs>
<clipPath id="clip0_675_412">
<rect width="25" height="25" fill="white" transform="translate(0 0.867188)"/>
</clipPath>
</defs>
</svg>
