<svg width="90" height="90" viewBox="0 0 90 90" fill="none" xmlns="http://www.w3.org/2000/svg">
<path d="M53.5568 72.0592C53.5569 72.0591 53.557 72.059 53.5571 72.0589L53.5568 72.0592ZM53.5568 72.0592L53.5561 72.0599C53.5563 72.0597 53.5566 72.0594 53.5568 72.0592ZM53.7397 71.8767L49.0047 71.9931L49.081 67.218L67.0715 49.2613L71.7341 53.9204L53.7397 71.8767ZM66.62 48.8101L66.6203 48.8104C66.6202 48.8103 66.6201 48.8102 66.62 48.8101Z" stroke="#024D81" stroke-width="2"/>
<line x1="11" y1="47" x2="46" y2="47" stroke="#024D81" stroke-width="2"/>
<line x1="11" y1="52" x2="35.7917" y2="52" stroke="#024D81" stroke-width="2"/>
<line x1="11" y1="67" x2="35.7917" y2="67" stroke="#024D81" stroke-width="2"/>
<line x1="11" y1="62" x2="27.0417" y2="62" stroke="#024D81" stroke-width="2"/>
<line x1="11" y1="72" x2="21.2083" y2="72" stroke="#024D81" stroke-width="2"/>
<line x1="11" y1="57" x2="43.0833" y2="57" stroke="#024D81" stroke-width="2"/>
<path d="M32.8625 22.3223L27.2291 29.2357L33.1333 36.4744" stroke="#024D81" stroke-width="2" stroke-linecap="round" stroke-linejoin="round"/>
<path d="M56.3664 22.3223L62 29.2357L56.0956 36.4742" stroke="#024D81" stroke-width="2" stroke-linecap="round" stroke-linejoin="round"/>
<path d="M48.3086 22.3223L41.0948 36.559" stroke="#024D81" stroke-width="2" stroke-linecap="round"/>
<rect x="12" y="12" width="66" height="66" stroke="#024D81" stroke-width="2"/>
</svg>
