<svg width="90" height="90" viewBox="0 0 90 90" fill="none" xmlns="http://www.w3.org/2000/svg">
<path fill-rule="evenodd" clip-rule="evenodd" d="M13.5537 11.075C14.1581 11.0258 14.7697 11 15.3859 11C27.539 11 37.3899 20.6982 37.3899 32.6592V35.487L42.1217 42.4746C43.621 44.6881 42.0083 47.6543 39.3048 47.6543H37.3899V50.984C37.3889 51.2039 37.3444 51.4214 37.2588 51.6242C37.1732 51.8269 37.0483 52.011 36.8911 52.1658C36.7339 52.3206 36.5475 52.4431 36.3426 52.5264C36.1377 52.6097 35.9183 52.6521 35.6969 52.6512H33.5553C31.8788 52.6371 32.3109 52.4863 32.3109 54.1746L35.6969 55.9832C36.6319 55.9832 37.3899 56.7288 37.3899 57.648V62.6472C37.3883 63.7932 37.0886 64.9193 36.5198 65.9164C35.951 66.9135 35.1323 67.7477 34.1432 68.3381C32.9343 69.065 31.6333 69.1611 30.4881 69.0134C29.3618 68.868 28.2851 68.4741 27.3973 68.0989L20.4625 65.1749V77.3328C20.4625 78.2543 19.7069 79 18.7695 79H13.693C13.2463 79.0019 12.817 78.8276 12.4996 78.5154C12.1822 78.2033 12.0025 77.7788 12 77.3352V12.7352C12 11.8676 12.6753 11.1454 13.5537 11.075ZM29.7727 39.3232C30.1046 39.3247 30.4337 39.2613 30.7409 39.1365C31.0482 39.0116 31.3277 38.8279 31.5634 38.5958C31.7992 38.3636 31.9865 38.0876 32.1148 37.7836C32.243 37.4795 32.3097 37.1533 32.3109 36.8236C32.3097 36.4939 32.243 36.1677 32.1148 35.8636C31.9865 35.5595 31.7992 35.2835 31.5634 35.0514C31.3277 34.8192 31.0482 34.6355 30.7409 34.5107C30.4337 34.3859 30.1046 34.3225 29.7727 34.324C29.4407 34.3225 29.1117 34.3859 28.8044 34.5107C28.4971 34.6355 28.2176 34.8192 27.9819 35.0514C27.7461 35.2835 27.5588 35.5595 27.4305 35.8636C27.3023 36.1677 27.2356 36.4939 27.2344 36.8236C27.2356 37.1533 27.3023 37.4795 27.4305 37.7836C27.5588 38.0876 27.7461 38.3636 27.9819 38.5958C28.2176 38.8279 28.4971 39.0116 28.8044 39.1365C29.1117 39.2613 29.4407 39.3247 29.7727 39.3232ZM48.5866 58.0935C49.4448 57.5944 50.1561 56.8804 50.6495 56.023C51.143 55.1655 51.4013 54.1945 51.3988 53.2069C51.3988 51.113 50.2654 49.291 48.589 48.3203L50.9738 44.2708C52.5423 45.1843 53.8425 46.4901 54.7448 48.0579C55.6471 49.6258 56.12 51.401 56.1164 53.2069C56.1191 55.0128 55.6453 56.7879 54.7422 58.3553C53.8391 59.9228 52.5382 61.2279 50.969 62.1407L48.5842 58.0935H48.5866ZM56.3478 42.273C59.212 44.3294 61.337 48.3601 61.337 53.2069C61.337 58.0536 59.212 62.0844 56.3478 64.1408L59.1175 67.9394C63.3842 64.8748 66.0594 59.3292 66.0594 53.2069C66.0594 47.0869 63.3842 41.539 59.1175 38.472L56.3478 42.273ZM64.2177 70.1295C68.2931 66.9194 71.2776 60.6658 71.2776 53.2069C71.2776 45.748 68.2931 39.4943 64.2177 36.2866L67.1526 32.6123C72.5881 36.8916 76 44.6365 76 53.2069C76 61.7772 72.5881 69.5222 67.1526 73.8015L64.2177 70.1295Z" stroke="#024D81" stroke-width="2"/>
</svg>
