<svg width="105" height="105" viewBox="0 0 105 105" fill="none" xmlns="http://www.w3.org/2000/svg">
<path d="M100.702 13.172C100.7 10.4746 101 3.99989 101 3.99989C100.702 4 93.2254 3.00185 90.528 3H88V74.806H90.528C93.2226 74.8042 100.702 74.806 100.702 74.806C101 74 100.695 67.3446 100.702 64.65V13.172Z" fill="#E87E70"/>
<path d="M91.875 38.1938H52.5V40.5563H91.875V38.1938Z" fill="black"/>
<path d="M91.875 18.5063H52.5V20.8688H91.875V18.5063Z" fill="black"/>
<path d="M14.3026 26.2567C14.3026 23.2905 16.7176 20.8755 19.6838 20.8755H30.0066L22.742 28.1402L24.4121 29.807L33.6948 20.5277C33.9179 20.3078 34.0393 20.0059 34.0393 19.6942C34.0393 19.3825 33.9146 19.0806 33.6948 18.8608L24.4121 9.57812L22.742 11.2483L30.0066 18.513H19.6871C15.4182 18.513 11.9434 21.9878 11.9434 26.2567V41.0223H14.3059L14.3026 26.2567Z" fill="black"/>
<path d="M91.875 57.8813H52.5V60.2471H91.875V57.8813Z" fill="black"/>
<path d="M11.8183 48H16V89H11.8183C9.74559 89 7.75769 88.1955 6.2916 86.7633C4.82552 85.3312 4.00125 83.3886 4 81.3626V55.6421C4 53.6153 4.82372 51.6715 6.28994 50.2383C7.75616 48.8051 9.74477 48 11.8183 48V48Z" fill="#E87E70"/>
<path d="M101.718 2.1001H42.6559C42.0029 2.1001 41.4746 2.62838 41.4746 3.28135V48.0376H9.84336C5.57445 48.0376 2.09961 51.5124 2.09961 55.7813V82.0313C2.09961 86.3035 5.57445 89.7751 9.84336 89.7751H22.2366L28.4743 102.247L30.5874 101.191L24.0249 88.0656C23.8248 87.6653 23.4146 87.4126 22.9684 87.4126H9.84336C6.87711 87.4126 4.46211 85.0009 4.46211 82.0313V55.7813C4.46211 52.8151 6.87711 50.4001 9.84336 50.4001H41.4746V65.8646C40.2507 66.3404 39.3746 67.5118 39.3746 68.9063C39.3746 70.3009 40.2507 71.4723 41.4746 71.9481V75.4688C41.4746 76.1218 42.0029 76.6501 42.6559 76.6501H54.5996V82.0313C54.5996 84.9976 52.1846 87.4126 49.2184 87.4126H29.5309V89.7784H49.2184C53.4873 89.7784 56.9621 86.3035 56.9621 82.0346V76.6534H101.718C102.371 76.6534 102.9 76.1251 102.9 75.4721V3.28135C102.9 2.62838 102.371 2.1001 101.718 2.1001ZM100.537 74.2876H43.8371V4.4626H100.537V74.2876Z" fill="black"/>
<path d="M16.4062 72.1875C18.2184 72.1875 19.6875 70.7184 19.6875 68.9062C19.6875 67.0941 18.2184 65.625 16.4062 65.625C14.5941 65.625 13.125 67.0941 13.125 68.9062C13.125 70.7184 14.5941 72.1875 16.4062 72.1875Z" fill="black"/>
<path d="M29.5312 72.1875C31.3434 72.1875 32.8125 70.7184 32.8125 68.9062C32.8125 67.0941 31.3434 65.625 29.5312 65.625C27.7191 65.625 26.25 67.0941 26.25 68.9062C26.25 70.7184 27.7191 72.1875 29.5312 72.1875Z" fill="black"/>
</svg>
