<svg width="90" height="90" viewBox="0 0 90 90" fill="none" xmlns="http://www.w3.org/2000/svg">
<path d="M21.75 52.75H33.375C34.4027 52.75 35.3883 53.1583 36.115 53.885C36.8417 54.6117 37.25 55.5973 37.25 56.625V68.25C37.25 69.2777 36.8417 70.2633 36.115 70.99C35.3883 71.7167 34.4027 72.125 33.375 72.125H21.75C20.7223 72.125 19.7367 71.7167 19.01 70.99C18.2833 70.2633 17.875 69.2777 17.875 68.25V56.625C17.875 55.5973 18.2833 54.6117 19.01 53.885C19.7367 53.1583 20.7223 52.75 21.75 52.75V52.75ZM56.625 17.875H68.25C69.2777 17.875 70.2633 18.2833 70.99 19.01C71.7167 19.7367 72.125 20.7223 72.125 21.75V33.375C72.125 34.4027 71.7167 35.3883 70.99 36.115C70.2633 36.8417 69.2777 37.25 68.25 37.25H56.625C55.5973 37.25 54.6117 36.8417 53.885 36.115C53.1583 35.3883 52.75 34.4027 52.75 33.375V21.75C52.75 20.7223 53.1583 19.7367 53.885 19.01C54.6117 18.2833 55.5973 17.875 56.625 17.875V17.875ZM56.625 52.75C55.5973 52.75 54.6117 53.1583 53.885 53.885C53.1583 54.6117 52.75 55.5973 52.75 56.625V68.25C52.75 69.2777 53.1583 70.2633 53.885 70.99C54.6117 71.7167 55.5973 72.125 56.625 72.125H68.25C69.2777 72.125 70.2633 71.7167 70.99 70.99C71.7167 70.2633 72.125 69.2777 72.125 68.25V56.625C72.125 55.5973 71.7167 54.6117 70.99 53.885C70.2633 53.1583 69.2777 52.75 68.25 52.75H56.625ZM56.625 14C54.5696 14 52.5983 14.8165 51.1449 16.2699C49.6915 17.7233 48.875 19.6946 48.875 21.75V33.375C48.875 35.4304 49.6915 37.4017 51.1449 38.8551C52.5983 40.3085 54.5696 41.125 56.625 41.125H68.25C70.3054 41.125 72.2767 40.3085 73.7301 38.8551C75.1835 37.4017 76 35.4304 76 33.375V21.75C76 19.6946 75.1835 17.7233 73.7301 16.2699C72.2767 14.8165 70.3054 14 68.25 14H56.625ZM21.75 48.875C19.6946 48.875 17.7233 49.6915 16.2699 51.1449C14.8165 52.5983 14 54.5696 14 56.625L14 68.25C14 70.3054 14.8165 72.2767 16.2699 73.7301C17.7233 75.1835 19.6946 76 21.75 76H33.375C35.4304 76 37.4017 75.1835 38.8551 73.7301C40.3085 72.2767 41.125 70.3054 41.125 68.25V56.625C41.125 54.5696 40.3085 52.5983 38.8551 51.1449C37.4017 49.6915 35.4304 48.875 33.375 48.875H21.75ZM48.875 56.625C48.875 54.5696 49.6915 52.5983 51.1449 51.1449C52.5983 49.6915 54.5696 48.875 56.625 48.875H68.25C70.3054 48.875 72.2767 49.6915 73.7301 51.1449C75.1835 52.5983 76 54.5696 76 56.625V68.25C76 70.3054 75.1835 72.2767 73.7301 73.7301C72.2767 75.1835 70.3054 76 68.25 76H56.625C54.5696 76 52.5983 75.1835 51.1449 73.7301C49.6915 72.2767 48.875 70.3054 48.875 68.25V56.625ZM14 21.75C14 19.6946 14.8165 17.7233 16.2699 16.2699C17.7233 14.8165 19.6946 14 21.75 14H33.375C35.4304 14 37.4017 14.8165 38.8551 16.2699C40.3085 17.7233 41.125 19.6946 41.125 21.75V33.375C41.125 35.4304 40.3085 37.4017 38.8551 38.8551C37.4017 40.3085 35.4304 41.125 33.375 41.125H21.75C19.6946 41.125 17.7233 40.3085 16.2699 38.8551C14.8165 37.4017 14 35.4304 14 33.375V21.75ZM34.7468 25.0593C34.9269 24.8791 35.0698 24.6653 35.1673 24.4299C35.2648 24.1945 35.3149 23.9423 35.3149 23.6875C35.3149 23.4327 35.2648 23.1805 35.1673 22.9451C35.0698 22.7097 34.9269 22.4959 34.7468 22.3157C34.5666 22.1356 34.3528 21.9927 34.1174 21.8952C33.882 21.7977 33.6298 21.7476 33.375 21.7476C33.1202 21.7476 32.868 21.7977 32.6326 21.8952C32.3972 21.9927 32.1834 22.1356 32.0032 22.3157L25.625 28.6979L23.1218 26.1907C22.9416 26.0106 22.7278 25.8677 22.4924 25.7702C22.257 25.6727 22.0048 25.6226 21.75 25.6226C21.4952 25.6226 21.243 25.6727 21.0076 25.7702C20.7722 25.8677 20.5584 26.0106 20.3783 26.1907C20.1981 26.3709 20.0552 26.5847 19.9577 26.8201C19.8602 27.0555 19.8101 27.3077 19.8101 27.5625C19.8101 27.8173 19.8602 28.0695 19.9577 28.3049C20.0552 28.5403 20.1981 28.7541 20.3783 28.9343L24.2532 32.8093C24.4332 32.9897 24.647 33.1328 24.8824 33.2305C25.1178 33.3282 25.3702 33.3785 25.625 33.3785C25.8798 33.3785 26.1322 33.3282 26.3676 33.2305C26.603 33.1328 26.8168 32.9897 26.9968 32.8093L34.7468 25.0593Z" stroke="#024D81" stroke-width="2"/>
</svg>
