<svg width="90" height="90" viewBox="0 0 90 90" fill="none" xmlns="http://www.w3.org/2000/svg">
<path d="M47.1406 56.284L47.3705 56.8487L47.9777 56.9031L53.1967 57.3702L49.1589 61.0362L48.7287 61.4268L48.855 61.9939L50.0552 67.3852L45.619 64.5641L45.0824 64.2228L44.5458 64.5641L40.1096 67.3852L41.3098 61.9939L41.4361 61.4268L41.0059 61.0362L36.9694 57.3713L42.2345 56.9031L42.846 56.8487L43.0742 56.2788L45.0899 51.2456L47.1406 56.284ZM25.1323 11.166H65.0325V16.1494H25.1323V11.166ZM18.1489 25.1327H72.0159V30.1161H18.1489V25.1327Z" stroke="white" stroke-width="2"/>
<path d="M74.0168 45.084V44.084H73.0168H17.1499H16.1499V45.084V73.0174V74.0174H17.1499H73.0168H74.0168V73.0174V45.084ZM17.1499 39.1006H73.0168C74.6037 39.1006 76.1256 39.731 77.2477 40.8531C78.3698 41.9752 79.0002 43.4971 79.0002 45.084V73.0174C79.0002 74.6043 78.3698 76.1262 77.2477 77.2483C76.1256 78.3704 74.6037 79.0008 73.0168 79.0008H17.1499C15.563 79.0008 14.0411 78.3704 12.919 77.2483C11.7969 76.1262 11.1665 74.6043 11.1665 73.0174V45.084C11.1665 43.4971 11.7969 41.9752 12.919 40.8531C14.0411 39.731 15.563 39.1006 17.1499 39.1006Z" stroke="white" stroke-width="2"/>
</svg>
