<?xml version="1.0" encoding="UTF-8"?>
<svg xmlns="http://www.w3.org/2000/svg" xmlns:xlink="http://www.w3.org/1999/xlink" width="152pt" height="29pt" viewBox="0 0 152 29" version="1.1">
<defs>
<linearGradient id="linear0" gradientUnits="userSpaceOnUse" x1="65.7891" y1="98.6714" x2="-42.1439" y2="226.649" gradientTransform="matrix(0.209655,0,0,0.210145,0,0)">
<stop offset="0.00186302" style="stop-color:rgb(0%,58.823529%,89.019608%);stop-opacity:1;"/>
<stop offset="0.2137" style="stop-color:rgb(0%,65.882353%,100%);stop-opacity:1;"/>
<stop offset="0.3791" style="stop-color:rgb(14.117647%,70.588235%,100%);stop-opacity:1;"/>
<stop offset="0.5807" style="stop-color:rgb(29.803922%,76.078431%,100%);stop-opacity:1;"/>
</linearGradient>
<linearGradient id="linear1" gradientUnits="userSpaceOnUse" x1="75.0906" y1="21.3548" x2="110.76" y2="272.227" gradientTransform="matrix(0.209655,0,0,0.210145,0,0)">
<stop offset="0.013" style="stop-color:rgb(14.901961%,69.803922%,98.039216%);stop-opacity:1;"/>
<stop offset="0.4657" style="stop-color:rgb(21.176471%,70.980392%,96.862745%);stop-opacity:1;"/>
</linearGradient>
<linearGradient id="linear2" gradientUnits="userSpaceOnUse" x1="10.7841" y1="47.1632" x2="150.951" y2="31.9392" gradientTransform="matrix(0.209655,0,0,0.210145,0,0)">
<stop offset="0" style="stop-color:rgb(12.941176%,65.490196%,92.156863%);stop-opacity:1;"/>
<stop offset="1" style="stop-color:rgb(9.411765%,66.666667%,96.078431%);stop-opacity:1;"/>
</linearGradient>
</defs>
<g id="surface1">
<path style=" stroke:none;fill-rule:nonzero;fill:rgb(11.764706%,12.156863%,11.372549%);fill-opacity:1;" d="M 29.8125 18.980469 C 30.238281 19.136719 30.683594 19.269531 31.144531 19.386719 C 31.609375 19.503906 32.179688 19.5625 32.847656 19.5625 C 33.902344 19.5625 34.691406 19.347656 35.214844 18.914062 C 35.734375 18.480469 35.996094 17.894531 35.996094 17.160156 C 35.996094 16.800781 35.941406 16.488281 35.832031 16.230469 C 35.722656 15.972656 35.558594 15.75 35.339844 15.5625 C 35.121094 15.375 34.847656 15.207031 34.519531 15.050781 C 34.1875 14.894531 33.804688 14.726562 33.367188 14.546875 L 32.269531 14.101562 C 31.894531 13.945312 31.554688 13.773438 31.242188 13.589844 C 30.933594 13.402344 30.667969 13.171875 30.441406 12.902344 C 30.214844 12.628906 30.039062 12.316406 29.910156 11.960938 C 29.78125 11.605469 29.714844 11.183594 29.714844 10.691406 C 29.714844 9.515625 30.113281 8.597656 30.914062 7.933594 C 31.710938 7.269531 32.835938 6.933594 34.277344 6.933594 C 34.894531 6.933594 35.480469 6.988281 36.035156 7.089844 C 36.589844 7.191406 37.078125 7.324219 37.503906 7.476562 C 37.441406 8.019531 37.300781 8.554688 37.078125 9.085938 C 36.730469 8.957031 36.328125 8.839844 35.871094 8.734375 C 35.414062 8.632812 34.898438 8.582031 34.316406 8.582031 C 33.503906 8.582031 32.878906 8.742188 32.441406 9.074219 C 32.003906 9.402344 31.785156 9.898438 31.785156 10.554688 C 31.785156 10.828125 31.839844 11.066406 31.949219 11.28125 C 32.058594 11.496094 32.203125 11.683594 32.382812 11.84375 C 32.5625 12.003906 32.777344 12.152344 33.019531 12.277344 C 33.265625 12.410156 33.523438 12.523438 33.792969 12.628906 L 34.875 13.054688 C 35.390625 13.261719 35.847656 13.476562 36.246094 13.703125 C 36.644531 13.929688 36.988281 14.195312 37.273438 14.496094 C 37.554688 14.800781 37.769531 15.160156 37.921875 15.574219 C 38.070312 15.988281 38.140625 16.472656 38.140625 17.027344 C 38.140625 18.355469 37.683594 19.40625 36.769531 20.175781 C 35.855469 20.941406 34.574219 21.324219 32.925781 21.324219 C 32.527344 21.324219 32.164062 21.3125 31.84375 21.289062 C 31.523438 21.261719 31.222656 21.222656 30.945312 21.171875 C 30.667969 21.121094 30.398438 21.054688 30.144531 20.980469 C 29.886719 20.902344 29.621094 20.816406 29.351562 20.726562 C 29.375 20.441406 29.4375 20.152344 29.527344 19.855469 C 29.613281 19.554688 29.710938 19.265625 29.8125 18.980469 Z M 29.8125 18.980469 "/>
<path style=" stroke:none;fill-rule:nonzero;fill:rgb(11.764706%,12.156863%,11.372549%);fill-opacity:1;" d="M 40.363281 11.15625 C 40.507812 11.128906 40.667969 11.109375 40.847656 11.09375 C 41.03125 11.082031 41.183594 11.078125 41.3125 11.078125 C 41.457031 11.078125 41.613281 11.082031 41.792969 11.09375 C 41.976562 11.109375 42.136719 11.128906 42.277344 11.15625 L 42.277344 16.597656 C 42.277344 17.21875 42.335938 17.730469 42.449219 18.136719 C 42.566406 18.546875 42.742188 18.863281 42.972656 19.097656 C 43.207031 19.328125 43.488281 19.488281 43.824219 19.578125 C 44.160156 19.667969 44.546875 19.714844 44.984375 19.714844 C 45.640625 19.714844 46.203125 19.640625 46.664062 19.5 L 46.664062 11.152344 C 46.808594 11.128906 46.964844 11.109375 47.140625 11.09375 C 47.3125 11.082031 47.46875 11.074219 47.613281 11.074219 C 47.753906 11.074219 47.914062 11.082031 48.085938 11.09375 C 48.261719 11.105469 48.417969 11.125 48.558594 11.152344 L 48.558594 20.777344 C 48.109375 20.910156 47.570312 21.03125 46.945312 21.148438 C 46.320312 21.261719 45.671875 21.320312 45.003906 21.320312 C 44.375 21.320312 43.777344 21.265625 43.214844 21.15625 C 42.65625 21.046875 42.164062 20.824219 41.738281 20.488281 C 41.3125 20.152344 40.976562 19.683594 40.734375 19.074219 C 40.488281 18.46875 40.367188 17.667969 40.367188 16.671875 L 40.367188 11.15625 Z M 40.363281 11.15625 "/>
<path style=" stroke:none;fill-rule:nonzero;fill:rgb(11.764706%,12.156863%,11.372549%);fill-opacity:1;" d="M 64.289062 16.597656 C 64.3125 17.679688 64.59375 18.476562 65.128906 18.980469 C 65.664062 19.484375 66.453125 19.734375 67.496094 19.734375 C 68.410156 19.734375 69.28125 19.574219 70.105469 19.25 C 70.207031 19.445312 70.292969 19.679688 70.355469 19.957031 C 70.421875 20.234375 70.457031 20.511719 70.472656 20.78125 C 70.046875 20.960938 69.578125 21.097656 69.070312 21.1875 C 68.5625 21.277344 67.996094 21.324219 67.378906 21.324219 C 66.476562 21.324219 65.703125 21.199219 65.058594 20.945312 C 64.417969 20.695312 63.882812 20.339844 63.46875 19.882812 C 63.046875 19.421875 62.742188 18.882812 62.546875 18.253906 C 62.355469 17.628906 62.257812 16.941406 62.257812 16.191406 C 62.257812 15.457031 62.355469 14.769531 62.539062 14.128906 C 62.726562 13.488281 63.015625 12.933594 63.398438 12.460938 C 63.785156 11.992188 64.273438 11.617188 64.859375 11.335938 C 65.445312 11.058594 66.136719 10.921875 66.9375 10.921875 C 67.621094 10.921875 68.21875 11.035156 68.734375 11.269531 C 69.25 11.503906 69.679688 11.824219 70.027344 12.226562 C 70.378906 12.636719 70.640625 13.121094 70.820312 13.679688 C 71 14.242188 71.09375 14.851562 71.09375 15.511719 C 71.09375 15.691406 71.085938 15.882812 71.074219 16.082031 C 71.058594 16.28125 71.046875 16.453125 71.035156 16.59375 L 64.289062 16.59375 Z M 69.195312 15.164062 C 69.195312 14.800781 69.148438 14.457031 69.050781 14.128906 C 68.957031 13.796875 68.8125 13.511719 68.625 13.265625 C 68.441406 13.019531 68.199219 12.824219 67.910156 12.675781 C 67.621094 12.527344 67.277344 12.453125 66.878906 12.453125 C 66.089844 12.453125 65.488281 12.691406 65.070312 13.167969 C 64.652344 13.648438 64.398438 14.3125 64.308594 15.164062 Z M 69.195312 15.164062 "/>
<path style=" stroke:none;fill-rule:nonzero;fill:rgb(11.764706%,12.156863%,11.372549%);fill-opacity:1;" d="M 73.546875 11.15625 C 73.6875 11.128906 73.820312 11.109375 73.953125 11.09375 C 74.078125 11.082031 74.214844 11.078125 74.359375 11.078125 C 74.5 11.078125 74.640625 11.082031 74.785156 11.09375 C 74.925781 11.109375 75.054688 11.128906 75.167969 11.15625 C 75.207031 11.347656 75.246094 11.605469 75.285156 11.917969 C 75.324219 12.238281 75.34375 12.503906 75.34375 12.722656 C 75.613281 12.285156 75.972656 11.90625 76.417969 11.582031 C 76.863281 11.257812 77.433594 11.09375 78.128906 11.09375 C 78.230469 11.09375 78.335938 11.101562 78.445312 11.105469 C 78.554688 11.113281 78.648438 11.121094 78.726562 11.136719 C 78.753906 11.25 78.773438 11.375 78.785156 11.503906 C 78.800781 11.632812 78.804688 11.769531 78.804688 11.910156 C 78.804688 12.066406 78.792969 12.226562 78.777344 12.394531 C 78.757812 12.5625 78.734375 12.722656 78.707031 12.878906 C 78.605469 12.855469 78.5 12.84375 78.390625 12.84375 C 78.28125 12.84375 78.191406 12.84375 78.128906 12.84375 C 77.78125 12.84375 77.449219 12.890625 77.132812 12.988281 C 76.816406 13.082031 76.535156 13.257812 76.28125 13.5 C 76.03125 13.746094 75.832031 14.082031 75.683594 14.507812 C 75.535156 14.933594 75.460938 15.480469 75.460938 16.152344 L 75.460938 21.089844 C 75.320312 21.117188 75.160156 21.132812 74.988281 21.148438 C 74.8125 21.160156 74.65625 21.167969 74.511719 21.167969 C 74.371094 21.167969 74.214844 21.160156 74.039062 21.148438 C 73.867188 21.136719 73.703125 21.117188 73.546875 21.089844 Z M 73.546875 11.15625 "/>
<path style=" stroke:none;fill-rule:nonzero;fill:rgb(11.764706%,12.156863%,11.372549%);fill-opacity:1;" d="M 80.289062 19.289062 C 80.636719 19.433594 81.019531 19.542969 81.4375 19.628906 C 81.859375 19.710938 82.273438 19.753906 82.6875 19.753906 C 82.980469 19.753906 83.265625 19.722656 83.535156 19.65625 C 83.808594 19.59375 84.042969 19.496094 84.242188 19.367188 C 84.441406 19.238281 84.601562 19.078125 84.722656 18.890625 C 84.84375 18.703125 84.910156 18.496094 84.910156 18.261719 C 84.910156 18.003906 84.859375 17.789062 84.761719 17.621094 C 84.667969 17.453125 84.539062 17.3125 84.378906 17.195312 C 84.214844 17.082031 84.03125 16.980469 83.816406 16.894531 C 83.605469 16.8125 83.375 16.730469 83.132812 16.652344 L 82.457031 16.402344 C 81.632812 16.089844 81.03125 15.742188 80.660156 15.355469 C 80.285156 14.96875 80.097656 14.445312 80.097656 13.785156 C 80.097656 12.90625 80.410156 12.210938 81.035156 11.695312 C 81.660156 11.175781 82.578125 10.917969 83.789062 10.917969 C 84.292969 10.917969 84.785156 10.96875 85.269531 11.0625 C 85.75 11.160156 86.175781 11.273438 86.535156 11.402344 C 86.511719 11.660156 86.460938 11.917969 86.390625 12.179688 C 86.320312 12.4375 86.234375 12.675781 86.128906 12.894531 C 85.847656 12.792969 85.507812 12.691406 85.117188 12.59375 C 84.722656 12.496094 84.300781 12.449219 83.847656 12.449219 C 83.375 12.449219 82.949219 12.53125 82.582031 12.699219 C 82.214844 12.871094 82.03125 13.164062 82.03125 13.59375 C 82.03125 13.8125 82.074219 14 82.164062 14.152344 C 82.257812 14.308594 82.378906 14.441406 82.53125 14.550781 C 82.6875 14.660156 82.863281 14.753906 83.0625 14.832031 C 83.261719 14.910156 83.476562 14.988281 83.710938 15.066406 L 84.5625 15.355469 C 84.871094 15.457031 85.164062 15.582031 85.441406 15.722656 C 85.71875 15.867188 85.957031 16.042969 86.15625 16.253906 C 86.355469 16.46875 86.515625 16.726562 86.636719 17.03125 C 86.757812 17.332031 86.824219 17.699219 86.824219 18.125 C 86.824219 18.601562 86.726562 19.039062 86.53125 19.433594 C 86.339844 19.824219 86.066406 20.160156 85.710938 20.4375 C 85.355469 20.714844 84.929688 20.933594 84.425781 21.089844 C 83.921875 21.242188 83.371094 21.320312 82.761719 21.320312 C 82.144531 21.320312 81.605469 21.277344 81.140625 21.195312 C 80.675781 21.109375 80.246094 20.996094 79.84375 20.855469 C 79.871094 20.597656 79.925781 20.335938 80.007812 20.074219 C 80.09375 19.808594 80.183594 19.546875 80.289062 19.289062 Z M 80.289062 19.289062 "/>
<path style=" stroke:none;fill-rule:nonzero;fill:rgb(11.764706%,12.156863%,11.372549%);fill-opacity:1;" d="M 93.21875 21.324219 C 92.441406 21.324219 91.769531 21.191406 91.1875 20.925781 C 90.605469 20.660156 90.125 20.296875 89.738281 19.832031 C 89.351562 19.367188 89.066406 18.820312 88.878906 18.1875 C 88.691406 17.554688 88.597656 16.867188 88.597656 16.132812 C 88.597656 15.398438 88.691406 14.710938 88.878906 14.078125 C 89.066406 13.445312 89.351562 12.898438 89.738281 12.433594 C 90.125 11.96875 90.609375 11.601562 91.1875 11.332031 C 91.765625 11.058594 92.441406 10.921875 93.21875 10.921875 C 93.992188 10.921875 94.664062 11.058594 95.246094 11.332031 C 95.824219 11.601562 96.308594 11.96875 96.695312 12.433594 C 97.082031 12.898438 97.367188 13.445312 97.554688 14.078125 C 97.742188 14.710938 97.835938 15.398438 97.835938 16.132812 C 97.835938 16.867188 97.742188 17.554688 97.554688 18.1875 C 97.367188 18.820312 97.082031 19.367188 96.695312 19.832031 C 96.308594 20.296875 95.824219 20.660156 95.246094 20.925781 C 94.667969 21.191406 93.988281 21.324219 93.21875 21.324219 Z M 93.21875 19.792969 C 94.105469 19.792969 94.761719 19.472656 95.1875 18.824219 C 95.613281 18.179688 95.824219 17.28125 95.824219 16.132812 C 95.824219 14.984375 95.613281 14.089844 95.1875 13.449219 C 94.761719 12.808594 94.105469 12.492188 93.21875 12.492188 C 92.328125 12.492188 91.671875 12.808594 91.253906 13.449219 C 90.835938 14.089844 90.625 14.984375 90.625 16.132812 C 90.625 17.28125 90.835938 18.179688 91.253906 18.824219 C 91.671875 19.46875 92.328125 19.792969 93.21875 19.792969 Z M 93.21875 19.792969 "/>
<path style=" stroke:none;fill-rule:nonzero;fill:rgb(11.764706%,12.156863%,11.372549%);fill-opacity:1;" d="M 100.171875 11.15625 C 100.316406 11.128906 100.476562 11.109375 100.65625 11.09375 C 100.835938 11.082031 100.992188 11.078125 101.121094 11.078125 C 101.261719 11.078125 101.421875 11.082031 101.601562 11.09375 C 101.785156 11.109375 101.945312 11.128906 102.085938 11.15625 L 102.085938 16.597656 C 102.085938 17.21875 102.144531 17.730469 102.257812 18.136719 C 102.375 18.546875 102.546875 18.863281 102.78125 19.097656 C 103.015625 19.328125 103.296875 19.488281 103.632812 19.578125 C 103.96875 19.667969 104.355469 19.714844 104.792969 19.714844 C 105.449219 19.714844 106.011719 19.640625 106.472656 19.5 L 106.472656 11.152344 C 106.617188 11.128906 106.773438 11.109375 106.945312 11.09375 C 107.121094 11.082031 107.277344 11.074219 107.421875 11.074219 C 107.5625 11.074219 107.722656 11.082031 107.894531 11.09375 C 108.070312 11.105469 108.226562 11.125 108.367188 11.152344 L 108.367188 20.777344 C 107.917969 20.910156 107.378906 21.03125 106.753906 21.148438 C 106.128906 21.261719 105.480469 21.320312 104.8125 21.320312 C 104.183594 21.320312 103.585938 21.265625 103.023438 21.15625 C 102.464844 21.046875 101.972656 20.824219 101.546875 20.488281 C 101.121094 20.152344 100.785156 19.683594 100.542969 19.074219 C 100.296875 18.46875 100.175781 17.667969 100.175781 16.671875 L 100.175781 11.15625 Z M 100.171875 11.15625 "/>
<path style=" stroke:none;fill-rule:nonzero;fill:rgb(11.764706%,12.156863%,11.372549%);fill-opacity:1;" d="M 111.324219 11.15625 C 111.464844 11.128906 111.597656 11.109375 111.730469 11.09375 C 111.855469 11.082031 111.992188 11.078125 112.136719 11.078125 C 112.277344 11.078125 112.417969 11.082031 112.5625 11.09375 C 112.703125 11.109375 112.832031 11.128906 112.949219 11.15625 C 112.984375 11.347656 113.023438 11.605469 113.0625 11.917969 C 113.101562 12.238281 113.121094 12.503906 113.121094 12.722656 C 113.390625 12.285156 113.75 11.90625 114.195312 11.582031 C 114.640625 11.257812 115.210938 11.09375 115.90625 11.09375 C 116.007812 11.09375 116.117188 11.101562 116.222656 11.105469 C 116.332031 11.113281 116.429688 11.121094 116.503906 11.136719 C 116.53125 11.25 116.550781 11.375 116.5625 11.503906 C 116.578125 11.632812 116.582031 11.769531 116.582031 11.910156 C 116.582031 12.066406 116.574219 12.226562 116.554688 12.394531 C 116.535156 12.5625 116.511719 12.722656 116.488281 12.878906 C 116.382812 12.855469 116.277344 12.84375 116.167969 12.84375 C 116.058594 12.84375 115.972656 12.84375 115.90625 12.84375 C 115.558594 12.84375 115.230469 12.890625 114.910156 12.988281 C 114.59375 13.082031 114.3125 13.257812 114.0625 13.5 C 113.808594 13.746094 113.609375 14.082031 113.460938 14.507812 C 113.3125 14.933594 113.238281 15.480469 113.238281 16.152344 L 113.238281 21.089844 C 113.097656 21.117188 112.9375 21.132812 112.765625 21.148438 C 112.589844 21.160156 112.433594 21.167969 112.292969 21.167969 C 112.148438 21.167969 111.992188 21.160156 111.816406 21.148438 C 111.644531 21.136719 111.480469 21.117188 111.324219 21.089844 Z M 111.324219 11.15625 "/>
<path style=" stroke:none;fill-rule:nonzero;fill:rgb(11.764706%,12.156863%,11.372549%);fill-opacity:1;" d="M 124.773438 19.367188 C 124.875 19.546875 124.964844 19.773438 125.042969 20.046875 C 125.121094 20.316406 125.164062 20.59375 125.175781 20.878906 C 124.414062 21.175781 123.546875 21.324219 122.570312 21.324219 C 120.917969 21.324219 119.675781 20.855469 118.839844 19.917969 C 118 18.984375 117.582031 17.722656 117.582031 16.132812 C 117.582031 15.398438 117.6875 14.710938 117.894531 14.078125 C 118.097656 13.445312 118.40625 12.898438 118.8125 12.433594 C 119.21875 11.96875 119.722656 11.601562 120.328125 11.332031 C 120.933594 11.058594 121.636719 10.921875 122.4375 10.921875 C 122.976562 10.921875 123.453125 10.953125 123.867188 11.019531 C 124.28125 11.085938 124.671875 11.1875 125.042969 11.328125 C 125.042969 11.550781 125.015625 11.804688 124.957031 12.09375 C 124.898438 12.382812 124.816406 12.640625 124.714844 12.859375 C 124.085938 12.640625 123.363281 12.527344 122.550781 12.527344 C 121.558594 12.527344 120.816406 12.859375 120.328125 13.515625 C 119.839844 14.175781 119.59375 15.046875 119.59375 16.128906 C 119.59375 17.371094 119.871094 18.277344 120.425781 18.851562 C 120.980469 19.429688 121.742188 19.714844 122.707031 19.714844 C 123.09375 19.714844 123.453125 19.6875 123.78125 19.636719 C 124.105469 19.585938 124.4375 19.496094 124.773438 19.367188 Z M 124.773438 19.367188 "/>
<path style=" stroke:none;fill-rule:nonzero;fill:rgb(11.764706%,12.156863%,11.372549%);fill-opacity:1;" d="M 127.828125 9.96875 C 127.800781 9.8125 127.785156 9.644531 127.777344 9.464844 C 127.773438 9.285156 127.769531 9.121094 127.769531 8.980469 C 127.769531 8.839844 127.769531 8.679688 127.777344 8.5 C 127.785156 8.316406 127.800781 8.15625 127.828125 8.015625 C 127.996094 7.988281 128.175781 7.972656 128.367188 7.957031 C 128.5625 7.945312 128.726562 7.9375 128.871094 7.9375 C 129.011719 7.9375 129.179688 7.945312 129.375 7.957031 C 129.566406 7.96875 129.742188 7.988281 129.894531 8.015625 C 129.921875 8.15625 129.9375 8.316406 129.945312 8.5 C 129.949219 8.679688 129.953125 8.839844 129.953125 8.980469 C 129.953125 9.125 129.949219 9.285156 129.945312 9.464844 C 129.9375 9.644531 129.921875 9.8125 129.894531 9.96875 C 129.742188 9.996094 129.570312 10.015625 129.382812 10.027344 C 129.199219 10.039062 129.03125 10.046875 128.890625 10.046875 C 128.738281 10.046875 128.5625 10.039062 128.371094 10.027344 C 128.171875 10.015625 127.992188 9.996094 127.828125 9.96875 Z M 127.828125 9.96875 "/>
<path style=" stroke:none;fill-rule:nonzero;fill:rgb(11.764706%,12.156863%,11.372549%);fill-opacity:1;" d="M 132.851562 11.15625 C 132.992188 11.128906 133.132812 11.109375 133.265625 11.09375 C 133.398438 11.082031 133.539062 11.078125 133.679688 11.078125 C 133.824219 11.078125 133.953125 11.082031 134.078125 11.09375 C 134.199219 11.109375 134.332031 11.128906 134.472656 11.15625 C 134.511719 11.347656 134.550781 11.609375 134.589844 11.9375 C 134.625 12.269531 134.648438 12.542969 134.648438 12.761719 C 134.773438 12.542969 134.941406 12.324219 135.140625 12.105469 C 135.339844 11.886719 135.566406 11.6875 135.824219 11.515625 C 136.082031 11.339844 136.378906 11.195312 136.714844 11.085938 C 137.050781 10.976562 137.417969 10.921875 137.816406 10.921875 C 138.949219 10.921875 139.785156 11.25 140.328125 11.902344 C 140.867188 12.550781 141.136719 13.519531 141.136719 14.796875 L 141.136719 21.09375 C 140.996094 21.117188 140.835938 21.136719 140.65625 21.152344 C 140.476562 21.164062 140.3125 21.171875 140.171875 21.171875 C 140.03125 21.171875 139.875 21.164062 139.699219 21.152344 C 139.527344 21.136719 139.367188 21.121094 139.226562 21.09375 L 139.226562 15.320312 C 139.226562 14.402344 139.082031 13.730469 138.800781 13.296875 C 138.515625 12.863281 138.066406 12.648438 137.449219 12.648438 C 137.085938 12.648438 136.746094 12.710938 136.421875 12.839844 C 136.101562 12.96875 135.816406 13.167969 135.570312 13.441406 C 135.324219 13.710938 135.128906 14.0625 134.980469 14.496094 C 134.832031 14.929688 134.761719 15.449219 134.761719 16.054688 L 134.761719 21.089844 C 134.617188 21.117188 134.460938 21.132812 134.285156 21.148438 C 134.113281 21.160156 133.953125 21.167969 133.8125 21.167969 C 133.667969 21.167969 133.511719 21.160156 133.332031 21.148438 C 133.148438 21.136719 132.988281 21.117188 132.847656 21.089844 L 132.847656 11.15625 Z M 132.851562 11.15625 "/>
<path style=" stroke:none;fill-rule:nonzero;fill:rgb(11.764706%,12.156863%,11.372549%);fill-opacity:1;" d="M 143.367188 15.984375 C 143.367188 14.40625 143.730469 13.148438 144.457031 12.214844 C 145.1875 11.28125 146.152344 10.816406 147.355469 10.816406 C 148.585938 10.816406 149.550781 11.253906 150.238281 12.128906 L 150.324219 11.003906 L 151.902344 11.003906 L 151.902344 20.890625 C 151.902344 22.203125 151.511719 23.234375 150.738281 23.988281 C 149.960938 24.742188 148.921875 25.121094 147.613281 25.121094 C 146.886719 25.121094 146.171875 24.964844 145.476562 24.652344 C 144.777344 24.339844 144.246094 23.914062 143.878906 23.371094 L 144.773438 22.332031 C 145.515625 23.25 146.421875 23.707031 147.492188 23.707031 C 148.332031 23.707031 148.988281 23.472656 149.457031 22.996094 C 149.929688 22.519531 150.164062 21.855469 150.164062 20.992188 L 150.164062 20.125 C 149.472656 20.921875 148.527344 21.320312 147.332031 21.320312 C 146.152344 21.320312 145.191406 20.84375 144.460938 19.886719 C 143.730469 18.933594 143.367188 17.632812 143.367188 15.984375 Z M 145.101562 16.179688 C 145.101562 17.320312 145.335938 18.21875 145.800781 18.871094 C 146.269531 19.523438 146.925781 19.847656 147.761719 19.847656 C 148.851562 19.847656 149.652344 19.351562 150.164062 18.359375 L 150.164062 13.738281 C 149.636719 12.769531 148.839844 12.285156 147.78125 12.285156 C 146.941406 12.285156 146.285156 12.613281 145.8125 13.269531 C 145.339844 13.925781 145.101562 14.894531 145.101562 16.179688 Z M 145.101562 16.179688 "/>
<path style=" stroke:none;fill-rule:nonzero;fill:rgb(11.764706%,12.156863%,11.372549%);fill-opacity:1;" d="M 60.046875 13.664062 C 59.847656 13.039062 59.570312 12.519531 59.214844 12.113281 C 58.859375 11.707031 58.433594 11.410156 57.941406 11.214844 C 57.445312 11.019531 56.90625 10.921875 56.324219 10.921875 C 55.941406 10.921875 55.589844 10.96875 55.273438 11.058594 C 54.957031 11.148438 54.675781 11.269531 54.421875 11.425781 C 54.171875 11.582031 53.953125 11.753906 53.773438 11.949219 C 53.59375 12.140625 53.4375 12.34375 53.3125 12.550781 C 53.3125 12.511719 53.300781 12.421875 53.28125 12.277344 C 53.261719 12.136719 53.242188 11.988281 53.222656 11.832031 C 53.203125 11.679688 53.183594 11.53125 53.164062 11.398438 C 53.144531 11.265625 53.128906 11.183594 53.117188 11.15625 C 52.984375 11.132812 52.851562 11.113281 52.710938 11.097656 C 52.566406 11.085938 52.433594 11.078125 52.300781 11.078125 C 52.160156 11.078125 52.023438 11.085938 51.886719 11.097656 C 51.753906 11.109375 51.621094 11.128906 51.492188 11.15625 L 51.492188 25.660156 L 53.40625 25.011719 L 53.40625 21.109375 C 53.625 21.175781 53.882812 21.226562 54.179688 21.265625 C 54.476562 21.300781 54.765625 21.324219 55.050781 21.324219 C 56.738281 21.324219 58.039062 20.84375 58.964844 19.878906 C 59.882812 18.917969 60.34375 17.585938 60.34375 15.878906 C 60.34375 15.027344 60.246094 14.289062 60.046875 13.664062 Z M 58.09375 17.632812 C 57.933594 18.105469 57.714844 18.496094 57.4375 18.804688 C 57.160156 19.117188 56.828125 19.347656 56.441406 19.492188 C 56.054688 19.640625 55.628906 19.714844 55.167969 19.714844 C 54.753906 19.714844 54.421875 19.695312 54.164062 19.65625 C 53.90625 19.617188 53.652344 19.554688 53.410156 19.464844 L 53.410156 15.433594 C 53.410156 14.945312 53.480469 14.519531 53.621094 14.164062 C 53.765625 13.8125 53.949219 13.515625 54.179688 13.285156 C 54.414062 13.050781 54.679688 12.878906 54.972656 12.761719 C 55.269531 12.648438 55.578125 12.585938 55.898438 12.585938 C 56.765625 12.585938 57.382812 12.890625 57.765625 13.496094 C 58.144531 14.105469 58.335938 14.925781 58.335938 15.957031 C 58.335938 16.605469 58.253906 17.164062 58.09375 17.632812 Z M 58.09375 17.632812 "/>
<path style=" stroke:none;fill-rule:nonzero;fill:rgb(11.764706%,12.156863%,11.372549%);fill-opacity:1;" d="M 127.921875 11.523438 L 127.921875 21.09375 C 128.066406 21.117188 128.222656 21.136719 128.398438 21.152344 C 128.570312 21.164062 128.722656 21.171875 128.851562 21.171875 C 128.996094 21.171875 129.152344 21.164062 129.324219 21.152344 C 129.5 21.136719 129.65625 21.121094 129.800781 21.09375 L 129.800781 10.886719 Z M 127.921875 11.523438 "/>
<path style=" stroke:none;fill-rule:nonzero;fill:url(#linear0);" d="M 24.007812 19.425781 L 24.011719 19.421875 L 21.46875 16.953125 L 21.464844 16.957031 L 21.34375 16.832031 L 13.089844 8.792969 L 6.867188 18.082031 L 1.070312 26.699219 C 0.449219 27.621094 1.363281 29.082031 2.355469 28.746094 L 23.746094 21.484375 C 24.539062 21.21875 24.589844 20.054688 24.007812 19.425781 Z M 24.007812 19.425781 "/>
<path style=" stroke:none;fill-rule:nonzero;fill:url(#linear1);" d="M 16.628906 12.25 L 11.511719 19.855469 L 23.34375 21.523438 C 24.378906 21.671875 24.800781 20.1875 23.957031 19.367188 Z M 16.628906 12.25 "/>
<path style=" stroke:none;fill-rule:nonzero;fill:url(#linear2);" d="M 0.59375 9.261719 L 11.507812 19.855469 L 23.457031 2.097656 C 24.078125 1.175781 23.167969 -0.28125 22.175781 0.046875 L 0.808594 7.136719 C 0.03125 7.394531 -0.0898438 8.597656 0.59375 9.261719 Z M 0.59375 9.261719 "/>
</g>
</svg>
