<svg width="174" height="174" viewBox="0 0 174 174" fill="none" xmlns="http://www.w3.org/2000/svg">
<g filter="url(#filter0_d_1837_1422)">
<rect x="86.7109" y="16" width="100" height="100" rx="10" transform="rotate(45 86.7109 16)" fill="white"/>
</g>
<g clip-path="url(#clip0_1837_1422)">
<path fill-rule="evenodd" clip-rule="evenodd" d="M58.8299 72C58.9899 72 59.0618 72.016 59.1538 72.076C59.2218 72.12 59.3058 72.224 59.4418 72.4919L59.4778 91.2255L59.5538 91.5174C59.5978 91.6734 59.6658 91.8814 59.7058 91.9734C59.7458 92.0694 59.8337 92.2373 59.9017 92.3493C59.9737 92.4613 60.0857 92.6053 60.1577 92.6733C60.2297 92.7413 60.3577 92.8333 60.4417 92.8813C60.5257 92.9332 60.6896 93.0012 60.8016 93.0412C60.9136 93.0772 61.1496 93.1252 61.3255 93.1452C61.5615 93.1732 61.7495 93.1732 62.0215 93.1492C62.2294 93.1292 62.5734 93.0732 62.7854 93.0252C63.0013 92.9772 63.3213 92.8893 63.5013 92.8373C63.7452 92.7573 63.8572 92.7413 63.9772 92.7573C64.0612 92.7693 64.1812 92.8093 64.2452 92.8533C64.3092 92.8933 64.3971 92.9812 64.4411 93.0452C64.4851 93.1132 64.5771 93.3932 64.6531 93.6931C64.7251 93.9811 64.7971 94.3171 64.8091 94.441C64.8291 94.633 64.8211 94.681 64.7491 94.809C64.7051 94.893 64.6051 95.005 64.5171 95.065C64.4331 95.129 64.1612 95.2409 63.8892 95.3329C63.6292 95.4209 63.2853 95.5209 63.1253 95.5609C62.9693 95.6009 62.6534 95.6649 62.4294 95.7009C62.1534 95.7489 61.8055 95.7769 61.3415 95.7929C60.9216 95.8009 60.5337 95.7929 60.3257 95.7689C60.1377 95.7489 59.8377 95.7009 59.6618 95.6609C59.4858 95.6249 59.1778 95.5409 58.9819 95.4729C58.7859 95.4089 58.5019 95.2929 58.3539 95.2169C58.206 95.141 57.99 95.017 57.878 94.933C57.766 94.853 57.574 94.685 57.4541 94.553C57.3341 94.425 57.1741 94.2291 57.0981 94.1171C57.0261 94.0051 56.9101 93.7891 56.8381 93.6412C56.7701 93.4932 56.6742 93.2372 56.6302 93.0812C56.5822 92.9212 56.5222 92.6453 56.4902 92.4693C56.4622 92.2893 56.4222 91.9294 56.4022 91.6694C56.3822 91.3615 56.3662 88.0779 56.3662 82.3946C56.3662 74.9156 56.3742 73.5838 56.4142 73.5038C56.4422 73.4518 56.5662 73.3118 56.6942 73.1878C56.8221 73.0639 57.0421 72.8799 57.1821 72.7759C57.3221 72.6719 57.558 72.5159 57.71 72.4279C57.858 72.344 58.126 72.212 58.3019 72.14C58.5499 72.036 58.6739 72.004 58.8299 72V72ZM71.1922 73.0759C71.2682 73.0879 71.3602 73.1119 71.3962 73.1319C71.4322 73.1478 71.5082 73.2038 71.5602 73.2518C71.6122 73.3038 71.6762 73.4198 71.7042 73.5118C71.7442 73.6558 71.7522 74.1237 71.7522 79.275L73.6799 79.283C75.3437 79.291 75.6237 79.299 75.7277 79.347C75.7916 79.375 75.8836 79.451 76.0156 79.635V80.4909C76.0156 81.3068 76.0116 81.3508 75.9436 81.4428C75.9036 81.4948 75.8316 81.5667 75.7796 81.6067C75.6917 81.6707 75.6277 81.6747 73.7199 81.6827C71.8722 81.6907 71.7522 81.6947 71.7522 81.7507C71.7522 81.7827 71.7282 83.8064 71.7042 86.2461C71.6682 89.3337 71.6642 90.7855 71.6882 91.0215C71.7082 91.2095 71.7442 91.4614 71.7722 91.5854C71.8002 91.7054 71.8562 91.8894 71.8962 91.9934C71.9362 92.0934 72.0161 92.2573 72.0761 92.3493C72.1361 92.4413 72.2641 92.5933 72.3601 92.6813C72.4561 92.7693 72.6281 92.8893 72.748 92.9452C72.864 93.0012 73.072 93.0692 73.212 93.1012C73.352 93.1292 73.6279 93.1532 73.8239 93.1532C74.0359 93.1532 74.3598 93.1252 74.6238 93.0772C74.8638 93.0372 75.2677 92.9452 75.5157 92.8733C75.7636 92.8013 76.0196 92.7413 76.0916 92.7413C76.1636 92.7413 76.2796 92.7693 76.3556 92.8013C76.4276 92.8373 76.5315 92.9172 76.5795 92.9812C76.6315 93.0452 76.6955 93.1652 76.7235 93.2492C76.7515 93.3332 76.8115 93.5572 76.8595 93.7411C76.9075 93.9291 76.9635 94.1851 76.9795 94.3131C77.0075 94.469 77.0075 94.585 76.9835 94.677C76.9635 94.753 76.9035 94.865 76.8515 94.925C76.7995 94.985 76.6635 95.085 76.5555 95.141C76.4436 95.2009 76.1716 95.3129 75.9476 95.3849C75.7237 95.4609 75.3637 95.5609 75.1477 95.6089C74.9358 95.6569 74.5518 95.7209 74.2998 95.7529C73.9519 95.7929 73.6679 95.8049 73.112 95.7889C72.6521 95.7809 72.2681 95.7529 72.0761 95.7169C71.9082 95.6849 71.6242 95.6209 71.4482 95.5729C71.2682 95.5249 70.9963 95.4329 70.8363 95.3689C70.6763 95.3049 70.4284 95.177 70.2804 95.093C70.1324 95.005 69.9044 94.833 69.7724 94.713C69.6405 94.589 69.4645 94.4011 69.3805 94.2851C69.2965 94.1731 69.1605 93.9611 69.0805 93.8091C69.0005 93.6611 68.8966 93.4252 68.8486 93.2852C68.8006 93.1452 68.7326 92.8933 68.6966 92.7213C68.6606 92.5533 68.6166 92.2933 68.5926 92.1453C68.5726 91.9974 68.5486 91.3974 68.5366 90.8175C68.5246 90.1976 68.5486 88.2579 68.5886 86.1101C68.6286 84.0984 68.6646 82.2986 68.6806 81.7587H67.6607C66.6688 81.7587 66.6368 81.7547 66.4889 81.6827C66.3969 81.6347 66.3089 81.5587 66.2689 81.4868C66.2049 81.3788 66.1969 81.2948 66.1889 80.6189C66.1809 80.1309 66.1929 79.819 66.2169 79.719C66.2409 79.635 66.2889 79.519 66.3289 79.467C66.3689 79.411 66.4649 79.339 66.5409 79.303C66.6608 79.251 66.7888 79.243 68.7126 79.243L68.7366 78.5351C68.7526 78.1472 68.7726 77.2353 68.7806 76.5034C68.7926 75.7755 68.8086 75.0196 68.8366 74.4637L69.1165 74.1877C69.2685 74.0397 69.5365 73.8198 69.7164 73.7038C69.8924 73.5838 70.1684 73.4278 70.3284 73.3518C70.4843 73.2758 70.7163 73.1798 70.8363 73.1359C70.9963 73.0759 71.0963 73.0599 71.1922 73.0759V73.0759ZM43.2239 78.3392C43.8199 78.3472 44.3678 78.3752 44.6517 78.4072C44.9037 78.4352 45.2917 78.4911 45.5156 78.5311C45.7396 78.5711 46.0236 78.6231 46.1435 78.6511C46.2675 78.6791 46.6115 78.7711 46.9074 78.8511C47.2074 78.9311 47.6114 79.0511 47.8073 79.1191C48.0033 79.1831 48.3033 79.295 48.4712 79.367C48.6392 79.435 48.8672 79.555 48.9792 79.631C49.0912 79.707 49.2311 79.839 49.2871 79.923C49.3471 80.0069 49.4111 80.1549 49.4311 80.2549C49.4631 80.3869 49.4711 81.8987 49.4711 86.2381C49.4711 90.2576 49.4831 92.1054 49.5111 92.2453C49.5311 92.3573 49.5831 92.5133 49.6231 92.5853C49.6711 92.6693 49.7551 92.7493 49.8351 92.7893C49.943 92.8493 50.027 92.8573 50.339 92.8533C50.607 92.8493 50.8669 92.8173 51.2549 92.7413C51.6268 92.6653 51.8468 92.6373 51.9428 92.6493C52.0228 92.6613 52.1468 92.7013 52.2147 92.7373C52.2867 92.7693 52.3867 92.8493 52.4387 92.9132C52.4947 92.9772 52.5587 93.0812 52.5867 93.1492C52.6107 93.2132 52.6867 93.4812 52.7547 93.7411C52.8187 94.0051 52.8827 94.3171 52.8947 94.441C52.9107 94.601 52.8987 94.701 52.8627 94.813C52.8267 94.913 52.7467 95.021 52.6427 95.113C52.5507 95.1969 52.3627 95.3169 52.2227 95.3809C52.0828 95.4489 51.8388 95.5449 51.6788 95.5969C51.5228 95.6489 51.2309 95.7209 51.0349 95.7609C50.8389 95.7969 50.519 95.8449 50.323 95.8649C50.075 95.8929 49.8271 95.8929 49.5231 95.8689C49.2831 95.8489 48.9592 95.8049 48.8112 95.7689C48.6632 95.7329 48.4312 95.6649 48.3033 95.6129C48.1713 95.5649 48.0113 95.4929 47.9433 95.4529C47.8793 95.4129 47.7353 95.3089 47.6274 95.2249C47.5154 95.137 47.3434 94.961 47.2394 94.833C47.1394 94.701 47.0074 94.489 46.9474 94.3651C46.8875 94.2411 46.8275 94.1411 46.8075 94.1491C46.7875 94.1531 46.6435 94.2571 46.4835 94.3771C46.3275 94.497 46.0596 94.681 45.8916 94.785C45.7236 94.889 45.4316 95.053 45.2437 95.145C45.0597 95.2369 44.7517 95.3729 44.5638 95.4409C44.3798 95.5129 44.0558 95.6129 43.8518 95.6649C43.6479 95.7169 43.2959 95.7849 43.072 95.8169C42.804 95.8569 42.448 95.8769 42.0361 95.8769C41.6881 95.8769 41.2682 95.8569 41.1002 95.8369C40.9322 95.8129 40.6523 95.7649 40.4723 95.7289C40.2963 95.6929 40.0124 95.6169 39.8444 95.5569C39.6764 95.5009 39.3844 95.3769 39.2005 95.2809C39.0125 95.1849 38.7445 95.017 38.6045 94.913C38.4646 94.809 38.2446 94.605 38.1126 94.465C37.9806 94.3211 37.7926 94.0731 37.6887 93.9051C37.5847 93.7411 37.4447 93.4692 37.3767 93.3012C37.3087 93.1332 37.2207 92.8733 37.1807 92.7213C37.1407 92.5733 37.0847 92.2813 37.0567 92.0774C37.0127 91.7814 37.0048 91.5334 37.0167 90.8855C37.0327 90.2296 37.0487 90.0056 37.1087 89.7297C37.1487 89.5457 37.2287 89.2577 37.2807 89.0938C37.3367 88.9298 37.4367 88.6858 37.5047 88.5498C37.5727 88.4138 37.7007 88.1979 37.7846 88.0659C37.8726 87.9339 38.0806 87.6899 38.2486 87.522C38.4166 87.35 38.6845 87.126 38.8445 87.022C39.0005 86.914 39.2924 86.7541 39.4884 86.6581C39.6844 86.5661 39.9884 86.4421 40.1683 86.3821C40.3443 86.3221 40.6443 86.2381 40.8282 86.1941C41.0162 86.1541 41.3202 86.0901 41.5082 86.0621C41.6961 86.0342 41.9841 85.9942 42.1561 85.9742C42.3241 85.9542 42.904 85.9262 43.4439 85.9062C43.9878 85.8902 44.8917 85.8622 46.4835 85.8222V81.4188L46.2195 81.2828C46.0756 81.2108 45.7956 81.0948 45.5996 81.0308C45.4036 80.9668 45.0557 80.8748 44.8197 80.8268C44.5878 80.7788 44.2358 80.7229 44.0398 80.7029C43.8439 80.6789 43.3159 80.6589 42.868 80.6589C42.2921 80.6589 41.9321 80.6749 41.6441 80.7149C41.4202 80.7468 40.9322 80.8268 40.5563 80.8908C40.1843 80.9548 39.7764 81.0108 39.6484 81.0108C39.5244 81.0108 39.3724 80.9908 39.3084 80.9668C39.2485 80.9388 39.1485 80.8588 39.0885 80.7868C39.0085 80.6909 38.9325 80.5189 38.8285 80.1949C38.7445 79.943 38.6685 79.667 38.6525 79.583C38.6405 79.475 38.6485 79.383 38.6845 79.283C38.7205 79.1991 38.8005 79.0911 38.8845 79.0191C38.9645 78.9551 39.1125 78.8671 39.2165 78.8311C39.3204 78.7911 39.6644 78.7111 39.9804 78.6471C40.2963 78.5831 40.7803 78.4991 41.0522 78.4591C41.3202 78.4232 41.7041 78.3752 41.9001 78.3592C42.0961 78.3432 42.692 78.3352 43.2239 78.3392V78.3392ZM42.444 88.1299C42.2081 88.1619 41.8721 88.2259 41.6961 88.2739C41.5202 88.3179 41.2642 88.4098 41.1362 88.4738C41.0042 88.5378 40.8162 88.6658 40.7123 88.7538C40.6123 88.8418 40.4683 89.0058 40.3963 89.1177C40.3243 89.2297 40.2283 89.4377 40.1843 89.5777C40.1363 89.7177 40.0763 89.9936 40.0444 90.1896C40.0044 90.4496 39.9964 90.6935 40.0084 91.0735C40.0164 91.3934 40.0444 91.7014 40.0803 91.8574C40.1123 91.9974 40.2003 92.2373 40.2723 92.3933C40.3643 92.5853 40.4643 92.7293 40.5923 92.8573C40.7181 92.9832 40.8641 93.0873 41.0242 93.1652C41.1602 93.2292 41.3922 93.3132 41.5442 93.3532C41.6921 93.3892 41.9961 93.4372 42.2201 93.4532C42.5 93.4772 42.756 93.4772 43.028 93.4532C43.2479 93.4372 43.5839 93.3892 43.7759 93.3532C43.9678 93.3172 44.2918 93.2372 44.4958 93.1772C44.7037 93.1212 45.0317 93.0052 45.2277 92.9292C45.4236 92.8493 45.6836 92.7333 45.8036 92.6733C45.9276 92.6093 46.1595 92.4773 46.3235 92.3773L46.6195 92.1973V87.9139C46.2115 87.9179 45.3677 87.9579 44.4798 87.9979C43.5919 88.0419 42.676 88.1019 42.444 88.1299ZM86.6382 78.5671C87.0262 78.5631 87.4901 78.5791 87.6741 78.5991C87.8541 78.6191 88.186 78.6751 88.41 78.7191C88.634 78.7671 88.9659 78.8591 89.1419 78.9191C89.3179 78.9831 89.5778 79.0831 89.7178 79.1471C89.8578 79.2111 90.0818 79.331 90.2098 79.411C90.3417 79.491 90.5697 79.651 90.7217 79.771C90.8697 79.887 91.0936 80.0869 91.2136 80.2149C91.3376 80.3429 91.5056 80.5389 91.5936 80.6549C91.6776 80.7668 91.8135 80.9628 91.8935 81.0948C91.9735 81.2268 92.1135 81.4868 92.2015 81.6747C92.2895 81.8587 92.4095 82.1587 92.4655 82.3346C92.5254 82.5146 92.6054 82.7746 92.6414 82.9146C92.6774 83.0545 92.7334 83.3465 92.7734 83.5585C92.8094 83.7745 92.8574 84.1344 92.8814 84.3584C92.9094 84.6303 92.9174 85.1983 92.9054 86.0741C92.8894 87.21 92.8814 87.402 92.8294 87.522C92.7974 87.5939 92.7374 87.6939 92.6974 87.7379C92.6574 87.7819 92.5814 87.8379 92.5294 87.8659C92.4495 87.9059 91.6936 87.9139 82.8747 87.9099L82.8987 88.6858C82.9107 89.1097 82.9467 89.6177 82.9747 89.8177C83.0067 90.0136 83.0667 90.3176 83.1107 90.4976C83.1547 90.6735 83.2427 90.9575 83.3027 91.1255C83.3666 91.2935 83.4946 91.5614 83.5906 91.7174C83.6826 91.8734 83.8506 92.1014 83.9666 92.2253C84.0786 92.3493 84.2545 92.5133 84.3545 92.5933C84.4585 92.6693 84.6545 92.7973 84.7945 92.8733C84.9344 92.9452 85.2104 93.0612 85.4064 93.1292C85.6024 93.1932 85.9463 93.2812 86.1703 93.3212C86.5262 93.3892 86.6982 93.3972 87.4941 93.3972C88.27 93.4012 88.482 93.3892 88.8699 93.3292C89.1219 93.2892 89.5978 93.1932 89.9218 93.1172C90.2497 93.0412 90.7537 92.9332 91.0456 92.8733C91.5096 92.7813 91.5896 92.7733 91.7216 92.8093C91.8295 92.8373 91.9255 92.8973 92.0335 93.0052C92.1455 93.1212 92.2055 93.2172 92.2415 93.3532C92.2735 93.4532 92.3455 93.7291 92.4055 93.9651C92.4654 94.1971 92.5214 94.481 92.5294 94.593C92.5414 94.737 92.5334 94.829 92.4974 94.901C92.4695 94.957 92.3935 95.053 92.3295 95.117C92.2655 95.1809 92.1095 95.2849 91.9775 95.3449C91.8455 95.4049 91.5736 95.5169 91.3656 95.5929C91.1616 95.6729 90.8257 95.7809 90.6177 95.8329C90.4137 95.8889 90.0698 95.9648 89.8538 96.0048C89.6418 96.0408 89.2739 96.0968 89.0419 96.1248C88.8059 96.1528 88.362 96.1888 88.054 96.2048C87.7461 96.2208 87.2261 96.2208 86.9022 96.2048C86.5742 96.1928 86.1223 96.1528 85.8983 96.1248C85.6743 96.0928 85.3144 96.0288 85.0984 95.9808C84.8864 95.9329 84.5505 95.8409 84.3545 95.7769C84.1585 95.7089 83.8586 95.5969 83.6906 95.5209C83.5226 95.4489 83.2467 95.3089 83.0787 95.2129C82.9107 95.117 82.6507 94.945 82.5028 94.833C82.3508 94.725 82.0868 94.493 81.9108 94.3251C81.7389 94.1531 81.4989 93.8931 81.3829 93.7411C81.2629 93.5932 81.0869 93.3412 80.987 93.1812C80.891 93.0212 80.719 92.7013 80.607 92.4693C80.495 92.2333 80.331 91.8214 80.2431 91.5494C80.1551 91.2775 80.0431 90.8815 79.9951 90.6655C79.9471 90.4496 79.8751 90.0616 79.8391 89.7977C79.8031 89.5377 79.7511 89.0938 79.7311 88.8138C79.7071 88.4858 79.6991 87.9219 79.7111 87.25C79.7191 86.6141 79.7511 86.0102 79.7831 85.7342C79.8111 85.4822 79.8751 85.0623 79.9231 84.8023C79.9711 84.5383 80.0591 84.1264 80.1231 83.8824C80.1871 83.6385 80.2951 83.2785 80.363 83.0825C80.431 82.8866 80.583 82.5266 80.699 82.2866C80.815 82.0427 80.987 81.7147 81.0829 81.5547C81.1789 81.3948 81.3429 81.1508 81.4469 81.0108C81.5549 80.8708 81.7349 80.6469 81.8508 80.5189C81.9708 80.3869 82.2108 80.1589 82.3868 80.0109C82.5628 79.859 82.8267 79.659 82.9787 79.563C83.1267 79.463 83.4266 79.299 83.6386 79.1951C83.8546 79.0911 84.1905 78.9551 84.3865 78.8911C84.5825 78.8271 84.9024 78.7431 85.0984 78.7031C85.2944 78.6631 85.5624 78.6151 85.6943 78.5991C85.8263 78.5831 86.2503 78.5671 86.6382 78.5671V78.5671ZM85.3904 81.0428C85.2584 81.0828 85.0504 81.1708 84.9304 81.2308C84.8105 81.2908 84.6025 81.4268 84.4705 81.5267C84.3425 81.6307 84.1625 81.7987 84.0786 81.8987C83.9946 81.9987 83.8706 82.1587 83.8106 82.2507C83.7466 82.3426 83.6306 82.5506 83.5506 82.7106C83.4746 82.8706 83.3546 83.1665 83.2907 83.3745C83.2227 83.5785 83.1387 83.9064 83.1027 84.1024C83.0627 84.2984 83.0147 84.5823 82.9947 84.7343C82.9747 84.8823 82.9467 85.1983 82.9347 85.4382L82.9107 85.8742L89.9578 85.8702C89.9898 85.7262 89.9938 85.2943 89.9818 84.8183C89.9698 84.2264 89.9458 83.8504 89.9058 83.6265C89.8778 83.4505 89.7938 83.1385 89.7258 82.9306C89.6578 82.7266 89.5298 82.4346 89.4458 82.2866C89.3459 82.1027 89.2019 81.9187 89.0059 81.7227C88.8179 81.5347 88.63 81.3868 88.462 81.2908C88.322 81.2148 88.094 81.1108 87.954 81.0628C87.8141 81.0188 87.5621 80.9548 87.3941 80.9268C87.2021 80.8948 86.9022 80.8748 86.5942 80.8748C86.3223 80.8788 85.9943 80.8988 85.8663 80.9228C85.7343 80.9468 85.5184 80.9988 85.3904 81.0428ZM103.88 79.1911C104.192 79.1951 104.532 79.2191 104.648 79.243C104.76 79.263 104.892 79.303 104.944 79.331C104.996 79.355 105.068 79.439 105.104 79.515C105.14 79.587 105.172 79.703 105.172 79.771C105.172 79.835 105.112 80.2669 105.04 80.7309C104.952 81.2988 104.892 81.6067 104.848 81.6827C104.808 81.7507 104.724 81.8227 104.628 81.8667C104.476 81.9347 104.476 81.9347 104.036 81.8747C103.724 81.8347 103.488 81.8227 103.236 81.8347C103.032 81.8467 102.772 81.8867 102.624 81.9267C102.484 81.9667 102.256 82.0547 102.116 82.1187C101.976 82.1827 101.784 82.2866 101.692 82.3426C101.596 82.4026 101.4 82.5466 101.248 82.6626C101.1 82.7786 100.892 82.9626 100.788 83.0705C100.68 83.1825 100.524 83.3585 100.28 83.6625V89.3737C100.28 93.5892 100.272 95.133 100.24 95.2649C100.216 95.3889 100.164 95.4849 100.076 95.5809C99.9965 95.6649 99.8965 95.7329 99.8045 95.7609C99.6925 95.7929 99.4005 95.8009 97.6448 95.7849L97.5128 95.6969C97.4368 95.6489 97.3488 95.5489 97.3088 95.4729C97.2408 95.3409 97.2408 95.2649 97.2328 87.7259C97.2288 83.5345 97.2288 80.0589 97.2408 79.9989C97.2528 79.935 97.3128 79.827 97.3848 79.751C97.4568 79.675 97.5688 79.595 97.6328 79.571C97.7128 79.543 98.0487 79.531 98.6846 79.531C99.4925 79.531 99.6405 79.539 99.7805 79.591C99.8805 79.627 99.9725 79.691 100.024 79.759C100.068 79.823 100.12 79.931 100.14 80.0069C100.164 80.0829 100.18 80.2829 100.18 80.4589C100.18 80.6309 100.188 80.7948 100.196 80.8228C100.208 80.8588 100.324 80.7668 100.596 80.5109C100.804 80.3149 101.116 80.0589 101.284 79.947C101.452 79.835 101.696 79.691 101.828 79.623C101.956 79.559 102.216 79.455 102.404 79.391C102.592 79.331 102.872 79.255 103.032 79.227C103.236 79.1911 103.484 79.1791 103.88 79.1911V79.1911ZM125.449 79.455C126.433 79.463 126.493 79.467 126.637 79.535C126.721 79.579 126.837 79.663 126.893 79.727C126.949 79.795 127.729 80.9668 128.625 82.3306C129.521 83.6985 130.264 84.8143 130.276 84.8103C130.288 84.8063 131.024 83.6985 131.912 82.3546C132.796 81.0068 133.568 79.843 133.62 79.771C133.676 79.699 133.796 79.599 134.056 79.463L135.092 79.451C135.944 79.443 136.156 79.451 136.264 79.491C136.34 79.519 136.444 79.591 136.496 79.647C136.572 79.731 136.588 79.783 136.588 79.923C136.588 80.0149 136.568 80.1349 136.54 80.1869C136.516 80.2389 135.472 81.8547 134.228 83.7824C132.98 85.7062 131.956 87.298 131.944 87.318C131.936 87.334 133.056 89.0658 134.432 91.1575C135.812 93.2532 136.948 95.001 136.968 95.045C136.984 95.085 136.996 95.2089 136.996 95.3169C136.996 95.4489 136.976 95.5369 136.936 95.5929C136.904 95.6409 136.828 95.6969 136.768 95.7209C136.684 95.7569 136.384 95.7649 135.56 95.7649C134.856 95.7649 134.416 95.7529 134.328 95.7289C134.256 95.7049 134.136 95.6529 134.068 95.6089C133.972 95.5489 133.824 95.3529 133.512 94.873C133.276 94.513 132.46 93.2532 131.696 92.0774C130.936 90.8975 130.296 89.9296 130.28 89.9256C130.268 89.9216 129.461 91.1455 128.493 92.6453C127.473 94.2251 126.673 95.4329 126.589 95.5129C126.513 95.5889 126.377 95.6729 126.281 95.7089C126.133 95.7609 125.969 95.7649 125.017 95.7649C124.185 95.7649 123.893 95.7569 123.809 95.7209C123.749 95.6969 123.665 95.6329 123.621 95.5769C123.565 95.5049 123.545 95.4329 123.545 95.3169C123.545 95.2249 123.565 95.105 123.589 95.045C123.617 94.981 124.757 93.2292 126.129 91.1415C127.501 89.0578 128.621 87.346 128.617 87.334C128.617 87.326 127.601 85.7582 126.365 83.8504C125.125 81.9427 124.077 80.3109 124.033 80.2269C123.989 80.1429 123.953 80.0189 123.953 79.947C123.953 79.879 123.973 79.779 124.001 79.727C124.025 79.675 124.077 79.611 124.109 79.583C124.145 79.555 124.225 79.511 124.293 79.487C124.381 79.459 124.693 79.447 125.449 79.455V79.455ZM107.987 79.515H109.255C110.503 79.515 110.523 79.515 110.655 79.591C110.731 79.631 110.823 79.715 110.859 79.771C110.899 79.831 111.823 82.4586 112.915 85.6102C114.219 89.3697 114.91 91.3215 114.926 91.2855C114.942 91.2535 115.862 88.7018 116.978 85.6182C118.09 82.5306 119.03 79.947 119.058 79.871C119.09 79.795 119.178 79.691 119.382 79.531L120.522 79.523C121.39 79.515 121.686 79.523 121.762 79.555C121.818 79.579 121.878 79.643 121.902 79.703C121.93 79.771 121.934 79.851 121.914 79.955C121.902 80.0389 120.418 84.0544 118.622 88.8818C116.826 93.7051 115.278 97.8366 115.182 98.0606C115.09 98.2845 114.938 98.6165 114.847 98.8005C114.755 98.9845 114.591 99.2884 114.475 99.4804C114.363 99.6724 114.175 99.9603 114.059 100.116C113.943 100.276 113.699 100.564 113.511 100.76C113.323 100.952 113.039 101.212 112.883 101.332C112.723 101.452 112.395 101.648 112.151 101.768C111.907 101.888 111.587 102.024 111.439 102.072C111.291 102.12 110.983 102.196 110.759 102.244C110.535 102.288 110.151 102.344 109.911 102.364C109.639 102.388 109.179 102.4 108.723 102.388C108.247 102.376 107.863 102.348 107.667 102.312C107.455 102.272 107.339 102.232 107.284 102.18C107.24 102.14 107.184 102.024 107.152 101.92C107.112 101.776 107.104 101.656 107.124 101.392C107.136 101.204 107.168 100.908 107.192 100.728C107.22 100.552 107.264 100.336 107.296 100.252C107.323 100.168 107.391 100.06 107.439 100.008C107.491 99.9563 107.579 99.9043 107.635 99.8923C107.691 99.8843 107.987 99.9003 108.295 99.9323C108.671 99.9723 108.999 99.9843 109.283 99.9723C109.515 99.9603 109.867 99.9203 110.063 99.8803C110.259 99.8403 110.543 99.7563 110.691 99.6924C110.839 99.6244 111.047 99.5244 111.147 99.4644C111.251 99.4044 111.455 99.2324 111.607 99.0804C111.759 98.9325 111.963 98.6885 112.063 98.5365C112.159 98.3885 112.307 98.1286 112.387 97.9606C112.467 97.7926 112.751 97.1167 113.019 96.4648C113.283 95.8089 113.503 95.2489 113.503 95.2209C113.507 95.1929 112.219 91.7654 110.647 87.6059C108.251 81.2708 107.787 80.0149 107.791 79.875C107.791 79.743 107.811 79.695 107.887 79.615L107.987 79.515Z" fill="#0093D0"/>
</g>
<defs>
<filter id="filter0_d_1837_1422" x="0.142578" y="0.14209" width="173.137" height="173.137" filterUnits="userSpaceOnUse" color-interpolation-filters="sRGB">
<feFlood flood-opacity="0" result="BackgroundImageFix"/>
<feColorMatrix in="SourceAlpha" type="matrix" values="0 0 0 0 0 0 0 0 0 0 0 0 0 0 0 0 0 0 127 0" result="hardAlpha"/>
<feOffset/>
<feGaussianBlur stdDeviation="10"/>
<feComposite in2="hardAlpha" operator="out"/>
<feColorMatrix type="matrix" values="0 0 0 0 0 0 0 0 0 0 0 0 0 0 0 0 0 0 0.1 0"/>
<feBlend mode="normal" in2="BackgroundImageFix" result="effect1_dropShadow_1837_1422"/>
<feBlend mode="normal" in="SourceGraphic" in2="effect1_dropShadow_1837_1422" result="shape"/>
</filter>
<clipPath id="clip0_1837_1422">
<rect width="100" height="30.4" fill="white" transform="translate(37 72)"/>
</clipPath>
</defs>
</svg>
