<svg width="174" height="174" viewBox="0 0 174 174" fill="none" xmlns="http://www.w3.org/2000/svg">
<g filter="url(#filter0_d_1100_776)">
<rect x="87" y="16" width="100" height="100" rx="10" transform="rotate(45 87 16)" fill="white"/>
</g>
<g clip-path="url(#clip0_1100_776)">
<path d="M83.9905 86.1214H72.9889C69.1297 86.1214 65.9905 82.9966 65.9761 79.1374V67.0702C65.9905 63.2254 69.1297 60.1006 72.9889 60.1006H83.9905L82.9825 64.1038L73.5361 66.163C72.6721 66.3502 72.0241 67.1134 71.9953 68.0206C71.9809 68.0494 71.9809 78.1726 71.9953 78.2014C72.0241 79.1086 72.6721 79.8574 73.5361 80.059L82.9825 82.1182L83.9905 86.1214Z" fill="#373C41"/>
<path d="M91.0175 82.1182L100.464 80.059C101.328 79.8574 101.976 79.1086 102.005 78.2014C102.019 78.1726 102.019 68.0494 102.005 68.0206C101.976 67.1134 101.328 66.3502 100.464 66.163L91.0175 64.1038L90.0095 60.1006H101.011C104.87 60.1006 108.01 63.2254 108.024 67.0702V79.1374C108.01 82.9966 104.87 86.1214 101.011 86.1214H90.0095L91.0175 82.1182Z" fill="#373C41"/>
<path d="M82.9824 72.6001H91.0176V73.6081H82.9824V72.6001Z" fill="#373C41"/>
<path fill-rule="evenodd" clip-rule="evenodd" d="M113.611 104.337H112.416C110.918 104.337 109.694 103.128 109.694 101.616V98.1022C109.694 96.6046 110.918 95.395 112.416 95.395H113.611C115.109 95.395 116.333 96.6046 116.333 98.1022V101.616C116.333 103.128 115.109 104.337 113.611 104.337V104.337ZM112.416 96.9502C111.768 96.9502 111.25 97.4686 111.25 98.1022V101.616C111.25 102.264 111.768 102.782 112.416 102.782H113.611C114.245 102.782 114.763 102.264 114.763 101.616V98.1022C114.763 97.4686 114.245 96.9502 113.611 96.9502H112.416Z" fill="#373C41"/>
<path d="M53.7793 92.4287H55.3345V104.136H53.7793V92.4287Z" fill="#373C41"/>
<path d="M57.1631 95.5967H58.7183V104.136H57.1631V95.5967Z" fill="#373C41"/>
<path d="M57.9408 94.5311C58.5214 94.5311 58.992 94.0605 58.992 93.4799C58.992 92.8993 58.5214 92.4287 57.9408 92.4287C57.3603 92.4287 56.8896 92.8993 56.8896 93.4799C56.8896 94.0605 57.3603 94.5311 57.9408 94.5311Z" fill="#373C41"/>
<path fill-rule="evenodd" clip-rule="evenodd" d="M48.4656 92.4287C49.1856 93.6959 50.8992 97.1807 52.656 104.136H51.0432C50.7648 103.08 50.4912 102.106 50.2224 101.213H44.5344C44.2656 102.106 43.9968 103.08 43.728 104.136H42.1008C43.8576 97.1807 45.5712 93.6959 46.2912 92.4287H48.4656ZM49.7328 99.6431C48.8544 96.9071 48.0624 95.0927 47.5296 94.0271H47.2272C46.6944 95.1071 45.9024 96.9071 45.024 99.6431H49.7328Z" fill="#373C41"/>
<path d="M106.699 92.4146H108.254V104.136H106.699V92.4146Z" fill="#373C41"/>
<path d="M60.5471 92.4287H62.1023V104.136H60.5471V92.4287Z" fill="#373C41"/>
<path d="M64.1185 104.338C63.3697 104.338 62.2465 104.222 61.2241 103.963L61.5841 102.451C64.0177 103.042 65.1265 102.725 65.4433 102.48C65.7601 102.235 65.7745 101.818 65.7745 101.342V98.6929H67.3441V101.342C67.3441 101.861 67.3441 102.97 66.4081 103.704C65.8609 104.122 65.1121 104.338 64.1185 104.338V104.338Z" fill="#373C41"/>
<path d="M67.3439 100.91H65.7743V98.2609C65.7743 97.8001 65.7599 97.4401 65.4863 97.2385C65.2415 97.0369 64.4063 96.6625 61.8287 97.2817L61.4543 95.7697C63.8735 95.1937 65.5151 95.2657 66.4511 96.0145C67.3439 96.7057 67.3439 97.7569 67.3439 98.2609V100.91Z" fill="#373C41"/>
<path d="M105.216 103.791C104.237 104.136 102.97 104.338 101.717 104.338C100.925 104.338 100.147 104.266 99.4417 104.093C97.6561 103.647 97.1809 102.149 97.1809 101.415V99.2402V98.333V97.4257V95.3522C97.1809 94.6178 97.6561 93.1201 99.4417 92.6737C100.147 92.5009 100.925 92.4146 101.717 92.4146C102.984 92.4146 104.28 92.6306 105.259 92.9906L104.871 94.5169C103.791 94.0705 101.645 93.7393 99.8161 94.1857C98.8225 94.4305 98.7505 95.2082 98.7505 95.3522V97.4257V99.2402V101.415C98.7505 101.559 98.8225 102.322 99.8161 102.581C101.616 103.013 103.733 102.696 104.827 102.264L105.216 103.791Z" fill="#373C41"/>
<path d="M122.568 95.5967H124.138V104.136H122.568V95.5967Z" fill="#373C41"/>
<path d="M120.84 104.338C119.847 104.338 119.098 104.122 118.551 103.704C117.615 102.97 117.629 101.861 117.629 101.343V95.5825H119.184V101.343C119.184 101.818 119.199 102.235 119.515 102.48C119.832 102.725 120.711 103.042 123.13 102.451L123.504 103.963C122.477 104.213 121.589 104.338 120.84 104.338V104.338Z" fill="#373C41"/>
<path d="M130.344 92.4287H131.899V104.136H130.344V92.4287Z" fill="#373C41"/>
<path d="M128.645 104.338C127.651 104.338 126.902 104.122 126.355 103.704C125.419 102.97 125.419 101.861 125.419 101.342V98.6929H126.989V101.342C126.989 101.818 127.003 102.235 127.32 102.48C127.622 102.725 128.515 103.042 130.934 102.451L131.309 103.963C130.282 104.213 129.394 104.338 128.645 104.338V104.338Z" fill="#373C41"/>
<path d="M126.989 100.91H125.419V98.2609C125.419 97.7569 125.419 96.7057 126.312 96.0145C127.248 95.2657 128.89 95.1937 131.309 95.7697L130.934 97.2817C128.357 96.6625 127.522 97.0369 127.277 97.2385C127.003 97.4545 126.989 97.8145 126.989 98.2609V100.91Z" fill="#373C41"/>
<path d="M75.2208 97.9729V104.136H73.6512V97.9729C73.6512 97.4977 73.4928 97.3249 73.3488 97.2097C72.5424 96.6481 70.4256 97.0945 69.5184 97.4113L69.1296 95.8849C69.8352 95.6689 72.7152 94.8481 74.256 95.9425C74.688 96.2593 75.2208 96.8641 75.2208 97.9729Z" fill="#373C41"/>
<path d="M71.4192 104.337C69.8352 104.337 68.7696 103.603 68.496 102.307C68.3376 101.529 68.4528 100.838 68.8416 100.277C69.2592 99.643 69.9936 99.2398 70.9872 99.067C72.9744 98.7502 74.5152 99.2686 74.5728 99.2974L74.0544 100.766C74.0544 100.766 72.816 100.349 71.2464 100.608C70.8576 100.68 70.3536 100.824 70.1232 101.155C69.9504 101.4 69.9792 101.745 70.0224 101.976C70.0656 102.206 70.1952 102.782 71.4192 102.782C72.2688 102.782 73.5936 102.624 74.0256 102.48L74.5296 103.949C73.8816 104.165 72.3696 104.337 71.4192 104.337V104.337Z" fill="#373C41"/>
<path d="M91.7089 97.9729V104.136H90.1393V97.9729C90.1393 97.4977 89.9809 97.3249 89.8369 97.2097C89.0305 96.6481 86.9137 97.0945 86.0065 97.4113L85.6177 95.8849C86.3233 95.6689 89.2033 94.8481 90.7441 95.9425C91.1761 96.2593 91.7089 96.8641 91.7089 97.9729Z" fill="#373C41"/>
<path d="M87.9073 104.337C86.3233 104.337 85.2577 103.603 84.9841 102.307C84.8257 101.529 84.9409 100.838 85.3297 100.277C85.7617 99.643 86.4817 99.2398 87.4897 99.067C89.4769 98.7502 91.0033 99.2686 91.0609 99.2974L90.5569 100.766C90.5425 100.766 89.3185 100.349 87.7345 100.608C87.3457 100.68 86.8417 100.824 86.6113 101.155C86.4385 101.4 86.4673 101.745 86.5105 101.976C86.5537 102.206 86.6833 102.782 87.9073 102.782C88.7569 102.782 90.0817 102.624 90.5137 102.48L91.0177 103.949C90.3697 104.165 88.8577 104.337 87.9073 104.337V104.337Z" fill="#373C41"/>
<path d="M77.0352 92.4287H78.6048V104.136H77.0352V92.4287Z" fill="#373C41"/>
<path d="M80.6063 104.338C79.8575 104.338 78.7343 104.222 77.7119 103.963L78.0719 102.451C80.5055 103.042 81.6287 102.725 81.9311 102.48C82.2479 102.235 82.2767 101.818 82.2767 101.342V98.6929H83.8319V101.342C83.8319 101.861 83.8319 102.97 82.8959 103.704C82.3631 104.122 81.5999 104.338 80.6063 104.338V104.338Z" fill="#373C41"/>
<path d="M83.832 100.91H82.2768V98.2609C82.2768 97.8001 82.248 97.4401 81.9744 97.2385C81.7296 97.0369 80.8944 96.6625 78.3168 97.2817L77.9424 95.7697C80.376 95.1937 82.0032 95.2657 82.9392 96.0145C83.832 96.7057 83.832 97.7569 83.832 98.2609V100.91Z" fill="#373C41"/>
</g>
<defs>
<filter id="filter0_d_1100_776" x="0.431396" y="0.14209" width="173.137" height="173.137" filterUnits="userSpaceOnUse" color-interpolation-filters="sRGB">
<feFlood flood-opacity="0" result="BackgroundImageFix"/>
<feColorMatrix in="SourceAlpha" type="matrix" values="0 0 0 0 0 0 0 0 0 0 0 0 0 0 0 0 0 0 127 0" result="hardAlpha"/>
<feOffset/>
<feGaussianBlur stdDeviation="10"/>
<feComposite in2="hardAlpha" operator="out"/>
<feColorMatrix type="matrix" values="0 0 0 0 0 0 0 0 0 0 0 0 0 0 0 0 0 0 0.1 0"/>
<feBlend mode="normal" in2="BackgroundImageFix" result="effect1_dropShadow_1100_776"/>
<feBlend mode="normal" in="SourceGraphic" in2="effect1_dropShadow_1100_776" result="shape"/>
</filter>
<clipPath id="clip0_1100_776">
<rect width="90" height="44.352" fill="white" transform="translate(42 60)"/>
</clipPath>
</defs>
</svg>
