<svg width="174" height="174" viewBox="0 0 174 174" fill="none" xmlns="http://www.w3.org/2000/svg">
<g filter="url(#filter0_d_812_2)">
<rect x="87" y="16" width="100" height="100" rx="10" transform="rotate(45 87 16)" fill="white"/>
</g>
<g clip-path="url(#clip0_812_2)">
<path d="M104.92 52.728L100.38 60.5974M69.08 52.728L73.623 60.5974L69.08 52.728Z" stroke="#A4C639" stroke-width="3" stroke-linecap="round" stroke-linejoin="round"/>
<path d="M106.552 71.9723C106.566 72.1347 106.572 72.3013 106.572 72.4679V100.457C106.572 103.467 104.192 105.893 101.231 105.893H101.02V116.96C101.02 117.525 100.908 118.085 100.692 118.608C100.475 119.13 100.158 119.605 99.7583 120.005C99.3584 120.405 98.8836 120.722 98.3612 120.938C97.8387 121.155 97.2787 121.266 96.7132 121.266C96.1477 121.266 95.5877 121.155 95.0652 120.938C94.5427 120.722 94.068 120.405 93.6681 120.005C93.2682 119.605 92.951 119.13 92.7346 118.608C92.5182 118.085 92.4068 117.525 92.4068 116.96V105.9H81.5918V116.96C81.5714 118.088 81.1089 119.164 80.3036 119.955C79.4983 120.746 78.4148 121.189 77.2861 121.189C76.1574 121.189 75.0738 120.746 74.2686 119.955C73.4633 119.164 73.0007 118.088 72.9804 116.96V105.9H72.769C69.8108 105.9 67.428 103.475 67.428 100.464V72.4679C67.428 72.3013 67.4406 72.1361 67.456 71.9723H106.552ZM60.5078 74.4643C59.9424 74.4639 59.3826 74.5749 58.8601 74.7909C58.3377 75.0069 57.8629 75.3237 57.4629 75.7232C57.0629 76.1227 56.7454 76.5971 56.5288 77.1193C56.3121 77.6414 56.2004 78.2012 56.2 78.7665V97.2465C56.2 98.3886 56.6537 99.484 57.4613 100.292C58.2689 101.099 59.3643 101.553 60.5064 101.553C61.6485 101.553 62.7439 101.099 63.5515 100.292C64.3591 99.484 64.8128 98.3886 64.8128 97.2465V78.7665C64.812 77.6252 64.3582 76.531 63.5509 75.7242C62.7436 74.9175 61.6491 74.4643 60.5078 74.4643ZM113.492 74.4643C112.35 74.4647 111.255 74.9185 110.448 75.7261C109.641 76.5337 109.187 77.6288 109.187 78.7707V97.2507C109.187 98.3928 109.641 99.4882 110.448 100.296C111.256 101.103 112.351 101.557 113.494 101.557C114.636 101.557 115.731 101.103 116.539 100.296C117.346 99.4882 117.8 98.3928 117.8 97.2507V78.7707C117.8 77.9193 117.547 77.0869 117.074 76.379C116.601 75.671 115.929 75.1192 115.142 74.7934C114.356 74.4676 113.49 74.3823 112.655 74.5484C111.82 74.7145 111.053 75.1245 110.451 75.7266C109.849 76.3287 109.439 77.0958 109.273 77.9308C109.107 78.7659 109.192 79.6315 109.518 80.4182C109.844 81.2048 110.395 81.8771 111.103 82.3502C111.811 82.8232 112.644 83.0757 113.495 83.0757L113.492 74.4643ZM106.419 70.1341H67.5792C67.6996 61.5367 75.2036 54.4863 84.8356 53.5581H89.163C98.7964 54.4877 106.3 61.5367 106.419 70.1341ZM81.2194 62.4173C81.2179 61.8262 80.9817 61.2599 80.5626 60.8429C80.1436 60.426 79.5761 60.1926 78.985 60.1941C78.3939 60.1956 77.8276 60.4318 77.4106 60.8509C76.9937 61.2699 76.7603 61.8374 76.7618 62.4285V62.4411C76.7635 63.0322 76.9999 63.5985 77.419 64.0153C77.8382 64.4321 78.4058 64.6653 78.9969 64.6636C79.588 64.6619 80.1542 64.4255 80.571 64.0064C80.9878 63.5872 81.2211 63.0196 81.2194 62.4285V62.4173ZM97.85 62.4173C97.8485 61.8262 97.6123 61.2599 97.1932 60.8429C96.7742 60.426 96.2067 60.1926 95.6156 60.1941C95.0245 60.1956 94.4582 60.4318 94.0412 60.8509C93.6243 61.2699 93.3909 61.8374 93.3924 62.4285V62.4411C93.3941 63.0322 93.6305 63.5985 94.0496 64.0153C94.4688 64.4321 95.0364 64.6653 95.6275 64.6636C96.2186 64.6619 96.7848 64.4255 97.2016 64.0064C97.6184 63.5872 97.8516 63.0196 97.85 62.4285V62.4173Z" fill="url(#paint0_linear_812_2)"/>
</g>
<defs>
<filter id="filter0_d_812_2" x="0.431442" y="0.14209" width="173.137" height="173.137" filterUnits="userSpaceOnUse" color-interpolation-filters="sRGB">
<feFlood flood-opacity="0" result="BackgroundImageFix"/>
<feColorMatrix in="SourceAlpha" type="matrix" values="0 0 0 0 0 0 0 0 0 0 0 0 0 0 0 0 0 0 127 0" result="hardAlpha"/>
<feOffset/>
<feGaussianBlur stdDeviation="10"/>
<feComposite in2="hardAlpha" operator="out"/>
<feColorMatrix type="matrix" values="0 0 0 0 0 0 0 0 0 0 0 0 0 0 0 0 0 0 0.1 0"/>
<feBlend mode="normal" in2="BackgroundImageFix" result="effect1_dropShadow_812_2"/>
<feBlend mode="normal" in="SourceGraphic" in2="effect1_dropShadow_812_2" result="shape"/>
</filter>
<linearGradient id="paint0_linear_812_2" x1="69.4216" y1="117.264" x2="103.862" y2="59.9435" gradientUnits="userSpaceOnUse">
<stop stop-color="#A4C639"/>
<stop offset="1" stop-color="#D0DB3A"/>
</linearGradient>
<clipPath id="clip0_812_2">
<rect width="70" height="70" fill="white" transform="translate(52 52)"/>
</clipPath>
</defs>
</svg>
