<svg width="174" height="174" viewBox="0 0 174 174" fill="none" xmlns="http://www.w3.org/2000/svg">
<g filter="url(#filter0_d_812_3)">
<rect x="87" y="16" width="100" height="100" rx="10" transform="rotate(45 87 16)" fill="white"/>
</g>
<g clip-path="url(#clip0_812_3)">
<path d="M52 52H122V122H52V52Z" fill="white"/>
<path d="M100.478 58.9131C99.8149 60.9185 98.7857 62.7836 97.4426 64.4137C96.0756 66.0571 94.3723 67.3885 92.4474 68.3183C90.6652 69.1681 88.7108 69.6259 86.7662 69.4747L86.1712 69.4285L86.0928 68.8349C85.8394 66.9239 86.132 64.9905 86.7466 63.1999C87.4383 61.2135 88.4947 59.3736 89.8616 57.7749C91.2258 56.2211 92.8748 54.9427 94.7196 54.0089C96.5718 53.0583 98.5626 52.4619 100.374 52.3891L101.059 52.3611L101.14 53.0443C101.341 55.0249 101.117 57.0255 100.485 58.9131H100.478Z" fill="#424242"/>
<path d="M113.067 76.8862C112.41 77.2922 106.067 81.2178 106.145 89.132C106.228 98.6716 114.317 101.98 114.763 102.162L114.783 102.17L115.417 102.432L115.2 103.082C115.188 103.121 115.2 103.082 115.183 103.14C114.067 106.603 112.463 109.89 110.419 112.9C108.984 115 107.524 117.087 105.799 118.7C104.013 120.372 101.973 121.5 99.453 121.546C97.073 121.591 95.5218 120.918 93.9048 120.218C92.3648 119.551 90.7604 118.857 88.2516 118.857C85.6154 118.857 83.9312 119.575 82.3086 120.267C80.7812 120.916 79.3042 121.546 77.1748 121.632C74.7178 121.723 72.587 120.524 70.6928 118.75C68.8812 117.052 67.2936 114.83 65.8474 112.737C62.577 108.025 59.7364 101.164 58.86 94.1874C58.1376 88.4474 58.741 82.6206 61.52 77.8074C63.0251 75.1727 65.1733 72.9624 67.764 71.3828C70.2967 69.8355 73.1965 68.9926 76.164 68.9412C78.7904 68.8936 81.267 69.8764 83.4342 70.736C84.9742 71.345 86.3336 71.8882 87.3542 71.8882C88.2586 71.8882 89.5942 71.3618 91.1482 70.7486C93.7746 69.7126 96.9876 68.447 100.388 68.7886C102.988 68.9132 105.528 69.6132 107.825 70.8382C110.036 72.0331 111.927 73.7432 113.337 75.8236L113.757 76.4466L113.121 76.8568C113.086 76.8792 113.121 76.8568 113.062 76.8918L113.067 76.8862Z" fill="#424242"/>
</g>
<defs>
<filter id="filter0_d_812_3" x="0.431442" y="0.14209" width="173.137" height="173.137" filterUnits="userSpaceOnUse" color-interpolation-filters="sRGB">
<feFlood flood-opacity="0" result="BackgroundImageFix"/>
<feColorMatrix in="SourceAlpha" type="matrix" values="0 0 0 0 0 0 0 0 0 0 0 0 0 0 0 0 0 0 127 0" result="hardAlpha"/>
<feOffset/>
<feGaussianBlur stdDeviation="10"/>
<feComposite in2="hardAlpha" operator="out"/>
<feColorMatrix type="matrix" values="0 0 0 0 0 0 0 0 0 0 0 0 0 0 0 0 0 0 0.1 0"/>
<feBlend mode="normal" in2="BackgroundImageFix" result="effect1_dropShadow_812_3"/>
<feBlend mode="normal" in="SourceGraphic" in2="effect1_dropShadow_812_3" result="shape"/>
</filter>
<clipPath id="clip0_812_3">
<rect width="70" height="70" fill="white" transform="translate(52 52)"/>
</clipPath>
</defs>
</svg>
