<svg width="174" height="174" viewBox="0 0 174 174" fill="none" xmlns="http://www.w3.org/2000/svg">
<g filter="url(#filter0_d_1100_776)">
<rect x="87" y="16" width="100" height="100" rx="10" transform="rotate(45 87 16)" fill="white"/>
</g>
<g clip-path="url(#clip0_1100_776)">
<path d="M67.6552 79.1542C67.6552 80.2395 67.7726 81.1195 67.9779 81.7648C68.2125 82.4101 68.5059 83.1141 68.9165 83.8767C69.0632 84.1114 69.1219 84.3461 69.1219 84.5514C69.1219 84.8447 68.9459 85.138 68.5645 85.4314L66.7166 86.6633C66.4526 86.8393 66.1886 86.9273 65.9539 86.9273C65.6606 86.9273 65.3673 86.7807 65.074 86.5167C64.6633 86.0767 64.3113 85.6074 64.018 85.138C63.7247 84.6394 63.4313 84.0821 63.1087 83.4074C60.8207 86.106 57.9461 87.4553 54.4849 87.4553C52.0209 87.4553 50.0557 86.7513 48.6184 85.3434C47.1811 83.9354 46.4478 82.0581 46.4478 79.7115C46.4478 77.2182 47.3277 75.1943 49.117 73.669C50.9063 72.1437 53.2823 71.3811 56.3035 71.3811C57.3008 71.3811 58.3275 71.4691 59.4128 71.6157C60.4981 71.7624 61.6127 71.997 62.786 72.261V70.1198C62.786 67.8905 62.3167 66.3358 61.4074 65.4265C60.4687 64.5172 58.8848 64.0772 56.6262 64.0772C55.5995 64.0772 54.5436 64.1946 53.4582 64.4586C52.3729 64.7226 51.317 65.0452 50.2903 65.4559C49.821 65.6612 49.469 65.7785 49.2637 65.8372C49.0584 65.8959 48.9117 65.9252 48.7944 65.9252C48.3837 65.9252 48.1784 65.6319 48.1784 65.0159V63.5786C48.1784 63.1093 48.237 62.7573 48.3837 62.5519C48.5304 62.3466 48.7944 62.1413 49.205 61.936C50.2317 61.408 51.4636 60.968 52.9009 60.616C54.3382 60.2347 55.8635 60.0587 57.4768 60.0587C60.9674 60.0587 63.5193 60.8506 65.162 62.4346C66.7753 64.0186 67.5966 66.4238 67.5966 69.6504V79.1542H67.6552ZM55.7462 83.6128C56.7142 83.6128 57.7115 83.4368 58.7674 83.0848C59.8234 82.7328 60.7621 82.0875 61.554 81.2075C62.0234 80.6502 62.3754 80.0342 62.5514 79.3302C62.7274 78.6262 62.8447 77.7756 62.8447 76.7783V75.5463C61.994 75.341 61.0847 75.165 60.1461 75.0476C59.2074 74.9303 58.2981 74.8716 57.3888 74.8716C55.4235 74.8716 53.9862 75.253 53.0183 76.0449C52.0503 76.8369 51.581 77.9516 51.581 79.4182C51.581 80.7968 51.933 81.8235 52.6663 82.5274C53.3702 83.2608 54.3969 83.6128 55.7462 83.6128V83.6128ZM79.3003 86.7807C78.7723 86.7807 78.4203 86.6927 78.1856 86.4873C77.951 86.3114 77.7456 85.9007 77.5697 85.3434L70.6765 62.6693C70.5005 62.0826 70.4125 61.7013 70.4125 61.496C70.4125 61.0266 70.6472 60.7626 71.1165 60.7626H73.9911C74.5484 60.7626 74.9297 60.8506 75.135 61.056C75.3697 61.232 75.5457 61.6426 75.7217 62.1999L80.6496 81.6181L85.2255 62.1999C85.3721 61.6133 85.5481 61.232 85.7828 61.056C86.0174 60.88 86.4281 60.7626 86.9561 60.7626H89.3027C89.86 60.7626 90.2413 60.8506 90.476 61.056C90.7107 61.232 90.916 61.6426 91.0333 62.1999L95.6679 81.8528L100.742 62.1999C100.918 61.6133 101.124 61.232 101.329 61.056C101.564 60.88 101.945 60.7626 102.473 60.7626H105.201C105.67 60.7626 105.934 60.9973 105.934 61.496C105.934 61.6426 105.905 61.7893 105.876 61.9653C105.846 62.1413 105.788 62.3759 105.67 62.6986L98.6011 85.3727C98.4251 85.9594 98.2198 86.3407 97.9851 86.5167C97.7505 86.6927 97.3692 86.81 96.8705 86.81H94.3479C93.7906 86.81 93.4093 86.722 93.1746 86.5167C92.9399 86.3114 92.7346 85.93 92.6173 85.3434L88.0707 66.4238L83.5535 85.314C83.4068 85.9007 83.2308 86.282 82.9962 86.4873C82.7615 86.6927 82.3509 86.7807 81.8229 86.7807H79.3003ZM116.993 87.5727C115.467 87.5727 113.942 87.3967 112.475 87.0447C111.009 86.6927 109.865 86.3114 109.102 85.8714C108.633 85.6074 108.31 85.314 108.193 85.0501C108.076 84.7861 108.017 84.4927 108.017 84.2287V82.7328C108.017 82.1168 108.252 81.8235 108.692 81.8235C108.868 81.8235 109.044 81.8528 109.22 81.9115C109.396 81.9701 109.66 82.0875 109.953 82.2048C110.95 82.6448 112.035 82.9968 113.179 83.2314C114.353 83.4661 115.497 83.5834 116.67 83.5834C118.518 83.5834 119.955 83.2608 120.953 82.6154C121.95 81.9701 122.478 81.0315 122.478 79.8288C122.478 79.0075 122.214 78.3329 121.686 77.7756C121.158 77.2182 120.161 76.7196 118.723 76.2503L114.47 74.9303C112.329 74.2556 110.745 73.2583 109.777 71.9384C108.809 70.6477 108.31 69.2104 108.31 67.6851C108.31 66.4532 108.574 65.3679 109.102 64.4292C109.63 63.4906 110.334 62.6693 111.214 62.024C112.094 61.3493 113.091 60.8506 114.265 60.4987C115.438 60.1467 116.67 60 117.961 60C118.606 60 119.281 60.0293 119.926 60.1173C120.601 60.2053 121.217 60.3227 121.833 60.44C122.419 60.5867 122.977 60.7333 123.505 60.9093C124.032 61.0853 124.443 61.2613 124.736 61.4373C125.147 61.672 125.44 61.9066 125.616 62.1706C125.792 62.4053 125.88 62.7279 125.88 63.1386V64.5172C125.88 65.1332 125.646 65.4559 125.206 65.4559C124.971 65.4559 124.59 65.3385 124.091 65.1039C122.419 64.3412 120.542 63.9599 118.459 63.9599C116.787 63.9599 115.467 64.2239 114.558 64.7812C113.649 65.3385 113.179 66.1892 113.179 67.3918C113.179 68.2131 113.473 68.9171 114.059 69.4744C114.646 70.0318 115.731 70.5891 117.286 71.0877L121.451 72.4077C123.563 73.0823 125.088 74.021 125.998 75.2236C126.907 76.4263 127.347 77.8049 127.347 79.3302C127.347 80.5915 127.083 81.7355 126.584 82.7328C126.056 83.7301 125.352 84.6101 124.443 85.314C123.534 86.0474 122.449 86.5753 121.187 86.9567C119.867 87.3673 118.489 87.5727 116.993 87.5727V87.5727Z" fill="#252F3E"/>
<path fill-rule="evenodd" clip-rule="evenodd" d="M122.536 101.828C112.886 108.956 98.8649 112.74 86.8093 112.74C69.9137 112.74 54.6901 106.492 43.1917 96.1084C42.2824 95.2871 43.1037 94.1724 44.189 94.8177C56.6261 102.034 71.967 106.404 87.8359 106.404C98.5423 106.404 110.305 104.175 121.128 99.599C122.742 98.8656 124.12 100.655 122.536 101.828V101.828Z" fill="#FF9900"/>
<path fill-rule="evenodd" clip-rule="evenodd" d="M126.555 97.2522C125.323 95.6683 118.401 96.4896 115.262 96.8709C114.323 96.9882 114.177 96.1669 115.027 95.5509C120.542 91.679 129.605 92.7937 130.661 94.0843C131.717 95.4043 130.368 104.468 125.206 108.809C124.414 109.484 123.651 109.132 124.003 108.252C125.176 105.348 127.787 98.8069 126.555 97.2522V97.2522Z" fill="#FF9900"/>
</g>
<defs>
<filter id="filter0_d_1100_776" x="0.431396" y="0.14209" width="173.137" height="173.137" filterUnits="userSpaceOnUse" color-interpolation-filters="sRGB">
<feFlood flood-opacity="0" result="BackgroundImageFix"/>
<feColorMatrix in="SourceAlpha" type="matrix" values="0 0 0 0 0 0 0 0 0 0 0 0 0 0 0 0 0 0 127 0" result="hardAlpha"/>
<feOffset/>
<feGaussianBlur stdDeviation="10"/>
<feComposite in2="hardAlpha" operator="out"/>
<feColorMatrix type="matrix" values="0 0 0 0 0 0 0 0 0 0 0 0 0 0 0 0 0 0 0.1 0"/>
<feBlend mode="normal" in2="BackgroundImageFix" result="effect1_dropShadow_1100_776"/>
<feBlend mode="normal" in="SourceGraphic" in2="effect1_dropShadow_1100_776" result="shape"/>
</filter>
<clipPath id="clip0_1100_776">
<rect width="90" height="52.74" fill="white" transform="translate(42 60)"/>
</clipPath>
</defs>
</svg>
