<svg width="174" height="174" viewBox="0 0 174 174" fill="none" xmlns="http://www.w3.org/2000/svg">
<g filter="url(#filter0_d_1837_1422)">
<rect x="86.7109" y="16" width="100" height="100" rx="10" transform="rotate(45 86.7109 16)" fill="white"/>
</g>
<path d="M119.661 71.106C119.66 69.8417 119.39 68.7245 118.843 67.7659C118.306 66.8228 117.502 66.0326 116.423 65.4077C107.516 60.2723 98.6014 55.1526 89.698 50.0119C87.2977 48.6262 84.9704 48.677 82.5879 50.0826C79.0429 52.173 61.2944 62.3415 56.0055 65.4049C53.8275 66.666 52.7676 68.5957 52.7671 71.1036C52.7637 81.4313 52.7671 91.7589 52.7637 102.087C52.7637 103.323 53.0231 104.419 53.5458 105.363C54.0832 106.334 54.8988 107.146 56.0027 107.785C61.2917 110.849 79.0426 121.016 82.5868 123.108C84.9704 124.514 87.2977 124.564 89.6988 123.178C98.6025 118.037 107.518 112.918 116.426 107.782C117.529 107.143 118.345 106.331 118.882 105.36C119.404 104.416 119.664 103.321 119.664 102.084C119.664 102.084 119.664 81.4339 119.661 71.106Z" fill="#A179DC"/>
<path d="M86.3155 86.4944L53.5449 105.363C54.0823 106.334 54.8979 107.146 56.0018 107.785C61.2909 110.849 79.0417 121.016 82.5859 123.108C84.9695 124.514 87.2968 124.564 89.6979 123.178C98.6016 118.037 107.517 112.918 116.425 107.782C117.529 107.143 118.344 106.331 118.882 105.36L86.3155 86.4944Z" fill="#280068"/>
<path d="M119.663 71.1059C119.662 69.8416 119.392 68.7244 118.845 67.7659L86.3184 86.4947L118.884 105.36C119.406 104.416 119.666 103.32 119.666 102.084C119.666 102.084 119.666 81.4338 119.663 71.1059" fill="#390091"/>
<path d="M105.612 79.4409V82.9678H109.139V79.4409H110.903V82.9678H114.43V84.7313H110.903V88.258H114.43V90.0214H110.903V93.5484H109.139V90.0214H105.612V93.5484H103.849V90.0214H100.322V88.258H103.849V84.7313H100.322V82.9678H103.849V79.4409H105.612ZM109.139 84.731H105.612V88.258H109.139V84.731Z" fill="white"/>
<path d="M86.3888 61.728C95.588 61.728 103.619 66.724 107.921 74.15L107.88 74.0786L97.0559 80.3105C94.9236 76.7001 91.0145 74.2634 86.5298 74.2131L86.3885 74.2123C79.5501 74.2123 74.006 79.7564 74.006 86.5948C74.0038 88.7502 74.5669 90.8685 75.6391 92.7383C77.7735 96.4644 81.786 98.9775 86.3888 98.9775C91.02 98.9775 95.0553 96.4324 97.1787 92.6665L97.1271 92.7568L107.934 99.0176C103.679 106.381 95.7579 111.361 86.6657 111.46L86.3888 111.462C77.1605 111.462 69.1062 106.435 64.8149 98.9699C62.7201 95.3255 61.5215 91.1004 61.5215 86.5948C61.5215 72.8614 72.6546 61.7278 86.3885 61.7278L86.3888 61.728Z" fill="white"/>
<defs>
<filter id="filter0_d_1837_1422" x="0.142578" y="0.14209" width="173.137" height="173.137" filterUnits="userSpaceOnUse" color-interpolation-filters="sRGB">
<feFlood flood-opacity="0" result="BackgroundImageFix"/>
<feColorMatrix in="SourceAlpha" type="matrix" values="0 0 0 0 0 0 0 0 0 0 0 0 0 0 0 0 0 0 127 0" result="hardAlpha"/>
<feOffset/>
<feGaussianBlur stdDeviation="10"/>
<feComposite in2="hardAlpha" operator="out"/>
<feColorMatrix type="matrix" values="0 0 0 0 0 0 0 0 0 0 0 0 0 0 0 0 0 0 0.1 0"/>
<feBlend mode="normal" in2="BackgroundImageFix" result="effect1_dropShadow_1837_1422"/>
<feBlend mode="normal" in="SourceGraphic" in2="effect1_dropShadow_1837_1422" result="shape"/>
</filter>
</defs>
</svg>
