<svg width="174" height="174" viewBox="0 0 174 174" fill="none" xmlns="http://www.w3.org/2000/svg">
<g filter="url(#filter0_d_812_7)">
<rect x="87" y="16" width="100" height="100" rx="10" transform="rotate(45 87 16)" fill="white"/>
</g>
<path d="M103.591 79.4658V86.3169C103.6 86.7815 103.476 87.2386 103.232 87.6343C102.988 88.0298 102.636 88.3471 102.218 88.5483C97.4489 90.8356 92.2533 92.0966 86.9664 92.2494C81.684 92.101 76.4911 90.8461 71.7239 88.5658C71.3015 88.3637 70.9463 88.044 70.7011 87.6453C70.4559 87.2463 70.331 86.785 70.3414 86.3169V79.4658C70.3529 79.1517 70.4407 78.8456 70.5972 78.573C70.7537 78.3007 70.9741 78.0707 71.2395 77.9027C71.5048 77.7347 71.8072 77.6339 72.1202 77.6089C72.4333 77.5839 72.7478 77.6355 73.0364 77.7594C77.4326 79.6951 82.1646 80.7533 86.9664 80.8744C91.77 80.7587 96.5046 79.7066 100.905 77.7769C101.192 77.6553 101.504 77.6049 101.815 77.6299C102.125 77.6546 102.425 77.7545 102.689 77.9202C102.953 78.0861 103.173 78.3131 103.33 78.5824C103.487 78.8514 103.577 79.1545 103.591 79.4658Z" fill="#0066FF"/>
<path d="M121.563 95.5136C121.208 99.6709 119.293 103.539 116.202 106.343C113.112 109.146 109.075 110.676 104.903 110.625H95.7159L78.2159 122V110.625L95.7159 99.25H104.921C106.223 99.2971 107.495 98.8482 108.479 97.9937C109.463 97.1395 110.087 95.9437 110.223 94.6475C110.758 85.9043 110.715 77.1351 110.092 68.3975C109.987 67.232 109.466 66.1433 108.624 65.3304C107.782 64.5174 106.676 64.0346 105.507 63.97C99.5398 63.6025 93.2573 63.375 86.9659 63.375C80.6748 63.375 74.3922 63.585 68.4247 64.005C67.2562 64.0696 66.15 64.5524 65.3082 65.3654C64.4663 66.1783 63.9451 67.267 63.8397 68.4325C63.2174 77.1701 63.1736 85.9393 63.7085 94.6825C63.8533 95.9724 64.4802 97.1596 65.4635 98.0068C66.4469 98.8538 67.714 99.2978 69.011 99.25H78.2159V110.625H69.0285C64.8612 110.667 60.8322 109.131 57.749 106.327C54.6659 103.523 52.7565 99.6576 52.4035 95.505C51.8248 86.1791 51.8686 76.825 52.5347 67.505C52.8655 63.6401 54.5665 60.0206 57.331 57.2994C60.0954 54.5783 63.7413 52.9347 67.611 52.665C73.841 52.2188 80.4034 52 86.9659 52C93.5284 52 100.091 52.2188 106.321 52.665C110.202 52.9277 113.861 54.5728 116.633 57.3019C119.406 60.0309 121.108 63.6633 121.432 67.54C122.097 76.8514 122.141 86.1966 121.563 95.5136Z" fill="#0066FF"/>
<defs>
<filter id="filter0_d_812_7" x="0.431458" y="0.14209" width="173.137" height="173.137" filterUnits="userSpaceOnUse" color-interpolation-filters="sRGB">
<feFlood flood-opacity="0" result="BackgroundImageFix"/>
<feColorMatrix in="SourceAlpha" type="matrix" values="0 0 0 0 0 0 0 0 0 0 0 0 0 0 0 0 0 0 127 0" result="hardAlpha"/>
<feOffset/>
<feGaussianBlur stdDeviation="10"/>
<feComposite in2="hardAlpha" operator="out"/>
<feColorMatrix type="matrix" values="0 0 0 0 0 0 0 0 0 0 0 0 0 0 0 0 0 0 0.1 0"/>
<feBlend mode="normal" in2="BackgroundImageFix" result="effect1_dropShadow_812_7"/>
<feBlend mode="normal" in="SourceGraphic" in2="effect1_dropShadow_812_7" result="shape"/>
</filter>
</defs>
</svg>
