<svg width="174" height="174" viewBox="0 0 174 174" fill="none" xmlns="http://www.w3.org/2000/svg">
<g filter="url(#filter0_d_1100_776)">
<rect x="87" y="16" width="100" height="100" rx="10" transform="rotate(45 87 16)" fill="white"/>
</g>
<g clip-path="url(#clip0_1100_776)">
<path d="M61.017 118.148C59.8189 118.148 59.4705 117.45 59.4705 116.405C59.4705 116.056 59.5143 115.663 59.5681 115.25C59.8306 113.442 60.4713 112.408 62.0178 112.408C63.0638 112.408 63.5737 112.876 63.5737 113.725V114.139H64.6114C64.6229 114.139 64.6229 113.758 64.6229 113.671C64.6229 112.43 63.8712 111.252 62.0194 111.252C59.5032 111.252 58.4685 112.619 58.0873 115.299C58.0327 115.659 58 115.994 58 116.353C58 117.932 58.6214 119.369 60.8432 119.369C62.5312 119.369 63.5339 118.546 64.1217 117.533L63.1303 116.865C62.488 117.878 61.7903 118.148 61.017 118.148V118.148ZM67.825 113.159C65.8095 113.159 64.9388 114.193 64.6448 116.252C64.6103 116.49 64.5918 116.73 64.5895 116.971C64.5895 118.299 65.2105 119.356 66.931 119.356C68.9465 119.356 69.829 118.278 70.123 116.252C70.1557 115.99 70.1776 115.751 70.1776 115.511C70.178 114.161 69.5357 113.159 67.825 113.159V113.159ZM68.6638 116.252C68.4457 117.745 67.9779 118.202 67.0949 118.202C66.3874 118.202 66.0391 117.908 66.0391 117.026C66.0391 116.808 66.0612 116.547 66.1045 116.252C66.3225 114.771 66.7581 114.314 67.6512 114.314C68.3702 114.314 68.7292 114.608 68.7292 115.501C68.7292 115.719 68.707 115.969 68.6638 116.252ZM75.2439 111.361L74.9066 113.36C74.8849 113.534 74.896 113.476 74.9618 113.64C74.6459 113.4 74.0791 113.242 73.6978 113.242C71.8896 113.242 70.877 114.06 70.5505 116.348C70.5124 116.589 70.4942 116.833 70.496 117.078C70.496 118.745 71.4761 119.366 72.7937 119.366C73.35 119.366 73.8942 119.378 74.3186 119.019L74.427 119.696H75.4729L76.6927 111.361H75.2439V111.361ZM74.2092 117.886C73.7195 118.179 73.2406 118.246 72.9466 118.246C72.1514 118.246 71.9336 117.831 71.9336 117.167C71.9336 116.917 71.9662 116.623 72.0102 116.307C72.2603 114.575 72.816 114.269 73.5351 114.269C74.0029 114.269 74.3621 114.346 74.7005 114.532L74.2092 117.886V117.886ZM79.8736 113.159C77.8798 113.159 76.9439 114.106 76.6276 116.252C76.5944 116.513 76.5725 116.764 76.5725 117.003C76.5725 118.474 77.3245 119.356 78.9794 119.356C80.2648 119.356 81.2242 118.822 81.7358 117.842L80.6355 117.395C80.3201 117.874 79.8953 118.201 79.1436 118.201C78.3378 118.201 78.0108 117.984 78.0108 117.265C78.0108 117.123 78.0219 116.917 78.0437 116.917H81.9752C82.0305 116.362 82.0949 115.969 82.0949 115.643C82.0949 114.554 81.6814 113.159 79.8736 113.159V113.159ZM80.6249 115.806H78.2286C78.4688 115.251 78.871 114.391 79.6991 114.391C80.3415 114.391 80.6578 114.766 80.6578 115.409C80.6571 115.518 80.6472 115.806 80.6249 115.806V115.806ZM86.2866 113.028L86.4171 111.916H83.3451L83.215 113.028H84.0209L83.1501 118.585H82.3431L82.2133 119.696H85.2846L85.4158 118.585H84.6093L85.4803 113.028H86.2866ZM92.5282 114.695L92.9208 113.584H91.8643L91.1024 113.741C90.6774 113.469 90.1 113.265 89.5559 113.265C87.9977 113.265 86.6695 114.018 86.6695 115.728C86.6695 116.208 86.8435 116.595 87.0501 116.857C86.724 117.031 86.4406 117.322 86.4406 117.715C86.4406 117.889 86.5055 118.067 86.6368 118.23C85.9827 118.623 85.5809 119.274 85.5809 120.035C85.5809 121.507 87.1164 121.82 88.2926 121.82C89.7737 121.82 91.5387 121.482 91.5387 119.598C91.5387 118.955 91.1358 118.453 89.9703 118.235L87.8683 117.843C87.6289 117.799 87.5743 117.722 87.5743 117.614C87.5743 117.45 87.6733 117.364 87.8358 117.364L87.9777 117.385C88.2609 117.45 88.5878 117.483 88.9251 117.483C90.4396 117.483 91.7899 116.83 91.7899 115.13C91.7899 114.891 91.7466 114.728 91.6377 114.466C91.8226 114.554 92.0627 114.696 92.1599 114.696H92.5282V114.695V114.695ZM89.5336 119.204C89.9471 119.28 90.0885 119.432 90.0885 119.705C90.0885 120.587 89.1408 120.696 88.4549 120.696C87.4092 120.696 87.0174 120.446 87.0174 119.89C87.0174 119.399 87.1585 119.171 87.4859 118.822L89.5336 119.204ZM89.0862 116.351C88.4545 116.351 88.1059 116.122 88.1059 115.577C88.1059 114.771 88.5744 114.303 89.3913 114.303C90.0449 114.303 90.3611 114.575 90.3611 115.108C90.3611 115.914 89.9031 116.351 89.0862 116.351V116.351ZM96.3978 113.159C95.7877 113.159 95.2436 113.458 94.5679 113.992L94.47 113.584H93.2714L92.4329 119.696H93.8816L94.5136 115.061C94.9386 114.799 95.461 114.42 95.9076 114.42C96.4519 114.42 96.6485 114.683 96.6485 115.183C96.6485 115.303 96.637 115.659 96.6151 115.789L96.0821 119.696H97.531L98.064 115.757C98.0861 115.573 98.1077 115.27 98.1077 115.096C98.1084 114.06 97.6176 113.159 96.3978 113.159V113.159ZM100.86 118.165L100.871 118.015L101.502 113.584H99.0948L98.943 114.695H99.9989C99.9116 114.695 99.8573 114.792 99.8467 114.88L99.4109 117.832C99.3892 117.974 99.3786 118.269 99.3786 118.388C99.3786 119.151 99.7921 119.696 100.641 119.696H101.382L101.546 118.585H101.078C100.914 118.585 100.86 118.296 100.86 118.165V118.165ZM101.796 111.361H100.38C100.293 111.361 100.293 111.04 100.282 111.149L100.086 112.715C100.074 112.813 100.074 113.028 100.162 113.028H101.578C101.666 113.028 101.666 112.647 101.676 112.548L101.873 111.339C101.884 111.231 101.884 111.361 101.796 111.361ZM104.75 118.202C104.391 118.202 104.217 118.049 104.217 117.723L104.228 117.701L104.685 114.695H106.341L106.841 113.584H104.838L105.175 111.138L103.651 111.625L103.378 113.584H102.496L102.344 114.695H103.367C103.269 115.251 103.171 114.89 103.16 114.999L102.768 117.635C102.747 117.755 102.747 117.842 102.747 117.951C102.747 118.986 103.509 119.373 104.425 119.373C105.274 119.373 105.96 119.125 106.494 118.678L105.819 117.847C105.48 118.053 105.252 118.202 104.75 118.202V118.202ZM110.066 113.159C108.073 113.159 107.136 114.106 106.82 116.252C106.787 116.513 106.765 116.764 106.765 117.003C106.765 118.474 107.517 119.356 109.172 119.356C110.458 119.356 111.417 118.822 111.928 117.842L110.828 117.395C110.513 117.874 110.088 118.201 109.336 118.201C108.53 118.201 108.203 117.984 108.203 117.265C108.203 117.123 108.215 116.917 108.236 116.917H112.168C112.222 116.362 112.288 115.969 112.288 115.643C112.288 114.554 111.874 113.159 110.066 113.159V113.159ZM110.818 115.806H108.421C108.661 115.251 109.063 114.391 109.892 114.391C110.534 114.391 110.851 114.766 110.851 115.409C110.85 115.518 110.839 115.806 110.818 115.806V115.806ZM116.296 113.159C115.774 113.159 115.283 113.459 114.793 113.926L114.706 113.584H113.508L112.669 119.696H114.129L114.771 114.963C115.153 114.734 115.589 114.539 116.002 114.539C116.264 114.539 116.514 114.498 116.754 114.53L116.94 113.267C116.721 113.224 116.503 113.159 116.296 113.159V113.159ZM79.3059 106.982C76.0089 105.557 72.9238 101.935 72.9164 98.229C72.9074 94.1884 75.4681 90.7579 78.6529 88.5034C78.2701 89.95 78.0612 91.2731 79.0098 92.5671C79.8916 93.77 81.436 94.3546 82.8943 94.0373C86.3018 93.2914 86.4581 89.5455 84.438 87.3631C82.4408 85.2019 80.5086 82.7607 81.2689 79.6265C81.6494 78.0554 82.6141 76.5837 83.8362 75.5318C82.8969 78.0004 85.5662 80.4349 87.325 81.6475C90.3758 83.7514 93.7232 85.3414 96.5283 87.8077C99.479 90.3996 101.658 93.9043 101.218 97.9691C100.741 102.375 97.2402 105.439 93.3133 106.986C101.611 105.154 110.186 98.7141 110.361 89.5112C110.507 81.9399 105.313 76.1131 98.879 72.7773L98.5429 72.5938C98.7195 73.0222 98.7773 73.3867 98.7706 73.7129C98.8281 73.4723 98.8673 73.2251 98.8783 72.97C98.8768 73.273 98.8372 73.5747 98.7605 73.8679L98.7706 73.7129C98.6751 74.1149 98.5141 74.4984 98.2942 74.8482L98.3886 74.7467C97.1051 76.8757 93.6302 77.338 91.9135 75.1335C89.1539 71.5874 91.9713 67.7641 92.3655 64.009C92.8589 59.3028 89.9075 54.734 86.2481 52C88.2636 55.2603 85.6083 59.5738 83.484 61.9853C81.424 64.3228 78.9189 66.2745 76.6448 68.3984C74.2021 70.6796 71.8537 73.0826 69.8458 75.76C65.83 81.1189 63.3716 87.8588 65.1782 94.5443C66.9837 101.225 72.7709 105.478 79.3061 106.982L79.3059 106.982Z" fill="#EE4323"/>
</g>
<defs>
<filter id="filter0_d_1100_776" x="0.431396" y="0.14209" width="173.137" height="173.137" filterUnits="userSpaceOnUse" color-interpolation-filters="sRGB">
<feFlood flood-opacity="0" result="BackgroundImageFix"/>
<feColorMatrix in="SourceAlpha" type="matrix" values="0 0 0 0 0 0 0 0 0 0 0 0 0 0 0 0 0 0 127 0" result="hardAlpha"/>
<feOffset/>
<feGaussianBlur stdDeviation="10"/>
<feComposite in2="hardAlpha" operator="out"/>
<feColorMatrix type="matrix" values="0 0 0 0 0 0 0 0 0 0 0 0 0 0 0 0 0 0 0.1 0"/>
<feBlend mode="normal" in2="BackgroundImageFix" result="effect1_dropShadow_1100_776"/>
<feBlend mode="normal" in="SourceGraphic" in2="effect1_dropShadow_1100_776" result="shape"/>
</filter>
<clipPath id="clip0_1100_776">
<rect width="58.94" height="70" fill="white" transform="translate(58 52)"/>
</clipPath>
</defs>
</svg>
