<svg width="174" height="174" viewBox="0 0 174 174" fill="none" xmlns="http://www.w3.org/2000/svg">
<g filter="url(#filter0_d_1100_776)">
<rect x="87" y="16" width="100" height="100" rx="10" transform="rotate(45 87 16)" fill="white"/>
</g>
<g clip-path="url(#clip0_1100_776)">
<path d="M111.593 65.7568L107.075 116.37L86.7659 122L66.5132 116.378L62 65.7568H111.593Z" fill="#264DE4"/>
<path d="M103.206 113.147L107.067 69.8955H86.7961V117.696L103.206 113.147Z" fill="#2965F1"/>
<path d="M72.3464 88.6704L72.9029 94.8788H86.7962V88.6704H72.3464Z" fill="#EBEBEB"/>
<path d="M86.7962 76.104H86.7747H71.2283L71.7926 82.3125H86.7962V76.104Z" fill="#EBEBEB"/>
<path d="M86.7964 111.254V104.794L86.7692 104.801L79.8548 102.934L79.4127 97.9829H76.0529H73.1804L74.0502 107.731L86.7678 111.262L86.7964 111.254Z" fill="#EBEBEB"/>
<path d="M73.6714 52H81.1909V55.1445H76.8159V58.2891H81.1909V61.4336H73.6714V52Z" fill="black"/>
<path d="M82.6948 52H90.2144V54.7344H85.8394V55.2812H90.2144V61.5703H82.6948V58.6992H87.0698V58.1523H82.6948V52Z" fill="black"/>
<path d="M91.7183 52H99.2378V54.7344H94.8628V55.2812H99.2378V61.5703H91.7183V58.6992H96.0933V58.1523H91.7183V52Z" fill="black"/>
<path d="M94.4199 94.8785L93.6993 102.93L86.7749 104.799V111.258L99.5026 107.731L99.596 106.682L101.055 90.3372L101.206 88.6701L102.327 76.104H86.7749V82.3125H95.5233L94.9583 88.6701H86.7749V94.8785H94.4199Z" fill="white"/>
</g>
<defs>
<filter id="filter0_d_1100_776" x="0.431396" y="0.14209" width="173.137" height="173.137" filterUnits="userSpaceOnUse" color-interpolation-filters="sRGB">
<feFlood flood-opacity="0" result="BackgroundImageFix"/>
<feColorMatrix in="SourceAlpha" type="matrix" values="0 0 0 0 0 0 0 0 0 0 0 0 0 0 0 0 0 0 127 0" result="hardAlpha"/>
<feOffset/>
<feGaussianBlur stdDeviation="10"/>
<feComposite in2="hardAlpha" operator="out"/>
<feColorMatrix type="matrix" values="0 0 0 0 0 0 0 0 0 0 0 0 0 0 0 0 0 0 0.1 0"/>
<feBlend mode="normal" in2="BackgroundImageFix" result="effect1_dropShadow_1100_776"/>
<feBlend mode="normal" in="SourceGraphic" in2="effect1_dropShadow_1100_776" result="shape"/>
</filter>
<clipPath id="clip0_1100_776">
<rect width="49.5925" height="70" fill="white" transform="translate(62 52)"/>
</clipPath>
</defs>
</svg>
