<svg width="174" height="174" viewBox="0 0 174 174" fill="none" xmlns="http://www.w3.org/2000/svg">
<g filter="url(#filter0_d_1100_776)">
<rect x="87" y="16" width="100" height="100" rx="10" transform="rotate(45 87 16)" fill="white"/>
</g>
<g clip-path="url(#clip0_1100_776)">
<path d="M56.4473 73H60.8201V93.241C58.577 93.6669 56.93 93.8375 55.141 93.8375C49.8025 93.8371 47.0198 91.4238 47.0198 86.7952C47.0198 82.337 49.9731 79.4409 54.5446 79.4409C55.2544 79.4409 55.7939 79.4975 56.4473 79.6679V73ZM56.4473 83.1887C55.9362 83.0185 55.5103 82.9617 54.9707 82.9617C52.7558 82.9617 51.4779 84.3248 51.4779 86.7098C51.4779 89.0384 52.699 90.3161 54.9423 90.3161C55.425 90.3161 55.8226 90.2879 56.4473 90.2027V83.1887Z" fill="#092E20"/>
<path d="M67.7767 79.7532V89.8902C67.7767 93.383 67.521 95.0584 66.7545 96.5064C66.0445 97.8981 65.1073 98.7781 63.1766 99.7438L59.116 97.8129C61.0469 96.9041 61.9839 96.1093 62.5801 94.8878C63.205 93.6387 63.4039 92.1903 63.4039 88.3854V79.7532H67.7767ZM63.4039 73.0234H67.7767V77.51H63.4039V73.0234ZM70.418 80.747C72.3491 79.8386 74.1947 79.4411 76.2108 79.4411C78.4541 79.4411 79.9306 80.0372 80.5838 81.2015C80.9527 81.8545 81.0663 82.7063 81.0663 84.5239V93.4114C79.1068 93.6953 76.6365 93.8942 74.8194 93.8942C71.1564 93.8942 69.5092 92.616 69.5092 89.7766C69.5092 86.7096 71.6957 85.2899 77.0624 84.8355V83.8701C77.0624 83.0751 76.6649 82.7913 75.5574 82.7913C73.939 82.7913 72.1216 83.2456 70.4177 84.126L70.418 80.747V80.747ZM77.2616 87.7039C74.3651 87.9879 73.4279 88.4421 73.4279 89.5781C73.4279 90.4297 73.9676 90.8272 75.1601 90.8272C75.8133 90.8272 76.4094 90.7706 77.2614 90.6286L77.2616 87.7039ZM83.1962 80.4347C85.78 79.7532 87.9097 79.4411 90.0677 79.4411C92.311 79.4411 93.9296 79.952 94.8954 80.9459C95.8039 81.8827 96.0877 82.9049 96.0877 85.0917V93.6669H91.7147V85.2621C91.7147 83.5869 91.1469 82.9619 89.5852 82.9619C88.989 82.9619 88.4495 83.0186 87.5689 83.2742V93.6669H83.1962V80.4347ZM97.7876 96.0521C99.3213 96.8473 100.854 97.2161 102.473 97.2161C105.34 97.2161 106.562 96.0521 106.562 93.2692V93.184C105.71 93.6097 104.858 93.7803 103.722 93.7803C99.8888 93.7803 97.4464 91.2531 97.4464 87.2496C97.4464 82.28 101.053 79.4691 107.442 79.4691C109.316 79.4691 111.048 79.6677 113.149 80.0936L111.652 83.2478C110.488 83.0207 111.559 83.2174 110.679 83.1322V83.5867L110.735 85.4321L110.764 87.8175C110.792 88.4136 110.792 89.01 110.821 89.6063V90.7992C110.821 94.5473 110.508 96.3077 109.571 97.7559C108.208 99.8858 105.851 100.936 102.501 100.936C100.797 100.936 99.3209 100.681 97.7873 100.084L97.7876 96.0521V96.0521ZM106.477 82.9902H106.023C105.171 82.9619 104.177 83.1888 103.495 83.6147C102.445 84.2112 101.905 85.2903 101.905 86.8235C101.905 89.0102 102.985 90.2595 104.915 90.2595C105.512 90.2595 105.994 90.1457 106.562 89.9756V88.4707C106.562 87.9595 106.534 87.3912 106.534 86.7953L106.506 84.7794L106.477 83.3312L106.477 82.9902V82.9902ZM119.938 79.3841C124.311 79.3841 126.98 82.1386 126.98 86.5966C126.98 91.1685 124.198 94.0364 119.768 94.0364C115.395 94.0364 112.697 91.2819 112.697 86.8523C112.697 82.2518 115.48 79.3841 119.938 79.3841V79.3841ZM119.853 90.515C121.528 90.515 122.522 89.1236 122.522 86.71C122.522 84.3249 121.556 82.9051 119.881 82.9051C118.149 82.9051 117.155 84.2967 117.155 86.71C117.155 89.1238 118.149 90.515 119.853 90.515V90.515Z" fill="#092E20"/>
</g>
<defs>
<filter id="filter0_d_1100_776" x="0.431396" y="0.14209" width="173.137" height="173.137" filterUnits="userSpaceOnUse" color-interpolation-filters="sRGB">
<feFlood flood-opacity="0" result="BackgroundImageFix"/>
<feColorMatrix in="SourceAlpha" type="matrix" values="0 0 0 0 0 0 0 0 0 0 0 0 0 0 0 0 0 0 127 0" result="hardAlpha"/>
<feOffset/>
<feGaussianBlur stdDeviation="10"/>
<feComposite in2="hardAlpha" operator="out"/>
<feColorMatrix type="matrix" values="0 0 0 0 0 0 0 0 0 0 0 0 0 0 0 0 0 0 0.1 0"/>
<feBlend mode="normal" in2="BackgroundImageFix" result="effect1_dropShadow_1100_776"/>
<feBlend mode="normal" in="SourceGraphic" in2="effect1_dropShadow_1100_776" result="shape"/>
</filter>
<clipPath id="clip0_1100_776">
<rect width="80" height="27.936" fill="white" transform="translate(47 73)"/>
</clipPath>
</defs>
</svg>
