<svg width="174" height="174" viewBox="0 0 174 174" fill="none" xmlns="http://www.w3.org/2000/svg">
<g filter="url(#filter0_d_1100_776)">
<rect x="87" y="16" width="100" height="100" rx="10" transform="rotate(45 87 16)" fill="white"/>
</g>
<g clip-path="url(#clip0_1100_776)">
<path fill-rule="evenodd" clip-rule="evenodd" d="M61.7748 105.55V100.985C61.7748 100.385 62.1498 99.903 62.7709 99.903H62.9428C63.5636 99.903 63.937 100.385 63.937 100.985V110.596C63.937 112.94 62.779 114.805 60.7612 115.993C59.8368 116.54 58.7817 116.828 57.7073 116.826H57.2785C54.9342 116.826 53.0717 115.667 51.8817 113.65C51.3333 112.726 51.0456 111.671 51.0491 110.596V110.168C51.0491 107.823 52.2076 105.959 54.2238 104.769C55.1479 104.22 56.2036 103.932 57.2785 103.936H57.7073C59.2938 103.936 60.6398 104.551 61.7748 105.55V105.55ZM53.2109 110.381C53.2109 112.075 54.0315 113.347 55.5151 114.159C56.115 114.488 56.7662 114.664 57.4506 114.664C59.1124 114.664 60.3452 113.88 61.1953 112.472C61.5907 111.816 61.7748 111.1 61.7748 110.338C61.7748 108.87 61.0801 107.725 59.8973 106.874C59.1803 106.358 58.3731 106.1 57.4927 106.1C55.6814 106.1 54.3778 107.015 53.5954 108.64C53.3315 109.19 53.2109 109.774 53.2109 110.381V110.381ZM71.4375 103.936H71.7372C74.2422 103.936 76.1473 105.151 77.3547 107.338C77.8374 108.213 78.0957 109.167 78.0957 110.168V110.596C78.0957 112.94 76.94 114.807 74.9191 115.993C73.9836 116.542 72.9501 116.826 71.8658 116.826H71.4375C69.0932 116.826 67.2302 115.667 66.0407 113.65C65.4921 112.726 65.2041 111.671 65.2073 110.596V110.168C65.2073 107.823 66.3705 105.965 68.3817 104.77C69.3167 104.214 70.351 103.936 71.4375 103.936ZM67.3694 110.381C67.3694 112.025 68.1758 113.234 69.5639 114.084C70.2157 114.483 70.9336 114.664 71.695 114.664C73.3189 114.664 74.5193 113.84 75.3547 112.47C75.7531 111.816 75.9333 111.099 75.9333 110.338C75.9333 108.809 75.1973 107.642 73.9389 106.796C73.2495 106.332 72.4819 106.1 71.6515 106.1C69.8401 106.1 68.5366 107.015 67.7545 108.64C67.49 109.19 67.3694 109.774 67.3694 110.381V110.381ZM87.0837 106.272C86.7573 106.119 86.1462 106.069 85.7936 106.055C83.9872 105.987 82.6803 107.005 81.9135 108.598C81.6487 109.148 81.5279 109.729 81.5279 110.338C81.5279 112.19 82.5003 113.486 84.1532 114.277C84.757 114.565 85.5366 114.62 86.1965 114.62C86.7768 114.62 87.5971 114.264 88.1122 114.02L88.2015 113.977H88.6013L88.6454 113.986C89.137 114.089 89.5081 114.4 89.5081 114.929V115.143C89.5081 116.46 87.1024 116.761 86.1845 116.825C82.9451 117.049 80.5223 115.27 79.5988 112.18C79.4384 111.644 79.3661 111.111 79.3661 110.552V110.124C79.3661 107.779 80.5296 105.922 82.5405 104.728C83.4755 104.172 84.5095 103.893 85.5957 103.893H86.0243C87.1766 103.893 88.238 104.221 89.1895 104.871L89.2676 104.925L89.317 105.006C89.4197 105.176 89.5081 105.373 89.5081 105.576V105.79C89.5081 106.342 89.0952 106.639 88.5968 106.735L88.5556 106.742H88.4278C88.1052 106.742 87.3717 106.408 87.0837 106.272V106.272ZM94.0966 107.736C94.9364 106.895 95.7791 106.056 96.6315 105.229C96.8689 104.998 97.7682 104.022 98.1222 104.022H98.5095L98.5536 104.031C99.0469 104.133 99.4163 104.446 99.4163 104.976V105.19C99.4163 105.551 98.9928 105.971 98.7592 106.219C98.2626 106.745 97.7397 107.255 97.2313 107.77L94.6192 110.422C95.7439 111.549 96.8675 112.677 97.983 113.813C98.2924 114.127 98.5994 114.443 98.9041 114.761C99.0115 114.874 99.17 115.014 99.2601 115.171C99.3569 115.318 99.4163 115.483 99.4163 115.66V115.883L99.4038 115.934C99.2824 116.428 98.9693 116.826 98.4227 116.826H98.2506C97.8929 116.826 97.4889 116.421 97.2439 116.19C96.7389 115.714 96.2514 115.213 95.7565 114.727L94.0966 113.097V115.702C94.0966 116.302 93.721 116.784 93.1008 116.784H92.9306C92.3095 116.784 91.9345 116.302 91.9345 115.702V101.027C91.9345 100.427 92.3097 99.9468 92.9306 99.9468H93.1008C93.721 99.9468 94.0966 100.427 94.0966 101.027V107.736V107.736ZM121.043 104.022H121.258C121.907 104.022 122.339 104.459 122.339 105.104C122.339 105.999 121.484 106.228 120.743 106.228C119.772 106.228 118.845 106.816 118.176 107.475C117.341 108.298 116.976 109.352 116.976 110.51V115.744C116.976 116.344 116.601 116.826 115.98 116.826H115.809C115.188 116.826 114.813 116.344 114.813 115.744V110.21C114.813 108.084 115.848 106.349 117.573 105.133C118.603 104.406 119.782 104.022 121.043 104.022V104.022ZM105.677 114.395C106.463 114.669 107.361 114.63 108.168 114.489C108.581 114.314 109.636 113.853 110.025 113.921L110.085 113.931L110.141 113.958C110.378 114.073 110.605 114.236 110.726 114.477C111.009 115.043 110.873 115.612 110.317 115.933L110.132 116.04C108.081 117.223 105.9 117.059 103.856 115.954C102.878 115.425 102.13 114.641 101.579 113.685L101.45 113.461C100.133 111.181 100.311 108.783 101.796 106.614C102.308 105.865 102.978 105.286 103.761 104.833L104.058 104.662C105.989 103.547 108.059 103.624 110.043 104.602C111.109 105.128 111.974 105.913 112.569 106.944L112.676 107.13C113.109 107.88 112.548 108.532 111.97 108.979C111.299 109.497 110.621 110.12 109.977 110.675C108.543 111.914 107.11 113.155 105.677 114.395V114.395ZM103.82 113.09C105.424 111.715 107.029 110.338 108.629 108.957C109.176 108.485 109.776 107.996 110.318 107.5C109.883 106.951 109.156 106.556 108.538 106.32C107.291 105.845 106.061 106.005 104.917 106.665C103.421 107.529 102.783 108.905 102.839 110.618C102.861 111.293 103.042 111.943 103.4 112.517C103.527 112.719 103.667 112.909 103.82 113.09ZM92.1518 69.7654H98.5318V76.2875H101.758C103.248 76.2875 104.78 76.0221 106.19 75.5442C106.884 75.3089 107.662 74.9819 108.345 74.5704C107.445 73.3946 106.985 71.9099 106.85 70.4465C106.666 68.4557 107.068 65.8647 108.415 64.3067L109.085 63.531L109.885 64.1736C111.897 65.79 113.589 68.0489 113.887 70.624C116.31 69.9113 119.154 70.0799 121.29 71.3123L122.166 71.8179L121.705 72.718C119.899 76.2425 116.123 77.3346 112.431 77.1413C106.908 90.8993 94.8817 97.4127 80.3005 97.4127C72.767 97.4127 65.8558 94.5966 61.9199 87.913L61.8555 87.8042L61.2821 86.6373C59.9517 83.6954 59.5098 80.4724 59.8094 77.252L59.8996 76.2875H65.3555V69.7654H71.7352V63.3854H84.4956V57.0054H92.1518V69.7654Z" fill="#364548"/>
<path fill-rule="evenodd" clip-rule="evenodd" d="M112.822 72.1785C113.25 68.8537 110.762 66.2424 109.219 65.0024C107.441 67.0582 107.164 72.4461 109.954 74.7145C108.397 76.0973 105.117 77.3507 101.758 77.3507H60.8689C60.5424 80.8571 61.1579 84.0861 62.5639 86.8498L63.029 87.7008C63.3235 88.2003 63.6453 88.6832 63.993 89.1473C65.6741 89.2552 67.2241 89.2923 68.642 89.2611H68.6426C71.4291 89.1997 73.7029 88.8705 75.4261 88.2734C75.5479 88.2355 75.6797 88.2465 75.7936 88.304C75.9074 88.3615 75.9945 88.4611 76.0363 88.5816C76.078 88.7022 76.0713 88.8342 76.0175 88.9499C75.9636 89.0656 75.8669 89.1557 75.7478 89.2014C75.5184 89.2812 75.2796 89.3554 75.0329 89.426H75.0321C73.6752 89.8135 72.2201 90.0742 70.3429 90.1899C70.4545 90.1919 70.2268 90.2067 70.2263 90.2067C70.1624 90.2109 70.082 90.2201 70.0179 90.2234C69.279 90.265 68.4816 90.2736 67.6663 90.2736C66.7746 90.2736 65.8965 90.2569 64.9146 90.2067L64.8895 90.2234C68.2963 94.0527 73.6233 96.3493 80.3008 96.3493C94.4325 96.3493 106.419 90.0848 111.727 76.0209C115.493 76.4073 119.112 75.4469 120.758 72.2332C118.136 70.7201 114.764 71.2025 112.822 72.1785" fill="#22A0C8"/>
<path fill-rule="evenodd" clip-rule="evenodd" d="M112.822 72.1785C113.25 68.8537 110.762 66.2424 109.219 65.0024C107.441 67.0582 107.164 72.4461 109.954 74.7145C108.397 76.0973 105.117 77.3507 101.758 77.3507H63.2902C63.1234 82.7207 65.1161 86.7968 68.6418 89.2611H68.6426C71.4292 89.1997 73.7029 88.8705 75.4261 88.2734C75.5479 88.2355 75.6797 88.2465 75.7936 88.304C75.9075 88.3615 75.9945 88.4611 76.0363 88.5816C76.0781 88.7022 76.0714 88.8343 76.0175 88.9499C75.9637 89.0656 75.867 89.1558 75.7478 89.2014C75.5185 89.2812 75.2796 89.3554 75.033 89.426H75.0321C73.6753 89.8136 72.0952 90.1077 70.218 90.2235C70.2174 90.2235 70.1725 90.1802 70.1719 90.1802C74.9814 92.6473 81.9549 92.6384 89.9501 89.5672C98.915 86.123 107.257 79.5616 113.078 72.0569C112.99 72.0965 112.905 72.1369 112.822 72.1785" fill="#37B1D9"/>
<path fill-rule="evenodd" clip-rule="evenodd" d="M60.9456 81.6108C61.1995 83.4892 61.7491 85.2478 62.5639 86.8497L63.029 87.7007C63.3234 88.2002 63.6453 88.6831 63.993 89.1471C65.6744 89.2551 67.2243 89.2922 68.6426 89.261C71.4291 89.1996 73.7028 88.8703 75.4261 88.2732C75.5479 88.2353 75.6797 88.2463 75.7935 88.3038C75.9074 88.3614 75.9945 88.4609 76.0362 88.5815C76.078 88.702 76.0713 88.8341 76.0175 88.9497C75.9636 89.0654 75.8669 89.1556 75.7478 89.2012C75.5184 89.281 75.2796 89.3553 75.0329 89.4259H75.0321C73.6752 89.8134 72.1035 90.0908 70.2263 90.2068C70.1618 90.2107 70.0494 90.2116 69.9844 90.2152C69.2461 90.2565 68.4567 90.2819 67.6412 90.2819C66.7497 90.2819 65.8379 90.2649 64.8566 90.2149C68.2634 94.0442 73.6233 96.3491 80.3008 96.3491C92.399 96.3491 102.925 91.757 109.034 81.6108H60.9456Z" fill="#1B81A5"/>
<path fill-rule="evenodd" clip-rule="evenodd" d="M63.6582 81.6108C64.3814 84.9088 66.1194 87.4978 68.6426 89.261C71.4291 89.1996 73.7028 88.8703 75.4261 88.2732C75.5479 88.2353 75.6797 88.2463 75.7935 88.3038C75.9074 88.3614 75.9945 88.4609 76.0362 88.5815C76.078 88.702 76.0713 88.8341 76.0175 88.9497C75.9636 89.0654 75.8669 89.1556 75.7478 89.2012C75.5184 89.281 75.2796 89.3553 75.0329 89.4259H75.0321C73.6752 89.8134 72.0703 90.0908 70.1928 90.2068C75.002 92.6733 81.9554 92.6379 89.9501 89.567C94.7866 87.7088 99.4414 84.9426 103.617 81.6108H63.6582Z" fill="#1D91B4"/>
<path fill-rule="evenodd" clip-rule="evenodd" d="M66.4185 70.8287H71.948V76.3583H66.4185V70.8287ZM66.8791 71.2897H67.3155V75.8976H66.8791V71.2897ZM67.6994 71.2897H68.1534V75.8976H67.6997V71.2897H67.6994ZM68.537 71.2897H68.991V75.8976H68.537V71.2897ZM69.3752 71.2897H69.8289V75.8976H69.3752V71.2897ZM70.2131 71.2897H70.6668V75.8976H70.2131V71.2897ZM71.0507 71.2897H71.4874V75.8976H71.0507V71.2897ZM72.7985 64.4487H78.3283V69.978H72.7982V64.4487H72.7985ZM73.2594 64.9097H73.6955V69.5174H73.2594V64.9097ZM74.0797 64.9097H74.5334V69.5174H74.08V64.9097H74.0797ZM74.9173 64.9097H75.371V69.5174H74.9173V64.9097ZM75.7552 64.9097H76.2089V69.5174H75.7552V64.9097ZM76.5931 64.9097H77.0471V69.5174H76.5931V64.9097ZM77.4307 64.9097H77.8677V69.5174H77.4307V64.9097Z" fill="#23A3C2"/>
<path fill-rule="evenodd" clip-rule="evenodd" d="M72.7986 70.8286H78.3285V76.3582H72.7983V70.8286H72.7986ZM73.2596 71.2896H73.6957V75.8975H73.2596V71.2896ZM74.0799 71.2896H74.5336V75.8975H74.0801V71.2896H74.0799ZM74.9175 71.2896H75.3712V75.8975H74.9175V71.2896ZM75.7554 71.2896H76.2091V75.8975H75.7554V71.2896ZM76.5933 71.2896H77.0472V75.8975H76.5933V71.2896ZM77.4309 71.2896H77.8678V75.8975H77.4309V71.2896Z" fill="#34BBDE"/>
<path fill-rule="evenodd" clip-rule="evenodd" d="M79.179 70.8286H84.7085V76.3582H79.179V70.8286ZM79.6396 71.2896H80.0757V75.8975H79.6396V71.2896ZM80.4599 71.2896H80.9136V75.8975H80.4599V71.2896ZM81.2978 71.2896H81.7515V75.8975H81.2978V71.2896ZM82.1357 71.2896H82.5894V75.8975H82.1357V71.2896ZM82.9733 71.2896H83.4275V75.8975H82.9733V71.2896ZM83.8112 71.2896H84.2476V75.8975H83.8112V71.2896V71.2896Z" fill="#23A3C2"/>
<path fill-rule="evenodd" clip-rule="evenodd" d="M79.179 64.4487H84.7085V69.978H79.179V64.4487ZM79.6396 64.9097H80.0757V69.5174H79.6396V64.9097ZM80.4599 64.9097H80.9136V69.5174H80.4599V64.9097ZM81.2978 64.9097H81.7515V69.5174H81.2978V64.9097ZM82.1357 64.9097H82.5894V69.5174H82.1357V64.9097ZM82.9733 64.9097H83.4276V69.5174H82.9733V64.9097ZM83.8112 64.9097H84.2476V69.5174H83.8112V64.9097V64.9097ZM85.559 70.8287H91.0886V76.3583H85.559V70.8287ZM86.0199 71.2897H86.456V75.8976H86.0199V71.2897ZM86.8402 71.2897H87.2939V75.8976H86.8402V71.2897ZM87.6778 71.2897H88.1315V75.8976H87.6778V71.2897ZM88.5157 71.2897H88.9697V75.8976H88.5157V71.2897ZM89.3536 71.2897H89.8076V75.8976H89.3536V71.2897ZM90.1915 71.2897H90.6279V75.8976H90.1915V71.2897Z" fill="#34BBDE"/>
<path fill-rule="evenodd" clip-rule="evenodd" d="M85.5588 64.4487H91.0884V69.978H85.5588V64.4487ZM86.0198 64.9097H86.4559V69.5174H86.0198V64.9097ZM86.8401 64.9097H87.2938V69.5174H86.8401V64.9097ZM87.6777 64.9097H88.1314V69.5174H87.6777V64.9097ZM88.5156 64.9097H88.9696V69.5174H88.5156V64.9097ZM89.3535 64.9097H89.8074V69.5174H89.3535V64.9097ZM90.1914 64.9097H90.6278V69.5174H90.1914V64.9097Z" fill="#23A3C2"/>
<path fill-rule="evenodd" clip-rule="evenodd" d="M85.5588 58.0684H91.0884V63.5985H85.5588V58.0684ZM86.0198 58.529H86.4559V63.1373H86.0198V58.5287V58.529ZM86.8401 58.529H87.2938V63.1373H86.8401V58.5287V58.529ZM87.6777 58.529H88.1314V63.1373H87.6777V58.5287V58.529ZM88.5156 58.529H88.9696V63.1373H88.5156V58.5287V58.529ZM89.3535 58.529H89.8074V63.1373H89.3535V58.5287V58.529ZM90.1914 58.529H90.6278V63.1373H90.1914V58.5287V58.529Z" fill="#34BBDE"/>
<path fill-rule="evenodd" clip-rule="evenodd" d="M91.939 70.8286H97.4685V76.3582H91.939V70.8286ZM92.3993 71.2896H92.836V75.8975H92.3996V71.2896H92.3993ZM93.2196 71.2896H93.6736V75.8975H93.2199V71.2896H93.2196ZM94.0578 71.2896H94.5118V75.8975H94.0578V71.2896ZM94.8954 71.2896H95.3494V75.8975H94.8954V71.2896ZM95.7336 71.2896H96.1873V75.8975H95.7336V71.2896ZM96.5712 71.2896H97.0076V75.8975H96.5712V71.2896Z" fill="#23A3C2"/>
<path fill-rule="evenodd" clip-rule="evenodd" d="M77.9821 85.3234C78.1842 85.3207 78.3848 85.3582 78.5723 85.4336C78.7597 85.5091 78.9304 85.6211 79.0742 85.763C79.218 85.905 79.3322 86.0741 79.4102 86.2606C79.4881 86.447 79.5282 86.6471 79.5282 86.8492C79.5281 87.0513 79.4879 87.2513 79.4099 87.4378C79.3319 87.6242 79.2177 87.7933 79.0738 87.9352C78.9299 88.0771 78.7593 88.189 78.5718 88.2644C78.3843 88.3398 78.1837 88.3772 77.9816 88.3744C77.5806 88.3689 77.1978 88.2058 76.9162 87.9202C76.6346 87.6347 76.4767 87.2497 76.4768 86.8486C76.4769 86.4476 76.6349 86.0627 76.9166 85.7772C77.1983 85.4918 77.5811 85.3287 77.9821 85.3234Z" fill="#D3ECEC"/>
<path fill-rule="evenodd" clip-rule="evenodd" d="M77.9821 85.7562C78.1217 85.7562 78.2547 85.7825 78.3775 85.8302C78.2928 85.8794 78.2266 85.9551 78.1892 86.0456C78.1519 86.1362 78.1453 86.2365 78.1707 86.3311C78.196 86.4257 78.2518 86.5094 78.3294 86.5691C78.4071 86.6289 78.5022 86.6614 78.6002 86.6617C78.769 86.6617 78.9155 86.5682 78.9914 86.4298C79.0812 86.6463 79.0991 86.8859 79.0423 87.1133C78.9855 87.3406 78.8571 87.5437 78.676 87.6925C78.4949 87.8413 78.2708 87.928 78.0367 87.9396C77.8026 87.9512 77.571 87.8873 77.3761 87.7572C77.1811 87.6271 77.0332 87.4377 76.9541 87.2171C76.8751 86.9965 76.8691 86.7562 76.937 86.5319C77.005 86.3076 77.1432 86.1111 77.3314 85.9714C77.5196 85.8318 77.7478 85.7563 77.9821 85.7562V85.7562ZM51 82.1622H121.962C120.417 81.7705 117.073 81.2409 117.625 79.2158C114.815 82.4669 108.04 81.4968 106.33 79.8938C104.426 82.6555 93.3401 81.6056 92.567 79.4541C90.1797 82.2557 82.7826 82.2557 80.3954 79.4541C79.6217 81.6056 68.5366 82.6555 66.6323 79.8936C64.9224 81.4968 58.1473 82.4669 55.3376 79.2161C55.889 81.2409 52.5455 81.7705 51 82.1625" fill="#364548"/>
<path fill-rule="evenodd" clip-rule="evenodd" d="M82.037 96.3163C78.2591 94.5236 76.1857 92.0864 75.032 89.4263C73.6285 89.8267 71.9419 90.0828 69.9818 90.1927C69.2435 90.234 68.4667 90.2552 67.652 90.2552C66.7122 90.2552 65.722 90.2273 64.6824 90.1724C68.1469 93.635 72.4089 96.3007 80.3007 96.3492C80.8832 96.3492 81.4614 96.3381 82.037 96.3163" fill="#BDD9D7"/>
<path fill-rule="evenodd" clip-rule="evenodd" d="M76.4354 91.8812C75.9128 91.1716 75.4058 90.2799 75.033 89.4258C73.6296 89.8267 71.9423 90.0829 69.9819 90.1931C71.3285 90.9238 73.254 91.601 76.4357 91.8812" fill="#D3ECEC"/>
</g>
<defs>
<filter id="filter0_d_1100_776" x="0.431396" y="0.14209" width="173.137" height="173.137" filterUnits="userSpaceOnUse" color-interpolation-filters="sRGB">
<feFlood flood-opacity="0" result="BackgroundImageFix"/>
<feColorMatrix in="SourceAlpha" type="matrix" values="0 0 0 0 0 0 0 0 0 0 0 0 0 0 0 0 0 0 127 0" result="hardAlpha"/>
<feOffset/>
<feGaussianBlur stdDeviation="10"/>
<feComposite in2="hardAlpha" operator="out"/>
<feColorMatrix type="matrix" values="0 0 0 0 0 0 0 0 0 0 0 0 0 0 0 0 0 0 0.1 0"/>
<feBlend mode="normal" in2="BackgroundImageFix" result="effect1_dropShadow_1100_776"/>
<feBlend mode="normal" in="SourceGraphic" in2="effect1_dropShadow_1100_776" result="shape"/>
</filter>
<clipPath id="clip0_1100_776">
<rect width="71.4286" height="60" fill="white" transform="translate(51 57)"/>
</clipPath>
</defs>
</svg>
