<svg width="174" height="174" viewBox="0 0 174 174" fill="none" xmlns="http://www.w3.org/2000/svg">
<g filter="url(#filter0_d_1100_776)">
<rect x="87" y="16" width="100" height="100" rx="10" transform="rotate(45 87 16)" fill="white"/>
</g>
<g clip-path="url(#clip0_1100_776)">
<path d="M110.076 88.0972C110.076 87.9827 110.044 87.9009 109.98 87.8476C109.908 87.7901 109.785 87.7594 109.613 87.7594H109.365V88.4392H109.664C109.939 88.4392 110.075 88.3247 110.075 88.0972H110.076ZM110.461 89.5143H110.121L109.904 89.0362C109.794 88.7964 109.677 88.6766 109.548 88.6766H109.365V89.5143H109.085V87.5208H109.646C109.896 87.5208 110.083 87.5748 110.212 87.6875C110.321 87.7845 110.375 87.9086 110.375 88.0631C110.375 88.2006 110.331 88.3162 110.241 88.4121C110.154 88.5087 110.029 88.5743 109.869 88.6081V88.6166C109.98 88.6427 110.091 88.7647 110.199 88.9848L110.461 89.5154V89.5143V89.5143ZM111.082 88.5372C111.082 88.1449 110.948 87.8138 110.681 87.5511C110.413 87.2888 110.086 87.1569 109.701 87.1569C109.303 87.1569 108.972 87.2888 108.71 87.5535C108.447 87.8194 108.316 88.1483 108.316 88.5372C108.316 88.9349 108.452 89.2671 108.723 89.5319C108.989 89.7964 109.316 89.9272 109.701 89.9272C110.083 89.9272 110.41 89.7953 110.679 89.5274C110.948 89.2636 111.082 88.9325 111.082 88.5372H111.082ZM111.27 88.5285C111.27 88.9688 111.119 89.3382 110.815 89.6352C110.511 89.9349 110.139 90.0841 109.693 90.0841C109.244 90.0841 108.872 89.937 108.576 89.6483C108.279 89.3553 108.132 88.9871 108.132 88.5404C108.132 88.1036 108.283 87.7365 108.583 87.435C108.884 87.134 109.259 86.984 109.706 86.984C110.145 86.984 110.513 87.1279 110.812 87.4142C111.118 87.7083 111.27 88.0786 111.27 88.5285V88.5285ZM68.6627 94.0876H67.6963V88.5578C67.6963 88.1209 67.7251 87.5895 67.7762 86.9622H67.7549C67.6644 87.329 67.5815 87.5948 67.5085 87.7594L64.7002 94.0876H64.2295L61.4155 87.8053C61.3364 87.6297 61.2533 87.3476 61.1694 86.9619H61.1486C61.1779 87.2922 61.1947 87.8271 61.1947 88.5687V94.0876H60.2632V85.8528H61.5378L64.0641 91.5947C64.2548 92.0273 64.3778 92.3565 64.4378 92.5808H64.4777C64.6424 92.1306 64.7729 91.7931 64.872 91.5707L67.4529 85.8528H68.6622V94.0874H68.6625L68.6627 94.0876ZM71.6346 94.0874H70.6957V88.2069H71.6346V94.0874ZM71.7971 86.0989C71.7971 86.272 71.7359 86.4169 71.6152 86.5357C71.4964 86.6545 71.3494 86.7142 71.1773 86.7142C71.0095 86.7142 70.8635 86.6569 70.7436 86.5424C70.6238 86.4268 70.5652 86.2797 70.5652 86.0989C70.5652 85.9289 70.6243 85.784 70.7436 85.6666C70.8004 85.6098 70.8681 85.5651 70.9427 85.5351C71.0172 85.5051 71.097 85.4905 71.1773 85.4921C71.3494 85.4921 71.4964 85.5488 71.6152 85.6666C71.7361 85.784 71.7971 85.9289 71.7971 86.0989ZM77.5031 93.8151C77.0521 94.0919 76.5138 94.2291 75.8918 94.2291C75.0488 94.2291 74.37 93.9494 73.8514 93.3903C73.348 92.8479 73.0944 92.1474 73.0944 91.2889C73.0944 90.3259 73.3701 89.546 73.9255 88.9533C74.4779 88.3596 75.2208 88.0634 76.1555 88.0634C76.6664 88.0634 77.1198 88.1635 77.5162 88.3617V89.3281C77.0772 89.0199 76.6132 88.8673 76.115 88.8673C75.516 88.8673 75.029 89.0764 74.6511 89.4938C74.2579 89.9208 74.0584 90.4916 74.0584 91.2039C74.0584 91.8882 74.2403 92.4295 74.602 92.8293C74.9648 93.227 75.4475 93.4262 76.0564 93.4262C76.5705 93.4262 77.0521 93.2574 77.5028 92.9209V93.8151H77.5031ZM81.9947 89.1611C81.829 89.0335 81.5903 88.9714 81.2755 88.9714C80.8932 88.9714 80.5717 89.1424 80.3115 89.4877C80.0163 89.8734 79.8693 90.4072 79.8693 91.0891V94.0871H78.9279V88.2067H79.8693V89.4192H79.8919C80.0305 88.9898 80.2438 88.6598 80.5291 88.4256C80.796 88.212 81.0978 88.1041 81.43 88.1041C81.6806 88.1041 81.8668 88.1313 81.9944 88.1843V89.1611H81.9947ZM87.2404 91.1578C87.2404 90.405 87.0704 89.83 86.7305 89.4355C86.4005 89.0564 85.9394 88.8668 85.3459 88.8668C84.761 88.8668 84.2914 89.0585 83.9406 89.4421C83.5692 89.8515 83.3838 90.4301 83.3838 91.1807C83.3838 91.8845 83.5604 92.4367 83.9166 92.8309C84.2709 93.2275 84.7477 93.4257 85.3459 93.4257C85.9647 93.4257 86.4386 93.2243 86.763 92.8234C87.0814 92.4313 87.2404 91.8768 87.2404 91.1578V91.1578ZM88.2054 91.1245C88.2054 92.0616 87.9409 92.8144 87.4135 93.3786C86.8842 93.9451 86.1717 94.2283 85.2761 94.2283C84.3939 94.2283 83.6912 93.9451 83.1761 93.3786C82.6716 92.8328 82.4177 92.1117 82.4177 91.2151C82.4177 90.1922 82.7043 89.4035 83.2794 88.8436C83.8111 88.3242 84.5223 88.0626 85.4136 88.0626C86.2905 88.0626 86.9756 88.3359 87.4692 88.8774C87.9583 89.4219 88.2054 90.1714 88.2054 91.1245ZM92.8734 92.5142C92.8734 92.9955 92.6936 93.3943 92.3329 93.7123C91.9397 94.0565 91.3995 94.2288 90.7197 94.2288C90.163 94.2288 89.675 94.1121 89.2611 93.8745V92.8626C89.7219 93.2374 90.2307 93.426 90.7895 93.426C91.5346 93.426 91.9083 93.1516 91.9083 92.6045C91.9083 92.3746 91.8263 92.1839 91.6608 92.0371C91.4954 91.8866 91.1739 91.7068 90.6958 91.4964C90.2032 91.2809 89.8524 91.0598 89.6457 90.8299C89.3972 90.5574 89.272 90.2037 89.272 89.7679C89.272 89.2796 89.467 88.8734 89.8527 88.5498C90.2392 88.2253 90.736 88.0628 91.346 88.0628C91.8135 88.0628 92.2317 88.1545 92.6033 88.3385V89.2863C92.2154 89.0063 91.7722 88.8668 91.2687 88.8668C90.9571 88.8668 90.7067 88.9445 90.5202 89.0958C90.3319 89.2503 90.2371 89.4474 90.2371 89.6882C90.2371 89.9488 90.3165 90.1512 90.4736 90.2961C90.6129 90.4301 90.9091 90.5936 91.3558 90.7841C91.858 90.9945 92.2208 91.2124 92.4418 91.4356C92.7285 91.718 92.8734 92.0773 92.8734 92.5142V92.5142ZM98.6257 91.1578C98.6257 90.405 98.4558 89.83 98.1148 89.4355C97.7858 89.0564 97.3237 88.8668 96.7313 88.8668C96.1463 88.8668 95.6767 89.0585 95.3237 89.4421C94.9535 89.8515 94.7691 90.4301 94.7691 91.1807C94.7691 91.8845 94.9458 92.4367 95.2987 92.8309C95.657 93.2275 96.1343 93.4257 96.7313 93.4257C97.3511 93.4257 97.8239 93.2243 98.1484 92.8234C98.4664 92.4313 98.6257 91.8768 98.6257 91.1578V91.1578ZM99.5929 91.1245C99.5929 92.0616 99.326 92.8144 98.7978 93.3786C98.2704 93.9451 97.5581 94.2283 96.6625 94.2283C95.779 94.2283 95.0763 93.9451 94.5611 93.3786C94.0569 92.8328 93.803 92.1117 93.803 91.2151C93.803 90.1922 94.0915 89.4035 94.6634 88.8436C95.1951 88.3242 95.9076 88.0626 96.7997 88.0626C97.6769 88.0626 98.3607 88.3359 98.8534 88.8774C99.3436 89.4219 99.5929 90.1714 99.5929 91.1245ZM103.74 86.2089C103.555 86.1063 103.35 86.0541 103.115 86.0541C102.456 86.0541 102.129 86.4691 102.129 87.3005V88.2067H103.507V89.0042H102.129V94.0871H101.187V89.0039H100.187V88.2064H101.187V87.2533C101.187 86.6061 101.385 86.0983 101.788 85.7324C102.134 85.4143 102.556 85.2563 103.058 85.2563C103.35 85.2563 103.576 85.2912 103.74 85.3589V86.2086V86.2089ZM107.455 94.028C107.233 94.1556 106.937 94.2187 106.571 94.2187C105.545 94.2187 105.032 93.6401 105.032 92.4833V89.005H104.023V88.2064H105.032V86.7717C105.332 86.6769 105.645 86.5736 105.975 86.4667V88.2064H107.455V89.005H105.975V92.3232C105.975 92.7174 106.039 92.9998 106.174 93.1631C106.311 93.3319 106.533 93.4148 106.847 93.4148C107.081 93.4148 107.283 93.3519 107.455 93.2251V94.028V94.028Z" fill="black"/>
<path d="M56.5732 117.038C56.5732 117.498 56.4088 117.897 56.0767 118.234C55.7453 118.569 55.3433 118.738 54.8716 118.738C54.4108 118.738 54.0187 118.569 53.6974 118.234C53.3759 117.897 53.2158 117.498 53.2158 117.038C53.2158 116.563 53.3759 116.164 53.6974 115.833C54.0187 115.5 54.4108 115.336 54.8716 115.336C55.3433 115.336 55.7453 115.503 56.0767 115.839C56.4088 116.176 56.5732 116.576 56.5732 117.038V117.038ZM77.6478 118.392H74.5781L63.4349 101.183C63.1669 100.754 62.9407 100.3 62.7594 99.8278H62.6678C62.7472 100.289 62.7876 101.278 62.7876 102.793V118.392H60.2571V96.8016H63.5415L74.3514 113.739C74.7819 114.411 75.0759 114.893 75.2251 115.183H75.2853C75.1849 114.561 75.1327 113.503 75.1327 112.008V96.8016H77.648V118.392H77.6478ZM93.8712 118.392H82.4284V96.8016H93.3744V99.0895H84.957V106.271H92.757V108.56H84.9568V116.103H93.8709V118.392H93.8712ZM111.228 99.0897H105.009V118.392H102.479V99.0897H96.2483V96.8008H111.228V99.0897H111.228Z" fill="black"/>
<path d="M76.7898 59.5109C79.2309 66.9763 80.1557 80.2938 87.2945 80.2938C87.8379 80.2938 88.3872 80.2405 88.9383 80.1356C82.4489 78.6226 81.6796 65.45 77.72 58.6284C77.4041 58.9165 77.0939 59.2107 76.7896 59.5109" fill="url(#paint0_linear_1100_776)"/>
<path d="M77.72 58.6286C81.6799 65.4501 82.4489 78.6228 88.9383 80.1358C89.4481 80.0423 89.959 79.9006 90.471 79.7218C84.6462 76.8682 83.0362 64.0765 78.5391 57.9185C78.2615 58.15 77.9884 58.3868 77.72 58.6289" fill="url(#paint1_linear_1100_776)"/>
<path d="M83.4254 54.5713C82.8831 54.5713 82.3328 54.6246 81.7806 54.7295C80.336 55.0018 78.8686 55.6238 77.3894 56.5649C77.7935 56.9636 78.1779 57.4199 78.5396 57.918C80.0441 56.6695 81.5387 55.7471 83.028 55.1925C83.5715 54.9891 84.1317 54.8334 84.7022 54.7271C84.2848 54.6221 83.8558 54.5698 83.4254 54.5713" fill="#14559A"/>
<path d="M95.018 77.091C95.6385 76.5952 96.2362 76.0714 96.809 75.5213C94.3286 68.0905 93.4408 54.5825 86.2519 54.5825C85.7378 54.5825 85.2192 54.6305 84.7017 54.7264C91.2499 56.355 92.0887 70.6016 95.0182 77.091" fill="url(#paint2_linear_1100_776)"/>
<path d="M84.7018 54.7269C84.2843 54.622 83.8554 54.5698 83.425 54.5713L86.2521 54.5817C85.738 54.5817 85.2193 54.6297 84.7018 54.7266" fill="#3092C4"/>
<path d="M94.8925 78.6698C94.6115 78.4018 94.3446 78.1077 94.082 77.7939C92.8726 78.6501 91.6681 79.2995 90.4707 79.7219C90.8981 79.9318 91.3506 80.086 91.8172 80.1806C92.1948 80.2571 92.5791 80.2951 92.9642 80.2941C94.3076 80.2941 95.3696 80.1351 96.274 79.7014C95.7758 79.4324 95.3195 79.0834 94.8925 78.6698" fill="#1969BC"/>
<path d="M83.0273 55.1938C88.8924 58.2613 89.4022 72.1532 94.0821 77.7939C94.4006 77.5689 94.7124 77.3346 95.0171 77.0913C92.0875 70.6019 91.2498 56.3541 84.7028 54.7266C84.132 54.834 83.5714 54.9903 83.0273 55.1938" fill="url(#paint3_linear_1100_776)"/>
<path d="M78.5391 57.9186C83.036 64.0766 84.6462 76.868 90.4709 79.722C91.6683 79.2995 92.8731 78.6501 94.0822 77.794C89.4023 72.1533 88.8924 58.2614 83.0274 55.1938C81.5384 55.7474 80.0435 56.6698 78.5391 57.9183" fill="url(#paint4_linear_1100_776)"/>
<path d="M73.9125 59.3313C73.2077 60.925 72.4877 63.0198 71.6172 65.7541C73.3483 63.3152 75.0739 61.2135 76.7899 59.5114C76.5536 58.7847 76.2997 58.1148 76.0262 57.5176C75.2895 58.0837 74.584 58.6893 73.9128 59.3316" fill="url(#paint5_linear_1100_776)"/>
<path d="M76.651 57.0576C76.4404 57.2075 76.2323 57.3608 76.0266 57.5174C76.3002 58.1143 76.5527 58.7842 76.7893 59.5109C77.0941 59.2113 77.4042 58.9171 77.7194 58.6284C77.3873 58.0576 77.0343 57.5304 76.651 57.0576" fill="#2B74B1"/>
<path d="M77.389 56.5652C77.1393 56.7239 76.8931 56.888 76.6506 57.0575C77.0342 57.5303 77.3869 58.0574 77.7204 58.6293C77.9882 58.3863 78.2613 58.1492 78.5394 57.9181C78.178 57.4203 77.7936 56.9637 77.3893 56.5649" fill="#125A9E"/>
<path d="M117.395 54.0029C114.078 66.7955 107.149 77.0703 101.34 79.6607H101.33C101.224 79.7087 101.119 79.7524 101.016 79.7947C101.002 79.8035 100.989 79.8046 100.978 79.8096C100.947 79.8219 100.919 79.8315 100.888 79.8437C100.874 79.8522 100.861 79.8552 100.848 79.8602C100.799 79.8778 100.751 79.8925 100.703 79.9116C100.683 79.9204 100.663 79.9258 100.643 79.9327C100.62 79.9417 100.596 79.9496 100.571 79.9561C100.55 79.9647 100.527 79.9711 100.502 79.9806C100.481 79.9892 100.459 79.9929 100.44 80.0014C100.397 80.0137 100.358 80.0241 100.315 80.0387C100.298 80.0387 100.282 80.0483 100.263 80.0531C100.237 80.0616 100.207 80.0677 100.179 80.0757C100.16 80.0843 100.143 80.0872 100.123 80.0914C100.093 80.1 100.061 80.108 100.031 80.1149L99.9199 80.1394C100.186 80.2375 100.467 80.2869 100.751 80.2854C106.259 80.2854 111.812 70.4147 121.001 54H117.393L117.395 54.0029V54.0029Z" fill="url(#paint6_linear_1100_776)"/>
<path d="M70.4211 55.0904C70.4245 55.0904 70.429 55.0819 70.4309 55.0819C70.4354 55.0819 70.4421 55.0819 70.4442 55.0734H70.4512C70.4815 55.0627 70.5098 55.0507 70.5404 55.0393C70.5484 55.0393 70.5524 55.0393 70.558 55.0307C70.5657 55.0307 70.5732 55.0219 70.5809 55.0209C70.6134 55.0105 70.6461 54.9982 70.6768 54.9871H70.6818C70.7548 54.9652 70.8225 54.938 70.8931 54.9127C70.9032 54.9127 70.9128 54.9042 70.9248 54.9042C70.9541 54.8946 70.9847 54.8842 71.0153 54.8773C71.0294 54.8685 71.0436 54.8685 71.0566 54.864C71.0881 54.8547 71.1187 54.844 71.148 54.8371C71.1613 54.8371 71.173 54.8283 71.1829 54.8275C71.2841 54.7995 71.3845 54.7734 71.4857 54.7492C71.4999 54.7492 71.5118 54.7404 71.527 54.7396C71.5563 54.7311 71.5838 54.7263 71.6155 54.722C71.6285 54.7135 71.6437 54.7135 71.6589 54.709C71.6882 54.7004 71.7167 54.6994 71.7484 54.6924H71.7689C71.8302 54.6799 71.8922 54.6698 71.9532 54.6583H71.9903C72.0196 54.6498 72.0457 54.6488 72.0752 54.6434C72.0912 54.6434 72.1077 54.6349 72.1232 54.6349C72.1503 54.6349 72.1775 54.6261 72.2047 54.6227C72.2191 54.6227 72.2329 54.6227 72.2494 54.6139C72.3136 54.6053 72.38 54.6019 72.4476 54.5966C72.2529 54.577 72.0573 54.5668 71.8616 54.5659C65.6588 54.5659 57.1126 66.0751 53.2629 80.9797H54.0048C55.2368 78.7826 56.3435 76.7041 57.3558 74.753C60.0517 64.1958 65.5432 56.9963 70.4213 55.0888" fill="url(#paint7_linear_1100_776)"/>
<path d="M73.9126 59.3312C74.5838 58.6889 75.2892 58.0834 76.0257 57.5172C75.8759 57.184 75.7079 56.8592 75.5225 56.5444C74.9552 57.233 74.4365 58.1416 73.9126 59.3312" fill="#0D82CA"/>
<path d="M74.4223 55.1779C74.8272 55.5178 75.1903 55.985 75.5224 56.5452C75.6271 56.4165 75.7329 56.2977 75.8426 56.1867C75.3818 55.7565 74.8842 55.4035 74.3438 55.1377C74.3656 55.1497 74.3874 55.1595 74.4101 55.1691C74.4101 55.1691 74.4186 55.1777 74.4223 55.1777" fill="#0D82CA"/>
<path d="M57.3552 74.7543C63.0114 63.8551 65.6911 56.9571 70.4211 55.0898C65.5441 56.9987 60.0515 64.1982 57.3555 74.7543" fill="url(#paint8_linear_1100_776)"/>
<path d="M75.8421 56.1865C75.7321 56.2987 75.6277 56.4164 75.522 56.5451C75.7075 56.8599 75.8758 57.1845 76.0262 57.5176C76.2318 57.3611 76.44 57.2079 76.6506 57.0581C76.4018 56.749 76.1317 56.4578 75.8421 56.1865" fill="#127BCA"/>
<path d="M59.9231 80.932C59.8882 80.9408 59.8533 80.9408 59.8205 80.9443H59.8011C59.7715 80.9443 59.7409 80.953 59.7137 80.953H59.6996C59.6288 80.9616 59.559 80.9616 59.4916 80.9669H59.4697C65.1943 80.8068 67.8109 77.9406 69.1097 73.7836C70.0967 70.6321 70.907 67.9772 71.6174 65.7495C69.2195 69.1245 66.811 73.1475 64.3894 77.6543C63.2216 79.8263 61.4459 80.7336 59.9228 80.928" fill="url(#paint9_linear_1100_776)"/>
<path d="M59.9231 80.9298C61.446 80.7359 63.2216 79.8297 64.3894 77.6561C66.811 73.1507 69.2208 69.1266 71.6161 65.7516C72.4876 63.016 73.2068 60.9223 73.9127 59.3286C69.138 63.8735 64.3446 71.4304 59.9229 80.9277" fill="url(#paint10_linear_1100_776)"/>
<path d="M57.3551 74.7549C56.3429 76.7058 55.2361 78.7843 54.0042 80.9816H56.162C56.4345 78.8843 56.833 76.8054 57.3551 74.7559" fill="#05A1E6"/>
<path d="M72.2491 54.6195C72.2316 54.6195 72.2185 54.628 72.2033 54.628C72.1772 54.6368 72.1501 54.6368 72.1226 54.6394C72.1066 54.6394 72.0912 54.6394 72.0747 54.6482C72.0454 54.6567 72.0182 54.6575 71.9897 54.6631C71.9766 54.6631 71.9636 54.6631 71.9527 54.6717C71.8906 54.682 71.8296 54.6935 71.7689 54.7039H71.7481C71.7164 54.7127 71.6879 54.7172 71.6586 54.7215C71.6434 54.73 71.6282 54.73 71.6138 54.7335C71.5845 54.7422 71.5552 54.7457 71.5267 54.751C71.5116 54.7596 71.4996 54.7596 71.4855 54.7604C71.3842 54.7849 71.2838 54.811 71.1826 54.8389C71.1719 54.8389 71.1607 54.8475 71.1477 54.8493C71.1173 54.8579 71.0878 54.8666 71.0561 54.8762C71.043 54.885 71.0278 54.885 71.0148 54.8885C70.9844 54.8969 70.9542 54.9059 70.9242 54.9154C70.9125 54.9154 70.9026 54.9239 70.8917 54.9239C70.8219 54.95 70.7532 54.9764 70.6813 54.998C70.6509 55.0076 70.6181 55.0198 70.5854 55.0313C70.5723 55.0398 70.5606 55.0419 70.5454 55.0478C70.5148 55.0574 70.4842 55.0696 70.4559 55.0808C70.4453 55.0896 70.4341 55.0904 70.4266 55.0949C65.6966 56.9622 63.0167 63.8599 57.3608 74.7591C56.8382 76.8085 56.4398 78.8876 56.168 80.985H56.4708C57.3238 80.985 57.5646 80.9762 58.5459 80.9762H59.4971C59.5645 80.9677 59.6343 80.9677 59.7049 80.9621H59.7182C59.7475 80.9621 59.7768 80.9536 59.8053 80.9536H59.8261C59.8575 80.9536 59.8935 80.945 59.9283 80.9413C64.3501 71.4441 69.1432 63.8871 73.9182 59.3422C74.443 58.1529 74.9606 57.2443 75.5271 56.5568C75.1958 55.9969 74.833 55.5286 74.4278 55.1887C74.4278 55.1887 74.4169 55.1887 74.4161 55.1799C74.3929 55.1706 74.3713 55.1591 74.3484 55.1479C74.3255 55.1354 74.3058 55.1258 74.2818 55.1138C74.2596 55.1045 74.2378 55.094 74.2166 55.0824C74.1883 55.0736 74.1654 55.0614 74.1404 55.0502C74.1196 55.0414 74.1012 55.0326 74.0805 55.0241C74.0383 55.0077 73.9965 54.9902 73.9553 54.9716C73.9366 54.9631 73.9193 54.9583 73.902 54.9516C73.8703 54.9401 73.8389 54.9276 73.808 54.9143C73.7928 54.9055 73.7755 54.9037 73.7579 54.8975C73.7134 54.8826 73.6697 54.8669 73.6284 54.8531H73.6175C73.5674 54.8365 73.5184 54.8243 73.4673 54.8104C73.4553 54.8017 73.4454 54.8017 73.4334 54.7998C73.3887 54.7878 73.3495 54.7758 73.3072 54.7644C73.2965 54.7644 73.2864 54.7556 73.2779 54.7556C73.1737 54.7289 73.0686 54.706 72.9628 54.6868C72.9521 54.6868 72.9412 54.6781 72.9303 54.6781C72.8852 54.6691 72.8398 54.6618 72.7941 54.6562C72.783 54.6477 72.7766 54.6477 72.767 54.6477C72.7133 54.6395 72.6595 54.6325 72.6056 54.6266H72.5773C72.5336 54.6181 72.4934 54.6173 72.4532 54.6128C72.3845 54.6213 72.3192 54.625 72.2547 54.6312" fill="url(#paint11_linear_1100_776)"/>
<path d="M104.438 61.0848C103.349 64.5708 102.468 67.4466 101.701 69.8128C104.687 65.7037 107.628 60.5345 110.429 54.5693C107.162 55.5954 105.419 57.9443 104.438 61.0848Z" fill="url(#paint12_linear_1100_776)"/>
<path d="M101.796 79.4429C101.644 79.5207 101.491 79.5945 101.341 79.6608C107.149 77.0703 114.078 66.7955 117.395 54.0029H116.722C109.102 67.6167 106.65 76.7304 101.796 79.4429Z" fill="url(#paint13_linear_1100_776)"/>
<path d="M98.0031 78.2993C99.2668 76.7568 100.296 74.1346 101.702 69.813C100.081 72.0399 98.4488 73.9537 96.8157 75.515C96.8157 75.5235 96.8157 75.5235 96.8071 75.5288C97.1633 76.5964 97.5543 77.5386 97.9999 78.2991" fill="#079AE1"/>
<path d="M98.0031 78.2993C97.5729 78.8241 97.1173 79.2242 96.6107 79.5204C96.4996 79.5848 96.3875 79.6456 96.2732 79.7015C96.8228 79.9991 97.4244 80.1887 98.0454 80.2601C98.1413 80.2697 98.2361 80.2785 98.3352 80.2854H98.3528C98.3973 80.2854 98.4442 80.2854 98.4921 80.2939H98.965C98.9823 80.2939 99.0004 80.2939 99.018 80.2854C99.0518 80.2854 99.0875 80.2854 99.1224 80.2766H99.1741C99.2098 80.2766 99.2489 80.2681 99.2873 80.2643H99.2958C99.3072 80.2643 99.3195 80.2558 99.3307 80.2558C99.3706 80.247 99.4127 80.2436 99.4516 80.2374H99.4876C99.5318 80.2289 99.5779 80.2233 99.6234 80.2148H99.6455C99.7369 80.1972 99.8262 80.1802 99.9167 80.1573C99.1671 79.8829 98.5395 79.2356 97.9993 78.314" fill="#1969BC"/>
<path d="M87.2944 80.2941C87.8381 80.2941 88.3871 80.2408 88.9385 80.135C89.4483 80.0426 89.9592 79.9006 90.4712 79.7222C90.8982 79.9319 91.3503 80.086 91.8164 80.1809C92.1944 80.2572 92.5791 80.2952 92.9647 80.2941H87.2944Z" fill="#1E5CB3"/>
<path d="M92.9647 80.2939C94.3069 80.2939 95.37 80.1349 96.273 79.7012C96.8227 79.999 97.4244 80.1888 98.0454 80.2603C98.1413 80.2696 98.2362 80.2784 98.3353 80.2854H98.3528C98.3973 80.2854 98.4442 80.2854 98.4922 80.2942H98.6552H92.9609H92.9647V80.2939Z" fill="#1E5CB3"/>
<path d="M98.6584 80.294H98.969C98.9874 80.294 99.0047 80.294 99.0223 80.2855C99.0561 80.2855 99.0918 80.2855 99.1281 80.2767H99.1795C99.2152 80.2767 99.2543 80.2682 99.2916 80.2647H99.3012C99.3127 80.2647 99.3238 80.2562 99.3353 80.2562C99.3752 80.2474 99.4171 80.2439 99.456 80.2375C99.4693 80.2375 99.4797 80.2375 99.4935 80.229C99.538 80.2205 99.5841 80.216 99.6299 80.2074H99.6517C99.7431 80.1899 99.8323 80.1725 99.9226 80.1499C100.189 80.248 100.47 80.2974 100.754 80.2959L98.66 80.3044L98.6584 80.294V80.294Z" fill="#1D60B5"/>
<path d="M96.8106 75.5288V75.52C96.2378 76.0702 95.6402 76.594 95.0198 77.0897C94.7146 77.3328 94.4025 77.5671 94.084 77.7924C94.3464 78.1062 94.6133 78.4003 94.8946 78.6685C95.3216 79.0822 95.7778 79.4309 96.2757 79.6999C96.3892 79.644 96.5021 79.5832 96.6124 79.519C97.1198 79.2228 97.5753 78.823 98.0055 78.298C97.5601 77.5375 97.1691 76.5954 96.8127 75.5277" fill="#175FAB"/>
<path d="M114.594 54.0029H111.211C111.028 54.0117 110.85 54.0178 110.675 54.029C110.592 54.2067 110.507 54.3844 110.425 54.5631C107.625 60.5283 104.683 65.6975 101.697 69.8065C100.293 74.1279 99.2627 76.7501 97.999 78.2926C98.5392 79.2143 99.1679 79.8624 99.915 80.137C99.9369 80.1282 99.9545 80.1282 99.9739 80.1237H99.9862C99.9992 80.1237 100.013 80.1152 100.027 80.1152C100.058 80.1064 100.091 80.101 100.121 80.0917C100.141 80.0829 100.157 80.0821 100.177 80.0757C100.205 80.0672 100.234 80.0611 100.261 80.0542C100.278 80.0454 100.295 80.0427 100.313 80.0392C100.356 80.0251 100.396 80.0147 100.437 80.0017C100.457 79.9932 100.477 79.9857 100.499 79.9806C100.523 79.9721 100.547 79.966 100.569 79.9556C100.594 79.9468 100.619 79.9423 100.641 79.933C100.66 79.9242 100.681 79.9188 100.7 79.9111C100.749 79.8935 100.796 79.8789 100.845 79.8597C100.859 79.8597 100.872 79.8475 100.886 79.8448C100.915 79.8325 100.946 79.8229 100.975 79.8099C100.986 79.8011 100.999 79.8003 101.013 79.7958C101.116 79.7532 101.221 79.7095 101.327 79.6618H101.338C101.492 79.5935 101.643 79.5208 101.792 79.4439C106.648 76.7314 109.099 67.6178 116.72 54.004H114.591L114.594 54.0029H114.594Z" fill="url(#paint14_linear_1100_776)"/>
<path d="M72.4475 54.6014C72.4595 54.6014 72.4704 54.6014 72.4821 54.61C72.5117 54.61 72.5413 54.61 72.5706 54.6195H72.5999C72.6534 54.6281 72.7067 54.6329 72.7613 54.6406C72.7711 54.6406 72.7799 54.6406 72.7885 54.6491C72.8332 54.6576 72.879 54.6651 72.9246 54.6718C72.9344 54.6718 72.9475 54.6805 72.9584 54.6805C73.0631 54.7013 73.1699 54.7232 73.2722 54.7501C73.2818 54.7501 73.2919 54.7589 73.3004 54.7589C73.3441 54.7692 73.3833 54.7823 73.427 54.7945C73.4403 54.7945 73.4496 54.8031 73.4616 54.8052C73.513 54.8183 73.5609 54.8313 73.6108 54.8478C73.6132 54.8478 73.6161 54.8478 73.6219 54.8563C73.6646 54.8694 73.708 54.8859 73.7525 54.9008C73.7703 54.9094 73.7866 54.9131 73.8028 54.9173C73.8334 54.9307 73.8673 54.9435 73.8966 54.9557C73.9139 54.9557 73.9312 54.968 73.9498 54.9744C73.9901 54.9925 74.0324 55.009 74.074 55.0263C74.0958 55.0351 74.1142 55.0449 74.1352 55.0527C74.1592 55.0649 74.184 55.0761 74.2101 55.0846C74.2319 55.0953 74.2559 55.1065 74.2767 55.1161C74.2996 55.1286 74.3212 55.1379 74.3433 55.1502C74.8835 55.416 75.3813 55.77 75.8421 56.1994C76.0072 56.0256 76.1848 55.8643 76.3736 55.7167C75.3659 55.0018 74.2245 54.5942 72.9073 54.5942C72.7546 54.5942 72.6023 54.603 72.4475 54.6145" fill="#7DCBEC"/>
<path d="M75.8423 56.1865C76.1318 56.4578 76.4019 56.7491 76.6507 57.0581C76.893 56.8881 77.1392 56.7238 77.3891 56.5653C77.0756 56.2496 76.7356 55.9613 76.3729 55.7036C76.1841 55.8509 76.0068 56.0123 75.8423 56.1863" fill="#5EC5ED"/>
<path d="M72.4474 54.6008C72.6019 54.5878 72.7545 54.5822 72.9071 54.5822C74.2241 54.5822 75.3657 54.9897 76.3734 55.7036C77.4368 54.8645 78.722 54.5715 80.5075 54.5715H71.8611C72.0609 54.5715 72.2556 54.5835 72.4474 54.6008" fill="url(#paint15_linear_1100_776)"/>
<path d="M80.5076 54.5714C78.7221 54.5714 77.4369 54.8644 76.3735 55.7035C76.7358 55.9614 77.0755 56.2496 77.3889 56.5649C78.8692 55.6238 80.3355 55.0005 81.7814 54.7283C82.3232 54.6253 82.8734 54.5727 83.4249 54.5714H80.5076Z" fill="url(#paint16_linear_1100_776)"/>
<path d="M101.701 69.815C102.469 67.447 103.348 64.572 104.439 61.0849C105.422 57.9431 107.161 55.5945 110.428 54.5695C110.514 54.3939 110.596 54.213 110.68 54.0356C105.354 54.3548 102.865 57.064 101.612 61.0761C99.4213 68.0807 98.0942 72.6212 96.8164 75.5146C98.4485 73.9547 100.08 72.0395 101.701 69.815" fill="url(#paint17_linear_1100_776)"/>
<path d="M109.515 78.4281H108.911V80.3042H108.665V78.4281H108.059V78.2049H109.515V78.4281H109.515ZM111.986 80.3036H111.741V78.894C111.741 78.7829 111.75 78.6468 111.761 78.4864C111.736 78.5823 111.715 78.6489 111.696 78.6915L110.981 80.3036H110.861L110.145 78.7035C110.123 78.659 110.103 78.5868 110.08 78.4867H110.072C110.08 78.5711 110.083 78.7078 110.083 78.8974V80.3039H109.847V78.2046H110.172L110.816 79.6697C110.865 79.7797 110.895 79.8647 110.911 79.9214H110.92C110.963 79.8058 110.998 79.7197 111.021 79.663L111.679 78.2046H111.988V80.3036H111.986V80.3036Z" fill="black"/>
</g>
<defs>
<filter id="filter0_d_1100_776" x="0.431396" y="0.14209" width="173.137" height="173.137" filterUnits="userSpaceOnUse" color-interpolation-filters="sRGB">
<feFlood flood-opacity="0" result="BackgroundImageFix"/>
<feColorMatrix in="SourceAlpha" type="matrix" values="0 0 0 0 0 0 0 0 0 0 0 0 0 0 0 0 0 0 127 0" result="hardAlpha"/>
<feOffset/>
<feGaussianBlur stdDeviation="10"/>
<feComposite in2="hardAlpha" operator="out"/>
<feColorMatrix type="matrix" values="0 0 0 0 0 0 0 0 0 0 0 0 0 0 0 0 0 0 0.1 0"/>
<feBlend mode="normal" in2="BackgroundImageFix" result="effect1_dropShadow_1100_776"/>
<feBlend mode="normal" in="SourceGraphic" in2="effect1_dropShadow_1100_776" result="shape"/>
</filter>
<linearGradient id="paint0_linear_1100_776" x1="82.8636" y1="54.4002" x2="82.8636" y2="86.7122" gradientUnits="userSpaceOnUse">
<stop stop-color="#0994DC"/>
<stop offset="0.35001" stop-color="#66CEF5"/>
<stop offset="0.84616" stop-color="#127BCA"/>
<stop offset="1" stop-color="#127BCA"/>
</linearGradient>
<linearGradient id="paint1_linear_1100_776" x1="84.0956" y1="53.5825" x2="84.0956" y2="86.7174" gradientUnits="userSpaceOnUse">
<stop stop-color="#0E76BC"/>
<stop offset="0.36" stop-color="#36AEE8"/>
<stop offset="0.84616" stop-color="#00ADEF"/>
<stop offset="1" stop-color="#00ADEF"/>
</linearGradient>
<linearGradient id="paint2_linear_1100_776" x1="90.7552" y1="79.5494" x2="90.7552" y2="53.1838" gradientUnits="userSpaceOnUse">
<stop stop-color="#1C63B7"/>
<stop offset="0.5" stop-color="#33BDF2"/>
<stop offset="1" stop-color="#33BDF2" stop-opacity="0.42"/>
</linearGradient>
<linearGradient id="paint3_linear_1100_776" x1="89.0223" y1="50.225" x2="89.0223" y2="84.6281" gradientUnits="userSpaceOnUse">
<stop stop-color="#166AB8"/>
<stop offset="0.39999" stop-color="#36AEE8"/>
<stop offset="0.84616" stop-color="#0798DD"/>
<stop offset="1" stop-color="#0798DD"/>
</linearGradient>
<linearGradient id="paint4_linear_1100_776" x1="86.3105" y1="50.4057" x2="86.3105" y2="86.9889" gradientUnits="userSpaceOnUse">
<stop stop-color="#124379"/>
<stop offset="0.39" stop-color="#1487CB"/>
<stop offset="0.78023" stop-color="#165197"/>
<stop offset="1" stop-color="#165197"/>
</linearGradient>
<linearGradient id="paint5_linear_1100_776" x1="71.6172" y1="61.6359" x2="76.7899" y2="61.6359" gradientUnits="userSpaceOnUse">
<stop stop-color="#33BDF2" stop-opacity="0.698"/>
<stop offset="1" stop-color="#1DACD8"/>
</linearGradient>
<linearGradient id="paint6_linear_1100_776" x1="110.463" y1="78.8886" x2="110.463" y2="53.2049" gradientUnits="userSpaceOnUse">
<stop stop-color="#136AB4"/>
<stop offset="0.6" stop-color="#59CAF5" stop-opacity="0.549"/>
<stop offset="1" stop-color="#59CAF5" stop-opacity="0.235"/>
</linearGradient>
<linearGradient id="paint7_linear_1100_776" x1="53.2627" y1="67.7728" x2="72.4474" y2="67.7728" gradientUnits="userSpaceOnUse">
<stop stop-color="#05A1E6" stop-opacity="0.247"/>
<stop offset="1" stop-color="#05A1E6"/>
</linearGradient>
<linearGradient id="paint8_linear_1100_776" x1="63.8879" y1="79.5355" x2="63.8879" y2="53.2373" gradientUnits="userSpaceOnUse">
<stop stop-color="#318ED5"/>
<stop offset="1" stop-color="#38A7E4"/>
</linearGradient>
<linearGradient id="paint9_linear_1100_776" x1="65.5434" y1="79.6278" x2="65.5434" y2="54.0648" gradientUnits="userSpaceOnUse">
<stop stop-color="#05A1E6"/>
<stop offset="1" stop-color="#05A1E6" stop-opacity="0.549"/>
</linearGradient>
<linearGradient id="paint10_linear_1100_776" x1="66.9178" y1="80.932" x2="66.9178" y2="59.3308" gradientUnits="userSpaceOnUse">
<stop stop-color="#1959A6"/>
<stop offset="0.5" stop-color="#05A1E6"/>
<stop offset="0.91759" stop-color="#7EC5EA"/>
<stop offset="1" stop-color="#7EC5EA"/>
</linearGradient>
<linearGradient id="paint11_linear_1100_776" x1="67.7455" y1="79.5525" x2="60.4233" y2="57.1751" gradientUnits="userSpaceOnUse">
<stop stop-color="#165096"/>
<stop offset="1" stop-color="#0D82CA"/>
</linearGradient>
<linearGradient id="paint12_linear_1100_776" x1="106.065" y1="66.3065" x2="106.065" y2="54.0665" gradientUnits="userSpaceOnUse">
<stop stop-color="#05A1E6"/>
<stop offset="0.87363" stop-color="#0495D6"/>
<stop offset="1" stop-color="#0495D6"/>
</linearGradient>
<linearGradient id="paint13_linear_1100_776" x1="111.818" y1="52.9353" x2="100.41" y2="78.2639" gradientUnits="userSpaceOnUse">
<stop stop-color="#38A7E4" stop-opacity="0.329"/>
<stop offset="0.96153" stop-color="#0E88D3"/>
<stop offset="1" stop-color="#0E88D3"/>
</linearGradient>
<linearGradient id="paint14_linear_1100_776" x1="107.363" y1="53.9256" x2="107.363" y2="80.6288" gradientUnits="userSpaceOnUse">
<stop stop-color="#168CD4"/>
<stop offset="0.5" stop-color="#1C87CC"/>
<stop offset="1" stop-color="#154B8D"/>
</linearGradient>
<linearGradient id="paint15_linear_1100_776" x1="73.3028" y1="53.3765" x2="73.4185" y2="56.1776" gradientUnits="userSpaceOnUse">
<stop stop-color="#97D6EE"/>
<stop offset="0.70329" stop-color="#55C1EA"/>
<stop offset="1" stop-color="#55C1EA"/>
</linearGradient>
<linearGradient id="paint16_linear_1100_776" x1="76.8594" y1="56.4393" x2="77.3824" y2="53.4728" gradientUnits="userSpaceOnUse">
<stop stop-color="#7ACCEC"/>
<stop offset="1" stop-color="#3FB7ED"/>
</linearGradient>
<linearGradient id="paint17_linear_1100_776" x1="103.748" y1="55.4023" x2="103.748" y2="81.5203" gradientUnits="userSpaceOnUse">
<stop stop-color="#1DA7E7"/>
<stop offset="1" stop-color="#37ABE7" stop-opacity="0"/>
</linearGradient>
<clipPath id="clip0_1100_776">
<rect width="68.1914" height="65" fill="white" transform="translate(53 54)"/>
</clipPath>
</defs>
</svg>
