<svg width="174" height="174" viewBox="0 0 174 174" fill="none" xmlns="http://www.w3.org/2000/svg">
<g filter="url(#filter0_d_1100_776)">
<rect x="87" y="16" width="100" height="100" rx="10" transform="rotate(45 87 16)" fill="white"/>
</g>
<g clip-path="url(#clip0_1100_776)">
<path d="M96.0343 121.879H96.884L110.753 114.944L110.984 114.617V59.2577L110.753 58.9298L96.884 52H96.0239L96.0343 121.879Z" fill="#5294CF"/>
<path d="M77.9853 121.879H77.1238L63.2662 114.944L62.9849 114.46L62.8423 59.5396L63.2662 58.9298L77.1238 52H77.996L77.9853 121.879Z" fill="#1F5B98"/>
<path d="M77.1482 52H96.8708V121.879H77.1482V52Z" fill="#2D72B8"/>
<path d="M118.014 85.3696L117.545 85.2657L110.853 84.6418L110.754 84.6912L96.8719 84.136H77.1483L63.2663 84.6912V74.1054L63.2517 74.1132L63.2663 74.0822L77.1483 70.8656H96.8719L110.754 74.0822L115.857 76.7947V75.0508L118.014 74.8149L117.79 74.3794L110.962 69.4966L110.754 69.5641L96.8719 65.2626H77.1483L63.2663 69.5641V58.9297L56.0066 67.4346V74.8623L56.0628 74.8217L58.1633 75.0508V76.8306L56.0066 77.9847V85.3754L56.0628 85.3696L58.1633 85.4006V88.5027L56.351 88.5298L56.0066 88.4969V95.8905L58.1633 97.0502V98.8506L56.0969 99.0788L56.0066 99.0109V106.437L63.2663 114.944V104.31L77.1483 108.612H96.8719L110.795 104.298L110.98 104.379L117.718 99.5678L118.014 99.0885L115.857 98.8506V97.0863L115.574 96.9734L110.962 99.4598L110.795 99.8086L96.8719 103.007V103.01H77.1483V103.007L63.2663 99.795V89.1705L77.1483 89.7237V89.7373H96.8719L110.754 89.1705L111.07 89.3158L117.556 88.7573L118.014 88.5337L115.857 88.5027V85.4006L118.014 85.3696" fill="#1A476F"/>
<path d="M110.754 104.31V114.944L118.014 106.437V99.0594L110.796 104.298L110.754 104.31ZM110.754 99.8182L110.796 99.8086L118.014 95.9263V88.5027L110.754 89.1705V99.8182V99.8182ZM110.796 74.0919L110.754 74.0822V84.6912L118.014 85.3696V77.9496L110.796 74.0919ZM110.796 69.6058L118.014 74.8149V67.4365L110.754 58.9297V69.5641L110.796 69.5787V69.6058Z" fill="#2D72B8"/>
</g>
<defs>
<filter id="filter0_d_1100_776" x="0.431396" y="0.14209" width="173.137" height="173.137" filterUnits="userSpaceOnUse" color-interpolation-filters="sRGB">
<feFlood flood-opacity="0" result="BackgroundImageFix"/>
<feColorMatrix in="SourceAlpha" type="matrix" values="0 0 0 0 0 0 0 0 0 0 0 0 0 0 0 0 0 0 127 0" result="hardAlpha"/>
<feOffset/>
<feGaussianBlur stdDeviation="10"/>
<feComposite in2="hardAlpha" operator="out"/>
<feColorMatrix type="matrix" values="0 0 0 0 0 0 0 0 0 0 0 0 0 0 0 0 0 0 0.1 0"/>
<feBlend mode="normal" in2="BackgroundImageFix" result="effect1_dropShadow_1100_776"/>
<feBlend mode="normal" in="SourceGraphic" in2="effect1_dropShadow_1100_776" result="shape"/>
</filter>
<clipPath id="clip0_1100_776">
<rect width="62.02" height="70" fill="white" transform="translate(56 52)"/>
</clipPath>
</defs>
</svg>
