<svg width="174" height="174" viewBox="0 0 174 174" fill="none" xmlns="http://www.w3.org/2000/svg">
<g filter="url(#filter0_d_1100_776)">
<rect x="87" y="16" width="100" height="100" rx="10" transform="rotate(45 87 16)" fill="white"/>
</g>
<path d="M121.989 88.748C121.989 82.8634 118.332 77.7785 112.905 75.7789C113.135 74.5351 113.249 73.2728 113.247 72.0079C113.247 61.0953 104.392 52.2397 93.4791 52.2397C87.1373 52.2397 81.1955 55.2678 77.4816 60.4669C75.6534 59.0385 73.4252 58.2958 71.0827 58.2958C65.312 58.2958 60.5701 62.9806 60.5701 68.8084C60.5701 70.0654 60.7987 71.3224 61.1984 72.4651C55.7138 74.3504 52 79.6067 52 85.4342C52 91.3192 55.6567 96.4611 61.1413 98.4608C60.913 99.6606 60.7987 100.918 60.7987 102.231C60.7987 113.087 69.6542 121.943 80.5097 121.943C86.9087 121.943 92.7936 118.858 96.5071 113.716C98.3354 115.144 100.621 115.944 102.963 115.944C108.734 115.944 113.476 111.259 113.476 105.431C113.476 104.174 113.247 102.917 112.847 101.775C118.218 99.8321 121.989 94.5758 121.989 88.748H121.989Z" fill="white"/>
<path d="M79.3669 82.1779L94.9646 89.3198L110.733 75.4934C110.963 74.346 111.078 73.1785 111.076 72.0082C111.076 62.2957 103.192 54.4111 93.479 54.4111C87.6513 54.4111 82.2238 57.2677 78.9671 62.0668L76.3389 75.6649L79.3669 82.1782V82.1779Z" fill="#F4BD19"/>
<path d="M63.1981 98.6897C62.9698 99.8324 62.8555 101.032 62.8555 102.232C62.8555 111.945 70.7969 119.886 80.5097 119.886C86.3946 119.886 91.8223 116.973 95.1359 112.173L97.707 98.5754L94.2218 91.9478L78.5672 84.8062L63.1981 98.6897V98.6897Z" fill="#3CBEB1"/>
<path d="M63.0842 71.665L73.7682 74.179L76.1676 62.0093C74.6823 60.8666 72.911 60.2954 71.0256 60.2954C66.3977 60.2954 62.5698 64.0661 62.5698 68.7512C62.5698 69.7225 62.7413 70.7509 63.0839 71.665H63.0842Z" fill="#E9478C"/>
<path d="M62.1698 74.2358C57.3707 75.7786 54.0569 80.4065 54.0569 85.4342C54.0569 90.3479 57.0849 94.7472 61.6557 96.4611L76.6819 82.8631L73.9393 76.9787L62.1698 74.2361V74.2358Z" fill="#2C458F"/>
<path d="M97.8784 112.116C99.3637 113.259 101.135 113.887 102.963 113.887C107.591 113.887 111.419 110.116 111.419 105.431C111.419 104.403 111.248 103.431 110.905 102.517L100.221 100.003L97.8784 112.116V112.116Z" fill="#95C63D"/>
<path d="M100.05 97.2041L111.819 99.9467C116.618 98.3471 119.932 93.7763 119.932 88.7483C119.932 83.8346 116.904 79.4927 112.333 77.7217L96.9072 91.2052L100.05 97.2044V97.2041Z" fill="#176655"/>
<defs>
<filter id="filter0_d_1100_776" x="0.431396" y="0.14209" width="173.137" height="173.137" filterUnits="userSpaceOnUse" color-interpolation-filters="sRGB">
<feFlood flood-opacity="0" result="BackgroundImageFix"/>
<feColorMatrix in="SourceAlpha" type="matrix" values="0 0 0 0 0 0 0 0 0 0 0 0 0 0 0 0 0 0 127 0" result="hardAlpha"/>
<feOffset/>
<feGaussianBlur stdDeviation="10"/>
<feComposite in2="hardAlpha" operator="out"/>
<feColorMatrix type="matrix" values="0 0 0 0 0 0 0 0 0 0 0 0 0 0 0 0 0 0 0.1 0"/>
<feBlend mode="normal" in2="BackgroundImageFix" result="effect1_dropShadow_1100_776"/>
<feBlend mode="normal" in="SourceGraphic" in2="effect1_dropShadow_1100_776" result="shape"/>
</filter>
</defs>
</svg>
