<svg width="174" height="174" viewBox="0 0 174 174" fill="none" xmlns="http://www.w3.org/2000/svg">
<g filter="url(#filter0_d_812_4)">
<rect x="87" y="16" width="100" height="100" rx="10" transform="rotate(45 87 16)" fill="white"/>
</g>
<path d="M52 52H122V122H52V52Z" fill="white"/>
<path d="M92.7232 53.1396L59 86.8628L69.4384 97.3012L113.6 53.1396H92.7232ZM92.488 84.2392L74.4322 102.295L84.9098 112.929L95.3286 102.511L113.6 84.2392H92.488Z" fill="#47C5FB"/>
<path d="M84.9098 112.929L92.8408 120.86H113.6L95.3286 102.51L84.9098 112.929Z" fill="#00569E"/>
<path d="M74.3146 102.413L84.753 91.9741L95.3286 102.511L84.9098 112.929L74.3146 102.413Z" fill="#00B5F8"/>
<path d="M84.9098 112.929L93.5856 110.05L94.4466 103.391L84.9098 112.929Z" fill="url(#paint0_linear_812_4)" fill-opacity="0.8"/>
<defs>
<filter id="filter0_d_812_4" x="0.431458" y="0.14209" width="173.137" height="173.137" filterUnits="userSpaceOnUse" color-interpolation-filters="sRGB">
<feFlood flood-opacity="0" result="BackgroundImageFix"/>
<feColorMatrix in="SourceAlpha" type="matrix" values="0 0 0 0 0 0 0 0 0 0 0 0 0 0 0 0 0 0 127 0" result="hardAlpha"/>
<feOffset/>
<feGaussianBlur stdDeviation="10"/>
<feComposite in2="hardAlpha" operator="out"/>
<feColorMatrix type="matrix" values="0 0 0 0 0 0 0 0 0 0 0 0 0 0 0 0 0 0 0.1 0"/>
<feBlend mode="normal" in2="BackgroundImageFix" result="effect1_dropShadow_812_4"/>
<feBlend mode="normal" in="SourceGraphic" in2="effect1_dropShadow_812_4" result="shape"/>
</filter>
<linearGradient id="paint0_linear_812_4" x1="84.8549" y1="106.556" x2="91.6593" y2="109.053" gradientUnits="userSpaceOnUse">
<stop/>
<stop offset="1" stop-opacity="0"/>
</linearGradient>
</defs>
</svg>
