<svg width="174" height="174" viewBox="0 0 174 174" fill="none" xmlns="http://www.w3.org/2000/svg">
<g filter="url(#filter0_d_1837_1422)">
<rect x="86.7109" y="16" width="100" height="100" rx="10" transform="rotate(45 86.7109 16)" fill="white"/>
</g>
<g clip-path="url(#clip0_1837_1422)">
<path d="M117.859 82.9854C117.746 81.8357 117.557 80.5163 117.18 79.0461C116.803 77.5948 116.238 75.9927 115.409 74.3341C114.579 72.6754 113.505 70.9602 112.11 69.2827C111.564 68.6231 110.96 67.9822 110.32 67.3602C111.281 63.534 109.151 60.2167 109.151 60.2167C105.476 59.9906 103.138 61.3665 102.271 61.9885C102.121 61.9319 101.989 61.8565 101.838 61.8C101.216 61.555 100.575 61.3099 99.8965 61.1026C99.2368 60.8953 98.5583 60.7068 97.8609 60.5372C97.1635 60.3675 96.4661 60.2356 95.7499 60.1225C95.618 60.1036 95.5049 60.0848 95.3729 60.066C93.7708 54.9392 89.1719 52.7905 89.1719 52.7905C84.0263 56.0513 83.065 60.6126 83.065 60.6126C83.065 60.6126 83.0462 60.7068 83.0085 60.8764C82.7258 60.9518 82.443 61.0461 82.1603 61.1215C81.7645 61.2345 81.3687 61.3853 80.9917 61.5361C80.5959 61.6869 80.219 61.8377 79.8231 62.0073C79.0504 62.3466 78.2776 62.7236 77.5237 63.1382C76.7886 63.5529 76.0723 64.0052 75.375 64.4764L75.1865 64.401C68.0618 61.6869 61.7477 64.9476 61.7477 64.9476C61.1634 72.5246 64.5938 77.2933 65.2723 78.1603C65.1027 78.6315 64.9519 79.1027 64.8011 79.5739C64.2733 81.2891 63.8775 83.042 63.6325 84.8702C63.5948 85.1341 63.5571 85.398 63.5383 85.6619C56.9414 88.9226 55 95.5761 55 95.5761C60.4848 101.89 66.8932 102.286 66.8932 102.286L66.9121 102.267C67.7226 103.718 68.665 105.094 69.7205 106.395C70.1728 106.942 70.6252 107.45 71.1153 107.959C69.1173 113.689 71.398 118.439 71.398 118.439C77.5048 118.665 81.5195 115.763 82.3677 115.103C82.9708 115.31 83.5928 115.499 84.2148 115.649C86.0996 116.139 88.0221 116.422 89.9447 116.498C90.4159 116.516 90.9059 116.535 91.3771 116.516H92.0557L92.3572 116.498V116.516C95.241 120.625 100.292 121.21 100.292 121.21C103.892 117.421 104.1 113.652 104.1 112.841V112.785V112.671V112.502C104.854 111.974 105.57 111.409 106.248 110.787C107.681 109.486 108.944 107.997 109.999 106.395L110.282 105.943C114.353 106.169 117.237 103.417 117.237 103.417C116.558 99.1761 114.146 97.1028 113.637 96.7069C113.128 96.3111 113.618 96.6881 113.58 96.6693C113.543 96.6504 113.543 96.6316 113.543 96.6316C113.524 96.6127 113.486 96.5939 113.448 96.575C113.467 96.3111 113.486 96.0661 113.505 95.8022C113.543 95.3499 113.543 94.8787 113.543 94.4263V93.8232V93.7101L113.524 93.4274L113.505 93.0504C113.505 92.9185 113.486 92.8054 113.467 92.6923C113.448 92.5792 113.448 92.4472 113.43 92.3342L113.392 91.976L113.335 91.6179C113.26 91.1467 113.185 90.6944 113.071 90.2232C112.638 88.3949 111.922 86.6608 110.998 85.0964C110.056 83.532 108.887 82.1561 107.549 80.9875C106.23 79.8189 104.741 78.8765 103.195 78.1791C101.631 77.4817 100.01 77.0294 98.3887 76.822C97.5782 76.709 96.7677 76.6713 95.9572 76.6901H95.3541L95.0525 76.709C94.9394 76.709 94.8263 76.7278 94.7321 76.7278C94.3174 76.7655 93.9028 76.822 93.507 76.8974C91.886 77.199 90.3593 77.7833 89.0211 78.5938C87.6829 79.4043 86.5143 80.4032 85.5719 81.5341C84.6294 82.665 83.8944 83.9278 83.3855 85.2284C82.8766 86.5289 82.5938 87.886 82.5184 89.1865C82.4996 89.5069 82.4996 89.8462 82.4996 90.1666V90.4116L82.5184 90.6755C82.5373 90.8263 82.5373 90.9959 82.5561 91.1467C82.6127 91.8064 82.7446 92.4472 82.9143 93.0504C83.2724 94.2755 83.8378 95.3876 84.5352 96.33C85.2326 97.2724 86.0808 98.0452 86.9666 98.6672C87.8525 99.2703 88.8138 99.7038 89.7562 99.9865C90.6986 100.269 91.641 100.382 92.5269 100.382H93.0169C93.0735 100.382 93.13 100.382 93.1866 100.364C93.2808 100.364 93.375 100.345 93.4693 100.345C93.4881 100.345 93.5258 100.345 93.5447 100.326L93.6389 100.307C93.6955 100.307 93.752 100.288 93.8085 100.288C93.9216 100.269 94.0159 100.25 94.129 100.232C94.2421 100.213 94.3363 100.194 94.4305 100.156C94.6379 100.118 94.8263 100.043 95.0148 99.9865C95.3918 99.8546 95.7688 99.7038 96.0892 99.5342C96.4284 99.3646 96.73 99.1572 97.0316 98.9687C97.107 98.9122 97.2012 98.8556 97.2766 98.7803C97.5782 98.5352 97.6347 98.0829 97.3897 97.7813C97.1824 97.5174 96.8054 97.442 96.5038 97.6117L96.2777 97.7248C96.0138 97.8567 95.7499 97.9698 95.4672 98.064C95.1845 98.1583 94.8829 98.2337 94.5813 98.2902C94.4305 98.309 94.2797 98.3279 94.1101 98.3467C94.0347 98.3467 93.9593 98.3656 93.8651 98.3656H93.4127C93.3185 98.3656 93.2242 98.3656 93.13 98.3467H93.0169C92.9792 98.3467 92.9227 98.3467 92.885 98.3279C92.7907 98.3091 92.7153 98.309 92.6211 98.2902C91.9237 98.196 91.2263 97.9886 90.5666 97.6871C89.8881 97.3855 89.2473 96.9708 88.663 96.4431C88.0787 95.9153 87.5698 95.2933 87.174 94.5771C86.7781 93.8609 86.4954 93.0692 86.3635 92.2399C86.3069 91.8253 86.2692 91.3917 86.2881 90.9771C86.2881 90.864 86.3069 90.7509 86.3069 90.6378V90.487C86.3069 90.4305 86.3258 90.3739 86.3258 90.3174C86.3446 90.0912 86.3823 89.865 86.42 89.6389C86.7404 87.8294 87.6452 86.0577 89.0399 84.7195C89.3981 84.3802 89.775 84.0786 90.1708 83.7959C90.5666 83.5132 91.0002 83.2681 91.4525 83.0608C91.9049 82.8535 92.3572 82.6838 92.8473 82.5519C93.3185 82.42 93.8085 82.3446 94.3174 82.288C94.5625 82.2692 94.8075 82.2503 95.0714 82.2503H95.6557L95.863 82.2692C96.4096 82.3069 96.9374 82.3823 97.4651 82.5142C98.5206 82.7404 99.5573 83.1362 100.519 83.664C102.441 84.7383 104.081 86.397 105.08 88.3949C105.589 89.3938 105.947 90.4682 106.116 91.5802C106.154 91.8629 106.192 92.1457 106.211 92.4284L106.23 92.6357L106.248 92.8431V93.6535C106.248 93.7855 106.23 94.0116 106.23 94.1436C106.211 94.4452 106.173 94.7656 106.135 95.0672C106.098 95.3687 106.041 95.6703 105.985 95.9719C105.928 96.2734 105.853 96.575 105.777 96.8577C105.626 97.442 105.438 98.0263 105.212 98.6106C104.759 99.7415 104.156 100.835 103.44 101.834C101.989 103.832 100.01 105.453 97.7478 106.489C96.6169 106.998 95.4295 107.375 94.2044 107.564C93.6012 107.677 92.9792 107.733 92.3572 107.752H91.4148C91.0755 107.752 90.7551 107.733 90.4159 107.695C89.0965 107.601 87.796 107.356 86.5143 106.998C85.2514 106.64 84.0263 106.131 82.8577 105.528C80.5394 104.284 78.4472 102.588 76.8263 100.533C76.0158 99.5153 75.2996 98.4033 74.7153 97.2535C74.131 96.1038 73.6598 94.8787 73.3205 93.6535C72.9812 92.4095 72.7739 91.1467 72.6797 89.865L72.6608 89.62V88.5457V88.4137V87.9425C72.6797 87.3205 72.7362 86.6608 72.8116 86.02C72.887 85.3792 73.0001 84.7195 73.132 84.0786C73.264 83.4378 73.4147 82.7969 73.6032 82.1561C73.9613 80.8933 74.4137 79.6681 74.9414 78.5184C76.0158 76.2189 77.4106 74.1644 79.0881 72.5246C79.5027 72.11 79.9362 71.733 80.3886 71.3561C80.8409 70.9979 81.3122 70.6587 81.8022 70.3382C82.2734 70.0178 82.7823 69.7351 83.2912 69.4712C83.5362 69.3393 83.8001 69.2074 84.064 69.0943L84.4598 68.9246L84.8556 68.755C85.3834 68.5288 85.93 68.3403 86.4954 68.1707C86.6274 68.133 86.7781 68.0953 86.9101 68.0388C87.042 68.0011 87.1928 67.9634 87.3247 67.9257C87.6075 67.8503 87.8902 67.7749 88.1729 67.7183C88.3049 67.6806 88.4556 67.6618 88.6064 67.6241C88.7572 67.5864 88.8892 67.5676 89.0399 67.5299C89.1907 67.511 89.3227 67.4733 89.4734 67.4545L89.6808 67.4168L89.907 67.3791C90.0577 67.3602 90.1897 67.3414 90.3405 67.3225C90.5101 67.3037 90.6609 67.2848 90.8305 67.266C90.9625 67.2471 91.1886 67.2283 91.3206 67.2094C91.4148 67.1906 91.5279 67.1906 91.6221 67.1717L91.8295 67.1529L91.9237 67.134H92.0368C92.2064 67.1152 92.3572 67.1152 92.5269 67.0963L92.7719 67.0775H92.9604C93.0923 67.0775 93.2431 67.0587 93.375 67.0587C93.9216 67.0398 94.4871 67.0398 95.0337 67.0587C96.1269 67.0963 97.2012 67.2283 98.2379 67.4168C100.33 67.8126 102.29 68.4723 104.081 69.3581C105.871 70.2252 107.455 71.2995 108.849 72.4681C108.944 72.5435 109.019 72.6189 109.113 72.6943C109.189 72.7697 109.283 72.8451 109.358 72.9205C109.528 73.0712 109.679 73.222 109.848 73.3728C110.018 73.5236 110.169 73.6744 110.32 73.8252C110.47 73.976 110.621 74.1267 110.772 74.2964C111.356 74.9184 111.903 75.5404 112.393 76.1812C113.373 77.444 114.165 78.7257 114.787 79.932L114.9 80.1582L115.013 80.3844C115.088 80.5351 115.164 80.6859 115.22 80.8367C115.296 80.9875 115.352 81.1194 115.427 81.2702C115.484 81.421 115.559 81.553 115.616 81.7037C115.842 82.2692 116.068 82.8158 116.238 83.3247C116.521 84.154 116.728 84.8891 116.898 85.5299C116.954 85.7938 117.199 85.9634 117.463 85.9258C117.746 85.9069 117.953 85.6807 117.953 85.398C117.972 84.7195 117.953 83.909 117.859 82.9854V82.9854Z" fill="url(#paint0_linear_1837_1422)"/>
</g>
<defs>
<filter id="filter0_d_1837_1422" x="0.142578" y="0.14209" width="173.137" height="173.137" filterUnits="userSpaceOnUse" color-interpolation-filters="sRGB">
<feFlood flood-opacity="0" result="BackgroundImageFix"/>
<feColorMatrix in="SourceAlpha" type="matrix" values="0 0 0 0 0 0 0 0 0 0 0 0 0 0 0 0 0 0 127 0" result="hardAlpha"/>
<feOffset/>
<feGaussianBlur stdDeviation="10"/>
<feComposite in2="hardAlpha" operator="out"/>
<feColorMatrix type="matrix" values="0 0 0 0 0 0 0 0 0 0 0 0 0 0 0 0 0 0 0.1 0"/>
<feBlend mode="normal" in2="BackgroundImageFix" result="effect1_dropShadow_1837_1422"/>
<feBlend mode="normal" in="SourceGraphic" in2="effect1_dropShadow_1837_1422" result="shape"/>
</filter>
<linearGradient id="paint0_linear_1837_1422" x1="86.4766" y1="52.6586" x2="86.4766" y2="52.7886" gradientUnits="userSpaceOnUse">
<stop stop-color="#F05A28"/>
<stop offset="1" stop-color="#FBCA0A"/>
</linearGradient>
<clipPath id="clip0_1837_1422">
<rect width="62.972" height="70" fill="white" transform="translate(55 52)"/>
</clipPath>
</defs>
</svg>
