<svg width="174" height="174" viewBox="0 0 174 174" fill="none" xmlns="http://www.w3.org/2000/svg">
<g filter="url(#filter0_d_1100_776)">
<rect x="87" y="16" width="100" height="100" rx="10" transform="rotate(45 87 16)" fill="white"/>
</g>
<g clip-path="url(#clip0_1100_776)">
<path d="M70.6563 84.7048C71.4318 82.9211 71.4124 81.1569 70.9471 79.761C70.3655 78.0549 67.9809 75.8059 67.2248 76.6978C67.1278 76.8141 65.7513 76.659 65.5381 76.9498C65.2085 77.3763 65.4024 77.512 65.5575 77.6671C66.0421 78.0937 67.2635 78.559 67.8258 80.013C68.0584 80.6334 68.6013 82.0681 67.6513 82.9405C66.585 83.9099 65.383 84.1425 60.4586 79.5671C55.224 74.7009 48.2058 76.6784 45.8793 77.4539C43.5528 78.2294 42.4865 79.0049 43.3977 80.7885C44.6385 83.2313 44.2314 82.4752 45.4528 84.4915C47.3721 87.6904 51.5986 83.0181 51.5986 83.0181C48.4578 87.7486 45.763 86.6047 44.7354 84.9568C43.8048 83.464 43.0875 81.7579 43.0875 81.7579C35.1387 84.6272 37.2907 97.2678 37.2907 97.2678H41.2457C42.2538 92.6148 45.8599 92.7893 46.4609 97.2678H49.4659C52.122 88.1751 57.8219 97.2678 57.8219 97.2678H61.1953C61.1953 92.4209 60.6912 90.5985 63.1728 90.2496C67.3993 89.6873 69.3768 87.7098 70.6563 84.7048V84.7048Z" fill="#02303A"/>
<path d="M84.906 83.4835V85.4029C85.3132 84.7049 86.2438 83.1151 89.2682 83.2121L89.2488 86.5273C88.5509 86.5467 87.3295 86.5661 86.3407 87.3222C84.9642 88.3691 84.906 89.7456 84.906 91.9752V97.0741H81.7847V83.4641L84.906 83.4835V83.4835ZM90.5672 87.5549C90.6253 86.8763 90.6835 86.2171 91.11 85.4416C92.409 83.0958 95.6079 83.1151 96.4803 83.1151C97.7793 83.1151 99.3303 83.2896 100.513 83.9876C102.103 84.9569 102.122 86.2365 102.122 87.6906L102.103 94.8251C102.103 95.8527 102.103 96.2598 102.684 97.0741H98.865C98.8456 96.7445 98.7874 96.1241 98.7874 95.9496C98.0895 96.5312 96.6548 97.3067 94.7936 97.3067C91.7498 97.2873 89.9274 95.4068 89.9274 93.0803C89.9274 92.4017 90.1019 91.7813 90.3733 91.2578C91.3427 89.3191 93.4171 88.8926 94.7161 88.6599C99.117 87.9232 98.865 87.4967 98.7874 86.8375C98.7293 86.2171 98.0895 85.6355 96.5967 85.6355C95.2589 85.6355 94.5222 86.062 94.1926 86.4885C93.8437 86.9151 93.863 87.1865 93.863 87.5742L90.5672 87.5549V87.5549ZM98.865 90.2885C98.2252 90.6181 97.4885 90.8507 96.0344 91.0834C94.8712 91.2385 93.3396 91.5099 93.3396 92.9252C93.3396 93.9721 94.2314 94.5149 95.511 94.5149C97.1589 94.5149 98.3221 93.7782 98.6711 92.9639C98.865 92.5568 98.865 92.1497 98.865 91.7619V90.2885ZM116.585 78.0356L116.527 97.0741H113.328V95.7557C112.32 96.9577 110.982 97.4424 109.586 97.4424C106.387 97.423 103.615 95.019 103.634 90.5793C103.654 86.5661 105.922 83.1539 109.78 83.1733C111.098 83.1733 112.32 83.5611 113.347 84.6855V78.0356H116.585V78.0356ZM112.591 87.3998C112.107 86.663 111.312 86.159 110.226 86.159C108.035 86.159 106.988 88.1171 106.988 90.2497C106.988 90.5017 107.008 94.5343 110.148 94.5343C111.816 94.5343 113.328 93.3129 113.309 90.4048C113.27 89.5324 113.173 88.2916 112.591 87.3998V87.3998ZM122.207 78.0356L122.149 97.0741H118.892V78.0356H122.207ZM136.651 93.9139C135.158 96.5506 133.258 97.52 130.505 97.52C126.977 97.5006 123.584 95.271 123.603 90.3079C123.623 85.7906 126.531 83.2315 130.331 83.2509C133.879 83.2702 135.352 85.4029 135.624 85.7906C136.729 87.361 136.961 89.7069 136.981 91.0446L127.016 91.0058C127.384 93.1384 128.702 94.3598 130.835 94.3598C133.045 94.3598 133.627 93.0609 134.034 92.4986L136.651 93.9139V93.9139ZM133.452 88.6599C133.161 86.5661 131.882 85.8294 130.447 85.8294C128.722 85.8294 127.539 86.8181 127.151 88.6405L133.452 88.6599Z" fill="#22DA27"/>
<path d="M71.8392 87.1284V89.9202H76.6085V93.1967C75.3871 93.9722 73.9912 94.4181 71.9942 94.4181C68.7759 94.4181 66.1198 91.7232 66.1198 87.5162C66.1198 83.3867 68.5627 80.6336 72.2851 80.6336C75.2707 80.6336 76.3952 83.0958 76.5697 84.0264H79.8268C79.8268 82.1265 77.5778 77.4541 71.9942 77.4541C66.0811 77.4541 62.5913 81.6418 62.5913 87.5356C62.5913 93.662 66.779 97.5007 71.781 97.5007C79.187 97.5007 79.8268 93.7977 79.8268 93.7977V87.1284H71.8392V87.1284Z" fill="#22DA27"/>
<path d="M71.2575 81.4285C70.5402 81.4867 69.8228 81.603 69.1443 81.7969C69.1249 81.8163 69.1055 81.8551 69.0861 81.8744C68.7759 82.2234 68.3882 82.553 67.9616 82.7469C67.9035 82.7856 67.8453 82.805 67.7872 82.8244L67.6708 82.9407C66.6045 83.9101 65.3056 84.1428 60.4781 79.5673C55.3017 74.6623 48.2253 76.6786 45.8988 77.4541C43.5723 78.2296 42.506 79.0051 43.4172 80.7887C44.658 83.2316 44.2509 82.4754 45.4723 84.4917C47.3916 87.6907 51.6181 83.0183 51.6181 83.0183C48.4773 87.7488 45.7825 86.605 44.755 84.957C43.8244 83.4642 43.107 81.7581 43.107 81.7581C35.1582 84.6275 37.3102 97.2681 37.3102 97.2681H41.2652C42.2734 92.6151 45.8794 92.7896 46.4804 97.2681H49.4855C52.1415 88.1754 57.8414 97.2681 57.8414 97.2681H61.2148C61.2148 92.4212 60.7108 90.5988 63.1923 90.2498C67.4382 89.6682 69.3963 87.6907 70.6759 84.705C71.1412 83.5805 71.3157 82.4561 71.2575 81.4285V81.4285Z" fill="#02303A"/>
<path d="M56.9301 82.6885C56.9301 82.6885 58.7525 83.2895 61.1953 84.1038C61.0596 84.7629 59.8382 86.0231 58.2678 85.4803C56.174 84.8017 56.9301 82.6885 56.9301 82.6885Z" fill="white"/>
<path d="M59.1175 85.0664C59.7244 85.0019 60.1659 84.4749 60.1037 83.8893C60.0414 83.3037 59.499 82.8812 58.8921 82.9457C58.2852 83.0102 57.8437 83.5372 57.9059 84.1228C57.9681 84.7084 58.5106 85.1309 59.1175 85.0664Z" fill="#02303A"/>
<path d="M65.5574 77.6868C65.6932 77.8031 65.8676 77.9194 66.0421 78.0357C66.8564 77.3572 67.9227 77.3766 68.8339 77.0082C68.039 76.2715 66.7595 75.7092 66.3717 76.1745C66.2748 76.2909 65.7707 76.6786 65.5574 76.9694C65.2085 77.396 65.383 77.5317 65.5574 77.6868V77.6868Z" fill="#02303A"/>
</g>
<defs>
<filter id="filter0_d_1100_776" x="0.431396" y="0.14209" width="173.137" height="173.137" filterUnits="userSpaceOnUse" color-interpolation-filters="sRGB">
<feFlood flood-opacity="0" result="BackgroundImageFix"/>
<feColorMatrix in="SourceAlpha" type="matrix" values="0 0 0 0 0 0 0 0 0 0 0 0 0 0 0 0 0 0 127 0" result="hardAlpha"/>
<feOffset/>
<feGaussianBlur stdDeviation="10"/>
<feComposite in2="hardAlpha" operator="out"/>
<feColorMatrix type="matrix" values="0 0 0 0 0 0 0 0 0 0 0 0 0 0 0 0 0 0 0.1 0"/>
<feBlend mode="normal" in2="BackgroundImageFix" result="effect1_dropShadow_1100_776"/>
<feBlend mode="normal" in="SourceGraphic" in2="effect1_dropShadow_1100_776" result="shape"/>
</filter>
<clipPath id="clip0_1100_776">
<rect width="100" height="21.52" fill="white" transform="translate(37 76)"/>
</clipPath>
</defs>
</svg>
