<svg width="174" height="174" viewBox="0 0 174 174" fill="none" xmlns="http://www.w3.org/2000/svg">
<g filter="url(#filter0_d_1100_776)">
<rect x="87" y="16" width="100" height="100" rx="10" transform="rotate(45 87 16)" fill="white"/>
</g>
<g clip-path="url(#clip0_1100_776)">
<path d="M53.8771 79.1851C52.3557 79.1851 50.8685 79.6362 49.6035 80.4814C48.3385 81.3267 47.3526 82.5281 46.7704 83.9336C46.1881 85.3392 46.0358 86.8859 46.3326 88.3781C46.6294 89.8702 47.3621 91.2409 48.4378 92.3166C49.5136 93.3924 50.8843 94.1251 52.3764 94.4219C53.8686 94.7187 55.4153 94.5663 56.8208 93.9841C58.2264 93.4019 59.4278 92.416 60.273 91.151C61.1183 89.886 61.5694 88.3988 61.5694 86.8774C61.567 84.838 60.7558 82.8828 59.3137 81.4408C57.8717 79.9987 55.9165 79.1875 53.8771 79.1851V79.1851Z" fill="#478AFF"/>
<path d="M64.922 79.8669C66.8572 79.8669 68.426 78.2981 68.426 76.3629C68.426 74.4277 66.8572 72.8589 64.922 72.8589C62.9868 72.8589 61.418 74.4277 61.418 76.3629C61.418 78.2981 62.9868 79.8669 64.922 79.8669Z" fill="#478AFF"/>
<path d="M69.2365 79.8851L69.0895 79.5637L68.8599 79.83C68.2855 80.4819 67.5591 80.9819 66.7451 81.2858L66.5155 81.3685L66.6073 81.5981C67.8448 84.5741 68.0014 87.8894 67.0501 90.9688C66.0987 94.0482 64.0993 96.6974 61.3988 98.4567C58.6984 100.216 55.4672 100.975 52.2659 100.601C49.0647 100.227 46.0954 98.7438 43.8731 96.4093C41.6509 94.0749 40.316 91.0362 40.1 87.8204C39.8841 84.6047 40.8006 81.4148 42.6908 78.8041C44.5809 76.1935 47.3253 74.327 50.4477 73.5283C53.5702 72.7296 56.8738 73.0492 59.7853 74.4316L60.0011 74.535L60.0953 74.3054C60.4384 73.5072 60.9732 72.8061 61.6521 72.264L61.9276 72.0344L61.6131 71.8714C59.2232 70.6293 56.5682 69.984 53.8748 69.9908C50.2282 69.9913 46.6799 71.1727 43.7608 73.3583C40.8417 75.5438 38.7089 78.6159 37.6815 82.1148C36.6542 85.6137 36.7875 89.3512 38.0617 92.768C39.3358 96.1848 41.6822 99.097 44.7497 101.069C47.8171 103.041 51.4407 103.966 55.0781 103.707C58.7154 103.447 62.171 102.017 64.9275 99.6298C67.6841 97.2426 69.5934 94.0268 70.3698 90.4638C71.1461 86.9008 70.7477 83.1822 69.2342 79.8645L69.2365 79.8851Z" fill="#478AFF"/>
<path d="M83 79.5293H79.4409V94.225H83V79.5293Z" fill="#478AFF"/>
<path d="M121.409 79.5293H117.85V94.225H121.409V79.5293Z" fill="#478AFF"/>
<path d="M109.631 79.1851C107.129 79.1851 105.195 80.6937 104.752 81.1093L104.522 79.5295H101.56V94.2252H105.119V85.3274C105.119 83.5915 107.489 82.1541 109.223 82.1541C110.956 82.1541 112.258 83.8119 112.258 85.7867V94.2252H115.817V86.138C115.806 82.2849 114.144 79.1851 109.631 79.1851Z" fill="#478AFF"/>
<path d="M130.752 91.5547C128.077 91.5547 126.309 89.4606 126.309 86.8774C126.309 84.2941 128.077 82.2 130.752 82.2C133.034 82.2 134.426 84.4112 134.426 84.4112L137.005 82.6868C136.258 81.5387 135.397 80.8498 134.222 80.138C133.207 79.5224 132.044 79.1931 130.858 79.1851C126.405 79.1851 123.005 82.5283 122.984 86.8774C123.005 91.2264 126.405 94.5697 130.858 94.5697C132.04 94.5591 133.197 94.2299 134.208 93.6167C135.383 92.9072 136.245 92.2161 136.991 91.068L134.412 89.3435C134.412 89.3435 133.034 91.5547 130.752 91.5547Z" fill="#478AFF"/>
<path d="M92.2812 79.1851C91.2714 79.1688 90.2686 79.3546 89.3317 79.7314C88.3948 80.1083 87.5426 80.6686 86.8253 81.3795C86.108 82.0903 85.5401 82.9374 85.1548 83.8709C84.7696 84.8044 84.5748 85.8055 84.582 86.8154C84.582 90.983 87.7002 94.5697 92.334 94.5697C96.5292 94.5697 99.9666 91.355 99.9666 86.9049C99.9666 81.8096 95.9689 79.1851 92.2812 79.1851ZM92.3248 82.2069C94.5315 82.2069 96.621 83.9979 96.621 86.8843C96.621 89.7086 94.5406 91.5502 92.3156 91.5502C89.8701 91.5502 87.9528 89.5846 87.9528 86.8613C87.9528 84.1977 89.8564 82.2069 92.3363 82.2069H92.3248Z" fill="#478AFF"/>
</g>
<defs>
<filter id="filter0_d_1100_776" x="0.431396" y="0.14209" width="173.137" height="173.137" filterUnits="userSpaceOnUse" color-interpolation-filters="sRGB">
<feFlood flood-opacity="0" result="BackgroundImageFix"/>
<feColorMatrix in="SourceAlpha" type="matrix" values="0 0 0 0 0 0 0 0 0 0 0 0 0 0 0 0 0 0 127 0" result="hardAlpha"/>
<feOffset/>
<feGaussianBlur stdDeviation="10"/>
<feComposite in2="hardAlpha" operator="out"/>
<feColorMatrix type="matrix" values="0 0 0 0 0 0 0 0 0 0 0 0 0 0 0 0 0 0 0.1 0"/>
<feBlend mode="normal" in2="BackgroundImageFix" result="effect1_dropShadow_1100_776"/>
<feBlend mode="normal" in="SourceGraphic" in2="effect1_dropShadow_1100_776" result="shape"/>
</filter>
<clipPath id="clip0_1100_776">
<rect width="100" height="33.7543" fill="white" transform="translate(37 70)"/>
</clipPath>
</defs>
</svg>
