<svg width="174" height="174" viewBox="0 0 174 174" fill="none" xmlns="http://www.w3.org/2000/svg">
<g filter="url(#filter0_d_1100_776)">
<rect x="87" y="16" width="100" height="100" rx="10" transform="rotate(45 87 16)" fill="white"/>
</g>
<g clip-path="url(#clip0_1100_776)">
<path d="M104.047 107.198H103.783V107.05H104.493V107.198H104.231V107.934H104.047V107.198V107.198ZM105.462 107.236H105.458L105.197 107.934H105.077L104.818 107.236H104.815V107.934H104.641V107.051H104.897L105.137 107.676L105.377 107.051H105.632V107.934H105.462L105.462 107.236V107.236Z" fill="#E76F00"/>
<path d="M80.4419 89.1315C80.4419 89.1315 78.6073 90.1984 81.7475 90.5594C85.5517 90.9934 87.496 90.9312 91.6883 90.1377C91.6883 90.1377 92.7905 90.8288 94.3298 91.4274C84.9318 95.4552 73.0603 91.1941 80.4419 89.1315ZM79.2935 83.8755C79.2935 83.8755 77.2359 85.3986 80.3784 85.7236C84.4422 86.1429 87.6514 86.1772 93.2047 85.1078C93.2047 85.1078 93.9729 85.8865 95.1807 86.3124C83.8178 89.635 71.1618 86.5744 79.2935 83.8755" fill="#5382A1"/>
<path d="M88.9748 74.9594C91.2905 77.6255 88.3665 80.0247 88.3665 80.0247C88.3665 80.0247 94.2461 76.9894 91.5459 73.1884C89.0238 69.6436 87.0897 67.8825 97.5601 61.8101C97.5602 61.8099 81.1251 65.9146 88.9748 74.9594" fill="#E76F00"/>
<path d="M101.404 93.0193C101.404 93.0193 102.762 94.138 99.9092 95.0033C94.4846 96.6466 77.3312 97.1429 72.5661 95.0689C70.8532 94.3236 74.0654 93.2895 75.0759 93.0725C76.1297 92.844 76.7319 92.8865 76.7319 92.8865C74.8269 91.5446 64.419 95.5214 71.4452 96.6605C90.6066 99.7679 106.375 95.2612 101.404 93.0193V93.0193ZM81.3241 78.4296C81.3241 78.4296 72.5989 80.502 78.2343 81.2546C80.6137 81.5732 85.3571 81.5011 89.7753 81.1309C93.3863 80.8263 97.0122 80.1788 97.0122 80.1788C97.0122 80.1788 95.7389 80.7241 94.8178 81.3529C85.9574 83.6834 68.8408 82.5992 73.7685 80.2156C77.9358 78.2011 81.3241 78.4296 81.3241 78.4296V78.4296ZM96.9762 87.1786C105.983 82.4982 101.819 78.0003 98.912 78.6064C98.1995 78.7547 97.8819 78.8832 97.8819 78.8832C97.8819 78.8832 98.1465 78.4688 98.6514 78.2895C104.402 76.2678 108.824 84.2522 96.7951 87.4146C96.7951 87.4146 96.9347 87.2901 96.9762 87.1786Z" fill="#5382A1"/>
<path d="M91.5459 52.0044C91.5459 52.0044 96.5341 56.9941 86.8149 64.6673C79.021 70.8222 85.0376 74.3317 86.8116 78.3415C82.2624 74.2367 78.9237 70.6235 81.1635 67.2605C84.4509 62.3239 93.5585 59.9305 91.5459 52.0044" fill="#E76F00"/>
<path d="M82.2092 99.8611C90.8547 100.415 104.131 99.5541 104.445 95.4634C104.445 95.4634 103.841 97.014 97.3002 98.2458C89.9211 99.6343 80.8199 99.4723 75.4219 98.5823C75.4221 98.5821 76.527 99.4968 82.2092 99.8611" fill="#5382A1"/>
<path d="M80.7923 115.492C79.9767 116.2 79.1154 116.597 78.3423 116.597C77.239 116.597 76.6429 115.935 76.6429 114.874C76.6429 113.726 77.2817 112.887 79.844 112.887H80.7922L80.7923 115.492V115.492ZM83.0428 118.032V110.172C83.0428 108.164 81.8976 106.839 79.1366 106.839C77.5247 106.839 76.1127 107.237 74.9651 107.745L75.2964 109.136C76.1999 108.804 77.3695 108.496 78.5175 108.496C80.1081 108.496 80.7923 109.136 80.7923 110.46V111.453H79.9985C76.1341 111.453 74.3909 112.954 74.3909 115.205C74.3909 117.148 75.5396 118.253 77.7026 118.253C79.093 118.253 80.1308 117.679 81.1011 116.839L81.2772 118.032L83.0428 118.032V118.032ZM90.5533 118.032H87.7466L84.3686 107.038H86.8198L88.9158 113.792L89.3817 115.824C90.4421 112.887 91.1922 109.907 91.5674 107.038H93.9517C93.3128 110.658 92.1632 114.632 90.5533 118.032V118.032ZM101.321 115.492C100.504 116.2 99.6409 116.597 98.8677 116.597C97.7663 116.597 97.1686 115.935 97.1686 114.874C97.1686 113.726 97.8088 112.887 100.371 112.887H101.321V115.492ZM103.571 118.032V110.172C103.571 108.164 102.423 106.839 99.6651 106.839C98.0522 106.839 96.6397 107.237 95.4926 107.745L95.8234 109.136C96.7273 108.804 97.8991 108.496 99.0462 108.496C100.636 108.496 101.321 109.136 101.321 110.46V111.453H100.526C96.6601 111.453 94.9175 112.954 94.9175 115.205C94.9175 117.148 96.0654 118.253 98.228 118.253C99.6193 118.253 100.657 117.679 101.629 116.839L101.805 118.032L103.571 118.032V118.032ZM71.9233 119.898C71.2817 120.835 70.2455 121.576 69.1111 121.995L68 120.688C68.8635 120.245 69.604 119.529 69.9481 118.863C70.2457 118.27 70.3688 117.506 70.3688 115.679V103.128H72.7598V115.507C72.7597 117.95 72.5644 118.936 71.9233 119.898" fill="#E76F00"/>
</g>
<defs>
<filter id="filter0_d_1100_776" x="0.431396" y="0.14209" width="173.137" height="173.137" filterUnits="userSpaceOnUse" color-interpolation-filters="sRGB">
<feFlood flood-opacity="0" result="BackgroundImageFix"/>
<feColorMatrix in="SourceAlpha" type="matrix" values="0 0 0 0 0 0 0 0 0 0 0 0 0 0 0 0 0 0 127 0" result="hardAlpha"/>
<feOffset/>
<feGaussianBlur stdDeviation="10"/>
<feComposite in2="hardAlpha" operator="out"/>
<feColorMatrix type="matrix" values="0 0 0 0 0 0 0 0 0 0 0 0 0 0 0 0 0 0 0.1 0"/>
<feBlend mode="normal" in2="BackgroundImageFix" result="effect1_dropShadow_1100_776"/>
<feBlend mode="normal" in="SourceGraphic" in2="effect1_dropShadow_1100_776" result="shape"/>
</filter>
<clipPath id="clip0_1100_776">
<rect width="37.632" height="70" fill="white" transform="translate(68 52)"/>
</clipPath>
</defs>
</svg>
