<svg width="174" height="174" viewBox="0 0 174 174" fill="none" xmlns="http://www.w3.org/2000/svg">
<g filter="url(#filter0_d_1100_776)">
<rect x="87" y="16" width="100" height="100" rx="10" transform="rotate(45 87 16)" fill="white"/>
</g>
<g clip-path="url(#clip0_1100_776)">
<path d="M108.091 80.416C108.091 92.0754 98.8465 101.536 87.4368 101.536C76.0271 101.536 66.783 92.0754 66.783 80.416C66.783 68.7563 76.0273 59.2954 87.4368 59.2954C98.8466 59.2954 108.091 68.7563 108.091 80.416" fill="#D33833"/>
<path d="M67.6323 85.646C67.6323 85.646 66.1333 63.6264 86.4375 62.9932L85.0217 60.6279L74.0117 64.3257L70.8637 67.9402L68.1154 73.2036L66.5496 79.3333L67.0161 83.4309" fill="#EF3D3A"/>
<path d="M73.2955 66.0078C69.6811 69.7222 67.4324 74.8359 67.4324 80.499C67.4324 86.1622 69.6811 91.2757 73.2955 94.99C76.9266 98.7044 81.907 100.986 87.4368 100.986C92.9668 100.986 97.9471 98.7044 101.578 94.9902C105.193 91.2757 107.441 86.1622 107.441 80.499C107.441 74.8357 105.193 69.7222 101.578 66.0078C97.9473 62.3101 92.9668 60.0117 87.4368 60.0117C81.9236 60.0117 76.9267 62.2935 73.2955 66.0078V66.0078ZM72.3794 95.8729C68.5319 91.9419 66.1499 86.4954 66.1499 80.499C66.1499 74.5027 68.5319 69.0559 72.3794 65.1084C76.2271 61.1775 81.5572 58.729 87.437 58.729C93.3167 58.729 98.6468 61.1775 102.494 65.1084C106.342 69.0393 108.724 74.4859 108.724 80.499C108.724 86.4952 106.342 91.9419 102.494 95.8729C98.6468 99.8204 93.3167 102.252 87.4368 102.252C81.5572 102.252 76.2271 99.8204 72.3794 95.8729V95.8729Z" fill="#231F20"/>
<path d="M96.1316 80.5324L92.9834 80.9988L88.7361 81.4819L85.9878 81.5485L83.3061 81.4653L81.2573 80.8324L79.4417 78.8667L78.0259 74.8526L77.7095 73.9864L75.8273 73.3535L74.7278 71.5381L73.9451 68.9395L74.8113 66.6577L76.8601 65.9414L78.509 66.7243L79.2918 68.4567L80.2412 68.3066L80.5576 67.907L80.2412 66.0913L80.158 63.8094L80.6243 60.6614L80.6077 58.8625L82.0401 56.564L84.5552 54.7483L88.9526 52.8662L93.833 53.5823L98.0803 56.6472L100.046 59.7952L101.312 62.0772L101.628 67.7403L100.679 72.6206L98.9463 76.9514L97.3142 79.2666" fill="#F0D6B7"/>
<path d="M93.4665 94.1408L82.2234 94.6072V96.4893L83.1728 103.102L82.7063 103.652L74.8445 100.97L74.2949 100.021L73.512 91.126L71.6631 85.7959L71.2634 84.53L77.5596 80.1994L79.5251 79.4165L81.2573 81.5484L82.7564 82.8811L84.4887 83.4307L85.2715 83.664L86.2209 87.7614L86.9372 88.6276L88.7527 87.9946L87.4868 90.4429L94.3159 93.6743L93.4665 94.1407" fill="#335061"/>
<path d="M74.8113 66.6909L76.8601 65.9748L78.5091 66.7576L79.2918 68.4899L80.2413 68.34L80.4746 67.3906L80.0081 65.575L80.4744 61.2444L80.0747 58.8791L81.4905 57.2302L84.5553 54.7983L83.6891 53.6157L79.3585 55.7476L77.543 57.1636L76.5269 59.3621L74.9612 61.4942L74.4949 64.0093L74.8113 66.6909" fill="#6D6B6D"/>
<path d="M78.0427 59.2952C78.0427 59.2952 79.2251 56.3804 83.939 54.9646C88.6526 53.5488 84.1723 53.9485 84.1723 53.9485L79.0585 55.9141L77.0933 57.8794L76.2271 59.4451L78.0427 59.2952V59.2952ZM75.6775 66.1411C75.6775 66.1411 74.0284 60.6277 80.3245 59.845L80.0913 58.8955L75.7607 59.9116L74.4949 64.0092L74.8113 66.6907L75.6775 66.1411" fill="#DCD9D8"/>
<path d="M78.1927 73.4536L79.2252 72.4541C79.2252 72.4541 79.6917 72.5041 79.775 73.0537C79.8582 73.6035 80.0914 78.5671 83.4727 81.2321C83.7891 81.4819 80.9576 80.8323 80.9576 80.8323L78.4423 76.9014L78.1927 73.4536ZM92.6671 71.9544C92.6671 71.9544 92.8502 69.5725 93.4999 69.7559C94.1495 69.939 94.1495 70.5885 94.1495 70.5885C94.1495 70.5885 92.5838 71.5879 92.6671 71.9544V71.9544ZM99.1964 63.2266C99.1964 63.2266 97.8971 63.493 97.7806 64.6423C97.6639 65.7915 99.1964 64.8755 99.4296 64.7922L99.1964 63.2266ZM89.6856 63.3098C89.6856 63.3098 87.9532 63.543 87.9532 64.6423C87.9532 65.7415 89.9188 65.6583 90.4684 65.1919L89.6856 63.3098ZM78.992 68.4233C78.992 68.4233 76.0107 66.6077 75.6943 68.3401C75.3779 70.0723 74.6782 71.3214 76.1606 73.137L75.1445 72.8206L74.1953 70.3887L73.8787 68.0235L75.6943 66.1414L77.7429 66.2913L78.9256 67.2407L78.9922 68.4233H78.992ZM80.408 63.4597C80.408 63.4597 81.7403 56.5306 88.503 55.1981C94.0661 54.0987 96.9977 55.4314 98.097 56.6971C98.097 56.6971 93.1334 50.8008 88.4196 52.5997C83.7059 54.4153 80.2413 57.7132 80.3246 59.8286C80.4578 63.4596 80.4078 63.4596 80.4078 63.4596L80.408 63.4597ZM98.6466 57.48C98.6466 57.48 96.3648 57.3968 96.2814 59.4454C96.2814 59.4454 96.2814 59.762 96.4315 60.0784C96.4315 60.0784 98.2469 58.0296 99.3463 59.129" fill="#F7E4CD"/>
<path d="M88.6694 60.2952C88.6694 60.2952 88.2697 57.1638 85.6047 58.9792C83.8723 60.1619 84.0388 61.8108 84.3388 62.1274C84.6552 62.4439 84.5719 63.0767 84.8051 62.6438C85.0383 62.2107 84.9716 60.7949 85.8378 60.395C86.6872 59.9953 88.1198 59.5624 88.6694 60.2952" fill="#F7E4CD"/>
<path d="M81.274 81.5485L73.8782 84.8462C73.8782 84.8462 76.9431 97.0388 75.3772 100.82L74.278 100.42L74.1948 95.773L72.146 86.9785L71.2798 84.5464L78.9917 79.3496L81.2737 81.5483L81.274 81.5485ZM82.0234 88.2942L83.0727 89.5769V94.2905H81.8236C81.8236 94.2905 81.6737 90.9926 81.6737 90.593C81.6737 90.1931 81.8236 88.7773 81.8236 88.7773L82.0234 88.2942ZM82.0568 95.0068L78.5089 95.1567L79.525 95.873L82.04 96.2729" fill="#49728B"/>
<path d="M94.1662 94.2239L97.0808 94.1406L97.797 101.369L94.8156 101.769L94.166 94.2237" fill="#335061"/>
<path d="M94.949 94.2239L99.3462 93.9906C99.3462 93.9906 101.162 89.4268 101.162 89.1937C101.162 88.9603 102.728 82.5811 102.728 82.5811L99.1797 78.8833L98.4634 78.2505L96.5813 80.1326V87.4448L94.949 94.2239" fill="#335061"/>
<path d="M96.9143 93.6741L94.166 94.2239L94.5659 96.4226C95.5818 96.8889 97.3142 95.6397 97.3142 95.6397L96.9143 93.6741ZM96.9976 79.8994L102.511 83.9968L102.661 82.1146L98.4968 78.2671L96.9977 79.8994" fill="#49728B"/>
<path d="M84.7886 109.715L83.1562 103.102L82.3401 98.2217L82.2068 94.6072L89.5855 94.2075H94.166L93.7497 102.469L94.4658 108.848L94.3826 110.031L88.4029 110.497L84.7886 109.715" fill="white"/>
<path d="M93.1498 94.1408C93.1498 94.1408 92.7501 102.319 93.9327 108.149C93.9327 108.149 91.5675 109.648 88.1196 110.031L94.7323 109.798L95.515 109.331L94.5657 96.4394L94.3158 93.6743" fill="#DCD9D8"/>
<path d="M97.9138 100.753L100.978 99.8872L106.792 99.5707L107.658 96.8891L106.092 92.242L104.277 92.0088L101.761 92.7917L99.3628 93.9743L98.0803 93.741L97.0808 94.1408" fill="white"/>
<path d="M97.8638 99.1709C97.8638 99.1709 99.9126 98.2214 100.229 98.3047L99.3628 93.9741L100.379 93.5742C100.379 93.5742 101.095 97.6718 101.095 98.1382C101.095 98.1382 105.492 98.3713 105.892 98.3713C105.892 98.3713 106.842 96.5557 106.608 94.6736L107.475 97.1887L107.558 98.6045L106.292 100.487L104.876 100.803L102.511 100.72L101.728 99.7039L98.9797 100.104L98.1136 100.42" fill="#DCD9D8"/>
<path d="M94.7656 93.591L93.0332 89.1938L91.2178 86.5953C91.2178 86.5953 91.6176 85.4961 92.1672 85.4961H93.9829L95.7152 86.1289L95.5652 89.0439L94.7656 93.591" fill="white"/>
<path d="M95.1156 92.0922C95.1156 92.0922 92.9168 87.8448 92.9168 87.2117C92.9168 87.2117 93.3167 86.2623 93.8663 86.4956C94.4161 86.7288 95.5987 87.3618 95.5987 87.3618V85.8626L92.9168 85.313L91.1013 85.5462L94.1661 92.8084L94.799 92.8917" fill="#DCD9D8"/>
<path d="M85.4881 81.7153L83.3061 81.482L81.2573 80.8491V81.5654L82.2566 82.6648L85.4048 84.0806" fill="white"/>
<path d="M81.9736 81.9482C81.9736 81.9482 84.4053 82.9643 85.205 82.7312L85.2881 83.6806L83.0896 83.2141L81.7571 82.2647L81.9736 81.9482" fill="#DCD9D8"/>
<path d="M97.9137 85.7625C96.5812 85.7291 95.3652 85.5626 94.3159 85.2628C94.3825 84.8297 94.2492 84.4133 94.3659 84.0968C94.6657 83.8802 95.1486 83.8802 95.5984 83.8303C95.2153 83.647 94.6657 83.5638 94.2326 83.6804C94.2158 83.3806 94.0827 83.1973 93.9993 82.9642C94.749 82.6976 96.5146 80.9487 97.5139 81.515C97.997 81.7982 98.1969 83.3638 98.2302 84.1468C98.2634 84.7796 98.1635 85.4127 97.9137 85.7625" fill="#D33833"/>
<path d="M97.9137 85.7625C96.5812 85.7291 95.3652 85.5626 94.3159 85.2628C94.3825 84.8297 94.2492 84.4133 94.3659 84.0968C94.6657 83.8802 95.1486 83.8802 95.5984 83.8303C95.2153 83.647 94.6657 83.5638 94.2326 83.6804C94.2158 83.3806 94.0827 83.1973 93.9993 82.9642C94.749 82.6976 96.5146 80.9487 97.5139 81.515C97.997 81.7982 98.1969 83.3638 98.2302 84.1468C98.2634 84.7796 98.1635 85.4127 97.9137 85.7625V85.7625Z" fill="black" stroke="#D33833" stroke-width="11.9904"/>
<path d="M91.5343 83.5807C91.5343 83.6807 91.5343 83.7804 91.5175 83.8805C91.1012 84.1471 90.4348 84.1471 89.9684 84.3802C90.6349 84.4135 91.1678 84.58 91.6342 84.7965C91.6174 85.0465 91.6174 85.3131 91.6009 85.5628C90.8346 86.0792 90.1351 86.8621 89.2357 87.3617C88.8026 87.595 87.3202 88.1946 86.8705 88.078C86.6205 88.0113 86.5873 87.6949 86.4874 87.3951C86.2709 86.7622 85.7711 85.7294 85.7211 84.7633C85.6711 83.5474 85.538 81.4986 86.8537 81.7484C87.9196 81.9484 89.1523 82.4315 89.9684 82.8812C90.4848 83.181 90.768 83.514 91.5343 83.5807" fill="#D33833"/>
<path d="M91.5343 83.5807C91.5343 83.6807 91.5343 83.7804 91.5175 83.8805C91.1012 84.1471 90.4348 84.1471 89.9684 84.3802C90.6349 84.4135 91.1678 84.58 91.6342 84.7965C91.6174 85.0465 91.6174 85.3131 91.6009 85.5628C90.8346 86.0792 90.1351 86.8621 89.2357 87.3617C88.8026 87.595 87.3202 88.1946 86.8705 88.078C86.6205 88.0113 86.5873 87.6949 86.4874 87.3951C86.2709 86.7622 85.7711 85.7294 85.7211 84.7633C85.6711 83.5474 85.538 81.4986 86.8537 81.7484C87.9196 81.9484 89.1523 82.4315 89.9684 82.8812C90.4848 83.181 90.768 83.514 91.5343 83.5807V83.5807Z" fill="black" stroke="#D33833" stroke-width="11.9904"/>
<path d="M92.284 85.0297C92.1673 84.3633 92.034 84.1803 92.0841 83.5971C93.8664 82.4145 94.1828 85.6293 92.2838 85.0297" fill="#D33833"/>
<path d="M92.284 85.0297C92.1673 84.3633 92.034 84.1803 92.0841 83.5971C93.8664 82.4145 94.1828 85.6293 92.2838 85.0297H92.284Z" fill="black" stroke="#D33833" stroke-width="11.9904"/>
<path d="M94.8489 85.563C94.8489 85.563 94.2993 84.7801 94.699 84.5469C95.0989 84.3137 95.4819 84.5469 95.7151 84.1472C95.9484 83.7474 95.7151 83.5144 95.7984 83.0479C95.8816 82.5815 96.2647 82.4983 96.6645 82.415C97.0642 82.3316 98.1636 82.1817 98.3135 82.5649L97.8471 81.149L96.8977 80.8325L93.9162 82.5649L93.7663 83.4311V85.1633L94.8489 85.563ZM86.5874 88.1614C86.4875 86.9288 86.3877 85.7129 86.2876 84.4803C86.1211 82.6482 86.7207 82.9644 88.3196 82.9644C88.5696 82.9644 89.8187 83.2478 89.9021 83.4311C90.3352 84.3137 89.1858 84.1138 90.4016 84.7801C91.4177 85.3298 93.2334 84.447 92.8169 83.1978C92.5836 82.9146 91.6177 83.1145 91.2678 82.9312L89.419 81.9819C88.6362 81.582 86.8372 80.9824 86.0044 81.5488C83.889 82.9812 86.1377 86.5791 86.8872 88.0782" fill="#EF3D3A"/>
<path d="M88.6694 60.2947C86.5208 59.7949 85.4548 61.1941 84.8052 62.6431C84.2222 62.51 84.4553 61.7105 84.6054 61.3108C84.9883 60.2614 86.5375 58.8455 87.8033 59.0454C88.3362 59.1121 89.0691 59.6118 88.6694 60.2947V60.2947ZM99.1131 62.7264H99.2129C99.6961 63.7259 100.112 64.792 100.729 65.6914C100.312 66.6575 97.6306 67.4902 97.6639 65.7913C98.2469 65.5415 99.2463 65.7412 99.7627 65.4082C99.4629 64.592 99.0464 63.8924 99.1131 62.7265V62.7264ZM89.7522 62.76C90.2185 63.6094 90.3682 64.4922 91.0179 65.1252C91.3179 65.4082 91.8841 65.758 91.6011 66.5574C91.5344 66.7407 91.0513 67.1572 90.7681 67.2405C89.7522 67.5403 87.3702 67.3071 88.1697 66.0244C89.0191 66.0578 90.1519 66.5742 90.7849 65.9578C90.3018 65.1917 89.4356 63.6592 89.7522 62.76ZM98.73 71.3211C97.1975 72.304 95.4818 73.3867 92.9502 73.1367C92.4172 72.6704 92.2007 71.6209 92.7336 70.9382C93.0001 71.4045 92.8335 72.2707 93.5998 72.4038C95.0322 72.6538 96.6978 71.521 97.7305 71.1381C98.3634 70.0554 97.6807 69.6723 97.0977 68.9727C95.915 67.5569 94.3494 65.7913 94.3992 63.676C94.8823 63.3262 94.9156 64.209 94.9822 64.3589C95.5985 65.7913 97.1477 67.6401 98.2635 68.8728C98.5467 69.1726 98.9964 69.4724 99.0464 69.6723C99.1963 70.2385 98.6634 70.938 98.73 71.3213V71.3211ZM78.4422 70.2886C77.9592 70.0054 77.8427 68.8061 77.2764 68.7727C76.4602 68.7229 76.6101 70.3386 76.6101 71.2879C76.0605 70.7883 75.9605 69.2225 76.3603 68.4231C75.894 68.1897 75.6939 68.6729 75.4275 68.8394C75.7773 66.4243 78.9753 67.7234 78.4424 70.2886H78.4422ZM99.6961 72.3372C98.9798 73.7031 97.9637 75.2022 95.865 75.2522C95.815 74.8191 95.7818 74.1362 95.865 73.8696C97.4807 73.7031 98.48 72.887 99.6961 72.3372ZM89.6355 73.22C90.968 73.9197 93.4331 74.0029 95.2654 73.9529C95.3653 74.3528 95.3653 74.8523 95.3653 75.3355C93.0168 75.4353 90.2517 74.8523 89.6355 73.22ZM89.3857 74.5193C90.3184 76.8511 93.4998 76.5847 96.1814 76.5181C96.065 76.8179 95.815 77.1843 95.482 77.3008C94.6158 77.6507 92.2505 77.9172 91.0513 77.2842C90.3018 76.8845 89.802 75.9683 89.3857 75.4353C89.2024 75.1855 88.2031 74.5359 89.3857 74.5193" fill="#231F20"/>
<path d="M98.6134 87.3614C97.5307 89.2269 96.4815 91.1424 95.199 92.7748C95.7318 91.1925 95.965 88.5274 96.0484 86.4954C97.181 85.9622 98.1471 86.6119 98.6134 87.3616" fill="#81B0C4"/>
<path d="M104.46 94.0576C103.244 94.3074 102.394 95.49 101.195 95.4067C101.861 94.4905 102.994 94.0909 104.46 94.0576V94.0576ZM104.993 95.9563C103.993 96.0564 102.827 96.2229 101.828 96.1396C102.311 95.4067 104.143 95.6731 104.993 95.9563ZM105.342 97.6054C104.227 97.6221 102.844 97.6054 101.778 97.522C102.411 96.8391 104.626 97.2722 105.342 97.6054Z" fill="#231F20"/>
<path d="M96.5147 102.103C96.6812 103.502 97.231 104.918 97.1643 106.45C96.5479 106.65 96.1982 106.833 95.3653 106.833C95.3154 105.534 95.1321 103.535 95.1821 102.286C95.5818 102.319 96.1815 102.003 96.5147 102.103" fill="#DCD9D8"/>
<path d="M94.7159 81.4489C94.1495 81.8152 93.6832 82.2649 93.1334 82.6648C91.9341 82.7314 91.2845 82.5815 90.4185 81.8986C90.4351 81.8486 90.5183 81.8652 90.5183 81.7986C91.8009 82.365 93.4332 81.5654 94.7159 81.4487" fill="#F0D6B7"/>
<path d="M88.0198 90.1598C88.3696 88.6439 89.7521 87.8445 91.0012 87.0117C92.2837 88.6441 93.0666 90.7428 93.9328 92.7748C91.884 92.1586 89.802 91.1759 88.0198 90.1598" fill="#81B0C4"/>
<path d="M95.1821 102.303C95.1321 103.552 95.2986 105.534 95.3652 106.85C96.1982 106.85 96.5478 106.667 97.1643 106.467C97.2309 104.934 96.6811 103.518 96.5146 102.119C96.1814 102.003 95.5818 102.319 95.1821 102.303V102.303ZM82.3232 95.2403C82.873 100.254 83.6558 104.451 85.1048 108.899C88.3196 109.881 92.1838 109.964 95.0322 109.082C94.5158 106.583 94.7324 103.535 94.4326 100.853C94.1992 98.838 94.3159 96.8226 93.9995 94.7738C90.5515 94.0577 85.6879 94.6073 82.3232 95.2403ZM94.8156 94.8072C94.7822 96.9559 94.9155 99.0878 95.0822 101.236C95.9148 101.12 96.4646 101.037 97.2309 100.853C96.9809 98.788 97.0143 96.4395 96.498 94.6073C95.915 94.6241 95.3985 94.6073 94.8156 94.807V94.8072ZM98.9963 94.4574C98.5966 94.3741 98.1469 94.4574 97.7805 94.4574C97.9636 96.2064 98.3801 98.1385 98.53 99.9874C99.113 100.004 99.4294 99.7208 99.9125 99.6375C99.9458 98.0218 99.7793 95.7899 98.9963 94.4574ZM105.342 100.254C106.575 99.954 107.341 98.4549 106.991 96.9059C106.758 95.8732 106.359 93.9078 105.909 93.2414C105.592 92.7584 104.709 92.1088 103.993 92.5585C102.844 93.2914 100.829 93.5079 99.9958 94.3907C100.412 95.7899 100.545 97.6888 100.712 99.4542C102.144 99.5377 103.893 99.0547 105.093 99.5709C104.26 99.8375 103.194 99.8375 102.478 100.237C103.077 100.52 104.443 100.47 105.342 100.254V100.254ZM93.9162 92.775C93.05 90.743 92.2673 88.6444 90.9846 87.012C89.7354 87.8446 88.3696 88.6444 88.0032 90.16C89.802 91.1761 91.8842 92.1588 93.9162 92.775ZM96.0481 86.4957C95.9649 88.5277 95.7317 91.1927 95.1987 92.775C96.4812 91.1261 97.5307 89.2272 98.6133 87.3617C98.1469 86.6122 97.1809 85.9625 96.0483 86.4955L96.0481 86.4957ZM93.633 85.6463C93.1499 85.5961 92.7336 86.2125 92.1006 85.9459C91.9507 86.1124 91.8174 86.2791 91.6675 86.4457C93.0667 88.1445 93.7163 90.5433 94.799 92.5252C95.382 90.6099 95.3154 88.5277 95.4487 86.4457C94.6491 86.4789 94.1994 85.6961 93.633 85.6461V85.6463ZM92.084 83.5973C92.0339 84.1803 92.1672 84.3636 92.2837 85.0299C94.1826 85.6295 93.8662 82.4147 92.084 83.5973ZM89.9685 82.8978C89.1524 82.4479 87.9199 81.965 86.8538 81.7652C85.538 81.5153 85.6712 83.5641 85.7212 84.7801C85.7712 85.746 86.2709 86.7621 86.4875 87.4117C86.5874 87.7115 86.6206 88.028 86.8706 88.0946C87.3203 88.1946 88.8193 87.6117 89.2358 87.3783C90.1352 86.8954 90.8347 86.1126 91.601 85.5795C91.6176 85.3297 91.6176 85.0631 91.6343 84.8133C91.1679 84.58 90.6516 84.4303 89.9685 84.397C90.4184 84.1637 91.1013 84.1637 91.5176 83.8973C91.5176 83.7972 91.5176 83.6974 91.5344 83.5973C90.7681 83.514 90.4849 83.181 89.9685 82.8978ZM82.1401 81.482C81.4572 82.1815 84.0555 83.1144 84.8718 83.1644C84.8718 82.7313 85.1216 82.315 85.0715 81.9984C84.0889 81.8319 82.8064 81.9484 82.1401 81.482ZM90.5351 81.7985C90.5351 81.8651 90.4516 81.8485 90.435 81.8985C91.3178 82.5814 91.9673 82.7311 93.1499 82.6646C93.6831 82.2816 94.166 81.8152 94.7324 81.4486C93.4331 81.5653 91.8008 82.3648 90.5349 81.7985H90.5351ZM98.2302 84.1305C98.197 83.3641 97.9969 81.7818 97.5139 81.4987C96.5146 80.9157 94.749 82.6813 93.9995 82.9478C94.0827 83.181 94.216 83.3641 94.2326 83.664C94.6825 83.5475 95.2153 83.6307 95.5984 83.8139C95.1487 83.8639 94.6657 83.8639 94.3659 84.0804C94.2659 84.3969 94.3992 84.8133 94.3159 85.2464C95.3652 85.5462 96.5813 85.6961 97.9138 85.746C98.1636 85.4129 98.2634 84.7799 98.2302 84.1305V84.1305ZM80.9907 82.1483C80.7742 81.9984 79.3252 80.1161 79.1252 80.1994C76.5102 81.2322 74.0617 83.0145 71.8797 84.7133C73.9617 89.194 74.8113 94.6739 74.9612 99.954C77.3432 101.07 79.4417 102.686 82.6897 102.852C82.3066 100.204 81.9736 97.8219 81.757 95.3234C80.9409 94.9737 79.7749 95.3402 79.0087 95.2235C79.0087 94.3075 80.1746 94.8238 80.2745 94.2076C80.3413 93.7411 79.6248 93.7079 79.8581 92.975C80.4578 93.1915 80.7742 93.6745 81.4072 93.8578C81.9902 92.5919 81.4072 90.3433 81.4905 89.2772C81.5073 89.0775 81.5903 88.1779 82.0401 88.3278C82.4399 88.461 82.0234 90.743 82.0568 91.7423C82.0901 92.6751 81.9402 93.558 82.3232 94.141C85.4548 93.7079 88.6362 93.4413 92.0339 93.3414C91.2844 93.025 90.4016 92.7252 89.4355 92.1754C88.9026 91.8756 87.2536 91.2594 87.1037 90.7596C86.8538 89.9601 87.7366 89.5438 87.8865 88.8607C86.3042 89.7269 86.0044 88.0281 85.6213 86.8453C85.2881 85.7626 85.0883 84.9466 85.0051 84.3302C83.6225 83.6307 82.1567 82.9811 80.9907 82.1483V82.1483ZM96.8477 80.4159C99.0297 79.3668 99.4294 84.3636 98.5632 85.9793C98.6965 86.4623 99.1462 86.6456 99.3296 87.0785C98.1135 89.2606 96.7646 91.2926 95.5151 93.4413C96.4314 92.8583 97.7639 93.3414 98.8464 92.9083C99.2463 92.7584 99.5295 91.8424 99.8293 91.1095C100.662 89.1107 101.528 86.5788 101.911 84.6802C101.995 84.2471 102.244 83.2975 102.178 82.9144C102.078 82.2149 101.145 81.6986 100.662 81.2821C99.7793 80.4826 99.2295 79.7999 98.2967 79.0502C97.947 79.5999 97.1475 79.9662 96.8477 80.4161V80.4159ZM76.0105 61.0778C74.9778 62.2272 75.1943 64.3592 75.311 65.8915C77.1931 64.7091 79.675 65.9916 79.6582 67.9903C80.5576 67.9735 79.9914 66.8744 79.8249 66.1581C79.2918 63.8429 80.7243 61.3444 79.8914 59.2291C78.2758 59.3622 76.9599 60.0118 76.0105 61.078V61.0778ZM83.4392 54.432C81.0908 55.0983 78.0759 56.8138 77.1098 58.9291C77.8594 58.8126 78.3757 58.4462 79.1086 58.3961C79.3918 58.3795 79.7583 58.5128 80.0747 58.4295C80.7075 58.263 81.2573 56.8305 81.7403 56.2975C82.2068 55.7811 82.773 55.548 83.1562 55.0816C83.406 54.965 83.7723 54.965 83.7891 54.5985C83.6892 54.4818 83.5725 54.3988 83.4392 54.432V54.432ZM95.6817 55.0648C93.2333 53.6825 89.1025 52.6498 86.5041 53.9489C84.4053 54.9982 81.5739 56.7304 80.6077 58.9127C81.5071 61.0278 80.3413 62.9599 80.2578 65.1086C80.2246 66.258 80.791 67.2408 80.8408 68.4901C80.5244 69.0064 79.5916 69.0563 78.9421 69.023C78.7256 67.9235 78.3425 66.6911 77.2097 66.5578C75.6108 66.3746 74.4282 67.7071 74.3615 69.0897C74.2783 70.722 75.6108 73.4203 77.5095 73.2371C78.2424 73.1705 78.4257 72.4376 79.2251 72.4376C79.6582 73.3038 78.559 73.5702 78.4424 74.1864C78.409 74.3531 78.5256 74.9694 78.6089 75.2692C78.9587 76.6849 79.7249 78.5338 80.4744 79.6165C81.4404 80.9989 83.3227 81.1988 85.3547 81.3321C85.7212 80.5492 87.0537 80.6158 87.9197 80.8158C86.8706 80.3995 85.9045 79.4 85.105 78.5172C84.1887 77.5011 83.2561 76.4185 83.2061 75.086C84.955 77.5011 86.3874 79.6165 89.5522 80.6827C91.9507 81.482 94.749 80.316 96.5979 79.0169C97.364 78.4838 97.8137 77.6178 98.3635 76.8515C100.395 73.92 101.345 69.7558 101.145 65.7084C101.062 64.0428 101.062 62.3771 100.495 61.2611C99.9125 60.0951 97.9304 59.0292 96.7644 60.0951C96.5479 58.9459 97.7305 58.2462 99.1128 58.6627C98.1303 57.3802 97.0976 55.8644 95.6817 55.0648V55.0648ZM100.246 92.7252C102.161 91.7757 105.726 90.1766 106.908 92.7252C107.358 93.6745 107.874 95.2569 108.091 96.2396C108.407 97.6055 107.741 100.504 106.325 100.953C105.076 101.353 103.627 101.337 102.128 101.037C101.945 100.887 101.761 100.637 101.612 100.37C100.546 100.337 99.5295 100.42 98.6965 100.87C98.7798 101.67 98.2468 101.786 97.7305 101.953C97.364 103.435 98.48 105.367 98.2136 106.7C98.0303 107.666 96.8477 107.816 95.9816 107.982C95.9482 108.515 96.0149 108.965 96.0815 109.415C95.8818 110.148 94.9988 110.564 94.1494 110.664C91.3679 110.997 87.1538 111.147 84.4887 110.181C83.739 108.349 83.1562 106.134 82.5398 104.052C79.9414 104.335 77.8261 102.935 75.844 102.003C75.1611 101.686 74.2116 101.503 73.9451 100.953C73.6953 100.42 73.7952 99.4044 73.7285 98.4549C73.5786 96.0064 73.4287 93.6412 72.7959 91.1427C72.5127 90.0101 71.9963 89.0274 71.6465 87.9449C71.3134 86.9454 70.7471 85.6961 70.5972 84.6967C70.3806 83.2144 71.7798 83.131 72.6626 82.4813C74.0451 81.482 75.1277 80.9323 76.6267 80.0328C77.0766 79.7664 78.409 79.1002 78.5589 78.7836C78.8588 78.1675 78.0427 77.3013 77.8261 76.8182C77.4763 76.0521 77.293 75.4024 77.2431 74.6528C75.9939 74.453 75.0278 73.7035 74.4616 72.8707C73.512 71.4715 72.8457 68.8898 73.6787 66.941C73.7453 66.7911 74.0617 66.4745 74.1118 66.2413C74.2116 65.775 73.9285 65.1586 73.9118 64.659C73.8286 62.1105 74.3449 59.9118 76.0605 59.1457C76.76 56.3641 79.2584 55.4481 81.6071 54.0655C82.4899 53.5492 83.456 53.2161 84.4553 52.8495C88.0364 51.5338 93.5498 51.7836 96.5312 54.0321C97.7971 54.9816 99.8125 56.997 100.529 58.4628C102.444 62.3104 102.294 68.7565 100.962 73.4537C100.779 74.0865 100.529 75.0026 100.162 75.7689C99.9125 76.3019 99.1296 77.3512 99.2129 77.8175C99.3129 78.3006 101.012 79.5831 101.378 79.933C102.028 80.5658 103.277 81.3988 103.377 82.1983C103.494 83.0477 103.011 84.2137 102.761 85.0299C101.961 87.7616 101.162 90.2767 100.246 92.7252V92.7252Z" fill="#231F20"/>
<path d="M87.5036 73.8032C87.6035 73.6699 88.1697 73.4535 88.9693 73.8366C88.9693 73.8366 88.0198 73.9865 88.1031 75.569L87.7034 75.4855C87.7202 75.5023 87.3037 74.0698 87.5036 73.8032Z" fill="#F7E4CD"/>
<path d="M94.3991 87.3281C94.3991 87.5613 94.1994 87.7612 93.966 87.7612C93.7329 87.7612 93.533 87.5613 93.533 87.3281C93.533 87.0948 93.7329 86.895 93.966 86.895C94.216 86.895 94.3991 87.0948 94.3991 87.3281ZM94.8322 89.3435C94.8322 89.5768 94.6325 89.7766 94.3991 89.7766C94.166 89.7766 93.966 89.5768 93.966 89.3435C93.966 89.1102 94.166 88.9104 94.3991 88.9104C94.6491 88.9104 94.8322 89.0937 94.8322 89.3435Z" fill="#1D1919"/>
<path d="M72.1462 114.828C72.0129 114.845 71.8964 114.861 71.7964 114.878C71.6965 114.895 71.5966 114.911 71.4633 114.945C71.3134 114.978 71.23 115.044 71.1968 115.144C71.1635 115.244 71.1301 115.344 71.1301 115.478V119.542C71.1301 119.899 71.0504 120.252 70.897 120.575C70.7471 120.891 70.5471 121.141 70.2807 121.357C70.0142 121.557 69.7143 121.724 69.3813 121.824C69.0481 121.924 68.6983 121.99 68.3318 121.99C67.6822 121.99 67.166 121.84 66.7661 121.524C66.3664 121.207 66.1665 120.791 66.1665 120.241C66.1665 119.925 66.2498 119.658 66.4331 119.442C66.6162 119.225 66.8662 119.125 67.1826 119.125C67.4824 119.125 67.7156 119.209 67.8989 119.392C68.082 119.575 68.1653 119.792 68.1653 120.042C68.1653 120.258 68.082 120.475 67.9321 120.658C67.7822 120.841 67.5991 121.024 67.3991 121.174V121.241C67.4324 121.307 67.499 121.374 67.5989 121.424C67.6989 121.474 67.8154 121.491 67.9155 121.491C68.3318 121.491 68.665 121.341 68.8982 121.041C69.1315 120.741 69.248 120.291 69.248 119.692V115.527C69.248 115.411 69.2312 115.294 69.198 115.211C69.1648 115.128 69.0647 115.061 68.9148 114.994C68.8149 114.945 68.6816 114.911 68.5317 114.878C68.3818 114.845 68.2653 114.828 68.1653 114.811V114.411H72.0962V114.828H72.1462V114.828ZM78.3091 120.558C78.1926 120.758 78.0427 120.941 77.876 121.124C77.7094 121.307 77.5095 121.441 77.293 121.574C77.0598 121.707 76.8266 121.807 76.5935 121.874C76.3601 121.94 76.0771 121.974 75.7773 121.974C75.261 121.974 74.8279 121.907 74.4448 121.757C74.0783 121.607 73.7619 121.424 73.5288 121.174C73.2788 120.924 73.1123 120.641 72.979 120.308C72.8576 119.96 72.7956 119.594 72.7959 119.225C72.7959 118.876 72.8625 118.526 72.9956 118.209C73.1289 117.893 73.3122 117.593 73.5454 117.343C73.7785 117.093 74.0783 116.893 74.4448 116.743C74.8254 116.588 75.2329 116.509 75.644 116.51C76.1271 116.51 76.527 116.577 76.8433 116.693C77.1599 116.81 77.4096 116.977 77.6096 117.177C77.8093 117.376 77.9426 117.61 78.0427 117.876C78.1259 118.143 78.1758 118.426 78.1758 118.725V119.059H74.6613C74.6613 119.775 74.7946 120.308 75.0777 120.674C75.3442 121.041 75.7939 121.224 76.3769 121.224C76.7101 121.224 76.9932 121.141 77.2597 120.958C77.5259 120.777 77.7525 120.545 77.926 120.275L78.3091 120.558V120.558ZM76.3271 118.576C76.3271 118.376 76.3105 118.159 76.2938 117.943C76.277 117.726 76.2438 117.543 76.1772 117.41C76.1105 117.243 76.0441 117.126 75.9274 117.043C75.8275 116.96 75.6941 116.926 75.5443 116.926C75.2777 116.926 75.0612 117.06 74.9115 117.326C74.7448 117.593 74.6613 118.026 74.6449 118.609L76.3271 118.576V118.576ZM85.6545 121.79H82.5232V121.407C82.5898 121.407 82.6731 121.391 82.7565 121.374C82.8564 121.357 82.9229 121.341 82.973 121.324C83.0395 121.291 83.0895 121.224 83.1228 121.157C83.1562 121.091 83.1728 120.974 83.1728 120.841V118.409C83.1728 118.06 83.1062 117.793 82.973 117.61C82.8396 117.426 82.6564 117.343 82.3899 117.343C82.2566 117.343 82.1235 117.36 82.0068 117.41C81.8901 117.443 81.7735 117.51 81.657 117.593C81.5571 117.66 81.4738 117.726 81.4072 117.81C81.3405 117.876 81.2905 117.943 81.2573 118.009V120.791C81.2573 120.908 81.2741 121.008 81.3073 121.091C81.3405 121.174 81.4072 121.241 81.4738 121.274C81.5239 121.307 81.5903 121.341 81.6736 121.357L81.9235 121.408V121.791H78.7588V121.408C78.842 121.408 78.9253 121.391 79.0253 121.374C79.1086 121.357 79.1919 121.341 79.2585 121.324C79.3752 121.291 79.4417 121.224 79.4918 121.141C79.5251 121.058 79.5583 120.958 79.5583 120.824V117.793C79.5583 117.693 79.5251 117.576 79.4751 117.477C79.425 117.376 79.3418 117.293 79.2585 117.227C79.1919 117.193 79.1252 117.143 79.0252 117.127C78.9233 117.093 78.8164 117.076 78.7089 117.077V116.694L81.1906 116.56L81.2739 116.644V117.393H81.2907C81.4122 117.293 81.5288 117.188 81.6404 117.077C81.763 116.97 81.8909 116.87 82.0234 116.777C82.1567 116.694 82.3232 116.627 82.5232 116.56C82.7229 116.494 82.9563 116.477 83.1894 116.477C83.7558 116.477 84.1721 116.644 84.4553 116.96C84.7385 117.277 84.8716 117.71 84.8716 118.243V120.791C84.8716 120.924 84.8884 121.024 84.9216 121.091C84.955 121.174 85.0383 121.224 85.1382 121.274C85.1882 121.291 85.2548 121.324 85.3381 121.341C85.4214 121.358 85.5046 121.374 85.6213 121.391V121.79H85.6545V121.79ZM92.8168 121.79H90.3684C90.1101 121.329 89.8323 120.879 89.5356 120.441C89.2856 120.075 89.0525 119.725 88.8359 119.425L88.5361 119.692V120.824C88.5361 120.941 88.5529 121.058 88.5861 121.124C88.6194 121.207 88.686 121.257 88.8027 121.307C88.8693 121.341 88.936 121.357 89.0192 121.374C89.1025 121.391 89.1857 121.407 89.269 121.407V121.79H86.0376V121.407C86.121 121.407 86.2043 121.391 86.3042 121.374C86.3874 121.357 86.4707 121.341 86.5375 121.324C86.654 121.291 86.7205 121.224 86.7705 121.141C86.8039 121.058 86.8371 120.958 86.8371 120.824V115.028C86.8371 114.911 86.8039 114.794 86.7539 114.678C86.7039 114.561 86.6374 114.461 86.5373 114.395C86.4707 114.362 86.3708 114.312 86.2375 114.295C86.1042 114.262 85.9877 114.245 85.8711 114.245V113.862L88.4528 113.729L88.5361 113.812V119.175C88.7861 118.942 89.0859 118.676 89.4023 118.376C89.7187 118.076 89.9853 117.826 90.1684 117.626C90.2851 117.51 90.3517 117.426 90.3517 117.36C90.3684 117.293 90.3684 117.26 90.3684 117.243C90.3684 117.177 90.3183 117.127 90.2018 117.093C90.0852 117.06 89.9353 117.01 89.7021 116.977V116.61H92.3337V116.977C91.9841 117.076 91.7177 117.16 91.5344 117.243C91.351 117.326 91.1511 117.443 90.9347 117.576C90.7931 117.672 90.6542 117.772 90.5183 117.876C90.385 117.976 90.2351 118.109 90.0519 118.259C90.385 118.759 90.7016 119.209 90.9846 119.625C91.2678 120.041 91.5676 120.491 91.884 120.958C91.9841 121.124 92.1174 121.224 92.2839 121.291C92.4504 121.341 92.6003 121.374 92.7668 121.391V121.79H92.8168V121.79ZM96.1481 121.79H92.8669V121.407C92.9501 121.407 93.05 121.391 93.1333 121.374C93.2165 121.357 93.2998 121.341 93.3498 121.324C93.4665 121.291 93.5331 121.224 93.5832 121.141C93.633 121.058 93.6496 120.958 93.6496 120.824V117.793C93.6496 117.676 93.6164 117.559 93.5664 117.476C93.5227 117.386 93.4532 117.311 93.3666 117.26C93.2998 117.226 93.2165 117.177 93.0834 117.143C92.9501 117.11 92.8335 117.076 92.7336 117.076V116.693L95.282 116.56L95.3652 116.643V120.774C95.3652 120.891 95.3986 120.991 95.4485 121.091C95.4985 121.174 95.5818 121.241 95.665 121.274C95.7317 121.307 95.8149 121.341 95.8984 121.357C95.9816 121.374 96.0649 121.391 96.1648 121.408V121.791H96.148L96.1481 121.79ZM95.3986 114.711C95.3986 114.978 95.2986 115.194 95.0988 115.377C94.8989 115.561 94.6489 115.661 94.3825 115.661C94.0993 115.661 93.8662 115.561 93.6496 115.377C93.4499 115.194 93.3498 114.961 93.3498 114.711C93.3498 114.445 93.4497 114.228 93.6496 114.028C93.8494 113.845 94.0995 113.745 94.3825 113.745C94.6657 113.745 94.8989 113.845 95.0988 114.028C95.2986 114.212 95.3986 114.445 95.3986 114.711V114.711ZM103.494 121.79H100.362V121.407C100.429 121.407 100.512 121.391 100.595 121.374C100.695 121.357 100.762 121.341 100.812 121.324C100.879 121.291 100.928 121.224 100.962 121.157C100.995 121.091 101.012 120.974 101.012 120.841V118.409C101.012 118.06 100.945 117.793 100.812 117.61C100.679 117.426 100.496 117.343 100.229 117.343C100.096 117.343 99.9624 117.36 99.8459 117.41C99.7292 117.46 99.6126 117.51 99.4961 117.593C99.3962 117.66 99.3129 117.726 99.2463 117.81C99.1796 117.876 99.1296 117.943 99.0964 118.009V120.791C99.0964 120.908 99.113 121.008 99.1462 121.091C99.1796 121.174 99.2463 121.241 99.3129 121.274C99.3628 121.307 99.4294 121.341 99.5127 121.357L99.7626 121.408V121.791H96.5979V121.408C96.6811 121.408 96.7644 121.391 96.8644 121.374C96.9477 121.357 97.0309 121.341 97.0976 121.324C97.2141 121.291 97.2807 121.224 97.3308 121.141C97.364 121.058 97.3974 120.958 97.3974 120.824V117.793C97.3974 117.693 97.364 117.576 97.3141 117.477C97.2641 117.376 97.1809 117.293 97.0976 117.227C97.0309 117.193 96.9643 117.143 96.8643 117.127C96.7623 117.093 96.6553 117.076 96.5478 117.077V116.694L99.0297 116.56L99.113 116.644V117.393H99.1298C99.2512 117.293 99.3679 117.188 99.4794 117.077C99.6021 116.97 99.73 116.87 99.8625 116.777C99.9958 116.694 100.162 116.627 100.362 116.56C100.562 116.494 100.795 116.477 101.028 116.477C101.595 116.477 102.011 116.644 102.294 116.96C102.578 117.277 102.711 117.71 102.711 118.243V120.791C102.711 120.924 102.727 121.024 102.761 121.091C102.794 121.174 102.877 121.224 102.977 121.274C103.027 121.291 103.094 121.324 103.177 121.341C103.26 121.358 103.344 121.374 103.46 121.391V121.79H103.494V121.79ZM106.375 121.974C106.042 121.974 105.709 121.924 105.393 121.824C105.076 121.724 104.826 121.624 104.643 121.507L104.493 121.857H104.093L104.027 119.925H104.41C104.46 120.075 104.543 120.258 104.676 120.458C104.793 120.658 104.943 120.824 105.093 120.991C105.264 121.147 105.455 121.281 105.659 121.391C105.875 121.491 106.092 121.557 106.325 121.557C106.642 121.557 106.875 121.491 107.025 121.374C107.175 121.257 107.258 121.058 107.258 120.808C107.258 120.674 107.225 120.558 107.158 120.458C107.091 120.375 106.991 120.291 106.875 120.225C106.742 120.158 106.592 120.091 106.425 120.042C106.259 119.992 106.059 119.942 105.826 119.858C105.592 119.792 105.393 119.725 105.226 119.642C105.059 119.575 104.876 119.458 104.709 119.308C104.56 119.175 104.426 119.009 104.343 118.826C104.243 118.642 104.21 118.409 104.21 118.143C104.21 117.66 104.41 117.26 104.826 116.96C105.242 116.66 105.776 116.51 106.442 116.51C106.758 116.51 107.041 116.544 107.308 116.61C107.574 116.677 107.791 116.743 107.974 116.827L108.091 116.527H108.49L108.574 118.293H108.207C108.091 117.926 107.874 117.626 107.591 117.36C107.291 117.093 106.975 116.96 106.642 116.96C106.375 116.96 106.159 117.01 106.009 117.127C105.859 117.243 105.775 117.393 105.775 117.593C105.775 117.859 105.892 118.043 106.109 118.159C106.325 118.276 106.642 118.393 107.041 118.492C107.658 118.659 108.107 118.876 108.407 119.142C108.69 119.425 108.84 119.775 108.84 120.191C108.84 120.758 108.624 121.207 108.174 121.507C107.674 121.807 107.091 121.974 106.375 121.974H106.375Z" fill="#231F20"/>
</g>
<defs>
<filter id="filter0_d_1100_776" x="0.431396" y="0.14209" width="173.137" height="173.137" filterUnits="userSpaceOnUse" color-interpolation-filters="sRGB">
<feFlood flood-opacity="0" result="BackgroundImageFix"/>
<feColorMatrix in="SourceAlpha" type="matrix" values="0 0 0 0 0 0 0 0 0 0 0 0 0 0 0 0 0 0 127 0" result="hardAlpha"/>
<feOffset/>
<feGaussianBlur stdDeviation="10"/>
<feComposite in2="hardAlpha" operator="out"/>
<feColorMatrix type="matrix" values="0 0 0 0 0 0 0 0 0 0 0 0 0 0 0 0 0 0 0.1 0"/>
<feBlend mode="normal" in2="BackgroundImageFix" result="effect1_dropShadow_1100_776"/>
<feBlend mode="normal" in="SourceGraphic" in2="effect1_dropShadow_1100_776" result="shape"/>
</filter>
<clipPath id="clip0_1100_776">
<rect width="42.98" height="70" fill="white" transform="translate(66 52)"/>
</clipPath>
</defs>
</svg>
