<svg width="174" height="174" viewBox="0 0 174 174" fill="none" xmlns="http://www.w3.org/2000/svg">
<g filter="url(#filter0_d_1100_776)">
<rect x="87" y="16" width="100" height="100" rx="10" transform="rotate(45 87 16)" fill="white"/>
</g>
<path d="M84.0093 86.2106L88.2117 91.6094H85.2516L81.7393 86.8854V91.6094H79.27V80.9192H81.7393V85.6738L85.267 80.9192H88.1964L84.0093 86.2106ZM95.8651 88.5726H90.4203C90.4663 89.5388 91.1105 90.0603 92.1381 90.0603C92.859 90.0603 93.3191 89.8609 93.5185 89.4008H95.8038C95.5737 90.8578 94.086 91.8088 92.1381 91.8088C89.6381 91.8088 88.089 90.3824 88.089 87.9437C88.089 85.5358 89.6688 84.0787 92.0614 84.0787C94.3467 84.0787 95.9111 85.5051 95.9111 87.5756C95.9265 87.8977 95.8958 88.2351 95.8651 88.5726ZM93.6105 87.1155C93.5952 86.1492 93.043 85.6124 92.0461 85.6124C91.0492 85.6124 90.4357 86.2106 90.4203 87.1155H93.6105ZM97.2608 84.2474H99.5921V85.3057C100.022 84.4775 100.865 84.0327 101.969 84.0327C103.749 84.0327 104.653 85.045 104.653 87.0388V91.594H102.307V87.821C102.307 86.5787 101.954 86.0112 101.003 86.0112C100.052 86.0112 99.5768 86.6247 99.5768 87.7597V91.6094H97.2455V84.2474H97.2608ZM111.08 89.7382V91.6094C110.558 91.7014 110.037 91.7321 109.515 91.7321C108.411 91.7321 106.908 91.4867 106.908 89.0173V86.0879H105.742V84.2474H106.908V82.0542H109.239V84.2474H110.911V86.0879H109.239V88.5265C109.239 89.6155 109.684 89.7842 110.267 89.7842C110.543 89.7842 110.804 89.7689 111.08 89.7382ZM112.138 82.1769C112.123 81.594 112.476 81.0572 113.012 80.8272C113.549 80.5971 114.178 80.7198 114.592 81.1339C115.006 81.548 115.129 82.1769 114.914 82.7137C114.684 83.2505 114.163 83.6032 113.58 83.6032C113.196 83.6186 112.828 83.4652 112.568 83.2045C112.291 82.9284 112.138 82.5603 112.138 82.1769ZM112.414 84.2474H114.73V91.6094H112.414V84.2474ZM116.095 87.9284C116.095 85.6124 117.614 84.0634 120.037 84.0634C122.23 84.0634 123.672 85.229 123.856 87.0542H121.525C121.356 86.364 120.911 86.0419 120.052 86.0419C119.04 86.0419 118.426 86.7167 118.426 87.9284C118.426 89.1554 119.04 89.8302 120.052 89.8302C120.911 89.8302 121.356 89.5235 121.525 88.8793H123.856C123.672 90.6738 122.23 91.8088 120.037 91.8088C117.614 91.8088 116.095 90.2443 116.095 87.9284ZM124.884 87.9284C124.884 85.6891 126.448 84.0634 128.979 84.0634C131.509 84.0634 133.058 85.6891 133.058 87.9284C133.058 90.1677 131.494 91.7934 128.979 91.7934C126.448 91.7934 124.884 90.1677 124.884 87.9284ZM130.727 87.9284C130.727 86.8088 130.068 86.0265 128.963 86.0265C127.859 86.0265 127.215 86.8241 127.215 87.9284C127.215 89.048 127.859 89.8456 128.963 89.8456C130.083 89.8302 130.727 89.048 130.727 87.9284Z" fill="black"/>
<path d="M41.0337 72.1455H70.0674V101.179H41.0337V72.1455V72.1455ZM55.5429 84.5228C54.3619 84.5228 53.3957 85.4891 53.3957 86.67C53.3957 87.5443 53.9171 88.3265 54.7147 88.6486C55.5122 88.986 56.4325 88.802 57.046 88.1885C57.6595 87.575 57.8435 86.6547 57.5061 85.8572C57.1993 85.0443 56.4171 84.5228 55.5429 84.5228ZM61.0644 85.1823C59.2239 85.1823 59.2699 88.1271 61.0797 88.1271H64.3773C66.2484 88.1271 65.9417 85.9032 65.8343 85.3204C65.819 85.2437 65.7423 85.1823 65.6656 85.1823H61.0644ZM50.0368 88.1271C51.8772 88.1271 51.8312 85.1823 50.0214 85.1823H46.7239C44.8527 85.1823 45.1595 87.4062 45.2668 87.9891C45.2822 88.0658 45.3588 88.1271 45.4355 88.1271H50.0368ZM58.3957 81.7161C57.1073 83.0044 59.2085 85.0596 60.4969 83.7866L62.8282 81.4553C64.1472 80.1363 62.368 78.7713 61.8772 78.4492C61.8006 78.4032 61.7085 78.4032 61.6472 78.4645L58.3957 81.7161ZM52.6901 91.5934C53.9785 90.305 51.8772 88.2498 50.5889 89.5228L48.2576 91.8541C46.9386 93.1731 48.7177 94.5228 49.2085 94.8602C49.2852 94.9063 49.3772 94.8909 49.4386 94.8449L52.6901 91.5934ZM54.0705 81.1332C54.0705 82.9737 57.0153 82.9277 57.0153 81.1179V77.8204C57.0153 75.9492 54.7914 76.2559 54.2085 76.3633C54.1319 76.3786 54.0705 76.4553 54.0705 76.532V81.1332ZM57.0153 92.1762C57.0153 90.3357 54.0705 90.3817 54.0705 92.1915V95.4891C54.0705 97.3602 56.2944 97.0535 56.8772 96.9461C56.9539 96.9308 57.0153 96.8541 57.0153 96.7774V92.1762V92.1762ZM50.6042 83.802C51.8926 85.1056 53.9478 82.9891 52.6748 81.7007L50.3435 79.3694C49.0245 78.0504 47.6595 79.8296 47.3374 80.3204C47.2914 80.397 47.2914 80.4891 47.3527 80.5351L50.6042 83.802ZM60.4815 89.5075C59.1932 88.2038 57.138 90.3204 58.411 91.6087L60.7423 93.94C62.0613 95.259 63.4263 93.4799 63.7484 92.9891C63.7944 92.9124 63.7944 92.8204 63.7331 92.7743L60.4815 89.5075Z" fill="#F05A22"/>
<defs>
<filter id="filter0_d_1100_776" x="0.431396" y="0.14209" width="173.137" height="173.137" filterUnits="userSpaceOnUse" color-interpolation-filters="sRGB">
<feFlood flood-opacity="0" result="BackgroundImageFix"/>
<feColorMatrix in="SourceAlpha" type="matrix" values="0 0 0 0 0 0 0 0 0 0 0 0 0 0 0 0 0 0 127 0" result="hardAlpha"/>
<feOffset/>
<feGaussianBlur stdDeviation="10"/>
<feComposite in2="hardAlpha" operator="out"/>
<feColorMatrix type="matrix" values="0 0 0 0 0 0 0 0 0 0 0 0 0 0 0 0 0 0 0.1 0"/>
<feBlend mode="normal" in2="BackgroundImageFix" result="effect1_dropShadow_1100_776"/>
<feBlend mode="normal" in="SourceGraphic" in2="effect1_dropShadow_1100_776" result="shape"/>
</filter>
</defs>
</svg>
