<svg width="174" height="174" viewBox="0 0 174 174" fill="none" xmlns="http://www.w3.org/2000/svg">
<g filter="url(#filter0_d_1837_1422)">
<rect x="86.7109" y="16" width="100" height="100" rx="10" transform="rotate(45 86.7109 16)" fill="white"/>
</g>
<path d="M61.9811 78.4471C70.934 78.4471 79.3962 80.7941 86.7547 84.7471L113 53H61V116V78.4471H61.9811Z" fill="#E9478B"/>
<path d="M86.8156 85L61 116.085V121H113C110.05 105.519 100.215 92.372 86.8156 85Z" fill="#3EBEB0"/>
<path d="M86.5914 85L61 116.085V121H70.1398L95 90.7747C95 90.7747 93.2939 89.4232 90.9785 87.7031C89.2724 86.4744 86.5914 85 86.5914 85V85Z" fill="#37A595"/>
<path d="M61.9905 79H61V116L87 85.2072C79.5714 81.3125 71.0286 79 61.9905 79V79Z" fill="#353535"/>
<defs>
<filter id="filter0_d_1837_1422" x="0.142578" y="0.14209" width="173.137" height="173.137" filterUnits="userSpaceOnUse" color-interpolation-filters="sRGB">
<feFlood flood-opacity="0" result="BackgroundImageFix"/>
<feColorMatrix in="SourceAlpha" type="matrix" values="0 0 0 0 0 0 0 0 0 0 0 0 0 0 0 0 0 0 127 0" result="hardAlpha"/>
<feOffset/>
<feGaussianBlur stdDeviation="10"/>
<feComposite in2="hardAlpha" operator="out"/>
<feColorMatrix type="matrix" values="0 0 0 0 0 0 0 0 0 0 0 0 0 0 0 0 0 0 0.1 0"/>
<feBlend mode="normal" in2="BackgroundImageFix" result="effect1_dropShadow_1837_1422"/>
<feBlend mode="normal" in="SourceGraphic" in2="effect1_dropShadow_1837_1422" result="shape"/>
</filter>
</defs>
</svg>
