<svg width="174" height="174" viewBox="0 0 174 174" fill="none" xmlns="http://www.w3.org/2000/svg">
<g filter="url(#filter0_d_1100_776)">
<rect x="87" y="16" width="100" height="100" rx="10" transform="rotate(45 87 16)" fill="white"/>
</g>
<g clip-path="url(#clip0_1100_776)">
<path d="M74.0727 120.852C72.4014 120.852 70.8231 120.11 69.7553 118.763L53.5073 98.5688C52.4394 97.2224 52.0218 95.505 52.4394 93.8334L58.2424 68.6253C58.6137 66.954 59.7279 65.6076 61.2601 64.865L84.7505 53.6301C85.4934 53.259 86.329 53.0732 87.1647 53.0732C88.0004 53.0732 88.8357 53.2588 89.5786 53.6303L113.069 64.8186C114.601 65.5612 115.715 66.9076 116.087 68.5789L121.89 93.787C122.261 95.4583 121.89 97.176 120.822 98.5224L104.574 118.717C103.506 120.017 101.927 120.806 100.256 120.806L74.0733 120.852H74.0727Z" fill="#326DE6"/>
<path d="M87.1177 54.2338C87.7679 54.2338 88.4178 54.3729 89.0212 54.6515L112.512 65.8397C113.719 66.4432 114.647 67.5574 114.926 68.8574L120.729 94.0655C121.054 95.4119 120.729 96.8047 119.847 97.8722L103.598 118.067C102.763 119.134 101.463 119.738 100.117 119.738H74.0727C72.7263 119.738 71.4266 119.134 70.5909 118.067L54.3426 97.8722C53.507 96.8047 53.1817 95.4119 53.4606 94.0655L59.2635 68.8574C59.5885 67.511 60.4705 66.3968 61.6775 65.8397L85.1684 54.6054C85.7719 54.3732 86.4682 54.2341 87.118 54.2341L87.1177 54.2338ZM87.1177 52.0518C86.1429 52.0518 85.1682 52.2839 84.2395 52.7016L60.7491 63.9365C58.8919 64.8185 57.5922 66.4432 57.1279 68.4395L51.3249 93.6478C50.8608 95.6441 51.3249 97.6867 52.6249 99.3116L68.8732 119.506C70.1268 121.084 72.03 121.966 74.0263 121.966H100.07C102.066 121.966 103.97 121.084 105.223 119.506L121.472 99.3114C122.771 97.7331 123.236 95.6441 122.771 93.6475L116.968 68.4395C116.504 66.4432 115.204 64.8185 113.348 63.9365L89.9497 52.7013C89.0676 52.2839 88.0928 52.0518 87.1177 52.0518V52.0518Z" fill="white"/>
<path d="M110.655 92.0692C110.608 92.0692 110.608 92.0692 110.655 92.0692H110.608C110.562 92.0692 110.516 92.0692 110.516 92.0228C110.423 92.0228 110.33 91.9765 110.237 91.9765C109.912 91.9301 109.633 91.8837 109.355 91.8837C109.216 91.8837 109.076 91.8837 108.891 91.837H108.844C107.869 91.7443 107.08 91.6515 106.337 91.4194C106.012 91.2799 105.92 91.0944 105.827 90.9086C105.827 90.8622 105.78 90.8622 105.78 90.8159L105.177 90.6304C105.462 88.4465 105.352 86.2291 104.852 84.0842C104.345 81.9215 103.465 79.8635 102.252 78.0027L102.716 77.585V77.4923C102.716 77.2601 102.763 77.0279 102.948 76.7957C103.505 76.285 104.202 75.8673 105.038 75.3566C105.177 75.2638 105.316 75.2175 105.455 75.1244C105.734 74.9853 105.966 74.8461 106.244 74.6603C106.291 74.614 106.384 74.5676 106.477 74.4748C106.523 74.4282 106.569 74.4282 106.569 74.3818C107.219 73.8247 107.359 72.8963 106.894 72.2925C106.662 71.9676 106.244 71.7821 105.827 71.7821C105.455 71.7821 105.13 71.9212 104.805 72.1534L104.713 72.2461C104.62 72.2925 104.573 72.3855 104.48 72.4319C104.248 72.6641 104.062 72.8496 103.877 73.0818C103.784 73.1745 103.691 73.314 103.552 73.4067C102.902 74.1032 102.298 74.6603 101.695 75.078C101.556 75.1708 101.417 75.2175 101.277 75.2175C101.184 75.2175 101.091 75.2175 100.999 75.1708H100.906L100.348 75.5424C99.745 74.8925 99.0951 74.3354 98.4453 73.7783C95.6469 71.591 92.2792 70.2535 88.7426 69.9249L88.6962 69.3215L88.6035 69.2287C88.464 69.0893 88.2785 68.9501 88.2319 68.6252C88.1855 67.8823 88.2785 67.0467 88.3713 66.1182V66.0719C88.3713 65.9324 88.4177 65.7469 88.464 65.6075C88.5104 65.3292 88.5568 65.0504 88.6035 64.7255V64.3078C88.6035 63.4721 87.9533 62.7759 87.1643 62.7759C86.7927 62.7759 86.4214 62.9614 86.1429 63.2399C85.8646 63.5185 85.7252 63.8898 85.7252 64.3078V64.6791C85.7252 65.004 85.7715 65.2826 85.8643 65.5611C85.9107 65.7005 85.9107 65.8397 85.9571 66.0255V66.0719C86.0498 67.0003 86.1892 67.8359 86.0965 68.5788C86.0501 68.9038 85.8643 69.0429 85.7252 69.1823L85.6324 69.2751L85.5857 69.8786C84.7501 69.9713 83.9144 70.0641 83.0788 70.2499C79.5042 71.0392 76.3474 72.8499 73.8871 75.4493L73.4227 75.1244H73.33C73.2372 75.1244 73.1442 75.1708 73.0514 75.1708C72.912 75.1708 72.7729 75.1244 72.6335 75.0317C72.03 74.614 71.4265 74.0102 70.7766 73.314C70.6839 73.2212 70.5911 73.0818 70.4517 72.989C70.2659 72.7569 70.0801 72.5711 69.8479 72.3392C69.8016 72.2925 69.7088 72.2464 69.616 72.1534C69.5697 72.107 69.5233 72.107 69.5233 72.0606C69.2357 71.823 68.8749 71.6918 68.5018 71.689C68.0839 71.689 67.6662 71.8748 67.434 72.1997C66.9696 72.8032 67.1091 73.7316 67.7589 74.2888C67.8053 74.2888 67.8053 74.3354 67.8517 74.3354C67.9444 74.3818 67.9911 74.4746 68.0839 74.5209C68.3624 74.7064 68.5946 74.8459 68.8731 74.9853C69.0126 75.0317 69.1517 75.1244 69.2911 75.2175C70.1265 75.7279 70.823 76.1459 71.3801 76.6566C71.6123 76.8885 71.6123 77.1207 71.6123 77.3528V77.4456L72.0764 77.8636C71.9836 78.0027 71.8908 78.0957 71.8442 78.2349C69.523 81.9025 68.641 86.2199 69.2444 90.4909L68.641 90.6765C68.641 90.7231 68.5946 90.7231 68.5946 90.7692C68.5018 90.955 68.3624 91.1408 68.0839 91.2799C67.3876 91.5121 66.552 91.6052 65.5772 91.6979H65.5305C65.3914 91.6979 65.2056 91.6979 65.0664 91.7443C64.7879 91.7443 64.5093 91.7907 64.1844 91.837C64.0916 91.837 63.9989 91.8837 63.9058 91.8837C63.8595 91.8837 63.8131 91.8837 63.7664 91.9301C62.9308 92.1156 62.42 92.9049 62.5595 93.6475C62.6989 94.2976 63.3024 94.7156 64.045 94.7156C64.1844 94.7156 64.2772 94.7156 64.4166 94.669C64.463 94.669 64.5093 94.669 64.5093 94.6226C64.6021 94.6226 64.6948 94.5762 64.7876 94.5762C65.1128 94.4834 65.345 94.3907 65.6235 94.2513C65.7627 94.2049 65.9018 94.1118 66.0412 94.0658H66.0876C66.9696 93.7405 67.7589 93.462 68.5018 93.3692H68.5946C68.8731 93.3692 69.0589 93.5084 69.1981 93.6014C69.2444 93.6014 69.2444 93.6478 69.2908 93.6478L69.941 93.555C71.0552 96.9901 73.1906 100.054 76.0225 102.283C76.6723 102.793 77.3222 103.211 78.0187 103.629L77.7402 104.232C77.7402 104.279 77.7865 104.279 77.7865 104.325C77.8793 104.511 77.9721 104.743 77.8793 105.068C77.601 105.764 77.1831 106.461 76.6723 107.25V107.296C76.5796 107.436 76.4868 107.528 76.3941 107.668C76.2083 107.9 76.0689 108.132 75.8831 108.411C75.8367 108.457 75.7903 108.55 75.7439 108.643C75.7439 108.689 75.6975 108.735 75.6975 108.735C75.3262 109.525 75.6048 110.407 76.301 110.732C76.4865 110.824 76.6723 110.871 76.8581 110.871C77.4152 110.871 77.9723 110.5 78.2509 109.989C78.2509 109.942 78.2973 109.896 78.2973 109.896C78.3437 109.803 78.39 109.711 78.4364 109.664C78.5758 109.339 78.6222 109.107 78.715 108.828L78.8544 108.411C79.1793 107.482 79.4115 106.739 79.8292 106.089C80.0147 105.811 80.2471 105.764 80.4327 105.671C80.479 105.671 80.479 105.671 80.5254 105.625L80.8506 105.022C82.8933 105.811 85.1217 106.228 87.3498 106.228C88.6962 106.228 90.089 106.089 91.389 105.764C92.207 105.582 93.0132 105.349 93.8029 105.068L94.0812 105.579C94.1278 105.579 94.1279 105.579 94.1742 105.625C94.4064 105.671 94.5919 105.764 94.7777 106.043C95.149 106.693 95.4276 107.482 95.7525 108.364V108.411L95.8919 108.828C95.9847 109.107 96.0311 109.385 96.1702 109.664C96.2169 109.757 96.2632 109.803 96.3096 109.896C96.3096 109.942 96.3563 109.989 96.3563 109.989C96.6345 110.546 97.1916 110.871 97.7488 110.871C97.9346 110.871 98.1203 110.824 98.3059 110.732C98.6308 110.546 98.9093 110.267 99.0024 109.896C99.0951 109.525 99.0951 109.107 98.9096 108.735C98.9096 108.689 98.863 108.689 98.863 108.643C98.8166 108.55 98.7702 108.457 98.7238 108.411C98.5844 108.132 98.3989 107.9 98.2131 107.668C98.1203 107.528 98.0276 107.436 97.9348 107.297V107.25C97.4238 106.461 96.9595 105.764 96.7276 105.068C96.6348 104.743 96.7276 104.557 96.774 104.325C96.774 104.279 96.8203 104.279 96.8203 104.233L96.5882 103.675C99.0488 102.236 101.138 100.193 102.716 97.6867C103.552 96.3867 104.202 94.9475 104.666 93.5084L105.223 93.6011C105.27 93.6011 105.27 93.5547 105.316 93.5547C105.502 93.462 105.641 93.3229 105.92 93.3229H106.012C106.755 93.4156 107.544 93.6939 108.427 94.0191H108.473C108.612 94.0655 108.751 94.1582 108.891 94.2046C109.169 94.344 109.401 94.4368 109.726 94.5298C109.819 94.5298 109.912 94.5762 110.005 94.5762C110.051 94.5762 110.098 94.5762 110.144 94.6226C110.283 94.669 110.376 94.669 110.516 94.669C111.212 94.669 111.815 94.2049 112.001 93.6014C112.001 93.0443 111.49 92.3014 110.655 92.0695V92.0692ZM89.1603 89.7944L87.1176 90.7695L85.075 89.7944L84.5646 87.6127L85.9571 85.8486H88.2319L89.6246 87.6127L89.1606 89.7944H89.1603ZM101.277 84.9665C101.637 86.5017 101.747 88.0849 101.602 89.655L94.4992 87.6127C93.8493 87.4271 93.478 86.777 93.6171 86.1271C93.6635 85.9413 93.7565 85.7555 93.8957 85.6164L99.5131 80.5561C100.302 81.8561 100.906 83.3416 101.277 84.9663V84.9665ZM97.2847 77.7708L91.2032 82.0882C90.6925 82.4132 89.9959 82.3201 89.5782 81.8097C89.4391 81.6703 89.3927 81.4845 89.3461 81.299L88.9284 73.7316C92.09 74.0957 95.0353 75.5194 97.2847 77.7708V77.7708ZM83.8217 73.9635C84.3324 73.8708 84.7965 73.778 85.3072 73.6853L84.8895 81.1129C84.8431 81.7628 84.3324 82.3199 83.6359 82.3199C83.4504 82.3199 83.2182 82.2735 83.0788 82.1807L76.9045 77.7708C78.808 75.8673 81.1756 74.5673 83.8217 73.9638V73.9635ZM74.6761 80.5558L80.2005 85.4767C80.7112 85.8947 80.7576 86.6837 80.3399 87.1944C80.2005 87.3799 80.015 87.5193 79.7828 87.566L72.5871 89.655C72.3085 86.4982 73.0048 83.2949 74.6761 80.5558V80.5558ZM73.4225 93.1368L80.8043 91.8831C81.4077 91.8368 81.9648 92.2547 82.104 92.8582C82.1504 93.1365 82.1504 93.3689 82.0576 93.6011L79.2257 100.425C76.626 98.7539 74.537 96.2006 73.4227 93.1368H73.4225ZM90.3675 102.375C89.2997 102.607 88.2319 102.746 87.1176 102.746C85.493 102.746 83.9144 102.468 82.4292 102.004L86.0965 95.3652C86.4678 94.9472 87.0713 94.7617 87.582 95.0403C87.7988 95.1731 87.9879 95.3464 88.1391 95.5507L91.7136 102.004C91.2959 102.143 90.8316 102.236 90.3672 102.375H90.3675ZM99.4201 95.9223C98.2595 97.7791 96.7273 99.2647 94.9635 100.425L92.0388 93.415C91.8994 92.8582 92.1316 92.2547 92.6887 91.9759C92.8742 91.8831 93.1064 91.8368 93.3386 91.8368L100.766 93.0904C100.488 94.1116 100.024 95.0403 99.4201 95.9223V95.9223Z" fill="white"/>
</g>
<defs>
<filter id="filter0_d_1100_776" x="0.431396" y="0.14209" width="173.137" height="173.137" filterUnits="userSpaceOnUse" color-interpolation-filters="sRGB">
<feFlood flood-opacity="0" result="BackgroundImageFix"/>
<feColorMatrix in="SourceAlpha" type="matrix" values="0 0 0 0 0 0 0 0 0 0 0 0 0 0 0 0 0 0 127 0" result="hardAlpha"/>
<feOffset/>
<feGaussianBlur stdDeviation="10"/>
<feComposite in2="hardAlpha" operator="out"/>
<feColorMatrix type="matrix" values="0 0 0 0 0 0 0 0 0 0 0 0 0 0 0 0 0 0 0.1 0"/>
<feBlend mode="normal" in2="BackgroundImageFix" result="effect1_dropShadow_1100_776"/>
<feBlend mode="normal" in="SourceGraphic" in2="effect1_dropShadow_1100_776" result="shape"/>
</filter>
<clipPath id="clip0_1100_776">
<rect width="71.9572" height="70" fill="white" transform="translate(51 52)"/>
</clipPath>
</defs>
</svg>
