<svg width="174" height="174" viewBox="0 0 174 174" fill="none" xmlns="http://www.w3.org/2000/svg">
<g filter="url(#filter0_d_1100_776)">
<rect x="87" y="16" width="100" height="100" rx="10" transform="rotate(45 87 16)" fill="white"/>
</g>
<g clip-path="url(#clip0_1100_776)">
<path d="M120.545 67.9709C120.571 68.0637 120.583 68.1593 120.584 68.2554V83.1893C120.584 83.381 120.533 83.5693 120.437 83.7351C120.341 83.901 120.203 84.0385 120.036 84.1339L107.502 91.3504V105.654C107.502 106.043 107.295 106.403 106.958 106.599L80.7935 121.661C80.7336 121.695 80.6682 121.716 80.6029 121.74C80.5784 121.748 80.5553 121.763 80.5294 121.769C80.3465 121.818 80.1543 121.818 79.9714 121.769C79.9414 121.761 79.9142 121.745 79.8856 121.734C79.8257 121.712 79.7631 121.693 79.7059 121.661L53.5472 106.599C53.381 106.503 53.2429 106.366 53.1468 106.2C53.0508 106.034 53.0001 105.846 53 105.654V60.8524C53 60.7544 53.0136 60.6592 53.0381 60.5666C53.0463 60.5353 53.0653 60.5067 53.0762 60.4754C53.0966 60.4182 53.1157 60.3597 53.1456 60.3066C53.1661 60.2712 53.196 60.2427 53.2205 60.21C53.2518 60.1664 53.2804 60.1215 53.3171 60.0834C53.3484 60.0521 53.3893 60.029 53.4247 60.0017C53.4641 59.9691 53.4995 59.9337 53.5444 59.9078H53.5458L66.6259 52.3769C66.7915 52.2816 66.9792 52.2314 67.1703 52.2314C67.3614 52.2314 67.5491 52.2816 67.7147 52.3769L80.7948 59.9078H80.7975C80.8411 59.9351 80.8778 59.9691 80.9173 60.0004C80.9527 60.0276 80.9922 60.0521 81.0235 60.082C81.0616 60.1215 81.0888 60.1664 81.1215 60.21C81.1446 60.2427 81.1759 60.2712 81.195 60.3066C81.2263 60.3611 81.244 60.4182 81.2658 60.4754C81.2766 60.5067 81.2957 60.5353 81.3039 60.568C81.3289 60.6607 81.3417 60.7563 81.342 60.8524V88.8351L92.2416 82.5591V68.254C92.2416 68.1588 92.2552 68.0621 92.2797 67.9709C92.2892 67.9383 92.3069 67.9097 92.3178 67.8784C92.3396 67.8212 92.3586 67.7627 92.3886 67.7096C92.409 67.6742 92.4389 67.6456 92.4621 67.613C92.4948 67.5694 92.522 67.5245 92.5601 67.4864C92.5914 67.4551 92.6309 67.4319 92.6662 67.4047C92.7071 67.3721 92.7425 67.3367 92.786 67.3108H92.7874L105.869 59.7799C106.034 59.6845 106.222 59.6342 106.413 59.6342C106.604 59.6342 106.792 59.6845 106.958 59.7799L120.038 67.3108C120.084 67.338 120.119 67.3721 120.16 67.4034C120.194 67.4306 120.234 67.4551 120.265 67.485C120.303 67.5245 120.33 67.5694 120.363 67.613C120.388 67.6456 120.418 67.6742 120.437 67.7096C120.468 67.7627 120.486 67.8212 120.507 67.8784C120.52 67.9097 120.537 67.9383 120.545 67.9709V67.9709ZM118.403 82.5591V70.1405L113.826 72.7756L107.502 76.4165V88.8351L118.404 82.5591H118.403ZM105.323 105.024V92.5972L99.1028 96.1496L81.3406 106.287V118.831L105.323 105.024ZM55.1805 62.7375V105.024L79.1602 118.829V106.288L66.6327 99.1985L66.6286 99.1957L66.6232 99.193C66.581 99.1685 66.5456 99.1331 66.5061 99.1032C66.4721 99.076 66.4326 99.0542 66.4027 99.0243L66.3999 99.0202C66.3645 98.9861 66.34 98.9439 66.3101 98.9058C66.2829 98.8691 66.2502 98.8378 66.2284 98.7997L66.2271 98.7956C66.2026 98.7548 66.1876 98.7058 66.1699 98.6595C66.1522 98.6186 66.1291 98.5805 66.1182 98.537V98.5356C66.1046 98.4839 66.1019 98.4295 66.0964 98.3764C66.091 98.3355 66.0801 98.2947 66.0801 98.2539V69.0135L59.7578 65.3713L55.1805 62.7389V62.7375ZM67.1717 54.5792L56.2734 60.8524L67.1689 67.1257L78.0658 60.8511L67.1689 54.5792H67.1717ZM72.8392 93.7296L79.1615 90.09V62.7375L74.5842 65.3726L68.2605 69.0135V96.366L72.8392 93.7296ZM106.413 61.9821L95.5164 68.2554L106.413 74.5287L117.309 68.254L106.413 61.9821ZM105.323 76.4165L98.9994 72.7756L94.4221 70.1405V82.5591L100.744 86.1987L105.323 88.8351V76.4165ZM80.249 104.402L96.2323 95.2772L104.222 90.7175L93.3332 84.4483L80.7962 91.6662L69.3698 98.2443L80.249 104.402Z" fill="#FF2D20"/>
</g>
<defs>
<filter id="filter0_d_1100_776" x="0.431396" y="0.14209" width="173.137" height="173.137" filterUnits="userSpaceOnUse" color-interpolation-filters="sRGB">
<feFlood flood-opacity="0" result="BackgroundImageFix"/>
<feColorMatrix in="SourceAlpha" type="matrix" values="0 0 0 0 0 0 0 0 0 0 0 0 0 0 0 0 0 0 127 0" result="hardAlpha"/>
<feOffset/>
<feGaussianBlur stdDeviation="10"/>
<feComposite in2="hardAlpha" operator="out"/>
<feColorMatrix type="matrix" values="0 0 0 0 0 0 0 0 0 0 0 0 0 0 0 0 0 0 0.1 0"/>
<feBlend mode="normal" in2="BackgroundImageFix" result="effect1_dropShadow_1100_776"/>
<feBlend mode="normal" in="SourceGraphic" in2="effect1_dropShadow_1100_776" result="shape"/>
</filter>
<clipPath id="clip0_1100_776">
<rect width="67.704" height="70" fill="white" transform="translate(53 52)"/>
</clipPath>
</defs>
</svg>
