<svg width="174" height="174" viewBox="0 0 174 174" fill="none" xmlns="http://www.w3.org/2000/svg">
<g filter="url(#filter0_d_1100_776)">
<rect x="87" y="16" width="100" height="100" rx="10" transform="rotate(45 87 16)" fill="white"/>
</g>
<path d="M83.4189 53.7012L85.3694 57.3646C85.8079 58.0406 86.283 58.639 86.8425 59.1962C88.483 60.8163 90.0122 62.5453 91.4195 64.3716C94.7243 68.711 96.9534 73.53 98.5453 78.7419C99.5 81.9257 100.018 85.1916 100.057 88.4942C100.217 98.3675 96.8324 106.845 90.008 113.891C88.898 115.008 87.6988 116.034 86.4223 116.956C85.7463 116.956 85.4265 116.438 85.1479 115.96C84.6405 115.075 84.3027 114.103 84.1521 113.094C83.9123 111.9 83.7547 110.705 83.8323 109.472V108.915C83.7775 108.796 83.1814 53.9821 83.4189 53.7012V53.7012Z" fill="#599636"/>
<path d="M83.4189 53.58C83.339 53.4202 83.259 53.5412 83.1791 53.6189C83.2179 54.4182 82.9393 55.1308 82.5031 55.8114C82.0234 56.4875 81.3885 57.0059 80.7513 57.5632C77.2112 60.6282 74.4249 64.3304 72.1935 68.4711C69.2244 74.0438 67.6942 80.0163 67.2602 86.3038C67.0615 88.5718 67.9774 96.5746 68.6923 98.8836C70.6427 105.014 74.1462 110.15 78.6844 114.608C79.7989 115.682 80.9911 116.678 82.2244 117.634C82.583 117.634 82.6218 117.315 82.7041 117.077C82.8613 116.569 82.9811 116.05 83.0626 115.524L83.862 109.554L83.4189 53.58Z" fill="#6CAC48"/>
<path d="M85.3693 119.381C85.4493 118.468 85.8878 117.71 86.3651 116.954C85.8855 116.755 85.5292 116.36 85.2506 115.919C85.0103 115.502 84.8114 115.062 84.6567 114.606C84.0995 112.934 83.9807 111.18 83.8208 109.472V108.437C83.6221 108.597 83.581 109.949 83.581 110.15C83.4648 111.956 83.2252 113.751 82.8639 115.524C82.7451 116.241 82.6652 116.956 82.2244 117.593C82.2244 117.673 82.2244 117.753 82.2632 117.872C82.9803 119.982 83.1768 122.131 83.2978 124.321V125.121C83.2978 126.075 83.259 125.875 84.0515 126.194C84.3712 126.313 84.7275 126.354 85.0473 126.592C85.2871 126.592 85.3259 126.393 85.3259 126.233L85.2072 124.92V121.256C85.1683 120.617 85.2871 119.982 85.367 119.384L85.3693 119.381Z" fill="#C2BFBF"/>
<defs>
<filter id="filter0_d_1100_776" x="0.431396" y="0.14209" width="173.137" height="173.137" filterUnits="userSpaceOnUse" color-interpolation-filters="sRGB">
<feFlood flood-opacity="0" result="BackgroundImageFix"/>
<feColorMatrix in="SourceAlpha" type="matrix" values="0 0 0 0 0 0 0 0 0 0 0 0 0 0 0 0 0 0 127 0" result="hardAlpha"/>
<feOffset/>
<feGaussianBlur stdDeviation="10"/>
<feComposite in2="hardAlpha" operator="out"/>
<feColorMatrix type="matrix" values="0 0 0 0 0 0 0 0 0 0 0 0 0 0 0 0 0 0 0.1 0"/>
<feBlend mode="normal" in2="BackgroundImageFix" result="effect1_dropShadow_1100_776"/>
<feBlend mode="normal" in="SourceGraphic" in2="effect1_dropShadow_1100_776" result="shape"/>
</filter>
</defs>
</svg>
