<svg width="174" height="174" viewBox="0 0 174 174" fill="none" xmlns="http://www.w3.org/2000/svg">
<g filter="url(#filter0_d_1100_776)">
<rect x="87" y="16" width="100" height="100" rx="10" transform="rotate(45 87 16)" fill="white"/>
</g>
<path fill-rule="evenodd" clip-rule="evenodd" d="M45.9707 101.871H48.6998V91.1211L52.9081 100.496C53.4077 101.62 54.0749 102.016 55.4079 102.016C56.7414 102.016 57.4082 101.62 57.9078 100.496L62.116 91.1211V101.871H64.8241V91.1416C64.8241 90.1004 64.4072 89.5994 63.5532 89.3286C61.4908 88.6829 60.0948 89.2455 59.47 90.6415L55.3453 99.8705L51.3458 90.6415C50.7416 89.2455 49.325 88.6829 47.2626 89.3286C46.3877 89.5994 45.9712 90.0999 45.9712 91.1416V101.871H45.9707V101.871ZM67.0947 93.1204H69.8028V99.0371C69.7822 99.37 69.9069 100.12 71.4071 100.141C72.157 100.161 77.2608 100.141 77.3023 100.141V93.0994H80.0314C80.052 93.0994 80.0314 102.703 80.0314 102.745C80.052 105.12 77.0941 105.619 75.74 105.661H67.1573V103.828C67.1573 103.828 75.7195 103.849 75.74 103.828C77.49 103.661 77.2818 102.787 77.2818 102.495V101.786H71.5112C68.8237 101.745 67.1152 100.578 67.0947 99.2238C67.0947 99.0992 67.1573 93.1834 67.0947 93.1204V93.1204ZM125.613 86.3082C123.947 86.2666 122.675 86.4123 121.571 86.8913C121.259 87.0165 120.78 87.0165 120.718 87.4124C120.884 87.5781 120.925 87.8494 121.051 88.0791C121.321 88.4961 121.759 89.0578 122.155 89.3496C122.572 89.6834 123.009 90.0164 123.467 90.3082C124.301 90.8078 125.217 91.0786 125.988 91.5796C126.467 91.8705 126.925 92.2463 127.384 92.5792C127.591 92.7459 127.759 92.9962 128.029 93.0998V93.0587C127.884 92.871 127.842 92.6002 127.717 92.3911L127.092 91.7663C126.488 90.9749 125.717 90.2662 124.904 89.6834C124.258 89.2249 122.8 88.5792 122.529 87.8293C122.508 87.8083 122.487 87.8083 122.487 87.7873C122.946 87.7243 123.488 87.5585 123.904 87.4535C124.613 87.2667 125.258 87.3078 125.987 87.1206C126.321 87.016 126.654 86.9329 126.988 86.8288V86.6411C126.613 86.2661 126.363 85.7455 125.947 85.4121C124.884 84.4956 123.717 83.5996 122.53 82.8497C121.863 82.4122 121.051 82.1414 120.343 81.7875C120.113 81.6834 119.696 81.6208 119.53 81.4126C119.154 80.9541 118.968 80.3499 118.676 79.8083C118.065 78.6201 117.495 77.411 116.968 76.1832C116.614 75.3708 116.363 74.5583 115.927 73.808C113.76 70.2665 111.447 68.121 107.843 66.0167C107.073 65.5792 106.157 65.3919 105.177 65.1627C104.656 65.1207 104.136 65.1001 103.615 65.0581C103.302 64.933 102.969 64.5375 102.656 64.3498C101.469 63.5999 98.4062 61.9541 97.5308 64.1206C96.9682 65.4746 98.3642 66.8081 98.8638 67.4958C99.2187 67.9749 99.6552 68.517 99.906 69.0581C100.072 69.4121 100.093 69.7664 100.239 70.1414C100.593 71.0789 100.885 72.0996 101.322 72.9536C101.551 73.3911 101.801 73.8496 102.093 74.2455C102.259 74.4748 102.572 74.5789 102.613 74.9538C102.321 75.3703 102.301 75.9955 102.135 76.5161C101.405 78.8703 101.676 81.766 102.759 83.5156C103.093 84.0362 103.863 85.182 104.947 84.7449C105.885 84.349 105.676 83.1822 105.947 82.12C106.01 81.8907 105.968 81.724 106.093 81.5573V81.5989C106.363 82.1821 106.655 82.7447 106.947 83.3068C107.572 84.328 108.697 85.4112 109.656 86.119C110.134 86.494 110.53 87.1402 111.176 87.348V87.3059H111.114C110.989 87.1192 110.801 87.0356 110.655 86.8895C110.28 86.5145 109.864 86.056 109.551 85.6395C108.697 84.4727 107.927 83.1812 107.218 81.8478C106.884 81.202 106.593 80.4937 106.323 79.848C106.218 79.5982 106.218 79.2232 105.989 79.0771C105.676 79.5562 105.239 79.9521 104.988 80.5147C104.613 81.4107 104.551 82.5145 104.427 83.6398C104.343 83.6813 104.364 83.6603 104.322 83.7023C103.656 83.5356 103.426 82.8479 103.176 82.2647C102.572 80.7855 102.447 78.4108 102.989 76.7024C103.134 76.2649 103.781 74.8898 103.51 74.4734C103.384 74.0774 102.989 73.8276 102.76 73.5153C102.468 73.1403 102.197 72.6403 101.989 72.2028C101.49 71.036 101.26 69.7445 100.718 68.5781C100.447 68.0155 100.031 67.4529 99.6767 66.9738C99.2808 66.4112 98.8433 66.0157 98.5314 65.349C98.4273 65.1197 98.2816 64.7448 98.4273 64.4945C98.4894 64.3279 98.5524 64.2653 98.7181 64.2027C98.9889 63.9945 99.7603 64.2863 100.051 64.39C100.801 64.7233 101.447 65.0152 102.093 65.4526C102.406 65.6609 102.719 66.0564 103.094 66.161H103.511C104.177 66.3066 104.927 66.2025 105.551 66.3902C106.656 66.7231 107.655 67.2442 108.552 67.8278C111.301 69.5568 113.531 72.0151 115.072 74.9524C115.322 75.4315 115.426 75.869 115.635 76.369C116.073 77.3902 116.634 78.4314 117.072 79.4105C117.489 80.4106 117.926 81.4107 118.53 82.2227C118.864 82.6602 120.113 82.8894 120.676 83.1182C121.072 83.2849 121.717 83.4721 122.093 83.7019C122.822 84.1183 123.509 84.6394 124.197 85.1185C124.529 85.35 125.571 85.8707 125.613 86.3082V86.3082Z" fill="#00678C"/>
<path fill-rule="evenodd" clip-rule="evenodd" d="M104.364 68.2051C104.076 68.2052 103.789 68.2403 103.51 68.3097V68.3512H103.572C103.739 68.6846 104.031 68.9138 104.239 69.2052C104.385 69.5386 104.552 69.8719 104.697 70.2053L104.759 70.1427C105.051 69.9555 105.176 69.6221 105.176 69.1015C105.072 68.9764 105.051 68.8307 104.948 68.6846C104.802 68.4759 104.552 68.3718 104.364 68.2051Z" fill="#00678C"/>
<path fill-rule="evenodd" clip-rule="evenodd" d="M82.1357 101.871H89.9476C90.8642 101.871 91.7597 101.683 92.468 101.349C93.6344 100.809 94.218 100.079 94.218 99.1208V97.121C94.218 96.3506 93.5513 95.6007 92.2813 95.1212C91.5935 94.8504 90.7601 94.7253 89.9476 94.7253H86.6564C85.5521 94.7253 85.0315 94.3914 84.9064 93.663C84.8854 93.5799 84.8854 93.4963 84.8854 93.4132V92.1839C84.8854 92.1007 84.8854 92.0382 84.9064 91.9551C85.0315 91.3924 85.3229 91.2257 86.2814 91.1426C86.3646 91.1426 86.4687 91.1216 86.5523 91.1216H94.3226V89.3095H86.6774C85.5731 89.3095 85.0105 89.3926 84.4899 89.5383C82.8651 90.0589 82.1568 90.8508 82.1568 92.2469V93.8302C82.1568 95.0596 83.5524 96.1008 85.865 96.3506C86.1358 96.3506 86.3856 96.3716 86.6564 96.3716H89.4691C89.5732 96.3716 89.6768 96.3716 89.7599 96.3926C90.6354 96.4757 90.9893 96.6214 91.2601 96.9333C91.4058 97.1 91.4688 97.2461 91.4688 97.4338V99.0171C91.4688 99.2048 91.3437 99.4551 91.0729 99.6629C90.8432 99.8716 90.4472 99.9967 89.9266 100.038C89.8225 100.038 89.7399 100.059 89.6348 100.059H82.1357V101.871ZM111.176 98.7034C111.176 100.578 112.551 101.62 115.363 101.828C115.613 101.849 115.884 101.87 116.134 101.87H123.217V100.057H116.092C114.488 100.057 113.884 99.6615 113.884 98.7034V89.3086H111.175V98.7034H111.176ZM95.9474 98.8075V92.3501C95.9474 90.7042 97.0928 89.7045 99.3844 89.3917C99.6141 89.3497 99.8849 89.3497 100.114 89.3497H105.28C105.529 89.3497 105.759 89.3497 106.03 89.3917C108.301 89.7045 109.467 90.7042 109.467 92.3501V98.8075C109.467 100.141 108.967 100.849 107.842 101.308L110.53 103.725H107.363L105.196 101.787L103.009 101.912H100.113C99.6136 101.912 99.0926 101.85 98.5089 101.683C96.7809 101.224 95.9474 100.308 95.9474 98.8075V98.8075ZM98.8848 98.6417C98.8848 98.7459 98.9058 98.8285 98.9268 98.9336C99.0935 99.683 99.8013 100.1 100.864 100.1H103.343L101.073 98.0581H104.239L106.218 99.8291C106.572 99.6414 106.822 99.3496 106.905 98.9746C106.926 98.8705 106.926 98.7879 106.926 98.7038V92.4962C106.926 92.4332 106.926 92.3505 106.905 92.2665C106.739 91.5587 106.031 91.1632 104.989 91.1632H100.864C99.6557 91.1632 98.8853 91.6838 98.8853 92.4962V98.6417H98.8848V98.6417ZM124.467 101.871H124.863V100.371H125.405V100.058H123.926V100.371H124.467V101.871ZM127.509 101.871H127.863V100.058H127.321L126.843 101.308L126.364 100.058H125.801V101.871H126.176V100.496L126.697 101.871H126.968L127.488 100.496H127.509V101.871H127.509Z" fill="#CE8B2C"/>
<defs>
<filter id="filter0_d_1100_776" x="0.431396" y="0.14209" width="173.137" height="173.137" filterUnits="userSpaceOnUse" color-interpolation-filters="sRGB">
<feFlood flood-opacity="0" result="BackgroundImageFix"/>
<feColorMatrix in="SourceAlpha" type="matrix" values="0 0 0 0 0 0 0 0 0 0 0 0 0 0 0 0 0 0 127 0" result="hardAlpha"/>
<feOffset/>
<feGaussianBlur stdDeviation="10"/>
<feComposite in2="hardAlpha" operator="out"/>
<feColorMatrix type="matrix" values="0 0 0 0 0 0 0 0 0 0 0 0 0 0 0 0 0 0 0.1 0"/>
<feBlend mode="normal" in2="BackgroundImageFix" result="effect1_dropShadow_1100_776"/>
<feBlend mode="normal" in="SourceGraphic" in2="effect1_dropShadow_1100_776" result="shape"/>
</filter>
</defs>
</svg>
