<svg width="174" height="174" viewBox="0 0 174 174" fill="none" xmlns="http://www.w3.org/2000/svg">
<g filter="url(#filter0_d_1100_776)">
<rect x="87" y="16" width="100" height="100" rx="10" transform="rotate(45 87 16)" fill="white"/>
</g>
<path d="M97.9621 94.1153C97.902 94.1153 97.843 94.131 97.7908 94.1608C97.739 94.1911 97.696 94.2344 97.666 94.2865C97.636 94.3385 97.62 94.3974 97.6198 94.4575V103.185C97.6198 103.27 97.58 103.347 97.5058 103.39C97.4694 103.411 97.4281 103.422 97.386 103.422C97.3439 103.422 97.3025 103.411 97.2662 103.39L95.8402 102.569C95.7361 102.508 95.6181 102.477 95.4979 102.477C95.3778 102.477 95.2597 102.508 95.1557 102.569L89.4632 105.854C89.2504 105.977 89.121 106.213 89.121 106.459V113.03C89.121 113.275 89.2506 113.5 89.4632 113.623L95.1557 116.908C95.2597 116.969 95.3777 117 95.4979 117C95.6181 117 95.7362 116.969 95.8402 116.908L101.533 113.623C101.637 113.563 101.723 113.476 101.784 113.372C101.844 113.268 101.875 113.15 101.875 113.03V96.6479C101.875 96.5248 101.842 96.404 101.78 96.2977C101.718 96.1915 101.629 96.1036 101.521 96.0432L98.1331 94.1494C98.08 94.1197 98.0211 94.1145 97.9621 94.1153V94.1153ZM61.3427 102.318C61.2343 102.322 61.1322 102.341 61.0348 102.397L55.3422 105.683C55.2379 105.743 55.1513 105.829 55.0912 105.933C55.0311 106.038 54.9997 106.156 55 106.276L55.0114 115.095C55.0114 115.217 55.0747 115.331 55.1825 115.391C55.2342 115.422 55.2934 115.438 55.3537 115.438C55.414 115.438 55.4731 115.422 55.5248 115.391L58.9015 113.452C59.1154 113.325 59.2551 113.104 59.2551 112.858V108.74C59.2551 108.494 59.3843 108.269 59.5974 108.147L61.0347 107.314C61.1386 107.254 61.2568 107.222 61.377 107.223C61.4943 107.223 61.6148 107.252 61.7191 107.314L63.1566 108.147C63.261 108.207 63.3476 108.293 63.4077 108.397C63.4679 108.502 63.4993 108.62 63.4989 108.74V112.858C63.4989 113.103 63.64 113.326 63.8525 113.452L67.2292 115.391C67.2809 115.422 67.34 115.438 67.4003 115.438C67.4606 115.438 67.5198 115.422 67.5715 115.391C67.6235 115.361 67.6667 115.318 67.6968 115.266C67.7268 115.214 67.7427 115.154 67.7427 115.094L67.7538 106.276C67.7545 106.156 67.7232 106.037 67.663 105.933C67.6029 105.829 67.5162 105.742 67.4117 105.683L61.7191 102.397C61.6229 102.341 61.5205 102.322 61.4112 102.318H61.3427ZM112.496 102.397C112.377 102.397 112.26 102.427 112.153 102.489L106.461 105.774C106.357 105.834 106.27 105.921 106.21 106.025C106.15 106.129 106.118 106.247 106.119 106.367V112.938C106.119 113.185 106.258 113.409 106.472 113.532L112.119 116.749C112.328 116.867 112.582 116.877 112.792 116.76L116.215 114.855C116.323 114.794 116.397 114.682 116.397 114.558C116.398 114.498 116.382 114.439 116.352 114.386C116.322 114.334 116.278 114.291 116.226 114.261L110.499 110.976C110.392 110.915 110.317 110.791 110.317 110.668V108.615C110.317 108.492 110.393 108.379 110.499 108.318L112.279 107.291C112.331 107.261 112.39 107.245 112.45 107.245C112.51 107.245 112.569 107.261 112.621 107.291L114.401 108.318C114.453 108.348 114.496 108.391 114.526 108.443C114.556 108.495 114.572 108.554 114.572 108.614V110.234C114.572 110.295 114.587 110.354 114.618 110.406C114.648 110.458 114.691 110.501 114.743 110.531C114.85 110.593 114.979 110.593 115.085 110.531L118.496 108.546C118.6 108.486 118.687 108.4 118.747 108.295C118.807 108.191 118.838 108.073 118.839 107.953V106.367C118.839 106.123 118.709 105.897 118.496 105.774L112.838 102.489C112.734 102.428 112.616 102.397 112.496 102.397V102.397ZM95.475 107.303C95.5048 107.303 95.5397 107.31 95.5663 107.325L97.5172 108.455C97.5701 108.485 97.6085 108.542 97.6085 108.603V110.862C97.6085 110.923 97.5704 110.98 97.5172 111.01L95.5663 112.14C95.5403 112.154 95.5108 112.162 95.4808 112.162C95.4508 112.162 95.4213 112.154 95.3953 112.14L93.4446 111.01C93.3915 110.979 93.3533 110.923 93.3533 110.862V108.603C93.3533 108.542 93.3916 108.486 93.4446 108.455L95.3953 107.326C95.4192 107.311 95.4469 107.303 95.4752 107.303V107.303H95.475Z" fill="#404137"/>
<path d="M78.4432 102.363C78.3246 102.363 78.2072 102.393 78.101 102.455L72.4085 105.729C72.1955 105.851 72.0662 106.088 72.0662 106.333V112.904C72.0662 113.15 72.1957 113.374 72.4085 113.497L78.101 116.783C78.2049 116.843 78.323 116.875 78.4432 116.875C78.5634 116.875 78.6815 116.843 78.7855 116.783L84.478 113.497C84.5822 113.437 84.6687 113.351 84.7288 113.247C84.7889 113.143 84.8204 113.024 84.8201 112.904V106.333C84.8201 106.088 84.6908 105.851 84.478 105.729L78.7855 102.455C78.6814 102.395 78.5633 102.363 78.4432 102.363V102.363ZM112.484 108.227C112.462 108.227 112.436 108.227 112.416 108.238L111.321 108.877C111.3 108.889 111.283 108.905 111.271 108.925C111.259 108.945 111.253 108.968 111.252 108.991V110.246C111.252 110.293 111.28 110.337 111.321 110.36L112.416 110.988C112.457 111.012 112.501 111.012 112.541 110.988L113.636 110.36C113.657 110.349 113.674 110.332 113.686 110.312C113.698 110.292 113.704 110.27 113.705 110.246V108.991C113.704 108.968 113.698 108.945 113.686 108.925C113.674 108.905 113.657 108.889 113.636 108.877L112.541 108.238C112.521 108.226 112.507 108.227 112.484 108.227V108.227Z" fill="#83CD29"/>
<path d="M83.8611 57C83.4185 57 82.988 57.0914 82.607 57.307L70.5504 64.2696C69.7702 64.7193 69.2959 65.5682 69.2959 66.4715V80.3715C69.2959 81.2741 69.7702 82.1219 70.5504 82.5727L73.699 84.3903C75.2289 85.1442 75.7928 85.1325 76.489 85.1325C78.7539 85.1325 80.0472 83.7581 80.0472 81.3698V67.6488C80.0472 67.4549 79.8792 67.3162 79.6889 67.3162H78.1786C77.9851 67.3162 77.8204 67.4549 77.8204 67.6488V81.3698C77.8204 82.4282 76.7174 83.4931 74.9279 82.5983L71.6512 80.6785C71.5352 80.6155 71.4462 80.5042 71.4462 80.3715V66.4712C71.4462 66.3396 71.5341 66.2054 71.6512 66.1385L83.6822 59.2019C83.7365 59.1702 83.7984 59.1534 83.8613 59.1534C83.9243 59.1534 83.9861 59.1702 84.0404 59.2019L96.0718 66.1389C96.1864 66.2079 96.2767 66.3356 96.2767 66.4719V80.3718C96.2767 80.5045 96.2098 80.6404 96.0974 80.7045L84.0404 87.6414C83.9373 87.703 83.7949 87.703 83.6822 87.6414L80.5848 85.7985C80.5376 85.773 80.4849 85.7596 80.4312 85.7596C80.3776 85.7596 80.3249 85.773 80.2777 85.7985C79.4228 86.2831 79.262 86.3393 78.46 86.6175C78.2626 86.6865 77.9627 86.7936 78.5625 87.1298L82.607 89.51C82.9883 89.73 83.4212 89.8449 83.8615 89.843C84.3017 89.8458 84.7346 89.7309 85.1156 89.5104L97.1726 82.573C97.9528 82.1194 98.4267 81.2744 98.4267 80.3718V66.4715C98.4267 65.5686 97.9528 64.7211 97.1726 64.2703L85.1156 57.3077C84.7378 57.0918 84.3044 57.0004 83.8615 57.0004L83.8611 57Z" fill="#83CD29"/>
<path d="M87.0866 66.9321C83.6534 66.9321 81.6087 68.3933 81.6087 70.8233C81.6087 73.4589 83.6381 74.1833 86.9333 74.5092C90.8753 74.8952 91.1823 75.474 91.1823 76.25C91.1823 77.5959 90.1093 78.1698 87.5733 78.1698C84.3866 78.1698 83.6865 77.3743 83.452 75.7893C83.4242 75.6192 83.293 75.4819 83.119 75.4819H81.5575C81.3654 75.4819 81.1992 75.6477 81.1992 75.8405C81.1992 77.8695 82.3028 80.2689 87.5733 80.2689C91.3883 80.2689 93.5888 78.7714 93.5888 76.1475C93.5888 73.5468 91.8113 72.8484 88.1105 72.3592C84.3713 71.8643 84.0148 71.622 84.0148 70.7464C84.0148 70.0235 84.3172 69.0565 87.0866 69.0565C89.5607 69.0565 90.475 69.5902 90.8497 71.2584C90.8824 71.415 91.0204 71.5398 91.1823 71.5398H92.7442C92.8402 71.5398 92.9334 71.4808 93 71.4118C93.0654 71.3381 93.1117 71.2552 93.1024 71.1559C92.8605 68.2834 90.945 66.9321 87.0866 66.9321V66.9321Z" fill="#83CD29"/>
<defs>
<filter id="filter0_d_1100_776" x="0.431396" y="0.14209" width="173.137" height="173.137" filterUnits="userSpaceOnUse" color-interpolation-filters="sRGB">
<feFlood flood-opacity="0" result="BackgroundImageFix"/>
<feColorMatrix in="SourceAlpha" type="matrix" values="0 0 0 0 0 0 0 0 0 0 0 0 0 0 0 0 0 0 127 0" result="hardAlpha"/>
<feOffset/>
<feGaussianBlur stdDeviation="10"/>
<feComposite in2="hardAlpha" operator="out"/>
<feColorMatrix type="matrix" values="0 0 0 0 0 0 0 0 0 0 0 0 0 0 0 0 0 0 0.1 0"/>
<feBlend mode="normal" in2="BackgroundImageFix" result="effect1_dropShadow_1100_776"/>
<feBlend mode="normal" in="SourceGraphic" in2="effect1_dropShadow_1100_776" result="shape"/>
</filter>
</defs>
</svg>
