<svg width="174" height="174" viewBox="0 0 174 174" fill="none" xmlns="http://www.w3.org/2000/svg">
<g filter="url(#filter0_d_1100_776)">
<rect x="87" y="16" width="100" height="100" rx="10" transform="rotate(45 87 16)" fill="white"/>
</g>
<g clip-path="url(#clip0_1100_776)">
<path d="M79.4771 78.3554H85.1981L82.1751 73.4714L76.6215 82.2941H74.0811L80.8458 71.7088C81.1314 71.2755 81.6336 71.0195 82.1751 71.0195C82.7069 71.0195 83.1894 71.2657 83.4749 71.6891L90.2594 82.2941H87.7287L86.5373 80.3248H80.7375L79.4771 78.3554Z" fill="#E2231A"/>
<path d="M115.772 80.3249L114.492 82.2942H104.705C104.409 82.2942 104.133 82.1761 103.927 81.9693C103.73 81.7723 103.612 81.4966 103.612 81.2308V71.1279H105.758V80.3249H115.772Z" fill="#E2231A"/>
<path d="M69.256 78.6804L73.559 82.2942H70.4474L64.0273 76.7111H70.0831C71.0875 76.7111 71.8949 75.8938 71.8949 74.8993C71.8949 73.9047 71.0875 73.0973 70.0831 73.0973H62.9835V82.2942H60.8369V71.1279H70.2308C72.3183 71.1279 74.0021 72.8117 74.0021 74.8993C74.0021 76.9868 72.3183 78.6804 70.2308 78.6804H69.256Z" fill="#E2231A"/>
<path fill-rule="evenodd" clip-rule="evenodd" d="M47.6225 82.2942C44.5306 82.2942 42.0295 79.803 42.0295 76.7111C42.0295 73.629 44.5306 71.1279 47.6225 71.1279H54.1116C57.2035 71.1279 59.6849 73.629 59.6849 76.7111C59.6849 79.803 57.2035 82.2942 54.1116 82.2942H47.6225ZM53.9639 80.3249C55.9726 80.3249 57.5875 78.71 57.5875 76.7111C57.5875 74.7122 55.9726 73.0973 53.9639 73.0973H47.7702C45.7713 73.0973 44.1565 74.7122 44.1565 76.7111C44.1565 78.71 45.7713 80.3249 47.7702 80.3249H53.9639Z" fill="#E2231A"/>
<path d="M94.7495 82.2942C91.6576 82.2942 89.1565 79.803 89.1565 76.7111C89.1565 73.629 91.6576 71.1279 94.7495 71.1279H102.46L101.189 73.0973H94.8972C92.8884 73.0973 91.2736 74.7122 91.2736 76.7111C91.2736 78.71 92.8884 80.3249 94.8972 80.3249H102.627L101.376 82.2942H94.7495Z" fill="#E2231A"/>
<path d="M128.76 80.3249L127.5 82.2942H120.873C117.791 82.2942 115.29 79.803 115.29 76.7111C115.29 73.629 117.791 71.1279 120.873 71.1279H128.573L127.313 73.0973H121.011C119.357 73.0973 117.959 74.21 117.535 75.7264H127.973L126.712 77.6958H117.535C117.968 79.222 119.357 80.3249 121.011 80.3249H128.76V80.3249Z" fill="#E2231A"/>
<path fill-rule="evenodd" clip-rule="evenodd" d="M129.459 72.3195C129.459 71.6302 130.021 71.0591 130.72 71.0591C131.409 71.0591 131.97 71.6302 131.97 72.3195C131.97 73.0186 131.409 73.57 130.72 73.57C130.021 73.57 129.459 73.0186 129.459 72.3195V72.3195ZM130.72 73.3042C131.271 73.3042 131.705 72.8611 131.705 72.3195C131.705 71.7681 131.271 71.3348 130.72 71.3348C130.168 71.3348 129.725 71.7681 129.725 72.3195C129.725 72.8611 130.168 73.3042 130.72 73.3042ZM130.602 71.5711C130.789 71.5711 130.877 71.581 130.966 71.6105C131.212 71.6893 131.232 71.9256 131.232 72.0044C131.232 72.0241 131.232 72.0733 131.222 72.1225C131.212 72.1718 131.183 72.2899 131.045 72.3687C131.035 72.3786 131.025 72.3786 130.996 72.3983L131.321 72.9792H131.005L130.71 72.4376H130.523V72.9792H130.247V71.5711H130.602ZM130.7 72.2112C130.779 72.2112 130.877 72.2013 130.927 72.1225C130.966 72.093 130.966 72.0536 130.966 72.0044C130.966 71.9256 130.927 71.8665 130.858 71.8271C130.789 71.7976 130.73 71.7976 130.602 71.7976H130.523V72.2112H130.7V72.2112Z" fill="#E2231A"/>
<path d="M42.0295 87.9663H128.76V88.5768H42.0295V87.9663Z" fill="black"/>
<path d="M72.2198 96.6215C72.1903 96.3654 72.1016 95.3414 71.048 95.3414C69.8861 95.3414 69.4036 96.5525 69.4036 98.0492C69.4036 98.4825 69.4036 100.55 70.92 100.55C71.5798 100.55 72.2001 100.137 72.2297 99.1718H73.8741C73.8445 99.605 73.8051 100.275 73.2242 100.885C72.5743 101.545 71.757 101.693 71.0973 101.693C68.5863 101.693 67.769 99.8414 67.769 98.0394C67.769 95.7352 69.059 94.209 71.1071 94.209C72.6925 94.209 73.815 95.174 73.815 96.6215H72.2198Z" fill="black"/>
<path d="M75.3315 94.2583H76.9267V100.285H80.0482V101.525H75.3315V94.2583Z" fill="black"/>
<path fill-rule="evenodd" clip-rule="evenodd" d="M84.1149 94.0908C84.8928 94.0908 85.9563 94.2779 86.6751 95.0854C87.453 95.9716 87.6007 97.104 87.6007 97.8228C87.6007 98.8764 87.2757 100.009 86.6849 100.669C85.8775 101.574 84.7057 101.702 84.0952 101.702C83.1401 101.702 82.1849 101.407 81.5252 100.708C80.7276 99.8611 80.6292 98.6598 80.6292 97.9902C80.6292 96.0602 81.5055 94.0908 84.1149 94.0908V94.0908ZM82.7954 99.9694C83.0219 100.275 83.3961 100.56 84.1149 100.56C84.755 100.56 85.1882 100.334 85.4738 99.8808C85.7199 99.5263 85.976 98.9552 85.976 97.8031C85.976 97.4486 85.9464 96.9464 85.7889 96.5033C85.4836 95.6072 84.8731 95.2134 84.1248 95.2134C83.5438 95.2134 83.081 95.4497 82.7856 95.8239C82.372 96.3359 82.2539 97.1138 82.2539 97.9409C82.2539 98.6401 82.3622 99.4081 82.7954 99.9694V99.9694Z" fill="black"/>
<path d="M90.4169 94.2681V98.6991C90.4169 99.4869 90.476 100.491 92.0022 100.491C92.2484 100.491 93.0066 100.481 93.4103 99.8512C93.558 99.6346 93.6368 99.349 93.6368 98.6204V94.2681H95.1631V98.8075C95.1631 100.974 93.4399 101.663 91.9727 101.663C91.244 101.663 89.9147 101.505 89.2254 100.412C88.8808 99.8512 88.8611 99.2899 88.8611 98.6204V94.2681H90.4169V94.2681Z" fill="black"/>
<path fill-rule="evenodd" clip-rule="evenodd" d="M97.0242 94.2681L99.4366 94.2779C99.8404 94.2779 101.061 94.2878 101.938 94.9278C102.853 95.6072 103.178 96.7495 103.178 97.7932C103.178 100.028 101.987 101.19 100.599 101.446C100.333 101.496 100.027 101.525 99.2889 101.525H97.0242V94.2681ZM98.6095 100.334C98.7769 100.344 99.0428 100.353 99.22 100.353C99.8896 100.353 100.461 100.304 100.914 99.8414C101.534 99.2309 101.573 98.1477 101.573 97.7932C101.573 96.7692 101.219 95.814 100.244 95.5482C99.9191 95.4595 99.5056 95.4103 98.6095 95.4497V100.334V100.334Z" fill="black"/>
</g>
<defs>
<filter id="filter0_d_1100_776" x="0.431396" y="0.14209" width="173.137" height="173.137" filterUnits="userSpaceOnUse" color-interpolation-filters="sRGB">
<feFlood flood-opacity="0" result="BackgroundImageFix"/>
<feColorMatrix in="SourceAlpha" type="matrix" values="0 0 0 0 0 0 0 0 0 0 0 0 0 0 0 0 0 0 127 0" result="hardAlpha"/>
<feOffset/>
<feGaussianBlur stdDeviation="10"/>
<feComposite in2="hardAlpha" operator="out"/>
<feColorMatrix type="matrix" values="0 0 0 0 0 0 0 0 0 0 0 0 0 0 0 0 0 0 0.1 0"/>
<feBlend mode="normal" in2="BackgroundImageFix" result="effect1_dropShadow_1100_776"/>
<feBlend mode="normal" in="SourceGraphic" in2="effect1_dropShadow_1100_776" result="shape"/>
</filter>
<clipPath id="clip0_1100_776">
<rect width="90" height="30.7221" fill="white" transform="translate(42 71)"/>
</clipPath>
</defs>
</svg>
