<svg width="174" height="174" viewBox="0 0 174 174" fill="none" xmlns="http://www.w3.org/2000/svg">
<g filter="url(#filter0_d_1100_776)">
<rect x="87" y="16" width="100" height="100" rx="10" transform="rotate(45 87 16)" fill="white"/>
</g>
<g clip-path="url(#clip0_1100_776)">
<path d="M115.951 92.9252C115.602 91.8687 114.688 91.1329 113.506 90.9563C112.949 90.8731 112.311 90.9086 111.556 91.0642C110.24 91.3358 109.263 91.4392 108.55 91.4592C111.24 86.9176 113.428 81.7386 114.687 76.8634C116.723 68.9803 115.635 65.3891 114.363 63.7647C110.999 59.4652 106.089 57.1554 100.167 57.0847C97.0073 57.0461 94.2337 57.6699 92.7868 58.1185C91.4396 57.8808 89.9912 57.7481 88.4713 57.7235C85.6223 57.6781 83.105 58.2991 80.9541 59.5756C79.7633 59.1729 77.8522 58.6052 75.6451 58.243C70.4543 57.3908 66.2706 58.0548 63.2105 60.2167C59.5049 62.8341 57.7871 67.3819 58.1048 73.7335C58.2057 75.7501 59.3338 81.8858 61.11 87.7048C62.1308 91.0495 63.2193 93.8269 64.3453 95.9608C65.9422 98.9866 67.6509 100.768 69.5691 101.408C70.6442 101.767 72.5977 102.017 74.6523 100.306C74.9127 100.622 75.2601 100.935 75.7212 101.226C76.3069 101.595 77.0229 101.897 77.7381 102.076C80.3153 102.72 82.7294 102.559 84.789 101.656C84.8017 102.022 84.8114 102.372 84.8196 102.675C84.8333 103.165 84.8469 103.645 84.8649 104.095C84.9869 107.134 85.1937 109.497 85.8063 111.151C85.84 111.242 85.8852 111.38 85.9329 111.527C86.2386 112.463 86.7497 114.03 88.05 115.257C89.3964 116.528 91.0251 116.918 92.5168 116.918C93.2649 116.918 93.9787 116.819 94.6048 116.685C96.8364 116.207 99.3709 115.478 101.204 112.868C102.938 110.4 103.78 106.683 103.933 100.826C103.953 100.66 103.971 100.502 103.988 100.351L104.025 100.042L104.433 100.078L104.538 100.085C106.811 100.188 109.591 99.7063 111.297 98.9134C112.646 98.2876 116.968 96.0058 115.951 92.9252" fill="black"/>
<path d="M112.064 93.5239C105.306 94.9181 104.841 92.6299 104.841 92.6299C111.977 82.0417 114.96 68.6014 112.386 65.312C105.363 56.339 93.2061 60.5827 93.0032 60.6927L92.938 60.7045C91.6026 60.4272 90.1085 60.2622 88.4289 60.2347C85.371 60.1848 83.0512 61.0365 81.2909 62.3714C81.2909 62.3714 59.6045 53.4372 60.6132 73.6075C60.8278 77.8984 66.7635 106.075 73.8433 97.5647C76.431 94.4525 78.9314 91.8211 78.9314 91.8211C80.1731 92.6461 81.6598 93.0669 83.2182 92.9158L83.3394 92.8131C83.3016 93.1994 83.3189 93.5773 83.3878 94.0248C81.5639 96.0625 82.0999 96.4202 78.4539 97.1708C74.7645 97.9312 76.9318 99.2847 78.3469 99.6388C80.0624 100.068 84.0311 100.675 86.7127 96.9213L86.6059 97.3497C87.3203 97.9221 87.8221 101.073 87.738 103.929C87.6539 106.785 87.5978 108.746 88.1607 110.278C88.7241 111.809 89.2851 115.256 94.0783 114.229C98.0831 113.37 100.159 111.146 100.447 107.436C100.652 104.799 101.116 105.189 101.145 102.831L101.517 101.714C101.946 98.1389 101.585 96.9854 104.053 97.5219L104.652 97.5747C106.468 97.6572 108.845 97.2824 110.24 96.6341C113.244 95.2401 115.026 92.9124 112.064 93.5239H112.064" fill="#336791"/>
<path d="M82.5602 75.5266C81.9512 75.4419 81.3997 75.5203 81.1206 75.7316C80.9638 75.8505 80.9152 75.9882 80.902 76.0829C80.867 76.334 81.0429 76.6117 81.1511 76.7549C81.4569 77.1603 81.9037 77.4389 82.3459 77.5003C82.41 77.5094 82.4739 77.5134 82.5373 77.5134C83.2747 77.5134 83.9453 76.9392 84.0044 76.5154C84.0783 75.9845 83.3077 75.6307 82.5602 75.5268V75.5266ZM102.736 75.5434C102.678 75.1273 101.938 75.0087 101.235 75.1064C100.533 75.2042 99.8531 75.5209 99.9099 75.9379C99.9553 76.2622 100.541 76.8158 101.234 76.8158C101.293 76.8158 101.352 76.8119 101.411 76.8035C101.874 76.7394 102.213 76.4456 102.375 76.2763C102.62 76.0182 102.763 75.7305 102.736 75.5434" fill="white"/>
<path d="M114.313 93.3659C114.056 92.5866 113.226 92.336 111.848 92.6205C107.756 93.465 106.291 92.88 105.81 92.5257C108.99 87.6808 111.607 81.8241 113.018 76.3598C113.687 73.7714 114.056 71.3676 114.086 69.4082C114.12 67.2578 113.753 65.6775 112.998 64.7121C109.952 60.8204 105.482 58.7329 100.071 58.6757C96.3516 58.6338 93.2087 59.5858 92.5994 59.8535C91.3164 59.5344 89.9176 59.3385 88.3948 59.3135C85.6024 59.2683 83.1885 59.9369 81.1901 61.2997C80.322 60.9766 78.0786 60.2064 75.335 59.7644C70.5918 59.0008 66.8226 59.5794 64.1329 61.4849C60.9235 63.7588 59.4418 67.8234 59.7288 73.5656C59.8254 75.4974 60.9262 81.4405 62.6633 87.1319C64.9499 94.623 67.4355 98.8638 70.0507 99.7362C70.3568 99.8382 70.7098 99.9096 71.099 99.9096C72.053 99.9096 73.2227 99.4796 74.4396 98.0166C75.9239 96.236 77.4593 94.4986 79.0439 92.8066C80.072 93.3584 81.2015 93.6665 82.3566 93.6974C82.3588 93.7277 82.3618 93.7579 82.3645 93.7879C82.1657 94.025 81.971 94.2655 81.7805 94.5094C80.9801 95.5254 80.8135 95.737 78.2372 96.2674C77.5043 96.4188 75.5579 96.8199 75.5293 98.1843C75.4984 99.675 77.8302 100.301 78.0959 100.367C79.0217 100.599 79.9136 100.714 80.7642 100.714C82.8329 100.714 84.6534 100.034 86.1083 98.7181C86.0635 104.033 86.2851 109.269 86.9232 110.865C87.4458 112.171 88.7225 115.363 92.7553 115.363C93.3471 115.363 93.9984 115.294 94.7149 115.141C98.9238 114.238 100.752 112.378 101.459 108.277C101.837 106.085 102.486 100.851 102.792 98.0438C103.436 98.2449 104.266 98.337 105.163 98.3368C107.033 98.3368 109.192 97.9393 110.546 97.3109C112.067 96.6047 114.811 94.8716 114.313 93.3659V93.3659ZM104.29 74.395C104.276 75.2238 104.162 75.9762 104.041 76.7616C103.911 77.6063 103.777 78.4796 103.743 79.5397C103.709 80.5715 103.838 81.6441 103.963 82.6815C104.214 84.7767 104.473 86.9338 103.473 89.0622C103.307 88.7678 103.159 88.4636 103.03 88.1512C102.905 87.8498 102.635 87.3658 102.261 86.6959C100.807 84.0879 97.4019 77.9808 99.1452 75.4888C99.6644 74.747 100.982 73.9844 104.29 74.395V74.395ZM100.28 60.3539C105.129 60.4609 108.964 62.2746 111.679 65.7443C113.761 68.4056 111.468 80.5151 104.83 90.962C104.763 90.8771 104.696 90.7925 104.628 90.7082L104.544 90.6032C106.26 87.7701 105.924 84.9669 105.626 82.4817C105.503 81.4618 105.387 80.4985 105.417 79.5936C105.447 78.6346 105.574 77.812 105.697 77.0166C105.847 76.0364 106.001 75.0222 105.958 73.8267C105.99 73.7012 106.003 73.5531 105.986 73.3772C105.878 72.2307 104.569 68.7994 101.901 65.6938C100.442 63.9951 98.3136 62.0942 95.4078 60.812C96.6577 60.553 98.3668 60.3114 100.28 60.3539V60.3539ZM73.1518 96.9458C71.811 98.5579 70.8852 98.2488 70.5807 98.1475C68.5968 97.4857 66.2947 93.2925 64.2652 86.6431C62.509 80.8896 61.4827 75.104 61.4014 73.4817C61.145 68.3508 62.3888 64.7751 65.0983 62.8534C69.5078 59.7265 76.7576 61.5981 79.6707 62.5473C79.6289 62.5887 79.5853 62.6273 79.5439 62.6694C74.7635 67.4971 74.8769 75.7453 74.8887 76.2496C74.8882 76.4441 74.9046 76.7196 74.9269 77.0984C75.0091 78.4858 75.1623 81.0678 74.7532 83.9918C74.3733 86.709 75.2109 89.3685 77.051 91.2886C77.2398 91.4853 77.4383 91.6724 77.6457 91.8494C76.8267 92.7266 75.0466 94.6664 73.1518 96.9458V96.9458ZM78.2602 90.1298C76.7771 88.5823 76.1036 86.4297 76.4119 84.2236C76.8437 81.1348 76.6844 78.4446 76.5987 76.9993C76.5867 76.7971 76.576 76.6198 76.5699 76.48C77.2682 75.8608 80.5045 74.1269 82.8124 74.6557C83.8655 74.8968 84.5073 75.614 84.7741 76.8475C86.1548 83.2339 84.9568 85.8957 83.9941 88.0348C83.7958 88.4755 83.6083 88.892 83.4483 89.3229L83.3242 89.656C83.0101 90.4982 82.7179 91.2813 82.5368 92.0249C80.9601 92.0203 79.4264 91.3468 78.2602 90.1296V90.1298ZM78.5022 98.7426C78.0418 98.6276 77.6277 98.4279 77.3848 98.2622C77.5877 98.1668 77.9488 98.0368 78.5751 97.9077C81.606 97.2839 82.0741 96.8435 83.0963 95.5457C83.3306 95.248 83.5962 94.9107 83.9641 94.4999L83.9646 94.4994C84.5125 93.8858 84.7632 93.9899 85.2177 94.1785C85.586 94.3308 85.9449 94.7926 86.0903 95.3007C86.1592 95.5407 86.2364 95.9961 85.9835 96.3506C83.8482 99.3403 80.7367 99.3019 78.5022 98.7426V98.7426ZM94.364 113.503C90.6562 114.297 89.3434 112.406 88.4782 110.243C87.9199 108.847 87.6454 102.55 87.8401 95.5973C87.8426 95.5048 87.8294 95.4155 87.804 95.3314C87.7812 95.1653 87.7466 95.0011 87.7004 94.8401C87.4109 93.8283 86.7052 92.9821 85.8587 92.6312C85.5224 92.4919 84.9052 92.2362 84.1634 92.426C84.3216 91.7742 84.5959 91.0382 84.8934 90.2412L85.0181 89.906C85.1586 89.5281 85.3349 89.1365 85.5213 88.722C86.5287 86.4841 87.9083 83.4187 86.4109 76.4937C85.8501 73.8998 83.9771 72.6331 81.1378 72.9274C79.4357 73.1036 77.8784 73.7903 77.1016 74.1841C76.9346 74.2687 76.7819 74.3505 76.6392 74.43C76.856 71.8166 77.675 66.9326 80.7388 63.8424C82.6679 61.8972 85.237 60.9363 88.3671 60.9882C94.5347 61.0891 98.4898 64.2542 100.722 66.8919C102.645 69.1646 103.687 71.4542 104.102 72.689C100.977 72.3711 98.8506 72.9881 97.773 74.5289C95.4285 77.8804 99.0556 84.3852 100.799 87.5115C101.119 88.0844 101.394 88.5795 101.481 88.79C102.049 90.1657 102.784 91.0843 103.32 91.7547C103.485 91.9601 103.644 92.1594 103.766 92.3335C102.819 92.6064 101.119 93.237 101.274 96.3892C101.149 97.9709 100.26 105.376 99.8083 107.992C99.2122 111.449 97.9403 112.736 94.364 113.503V113.503ZM109.841 95.792C108.873 96.2413 107.253 96.5783 105.714 96.6508C104.014 96.7303 103.148 96.4603 102.945 96.2942C102.849 94.3299 103.58 94.1247 104.354 93.9074C104.476 93.8733 104.594 93.8399 104.709 93.7999C104.78 93.8579 104.858 93.9154 104.943 93.9717C106.31 94.8735 108.746 94.9707 112.187 94.2606L112.225 94.2531C111.76 94.6869 110.966 95.2691 109.841 95.792Z" fill="white"/>
</g>
<defs>
<filter id="filter0_d_1100_776" x="0.431396" y="0.14209" width="173.137" height="173.137" filterUnits="userSpaceOnUse" color-interpolation-filters="sRGB">
<feFlood flood-opacity="0" result="BackgroundImageFix"/>
<feColorMatrix in="SourceAlpha" type="matrix" values="0 0 0 0 0 0 0 0 0 0 0 0 0 0 0 0 0 0 127 0" result="hardAlpha"/>
<feOffset/>
<feGaussianBlur stdDeviation="10"/>
<feComposite in2="hardAlpha" operator="out"/>
<feColorMatrix type="matrix" values="0 0 0 0 0 0 0 0 0 0 0 0 0 0 0 0 0 0 0.1 0"/>
<feBlend mode="normal" in2="BackgroundImageFix" result="effect1_dropShadow_1100_776"/>
<feBlend mode="normal" in="SourceGraphic" in2="effect1_dropShadow_1100_776" result="shape"/>
</filter>
<clipPath id="clip0_1100_776">
<rect width="58.176" height="60" fill="white" transform="translate(58 57)"/>
</clipPath>
</defs>
</svg>
