<svg width="174" height="174" viewBox="0 0 174 174" fill="none" xmlns="http://www.w3.org/2000/svg">
<g filter="url(#filter0_d_1837_1422)">
<rect x="86.7109" y="16" width="100" height="100" rx="10" transform="rotate(45 86.7109 16)" fill="white"/>
</g>
<g clip-path="url(#clip0_1837_1422)">
<path d="M76.1331 105.516C76.1331 107.56 74.4613 109.417 72.2322 109.417C70.0031 109.417 68.3313 107.745 68.3313 105.516V88.7981C68.3313 86.7548 70.0031 84.8972 72.2322 84.8972C74.4613 84.8972 76.1331 86.569 76.1331 88.7981V105.516ZM87.2786 109.975C87.2786 112.018 85.6068 113.876 83.3777 113.876C81.1486 113.876 79.6625 112.204 79.6625 109.975V84.5257C79.6625 82.4823 81.3344 80.6247 83.5635 80.6247C85.7926 80.6247 87.4644 82.2966 87.4644 84.5257V109.975H87.2786ZM64.8019 101.801C64.8019 103.845 63.13 105.702 60.9009 105.702C58.6718 105.702 57 104.03 57 101.801V92.699C57 90.6557 58.6718 88.7981 60.9009 88.7981C63.13 88.7981 64.8019 90.6557 64.8019 92.699V101.801ZM98.4241 114.061C98.4241 116.105 96.7523 117.962 94.5232 117.962C92.4799 117.962 90.808 116.105 90.808 114.061V80.2532C90.808 78.2099 92.4799 76.3523 94.709 76.3523C96.7523 76.3523 98.6099 78.0241 98.6099 80.2532V114.061H98.4241Z" fill="#231F20"/>
<path d="M110.684 112.39C109.941 112.39 109.384 112.204 108.64 112.018L103.997 110.532C103.253 110.346 102.696 109.417 103.068 108.674C103.253 107.931 104.182 107.374 104.925 107.746L109.755 109.232C110.684 109.603 111.798 109.417 112.727 108.674C113.656 108.117 114.027 107.003 114.027 106.074V75.052C114.027 73.566 113.099 72.2657 111.798 71.8941L66.2876 58.148C65.3588 57.7765 64.2442 57.9623 63.3154 58.5195C62.5724 59.2626 62.0151 60.1914 62.0151 61.3059V82.6681C62.0151 83.5969 61.2721 84.1542 60.529 84.1542C59.6002 84.1542 59.043 83.4112 59.043 82.6681V61.3059C59.043 59.2626 59.9718 57.405 61.6436 56.2904C63.3154 54.9901 65.3588 54.8044 67.2163 55.3616L112.541 69.1078C115.142 69.8508 117 72.4514 117 75.2378V106.259C117 108.303 116.071 110.16 114.399 111.461C113.284 111.832 111.984 112.39 110.684 112.39" fill="#231F20"/>
</g>
<defs>
<filter id="filter0_d_1837_1422" x="0.142578" y="0.14209" width="173.137" height="173.137" filterUnits="userSpaceOnUse" color-interpolation-filters="sRGB">
<feFlood flood-opacity="0" result="BackgroundImageFix"/>
<feColorMatrix in="SourceAlpha" type="matrix" values="0 0 0 0 0 0 0 0 0 0 0 0 0 0 0 0 0 0 127 0" result="hardAlpha"/>
<feOffset/>
<feGaussianBlur stdDeviation="10"/>
<feComposite in2="hardAlpha" operator="out"/>
<feColorMatrix type="matrix" values="0 0 0 0 0 0 0 0 0 0 0 0 0 0 0 0 0 0 0.1 0"/>
<feBlend mode="normal" in2="BackgroundImageFix" result="effect1_dropShadow_1837_1422"/>
<feBlend mode="normal" in="SourceGraphic" in2="effect1_dropShadow_1837_1422" result="shape"/>
</filter>
<clipPath id="clip0_1837_1422">
<rect width="60" height="64.7668" fill="white" transform="translate(57 54)"/>
</clipPath>
</defs>
</svg>
