<svg width="174" height="174" viewBox="0 0 174 174" fill="none" xmlns="http://www.w3.org/2000/svg">
<g filter="url(#filter0_d_1100_776)">
<rect x="87" y="16" width="100" height="100" rx="10" transform="rotate(45 87 16)" fill="white"/>
</g>
<g clip-path="url(#clip0_1100_776)">
<path d="M86.351 54.0186C69.8252 54.0186 70.8571 61.1851 70.8571 61.1851L70.8754 68.6099H86.6457V70.839H64.6117C64.6117 70.839 54.0369 69.6397 54.0369 86.3141C54.0369 102.989 63.2669 102.398 63.2669 102.398H68.7753V94.6598C68.7753 94.6598 68.4783 85.4298 77.858 85.4298H93.4992C93.4992 85.4298 102.287 85.5718 102.287 76.9368V62.6592C102.287 62.6592 103.622 54.0186 86.351 54.0186ZM77.6553 59.0116C78.028 59.0112 78.397 59.0844 78.7414 59.2268C79.0858 59.3693 79.3987 59.5783 79.6622 59.8418C79.9257 60.1053 80.1346 60.4182 80.2771 60.7625C80.4196 61.1069 80.4927 61.476 80.4924 61.8486C80.4927 62.2213 80.4196 62.5904 80.2771 62.9347C80.1346 63.2791 79.9257 63.592 79.6622 63.8555C79.3987 64.119 79.0858 64.3279 78.7414 64.4704C78.397 64.6129 78.028 64.686 77.6553 64.6857C77.2827 64.686 76.9136 64.6129 76.5692 64.4704C76.2249 64.3279 75.912 64.119 75.6485 63.8555C75.385 63.592 75.176 63.2791 75.0335 62.9347C74.8911 62.5904 74.8179 62.2213 74.8183 61.8486C74.8179 61.476 74.8911 61.1069 75.0335 60.7625C75.176 60.4182 75.385 60.1053 75.6485 59.8418C75.912 59.5783 76.2249 59.3693 76.5692 59.2268C76.9136 59.0844 77.2827 59.0112 77.6553 59.0116V59.0116Z" fill="url(#paint0_linear_1100_776)"/>
<path d="M86.8205 118.777C103.346 118.777 102.314 111.611 102.314 111.611L102.296 104.186H86.5256V101.957H108.56C108.56 101.957 119.134 103.156 119.134 86.4814C119.134 69.8067 109.904 70.3981 109.904 70.3981H104.396V78.1357C104.396 78.1357 104.693 87.3657 95.3133 87.3657H79.672C79.672 87.3657 70.8843 87.2237 70.8843 95.859V110.137C70.8843 110.137 69.5498 118.777 86.8202 118.777H86.8205ZM95.5162 113.785C95.1435 113.785 94.7745 113.712 94.4301 113.569C94.0857 113.427 93.7729 113.218 93.5093 112.955C93.2458 112.691 93.0369 112.378 92.8944 112.034C92.752 111.689 92.6788 111.32 92.6791 110.948C92.6788 110.575 92.7519 110.206 92.8943 109.862C93.0368 109.517 93.2457 109.204 93.5093 108.941C93.7728 108.677 94.0857 108.468 94.43 108.326C94.7744 108.183 95.1435 108.11 95.5162 108.11C95.8889 108.11 96.2579 108.183 96.6023 108.326C96.9466 108.468 97.2595 108.677 97.523 108.941C97.7866 109.204 97.9955 109.517 98.138 109.861C98.2804 110.206 98.3536 110.575 98.3533 110.947C98.3536 111.32 98.2804 111.689 98.138 112.034C97.9955 112.378 97.7866 112.691 97.523 112.954C97.2595 113.218 96.9466 113.427 96.6023 113.569C96.2579 113.712 95.8889 113.785 95.5162 113.785V113.785Z" fill="url(#paint1_linear_1100_776)"/>
</g>
<defs>
<filter id="filter0_d_1100_776" x="0.431396" y="0.14209" width="173.137" height="173.137" filterUnits="userSpaceOnUse" color-interpolation-filters="sRGB">
<feFlood flood-opacity="0" result="BackgroundImageFix"/>
<feColorMatrix in="SourceAlpha" type="matrix" values="0 0 0 0 0 0 0 0 0 0 0 0 0 0 0 0 0 0 127 0" result="hardAlpha"/>
<feOffset/>
<feGaussianBlur stdDeviation="10"/>
<feComposite in2="hardAlpha" operator="out"/>
<feColorMatrix type="matrix" values="0 0 0 0 0 0 0 0 0 0 0 0 0 0 0 0 0 0 0.1 0"/>
<feBlend mode="normal" in2="BackgroundImageFix" result="effect1_dropShadow_1100_776"/>
<feBlend mode="normal" in="SourceGraphic" in2="effect1_dropShadow_1100_776" result="shape"/>
</filter>
<linearGradient id="paint0_linear_1100_776" x1="60.2927" y1="59.8432" x2="92.5529" y2="91.7817" gradientUnits="userSpaceOnUse">
<stop stop-color="#387EB8"/>
<stop offset="1" stop-color="#366994"/>
</linearGradient>
<linearGradient id="paint1_linear_1100_776" x1="80.0942" y1="80.352" x2="114.738" y2="113.102" gradientUnits="userSpaceOnUse">
<stop stop-color="#FFE052"/>
<stop offset="1" stop-color="#FFC331"/>
</linearGradient>
<clipPath id="clip0_1100_776">
<rect width="65.261" height="65" fill="white" transform="translate(54 54)"/>
</clipPath>
</defs>
</svg>
