<svg width="174" height="174" viewBox="0 0 174 174" fill="none" xmlns="http://www.w3.org/2000/svg">
<g filter="url(#filter0_d_1837_1422)">
<rect x="86.7109" y="16" width="100" height="100" rx="10" transform="rotate(45 86.7109 16)" fill="white"/>
</g>
<path d="M77.5962 91.2535C78.4258 91.7842 79.6108 92.186 80.8886 92.186C82.7795 92.186 83.882 91.1864 83.882 89.7438C83.882 88.43 83.1195 87.6417 81.1874 86.9203C78.8534 86.0703 77.4108 84.8389 77.4108 82.845C77.4108 80.6141 79.2554 78.9601 82.0376 78.9601C83.4802 78.9601 84.5621 79.3003 85.1805 79.6608L84.6703 81.1705C84.2221 80.8922 83.269 80.4904 81.9757 80.4904C80.0231 80.4904 79.281 81.6599 79.281 82.6338C79.281 83.9733 80.1519 84.6277 82.1252 85.3953C84.5467 86.3279 85.7576 87.4974 85.7576 89.5997C85.7576 91.8048 84.1449 93.7369 80.7701 93.7369C79.3892 93.7369 77.8849 93.3143 77.1172 92.8043L77.5962 91.2535ZM90.4203 80.7685V83.2313H93.0944V84.6535H90.4203V90.1921C90.4203 91.4647 90.781 92.186 91.8217 92.186C92.3318 92.186 92.6306 92.1449 92.9038 92.0573L92.9862 93.4793C92.6255 93.6081 92.0535 93.7318 91.3323 93.7318C90.4616 93.7318 89.7609 93.4328 89.3178 92.9486C88.8076 92.3767 88.5964 91.4647 88.5964 90.254V84.6535H87.0045V83.2313H88.5964V81.3198L90.4203 80.7685ZM103.791 90.6816C103.791 91.7635 103.811 92.6961 103.873 93.5051H102.219L102.111 91.8306H102.07C101.601 92.66 100.498 93.7421 98.6742 93.7421C97.0617 93.7421 95.1295 92.8301 95.1295 89.2441V83.2315H96.9998V88.8989C96.9998 90.8515 97.613 92.1911 99.2926 92.1911C100.545 92.1911 101.415 91.3204 101.755 90.4704C101.864 90.2179 101.925 89.8778 101.925 89.5171V83.2313H103.796V90.6816H103.791ZM115.744 78.4346V90.8515C115.744 91.7635 115.785 92.8043 115.826 93.5051H114.172L114.09 91.7224H114.028C113.477 92.8661 112.245 93.7369 110.566 93.7369C108.082 93.7369 106.15 91.6347 106.15 88.5124C106.13 85.0965 108.273 83.0149 110.756 83.0149C112.348 83.0149 113.389 83.757 113.858 84.5657H113.899V78.4346H115.744ZM113.894 87.4099C113.894 87.178 113.873 86.8586 113.812 86.6267C113.534 85.4572 112.519 84.4833 111.117 84.4833C109.185 84.4833 108.041 86.1836 108.041 88.43C108.041 90.5115 109.082 92.2324 111.076 92.2324C112.328 92.2324 113.477 91.3824 113.812 90.0015C113.873 89.749 113.894 89.4913 113.894 89.1925V87.4099ZM120.942 80.3409C120.942 80.9798 120.494 81.4848 119.752 81.4848C119.072 81.4848 118.629 80.9748 118.629 80.3409C118.629 79.7021 119.098 79.1714 119.799 79.1714C120.474 79.1766 120.942 79.6866 120.942 80.3409ZM118.861 93.5051V83.2313H120.731V93.5051H118.861ZM133.128 88.2806C133.128 92.0778 130.474 93.7369 128.011 93.7369C125.25 93.7369 123.086 91.6966 123.086 88.4507C123.086 85.0346 125.358 83.0149 128.181 83.0149C131.134 83.0201 133.128 85.1635 133.128 88.2806V88.2806ZM124.997 88.3888C124.997 90.6403 126.27 92.3354 128.099 92.3354C129.882 92.3354 131.221 90.661 131.221 88.3425C131.221 86.6009 130.35 84.4163 128.145 84.4163C125.951 84.4163 124.997 86.4568 124.997 88.3888ZM132.077 79.1766C131.412 79.1766 130.871 79.7176 130.871 80.3822C130.871 81.0468 131.412 81.5878 132.077 81.5878C132.741 81.5878 133.282 81.0468 133.282 80.3822C133.282 79.7176 132.741 79.1766 132.077 79.1766V79.1766ZM133.086 80.3822C133.086 80.9385 132.633 81.3867 132.082 81.3867C131.525 81.3867 131.077 80.9335 131.077 80.3822C131.077 79.8258 131.53 79.3775 132.082 79.3775C132.633 79.3723 133.086 79.8258 133.086 80.382V80.3822Z" fill="#4D4D4D"/>
<path d="M132.505 80.8716L132.206 80.4336C132.376 80.3719 132.463 80.2482 132.463 80.0731C132.463 79.8103 132.242 79.7176 132.031 79.7176C131.974 79.7176 131.917 79.7227 131.866 79.733C131.813 79.739 131.759 79.7424 131.706 79.7432C131.634 79.7432 131.577 79.733 131.515 79.7174L131.484 79.7124V79.8824L131.66 79.903V80.8716H131.484V81.0468H132.046V80.8716H131.845V80.4646H132.01L132.386 81.0314L132.396 81.0417H132.669V80.8664H132.505V80.8716ZM132.273 80.0884C132.273 80.1503 132.247 80.2018 132.201 80.2379C132.144 80.2792 132.056 80.2998 131.943 80.2998H131.845V79.9032C131.917 79.8978 131.979 79.8927 132.036 79.8927C132.144 79.8927 132.273 79.9288 132.273 80.0884V80.0884Z" fill="#4D4D4D"/>
<path d="M69.5236 97.8066C75.757 91.5732 75.7569 81.4668 69.5236 75.2335C63.2902 69 53.1838 69 46.9504 75.2335C40.717 81.4668 40.717 91.5732 46.9504 97.8066C53.1838 104.04 63.2902 104.04 69.5236 97.8066Z" fill="#75AADB"/>
<path d="M63.701 91.6142H65.4321V92.9588H62.789L58.4096 86.3949H56.0756V91.6142H58.358V92.9588H52.6133V91.6142H54.5865V80.0473L52.6133 79.8051V78.5325C53.3603 78.7026 54.0096 78.8211 54.8236 78.8211C56.0498 78.8211 57.3018 78.5325 58.5281 78.5325C60.9085 78.5325 63.1188 79.6144 63.1188 82.2576C63.1188 84.3031 61.8925 85.6014 59.9913 86.1527L63.701 91.6142ZM56.0756 85.0966L57.3276 85.1224C60.3828 85.1686 61.5576 83.994 61.5576 82.4277C61.5576 80.5986 60.2335 79.8772 58.5539 79.8772C57.7604 79.8772 56.9411 79.9495 56.0756 80.0473V85.0966Z" fill="white"/>
<defs>
<filter id="filter0_d_1837_1422" x="0.142578" y="0.14209" width="173.137" height="173.137" filterUnits="userSpaceOnUse" color-interpolation-filters="sRGB">
<feFlood flood-opacity="0" result="BackgroundImageFix"/>
<feColorMatrix in="SourceAlpha" type="matrix" values="0 0 0 0 0 0 0 0 0 0 0 0 0 0 0 0 0 0 127 0" result="hardAlpha"/>
<feOffset/>
<feGaussianBlur stdDeviation="10"/>
<feComposite in2="hardAlpha" operator="out"/>
<feColorMatrix type="matrix" values="0 0 0 0 0 0 0 0 0 0 0 0 0 0 0 0 0 0 0.1 0"/>
<feBlend mode="normal" in2="BackgroundImageFix" result="effect1_dropShadow_1837_1422"/>
<feBlend mode="normal" in="SourceGraphic" in2="effect1_dropShadow_1837_1422" result="shape"/>
</filter>
</defs>
</svg>
