<svg width="174" height="174" viewBox="0 0 174 174" fill="none" xmlns="http://www.w3.org/2000/svg">
<g filter="url(#filter0_d_1100_776)">
<rect x="87" y="16" width="100" height="100" rx="10" transform="rotate(45 87 16)" fill="white"/>
</g>
<path d="M103.463 96.4736L69.2229 116.805L113.557 113.797L116.972 69.0923L103.463 96.4734L103.463 96.4736Z" fill="url(#paint0_linear_1100_776)"/>
<path d="M113.63 113.766L109.819 87.4658L99.4397 101.172L113.63 113.767V113.766Z" fill="url(#paint1_linear_1100_776)"/>
<path d="M113.682 113.766L85.7648 111.575L69.3708 116.748L113.682 113.766V113.766Z" fill="url(#paint2_linear_1100_776)"/>
<path d="M69.4103 116.754L76.3844 93.9072L61.0376 97.1884L69.4101 116.754L69.4103 116.754Z" fill="url(#paint3_linear_1100_776)"/>
<path d="M99.4373 101.247L93.0201 76.1118L74.656 93.3259L99.4373 101.247V101.247Z" fill="url(#paint4_linear_1100_776)"/>
<path d="M115.516 76.466L98.1566 62.2881L93.3228 77.9158L115.516 76.466V76.466Z" fill="url(#paint5_linear_1100_776)"/>
<path d="M107.398 57.2328L97.1883 62.8751L90.7468 57.1572L107.398 57.233V57.2328Z" fill="url(#paint6_linear_1100_776)"/>
<path d="M57 104.852L61.2769 97.052L57.8172 87.7593L57 104.852Z" fill="url(#paint7_linear_1100_776)"/>
<path d="M57.5874 87.4659L61.0683 97.3395L76.1938 93.9461L93.462 77.8974L98.3354 62.4181L90.662 57L77.6161 61.8824C73.5058 65.7054 65.53 73.2696 65.2425 73.4118C64.9578 73.5572 59.9756 82.9739 57.5874 87.4659V87.4659Z" fill="white"/>
<path d="M69.8098 69.7279C78.7181 60.8954 90.2021 55.6771 94.6091 60.1237C99.0138 64.5702 94.3428 75.3761 85.4345 84.2058C76.5263 93.0352 65.1846 98.5411 60.7804 94.0945C56.3734 89.6509 60.9016 78.5575 69.8098 69.7279V69.7279Z" fill="url(#paint8_linear_1100_776)"/>
<path d="M69.4104 116.745L76.3299 93.8252L99.31 101.208C91.0013 108.999 81.7601 115.586 69.4104 116.745V116.745Z" fill="url(#paint9_linear_1100_776)"/>
<path d="M93.4924 77.8521L99.3919 101.22C106.333 93.922 112.562 86.0763 115.613 76.3721L93.4927 77.8521H93.4924Z" fill="url(#paint10_linear_1100_776)"/>
<path d="M115.552 76.49C117.913 69.3649 118.458 59.143 107.325 57.2451L98.1897 62.291L115.552 76.49V76.49Z" fill="url(#paint11_linear_1100_776)"/>
<path d="M57 104.749C57.3271 116.509 65.8113 116.684 69.4254 116.787L61.0772 97.291L57 104.749Z" fill="#9E1209"/>
<path d="M93.5251 77.8889C98.8586 81.167 109.608 87.7504 109.825 87.8714C110.164 88.062 114.46 80.6281 115.434 76.4268L93.5251 77.8889V77.8889Z" fill="url(#paint12_radial_1100_776)"/>
<path d="M76.3208 93.8252L85.5709 111.672C91.0406 108.705 95.3239 105.091 99.2465 101.22L76.3208 93.8252Z" fill="url(#paint13_radial_1100_776)"/>
<path d="M61.0411 97.3154L59.7305 112.922C62.2034 116.3 65.6058 116.594 69.1742 116.331C66.5923 109.904 61.4345 97.0552 61.0411 97.3154Z" fill="url(#paint14_linear_1100_776)"/>
<path d="M98.1355 62.3306L116.512 64.9094C115.531 60.7536 112.519 58.0718 107.386 57.2334L98.1355 62.3306V62.3306Z" fill="url(#paint15_linear_1100_776)"/>
<defs>
<filter id="filter0_d_1100_776" x="0.431396" y="0.14209" width="173.137" height="173.137" filterUnits="userSpaceOnUse" color-interpolation-filters="sRGB">
<feFlood flood-opacity="0" result="BackgroundImageFix"/>
<feColorMatrix in="SourceAlpha" type="matrix" values="0 0 0 0 0 0 0 0 0 0 0 0 0 0 0 0 0 0 127 0" result="hardAlpha"/>
<feOffset/>
<feGaussianBlur stdDeviation="10"/>
<feComposite in2="hardAlpha" operator="out"/>
<feColorMatrix type="matrix" values="0 0 0 0 0 0 0 0 0 0 0 0 0 0 0 0 0 0 0.1 0"/>
<feBlend mode="normal" in2="BackgroundImageFix" result="effect1_dropShadow_1100_776"/>
<feBlend mode="normal" in="SourceGraphic" in2="effect1_dropShadow_1100_776" result="shape"/>
</filter>
<linearGradient id="paint0_linear_1100_776" x1="109.69" y1="122.244" x2="97.0529" y2="99.8992" gradientUnits="userSpaceOnUse">
<stop stop-color="#FB7655"/>
<stop offset="0.41" stop-color="#E42B1E"/>
<stop offset="0.99" stop-color="#990000"/>
<stop offset="1" stop-color="#990000"/>
</linearGradient>
<linearGradient id="paint1_linear_1100_776" x1="115.993" y1="103.48" x2="98.228" y2="100.01" gradientUnits="userSpaceOnUse">
<stop stop-color="#871101"/>
<stop offset="0.99" stop-color="#911209"/>
<stop offset="1" stop-color="#911209"/>
</linearGradient>
<linearGradient id="paint2_linear_1100_776" x1="102.947" y1="122.921" x2="102.718" y2="111.654" gradientUnits="userSpaceOnUse">
<stop stop-color="#871101"/>
<stop offset="0.99" stop-color="#911209"/>
<stop offset="1" stop-color="#911209"/>
</linearGradient>
<linearGradient id="paint3_linear_1100_776" x1="68.7128" y1="95.56" x2="73.9947" y2="111.048" gradientUnits="userSpaceOnUse">
<stop stop-color="white"/>
<stop offset="0.23" stop-color="#E57252"/>
<stop offset="0.46" stop-color="#DE3B20"/>
<stop offset="0.99" stop-color="#A60003"/>
<stop offset="1" stop-color="#A60003"/>
</linearGradient>
<linearGradient id="paint4_linear_1100_776" x1="86.0985" y1="80.221" x2="87.0565" y2="96.9846" gradientUnits="userSpaceOnUse">
<stop stop-color="white"/>
<stop offset="0.23" stop-color="#E4714E"/>
<stop offset="0.56" stop-color="#BE1A0D"/>
<stop offset="0.99" stop-color="#A80D00"/>
<stop offset="1" stop-color="#A80D00"/>
</linearGradient>
<linearGradient id="paint5_linear_1100_776" x1="101.526" y1="64.7251" x2="102.927" y2="76.8999" gradientUnits="userSpaceOnUse">
<stop stop-color="white"/>
<stop offset="0.18" stop-color="#E46342"/>
<stop offset="0.4" stop-color="#C82410"/>
<stop offset="0.99" stop-color="#A80D00"/>
<stop offset="1" stop-color="#A80D00"/>
</linearGradient>
<linearGradient id="paint6_linear_1100_776" x1="93.0129" y1="60.4934" x2="94.988" y2="52.1183" gradientUnits="userSpaceOnUse">
<stop stop-color="white"/>
<stop offset="0.54" stop-color="#C81F11"/>
<stop offset="0.99" stop-color="#BF0905"/>
<stop offset="1" stop-color="#BF0905"/>
</linearGradient>
<linearGradient id="paint7_linear_1100_776" x1="58.1815" y1="91.3719" x2="63.3467" y2="94.6096" gradientUnits="userSpaceOnUse">
<stop stop-color="white"/>
<stop offset="0.31" stop-color="#DE4024"/>
<stop offset="0.99" stop-color="#BF190B"/>
<stop offset="1" stop-color="#BF190B"/>
</linearGradient>
<linearGradient id="paint8_linear_1100_776" x1="51.3833" y1="103.948" x2="97.7997" y2="56.0833" gradientUnits="userSpaceOnUse">
<stop stop-color="#BD0012"/>
<stop offset="0.07" stop-color="white"/>
<stop offset="0.17" stop-color="white"/>
<stop offset="0.27" stop-color="#C82F1C"/>
<stop offset="0.33" stop-color="#820C01"/>
<stop offset="0.46" stop-color="#A31601"/>
<stop offset="0.72" stop-color="#B31301"/>
<stop offset="0.99" stop-color="#E82609"/>
<stop offset="1" stop-color="#E82609"/>
</linearGradient>
<linearGradient id="paint9_linear_1100_776" x1="86.989" y1="108.77" x2="73.8534" y2="103.253" gradientUnits="userSpaceOnUse">
<stop stop-color="#8C0C01"/>
<stop offset="0.54" stop-color="#990C00"/>
<stop offset="0.99" stop-color="#A80D0E"/>
<stop offset="1" stop-color="#A80D0E"/>
</linearGradient>
<linearGradient id="paint10_linear_1100_776" x1="111.038" y1="91.965" x2="97.5074" y2="82.3543" gradientUnits="userSpaceOnUse">
<stop stop-color="#7E110B"/>
<stop offset="0.99" stop-color="#9E0C00"/>
<stop offset="1" stop-color="#9E0C00"/>
</linearGradient>
<linearGradient id="paint11_linear_1100_776" x1="115.608" y1="71.5098" x2="109.245" y2="65.0506" gradientUnits="userSpaceOnUse">
<stop stop-color="#79130D"/>
<stop offset="0.99" stop-color="#9E120B"/>
<stop offset="1" stop-color="#9E120B"/>
</linearGradient>
<radialGradient id="paint12_radial_1100_776" cx="0" cy="0" r="1" gradientUnits="userSpaceOnUse" gradientTransform="translate(100.536 81.0301) scale(15.2429 7.96487)">
<stop stop-color="#A80D00"/>
<stop offset="0.99" stop-color="#7E0E08"/>
<stop offset="1" stop-color="#7E0E08"/>
</radialGradient>
<radialGradient id="paint13_radial_1100_776" cx="0" cy="0" r="1" gradientUnits="userSpaceOnUse" gradientTransform="translate(79.427 101.117) scale(20.2631 15.7739)">
<stop stop-color="#A30C00"/>
<stop offset="0.99" stop-color="#800E08"/>
<stop offset="1" stop-color="#800E08"/>
</radialGradient>
<linearGradient id="paint14_linear_1100_776" x1="65.0728" y1="116.732" x2="53.6645" y2="107.262" gradientUnits="userSpaceOnUse">
<stop stop-color="#8B2114"/>
<stop offset="0.43" stop-color="#9E100A"/>
<stop offset="0.99" stop-color="#B3100C"/>
<stop offset="1" stop-color="#B3100C"/>
</linearGradient>
<linearGradient id="paint15_linear_1100_776" x1="103.808" y1="59.966" x2="107.046" y2="68.1574" gradientUnits="userSpaceOnUse">
<stop stop-color="#B31000"/>
<stop offset="0.44" stop-color="#910F08"/>
<stop offset="0.99" stop-color="#791C12"/>
<stop offset="1" stop-color="#791C12"/>
</linearGradient>
</defs>
</svg>
