<svg width="174" height="174" viewBox="0 0 174 174" fill="none" xmlns="http://www.w3.org/2000/svg">
<g filter="url(#filter0_d_1100_776)">
<rect x="87" y="16" width="100" height="100" rx="10" transform="rotate(45 87 16)" fill="white"/>
</g>
<g clip-path="url(#clip0_1100_776)">
<path d="M65.755 52.0001C62.4617 51.9852 58.9673 55.2412 59.0002 58.6686V83.5464V90.447V122H107.39C110.684 122.015 114.178 118.752 114.145 115.325V90.447V83.5464V52.0001H65.755ZM67.1271 53.2529H112.726V83.3674V89.9564V113.701C112.758 116.972 109.46 120.085 106.356 120.071H60.7569V89.9564V83.3674V59.6231C60.7258 56.3516 64.0238 53.2388 67.1271 53.2529Z" fill="black"/>
<path d="M67.1205 53.2198C64.0172 53.2056 60.7126 56.3184 60.7436 59.59V83.3343V89.9233V93.0985L66.4112 83.5199L61.1082 70.3684L72.2678 53.2529L67.1205 53.2198ZM60.7436 94.9811L60.7536 120.074H72.1037L60.7436 94.9803V94.9804L60.7436 94.9803V94.9811ZM112.726 95.2661L102.551 120.071H106.354C109.458 120.085 112.756 116.972 112.725 113.701L112.726 95.2665H112.726V95.2661ZM86.7608 105.161L73.4709 120.071L102.369 120.074L86.7608 105.161V105.161V105.161Z" fill="#8B1E25"/>
<path d="M72.2719 53.2466L72.4243 68.7347L61.1016 70.3638L66.3391 83.3644L72.5503 68.6618L88.0351 62.7224L72.2719 53.2466ZM66.2331 83.8218L60.7378 93.1087L60.7709 94.2887L72.9745 97.9157L72.7922 120.068H73.475L86.7624 105.166L102.367 120.078L102.552 120.071L112.726 95.2681L112.726 94.5124L86.7624 104.935L72.9757 97.9122L66.2331 83.8219V83.8218V83.8218Z" fill="#A42F38"/>
<path d="M72.2733 53.2437L61.0983 70.3677L72.4304 68.734L72.2733 53.2437ZM60.7525 94.2625V94.9851H60.7458L72.0943 120.068L72.7995 120.071L72.9759 97.915L60.7525 94.2626V94.2625V94.2625Z" fill="#932630"/>
<path d="M108.209 83.7654L102.056 68.495L86.8909 62.6594L102.256 53.2598L102.053 68.4944L112.728 71.7984L112.725 72.7334L108.315 83.7654L112.727 94.5131L101.951 98.8386L108.209 83.7654Z" fill="#C68A66"/>
<path d="M86.9107 62.6418L102.256 53.2621L72.3208 53.2555L86.9107 62.6418V62.6418ZM102.051 68.4883L112.728 71.7991L102.256 53.2554L102.051 68.4883ZM112.723 72.7307L108.269 83.7809L112.723 94.5129V72.7307V72.7307Z" fill="#BE785F"/>
<path d="M112.756 53.1494L102.256 53.2555L112.726 71.7993L112.756 53.1494ZM86.6787 62.4496L72.5727 68.495L65.8909 83.6617L72.9733 97.9166L86.7602 104.942L101.952 98.8383L108.236 83.7611L102.057 68.495L86.6787 62.4496Z" fill="#AA4042"/>
<path d="M93.6425 55.3952C93.3953 55.3996 93.2221 55.4291 93.1785 55.4747C93.0915 55.566 93.1682 55.9963 93.3443 56.4293C93.631 57.1343 93.753 57.2255 94.5507 57.2977C95.0406 57.342 95.5574 57.3899 95.6975 57.4103C95.8376 57.4307 96.0144 57.3508 96.0886 57.2314C96.1627 57.112 96.1124 56.6953 95.9825 56.3034C95.7609 55.6347 95.6753 55.5806 94.5441 55.4482C94.2125 55.4094 93.8898 55.3907 93.6425 55.3952ZM84.9058 57.0259C84.4358 57.0259 82.9201 57.8713 82.7912 58.2058C82.6459 58.5829 84.1101 60.4331 84.5545 60.4331C84.7256 60.4331 85.2465 60.178 85.7145 59.8696C86.1826 59.5612 86.5696 59.1998 86.5696 59.0609C86.5696 58.6702 85.2245 57.0259 84.9058 57.0259ZM104.931 58.5174C104.417 58.5174 104.869 59.3322 105.661 59.8299C106.617 60.4307 107.099 60.5618 107.099 60.2276C107.099 60.0008 105.219 58.5174 104.931 58.5174ZM95.313 58.5903C94.5873 58.6081 93.878 58.7162 92.688 58.9283C90.1917 59.3733 87.1421 60.339 86.1056 61.0164C82.1775 63.5836 78.7763 67.3776 75.6852 72.6433C71.2776 80.1514 68.8524 88.9218 68.0555 100.199L67.9163 102.141C67.9394 102.153 67.9687 102.164 68.0024 102.174H79.0195C85.1295 102.174 90.1738 102.13 90.2287 102.075C90.2836 102.02 89.9216 100.748 89.42 99.2512C87.7941 94.3983 86.7524 88.732 86.742 84.7076C86.7283 79.4206 88.3665 73.558 90.9314 69.72C92.3095 67.6578 94.4461 65.5428 95.1605 65.5372C95.434 65.5351 96.0825 65.2471 96.6056 64.8942C97.1287 64.5414 98.2289 64.0473 99.045 63.8005C101.573 63.036 104.981 63.4712 108.133 64.9539C109.247 65.4778 109.533 65.5436 109.684 65.3052C110.07 64.698 109.843 64.2474 108.624 63.2371C105.402 60.5678 101.918 59.1618 97.4408 58.7162C96.6833 58.6408 96.1328 58.5949 95.6246 58.5903C95.5187 58.5881 95.4167 58.5877 95.313 58.5903V58.5903ZM75.2278 64.6224C74.7505 64.7105 73.159 66.7694 73.4314 67.0155C74.0155 67.5431 75.9732 68.7049 76.1227 68.613C76.2189 68.5538 76.5836 68.0852 76.938 67.5723C77.2925 67.0593 77.581 66.5508 77.581 66.4454C77.581 66.2816 76.167 65.157 75.3073 64.6357C75.2863 64.623 75.2596 64.6166 75.2278 64.6225V64.6224ZM104.865 64.9804C104.695 64.9805 104.549 65.0117 104.474 65.0865C104.357 65.2032 104.321 65.4592 104.394 65.6499C104.569 66.1031 106.138 66.0194 106.138 65.5571C106.138 65.2697 105.375 64.98 104.865 64.9804ZM98.5081 65.1925C98.4197 65.1946 98.3099 65.2138 98.1766 65.2455C97.4014 65.4302 96.831 65.7248 96.831 65.9416C96.831 66.0364 97.0266 66.2864 97.2619 66.4984C97.4971 66.7104 97.6861 67.017 97.6861 67.1745C97.6861 67.5219 97.8537 67.5306 98.7268 67.2276C99.4945 66.9611 99.5141 66.8719 99.0848 65.8488C98.8754 65.3498 98.7732 65.1882 98.5081 65.1925ZM93.046 69.3753C92.7825 69.3753 92.1246 70.0835 92.1246 70.3696C92.1246 70.7372 93.1951 72.3583 93.4371 72.3583C93.5363 72.3583 93.7693 72.1189 93.9607 71.8279C94.2912 71.3257 94.2794 71.2495 93.742 70.3364C93.4306 69.8075 93.12 69.3753 93.046 69.3753ZM67.8831 76.4018C67.5955 76.4018 66.6767 78.6096 66.6767 79.2986C66.6767 79.5553 69.0287 80.6057 69.6928 80.6442C69.9341 80.6582 70.18 80.2407 70.5081 79.2455C70.8894 78.089 70.9198 77.779 70.6937 77.5751C70.3389 77.2551 68.2973 76.4018 67.8831 76.4018ZM89.4996 76.488C89.4375 76.5003 89.3873 76.5468 89.3405 76.6205C89.2294 76.7954 89.1368 77.0472 89.135 77.184C89.1333 77.3208 89.0785 77.5805 89.009 77.7607C88.9273 77.9728 89.2101 78.3915 89.8111 78.9473C90.8512 79.909 90.9593 79.9488 91.1435 79.4709C91.4685 78.6276 91.2584 77.9647 90.4077 77.1376C89.962 76.7042 89.7238 76.5116 89.5658 76.488C89.5422 76.4843 89.5203 76.4839 89.4996 76.488ZM88.3727 84.7474C88.1312 84.7379 88.0659 84.9247 88.0677 85.2976C88.0737 86.4898 88.2869 86.7894 89.5261 87.3393C91.1532 88.0613 91.2891 88.0522 91.1435 87.2133C90.9467 86.0792 90.9107 86.0305 89.7316 85.3573C89.0301 84.9567 88.6141 84.7569 88.3727 84.7474ZM63.6274 90.8857C63.2681 90.8857 62.2742 94.0992 62.474 94.6177C62.5818 94.8974 63.379 95.0312 65.4106 95.1082L66.3916 95.1413L66.7827 93.4311C67.0183 92.404 67.0998 91.6587 66.9816 91.5552C66.7899 91.3874 64.2794 90.8857 63.6274 90.8857ZM89.9437 95.2076C89.8799 95.21 89.8386 95.2199 89.8244 95.2341C89.7538 95.3044 89.8619 95.8848 90.063 96.5201C90.3724 97.4973 90.519 97.6852 91.0109 97.7597C91.8288 97.8836 94.0535 97.9329 94.0535 97.826C94.0535 97.3821 93.1454 95.7983 92.8405 95.7114C91.9333 95.4529 90.3905 95.1919 89.9437 95.2076ZM105.528 105.628C105.02 105.628 104.494 105.646 104.076 105.688C102.849 105.811 102.436 105.955 101.902 106.43C101.319 106.949 101.234 107.17 101.166 108.372C101.104 109.465 101.171 109.867 101.524 110.427C102.071 111.295 102.701 111.543 104.388 111.548C105.99 111.551 106.303 111.715 106.211 112.522L106.138 113.138L103.732 113.198L101.325 113.258V114.318V115.372H104.01C105.991 115.372 106.855 115.293 107.318 115.054C108.2 114.6 108.597 113.709 108.597 112.171C108.597 110.965 108.537 110.802 107.868 110.136C107.131 109.402 107.037 109.378 104.746 109.32C103.816 109.297 103.466 109.085 103.466 108.545C103.466 107.944 104.274 107.71 106.363 107.71H108.166V106.775V105.834L106.88 105.688C106.526 105.647 106.036 105.628 105.528 105.628ZM89.3471 105.767L88.2268 105.834L87.0999 105.9L87.0403 110.368C87.0084 112.824 87.0357 114.951 87.0933 115.101C87.159 115.271 87.598 115.372 88.2732 115.372H89.3471V110.573V105.767ZM65.3907 105.794V110.586V115.372H66.5574H67.724L67.7903 114.153C67.8283 113.428 67.9467 112.926 68.0886 112.926C68.2205 112.926 68.7838 113.479 69.3348 114.153L70.3358 115.372H71.6085C72.3078 115.372 72.8812 115.321 72.8812 115.253C72.8812 115.186 72.4428 114.573 71.9134 113.888C71.384 113.203 70.9522 112.571 70.9522 112.489C70.9522 112.406 71.384 111.939 71.9134 111.448L72.868 110.56C72.8714 110.548 72.8779 110.538 72.8812 110.527V108.896C72.8812 107.296 72.8544 107.216 72.152 106.516L71.4229 105.794H68.4068H65.3907V105.794ZM79.9607 105.794C76.4012 105.801 76.3017 105.96 76.3017 111.422V115.372H77.3689C78.4322 115.372 78.4395 115.37 78.4428 114.683C78.448 113.577 78.6496 113.431 80.0602 113.503L81.3263 113.563L81.3926 114.484L81.4589 115.399L82.5659 115.333L83.6795 115.266L83.7458 111.753C83.8486 106.189 83.592 105.786 79.9607 105.794ZM92.7675 105.794V110.586V115.386L95.9228 115.326L99.0781 115.266V114.206V113.138L97.1558 113.032L95.2268 112.926L95.1672 109.36L95.1141 105.794H93.9408H92.7675ZM69.3149 107.922C69.649 107.926 69.974 107.972 70.1899 108.054C70.668 108.237 70.668 110.165 70.1899 110.348C69.6142 110.568 68.2724 110.491 68.0024 110.222C67.8613 110.081 67.7439 109.623 67.7439 109.201C67.7439 108.779 67.8613 108.321 68.0024 108.18C68.1712 108.012 68.7581 107.914 69.3149 107.922ZM79.9541 107.928C80.4788 107.928 81.0115 108.018 81.1738 108.18C81.315 108.321 81.4323 108.922 81.4323 109.519C81.4323 110.116 81.315 110.718 81.1738 110.858C80.7857 111.244 79.1768 111.179 78.7543 110.759C78.3197 110.326 78.4203 108.412 78.8935 108.114C79.0574 108.01 79.3763 107.952 79.7287 107.935C79.8022 107.931 79.8792 107.928 79.9541 107.928V107.928Z" fill="#F2F2F2"/>
</g>
<defs>
<filter id="filter0_d_1100_776" x="0.431396" y="0.14209" width="173.137" height="173.137" filterUnits="userSpaceOnUse" color-interpolation-filters="sRGB">
<feFlood flood-opacity="0" result="BackgroundImageFix"/>
<feColorMatrix in="SourceAlpha" type="matrix" values="0 0 0 0 0 0 0 0 0 0 0 0 0 0 0 0 0 0 127 0" result="hardAlpha"/>
<feOffset/>
<feGaussianBlur stdDeviation="10"/>
<feComposite in2="hardAlpha" operator="out"/>
<feColorMatrix type="matrix" values="0 0 0 0 0 0 0 0 0 0 0 0 0 0 0 0 0 0 0.1 0"/>
<feBlend mode="normal" in2="BackgroundImageFix" result="effect1_dropShadow_1100_776"/>
<feBlend mode="normal" in="SourceGraphic" in2="effect1_dropShadow_1100_776" result="shape"/>
</filter>
<clipPath id="clip0_1100_776">
<rect width="55.1453" height="70" fill="white" transform="translate(59 52)"/>
</clipPath>
</defs>
</svg>
