<svg width="174" height="174" viewBox="0 0 174 174" fill="none" xmlns="http://www.w3.org/2000/svg">
<g filter="url(#filter0_d_1100_776)">
<rect x="87" y="16" width="100" height="100" rx="10" transform="rotate(45 87 16)" fill="white"/>
</g>
<g clip-path="url(#clip0_1100_776)">
<path d="M101.992 97.7905C100.506 96.2706 98.6709 96.0446 96.7416 96.5139C94.8088 96.9833 93.5933 98.2864 93.0778 100.213C92.9025 100.868 92.9982 100.979 93.636 100.979C95.1547 100.98 96.6735 100.979 98.1923 100.979C99.7595 100.979 101.328 100.97 102.895 100.986C103.262 100.99 103.419 100.879 103.346 100.507C103.143 99.4788 102.738 98.554 101.992 97.7905Z" fill="#43B02A"/>
<path d="M120.871 62.3558C120.848 62.1851 120.749 61.9452 120.619 61.891C120.492 61.838 120.224 61.9303 120.119 62.0479C114.927 67.8728 109.745 73.708 104.559 79.541C102.585 81.7621 100.607 83.9797 98.6259 86.195C98.0966 86.7866 97.7564 86.7912 97.2063 86.2238C93.6579 82.5681 90.1117 78.9102 86.5679 75.251C86.0674 74.7344 86.0605 74.4737 86.5137 73.8914C87.615 72.4729 88.7175 71.0556 89.8211 69.6395C90.3331 68.9833 90.7345 68.9683 91.2892 69.5818C93.2277 71.7245 95.164 73.8706 97.1071 76.0098C97.7079 76.6718 97.957 76.6545 98.476 75.9418C104.067 68.2822 109.658 60.6237 115.238 52.9571C115.374 52.7703 115.481 52.4705 115.427 52.2698C115.395 52.1499 115.022 52.0599 114.803 52.0599C94.8007 52.0507 74.7971 52.0518 54.7946 52.0449C54.4509 52.0449 54.1938 52.1337 54.0046 52.4151C54.0046 75.4759 54.0046 98.5355 54.0046 121.596C54.2526 121.901 54.5778 121.955 54.9572 121.955C76.6099 121.948 98.2615 121.949 119.914 121.949C120.785 121.949 120.847 121.887 120.847 120.991C120.847 108.973 120.847 96.9545 120.847 84.9368C120.847 77.6705 120.847 70.4041 120.849 63.1377C120.849 62.8759 120.905 62.6107 120.871 62.3558ZM84.2465 105.59C84.1208 108.096 83.1821 110.205 81.2285 111.818C79.8389 112.966 78.2233 113.659 76.4681 113.972C75.1107 114.216 73.728 114.323 72.3569 114.49C68.1015 114.441 64.327 113.163 61.0588 110.439C60.5111 109.982 60.4857 109.746 60.902 109.154C61.6908 108.033 62.4842 106.915 63.2834 105.801C63.6789 105.25 64.0399 105.196 64.5427 105.639C66.4178 107.288 68.5882 108.321 71.0526 108.679C72.8954 108.948 74.7348 108.965 76.43 107.995C77.1877 107.562 77.7274 106.938 77.8669 106.058C78.0284 105.043 77.6005 104.195 76.5592 103.724C75.572 103.275 74.5307 102.925 73.4859 102.627C71.8287 102.154 70.1219 101.841 68.4855 101.307C67.2101 100.89 65.9473 100.351 64.7883 99.6761C62.535 98.3637 61.4486 96.319 61.2964 93.7047C61.128 90.8228 62.2455 88.5672 64.4205 86.782C65.7974 85.6518 67.4142 84.9761 69.1452 84.6497C72.8447 83.952 76.4588 84.2541 79.8724 85.9275C80.9483 86.4545 81.9343 87.1729 82.9353 87.8429C83.4289 88.1728 83.4588 88.4945 83.129 88.9616C82.3287 90.094 81.5215 91.223 80.705 92.3451C80.3544 92.8271 79.9773 92.8767 79.4906 92.5054C77.7724 91.1907 75.8499 90.3489 73.7119 90.026C72.3834 89.8253 71.048 89.7538 69.7414 90.1747C68.7208 90.5034 67.9527 91.0973 67.721 92.2205C67.5583 93.007 67.8063 93.6378 68.4313 94.1153C69.3631 94.8256 70.4817 95.092 71.5819 95.393C73.6369 95.9558 75.7081 96.4701 77.747 97.0848C79.1101 97.4953 80.3763 98.1515 81.4926 99.0568C83.5707 100.746 84.3791 102.967 84.2465 105.59ZM108.2 104.879C105.767 104.88 103.334 104.88 100.901 104.88C98.4679 104.88 96.0358 104.88 93.6025 104.88C93.0005 104.88 92.9798 104.91 93.1262 105.494C93.8297 108.3 96.5789 110.111 99.4193 109.768C101.203 109.552 102.859 109.083 104.353 108.069C104.716 107.822 105.065 107.878 105.327 108.258C105.911 109.105 106.5 109.947 107.071 110.802C107.355 111.227 107.295 111.511 106.876 111.806C104.889 113.199 102.697 114.053 100.273 114.288C98.5117 114.459 96.7508 114.513 95.0348 113.994C90.8348 112.726 88.1259 109.966 87.2264 105.67C86.531 102.348 87.0027 99.1444 89.06 96.3087C90.9547 93.6966 93.5218 92.1663 96.7104 91.8042C99.3467 91.5044 101.881 91.9207 104.142 93.4452C106.603 95.1059 108.005 97.4769 108.595 100.328C108.848 101.548 108.899 102.812 108.999 104.059C109.046 104.686 108.821 104.878 108.2 104.879Z" fill="#43B02A"/>
</g>
<defs>
<filter id="filter0_d_1100_776" x="0.431396" y="0.14209" width="173.137" height="173.137" filterUnits="userSpaceOnUse" color-interpolation-filters="sRGB">
<feFlood flood-opacity="0" result="BackgroundImageFix"/>
<feColorMatrix in="SourceAlpha" type="matrix" values="0 0 0 0 0 0 0 0 0 0 0 0 0 0 0 0 0 0 127 0" result="hardAlpha"/>
<feOffset/>
<feGaussianBlur stdDeviation="10"/>
<feComposite in2="hardAlpha" operator="out"/>
<feColorMatrix type="matrix" values="0 0 0 0 0 0 0 0 0 0 0 0 0 0 0 0 0 0 0.1 0"/>
<feBlend mode="normal" in2="BackgroundImageFix" result="effect1_dropShadow_1100_776"/>
<feBlend mode="normal" in="SourceGraphic" in2="effect1_dropShadow_1100_776" result="shape"/>
</filter>
<clipPath id="clip0_1100_776">
<rect width="66.8863" height="70" fill="white" transform="translate(54 52)"/>
</clipPath>
</defs>
</svg>
