<svg width="174" height="174" viewBox="0 0 174 174" fill="none" xmlns="http://www.w3.org/2000/svg">
<g filter="url(#filter0_d_1100_776)">
<rect x="87" y="16" width="100" height="100" rx="10" transform="rotate(45 87 16)" fill="white"/>
</g>
<g clip-path="url(#clip0_1100_776)">
<path d="M109.648 65.7457C109.599 65.3957 109.293 65.202 109.039 65.1807C108.787 65.1596 103.434 64.7628 103.434 64.7628C103.434 64.7628 99.7165 61.0722 99.3085 60.6637C98.9003 60.2555 98.1029 60.3797 97.7934 60.4707C97.7479 60.4842 96.9812 60.7208 95.7131 61.1132C94.4713 57.5399 92.2797 54.2561 88.4242 54.2561C88.3178 54.2561 88.2082 54.2604 88.0987 54.2666C87.0021 52.8165 85.6438 52.1865 84.4706 52.1865C75.4893 52.1865 71.1984 63.4141 69.8531 69.1196C66.3631 70.201 63.8839 70.9698 63.5672 71.0693C61.6192 71.6804 61.5576 71.7417 61.3018 73.5773C61.1093 74.967 56.0122 114.385 56.0122 114.385L95.7296 121.827L117.25 117.171C117.25 117.171 109.695 66.0957 109.648 65.7457H109.648ZM93.5179 61.7921L90.1572 62.8323C90.1584 62.5954 90.1596 62.3624 90.1596 62.1076C90.1596 59.8868 89.8513 58.0987 89.3567 56.6812C91.3434 56.9305 92.6664 59.1909 93.5179 61.7921ZM86.8923 57.1215C87.4447 58.5055 87.8038 60.4916 87.8038 63.1717C87.8038 63.3089 87.8026 63.4342 87.8014 63.5611C85.6158 64.2381 83.2408 64.9731 80.8606 65.7105C82.1971 60.5525 84.7022 58.0613 86.8923 57.1215V57.1215ZM84.2239 54.5955C84.6116 54.5955 85.0021 54.7271 85.3758 54.9844C82.4974 56.3388 79.4122 59.7501 78.1092 66.5624L72.6229 68.2616C74.149 63.0655 77.7727 54.5955 84.2237 54.5955H84.2239Z" fill="#95BF46"/>
<path d="M109.039 65.1808C108.786 65.1597 103.434 64.7629 103.434 64.7629C103.434 64.7629 99.7164 61.0723 99.3084 60.6638C99.1557 60.5119 98.9498 60.434 98.7345 60.4004L95.7314 121.826L117.25 117.171C117.25 117.171 109.695 66.0958 109.648 65.7458C109.599 65.3958 109.293 65.2021 109.039 65.1808" fill="#5E8E3E"/>
<path d="M88.424 77.0717L85.7705 84.9649C85.7705 84.9649 83.4456 83.7241 80.5958 83.7241C76.4178 83.7241 76.2076 86.3459 76.2076 87.0066C76.2076 90.6116 85.6049 91.9929 85.6049 100.437C85.6049 107.081 81.3912 111.358 75.7097 111.358C68.8919 111.358 65.4053 107.115 65.4053 107.115L67.2308 101.084C67.2308 101.084 70.8147 104.161 73.8388 104.161C75.8149 104.161 76.6187 102.605 76.6187 101.468C76.6187 96.7656 68.9091 96.5558 68.9091 88.8288C68.9091 82.3253 73.5771 76.0317 82.9997 76.0317C86.6304 76.0317 88.424 77.0717 88.424 77.0717" fill="white"/>
</g>
<defs>
<filter id="filter0_d_1100_776" x="0.431396" y="0.14209" width="173.137" height="173.137" filterUnits="userSpaceOnUse" color-interpolation-filters="sRGB">
<feFlood flood-opacity="0" result="BackgroundImageFix"/>
<feColorMatrix in="SourceAlpha" type="matrix" values="0 0 0 0 0 0 0 0 0 0 0 0 0 0 0 0 0 0 127 0" result="hardAlpha"/>
<feOffset/>
<feGaussianBlur stdDeviation="10"/>
<feComposite in2="hardAlpha" operator="out"/>
<feColorMatrix type="matrix" values="0 0 0 0 0 0 0 0 0 0 0 0 0 0 0 0 0 0 0.1 0"/>
<feBlend mode="normal" in2="BackgroundImageFix" result="effect1_dropShadow_1100_776"/>
<feBlend mode="normal" in="SourceGraphic" in2="effect1_dropShadow_1100_776" result="shape"/>
</filter>
<clipPath id="clip0_1100_776">
<rect width="61.376" height="70" fill="white" transform="translate(56 52)"/>
</clipPath>
</defs>
</svg>
