<svg width="174" height="174" viewBox="0 0 174 174" fill="none" xmlns="http://www.w3.org/2000/svg">
<g filter="url(#filter0_d_1837_1422)">
<rect x="86.7109" y="16" width="100" height="100" rx="10" transform="rotate(45 86.7109 16)" fill="white"/>
</g>
<path d="M65.5869 73L65.7275 94.2986H68.9223V73H65.5869ZM105.13 73V94.3071H108.974C108.974 94.3071 109.006 86.6183 109.049 86.6268C109.091 86.6268 114.78 94.5989 114.831 94.5712C114.889 94.5563 118.241 93.3508 118.241 93.3167C118.241 93.2911 112.527 85.9879 112.527 85.9793C112.527 85.9623 117.319 80.6291 117.276 80.5865C117.144 80.463 114.548 79.3406 114.474 79.3811C114.439 79.4066 108.974 85.3383 108.974 85.3383V73H105.13ZM41.4429 79.4961C40.0606 79.7879 38.7635 80.6717 38.2311 81.6941C37.9895 82.1879 37.8654 82.7309 37.8683 83.2807C37.8713 83.8304 38.0013 84.3721 38.2481 84.8633C38.5889 85.5214 39.5793 86.4373 41.117 87.5171C42.7826 88.6992 43.413 89.2891 43.5727 89.8472C43.8134 90.6714 43.4471 91.4446 42.6484 91.8279C42.2501 92.0196 42.0733 92.043 41.3662 92.0111C40.444 91.9685 39.8114 91.7342 38.8721 91.0612C38.5718 90.8546 38.2971 90.7034 38.263 90.7374C38.2311 90.7715 37.9307 91.2209 37.5985 91.7363L37 92.6586L37.2236 92.8332C37.3578 92.9248 37.7561 93.1676 38.1224 93.3742C40.6527 94.7799 44.3949 94.5563 46.2926 92.8843C46.7886 92.4591 47.167 91.9136 47.3915 91.3001C47.616 90.6866 47.6791 90.0256 47.5747 89.3807C47.3916 88.1411 46.7079 87.3275 44.561 85.7706C42.8741 84.5481 42.0754 83.875 41.8923 83.5172C41.5345 82.8165 41.7837 82.1435 42.5398 81.7516C42.9231 81.5535 43.0807 81.5365 43.839 81.5684C44.578 81.594 44.8038 81.6536 45.4193 81.9433L46.135 82.2926L46.6908 81.4193C46.9997 80.938 47.2233 80.512 47.1999 80.4715C47.0998 80.3224 45.9262 79.8304 45.1936 79.6409C44.2202 79.381 42.3396 79.3065 41.4429 79.4982V79.4961ZM58.339 81.3789C60.0216 82.1669 60.9183 84.6375 60.5541 87.4511C60.4263 88.45 60.0706 89.6555 59.7383 90.2135C59.404 90.7886 58.7565 91.4126 58.2389 91.6533C57.2911 92.1006 55.8854 91.928 54.9952 91.2529C53.7641 90.3136 53.0889 88.0091 53.3466 85.613C53.5895 83.4171 54.3796 82.0263 55.7598 81.3852C56.4754 81.053 57.6341 81.053 58.339 81.3789ZM56.8077 78.9316C55.8024 79.1574 55.0037 79.6068 54.139 80.4289L53.3552 81.1786V79.3896H49.7536V100.688H53.3552V92.0026L54.0474 92.6756C55.3104 93.9152 56.7928 94.4157 58.5222 94.1729C59.6532 94.0153 60.4519 93.7256 61.2931 93.1591C63.6573 91.5787 64.9629 88.4244 64.6051 85.1295C64.2643 82.0029 62.6584 79.839 60.0685 79.0168C59.404 78.7996 57.5915 78.757 56.8098 78.9316H56.8077ZM71.6017 79.3896C71.6017 79.3896 71.7188 90.6459 71.7933 90.9717C72.083 92.2113 72.9158 93.3912 73.8487 93.9003C74.7049 94.3646 75.3949 94.5073 76.6856 94.5073C78.5237 94.4988 79.6376 94.0579 81.0028 92.8013L81.7014 92.1687V94.2986H85.4116L85.3627 79.3896H81.7014C81.7014 79.3896 81.7504 88.6502 81.7014 88.9739C81.4842 90.2731 80.4789 91.3381 79.4544 91.6788C78.8474 91.8854 77.7825 92.0516 77.1414 91.9515C76.4854 91.845 75.3779 91.1208 75.3119 90.0389V79.4386L71.6017 79.3896ZM102.45 94.2986C102.45 94.2986 102.333 83.0423 102.259 82.7164C101.969 81.4768 101.136 80.2969 100.203 79.7879C99.3473 79.3235 98.6572 79.1808 97.3665 79.1808C95.5285 79.1894 94.4145 79.6302 93.0493 80.8869L92.3507 81.5194V79.3896H88.6405L88.6895 94.2986H92.3507C92.3507 94.2986 92.3017 85.0379 92.3507 84.7142C92.568 83.415 93.5733 82.3501 94.5977 82.0093C95.2047 81.8027 96.0034 81.6451 96.9107 81.7367C97.8159 81.8346 98.8063 82.6589 98.7403 83.6493V94.2496L102.45 94.2986Z" fill="#212121"/>
<path fill-rule="evenodd" clip-rule="evenodd" d="M122.09 78.3245V81.5192L134.869 85.779L122.09 91.3208V94.2984L136.999 87.9088V83.6491L122.09 78.3245Z" fill="#77B539"/>
<defs>
<filter id="filter0_d_1837_1422" x="0.142578" y="0.14209" width="173.137" height="173.137" filterUnits="userSpaceOnUse" color-interpolation-filters="sRGB">
<feFlood flood-opacity="0" result="BackgroundImageFix"/>
<feColorMatrix in="SourceAlpha" type="matrix" values="0 0 0 0 0 0 0 0 0 0 0 0 0 0 0 0 0 0 127 0" result="hardAlpha"/>
<feOffset/>
<feGaussianBlur stdDeviation="10"/>
<feComposite in2="hardAlpha" operator="out"/>
<feColorMatrix type="matrix" values="0 0 0 0 0 0 0 0 0 0 0 0 0 0 0 0 0 0 0.1 0"/>
<feBlend mode="normal" in2="BackgroundImageFix" result="effect1_dropShadow_1837_1422"/>
<feBlend mode="normal" in="SourceGraphic" in2="effect1_dropShadow_1837_1422" result="shape"/>
</filter>
</defs>
</svg>
