<svg width="174" height="174" viewBox="0 0 174 174" fill="none" xmlns="http://www.w3.org/2000/svg">
<g filter="url(#filter0_d_1100_776)">
<rect x="87" y="16" width="100" height="100" rx="10" transform="rotate(45 87 16)" fill="white"/>
</g>
<g clip-path="url(#clip0_1100_776)">
<path d="M77.3961 86.5024C76.3306 86.5024 75.4641 86.818 74.7999 87.4483C74.1358 88.0794 73.7989 88.9065 73.7989 89.9202C73.7989 90.4454 73.8825 90.9243 74.0473 91.3631C74.2122 91.8028 74.4689 92.2102 74.8138 92.5784C75.1587 92.9468 75.8492 93.4471 76.8781 94.0835C78.1409 94.8542 78.9671 95.4799 79.3637 95.9683C79.7605 96.4563 79.9575 96.9678 79.9575 97.5011C79.9575 98.215 79.7226 98.785 79.2394 99.2133C78.7556 99.6419 78.1084 99.8553 77.3063 99.8553C76.4601 99.8553 75.7229 99.5571 75.09 98.9649C74.457 98.3716 74.1374 97.587 74.1302 96.6035H73.7366V100.173H74.1302C74.2505 99.835 74.4167 99.6622 74.6343 99.6622C74.739 99.6622 74.9842 99.7343 75.3662 99.8692C76.2955 100.2 77.0585 100.359 77.6584 100.359C78.692 100.359 79.5745 99.9975 80.3096 99.2617C81.0438 98.5263 81.4143 97.6392 81.4143 96.6035C81.4143 95.8006 81.1697 95.0859 80.6895 94.4632C80.2092 93.8396 79.2752 93.1144 77.8793 92.2814C76.6782 91.5598 75.8985 90.9721 75.5388 90.5139C75.1784 90.0564 74.9933 89.5503 74.9933 88.9949C74.9933 88.3943 75.214 87.9118 75.6492 87.5519C76.0844 87.1918 76.6547 87.0134 77.3685 87.0134C78.1714 87.0134 78.8409 87.2518 79.3706 87.7315C79.8999 88.212 80.2059 88.8779 80.2959 89.7337H80.6895V86.6407H80.3235C80.2787 86.7983 80.2373 86.8991 80.1992 86.9444C80.1621 86.9893 80.0909 87.0134 79.9851 87.0134C79.8578 87.0134 79.6309 86.9598 79.3084 86.8545C78.618 86.6221 77.9814 86.5024 77.396 86.5024H77.3961ZM90.2588 86.5024C88.9605 86.5024 87.7818 86.8086 86.7169 87.4208C85.6503 88.0319 84.806 88.8806 84.183 89.9616C83.5602 91.0425 83.2509 92.1904 83.2509 93.4138C83.2509 95.0572 83.7889 96.5215 84.8734 97.8049C85.9585 99.0874 87.2588 99.8866 88.7675 100.194C89.1124 100.373 89.6058 100.837 90.2519 101.588C90.9799 102.436 91.5958 103.047 92.1022 103.411C92.5973 103.768 93.1478 104.041 93.7315 104.219C94.3095 104.395 94.9342 104.481 95.6096 104.481C96.4277 104.481 97.16 104.339 97.8052 104.046L97.6602 103.687C97.2858 103.822 96.8863 103.888 96.4658 103.888C95.8949 103.888 95.318 103.699 94.7397 103.321C94.1622 102.943 93.44 102.22 92.5787 101.153C92.1738 100.643 91.8943 100.32 91.7362 100.194C93.3871 99.8714 94.7444 99.0715 95.803 97.791C96.8612 96.5113 97.3909 95.0507 97.3909 93.4137C97.3909 91.4701 96.6994 89.8364 95.3266 88.5047C93.9526 87.1727 92.263 86.5024 90.2588 86.5024V86.5024ZM98.2885 86.5024L98.3093 86.9236C99.1736 86.9236 99.6578 87.1782 99.7661 87.69C99.8064 87.8732 99.8248 88.2112 99.8281 88.698L99.8212 98.012C99.814 98.7076 99.715 99.1517 99.5244 99.3445C99.3335 99.5359 99.011 99.6558 98.5441 99.7035L98.5233 100.125H107.14L107.361 98.012H106.967C106.855 98.5875 106.597 98.9999 106.187 99.2341C105.776 99.4699 105.049 99.5862 103.998 99.5862H103.184C102.239 99.5862 101.692 99.2445 101.547 98.5574C101.518 98.4215 101.507 98.2757 101.506 98.1156L101.54 88.698C101.54 88.0035 101.628 87.5381 101.81 87.3102C101.993 87.0832 102.325 86.9562 102.804 86.9236L102.783 86.5024H98.2885V86.5024ZM90.3967 87.0133C91.8612 87.0133 93.0567 87.5901 93.9802 88.7533C94.9034 89.9169 95.3611 91.5116 95.3611 93.5311C95.3611 95.4447 94.8968 96.9768 93.9665 98.1293C93.0359 99.2816 91.7976 99.8555 90.2588 99.8555C88.7804 99.8555 87.5815 99.2636 86.6616 98.0742C85.7424 96.8847 85.2877 95.3404 85.2877 93.4413C85.2877 91.4899 85.7481 89.9278 86.6755 88.7602C87.6023 87.5939 88.8434 87.0134 90.3969 87.0134L90.3967 87.0133ZM110.212 89.0157C110.002 89.0157 109.842 89.0866 109.722 89.2297C109.6 89.3722 109.562 89.5448 109.605 89.7544C109.646 89.9578 109.761 90.1359 109.943 90.286C110.124 90.436 110.32 90.5139 110.53 90.5139C110.733 90.5139 110.888 90.436 110.999 90.286C111.111 90.1361 111.145 89.9578 111.103 89.7544C111.06 89.5448 110.949 89.3722 110.778 89.2296C110.606 89.0866 110.416 89.0156 110.212 89.0156V89.0157ZM115.895 90.4449C115.537 91.8186 114.763 92.562 113.575 92.6818L113.589 93.0755H114.976L114.949 97.729C114.951 98.5246 114.975 99.0543 115.031 99.3239C115.168 99.9692 115.59 100.297 116.295 100.297C117.316 100.297 118.386 99.6757 119.505 98.4332L119.167 98.1432C118.359 98.9615 117.644 99.3722 117.02 99.3722C116.636 99.3722 116.399 99.1516 116.309 98.7162C116.284 98.6105 116.274 98.4869 116.274 98.3434L116.288 93.0755H118.408L118.387 92.447H116.295V90.4449H115.895V90.4449ZM124.09 92.1985C122.904 92.1985 121.94 92.7741 121.19 93.9178C120.444 95.0632 120.213 96.3325 120.507 97.729C120.679 98.5469 121.023 99.1808 121.549 99.6276C122.075 100.074 122.741 100.297 123.538 100.297C124.279 100.297 125.312 100.109 125.747 99.7311C126.183 99.3531 126.584 98.7404 126.955 97.9016L126.659 97.5907C126.067 98.6792 124.873 99.2272 123.973 99.2272C122.735 99.2272 121.977 98.548 121.694 97.1972C121.656 97.0148 121.629 96.8304 121.611 96.6449C123.084 96.4118 124.2 95.9989 124.953 95.4022C125.706 94.805 126.461 94.1721 126.32 93.5035C126.236 93.1061 126.03 92.7937 125.713 92.5576C125.391 92.3216 124.557 92.1985 124.09 92.1985V92.1985ZM111.131 92.2469L108.576 92.8338V93.2895L109.46 93.179C109.888 93.179 110.14 93.3727 110.219 93.7589C110.246 93.8881 110.263 94.0697 110.268 94.2975L110.24 98.4746C110.233 99.0525 110.169 99.3886 110.04 99.4895C109.91 99.5905 109.567 99.6415 109.011 99.6415L108.997 100.035H113.05L113.043 99.6413C112.48 99.6413 112.115 99.5969 111.952 99.5101C111.792 99.4242 111.682 99.2672 111.635 99.0269C111.598 98.8538 111.582 98.5555 111.579 98.1432L111.593 92.2469H111.131H111.131ZM123.441 93.0202C123.688 93.0202 123.926 93.1155 124.166 93.3032C124.403 93.4904 124.547 93.6984 124.594 93.9246C124.825 95.0353 123.841 95.8029 121.625 96.2306C121.562 95.421 121.702 94.6857 122.06 94.0213C122.415 93.3574 122.878 93.0202 123.441 93.0202V93.0202Z" fill="#003B57"/>
<path d="M71.6738 70.5547H49.689C48.2155 70.5547 47.01 71.7603 47.01 73.2337V97.4788C47.01 98.9522 48.2155 100.158 49.689 100.158H64.1687C64.0043 92.9531 66.4646 78.971 71.6738 70.5547V70.5547Z" fill="#0F80CC"/>
<path d="M70.8752 71.3359H49.6891C48.6429 71.3359 47.7915 72.1871 47.7915 73.2336V95.7096C52.5897 93.8682 59.7911 92.2793 64.7705 92.3514C65.7712 87.1193 68.712 76.8656 70.8752 71.3359V71.3359Z" fill="url(#paint0_linear_1100_776)"/>
<path d="M76.8017 69.7611C75.296 68.4184 73.4728 68.9577 71.6737 70.5546C71.4066 70.7917 71.1401 71.055 70.875 71.3361C67.7971 74.6014 64.94 80.6494 64.0524 85.2686C64.3983 85.9698 64.6683 86.8646 64.8461 87.5481C64.8917 87.7234 64.9328 87.8881 64.9658 88.028C65.0439 88.3595 65.0859 88.5743 65.0859 88.5743C65.0859 88.5743 65.0582 88.4699 64.945 88.1416C64.9234 88.0786 64.8994 88.0099 64.8709 87.929C64.8561 87.8894 64.8403 87.8503 64.8235 87.8115C64.6227 87.3448 64.0674 86.3597 63.8229 85.9307C63.6292 86.4991 63.4463 87.0711 63.2745 87.6464C63.9801 88.9375 64.4101 91.15 64.4101 91.15C64.4101 91.15 64.3728 91.0066 64.1955 90.5061C64.038 90.0636 63.254 88.6897 63.0683 88.3686C62.7505 89.5415 62.6243 90.3334 62.7382 90.5261C62.9592 90.8996 63.1697 91.5443 63.3546 92.2571C63.7722 93.863 64.0622 95.8181 64.0622 95.8181C64.0622 95.8181 64.0716 95.9477 64.0875 96.1471C64.0294 97.4956 64.0643 98.8939 64.1688 100.158C64.307 101.831 64.5674 103.268 64.8994 104.037L65.1248 103.914C64.6374 102.399 64.4393 100.413 64.526 98.1225C64.6572 94.6218 65.4628 90.3999 66.9514 85.9996C69.4663 79.3571 72.9555 74.0275 76.1489 71.4822C73.2382 74.1109 69.2989 82.6195 68.1197 85.7703C66.7992 89.2988 65.8635 92.6098 65.2996 95.7822C66.2726 92.8081 69.4185 91.5298 69.4185 91.5298C69.4185 91.5298 70.9614 89.6268 72.7646 86.9081C71.6845 87.1545 69.9109 87.5763 69.3168 87.8259C68.4405 88.1934 68.2045 88.3189 68.2045 88.3189C68.2045 88.3189 71.0428 86.5903 73.4781 85.8076C76.8273 80.5327 80.4762 73.039 76.8017 69.7611" fill="#003B57"/>
</g>
<defs>
<filter id="filter0_d_1100_776" x="0.431396" y="0.14209" width="173.137" height="173.137" filterUnits="userSpaceOnUse" color-interpolation-filters="sRGB">
<feFlood flood-opacity="0" result="BackgroundImageFix"/>
<feColorMatrix in="SourceAlpha" type="matrix" values="0 0 0 0 0 0 0 0 0 0 0 0 0 0 0 0 0 0 127 0" result="hardAlpha"/>
<feOffset/>
<feGaussianBlur stdDeviation="10"/>
<feComposite in2="hardAlpha" operator="out"/>
<feColorMatrix type="matrix" values="0 0 0 0 0 0 0 0 0 0 0 0 0 0 0 0 0 0 0.1 0"/>
<feBlend mode="normal" in2="BackgroundImageFix" result="effect1_dropShadow_1100_776"/>
<feBlend mode="normal" in="SourceGraphic" in2="effect1_dropShadow_1100_776" result="shape"/>
</filter>
<linearGradient id="paint0_linear_1100_776" x1="61.102" y1="71.8346" x2="61.102" y2="94.3542" gradientUnits="userSpaceOnUse">
<stop stop-color="#97D9F6"/>
<stop offset="0.92024" stop-color="#0F80CC"/>
<stop offset="1" stop-color="#0F80CC"/>
</linearGradient>
<clipPath id="clip0_1100_776">
<rect width="80" height="35.616" fill="white" transform="translate(47 69)"/>
</clipPath>
</defs>
</svg>
