<svg width="174" height="174" viewBox="0 0 174 174" fill="none" xmlns="http://www.w3.org/2000/svg">
<g filter="url(#filter0_d_1100_776)">
<rect x="87" y="16" width="100" height="100" rx="10" transform="rotate(45 87 16)" fill="white"/>
</g>
<path d="M116.387 73.4501C116.383 72.8528 116.377 72.2558 116.36 71.6578C116.325 70.357 116.248 69.0444 116.017 67.7575C115.783 66.4506 115.399 65.2354 114.795 64.0482C114.201 62.8823 113.426 61.8154 112.501 60.8902C111.576 59.965 110.509 59.1895 109.342 58.5959C108.156 57.9922 106.941 57.6088 105.635 57.3742C104.347 57.1423 103.035 57.0659 101.733 57.0307C101.135 57.0145 100.538 57.0077 99.9407 57.004C99.2315 57 98.5218 57 97.8128 57H82.0912H75.5781C74.8684 57 74.1595 57 73.4505 57.0041C72.8528 57.0078 72.255 57.0146 71.6582 57.0308C71.3328 57.0396 71.0067 57.051 70.6804 57.0667C69.7016 57.1139 68.7213 57.2004 67.7561 57.3743C66.7768 57.5503 65.8482 57.8099 64.9448 58.1834C64.6437 58.3078 64.3453 58.445 64.0487 58.5959C63.1739 59.0411 62.3549 59.5886 61.61 60.2248C61.3617 60.4369 61.1216 60.6588 60.8904 60.8901C59.965 61.8153 59.1894 62.8822 58.5961 64.0481C57.9917 65.2353 57.6087 66.4505 57.3739 67.7574C57.1429 69.0443 57.0661 70.3569 57.0311 71.6577C57.0147 72.2557 57.0078 72.8527 57.0039 73.45C56.9994 74.1594 57 74.8689 57 75.5781V85.26V97.8125C57 98.5224 56.9993 99.2312 57.0039 99.9411C57.0078 100.538 57.0147 101.135 57.0311 101.732C57.0661 103.034 57.1428 104.347 57.3739 105.633C57.6087 106.94 57.9917 108.156 58.5961 109.343C59.1894 110.509 59.965 111.576 60.8904 112.5C61.8151 113.426 62.8823 114.201 64.0488 114.795C65.2351 115.399 66.4504 115.782 67.7564 116.017C69.0432 116.248 70.3568 116.325 71.6583 116.36C72.2551 116.376 72.8529 116.383 73.4506 116.387C74.1596 116.392 74.8685 116.391 75.5782 116.391H97.8128C98.5218 116.391 99.2315 116.392 99.9406 116.387C100.538 116.383 101.135 116.376 101.733 116.36C103.035 116.325 104.347 116.248 105.635 116.017C106.941 115.782 108.156 115.399 109.342 114.795C110.509 114.201 111.576 113.426 112.501 112.5C113.426 111.576 114.201 110.509 114.795 109.343C115.399 108.156 115.783 106.94 116.017 105.633C116.248 104.347 116.325 103.034 116.36 101.732C116.376 101.135 116.383 100.539 116.387 99.9411C116.391 99.2312 116.391 98.5224 116.391 97.8125V75.5781C116.391 74.8689 116.391 74.1594 116.387 73.4501Z" fill="#F05138"/>
<path d="M104.061 93.6607C104.059 93.6589 104.058 93.6576 104.056 93.6559C104.122 93.4323 104.19 93.2101 104.247 92.9809C106.712 83.16 100.696 71.549 90.5157 65.4355C94.977 71.4834 96.9496 78.8088 95.197 85.215C95.0407 85.7864 94.8528 86.3348 94.6451 86.8678C94.4197 86.7197 94.1357 86.5516 93.7543 86.3413C93.7543 86.3413 83.6274 80.0886 72.6515 69.0291C72.3635 68.7388 78.5043 77.8061 85.4734 85.169C82.19 83.3263 73.0396 76.6686 67.2468 71.3667C67.9585 72.5536 68.805 73.6965 69.7355 74.7968C74.573 80.9317 80.8817 88.5012 88.4398 94.3137C83.1294 97.5635 75.6257 97.8162 68.1546 94.3171C66.3067 93.4511 64.5695 92.4062 62.9614 91.219C66.1239 96.2775 70.9946 100.642 76.9227 103.19C83.9922 106.228 91.0223 106.022 96.2583 103.24L96.2542 103.246C96.2781 103.231 96.3085 103.214 96.3333 103.199C96.5483 103.083 96.7617 102.965 96.9704 102.841C99.4861 101.535 104.455 100.211 107.122 105.4C107.775 106.67 109.163 99.9395 104.061 93.6607Z" fill="white"/>
<defs>
<filter id="filter0_d_1100_776" x="0.431396" y="0.14209" width="173.137" height="173.137" filterUnits="userSpaceOnUse" color-interpolation-filters="sRGB">
<feFlood flood-opacity="0" result="BackgroundImageFix"/>
<feColorMatrix in="SourceAlpha" type="matrix" values="0 0 0 0 0 0 0 0 0 0 0 0 0 0 0 0 0 0 127 0" result="hardAlpha"/>
<feOffset/>
<feGaussianBlur stdDeviation="10"/>
<feComposite in2="hardAlpha" operator="out"/>
<feColorMatrix type="matrix" values="0 0 0 0 0 0 0 0 0 0 0 0 0 0 0 0 0 0 0.1 0"/>
<feBlend mode="normal" in2="BackgroundImageFix" result="effect1_dropShadow_1100_776"/>
<feBlend mode="normal" in="SourceGraphic" in2="effect1_dropShadow_1100_776" result="shape"/>
</filter>
</defs>
</svg>
