<svg width="174" height="174" viewBox="0 0 174 174" fill="none" xmlns="http://www.w3.org/2000/svg">
<g filter="url(#filter0_d_1837_1422)">
<rect x="86.7109" y="16" width="100" height="100" rx="10" transform="rotate(45 86.7109 16)" fill="white"/>
</g>
<g clip-path="url(#clip0_1837_1422)">
<path d="M85.0855 98.6691H88.9163V88.2214H98.5515V84.5066H88.9163V74.0588H85.0855V84.5066H75.5664V88.2214H85.0855V98.6691Z" fill="#E8762D"/>
<path d="M67.3228 113.76H70.5732V104.473H79.1636V101.571H70.5732V92.1682H67.3228V101.571H58.7324V104.473H67.3228V113.76Z" fill="#C72037"/>
<path d="M103.426 80.2113H106.677V70.9244H115.383V68.1383H106.677V58.7354H103.426V68.1383H94.8359V70.9244H103.426V80.2113Z" fill="#5B879B"/>
<path d="M85.6656 121.074H88.4517V114.457H94.3721V112.019H88.4517V105.402H85.6656V112.019H79.8613V114.457H85.6656V121.074Z" fill="#5C6692"/>
<path d="M67.4389 80.2113H70.4571V70.8083H79.1636V68.1383H70.4571V58.7354H67.4389V68.1383H58.7324V70.8083H67.4389V80.2113Z" fill="#EB9129"/>
<path d="M113.293 94.1417H116.079V87.6409H121.999V85.087H116.079V78.5862H113.293V85.087H107.488V87.6409H113.293V94.1417Z" fill="#5C6692"/>
<path fill-rule="evenodd" clip-rule="evenodd" d="M103.426 113.76H106.677V104.473H115.383V101.571H106.677V92.1682H103.426V101.571H94.8359V104.473H103.426V113.76Z" fill="#1F457E"/>
<path d="M93.9071 60.3607V58.3872H88.1028V52.0024H86.0133V58.3872H80.209V60.3607H86.0133V66.7454H88.1028V60.3607H93.9071ZM57.8043 93.6774H59.8939V87.2927H65.6982V85.3192H59.8939V79.0505H57.8043V85.3192H52V87.4087L57.8043 87.2927V93.6774Z" fill="#7199A6"/>
</g>
<defs>
<filter id="filter0_d_1837_1422" x="0.142578" y="0.14209" width="173.137" height="173.137" filterUnits="userSpaceOnUse" color-interpolation-filters="sRGB">
<feFlood flood-opacity="0" result="BackgroundImageFix"/>
<feColorMatrix in="SourceAlpha" type="matrix" values="0 0 0 0 0 0 0 0 0 0 0 0 0 0 0 0 0 0 127 0" result="hardAlpha"/>
<feOffset/>
<feGaussianBlur stdDeviation="10"/>
<feComposite in2="hardAlpha" operator="out"/>
<feColorMatrix type="matrix" values="0 0 0 0 0 0 0 0 0 0 0 0 0 0 0 0 0 0 0.1 0"/>
<feBlend mode="normal" in2="BackgroundImageFix" result="effect1_dropShadow_1837_1422"/>
<feBlend mode="normal" in="SourceGraphic" in2="effect1_dropShadow_1837_1422" result="shape"/>
</filter>
<clipPath id="clip0_1837_1422">
<rect width="70" height="69.076" fill="white" transform="translate(52 52)"/>
</clipPath>
</defs>
</svg>
