<svg width="174" height="174" viewBox="0 0 174 174" fill="none" xmlns="http://www.w3.org/2000/svg">
<g filter="url(#filter0_d_1100_776)">
<rect x="87" y="16" width="100" height="100" rx="10" transform="rotate(45 87 16)" fill="white"/>
</g>
<g clip-path="url(#clip0_1100_776)">
<path d="M54.4278 63H119.54C123.661 63 126.996 66.3356 126.996 70.4565V95.3107C126.996 99.4316 123.661 102.767 119.54 102.767H96.1899L99.3949 110.616L85.2996 102.767H54.4603C50.3398 102.767 47.0041 99.4316 47.0041 95.3107V70.4565C46.9713 66.3684 50.3067 63 54.4278 63Z" fill="#9B5C8F"/>
<path d="M51.5589 69.7961C52.0142 69.178 52.6969 68.853 53.6075 68.788C55.2661 68.6577 56.2091 69.438 56.4366 71.1291C57.4446 77.9253 58.5501 83.681 59.7206 88.3959L66.8418 74.8362C67.4924 73.6004 68.3054 72.9501 69.281 72.8852C70.7118 72.7877 71.5895 73.6979 71.9473 75.6165C72.7603 79.941 73.8009 83.6157 75.0364 86.7373C75.8819 78.4781 77.3127 72.5274 79.3288 68.853C79.8162 67.9425 80.5318 67.4872 81.4748 67.4219C82.2229 67.3572 82.9056 67.5847 83.5234 68.0725C84.1411 68.5602 84.4664 69.178 84.5314 69.9261C84.5639 70.5113 84.4664 70.9991 84.2064 71.4868C82.9381 73.8282 81.8973 77.7628 81.052 83.2254C80.2393 88.5259 79.9465 92.6558 80.1415 95.6149C80.2068 96.4273 80.0765 97.1429 79.7515 97.7609C79.3609 98.4762 78.776 98.8665 78.0279 98.9314C77.1824 98.9964 76.3047 98.6065 75.4591 97.7284C72.435 94.639 70.0287 90.0217 68.2729 83.876C66.1591 88.0381 64.5983 91.1597 63.5903 93.2407C61.6717 96.9154 60.0459 98.8015 58.6801 98.8989C57.8021 98.9639 57.0543 98.2159 56.4041 96.6554C54.7458 92.3955 52.9572 84.1685 51.039 71.9746C50.9087 71.1291 51.1036 70.381 51.5589 69.7961V69.7961ZM121.439 74.9012C120.268 72.8527 118.544 71.6171 116.236 71.1291C115.618 70.9991 115.033 70.9341 114.48 70.9341C111.358 70.9341 108.822 72.5599 106.838 75.8117C105.147 78.5756 104.302 81.6321 104.302 84.9815C104.302 87.4853 104.822 89.6314 105.863 91.42C107.033 93.4685 108.757 94.704 111.065 95.1918C111.683 95.3221 112.268 95.3871 112.822 95.3871C115.976 95.3871 118.512 93.7613 120.463 90.5094C122.154 87.7128 122.999 84.6562 122.999 81.3072C123.032 78.7708 122.479 76.657 121.439 74.9012V74.9012ZM117.341 83.9085C116.886 86.0545 116.073 87.6478 114.87 88.7208C113.927 89.5664 113.049 89.9239 112.236 89.7614C111.456 89.5989 110.805 88.9161 110.318 87.6478C109.927 86.6398 109.732 85.6318 109.732 84.6887C109.732 83.876 109.797 83.0629 109.96 82.3152C110.253 80.9819 110.805 79.6811 111.683 78.4456C112.757 76.852 113.895 76.202 115.065 76.4295C115.846 76.592 116.496 77.2751 116.984 78.5431C117.374 79.5511 117.569 80.5591 117.569 81.5022C117.569 82.3477 117.504 83.1604 117.341 83.9082V83.9085ZM101.083 74.9012C99.9121 72.8527 98.156 71.6171 95.88 71.1291C95.2622 70.9991 94.677 70.9341 94.1239 70.9341C91.0023 70.9341 88.466 72.5599 86.4825 75.8117C84.7917 78.5756 83.9461 81.6321 83.9461 84.9815C83.9461 87.4853 84.4664 89.6314 85.5069 91.42C86.6774 93.4685 88.401 94.704 90.7096 95.1918C91.3276 95.3221 91.9126 95.3871 92.4656 95.3871C95.6197 95.3871 98.156 93.7613 100.107 90.5094C101.798 87.7128 102.643 84.6562 102.643 81.3072C102.643 78.7708 102.123 76.657 101.083 74.9012V74.9012ZM96.953 83.9085C96.4978 86.0545 95.6847 87.6478 94.4817 88.7208C93.5387 89.5664 92.6606 89.9239 91.8476 89.7614C91.0673 89.5989 90.4171 88.9161 89.929 87.6478C89.539 86.6398 89.3441 85.6318 89.3441 84.6887C89.3441 83.876 89.4091 83.0629 89.5715 82.3152C89.8643 80.9819 90.4171 79.6811 91.2951 78.4456C92.3681 76.852 93.5062 76.202 94.6767 76.4295C95.4572 76.592 96.1078 77.2751 96.5952 78.5431C96.9858 79.5511 97.1805 80.5591 97.1805 81.5022C97.2133 82.3477 97.1155 83.1604 96.953 83.9082V83.9085Z" fill="white"/>
</g>
<defs>
<filter id="filter0_d_1100_776" x="0.431396" y="0.14209" width="173.137" height="173.137" filterUnits="userSpaceOnUse" color-interpolation-filters="sRGB">
<feFlood flood-opacity="0" result="BackgroundImageFix"/>
<feColorMatrix in="SourceAlpha" type="matrix" values="0 0 0 0 0 0 0 0 0 0 0 0 0 0 0 0 0 0 127 0" result="hardAlpha"/>
<feOffset/>
<feGaussianBlur stdDeviation="10"/>
<feComposite in2="hardAlpha" operator="out"/>
<feColorMatrix type="matrix" values="0 0 0 0 0 0 0 0 0 0 0 0 0 0 0 0 0 0 0.1 0"/>
<feBlend mode="normal" in2="BackgroundImageFix" result="effect1_dropShadow_1100_776"/>
<feBlend mode="normal" in="SourceGraphic" in2="effect1_dropShadow_1100_776" result="shape"/>
</filter>
<clipPath id="clip0_1100_776">
<rect width="80" height="47.808" fill="white" transform="translate(47 63)"/>
</clipPath>
</defs>
</svg>
