<svg width="1920" height="722" viewBox="0 0 1920 722" fill="none" xmlns="http://www.w3.org/2000/svg">
<g clip-path="url(#clip0_421_2077)">
<path d="M-7 723.9L121.9 580.6M121.9 580.6L-128 721.7M121.9 580.6L347.3 723L681.1 375.4M245.7 299.6L482.9 581.3M619.3 439.6L747.2 588M748.6 589.9L881.1 429.6M880.3 428.8L1143.3 723.9L1274.9 538.6M1024.3 591L1159.8 414M1159.1 412.6L1274.9 538.6M1274.9 538.6L1374.4 722L1511.7 508.9L1598 723L1747.8 612L2029.1 393.7M1747.7 611.8L2247.5 432.8" stroke="#DEEBEE" stroke-width="2" stroke-miterlimit="10"/>
<path d="M121.1 590.8C126.568 590.8 131 586.368 131 580.9C131 575.432 126.568 571 121.1 571C115.632 571 111.2 575.432 111.2 580.9C111.2 586.368 115.632 590.8 121.1 590.8Z" fill="#DEEBEE" stroke="#DEEBEE" stroke-miterlimit="10"/>
<path d="M246.6 309.5C252.068 309.5 256.5 305.068 256.5 299.6C256.5 294.132 252.068 289.7 246.6 289.7C241.132 289.7 236.7 294.132 236.7 299.6C236.7 305.068 241.132 309.5 246.6 309.5Z" fill="#DEEBEE" stroke="#DEEBEE" stroke-miterlimit="10"/>
<path d="M152.5 255.6C157.968 255.6 162.4 251.168 162.4 245.7C162.4 240.232 157.968 235.8 152.5 235.8C147.032 235.8 142.6 240.232 142.6 245.7C142.6 251.168 147.032 255.6 152.5 255.6Z" fill="#DEEBEE" stroke="#DEEBEE" stroke-miterlimit="10"/>
<path d="M681.4 384.9C686.868 384.9 691.3 380.468 691.3 375C691.3 369.532 686.868 365.1 681.4 365.1C675.932 365.1 671.5 369.532 671.5 375C671.5 380.468 675.932 384.9 681.4 384.9Z" fill="#DEEBEE" stroke="#DEEBEE" stroke-miterlimit="10"/>
<path d="M677.9 517.5C683.368 517.5 687.8 513.068 687.8 507.6C687.8 502.132 683.368 497.7 677.9 497.7C672.432 497.7 668 502.132 668 507.6C668 513.068 672.432 517.5 677.9 517.5Z" fill="#DEEBEE" stroke="#DEEBEE" stroke-miterlimit="10"/>
<path d="M881 439.4C886.468 439.4 890.9 434.968 890.9 429.5C890.9 424.032 886.468 419.6 881 419.6C875.532 419.6 871.1 424.032 871.1 429.5C871.1 434.968 875.532 439.4 881 439.4Z" fill="#DEEBEE" stroke="#DEEBEE" stroke-miterlimit="10"/>
<path d="M1110.2 696C1115.67 696 1120.1 691.568 1120.1 686.1C1120.1 680.632 1115.67 676.2 1110.2 676.2C1104.73 676.2 1100.3 680.632 1100.3 686.1C1100.3 691.568 1104.73 696 1110.2 696Z" fill="#DEEBEE" stroke="#DEEBEE" stroke-miterlimit="10"/>
<path d="M1275.3 548.9C1280.77 548.9 1285.2 544.468 1285.2 539C1285.2 533.533 1280.77 529.1 1275.3 529.1C1269.83 529.1 1265.4 533.533 1265.4 539C1265.4 544.468 1269.83 548.9 1275.3 548.9Z" fill="#DEEBEE" stroke="#DEEBEE" stroke-miterlimit="10"/>
<path d="M1511.3 518.9C1516.77 518.9 1521.2 514.468 1521.2 509C1521.2 503.532 1516.77 499.1 1511.3 499.1C1505.83 499.1 1501.4 503.532 1501.4 509C1501.4 514.468 1505.83 518.9 1511.3 518.9Z" fill="#DEEBEE" stroke="#DEEBEE" stroke-miterlimit="10"/>
<path d="M1748.5 620.4C1753.97 620.4 1758.4 615.968 1758.4 610.5C1758.4 605.033 1753.97 600.6 1748.5 600.6C1743.03 600.6 1738.6 605.033 1738.6 610.5C1738.6 615.968 1743.03 620.4 1748.5 620.4Z" fill="#DEEBEE" stroke="#DEEBEE" stroke-miterlimit="10"/>
<path d="M380.8 696.9C386.268 696.9 390.7 692.468 390.7 687C390.7 681.533 386.268 677.1 380.8 677.1C375.332 677.1 370.9 681.533 370.9 687C370.9 692.468 375.332 696.9 380.8 696.9Z" fill="#DEEBEE" stroke="#DEEBEE" stroke-miterlimit="10"/>
<path d="M-284 40L152.5 247.9M-42.2 0L149.5 240.8L-42.2 0Z" stroke="#DEEBEE" stroke-width="2" stroke-miterlimit="10"/>
<path d="M1374.9 729.8C1380.37 729.8 1384.8 725.368 1384.8 719.9C1384.8 714.432 1380.37 710 1374.9 710C1369.43 710 1365 714.432 1365 719.9C1365 725.368 1369.43 729.8 1374.9 729.8Z" fill="#DEEBEE" stroke="#DEEBEE" stroke-miterlimit="10"/>
<path d="M1601.9 731.8C1607.37 731.8 1611.8 727.368 1611.8 721.9C1611.8 716.432 1607.37 712 1601.9 712C1596.43 712 1592 716.432 1592 721.9C1592 727.368 1596.43 731.8 1601.9 731.8Z" fill="#DEEBEE" stroke="#DEEBEE" stroke-miterlimit="10"/>
</g>
<defs>
<clipPath id="clip0_421_2077">
<rect width="2560" height="722" fill="white" transform="translate(-284)"/>
</clipPath>
</defs>
</svg>
