<svg width="90" height="90" viewBox="0 0 90 90" fill="none" xmlns="http://www.w3.org/2000/svg">
<path d="M24.9674 43.8068L24.9461 43.7973L24.9244 43.7888C24.6256 43.6718 24.3518 43.4968 24.1184 43.273L13.7298 32.7814C13.4991 32.5484 13.3155 32.2712 13.1901 31.9654C13.0647 31.6596 13 31.3315 13 31C13 30.6685 13.0647 30.3404 13.1901 30.0346C13.3155 29.7288 13.4991 29.4516 13.7298 29.2186C13.9605 28.9856 14.2339 28.8013 14.5341 28.6757C14.8342 28.5502 15.1555 28.4857 15.4798 28.4857C15.8041 28.4857 16.1254 28.5502 16.4256 28.6757C16.7252 28.8011 16.9981 28.9849 17.2286 29.2174C17.229 29.2178 17.2294 29.2182 17.2298 29.2186L21.6978 33.7659L23.4111 35.5096V33.065V13.5C23.4111 12.8338 23.6732 12.1968 24.1368 11.7287C24.5999 11.261 25.226 11 25.8767 11C26.5275 11 27.1536 11.261 27.6167 11.7287C28.0802 12.1968 28.3424 12.8338 28.3424 13.5V33.065V35.5096L30.0557 33.7659L34.5236 29.2186C34.524 29.2182 34.5244 29.2178 34.5248 29.2174C34.7553 28.985 35.0283 28.8011 35.3279 28.6757C35.628 28.5502 35.9494 28.4857 36.2737 28.4857C36.5979 28.4857 36.9193 28.5502 37.2194 28.6757C37.5196 28.8013 37.793 28.9856 38.0237 29.2186C38.2544 29.4516 38.438 29.7288 38.5634 30.0346C38.6888 30.3404 38.7535 30.6684 38.7535 31C38.7535 31.3316 38.6888 31.6596 38.5634 31.9654C38.438 32.2712 38.2544 32.5484 38.0237 32.7814L27.635 43.273C27.4017 43.4968 27.1279 43.6718 26.8291 43.7888L26.8074 43.7973L26.7861 43.8068C26.4993 43.9349 26.1896 44.0008 25.8767 44.0008C25.5639 44.0008 25.2542 43.9349 24.9674 43.8068ZM67.4644 25V25.0001L67.4779 24.9999C68.721 24.9832 69.9553 25.216 71.1091 25.6851C72.263 26.1542 73.3137 26.8504 74.2 27.7337C75.0864 28.6171 75.7907 29.6701 76.2715 30.8317C76.7524 31.9933 77.0001 33.2403 77 34.4999L77 76.5L77 76.5034C77.0017 76.9935 76.8613 77.4726 76.5972 77.8816C76.3356 78.2867 75.9644 78.6049 75.5298 78.7994C75.2115 78.9273 74.8731 78.9953 74.531 79C73.9136 78.9961 73.3184 78.7573 72.8647 78.3284L72.8596 78.3235L72.8544 78.3187L62.4574 68.7637L62.1705 68.5H61.7808H32.808C30.319 68.5 27.9299 67.5015 26.1669 65.721C24.4035 63.9402 23.4111 61.5227 23.4111 59V55.5C23.4111 54.8338 23.6732 54.1968 24.1368 53.7287C24.5999 53.261 25.226 53 25.8767 53C26.5275 53 27.1536 53.261 27.6167 53.7287C28.0802 54.1968 28.3424 54.8338 28.3424 55.5V59C28.3424 60.1903 28.8105 61.3338 29.6469 62.1785C30.4836 63.0235 31.6205 63.5 32.808 63.5L63.1289 63.5C63.1292 63.5 63.1296 63.5 63.1299 63.5C63.7495 63.5024 64.3469 63.7414 64.802 64.1716L64.8069 64.1763L70.248 69.2513L71.9301 70.8202V68.52V34.5C71.9301 33.3097 71.462 32.1662 70.6256 31.3215C69.7889 30.4765 68.652 30 67.4644 30H50.1362C49.4855 30 48.8594 29.739 48.3962 29.2713C47.9327 28.8032 47.6706 28.1662 47.6706 27.5C47.6706 26.8338 47.9327 26.1968 48.3962 25.7287C48.8594 25.261 49.4855 25 50.1362 25H67.4644Z" stroke="white" stroke-width="2"/>
</svg>
