<svg width="90" height="90" viewBox="0 0 90 90" fill="none" xmlns="http://www.w3.org/2000/svg">
<path d="M39.9857 48.2999C36.983 52.3727 35.4427 57.3119 35.5915 62.3333H29H28.9997C28.1094 62.3336 27.2506 62.6682 26.5972 63.2723C25.9435 63.8767 25.544 64.7062 25.4827 65.5941C25.4214 66.4819 25.7032 67.3583 26.2686 68.046C26.8336 68.7334 27.6393 69.1807 28.5215 69.3009L28.555 69.3054L28.5887 69.3077L28.9322 69.331L28.9661 69.3333H29H36.9208C37.7532 71.6223 38.9515 73.7603 40.4665 75.6667H20.5789C18.8307 75.6667 17.1562 74.9793 15.9232 73.7592C14.6906 72.5394 14 70.8872 14 69.1667V17.5C14 15.7795 14.6906 14.1273 15.9232 12.9075C17.1562 11.6873 18.8307 11 20.5789 11H45.8421C47.5903 11 49.2648 11.6873 50.4978 12.9075C51.7305 14.1273 52.4211 15.7795 52.4211 17.5V39.802C47.4334 41.1579 43.0459 44.1489 39.9857 48.2999ZM58.4737 44.3333C63.1253 44.3333 67.5843 46.162 70.8704 49.4138C74.1561 52.6653 76 57.073 76 61.6667C76 66.2604 74.1561 70.668 70.8704 73.9195C67.5843 77.1713 63.1253 79 58.4737 79C53.8221 79 49.363 77.1713 46.077 73.9195C42.7913 70.668 40.9474 66.2604 40.9474 61.6667C40.9474 57.073 42.7913 52.6653 46.077 49.4138C49.363 46.162 53.8221 44.3333 58.4737 44.3333ZM53.211 49.7773L53.9143 50.4882L53.2109 49.7774C52.7064 50.2766 52.4211 50.956 52.4211 51.6667V65C52.4211 65.7106 52.7064 66.39 53.2109 66.8893C53.7151 67.3882 54.3967 67.6667 55.1053 67.6667H65.2173C65.9258 67.6667 66.6074 67.3882 67.1116 66.8893C67.6161 66.39 67.9015 65.7107 67.9015 65C67.9015 64.2893 67.6161 63.61 67.1116 63.1107C66.6074 62.6118 65.9258 62.3333 65.2173 62.3333H57.7895V51.6667C57.7895 50.956 57.5041 50.2766 56.9996 49.7774C56.4954 49.2784 55.8138 49 55.1053 49C54.3967 49 53.7151 49.2784 53.211 49.7773Z" stroke="#024D81" stroke-width="2"/>
<path d="M20 17.625C20 17.2813 20.342 17 20.76 17H38.24C38.658 17 39 17.2813 39 17.625V21.375C39 21.7187 38.658 22 38.24 22H20.76C20.342 22 20 21.7187 20 21.375V17.625Z" stroke="#024D81" stroke-width="2"/>
<path d="M20 39.625C20 39.2813 20.342 39 20.76 39H38.24C38.658 39 39 39.2813 39 39.625V43.375C39 43.7187 38.658 44 38.24 44H20.76C20.342 44 20 43.7187 20 43.375V39.625Z" stroke="#024D81" stroke-width="2"/>
<path d="M20 28.625C20 28.2813 20.468 28 21.04 28H44.96C45.532 28 46 28.2813 46 28.625V32.375C46 32.7187 45.532 33 44.96 33H21.04C20.468 33 20 32.7187 20 32.375V28.625Z" stroke="#024D81" stroke-width="2"/>
</svg>
