<svg width="90" height="90" viewBox="0 0 90 90" fill="none" xmlns="http://www.w3.org/2000/svg">
<path d="M68.3333 38.1667H67.3333V39.1667V51.125V51.9413L68.1331 52.1047C70.5371 52.5961 72.7631 53.7295 74.5746 55.3845C76.3862 57.0395 77.7156 59.1542 78.4217 61.5042C79.1278 63.8541 79.1842 66.3514 78.5848 68.7308C77.9855 71.1102 76.7528 73.2828 75.0178 75.0178C73.2828 76.7528 71.1102 77.9855 68.7308 78.5848C66.3514 79.1842 63.8541 79.1278 61.5042 78.4217C59.1543 77.7156 57.0395 76.3862 55.3845 74.5746C53.7295 72.7631 52.5961 70.5371 52.1048 68.1331L51.9413 67.3333H51.125H39.1667H38.1667V68.3333V74.1667C38.1667 75.4485 37.6575 76.6779 36.751 77.5844C35.8446 78.4908 34.6152 79 33.3334 79H15.8334C14.5515 79 13.3221 78.4908 12.4157 77.5844C11.5093 76.6779 11 75.4485 11 74.1667V56.6667C11 55.3848 11.5093 54.1554 12.4157 53.249C13.3221 52.3426 14.5515 51.8333 15.8334 51.8333H21.6667H22.6667V50.8333V38.875V38.0585L21.8667 37.8952C18.5685 37.222 15.6379 35.3481 13.6428 32.6369C11.6478 29.9256 10.7305 26.5702 11.0688 23.2211C11.4071 19.872 12.977 16.7678 15.474 14.5103C17.971 12.2529 21.2172 11.003 24.5834 11.003C27.9495 11.003 31.1958 12.2529 33.6928 14.5103C36.1897 16.7678 37.7596 19.872 38.0979 23.2211C38.4362 26.5702 37.519 29.9256 35.5239 32.6369C33.5289 35.3481 30.5982 37.222 27.3 37.8952L26.5 38.0585V38.875V50.8333V51.8333H27.5H33.3334C34.6152 51.8333 35.8446 52.3426 36.751 53.249C37.6575 54.1554 38.1667 55.3848 38.1667 56.6667V62.5V63.5H39.1667H51.125H51.9417L52.1048 62.6998C52.6372 60.0894 53.9255 57.6932 55.8093 55.8093C57.6932 53.9255 60.0894 52.6372 62.6998 52.1048L63.5 51.9416V51.125V39.1667V38.1667H62.5H56.6667C55.3848 38.1667 54.1554 37.6574 53.249 36.751C52.3426 35.8446 51.8333 34.6152 51.8333 33.3333V15.8333C51.8333 14.5515 52.3426 13.3221 53.249 12.4157C54.1554 11.5092 55.3848 11 56.6667 11H74.1667C75.4485 11 76.6779 11.5092 77.5844 12.4157C78.4908 13.3221 79 14.5515 79 15.8333V33.3333C79 34.6152 78.4908 35.8446 77.5844 36.751C76.6779 37.6574 75.4485 38.1667 74.1667 38.1667H68.3333Z" stroke="#024D81" stroke-width="2"/>
</svg>
