<svg width="174" height="174" viewBox="0 0 174 174" fill="none" xmlns="http://www.w3.org/2000/svg">
<g filter="url(#filter0_d_1837_1422)">
<rect x="86.7109" y="16" width="100" height="100" rx="10" transform="rotate(45 86.7109 16)" fill="white"/>
</g>
<path d="M112.652 54H60.3477C56.8419 54 54 56.8419 54 60.3477V112.652C54 116.158 56.8419 119 60.3477 119H112.652C116.158 119 119 116.158 119 112.652V60.3477C119 56.8419 116.158 54 112.652 54Z" fill="url(#paint0_linear_1837_1422)"/>
<path d="M107.503 62.45H93.7715C92.0887 62.45 90.7246 63.8141 90.7246 65.4968V87.8406C90.7246 89.5233 92.0887 90.8875 93.7715 90.8875H107.503C109.185 90.8875 110.55 89.5233 110.55 87.8406V65.4968C110.55 63.8141 109.185 62.45 107.503 62.45Z" fill="white"/>
<path d="M79.2273 62.45H65.4961C63.8134 62.45 62.4492 63.8141 62.4492 65.4968V104.091C62.4492 105.773 63.8134 107.137 65.4961 107.137H79.2273C80.9101 107.137 82.2742 105.773 82.2742 104.091V65.4968C82.2742 63.8141 80.9101 62.45 79.2273 62.45Z" fill="white"/>
<defs>
<filter id="filter0_d_1837_1422" x="0.142578" y="0.14209" width="173.137" height="173.137" filterUnits="userSpaceOnUse" color-interpolation-filters="sRGB">
<feFlood flood-opacity="0" result="BackgroundImageFix"/>
<feColorMatrix in="SourceAlpha" type="matrix" values="0 0 0 0 0 0 0 0 0 0 0 0 0 0 0 0 0 0 127 0" result="hardAlpha"/>
<feOffset/>
<feGaussianBlur stdDeviation="10"/>
<feComposite in2="hardAlpha" operator="out"/>
<feColorMatrix type="matrix" values="0 0 0 0 0 0 0 0 0 0 0 0 0 0 0 0 0 0 0.1 0"/>
<feBlend mode="normal" in2="BackgroundImageFix" result="effect1_dropShadow_1837_1422"/>
<feBlend mode="normal" in="SourceGraphic" in2="effect1_dropShadow_1837_1422" result="shape"/>
</filter>
<linearGradient id="paint0_linear_1837_1422" x1="86.5" y1="54" x2="86.5" y2="119" gradientUnits="userSpaceOnUse">
<stop stop-color="#0091E6"/>
<stop offset="1" stop-color="#0079BF"/>
</linearGradient>
</defs>
</svg>
