<svg xmlns="http://www.w3.org/2000/svg" viewBox="0 0 14.05 11.57"><defs><style>.cls-1{fill:#0cf;}</style></defs><g id="Layer_2" data-name="Layer 2"><g id="Layer_1-2" data-name="Layer 1"><path class="cls-1" d="M14,1.39a5.84,5.84,0,0,1-1.43.4c.23,0,.57-.45.7-.62a2.51,2.51,0,0,0,.48-.86s0,0,0-.07h-.07A7.38,7.38,0,0,1,12,.89a.11.11,0,0,1-.11,0,1.06,1.06,0,0,0-.15-.15,3,3,0,0,0-.82-.5A2.79,2.79,0,0,0,9.65,0,3,3,0,0,0,8.46.34a3.14,3.14,0,0,0-1,.78,3,3,0,0,0-.57,1.15,3.08,3.08,0,0,0,0,1.21c0,.07,0,.08-.06.07A9,9,0,0,1,1.05.6C1,.52,1,.52.89.61a2.94,2.94,0,0,0,.5,3.47c.12.1.23.21.36.31A2.94,2.94,0,0,1,.63,4.08c-.07,0-.1,0-.11,0s0,.22,0,.34A3,3,0,0,0,2.37,6.83,2.65,2.65,0,0,0,2.74,7,3.29,3.29,0,0,1,1.65,7c-.08,0-.11,0-.08.1A3.06,3.06,0,0,0,3.87,9l.31,0v0a3.65,3.65,0,0,1-1.58.83,5.52,5.52,0,0,1-2.38.31c-.13,0-.16,0-.19,0s0,0,0,.09l.5.29a7.64,7.64,0,0,0,1.6.64A8.5,8.5,0,0,0,10.4,9.3,8.67,8.67,0,0,0,12.68,3c0-.09.11-.14.18-.19A5.65,5.65,0,0,0,14,1.62a.37.37,0,0,0,.07-.22h0S14.05,1.36,14,1.39Z"/></g></g></svg>