<svg width="90" height="90" viewBox="0 0 90 90" fill="none" xmlns="http://www.w3.org/2000/svg">
<path d="M60.5258 12H28.6041C27.3474 12 26.3286 13.0518 26.3286 14.3493V75.5496C26.3286 76.8471 27.3474 77.8989 28.6041 77.8989H60.5258C61.7825 77.8989 62.8013 76.8471 62.8013 75.5496V14.3493C62.8013 13.0518 61.7825 12 60.5258 12Z" stroke="#024D81" stroke-width="2"/>
<path d="M19.1643 39.5701L12 44.4587L44.5389 66.5296L78 44.4587L69.9655 39.5701" stroke="#024D81" stroke-width="2" stroke-linecap="round" stroke-linejoin="round"/>
<path d="M37.6328 40.3327L44.7827 45.0736L52.2453 40.3327L45.0563 35.4631L37.6328 40.3327Z" stroke="#024D81" stroke-width="2" stroke-linecap="round" stroke-linejoin="round"/>
<path d="M45.0201 45.7578L44.9692 54.4578L52.5713 50.5685V40.6606" stroke="#024D81" stroke-width="2" stroke-linecap="round" stroke-linejoin="round"/>
<path d="M37.4004 40.6042V50.0682L44.6598 54.5373" stroke="#024D81" stroke-width="2" stroke-linecap="round" stroke-linejoin="round"/>
<path d="M32.8413 31.8603L43.1707 24.104L57.5907 33.5182" stroke="#024D81" stroke-width="2" stroke-linecap="round" stroke-linejoin="round" stroke-dasharray="1 4"/>
</svg>
