<svg width="90" height="90" viewBox="0 0 90 90" fill="none" xmlns="http://www.w3.org/2000/svg">
<path d="M23.9325 31.8364H16.647C16.4833 31.8454 16.3246 31.8972 16.1869 31.9862C16.0654 32.094 15.9746 32.232 15.9238 32.3864V68.4787C16.0189 68.945 16.2209 69.3828 16.5136 69.758C16.836 70.0765 17.2356 70.3054 17.6732 70.4225H71.859C72.2639 70.3686 72.6462 70.2052 72.965 69.9499C73.2122 69.5808 73.3587 69.1537 73.3903 68.7106V32.6034C73.3796 32.3863 73.2853 32.1816 73.1272 32.0323C72.9053 31.9044 72.6539 31.8364 72.3977 31.8352H65.6371" stroke="#024D81" stroke-width="2" stroke-linecap="round" stroke-linejoin="round"/>
<path d="M40 78V71" stroke="#024D81" stroke-width="2" stroke-linecap="round"/>
<path d="M50 78V71" stroke="#024D81" stroke-width="2" stroke-linecap="round"/>
<path d="M36.5726 59.0536L31.321 62.7446L23.939 52.2414L34.4421 44.8594L35.0262 46.0265" stroke="#024D81" stroke-width="2" stroke-linecap="round" stroke-linejoin="round"/>
<path d="M64.507 11.6382H36.5718V59.0066H64.507V11.6382Z" stroke="#024D81" stroke-width="2" stroke-linejoin="round"/>
<path d="M54.7157 28.6421L43.8589 32.1787L47.3955 43.0356L58.2524 39.4989L54.7157 28.6421Z" stroke="#024D81" stroke-width="2" stroke-linejoin="round"/>
<path d="M34 79H55.5" stroke="#024D81" stroke-width="2" stroke-linecap="round"/>
</svg>
