<svg width="90" height="90" viewBox="0 0 90 90" fill="none" xmlns="http://www.w3.org/2000/svg">
<path d="M35.5714 27.0714H36.0709L36.0714 26.5719C36.0717 26.2877 36.1847 26.0152 36.3857 25.8143C36.5866 25.6134 36.859 25.5003 37.1431 25.5H43.4283C43.7124 25.5003 43.9848 25.6134 44.1857 25.8143C44.3867 26.0152 44.4997 26.2877 44.5 26.5719V32.8566C44.4997 33.1408 44.3867 33.4133 44.1857 33.6143C43.9848 33.8153 43.7123 33.9283 43.4281 33.9286H37.1434C36.8591 33.9283 36.5867 33.8153 36.3857 33.6143C36.1847 33.4133 36.0717 33.1408 36.0714 32.8566V28.1429V27.6429H35.5714H28.5H28V28.1429V31.2857V31.7857H28.5L30.8566 31.7857C30.8568 31.7857 30.8569 31.7857 30.857 31.7857C31.1411 31.7861 31.4134 31.8991 31.6143 32.1C31.8153 32.301 31.9283 32.5734 31.9286 32.8576V39.1424C31.9283 39.4266 31.8153 39.699 31.6143 39.9C31.4133 40.101 31.1409 40.214 30.8566 40.2143H27.7143H27.2143V40.7143V43.8571V44.3571H27.7143H35.5714H36.0714V43.8571V39.1434C36.0717 38.8591 36.1847 38.5867 36.3857 38.3857C36.5867 38.1847 36.8591 38.0717 37.1434 38.0714H43.4281C43.7123 38.0717 43.9848 38.1847 44.1857 38.3857C44.3867 38.5867 44.4997 38.8591 44.5 39.1434V45.4281C44.4997 45.7123 44.3867 45.9848 44.1857 46.1857C43.9848 46.3867 43.7123 46.4997 43.4281 46.5H37.1434C36.8591 46.4997 36.5867 46.3867 36.3857 46.1857C36.1847 45.9848 36.0717 45.7123 36.0714 45.4281L36.0709 44.9286H35.5714H27.7148C27.4306 44.9283 27.1581 44.8153 26.9571 44.6143C26.7562 44.4134 26.6432 44.141 26.6429 43.8569C26.6429 43.8568 26.6429 43.8567 26.6429 43.8566L26.6429 40.7143V40.2143H26.1429H24.5719C24.2877 40.214 24.0152 40.101 23.8143 39.9C23.6134 39.6991 23.5003 39.4267 23.5 39.1426V32.8574C23.5003 32.5733 23.6134 32.3009 23.8143 32.1L23.4607 31.7464L23.8143 32.1C24.0151 31.8991 24.2875 31.7861 24.5715 31.7857C24.5717 31.7857 24.5718 31.7857 24.5719 31.7857L26.9286 31.7857H27.4286V31.2857L27.4286 28.1434C27.4286 28.1432 27.4286 28.1431 27.4286 28.143C27.429 27.8589 27.542 27.5866 27.7428 27.3857C27.9438 27.1848 28.2162 27.0718 28.5003 27.0714C28.5004 27.0714 28.5004 27.0714 28.5005 27.0714L35.5714 27.0714ZM36.6429 45.4286V45.9286H37.1429H43.4286H43.9286V45.4286V42.2857V41.7857H43.4286H37.1429H36.6429V42.2857V45.4286ZM43.9286 39.1429V38.6429H43.4286H37.1429H36.6429V39.1429V40.7143V41.2143H37.1429H43.4286H43.9286V40.7143V39.1429ZM24.0714 39.1429V39.6429H24.5714H30.8571H31.3571V39.1429V36V35.5H30.8571H24.5714H24.0714V36V39.1429ZM30.8571 34.9286H31.3571V34.4286V32.8571V32.3571H30.8571H24.5714H24.0714V32.8571V34.4286V34.9286H24.5714H30.8571ZM36.6429 32.8571V33.3571H37.1429H43.4286H43.9286V32.8571V29.7143V29.2143H43.4286H37.1429H36.6429V29.7143V32.8571ZM43.9286 26.5714V26.0714H43.4286H37.1429H36.6429V26.5714V28.1429V28.6429H37.1429H43.4286H43.9286V28.1429V26.5714Z" stroke="#024D81"/>
<path d="M58.6541 52.7869C58.6541 52.7869 58.5683 32.7931 58.6541 19.2185C58.7508 14.9798 58.6831 11.6518 53.1475 11.0011C47.8663 11.012 31.4115 11.0643 25.3918 11.0011C19.3722 10.9377 17.6298 13.6645 18.0627 19.2185C18.0627 27.6766 18.0627 66.6421 18.0627 72.3941C18.0627 78.5066 22.3371 79.1146 25.3918 78.9853H50.5601H51.8047C51.5489 72.896 53.1634 66.8736 56.4331 61.7196C53.5775 58.8787 51.0496 56.262 47.7307 52.7883C47.216 52.0448 46.9811 51.1448 47.0669 50.2461C47.1527 49.3476 47.554 48.5078 48.2003 47.874C48.8464 47.2403 49.6963 46.8534 50.6007 46.781C51.5051 46.7085 52.4062 46.9552 53.1461 47.4778C56.1164 50.0767 65 59.1718 65 59.1718" stroke="#024D81" stroke-width="2" stroke-linecap="round" stroke-linejoin="round"/>
<path d="M19 20H58" stroke="#024D81" stroke-width="2" stroke-linecap="round"/>
<path d="M19 69H40" stroke="#024D81" stroke-width="2" stroke-linecap="round"/>
<path d="M19 64H40" stroke="#024D81" stroke-width="2" stroke-linecap="round"/>
<path d="M19 59H40" stroke="#024D81" stroke-width="2" stroke-linecap="round"/>
<path d="M66 41C66 41 71.2074 45.4873 71.7561 47.4617C72.3049 49.4362 71.7561 79 71.7561 79" stroke="#024D81" stroke-width="2" stroke-linecap="round" stroke-linejoin="round"/>
<circle cx="38.5" cy="15.5" r="1.5" fill="#024D81"/>
</svg>
