<svg width="90" height="90" viewBox="0 0 90 90" fill="none" xmlns="http://www.w3.org/2000/svg">
<path d="M61.6473 33.5992C59.073 26.6647 52.5134 21.7336 44.8296 21.7336C37.1458 21.7336 30.5862 26.659 28.0119 33.5934C23.1947 34.885 19.6367 39.3683 19.6367 44.6955C19.6367 51.0387 24.6674 56.1764 30.8729 56.1764H33.1269C33.3742 56.1764 33.5765 55.9697 33.5765 55.7171V52.2729C33.5765 52.0203 33.3742 51.8136 33.1269 51.8136H30.8729C28.9787 51.8136 27.1968 51.0444 25.8703 49.6495C24.5494 48.2603 23.8468 46.3889 23.9086 44.4486C23.9592 42.9331 24.4651 41.5095 25.3813 40.3098C26.32 39.087 27.6353 38.1973 29.0967 37.8012L31.227 37.2329L32.0083 35.1319C32.4917 33.823 33.1662 32.6003 34.015 31.4924C34.8529 30.3943 35.8455 29.429 36.9603 28.6279C39.2705 26.9689 41.991 26.0906 44.8296 26.0906C47.6681 26.0906 50.3887 26.9689 52.6988 28.6279C53.8174 29.4316 54.8067 30.396 55.6442 31.4924C56.493 32.6003 57.1675 33.8288 57.6509 35.1319L58.4265 37.2271L60.5512 37.8012C63.5978 38.6393 65.7281 41.4693 65.7281 44.6955C65.7281 46.5956 65.003 48.3866 63.6877 49.7298C63.0427 50.3925 62.2753 50.9178 61.4302 51.2755C60.585 51.6332 59.6787 51.8161 58.7638 51.8136H56.5098C56.2625 51.8136 56.0601 52.0203 56.0601 52.2729V55.7171C56.0601 55.9697 56.2625 56.1764 56.5098 56.1764H58.7638C64.9693 56.1764 70 51.0387 70 44.6955C70 39.3741 66.4532 34.8965 61.6473 33.5992Z" stroke="#024D81" stroke-width="2"/>
<path d="M38.2891 43.174C38.255 42.8714 38.1143 42.6371 37.8672 42.4709C37.62 42.3026 37.3089 42.2184 36.9339 42.2184C36.6655 42.2184 36.4332 42.261 36.2372 42.3462C36.0412 42.4293 35.8888 42.5444 35.7802 42.6914C35.6737 42.8363 35.6204 43.0014 35.6204 43.1868C35.6204 43.3423 35.6566 43.4766 35.729 43.5895C35.8036 43.7024 35.9006 43.7972 36.0199 43.8739C36.1413 43.9485 36.2713 44.0114 36.4098 44.0625C36.5483 44.1115 36.6815 44.152 36.8093 44.1839L37.4485 44.3501C37.6573 44.4013 37.8714 44.4705 38.0909 44.5579C38.3104 44.6452 38.5138 44.7603 38.7013 44.9031C38.8888 45.0458 39.0401 45.2227 39.1552 45.4336C39.2724 45.6445 39.331 45.897 39.331 46.1911C39.331 46.5618 39.2351 46.891 39.0433 47.1786C38.8537 47.4663 38.5778 47.6932 38.2156 47.8594C37.8555 48.0256 37.4197 48.1087 36.9084 48.1087C36.4183 48.1087 35.9943 48.0309 35.6364 47.8754C35.2784 47.7198 34.9982 47.4993 34.7958 47.2138C34.5934 46.9261 34.4815 46.5852 34.4602 46.1911H35.451C35.4702 46.4276 35.5469 46.6246 35.6811 46.7823C35.8175 46.9379 35.9911 47.054 36.2021 47.1307C36.4151 47.2053 36.6484 47.2425 36.902 47.2425C37.1811 47.2425 37.4293 47.1989 37.6467 47.1115C37.8661 47.022 38.0387 46.8984 38.1644 46.7408C38.2901 46.581 38.353 46.3945 38.353 46.1815C38.353 45.9876 38.2976 45.8288 38.1868 45.7053C38.0781 45.5817 37.93 45.4794 37.7425 45.3984C37.5572 45.3175 37.3473 45.2461 37.1129 45.1843L36.3395 44.9734C35.8153 44.8306 35.3999 44.6207 35.093 44.3438C34.7884 44.0668 34.636 43.7003 34.636 43.2443C34.636 42.8672 34.7383 42.538 34.9428 42.2567C35.1474 41.9755 35.4244 41.7571 35.7738 41.6016C36.1232 41.4439 36.5174 41.3651 36.9563 41.3651C37.3995 41.3651 37.7905 41.4428 38.1293 41.5984C38.4702 41.7539 38.7386 41.968 38.9347 42.2408C39.1307 42.5114 39.233 42.8224 39.2415 43.174H38.2891ZM41.863 48.1087C41.5519 48.1087 41.2707 48.0511 41.0193 47.9361C40.7678 47.8189 40.5686 47.6495 40.4216 47.4279C40.2767 47.2063 40.2043 46.9347 40.2043 46.6129C40.2043 46.3359 40.2575 46.108 40.3641 45.929C40.4706 45.75 40.6144 45.6083 40.7955 45.5039C40.9767 45.3995 41.1791 45.3207 41.4028 45.2674C41.6265 45.2141 41.8545 45.1737 42.0867 45.146C42.3808 45.1119 42.6194 45.0842 42.8026 45.0629C42.9859 45.0394 43.1191 45.0021 43.2021 44.951C43.2852 44.8999 43.3268 44.8168 43.3268 44.7017V44.6793C43.3268 44.4002 43.248 44.1839 43.0903 44.0305C42.9347 43.8771 42.7025 43.8004 42.3936 43.8004C42.0718 43.8004 41.8183 43.8718 41.6329 44.0146C41.4497 44.1552 41.3229 44.3118 41.2526 44.4844L40.3545 44.2798C40.461 43.9815 40.6166 43.7408 40.8211 43.5575C41.0278 43.3722 41.2654 43.2379 41.5338 43.1548C41.8023 43.0696 42.0846 43.027 42.3808 43.027C42.5768 43.027 42.7845 43.0504 43.004 43.0973C43.2256 43.142 43.4323 43.2251 43.624 43.3466C43.8179 43.468 43.9767 43.6417 44.1002 43.8675C44.2238 44.0913 44.2856 44.3821 44.2856 44.7401V48H43.3524V47.3288H43.314C43.2522 47.4524 43.1595 47.5739 43.036 47.6932C42.9124 47.8125 42.7536 47.9116 42.5597 47.9904C42.3659 48.0692 42.1336 48.1087 41.863 48.1087ZM42.0708 47.3416C42.335 47.3416 42.5608 47.2894 42.7483 47.185C42.9379 47.0806 43.0818 46.9442 43.1798 46.7759C43.2799 46.6055 43.33 46.4233 43.33 46.2294V45.5966C43.2959 45.6307 43.2298 45.6626 43.1318 45.6925C43.036 45.7202 42.9262 45.7447 42.8026 45.766C42.6791 45.7852 42.5587 45.8033 42.4415 45.8203C42.3243 45.8352 42.2263 45.848 42.1475 45.8587C41.9621 45.8821 41.7927 45.9215 41.6393 45.9769C41.488 46.0323 41.3666 46.1122 41.2749 46.2166C41.1855 46.3189 41.1407 46.4553 41.1407 46.6257C41.1407 46.8622 41.2281 47.0412 41.4028 47.1626C41.5775 47.282 41.8002 47.3416 42.0708 47.3416ZM46.987 48.1087C46.676 48.1087 46.3947 48.0511 46.1433 47.9361C45.8919 47.8189 45.6926 47.6495 45.5456 47.4279C45.4007 47.2063 45.3283 46.9347 45.3283 46.6129C45.3283 46.3359 45.3816 46.108 45.4881 45.929C45.5946 45.75 45.7385 45.6083 45.9196 45.5039C46.1007 45.3995 46.3031 45.3207 46.5268 45.2674C46.7505 45.2141 46.9785 45.1737 47.2108 45.146C47.5048 45.1119 47.7434 45.0842 47.9267 45.0629C48.1099 45.0394 48.2431 45.0021 48.3262 44.951C48.4093 44.8999 48.4508 44.8168 48.4508 44.7017V44.6793C48.4508 44.4002 48.372 44.1839 48.2143 44.0305C48.0588 43.8771 47.8265 43.8004 47.5176 43.8004C47.1958 43.8004 46.9423 43.8718 46.7569 44.0146C46.5737 44.1552 46.4469 44.3118 46.3766 44.4844L45.4785 44.2798C45.585 43.9815 45.7406 43.7408 45.9451 43.5575C46.1518 43.3722 46.3894 43.2379 46.6578 43.1548C46.9263 43.0696 47.2086 43.027 47.5048 43.027C47.7008 43.027 47.9086 43.0504 48.128 43.0973C48.3496 43.142 48.5563 43.2251 48.748 43.3466C48.9419 43.468 49.1007 43.6417 49.2243 43.8675C49.3478 44.0913 49.4096 44.3821 49.4096 44.7401V48H48.4764V47.3288H48.438C48.3762 47.4524 48.2836 47.5739 48.16 47.6932C48.0364 47.8125 47.8777 47.9116 47.6838 47.9904C47.4899 48.0692 47.2576 48.1087 46.987 48.1087ZM47.1948 47.3416C47.459 47.3416 47.6848 47.2894 47.8723 47.185C48.062 47.0806 48.2058 46.9442 48.3038 46.7759C48.4039 46.6055 48.454 46.4233 48.454 46.2294V45.5966C48.4199 45.6307 48.3539 45.6626 48.2559 45.6925C48.16 45.7202 48.0502 45.7447 47.9267 45.766C47.8031 45.7852 47.6827 45.8033 47.5655 45.8203C47.4483 45.8352 47.3503 45.848 47.2715 45.8587C47.0861 45.8821 46.9167 45.9215 46.7633 45.9769C46.612 46.0323 46.4906 46.1122 46.399 46.2166C46.3095 46.3189 46.2647 46.4553 46.2647 46.6257C46.2647 46.8622 46.3521 47.0412 46.5268 47.1626C46.7015 47.282 46.9242 47.3416 47.1948 47.3416ZM54.3291 43.174C54.295 42.8714 54.1544 42.6371 53.9072 42.4709C53.6601 42.3026 53.349 42.2184 52.974 42.2184C52.7055 42.2184 52.4733 42.261 52.2773 42.3462C52.0812 42.4293 51.9289 42.5444 51.8202 42.6914C51.7137 42.8363 51.6604 43.0014 51.6604 43.1868C51.6604 43.3423 51.6966 43.4766 51.7691 43.5895C51.8437 43.7024 51.9406 43.7972 52.0599 43.8739C52.1814 43.9485 52.3113 44.0114 52.4498 44.0625C52.5883 44.1115 52.7215 44.152 52.8493 44.1839L53.4885 44.3501C53.6974 44.4013 53.9115 44.4705 54.1309 44.5579C54.3504 44.6452 54.5539 44.7603 54.7414 44.9031C54.9289 45.0458 55.0802 45.2227 55.1952 45.4336C55.3124 45.6445 55.371 45.897 55.371 46.1911C55.371 46.5618 55.2751 46.891 55.0834 47.1786C54.8937 47.4663 54.6178 47.6932 54.2556 47.8594C53.8955 48.0256 53.4598 48.1087 52.9484 48.1087C52.4584 48.1087 52.0344 48.0309 51.6764 47.8754C51.3184 47.7198 51.0383 47.4993 50.8358 47.2138C50.6334 46.9261 50.5216 46.5852 50.5003 46.1911H51.491C51.5102 46.4276 51.5869 46.6246 51.7211 46.7823C51.8575 46.9379 52.0312 47.054 52.2421 47.1307C52.4552 47.2053 52.6885 47.2425 52.942 47.2425C53.2211 47.2425 53.4694 47.1989 53.6867 47.1115C53.9062 47.022 54.0787 46.8984 54.2045 46.7408C54.3302 46.581 54.393 46.3945 54.393 46.1815C54.393 45.9876 54.3376 45.8288 54.2268 45.7053C54.1182 45.5817 53.9701 45.4794 53.7826 45.3984C53.5972 45.3175 53.3873 45.2461 53.153 45.1843L52.3795 44.9734C51.8554 44.8306 51.4399 44.6207 51.1331 44.3438C50.8284 44.0668 50.676 43.7003 50.676 43.2443C50.676 42.8672 50.7783 42.538 50.9829 42.2567C51.1874 41.9755 51.4644 41.7571 51.8138 41.6016C52.1633 41.4439 52.5574 41.3651 52.9964 41.3651C53.4395 41.3651 53.8305 41.4428 54.1693 41.5984C54.5102 41.7539 54.7787 41.968 54.9747 42.2408C55.1707 42.5114 55.273 42.8224 55.2815 43.174H54.3291Z" fill="#024D81"/>
<path d="M78.3768 16.0029H11.8503C11.6578 16.0138 11.4715 16.0749 11.3098 16.1798C11.1666 16.3069 11.0597 16.4697 11 16.6516V59.1308C11.1118 59.6798 11.3494 60.1952 11.694 60.6371C12.0731 61.0116 12.5433 61.2809 13.0583 61.4184H76.8341C77.3104 61.3553 77.7606 61.1633 78.1358 60.8633C78.4273 60.4284 78.6 59.9247 78.6368 59.4024V16.9043C78.6243 16.6487 78.5134 16.408 78.3272 16.2324C78.0659 16.0816 77.7698 16.0016 77.4682 16H69.5123" stroke="#024D81" stroke-width="2" stroke-linecap="square" stroke-linejoin="round"/>
<path d="M33.8555 73.1394H56.7112" stroke="#024D81" stroke-width="2" stroke-linecap="square"/>
<path d="M39.5693 71.9967V61.7117" stroke="#024D81" stroke-width="2" stroke-linecap="square"/>
<path d="M50.8184 73.1394L50.9976 61.7117" stroke="#024D81" stroke-width="2" stroke-linecap="square"/>
</svg>
