<svg width="90" height="90" viewBox="0 0 90 90" fill="none" xmlns="http://www.w3.org/2000/svg">
<path d="M37.0762 78.3618H52.7575" stroke="#024D81" stroke-width="2" stroke-linecap="round"/>
<path d="M24.0087 31.1982H16.7232C16.5594 31.2072 16.4008 31.259 16.2631 31.348C16.1416 31.4558 16.0508 31.5938 16 31.7482V67.8405C16.0951 68.3068 16.2971 68.7447 16.5898 69.1198C16.9121 69.4383 17.3117 69.6673 17.7494 69.7843H71.9352C72.34 69.7304 72.7224 69.567 73.0412 69.3117C73.2884 68.9426 73.4349 68.5155 73.4664 68.0724V31.9652C73.4557 31.7481 73.3615 31.5434 73.2034 31.3941C72.9814 31.2663 72.73 31.1982 72.4739 31.197H65.7133" stroke="#024D81" stroke-width="2" stroke-linecap="round" stroke-linejoin="round"/>
<path d="M40.0762 77.3618V70.3618" stroke="#024D81" stroke-width="2" stroke-linecap="round"/>
<path d="M50.0762 77.3618V70.3618" stroke="#024D81" stroke-width="2" stroke-linecap="round"/>
<path d="M64.5832 11H36.6479V58.3685H64.5832V11Z" stroke="#024D81" stroke-width="2" stroke-linejoin="round"/>
<path d="M45.7674 42.9194L43.0085 42.9872L43.0529 40.2031L54.9685 28.3099L57.6863 31.0257L45.7674 42.9194ZM54.4361 27.7779C54.4358 27.7777 54.4356 27.7774 54.4353 27.7772L54.4356 27.7774L54.4361 27.7779ZM45.5519 43.1345C45.5521 43.1342 45.5524 43.134 45.5526 43.1337L45.5519 43.1345Z" stroke="#024D81" stroke-width="2"/>
<line x1="16" y1="38" x2="34" y2="38" stroke="#024D81" stroke-width="2"/>
<line x1="16" y1="43" x2="28.75" y2="43" stroke="#024D81" stroke-width="2"/>
<line x1="16" y1="58" x2="28.75" y2="58" stroke="#024D81" stroke-width="2"/>
<line x1="16" y1="53" x2="24.25" y2="53" stroke="#024D81" stroke-width="2"/>
<line x1="16" y1="63" x2="21.25" y2="63" stroke="#024D81" stroke-width="2"/>
<line x1="16" y1="48" x2="32.5" y2="48" stroke="#024D81" stroke-width="2"/>
</svg>
