<svg width="90" height="90" viewBox="0 0 90 90" fill="none" xmlns="http://www.w3.org/2000/svg">
<path d="M10 22.6786C10 19.316 11.317 16.0912 13.6612 13.7135C16.0054 11.3358 19.1848 10 22.5 10H67.5C70.8152 10 73.9946 11.3358 76.3388 13.7135C78.683 16.0912 80 19.316 80 22.6786V68.3214C80 71.684 78.683 74.9088 76.3388 77.2865C73.9946 79.6642 70.8152 81 67.5 81H22.5C19.1848 81 16.0054 79.6642 13.6612 77.2865C11.317 74.9088 10 71.684 10 68.3214V22.6786ZM22.5 15.0714C20.5109 15.0714 18.6032 15.8729 17.1967 17.2995C15.7902 18.7261 15 20.661 15 22.6786V25.2143H75V22.6786C75 20.661 74.2098 18.7261 72.8033 17.2995C71.3968 15.8729 69.4891 15.0714 67.5 15.0714H22.5ZM75 30.2857H15V68.3214C15 70.339 15.7902 72.2739 17.1967 73.7005C18.6032 75.1271 20.5109 75.9286 22.5 75.9286H67.5C69.4891 75.9286 71.3968 75.1271 72.8033 73.7005C74.2098 72.2739 75 70.339 75 68.3214V30.2857ZM20 40.4286C20 39.0835 20.5268 37.7936 21.4645 36.8425C22.4021 35.8915 23.6739 35.3571 25 35.3571H35C36.3261 35.3571 37.5979 35.8915 38.5355 36.8425C39.4732 37.7936 40 39.0835 40 40.4286V65.7857C40 67.1307 39.4732 68.4207 38.5355 69.3718C37.5979 70.3228 36.3261 70.8571 35 70.8571H25C23.6739 70.8571 22.4021 70.3228 21.4645 69.3718C20.5268 68.4207 20 67.1307 20 65.7857V40.4286ZM35 40.4286H25V65.7857H35V40.4286ZM45 48.0357C45 47.3632 45.2634 46.7182 45.7322 46.2427C46.2011 45.7672 46.837 45.5 47.5 45.5H62.5C63.163 45.5 63.7989 45.7672 64.2678 46.2427C64.7366 46.7182 65 47.3632 65 48.0357C65 48.7082 64.7366 49.3532 64.2678 49.8287C63.7989 50.3043 63.163 50.5714 62.5 50.5714H47.5C46.837 50.5714 46.2011 50.3043 45.7322 49.8287C45.2634 49.3532 45 48.7082 45 48.0357ZM47.5 35.3571C46.837 35.3571 46.2011 35.6243 45.7322 36.0998C45.2634 36.5754 45 37.2203 45 37.8929C45 38.5654 45.2634 39.2103 45.7322 39.6859C46.2011 40.1614 46.837 40.4286 47.5 40.4286H67.5C68.163 40.4286 68.7989 40.1614 69.2678 39.6859C69.7366 39.2103 70 38.5654 70 37.8929C70 37.2203 69.7366 36.5754 69.2678 36.0998C68.7989 35.6243 68.163 35.3571 67.5 35.3571H47.5Z" stroke="#024D81" stroke-width="2"/>
<path d="M45.7322 56.7427C46.2011 56.2672 46.837 56 47.5 56H67.5C68.163 56 68.7989 56.2672 69.2678 56.7427C69.7366 57.2182 70 57.8632 70 58.5357C70 59.2082 69.7366 59.8532 69.2678 60.3287C68.7989 60.8043 68.163 61.0714 67.5 61.0714H47.5C46.837 61.0714 46.2011 60.8043 45.7322 60.3287C45.2634 59.8532 45 59.2082 45 58.5357C45 57.8632 45.2634 57.2182 45.7322 56.7427Z" stroke="#024D81" stroke-width="2"/>
</svg>
