<svg width="90" height="90" viewBox="0 0 90 90" fill="none" xmlns="http://www.w3.org/2000/svg">
<path d="M23.9325 31.8365H16.647C16.4833 31.8455 16.3246 31.8972 16.1869 31.9862C16.0654 32.0941 15.9746 32.2321 15.9238 32.3864V68.4788C16.0189 68.945 16.2209 69.3829 16.5136 69.7581C16.836 70.0765 17.2356 70.3055 17.6732 70.4226H71.859C72.2639 70.3686 72.6462 70.2053 72.965 69.95C73.2122 69.5809 73.3587 69.1537 73.3903 68.7106V32.6035C73.3796 32.3863 73.2853 32.1816 73.1272 32.0324C72.9053 31.9045 72.6539 31.8365 72.3977 31.8353H65.6371" stroke="#024D81" stroke-width="2" stroke-linecap="round" stroke-linejoin="round"/>
<path d="M40 78V71" stroke="#024D81" stroke-width="2" stroke-linecap="round"/>
<path d="M50 78V71" stroke="#024D81" stroke-width="2" stroke-linecap="round"/>
<path d="M36.5721 59.0536L31.3205 62.7445L23.9385 52.2414L34.4416 44.8593L35.0257 46.0264" stroke="#024D81" stroke-width="2" stroke-linecap="round" stroke-linejoin="round"/>
<path d="M64.5065 11.6382H36.5713V59.0066H64.5065V11.6382Z" stroke="#024D81" stroke-width="2" stroke-linejoin="round"/>
<path d="M54.7162 28.642L43.8594 32.1786L47.396 43.0355L58.2528 39.4989L54.7162 28.642Z" stroke="#024D81" stroke-width="2" stroke-linejoin="round"/>
</svg>
