<svg width="90" height="90" viewBox="0 0 90 90" fill="none" xmlns="http://www.w3.org/2000/svg">
<path d="M45 12C43.7625 12 42.9375 12.825 42.9375 14.0625C42.9375 15.3 43.7625 16.125 45 16.125C60.8812 16.125 73.875 29.1188 73.875 45C73.875 60.8812 60.8812 73.875 45 73.875C29.1188 73.875 16.125 60.8812 16.125 45C16.125 39.225 17.775 33.6562 21.075 28.9125V31.3875C21.075 32.625 21.9 33.45 23.1375 33.45C24.375 33.45 25.2 32.625 25.2 31.3875V21.075H14.8875C13.65 21.075 12.825 21.9 12.825 23.1375C12.825 24.375 13.65 25.2 14.8875 25.2H18.6C14.2687 30.7687 12 37.7812 12 45C12 63.15 26.85 78 45 78C63.15 78 78 63.15 78 45C78 26.85 63.15 12 45 12Z" stroke="#024D81" stroke-width="2"/>
<path d="M60 43.8571V48.1429H55.4979C55.2219 49.4844 54.6892 50.7599 53.9293 51.8993L57.1221 55.0921L54.0921 58.1221L50.8993 54.9293C49.7599 55.6892 48.4844 56.2219 47.1429 56.4979V61H42.8571V56.4979C41.5156 56.2219 40.2401 55.6892 39.1007 54.9293L35.9079 58.1221L32.8779 55.0921L36.0707 51.8993C35.325 50.7764 34.7807 49.5079 34.5021 48.1429H30V43.8571H34.5021C34.7781 42.5156 35.3108 41.2401 36.0707 40.1007L32.8779 36.9079L35.9079 33.8779L39.1007 37.0707C40.2401 36.3108 41.5156 35.7781 42.8571 35.5021V31H47.1429V35.5021C48.4844 35.7781 49.7599 36.3108 50.8993 37.0707L54.0921 33.8779L57.1221 36.9079L53.9293 40.1007C54.6892 41.2401 55.2219 42.5156 55.4979 43.8571H60Z" stroke="#024D81" stroke-width="2"/>
<path d="M45 41C42.1739 41 40 43.1739 40 46C40 48.8261 42.1739 51 45 51C47.8261 51 50 48.8261 50 46C50 43.1739 47.8261 41 45 41Z" stroke="#024D81" stroke-width="2"/>
</svg>
