<svg width="90" height="90" viewBox="0 0 90 90" fill="none" xmlns="http://www.w3.org/2000/svg">
<path d="M78.9172 35.1596L78.921 35.1634C79.0178 35.2602 79.0398 35.4503 78.906 35.5907C78.9048 35.5919 78.9036 35.5931 78.9025 35.5943L63.463 50.9135C63.4624 50.914 63.4619 50.9146 63.4613 50.9151C63.333 51.039 63.1473 51.0277 63.0397 50.9177L63.0347 50.9127L54.1037 41.9162C54.1031 41.9156 54.1026 41.915 54.102 41.9144C53.9782 41.7862 53.9895 41.6004 54.0995 41.4928L54.1046 41.4878L57.1729 38.4412C57.1735 38.4406 57.1741 38.4401 57.1747 38.4395C57.3029 38.3157 57.4887 38.327 57.5962 38.437L57.5962 38.437L57.6015 38.4423L62.578 43.4517L63.2824 44.1607L63.9919 43.4567L75.4494 32.0865C75.45 32.086 75.4506 32.0854 75.4512 32.0849C75.5795 31.961 75.7652 31.9723 75.8728 32.0823L75.8766 32.0861L78.9172 35.1596ZM47.5 31C47.5 38.1805 41.6805 44 34.5 44C27.3195 44 21.5 38.1805 21.5 31C21.5 23.8195 27.3195 18 34.5 18C41.6805 18 47.5 23.8195 47.5 31ZM34.5 51.25C37.4152 51.25 40.188 50.6165 42.6893 49.5H44.3C51.8633 49.5 58 55.6367 58 63.2V67.75C58 70.0962 56.0961 72 53.75 72H15.25C12.9038 72 11 70.0962 11 67.75V63.2C11 55.6367 17.1367 49.5 24.7 49.5H26.3115C28.821 50.616 31.5834 51.25 34.5 51.25Z" stroke="#024D81" stroke-width="2"/>
</svg>
