<svg width="90" height="90" viewBox="0 0 90 90" fill="none" xmlns="http://www.w3.org/2000/svg">
<path d="M19.5445 22.5822C16.909 22.5822 14.774 24.6344 14.774 27.1678V63.8322C14.774 66.3656 16.909 68.4178 19.5445 68.4178H70.4555C73.091 68.4178 75.226 66.3656 75.226 63.8322V27.1678C75.226 24.6344 73.091 22.5822 70.4555 22.5822H19.5445V22.5822ZM70.4555 18C75.7265 18 80 22.1044 80 27.1678V63.8322C80 68.8956 75.7265 73 70.4555 73H19.5445C14.2735 73 10 68.8956 10 63.8322V27.1678C10 22.1044 14.2735 18 19.5445 18H70.4555ZM38.5845 56.2697H24C23.6899 56.2661 23.3821 56.3225 23.0943 56.4358C22.8064 56.5491 22.5442 56.717 22.3225 56.93C22.1008 57.143 21.924 57.3968 21.8022 57.6769C21.6805 57.957 21.6162 58.2579 21.613 58.5625C21.613 59.8275 22.6805 60.8553 24 60.8553H38.5845C38.8943 60.8585 39.2017 60.8017 39.4891 60.6882C39.7766 60.5747 40.0384 60.4067 40.2598 60.1938C40.4811 59.9809 40.6576 59.7272 40.7791 59.4473C40.9006 59.1674 40.9648 58.8668 40.968 58.5625C40.9648 58.2582 40.9006 57.9576 40.7791 57.6777C40.6576 57.3978 40.4811 57.1441 40.2598 56.9312C40.0384 56.7183 39.7766 56.5503 39.4891 56.4368C39.2017 56.3233 38.8943 56.2665 38.5845 56.2697V56.2697ZM58.125 29.4572C52.791 29.4572 48.4475 33.5513 48.4475 38.625C48.4475 41.2822 49.6375 43.6712 51.5415 45.3453C47.9365 47.4353 45.532 51.1994 45.532 55.4997C45.532 56.7269 45.728 57.9334 46.1095 59.085C46.512 60.2881 47.856 60.955 49.109 60.57C49.4047 60.483 49.6798 60.339 49.9182 60.1464C50.1567 59.9538 50.3536 59.7165 50.4977 59.4484C50.6417 59.1802 50.7299 58.8865 50.757 58.5845C50.7842 58.2825 50.7499 57.9782 50.656 57.6894C50.4221 56.9823 50.3039 56.2432 50.306 55.4997C50.306 51.4606 53.7955 48.1675 58.125 48.1675C62.4545 48.1675 65.9475 51.4606 65.9475 55.4997C65.9475 56.0944 65.874 56.6753 65.727 57.2391C65.6532 57.5337 65.6398 57.8398 65.6876 58.1396C65.7353 58.4393 65.8432 58.7268 66.0051 58.9852C66.1669 59.2437 66.3795 59.4679 66.6304 59.645C66.8813 59.822 67.1655 59.9483 67.4665 60.0166C68.0752 60.1665 68.7195 60.0754 69.2604 59.7629C69.8013 59.4503 70.1954 58.9414 70.3575 58.3459C70.599 57.4178 70.718 56.4656 70.718 55.4997C70.718 51.1994 68.3135 47.4353 64.7085 45.3384C66.6125 43.6713 67.8025 41.2822 67.8025 38.625C67.8025 33.5513 63.4625 29.4572 58.125 29.4572V29.4572ZM38.5845 44.2384H24C23.6899 44.2348 23.3821 44.2913 23.0943 44.4046C22.8064 44.5179 22.5442 44.6858 22.3225 44.8988C22.1008 45.1117 21.924 45.3655 21.8022 45.6456C21.6805 45.9258 21.6162 46.2267 21.613 46.5313C21.613 47.7963 22.6805 48.8241 24 48.8241H38.5845C38.8943 48.8272 39.2017 48.7705 39.4891 48.6569C39.7766 48.5434 40.0384 48.3754 40.2598 48.1625C40.4811 47.9496 40.6576 47.696 40.7791 47.4161C40.9006 47.1362 40.9648 46.8355 40.968 46.5313C40.9648 46.227 40.9006 45.9263 40.7791 45.6464C40.6576 45.3665 40.4811 45.1129 40.2598 44.9C40.0384 44.6871 39.7766 44.5191 39.4891 44.4056C39.2017 44.292 38.8943 44.2353 38.5845 44.2384V44.2384ZM58.125 34.0428C60.8445 34.0428 63.032 36.1053 63.032 38.625C63.032 41.1481 60.8445 43.2072 58.125 43.2072C55.4055 43.2072 53.218 41.1447 53.218 38.625C53.218 36.1019 55.4055 34.0428 58.125 34.0428V34.0428ZM38.5845 32.2072H24C23.6899 32.2036 23.3821 32.26 23.0943 32.3733C22.8064 32.4866 22.5442 32.6545 22.3225 32.8675C22.1008 33.0805 21.924 33.3343 21.8022 33.6144C21.6805 33.8945 21.6162 34.1954 21.613 34.5C21.613 35.765 22.6805 36.7928 24 36.7928H38.5845C38.8943 36.796 39.2017 36.7392 39.4891 36.6257C39.7766 36.5122 40.0384 36.3442 40.2598 36.1313C40.4811 35.9184 40.6576 35.6647 40.7791 35.3848C40.9006 35.1049 40.9648 34.8043 40.968 34.5C40.9648 34.1957 40.9006 33.8951 40.7791 33.6152C40.6576 33.3353 40.4811 33.0816 40.2598 32.8687C40.0384 32.6558 39.7766 32.4878 39.4891 32.3743C39.2017 32.2608 38.8943 32.204 38.5845 32.2072V32.2072Z" stroke="white" stroke-width="2"/>
</svg>
