<?xml version="1.0" encoding="utf-8"?>
<svg xmlns="http://www.w3.org/2000/svg" width="52.374" height="52.789" viewBox="0 0 52.374 52.789">
  <g id="Group_13922" data-name="Group 13922" transform="translate(-705.8 -143.8)">
    <path id="Path_12483" data-name="Path 12483" d="M757.73,345.02l3.777-2.47a.373.373,0,0,1,.215-.058.757.757,0,0,1,.69.718.5.5,0,0,1-.216.416l-3.016,1.982,3.016,1.982a.467.467,0,0,1,.216.417.743.743,0,0,1-.69.7.376.376,0,0,1-.215-.057l-3.777-2.471a.719.719,0,0,1-.316-.574.744.744,0,0,1,.316-.589Zm0,0" transform="translate(-46.153 -178.182)" fill="#2a3c4a" stroke="#2a3c4a" stroke-width="0.4"/>
    <path id="Path_12484" data-name="Path 12484" d="M828.48,304.3a.42.42,0,0,1-.058.23l-5.271,10.514a.52.52,0,0,1-.474.273.555.555,0,0,1-.56-.531.578.578,0,0,1,.043-.216l5.285-10.556a.437.437,0,0,1,.431-.259.586.586,0,0,1,.6.546Zm0,0" transform="translate(-104.236 -143.408)" fill="#2a3c4a" stroke="#2a3c4a" stroke-width="0.4"/>
    <path id="Path_12485" data-name="Path 12485" d="M904.824,346.187l-3.778,2.471a.329.329,0,0,1-.2.057.732.732,0,0,1-.69-.7.491.491,0,0,1,.2-.417l3.03-1.982-3.03-1.982a.532.532,0,0,1-.2-.416.746.746,0,0,1,.69-.718.329.329,0,0,1,.2.058l3.778,2.47a.745.745,0,0,1,.316.589.683.683,0,0,1-.316.574Zm0,0" transform="translate(-174.29 -178.185)" fill="#2a3c4a" stroke="#2a3c4a" stroke-width="0.4"/>
    <path id="Path_12486" data-name="Path 12486" d="M736.052,270.94V254.565a3.26,3.26,0,0,0-3.256-3.256H709.256A3.259,3.259,0,0,0,706,254.565V270.94a3.259,3.259,0,0,0,3.256,3.256H732.8a3.26,3.26,0,0,0,3.256-3.256Zm-28.518,0V254.565a1.723,1.723,0,0,1,1.721-1.721H732.8a1.723,1.723,0,0,1,1.721,1.721V270.94a1.723,1.723,0,0,1-1.721,1.721H709.256a1.723,1.723,0,0,1-1.721-1.721Zm0,0" transform="translate(0 -96.329)" fill="#2a3c4a" stroke="#2a3c4a" stroke-width="0.4"/>
    <path id="Path_12487" data-name="Path 12487" d="M1073.991,512.055A4,4,0,0,0,1070,516.05c0,.057,0,.114,0,.17,0,.025,0,.049,0,.075a.778.778,0,0,0,.024.189,3.995,3.995,0,1,0,3.971-4.429Zm0,1.535a2.465,2.465,0,0,1,2.4,1.938h-4.808a2.464,2.464,0,0,1,2.4-1.938Zm0,4.92a2.464,2.464,0,0,1-2.242-1.448h4.483a2.463,2.463,0,0,1-2.241,1.448Zm0,0" transform="translate(-326.751 -330.395)" fill="#2a3c4a" stroke="#2a3c4a" stroke-width="0.4"/>
    <path id="Path_12488" data-name="Path 12488" d="M868.5,182.987h-.4a8.678,8.678,0,0,0-.516-1.232l.291-.291a2.142,2.142,0,0,0,0-3.027l-.746-.746a2.141,2.141,0,0,0-2.73-.249V147.27a3.274,3.274,0,0,0-3.27-3.27H834.782a3.274,3.274,0,0,0-3.27,3.27v5.408a.767.767,0,1,0,1.535,0v-1.845h29.815v26.733q-.142-.053-.285-.1v-.4a2.143,2.143,0,0,0-2.14-2.141h-1.055a2.143,2.143,0,0,0-2.14,2.141v.361a8.653,8.653,0,0,0-1.277.514l-.245-.245a2.14,2.14,0,0,0-3.027,0l-.746.745a2.141,2.141,0,0,0,0,3.028l.2.2a8.662,8.662,0,0,0-.564,1.321h-.268a2.143,2.143,0,0,0-2.14,2.14v.005H833.047v-4.963a.767.767,0,1,0-1.535,0v8.446a3.274,3.274,0,0,0,3.27,3.27h16.6a2.126,2.126,0,0,0,.562.986l.746.746a2.14,2.14,0,0,0,3.027,0l.153-.154a8.693,8.693,0,0,0,1.369.561v.223a2.143,2.143,0,0,0,2.14,2.141h1.055a2.143,2.143,0,0,0,2.14-2.141v-.267a8.676,8.676,0,0,0,1.321-.564l.2.2a2.14,2.14,0,0,0,3.027,0l.746-.746a2.14,2.14,0,0,0,0-3.027l-.245-.245a8.628,8.628,0,0,0,.514-1.277h.361a2.143,2.143,0,0,0,2.141-2.14v-1.055a2.143,2.143,0,0,0-2.141-2.14ZM833.047,149.3V147.27a1.737,1.737,0,0,1,1.735-1.736h26.344a1.738,1.738,0,0,1,1.735,1.736V149.3Zm0,39.317v-1.948h16.184a2.144,2.144,0,0,0,2.085,1.656h.224a8.644,8.644,0,0,0,.561,1.369l-.154.154a2.148,2.148,0,0,0-.377.506H834.782a1.737,1.737,0,0,1-1.735-1.735Zm36.062-2.433a.606.606,0,0,1-.606.606h-.576a1.246,1.246,0,0,0-1.2.9,7.13,7.13,0,0,1-.56,1.391,1.251,1.251,0,0,0,.222,1.459l.394.394a.607.607,0,0,1,0,.857l-.746.746a.606.606,0,0,1-.857,0l-.354-.354a1.242,1.242,0,0,0-1.486-.208,7.1,7.1,0,0,1-1.424.608,1.253,1.253,0,0,0-.879,1.195v.475a.607.607,0,0,1-.606.606h-1.055a.607.607,0,0,1-.606-.606v-.438a1.245,1.245,0,0,0-.9-1.2,7.158,7.158,0,0,1-1.471-.6,1.225,1.225,0,0,0-.588-.15,1.257,1.257,0,0,0-.883.366l-.305.3a.606.606,0,0,1-.857,0l-.746-.746a.594.594,0,0,1-.177-.428.746.746,0,0,1,0-.078.582.582,0,0,0,.01-.06.6.6,0,0,1,.162-.291l.305-.3a1.246,1.246,0,0,0,.216-1.47,7.17,7.17,0,0,1-.6-1.47,1.245,1.245,0,0,0-1.2-.9h-.437a.607.607,0,0,1-.606-.606v-1.055a.607.607,0,0,1,.606-.606h.474a1.254,1.254,0,0,0,1.2-.879,7.118,7.118,0,0,1,.608-1.423,1.247,1.247,0,0,0-.208-1.486l-.354-.354a.607.607,0,0,1,0-.857l.746-.746a.606.606,0,0,1,.857,0l.395.394a1.256,1.256,0,0,0,.882.366,1.218,1.218,0,0,0,.577-.144,7.149,7.149,0,0,1,1.391-.56,1.246,1.246,0,0,0,.9-1.2v-.576a.606.606,0,0,1,.606-.606h1.055a.606.606,0,0,1,.606.606v.616a1.25,1.25,0,0,0,.877,1.19,7.116,7.116,0,0,1,1.326.553l.039.021a1.242,1.242,0,0,0,1.458-.223l.442-.442a.606.606,0,0,1,.857,0l.746.746a.608.608,0,0,1,0,.857l-.442.442a1.249,1.249,0,0,0-.214,1.474,7.14,7.14,0,0,1,.565,1.348,1.25,1.25,0,0,0,1.19.878h.616a.607.607,0,0,1,.606.606Zm0,0" transform="translate(-112.669)" fill="#2a3c4a" stroke="#2a3c4a" stroke-width="0.4"/>
  </g>
</svg>
