<svg width="90" height="90" viewBox="0 0 90 90" fill="none" xmlns="http://www.w3.org/2000/svg">
<path d="M42.6475 74.7236H18.9693C17.1209 74.7236 15.3483 73.9893 14.0413 72.6823C12.7343 71.3753 12 69.6027 12 67.7543V25.9385C12 24.0902 12.7343 22.3175 14.0413 21.0105C15.3483 19.7035 17.1209 18.9692 18.9693 18.9692H60.7851C62.6334 18.9692 64.4061 19.7035 65.7131 21.0105C67.0201 22.3175 67.7544 24.0902 67.7544 25.9385V39.8771" stroke="#024D81" stroke-width="2" stroke-linecap="round" stroke-linejoin="round"/>
<path d="M64.2697 78.2085C71.9678 78.2085 78.2083 71.968 78.2083 64.2699C78.2083 56.5718 71.9678 50.3313 64.2697 50.3313C56.5716 50.3313 50.3311 56.5718 50.3311 64.2699C50.3311 71.968 56.5716 78.2085 64.2697 78.2085Z" stroke="#024D81" stroke-width="2" stroke-linecap="round" stroke-linejoin="round"/>
<path d="M53.8158 12V25.9386M25.9386 12V25.9386M12 39.8772H67.7544M64.2697 59.0288V64.2697L67.7544 67.7544" stroke="#024D81" stroke-width="2" stroke-linecap="round" stroke-linejoin="round"/>
</svg>
