<svg width="90" height="90" viewBox="0 0 90 90" fill="none" xmlns="http://www.w3.org/2000/svg">
<path d="M76 63.6155V58.8462H70.9899C70.6828 57.3534 70.0901 55.934 69.2444 54.666L72.7975 51.1129L69.4256 47.7411L65.8725 51.2942C64.6046 50.4485 63.1851 49.8557 61.6923 49.5486V44.5385H56.9231V49.5486C55.4302 49.8557 54.0108 50.4485 52.7428 51.2942L49.1898 47.7411L45.8179 51.1129L49.371 54.666C48.5253 55.934 47.9326 57.3534 47.6255 58.8462H42.6154V63.6155H47.6255C47.9355 65.1345 48.5412 66.5462 49.371 67.7957L45.8179 71.3488L49.1898 74.7206L52.7428 71.1675C54.0108 72.0132 55.4302 72.6059 56.9231 72.9131V77.9231H61.6923V72.9131C63.1851 72.6059 64.6046 72.0132 65.8725 71.1675L69.4256 74.7206L72.7975 71.3488L69.2444 67.7957C70.0901 66.5277 70.6828 65.1083 70.9899 63.6155H76ZM59.3077 68.3847C55.3635 68.3847 52.1538 65.175 52.1538 61.2308C52.1538 57.2867 55.3635 54.077 59.3077 54.077C63.2518 54.077 66.4615 57.2867 66.4615 61.2308C66.4615 65.175 63.2518 68.3847 59.3077 68.3847ZM33.0769 20.6924H42.6154V25.4616H33.0769V20.6924Z" stroke="#024D81" stroke-width="2"/>
<path d="M18.7692 73.1543V15.9235H56.9231V37.3851H61.6923V15.9235C61.6923 13.2933 59.5533 11.1543 56.9231 11.1543H18.7692C16.139 11.1543 14 13.2933 14 15.9235V73.1543C14 75.7845 16.139 77.9235 18.7692 77.9235H37.8462V73.1543H18.7692Z" stroke="#024D81" stroke-width="2"/>
</svg>
