<svg width="90" height="90" viewBox="0 0 90 90" fill="none" xmlns="http://www.w3.org/2000/svg">
<path d="M64.6634 42.0356H63.8662L63.6885 42.8127C62.7992 46.7026 60.8308 50.2627 58.0095 53.0843C55.1881 55.9058 51.6283 57.8743 47.7387 58.7637L46.9616 58.9414V59.7386V66.4464C46.9616 67.6787 47.9612 68.6785 49.1937 68.6785H71.3707C71.9627 68.6785 72.5304 68.4433 72.949 68.0247C73.3676 67.6061 73.6027 67.0384 73.6027 66.4464V44.2678C73.6027 43.6758 73.3676 43.108 72.949 42.6894C72.5304 42.2708 71.9627 42.0356 71.3707 42.0356H64.6634ZM46.9616 52.0549V53.4705L48.2958 52.9974C50.5158 52.2103 52.5321 50.9375 54.1976 49.2719C55.8631 47.6063 57.1358 45.5899 57.9228 43.3697L58.3958 42.0356H56.9803H56.9754H49.1937C48.6017 42.0356 48.034 42.2708 47.6154 42.6894C47.1968 43.108 46.9616 43.6758 46.9616 44.2678V52.0549ZM23.0584 12.3659L23.0613 12.3685C23.3044 12.5812 23.4704 12.8682 23.5334 13.1849C23.5964 13.5017 23.553 13.8304 23.4098 14.1199L23.3703 14.1997L23.3456 14.2852C23.2782 14.5181 23.2434 14.7591 23.2421 15.0015V15.0067C23.2421 15.5681 23.4165 16.4192 24.3592 17.3562C24.709 17.706 24.9838 17.9627 25.2631 18.2236C25.2816 18.2409 25.3002 18.2582 25.3187 18.2756L25.3244 18.2809C25.3567 18.3106 25.3889 18.3402 25.4213 18.3699C25.6401 18.5708 25.8628 18.7753 26.1375 19.0459L26.1432 19.0516L26.1491 19.0571C26.7594 19.6393 27.379 20.3025 27.9302 21.1223C29.0506 22.8061 29.7129 24.9598 29.7129 28.2499C29.7129 32.1179 28.3186 35.3456 26.219 37.3431L25.4813 38.0449L26.1964 38.7698C27.468 40.059 28.2438 41.7835 28.7375 43.603L28.7378 43.6042C29.7062 47.1567 29.7129 51.5979 29.7129 55.1747V55.3571C29.7129 65.3837 27.8363 71.2114 25.8092 74.5916L25.8045 74.5994L25.8 74.6072C25.0513 75.9086 24.0685 77.0602 22.9011 78.0041C22.475 78.3357 22.0125 78.6177 21.5226 78.8445C21.5114 78.8483 21.4977 78.8529 21.4819 78.858C21.4285 78.8755 21.3535 78.8987 21.269 78.9218C21.0994 78.9679 20.9621 78.9931 20.8858 78.9988C20.6501 78.976 20.418 78.9249 20.1945 78.8464C19.703 78.6193 19.2391 78.3367 18.8118 78.0041C17.6444 77.0602 16.6616 75.9086 15.9128 74.6072L15.9082 74.5991L15.9034 74.5911C13.8768 71.2162 12 65.3841 12 55.3571V55.1796C12 51.5983 12.0066 47.1616 12.9752 43.5987C13.4688 41.7841 14.2447 40.0586 15.5177 38.7637L16.2319 38.0372L15.4922 37.3366C13.3948 35.3501 12 32.1189 12 28.2499C12 26.7952 12.3937 24.9935 12.9686 23.2736C13.5398 21.5599 14.3348 19.8059 15.2353 18.4132L15.2459 18.3967L15.256 18.3798C16.3177 16.5871 17.8316 15.0563 19.0352 14.0055L19.038 14.0031C19.6896 13.4299 20.3695 12.8897 21.075 12.3845L21.2091 12.2951L21.2395 12.2749L21.2684 12.2524L21.2781 12.2459C21.5466 12.0669 21.8667 11.9816 22.1886 12.0033C22.5105 12.025 22.8163 12.1525 23.0584 12.3659Z" stroke="#024D81" stroke-width="2"/>
<path d="M39.8734 52.764C38.5705 52.544 37.3028 52.1607 36.1 51.6247C36.1117 52.4974 36.1117 53.312 36.1117 54.0399V54.0451V54.4394C36.1117 55.4477 36.093 56.4244 36.0607 57.3693C37.391 57.7947 38.7609 58.0868 40.1502 58.241L41.0399 58.3397V59.2349V65.5287C41.0399 67.551 41.8432 69.4905 43.2731 70.9204C44.7029 72.3504 46.6422 73.1537 48.6643 73.1537H70.8413C71.8429 73.1543 72.8354 72.9575 73.7609 72.5746C74.6864 72.1916 75.5275 71.6301 76.2359 70.922C76.9444 70.2139 77.5064 69.3731 77.8898 68.4477C78.2732 67.5223 78.4706 66.5304 78.4706 65.5287V43.3501C78.4706 39.1413 75.0545 35.725 70.8462 35.725H64.5479H63.6531L63.5541 34.8357C63.1768 31.446 61.9865 28.1977 60.0845 25.3668C58.1825 22.536 55.6251 20.2064 52.6296 18.5762C49.6342 16.946 46.2893 16.0633 42.8796 16.0033C39.8219 15.9495 36.793 16.5587 34 17.784C34.8464 19.3947 35.4399 21.1255 35.76 22.9153C37.803 21.945 40.0896 21.4036 42.504 21.4036C46.235 21.4024 49.8458 22.7231 52.6958 25.1311C55.5459 27.5393 57.4508 30.8792 58.0726 34.5584L58.2698 35.725H57.0866H48.6643C44.456 35.725 41.0399 39.1413 41.0399 43.3501V51.7779V52.9609L39.8734 52.764Z" stroke="#024D81" stroke-width="2"/>
</svg>
