<svg width="90" height="90" viewBox="0 0 90 90" fill="none" xmlns="http://www.w3.org/2000/svg">
<path d="M79 45.2222C79 59.485 64.0261 71.4444 45 71.4444C25.9739 71.4444 11 59.485 11 45.2222C11 30.9594 25.9739 19 45 19C64.0261 19 79 30.9594 79 45.2222Z" stroke="#024D81" stroke-width="2"/>
<path d="M53.7222 45.2222C53.7222 50.0394 49.8171 53.9444 45 53.9444C40.1828 53.9444 36.2778 50.0394 36.2778 45.2222C36.2778 40.4051 40.1828 36.5 45 36.5C49.8171 36.5 53.7222 40.4051 53.7222 45.2222Z" stroke="#024D81" stroke-width="2"/>
<path d="M44.9982 63.6667C42.576 63.6665 40.1776 63.1892 37.9399 62.262C35.7022 61.3349 33.6691 59.9761 31.9565 58.2632C28.4978 54.8038 26.5551 50.1122 26.5556 45.2204C26.556 40.3287 28.4998 35.6374 31.9591 32.1788C35.4185 28.7201 40.1101 26.7773 45.0018 26.7778C49.8936 26.7783 54.5848 28.722 58.0435 32.1814C61.5022 35.6407 63.4449 40.3324 63.4444 45.2241C63.444 50.1159 61.5002 54.8071 58.0409 58.2658C54.5815 61.7244 49.8899 63.6672 44.9982 63.6667Z" stroke="#024D81" stroke-width="2"/>
</svg>
