<svg width="90" height="90" viewBox="0 0 90 90" fill="none" xmlns="http://www.w3.org/2000/svg">
<path d="M60.526 12H28.6042C27.3475 12 26.3287 13.0518 26.3287 14.3493V75.5496C26.3287 76.8471 27.3475 77.8989 28.6042 77.8989H60.526C61.7826 77.8989 62.8014 76.8471 62.8014 75.5496V14.3493C62.8014 13.0518 61.7826 12 60.526 12Z" stroke="#024D81" stroke-width="2"/>
<path d="M19.1643 39.5703L12 44.459L44.5389 66.5298L78 44.459L69.9655 39.5703" stroke="#024D81" stroke-width="2" stroke-linecap="round" stroke-linejoin="round"/>
<path d="M37.6326 40.3325L44.7825 45.0734L52.2451 40.3325L45.0561 35.4629L37.6326 40.3325Z" stroke="#024D81" stroke-width="2" stroke-linecap="round" stroke-linejoin="round"/>
<path d="M45.0201 45.7573L44.9692 54.4573L52.5713 50.5681V40.6602" stroke="#024D81" stroke-width="2" stroke-linecap="round" stroke-linejoin="round"/>
<path d="M37.4005 40.6035V50.0675L44.66 54.5366" stroke="#024D81" stroke-width="2" stroke-linecap="round" stroke-linejoin="round"/>
<path d="M32.8413 31.8598L43.1707 24.1035L57.5907 33.5177" stroke="#024D81" stroke-width="2" stroke-linecap="round" stroke-linejoin="round" stroke-dasharray="1 4"/>
</svg>
