<svg width="90" height="90" viewBox="0 0 90 90" fill="none" xmlns="http://www.w3.org/2000/svg">
<path d="M59.1481 69.0744C61.8891 69.0744 64.1111 66.8524 64.1111 64.1114C64.1111 61.3704 61.8891 59.1484 59.1481 59.1484C56.4072 59.1484 54.1852 61.3704 54.1852 64.1114C54.1852 66.8524 56.4072 69.0744 59.1481 69.0744Z" stroke="#024D81" stroke-width="2"/>
<path d="M78.4466 62.8187C76.9134 58.9126 74.2676 55.5422 70.8371 53.1254C67.4067 50.7086 63.3424 49.3517 59.1481 49.2227C54.9538 49.3517 50.8896 50.7086 47.4592 53.1254C44.0287 55.5422 41.3829 58.9126 39.8497 62.8187L39.2963 64.1115L39.8497 65.4044C41.3829 69.3105 44.0287 72.6809 47.4592 75.0977C50.8896 77.5144 54.9538 78.8714 59.1481 79.0004C63.3424 78.8714 67.4067 77.5144 70.8371 75.0977C74.2676 72.6809 76.9134 69.3105 78.4466 65.4044L79 64.1115L78.4466 62.8187ZM59.1481 74.0375C57.185 74.0375 55.2659 73.4553 53.6336 72.3646C52.0013 71.274 50.7291 69.7238 49.9778 67.91C49.2265 66.0963 49.03 64.1005 49.4129 62.1751C49.7959 60.2497 50.7413 58.481 52.1295 57.0929C53.5176 55.7047 55.2863 54.7593 57.2117 54.3763C59.1371 53.9933 61.1329 54.1899 62.9466 54.9412C64.7604 55.6925 66.3106 56.9647 67.4013 58.597C68.4919 60.2293 69.0741 62.1484 69.0741 64.1115C69.0708 66.7431 68.024 69.2658 66.1632 71.1266C64.3024 72.9874 61.7797 74.0342 59.1481 74.0375V74.0375Z" stroke="#024D81" stroke-width="2"/>
<path d="M24.4074 26.8887C25.7779 26.8887 26.8889 25.7777 26.8889 24.4073C26.8889 23.0368 25.7779 21.9258 24.4074 21.9258C23.0369 21.9258 21.9259 23.0368 21.9259 24.4073C21.9259 25.7777 23.0369 26.8887 24.4074 26.8887Z" stroke="#024D81" stroke-width="2"/>
<path d="M24.4074 46.7403C25.7779 46.7403 26.8889 45.6293 26.8889 44.2588C26.8889 42.8883 25.7779 41.7773 24.4074 41.7773C23.0369 41.7773 21.9259 42.8883 21.9259 44.2588C21.9259 45.6293 23.0369 46.7403 24.4074 46.7403Z" stroke="#024D81" stroke-width="2"/>
<path d="M24.4074 66.5919C25.7779 66.5919 26.8889 65.4809 26.8889 64.1104C26.8889 62.7399 25.7779 61.6289 24.4074 61.6289C23.0369 61.6289 21.9259 62.7399 21.9259 64.1104C21.9259 65.4809 23.0369 66.5919 24.4074 66.5919Z" stroke="#024D81" stroke-width="2"/>
<path d="M16.963 56.6667H34.3333V51.7037H16.963V36.8148H56.6667V44.2593H61.6296V16.963C61.6296 15.6467 61.1067 14.3844 60.176 13.4536C59.2453 12.5229 57.9829 12 56.6667 12H16.963C15.6467 12 14.3844 12.5229 13.4536 13.4536C12.5229 14.3844 12 15.6467 12 16.963V71.5556C12 72.8718 12.5229 74.1342 13.4536 75.0649C14.3844 75.9956 15.6467 76.5185 16.963 76.5185H34.3333V71.5556H16.963V56.6667ZM16.963 16.963H56.6667V31.8519H16.963V16.963Z" stroke="#024D81" stroke-width="2"/>
</svg>
