<svg width="174" height="174" viewBox="0 0 174 174" fill="none" xmlns="http://www.w3.org/2000/svg">
<g filter="url(#filter0_d_1837_1422)">
<rect x="86.7109" y="16" width="100" height="100" rx="10" transform="rotate(45 86.7109 16)" fill="white"/>
</g>
<path d="M96.3277 52.4562C90.1277 51.8479 83.5319 51.8479 76.6064 52.4562C74.7596 52.4562 73.2426 53.7402 73.1106 55.3622C72.8468 61.377 72.6489 67.7973 71 68H102C100.087 67.1214 100.021 61.1067 99.8234 55.3622C99.7574 53.8078 98.1745 52.4562 96.3277 52.4562Z" fill="#024D81"/>
<path d="M76.6064 121.544C82.8064 122.152 89.4021 122.152 96.3277 121.544C98.1745 121.544 99.6915 120.26 99.8234 118.638C100.153 112.623 100.351 106.203 102 106H71C72.9128 106.879 72.9787 112.893 73.1766 118.638C73.1766 120.192 74.7596 121.544 76.6064 121.544Z" fill="#024D81"/>
<path d="M105 101.754C105 104.639 102.621 107 99.7143 107H73.2857C70.3786 107 68 104.639 68 101.754V72.2459C68 69.3607 70.3786 67 73.2857 67H99.7143C102.621 67 105 69.3607 105 72.2459V101.754Z" fill="#D2D2D6"/>
<path d="M72.9231 106C70.7654 106 69 104.2 69 102V72C69 69.8 70.7654 68 72.9231 68H99.0769C101.235 68 103 69.8 103 72V102C103 104.2 101.235 106 99.0769 106H72.9231Z" fill="#323235"/>
<path d="M99 72H73V102H99V72Z" fill="#D1D1F1"/>
<path d="M105 88H104V100H105V88Z" fill="#CDCDD5"/>
<path d="M104.575 83H104.5C105.325 83 106 82.4 106 81.6667V76.3333C106 75.6 105.325 75 104.5 75H104.575C103.675 75 103 75.6 103 76.4V81.6C103 82.4 103.675 83 104.575 83Z" fill="#CDCDD5"/>
<path opacity="0.1" d="M103.952 81.6V76.4C103.952 75.6667 103.857 75 105 75C105 75 105 75 104.905 75H105C103.857 75 103 75.6 103 76.4V81.6C103 82.4 103.857 83 105 83H104.905C104.905 83 104.905 83 105 83C103.857 83 103.952 82.4 103.952 81.6Z" fill="black"/>
<path d="M106 78.3518H104.689V79.007H106V78.3518Z" fill="#D1D1F1"/>
<path d="M106 77.0413H104.689V77.6964H106V77.0413Z" fill="#D1D1F1"/>
<path d="M106 75.731H104.689V76.3861H106V75.731Z" fill="#D1D1F1"/>
<path d="M106 79.6621H104.689V80.3173H106V79.6621Z" fill="#D1D1F1"/>
<path d="M106 80.9724H104.689V81.6276H106V80.9724Z" fill="#D1D1F1"/>
<defs>
<filter id="filter0_d_1837_1422" x="0.142578" y="0.14209" width="173.137" height="173.137" filterUnits="userSpaceOnUse" color-interpolation-filters="sRGB">
<feFlood flood-opacity="0" result="BackgroundImageFix"/>
<feColorMatrix in="SourceAlpha" type="matrix" values="0 0 0 0 0 0 0 0 0 0 0 0 0 0 0 0 0 0 127 0" result="hardAlpha"/>
<feOffset/>
<feGaussianBlur stdDeviation="10"/>
<feComposite in2="hardAlpha" operator="out"/>
<feColorMatrix type="matrix" values="0 0 0 0 0 0 0 0 0 0 0 0 0 0 0 0 0 0 0.1 0"/>
<feBlend mode="normal" in2="BackgroundImageFix" result="effect1_dropShadow_1837_1422"/>
<feBlend mode="normal" in="SourceGraphic" in2="effect1_dropShadow_1837_1422" result="shape"/>
</filter>
</defs>
</svg>
