<svg width="90" height="90" viewBox="0 0 90 90" fill="none" xmlns="http://www.w3.org/2000/svg">
<path d="M58.9418 11H30.0529C27.2608 11 24.9973 13.2199 24.9973 15.9583V74.0417C24.9973 76.7801 27.2608 79 30.0529 79H58.9418C61.7338 79 63.9973 76.7801 63.9973 74.0417V15.9583C63.9973 13.2199 61.7338 11 58.9418 11Z" stroke="#024D81" stroke-width="2" stroke-linecap="round" stroke-linejoin="round"/>
<path d="M18.5397 21.8027C18.5397 21.8027 12.9486 27.2693 11.1379 32.6683" stroke="#024D81" stroke-width="2" stroke-linecap="round"/>
<path d="M11 57.5684C11 57.5684 14.2221 64.6985 18.6787 68.2399" stroke="#024D81" stroke-width="2" stroke-linecap="round"/>
<path d="M71.2356 21.8027C71.2356 21.8027 76.8268 27.2693 78.6374 32.6683" stroke="#024D81" stroke-width="2" stroke-linecap="round"/>
<path d="M78.7751 57.5703C78.7751 57.5703 75.5531 64.7006 71.0964 68.2419" stroke="#024D81" stroke-width="2" stroke-linecap="round"/>
<path d="M55.7273 46.2899H54.7273V47.2899V51.8697C54.7273 52.8215 54.3519 53.7329 53.6862 54.4036C53.0207 55.0742 52.1197 55.4495 51.1818 55.4495H37.5455C36.6076 55.4495 35.7066 55.0742 35.0411 54.4036C34.3754 53.7329 34 52.8215 34 51.8697V38.1303C34 37.1785 34.3754 36.2671 35.0411 35.5964C35.7066 34.9258 36.6076 34.5505 37.5455 34.5505H51.1818C52.1197 34.5505 53.0207 34.9258 53.6862 35.5964C54.3519 36.2671 54.7273 37.1785 54.7273 38.1303V40.4202V41.4202H55.7273C56.0624 41.4202 56.3853 41.5543 56.6246 41.7953C56.8641 42.0367 57 42.3656 57 42.7101V45C57 45.3445 56.8641 45.6734 56.6246 45.9148C56.3853 46.1558 56.0624 46.2899 55.7273 46.2899ZM37.3138 25.0458C37.9793 24.3753 38.8803 24 39.8182 24H48.9091C49.847 24 50.748 24.3753 51.4134 25.0458C51.4132 25.0456 51.4131 25.0455 51.4131 25.0455C51.4131 25.0455 51.4248 25.0581 51.4461 25.09C51.4689 25.1244 51.4975 25.1731 51.5304 25.239C51.597 25.3725 51.6684 25.55 51.741 25.7706C51.8866 26.2124 52.0166 26.7638 52.1253 27.3499C52.2573 28.062 52.3498 28.7813 52.4024 29.356C52.0041 29.2932 51.5963 29.2606 51.1818 29.2606H37.5455C37.1309 29.2606 36.7231 29.2932 36.3248 29.356C36.3775 28.7813 36.47 28.062 36.602 27.3499C36.7106 26.7638 36.8407 26.2124 36.9862 25.7706C37.0589 25.55 37.1303 25.3725 37.1969 25.239C37.2298 25.1731 37.2583 25.1244 37.2812 25.09C37.3023 25.0583 37.314 25.0457 37.3142 25.0455C37.3142 25.0455 37.3141 25.0456 37.3138 25.0458ZM36.3248 60.644C36.7231 60.7068 37.1309 60.7394 37.5455 60.7394H51.1818C51.5963 60.7394 52.0041 60.7068 52.4024 60.644C52.3498 61.2187 52.2573 61.938 52.1253 62.6501C52.0166 63.2362 51.8866 63.7876 51.741 64.2294C51.6684 64.45 51.597 64.6275 51.5304 64.761C51.4975 64.8269 51.4689 64.8756 51.4461 64.91C51.4227 64.9451 51.4109 64.9568 51.4134 64.9542C50.748 65.6247 49.847 66 48.9091 66H39.8182C38.8803 66 37.9793 65.6247 37.3138 64.9542C37.3164 64.9568 37.3045 64.9451 37.2812 64.91C37.2583 64.8756 37.2298 64.8269 37.1969 64.761C37.1303 64.6275 37.0589 64.45 36.9862 64.2294C36.8407 63.7876 36.7106 63.2362 36.602 62.6501C36.47 61.938 36.3775 61.2187 36.3248 60.644Z" stroke="#024D81" stroke-width="2"/>
</svg>
