<svg width="90" height="90" viewBox="0 0 90 90" fill="none" xmlns="http://www.w3.org/2000/svg">
<path d="M24.0179 25.7408C24.0179 26.2973 23.7968 26.831 23.4033 27.2245C23.0098 27.6179 22.4761 27.839 21.9197 27.839C21.3632 27.839 20.8295 27.6179 20.436 27.2245C20.0425 26.831 19.8214 26.2973 19.8214 25.7408C19.8214 25.1843 20.0425 24.6506 20.436 24.2571C20.8295 23.8636 21.3632 23.6426 21.9197 23.6426C22.4761 23.6426 23.0098 23.8636 23.4033 24.2571C23.7968 24.6506 24.0179 25.1843 24.0179 25.7408ZM30.3125 25.7408C30.3125 26.2973 30.0915 26.831 29.698 27.2245C29.3045 27.6179 28.7708 27.839 28.2143 27.839C27.6578 27.839 27.1241 27.6179 26.7306 27.2245C26.3371 26.831 26.1161 26.2973 26.1161 25.7408C26.1161 25.1843 26.3371 24.6506 26.7306 24.2571C27.1241 23.8636 27.6578 23.6426 28.2143 23.6426C28.7708 23.6426 29.3045 23.8636 29.698 24.2571C30.0915 24.6506 30.3125 25.1843 30.3125 25.7408ZM34.5089 27.839C35.0654 27.839 35.5991 27.6179 35.9926 27.2245C36.3861 26.831 36.6072 26.2973 36.6072 25.7408C36.6072 25.1843 36.3861 24.6506 35.9926 24.2571C35.5991 23.8636 35.0654 23.6426 34.5089 23.6426C33.9525 23.6426 33.4188 23.8636 33.0253 24.2571C32.6318 24.6506 32.4107 25.1843 32.4107 25.7408C32.4107 26.2973 32.6318 26.831 33.0253 27.2245C33.4188 27.6179 33.9525 27.839 34.5089 27.839Z" fill="#024D81"/>
<path d="M13.5268 15.25C12.9703 15.25 12.4366 15.4711 12.0431 15.8646C11.6497 16.258 11.4286 16.7917 11.4286 17.3482V71.9018C11.4286 72.4583 11.6497 72.992 12.0431 73.3855C12.4366 73.7789 12.9703 74 13.5268 74H76.4732C77.0297 74 77.5634 73.7789 77.9569 73.3855C78.3504 72.992 78.5714 72.4583 78.5714 71.9018V17.3482C78.5714 16.7917 78.3504 16.258 77.9569 15.8646C77.5634 15.4711 77.0297 15.25 76.4732 15.25H13.5268ZM15.625 32.0357V19.4464H74.375V32.0357H15.625ZM15.625 36.2321H74.375V69.8036H15.625V36.2321Z" stroke="#024D81" stroke-width="2"/>
<path d="M52.8 60.0542L60.3077 53.0828L52.8 46.1113" stroke="#024D81" stroke-width="2" stroke-linecap="square" stroke-linejoin="round"/>
<path d="M37.5077 46.1118L30 53.0832L37.5077 60.0547" stroke="#024D81" stroke-width="2" stroke-linecap="square" stroke-linejoin="round"/>
<path d="M47.9504 43.0006L41.7345 63.616" stroke="#024D81" stroke-width="2" stroke-linecap="square"/>
</svg>
