<svg width="90" height="90" viewBox="0 0 90 90" fill="none" xmlns="http://www.w3.org/2000/svg">
<path d="M63.2729 69.254L72.4243 69.254C73.9117 69.254 75.3327 68.647 76.3762 67.5755C77.4188 66.505 78 65.0585 78 63.5556L78 16.5714C78 15.0685 77.4188 13.622 76.3762 12.5515C75.3327 11.48 73.9117 10.873 72.4243 10.873L17.516 10.873C16.0286 10.873 14.6076 11.48 13.5641 12.5515C12.5215 13.622 11.9403 15.0685 11.9403 16.5714L11.9403 63.5556C11.9403 65.0585 12.5215 66.505 13.5641 67.5755C14.6076 68.647 16.0286 69.254 17.516 69.254L26.6674 69.254L63.2729 69.254Z" stroke="#024D81" stroke-width="2"/>
<path d="M21.5 39.3H37.8333V42.5H21.5V39.3ZM21.5 30.9H46.5V34.1H21.5V30.9ZM21.5 22.5H46.5V25.7H21.5V22.5Z" stroke="#024D81"/>
<path d="M14.0157 69.3573L22.06 56.1483L32.68 64.7243C33.001 64.9886 33.3824 65.1824 33.7956 65.2915C34.2088 65.4005 34.6434 65.4219 35.0668 65.3541C35.4902 65.2863 35.8916 65.131 36.2412 64.8998C36.5908 64.6686 36.8794 64.3674 37.0857 64.0187L47.0429 50.2719L44.67 48.7998L34.67 62.6061L34.57 62.7422L23.9486 54.1661C23.6276 53.9034 23.247 53.7107 22.8348 53.6023C22.4225 53.4938 21.9893 53.4725 21.5669 53.5397C21.1445 53.6069 20.7439 53.761 20.3945 53.9907C20.0452 54.2203 19.7561 54.5196 19.5486 54.8665L13 65.6348" stroke="#024D81"/>
<rect x="53.5" y="21.5" width="19" height="11" stroke="#024D81"/>
<rect x="53.5" y="47.5" width="19" height="11" stroke="#024D81"/>
<rect x="53.5" y="37.5" width="19" height="5" stroke="#024D81"/>
</svg>
