<svg xmlns="http://www.w3.org/2000/svg" viewBox="0 0 11.85 11.57"><defs><style>.cls-1{fill:#3b77dc;}</style></defs><g id="Layer_2" data-name="Layer 2"><g id="Layer_1-2" data-name="Layer 1"><path class="cls-1" d="M5.92.44C5.41.44,4.43,2.1,4.31,5.17H7.53C7.42,2.1,6.44.44,5.92.44Z"/><path class="cls-1" d="M4.31,6.39c.12,3.07,1.1,4.74,1.61,4.74s1.5-1.67,1.61-4.74Z"/><path class="cls-1" d="M8.76,5.17h3.09A6,6,0,0,0,7.35,0,9.55,9.55,0,0,1,8.76,5.17Z"/><path class="cls-1" d="M3.09,5.17A9.55,9.55,0,0,1,4.5,0,6,6,0,0,0,0,5.17Z"/><path class="cls-1" d="M8.76,6.39a9.58,9.58,0,0,1-1.41,5.18,6,6,0,0,0,4.5-5.18Z"/><path class="cls-1" d="M3.09,6.39H0a6,6,0,0,0,4.5,5.18A9.58,9.58,0,0,1,3.09,6.39Z"/></g></g></svg>