<svg width="25" height="25" viewBox="0 0 25 25" fill="none" xmlns="http://www.w3.org/2000/svg">
<path d="M19.8727 5.1334C17.704 2.96361 14.7456 1.86882 11.6394 2.11882C7.46334 2.45423 3.80292 5.3584 2.57792 9.36465C1.70292 12.2271 2.07063 15.2157 3.49563 17.6844L2.14563 22.1667C2.01646 22.5969 2.40917 23.0022 2.84354 22.8865L7.53521 21.6292C9.055 22.4584 10.7654 22.8949 12.5071 22.8959H12.5113C16.881 22.8959 20.9185 20.223 22.3154 16.0824C23.6758 12.0449 22.6696 7.9334 19.8727 5.1334ZM17.6029 16.2021C17.3863 16.8094 16.3248 17.3949 15.8477 17.4376C15.3706 17.4813 14.9238 17.6532 12.7279 16.7876C10.0852 15.7459 8.41646 13.0365 8.28729 12.8636C8.15709 12.6897 7.22584 11.4542 7.22584 10.1751C7.22584 8.8959 7.89771 8.26673 8.13625 8.00736C8.37479 7.74694 8.65604 7.68236 8.83 7.68236C9.00292 7.68236 9.17688 7.68236 9.32792 7.68861C9.51334 7.6959 9.71854 7.70527 9.91333 8.13757C10.1446 8.65215 10.6498 9.93757 10.7144 10.0678C10.779 10.198 10.8227 10.3501 10.7363 10.523C10.6498 10.6959 10.606 10.8042 10.4769 10.9563C10.3467 11.1084 10.204 11.2949 10.0873 11.4115C9.95708 11.5407 9.82167 11.6824 9.97271 11.9417C10.1248 12.2021 10.6456 13.0532 11.4185 13.7417C12.4123 14.6272 13.2488 14.9011 13.5092 15.0324C13.7696 15.1626 13.9206 15.1407 14.0727 14.9667C14.2248 14.7938 14.7227 14.2084 14.8956 13.948C15.0685 13.6876 15.2425 13.7313 15.481 13.8178C15.7196 13.9042 16.9977 14.5334 17.2571 14.6636C17.5175 14.7938 17.6904 14.8584 17.755 14.9667C17.8196 15.074 17.8196 15.5949 17.6029 16.2021Z" fill="#024D81"/>
</svg>
