<svg width="90" height="90" viewBox="0 0 90 90" fill="none" xmlns="http://www.w3.org/2000/svg">
<path d="M29.0656 51.9812L45.1653 35.8814L29.0656 51.9812ZM37.8473 60.7628L45.1653 53.4448L37.8473 60.7628ZM12.7141 44.9148L44.9136 12.7154C46.0113 11.6174 47.5001 11.0003 49.0527 11H72.974C74.5267 11 76.0158 11.6168 77.1137 12.7147C78.2116 13.8127 78.8284 15.3018 78.8284 16.8545V40.7757C78.8281 42.3283 78.2111 43.8172 77.1131 44.9148L44.9136 77.1143C43.8157 78.2119 42.3269 78.8284 40.7745 78.8284C39.2221 78.8284 37.7333 78.2119 36.6354 77.1143L12.7141 53.193C11.6166 52.0952 11 50.6063 11 49.0539C11 47.5015 11.6166 46.0127 12.7141 44.9148V44.9148Z" stroke="#024D81" stroke-width="2" stroke-linecap="round" stroke-linejoin="round"/>
<path d="M67.1195 25.6361C67.1195 26.4124 66.8111 27.157 66.2621 27.7059C65.7132 28.2549 64.9686 28.5633 64.1923 28.5633C63.4159 28.5633 62.6714 28.2549 62.1224 27.7059C61.5735 27.157 61.2651 26.4124 61.2651 25.6361C61.2651 24.8597 61.5735 24.1152 62.1224 23.5662C62.6714 23.0173 63.4159 22.7089 64.1923 22.7089C64.9686 22.7089 65.7132 23.0173 66.2621 23.5662C66.8111 24.1152 67.1195 24.8597 67.1195 25.6361Z" fill="#024D81"/>
</svg>
