<svg width="90" height="90" viewBox="0 0 90 90" fill="none" xmlns="http://www.w3.org/2000/svg">
<path d="M20.6884 27.612H12.7359C12.5572 27.6224 12.3844 27.6796 12.2348 27.7777C12.1023 27.8976 12.0038 28.0502 11.9492 28.2203V68.0038C12.0529 68.5166 12.2732 68.9989 12.5931 69.413C12.9441 69.7635 13.3808 70.0159 13.8595 70.1453H73.0158C73.4584 70.0859 73.8762 69.9061 74.2236 69.6256C74.4942 69.218 74.6545 68.7474 74.6891 68.2594V28.4587C74.6781 28.22 74.5759 27.9947 74.4035 27.8292C74.1616 27.6883 73.8869 27.6133 73.6069 27.612H66.227" stroke="#024D81" stroke-width="2" stroke-linecap="round" stroke-linejoin="round"/>
<path d="M31.9746 78.5343H54.3199" stroke="#024D81" stroke-width="2" stroke-linecap="round"/>
<path d="M37.958 78.5359V72.13" stroke="#024D81" stroke-width="2" stroke-linecap="round"/>
<path d="M48.9551 78.5359V72.13" stroke="#024D81" stroke-width="2" stroke-linecap="round"/>
<path d="M39.4784 30.744V21.7108H30.4453V30.744H39.4784Z" stroke="#024D81" stroke-width="2" stroke-linecap="round" stroke-linejoin="round"/>
<path d="M66.825 15.796H34.4443V19.8165" stroke="#024D81" stroke-width="2" stroke-linecap="round" stroke-linejoin="round"/>
<path d="M51.5117 15.796V32.3576" stroke="#024D81" stroke-width="2" stroke-linecap="round"/>
<path d="M56.4883 43.8406V34.8075H47.4551V43.8406H56.4883Z" stroke="#024D81" stroke-width="2" stroke-linecap="round" stroke-linejoin="round"/>
<path d="M77.9999 20.3116V11.2783H68.9668V20.3116H77.9999Z" stroke="#024D81" stroke-width="2" stroke-linecap="round" stroke-linejoin="round"/>
<path d="M56.2059 53.0451H21.9404V63.0392H56.2059V53.0451Z" stroke="#024D81" stroke-width="2" stroke-linecap="round" stroke-linejoin="round"/>
<path d="M34.79 30.8111V51.1133" stroke="#024D81" stroke-width="2" stroke-linecap="round"/>
<path d="M51.9229 44.9723V51.2628" stroke="#024D81" stroke-width="2" stroke-linecap="round"/>
</svg>
