<svg width="104" height="100" viewBox="0 0 104 100" fill="none" xmlns="http://www.w3.org/2000/svg">
<mask id="mask0_1391_92" style="mask-type:alpha" maskUnits="userSpaceOnUse" x="17" y="67" width="69" height="31">
<path fill-rule="evenodd" clip-rule="evenodd" d="M17.7046 67.3074H85.8437V97.0002H17.7046V67.3074Z" fill="white"/>
</mask>
<g mask="url(#mask0_1391_92)">
<path fill-rule="evenodd" clip-rule="evenodd" d="M85.8437 97.0002H17.7046V90.6497C17.7046 83.6985 24.2267 80.4375 25.9431 80.0084C29.8049 78.9786 39.0732 74.1728 41.7335 72.7997V67.3932H44.3938V74.3444L43.6215 74.6877C43.1066 74.9451 31.3496 81.124 26.6296 82.4971C26.5438 82.4971 20.3649 84.7283 20.3649 90.6497V94.3399H83.1834V90.6497C83.1834 84.7283 77.0045 82.4971 76.9187 82.4971C72.1987 81.2098 60.4417 75.031 59.9268 74.6877L59.2403 74.3444V67.3074H61.9006V72.7997C64.561 74.1728 73.8292 78.9786 77.691 80.0084C79.4074 80.5233 85.9295 83.6985 85.9295 90.6497V97.0002H85.8437Z" fill="#024D81"/>
</g>
<path fill-rule="evenodd" clip-rule="evenodd" d="M51.3452 32.7226C47.3118 32.7226 43.9649 34.0957 41.6478 36.756C38.9016 39.8455 37.7002 44.5654 38.3009 50.0577C39.0733 57.2664 41.8194 69.4525 51.3452 69.4525C60.9567 69.4525 63.6171 57.3522 64.3894 50.0577C64.9902 44.6512 63.7887 39.9313 61.0426 36.756C58.7255 34.0957 55.3786 32.7226 51.3452 32.7226ZM51.3452 72.1128C42.7634 72.1128 37.0995 64.3893 35.6406 50.3152C34.954 44.1363 36.4129 38.644 39.674 34.9539C42.506 31.7786 46.5394 30.0623 51.3452 30.0623C56.151 30.0623 60.1844 31.7786 63.0164 34.9539C66.2774 38.644 67.7363 44.1363 67.0498 50.3152C65.5909 64.3893 59.9269 72.1128 51.3452 72.1128Z" fill="#024D81"/>
<path fill-rule="evenodd" clip-rule="evenodd" d="M51.3451 77.2618C47.3975 77.2618 43.7931 76.1462 41.4761 74.0866L43.1924 72.1128C44.9946 73.6575 48.084 74.6015 51.3451 74.6015C54.6062 74.6015 57.6956 73.6575 59.4978 72.1128L61.2141 74.0866C58.897 76.1462 55.2927 77.2618 51.3451 77.2618Z" fill="#024D81"/>
<path fill-rule="evenodd" clip-rule="evenodd" d="M100.69 91.8509H83.5266V89.1906H98.0298V77.8627L89.6197 73.6576V67.822H92.1942V72.0271L100.69 76.2321V91.8509Z" fill="#024D81"/>
<path fill-rule="evenodd" clip-rule="evenodd" d="M69.281 78.1201L68.0796 75.7172L75.7174 71.9413V67.822H78.3777V73.5718L69.281 78.1201Z" fill="#024D81"/>
<path fill-rule="evenodd" clip-rule="evenodd" d="M83.5264 41.3044C80.4369 41.3044 77.7766 42.3342 75.9744 44.3938C73.829 46.7967 72.885 50.401 73.3141 54.6061C74.0006 60.0984 76.146 69.4525 83.5264 69.4525C90.9067 69.4525 93.0521 60.0984 93.6528 54.5203C94.0819 50.3152 93.2237 46.7109 91.0783 44.308C89.2761 42.3342 86.6158 41.3044 83.5264 41.3044ZM83.5264 72.1129C76.4893 72.1129 72.0268 65.934 70.7395 54.8636C70.2246 49.8861 71.4261 45.5094 74.0864 42.5916C76.4035 40.0171 79.6646 38.644 83.5264 38.644C87.3881 38.644 90.6492 40.0171 92.9663 42.5916C95.6266 45.5094 96.7423 49.8861 96.2273 54.8636C95.0259 65.934 90.5634 72.1129 83.5264 72.1129Z" fill="#024D81"/>
<path fill-rule="evenodd" clip-rule="evenodd" d="M83.9559 76.4037C80.6948 76.4037 77.777 75.5455 75.8032 74.0008L77.5196 72.1128C78.9785 73.2284 81.3814 73.915 83.9559 73.915C86.5304 73.915 88.9333 73.2284 90.3922 72.1128L92.1086 74.0008C90.1347 75.5455 87.217 76.4037 83.9559 76.4037Z" fill="#024D81"/>
<path fill-rule="evenodd" clip-rule="evenodd" d="M19.1635 91.8509H2V76.2321L10.4959 72.0271V67.822H13.0705V73.6576L4.66034 77.8627V89.1906H19.1635V91.8509Z" fill="#024D81"/>
<path fill-rule="evenodd" clip-rule="evenodd" d="M33.4092 78.1201L24.3125 73.5718V67.822H26.9728V71.9413L34.6106 75.7172L33.4092 78.1201Z" fill="#024D81"/>
<path fill-rule="evenodd" clip-rule="evenodd" d="M19.1638 39.9313V41.2186C16.0744 41.2186 13.4141 42.2484 11.6119 44.308C9.46646 46.7109 8.52246 50.3152 9.03737 54.5203C9.63809 60.0984 11.7835 69.4525 19.1638 69.4525C26.5441 69.4525 28.6896 60.0984 29.2903 54.5203C29.7194 50.3152 28.7754 46.7109 26.63 44.308C24.8278 42.3342 22.2533 41.2186 19.078 41.2186L19.1638 39.9313ZM19.1638 72.1129C12.1268 72.1129 7.66429 65.934 6.46284 54.8636C5.86212 49.8861 7.06357 45.5094 9.72391 42.5916C12.041 40.0171 15.302 38.644 19.1638 38.644C23.0256 38.644 26.2867 40.0171 28.6038 42.5916C31.2641 45.5094 32.3797 49.8861 31.8648 54.8636C30.6634 65.934 26.2009 72.1129 19.1638 72.1129Z" fill="#024D81"/>
<path fill-rule="evenodd" clip-rule="evenodd" d="M18.7345 76.4037C15.4734 76.4037 12.5556 75.5455 10.5818 74.0008L12.2981 72.1128C13.757 73.2284 16.1599 73.915 18.7345 73.915C21.309 73.915 23.7119 73.2284 25.1708 72.1128L26.8871 74.0008C24.9133 75.5455 21.9955 76.4037 18.7345 76.4037Z" fill="#024D81"/>
<path fill-rule="evenodd" clip-rule="evenodd" d="M18.2194 36.9278L15.7307 36.842C15.7307 36.3271 15.7307 35.8121 15.8165 35.2114L18.3052 35.4689C18.3052 35.898 18.2194 36.4129 18.2194 36.9278Z" fill="#024D81"/>
<mask id="mask1_1391_92" style="mask-type:alpha" maskUnits="userSpaceOnUse" x="15" y="2" width="72" height="31">
<path fill-rule="evenodd" clip-rule="evenodd" d="M15.9023 2H86.7018V32.3794H15.9023V2Z" fill="white"/>
</mask>
<g mask="url(#mask1_1391_92)">
<path fill-rule="evenodd" clip-rule="evenodd" d="M52.6322 4.66034C51.7741 4.66034 50.9159 4.66034 50.0577 4.66034L49.9719 2C50.9159 2 51.7741 2 52.7181 2L52.6322 3.20145V4.66034ZM57.6097 5.26107C56.7515 5.08943 55.9791 5.00361 55.121 4.9178L55.4642 2.25745C56.4082 2.34327 57.2664 2.51491 58.2104 2.68654L57.6097 5.26107ZM44.9945 5.26107L44.4796 2.68654C45.3378 2.51491 46.2817 2.34327 47.2257 2.25745L47.4832 4.83198C46.7108 4.9178 45.8527 5.08943 44.9945 5.26107ZM62.5013 6.54833C61.7289 6.29088 60.8707 6.03342 60.0984 5.77597L60.7849 3.20145C61.6431 3.4589 62.5871 3.71635 63.4453 4.05962L62.5013 6.54833ZM40.1029 6.54833L39.1589 4.05962C40.0171 3.71635 40.8752 3.4589 41.7334 3.20145L42.42 5.77597C41.7334 6.03342 40.8752 6.29088 40.1029 6.54833ZM67.1354 8.60795C66.3631 8.17886 65.5907 7.83559 64.8183 7.49232L65.934 5.08943C66.7921 5.4327 67.5645 5.86179 68.4227 6.29088L67.1354 8.60795ZM35.4687 8.60795L34.1815 6.29088C34.9538 5.86179 35.812 5.4327 36.6702 5.08943L37.7858 7.49232C37.0135 7.83559 36.2411 8.17886 35.4687 8.60795ZM71.4263 11.3541C70.7397 10.8392 70.0532 10.3243 69.3667 9.89521L70.8256 7.66396C71.5979 8.17886 72.3703 8.69377 73.0568 9.20867L71.4263 11.3541ZM31.2637 11.3541L29.6331 9.29449C30.3197 8.77958 31.092 8.17886 31.8644 7.74977L33.3233 9.98103C32.6368 10.3243 31.9502 10.8392 31.2637 11.3541ZM75.2023 14.701C74.6015 14.1003 74.0008 13.4995 73.4001 12.9846L75.2023 11.0108C75.8888 11.6116 76.5753 12.2123 77.1761 12.8988L75.2023 14.701ZM27.4877 14.701L25.5139 12.8988C26.1146 12.2123 26.8012 11.6116 27.4877 11.0108L29.2899 12.9846C28.6892 13.4995 28.0026 14.1003 27.4877 14.701ZM78.4633 18.5628C77.9484 17.8762 77.4335 17.1897 76.9186 16.589L78.9782 14.8726C79.5789 15.5592 80.0939 16.3315 80.6088 17.0181L78.4633 18.5628ZM24.2266 18.5628L22.0812 17.0181C22.5961 16.3315 23.111 15.5592 23.7117 14.8726L25.7714 16.589C25.2565 17.1897 24.7415 17.8762 24.2266 18.5628ZM81.0378 22.8537C80.6946 22.0813 80.2655 21.3948 79.8364 20.6224L82.1535 19.2493C82.5826 20.0217 83.0975 20.794 83.4407 21.6522L81.0378 22.8537ZM21.6521 22.8537L19.2492 21.6522C19.6783 20.8799 20.1074 20.0217 20.5365 19.2493L22.8536 20.6224C22.4245 21.3948 21.9954 22.1671 21.6521 22.8537ZM82.9258 27.4878C82.6684 26.7154 82.4109 25.8573 82.0677 25.0849L84.5564 24.0551C84.8996 24.9133 85.2429 25.7715 85.5004 26.6296L82.9258 27.4878ZM19.7641 27.5736L17.1896 26.8013C17.4471 25.9431 17.7903 25.0849 18.1336 24.2267L20.6223 25.1707C20.279 25.9431 20.0216 26.7154 19.7641 27.5736ZM84.1273 32.3794C84.0415 31.5212 83.8698 30.7489 83.6124 29.8907L86.1869 29.29C86.3585 30.1481 86.5302 31.0921 86.7018 31.9503L84.1273 32.3794ZM18.5627 32.3794L15.9023 31.9503C16.074 31.0921 16.2456 30.1481 16.4172 29.29L18.9918 29.8907C18.906 30.7489 18.7343 31.607 18.5627 32.3794Z" fill="#024D81"/>
</g>
<path fill-rule="evenodd" clip-rule="evenodd" d="M84.4708 36.9278C84.4708 36.4129 84.4708 35.9838 84.385 35.4689L86.8737 35.2114C86.8737 35.7263 86.9595 36.3271 86.9595 36.842L84.4708 36.9278Z" fill="#024D81"/>
<path fill-rule="evenodd" clip-rule="evenodd" d="M32.723 68.852C31.9506 68.4229 31.0924 67.908 30.3201 67.3931L31.9506 65.3335C32.6371 65.8484 33.4095 66.2775 34.1819 66.7066L32.723 68.852ZM37.872 71.2549C37.0138 70.9116 36.0698 70.5684 35.2975 70.1393L36.5847 67.8222C37.3571 68.1655 38.2153 68.5087 38.9876 68.852L37.872 71.2549Z" fill="#024D81"/>
<path fill-rule="evenodd" clip-rule="evenodd" d="M69.9674 68.8519L68.5085 66.6206C69.2809 66.1916 69.9674 65.7625 70.7398 65.2476L72.3703 67.3072C71.598 67.8221 70.8256 68.337 69.9674 68.8519ZM64.8184 71.2548L63.7886 68.8519C64.6467 68.5086 65.4191 68.1654 66.1915 67.8221L67.4787 70.1392C66.6206 70.5682 65.7624 70.9115 64.8184 71.2548Z" fill="#024D81"/>
</svg>
