<svg width="90" height="90" viewBox="0 0 90 90" fill="none" xmlns="http://www.w3.org/2000/svg">
<path d="M53.5625 70.8751C55.9788 70.8751 57.9375 68.9164 57.9375 66.5001C57.9375 64.0839 55.9788 62.1251 53.5625 62.1251C51.1463 62.1251 49.1875 64.0839 49.1875 66.5001C49.1875 68.9164 51.1463 70.8751 53.5625 70.8751Z" stroke="#024D81" stroke-width="2"/>
<path d="M53.5625 27.125C55.9788 27.125 57.9375 25.1663 57.9375 22.75C57.9375 20.3338 55.9788 18.375 53.5625 18.375C51.1463 18.375 49.1875 20.3338 49.1875 22.75C49.1875 25.1663 51.1463 27.125 53.5625 27.125Z" stroke="#024D81" stroke-width="2"/>
<path d="M16.375 49C18.7913 49 20.75 47.0413 20.75 44.625C20.75 42.2088 18.7913 40.25 16.375 40.25C13.9588 40.25 12 42.2088 12 44.625C12 47.0413 13.9588 49 16.375 49Z" stroke="#024D81" stroke-width="2"/>
<path d="M68.8751 35.875C66.9405 35.8808 65.0624 36.5282 63.5352 37.7157C62.008 38.9033 60.9179 40.564 60.4357 42.4375H51.0644C50.7546 41.2039 50.1773 40.0535 49.3735 39.0678C48.5696 38.082 47.5588 37.2851 46.4127 36.7335C45.2667 36.1818 44.0133 35.8889 42.7414 35.8755C41.4695 35.8621 40.2103 36.1286 39.0528 36.656L32.1031 27.9716C33.2463 26.4703 33.8684 24.637 33.875 22.75C33.875 21.0194 33.3618 19.3277 32.4004 17.8888C31.4389 16.4498 30.0724 15.3283 28.4735 14.6661C26.8746 14.0038 25.1153 13.8305 23.418 14.1681C21.7206 14.5058 20.1615 15.3391 18.9378 16.5628C17.7141 17.7865 16.8808 19.3456 16.5431 21.043C16.2055 22.7403 16.3788 24.4996 17.0411 26.0985C17.7033 27.6974 18.8248 29.0639 20.2638 30.0254C21.7027 30.9868 23.3944 31.5 25.125 31.5C26.3585 31.4972 27.5771 31.2309 28.6994 30.7191L35.6469 39.4035C34.4985 40.9019 33.8761 42.7371 33.8761 44.625C33.8761 46.5129 34.4985 48.3482 35.6469 49.8466L28.6994 58.531C27.5771 58.0192 26.3585 57.7529 25.125 57.75C23.3944 57.75 21.7027 58.2632 20.2638 59.2247C18.8248 60.1862 17.7033 61.5527 17.0411 63.1516C16.3788 64.7504 16.2055 66.5098 16.5431 68.2071C16.8808 69.9044 17.7141 71.4635 18.9378 72.6872C20.1615 73.911 21.7206 74.7443 23.418 75.0819C25.1153 75.4196 26.8746 75.2463 28.4735 74.584C30.0724 73.9217 31.4389 72.8002 32.4004 71.3613C33.3618 69.9224 33.875 68.2306 33.875 66.5001C33.8686 64.6131 33.2465 62.7797 32.1031 61.2785L39.0507 52.5941C40.2082 53.1219 41.4677 53.3886 42.7398 53.3754C44.0119 53.3623 45.2656 53.0694 46.412 52.5178C47.5583 51.9661 48.5693 51.169 49.3733 50.1831C50.1773 49.1972 50.7547 48.0465 51.0644 46.8125H60.4357C60.8476 48.3931 61.6945 49.8266 62.8801 50.95C64.0658 52.0735 65.5427 52.8421 67.1431 53.1683C68.7436 53.4946 70.4035 53.3656 71.9343 52.796C73.4652 52.2263 74.8056 51.2388 75.8034 49.9456C76.8013 48.6525 77.4165 47.1054 77.5793 45.4801C77.742 43.8549 77.4458 42.2165 76.7243 40.7511C76.0027 39.2858 74.8847 38.0521 73.4973 37.1901C72.1098 36.3282 70.5084 35.8726 68.8751 35.875V35.875ZM20.75 22.75C20.75 21.8847 21.0066 21.0389 21.4873 20.3194C21.9681 19.5999 22.6513 19.0392 23.4508 18.708C24.2502 18.3769 25.1299 18.2903 25.9785 18.4591C26.8272 18.6279 27.6068 19.0446 28.2186 19.6564C28.8305 20.2683 29.2471 21.0478 29.416 21.8965C29.5848 22.7452 29.4981 23.6248 29.167 24.4243C28.8359 25.2237 28.2751 25.907 27.5556 26.3877C26.8362 26.8684 25.9903 27.125 25.125 27.125C23.965 27.1239 22.8529 26.6625 22.0327 25.8423C21.2125 25.0221 20.7512 23.91 20.75 22.75V22.75ZM25.125 70.8751C24.2597 70.8751 23.4139 70.6185 22.6944 70.1377C21.9749 69.657 21.4142 68.9737 21.083 68.1743C20.7519 67.3749 20.6653 66.4952 20.8341 65.6465C21.0029 64.7979 21.4196 64.0183 22.0314 63.4065C22.6433 62.7946 23.4228 62.3779 24.2715 62.2091C25.1202 62.0403 25.9998 62.1269 26.7993 62.4581C27.5987 62.7892 28.282 63.35 28.7627 64.0694C29.2434 64.7889 29.5 65.6348 29.5 66.5001C29.4989 67.66 29.0375 68.7722 28.2173 69.5924C27.3971 70.4126 26.285 70.8739 25.125 70.8751ZM42.625 49C41.7597 49 40.9139 48.7434 40.1944 48.2627C39.4749 47.782 38.9142 47.0987 38.5831 46.2993C38.2519 45.4998 38.1653 44.6202 38.3341 43.7715C38.5029 42.9228 38.9196 42.1433 39.5314 41.5314C40.1433 40.9196 40.9228 40.5029 41.7715 40.3341C42.6202 40.1653 43.4998 40.2519 44.2993 40.5831C45.0987 40.9142 45.782 41.4749 46.2627 42.1944C46.7434 42.9139 47 43.7597 47 44.625C46.9989 45.785 46.5376 46.8971 45.7173 47.7174C44.8971 48.5376 43.785 48.9989 42.625 49V49ZM68.8751 49C68.0098 49 67.1639 48.7434 66.4444 48.2627C65.725 47.782 65.1642 47.0987 64.8331 46.2993C64.5019 45.4998 64.4153 44.6202 64.5841 43.7715C64.7529 42.9228 65.1696 42.1433 65.7815 41.5314C66.3933 40.9196 67.1729 40.5029 68.0215 40.3341C68.8702 40.1653 69.7499 40.2519 70.5493 40.5831C71.3487 40.9142 72.032 41.4749 72.5127 42.1944C72.9935 42.9139 73.2501 43.7597 73.2501 44.625C73.2489 45.785 72.7876 46.8971 71.9674 47.7174C71.1472 48.5376 70.035 48.9989 68.8751 49V49Z" stroke="#024D81" stroke-width="2"/>
</svg>
