<svg width="174" height="174" viewBox="0 0 174 174" fill="none" xmlns="http://www.w3.org/2000/svg">
<g filter="url(#filter0_d_1837_1422)">
<rect x="86.7109" y="16" width="100" height="100" rx="10" transform="rotate(45 86.7109 16)" fill="white"/>
</g>
<g clip-path="url(#clip0_1837_1422)">
<path d="M65.5104 55H107.49C113.854 55 119 60.1458 119 66.5104V106.865C119 113.229 113.854 118.375 107.49 118.375H65.5104C59.1458 118.375 54 113.229 54 106.865V66.5104C54 60.1458 59.1458 55 65.5104 55Z" fill="#470137"/>
<path d="M88.1794 71.6562L80.0544 85.0625L88.721 99.2812C88.7752 99.3896 88.8023 99.4979 88.7752 99.6062C88.7481 99.7146 88.6398 99.6333 88.4773 99.6604H82.2752C81.8419 99.6604 81.544 99.6333 81.3544 99.3625C80.7856 98.225 80.1898 97.1146 79.621 95.9771C79.0523 94.8667 78.4294 93.7292 77.7794 92.5646C77.1294 91.4 76.4794 90.2354 75.8294 89.0437H75.7752C75.2065 90.2083 74.5835 91.3729 73.9606 92.5375C73.3377 93.7021 72.7148 94.8667 72.119 96.0042C71.496 97.1417 70.8731 98.3062 70.2502 99.4167C70.1419 99.6875 69.9252 99.7146 69.6273 99.7146H63.669C63.5606 99.7146 63.4794 99.7687 63.4794 99.6333C63.4523 99.525 63.4794 99.4167 63.5335 99.3354L71.9565 85.5229L63.7502 71.6292C63.669 71.5208 63.6419 71.4125 63.696 71.3583C63.7502 71.2771 63.8585 71.25 63.9669 71.25H70.1148C70.2502 71.25 70.3856 71.2771 70.494 71.3042C70.6023 71.3583 70.6835 71.4396 70.7648 71.5479C71.2794 72.7125 71.8752 73.8771 72.4981 75.0417C73.1481 76.2062 73.771 77.3437 74.4481 78.4812C75.0981 79.6187 75.694 80.7562 76.2627 81.9208H76.3169C76.8856 80.7292 77.4815 79.5646 78.0773 78.4271C78.6731 77.2896 79.296 76.1521 79.919 75.0146C80.5419 73.8771 81.1377 72.7125 81.7335 71.6021C81.7606 71.4937 81.8148 71.3854 81.896 71.3312C82.0044 71.2771 82.1127 71.25 82.2481 71.2771H87.9627C88.0981 71.25 88.2335 71.3312 88.2606 71.4667C88.2877 71.4937 88.2335 71.6021 88.1794 71.6562Z" fill="#FF61F6"/>
<path d="M100.692 100.229C98.688 100.256 96.6838 99.8501 94.8692 99.0105C93.163 98.2251 91.7547 96.9251 90.7797 95.3272C89.7776 93.6751 89.2901 91.6168 89.2901 89.1522C89.263 87.148 89.7776 85.1709 90.7797 83.4376C91.8088 81.6772 93.2984 80.2147 95.0859 79.2397C96.9817 78.1834 99.2567 77.6689 101.938 77.6689C102.073 77.6689 102.263 77.6689 102.507 77.6959C102.75 77.723 103.021 77.723 103.346 77.7501V69.1918C103.346 69.0022 103.428 68.8939 103.617 68.8939H109.115C109.25 68.8668 109.359 68.9751 109.386 69.0834C109.386 69.1105 109.386 69.1376 109.386 69.1376V94.9209C109.386 95.4084 109.413 95.9501 109.44 96.5459C109.494 97.1147 109.521 97.6564 109.548 98.1168C109.548 98.3064 109.467 98.4689 109.278 98.5501C107.869 99.1459 106.38 99.5793 104.863 99.8501C103.482 100.094 102.1 100.229 100.692 100.229ZM103.346 94.8126V82.8959C103.103 82.8418 102.859 82.7876 102.615 82.7605C102.317 82.7334 102.019 82.7064 101.721 82.7064C100.665 82.7064 99.6088 82.923 98.6609 83.4105C97.7401 83.8709 96.9547 84.548 96.3588 85.4147C95.763 86.2814 95.4651 87.4459 95.4651 88.8543C95.438 89.8022 95.6005 90.7501 95.9255 91.6439C96.1963 92.3751 96.6026 93.0251 97.1442 93.5668C97.6588 94.0543 98.2817 94.4334 98.9859 94.6501C99.7172 94.8939 100.475 95.0022 101.234 95.0022C101.64 95.0022 102.019 94.9751 102.371 94.948C102.723 94.9751 103.021 94.9209 103.346 94.8126Z" fill="#FF61F6"/>
</g>
<defs>
<filter id="filter0_d_1837_1422" x="0.142578" y="0.14209" width="173.137" height="173.137" filterUnits="userSpaceOnUse" color-interpolation-filters="sRGB">
<feFlood flood-opacity="0" result="BackgroundImageFix"/>
<feColorMatrix in="SourceAlpha" type="matrix" values="0 0 0 0 0 0 0 0 0 0 0 0 0 0 0 0 0 0 127 0" result="hardAlpha"/>
<feOffset/>
<feGaussianBlur stdDeviation="10"/>
<feComposite in2="hardAlpha" operator="out"/>
<feColorMatrix type="matrix" values="0 0 0 0 0 0 0 0 0 0 0 0 0 0 0 0 0 0 0.1 0"/>
<feBlend mode="normal" in2="BackgroundImageFix" result="effect1_dropShadow_1837_1422"/>
<feBlend mode="normal" in="SourceGraphic" in2="effect1_dropShadow_1837_1422" result="shape"/>
</filter>
<clipPath id="clip0_1837_1422">
<rect width="65" height="63.375" fill="white" transform="translate(54 55)"/>
</clipPath>
</defs>
</svg>
