<svg width="30" height="30" viewBox="0 0 30 30" fill="none" xmlns="http://www.w3.org/2000/svg">
<path d="M30 15C30 6.71573 23.2843 0 15 0C6.71573 0 0 6.71573 0 15C0 23.2843 6.71573 30 15 30C23.2843 30 30 23.2843 30 15Z" fill="#024D81"/>
<path d="M14.9941 7.92188C14.9941 7.92188 8.67226 7.92188 7.08555 8.33418C6.23597 8.57156 5.53641 9.27113 5.29902 10.1332C4.88673 11.7199 4.88672 15.0059 4.88672 15.0059C4.88672 15.0059 4.88673 18.3043 5.29902 19.866C5.53641 20.7281 6.22347 21.4152 7.08555 21.6525C8.68475 22.0773 14.9941 22.0773 14.9941 22.0773C14.9941 22.0773 21.3286 22.0773 22.9152 21.665C23.7773 21.4277 24.4644 20.7531 24.6893 19.8785C25.1141 18.3043 25.1141 15.0184 25.1141 15.0184C25.1141 15.0184 25.1265 11.7199 24.6893 10.1332C24.4644 9.27113 23.7773 8.58407 22.9152 8.35918C21.3286 7.92189 14.9941 7.92188 14.9941 7.92188ZM12.9826 11.9699L18.2426 15.0059L12.9826 18.0293V11.9699Z" fill="white"/>
</svg>
